<?xml version="1.0" encoding="UTF-8" standalone="no"?>
<!DOCTYPE svg PUBLIC "-//W3C//DTD SVG 1.1//EN"
 "http://www.w3.org/Graphics/SVG/1.1/DTD/svg11.dtd">
<!-- Generated by graphviz version 2.43.0 (0)
 -->
<!-- Title: express/dispatcher/ApplicationDispatcher.h Pages: 1 -->
<svg width="427pt" height="106pt"
 viewBox="0.00 0.00 427.00 106.00" xmlns="http://www.w3.org/2000/svg" xmlns:xlink="http://www.w3.org/1999/xlink">
<g id="graph0" class="graph" transform="scale(1 1) rotate(0) translate(4 102)">
<title>express/dispatcher/ApplicationDispatcher.h</title>
<polygon fill="white" stroke="transparent" points="-4,4 -4,-102 423,-102 423,4 -4,4"/>
<!-- Node1 -->
<g id="node1" class="node">
<title>Node1</title>
<g id="a_node1"><a xlink:title=" ">
<polygon fill="#bfbfbf" stroke="black" points="161.5,-67.5 161.5,-97.5 297.5,-97.5 297.5,-67.5 161.5,-67.5"/>
<text text-anchor="start" x="169.5" y="-85.5" font-family="Helvetica,sans-Serif" font-size="10.00">express/dispatcher</text>
<text text-anchor="middle" x="229.5" y="-74.5" font-family="Helvetica,sans-Serif" font-size="10.00">/ApplicationDispatcher.h</text>
</a>
</g>
</g>
<!-- Node2 -->
<g id="node2" class="node">
<title>Node2</title>
<g id="a_node2"><a xlink:href="_application_dispatcher_8cpp.html" target="_top" xlink:title=" ">
<polygon fill="white" stroke="black" points="0,-0.5 0,-30.5 147,-30.5 147,-0.5 0,-0.5"/>
<text text-anchor="start" x="8" y="-18.5" font-family="Helvetica,sans-Serif" font-size="10.00">express/dispatcher</text>
<text text-anchor="middle" x="73.5" y="-7.5" font-family="Helvetica,sans-Serif" font-size="10.00">/ApplicationDispatcher.cpp</text>
</a>
</g>
</g>
<!-- Node1&#45;&gt;Node2 -->
<g id="edge1" class="edge">
<title>Node1&#45;&gt;Node2</title>
<path fill="none" stroke="midnightblue" d="M186.41,-63.54C161.44,-53.14 130.47,-40.24 107.28,-30.58"/>
<polygon fill="midnightblue" stroke="midnightblue" points="185.07,-66.78 195.65,-67.4 187.77,-60.32 185.07,-66.78"/>
</g>
<!-- Node3 -->
<g id="node3" class="node">
<title>Node3</title>
<g id="a_node3"><a xlink:href="_root_route_8cpp.html" target="_top" xlink:title=" ">
<polygon fill="white" stroke="black" points="165,-6 165,-25 294,-25 294,-6 165,-6"/>
<text text-anchor="middle" x="229.5" y="-13" font-family="Helvetica,sans-Serif" font-size="10.00">express/RootRoute.cpp</text>
</a>
</g>
</g>
<!-- Node1&#45;&gt;Node3 -->
<g id="edge2" class="edge">
<title>Node1&#45;&gt;Node3</title>
<path fill="none" stroke="midnightblue" d="M229.5,-57.25C229.5,-46.02 229.5,-33.38 229.5,-25.19"/>
<polygon fill="midnightblue" stroke="midnightblue" points="226,-57.4 229.5,-67.4 233,-57.4 226,-57.4"/>
</g>
<!-- Node4 -->
<g id="node4" class="node">
<title>Node4</title>
<g id="a_node4"><a xlink:href="_route_8cpp.html" target="_top" xlink:title=" ">
<polygon fill="white" stroke="black" points="312,-6 312,-25 419,-25 419,-6 312,-6"/>
<text text-anchor="middle" x="365.5" y="-13" font-family="Helvetica,sans-Serif" font-size="10.00">express/Route.cpp</text>
</a>
</g>
</g>
<!-- Node1&#45;&gt;Node4 -->
<g id="edge3" class="edge">
<title>Node1&#45;&gt;Node4</title>
<path fill="none" stroke="midnightblue" d="M268.28,-62.97C294.4,-50.48 327.63,-34.6 347.7,-25.01"/>
<polygon fill="midnightblue" stroke="midnightblue" points="266.52,-59.93 259.01,-67.4 269.54,-66.24 266.52,-59.93"/>
</g>
</g>
</svg>
