<?xml version="1.0" encoding="UTF-8" standalone="no"?>
<!DOCTYPE svg PUBLIC "-//W3C//DTD SVG 1.1//EN"
 "http://www.w3.org/Graphics/SVG/1.1/DTD/svg11.dtd">
<!-- Generated by graphviz version 2.43.0 (0)
 -->
<!-- Title: net/config/ConfigCluster.h Pages: 1 -->
<svg width="2712pt" height="363pt"
 viewBox="0.00 0.00 2712.00 363.00" xmlns="http://www.w3.org/2000/svg" xmlns:xlink="http://www.w3.org/1999/xlink">
<g id="graph0" class="graph" transform="scale(1 1) rotate(0) translate(4 359)">
<title>net/config/ConfigCluster.h</title>
<polygon fill="white" stroke="transparent" points="-4,4 -4,-359 2708,-359 2708,4 -4,4"/>
<!-- Node1 -->
<g id="node1" class="node">
<title>Node1</title>
<g id="a_node1"><a xlink:title=" ">
<polygon fill="#bfbfbf" stroke="black" points="1415,-335.5 1415,-354.5 1558,-354.5 1558,-335.5 1415,-335.5"/>
<text text-anchor="middle" x="1486.5" y="-342.5" font-family="Helvetica,sans-Serif" font-size="10.00">net/config/ConfigCluster.h</text>
</a>
</g>
</g>
<!-- Node2 -->
<g id="node2" class="node">
<title>Node2</title>
<g id="a_node2"><a xlink:href="_socket_acceptor_8h.html" target="_top" xlink:title=" ">
<polygon fill="white" stroke="black" points="1431.5,-268.5 1431.5,-298.5 1541.5,-298.5 1541.5,-268.5 1431.5,-268.5"/>
<text text-anchor="start" x="1439.5" y="-286.5" font-family="Helvetica,sans-Serif" font-size="10.00">core/socket/stream</text>
<text text-anchor="middle" x="1486.5" y="-275.5" font-family="Helvetica,sans-Serif" font-size="10.00">/SocketAcceptor.h</text>
</a>
</g>
</g>
<!-- Node1&#45;&gt;Node2 -->
<g id="edge1" class="edge">
<title>Node1&#45;&gt;Node2</title>
<path fill="none" stroke="midnightblue" d="M1486.5,-325.23C1486.5,-316.59 1486.5,-306.5 1486.5,-298.52"/>
<polygon fill="midnightblue" stroke="midnightblue" points="1483,-325.48 1486.5,-335.48 1490,-325.48 1483,-325.48"/>
</g>
<!-- Node43 -->
<g id="node30" class="node">
<title>Node43</title>
<g id="a_node30"><a xlink:href="_config_cluster_8cpp.html" target="_top" xlink:title=" ">
<polygon fill="white" stroke="black" points="1636,-274 1636,-293 1791,-293 1791,-274 1636,-274"/>
<text text-anchor="middle" x="1713.5" y="-281" font-family="Helvetica,sans-Serif" font-size="10.00">net/config/ConfigCluster.cpp</text>
</a>
</g>
</g>
<!-- Node1&#45;&gt;Node43 -->
<g id="edge29" class="edge">
<title>Node1&#45;&gt;Node43</title>
<path fill="none" stroke="midnightblue" d="M1528.86,-332.9C1572.95,-321.34 1641.03,-303.5 1681.04,-293.01"/>
<polygon fill="midnightblue" stroke="midnightblue" points="1527.81,-329.55 1519.02,-335.48 1529.58,-336.33 1527.81,-329.55"/>
</g>
<!-- Node44 -->
<g id="node31" class="node">
<title>Node44</title>
<g id="a_node31"><a xlink:href="in_2stream_2config_2_config_socket_server_8h.html" target="_top" xlink:title=" ">
<polygon fill="white" stroke="black" points="288.5,-201.5 288.5,-231.5 412.5,-231.5 412.5,-201.5 288.5,-201.5"/>
<text text-anchor="start" x="296.5" y="-219.5" font-family="Helvetica,sans-Serif" font-size="10.00">net/in/stream/config</text>
<text text-anchor="middle" x="350.5" y="-208.5" font-family="Helvetica,sans-Serif" font-size="10.00">/ConfigSocketServer.h</text>
</a>
</g>
</g>
<!-- Node1&#45;&gt;Node44 -->
<g id="edge30" class="edge">
<title>Node1&#45;&gt;Node44</title>
<path fill="none" stroke="midnightblue" d="M1404.55,-334.87C1188.06,-310.77 604.4,-245.77 412.55,-224.41"/>
<polygon fill="midnightblue" stroke="midnightblue" points="1404.25,-338.36 1414.58,-335.99 1405.03,-331.41 1404.25,-338.36"/>
</g>
<!-- Node48 -->
<g id="node35" class="node">
<title>Node48</title>
<g id="a_node35"><a xlink:href="in6_2stream_2config_2_config_socket_server_8h.html" target="_top" xlink:title=" ">
<polygon fill="white" stroke="black" points="784.5,-201.5 784.5,-231.5 908.5,-231.5 908.5,-201.5 784.5,-201.5"/>
<text text-anchor="start" x="792.5" y="-219.5" font-family="Helvetica,sans-Serif" font-size="10.00">net/in6/stream/config</text>
<text text-anchor="middle" x="846.5" y="-208.5" font-family="Helvetica,sans-Serif" font-size="10.00">/ConfigSocketServer.h</text>
</a>
</g>
</g>
<!-- Node1&#45;&gt;Node48 -->
<g id="edge36" class="edge">
<title>Node1&#45;&gt;Node48</title>
<path fill="none" stroke="midnightblue" d="M1433.42,-333.51C1315.95,-310.29 1034.47,-254.65 908.86,-229.83"/>
<polygon fill="midnightblue" stroke="midnightblue" points="1432.78,-336.95 1443.26,-335.45 1434.13,-330.08 1432.78,-336.95"/>
</g>
<!-- Node52 -->
<g id="node39" class="node">
<title>Node52</title>
<g id="a_node39"><a xlink:href="l2_2stream_2config_2_config_socket_server_8h.html" target="_top" xlink:title=" ">
<polygon fill="white" stroke="black" points="1341.5,-201.5 1341.5,-231.5 1465.5,-231.5 1465.5,-201.5 1341.5,-201.5"/>
<text text-anchor="start" x="1349.5" y="-219.5" font-family="Helvetica,sans-Serif" font-size="10.00">net/l2/stream/config</text>
<text text-anchor="middle" x="1403.5" y="-208.5" font-family="Helvetica,sans-Serif" font-size="10.00">/ConfigSocketServer.h</text>
</a>
</g>
</g>
<!-- Node1&#45;&gt;Node52 -->
<g id="edge42" class="edge">
<title>Node1&#45;&gt;Node52</title>
<path fill="none" stroke="midnightblue" d="M1458.67,-330.51C1445.83,-322.94 1431.49,-312.32 1422.5,-299 1408.61,-278.4 1404.8,-248.96 1403.8,-231.68"/>
<polygon fill="midnightblue" stroke="midnightblue" points="1457.2,-333.7 1467.65,-335.48 1460.59,-327.57 1457.2,-333.7"/>
</g>
<!-- Node56 -->
<g id="node43" class="node">
<title>Node56</title>
<g id="a_node43"><a xlink:href="rc_2stream_2config_2_config_socket_server_8h.html" target="_top" xlink:title=" ">
<polygon fill="white" stroke="black" points="1864.5,-201.5 1864.5,-231.5 1988.5,-231.5 1988.5,-201.5 1864.5,-201.5"/>
<text text-anchor="start" x="1872.5" y="-219.5" font-family="Helvetica,sans-Serif" font-size="10.00">net/rc/stream/config</text>
<text text-anchor="middle" x="1926.5" y="-208.5" font-family="Helvetica,sans-Serif" font-size="10.00">/ConfigSocketServer.h</text>
</a>
</g>
</g>
<!-- Node1&#45;&gt;Node56 -->
<g id="edge48" class="edge">
<title>Node1&#45;&gt;Node56</title>
<path fill="none" stroke="midnightblue" d="M1507.19,-329.54C1519.75,-320.75 1536.08,-309.27 1550.5,-299 1569.69,-285.34 1571.69,-276.9 1593.5,-268 1682.96,-231.48 1795.68,-221.07 1864.36,-218.27"/>
<polygon fill="midnightblue" stroke="midnightblue" points="1504.99,-326.82 1498.8,-335.42 1509,-332.55 1504.99,-326.82"/>
</g>
<!-- Node60 -->
<g id="node47" class="node">
<title>Node60</title>
<g id="a_node47"><a xlink:href="un_2stream_2config_2_config_socket_server_8h.html" target="_top" xlink:title=" ">
<polygon fill="white" stroke="black" points="2340.5,-201.5 2340.5,-231.5 2464.5,-231.5 2464.5,-201.5 2340.5,-201.5"/>
<text text-anchor="start" x="2348.5" y="-219.5" font-family="Helvetica,sans-Serif" font-size="10.00">net/un/stream/config</text>
<text text-anchor="middle" x="2402.5" y="-208.5" font-family="Helvetica,sans-Serif" font-size="10.00">/ConfigSocketServer.h</text>
</a>
</g>
</g>
<!-- Node1&#45;&gt;Node60 -->
<g id="edge54" class="edge">
<title>Node1&#45;&gt;Node60</title>
<path fill="none" stroke="midnightblue" d="M1518.29,-331.55C1538.13,-323.3 1563.92,-311.68 1585.5,-299 1605.5,-287.25 1605.71,-275.97 1627.5,-268 1693.67,-243.81 2168.35,-225.46 2340.41,-219.54"/>
<polygon fill="midnightblue" stroke="midnightblue" points="1516.72,-328.41 1508.79,-335.44 1519.37,-334.89 1516.72,-328.41"/>
</g>
<!-- Node3 -->
<g id="node3" class="node">
<title>Node3</title>
<g id="a_node3"><a xlink:href="legacy_2_socket_acceptor_8h.html" target="_top" xlink:title=" ">
<polygon fill="white" stroke="black" points="1096,-201.5 1096,-231.5 1235,-231.5 1235,-201.5 1096,-201.5"/>
<text text-anchor="start" x="1104" y="-219.5" font-family="Helvetica,sans-Serif" font-size="10.00">core/socket/stream</text>
<text text-anchor="middle" x="1165.5" y="-208.5" font-family="Helvetica,sans-Serif" font-size="10.00">/legacy/SocketAcceptor.h</text>
</a>
</g>
</g>
<!-- Node2&#45;&gt;Node3 -->
<g id="edge2" class="edge">
<title>Node2&#45;&gt;Node3</title>
<path fill="none" stroke="midnightblue" d="M1421.47,-269.33C1367.24,-258.35 1290.16,-242.74 1234.78,-231.53"/>
<polygon fill="midnightblue" stroke="midnightblue" points="1420.82,-272.77 1431.32,-271.33 1422.21,-265.91 1420.82,-272.77"/>
</g>
<!-- Node23 -->
<g id="node17" class="node">
<title>Node23</title>
<g id="a_node17"><a xlink:href="tls_2_socket_acceptor_8h.html" target="_top" xlink:title=" ">
<polygon fill="white" stroke="black" points="1559,-201.5 1559,-231.5 1678,-231.5 1678,-201.5 1559,-201.5"/>
<text text-anchor="start" x="1567" y="-219.5" font-family="Helvetica,sans-Serif" font-size="10.00">core/socket/stream</text>
<text text-anchor="middle" x="1618.5" y="-208.5" font-family="Helvetica,sans-Serif" font-size="10.00">/tls/SocketAcceptor.h</text>
</a>
</g>
</g>
<!-- Node2&#45;&gt;Node23 -->
<g id="edge16" class="edge">
<title>Node2&#45;&gt;Node23</title>
<path fill="none" stroke="midnightblue" d="M1524.37,-263.85C1545.24,-253.58 1570.73,-241.03 1589.91,-231.58"/>
<polygon fill="midnightblue" stroke="midnightblue" points="1522.57,-260.84 1515.14,-268.4 1525.66,-267.12 1522.57,-260.84"/>
</g>
<!-- Node4 -->
<g id="node4" class="node">
<title>Node4</title>
<g id="a_node4"><a xlink:href="core_2socket_2stream_2legacy_2_socket_server_8h.html" target="_top" xlink:title=" ">
<polygon fill="white" stroke="black" points="1014.5,-134.5 1014.5,-164.5 1142.5,-164.5 1142.5,-134.5 1014.5,-134.5"/>
<text text-anchor="start" x="1022.5" y="-152.5" font-family="Helvetica,sans-Serif" font-size="10.00">core/socket/stream</text>
<text text-anchor="middle" x="1078.5" y="-141.5" font-family="Helvetica,sans-Serif" font-size="10.00">/legacy/SocketServer.h</text>
</a>
</g>
</g>
<!-- Node3&#45;&gt;Node4 -->
<g id="edge3" class="edge">
<title>Node3&#45;&gt;Node4</title>
<path fill="none" stroke="midnightblue" d="M1138.29,-195.17C1124.98,-185.23 1109.3,-173.51 1097.34,-164.58"/>
<polygon fill="midnightblue" stroke="midnightblue" points="1136.52,-198.21 1146.62,-201.4 1140.71,-192.61 1136.52,-198.21"/>
</g>
<!-- Node5 -->
<g id="node5" class="node">
<title>Node5</title>
<g id="a_node5"><a xlink:href="net_2in_2stream_2legacy_2_socket_server_8h.html" target="_top" xlink:title=" ">
<polygon fill="white" stroke="black" points="59,-67.5 59,-97.5 176,-97.5 176,-67.5 59,-67.5"/>
<text text-anchor="start" x="67" y="-85.5" font-family="Helvetica,sans-Serif" font-size="10.00">net/in/stream/legacy</text>
<text text-anchor="middle" x="117.5" y="-74.5" font-family="Helvetica,sans-Serif" font-size="10.00">/SocketServer.h</text>
</a>
</g>
</g>
<!-- Node4&#45;&gt;Node5 -->
<g id="edge4" class="edge">
<title>Node4&#45;&gt;Node5</title>
<path fill="none" stroke="midnightblue" d="M1004.23,-133.97C718.46,-98.29 643.21,-114.4 359.5,-98 296.89,-94.38 225.18,-90.06 176.18,-87.08"/>
<polygon fill="midnightblue" stroke="midnightblue" points="1004.13,-137.48 1014.49,-135.26 1005,-130.54 1004.13,-137.48"/>
</g>
<!-- Node9 -->
<g id="node8" class="node">
<title>Node9</title>
<g id="a_node8"><a xlink:href="net_2in6_2stream_2legacy_2_socket_server_8h.html" target="_top" xlink:title=" ">
<polygon fill="white" stroke="black" points="675,-67.5 675,-97.5 798,-97.5 798,-67.5 675,-67.5"/>
<text text-anchor="start" x="683" y="-85.5" font-family="Helvetica,sans-Serif" font-size="10.00">net/in6/stream/legacy</text>
<text text-anchor="middle" x="736.5" y="-74.5" font-family="Helvetica,sans-Serif" font-size="10.00">/SocketServer.h</text>
</a>
</g>
</g>
<!-- Node4&#45;&gt;Node9 -->
<g id="edge7" class="edge">
<title>Node4&#45;&gt;Node9</title>
<path fill="none" stroke="midnightblue" d="M1004.57,-133.83C927.81,-119.04 850.54,-104.6 798.23,-94.9"/>
<polygon fill="midnightblue" stroke="midnightblue" points="1003.93,-137.27 1014.41,-135.73 1005.26,-130.4 1003.93,-137.27"/>
</g>
<!-- Node13 -->
<g id="node11" class="node">
<title>Node13</title>
<g id="a_node11"><a xlink:href="net_2l2_2stream_2legacy_2_socket_server_8h.html" target="_top" xlink:title=" ">
<polygon fill="white" stroke="black" points="1174,-67.5 1174,-97.5 1291,-97.5 1291,-67.5 1174,-67.5"/>
<text text-anchor="start" x="1182" y="-85.5" font-family="Helvetica,sans-Serif" font-size="10.00">net/l2/stream/legacy</text>
<text text-anchor="middle" x="1232.5" y="-74.5" font-family="Helvetica,sans-Serif" font-size="10.00">/SocketServer.h</text>
</a>
</g>
</g>
<!-- Node4&#45;&gt;Node13 -->
<g id="edge10" class="edge">
<title>Node4&#45;&gt;Node13</title>
<path fill="none" stroke="midnightblue" d="M1121.37,-130.41C1145.95,-120.03 1176.36,-107.2 1199.15,-97.58"/>
<polygon fill="midnightblue" stroke="midnightblue" points="1119.77,-127.28 1111.92,-134.4 1122.49,-133.73 1119.77,-127.28"/>
</g>
<!-- Node15 -->
<g id="node13" class="node">
<title>Node15</title>
<g id="a_node13"><a xlink:href="net_2rc_2stream_2legacy_2_socket_server_8h.html" target="_top" xlink:title=" ">
<polygon fill="white" stroke="black" points="1725,-67.5 1725,-97.5 1842,-97.5 1842,-67.5 1725,-67.5"/>
<text text-anchor="start" x="1733" y="-85.5" font-family="Helvetica,sans-Serif" font-size="10.00">net/rc/stream/legacy</text>
<text text-anchor="middle" x="1783.5" y="-74.5" font-family="Helvetica,sans-Serif" font-size="10.00">/SocketServer.h</text>
</a>
</g>
</g>
<!-- Node4&#45;&gt;Node15 -->
<g id="edge12" class="edge">
<title>Node4&#45;&gt;Node15</title>
<path fill="none" stroke="midnightblue" d="M1152.2,-134.04C1152.3,-134.03 1152.4,-134.01 1152.5,-134 1368.92,-104.95 1424.98,-117.17 1642.5,-98 1669.59,-95.61 1699.56,-92.58 1724.88,-89.91"/>
<polygon fill="midnightblue" stroke="midnightblue" points="1151.98,-130.53 1142.6,-135.45 1153,-137.46 1151.98,-130.53"/>
</g>
<!-- Node19 -->
<g id="node16" class="node">
<title>Node19</title>
<g id="a_node16"><a xlink:href="net_2un_2stream_2legacy_2_socket_server_8h.html" target="_top" xlink:title=" ">
<polygon fill="white" stroke="red" points="1914.5,-67.5 1914.5,-97.5 2034.5,-97.5 2034.5,-67.5 1914.5,-67.5"/>
<text text-anchor="start" x="1922.5" y="-85.5" font-family="Helvetica,sans-Serif" font-size="10.00">net/un/stream/legacy</text>
<text text-anchor="middle" x="1974.5" y="-74.5" font-family="Helvetica,sans-Serif" font-size="10.00">/SocketServer.h</text>
</a>
</g>
</g>
<!-- Node4&#45;&gt;Node19 -->
<g id="edge15" class="edge">
<title>Node4&#45;&gt;Node19</title>
<path fill="none" stroke="midnightblue" d="M1152.2,-134.04C1152.3,-134.03 1152.4,-134.01 1152.5,-134 1461.25,-96 1541.53,-124.22 1851.5,-98 1871.96,-96.27 1894.27,-93.81 1914.21,-91.41"/>
<polygon fill="midnightblue" stroke="midnightblue" points="1152.01,-130.53 1142.59,-135.36 1152.97,-137.46 1152.01,-130.53"/>
</g>
<!-- Node6 -->
<g id="node6" class="node">
<title>Node6</title>
<g id="a_node6"><a xlink:href="in_2stream_2legacy_2_socket_server_8cpp.html" target="_top" xlink:title=" ">
<polygon fill="white" stroke="black" points="125,-0.5 125,-30.5 242,-30.5 242,-0.5 125,-0.5"/>
<text text-anchor="start" x="133" y="-18.5" font-family="Helvetica,sans-Serif" font-size="10.00">net/in/stream/legacy</text>
<text text-anchor="middle" x="183.5" y="-7.5" font-family="Helvetica,sans-Serif" font-size="10.00">/SocketServer.cpp</text>
</a>
</g>
</g>
<!-- Node5&#45;&gt;Node6 -->
<g id="edge5" class="edge">
<title>Node5&#45;&gt;Node6</title>
<path fill="none" stroke="midnightblue" d="M139.01,-60.31C148.91,-50.56 160.39,-39.26 169.21,-30.58"/>
<polygon fill="midnightblue" stroke="midnightblue" points="136.49,-57.89 131.82,-67.4 141.4,-62.87 136.49,-57.89"/>
</g>
<!-- Node7 -->
<g id="node7" class="node">
<title>Node7</title>
<g id="a_node7"><a xlink:href="legacy_2in_2_server_8h.html" target="_top" xlink:title=" ">
<polygon fill="white" stroke="red" points="0,-0.5 0,-30.5 107,-30.5 107,-0.5 0,-0.5"/>
<text text-anchor="start" x="8" y="-18.5" font-family="Helvetica,sans-Serif" font-size="10.00">web/http/legacy/in</text>
<text text-anchor="middle" x="53.5" y="-7.5" font-family="Helvetica,sans-Serif" font-size="10.00">/Server.h</text>
</a>
</g>
</g>
<!-- Node5&#45;&gt;Node7 -->
<g id="edge6" class="edge">
<title>Node5&#45;&gt;Node7</title>
<path fill="none" stroke="midnightblue" d="M96.35,-60.02C86.82,-50.34 75.83,-39.17 67.36,-30.58"/>
<polygon fill="midnightblue" stroke="midnightblue" points="94.1,-62.73 103.61,-67.4 99.09,-57.81 94.1,-62.73"/>
</g>
<!-- Node10 -->
<g id="node9" class="node">
<title>Node10</title>
<g id="a_node9"><a xlink:href="in6_2stream_2legacy_2_socket_server_8cpp.html" target="_top" xlink:title=" ">
<polygon fill="white" stroke="black" points="743,-0.5 743,-30.5 866,-30.5 866,-0.5 743,-0.5"/>
<text text-anchor="start" x="751" y="-18.5" font-family="Helvetica,sans-Serif" font-size="10.00">net/in6/stream/legacy</text>
<text text-anchor="middle" x="804.5" y="-7.5" font-family="Helvetica,sans-Serif" font-size="10.00">/SocketServer.cpp</text>
</a>
</g>
</g>
<!-- Node9&#45;&gt;Node10 -->
<g id="edge8" class="edge">
<title>Node9&#45;&gt;Node10</title>
<path fill="none" stroke="midnightblue" d="M758.67,-60.31C768.87,-50.56 780.69,-39.26 789.77,-30.58"/>
<polygon fill="midnightblue" stroke="midnightblue" points="756.07,-57.96 751.25,-67.4 760.9,-63.02 756.07,-57.96"/>
</g>
<!-- Node11 -->
<g id="node10" class="node">
<title>Node11</title>
<g id="a_node10"><a xlink:href="legacy_2in6_2_server_8h.html" target="_top" xlink:title=" ">
<polygon fill="white" stroke="red" points="612,-0.5 612,-30.5 725,-30.5 725,-0.5 612,-0.5"/>
<text text-anchor="start" x="620" y="-18.5" font-family="Helvetica,sans-Serif" font-size="10.00">web/http/legacy/in6</text>
<text text-anchor="middle" x="668.5" y="-7.5" font-family="Helvetica,sans-Serif" font-size="10.00">/Server.h</text>
</a>
</g>
</g>
<!-- Node9&#45;&gt;Node11 -->
<g id="edge9" class="edge">
<title>Node9&#45;&gt;Node11</title>
<path fill="none" stroke="midnightblue" d="M714.33,-60.31C704.13,-50.56 692.31,-39.26 683.23,-30.58"/>
<polygon fill="midnightblue" stroke="midnightblue" points="712.1,-63.02 721.75,-67.4 716.93,-57.96 712.1,-63.02"/>
</g>
<!-- Node14 -->
<g id="node12" class="node">
<title>Node14</title>
<g id="a_node12"><a xlink:href="l2_2stream_2legacy_2_socket_server_8cpp.html" target="_top" xlink:title=" ">
<polygon fill="white" stroke="black" points="1174,-0.5 1174,-30.5 1291,-30.5 1291,-0.5 1174,-0.5"/>
<text text-anchor="start" x="1182" y="-18.5" font-family="Helvetica,sans-Serif" font-size="10.00">net/l2/stream/legacy</text>
<text text-anchor="middle" x="1232.5" y="-7.5" font-family="Helvetica,sans-Serif" font-size="10.00">/SocketServer.cpp</text>
</a>
</g>
</g>
<!-- Node13&#45;&gt;Node14 -->
<g id="edge11" class="edge">
<title>Node13&#45;&gt;Node14</title>
<path fill="none" stroke="midnightblue" d="M1232.5,-57.11C1232.5,-48.15 1232.5,-38.32 1232.5,-30.58"/>
<polygon fill="midnightblue" stroke="midnightblue" points="1229,-57.4 1232.5,-67.4 1236,-57.4 1229,-57.4"/>
</g>
<!-- Node16 -->
<g id="node14" class="node">
<title>Node16</title>
<g id="a_node14"><a xlink:href="rc_2stream_2legacy_2_socket_server_8cpp.html" target="_top" xlink:title=" ">
<polygon fill="white" stroke="black" points="1689,-0.5 1689,-30.5 1806,-30.5 1806,-0.5 1689,-0.5"/>
<text text-anchor="start" x="1697" y="-18.5" font-family="Helvetica,sans-Serif" font-size="10.00">net/rc/stream/legacy</text>
<text text-anchor="middle" x="1747.5" y="-7.5" font-family="Helvetica,sans-Serif" font-size="10.00">/SocketServer.cpp</text>
</a>
</g>
</g>
<!-- Node15&#45;&gt;Node16 -->
<g id="edge13" class="edge">
<title>Node15&#45;&gt;Node16</title>
<path fill="none" stroke="midnightblue" d="M1770.8,-58.58C1765.63,-49.24 1759.82,-38.75 1755.3,-30.58"/>
<polygon fill="midnightblue" stroke="midnightblue" points="1767.78,-60.34 1775.69,-67.4 1773.91,-56.95 1767.78,-60.34"/>
</g>
<!-- Node17 -->
<g id="node15" class="node">
<title>Node17</title>
<g id="a_node15"><a xlink:href="legacy_2rc_2_server_8h.html" target="_top" xlink:title=" ">
<polygon fill="white" stroke="red" points="1824,-0.5 1824,-30.5 1931,-30.5 1931,-0.5 1824,-0.5"/>
<text text-anchor="start" x="1832" y="-18.5" font-family="Helvetica,sans-Serif" font-size="10.00">web/http/legacy/rc</text>
<text text-anchor="middle" x="1877.5" y="-7.5" font-family="Helvetica,sans-Serif" font-size="10.00">/Server.h</text>
</a>
</g>
</g>
<!-- Node15&#45;&gt;Node17 -->
<g id="edge14" class="edge">
<title>Node15&#45;&gt;Node17</title>
<path fill="none" stroke="midnightblue" d="M1812.49,-61.45C1826.95,-51.45 1844.09,-39.6 1857.14,-30.58"/>
<polygon fill="midnightblue" stroke="midnightblue" points="1810.13,-58.83 1803.9,-67.4 1814.11,-64.59 1810.13,-58.83"/>
</g>
<!-- Node24 -->
<g id="node18" class="node">
<title>Node24</title>
<g id="a_node18"><a xlink:href="core_2socket_2stream_2tls_2_socket_server_8h.html" target="_top" xlink:title=" ">
<polygon fill="white" stroke="black" points="1637.5,-134.5 1637.5,-164.5 1747.5,-164.5 1747.5,-134.5 1637.5,-134.5"/>
<text text-anchor="start" x="1645.5" y="-152.5" font-family="Helvetica,sans-Serif" font-size="10.00">core/socket/stream</text>
<text text-anchor="middle" x="1692.5" y="-141.5" font-family="Helvetica,sans-Serif" font-size="10.00">/tls/SocketServer.h</text>
</a>
</g>
</g>
<!-- Node23&#45;&gt;Node24 -->
<g id="edge17" class="edge">
<title>Node23&#45;&gt;Node24</title>
<path fill="none" stroke="midnightblue" d="M1642.3,-194.6C1653.47,-184.78 1666.49,-173.34 1676.47,-164.58"/>
<polygon fill="midnightblue" stroke="midnightblue" points="1639.76,-192.17 1634.56,-201.4 1644.38,-197.43 1639.76,-192.17"/>
</g>
<!-- Node25 -->
<g id="node19" class="node">
<title>Node25</title>
<g id="a_node19"><a xlink:href="net_2in_2stream_2tls_2_socket_server_8h.html" target="_top" xlink:title=" ">
<polygon fill="white" stroke="black" points="368.5,-67.5 368.5,-97.5 500.5,-97.5 500.5,-67.5 368.5,-67.5"/>
<text text-anchor="start" x="376.5" y="-85.5" font-family="Helvetica,sans-Serif" font-size="10.00">net/in/stream/tls/Socket</text>
<text text-anchor="middle" x="434.5" y="-74.5" font-family="Helvetica,sans-Serif" font-size="10.00">Server.h</text>
</a>
</g>
</g>
<!-- Node24&#45;&gt;Node25 -->
<g id="edge18" class="edge">
<title>Node24&#45;&gt;Node25</title>
<path fill="none" stroke="midnightblue" d="M1627.35,-134.03C1202.07,-79.08 1089.92,-119.25 665.5,-98 609.92,-95.22 546.86,-91.2 500.69,-88.1"/>
<polygon fill="midnightblue" stroke="midnightblue" points="1627.09,-137.53 1637.46,-135.35 1627.99,-130.59 1627.09,-137.53"/>
</g>
<!-- Node29 -->
<g id="node22" class="node">
<title>Node29</title>
<g id="a_node22"><a xlink:href="net_2in6_2stream_2tls_2_socket_server_8h.html" target="_top" xlink:title=" ">
<polygon fill="white" stroke="black" points="979,-67.5 979,-97.5 1082,-97.5 1082,-67.5 979,-67.5"/>
<text text-anchor="start" x="987" y="-85.5" font-family="Helvetica,sans-Serif" font-size="10.00">net/in6/stream/tls</text>
<text text-anchor="middle" x="1030.5" y="-74.5" font-family="Helvetica,sans-Serif" font-size="10.00">/SocketServer.h</text>
</a>
</g>
</g>
<!-- Node24&#45;&gt;Node29 -->
<g id="edge21" class="edge">
<title>Node24&#45;&gt;Node29</title>
<path fill="none" stroke="midnightblue" d="M1627.26,-133.96C1422.66,-103.56 1367.71,-116.72 1165.5,-98 1137.92,-95.45 1107.22,-92.18 1082.07,-89.4"/>
<polygon fill="midnightblue" stroke="midnightblue" points="1627.03,-137.47 1637.44,-135.49 1628.07,-130.54 1627.03,-137.47"/>
</g>
<!-- Node33 -->
<g id="node25" class="node">
<title>Node33</title>
<g id="a_node25"><a xlink:href="net_2l2_2stream_2tls_2_socket_server_8h.html" target="_top" xlink:title=" ">
<polygon fill="white" stroke="black" points="1501.5,-67.5 1501.5,-97.5 1633.5,-97.5 1633.5,-67.5 1501.5,-67.5"/>
<text text-anchor="start" x="1509.5" y="-85.5" font-family="Helvetica,sans-Serif" font-size="10.00">net/l2/stream/tls/Socket</text>
<text text-anchor="middle" x="1567.5" y="-74.5" font-family="Helvetica,sans-Serif" font-size="10.00">Server.h</text>
</a>
</g>
</g>
<!-- Node24&#45;&gt;Node33 -->
<g id="edge24" class="edge">
<title>Node24&#45;&gt;Node33</title>
<path fill="none" stroke="midnightblue" d="M1656.37,-129.71C1636.66,-119.46 1612.66,-106.98 1594.57,-97.58"/>
<polygon fill="midnightblue" stroke="midnightblue" points="1654.89,-132.89 1665.38,-134.4 1658.12,-126.68 1654.89,-132.89"/>
</g>
<!-- Node35 -->
<g id="node27" class="node">
<title>Node35</title>
<g id="a_node27"><a xlink:href="net_2rc_2stream_2tls_2_socket_server_8h.html" target="_top" xlink:title=" ">
<polygon fill="white" stroke="red" points="2079.5,-67.5 2079.5,-97.5 2211.5,-97.5 2211.5,-67.5 2079.5,-67.5"/>
<text text-anchor="start" x="2087.5" y="-85.5" font-family="Helvetica,sans-Serif" font-size="10.00">net/rc/stream/tls/Socket</text>
<text text-anchor="middle" x="2145.5" y="-74.5" font-family="Helvetica,sans-Serif" font-size="10.00">Server.h</text>
</a>
</g>
</g>
<!-- Node24&#45;&gt;Node35 -->
<g id="edge26" class="edge">
<title>Node24&#45;&gt;Node35</title>
<path fill="none" stroke="midnightblue" d="M1757.91,-134.04C1885.44,-112.17 1919.74,-114.58 2043.5,-98 2055.11,-96.44 2067.46,-94.73 2079.4,-93.05"/>
<polygon fill="midnightblue" stroke="midnightblue" points="1757,-130.65 1747.75,-135.8 1758.2,-137.55 1757,-130.65"/>
</g>
<!-- Node39 -->
<g id="node29" class="node">
<title>Node39</title>
<g id="a_node29"><a xlink:href="net_2un_2stream_2tls_2_socket_server_8h.html" target="_top" xlink:title=" ">
<polygon fill="white" stroke="red" points="2330,-67.5 2330,-97.5 2465,-97.5 2465,-67.5 2330,-67.5"/>
<text text-anchor="start" x="2338" y="-85.5" font-family="Helvetica,sans-Serif" font-size="10.00">net/un/stream/tls/Socket</text>
<text text-anchor="middle" x="2397.5" y="-74.5" font-family="Helvetica,sans-Serif" font-size="10.00">Server.h</text>
</a>
</g>
</g>
<!-- Node24&#45;&gt;Node39 -->
<g id="edge28" class="edge">
<title>Node24&#45;&gt;Node39</title>
<path fill="none" stroke="midnightblue" d="M1757.63,-134.15C1963.32,-103.79 2017.97,-114.17 2220.5,-98 2256.61,-95.12 2296.86,-91.83 2329.85,-89.11"/>
<polygon fill="midnightblue" stroke="midnightblue" points="1757.09,-130.69 1747.72,-135.62 1758.12,-137.61 1757.09,-130.69"/>
</g>
<!-- Node26 -->
<g id="node20" class="node">
<title>Node26</title>
<g id="a_node20"><a xlink:href="in_2stream_2tls_2_socket_server_8cpp.html" target="_top" xlink:title=" ">
<polygon fill="white" stroke="black" points="443.5,-0.5 443.5,-30.5 575.5,-30.5 575.5,-0.5 443.5,-0.5"/>
<text text-anchor="start" x="451.5" y="-18.5" font-family="Helvetica,sans-Serif" font-size="10.00">net/in/stream/tls/Socket</text>
<text text-anchor="middle" x="509.5" y="-7.5" font-family="Helvetica,sans-Serif" font-size="10.00">Server.cpp</text>
</a>
</g>
</g>
<!-- Node25&#45;&gt;Node26 -->
<g id="edge19" class="edge">
<title>Node25&#45;&gt;Node26</title>
<path fill="none" stroke="midnightblue" d="M458.62,-60.6C469.94,-50.78 483.14,-39.34 493.26,-30.58"/>
<polygon fill="midnightblue" stroke="midnightblue" points="456.04,-58.2 450.77,-67.4 460.62,-63.49 456.04,-58.2"/>
</g>
<!-- Node27 -->
<g id="node21" class="node">
<title>Node27</title>
<g id="a_node21"><a xlink:href="tls_2in_2_server_8h.html" target="_top" xlink:title=" ">
<polygon fill="white" stroke="red" points="295.5,-6 295.5,-25 425.5,-25 425.5,-6 295.5,-6"/>
<text text-anchor="middle" x="360.5" y="-13" font-family="Helvetica,sans-Serif" font-size="10.00">web/http/tls/in/Server.h</text>
</a>
</g>
</g>
<!-- Node25&#45;&gt;Node27 -->
<g id="edge20" class="edge">
<title>Node25&#45;&gt;Node27</title>
<path fill="none" stroke="midnightblue" d="M410.79,-60.67C397.13,-48.67 380.67,-34.22 370.4,-25.19"/>
<polygon fill="midnightblue" stroke="midnightblue" points="408.62,-63.43 418.44,-67.4 413.24,-58.17 408.62,-63.43"/>
</g>
<!-- Node30 -->
<g id="node23" class="node">
<title>Node30</title>
<g id="a_node23"><a xlink:href="in6_2stream_2tls_2_socket_server_8cpp.html" target="_top" xlink:title=" ">
<polygon fill="white" stroke="black" points="1047.5,-0.5 1047.5,-30.5 1151.5,-30.5 1151.5,-0.5 1047.5,-0.5"/>
<text text-anchor="start" x="1055.5" y="-18.5" font-family="Helvetica,sans-Serif" font-size="10.00">net/in6/stream/tls</text>
<text text-anchor="middle" x="1099.5" y="-7.5" font-family="Helvetica,sans-Serif" font-size="10.00">/SocketServer.cpp</text>
</a>
</g>
</g>
<!-- Node29&#45;&gt;Node30 -->
<g id="edge22" class="edge">
<title>Node29&#45;&gt;Node30</title>
<path fill="none" stroke="midnightblue" d="M1052.99,-60.31C1063.34,-50.56 1075.34,-39.26 1084.56,-30.58"/>
<polygon fill="midnightblue" stroke="midnightblue" points="1050.35,-57.99 1045.47,-67.4 1055.15,-63.09 1050.35,-57.99"/>
</g>
<!-- Node31 -->
<g id="node24" class="node">
<title>Node31</title>
<g id="a_node24"><a xlink:href="tls_2in6_2_server_8h.html" target="_top" xlink:title=" ">
<polygon fill="white" stroke="red" points="893.5,-6 893.5,-25 1029.5,-25 1029.5,-6 893.5,-6"/>
<text text-anchor="middle" x="961.5" y="-13" font-family="Helvetica,sans-Serif" font-size="10.00">web/http/tls/in6/Server.h</text>
</a>
</g>
</g>
<!-- Node29&#45;&gt;Node31 -->
<g id="edge23" class="edge">
<title>Node29&#45;&gt;Node31</title>
<path fill="none" stroke="midnightblue" d="M1008.03,-60.34C995.36,-48.4 980.22,-34.14 970.73,-25.19"/>
<polygon fill="midnightblue" stroke="midnightblue" points="1005.85,-63.09 1015.53,-67.4 1010.65,-57.99 1005.85,-63.09"/>
</g>
<!-- Node34 -->
<g id="node26" class="node">
<title>Node34</title>
<g id="a_node26"><a xlink:href="l2_2stream_2tls_2_socket_server_8cpp.html" target="_top" xlink:title=" ">
<polygon fill="white" stroke="black" points="1501.5,-0.5 1501.5,-30.5 1633.5,-30.5 1633.5,-0.5 1501.5,-0.5"/>
<text text-anchor="start" x="1509.5" y="-18.5" font-family="Helvetica,sans-Serif" font-size="10.00">net/l2/stream/tls/Socket</text>
<text text-anchor="middle" x="1567.5" y="-7.5" font-family="Helvetica,sans-Serif" font-size="10.00">Server.cpp</text>
</a>
</g>
</g>
<!-- Node33&#45;&gt;Node34 -->
<g id="edge25" class="edge">
<title>Node33&#45;&gt;Node34</title>
<path fill="none" stroke="midnightblue" d="M1567.5,-57.11C1567.5,-48.15 1567.5,-38.32 1567.5,-30.58"/>
<polygon fill="midnightblue" stroke="midnightblue" points="1564,-57.4 1567.5,-67.4 1571,-57.4 1564,-57.4"/>
</g>
<!-- Node36 -->
<g id="node28" class="node">
<title>Node36</title>
<g id="a_node28"><a xlink:href="rc_2stream_2tls_2_socket_server_8cpp.html" target="_top" xlink:title=" ">
<polygon fill="white" stroke="black" points="2079.5,-0.5 2079.5,-30.5 2211.5,-30.5 2211.5,-0.5 2079.5,-0.5"/>
<text text-anchor="start" x="2087.5" y="-18.5" font-family="Helvetica,sans-Serif" font-size="10.00">net/rc/stream/tls/Socket</text>
<text text-anchor="middle" x="2145.5" y="-7.5" font-family="Helvetica,sans-Serif" font-size="10.00">Server.cpp</text>
</a>
</g>
</g>
<!-- Node35&#45;&gt;Node36 -->
<g id="edge27" class="edge">
<title>Node35&#45;&gt;Node36</title>
<path fill="none" stroke="midnightblue" d="M2145.5,-57.11C2145.5,-48.15 2145.5,-38.32 2145.5,-30.58"/>
<polygon fill="midnightblue" stroke="midnightblue" points="2142,-57.4 2145.5,-67.4 2149,-57.4 2142,-57.4"/>
</g>
<!-- Node45 -->
<g id="node32" class="node">
<title>Node45</title>
<g id="a_node32"><a xlink:href="in_2stream_2config_2_config_socket_server_8cpp.html" target="_top" xlink:title=" ">
<polygon fill="white" stroke="black" points="358,-134.5 358,-164.5 493,-164.5 493,-134.5 358,-134.5"/>
<text text-anchor="start" x="366" y="-152.5" font-family="Helvetica,sans-Serif" font-size="10.00">net/in/stream/config</text>
<text text-anchor="middle" x="425.5" y="-141.5" font-family="Helvetica,sans-Serif" font-size="10.00">/ConfigSocketServer.cpp</text>
</a>
</g>
</g>
<!-- Node44&#45;&gt;Node45 -->
<g id="edge31" class="edge">
<title>Node44&#45;&gt;Node45</title>
<path fill="none" stroke="midnightblue" d="M374.62,-194.6C385.94,-184.78 399.14,-173.34 409.26,-164.58"/>
<polygon fill="midnightblue" stroke="midnightblue" points="372.04,-192.2 366.77,-201.4 376.62,-197.49 372.04,-192.2"/>
</g>
<!-- Node46 -->
<g id="node33" class="node">
<title>Node46</title>
<g id="a_node33"><a xlink:href="in_2stream_2legacy_2config_2_config_socket_server_8h.html" target="_top" xlink:title=" ">
<polygon fill="white" stroke="black" points="34,-134.5 34,-164.5 191,-164.5 191,-134.5 34,-134.5"/>
<text text-anchor="start" x="42" y="-152.5" font-family="Helvetica,sans-Serif" font-size="10.00">net/in/stream/legacy</text>
<text text-anchor="middle" x="112.5" y="-141.5" font-family="Helvetica,sans-Serif" font-size="10.00">/config/ConfigSocketServer.h</text>
</a>
</g>
</g>
<!-- Node44&#45;&gt;Node46 -->
<g id="edge32" class="edge">
<title>Node44&#45;&gt;Node46</title>
<path fill="none" stroke="midnightblue" d="M289.04,-198.71C250.31,-188.14 200.87,-174.63 164.17,-164.61"/>
<polygon fill="midnightblue" stroke="midnightblue" points="288.58,-202.22 299.15,-201.48 290.43,-195.46 288.58,-202.22"/>
</g>
<!-- Node47 -->
<g id="node34" class="node">
<title>Node47</title>
<g id="a_node34"><a xlink:href="in_2stream_2tls_2config_2_config_socket_server_8h.html" target="_top" xlink:title=" ">
<polygon fill="white" stroke="black" points="209.5,-134.5 209.5,-164.5 339.5,-164.5 339.5,-134.5 209.5,-134.5"/>
<text text-anchor="start" x="217.5" y="-152.5" font-family="Helvetica,sans-Serif" font-size="10.00">net/in/stream/tls/config</text>
<text text-anchor="middle" x="274.5" y="-141.5" font-family="Helvetica,sans-Serif" font-size="10.00">/ConfigSocketServer.h</text>
</a>
</g>
</g>
<!-- Node44&#45;&gt;Node47 -->
<g id="edge34" class="edge">
<title>Node44&#45;&gt;Node47</title>
<path fill="none" stroke="midnightblue" d="M326.39,-194.88C314.84,-185.01 301.31,-173.43 290.96,-164.58"/>
<polygon fill="midnightblue" stroke="midnightblue" points="324.13,-197.56 334.01,-201.4 328.68,-192.24 324.13,-197.56"/>
</g>
<!-- Node46&#45;&gt;Node5 -->
<g id="edge33" class="edge">
<title>Node46&#45;&gt;Node5</title>
<path fill="none" stroke="midnightblue" d="M114.35,-124.4C115.05,-115.37 115.81,-105.41 116.42,-97.58"/>
<polygon fill="midnightblue" stroke="midnightblue" points="110.86,-124.16 113.58,-134.4 117.84,-124.69 110.86,-124.16"/>
</g>
<!-- Node47&#45;&gt;Node25 -->
<g id="edge35" class="edge">
<title>Node47&#45;&gt;Node25</title>
<path fill="none" stroke="midnightblue" d="M318.7,-130.54C344.3,-120.14 376.07,-107.24 399.85,-97.58"/>
<polygon fill="midnightblue" stroke="midnightblue" points="317.16,-127.39 309.22,-134.4 319.8,-133.87 317.16,-127.39"/>
</g>
<!-- Node49 -->
<g id="node36" class="node">
<title>Node49</title>
<g id="a_node36"><a xlink:href="in6_2stream_2config_2_config_socket_server_8cpp.html" target="_top" xlink:title=" ">
<polygon fill="white" stroke="black" points="861,-134.5 861,-164.5 996,-164.5 996,-134.5 861,-134.5"/>
<text text-anchor="start" x="869" y="-152.5" font-family="Helvetica,sans-Serif" font-size="10.00">net/in6/stream/config</text>
<text text-anchor="middle" x="928.5" y="-141.5" font-family="Helvetica,sans-Serif" font-size="10.00">/ConfigSocketServer.cpp</text>
</a>
</g>
</g>
<!-- Node48&#45;&gt;Node49 -->
<g id="edge37" class="edge">
<title>Node48&#45;&gt;Node49</title>
<path fill="none" stroke="midnightblue" d="M872.15,-195.17C884.69,-185.23 899.47,-173.51 910.74,-164.58"/>
<polygon fill="midnightblue" stroke="midnightblue" points="869.96,-192.44 864.29,-201.4 874.3,-197.93 869.96,-192.44"/>
</g>
<!-- Node50 -->
<g id="node37" class="node">
<title>Node50</title>
<g id="a_node37"><a xlink:href="in6_2stream_2legacy_2config_2_config_socket_server_8h.html" target="_top" xlink:title=" ">
<polygon fill="white" stroke="black" points="511,-134.5 511,-164.5 668,-164.5 668,-134.5 511,-134.5"/>
<text text-anchor="start" x="519" y="-152.5" font-family="Helvetica,sans-Serif" font-size="10.00">net/in6/stream/legacy</text>
<text text-anchor="middle" x="589.5" y="-141.5" font-family="Helvetica,sans-Serif" font-size="10.00">/config/ConfigSocketServer.h</text>
</a>
</g>
</g>
<!-- Node48&#45;&gt;Node50 -->
<g id="edge38" class="edge">
<title>Node48&#45;&gt;Node50</title>
<path fill="none" stroke="midnightblue" d="M781.2,-198.98C739.22,-188.37 685.26,-174.72 645.29,-164.61"/>
<polygon fill="midnightblue" stroke="midnightblue" points="780.5,-202.42 791.05,-201.48 782.21,-195.63 780.5,-202.42"/>
</g>
<!-- Node51 -->
<g id="node38" class="node">
<title>Node51</title>
<g id="a_node38"><a xlink:href="in6_2stream_2tls_2config_2_config_socket_server_8h.html" target="_top" xlink:title=" ">
<polygon fill="white" stroke="black" points="686,-134.5 686,-164.5 843,-164.5 843,-134.5 686,-134.5"/>
<text text-anchor="start" x="694" y="-152.5" font-family="Helvetica,sans-Serif" font-size="10.00">net/in6/stream/tls</text>
<text text-anchor="middle" x="764.5" y="-141.5" font-family="Helvetica,sans-Serif" font-size="10.00">/config/ConfigSocketServer.h</text>
</a>
</g>
</g>
<!-- Node48&#45;&gt;Node51 -->
<g id="edge40" class="edge">
<title>Node48&#45;&gt;Node51</title>
<path fill="none" stroke="midnightblue" d="M820.85,-195.17C808.31,-185.23 793.53,-173.51 782.26,-164.58"/>
<polygon fill="midnightblue" stroke="midnightblue" points="818.7,-197.93 828.71,-201.4 823.04,-192.44 818.7,-197.93"/>
</g>
<!-- Node50&#45;&gt;Node9 -->
<g id="edge39" class="edge">
<title>Node50&#45;&gt;Node9</title>
<path fill="none" stroke="midnightblue" d="M630.73,-130.27C654.14,-119.92 683.01,-107.15 704.67,-97.58"/>
<polygon fill="midnightblue" stroke="midnightblue" points="629.13,-127.15 621.4,-134.4 631.96,-133.55 629.13,-127.15"/>
</g>
<!-- Node51&#45;&gt;Node29 -->
<g id="edge41" class="edge">
<title>Node51&#45;&gt;Node29</title>
<path fill="none" stroke="midnightblue" d="M831.69,-132.08C877.28,-120.94 936.66,-106.43 978.62,-96.18"/>
<polygon fill="midnightblue" stroke="midnightblue" points="830.77,-128.7 821.89,-134.48 832.44,-135.5 830.77,-128.7"/>
</g>
<!-- Node53 -->
<g id="node40" class="node">
<title>Node53</title>
<g id="a_node40"><a xlink:href="l2_2stream_2config_2_config_socket_server_8cpp.html" target="_top" xlink:title=" ">
<polygon fill="white" stroke="black" points="1336,-134.5 1336,-164.5 1471,-164.5 1471,-134.5 1336,-134.5"/>
<text text-anchor="start" x="1344" y="-152.5" font-family="Helvetica,sans-Serif" font-size="10.00">net/l2/stream/config</text>
<text text-anchor="middle" x="1403.5" y="-141.5" font-family="Helvetica,sans-Serif" font-size="10.00">/ConfigSocketServer.cpp</text>
</a>
</g>
</g>
<!-- Node52&#45;&gt;Node53 -->
<g id="edge43" class="edge">
<title>Node52&#45;&gt;Node53</title>
<path fill="none" stroke="midnightblue" d="M1403.5,-191.11C1403.5,-182.15 1403.5,-172.32 1403.5,-164.58"/>
<polygon fill="midnightblue" stroke="midnightblue" points="1400,-191.4 1403.5,-201.4 1407,-191.4 1400,-191.4"/>
</g>
<!-- Node54 -->
<g id="node41" class="node">
<title>Node54</title>
<g id="a_node41"><a xlink:href="l2_2stream_2legacy_2config_2_config_socket_server_8h.html" target="_top" xlink:title=" ">
<polygon fill="white" stroke="black" points="1161,-134.5 1161,-164.5 1318,-164.5 1318,-134.5 1161,-134.5"/>
<text text-anchor="start" x="1169" y="-152.5" font-family="Helvetica,sans-Serif" font-size="10.00">net/l2/stream/legacy</text>
<text text-anchor="middle" x="1239.5" y="-141.5" font-family="Helvetica,sans-Serif" font-size="10.00">/config/ConfigSocketServer.h</text>
</a>
</g>
</g>
<!-- Node52&#45;&gt;Node54 -->
<g id="edge44" class="edge">
<title>Node52&#45;&gt;Node54</title>
<path fill="none" stroke="midnightblue" d="M1358.54,-197.68C1332.24,-187.26 1299.5,-174.28 1275.02,-164.58"/>
<polygon fill="midnightblue" stroke="midnightblue" points="1357.33,-200.97 1367.91,-201.4 1359.91,-194.46 1357.33,-200.97"/>
</g>
<!-- Node55 -->
<g id="node42" class="node">
<title>Node55</title>
<g id="a_node42"><a xlink:href="l2_2stream_2tls_2config_2_config_socket_server_8h.html" target="_top" xlink:title=" ">
<polygon fill="white" stroke="black" points="1489.5,-134.5 1489.5,-164.5 1619.5,-164.5 1619.5,-134.5 1489.5,-134.5"/>
<text text-anchor="start" x="1497.5" y="-152.5" font-family="Helvetica,sans-Serif" font-size="10.00">net/l2/stream/tls/config</text>
<text text-anchor="middle" x="1554.5" y="-141.5" font-family="Helvetica,sans-Serif" font-size="10.00">/ConfigSocketServer.h</text>
</a>
</g>
</g>
<!-- Node52&#45;&gt;Node55 -->
<g id="edge46" class="edge">
<title>Node52&#45;&gt;Node55</title>
<path fill="none" stroke="midnightblue" d="M1445.53,-197.41C1469.64,-187.03 1499.45,-174.2 1521.8,-164.58"/>
<polygon fill="midnightblue" stroke="midnightblue" points="1444.07,-194.23 1436.26,-201.4 1446.83,-200.66 1444.07,-194.23"/>
</g>
<!-- Node54&#45;&gt;Node13 -->
<g id="edge45" class="edge">
<title>Node54&#45;&gt;Node13</title>
<path fill="none" stroke="midnightblue" d="M1236.9,-124.4C1235.93,-115.37 1234.86,-105.41 1234.02,-97.58"/>
<polygon fill="midnightblue" stroke="midnightblue" points="1233.43,-124.83 1237.98,-134.4 1240.39,-124.08 1233.43,-124.83"/>
</g>
<!-- Node55&#45;&gt;Node33 -->
<g id="edge47" class="edge">
<title>Node55&#45;&gt;Node33</title>
<path fill="none" stroke="midnightblue" d="M1559.32,-124.4C1561.13,-115.37 1563.12,-105.41 1564.68,-97.58"/>
<polygon fill="midnightblue" stroke="midnightblue" points="1555.85,-123.9 1557.32,-134.4 1562.71,-125.28 1555.85,-123.9"/>
</g>
<!-- Node57 -->
<g id="node44" class="node">
<title>Node57</title>
<g id="a_node44"><a xlink:href="rc_2stream_2config_2_config_socket_server_8cpp.html" target="_top" xlink:title=" ">
<polygon fill="white" stroke="black" points="1941,-134.5 1941,-164.5 2076,-164.5 2076,-134.5 1941,-134.5"/>
<text text-anchor="start" x="1949" y="-152.5" font-family="Helvetica,sans-Serif" font-size="10.00">net/rc/stream/config</text>
<text text-anchor="middle" x="2008.5" y="-141.5" font-family="Helvetica,sans-Serif" font-size="10.00">/ConfigSocketServer.cpp</text>
</a>
</g>
</g>
<!-- Node56&#45;&gt;Node57 -->
<g id="edge49" class="edge">
<title>Node56&#45;&gt;Node57</title>
<path fill="none" stroke="midnightblue" d="M1952.15,-195.17C1964.69,-185.23 1979.47,-173.51 1990.74,-164.58"/>
<polygon fill="midnightblue" stroke="midnightblue" points="1949.96,-192.44 1944.29,-201.4 1954.3,-197.93 1949.96,-192.44"/>
</g>
<!-- Node58 -->
<g id="node45" class="node">
<title>Node58</title>
<g id="a_node45"><a xlink:href="rc_2stream_2legacy_2config_2_config_socket_server_8h.html" target="_top" xlink:title=" ">
<polygon fill="white" stroke="black" points="1766,-134.5 1766,-164.5 1923,-164.5 1923,-134.5 1766,-134.5"/>
<text text-anchor="start" x="1774" y="-152.5" font-family="Helvetica,sans-Serif" font-size="10.00">net/rc/stream/legacy</text>
<text text-anchor="middle" x="1844.5" y="-141.5" font-family="Helvetica,sans-Serif" font-size="10.00">/config/ConfigSocketServer.h</text>
</a>
</g>
</g>
<!-- Node56&#45;&gt;Node58 -->
<g id="edge50" class="edge">
<title>Node56&#45;&gt;Node58</title>
<path fill="none" stroke="midnightblue" d="M1900.85,-195.17C1888.31,-185.23 1873.53,-173.51 1862.26,-164.58"/>
<polygon fill="midnightblue" stroke="midnightblue" points="1898.7,-197.93 1908.71,-201.4 1903.04,-192.44 1898.7,-197.93"/>
</g>
<!-- Node59 -->
<g id="node46" class="node">
<title>Node59</title>
<g id="a_node46"><a xlink:href="rc_2stream_2tls_2config_2_config_socket_server_8h.html" target="_top" xlink:title=" ">
<polygon fill="white" stroke="black" points="2094.5,-134.5 2094.5,-164.5 2224.5,-164.5 2224.5,-134.5 2094.5,-134.5"/>
<text text-anchor="start" x="2102.5" y="-152.5" font-family="Helvetica,sans-Serif" font-size="10.00">net/rc/stream/tls/config</text>
<text text-anchor="middle" x="2159.5" y="-141.5" font-family="Helvetica,sans-Serif" font-size="10.00">/ConfigSocketServer.h</text>
</a>
</g>
</g>
<!-- Node56&#45;&gt;Node59 -->
<g id="edge52" class="edge">
<title>Node56&#45;&gt;Node59</title>
<path fill="none" stroke="midnightblue" d="M1986.67,-198.71C2024.58,-188.14 2072.99,-174.63 2108.92,-164.61"/>
<polygon fill="midnightblue" stroke="midnightblue" points="1985.46,-195.42 1976.77,-201.48 1987.34,-202.16 1985.46,-195.42"/>
</g>
<!-- Node58&#45;&gt;Node15 -->
<g id="edge51" class="edge">
<title>Node58&#45;&gt;Node15</title>
<path fill="none" stroke="midnightblue" d="M1824.35,-127.02C1815.26,-117.34 1804.78,-106.17 1796.71,-97.58"/>
<polygon fill="midnightblue" stroke="midnightblue" points="1821.87,-129.5 1831.26,-134.4 1826.97,-124.71 1821.87,-129.5"/>
</g>
<!-- Node59&#45;&gt;Node35 -->
<g id="edge53" class="edge">
<title>Node59&#45;&gt;Node35</title>
<path fill="none" stroke="midnightblue" d="M2154.31,-124.4C2152.36,-115.37 2150.22,-105.41 2148.53,-97.58"/>
<polygon fill="midnightblue" stroke="midnightblue" points="2150.94,-125.36 2156.46,-134.4 2157.78,-123.88 2150.94,-125.36"/>
</g>
<!-- Node61 -->
<g id="node48" class="node">
<title>Node61</title>
<g id="a_node48"><a xlink:href="un_2stream_2config_2_config_socket_server_8cpp.html" target="_top" xlink:title=" ">
<polygon fill="white" stroke="black" points="2569,-134.5 2569,-164.5 2704,-164.5 2704,-134.5 2569,-134.5"/>
<text text-anchor="start" x="2577" y="-152.5" font-family="Helvetica,sans-Serif" font-size="10.00">net/un/stream/config</text>
<text text-anchor="middle" x="2636.5" y="-141.5" font-family="Helvetica,sans-Serif" font-size="10.00">/ConfigSocketServer.cpp</text>
</a>
</g>
</g>
<!-- Node60&#45;&gt;Node61 -->
<g id="edge55" class="edge">
<title>Node60&#45;&gt;Node61</title>
<path fill="none" stroke="midnightblue" d="M2462.93,-198.71C2501.01,-188.14 2549.61,-174.63 2585.7,-164.61"/>
<polygon fill="midnightblue" stroke="midnightblue" points="2461.68,-195.43 2452.99,-201.48 2463.56,-202.17 2461.68,-195.43"/>
</g>
<!-- Node62 -->
<g id="node49" class="node">
<title>Node62</title>
<g id="a_node49"><a xlink:href="un_2stream_2legacy_2config_2_config_socket_server_8h.html" target="_top" xlink:title=" ">
<polygon fill="white" stroke="black" points="2243,-134.5 2243,-164.5 2400,-164.5 2400,-134.5 2243,-134.5"/>
<text text-anchor="start" x="2251" y="-152.5" font-family="Helvetica,sans-Serif" font-size="10.00">net/un/stream/legacy</text>
<text text-anchor="middle" x="2321.5" y="-141.5" font-family="Helvetica,sans-Serif" font-size="10.00">/config/ConfigSocketServer.h</text>
</a>
</g>
</g>
<!-- Node60&#45;&gt;Node62 -->
<g id="edge56" class="edge">
<title>Node60&#45;&gt;Node62</title>
<path fill="none" stroke="midnightblue" d="M2376.81,-194.88C2364.5,-185.01 2350.07,-173.43 2339.04,-164.58"/>
<polygon fill="midnightblue" stroke="midnightblue" points="2374.93,-197.87 2384.92,-201.4 2379.32,-192.41 2374.93,-197.87"/>
</g>
<!-- Node63 -->
<g id="node50" class="node">
<title>Node63</title>
<g id="a_node50"><a xlink:href="un_2stream_2tls_2config_2_config_socket_server_8h.html" target="_top" xlink:title=" ">
<polygon fill="white" stroke="black" points="2418,-134.5 2418,-164.5 2551,-164.5 2551,-134.5 2418,-134.5"/>
<text text-anchor="start" x="2426" y="-152.5" font-family="Helvetica,sans-Serif" font-size="10.00">net/un/stream/tls/config</text>
<text text-anchor="middle" x="2484.5" y="-141.5" font-family="Helvetica,sans-Serif" font-size="10.00">/ConfigSocketServer.h</text>
</a>
</g>
</g>
<!-- Node60&#45;&gt;Node63 -->
<g id="edge58" class="edge">
<title>Node60&#45;&gt;Node63</title>
<path fill="none" stroke="midnightblue" d="M2428.15,-195.17C2440.69,-185.23 2455.47,-173.51 2466.74,-164.58"/>
<polygon fill="midnightblue" stroke="midnightblue" points="2425.96,-192.44 2420.29,-201.4 2430.3,-197.93 2425.96,-192.44"/>
</g>
<!-- Node62&#45;&gt;Node19 -->
<g id="edge57" class="edge">
<title>Node62&#45;&gt;Node19</title>
<path fill="none" stroke="midnightblue" d="M2236.77,-132.63C2174.13,-120.9 2090.37,-105.21 2034.54,-94.75"/>
<polygon fill="midnightblue" stroke="midnightblue" points="2236.16,-136.07 2246.63,-134.48 2237.45,-129.19 2236.16,-136.07"/>
</g>
<!-- Node63&#45;&gt;Node39 -->
<g id="edge59" class="edge">
<title>Node63&#45;&gt;Node39</title>
<path fill="none" stroke="midnightblue" d="M2457.29,-128.17C2443.98,-118.23 2428.3,-106.51 2416.34,-97.58"/>
<polygon fill="midnightblue" stroke="midnightblue" points="2455.52,-131.21 2465.62,-134.4 2459.71,-125.61 2455.52,-131.21"/>
</g>
</g>
</svg>
