<?xml version="1.0" encoding="UTF-8" standalone="no"?>
<!DOCTYPE svg PUBLIC "-//W3C//DTD SVG 1.1//EN"
 "http://www.w3.org/Graphics/SVG/1.1/DTD/svg11.dtd">
<!-- Generated by graphviz version 2.43.0 (0)
 -->
<!-- Title: net/ConfigTls.h Pages: 1 -->
<svg width="1436pt" height="274pt"
 viewBox="0.00 0.00 1436.00 274.00" xmlns="http://www.w3.org/2000/svg" xmlns:xlink="http://www.w3.org/1999/xlink">
<g id="graph0" class="graph" transform="scale(1 1) rotate(0) translate(4 270)">
<title>net/ConfigTls.h</title>
<polygon fill="white" stroke="transparent" points="-4,4 -4,-270 1432,-270 1432,4 -4,4"/>
<!-- Node1 -->
<g id="node1" class="node">
<title>Node1</title>
<g id="a_node1"><a xlink:title=" ">
<polygon fill="#bfbfbf" stroke="black" points="494.5,-246.5 494.5,-265.5 584.5,-265.5 584.5,-246.5 494.5,-246.5"/>
<text text-anchor="middle" x="539.5" y="-253.5" font-family="Helvetica,sans-Serif" font-size="10.00">net/ConfigTls.h</text>
</a>
</g>
</g>
<!-- Node2 -->
<g id="node2" class="node">
<title>Node2</title>
<g id="a_node2"><a xlink:href="_config_tls_8cpp.html" target="_top" xlink:title=" ">
<polygon fill="white" stroke="black" points="92,-185 92,-204 193,-204 193,-185 92,-185"/>
<text text-anchor="middle" x="142.5" y="-192" font-family="Helvetica,sans-Serif" font-size="10.00">net/ConfigTls.cpp</text>
</a>
</g>
</g>
<!-- Node1&#45;&gt;Node2 -->
<g id="edge1" class="edge">
<title>Node1&#45;&gt;Node2</title>
<path fill="none" stroke="midnightblue" d="M484.07,-249.49C416.87,-242.38 300.34,-228.67 201.5,-210 192.69,-208.34 183.23,-206.18 174.51,-204.04"/>
<polygon fill="midnightblue" stroke="midnightblue" points="484.11,-253.01 494.42,-250.57 484.84,-246.05 484.11,-253.01"/>
</g>
<!-- Node3 -->
<g id="node3" class="node">
<title>Node3</title>
<g id="a_node3"><a xlink:href="in_2stream_2tls_2_server_config_8h.html" target="_top" xlink:title=" ">
<polygon fill="white" stroke="black" points="211,-179.5 211,-209.5 342,-209.5 342,-179.5 211,-179.5"/>
<text text-anchor="start" x="219" y="-197.5" font-family="Helvetica,sans-Serif" font-size="10.00">net/in/stream/tls/Server</text>
<text text-anchor="middle" x="276.5" y="-186.5" font-family="Helvetica,sans-Serif" font-size="10.00">Config.h</text>
</a>
</g>
</g>
<!-- Node1&#45;&gt;Node3 -->
<g id="edge2" class="edge">
<title>Node1&#45;&gt;Node3</title>
<path fill="none" stroke="midnightblue" d="M491.9,-244.23C448.92,-234.51 385.41,-220.14 338.48,-209.52"/>
<polygon fill="midnightblue" stroke="midnightblue" points="491.29,-247.68 501.82,-246.48 492.84,-240.85 491.29,-247.68"/>
</g>
<!-- Node8 -->
<g id="node8" class="node">
<title>Node8</title>
<g id="a_node8"><a xlink:href="in6_2stream_2tls_2_server_config_8h.html" target="_top" xlink:title=" ">
<polygon fill="white" stroke="black" points="421,-179.5 421,-209.5 524,-209.5 524,-179.5 421,-179.5"/>
<text text-anchor="start" x="429" y="-197.5" font-family="Helvetica,sans-Serif" font-size="10.00">net/in6/stream/tls</text>
<text text-anchor="middle" x="472.5" y="-186.5" font-family="Helvetica,sans-Serif" font-size="10.00">/ServerConfig.h</text>
</a>
</g>
</g>
<!-- Node1&#45;&gt;Node8 -->
<g id="edge7" class="edge">
<title>Node1&#45;&gt;Node8</title>
<path fill="none" stroke="midnightblue" d="M522.21,-239.65C511.74,-230.35 498.48,-218.57 488.29,-209.52"/>
<polygon fill="midnightblue" stroke="midnightblue" points="520.1,-242.45 529.9,-246.48 524.75,-237.22 520.1,-242.45"/>
</g>
<!-- Node13 -->
<g id="node13" class="node">
<title>Node13</title>
<g id="a_node13"><a xlink:href="l2_2stream_2tls_2_server_config_8h.html" target="_top" xlink:title=" ">
<polygon fill="white" stroke="black" points="542,-179.5 542,-209.5 673,-209.5 673,-179.5 542,-179.5"/>
<text text-anchor="start" x="550" y="-197.5" font-family="Helvetica,sans-Serif" font-size="10.00">net/l2/stream/tls/Server</text>
<text text-anchor="middle" x="607.5" y="-186.5" font-family="Helvetica,sans-Serif" font-size="10.00">Config.h</text>
</a>
</g>
</g>
<!-- Node1&#45;&gt;Node13 -->
<g id="edge12" class="edge">
<title>Node1&#45;&gt;Node13</title>
<path fill="none" stroke="midnightblue" d="M557.05,-239.65C567.68,-230.35 581.13,-218.57 591.47,-209.52"/>
<polygon fill="midnightblue" stroke="midnightblue" points="554.46,-237.26 549.24,-246.48 559.07,-242.52 554.46,-237.26"/>
</g>
<!-- Node16 -->
<g id="node16" class="node">
<title>Node16</title>
<g id="a_node16"><a xlink:href="rf_2stream_2tls_2_server_config_8h.html" target="_top" xlink:title=" ">
<polygon fill="white" stroke="black" points="841.5,-179.5 841.5,-209.5 971.5,-209.5 971.5,-179.5 841.5,-179.5"/>
<text text-anchor="start" x="849.5" y="-197.5" font-family="Helvetica,sans-Serif" font-size="10.00">net/rf/stream/tls/Server</text>
<text text-anchor="middle" x="906.5" y="-186.5" font-family="Helvetica,sans-Serif" font-size="10.00">Config.h</text>
</a>
</g>
</g>
<!-- Node1&#45;&gt;Node16 -->
<g id="edge15" class="edge">
<title>Node1&#45;&gt;Node16</title>
<path fill="none" stroke="midnightblue" d="M594.71,-246.05C660.74,-235.34 771.14,-217.44 841.31,-206.07"/>
<polygon fill="midnightblue" stroke="midnightblue" points="593.81,-242.65 584.5,-247.7 594.93,-249.56 593.81,-242.65"/>
</g>
<!-- Node21 -->
<g id="node21" class="node">
<title>Node21</title>
<g id="a_node21"><a xlink:href="un_2stream_2tls_2_server_config_8h.html" target="_top" xlink:title=" ">
<polygon fill="white" stroke="black" points="1139.5,-179.5 1139.5,-209.5 1273.5,-209.5 1273.5,-179.5 1139.5,-179.5"/>
<text text-anchor="start" x="1147.5" y="-197.5" font-family="Helvetica,sans-Serif" font-size="10.00">net/un/stream/tls/Server</text>
<text text-anchor="middle" x="1206.5" y="-186.5" font-family="Helvetica,sans-Serif" font-size="10.00">Config.h</text>
</a>
</g>
</g>
<!-- Node1&#45;&gt;Node21 -->
<g id="edge20" class="edge">
<title>Node1&#45;&gt;Node21</title>
<path fill="none" stroke="midnightblue" d="M594.77,-250.07C716.52,-239.21 1007.52,-213.25 1139.45,-201.48"/>
<polygon fill="midnightblue" stroke="midnightblue" points="594.21,-246.61 584.56,-250.98 594.83,-253.58 594.21,-246.61"/>
</g>
<!-- Node4 -->
<g id="node4" class="node">
<title>Node4</title>
<g id="a_node4"><a xlink:href="in_2stream_2tls_2_server_config_8cpp.html" target="_top" xlink:title=" ">
<polygon fill="white" stroke="black" points="0,-112.5 0,-142.5 131,-142.5 131,-112.5 0,-112.5"/>
<text text-anchor="start" x="8" y="-130.5" font-family="Helvetica,sans-Serif" font-size="10.00">net/in/stream/tls/Server</text>
<text text-anchor="middle" x="65.5" y="-119.5" font-family="Helvetica,sans-Serif" font-size="10.00">Config.cpp</text>
</a>
</g>
</g>
<!-- Node3&#45;&gt;Node4 -->
<g id="edge3" class="edge">
<title>Node3&#45;&gt;Node4</title>
<path fill="none" stroke="midnightblue" d="M221.13,-176.44C186.93,-165.91 143.57,-152.55 111.31,-142.61"/>
<polygon fill="midnightblue" stroke="midnightblue" points="220.39,-179.88 230.98,-179.48 222.45,-173.19 220.39,-179.88"/>
</g>
<!-- Node5 -->
<g id="node5" class="node">
<title>Node5</title>
<g id="a_node5"><a xlink:href="net_2in_2stream_2tls_2_socket_server_8h.html" target="_top" xlink:title=" ">
<polygon fill="white" stroke="black" points="149.5,-112.5 149.5,-142.5 281.5,-142.5 281.5,-112.5 149.5,-112.5"/>
<text text-anchor="start" x="157.5" y="-130.5" font-family="Helvetica,sans-Serif" font-size="10.00">net/in/stream/tls/Socket</text>
<text text-anchor="middle" x="215.5" y="-119.5" font-family="Helvetica,sans-Serif" font-size="10.00">Server.h</text>
</a>
</g>
</g>
<!-- Node3&#45;&gt;Node5 -->
<g id="edge4" class="edge">
<title>Node3&#45;&gt;Node5</title>
<path fill="none" stroke="midnightblue" d="M256.35,-172.02C247.26,-162.34 236.78,-151.17 228.71,-142.58"/>
<polygon fill="midnightblue" stroke="midnightblue" points="253.87,-174.5 263.26,-179.4 258.97,-169.71 253.87,-174.5"/>
</g>
<!-- Node6 -->
<g id="node6" class="node">
<title>Node6</title>
<g id="a_node6"><a xlink:href="tls_2in_2_server_8h.html" target="_top" xlink:title=" ">
<polygon fill="white" stroke="black" points="150.5,-56.5 150.5,-75.5 280.5,-75.5 280.5,-56.5 150.5,-56.5"/>
<text text-anchor="middle" x="215.5" y="-63.5" font-family="Helvetica,sans-Serif" font-size="10.00">web/http/tls/in/Server.h</text>
</a>
</g>
</g>
<!-- Node5&#45;&gt;Node6 -->
<g id="edge5" class="edge">
<title>Node5&#45;&gt;Node6</title>
<path fill="none" stroke="midnightblue" d="M215.5,-102.29C215.5,-92.86 215.5,-82.65 215.5,-75.66"/>
<polygon fill="midnightblue" stroke="midnightblue" points="212,-102.4 215.5,-112.4 219,-102.4 212,-102.4"/>
</g>
<!-- Node7 -->
<g id="node7" class="node">
<title>Node7</title>
<g id="a_node7"><a xlink:href="tls_2in_2_web_app_8h.html" target="_top" xlink:title=" ">
<polygon fill="white" stroke="black" points="148.5,-0.5 148.5,-19.5 282.5,-19.5 282.5,-0.5 148.5,-0.5"/>
<text text-anchor="middle" x="215.5" y="-7.5" font-family="Helvetica,sans-Serif" font-size="10.00">express/tls/in/WebApp.h</text>
</a>
</g>
</g>
<!-- Node6&#45;&gt;Node7 -->
<g id="edge6" class="edge">
<title>Node6&#45;&gt;Node7</title>
<path fill="none" stroke="midnightblue" d="M215.5,-45.8C215.5,-36.91 215.5,-26.78 215.5,-19.75"/>
<polygon fill="midnightblue" stroke="midnightblue" points="212,-46.08 215.5,-56.08 219,-46.08 212,-46.08"/>
</g>
<!-- Node9 -->
<g id="node9" class="node">
<title>Node9</title>
<g id="a_node9"><a xlink:href="in6_2stream_2tls_2_server_config_8cpp.html" target="_top" xlink:title=" ">
<polygon fill="white" stroke="black" points="300,-112.5 300,-142.5 403,-142.5 403,-112.5 300,-112.5"/>
<text text-anchor="start" x="308" y="-130.5" font-family="Helvetica,sans-Serif" font-size="10.00">net/in6/stream/tls</text>
<text text-anchor="middle" x="351.5" y="-119.5" font-family="Helvetica,sans-Serif" font-size="10.00">/ServerConfig.cpp</text>
</a>
</g>
</g>
<!-- Node8&#45;&gt;Node9 -->
<g id="edge8" class="edge">
<title>Node8&#45;&gt;Node9</title>
<path fill="none" stroke="midnightblue" d="M437.27,-174.57C418.24,-164.35 395.13,-151.94 377.7,-142.58"/>
<polygon fill="midnightblue" stroke="midnightblue" points="435.78,-177.75 446.24,-179.4 439.09,-171.58 435.78,-177.75"/>
</g>
<!-- Node10 -->
<g id="node10" class="node">
<title>Node10</title>
<g id="a_node10"><a xlink:href="net_2in6_2stream_2tls_2_socket_server_8h.html" target="_top" xlink:title=" ">
<polygon fill="white" stroke="black" points="421,-112.5 421,-142.5 524,-142.5 524,-112.5 421,-112.5"/>
<text text-anchor="start" x="429" y="-130.5" font-family="Helvetica,sans-Serif" font-size="10.00">net/in6/stream/tls</text>
<text text-anchor="middle" x="472.5" y="-119.5" font-family="Helvetica,sans-Serif" font-size="10.00">/SocketServer.h</text>
</a>
</g>
</g>
<!-- Node8&#45;&gt;Node10 -->
<g id="edge9" class="edge">
<title>Node8&#45;&gt;Node10</title>
<path fill="none" stroke="midnightblue" d="M472.5,-169.11C472.5,-160.15 472.5,-150.32 472.5,-142.58"/>
<polygon fill="midnightblue" stroke="midnightblue" points="469,-169.4 472.5,-179.4 476,-169.4 469,-169.4"/>
</g>
<!-- Node11 -->
<g id="node11" class="node">
<title>Node11</title>
<g id="a_node11"><a xlink:href="tls_2in6_2_server_8h.html" target="_top" xlink:title=" ">
<polygon fill="white" stroke="black" points="404.5,-56.5 404.5,-75.5 540.5,-75.5 540.5,-56.5 404.5,-56.5"/>
<text text-anchor="middle" x="472.5" y="-63.5" font-family="Helvetica,sans-Serif" font-size="10.00">web/http/tls/in6/Server.h</text>
</a>
</g>
</g>
<!-- Node10&#45;&gt;Node11 -->
<g id="edge10" class="edge">
<title>Node10&#45;&gt;Node11</title>
<path fill="none" stroke="midnightblue" d="M472.5,-102.29C472.5,-92.86 472.5,-82.65 472.5,-75.66"/>
<polygon fill="midnightblue" stroke="midnightblue" points="469,-102.4 472.5,-112.4 476,-102.4 469,-102.4"/>
</g>
<!-- Node12 -->
<g id="node12" class="node">
<title>Node12</title>
<g id="a_node12"><a xlink:href="tls_2in6_2_web_app_8h.html" target="_top" xlink:title=" ">
<polygon fill="white" stroke="black" points="402.5,-0.5 402.5,-19.5 542.5,-19.5 542.5,-0.5 402.5,-0.5"/>
<text text-anchor="middle" x="472.5" y="-7.5" font-family="Helvetica,sans-Serif" font-size="10.00">express/tls/in6/WebApp.h</text>
</a>
</g>
</g>
<!-- Node11&#45;&gt;Node12 -->
<g id="edge11" class="edge">
<title>Node11&#45;&gt;Node12</title>
<path fill="none" stroke="midnightblue" d="M472.5,-45.8C472.5,-36.91 472.5,-26.78 472.5,-19.75"/>
<polygon fill="midnightblue" stroke="midnightblue" points="469,-46.08 472.5,-56.08 476,-46.08 469,-46.08"/>
</g>
<!-- Node14 -->
<g id="node14" class="node">
<title>Node14</title>
<g id="a_node14"><a xlink:href="l2_2stream_2tls_2_server_config_8cpp.html" target="_top" xlink:title=" ">
<polygon fill="white" stroke="black" points="542,-112.5 542,-142.5 673,-142.5 673,-112.5 542,-112.5"/>
<text text-anchor="start" x="550" y="-130.5" font-family="Helvetica,sans-Serif" font-size="10.00">net/l2/stream/tls/Server</text>
<text text-anchor="middle" x="607.5" y="-119.5" font-family="Helvetica,sans-Serif" font-size="10.00">Config.cpp</text>
</a>
</g>
</g>
<!-- Node13&#45;&gt;Node14 -->
<g id="edge13" class="edge">
<title>Node13&#45;&gt;Node14</title>
<path fill="none" stroke="midnightblue" d="M607.5,-169.11C607.5,-160.15 607.5,-150.32 607.5,-142.58"/>
<polygon fill="midnightblue" stroke="midnightblue" points="604,-169.4 607.5,-179.4 611,-169.4 604,-169.4"/>
</g>
<!-- Node15 -->
<g id="node15" class="node">
<title>Node15</title>
<g id="a_node15"><a xlink:href="net_2l2_2stream_2tls_2_socket_server_8h.html" target="_top" xlink:title=" ">
<polygon fill="white" stroke="black" points="691.5,-112.5 691.5,-142.5 823.5,-142.5 823.5,-112.5 691.5,-112.5"/>
<text text-anchor="start" x="699.5" y="-130.5" font-family="Helvetica,sans-Serif" font-size="10.00">net/l2/stream/tls/Socket</text>
<text text-anchor="middle" x="757.5" y="-119.5" font-family="Helvetica,sans-Serif" font-size="10.00">Server.h</text>
</a>
</g>
</g>
<!-- Node13&#45;&gt;Node15 -->
<g id="edge14" class="edge">
<title>Node13&#45;&gt;Node15</title>
<path fill="none" stroke="midnightblue" d="M649.25,-175.41C673.2,-165.03 702.82,-152.2 725.02,-142.58"/>
<polygon fill="midnightblue" stroke="midnightblue" points="647.83,-172.21 640.05,-179.4 650.61,-178.63 647.83,-172.21"/>
</g>
<!-- Node17 -->
<g id="node17" class="node">
<title>Node17</title>
<g id="a_node17"><a xlink:href="rf_2stream_2tls_2_server_config_8cpp.html" target="_top" xlink:title=" ">
<polygon fill="white" stroke="black" points="841.5,-112.5 841.5,-142.5 971.5,-142.5 971.5,-112.5 841.5,-112.5"/>
<text text-anchor="start" x="849.5" y="-130.5" font-family="Helvetica,sans-Serif" font-size="10.00">net/rf/stream/tls/Server</text>
<text text-anchor="middle" x="906.5" y="-119.5" font-family="Helvetica,sans-Serif" font-size="10.00">Config.cpp</text>
</a>
</g>
</g>
<!-- Node16&#45;&gt;Node17 -->
<g id="edge16" class="edge">
<title>Node16&#45;&gt;Node17</title>
<path fill="none" stroke="midnightblue" d="M906.5,-169.11C906.5,-160.15 906.5,-150.32 906.5,-142.58"/>
<polygon fill="midnightblue" stroke="midnightblue" points="903,-169.4 906.5,-179.4 910,-169.4 903,-169.4"/>
</g>
<!-- Node18 -->
<g id="node18" class="node">
<title>Node18</title>
<g id="a_node18"><a xlink:href="net_2rf_2stream_2tls_2_socket_server_8h.html" target="_top" xlink:title=" ">
<polygon fill="white" stroke="black" points="990,-112.5 990,-142.5 1121,-142.5 1121,-112.5 990,-112.5"/>
<text text-anchor="start" x="998" y="-130.5" font-family="Helvetica,sans-Serif" font-size="10.00">net/rf/stream/tls/Socket</text>
<text text-anchor="middle" x="1055.5" y="-119.5" font-family="Helvetica,sans-Serif" font-size="10.00">Server.h</text>
</a>
</g>
</g>
<!-- Node16&#45;&gt;Node18 -->
<g id="edge17" class="edge">
<title>Node16&#45;&gt;Node18</title>
<path fill="none" stroke="midnightblue" d="M948.29,-175.27C972.02,-164.92 1001.28,-152.15 1023.23,-142.58"/>
<polygon fill="midnightblue" stroke="midnightblue" points="946.6,-172.19 938.83,-179.4 949.4,-178.61 946.6,-172.19"/>
</g>
<!-- Node19 -->
<g id="node19" class="node">
<title>Node19</title>
<g id="a_node19"><a xlink:href="tls_2rf_2_server_8h.html" target="_top" xlink:title=" ">
<polygon fill="white" stroke="black" points="991.5,-56.5 991.5,-75.5 1119.5,-75.5 1119.5,-56.5 991.5,-56.5"/>
<text text-anchor="middle" x="1055.5" y="-63.5" font-family="Helvetica,sans-Serif" font-size="10.00">web/http/tls/rf/Server.h</text>
</a>
</g>
</g>
<!-- Node18&#45;&gt;Node19 -->
<g id="edge18" class="edge">
<title>Node18&#45;&gt;Node19</title>
<path fill="none" stroke="midnightblue" d="M1055.5,-102.29C1055.5,-92.86 1055.5,-82.65 1055.5,-75.66"/>
<polygon fill="midnightblue" stroke="midnightblue" points="1052,-102.4 1055.5,-112.4 1059,-102.4 1052,-102.4"/>
</g>
<!-- Node20 -->
<g id="node20" class="node">
<title>Node20</title>
<g id="a_node20"><a xlink:href="tls_2rf_2_web_app_8h.html" target="_top" xlink:title=" ">
<polygon fill="white" stroke="black" points="989,-0.5 989,-19.5 1122,-19.5 1122,-0.5 989,-0.5"/>
<text text-anchor="middle" x="1055.5" y="-7.5" font-family="Helvetica,sans-Serif" font-size="10.00">express/tls/rf/WebApp.h</text>
</a>
</g>
</g>
<!-- Node19&#45;&gt;Node20 -->
<g id="edge19" class="edge">
<title>Node19&#45;&gt;Node20</title>
<path fill="none" stroke="midnightblue" d="M1055.5,-45.8C1055.5,-36.91 1055.5,-26.78 1055.5,-19.75"/>
<polygon fill="midnightblue" stroke="midnightblue" points="1052,-46.08 1055.5,-56.08 1059,-46.08 1052,-46.08"/>
</g>
<!-- Node22 -->
<g id="node22" class="node">
<title>Node22</title>
<g id="a_node22"><a xlink:href="un_2stream_2tls_2_server_config_8cpp.html" target="_top" xlink:title=" ">
<polygon fill="white" stroke="black" points="1139.5,-112.5 1139.5,-142.5 1273.5,-142.5 1273.5,-112.5 1139.5,-112.5"/>
<text text-anchor="start" x="1147.5" y="-130.5" font-family="Helvetica,sans-Serif" font-size="10.00">net/un/stream/tls/Server</text>
<text text-anchor="middle" x="1206.5" y="-119.5" font-family="Helvetica,sans-Serif" font-size="10.00">Config.cpp</text>
</a>
</g>
</g>
<!-- Node21&#45;&gt;Node22 -->
<g id="edge21" class="edge">
<title>Node21&#45;&gt;Node22</title>
<path fill="none" stroke="midnightblue" d="M1206.5,-169.11C1206.5,-160.15 1206.5,-150.32 1206.5,-142.58"/>
<polygon fill="midnightblue" stroke="midnightblue" points="1203,-169.4 1206.5,-179.4 1210,-169.4 1203,-169.4"/>
</g>
<!-- Node23 -->
<g id="node23" class="node">
<title>Node23</title>
<g id="a_node23"><a xlink:href="net_2un_2stream_2tls_2_socket_server_8h.html" target="_top" xlink:title=" ">
<polygon fill="white" stroke="black" points="1292,-112.5 1292,-142.5 1427,-142.5 1427,-112.5 1292,-112.5"/>
<text text-anchor="start" x="1300" y="-130.5" font-family="Helvetica,sans-Serif" font-size="10.00">net/un/stream/tls/Socket</text>
<text text-anchor="middle" x="1359.5" y="-119.5" font-family="Helvetica,sans-Serif" font-size="10.00">Server.h</text>
</a>
</g>
</g>
<!-- Node21&#45;&gt;Node23 -->
<g id="edge22" class="edge">
<title>Node21&#45;&gt;Node23</title>
<path fill="none" stroke="midnightblue" d="M1249.09,-175.41C1273.52,-165.03 1303.72,-152.2 1326.37,-142.58"/>
<polygon fill="midnightblue" stroke="midnightblue" points="1247.53,-172.26 1239.7,-179.4 1250.27,-178.71 1247.53,-172.26"/>
</g>
<!-- Node24 -->
<g id="node24" class="node">
<title>Node24</title>
<g id="a_node24"><a xlink:href="tls_2un_2_server_8h.html" target="_top" xlink:title=" ">
<polygon fill="white" stroke="black" points="1293,-56.5 1293,-75.5 1426,-75.5 1426,-56.5 1293,-56.5"/>
<text text-anchor="middle" x="1359.5" y="-63.5" font-family="Helvetica,sans-Serif" font-size="10.00">web/http/tls/un/Server.h</text>
</a>
</g>
</g>
<!-- Node23&#45;&gt;Node24 -->
<g id="edge23" class="edge">
<title>Node23&#45;&gt;Node24</title>
<path fill="none" stroke="midnightblue" d="M1359.5,-102.29C1359.5,-92.86 1359.5,-82.65 1359.5,-75.66"/>
<polygon fill="midnightblue" stroke="midnightblue" points="1356,-102.4 1359.5,-112.4 1363,-102.4 1356,-102.4"/>
</g>
<!-- Node25 -->
<g id="node25" class="node">
<title>Node25</title>
<g id="a_node25"><a xlink:href="tls_2un_2_web_app_8h.html" target="_top" xlink:title=" ">
<polygon fill="white" stroke="black" points="1291,-0.5 1291,-19.5 1428,-19.5 1428,-0.5 1291,-0.5"/>
<text text-anchor="middle" x="1359.5" y="-7.5" font-family="Helvetica,sans-Serif" font-size="10.00">express/tls/un/WebApp.h</text>
</a>
</g>
</g>
<!-- Node24&#45;&gt;Node25 -->
<g id="edge24" class="edge">
<title>Node24&#45;&gt;Node25</title>
<path fill="none" stroke="midnightblue" d="M1359.5,-45.8C1359.5,-36.91 1359.5,-26.78 1359.5,-19.75"/>
<polygon fill="midnightblue" stroke="midnightblue" points="1356,-46.08 1359.5,-56.08 1363,-46.08 1356,-46.08"/>
</g>
</g>
</svg>
