<?xml version="1.0" encoding="UTF-8" standalone="no"?>
<!DOCTYPE svg PUBLIC "-//W3C//DTD SVG 1.1//EN"
 "http://www.w3.org/Graphics/SVG/1.1/DTD/svg11.dtd">
<!-- Generated by graphviz version 2.43.0 (0)
 -->
<!-- Title: net/config/ConfigConnection.h Pages: 1 -->
<svg width="4778pt" height="229pt"
 viewBox="0.00 0.00 4777.50 229.00" xmlns="http://www.w3.org/2000/svg" xmlns:xlink="http://www.w3.org/1999/xlink">
<g id="graph0" class="graph" transform="scale(1 1) rotate(0) translate(4 225)">
<title>net/config/ConfigConnection.h</title>
<polygon fill="white" stroke="transparent" points="-4,4 -4,-225 4773.5,-225 4773.5,4 -4,4"/>
<!-- Node1 -->
<g id="node1" class="node">
<title>Node1</title>
<g id="a_node1"><a xlink:title=" ">
<polygon fill="#bfbfbf" stroke="black" points="2090,-201.5 2090,-220.5 2254,-220.5 2254,-201.5 2090,-201.5"/>
<text text-anchor="middle" x="2172" y="-208.5" font-family="Helvetica,sans-Serif" font-size="10.00">net/config/ConfigConnection.h</text>
</a>
</g>
</g>
<!-- Node2 -->
<g id="node2" class="node">
<title>Node2</title>
<g id="a_node2"><a xlink:href="_config_connection_8cpp.html" target="_top" xlink:title=" ">
<polygon fill="white" stroke="black" points="133.5,-140 133.5,-159 308.5,-159 308.5,-140 133.5,-140"/>
<text text-anchor="middle" x="221" y="-147" font-family="Helvetica,sans-Serif" font-size="10.00">net/config/ConfigConnection.cpp</text>
</a>
</g>
</g>
<!-- Node1&#45;&gt;Node2 -->
<g id="edge1" class="edge">
<title>Node1&#45;&gt;Node2</title>
<path fill="none" stroke="midnightblue" d="M2079.46,-209.3C1754.27,-206.58 664.93,-195.38 317,-165 301.55,-163.65 284.81,-161.4 269.7,-159.07"/>
<polygon fill="midnightblue" stroke="midnightblue" points="2079.75,-212.8 2089.78,-209.38 2079.81,-205.8 2079.75,-212.8"/>
</g>
<!-- Node3 -->
<g id="node3" class="node">
<title>Node3</title>
<g id="a_node3"><a xlink:href="in_2stream_2config_2_config_client_socket_8h.html" target="_top" xlink:title=" ">
<polygon fill="white" stroke="black" points="326.5,-134.5 326.5,-164.5 447.5,-164.5 447.5,-134.5 326.5,-134.5"/>
<text text-anchor="start" x="334.5" y="-152.5" font-family="Helvetica,sans-Serif" font-size="10.00">net/in/stream/config</text>
<text text-anchor="middle" x="387" y="-141.5" font-family="Helvetica,sans-Serif" font-size="10.00">/ConfigClientSocket.h</text>
</a>
</g>
</g>
<!-- Node1&#45;&gt;Node3 -->
<g id="edge2" class="edge">
<title>Node1&#45;&gt;Node3</title>
<path fill="none" stroke="midnightblue" d="M2079.63,-207.59C1848.93,-201.49 1228.88,-184.5 712,-165 619.86,-161.52 513.07,-156.59 447.79,-153.46"/>
<polygon fill="midnightblue" stroke="midnightblue" points="2079.57,-211.09 2089.66,-207.86 2079.76,-204.1 2079.57,-211.09"/>
</g>
<!-- Node11 -->
<g id="node9" class="node">
<title>Node11</title>
<g id="a_node9"><a xlink:href="in_2stream_2config_2_config_server_socket_8h.html" target="_top" xlink:title=" ">
<polygon fill="white" stroke="black" points="721,-134.5 721,-164.5 845,-164.5 845,-134.5 721,-134.5"/>
<text text-anchor="start" x="729" y="-152.5" font-family="Helvetica,sans-Serif" font-size="10.00">net/in/stream/config</text>
<text text-anchor="middle" x="783" y="-141.5" font-family="Helvetica,sans-Serif" font-size="10.00">/ConfigServerSocket.h</text>
</a>
</g>
</g>
<!-- Node1&#45;&gt;Node11 -->
<g id="edge8" class="edge">
<title>Node1&#45;&gt;Node11</title>
<path fill="none" stroke="midnightblue" d="M2079.49,-206.04C1816.01,-194.75 1066.41,-162.64 845.19,-153.16"/>
<polygon fill="midnightblue" stroke="midnightblue" points="2079.64,-209.55 2089.79,-206.48 2079.94,-202.55 2079.64,-209.55"/>
</g>
<!-- Node21 -->
<g id="node15" class="node">
<title>Node21</title>
<g id="a_node15"><a xlink:href="in6_2stream_2config_2_config_client_socket_8h.html" target="_top" xlink:title=" ">
<polygon fill="white" stroke="black" points="1199.5,-134.5 1199.5,-164.5 1320.5,-164.5 1320.5,-134.5 1199.5,-134.5"/>
<text text-anchor="start" x="1207.5" y="-152.5" font-family="Helvetica,sans-Serif" font-size="10.00">net/in6/stream/config</text>
<text text-anchor="middle" x="1260" y="-141.5" font-family="Helvetica,sans-Serif" font-size="10.00">/ConfigClientSocket.h</text>
</a>
</g>
</g>
<!-- Node1&#45;&gt;Node21 -->
<g id="edge14" class="edge">
<title>Node1&#45;&gt;Node21</title>
<path fill="none" stroke="midnightblue" d="M2079.81,-203.99C1893.49,-191.83 1476.58,-164.63 1320.51,-154.45"/>
<polygon fill="midnightblue" stroke="midnightblue" points="2079.65,-207.48 2089.86,-204.64 2080.11,-200.5 2079.65,-207.48"/>
</g>
<!-- Node29 -->
<g id="node21" class="node">
<title>Node29</title>
<g id="a_node21"><a xlink:href="in6_2stream_2config_2_config_server_socket_8h.html" target="_top" xlink:title=" ">
<polygon fill="white" stroke="black" points="1698,-134.5 1698,-164.5 1822,-164.5 1822,-134.5 1698,-134.5"/>
<text text-anchor="start" x="1706" y="-152.5" font-family="Helvetica,sans-Serif" font-size="10.00">net/in6/stream/config</text>
<text text-anchor="middle" x="1760" y="-141.5" font-family="Helvetica,sans-Serif" font-size="10.00">/ConfigServerSocket.h</text>
</a>
</g>
</g>
<!-- Node1&#45;&gt;Node29 -->
<g id="edge20" class="edge">
<title>Node1&#45;&gt;Node29</title>
<path fill="none" stroke="midnightblue" d="M2102.71,-199.99C2024.29,-188.67 1897.69,-170.39 1822.29,-159.5"/>
<polygon fill="midnightblue" stroke="midnightblue" points="2102.57,-203.51 2112.97,-201.48 2103.57,-196.58 2102.57,-203.51"/>
</g>
<!-- Node39 -->
<g id="node27" class="node">
<title>Node39</title>
<g id="a_node27"><a xlink:href="l2_2stream_2config_2_config_client_socket_8h.html" target="_top" xlink:title=" ">
<polygon fill="white" stroke="black" points="2111.5,-134.5 2111.5,-164.5 2232.5,-164.5 2232.5,-134.5 2111.5,-134.5"/>
<text text-anchor="start" x="2119.5" y="-152.5" font-family="Helvetica,sans-Serif" font-size="10.00">net/l2/stream/config</text>
<text text-anchor="middle" x="2172" y="-141.5" font-family="Helvetica,sans-Serif" font-size="10.00">/ConfigClientSocket.h</text>
</a>
</g>
</g>
<!-- Node1&#45;&gt;Node39 -->
<g id="edge26" class="edge">
<title>Node1&#45;&gt;Node39</title>
<path fill="none" stroke="midnightblue" d="M2172,-191.23C2172,-182.59 2172,-172.5 2172,-164.52"/>
<polygon fill="midnightblue" stroke="midnightblue" points="2168.5,-191.48 2172,-201.48 2175.5,-191.48 2168.5,-191.48"/>
</g>
<!-- Node45 -->
<g id="node31" class="node">
<title>Node45</title>
<g id="a_node31"><a xlink:href="l2_2stream_2config_2_config_server_socket_8h.html" target="_top" xlink:title=" ">
<polygon fill="white" stroke="black" points="2503,-134.5 2503,-164.5 2627,-164.5 2627,-134.5 2503,-134.5"/>
<text text-anchor="start" x="2511" y="-152.5" font-family="Helvetica,sans-Serif" font-size="10.00">net/l2/stream/config</text>
<text text-anchor="middle" x="2565" y="-141.5" font-family="Helvetica,sans-Serif" font-size="10.00">/ConfigServerSocket.h</text>
</a>
</g>
</g>
<!-- Node1&#45;&gt;Node45 -->
<g id="edge30" class="edge">
<title>Node1&#45;&gt;Node45</title>
<path fill="none" stroke="midnightblue" d="M2238.43,-199.94C2312.36,-188.75 2430.86,-170.81 2502.96,-159.89"/>
<polygon fill="midnightblue" stroke="midnightblue" points="2237.67,-196.52 2228.31,-201.48 2238.72,-203.44 2237.67,-196.52"/>
</g>
<!-- Node51 -->
<g id="node35" class="node">
<title>Node51</title>
<g id="a_node35"><a xlink:href="rf_2stream_2config_2_config_client_socket_8h.html" target="_top" xlink:title=" ">
<polygon fill="white" stroke="black" points="2977.5,-134.5 2977.5,-164.5 3098.5,-164.5 3098.5,-134.5 2977.5,-134.5"/>
<text text-anchor="start" x="2985.5" y="-152.5" font-family="Helvetica,sans-Serif" font-size="10.00">net/rf/stream/config</text>
<text text-anchor="middle" x="3038" y="-141.5" font-family="Helvetica,sans-Serif" font-size="10.00">/ConfigClientSocket.h</text>
</a>
</g>
</g>
<!-- Node1&#45;&gt;Node51 -->
<g id="edge34" class="edge">
<title>Node1&#45;&gt;Node51</title>
<path fill="none" stroke="midnightblue" d="M2264.38,-203.65C2442.32,-191.43 2828.21,-164.91 2977.41,-154.66"/>
<polygon fill="midnightblue" stroke="midnightblue" points="2263.99,-200.17 2254.25,-204.35 2264.47,-207.15 2263.99,-200.17"/>
</g>
<!-- Node59 -->
<g id="node39" class="node">
<title>Node59</title>
<g id="a_node39"><a xlink:href="rf_2stream_2config_2_config_server_socket_8h.html" target="_top" xlink:title=" ">
<polygon fill="white" stroke="black" points="3448,-134.5 3448,-164.5 3572,-164.5 3572,-134.5 3448,-134.5"/>
<text text-anchor="start" x="3456" y="-152.5" font-family="Helvetica,sans-Serif" font-size="10.00">net/rf/stream/config</text>
<text text-anchor="middle" x="3510" y="-141.5" font-family="Helvetica,sans-Serif" font-size="10.00">/ConfigServerSocket.h</text>
</a>
</g>
</g>
<!-- Node1&#45;&gt;Node59 -->
<g id="edge38" class="edge">
<title>Node1&#45;&gt;Node59</title>
<path fill="none" stroke="midnightblue" d="M2264.18,-205.9C2519.8,-194.53 3232.89,-162.82 3447.87,-153.26"/>
<polygon fill="midnightblue" stroke="midnightblue" points="2264.02,-202.4 2254.19,-206.35 2264.33,-209.4 2264.02,-202.4"/>
</g>
<!-- Node69 -->
<g id="node43" class="node">
<title>Node69</title>
<g id="a_node43"><a xlink:href="un_2stream_2config_2_config_client_socket_8h.html" target="_top" xlink:title=" ">
<polygon fill="white" stroke="black" points="3920.5,-134.5 3920.5,-164.5 4041.5,-164.5 4041.5,-134.5 3920.5,-134.5"/>
<text text-anchor="start" x="3928.5" y="-152.5" font-family="Helvetica,sans-Serif" font-size="10.00">net/un/stream/config</text>
<text text-anchor="middle" x="3981" y="-141.5" font-family="Helvetica,sans-Serif" font-size="10.00">/ConfigClientSocket.h</text>
</a>
</g>
</g>
<!-- Node1&#45;&gt;Node69 -->
<g id="edge42" class="edge">
<title>Node1&#45;&gt;Node69</title>
<path fill="none" stroke="midnightblue" d="M2264.31,-207.19C2489.39,-200.31 3084.45,-181.93 3581,-165 3701.32,-160.9 3841.99,-155.71 3920.35,-152.78"/>
<polygon fill="midnightblue" stroke="midnightblue" points="2264.08,-203.69 2254.19,-207.5 2264.29,-210.69 2264.08,-203.69"/>
</g>
<!-- Node77 -->
<g id="node47" class="node">
<title>Node77</title>
<g id="a_node47"><a xlink:href="un_2stream_2config_2_config_server_socket_8h.html" target="_top" xlink:title=" ">
<polygon fill="white" stroke="black" points="4396,-134.5 4396,-164.5 4520,-164.5 4520,-134.5 4396,-134.5"/>
<text text-anchor="start" x="4404" y="-152.5" font-family="Helvetica,sans-Serif" font-size="10.00">net/un/stream/config</text>
<text text-anchor="middle" x="4458" y="-141.5" font-family="Helvetica,sans-Serif" font-size="10.00">/ConfigServerSocket.h</text>
</a>
</g>
</g>
<!-- Node1&#45;&gt;Node77 -->
<g id="edge46" class="edge">
<title>Node1&#45;&gt;Node77</title>
<path fill="none" stroke="midnightblue" d="M2264.65,-208.16C2537.92,-202.65 3364.45,-185.39 4050,-165 4172.56,-161.35 4315.8,-156.01 4395.8,-152.93"/>
<polygon fill="midnightblue" stroke="midnightblue" points="2264.31,-204.67 2254.38,-208.37 2264.45,-211.66 2264.31,-204.67"/>
</g>
<!-- Node4 -->
<g id="node4" class="node">
<title>Node4</title>
<g id="a_node4"><a xlink:href="in_2stream_2config_2_config_client_socket_8cpp.html" target="_top" xlink:title=" ">
<polygon fill="white" stroke="black" points="0,-67.5 0,-97.5 132,-97.5 132,-67.5 0,-67.5"/>
<text text-anchor="start" x="8" y="-85.5" font-family="Helvetica,sans-Serif" font-size="10.00">net/in/stream/config</text>
<text text-anchor="middle" x="66" y="-74.5" font-family="Helvetica,sans-Serif" font-size="10.00">/ConfigClientSocket.cpp</text>
</a>
</g>
</g>
<!-- Node3&#45;&gt;Node4 -->
<g id="edge3" class="edge">
<title>Node3&#45;&gt;Node4</title>
<path fill="none" stroke="midnightblue" d="M316.18,-133.84C247.62,-119.86 180.33,-106.34 132.08,-96.69"/>
<polygon fill="midnightblue" stroke="midnightblue" points="315.8,-137.33 326.3,-135.9 317.2,-130.47 315.8,-137.33"/>
</g>
<!-- Node5 -->
<g id="node5" class="node">
<title>Node5</title>
<g id="a_node5"><a xlink:href="in_2stream_2legacy_2config_2_config_socket_client_8h.html" target="_top" xlink:title=" ">
<polygon fill="white" stroke="black" points="150,-67.5 150,-97.5 304,-97.5 304,-67.5 150,-67.5"/>
<text text-anchor="start" x="158" y="-85.5" font-family="Helvetica,sans-Serif" font-size="10.00">net/in/stream/legacy</text>
<text text-anchor="middle" x="227" y="-74.5" font-family="Helvetica,sans-Serif" font-size="10.00">/config/ConfigSocketClient.h</text>
</a>
</g>
</g>
<!-- Node3&#45;&gt;Node5 -->
<g id="edge4" class="edge">
<title>Node3&#45;&gt;Node5</title>
<path fill="none" stroke="midnightblue" d="M342.8,-130.54C317.2,-120.14 285.43,-107.24 261.65,-97.58"/>
<polygon fill="midnightblue" stroke="midnightblue" points="341.7,-133.87 352.28,-134.4 344.34,-127.39 341.7,-133.87"/>
</g>
<!-- Node8 -->
<g id="node7" class="node">
<title>Node8</title>
<g id="a_node7"><a xlink:href="in_2stream_2tls_2config_2_config_socket_client_8h.html" target="_top" xlink:title=" ">
<polygon fill="white" stroke="black" points="322,-67.5 322,-97.5 452,-97.5 452,-67.5 322,-67.5"/>
<text text-anchor="start" x="330" y="-85.5" font-family="Helvetica,sans-Serif" font-size="10.00">net/in/stream/tls/config</text>
<text text-anchor="middle" x="387" y="-74.5" font-family="Helvetica,sans-Serif" font-size="10.00">/ConfigSocketClient.h</text>
</a>
</g>
</g>
<!-- Node3&#45;&gt;Node8 -->
<g id="edge6" class="edge">
<title>Node3&#45;&gt;Node8</title>
<path fill="none" stroke="midnightblue" d="M387,-124.11C387,-115.15 387,-105.32 387,-97.58"/>
<polygon fill="midnightblue" stroke="midnightblue" points="383.5,-124.4 387,-134.4 390.5,-124.4 383.5,-124.4"/>
</g>
<!-- Node6 -->
<g id="node6" class="node">
<title>Node6</title>
<g id="a_node6"><a xlink:href="net_2in_2stream_2legacy_2_socket_client_8h.html" target="_top" xlink:title=" ">
<polygon fill="white" stroke="red" points="168.5,-0.5 168.5,-30.5 285.5,-30.5 285.5,-0.5 168.5,-0.5"/>
<text text-anchor="start" x="176.5" y="-18.5" font-family="Helvetica,sans-Serif" font-size="10.00">net/in/stream/legacy</text>
<text text-anchor="middle" x="227" y="-7.5" font-family="Helvetica,sans-Serif" font-size="10.00">/SocketClient.h</text>
</a>
</g>
</g>
<!-- Node5&#45;&gt;Node6 -->
<g id="edge5" class="edge">
<title>Node5&#45;&gt;Node6</title>
<path fill="none" stroke="midnightblue" d="M227,-57.11C227,-48.15 227,-38.32 227,-30.58"/>
<polygon fill="midnightblue" stroke="midnightblue" points="223.5,-57.4 227,-67.4 230.5,-57.4 223.5,-57.4"/>
</g>
<!-- Node9 -->
<g id="node8" class="node">
<title>Node9</title>
<g id="a_node8"><a xlink:href="net_2in_2stream_2tls_2_socket_client_8h.html" target="_top" xlink:title=" ">
<polygon fill="white" stroke="red" points="321,-0.5 321,-30.5 453,-30.5 453,-0.5 321,-0.5"/>
<text text-anchor="start" x="329" y="-18.5" font-family="Helvetica,sans-Serif" font-size="10.00">net/in/stream/tls/Socket</text>
<text text-anchor="middle" x="387" y="-7.5" font-family="Helvetica,sans-Serif" font-size="10.00">Client.h</text>
</a>
</g>
</g>
<!-- Node8&#45;&gt;Node9 -->
<g id="edge7" class="edge">
<title>Node8&#45;&gt;Node9</title>
<path fill="none" stroke="midnightblue" d="M387,-57.11C387,-48.15 387,-38.32 387,-30.58"/>
<polygon fill="midnightblue" stroke="midnightblue" points="383.5,-57.4 387,-67.4 390.5,-57.4 383.5,-57.4"/>
</g>
<!-- Node12 -->
<g id="node10" class="node">
<title>Node12</title>
<g id="a_node10"><a xlink:href="in_2stream_2config_2_config_server_socket_8cpp.html" target="_top" xlink:title=" ">
<polygon fill="white" stroke="black" points="470.5,-67.5 470.5,-97.5 605.5,-97.5 605.5,-67.5 470.5,-67.5"/>
<text text-anchor="start" x="478.5" y="-85.5" font-family="Helvetica,sans-Serif" font-size="10.00">net/in/stream/config</text>
<text text-anchor="middle" x="538" y="-74.5" font-family="Helvetica,sans-Serif" font-size="10.00">/ConfigServerSocket.cpp</text>
</a>
</g>
</g>
<!-- Node11&#45;&gt;Node12 -->
<g id="edge9" class="edge">
<title>Node11&#45;&gt;Node12</title>
<path fill="none" stroke="midnightblue" d="M720.24,-131.85C680.3,-121.25 629.13,-107.68 591.19,-97.61"/>
<polygon fill="midnightblue" stroke="midnightblue" points="719.58,-135.29 730.14,-134.48 721.37,-128.53 719.58,-135.29"/>
</g>
<!-- Node13 -->
<g id="node11" class="node">
<title>Node13</title>
<g id="a_node11"><a xlink:href="in_2stream_2legacy_2config_2_config_socket_server_8h.html" target="_top" xlink:title=" ">
<polygon fill="white" stroke="black" points="623.5,-67.5 623.5,-97.5 780.5,-97.5 780.5,-67.5 623.5,-67.5"/>
<text text-anchor="start" x="631.5" y="-85.5" font-family="Helvetica,sans-Serif" font-size="10.00">net/in/stream/legacy</text>
<text text-anchor="middle" x="702" y="-74.5" font-family="Helvetica,sans-Serif" font-size="10.00">/config/ConfigSocketServer.h</text>
</a>
</g>
</g>
<!-- Node11&#45;&gt;Node13 -->
<g id="edge10" class="edge">
<title>Node11&#45;&gt;Node13</title>
<path fill="none" stroke="midnightblue" d="M757.31,-127.88C745,-118.01 730.57,-106.43 719.54,-97.58"/>
<polygon fill="midnightblue" stroke="midnightblue" points="755.43,-130.87 765.42,-134.4 759.82,-125.41 755.43,-130.87"/>
</g>
<!-- Node17 -->
<g id="node13" class="node">
<title>Node17</title>
<g id="a_node13"><a xlink:href="in_2stream_2tls_2config_2_config_socket_server_8h.html" target="_top" xlink:title=" ">
<polygon fill="white" stroke="black" points="799,-67.5 799,-97.5 929,-97.5 929,-67.5 799,-67.5"/>
<text text-anchor="start" x="807" y="-85.5" font-family="Helvetica,sans-Serif" font-size="10.00">net/in/stream/tls/config</text>
<text text-anchor="middle" x="864" y="-74.5" font-family="Helvetica,sans-Serif" font-size="10.00">/ConfigSocketServer.h</text>
</a>
</g>
</g>
<!-- Node11&#45;&gt;Node17 -->
<g id="edge12" class="edge">
<title>Node11&#45;&gt;Node17</title>
<path fill="none" stroke="midnightblue" d="M808.69,-127.88C821,-118.01 835.43,-106.43 846.46,-97.58"/>
<polygon fill="midnightblue" stroke="midnightblue" points="806.18,-125.41 800.58,-134.4 810.57,-130.87 806.18,-125.41"/>
</g>
<!-- Node14 -->
<g id="node12" class="node">
<title>Node14</title>
<g id="a_node12"><a xlink:href="net_2in_2stream_2legacy_2_socket_server_8h.html" target="_top" xlink:title=" ">
<polygon fill="white" stroke="red" points="643.5,-0.5 643.5,-30.5 760.5,-30.5 760.5,-0.5 643.5,-0.5"/>
<text text-anchor="start" x="651.5" y="-18.5" font-family="Helvetica,sans-Serif" font-size="10.00">net/in/stream/legacy</text>
<text text-anchor="middle" x="702" y="-7.5" font-family="Helvetica,sans-Serif" font-size="10.00">/SocketServer.h</text>
</a>
</g>
</g>
<!-- Node13&#45;&gt;Node14 -->
<g id="edge11" class="edge">
<title>Node13&#45;&gt;Node14</title>
<path fill="none" stroke="midnightblue" d="M702,-57.11C702,-48.15 702,-38.32 702,-30.58"/>
<polygon fill="midnightblue" stroke="midnightblue" points="698.5,-57.4 702,-67.4 705.5,-57.4 698.5,-57.4"/>
</g>
<!-- Node18 -->
<g id="node14" class="node">
<title>Node18</title>
<g id="a_node14"><a xlink:href="net_2in_2stream_2tls_2_socket_server_8h.html" target="_top" xlink:title=" ">
<polygon fill="white" stroke="red" points="798,-0.5 798,-30.5 930,-30.5 930,-0.5 798,-0.5"/>
<text text-anchor="start" x="806" y="-18.5" font-family="Helvetica,sans-Serif" font-size="10.00">net/in/stream/tls/Socket</text>
<text text-anchor="middle" x="864" y="-7.5" font-family="Helvetica,sans-Serif" font-size="10.00">Server.h</text>
</a>
</g>
</g>
<!-- Node17&#45;&gt;Node18 -->
<g id="edge13" class="edge">
<title>Node17&#45;&gt;Node18</title>
<path fill="none" stroke="midnightblue" d="M864,-57.11C864,-48.15 864,-38.32 864,-30.58"/>
<polygon fill="midnightblue" stroke="midnightblue" points="860.5,-57.4 864,-67.4 867.5,-57.4 860.5,-57.4"/>
</g>
<!-- Node22 -->
<g id="node16" class="node">
<title>Node22</title>
<g id="a_node16"><a xlink:href="in6_2stream_2config_2_config_client_socket_8cpp.html" target="_top" xlink:title=" ">
<polygon fill="white" stroke="black" points="947,-67.5 947,-97.5 1079,-97.5 1079,-67.5 947,-67.5"/>
<text text-anchor="start" x="955" y="-85.5" font-family="Helvetica,sans-Serif" font-size="10.00">net/in6/stream/config</text>
<text text-anchor="middle" x="1013" y="-74.5" font-family="Helvetica,sans-Serif" font-size="10.00">/ConfigClientSocket.cpp</text>
</a>
</g>
</g>
<!-- Node21&#45;&gt;Node22 -->
<g id="edge15" class="edge">
<title>Node21&#45;&gt;Node22</title>
<path fill="none" stroke="midnightblue" d="M1196.99,-131.92C1156.68,-121.31 1104.96,-107.7 1066.62,-97.61"/>
<polygon fill="midnightblue" stroke="midnightblue" points="1196.15,-135.32 1206.71,-134.48 1197.93,-128.55 1196.15,-135.32"/>
</g>
<!-- Node23 -->
<g id="node17" class="node">
<title>Node23</title>
<g id="a_node17"><a xlink:href="in6_2stream_2legacy_2config_2_config_socket_client_8h.html" target="_top" xlink:title=" ">
<polygon fill="white" stroke="black" points="1097,-67.5 1097,-97.5 1251,-97.5 1251,-67.5 1097,-67.5"/>
<text text-anchor="start" x="1105" y="-85.5" font-family="Helvetica,sans-Serif" font-size="10.00">net/in6/stream/legacy</text>
<text text-anchor="middle" x="1174" y="-74.5" font-family="Helvetica,sans-Serif" font-size="10.00">/config/ConfigSocketClient.h</text>
</a>
</g>
</g>
<!-- Node21&#45;&gt;Node23 -->
<g id="edge16" class="edge">
<title>Node21&#45;&gt;Node23</title>
<path fill="none" stroke="midnightblue" d="M1233.1,-128.17C1219.95,-118.23 1204.45,-106.51 1192.62,-97.58"/>
<polygon fill="midnightblue" stroke="midnightblue" points="1231.25,-131.16 1241.34,-134.4 1235.47,-125.57 1231.25,-131.16"/>
</g>
<!-- Node26 -->
<g id="node19" class="node">
<title>Node26</title>
<g id="a_node19"><a xlink:href="in6_2stream_2tls_2config_2_config_socket_client_8h.html" target="_top" xlink:title=" ">
<polygon fill="white" stroke="black" points="1269,-67.5 1269,-97.5 1423,-97.5 1423,-67.5 1269,-67.5"/>
<text text-anchor="start" x="1277" y="-85.5" font-family="Helvetica,sans-Serif" font-size="10.00">net/in6/stream/tls</text>
<text text-anchor="middle" x="1346" y="-74.5" font-family="Helvetica,sans-Serif" font-size="10.00">/config/ConfigSocketClient.h</text>
</a>
</g>
</g>
<!-- Node21&#45;&gt;Node26 -->
<g id="edge18" class="edge">
<title>Node21&#45;&gt;Node26</title>
<path fill="none" stroke="midnightblue" d="M1286.9,-128.17C1300.05,-118.23 1315.55,-106.51 1327.38,-97.58"/>
<polygon fill="midnightblue" stroke="midnightblue" points="1284.53,-125.57 1278.66,-134.4 1288.75,-131.16 1284.53,-125.57"/>
</g>
<!-- Node24 -->
<g id="node18" class="node">
<title>Node24</title>
<g id="a_node18"><a xlink:href="net_2in6_2stream_2legacy_2_socket_client_8h.html" target="_top" xlink:title=" ">
<polygon fill="white" stroke="red" points="1112.5,-0.5 1112.5,-30.5 1235.5,-30.5 1235.5,-0.5 1112.5,-0.5"/>
<text text-anchor="start" x="1120.5" y="-18.5" font-family="Helvetica,sans-Serif" font-size="10.00">net/in6/stream/legacy</text>
<text text-anchor="middle" x="1174" y="-7.5" font-family="Helvetica,sans-Serif" font-size="10.00">/SocketClient.h</text>
</a>
</g>
</g>
<!-- Node23&#45;&gt;Node24 -->
<g id="edge17" class="edge">
<title>Node23&#45;&gt;Node24</title>
<path fill="none" stroke="midnightblue" d="M1174,-57.11C1174,-48.15 1174,-38.32 1174,-30.58"/>
<polygon fill="midnightblue" stroke="midnightblue" points="1170.5,-57.4 1174,-67.4 1177.5,-57.4 1170.5,-57.4"/>
</g>
<!-- Node27 -->
<g id="node20" class="node">
<title>Node27</title>
<g id="a_node20"><a xlink:href="net_2in6_2stream_2tls_2_socket_client_8h.html" target="_top" xlink:title=" ">
<polygon fill="white" stroke="red" points="1294.5,-0.5 1294.5,-30.5 1397.5,-30.5 1397.5,-0.5 1294.5,-0.5"/>
<text text-anchor="start" x="1302.5" y="-18.5" font-family="Helvetica,sans-Serif" font-size="10.00">net/in6/stream/tls</text>
<text text-anchor="middle" x="1346" y="-7.5" font-family="Helvetica,sans-Serif" font-size="10.00">/SocketClient.h</text>
</a>
</g>
</g>
<!-- Node26&#45;&gt;Node27 -->
<g id="edge19" class="edge">
<title>Node26&#45;&gt;Node27</title>
<path fill="none" stroke="midnightblue" d="M1346,-57.11C1346,-48.15 1346,-38.32 1346,-30.58"/>
<polygon fill="midnightblue" stroke="midnightblue" points="1342.5,-57.4 1346,-67.4 1349.5,-57.4 1342.5,-57.4"/>
</g>
<!-- Node30 -->
<g id="node22" class="node">
<title>Node30</title>
<g id="a_node22"><a xlink:href="in6_2stream_2config_2_config_server_socket_8cpp.html" target="_top" xlink:title=" ">
<polygon fill="white" stroke="black" points="1441.5,-67.5 1441.5,-97.5 1576.5,-97.5 1576.5,-67.5 1441.5,-67.5"/>
<text text-anchor="start" x="1449.5" y="-85.5" font-family="Helvetica,sans-Serif" font-size="10.00">net/in6/stream/config</text>
<text text-anchor="middle" x="1509" y="-74.5" font-family="Helvetica,sans-Serif" font-size="10.00">/ConfigServerSocket.cpp</text>
</a>
</g>
</g>
<!-- Node29&#45;&gt;Node30 -->
<g id="edge21" class="edge">
<title>Node29&#45;&gt;Node30</title>
<path fill="none" stroke="midnightblue" d="M1695.96,-131.92C1655,-121.31 1602.44,-107.7 1563.49,-97.61"/>
<polygon fill="midnightblue" stroke="midnightblue" points="1695.29,-135.36 1705.85,-134.48 1697.04,-128.58 1695.29,-135.36"/>
</g>
<!-- Node31 -->
<g id="node23" class="node">
<title>Node31</title>
<g id="a_node23"><a xlink:href="in6_2stream_2legacy_2config_2_config_socket_server_8h.html" target="_top" xlink:title=" ">
<polygon fill="white" stroke="black" points="1594.5,-67.5 1594.5,-97.5 1751.5,-97.5 1751.5,-67.5 1594.5,-67.5"/>
<text text-anchor="start" x="1602.5" y="-85.5" font-family="Helvetica,sans-Serif" font-size="10.00">net/in6/stream/legacy</text>
<text text-anchor="middle" x="1673" y="-74.5" font-family="Helvetica,sans-Serif" font-size="10.00">/config/ConfigSocketServer.h</text>
</a>
</g>
</g>
<!-- Node29&#45;&gt;Node31 -->
<g id="edge22" class="edge">
<title>Node29&#45;&gt;Node31</title>
<path fill="none" stroke="midnightblue" d="M1732.79,-128.17C1719.48,-118.23 1703.8,-106.51 1691.84,-97.58"/>
<polygon fill="midnightblue" stroke="midnightblue" points="1731.02,-131.21 1741.12,-134.4 1735.21,-125.61 1731.02,-131.21"/>
</g>
<!-- Node35 -->
<g id="node25" class="node">
<title>Node35</title>
<g id="a_node25"><a xlink:href="in6_2stream_2tls_2config_2_config_socket_server_8h.html" target="_top" xlink:title=" ">
<polygon fill="white" stroke="black" points="1769.5,-67.5 1769.5,-97.5 1926.5,-97.5 1926.5,-67.5 1769.5,-67.5"/>
<text text-anchor="start" x="1777.5" y="-85.5" font-family="Helvetica,sans-Serif" font-size="10.00">net/in6/stream/tls</text>
<text text-anchor="middle" x="1848" y="-74.5" font-family="Helvetica,sans-Serif" font-size="10.00">/config/ConfigSocketServer.h</text>
</a>
</g>
</g>
<!-- Node29&#45;&gt;Node35 -->
<g id="edge24" class="edge">
<title>Node29&#45;&gt;Node35</title>
<path fill="none" stroke="midnightblue" d="M1787.14,-128.45C1800.68,-118.45 1816.73,-106.6 1828.94,-97.58"/>
<polygon fill="midnightblue" stroke="midnightblue" points="1785.06,-125.64 1779.09,-134.4 1789.22,-131.27 1785.06,-125.64"/>
</g>
<!-- Node32 -->
<g id="node24" class="node">
<title>Node32</title>
<g id="a_node24"><a xlink:href="net_2in6_2stream_2legacy_2_socket_server_8h.html" target="_top" xlink:title=" ">
<polygon fill="white" stroke="red" points="1611.5,-0.5 1611.5,-30.5 1734.5,-30.5 1734.5,-0.5 1611.5,-0.5"/>
<text text-anchor="start" x="1619.5" y="-18.5" font-family="Helvetica,sans-Serif" font-size="10.00">net/in6/stream/legacy</text>
<text text-anchor="middle" x="1673" y="-7.5" font-family="Helvetica,sans-Serif" font-size="10.00">/SocketServer.h</text>
</a>
</g>
</g>
<!-- Node31&#45;&gt;Node32 -->
<g id="edge23" class="edge">
<title>Node31&#45;&gt;Node32</title>
<path fill="none" stroke="midnightblue" d="M1673,-57.11C1673,-48.15 1673,-38.32 1673,-30.58"/>
<polygon fill="midnightblue" stroke="midnightblue" points="1669.5,-57.4 1673,-67.4 1676.5,-57.4 1669.5,-57.4"/>
</g>
<!-- Node36 -->
<g id="node26" class="node">
<title>Node36</title>
<g id="a_node26"><a xlink:href="net_2in6_2stream_2tls_2_socket_server_8h.html" target="_top" xlink:title=" ">
<polygon fill="white" stroke="red" points="1796.5,-0.5 1796.5,-30.5 1899.5,-30.5 1899.5,-0.5 1796.5,-0.5"/>
<text text-anchor="start" x="1804.5" y="-18.5" font-family="Helvetica,sans-Serif" font-size="10.00">net/in6/stream/tls</text>
<text text-anchor="middle" x="1848" y="-7.5" font-family="Helvetica,sans-Serif" font-size="10.00">/SocketServer.h</text>
</a>
</g>
</g>
<!-- Node35&#45;&gt;Node36 -->
<g id="edge25" class="edge">
<title>Node35&#45;&gt;Node36</title>
<path fill="none" stroke="midnightblue" d="M1848,-57.11C1848,-48.15 1848,-38.32 1848,-30.58"/>
<polygon fill="midnightblue" stroke="midnightblue" points="1844.5,-57.4 1848,-67.4 1851.5,-57.4 1844.5,-57.4"/>
</g>
<!-- Node40 -->
<g id="node28" class="node">
<title>Node40</title>
<g id="a_node28"><a xlink:href="l2_2stream_2config_2_config_client_socket_8cpp.html" target="_top" xlink:title=" ">
<polygon fill="white" stroke="black" points="1945,-67.5 1945,-97.5 2077,-97.5 2077,-67.5 1945,-67.5"/>
<text text-anchor="start" x="1953" y="-85.5" font-family="Helvetica,sans-Serif" font-size="10.00">net/l2/stream/config</text>
<text text-anchor="middle" x="2011" y="-74.5" font-family="Helvetica,sans-Serif" font-size="10.00">/ConfigClientSocket.cpp</text>
</a>
</g>
</g>
<!-- Node39&#45;&gt;Node40 -->
<g id="edge27" class="edge">
<title>Node39&#45;&gt;Node40</title>
<path fill="none" stroke="midnightblue" d="M2127.52,-130.54C2101.76,-120.14 2069.8,-107.24 2045.87,-97.58"/>
<polygon fill="midnightblue" stroke="midnightblue" points="2126.48,-133.9 2137.07,-134.4 2129.1,-127.41 2126.48,-133.9"/>
</g>
<!-- Node41 -->
<g id="node29" class="node">
<title>Node41</title>
<g id="a_node29"><a xlink:href="l2_2stream_2legacy_2config_2_config_socket_client_8h.html" target="_top" xlink:title=" ">
<polygon fill="white" stroke="red" points="2095,-67.5 2095,-97.5 2249,-97.5 2249,-67.5 2095,-67.5"/>
<text text-anchor="start" x="2103" y="-85.5" font-family="Helvetica,sans-Serif" font-size="10.00">net/l2/stream/legacy</text>
<text text-anchor="middle" x="2172" y="-74.5" font-family="Helvetica,sans-Serif" font-size="10.00">/config/ConfigSocketClient.h</text>
</a>
</g>
</g>
<!-- Node39&#45;&gt;Node41 -->
<g id="edge28" class="edge">
<title>Node39&#45;&gt;Node41</title>
<path fill="none" stroke="midnightblue" d="M2172,-124.11C2172,-115.15 2172,-105.32 2172,-97.58"/>
<polygon fill="midnightblue" stroke="midnightblue" points="2168.5,-124.4 2172,-134.4 2175.5,-124.4 2168.5,-124.4"/>
</g>
<!-- Node43 -->
<g id="node30" class="node">
<title>Node43</title>
<g id="a_node30"><a xlink:href="l2_2stream_2tls_2config_2_config_socket_client_8h.html" target="_top" xlink:title=" ">
<polygon fill="white" stroke="red" points="2267,-67.5 2267,-97.5 2397,-97.5 2397,-67.5 2267,-67.5"/>
<text text-anchor="start" x="2275" y="-85.5" font-family="Helvetica,sans-Serif" font-size="10.00">net/l2/stream/tls/config</text>
<text text-anchor="middle" x="2332" y="-74.5" font-family="Helvetica,sans-Serif" font-size="10.00">/ConfigSocketClient.h</text>
</a>
</g>
</g>
<!-- Node39&#45;&gt;Node43 -->
<g id="edge29" class="edge">
<title>Node39&#45;&gt;Node43</title>
<path fill="none" stroke="midnightblue" d="M2216.2,-130.54C2241.8,-120.14 2273.57,-107.24 2297.35,-97.58"/>
<polygon fill="midnightblue" stroke="midnightblue" points="2214.66,-127.39 2206.72,-134.4 2217.3,-133.87 2214.66,-127.39"/>
</g>
<!-- Node46 -->
<g id="node32" class="node">
<title>Node46</title>
<g id="a_node32"><a xlink:href="l2_2stream_2config_2_config_server_socket_8cpp.html" target="_top" xlink:title=" ">
<polygon fill="white" stroke="black" points="2415.5,-67.5 2415.5,-97.5 2550.5,-97.5 2550.5,-67.5 2415.5,-67.5"/>
<text text-anchor="start" x="2423.5" y="-85.5" font-family="Helvetica,sans-Serif" font-size="10.00">net/l2/stream/config</text>
<text text-anchor="middle" x="2483" y="-74.5" font-family="Helvetica,sans-Serif" font-size="10.00">/ConfigServerSocket.cpp</text>
</a>
</g>
</g>
<!-- Node45&#45;&gt;Node46 -->
<g id="edge31" class="edge">
<title>Node45&#45;&gt;Node46</title>
<path fill="none" stroke="midnightblue" d="M2539.35,-128.17C2526.81,-118.23 2512.03,-106.51 2500.76,-97.58"/>
<polygon fill="midnightblue" stroke="midnightblue" points="2537.2,-130.93 2547.21,-134.4 2541.54,-125.44 2537.2,-130.93"/>
</g>
<!-- Node47 -->
<g id="node33" class="node">
<title>Node47</title>
<g id="a_node33"><a xlink:href="l2_2stream_2legacy_2config_2_config_socket_server_8h.html" target="_top" xlink:title=" ">
<polygon fill="white" stroke="red" points="2568.5,-67.5 2568.5,-97.5 2725.5,-97.5 2725.5,-67.5 2568.5,-67.5"/>
<text text-anchor="start" x="2576.5" y="-85.5" font-family="Helvetica,sans-Serif" font-size="10.00">net/l2/stream/legacy</text>
<text text-anchor="middle" x="2647" y="-74.5" font-family="Helvetica,sans-Serif" font-size="10.00">/config/ConfigSocketServer.h</text>
</a>
</g>
</g>
<!-- Node45&#45;&gt;Node47 -->
<g id="edge32" class="edge">
<title>Node45&#45;&gt;Node47</title>
<path fill="none" stroke="midnightblue" d="M2590.65,-128.17C2603.19,-118.23 2617.97,-106.51 2629.24,-97.58"/>
<polygon fill="midnightblue" stroke="midnightblue" points="2588.46,-125.44 2582.79,-134.4 2592.8,-130.93 2588.46,-125.44"/>
</g>
<!-- Node49 -->
<g id="node34" class="node">
<title>Node49</title>
<g id="a_node34"><a xlink:href="l2_2stream_2tls_2config_2_config_socket_server_8h.html" target="_top" xlink:title=" ">
<polygon fill="white" stroke="red" points="2744,-67.5 2744,-97.5 2874,-97.5 2874,-67.5 2744,-67.5"/>
<text text-anchor="start" x="2752" y="-85.5" font-family="Helvetica,sans-Serif" font-size="10.00">net/l2/stream/tls/config</text>
<text text-anchor="middle" x="2809" y="-74.5" font-family="Helvetica,sans-Serif" font-size="10.00">/ConfigSocketServer.h</text>
</a>
</g>
</g>
<!-- Node45&#45;&gt;Node49 -->
<g id="edge33" class="edge">
<title>Node45&#45;&gt;Node49</title>
<path fill="none" stroke="midnightblue" d="M2627.5,-131.85C2667.28,-121.25 2718.24,-107.68 2756.03,-97.61"/>
<polygon fill="midnightblue" stroke="midnightblue" points="2626.41,-128.52 2617.64,-134.48 2628.21,-135.28 2626.41,-128.52"/>
</g>
<!-- Node52 -->
<g id="node36" class="node">
<title>Node52</title>
<g id="a_node36"><a xlink:href="rf_2stream_2config_2_config_client_socket_8cpp.html" target="_top" xlink:title=" ">
<polygon fill="white" stroke="black" points="2892,-67.5 2892,-97.5 3024,-97.5 3024,-67.5 2892,-67.5"/>
<text text-anchor="start" x="2900" y="-85.5" font-family="Helvetica,sans-Serif" font-size="10.00">net/rf/stream/config</text>
<text text-anchor="middle" x="2958" y="-74.5" font-family="Helvetica,sans-Serif" font-size="10.00">/ConfigClientSocket.cpp</text>
</a>
</g>
</g>
<!-- Node51&#45;&gt;Node52 -->
<g id="edge35" class="edge">
<title>Node51&#45;&gt;Node52</title>
<path fill="none" stroke="midnightblue" d="M3012.63,-127.88C3000.47,-118.01 2986.22,-106.43 2975.32,-97.58"/>
<polygon fill="midnightblue" stroke="midnightblue" points="3010.67,-130.81 3020.64,-134.4 3015.09,-125.37 3010.67,-130.81"/>
</g>
<!-- Node53 -->
<g id="node37" class="node">
<title>Node53</title>
<g id="a_node37"><a xlink:href="rf_2stream_2legacy_2config_2_config_socket_client_8h.html" target="_top" xlink:title=" ">
<polygon fill="white" stroke="red" points="3042,-67.5 3042,-97.5 3196,-97.5 3196,-67.5 3042,-67.5"/>
<text text-anchor="start" x="3050" y="-85.5" font-family="Helvetica,sans-Serif" font-size="10.00">net/rf/stream/legacy</text>
<text text-anchor="middle" x="3119" y="-74.5" font-family="Helvetica,sans-Serif" font-size="10.00">/config/ConfigSocketClient.h</text>
</a>
</g>
</g>
<!-- Node51&#45;&gt;Node53 -->
<g id="edge36" class="edge">
<title>Node51&#45;&gt;Node53</title>
<path fill="none" stroke="midnightblue" d="M3063.69,-127.88C3076,-118.01 3090.43,-106.43 3101.46,-97.58"/>
<polygon fill="midnightblue" stroke="midnightblue" points="3061.18,-125.41 3055.58,-134.4 3065.57,-130.87 3061.18,-125.41"/>
</g>
<!-- Node56 -->
<g id="node38" class="node">
<title>Node56</title>
<g id="a_node38"><a xlink:href="rf_2stream_2tls_2config_2_config_socket_client_8h.html" target="_top" xlink:title=" ">
<polygon fill="white" stroke="red" points="3214,-67.5 3214,-97.5 3342,-97.5 3342,-67.5 3214,-67.5"/>
<text text-anchor="start" x="3222" y="-85.5" font-family="Helvetica,sans-Serif" font-size="10.00">net/rf/stream/tls/config</text>
<text text-anchor="middle" x="3278" y="-74.5" font-family="Helvetica,sans-Serif" font-size="10.00">/ConfigSocketClient.h</text>
</a>
</g>
</g>
<!-- Node51&#45;&gt;Node56 -->
<g id="edge37" class="edge">
<title>Node51&#45;&gt;Node56</title>
<path fill="none" stroke="midnightblue" d="M3099.48,-131.85C3138.61,-121.25 3188.73,-107.68 3225.9,-97.61"/>
<polygon fill="midnightblue" stroke="midnightblue" points="3098.52,-128.48 3089.78,-134.48 3100.35,-135.24 3098.52,-128.48"/>
</g>
<!-- Node60 -->
<g id="node40" class="node">
<title>Node60</title>
<g id="a_node40"><a xlink:href="rf_2stream_2config_2_config_server_socket_8cpp.html" target="_top" xlink:title=" ">
<polygon fill="white" stroke="black" points="3360.5,-67.5 3360.5,-97.5 3495.5,-97.5 3495.5,-67.5 3360.5,-67.5"/>
<text text-anchor="start" x="3368.5" y="-85.5" font-family="Helvetica,sans-Serif" font-size="10.00">net/rf/stream/config</text>
<text text-anchor="middle" x="3428" y="-74.5" font-family="Helvetica,sans-Serif" font-size="10.00">/ConfigServerSocket.cpp</text>
</a>
</g>
</g>
<!-- Node59&#45;&gt;Node60 -->
<g id="edge39" class="edge">
<title>Node59&#45;&gt;Node60</title>
<path fill="none" stroke="midnightblue" d="M3484.35,-128.17C3471.81,-118.23 3457.03,-106.51 3445.76,-97.58"/>
<polygon fill="midnightblue" stroke="midnightblue" points="3482.2,-130.93 3492.21,-134.4 3486.54,-125.44 3482.2,-130.93"/>
</g>
<!-- Node61 -->
<g id="node41" class="node">
<title>Node61</title>
<g id="a_node41"><a xlink:href="rf_2stream_2legacy_2config_2_config_socket_server_8h.html" target="_top" xlink:title=" ">
<polygon fill="white" stroke="red" points="3513.5,-67.5 3513.5,-97.5 3670.5,-97.5 3670.5,-67.5 3513.5,-67.5"/>
<text text-anchor="start" x="3521.5" y="-85.5" font-family="Helvetica,sans-Serif" font-size="10.00">net/rf/stream/legacy</text>
<text text-anchor="middle" x="3592" y="-74.5" font-family="Helvetica,sans-Serif" font-size="10.00">/config/ConfigSocketServer.h</text>
</a>
</g>
</g>
<!-- Node59&#45;&gt;Node61 -->
<g id="edge40" class="edge">
<title>Node59&#45;&gt;Node61</title>
<path fill="none" stroke="midnightblue" d="M3535.65,-128.17C3548.19,-118.23 3562.97,-106.51 3574.24,-97.58"/>
<polygon fill="midnightblue" stroke="midnightblue" points="3533.46,-125.44 3527.79,-134.4 3537.8,-130.93 3533.46,-125.44"/>
</g>
<!-- Node65 -->
<g id="node42" class="node">
<title>Node65</title>
<g id="a_node42"><a xlink:href="rf_2stream_2tls_2config_2_config_socket_server_8h.html" target="_top" xlink:title=" ">
<polygon fill="white" stroke="red" points="3689,-67.5 3689,-97.5 3817,-97.5 3817,-67.5 3689,-67.5"/>
<text text-anchor="start" x="3697" y="-85.5" font-family="Helvetica,sans-Serif" font-size="10.00">net/rf/stream/tls/config</text>
<text text-anchor="middle" x="3753" y="-74.5" font-family="Helvetica,sans-Serif" font-size="10.00">/ConfigSocketServer.h</text>
</a>
</g>
</g>
<!-- Node59&#45;&gt;Node65 -->
<g id="edge41" class="edge">
<title>Node59&#45;&gt;Node65</title>
<path fill="none" stroke="midnightblue" d="M3572.25,-131.85C3611.86,-121.25 3662.61,-107.68 3700.25,-97.61"/>
<polygon fill="midnightblue" stroke="midnightblue" points="3571.18,-128.51 3562.43,-134.48 3572.99,-135.27 3571.18,-128.51"/>
</g>
<!-- Node70 -->
<g id="node44" class="node">
<title>Node70</title>
<g id="a_node44"><a xlink:href="un_2stream_2config_2_config_client_socket_8cpp.html" target="_top" xlink:title=" ">
<polygon fill="white" stroke="black" points="3835,-67.5 3835,-97.5 3967,-97.5 3967,-67.5 3835,-67.5"/>
<text text-anchor="start" x="3843" y="-85.5" font-family="Helvetica,sans-Serif" font-size="10.00">net/un/stream/config</text>
<text text-anchor="middle" x="3901" y="-74.5" font-family="Helvetica,sans-Serif" font-size="10.00">/ConfigClientSocket.cpp</text>
</a>
</g>
</g>
<!-- Node69&#45;&gt;Node70 -->
<g id="edge43" class="edge">
<title>Node69&#45;&gt;Node70</title>
<path fill="none" stroke="midnightblue" d="M3955.63,-127.88C3943.47,-118.01 3929.22,-106.43 3918.32,-97.58"/>
<polygon fill="midnightblue" stroke="midnightblue" points="3953.67,-130.81 3963.64,-134.4 3958.09,-125.37 3953.67,-130.81"/>
</g>
<!-- Node71 -->
<g id="node45" class="node">
<title>Node71</title>
<g id="a_node45"><a xlink:href="un_2stream_2legacy_2config_2_config_socket_client_8h.html" target="_top" xlink:title=" ">
<polygon fill="white" stroke="red" points="3985,-67.5 3985,-97.5 4139,-97.5 4139,-67.5 3985,-67.5"/>
<text text-anchor="start" x="3993" y="-85.5" font-family="Helvetica,sans-Serif" font-size="10.00">net/un/stream/legacy</text>
<text text-anchor="middle" x="4062" y="-74.5" font-family="Helvetica,sans-Serif" font-size="10.00">/config/ConfigSocketClient.h</text>
</a>
</g>
</g>
<!-- Node69&#45;&gt;Node71 -->
<g id="edge44" class="edge">
<title>Node69&#45;&gt;Node71</title>
<path fill="none" stroke="midnightblue" d="M4006.69,-127.88C4019,-118.01 4033.43,-106.43 4044.46,-97.58"/>
<polygon fill="midnightblue" stroke="midnightblue" points="4004.18,-125.41 3998.58,-134.4 4008.57,-130.87 4004.18,-125.41"/>
</g>
<!-- Node74 -->
<g id="node46" class="node">
<title>Node74</title>
<g id="a_node46"><a xlink:href="un_2stream_2tls_2config_2_config_socket_client_8h.html" target="_top" xlink:title=" ">
<polygon fill="white" stroke="red" points="4157.5,-67.5 4157.5,-97.5 4290.5,-97.5 4290.5,-67.5 4157.5,-67.5"/>
<text text-anchor="start" x="4165.5" y="-85.5" font-family="Helvetica,sans-Serif" font-size="10.00">net/un/stream/tls/config</text>
<text text-anchor="middle" x="4224" y="-74.5" font-family="Helvetica,sans-Serif" font-size="10.00">/ConfigSocketClient.h</text>
</a>
</g>
</g>
<!-- Node69&#45;&gt;Node74 -->
<g id="edge45" class="edge">
<title>Node69&#45;&gt;Node74</title>
<path fill="none" stroke="midnightblue" d="M4043.25,-131.85C4082.86,-121.25 4133.61,-107.68 4171.25,-97.61"/>
<polygon fill="midnightblue" stroke="midnightblue" points="4042.18,-128.51 4033.43,-134.48 4043.99,-135.27 4042.18,-128.51"/>
</g>
<!-- Node78 -->
<g id="node48" class="node">
<title>Node78</title>
<g id="a_node48"><a xlink:href="un_2stream_2config_2_config_server_socket_8cpp.html" target="_top" xlink:title=" ">
<polygon fill="white" stroke="black" points="4308.5,-67.5 4308.5,-97.5 4443.5,-97.5 4443.5,-67.5 4308.5,-67.5"/>
<text text-anchor="start" x="4316.5" y="-85.5" font-family="Helvetica,sans-Serif" font-size="10.00">net/un/stream/config</text>
<text text-anchor="middle" x="4376" y="-74.5" font-family="Helvetica,sans-Serif" font-size="10.00">/ConfigServerSocket.cpp</text>
</a>
</g>
</g>
<!-- Node77&#45;&gt;Node78 -->
<g id="edge47" class="edge">
<title>Node77&#45;&gt;Node78</title>
<path fill="none" stroke="midnightblue" d="M4432.35,-128.17C4419.81,-118.23 4405.03,-106.51 4393.76,-97.58"/>
<polygon fill="midnightblue" stroke="midnightblue" points="4430.2,-130.93 4440.21,-134.4 4434.54,-125.44 4430.2,-130.93"/>
</g>
<!-- Node79 -->
<g id="node49" class="node">
<title>Node79</title>
<g id="a_node49"><a xlink:href="un_2stream_2legacy_2config_2_config_socket_server_8h.html" target="_top" xlink:title=" ">
<polygon fill="white" stroke="red" points="4461.5,-67.5 4461.5,-97.5 4618.5,-97.5 4618.5,-67.5 4461.5,-67.5"/>
<text text-anchor="start" x="4469.5" y="-85.5" font-family="Helvetica,sans-Serif" font-size="10.00">net/un/stream/legacy</text>
<text text-anchor="middle" x="4540" y="-74.5" font-family="Helvetica,sans-Serif" font-size="10.00">/config/ConfigSocketServer.h</text>
</a>
</g>
</g>
<!-- Node77&#45;&gt;Node79 -->
<g id="edge48" class="edge">
<title>Node77&#45;&gt;Node79</title>
<path fill="none" stroke="midnightblue" d="M4483.65,-128.17C4496.19,-118.23 4510.97,-106.51 4522.24,-97.58"/>
<polygon fill="midnightblue" stroke="midnightblue" points="4481.46,-125.44 4475.79,-134.4 4485.8,-130.93 4481.46,-125.44"/>
</g>
<!-- Node83 -->
<g id="node50" class="node">
<title>Node83</title>
<g id="a_node50"><a xlink:href="un_2stream_2tls_2config_2_config_socket_server_8h.html" target="_top" xlink:title=" ">
<polygon fill="white" stroke="red" points="4636.5,-67.5 4636.5,-97.5 4769.5,-97.5 4769.5,-67.5 4636.5,-67.5"/>
<text text-anchor="start" x="4644.5" y="-85.5" font-family="Helvetica,sans-Serif" font-size="10.00">net/un/stream/tls/config</text>
<text text-anchor="middle" x="4703" y="-74.5" font-family="Helvetica,sans-Serif" font-size="10.00">/ConfigSocketServer.h</text>
</a>
</g>
</g>
<!-- Node77&#45;&gt;Node83 -->
<g id="edge49" class="edge">
<title>Node77&#45;&gt;Node83</title>
<path fill="none" stroke="midnightblue" d="M4520.76,-131.85C4560.7,-121.25 4611.87,-107.68 4649.81,-97.61"/>
<polygon fill="midnightblue" stroke="midnightblue" points="4519.63,-128.53 4510.86,-134.48 4521.42,-135.29 4519.63,-128.53"/>
</g>
</g>
</svg>
