<?xml version="1.0" encoding="UTF-8" standalone="no"?>
<!DOCTYPE svg PUBLIC "-//W3C//DTD SVG 1.1//EN"
 "http://www.w3.org/Graphics/SVG/1.1/DTD/svg11.dtd">
<!-- Generated by graphviz version 2.43.0 (0)
 -->
<!-- Title: web/http/CookieOptions.h Pages: 1 -->
<svg width="929pt" height="419pt"
 viewBox="0.00 0.00 929.00 419.00" xmlns="http://www.w3.org/2000/svg" xmlns:xlink="http://www.w3.org/1999/xlink">
<g id="graph0" class="graph" transform="scale(1 1) rotate(0) translate(4 415)">
<title>web/http/CookieOptions.h</title>
<polygon fill="white" stroke="transparent" points="-4,4 -4,-415 925,-415 925,4 -4,4"/>
<!-- Node1 -->
<g id="node1" class="node">
<title>Node1</title>
<g id="a_node1"><a xlink:title=" ">
<polygon fill="#bfbfbf" stroke="black" points="299,-391.5 299,-410.5 429,-410.5 429,-391.5 299,-391.5"/>
<text text-anchor="middle" x="364" y="-398.5" font-family="Helvetica,sans-Serif" font-size="10.00">web/http/CookieOptions.h</text>
</a>
</g>
</g>
<!-- Node2 -->
<g id="node2" class="node">
<title>Node2</title>
<g id="a_node2"><a xlink:href="_static_middleware_8h.html" target="_top" xlink:title=" ">
<polygon fill="white" stroke="black" points="384,-324.5 384,-354.5 488,-354.5 488,-324.5 384,-324.5"/>
<text text-anchor="start" x="392" y="-342.5" font-family="Helvetica,sans-Serif" font-size="10.00">express/middleware</text>
<text text-anchor="middle" x="436" y="-331.5" font-family="Helvetica,sans-Serif" font-size="10.00">/StaticMiddleware.h</text>
</a>
</g>
</g>
<!-- Node1&#45;&gt;Node2 -->
<g id="edge1" class="edge">
<title>Node1&#45;&gt;Node2</title>
<path fill="none" stroke="midnightblue" d="M382.25,-384.92C393.55,-375.58 407.97,-363.66 419.03,-354.52"/>
<polygon fill="midnightblue" stroke="midnightblue" points="379.79,-382.41 374.32,-391.48 384.25,-387.8 379.79,-382.41"/>
</g>
<!-- Node4 -->
<g id="node4" class="node">
<title>Node4</title>
<g id="a_node4"><a xlink:href="web_2http_2client_2_response_8cpp.html" target="_top" xlink:title=" ">
<polygon fill="white" stroke="black" points="220,-330 220,-349 366,-349 366,-330 220,-330"/>
<text text-anchor="middle" x="293" y="-337" font-family="Helvetica,sans-Serif" font-size="10.00">web/http/client/Response.cpp</text>
</a>
</g>
</g>
<!-- Node1&#45;&gt;Node4 -->
<g id="edge3" class="edge">
<title>Node1&#45;&gt;Node4</title>
<path fill="none" stroke="midnightblue" d="M346.07,-384.97C332.49,-373.59 314.32,-358.37 303.15,-349.01"/>
<polygon fill="midnightblue" stroke="midnightblue" points="343.91,-387.73 353.83,-391.48 348.41,-382.37 343.91,-387.73"/>
</g>
<!-- Node5 -->
<g id="node5" class="node">
<title>Node5</title>
<g id="a_node5"><a xlink:href="_response_parser_8h.html" target="_top" xlink:title=" ">
<polygon fill="white" stroke="black" points="74,-324.5 74,-354.5 202,-354.5 202,-324.5 74,-324.5"/>
<text text-anchor="start" x="82" y="-342.5" font-family="Helvetica,sans-Serif" font-size="10.00">web/http/client/Response</text>
<text text-anchor="middle" x="138" y="-331.5" font-family="Helvetica,sans-Serif" font-size="10.00">Parser.h</text>
</a>
</g>
</g>
<!-- Node1&#45;&gt;Node5 -->
<g id="edge4" class="edge">
<title>Node1&#45;&gt;Node5</title>
<path fill="none" stroke="midnightblue" d="M321.68,-388.86C284.78,-379.14 231.08,-365.01 191.26,-354.52"/>
<polygon fill="midnightblue" stroke="midnightblue" points="321.06,-392.31 331.62,-391.48 322.84,-385.54 321.06,-392.31"/>
</g>
<!-- Node13 -->
<g id="node13" class="node">
<title>Node13</title>
<g id="a_node13"><a xlink:href="web_2http_2server_2_response_8h.html" target="_top" xlink:title=" ">
<polygon fill="white" stroke="black" points="517,-330 517,-349 657,-349 657,-330 517,-330"/>
<text text-anchor="middle" x="587" y="-337" font-family="Helvetica,sans-Serif" font-size="10.00">web/http/server/Response.h</text>
</a>
</g>
</g>
<!-- Node1&#45;&gt;Node13 -->
<g id="edge12" class="edge">
<title>Node1&#45;&gt;Node13</title>
<path fill="none" stroke="midnightblue" d="M405.62,-388.9C448.93,-377.34 515.81,-359.5 555.11,-349.01"/>
<polygon fill="midnightblue" stroke="midnightblue" points="404.71,-385.52 395.95,-391.48 406.51,-392.28 404.71,-385.52"/>
</g>
<!-- Node3 -->
<g id="node3" class="node">
<title>Node3</title>
<g id="a_node3"><a xlink:href="_static_middleware_8cpp.html" target="_top" xlink:title=" ">
<polygon fill="white" stroke="black" points="332.5,-190.5 332.5,-220.5 445.5,-220.5 445.5,-190.5 332.5,-190.5"/>
<text text-anchor="start" x="340.5" y="-208.5" font-family="Helvetica,sans-Serif" font-size="10.00">express/middleware</text>
<text text-anchor="middle" x="389" y="-197.5" font-family="Helvetica,sans-Serif" font-size="10.00">/StaticMiddleware.cpp</text>
</a>
</g>
</g>
<!-- Node2&#45;&gt;Node3 -->
<g id="edge2" class="edge">
<title>Node2&#45;&gt;Node3</title>
<path fill="none" stroke="midnightblue" d="M427.54,-314.75C417.77,-287.29 401.99,-242.99 393.99,-220.52"/>
<polygon fill="midnightblue" stroke="midnightblue" points="424.32,-316.13 430.97,-324.37 430.91,-313.78 424.32,-316.13"/>
</g>
<!-- Node6 -->
<g id="node6" class="node">
<title>Node6</title>
<g id="a_node6"><a xlink:href="_response_parser_8cpp.html" target="_top" xlink:title=" ">
<polygon fill="white" stroke="black" points="213,-257.5 213,-287.5 341,-287.5 341,-257.5 213,-257.5"/>
<text text-anchor="start" x="221" y="-275.5" font-family="Helvetica,sans-Serif" font-size="10.00">web/http/client/Response</text>
<text text-anchor="middle" x="277" y="-264.5" font-family="Helvetica,sans-Serif" font-size="10.00">Parser.cpp</text>
</a>
</g>
</g>
<!-- Node5&#45;&gt;Node6 -->
<g id="edge5" class="edge">
<title>Node5&#45;&gt;Node6</title>
<path fill="none" stroke="midnightblue" d="M177.28,-320.13C199.37,-309.8 226.51,-297.11 246.9,-287.58"/>
<polygon fill="midnightblue" stroke="midnightblue" points="175.74,-316.99 168.16,-324.4 178.7,-323.33 175.74,-316.99"/>
</g>
<!-- Node7 -->
<g id="node7" class="node">
<title>Node7</title>
<g id="a_node7"><a xlink:href="web_2http_2client_2_socket_context_8h.html" target="_top" xlink:title=" ">
<polygon fill="white" stroke="black" points="37.5,-263 37.5,-282 194.5,-282 194.5,-263 37.5,-263"/>
<text text-anchor="middle" x="116" y="-270" font-family="Helvetica,sans-Serif" font-size="10.00">web/http/client/SocketContext.h</text>
</a>
</g>
</g>
<!-- Node5&#45;&gt;Node7 -->
<g id="edge6" class="edge">
<title>Node5&#45;&gt;Node7</title>
<path fill="none" stroke="midnightblue" d="M129.91,-314.6C126.08,-303.28 121.74,-290.46 118.94,-282.19"/>
<polygon fill="midnightblue" stroke="midnightblue" points="126.71,-316.05 133.23,-324.4 133.34,-313.8 126.71,-316.05"/>
</g>
<!-- Node8 -->
<g id="node8" class="node">
<title>Node8</title>
<g id="a_node8"><a xlink:href="client_2_socket_context_8hpp.html" target="_top" xlink:title=" ">
<polygon fill="white" stroke="black" points="32.5,-196 32.5,-215 199.5,-215 199.5,-196 32.5,-196"/>
<text text-anchor="middle" x="116" y="-203" font-family="Helvetica,sans-Serif" font-size="10.00">web/http/client/SocketContext.hpp</text>
</a>
</g>
</g>
<!-- Node7&#45;&gt;Node8 -->
<g id="edge7" class="edge">
<title>Node7&#45;&gt;Node8</title>
<path fill="none" stroke="midnightblue" d="M116,-252.54C116,-240.17 116,-224.62 116,-215.13"/>
<polygon fill="midnightblue" stroke="midnightblue" points="112.5,-252.73 116,-262.73 119.5,-252.73 112.5,-252.73"/>
</g>
<!-- Node9 -->
<g id="node9" class="node">
<title>Node9</title>
<g id="a_node9"><a xlink:href="web_2http_2client_2_socket_context_factory_8h.html" target="_top" xlink:title=" ">
<polygon fill="white" stroke="black" points="41.5,-123.5 41.5,-153.5 190.5,-153.5 190.5,-123.5 41.5,-123.5"/>
<text text-anchor="start" x="49.5" y="-141.5" font-family="Helvetica,sans-Serif" font-size="10.00">web/http/client/SocketContext</text>
<text text-anchor="middle" x="116" y="-130.5" font-family="Helvetica,sans-Serif" font-size="10.00">Factory.h</text>
</a>
</g>
</g>
<!-- Node8&#45;&gt;Node9 -->
<g id="edge8" class="edge">
<title>Node8&#45;&gt;Node9</title>
<path fill="none" stroke="midnightblue" d="M116,-185.41C116,-175.22 116,-162.9 116,-153.59"/>
<polygon fill="midnightblue" stroke="midnightblue" points="112.5,-185.73 116,-195.73 119.5,-185.73 112.5,-185.73"/>
</g>
<!-- Node10 -->
<g id="node10" class="node">
<title>Node10</title>
<g id="a_node10"><a xlink:href="_client_8h.html" target="_top" xlink:title=" ">
<polygon fill="white" stroke="black" points="57.5,-67.5 57.5,-86.5 174.5,-86.5 174.5,-67.5 57.5,-67.5"/>
<text text-anchor="middle" x="116" y="-74.5" font-family="Helvetica,sans-Serif" font-size="10.00">web/http/client/Client.h</text>
</a>
</g>
</g>
<!-- Node9&#45;&gt;Node10 -->
<g id="edge9" class="edge">
<title>Node9&#45;&gt;Node10</title>
<path fill="none" stroke="midnightblue" d="M116,-113.29C116,-103.86 116,-93.65 116,-86.66"/>
<polygon fill="midnightblue" stroke="midnightblue" points="112.5,-113.4 116,-123.4 119.5,-113.4 112.5,-113.4"/>
</g>
<!-- Node11 -->
<g id="node11" class="node">
<title>Node11</title>
<g id="a_node11"><a xlink:href="legacy_2_client_8h.html" target="_top" xlink:title=" ">
<polygon fill="white" stroke="black" points="0,-0.5 0,-30.5 112,-30.5 112,-0.5 0,-0.5"/>
<text text-anchor="start" x="8" y="-18.5" font-family="Helvetica,sans-Serif" font-size="10.00">web/http/client/legacy</text>
<text text-anchor="middle" x="56" y="-7.5" font-family="Helvetica,sans-Serif" font-size="10.00">/Client.h</text>
</a>
</g>
</g>
<!-- Node10&#45;&gt;Node11 -->
<g id="edge10" class="edge">
<title>Node10&#45;&gt;Node11</title>
<path fill="none" stroke="midnightblue" d="M100.24,-60.37C90.9,-51.11 79.18,-39.48 70.14,-30.52"/>
<polygon fill="midnightblue" stroke="midnightblue" points="97.84,-62.92 107.4,-67.48 102.77,-57.95 97.84,-62.92"/>
</g>
<!-- Node12 -->
<g id="node12" class="node">
<title>Node12</title>
<g id="a_node12"><a xlink:href="tls_2_client_8h.html" target="_top" xlink:title=" ">
<polygon fill="white" stroke="black" points="130,-0.5 130,-30.5 224,-30.5 224,-0.5 130,-0.5"/>
<text text-anchor="start" x="138" y="-18.5" font-family="Helvetica,sans-Serif" font-size="10.00">web/http/client/tls</text>
<text text-anchor="middle" x="177" y="-7.5" font-family="Helvetica,sans-Serif" font-size="10.00">/Client.h</text>
</a>
</g>
</g>
<!-- Node10&#45;&gt;Node12 -->
<g id="edge11" class="edge">
<title>Node10&#45;&gt;Node12</title>
<path fill="none" stroke="midnightblue" d="M132.03,-60.37C141.51,-51.11 153.44,-39.48 162.62,-30.52"/>
<polygon fill="midnightblue" stroke="midnightblue" points="129.45,-57.99 124.74,-67.48 134.34,-63 129.45,-57.99"/>
</g>
<!-- Node14 -->
<g id="node14" class="node">
<title>Node14</title>
<g id="a_node14"><a xlink:href="express_2_response_8h.html" target="_top" xlink:title=" ">
<polygon fill="white" stroke="black" points="455.5,-263 455.5,-282 562.5,-282 562.5,-263 455.5,-263"/>
<text text-anchor="middle" x="509" y="-270" font-family="Helvetica,sans-Serif" font-size="10.00">express/Response.h</text>
</a>
</g>
</g>
<!-- Node13&#45;&gt;Node14 -->
<g id="edge13" class="edge">
<title>Node13&#45;&gt;Node14</title>
<path fill="none" stroke="midnightblue" d="M568.66,-323.21C553.29,-310.41 531.91,-292.59 519.35,-282.13"/>
<polygon fill="midnightblue" stroke="midnightblue" points="566.56,-326.02 576.48,-329.73 571.04,-320.64 566.56,-326.02"/>
</g>
<!-- Node19 -->
<g id="node19" class="node">
<title>Node19</title>
<g id="a_node19"><a xlink:href="web_2http_2server_2_response_8cpp.html" target="_top" xlink:title=" ">
<polygon fill="white" stroke="black" points="581,-263 581,-282 731,-282 731,-263 581,-263"/>
<text text-anchor="middle" x="656" y="-270" font-family="Helvetica,sans-Serif" font-size="10.00">web/http/server/Response.cpp</text>
</a>
</g>
</g>
<!-- Node13&#45;&gt;Node19 -->
<g id="edge19" class="edge">
<title>Node13&#45;&gt;Node19</title>
<path fill="none" stroke="midnightblue" d="M603.61,-322.86C617.17,-310.08 635.84,-292.49 646.84,-282.13"/>
<polygon fill="midnightblue" stroke="midnightblue" points="601.18,-320.33 596.31,-329.73 605.98,-325.42 601.18,-320.33"/>
</g>
<!-- Node20 -->
<g id="node20" class="node">
<title>Node20</title>
<g id="a_node20"><a xlink:href="websocket_2server_2_socket_context_upgrade_factory_8cpp.html" target="_top" xlink:title=" ">
<polygon fill="white" stroke="black" points="749,-257.5 749,-287.5 921,-287.5 921,-257.5 749,-257.5"/>
<text text-anchor="start" x="757" y="-275.5" font-family="Helvetica,sans-Serif" font-size="10.00">web/websocket/server</text>
<text text-anchor="middle" x="835" y="-264.5" font-family="Helvetica,sans-Serif" font-size="10.00">/SocketContextUpgradeFactory.cpp</text>
</a>
</g>
</g>
<!-- Node13&#45;&gt;Node20 -->
<g id="edge20" class="edge">
<title>Node13&#45;&gt;Node20</title>
<path fill="none" stroke="midnightblue" d="M629.59,-327.34C671.58,-316.33 735.9,-299.47 781.36,-287.56"/>
<polygon fill="midnightblue" stroke="midnightblue" points="628.46,-324.01 619.68,-329.94 630.24,-330.79 628.46,-324.01"/>
</g>
<!-- Node14&#45;&gt;Node3 -->
<g id="edge14" class="edge">
<title>Node14&#45;&gt;Node3</title>
<path fill="none" stroke="midnightblue" d="M483.9,-257.9C463.71,-246.97 435.44,-231.65 415.01,-220.59"/>
<polygon fill="midnightblue" stroke="midnightblue" points="482.36,-261.05 492.82,-262.73 485.69,-254.89 482.36,-261.05"/>
</g>
<!-- Node15 -->
<g id="node15" class="node">
<title>Node15</title>
<g id="a_node15"><a xlink:href="express_2_response_8cpp.html" target="_top" xlink:title=" ">
<polygon fill="white" stroke="black" points="463.5,-196 463.5,-215 580.5,-215 580.5,-196 463.5,-196"/>
<text text-anchor="middle" x="522" y="-203" font-family="Helvetica,sans-Serif" font-size="10.00">express/Response.cpp</text>
</a>
</g>
</g>
<!-- Node14&#45;&gt;Node15 -->
<g id="edge15" class="edge">
<title>Node14&#45;&gt;Node15</title>
<path fill="none" stroke="midnightblue" d="M512.72,-252.91C515.2,-240.49 518.36,-224.72 520.27,-215.13"/>
<polygon fill="midnightblue" stroke="midnightblue" points="509.28,-252.24 510.75,-262.73 516.15,-253.61 509.28,-252.24"/>
</g>
<!-- Node16 -->
<g id="node16" class="node">
<title>Node16</title>
<g id="a_node16"><a xlink:href="_web_app_t_8h.html" target="_top" xlink:title=" ">
<polygon fill="white" stroke="black" points="599,-196 599,-215 703,-215 703,-196 599,-196"/>
<text text-anchor="middle" x="651" y="-203" font-family="Helvetica,sans-Serif" font-size="10.00">express/WebAppT.h</text>
</a>
</g>
</g>
<!-- Node14&#45;&gt;Node16 -->
<g id="edge16" class="edge">
<title>Node14&#45;&gt;Node16</title>
<path fill="none" stroke="midnightblue" d="M537.15,-258.61C565.28,-245.74 607.73,-226.31 632.07,-215.17"/>
<polygon fill="midnightblue" stroke="midnightblue" points="535.49,-255.52 527.86,-262.87 538.41,-261.89 535.49,-255.52"/>
</g>
<!-- Node17 -->
<g id="node17" class="node">
<title>Node17</title>
<g id="a_node17"><a xlink:href="legacy_2_web_app_8h.html" target="_top" xlink:title=" ">
<polygon fill="white" stroke="black" points="655.5,-129 655.5,-148 786.5,-148 786.5,-129 655.5,-129"/>
<text text-anchor="middle" x="721" y="-136" font-family="Helvetica,sans-Serif" font-size="10.00">express/legacy/WebApp.h</text>
</a>
</g>
</g>
<!-- Node16&#45;&gt;Node17 -->
<g id="edge17" class="edge">
<title>Node16&#45;&gt;Node17</title>
<path fill="none" stroke="midnightblue" d="M667.85,-188.86C681.61,-176.08 700.55,-158.49 711.71,-148.13"/>
<polygon fill="midnightblue" stroke="midnightblue" points="665.39,-186.36 660.44,-195.73 670.15,-191.49 665.39,-186.36"/>
</g>
<!-- Node18 -->
<g id="node18" class="node">
<title>Node18</title>
<g id="a_node18"><a xlink:href="tls_2_web_app_8h.html" target="_top" xlink:title=" ">
<polygon fill="white" stroke="black" points="524.5,-129 524.5,-148 637.5,-148 637.5,-129 524.5,-129"/>
<text text-anchor="middle" x="581" y="-136" font-family="Helvetica,sans-Serif" font-size="10.00">express/tls/WebApp.h</text>
</a>
</g>
</g>
<!-- Node16&#45;&gt;Node18 -->
<g id="edge18" class="edge">
<title>Node16&#45;&gt;Node18</title>
<path fill="none" stroke="midnightblue" d="M634.15,-188.86C620.39,-176.08 601.45,-158.49 590.29,-148.13"/>
<polygon fill="midnightblue" stroke="midnightblue" points="631.85,-191.49 641.56,-195.73 636.61,-186.36 631.85,-191.49"/>
</g>
</g>
</svg>
