<?xml version="1.0" encoding="UTF-8" standalone="no"?>
<!DOCTYPE svg PUBLIC "-//W3C//DTD SVG 1.1//EN"
 "http://www.w3.org/Graphics/SVG/1.1/DTD/svg11.dtd">
<!-- Generated by graphviz version 2.43.0 (0)
 -->
<!-- Title: database/mariadb/MariaDBCommandSequence.h Pages: 1 -->
<svg width="384pt" height="106pt"
 viewBox="0.00 0.00 384.00 106.00" xmlns="http://www.w3.org/2000/svg" xmlns:xlink="http://www.w3.org/1999/xlink">
<g id="graph0" class="graph" transform="scale(1 1) rotate(0) translate(4 102)">
<title>database/mariadb/MariaDBCommandSequence.h</title>
<polygon fill="white" stroke="transparent" points="-4,4 -4,-102 380,-102 380,4 -4,4"/>
<!-- Node1 -->
<g id="node1" class="node">
<title>Node1</title>
<g id="a_node1"><a xlink:title=" ">
<polygon fill="#bfbfbf" stroke="black" points="87.5,-67.5 87.5,-97.5 287.5,-97.5 287.5,-67.5 87.5,-67.5"/>
<text text-anchor="start" x="95.5" y="-85.5" font-family="Helvetica,sans-Serif" font-size="10.00">database/mariadb/MariaDBCommand</text>
<text text-anchor="middle" x="187.5" y="-74.5" font-family="Helvetica,sans-Serif" font-size="10.00">Sequence.h</text>
</a>
</g>
</g>
<!-- Node2 -->
<g id="node2" class="node">
<title>Node2</title>
<g id="a_node2"><a xlink:href="_maria_d_b_client_a_sync_a_p_i_8h.html" target="_top" xlink:title=" ">
<polygon fill="white" stroke="black" points="0,-0.5 0,-30.5 179,-30.5 179,-0.5 0,-0.5"/>
<text text-anchor="start" x="8" y="-18.5" font-family="Helvetica,sans-Serif" font-size="10.00">database/mariadb/MariaDBClient</text>
<text text-anchor="middle" x="89.5" y="-7.5" font-family="Helvetica,sans-Serif" font-size="10.00">ASyncAPI.h</text>
</a>
</g>
</g>
<!-- Node1&#45;&gt;Node2 -->
<g id="edge1" class="edge">
<title>Node1&#45;&gt;Node2</title>
<path fill="none" stroke="midnightblue" d="M166.24,-67.4C152.49,-58.28 134.41,-46.29 119.26,-36.24"/>
<polygon fill="midnightblue" stroke="midnightblue" points="120.99,-33.19 110.72,-30.58 117.12,-39.02 120.99,-33.19"/>
</g>
<!-- Node3 -->
<g id="node3" class="node">
<title>Node3</title>
<g id="a_node3"><a xlink:href="_maria_d_b_client_sync_a_p_i_8h.html" target="_top" xlink:title=" ">
<polygon fill="white" stroke="black" points="197,-0.5 197,-30.5 376,-30.5 376,-0.5 197,-0.5"/>
<text text-anchor="start" x="205" y="-18.5" font-family="Helvetica,sans-Serif" font-size="10.00">database/mariadb/MariaDBClient</text>
<text text-anchor="middle" x="286.5" y="-7.5" font-family="Helvetica,sans-Serif" font-size="10.00">SyncAPI.h</text>
</a>
</g>
</g>
<!-- Node1&#45;&gt;Node3 -->
<g id="edge2" class="edge">
<title>Node1&#45;&gt;Node3</title>
<path fill="none" stroke="midnightblue" d="M208.98,-67.4C222.86,-58.28 241.13,-46.29 256.44,-36.24"/>
<polygon fill="midnightblue" stroke="midnightblue" points="258.62,-38.99 265.06,-30.58 254.78,-33.14 258.62,-38.99"/>
</g>
</g>
</svg>
