<?xml version="1.0" encoding="UTF-8" standalone="no"?>
<!DOCTYPE svg PUBLIC "-//W3C//DTD SVG 1.1//EN"
 "http://www.w3.org/Graphics/SVG/1.1/DTD/svg11.dtd">
<!-- Generated by graphviz version 2.43.0 (0)
 -->
<!-- Title: database/mariadb/MariaDBConnectionDetails.h Pages: 1 -->
<svg width="671pt" height="173pt"
 viewBox="0.00 0.00 671.00 173.00" xmlns="http://www.w3.org/2000/svg" xmlns:xlink="http://www.w3.org/1999/xlink">
<g id="graph0" class="graph" transform="scale(1 1) rotate(0) translate(4 169)">
<title>database/mariadb/MariaDBConnectionDetails.h</title>
<polygon fill="white" stroke="transparent" points="-4,4 -4,-169 667,-169 667,4 -4,4"/>
<!-- Node1 -->
<g id="node1" class="node">
<title>Node1</title>
<g id="a_node1"><a xlink:title=" ">
<polygon fill="#bfbfbf" stroke="black" points="231,-134.5 231,-164.5 436,-164.5 436,-134.5 231,-134.5"/>
<text text-anchor="start" x="239" y="-152.5" font-family="Helvetica,sans-Serif" font-size="10.00">database/mariadb/MariaDBConnection</text>
<text text-anchor="middle" x="333.5" y="-141.5" font-family="Helvetica,sans-Serif" font-size="10.00">Details.h</text>
</a>
</g>
</g>
<!-- Node2 -->
<g id="node2" class="node">
<title>Node2</title>
<g id="a_node2"><a xlink:href="_maria_d_b_connect_command_8h.html" target="_top" xlink:title=" ">
<polygon fill="white" stroke="black" points="133.5,-67.5 133.5,-97.5 325.5,-97.5 325.5,-67.5 133.5,-67.5"/>
<text text-anchor="start" x="141.5" y="-85.5" font-family="Helvetica,sans-Serif" font-size="10.00">database/mariadb/commands</text>
<text text-anchor="middle" x="229.5" y="-74.5" font-family="Helvetica,sans-Serif" font-size="10.00">/async/MariaDBConnectCommand.h</text>
</a>
</g>
</g>
<!-- Node1&#45;&gt;Node2 -->
<g id="edge1" class="edge">
<title>Node1&#45;&gt;Node2</title>
<path fill="none" stroke="midnightblue" d="M302.32,-129.02C286.14,-118.9 266.73,-106.77 252.02,-97.58"/>
<polygon fill="midnightblue" stroke="midnightblue" points="300.6,-132.06 310.93,-134.4 304.31,-126.13 300.6,-132.06"/>
</g>
<!-- Node5 -->
<g id="node5" class="node">
<title>Node5</title>
<g id="a_node5"><a xlink:href="_maria_d_b_client_8h.html" target="_top" xlink:title=" ">
<polygon fill="white" stroke="black" points="343.5,-73 343.5,-92 531.5,-92 531.5,-73 343.5,-73"/>
<text text-anchor="middle" x="437.5" y="-80" font-family="Helvetica,sans-Serif" font-size="10.00">database/mariadb/MariaDBClient.h</text>
</a>
</g>
</g>
<!-- Node1&#45;&gt;Node5 -->
<g id="edge4" class="edge">
<title>Node1&#45;&gt;Node5</title>
<path fill="none" stroke="midnightblue" d="M364.74,-128.97C384.46,-116.65 408.95,-101.35 423.89,-92.01"/>
<polygon fill="midnightblue" stroke="midnightblue" points="362.69,-126.13 356.07,-134.4 366.4,-132.06 362.69,-126.13"/>
</g>
<!-- Node3 -->
<g id="node3" class="node">
<title>Node3</title>
<g id="a_node3"><a xlink:href="_maria_d_b_connect_command_8cpp.html" target="_top" xlink:title=" ">
<polygon fill="white" stroke="black" points="0,-0.5 0,-30.5 203,-30.5 203,-0.5 0,-0.5"/>
<text text-anchor="start" x="8" y="-18.5" font-family="Helvetica,sans-Serif" font-size="10.00">database/mariadb/commands</text>
<text text-anchor="middle" x="101.5" y="-7.5" font-family="Helvetica,sans-Serif" font-size="10.00">/async/MariaDBConnectCommand.cpp</text>
</a>
</g>
</g>
<!-- Node2&#45;&gt;Node3 -->
<g id="edge2" class="edge">
<title>Node2&#45;&gt;Node3</title>
<path fill="none" stroke="midnightblue" d="M192.78,-62.85C172.54,-52.58 147.83,-40.03 129.22,-30.58"/>
<polygon fill="midnightblue" stroke="midnightblue" points="191.22,-65.99 201.73,-67.4 194.39,-59.75 191.22,-65.99"/>
</g>
<!-- Node4 -->
<g id="node4" class="node">
<title>Node4</title>
<g id="a_node4"><a xlink:href="_maria_d_b_connection_8cpp.html" target="_top" xlink:title=" ">
<polygon fill="white" stroke="black" points="221,-6 221,-25 446,-25 446,-6 221,-6"/>
<text text-anchor="middle" x="333.5" y="-13" font-family="Helvetica,sans-Serif" font-size="10.00">database/mariadb/MariaDBConnection.cpp</text>
</a>
</g>
</g>
<!-- Node2&#45;&gt;Node4 -->
<g id="edge3" class="edge">
<title>Node2&#45;&gt;Node4</title>
<path fill="none" stroke="midnightblue" d="M260.74,-61.97C280.46,-49.65 304.95,-34.35 319.89,-25.01"/>
<polygon fill="midnightblue" stroke="midnightblue" points="258.69,-59.13 252.07,-67.4 262.4,-65.06 258.69,-59.13"/>
</g>
<!-- Node5&#45;&gt;Node4 -->
<g id="edge6" class="edge">
<title>Node5&#45;&gt;Node4</title>
<path fill="none" stroke="midnightblue" d="M414.73,-67.27C394.14,-54.4 364.51,-35.88 347.3,-25.13"/>
<polygon fill="midnightblue" stroke="midnightblue" points="413.14,-70.4 423.47,-72.73 416.85,-64.47 413.14,-70.4"/>
</g>
<!-- Node6 -->
<g id="node6" class="node">
<title>Node6</title>
<g id="a_node6"><a xlink:href="_maria_d_b_client_8cpp.html" target="_top" xlink:title=" ">
<polygon fill="white" stroke="black" points="464,-6 464,-25 663,-25 663,-6 464,-6"/>
<text text-anchor="middle" x="563.5" y="-13" font-family="Helvetica,sans-Serif" font-size="10.00">database/mariadb/MariaDBClient.cpp</text>
</a>
</g>
</g>
<!-- Node5&#45;&gt;Node6 -->
<g id="edge5" class="edge">
<title>Node5&#45;&gt;Node6</title>
<path fill="none" stroke="midnightblue" d="M463.14,-68.27C488.09,-55.4 525.3,-36.21 546.7,-25.17"/>
<polygon fill="midnightblue" stroke="midnightblue" points="461.51,-65.17 454.23,-72.87 464.72,-71.39 461.51,-65.17"/>
</g>
</g>
</svg>
