<?xml version="1.0" encoding="UTF-8" standalone="no"?>
<!DOCTYPE svg PUBLIC "-//W3C//DTD SVG 1.1//EN"
 "http://www.w3.org/Graphics/SVG/1.1/DTD/svg11.dtd">
<!-- Generated by graphviz version 2.43.0 (0)
 -->
<!-- Title: core/pipe/PipeSink.cpp Pages: 1 -->
<svg width="273pt" height="319pt"
 viewBox="0.00 0.00 273.00 319.00" xmlns="http://www.w3.org/2000/svg" xmlns:xlink="http://www.w3.org/1999/xlink">
<g id="graph0" class="graph" transform="scale(1 1) rotate(0) translate(4 315)">
<title>core/pipe/PipeSink.cpp</title>
<polygon fill="white" stroke="transparent" points="-4,4 -4,-315 269,-315 269,4 -4,4"/>
<!-- Node1 -->
<g id="node1" class="node">
<title>Node1</title>
<g id="a_node1"><a xlink:title=" ">
<polygon fill="#bfbfbf" stroke="black" points="51.5,-291.5 51.5,-310.5 178.5,-310.5 178.5,-291.5 51.5,-291.5"/>
<text text-anchor="middle" x="115" y="-298.5" font-family="Helvetica,sans-Serif" font-size="10.00">core/pipe/PipeSink.cpp</text>
</a>
</g>
</g>
<!-- Node2 -->
<g id="node2" class="node">
<title>Node2</title>
<g id="a_node2"><a xlink:href="_pipe_sink_8h.html" target="_top" xlink:title=" ">
<polygon fill="white" stroke="black" points="57,-235.5 57,-254.5 173,-254.5 173,-235.5 57,-235.5"/>
<text text-anchor="middle" x="115" y="-242.5" font-family="Helvetica,sans-Serif" font-size="10.00">core/pipe/PipeSink.h</text>
</a>
</g>
</g>
<!-- Node1&#45;&gt;Node2 -->
<g id="edge1" class="edge">
<title>Node1&#45;&gt;Node2</title>
<path fill="none" stroke="midnightblue" d="M115,-291.08C115,-284.01 115,-273.86 115,-264.99"/>
<polygon fill="midnightblue" stroke="midnightblue" points="118.5,-264.75 115,-254.75 111.5,-264.75 118.5,-264.75"/>
</g>
<!-- Node3 -->
<g id="node3" class="node">
<title>Node3</title>
<g id="a_node3"><a xlink:href="_descriptor_8h.html" target="_top" xlink:title=" ">
<polygon fill="white" stroke="black" points="0,-174 0,-193 100,-193 100,-174 0,-174"/>
<text text-anchor="middle" x="50" y="-181" font-family="Helvetica,sans-Serif" font-size="10.00">core/Descriptor.h</text>
</a>
</g>
</g>
<!-- Node2&#45;&gt;Node3 -->
<g id="edge2" class="edge">
<title>Node2&#45;&gt;Node3</title>
<path fill="none" stroke="midnightblue" d="M105.69,-235.48C95.55,-226.2 79.14,-211.17 66.75,-199.83"/>
<polygon fill="midnightblue" stroke="midnightblue" points="69.04,-197.18 59.3,-193.01 64.31,-202.34 69.04,-197.18"/>
</g>
<!-- Node4 -->
<g id="node4" class="node">
<title>Node4</title>
<g id="a_node4"><a xlink:href="_read_event_receiver_8h.html" target="_top" xlink:title=" ">
<polygon fill="white" stroke="black" points="118,-168.5 118,-198.5 242,-198.5 242,-168.5 118,-168.5"/>
<text text-anchor="start" x="126" y="-186.5" font-family="Helvetica,sans-Serif" font-size="10.00">core/eventreceiver</text>
<text text-anchor="middle" x="180" y="-175.5" font-family="Helvetica,sans-Serif" font-size="10.00">/ReadEventReceiver.h</text>
</a>
</g>
</g>
<!-- Node2&#45;&gt;Node4 -->
<g id="edge3" class="edge">
<title>Node2&#45;&gt;Node4</title>
<path fill="none" stroke="midnightblue" d="M124.31,-235.48C132.87,-227.64 145.9,-215.71 157.21,-205.37"/>
<polygon fill="midnightblue" stroke="midnightblue" points="159.67,-207.86 164.68,-198.52 154.94,-202.69 159.67,-207.86"/>
</g>
<!-- Node5 -->
<g id="node5" class="node">
<title>Node5</title>
<g id="a_node5"><a xlink:href="_descriptor_event_receiver_8h.html" target="_top" xlink:title=" ">
<polygon fill="white" stroke="black" points="95,-112.5 95,-131.5 265,-131.5 265,-112.5 95,-112.5"/>
<text text-anchor="middle" x="180" y="-119.5" font-family="Helvetica,sans-Serif" font-size="10.00">core/DescriptorEventReceiver.h</text>
</a>
</g>
</g>
<!-- Node4&#45;&gt;Node5 -->
<g id="edge4" class="edge">
<title>Node4&#45;&gt;Node5</title>
<path fill="none" stroke="midnightblue" d="M180,-168.4C180,-160.47 180,-150.46 180,-141.86"/>
<polygon fill="midnightblue" stroke="midnightblue" points="183.5,-141.66 180,-131.66 176.5,-141.66 183.5,-141.66"/>
</g>
<!-- Node6 -->
<g id="node6" class="node">
<title>Node6</title>
<g id="a_node6"><a xlink:href="_event_receiver_8h.html" target="_top" xlink:title=" ">
<polygon fill="white" stroke="black" points="120,-56.5 120,-75.5 240,-75.5 240,-56.5 120,-56.5"/>
<text text-anchor="middle" x="180" y="-63.5" font-family="Helvetica,sans-Serif" font-size="10.00">core/EventReceiver.h</text>
</a>
</g>
</g>
<!-- Node5&#45;&gt;Node6 -->
<g id="edge5" class="edge">
<title>Node5&#45;&gt;Node6</title>
<path fill="none" stroke="midnightblue" d="M180,-112.08C180,-105.01 180,-94.86 180,-85.99"/>
<polygon fill="midnightblue" stroke="midnightblue" points="183.5,-85.75 180,-75.75 176.5,-85.75 183.5,-85.75"/>
</g>
<!-- Node7 -->
<g id="node7" class="node">
<title>Node7</title>
<g id="a_node7"><a xlink:href="_event_8h.html" target="_top" xlink:title=" ">
<polygon fill="white" stroke="black" points="153.5,-0.5 153.5,-19.5 206.5,-19.5 206.5,-0.5 153.5,-0.5"/>
<text text-anchor="middle" x="180" y="-7.5" font-family="Helvetica,sans-Serif" font-size="10.00">Event.h</text>
</a>
</g>
</g>
<!-- Node6&#45;&gt;Node7 -->
<g id="edge6" class="edge">
<title>Node6&#45;&gt;Node7</title>
<path fill="none" stroke="midnightblue" d="M180,-56.08C180,-49.01 180,-38.86 180,-29.99"/>
<polygon fill="midnightblue" stroke="midnightblue" points="183.5,-29.75 180,-19.75 176.5,-29.75 183.5,-29.75"/>
</g>
</g>
</svg>
