<?xml version="1.0" encoding="UTF-8" standalone="no"?>
<!DOCTYPE svg PUBLIC "-//W3C//DTD SVG 1.1//EN"
 "http://www.w3.org/Graphics/SVG/1.1/DTD/svg11.dtd">
<!-- Generated by graphviz version 2.43.0 (0)
 -->
<!-- Title: core/ReadEventReceiver.cpp Pages: 1 -->
<svg width="421pt" height="140pt"
 viewBox="0.00 0.00 421.00 140.00" xmlns="http://www.w3.org/2000/svg" xmlns:xlink="http://www.w3.org/1999/xlink">
<g id="graph0" class="graph" transform="scale(1 1) rotate(0) translate(4 136)">
<title>core/ReadEventReceiver.cpp</title>
<polygon fill="white" stroke="transparent" points="-4,4 -4,-136 417,-136 417,4 -4,4"/>
<!-- Node1 -->
<g id="node1" class="node">
<title>Node1</title>
<g id="a_node1"><a xlink:title=" ">
<polygon fill="#bfbfbf" stroke="black" points="150.5,-112.5 150.5,-131.5 306.5,-131.5 306.5,-112.5 150.5,-112.5"/>
<text text-anchor="middle" x="228.5" y="-119.5" font-family="Helvetica,sans-Serif" font-size="10.00">core/ReadEventReceiver.cpp</text>
</a>
</g>
</g>
<!-- Node2 -->
<g id="node2" class="node">
<title>Node2</title>
<g id="a_node2"><a xlink:href="_read_event_receiver_8h.html" target="_top" xlink:title=" ">
<polygon fill="white" stroke="black" points="0,-56.5 0,-75.5 145,-75.5 145,-56.5 0,-56.5"/>
<text text-anchor="middle" x="72.5" y="-63.5" font-family="Helvetica,sans-Serif" font-size="10.00">core/ReadEventReceiver.h</text>
</a>
</g>
</g>
<!-- Node1&#45;&gt;Node2 -->
<g id="edge1" class="edge">
<title>Node1&#45;&gt;Node2</title>
<path fill="none" stroke="midnightblue" d="M203.78,-112.44C177.65,-103.4 136.24,-89.06 106.92,-78.92"/>
<polygon fill="midnightblue" stroke="midnightblue" points="107.7,-75.48 97.1,-75.52 105.41,-82.1 107.7,-75.48"/>
</g>
<!-- Node4 -->
<g id="node4" class="node">
<title>Node4</title>
<g id="a_node4"><a xlink:href="_event_dispatcher_8h.html" target="_top" xlink:title=" ">
<polygon fill="white" stroke="black" points="163.5,-56.5 163.5,-75.5 293.5,-75.5 293.5,-56.5 163.5,-56.5"/>
<text text-anchor="middle" x="228.5" y="-63.5" font-family="Helvetica,sans-Serif" font-size="10.00">core/EventDispatcher.h</text>
</a>
</g>
</g>
<!-- Node1&#45;&gt;Node4 -->
<g id="edge3" class="edge">
<title>Node1&#45;&gt;Node4</title>
<path fill="none" stroke="midnightblue" d="M228.5,-112.08C228.5,-105.01 228.5,-94.86 228.5,-85.99"/>
<polygon fill="midnightblue" stroke="midnightblue" points="232,-85.75 228.5,-75.75 225,-85.75 232,-85.75"/>
</g>
<!-- Node6 -->
<g id="node6" class="node">
<title>Node6</title>
<g id="a_node6"><a xlink:href="_event_loop_8h.html" target="_top" xlink:title=" ">
<polygon fill="white" stroke="black" points="312,-56.5 312,-75.5 413,-75.5 413,-56.5 312,-56.5"/>
<text text-anchor="middle" x="362.5" y="-63.5" font-family="Helvetica,sans-Serif" font-size="10.00">core/EventLoop.h</text>
</a>
</g>
</g>
<!-- Node1&#45;&gt;Node6 -->
<g id="edge5" class="edge">
<title>Node1&#45;&gt;Node6</title>
<path fill="none" stroke="midnightblue" d="M249.73,-112.44C271.88,-103.52 306.82,-89.44 331.94,-79.32"/>
<polygon fill="midnightblue" stroke="midnightblue" points="333.4,-82.5 341.37,-75.52 330.78,-76.01 333.4,-82.5"/>
</g>
<!-- Node3 -->
<g id="node3" class="node">
<title>Node3</title>
<g id="a_node3"><a xlink:href="_event_receiver_8h.html" target="_top" xlink:title=" ">
<polygon fill="white" stroke="black" points="12.5,-0.5 12.5,-19.5 132.5,-19.5 132.5,-0.5 12.5,-0.5"/>
<text text-anchor="middle" x="72.5" y="-7.5" font-family="Helvetica,sans-Serif" font-size="10.00">core/EventReceiver.h</text>
</a>
</g>
</g>
<!-- Node2&#45;&gt;Node3 -->
<g id="edge2" class="edge">
<title>Node2&#45;&gt;Node3</title>
<path fill="none" stroke="midnightblue" d="M72.5,-56.08C72.5,-49.01 72.5,-38.86 72.5,-29.99"/>
<polygon fill="midnightblue" stroke="midnightblue" points="76,-29.75 72.5,-19.75 69,-29.75 76,-29.75"/>
</g>
<!-- Node5 -->
<g id="node5" class="node">
<title>Node5</title>
<g id="a_node5"><a xlink:href="_tick_status_8h.html" target="_top" xlink:title=" ">
<polygon fill="white" stroke="black" points="245.5,-0.5 245.5,-19.5 345.5,-19.5 345.5,-0.5 245.5,-0.5"/>
<text text-anchor="middle" x="295.5" y="-7.5" font-family="Helvetica,sans-Serif" font-size="10.00">core/TickStatus.h</text>
</a>
</g>
</g>
<!-- Node4&#45;&gt;Node5 -->
<g id="edge4" class="edge">
<title>Node4&#45;&gt;Node5</title>
<path fill="none" stroke="midnightblue" d="M239.26,-56.32C249.27,-48.26 264.39,-36.08 276.43,-26.37"/>
<polygon fill="midnightblue" stroke="midnightblue" points="278.95,-28.83 284.54,-19.83 274.56,-23.38 278.95,-28.83"/>
</g>
<!-- Node6&#45;&gt;Node5 -->
<g id="edge6" class="edge">
<title>Node6&#45;&gt;Node5</title>
<path fill="none" stroke="midnightblue" d="M351.74,-56.32C341.73,-48.26 326.61,-36.08 314.57,-26.37"/>
<polygon fill="midnightblue" stroke="midnightblue" points="316.44,-23.38 306.46,-19.83 312.05,-28.83 316.44,-23.38"/>
</g>
</g>
</svg>
