<?xml version="1.0" encoding="UTF-8" standalone="no"?>
<!DOCTYPE svg PUBLIC "-//W3C//DTD SVG 1.1//EN"
 "http://www.w3.org/Graphics/SVG/1.1/DTD/svg11.dtd">
<!-- Generated by graphviz version 2.43.0 (0)
 -->
<!-- Title: express/Router.cpp Pages: 1 -->
<svg width="335pt" height="196pt"
 viewBox="0.00 0.00 334.50 196.00" xmlns="http://www.w3.org/2000/svg" xmlns:xlink="http://www.w3.org/1999/xlink">
<g id="graph0" class="graph" transform="scale(1 1) rotate(0) translate(4 192)">
<title>express/Router.cpp</title>
<polygon fill="white" stroke="transparent" points="-4,4 -4,-192 330.5,-192 330.5,4 -4,4"/>
<!-- Node1 -->
<g id="node1" class="node">
<title>Node1</title>
<g id="a_node1"><a xlink:title=" ">
<polygon fill="#bfbfbf" stroke="black" points="54.5,-168.5 54.5,-187.5 164.5,-187.5 164.5,-168.5 54.5,-168.5"/>
<text text-anchor="middle" x="109.5" y="-175.5" font-family="Helvetica,sans-Serif" font-size="10.00">express/Router.cpp</text>
</a>
</g>
</g>
<!-- Node2 -->
<g id="node2" class="node">
<title>Node2</title>
<g id="a_node2"><a xlink:href="_router_8h.html" target="_top" xlink:title=" ">
<polygon fill="white" stroke="black" points="0,-112.5 0,-131.5 99,-131.5 99,-112.5 0,-112.5"/>
<text text-anchor="middle" x="49.5" y="-119.5" font-family="Helvetica,sans-Serif" font-size="10.00">express/Router.h</text>
</a>
</g>
</g>
<!-- Node1&#45;&gt;Node2 -->
<g id="edge1" class="edge">
<title>Node1&#45;&gt;Node2</title>
<path fill="none" stroke="midnightblue" d="M99.86,-168.32C90.99,-160.34 77.63,-148.31 66.89,-138.65"/>
<polygon fill="midnightblue" stroke="midnightblue" points="69.09,-135.92 59.32,-131.83 64.41,-141.13 69.09,-135.92"/>
</g>
<!-- Node3 -->
<g id="node3" class="node">
<title>Node3</title>
<g id="a_node3"><a xlink:href="express_2_request_8h.html" target="_top" xlink:title=" ">
<polygon fill="white" stroke="black" points="117,-112.5 117,-131.5 224,-131.5 224,-112.5 117,-112.5"/>
<text text-anchor="middle" x="170.5" y="-119.5" font-family="Helvetica,sans-Serif" font-size="10.00">express/Request.h</text>
</a>
</g>
</g>
<!-- Node1&#45;&gt;Node3 -->
<g id="edge2" class="edge">
<title>Node1&#45;&gt;Node3</title>
<path fill="none" stroke="midnightblue" d="M119.3,-168.32C128.32,-160.34 141.91,-148.31 152.82,-138.65"/>
<polygon fill="midnightblue" stroke="midnightblue" points="155.35,-141.08 160.52,-131.83 150.71,-135.84 155.35,-141.08"/>
</g>
<!-- Node4 -->
<g id="node4" class="node">
<title>Node4</title>
<g id="a_node4"><a xlink:href="web_2http_2server_2_request_8h.html" target="_top" xlink:title=" ">
<polygon fill="white" stroke="black" points="98,-56.5 98,-75.5 243,-75.5 243,-56.5 98,-56.5"/>
<text text-anchor="middle" x="170.5" y="-63.5" font-family="Helvetica,sans-Serif" font-size="10.00">web/http/server/Request.h</text>
</a>
</g>
</g>
<!-- Node3&#45;&gt;Node4 -->
<g id="edge3" class="edge">
<title>Node3&#45;&gt;Node4</title>
<path fill="none" stroke="midnightblue" d="M170.5,-112.08C170.5,-105.01 170.5,-94.86 170.5,-85.99"/>
<polygon fill="midnightblue" stroke="midnightblue" points="174,-85.75 170.5,-75.75 167,-85.75 174,-85.75"/>
</g>
<!-- Node5 -->
<g id="node5" class="node">
<title>Node5</title>
<g id="a_node5"><a xlink:href="_attribute_injector_8h.html" target="_top" xlink:title=" ">
<polygon fill="white" stroke="black" points="27,-0.5 27,-19.5 156,-19.5 156,-0.5 27,-0.5"/>
<text text-anchor="middle" x="91.5" y="-7.5" font-family="Helvetica,sans-Serif" font-size="10.00">utils/AttributeInjector.h</text>
</a>
</g>
</g>
<!-- Node4&#45;&gt;Node5 -->
<g id="edge4" class="edge">
<title>Node4&#45;&gt;Node5</title>
<path fill="none" stroke="midnightblue" d="M157.81,-56.32C145.6,-47.98 126.92,-35.21 112.5,-25.35"/>
<polygon fill="midnightblue" stroke="midnightblue" points="114.39,-22.41 104.16,-19.65 110.44,-28.19 114.39,-22.41"/>
</g>
<!-- Node6 -->
<g id="node6" class="node">
<title>Node6</title>
<g id="a_node6"><a xlink:href="_connection_state_8h.html" target="_top" xlink:title=" ">
<polygon fill="white" stroke="black" points="174.5,-0.5 174.5,-19.5 326.5,-19.5 326.5,-0.5 174.5,-0.5"/>
<text text-anchor="middle" x="250.5" y="-7.5" font-family="Helvetica,sans-Serif" font-size="10.00">web/http/ConnectionState.h</text>
</a>
</g>
</g>
<!-- Node4&#45;&gt;Node6 -->
<g id="edge5" class="edge">
<title>Node4&#45;&gt;Node6</title>
<path fill="none" stroke="midnightblue" d="M183.35,-56.32C195.72,-47.98 214.63,-35.21 229.24,-25.35"/>
<polygon fill="midnightblue" stroke="midnightblue" points="231.35,-28.15 237.68,-19.65 227.43,-22.35 231.35,-28.15"/>
</g>
</g>
</svg>
