<?xml version="1.0" encoding="UTF-8" standalone="no"?>
<!DOCTYPE svg PUBLIC "-//W3C//DTD SVG 1.1//EN"
 "http://www.w3.org/Graphics/SVG/1.1/DTD/svg11.dtd">
<!-- Generated by graphviz version 2.43.0 (0)
 -->
<!-- Title: express/dispatcher/RouterDispatcher.h Pages: 1 -->
<svg width="371pt" height="173pt"
 viewBox="0.00 0.00 371.00 173.00" xmlns="http://www.w3.org/2000/svg" xmlns:xlink="http://www.w3.org/1999/xlink">
<g id="graph0" class="graph" transform="scale(1 1) rotate(0) translate(4 169)">
<title>express/dispatcher/RouterDispatcher.h</title>
<polygon fill="white" stroke="transparent" points="-4,4 -4,-169 367,-169 367,4 -4,4"/>
<!-- Node1 -->
<g id="node1" class="node">
<title>Node1</title>
<g id="a_node1"><a xlink:title=" ">
<polygon fill="#bfbfbf" stroke="black" points="125,-134.5 125,-164.5 238,-164.5 238,-134.5 125,-134.5"/>
<text text-anchor="start" x="133" y="-152.5" font-family="Helvetica,sans-Serif" font-size="10.00">express/dispatcher</text>
<text text-anchor="middle" x="181.5" y="-141.5" font-family="Helvetica,sans-Serif" font-size="10.00">/RouterDispatcher.h</text>
</a>
</g>
</g>
<!-- Node2 -->
<g id="node2" class="node">
<title>Node2</title>
<g id="a_node2"><a xlink:href="_dispatcher_8h.html" target="_top" xlink:title=" ">
<polygon fill="white" stroke="black" points="0,-67.5 0,-97.5 109,-97.5 109,-67.5 0,-67.5"/>
<text text-anchor="start" x="8" y="-85.5" font-family="Helvetica,sans-Serif" font-size="10.00">express/dispatcher</text>
<text text-anchor="middle" x="54.5" y="-74.5" font-family="Helvetica,sans-Serif" font-size="10.00">/Dispatcher.h</text>
</a>
</g>
</g>
<!-- Node1&#45;&gt;Node2 -->
<g id="edge1" class="edge">
<title>Node1&#45;&gt;Node2</title>
<path fill="none" stroke="midnightblue" d="M153.94,-134.4C135.55,-124.98 111.17,-112.5 91.15,-102.26"/>
<polygon fill="midnightblue" stroke="midnightblue" points="92.5,-99.02 82,-97.58 89.31,-105.25 92.5,-99.02"/>
</g>
<!-- Node3 -->
<g id="node3" class="node">
<title>Node3</title>
<g id="a_node3"><a xlink:href="_route_8h.html" target="_top" xlink:title=" ">
<polygon fill="white" stroke="black" points="127,-67.5 127,-97.5 236,-97.5 236,-67.5 127,-67.5"/>
<text text-anchor="start" x="135" y="-85.5" font-family="Helvetica,sans-Serif" font-size="10.00">express/dispatcher</text>
<text text-anchor="middle" x="181.5" y="-74.5" font-family="Helvetica,sans-Serif" font-size="10.00">/Route.h</text>
</a>
</g>
</g>
<!-- Node1&#45;&gt;Node3 -->
<g id="edge2" class="edge">
<title>Node1&#45;&gt;Node3</title>
<path fill="none" stroke="midnightblue" d="M181.5,-134.4C181.5,-126.64 181.5,-116.81 181.5,-107.86"/>
<polygon fill="midnightblue" stroke="midnightblue" points="185,-107.58 181.5,-97.58 178,-107.58 185,-107.58"/>
</g>
<!-- Node5 -->
<g id="node5" class="node">
<title>Node5</title>
<g id="a_node5"><a xlink:href="_state_8h.html" target="_top" xlink:title=" ">
<polygon fill="white" stroke="black" points="254,-67.5 254,-97.5 363,-97.5 363,-67.5 254,-67.5"/>
<text text-anchor="start" x="262" y="-85.5" font-family="Helvetica,sans-Serif" font-size="10.00">express/dispatcher</text>
<text text-anchor="middle" x="308.5" y="-74.5" font-family="Helvetica,sans-Serif" font-size="10.00">/State.h</text>
</a>
</g>
</g>
<!-- Node1&#45;&gt;Node5 -->
<g id="edge4" class="edge">
<title>Node1&#45;&gt;Node5</title>
<path fill="none" stroke="midnightblue" d="M209.06,-134.4C227.45,-124.98 251.83,-112.5 271.85,-102.26"/>
<polygon fill="midnightblue" stroke="midnightblue" points="273.69,-105.25 281,-97.58 270.5,-99.02 273.69,-105.25"/>
</g>
<!-- Node4 -->
<g id="node4" class="node">
<title>Node4</title>
<g id="a_node4"><a xlink:href="_mount_point_8h.html" target="_top" xlink:title=" ">
<polygon fill="white" stroke="black" points="127,-0.5 127,-30.5 236,-30.5 236,-0.5 127,-0.5"/>
<text text-anchor="start" x="135" y="-18.5" font-family="Helvetica,sans-Serif" font-size="10.00">express/dispatcher</text>
<text text-anchor="middle" x="181.5" y="-7.5" font-family="Helvetica,sans-Serif" font-size="10.00">/MountPoint.h</text>
</a>
</g>
</g>
<!-- Node3&#45;&gt;Node4 -->
<g id="edge3" class="edge">
<title>Node3&#45;&gt;Node4</title>
<path fill="none" stroke="midnightblue" d="M181.5,-67.4C181.5,-59.64 181.5,-49.81 181.5,-40.86"/>
<polygon fill="midnightblue" stroke="midnightblue" points="185,-40.58 181.5,-30.58 178,-40.58 185,-40.58"/>
</g>
</g>
</svg>
