<?xml version="1.0" encoding="UTF-8" standalone="no"?>
<!DOCTYPE svg PUBLIC "-//W3C//DTD SVG 1.1//EN"
 "http://www.w3.org/Graphics/SVG/1.1/DTD/svg11.dtd">
<!-- Generated by graphviz version 2.43.0 (0)
 -->
<!-- Title: net/SocketAddress.h Pages: 1 -->
<svg width="4566pt" height="207pt"
 viewBox="0.00 0.00 4566.00 207.00" xmlns="http://www.w3.org/2000/svg" xmlns:xlink="http://www.w3.org/1999/xlink">
<g id="graph0" class="graph" transform="scale(1 1) rotate(0) translate(4 203)">
<title>net/SocketAddress.h</title>
<polygon fill="white" stroke="transparent" points="-4,4 -4,-203 4562,-203 4562,4 -4,4"/>
<!-- Node1 -->
<g id="node1" class="node">
<title>Node1</title>
<g id="a_node1"><a xlink:title=" ">
<polygon fill="#bfbfbf" stroke="black" points="2138.5,-179.5 2138.5,-198.5 2254.5,-198.5 2254.5,-179.5 2138.5,-179.5"/>
<text text-anchor="middle" x="2196.5" y="-186.5" font-family="Helvetica,sans-Serif" font-size="10.00">net/SocketAddress.h</text>
</a>
</g>
</g>
<!-- Node2 -->
<g id="node2" class="node">
<title>Node2</title>
<g id="a_node2"><a xlink:href="in_2_socket_address_8h.html" target="_top" xlink:title=" ">
<polygon fill="white" stroke="black" points="761.5,-123.5 761.5,-142.5 889.5,-142.5 889.5,-123.5 761.5,-123.5"/>
<text text-anchor="middle" x="825.5" y="-130.5" font-family="Helvetica,sans-Serif" font-size="10.00">net/in/SocketAddress.h</text>
</a>
</g>
</g>
<!-- Node1&#45;&gt;Node2 -->
<g id="edge1" class="edge">
<title>Node1&#45;&gt;Node2</title>
<path fill="none" stroke="midnightblue" d="M2128.35,-185.32C1893.36,-176.06 1118.81,-145.55 889.81,-136.53"/>
<polygon fill="midnightblue" stroke="midnightblue" points="2128.34,-188.82 2138.47,-185.71 2128.61,-181.82 2128.34,-188.82"/>
</g>
<!-- Node34 -->
<g id="node12" class="node">
<title>Node34</title>
<g id="a_node12"><a xlink:href="in6_2_socket_address_8h.html" target="_top" xlink:title=" ">
<polygon fill="white" stroke="black" points="1747.5,-123.5 1747.5,-142.5 1881.5,-142.5 1881.5,-123.5 1747.5,-123.5"/>
<text text-anchor="middle" x="1814.5" y="-130.5" font-family="Helvetica,sans-Serif" font-size="10.00">net/in6/SocketAddress.h</text>
</a>
</g>
</g>
<!-- Node1&#45;&gt;Node34 -->
<g id="edge11" class="edge">
<title>Node1&#45;&gt;Node34</title>
<path fill="none" stroke="midnightblue" d="M2128.15,-178.34C2056.03,-168.14 1943.49,-152.23 1874.64,-142.5"/>
<polygon fill="midnightblue" stroke="midnightblue" points="2128.09,-181.86 2138.48,-179.8 2129.07,-174.93 2128.09,-181.86"/>
</g>
<!-- Node66 -->
<g id="node22" class="node">
<title>Node66</title>
<g id="a_node22"><a xlink:href="l2_2_socket_address_8h.html" target="_top" xlink:title=" ">
<polygon fill="white" stroke="black" points="2207.5,-123.5 2207.5,-142.5 2335.5,-142.5 2335.5,-123.5 2207.5,-123.5"/>
<text text-anchor="middle" x="2271.5" y="-130.5" font-family="Helvetica,sans-Serif" font-size="10.00">net/l2/SocketAddress.h</text>
</a>
</g>
</g>
<!-- Node1&#45;&gt;Node66 -->
<g id="edge21" class="edge">
<title>Node1&#45;&gt;Node66</title>
<path fill="none" stroke="midnightblue" d="M2216.81,-173.38C2230.36,-163.62 2247.74,-151.11 2259.23,-142.83"/>
<polygon fill="midnightblue" stroke="midnightblue" points="2214.62,-170.64 2208.55,-179.32 2218.71,-176.32 2214.62,-170.64"/>
</g>
<!-- Node92 -->
<g id="node32" class="node">
<title>Node92</title>
<g id="a_node32"><a xlink:href="rc_2_socket_address_8h.html" target="_top" xlink:title=" ">
<polygon fill="white" stroke="black" points="2666.5,-123.5 2666.5,-142.5 2794.5,-142.5 2794.5,-123.5 2666.5,-123.5"/>
<text text-anchor="middle" x="2730.5" y="-130.5" font-family="Helvetica,sans-Serif" font-size="10.00">net/rc/SocketAddress.h</text>
</a>
</g>
</g>
<!-- Node1&#45;&gt;Node92 -->
<g id="edge31" class="edge">
<title>Node1&#45;&gt;Node92</title>
<path fill="none" stroke="midnightblue" d="M2264.72,-181.1C2368.53,-170.6 2564.78,-150.76 2666.2,-140.5"/>
<polygon fill="midnightblue" stroke="midnightblue" points="2264.26,-177.63 2254.66,-182.12 2264.97,-184.59 2264.26,-177.63"/>
</g>
<!-- Node124 -->
<g id="node42" class="node">
<title>Node124</title>
<g id="a_node42"><a xlink:href="_socket_address_8hpp.html" target="_top" xlink:title=" ">
<polygon fill="white" stroke="black" points="2059.5,-123.5 2059.5,-142.5 2187.5,-142.5 2187.5,-123.5 2059.5,-123.5"/>
<text text-anchor="middle" x="2123.5" y="-130.5" font-family="Helvetica,sans-Serif" font-size="10.00">net/SocketAddress.hpp</text>
</a>
</g>
</g>
<!-- Node1&#45;&gt;Node124 -->
<g id="edge41" class="edge">
<title>Node1&#45;&gt;Node124</title>
<path fill="none" stroke="midnightblue" d="M2176.36,-173.1C2163.22,-163.38 2146.52,-151.03 2135.44,-142.83"/>
<polygon fill="midnightblue" stroke="midnightblue" points="2174.65,-176.19 2184.77,-179.32 2178.81,-170.56 2174.65,-176.19"/>
</g>
<!-- Node126 -->
<g id="node44" class="node">
<title>Node126</title>
<g id="a_node44"><a xlink:href="un_2_socket_address_8h.html" target="_top" xlink:title=" ">
<polygon fill="white" stroke="black" points="3809,-123.5 3809,-142.5 3940,-142.5 3940,-123.5 3809,-123.5"/>
<text text-anchor="middle" x="3874.5" y="-130.5" font-family="Helvetica,sans-Serif" font-size="10.00">net/un/SocketAddress.h</text>
</a>
</g>
</g>
<!-- Node1&#45;&gt;Node126 -->
<g id="edge47" class="edge">
<title>Node1&#45;&gt;Node126</title>
<path fill="none" stroke="midnightblue" d="M2264.88,-185.8C2536.97,-177.04 3540.98,-144.73 3808.59,-136.12"/>
<polygon fill="midnightblue" stroke="midnightblue" points="2264.63,-182.31 2254.75,-186.13 2264.86,-189.3 2264.63,-182.31"/>
</g>
<!-- Node3 -->
<g id="node3" class="node">
<title>Node3</title>
<g id="a_node3"><a xlink:href="in_2config_2_config_address_8h.html" target="_top" xlink:title=" ">
<polygon fill="white" stroke="black" points="240.5,-67.5 240.5,-86.5 400.5,-86.5 400.5,-67.5 240.5,-67.5"/>
<text text-anchor="middle" x="320.5" y="-74.5" font-family="Helvetica,sans-Serif" font-size="10.00">net/in/config/ConfigAddress.h</text>
</a>
</g>
</g>
<!-- Node2&#45;&gt;Node3 -->
<g id="edge2" class="edge">
<title>Node2&#45;&gt;Node3</title>
<path fill="none" stroke="midnightblue" d="M751.3,-124.07C657.41,-114.03 496.39,-96.81 400.04,-86.51"/>
<polygon fill="midnightblue" stroke="midnightblue" points="750.97,-127.55 761.29,-125.13 751.71,-120.59 750.97,-127.55"/>
</g>
<!-- Node27 -->
<g id="node7" class="node">
<title>Node27</title>
<g id="a_node7"><a xlink:href="in_2_socket_address_8cpp.html" target="_top" xlink:title=" ">
<polygon fill="white" stroke="black" points="918,-67.5 918,-86.5 1057,-86.5 1057,-67.5 918,-67.5"/>
<text text-anchor="middle" x="987.5" y="-74.5" font-family="Helvetica,sans-Serif" font-size="10.00">net/in/SocketAddress.cpp</text>
</a>
</g>
</g>
<!-- Node2&#45;&gt;Node27 -->
<g id="edge6" class="edge">
<title>Node2&#45;&gt;Node27</title>
<path fill="none" stroke="midnightblue" d="M860.98,-120.17C891.49,-110 934.74,-95.59 961.95,-86.52"/>
<polygon fill="midnightblue" stroke="midnightblue" points="859.55,-116.96 851.17,-123.44 861.76,-123.6 859.55,-116.96"/>
</g>
<!-- Node28 -->
<g id="node8" class="node">
<title>Node28</title>
<g id="a_node8"><a xlink:href="net_2in_2stream_2socket_8h.html" target="_top" xlink:title=" ">
<polygon fill="white" stroke="black" points="721.5,-67.5 721.5,-86.5 847.5,-86.5 847.5,-67.5 721.5,-67.5"/>
<text text-anchor="middle" x="784.5" y="-74.5" font-family="Helvetica,sans-Serif" font-size="10.00">net/in/stream/Socket.h</text>
</a>
</g>
</g>
<!-- Node2&#45;&gt;Node28 -->
<g id="edge7" class="edge">
<title>Node2&#45;&gt;Node28</title>
<path fill="none" stroke="midnightblue" d="M812.48,-114.86C805.38,-105.5 796.9,-94.33 791.14,-86.75"/>
<polygon fill="midnightblue" stroke="midnightblue" points="809.89,-117.24 818.73,-123.08 815.47,-113 809.89,-117.24"/>
</g>
<!-- Node4 -->
<g id="node4" class="node">
<title>Node4</title>
<g id="a_node4"><a xlink:href="in_2config_2_config_address_8cpp.html" target="_top" xlink:title=" ">
<polygon fill="white" stroke="black" points="0,-6 0,-25 171,-25 171,-6 0,-6"/>
<text text-anchor="middle" x="85.5" y="-13" font-family="Helvetica,sans-Serif" font-size="10.00">net/in/config/ConfigAddress.cpp</text>
</a>
</g>
</g>
<!-- Node3&#45;&gt;Node4 -->
<g id="edge3" class="edge">
<title>Node3&#45;&gt;Node4</title>
<path fill="none" stroke="midnightblue" d="M276.93,-64.97C231.3,-53.41 160.61,-35.52 119.11,-25.01"/>
<polygon fill="midnightblue" stroke="midnightblue" points="276.28,-68.41 286.83,-67.48 278,-61.63 276.28,-68.41"/>
</g>
<!-- Node5 -->
<g id="node5" class="node">
<title>Node5</title>
<g id="a_node5"><a xlink:href="in_2stream_2config_2_config_client_socket_8h.html" target="_top" xlink:title=" ">
<polygon fill="white" stroke="red" points="189,-0.5 189,-30.5 310,-30.5 310,-0.5 189,-0.5"/>
<text text-anchor="start" x="197" y="-18.5" font-family="Helvetica,sans-Serif" font-size="10.00">net/in/stream/config</text>
<text text-anchor="middle" x="249.5" y="-7.5" font-family="Helvetica,sans-Serif" font-size="10.00">/ConfigClientSocket.h</text>
</a>
</g>
</g>
<!-- Node3&#45;&gt;Node5 -->
<g id="edge4" class="edge">
<title>Node3&#45;&gt;Node5</title>
<path fill="none" stroke="midnightblue" d="M302.51,-60.92C291.36,-51.58 277.14,-39.66 266.23,-30.52"/>
<polygon fill="midnightblue" stroke="midnightblue" points="300.41,-63.73 310.33,-67.48 304.91,-58.37 300.41,-63.73"/>
</g>
<!-- Node15 -->
<g id="node6" class="node">
<title>Node15</title>
<g id="a_node6"><a xlink:href="in_2stream_2config_2_config_server_socket_8h.html" target="_top" xlink:title=" ">
<polygon fill="white" stroke="red" points="328.5,-0.5 328.5,-30.5 452.5,-30.5 452.5,-0.5 328.5,-0.5"/>
<text text-anchor="start" x="336.5" y="-18.5" font-family="Helvetica,sans-Serif" font-size="10.00">net/in/stream/config</text>
<text text-anchor="middle" x="390.5" y="-7.5" font-family="Helvetica,sans-Serif" font-size="10.00">/ConfigServerSocket.h</text>
</a>
</g>
</g>
<!-- Node3&#45;&gt;Node15 -->
<g id="edge5" class="edge">
<title>Node3&#45;&gt;Node15</title>
<path fill="none" stroke="midnightblue" d="M338.24,-60.92C349.23,-51.58 363.25,-39.66 374,-30.52"/>
<polygon fill="midnightblue" stroke="midnightblue" points="335.88,-58.33 330.53,-67.48 340.42,-63.67 335.88,-58.33"/>
</g>
<!-- Node29 -->
<g id="node9" class="node">
<title>Node29</title>
<g id="a_node9"><a xlink:href="in_2stream_2_client_socket_8h.html" target="_top" xlink:title=" ">
<polygon fill="white" stroke="red" points="626,-6 626,-25 781,-25 781,-6 626,-6"/>
<text text-anchor="middle" x="703.5" y="-13" font-family="Helvetica,sans-Serif" font-size="10.00">net/in/stream/ClientSocket.h</text>
</a>
</g>
</g>
<!-- Node28&#45;&gt;Node29 -->
<g id="edge8" class="edge">
<title>Node28&#45;&gt;Node29</title>
<path fill="none" stroke="midnightblue" d="M764.48,-61.29C748.94,-49.88 727.95,-34.46 715.08,-25.01"/>
<polygon fill="midnightblue" stroke="midnightblue" points="762.76,-64.38 772.89,-67.48 766.91,-58.73 762.76,-64.38"/>
</g>
<!-- Node31 -->
<g id="node10" class="node">
<title>Node31</title>
<g id="a_node10"><a xlink:href="in_2stream_2_server_socket_8h.html" target="_top" xlink:title=" ">
<polygon fill="white" stroke="red" points="799.5,-6 799.5,-25 957.5,-25 957.5,-6 799.5,-6"/>
<text text-anchor="middle" x="878.5" y="-13" font-family="Helvetica,sans-Serif" font-size="10.00">net/in/stream/ServerSocket.h</text>
</a>
</g>
</g>
<!-- Node28&#45;&gt;Node31 -->
<g id="edge9" class="edge">
<title>Node28&#45;&gt;Node31</title>
<path fill="none" stroke="midnightblue" d="M806.73,-61.93C824.85,-50.46 849.85,-34.63 865.06,-25.01"/>
<polygon fill="midnightblue" stroke="midnightblue" points="804.55,-59.17 797.97,-67.48 808.29,-65.08 804.55,-59.17"/>
</g>
<!-- Node33 -->
<g id="node11" class="node">
<title>Node33</title>
<g id="a_node11"><a xlink:href="net_2in_2stream_2socket_8cpp.html" target="_top" xlink:title=" ">
<polygon fill="white" stroke="black" points="471,-6 471,-25 608,-25 608,-6 471,-6"/>
<text text-anchor="middle" x="539.5" y="-13" font-family="Helvetica,sans-Serif" font-size="10.00">net/in/stream/Socket.cpp</text>
</a>
</g>
</g>
<!-- Node28&#45;&gt;Node33 -->
<g id="edge10" class="edge">
<title>Node28&#45;&gt;Node33</title>
<path fill="none" stroke="midnightblue" d="M739.67,-65.11C692.12,-53.57 617.99,-35.56 574.54,-25.01"/>
<polygon fill="midnightblue" stroke="midnightblue" points="738.85,-68.52 749.4,-67.48 740.51,-61.71 738.85,-68.52"/>
</g>
<!-- Node35 -->
<g id="node13" class="node">
<title>Node35</title>
<g id="a_node13"><a xlink:href="in6_2config_2_config_address_8h.html" target="_top" xlink:title=" ">
<polygon fill="white" stroke="black" points="1248.5,-67.5 1248.5,-86.5 1414.5,-86.5 1414.5,-67.5 1248.5,-67.5"/>
<text text-anchor="middle" x="1331.5" y="-74.5" font-family="Helvetica,sans-Serif" font-size="10.00">net/in6/config/ConfigAddress.h</text>
</a>
</g>
</g>
<!-- Node34&#45;&gt;Node35 -->
<g id="edge12" class="edge">
<title>Node34&#45;&gt;Node35</title>
<path fill="none" stroke="midnightblue" d="M1737.14,-123.35C1646.6,-113.23 1497.64,-96.57 1407.63,-86.51"/>
<polygon fill="midnightblue" stroke="midnightblue" points="1737.01,-126.86 1747.34,-124.49 1737.79,-119.9 1737.01,-126.86"/>
</g>
<!-- Node59 -->
<g id="node17" class="node">
<title>Node59</title>
<g id="a_node17"><a xlink:href="in6_2_socket_address_8cpp.html" target="_top" xlink:title=" ">
<polygon fill="white" stroke="black" points="1867,-67.5 1867,-86.5 2012,-86.5 2012,-67.5 1867,-67.5"/>
<text text-anchor="middle" x="1939.5" y="-74.5" font-family="Helvetica,sans-Serif" font-size="10.00">net/in6/SocketAddress.cpp</text>
</a>
</g>
</g>
<!-- Node34&#45;&gt;Node59 -->
<g id="edge16" class="edge">
<title>Node34&#45;&gt;Node59</title>
<path fill="none" stroke="midnightblue" d="M1843.74,-119.37C1867.15,-109.26 1899.34,-95.35 1919.79,-86.52"/>
<polygon fill="midnightblue" stroke="midnightblue" points="1842.1,-116.26 1834.31,-123.44 1844.87,-122.69 1842.1,-116.26"/>
</g>
<!-- Node60 -->
<g id="node18" class="node">
<title>Node60</title>
<g id="a_node18"><a xlink:href="net_2in6_2stream_2socket_8h.html" target="_top" xlink:title=" ">
<polygon fill="white" stroke="black" points="1658.5,-67.5 1658.5,-86.5 1790.5,-86.5 1790.5,-67.5 1658.5,-67.5"/>
<text text-anchor="middle" x="1724.5" y="-74.5" font-family="Helvetica,sans-Serif" font-size="10.00">net/in6/stream/Socket.h</text>
</a>
</g>
</g>
<!-- Node34&#45;&gt;Node60 -->
<g id="edge17" class="edge">
<title>Node34&#45;&gt;Node60</title>
<path fill="none" stroke="midnightblue" d="M1791.46,-118.18C1774.9,-108.24 1753.08,-95.15 1738.92,-86.65"/>
<polygon fill="midnightblue" stroke="midnightblue" points="1789.66,-121.18 1800.04,-123.32 1793.27,-115.18 1789.66,-121.18"/>
</g>
<!-- Node36 -->
<g id="node14" class="node">
<title>Node36</title>
<g id="a_node14"><a xlink:href="in6_2config_2_config_address_8cpp.html" target="_top" xlink:title=" ">
<polygon fill="white" stroke="black" points="975,-6 975,-25 1152,-25 1152,-6 975,-6"/>
<text text-anchor="middle" x="1063.5" y="-13" font-family="Helvetica,sans-Serif" font-size="10.00">net/in6/config/ConfigAddress.cpp</text>
</a>
</g>
</g>
<!-- Node35&#45;&gt;Node36 -->
<g id="edge13" class="edge">
<title>Node35&#45;&gt;Node36</title>
<path fill="none" stroke="midnightblue" d="M1283.12,-65.26C1231.13,-53.72 1149.56,-35.61 1101.83,-25.01"/>
<polygon fill="midnightblue" stroke="midnightblue" points="1282.58,-68.72 1293.1,-67.48 1284.1,-61.89 1282.58,-68.72"/>
</g>
<!-- Node37 -->
<g id="node15" class="node">
<title>Node37</title>
<g id="a_node15"><a xlink:href="in6_2stream_2config_2_config_client_socket_8h.html" target="_top" xlink:title=" ">
<polygon fill="white" stroke="red" points="1170,-0.5 1170,-30.5 1291,-30.5 1291,-0.5 1170,-0.5"/>
<text text-anchor="start" x="1178" y="-18.5" font-family="Helvetica,sans-Serif" font-size="10.00">net/in6/stream/config</text>
<text text-anchor="middle" x="1230.5" y="-7.5" font-family="Helvetica,sans-Serif" font-size="10.00">/ConfigClientSocket.h</text>
</a>
</g>
</g>
<!-- Node35&#45;&gt;Node37 -->
<g id="edge14" class="edge">
<title>Node35&#45;&gt;Node37</title>
<path fill="none" stroke="midnightblue" d="M1308.2,-62.28C1292.04,-52.75 1270.58,-40.11 1254.3,-30.52"/>
<polygon fill="midnightblue" stroke="midnightblue" points="1306.64,-65.41 1317.03,-67.48 1310.19,-59.38 1306.64,-65.41"/>
</g>
<!-- Node47 -->
<g id="node16" class="node">
<title>Node47</title>
<g id="a_node16"><a xlink:href="in6_2stream_2config_2_config_server_socket_8h.html" target="_top" xlink:title=" ">
<polygon fill="white" stroke="red" points="1309.5,-0.5 1309.5,-30.5 1433.5,-30.5 1433.5,-0.5 1309.5,-0.5"/>
<text text-anchor="start" x="1317.5" y="-18.5" font-family="Helvetica,sans-Serif" font-size="10.00">net/in6/stream/config</text>
<text text-anchor="middle" x="1371.5" y="-7.5" font-family="Helvetica,sans-Serif" font-size="10.00">/ConfigServerSocket.h</text>
</a>
</g>
</g>
<!-- Node35&#45;&gt;Node47 -->
<g id="edge15" class="edge">
<title>Node35&#45;&gt;Node47</title>
<path fill="none" stroke="midnightblue" d="M1342.95,-58.96C1349.01,-49.96 1356.35,-39.03 1362.07,-30.52"/>
<polygon fill="midnightblue" stroke="midnightblue" points="1339.91,-57.22 1337.23,-67.48 1345.71,-61.13 1339.91,-57.22"/>
</g>
<!-- Node61 -->
<g id="node19" class="node">
<title>Node61</title>
<g id="a_node19"><a xlink:href="in6_2stream_2_client_socket_8h.html" target="_top" xlink:title=" ">
<polygon fill="white" stroke="red" points="1452,-6 1452,-25 1613,-25 1613,-6 1452,-6"/>
<text text-anchor="middle" x="1532.5" y="-13" font-family="Helvetica,sans-Serif" font-size="10.00">net/in6/stream/ClientSocket.h</text>
</a>
</g>
</g>
<!-- Node60&#45;&gt;Node61 -->
<g id="edge18" class="edge">
<title>Node60&#45;&gt;Node61</title>
<path fill="none" stroke="midnightblue" d="M1687.01,-64.38C1649.69,-52.82 1593.3,-35.34 1559.96,-25.01"/>
<polygon fill="midnightblue" stroke="midnightblue" points="1686.4,-67.86 1696.99,-67.48 1688.48,-61.17 1686.4,-67.86"/>
</g>
<!-- Node63 -->
<g id="node20" class="node">
<title>Node63</title>
<g id="a_node20"><a xlink:href="in6_2stream_2_server_socket_8h.html" target="_top" xlink:title=" ">
<polygon fill="white" stroke="red" points="1631.5,-6 1631.5,-25 1795.5,-25 1795.5,-6 1631.5,-6"/>
<text text-anchor="middle" x="1713.5" y="-13" font-family="Helvetica,sans-Serif" font-size="10.00">net/in6/stream/ServerSocket.h</text>
</a>
</g>
</g>
<!-- Node60&#45;&gt;Node63 -->
<g id="edge19" class="edge">
<title>Node60&#45;&gt;Node63</title>
<path fill="none" stroke="midnightblue" d="M1721.05,-57.32C1719.05,-46.5 1716.62,-33.4 1715.07,-25.01"/>
<polygon fill="midnightblue" stroke="midnightblue" points="1717.66,-58.28 1722.92,-67.48 1724.55,-57.01 1717.66,-58.28"/>
</g>
<!-- Node65 -->
<g id="node21" class="node">
<title>Node65</title>
<g id="a_node21"><a xlink:href="net_2in6_2stream_2socket_8cpp.html" target="_top" xlink:title=" ">
<polygon fill="white" stroke="black" points="1814,-6 1814,-25 1957,-25 1957,-6 1814,-6"/>
<text text-anchor="middle" x="1885.5" y="-13" font-family="Helvetica,sans-Serif" font-size="10.00">net/in6/stream/Socket.cpp</text>
</a>
</g>
</g>
<!-- Node60&#45;&gt;Node65 -->
<g id="edge20" class="edge">
<title>Node60&#45;&gt;Node65</title>
<path fill="none" stroke="midnightblue" d="M1757.15,-63.93C1788.44,-52.37 1834.88,-35.21 1862.48,-25.01"/>
<polygon fill="midnightblue" stroke="midnightblue" points="1755.73,-60.73 1747.57,-67.48 1758.16,-67.29 1755.73,-60.73"/>
</g>
<!-- Node67 -->
<g id="node23" class="node">
<title>Node67</title>
<g id="a_node23"><a xlink:href="l2_2config_2_config_address_8h.html" target="_top" xlink:title=" ">
<polygon fill="white" stroke="black" points="2567.5,-67.5 2567.5,-86.5 2727.5,-86.5 2727.5,-67.5 2567.5,-67.5"/>
<text text-anchor="middle" x="2647.5" y="-74.5" font-family="Helvetica,sans-Serif" font-size="10.00">net/l2/config/ConfigAddress.h</text>
</a>
</g>
</g>
<!-- Node66&#45;&gt;Node67 -->
<g id="edge22" class="edge">
<title>Node66&#45;&gt;Node67</title>
<path fill="none" stroke="midnightblue" d="M2341.27,-121.98C2412.3,-111.78 2521.21,-96.14 2588.2,-86.52"/>
<polygon fill="midnightblue" stroke="midnightblue" points="2340.48,-118.56 2331.08,-123.44 2341.47,-125.49 2340.48,-118.56"/>
</g>
<!-- Node85 -->
<g id="node27" class="node">
<title>Node85</title>
<g id="a_node27"><a xlink:href="l2_2_socket_address_8cpp.html" target="_top" xlink:title=" ">
<polygon fill="white" stroke="black" points="2053,-67.5 2053,-86.5 2192,-86.5 2192,-67.5 2053,-67.5"/>
<text text-anchor="middle" x="2122.5" y="-74.5" font-family="Helvetica,sans-Serif" font-size="10.00">net/l2/SocketAddress.cpp</text>
</a>
</g>
</g>
<!-- Node66&#45;&gt;Node85 -->
<g id="edge26" class="edge">
<title>Node66&#45;&gt;Node85</title>
<path fill="none" stroke="midnightblue" d="M2238.13,-119.91C2210.12,-109.75 2170.8,-95.51 2146,-86.52"/>
<polygon fill="midnightblue" stroke="midnightblue" points="2237.3,-123.33 2247.89,-123.44 2239.68,-116.75 2237.3,-123.33"/>
</g>
<!-- Node86 -->
<g id="node28" class="node">
<title>Node86</title>
<g id="a_node28"><a xlink:href="net_2l2_2stream_2socket_8h.html" target="_top" xlink:title=" ">
<polygon fill="white" stroke="black" points="2210.5,-67.5 2210.5,-86.5 2336.5,-86.5 2336.5,-67.5 2210.5,-67.5"/>
<text text-anchor="middle" x="2273.5" y="-74.5" font-family="Helvetica,sans-Serif" font-size="10.00">net/l2/stream/Socket.h</text>
</a>
</g>
</g>
<!-- Node66&#45;&gt;Node86 -->
<g id="edge27" class="edge">
<title>Node66&#45;&gt;Node86</title>
<path fill="none" stroke="midnightblue" d="M2272.21,-112.8C2272.54,-103.91 2272.92,-93.78 2273.18,-86.75"/>
<polygon fill="midnightblue" stroke="midnightblue" points="2268.7,-112.96 2271.83,-123.08 2275.7,-113.22 2268.7,-112.96"/>
</g>
<!-- Node68 -->
<g id="node24" class="node">
<title>Node68</title>
<g id="a_node24"><a xlink:href="l2_2config_2_config_address_8cpp.html" target="_top" xlink:title=" ">
<polygon fill="white" stroke="black" points="2480,-6 2480,-25 2651,-25 2651,-6 2480,-6"/>
<text text-anchor="middle" x="2565.5" y="-13" font-family="Helvetica,sans-Serif" font-size="10.00">net/l2/config/ConfigAddress.cpp</text>
</a>
</g>
</g>
<!-- Node67&#45;&gt;Node68 -->
<g id="edge23" class="edge">
<title>Node67&#45;&gt;Node68</title>
<path fill="none" stroke="midnightblue" d="M2627.23,-61.29C2611.5,-49.88 2590.25,-34.46 2577.23,-25.01"/>
<polygon fill="midnightblue" stroke="midnightblue" points="2625.6,-64.43 2635.75,-67.48 2629.71,-58.77 2625.6,-64.43"/>
</g>
<!-- Node69 -->
<g id="node25" class="node">
<title>Node69</title>
<g id="a_node25"><a xlink:href="l2_2stream_2config_2_config_client_socket_8h.html" target="_top" xlink:title=" ">
<polygon fill="white" stroke="red" points="2669,-0.5 2669,-30.5 2790,-30.5 2790,-0.5 2669,-0.5"/>
<text text-anchor="start" x="2677" y="-18.5" font-family="Helvetica,sans-Serif" font-size="10.00">net/l2/stream/config</text>
<text text-anchor="middle" x="2729.5" y="-7.5" font-family="Helvetica,sans-Serif" font-size="10.00">/ConfigClientSocket.h</text>
</a>
</g>
</g>
<!-- Node67&#45;&gt;Node69 -->
<g id="edge24" class="edge">
<title>Node67&#45;&gt;Node69</title>
<path fill="none" stroke="midnightblue" d="M2667.53,-61.47C2680.51,-52.05 2697.33,-39.84 2710.17,-30.52"/>
<polygon fill="midnightblue" stroke="midnightblue" points="2665.29,-58.77 2659.25,-67.48 2669.4,-64.43 2665.29,-58.77"/>
</g>
<!-- Node77 -->
<g id="node26" class="node">
<title>Node77</title>
<g id="a_node26"><a xlink:href="l2_2stream_2config_2_config_server_socket_8h.html" target="_top" xlink:title=" ">
<polygon fill="white" stroke="red" points="2808.5,-0.5 2808.5,-30.5 2932.5,-30.5 2932.5,-0.5 2808.5,-0.5"/>
<text text-anchor="start" x="2816.5" y="-18.5" font-family="Helvetica,sans-Serif" font-size="10.00">net/l2/stream/config</text>
<text text-anchor="middle" x="2870.5" y="-7.5" font-family="Helvetica,sans-Serif" font-size="10.00">/ConfigServerSocket.h</text>
</a>
</g>
</g>
<!-- Node67&#45;&gt;Node77 -->
<g id="edge25" class="edge">
<title>Node67&#45;&gt;Node77</title>
<path fill="none" stroke="midnightblue" d="M2689.26,-64.86C2725.67,-55.14 2778.66,-41.01 2817.94,-30.52"/>
<polygon fill="midnightblue" stroke="midnightblue" points="2688.21,-61.52 2679.45,-67.48 2690.01,-68.28 2688.21,-61.52"/>
</g>
<!-- Node87 -->
<g id="node29" class="node">
<title>Node87</title>
<g id="a_node29"><a xlink:href="l2_2stream_2_client_socket_8h.html" target="_top" xlink:title=" ">
<polygon fill="white" stroke="red" points="1975,-6 1975,-25 2130,-25 2130,-6 1975,-6"/>
<text text-anchor="middle" x="2052.5" y="-13" font-family="Helvetica,sans-Serif" font-size="10.00">net/l2/stream/ClientSocket.h</text>
</a>
</g>
</g>
<!-- Node86&#45;&gt;Node87 -->
<g id="edge28" class="edge">
<title>Node86&#45;&gt;Node87</title>
<path fill="none" stroke="midnightblue" d="M2231.98,-64.82C2189.05,-53.26 2122.97,-35.47 2084.11,-25.01"/>
<polygon fill="midnightblue" stroke="midnightblue" points="2231.27,-68.25 2241.84,-67.48 2233.09,-61.5 2231.27,-68.25"/>
</g>
<!-- Node89 -->
<g id="node30" class="node">
<title>Node89</title>
<g id="a_node30"><a xlink:href="l2_2stream_2_server_socket_8h.html" target="_top" xlink:title=" ">
<polygon fill="white" stroke="red" points="2148.5,-6 2148.5,-25 2306.5,-25 2306.5,-6 2148.5,-6"/>
<text text-anchor="middle" x="2227.5" y="-13" font-family="Helvetica,sans-Serif" font-size="10.00">net/l2/stream/ServerSocket.h</text>
</a>
</g>
</g>
<!-- Node86&#45;&gt;Node89 -->
<g id="edge29" class="edge">
<title>Node86&#45;&gt;Node89</title>
<path fill="none" stroke="midnightblue" d="M2260.62,-59.34C2251.98,-48.17 2240.97,-33.93 2234.08,-25.01"/>
<polygon fill="midnightblue" stroke="midnightblue" points="2258.02,-61.7 2266.91,-67.48 2263.56,-57.42 2258.02,-61.7"/>
</g>
<!-- Node91 -->
<g id="node31" class="node">
<title>Node91</title>
<g id="a_node31"><a xlink:href="net_2l2_2stream_2socket_8cpp.html" target="_top" xlink:title=" ">
<polygon fill="white" stroke="black" points="2325,-6 2325,-25 2462,-25 2462,-6 2325,-6"/>
<text text-anchor="middle" x="2393.5" y="-13" font-family="Helvetica,sans-Serif" font-size="10.00">net/l2/stream/Socket.cpp</text>
</a>
</g>
</g>
<!-- Node86&#45;&gt;Node91 -->
<g id="edge30" class="edge">
<title>Node86&#45;&gt;Node91</title>
<path fill="none" stroke="midnightblue" d="M2299.68,-63.02C2322.95,-51.48 2356.3,-34.94 2376.34,-25.01"/>
<polygon fill="midnightblue" stroke="midnightblue" points="2298.1,-59.9 2290.69,-67.48 2301.21,-66.17 2298.1,-59.9"/>
</g>
<!-- Node93 -->
<g id="node33" class="node">
<title>Node93</title>
<g id="a_node33"><a xlink:href="rc_2config_2_config_address_8h.html" target="_top" xlink:title=" ">
<polygon fill="white" stroke="black" points="3478.5,-67.5 3478.5,-86.5 3638.5,-86.5 3638.5,-67.5 3478.5,-67.5"/>
<text text-anchor="middle" x="3558.5" y="-74.5" font-family="Helvetica,sans-Serif" font-size="10.00">net/rc/config/ConfigAddress.h</text>
</a>
</g>
</g>
<!-- Node92&#45;&gt;Node93 -->
<g id="edge32" class="edge">
<title>Node92&#45;&gt;Node93</title>
<path fill="none" stroke="midnightblue" d="M2805.18,-127.13C2960.74,-116.98 3318.31,-93.66 3478.42,-83.22"/>
<polygon fill="midnightblue" stroke="midnightblue" points="2804.53,-123.66 2794.78,-127.81 2804.99,-130.65 2804.53,-123.66"/>
</g>
<!-- Node117 -->
<g id="node37" class="node">
<title>Node117</title>
<g id="a_node37"><a xlink:href="rc_2_socket_address_8cpp.html" target="_top" xlink:title=" ">
<polygon fill="white" stroke="black" points="2364,-67.5 2364,-86.5 2503,-86.5 2503,-67.5 2364,-67.5"/>
<text text-anchor="middle" x="2433.5" y="-74.5" font-family="Helvetica,sans-Serif" font-size="10.00">net/rc/SocketAddress.cpp</text>
</a>
</g>
</g>
<!-- Node92&#45;&gt;Node117 -->
<g id="edge36" class="edge">
<title>Node92&#45;&gt;Node117</title>
<path fill="none" stroke="midnightblue" d="M2673.3,-121.6C2617.17,-111.4 2532.6,-96.02 2480.34,-86.52"/>
<polygon fill="midnightblue" stroke="midnightblue" points="2672.97,-125.1 2683.44,-123.44 2674.23,-118.21 2672.97,-125.1"/>
</g>
<!-- Node118 -->
<g id="node38" class="node">
<title>Node118</title>
<g id="a_node38"><a xlink:href="net_2rc_2stream_2socket_8h.html" target="_top" xlink:title=" ">
<polygon fill="white" stroke="black" points="3052.5,-67.5 3052.5,-86.5 3178.5,-86.5 3178.5,-67.5 3052.5,-67.5"/>
<text text-anchor="middle" x="3115.5" y="-74.5" font-family="Helvetica,sans-Serif" font-size="10.00">net/rc/stream/Socket.h</text>
</a>
</g>
</g>
<!-- Node92&#45;&gt;Node118 -->
<g id="edge37" class="edge">
<title>Node92&#45;&gt;Node118</title>
<path fill="none" stroke="midnightblue" d="M2801.5,-122.04C2874.21,-111.84 2986.05,-96.16 3054.78,-86.52"/>
<polygon fill="midnightblue" stroke="midnightblue" points="2800.92,-118.59 2791.5,-123.44 2801.89,-125.52 2800.92,-118.59"/>
</g>
<!-- Node94 -->
<g id="node34" class="node">
<title>Node94</title>
<g id="a_node34"><a xlink:href="rc_2config_2_config_address_8cpp.html" target="_top" xlink:title=" ">
<polygon fill="white" stroke="black" points="3456,-6 3456,-25 3627,-25 3627,-6 3456,-6"/>
<text text-anchor="middle" x="3541.5" y="-13" font-family="Helvetica,sans-Serif" font-size="10.00">net/rc/config/ConfigAddress.cpp</text>
</a>
</g>
</g>
<!-- Node93&#45;&gt;Node94 -->
<g id="edge33" class="edge">
<title>Node93&#45;&gt;Node94</title>
<path fill="none" stroke="midnightblue" d="M3553.26,-57.66C3550.15,-46.77 3546.35,-33.49 3543.93,-25.01"/>
<polygon fill="midnightblue" stroke="midnightblue" points="3549.95,-58.82 3556.06,-67.48 3556.68,-56.9 3549.95,-58.82"/>
</g>
<!-- Node95 -->
<g id="node35" class="node">
<title>Node95</title>
<g id="a_node35"><a xlink:href="rc_2stream_2config_2_config_client_socket_8h.html" target="_top" xlink:title=" ">
<polygon fill="white" stroke="red" points="3645,-0.5 3645,-30.5 3766,-30.5 3766,-0.5 3645,-0.5"/>
<text text-anchor="start" x="3653" y="-18.5" font-family="Helvetica,sans-Serif" font-size="10.00">net/rc/stream/config</text>
<text text-anchor="middle" x="3705.5" y="-7.5" font-family="Helvetica,sans-Serif" font-size="10.00">/ConfigClientSocket.h</text>
</a>
</g>
</g>
<!-- Node93&#45;&gt;Node95 -->
<g id="edge34" class="edge">
<title>Node93&#45;&gt;Node95</title>
<path fill="none" stroke="midnightblue" d="M3588.84,-63.72C3612.7,-54.06 3645.95,-40.6 3670.86,-30.52"/>
<polygon fill="midnightblue" stroke="midnightblue" points="3587.52,-60.48 3579.56,-67.48 3590.14,-66.97 3587.52,-60.48"/>
</g>
<!-- Node105 -->
<g id="node36" class="node">
<title>Node105</title>
<g id="a_node36"><a xlink:href="rc_2stream_2config_2_config_server_socket_8h.html" target="_top" xlink:title=" ">
<polygon fill="white" stroke="red" points="3784.5,-0.5 3784.5,-30.5 3908.5,-30.5 3908.5,-0.5 3784.5,-0.5"/>
<text text-anchor="start" x="3792.5" y="-18.5" font-family="Helvetica,sans-Serif" font-size="10.00">net/rc/stream/config</text>
<text text-anchor="middle" x="3846.5" y="-7.5" font-family="Helvetica,sans-Serif" font-size="10.00">/ConfigServerSocket.h</text>
</a>
</g>
</g>
<!-- Node93&#45;&gt;Node105 -->
<g id="edge35" class="edge">
<title>Node93&#45;&gt;Node105</title>
<path fill="none" stroke="midnightblue" d="M3609.79,-65.4C3658.64,-55.31 3732.23,-40.11 3784.37,-29.34"/>
<polygon fill="midnightblue" stroke="midnightblue" points="3608.85,-62.02 3599.76,-67.48 3610.26,-68.88 3608.85,-62.02"/>
</g>
<!-- Node119 -->
<g id="node39" class="node">
<title>Node119</title>
<g id="a_node39"><a xlink:href="rc_2stream_2_client_socket_8h.html" target="_top" xlink:title=" ">
<polygon fill="white" stroke="red" points="2951,-6 2951,-25 3106,-25 3106,-6 2951,-6"/>
<text text-anchor="middle" x="3028.5" y="-13" font-family="Helvetica,sans-Serif" font-size="10.00">net/rc/stream/ClientSocket.h</text>
</a>
</g>
</g>
<!-- Node118&#45;&gt;Node119 -->
<g id="edge38" class="edge">
<title>Node118&#45;&gt;Node119</title>
<path fill="none" stroke="midnightblue" d="M3094.46,-61.61C3077.73,-50.17 3054.89,-34.55 3040.94,-25.01"/>
<polygon fill="midnightblue" stroke="midnightblue" points="3092.8,-64.72 3103.04,-67.48 3096.76,-58.94 3092.8,-64.72"/>
</g>
<!-- Node121 -->
<g id="node40" class="node">
<title>Node121</title>
<g id="a_node40"><a xlink:href="rc_2stream_2_server_socket_8h.html" target="_top" xlink:title=" ">
<polygon fill="white" stroke="red" points="3124.5,-6 3124.5,-25 3282.5,-25 3282.5,-6 3124.5,-6"/>
<text text-anchor="middle" x="3203.5" y="-13" font-family="Helvetica,sans-Serif" font-size="10.00">net/rc/stream/ServerSocket.h</text>
</a>
</g>
</g>
<!-- Node118&#45;&gt;Node121 -->
<g id="edge39" class="edge">
<title>Node118&#45;&gt;Node121</title>
<path fill="none" stroke="midnightblue" d="M3136.78,-61.61C3153.7,-50.17 3176.81,-34.55 3190.92,-25.01"/>
<polygon fill="midnightblue" stroke="midnightblue" points="3134.43,-58.97 3128.11,-67.48 3138.35,-64.77 3134.43,-58.97"/>
</g>
<!-- Node123 -->
<g id="node41" class="node">
<title>Node123</title>
<g id="a_node41"><a xlink:href="net_2rc_2stream_2socket_8cpp.html" target="_top" xlink:title=" ">
<polygon fill="white" stroke="black" points="3301,-6 3301,-25 3438,-25 3438,-6 3301,-6"/>
<text text-anchor="middle" x="3369.5" y="-13" font-family="Helvetica,sans-Serif" font-size="10.00">net/rc/stream/Socket.cpp</text>
</a>
</g>
</g>
<!-- Node118&#45;&gt;Node123 -->
<g id="edge40" class="edge">
<title>Node118&#45;&gt;Node123</title>
<path fill="none" stroke="midnightblue" d="M3161.66,-65.19C3210.95,-53.64 3288.03,-35.58 3333.18,-25.01"/>
<polygon fill="midnightblue" stroke="midnightblue" points="3160.83,-61.79 3151.89,-67.48 3162.43,-68.6 3160.83,-61.79"/>
</g>
<!-- Node124&#45;&gt;Node27 -->
<g id="edge42" class="edge">
<title>Node124&#45;&gt;Node27</title>
<path fill="none" stroke="midnightblue" d="M2048.98,-128.46C1841.44,-118.59 1258.82,-90.9 1057.2,-81.31"/>
<polygon fill="midnightblue" stroke="midnightblue" points="2049.01,-131.96 2059.17,-128.94 2049.35,-124.97 2049.01,-131.96"/>
</g>
<!-- Node124&#45;&gt;Node59 -->
<g id="edge43" class="edge">
<title>Node124&#45;&gt;Node59</title>
<path fill="none" stroke="midnightblue" d="M2084.55,-120.57C2049.84,-110.38 1999.82,-95.7 1968.52,-86.52"/>
<polygon fill="midnightblue" stroke="midnightblue" points="2083.76,-123.99 2094.34,-123.44 2085.73,-117.27 2083.76,-123.99"/>
</g>
<!-- Node124&#45;&gt;Node85 -->
<g id="edge44" class="edge">
<title>Node124&#45;&gt;Node85</title>
<path fill="none" stroke="midnightblue" d="M2123.14,-112.8C2122.98,-103.91 2122.79,-93.78 2122.66,-86.75"/>
<polygon fill="midnightblue" stroke="midnightblue" points="2119.65,-113.15 2123.33,-123.08 2126.65,-113.02 2119.65,-113.15"/>
</g>
<!-- Node124&#45;&gt;Node117 -->
<g id="edge45" class="edge">
<title>Node124&#45;&gt;Node117</title>
<path fill="none" stroke="midnightblue" d="M2182.84,-121.66C2241.42,-111.46 2329.95,-96.04 2384.61,-86.52"/>
<polygon fill="midnightblue" stroke="midnightblue" points="2181.87,-118.28 2172.62,-123.44 2183.07,-125.18 2181.87,-118.28"/>
</g>
<!-- Node125 -->
<g id="node43" class="node">
<title>Node125</title>
<g id="a_node43"><a xlink:href="un_2_socket_address_8cpp.html" target="_top" xlink:title=" ">
<polygon fill="white" stroke="black" points="3692.5,-67.5 3692.5,-86.5 3834.5,-86.5 3834.5,-67.5 3692.5,-67.5"/>
<text text-anchor="middle" x="3763.5" y="-74.5" font-family="Helvetica,sans-Serif" font-size="10.00">net/un/SocketAddress.cpp</text>
</a>
</g>
</g>
<!-- Node124&#45;&gt;Node125 -->
<g id="edge46" class="edge">
<title>Node124&#45;&gt;Node125</title>
<path fill="none" stroke="midnightblue" d="M2197.84,-123.05C2198.06,-123.03 2198.28,-123.02 2198.5,-123 2841.02,-76.57 3004.14,-119.93 3647.5,-87 3662.02,-86.26 3677.55,-85.22 3692.38,-84.11"/>
<polygon fill="midnightblue" stroke="midnightblue" points="2197.37,-119.57 2187.7,-123.89 2197.95,-126.55 2197.37,-119.57"/>
</g>
<!-- Node126&#45;&gt;Node125 -->
<g id="edge52" class="edge">
<title>Node126&#45;&gt;Node125</title>
<path fill="none" stroke="midnightblue" d="M3847.49,-118.86C3826.91,-108.85 3799.16,-95.35 3781.29,-86.65"/>
<polygon fill="midnightblue" stroke="midnightblue" points="3846.14,-122.1 3856.67,-123.32 3849.2,-115.8 3846.14,-122.1"/>
</g>
<!-- Node127 -->
<g id="node45" class="node">
<title>Node127</title>
<g id="a_node45"><a xlink:href="un_2config_2_config_address_8h.html" target="_top" xlink:title=" ">
<polygon fill="white" stroke="black" points="4102,-67.5 4102,-86.5 4265,-86.5 4265,-67.5 4102,-67.5"/>
<text text-anchor="middle" x="4183.5" y="-74.5" font-family="Helvetica,sans-Serif" font-size="10.00">net/un/config/ConfigAddress.h</text>
</a>
</g>
</g>
<!-- Node126&#45;&gt;Node127 -->
<g id="edge48" class="edge">
<title>Node126&#45;&gt;Node127</title>
<path fill="none" stroke="midnightblue" d="M3933.64,-121.66C3992.04,-111.46 4080.28,-96.04 4134.77,-86.52"/>
<polygon fill="midnightblue" stroke="midnightblue" points="3932.71,-118.27 3923.46,-123.44 3933.92,-125.17 3932.71,-118.27"/>
</g>
<!-- Node151 -->
<g id="node49" class="node">
<title>Node151</title>
<g id="a_node49"><a xlink:href="net_2un_2stream_2socket_8h.html" target="_top" xlink:title=" ">
<polygon fill="white" stroke="red" points="3921,-67.5 3921,-86.5 4050,-86.5 4050,-67.5 3921,-67.5"/>
<text text-anchor="middle" x="3985.5" y="-74.5" font-family="Helvetica,sans-Serif" font-size="10.00">net/un/stream/Socket.h</text>
</a>
</g>
</g>
<!-- Node126&#45;&gt;Node151 -->
<g id="edge53" class="edge">
<title>Node126&#45;&gt;Node151</title>
<path fill="none" stroke="midnightblue" d="M3901.51,-118.86C3922.09,-108.85 3949.84,-95.35 3967.71,-86.65"/>
<polygon fill="midnightblue" stroke="midnightblue" points="3899.8,-115.8 3892.33,-123.32 3902.86,-122.1 3899.8,-115.8"/>
</g>
<!-- Node128 -->
<g id="node46" class="node">
<title>Node128</title>
<g id="a_node46"><a xlink:href="un_2config_2_config_address_8cpp.html" target="_top" xlink:title=" ">
<polygon fill="white" stroke="black" points="4244.5,-6 4244.5,-25 4418.5,-25 4418.5,-6 4244.5,-6"/>
<text text-anchor="middle" x="4331.5" y="-13" font-family="Helvetica,sans-Serif" font-size="10.00">net/un/config/ConfigAddress.cpp</text>
</a>
</g>
</g>
<!-- Node127&#45;&gt;Node128 -->
<g id="edge49" class="edge">
<title>Node127&#45;&gt;Node128</title>
<path fill="none" stroke="midnightblue" d="M4214.27,-63.63C4243.02,-52.07 4285.18,-35.12 4310.33,-25.01"/>
<polygon fill="midnightblue" stroke="midnightblue" points="4212.68,-60.5 4204.7,-67.48 4215.29,-66.99 4212.68,-60.5"/>
</g>
<!-- Node129 -->
<g id="node47" class="node">
<title>Node129</title>
<g id="a_node47"><a xlink:href="un_2stream_2config_2_config_client_socket_8h.html" target="_top" xlink:title=" ">
<polygon fill="white" stroke="red" points="4437,-0.5 4437,-30.5 4558,-30.5 4558,-0.5 4437,-0.5"/>
<text text-anchor="start" x="4445" y="-18.5" font-family="Helvetica,sans-Serif" font-size="10.00">net/un/stream/config</text>
<text text-anchor="middle" x="4497.5" y="-7.5" font-family="Helvetica,sans-Serif" font-size="10.00">/ConfigClientSocket.h</text>
</a>
</g>
</g>
<!-- Node127&#45;&gt;Node129 -->
<g id="edge50" class="edge">
<title>Node127&#45;&gt;Node129</title>
<path fill="none" stroke="midnightblue" d="M4241.59,-65.66C4291.07,-56.76 4364.02,-43.43 4427.5,-31 4430.54,-30.4 4433.66,-29.79 4436.81,-29.16"/>
<polygon fill="midnightblue" stroke="midnightblue" points="4240.93,-62.22 4231.71,-67.43 4242.17,-69.11 4240.93,-62.22"/>
</g>
<!-- Node139 -->
<g id="node48" class="node">
<title>Node139</title>
<g id="a_node48"><a xlink:href="un_2stream_2config_2_config_server_socket_8h.html" target="_top" xlink:title=" ">
<polygon fill="white" stroke="red" points="4102.5,-0.5 4102.5,-30.5 4226.5,-30.5 4226.5,-0.5 4102.5,-0.5"/>
<text text-anchor="start" x="4110.5" y="-18.5" font-family="Helvetica,sans-Serif" font-size="10.00">net/un/stream/config</text>
<text text-anchor="middle" x="4164.5" y="-7.5" font-family="Helvetica,sans-Serif" font-size="10.00">/ConfigServerSocket.h</text>
</a>
</g>
</g>
<!-- Node127&#45;&gt;Node139 -->
<g id="edge51" class="edge">
<title>Node127&#45;&gt;Node139</title>
<path fill="none" stroke="midnightblue" d="M4177.69,-57.82C4174.89,-49.04 4171.58,-38.68 4168.98,-30.52"/>
<polygon fill="midnightblue" stroke="midnightblue" points="4174.4,-59.01 4180.78,-67.48 4181.07,-56.88 4174.4,-59.01"/>
</g>
<!-- Node152 -->
<g id="node50" class="node">
<title>Node152</title>
<g id="a_node50"><a xlink:href="un_2stream_2_client_socket_8h.html" target="_top" xlink:title=" ">
<polygon fill="white" stroke="red" points="3926.5,-6 3926.5,-25 4084.5,-25 4084.5,-6 3926.5,-6"/>
<text text-anchor="middle" x="4005.5" y="-13" font-family="Helvetica,sans-Serif" font-size="10.00">net/un/stream/ClientSocket.h</text>
</a>
</g>
</g>
<!-- Node151&#45;&gt;Node152 -->
<g id="edge54" class="edge">
<title>Node151&#45;&gt;Node152</title>
<path fill="none" stroke="midnightblue" d="M3991.67,-57.66C3995.32,-46.77 3999.79,-33.49 4002.64,-25.01"/>
<polygon fill="midnightblue" stroke="midnightblue" points="3988.23,-56.88 3988.37,-67.48 3994.87,-59.11 3988.23,-56.88"/>
</g>
</g>
</svg>
