<?xml version="1.0" encoding="UTF-8" standalone="no"?>
<!DOCTYPE svg PUBLIC "-//W3C//DTD SVG 1.1//EN"
 "http://www.w3.org/Graphics/SVG/1.1/DTD/svg11.dtd">
<!-- Generated by graphviz version 2.43.0 (0)
 -->
<!-- Title: web/websocket/SubProtocol.h Pages: 1 -->
<svg width="758pt" height="162pt"
 viewBox="0.00 0.00 757.50 162.00" xmlns="http://www.w3.org/2000/svg" xmlns:xlink="http://www.w3.org/1999/xlink">
<g id="graph0" class="graph" transform="scale(1 1) rotate(0) translate(4 158)">
<title>web/websocket/SubProtocol.h</title>
<polygon fill="white" stroke="transparent" points="-4,4 -4,-158 753.5,-158 753.5,4 -4,4"/>
<!-- Node1 -->
<g id="node1" class="node">
<title>Node1</title>
<g id="a_node1"><a xlink:title=" ">
<polygon fill="#bfbfbf" stroke="black" points="221.5,-134.5 221.5,-153.5 382.5,-153.5 382.5,-134.5 221.5,-134.5"/>
<text text-anchor="middle" x="302" y="-141.5" font-family="Helvetica,sans-Serif" font-size="10.00">web/websocket/SubProtocol.h</text>
</a>
</g>
</g>
<!-- Node2 -->
<g id="node2" class="node">
<title>Node2</title>
<g id="a_node2"><a xlink:href="client_2_sub_protocol_8h.html" target="_top" xlink:title=" ">
<polygon fill="white" stroke="black" points="170,-67.5 170,-97.5 292,-97.5 292,-67.5 170,-67.5"/>
<text text-anchor="start" x="178" y="-85.5" font-family="Helvetica,sans-Serif" font-size="10.00">web/websocket/client</text>
<text text-anchor="middle" x="231" y="-74.5" font-family="Helvetica,sans-Serif" font-size="10.00">/SubProtocol.h</text>
</a>
</g>
</g>
<!-- Node1&#45;&gt;Node2 -->
<g id="edge1" class="edge">
<title>Node1&#45;&gt;Node2</title>
<path fill="none" stroke="midnightblue" d="M284.01,-127.92C272.86,-118.58 258.64,-106.66 247.73,-97.52"/>
<polygon fill="midnightblue" stroke="midnightblue" points="281.91,-130.73 291.83,-134.48 286.41,-125.37 281.91,-130.73"/>
</g>
<!-- Node5 -->
<g id="node5" class="node">
<title>Node5</title>
<g id="a_node5"><a xlink:href="server_2_sub_protocol_8h.html" target="_top" xlink:title=" ">
<polygon fill="white" stroke="black" points="388.5,-67.5 388.5,-97.5 513.5,-97.5 513.5,-67.5 388.5,-67.5"/>
<text text-anchor="start" x="396.5" y="-85.5" font-family="Helvetica,sans-Serif" font-size="10.00">web/websocket/server</text>
<text text-anchor="middle" x="451" y="-74.5" font-family="Helvetica,sans-Serif" font-size="10.00">/SubProtocol.h</text>
</a>
</g>
</g>
<!-- Node1&#45;&gt;Node5 -->
<g id="edge4" class="edge">
<title>Node1&#45;&gt;Node5</title>
<path fill="none" stroke="midnightblue" d="M332.75,-130.72C356.94,-121.06 390.64,-107.6 415.88,-97.52"/>
<polygon fill="midnightblue" stroke="midnightblue" points="331.34,-127.52 323.35,-134.48 333.93,-134.02 331.34,-127.52"/>
</g>
<!-- Node3 -->
<g id="node3" class="node">
<title>Node3</title>
<g id="a_node3"><a xlink:href="client_2_socket_context_upgrade_8cpp.html" target="_top" xlink:title=" ">
<polygon fill="white" stroke="black" points="0,-0.5 0,-30.5 152,-30.5 152,-0.5 0,-0.5"/>
<text text-anchor="start" x="8" y="-18.5" font-family="Helvetica,sans-Serif" font-size="10.00">web/websocket/client</text>
<text text-anchor="middle" x="76" y="-7.5" font-family="Helvetica,sans-Serif" font-size="10.00">/SocketContextUpgrade.cpp</text>
</a>
</g>
</g>
<!-- Node2&#45;&gt;Node3 -->
<g id="edge2" class="edge">
<title>Node2&#45;&gt;Node3</title>
<path fill="none" stroke="midnightblue" d="M187.85,-63.41C163.11,-53.03 132.5,-40.2 109.57,-30.58"/>
<polygon fill="midnightblue" stroke="midnightblue" points="186.79,-66.76 197.37,-67.4 189.5,-60.3 186.79,-66.76"/>
</g>
<!-- Node4 -->
<g id="node4" class="node">
<title>Node4</title>
<g id="a_node4"><a xlink:href="client_2_sub_protocol_8cpp.html" target="_top" xlink:title=" ">
<polygon fill="white" stroke="black" points="170,-0.5 170,-30.5 292,-30.5 292,-0.5 170,-0.5"/>
<text text-anchor="start" x="178" y="-18.5" font-family="Helvetica,sans-Serif" font-size="10.00">web/websocket/client</text>
<text text-anchor="middle" x="231" y="-7.5" font-family="Helvetica,sans-Serif" font-size="10.00">/SubProtocol.cpp</text>
</a>
</g>
</g>
<!-- Node2&#45;&gt;Node4 -->
<g id="edge3" class="edge">
<title>Node2&#45;&gt;Node4</title>
<path fill="none" stroke="midnightblue" d="M231,-57.11C231,-48.15 231,-38.32 231,-30.58"/>
<polygon fill="midnightblue" stroke="midnightblue" points="227.5,-57.4 231,-67.4 234.5,-57.4 227.5,-57.4"/>
</g>
<!-- Node6 -->
<g id="node6" class="node">
<title>Node6</title>
<g id="a_node6"><a xlink:href="_groups_manager_8cpp.html" target="_top" xlink:title=" ">
<polygon fill="white" stroke="black" points="310.5,-0.5 310.5,-30.5 435.5,-30.5 435.5,-0.5 310.5,-0.5"/>
<text text-anchor="start" x="318.5" y="-18.5" font-family="Helvetica,sans-Serif" font-size="10.00">web/websocket/server</text>
<text text-anchor="middle" x="373" y="-7.5" font-family="Helvetica,sans-Serif" font-size="10.00">/GroupsManager.cpp</text>
</a>
</g>
</g>
<!-- Node5&#45;&gt;Node6 -->
<g id="edge5" class="edge">
<title>Node5&#45;&gt;Node6</title>
<path fill="none" stroke="midnightblue" d="M426.26,-60.88C414.41,-51.01 400.52,-39.43 389.89,-30.58"/>
<polygon fill="midnightblue" stroke="midnightblue" points="424.15,-63.68 434.08,-67.4 428.63,-58.31 424.15,-63.68"/>
</g>
<!-- Node7 -->
<g id="node7" class="node">
<title>Node7</title>
<g id="a_node7"><a xlink:href="server_2_socket_context_upgrade_8cpp.html" target="_top" xlink:title=" ">
<polygon fill="white" stroke="black" points="454,-0.5 454,-30.5 606,-30.5 606,-0.5 454,-0.5"/>
<text text-anchor="start" x="462" y="-18.5" font-family="Helvetica,sans-Serif" font-size="10.00">web/websocket/server</text>
<text text-anchor="middle" x="530" y="-7.5" font-family="Helvetica,sans-Serif" font-size="10.00">/SocketContextUpgrade.cpp</text>
</a>
</g>
</g>
<!-- Node5&#45;&gt;Node7 -->
<g id="edge6" class="edge">
<title>Node5&#45;&gt;Node7</title>
<path fill="none" stroke="midnightblue" d="M476.06,-60.88C488.06,-51.01 502.13,-39.43 512.89,-30.58"/>
<polygon fill="midnightblue" stroke="midnightblue" points="473.64,-58.34 468.14,-67.4 478.09,-63.75 473.64,-58.34"/>
</g>
<!-- Node8 -->
<g id="node8" class="node">
<title>Node8</title>
<g id="a_node8"><a xlink:href="server_2_sub_protocol_8cpp.html" target="_top" xlink:title=" ">
<polygon fill="white" stroke="black" points="624.5,-0.5 624.5,-30.5 749.5,-30.5 749.5,-0.5 624.5,-0.5"/>
<text text-anchor="start" x="632.5" y="-18.5" font-family="Helvetica,sans-Serif" font-size="10.00">web/websocket/server</text>
<text text-anchor="middle" x="687" y="-7.5" font-family="Helvetica,sans-Serif" font-size="10.00">/SubProtocol.cpp</text>
</a>
</g>
</g>
<!-- Node5&#45;&gt;Node8 -->
<g id="edge7" class="edge">
<title>Node5&#45;&gt;Node8</title>
<path fill="none" stroke="midnightblue" d="M511.94,-64.71C550.35,-54.14 599.37,-40.63 635.77,-30.61"/>
<polygon fill="midnightblue" stroke="midnightblue" points="510.63,-61.45 501.92,-67.48 512.49,-68.19 510.63,-61.45"/>
</g>
</g>
</svg>
