<?xml version="1.0" encoding="UTF-8" standalone="no"?>
<!DOCTYPE svg PUBLIC "-//W3C//DTD SVG 1.1//EN"
 "http://www.w3.org/Graphics/SVG/1.1/DTD/svg11.dtd">
<!-- Generated by graphviz version 2.43.0 (0)
 -->
<!-- Title: core/socket/stream/tls/TLSShutdown.h Pages: 1 -->
<svg width="2632pt" height="430pt"
 viewBox="0.00 0.00 2632.00 430.00" xmlns="http://www.w3.org/2000/svg" xmlns:xlink="http://www.w3.org/1999/xlink">
<g id="graph0" class="graph" transform="scale(1 1) rotate(0) translate(4 426)">
<title>core/socket/stream/tls/TLSShutdown.h</title>
<polygon fill="white" stroke="transparent" points="-4,4 -4,-426 2628,-426 2628,4 -4,4"/>
<!-- Node1 -->
<g id="node1" class="node">
<title>Node1</title>
<g id="a_node1"><a xlink:title=" ">
<polygon fill="#bfbfbf" stroke="black" points="1094,-391.5 1094,-421.5 1204,-421.5 1204,-391.5 1094,-391.5"/>
<text text-anchor="start" x="1102" y="-409.5" font-family="Helvetica,sans-Serif" font-size="10.00">core/socket/stream</text>
<text text-anchor="middle" x="1149" y="-398.5" font-family="Helvetica,sans-Serif" font-size="10.00">/tls/TLSShutdown.h</text>
</a>
</g>
</g>
<!-- Node2 -->
<g id="node2" class="node">
<title>Node2</title>
<g id="a_node2"><a xlink:href="stream_2tls_2_socket_connection_8h.html" target="_top" xlink:title=" ">
<polygon fill="white" stroke="black" points="1011.5,-324.5 1011.5,-354.5 1142.5,-354.5 1142.5,-324.5 1011.5,-324.5"/>
<text text-anchor="start" x="1019.5" y="-342.5" font-family="Helvetica,sans-Serif" font-size="10.00">core/socket/stream</text>
<text text-anchor="middle" x="1077" y="-331.5" font-family="Helvetica,sans-Serif" font-size="10.00">/tls/SocketConnection.h</text>
</a>
</g>
</g>
<!-- Node1&#45;&gt;Node2 -->
<g id="edge1" class="edge">
<title>Node1&#45;&gt;Node2</title>
<path fill="none" stroke="midnightblue" d="M1125.85,-384.6C1114.98,-374.78 1102.3,-363.34 1092.59,-354.58"/>
<polygon fill="midnightblue" stroke="midnightblue" points="1123.61,-387.29 1133.38,-391.4 1128.3,-382.1 1123.61,-387.29"/>
</g>
<!-- Node39 -->
<g id="node39" class="node">
<title>Node39</title>
<g id="a_node39"><a xlink:href="_t_l_s_shutdown_8cpp.html" target="_top" xlink:title=" ">
<polygon fill="white" stroke="black" points="1161,-324.5 1161,-354.5 1281,-354.5 1281,-324.5 1161,-324.5"/>
<text text-anchor="start" x="1169" y="-342.5" font-family="Helvetica,sans-Serif" font-size="10.00">core/socket/stream</text>
<text text-anchor="middle" x="1221" y="-331.5" font-family="Helvetica,sans-Serif" font-size="10.00">/tls/TLSShutdown.cpp</text>
</a>
</g>
</g>
<!-- Node1&#45;&gt;Node39 -->
<g id="edge38" class="edge">
<title>Node1&#45;&gt;Node39</title>
<path fill="none" stroke="midnightblue" d="M1172.15,-384.6C1183.02,-374.78 1195.7,-363.34 1205.41,-354.58"/>
<polygon fill="midnightblue" stroke="midnightblue" points="1169.7,-382.1 1164.62,-391.4 1174.39,-387.29 1169.7,-382.1"/>
</g>
<!-- Node3 -->
<g id="node3" class="node">
<title>Node3</title>
<g id="a_node3"><a xlink:href="tls_2_socket_acceptor_8h.html" target="_top" xlink:title=" ">
<polygon fill="white" stroke="black" points="947.5,-257.5 947.5,-287.5 1066.5,-287.5 1066.5,-257.5 947.5,-257.5"/>
<text text-anchor="start" x="955.5" y="-275.5" font-family="Helvetica,sans-Serif" font-size="10.00">core/socket/stream</text>
<text text-anchor="middle" x="1007" y="-264.5" font-family="Helvetica,sans-Serif" font-size="10.00">/tls/SocketAcceptor.h</text>
</a>
</g>
</g>
<!-- Node2&#45;&gt;Node3 -->
<g id="edge2" class="edge">
<title>Node2&#45;&gt;Node3</title>
<path fill="none" stroke="midnightblue" d="M1054.18,-317.31C1043.68,-307.56 1031.51,-296.26 1022.16,-287.58"/>
<polygon fill="midnightblue" stroke="midnightblue" points="1052.1,-320.16 1061.81,-324.4 1056.86,-315.03 1052.1,-320.16"/>
</g>
<!-- Node23 -->
<g id="node23" class="node">
<title>Node23</title>
<g id="a_node23"><a xlink:href="tls_2_socket_connector_8h.html" target="_top" xlink:title=" ">
<polygon fill="white" stroke="black" points="1599.5,-257.5 1599.5,-287.5 1724.5,-287.5 1724.5,-257.5 1599.5,-257.5"/>
<text text-anchor="start" x="1607.5" y="-275.5" font-family="Helvetica,sans-Serif" font-size="10.00">core/socket/stream</text>
<text text-anchor="middle" x="1662" y="-264.5" font-family="Helvetica,sans-Serif" font-size="10.00">/tls/SocketConnector.h</text>
</a>
</g>
</g>
<!-- Node2&#45;&gt;Node23 -->
<g id="edge22" class="edge">
<title>Node2&#45;&gt;Node23</title>
<path fill="none" stroke="midnightblue" d="M1152.76,-323.98C1319.86,-299.99 1504.81,-284.78 1599.36,-277.83"/>
<polygon fill="midnightblue" stroke="midnightblue" points="1152.19,-320.53 1142.79,-325.42 1153.19,-327.45 1152.19,-320.53"/>
</g>
<!-- Node4 -->
<g id="node4" class="node">
<title>Node4</title>
<g id="a_node4"><a xlink:href="core_2socket_2stream_2tls_2_socket_server_8h.html" target="_top" xlink:title=" ">
<polygon fill="white" stroke="black" points="660,-190.5 660,-220.5 770,-220.5 770,-190.5 660,-190.5"/>
<text text-anchor="start" x="668" y="-208.5" font-family="Helvetica,sans-Serif" font-size="10.00">core/socket/stream</text>
<text text-anchor="middle" x="715" y="-197.5" font-family="Helvetica,sans-Serif" font-size="10.00">/tls/SocketServer.h</text>
</a>
</g>
</g>
<!-- Node3&#45;&gt;Node4 -->
<g id="edge3" class="edge">
<title>Node3&#45;&gt;Node4</title>
<path fill="none" stroke="midnightblue" d="M937.22,-255.97C886.09,-244.59 817.63,-229.35 770.27,-218.8"/>
<polygon fill="midnightblue" stroke="midnightblue" points="936.68,-259.43 947.2,-258.19 938.2,-252.6 936.68,-259.43"/>
</g>
<!-- Node5 -->
<g id="node5" class="node">
<title>Node5</title>
<g id="a_node5"><a xlink:href="net_2in_2stream_2tls_2_socket_server_8h.html" target="_top" xlink:title=" ">
<polygon fill="white" stroke="black" points="149,-123.5 149,-153.5 281,-153.5 281,-123.5 149,-123.5"/>
<text text-anchor="start" x="157" y="-141.5" font-family="Helvetica,sans-Serif" font-size="10.00">net/in/stream/tls/Socket</text>
<text text-anchor="middle" x="215" y="-130.5" font-family="Helvetica,sans-Serif" font-size="10.00">Server.h</text>
</a>
</g>
</g>
<!-- Node4&#45;&gt;Node5 -->
<g id="edge4" class="edge">
<title>Node4&#45;&gt;Node5</title>
<path fill="none" stroke="midnightblue" d="M649.47,-195.98C553.93,-183.56 377.36,-160.61 281.36,-148.13"/>
<polygon fill="midnightblue" stroke="midnightblue" points="649.21,-199.48 659.58,-197.3 650.12,-192.54 649.21,-199.48"/>
</g>
<!-- Node9 -->
<g id="node9" class="node">
<title>Node9</title>
<g id="a_node9"><a xlink:href="net_2in6_2stream_2tls_2_socket_server_8h.html" target="_top" xlink:title=" ">
<polygon fill="white" stroke="black" points="436.5,-123.5 436.5,-153.5 539.5,-153.5 539.5,-123.5 436.5,-123.5"/>
<text text-anchor="start" x="444.5" y="-141.5" font-family="Helvetica,sans-Serif" font-size="10.00">net/in6/stream/tls</text>
<text text-anchor="middle" x="488" y="-130.5" font-family="Helvetica,sans-Serif" font-size="10.00">/SocketServer.h</text>
</a>
</g>
</g>
<!-- Node4&#45;&gt;Node9 -->
<g id="edge8" class="edge">
<title>Node4&#45;&gt;Node9</title>
<path fill="none" stroke="midnightblue" d="M656.38,-187.71C619.44,-177.14 572.29,-163.63 537.28,-153.61"/>
<polygon fill="midnightblue" stroke="midnightblue" points="655.45,-191.09 666.02,-190.48 657.37,-184.36 655.45,-191.09"/>
</g>
<!-- Node13 -->
<g id="node13" class="node">
<title>Node13</title>
<g id="a_node13"><a xlink:href="net_2l2_2stream_2tls_2_socket_server_8h.html" target="_top" xlink:title=" ">
<polygon fill="white" stroke="black" points="574,-123.5 574,-153.5 706,-153.5 706,-123.5 574,-123.5"/>
<text text-anchor="start" x="582" y="-141.5" font-family="Helvetica,sans-Serif" font-size="10.00">net/l2/stream/tls/Socket</text>
<text text-anchor="middle" x="640" y="-130.5" font-family="Helvetica,sans-Serif" font-size="10.00">Server.h</text>
</a>
</g>
</g>
<!-- Node4&#45;&gt;Node13 -->
<g id="edge12" class="edge">
<title>Node4&#45;&gt;Node13</title>
<path fill="none" stroke="midnightblue" d="M690.88,-183.6C679.56,-173.78 666.36,-162.34 656.24,-153.58"/>
<polygon fill="midnightblue" stroke="midnightblue" points="688.88,-186.49 698.73,-190.4 693.46,-181.2 688.88,-186.49"/>
</g>
<!-- Node15 -->
<g id="node15" class="node">
<title>Node15</title>
<g id="a_node15"><a xlink:href="net_2rc_2stream_2tls_2_socket_server_8h.html" target="_top" xlink:title=" ">
<polygon fill="white" stroke="black" points="724,-123.5 724,-153.5 856,-153.5 856,-123.5 724,-123.5"/>
<text text-anchor="start" x="732" y="-141.5" font-family="Helvetica,sans-Serif" font-size="10.00">net/rc/stream/tls/Socket</text>
<text text-anchor="middle" x="790" y="-130.5" font-family="Helvetica,sans-Serif" font-size="10.00">Server.h</text>
</a>
</g>
</g>
<!-- Node4&#45;&gt;Node15 -->
<g id="edge14" class="edge">
<title>Node4&#45;&gt;Node15</title>
<path fill="none" stroke="midnightblue" d="M739.12,-183.6C750.44,-173.78 763.64,-162.34 773.76,-153.58"/>
<polygon fill="midnightblue" stroke="midnightblue" points="736.54,-181.2 731.27,-190.4 741.12,-186.49 736.54,-181.2"/>
</g>
<!-- Node19 -->
<g id="node19" class="node">
<title>Node19</title>
<g id="a_node19"><a xlink:href="net_2un_2stream_2tls_2_socket_server_8h.html" target="_top" xlink:title=" ">
<polygon fill="white" stroke="black" points="1022.5,-123.5 1022.5,-153.5 1157.5,-153.5 1157.5,-123.5 1022.5,-123.5"/>
<text text-anchor="start" x="1030.5" y="-141.5" font-family="Helvetica,sans-Serif" font-size="10.00">net/un/stream/tls/Socket</text>
<text text-anchor="middle" x="1090" y="-130.5" font-family="Helvetica,sans-Serif" font-size="10.00">Server.h</text>
</a>
</g>
</g>
<!-- Node4&#45;&gt;Node19 -->
<g id="edge18" class="edge">
<title>Node4&#45;&gt;Node19</title>
<path fill="none" stroke="midnightblue" d="M780.47,-193.15C848.29,-181.4 953.76,-163.11 1022.37,-151.22"/>
<polygon fill="midnightblue" stroke="midnightblue" points="779.59,-189.75 770.33,-194.91 780.78,-196.65 779.59,-189.75"/>
</g>
<!-- Node6 -->
<g id="node6" class="node">
<title>Node6</title>
<g id="a_node6"><a xlink:href="in_2stream_2tls_2_socket_server_8cpp.html" target="_top" xlink:title=" ">
<polygon fill="white" stroke="black" points="0,-56.5 0,-86.5 132,-86.5 132,-56.5 0,-56.5"/>
<text text-anchor="start" x="8" y="-74.5" font-family="Helvetica,sans-Serif" font-size="10.00">net/in/stream/tls/Socket</text>
<text text-anchor="middle" x="66" y="-63.5" font-family="Helvetica,sans-Serif" font-size="10.00">Server.cpp</text>
</a>
</g>
</g>
<!-- Node5&#45;&gt;Node6 -->
<g id="edge5" class="edge">
<title>Node5&#45;&gt;Node6</title>
<path fill="none" stroke="midnightblue" d="M173.21,-119.27C149.48,-108.92 120.22,-96.15 98.27,-86.58"/>
<polygon fill="midnightblue" stroke="midnightblue" points="172.1,-122.61 182.67,-123.4 174.9,-116.19 172.1,-122.61"/>
</g>
<!-- Node7 -->
<g id="node7" class="node">
<title>Node7</title>
<g id="a_node7"><a xlink:href="tls_2in_2_server_8h.html" target="_top" xlink:title=" ">
<polygon fill="white" stroke="black" points="150,-62 150,-81 280,-81 280,-62 150,-62"/>
<text text-anchor="middle" x="215" y="-69" font-family="Helvetica,sans-Serif" font-size="10.00">web/http/tls/in/Server.h</text>
</a>
</g>
</g>
<!-- Node5&#45;&gt;Node7 -->
<g id="edge6" class="edge">
<title>Node5&#45;&gt;Node7</title>
<path fill="none" stroke="midnightblue" d="M215,-113.25C215,-102.02 215,-89.38 215,-81.19"/>
<polygon fill="midnightblue" stroke="midnightblue" points="211.5,-113.4 215,-123.4 218.5,-113.4 211.5,-113.4"/>
</g>
<!-- Node8 -->
<g id="node8" class="node">
<title>Node8</title>
<g id="a_node8"><a xlink:href="tls_2in_2_web_app_8h.html" target="_top" xlink:title=" ">
<polygon fill="white" stroke="black" points="148,-0.5 148,-19.5 282,-19.5 282,-0.5 148,-0.5"/>
<text text-anchor="middle" x="215" y="-7.5" font-family="Helvetica,sans-Serif" font-size="10.00">express/tls/in/WebApp.h</text>
</a>
</g>
</g>
<!-- Node7&#45;&gt;Node8 -->
<g id="edge7" class="edge">
<title>Node7&#45;&gt;Node8</title>
<path fill="none" stroke="midnightblue" d="M215,-51.82C215,-41 215,-27.9 215,-19.51"/>
<polygon fill="midnightblue" stroke="midnightblue" points="211.5,-51.98 215,-61.98 218.5,-51.98 211.5,-51.98"/>
</g>
<!-- Node10 -->
<g id="node10" class="node">
<title>Node10</title>
<g id="a_node10"><a xlink:href="in6_2stream_2tls_2_socket_server_8cpp.html" target="_top" xlink:title=" ">
<polygon fill="white" stroke="black" points="298,-56.5 298,-86.5 402,-86.5 402,-56.5 298,-56.5"/>
<text text-anchor="start" x="306" y="-74.5" font-family="Helvetica,sans-Serif" font-size="10.00">net/in6/stream/tls</text>
<text text-anchor="middle" x="350" y="-63.5" font-family="Helvetica,sans-Serif" font-size="10.00">/SocketServer.cpp</text>
</a>
</g>
</g>
<!-- Node9&#45;&gt;Node10 -->
<g id="edge9" class="edge">
<title>Node9&#45;&gt;Node10</title>
<path fill="none" stroke="midnightblue" d="M449,-119.13C427.07,-108.8 400.13,-96.11 379.89,-86.58"/>
<polygon fill="midnightblue" stroke="midnightblue" points="447.52,-122.3 458.06,-123.4 450.5,-115.97 447.52,-122.3"/>
</g>
<!-- Node11 -->
<g id="node11" class="node">
<title>Node11</title>
<g id="a_node11"><a xlink:href="tls_2in6_2_server_8h.html" target="_top" xlink:title=" ">
<polygon fill="white" stroke="black" points="420,-62 420,-81 556,-81 556,-62 420,-62"/>
<text text-anchor="middle" x="488" y="-69" font-family="Helvetica,sans-Serif" font-size="10.00">web/http/tls/in6/Server.h</text>
</a>
</g>
</g>
<!-- Node9&#45;&gt;Node11 -->
<g id="edge10" class="edge">
<title>Node9&#45;&gt;Node11</title>
<path fill="none" stroke="midnightblue" d="M488,-113.25C488,-102.02 488,-89.38 488,-81.19"/>
<polygon fill="midnightblue" stroke="midnightblue" points="484.5,-113.4 488,-123.4 491.5,-113.4 484.5,-113.4"/>
</g>
<!-- Node12 -->
<g id="node12" class="node">
<title>Node12</title>
<g id="a_node12"><a xlink:href="tls_2in6_2_web_app_8h.html" target="_top" xlink:title=" ">
<polygon fill="white" stroke="black" points="418,-0.5 418,-19.5 558,-19.5 558,-0.5 418,-0.5"/>
<text text-anchor="middle" x="488" y="-7.5" font-family="Helvetica,sans-Serif" font-size="10.00">express/tls/in6/WebApp.h</text>
</a>
</g>
</g>
<!-- Node11&#45;&gt;Node12 -->
<g id="edge11" class="edge">
<title>Node11&#45;&gt;Node12</title>
<path fill="none" stroke="midnightblue" d="M488,-51.82C488,-41 488,-27.9 488,-19.51"/>
<polygon fill="midnightblue" stroke="midnightblue" points="484.5,-51.98 488,-61.98 491.5,-51.98 484.5,-51.98"/>
</g>
<!-- Node14 -->
<g id="node14" class="node">
<title>Node14</title>
<g id="a_node14"><a xlink:href="l2_2stream_2tls_2_socket_server_8cpp.html" target="_top" xlink:title=" ">
<polygon fill="white" stroke="black" points="574,-56.5 574,-86.5 706,-86.5 706,-56.5 574,-56.5"/>
<text text-anchor="start" x="582" y="-74.5" font-family="Helvetica,sans-Serif" font-size="10.00">net/l2/stream/tls/Socket</text>
<text text-anchor="middle" x="640" y="-63.5" font-family="Helvetica,sans-Serif" font-size="10.00">Server.cpp</text>
</a>
</g>
</g>
<!-- Node13&#45;&gt;Node14 -->
<g id="edge13" class="edge">
<title>Node13&#45;&gt;Node14</title>
<path fill="none" stroke="midnightblue" d="M640,-113.11C640,-104.15 640,-94.32 640,-86.58"/>
<polygon fill="midnightblue" stroke="midnightblue" points="636.5,-113.4 640,-123.4 643.5,-113.4 636.5,-113.4"/>
</g>
<!-- Node16 -->
<g id="node16" class="node">
<title>Node16</title>
<g id="a_node16"><a xlink:href="rc_2stream_2tls_2_socket_server_8cpp.html" target="_top" xlink:title=" ">
<polygon fill="white" stroke="black" points="724,-56.5 724,-86.5 856,-86.5 856,-56.5 724,-56.5"/>
<text text-anchor="start" x="732" y="-74.5" font-family="Helvetica,sans-Serif" font-size="10.00">net/rc/stream/tls/Socket</text>
<text text-anchor="middle" x="790" y="-63.5" font-family="Helvetica,sans-Serif" font-size="10.00">Server.cpp</text>
</a>
</g>
</g>
<!-- Node15&#45;&gt;Node16 -->
<g id="edge15" class="edge">
<title>Node15&#45;&gt;Node16</title>
<path fill="none" stroke="midnightblue" d="M790,-113.11C790,-104.15 790,-94.32 790,-86.58"/>
<polygon fill="midnightblue" stroke="midnightblue" points="786.5,-113.4 790,-123.4 793.5,-113.4 786.5,-113.4"/>
</g>
<!-- Node17 -->
<g id="node17" class="node">
<title>Node17</title>
<g id="a_node17"><a xlink:href="tls_2rc_2_server_8h.html" target="_top" xlink:title=" ">
<polygon fill="white" stroke="black" points="874,-62 874,-81 1004,-81 1004,-62 874,-62"/>
<text text-anchor="middle" x="939" y="-69" font-family="Helvetica,sans-Serif" font-size="10.00">web/http/tls/rc/Server.h</text>
</a>
</g>
</g>
<!-- Node15&#45;&gt;Node17 -->
<g id="edge16" class="edge">
<title>Node15&#45;&gt;Node17</title>
<path fill="none" stroke="midnightblue" d="M831.73,-119.3C860.47,-106.76 897.32,-90.68 919.5,-81.01"/>
<polygon fill="midnightblue" stroke="midnightblue" points="830.1,-116.19 822.33,-123.4 832.9,-122.61 830.1,-116.19"/>
</g>
<!-- Node18 -->
<g id="node18" class="node">
<title>Node18</title>
<g id="a_node18"><a xlink:href="tls_2rc_2_web_app_8h.html" target="_top" xlink:title=" ">
<polygon fill="white" stroke="black" points="872,-0.5 872,-19.5 1006,-19.5 1006,-0.5 872,-0.5"/>
<text text-anchor="middle" x="939" y="-7.5" font-family="Helvetica,sans-Serif" font-size="10.00">express/tls/rc/WebApp.h</text>
</a>
</g>
</g>
<!-- Node17&#45;&gt;Node18 -->
<g id="edge17" class="edge">
<title>Node17&#45;&gt;Node18</title>
<path fill="none" stroke="midnightblue" d="M939,-51.82C939,-41 939,-27.9 939,-19.51"/>
<polygon fill="midnightblue" stroke="midnightblue" points="935.5,-51.98 939,-61.98 942.5,-51.98 935.5,-51.98"/>
</g>
<!-- Node20 -->
<g id="node20" class="node">
<title>Node20</title>
<g id="a_node20"><a xlink:href="un_2stream_2tls_2_socket_server_8cpp.html" target="_top" xlink:title=" ">
<polygon fill="white" stroke="black" points="1022.5,-56.5 1022.5,-86.5 1157.5,-86.5 1157.5,-56.5 1022.5,-56.5"/>
<text text-anchor="start" x="1030.5" y="-74.5" font-family="Helvetica,sans-Serif" font-size="10.00">net/un/stream/tls/Socket</text>
<text text-anchor="middle" x="1090" y="-63.5" font-family="Helvetica,sans-Serif" font-size="10.00">Server.cpp</text>
</a>
</g>
</g>
<!-- Node19&#45;&gt;Node20 -->
<g id="edge19" class="edge">
<title>Node19&#45;&gt;Node20</title>
<path fill="none" stroke="midnightblue" d="M1090,-113.11C1090,-104.15 1090,-94.32 1090,-86.58"/>
<polygon fill="midnightblue" stroke="midnightblue" points="1086.5,-113.4 1090,-123.4 1093.5,-113.4 1086.5,-113.4"/>
</g>
<!-- Node21 -->
<g id="node21" class="node">
<title>Node21</title>
<g id="a_node21"><a xlink:href="tls_2un_2_server_8h.html" target="_top" xlink:title=" ">
<polygon fill="white" stroke="black" points="1175.5,-62 1175.5,-81 1308.5,-81 1308.5,-62 1175.5,-62"/>
<text text-anchor="middle" x="1242" y="-69" font-family="Helvetica,sans-Serif" font-size="10.00">web/http/tls/un/Server.h</text>
</a>
</g>
</g>
<!-- Node19&#45;&gt;Node21 -->
<g id="edge20" class="edge">
<title>Node19&#45;&gt;Node21</title>
<path fill="none" stroke="midnightblue" d="M1132.19,-119.46C1161.56,-106.9 1199.38,-90.72 1222.11,-81.01"/>
<polygon fill="midnightblue" stroke="midnightblue" points="1130.8,-116.25 1122.98,-123.4 1133.55,-122.68 1130.8,-116.25"/>
</g>
<!-- Node22 -->
<g id="node22" class="node">
<title>Node22</title>
<g id="a_node22"><a xlink:href="tls_2un_2_web_app_8h.html" target="_top" xlink:title=" ">
<polygon fill="white" stroke="black" points="1173.5,-0.5 1173.5,-19.5 1310.5,-19.5 1310.5,-0.5 1173.5,-0.5"/>
<text text-anchor="middle" x="1242" y="-7.5" font-family="Helvetica,sans-Serif" font-size="10.00">express/tls/un/WebApp.h</text>
</a>
</g>
</g>
<!-- Node21&#45;&gt;Node22 -->
<g id="edge21" class="edge">
<title>Node21&#45;&gt;Node22</title>
<path fill="none" stroke="midnightblue" d="M1242,-51.82C1242,-41 1242,-27.9 1242,-19.51"/>
<polygon fill="midnightblue" stroke="midnightblue" points="1238.5,-51.98 1242,-61.98 1245.5,-51.98 1238.5,-51.98"/>
</g>
<!-- Node24 -->
<g id="node24" class="node">
<title>Node24</title>
<g id="a_node24"><a xlink:href="core_2socket_2stream_2tls_2_socket_client_8h.html" target="_top" xlink:title=" ">
<polygon fill="white" stroke="black" points="1827,-190.5 1827,-220.5 1937,-220.5 1937,-190.5 1827,-190.5"/>
<text text-anchor="start" x="1835" y="-208.5" font-family="Helvetica,sans-Serif" font-size="10.00">core/socket/stream</text>
<text text-anchor="middle" x="1882" y="-197.5" font-family="Helvetica,sans-Serif" font-size="10.00">/tls/SocketClient.h</text>
</a>
</g>
</g>
<!-- Node23&#45;&gt;Node24 -->
<g id="edge23" class="edge">
<title>Node23&#45;&gt;Node24</title>
<path fill="none" stroke="midnightblue" d="M1719.27,-254.58C1755,-244.02 1800.46,-230.59 1834.24,-220.61"/>
<polygon fill="midnightblue" stroke="midnightblue" points="1718.06,-251.29 1709.47,-257.48 1720.05,-258 1718.06,-251.29"/>
</g>
<!-- Node25 -->
<g id="node25" class="node">
<title>Node25</title>
<g id="a_node25"><a xlink:href="net_2in_2stream_2tls_2_socket_client_8h.html" target="_top" xlink:title=" ">
<polygon fill="white" stroke="black" points="1475,-123.5 1475,-153.5 1607,-153.5 1607,-123.5 1475,-123.5"/>
<text text-anchor="start" x="1483" y="-141.5" font-family="Helvetica,sans-Serif" font-size="10.00">net/in/stream/tls/Socket</text>
<text text-anchor="middle" x="1541" y="-130.5" font-family="Helvetica,sans-Serif" font-size="10.00">Client.h</text>
</a>
</g>
</g>
<!-- Node24&#45;&gt;Node25 -->
<g id="edge24" class="edge">
<title>Node24&#45;&gt;Node25</title>
<path fill="none" stroke="midnightblue" d="M1816.69,-192.05C1756.51,-180.58 1667.65,-163.64 1607.2,-152.12"/>
<polygon fill="midnightblue" stroke="midnightblue" points="1816.35,-195.55 1826.83,-193.98 1817.67,-188.67 1816.35,-195.55"/>
</g>
<!-- Node28 -->
<g id="node28" class="node">
<title>Node28</title>
<g id="a_node28"><a xlink:href="net_2in6_2stream_2tls_2_socket_client_8h.html" target="_top" xlink:title=" ">
<polygon fill="white" stroke="black" points="1758.5,-123.5 1758.5,-153.5 1861.5,-153.5 1861.5,-123.5 1758.5,-123.5"/>
<text text-anchor="start" x="1766.5" y="-141.5" font-family="Helvetica,sans-Serif" font-size="10.00">net/in6/stream/tls</text>
<text text-anchor="middle" x="1810" y="-130.5" font-family="Helvetica,sans-Serif" font-size="10.00">/SocketClient.h</text>
</a>
</g>
</g>
<!-- Node24&#45;&gt;Node28 -->
<g id="edge27" class="edge">
<title>Node24&#45;&gt;Node28</title>
<path fill="none" stroke="midnightblue" d="M1858.85,-183.6C1847.98,-173.78 1835.3,-162.34 1825.59,-153.58"/>
<polygon fill="midnightblue" stroke="midnightblue" points="1856.61,-186.29 1866.38,-190.4 1861.3,-181.1 1856.61,-186.29"/>
</g>
<!-- Node31 -->
<g id="node31" class="node">
<title>Node31</title>
<g id="a_node31"><a xlink:href="net_2l2_2stream_2tls_2_socket_client_8h.html" target="_top" xlink:title=" ">
<polygon fill="white" stroke="black" points="1888,-123.5 1888,-153.5 2020,-153.5 2020,-123.5 1888,-123.5"/>
<text text-anchor="start" x="1896" y="-141.5" font-family="Helvetica,sans-Serif" font-size="10.00">net/l2/stream/tls/Socket</text>
<text text-anchor="middle" x="1954" y="-130.5" font-family="Helvetica,sans-Serif" font-size="10.00">Client.h</text>
</a>
</g>
</g>
<!-- Node24&#45;&gt;Node31 -->
<g id="edge30" class="edge">
<title>Node24&#45;&gt;Node31</title>
<path fill="none" stroke="midnightblue" d="M1905.15,-183.6C1916.02,-173.78 1928.7,-162.34 1938.41,-153.58"/>
<polygon fill="midnightblue" stroke="midnightblue" points="1902.7,-181.1 1897.62,-190.4 1907.39,-186.29 1902.7,-181.1"/>
</g>
<!-- Node33 -->
<g id="node33" class="node">
<title>Node33</title>
<g id="a_node33"><a xlink:href="net_2rc_2stream_2tls_2_socket_client_8h.html" target="_top" xlink:title=" ">
<polygon fill="white" stroke="black" points="2045,-123.5 2045,-153.5 2177,-153.5 2177,-123.5 2045,-123.5"/>
<text text-anchor="start" x="2053" y="-141.5" font-family="Helvetica,sans-Serif" font-size="10.00">net/rc/stream/tls/Socket</text>
<text text-anchor="middle" x="2111" y="-130.5" font-family="Helvetica,sans-Serif" font-size="10.00">Client.h</text>
</a>
</g>
</g>
<!-- Node24&#45;&gt;Node33 -->
<g id="edge32" class="edge">
<title>Node24&#45;&gt;Node33</title>
<path fill="none" stroke="midnightblue" d="M1941.14,-187.71C1978.4,-177.14 2025.97,-163.63 2061.29,-153.61"/>
<polygon fill="midnightblue" stroke="midnightblue" points="1940.07,-184.38 1931.41,-190.48 1941.98,-191.11 1940.07,-184.38"/>
</g>
<!-- Node36 -->
<g id="node36" class="node">
<title>Node36</title>
<g id="a_node36"><a xlink:href="net_2un_2stream_2tls_2_socket_client_8h.html" target="_top" xlink:title=" ">
<polygon fill="white" stroke="black" points="2340.5,-123.5 2340.5,-153.5 2475.5,-153.5 2475.5,-123.5 2340.5,-123.5"/>
<text text-anchor="start" x="2348.5" y="-141.5" font-family="Helvetica,sans-Serif" font-size="10.00">net/un/stream/tls/Socket</text>
<text text-anchor="middle" x="2408" y="-130.5" font-family="Helvetica,sans-Serif" font-size="10.00">Client.h</text>
</a>
</g>
</g>
<!-- Node24&#45;&gt;Node36 -->
<g id="edge35" class="edge">
<title>Node24&#45;&gt;Node36</title>
<path fill="none" stroke="midnightblue" d="M1947.3,-196.43C2047.59,-184.04 2238.56,-160.44 2340.28,-147.87"/>
<polygon fill="midnightblue" stroke="midnightblue" points="1946.79,-192.97 1937.3,-197.67 1947.65,-199.91 1946.79,-192.97"/>
</g>
<!-- Node26 -->
<g id="node26" class="node">
<title>Node26</title>
<g id="a_node26"><a xlink:href="in_2stream_2tls_2_socket_client_8cpp.html" target="_top" xlink:title=" ">
<polygon fill="white" stroke="black" points="1327,-56.5 1327,-86.5 1459,-86.5 1459,-56.5 1327,-56.5"/>
<text text-anchor="start" x="1335" y="-74.5" font-family="Helvetica,sans-Serif" font-size="10.00">net/in/stream/tls/Socket</text>
<text text-anchor="middle" x="1393" y="-63.5" font-family="Helvetica,sans-Serif" font-size="10.00">Client.cpp</text>
</a>
</g>
</g>
<!-- Node25&#45;&gt;Node26 -->
<g id="edge25" class="edge">
<title>Node25&#45;&gt;Node26</title>
<path fill="none" stroke="midnightblue" d="M1499.49,-119.27C1475.92,-108.92 1446.86,-96.15 1425.05,-86.58"/>
<polygon fill="midnightblue" stroke="midnightblue" points="1498.32,-122.58 1508.89,-123.4 1501.14,-116.17 1498.32,-122.58"/>
</g>
<!-- Node27 -->
<g id="node27" class="node">
<title>Node27</title>
<g id="a_node27"><a xlink:href="tls_2in_2_client_8h.html" target="_top" xlink:title=" ">
<polygon fill="white" stroke="black" points="1477.5,-62 1477.5,-81 1604.5,-81 1604.5,-62 1477.5,-62"/>
<text text-anchor="middle" x="1541" y="-69" font-family="Helvetica,sans-Serif" font-size="10.00">web/http/tls/in/Client.h</text>
</a>
</g>
</g>
<!-- Node25&#45;&gt;Node27 -->
<g id="edge26" class="edge">
<title>Node25&#45;&gt;Node27</title>
<path fill="none" stroke="midnightblue" d="M1541,-113.25C1541,-102.02 1541,-89.38 1541,-81.19"/>
<polygon fill="midnightblue" stroke="midnightblue" points="1537.5,-113.4 1541,-123.4 1544.5,-113.4 1537.5,-113.4"/>
</g>
<!-- Node29 -->
<g id="node29" class="node">
<title>Node29</title>
<g id="a_node29"><a xlink:href="in6_2stream_2tls_2_socket_client_8cpp.html" target="_top" xlink:title=" ">
<polygon fill="white" stroke="black" points="1622.5,-56.5 1622.5,-86.5 1725.5,-86.5 1725.5,-56.5 1622.5,-56.5"/>
<text text-anchor="start" x="1630.5" y="-74.5" font-family="Helvetica,sans-Serif" font-size="10.00">net/in6/stream/tls</text>
<text text-anchor="middle" x="1674" y="-63.5" font-family="Helvetica,sans-Serif" font-size="10.00">/SocketClient.cpp</text>
</a>
</g>
</g>
<!-- Node28&#45;&gt;Node29 -->
<g id="edge28" class="edge">
<title>Node28&#45;&gt;Node29</title>
<path fill="none" stroke="midnightblue" d="M1771.28,-118.99C1749.72,-108.69 1723.31,-96.07 1703.45,-86.58"/>
<polygon fill="midnightblue" stroke="midnightblue" points="1769.96,-122.24 1780.49,-123.4 1772.98,-115.93 1769.96,-122.24"/>
</g>
<!-- Node30 -->
<g id="node30" class="node">
<title>Node30</title>
<g id="a_node30"><a xlink:href="tls_2in6_2_client_8h.html" target="_top" xlink:title=" ">
<polygon fill="white" stroke="black" points="1743.5,-62 1743.5,-81 1876.5,-81 1876.5,-62 1743.5,-62"/>
<text text-anchor="middle" x="1810" y="-69" font-family="Helvetica,sans-Serif" font-size="10.00">web/http/tls/in6/Client.h</text>
</a>
</g>
</g>
<!-- Node28&#45;&gt;Node30 -->
<g id="edge29" class="edge">
<title>Node28&#45;&gt;Node30</title>
<path fill="none" stroke="midnightblue" d="M1810,-113.25C1810,-102.02 1810,-89.38 1810,-81.19"/>
<polygon fill="midnightblue" stroke="midnightblue" points="1806.5,-113.4 1810,-123.4 1813.5,-113.4 1806.5,-113.4"/>
</g>
<!-- Node32 -->
<g id="node32" class="node">
<title>Node32</title>
<g id="a_node32"><a xlink:href="l2_2stream_2tls_2_socket_client_8cpp.html" target="_top" xlink:title=" ">
<polygon fill="white" stroke="black" points="1895,-56.5 1895,-86.5 2027,-86.5 2027,-56.5 1895,-56.5"/>
<text text-anchor="start" x="1903" y="-74.5" font-family="Helvetica,sans-Serif" font-size="10.00">net/l2/stream/tls/Socket</text>
<text text-anchor="middle" x="1961" y="-63.5" font-family="Helvetica,sans-Serif" font-size="10.00">Client.cpp</text>
</a>
</g>
</g>
<!-- Node31&#45;&gt;Node32 -->
<g id="edge31" class="edge">
<title>Node31&#45;&gt;Node32</title>
<path fill="none" stroke="midnightblue" d="M1956.6,-113.4C1957.57,-104.37 1958.64,-94.41 1959.48,-86.58"/>
<polygon fill="midnightblue" stroke="midnightblue" points="1953.11,-113.08 1955.52,-123.4 1960.07,-113.83 1953.11,-113.08"/>
</g>
<!-- Node34 -->
<g id="node34" class="node">
<title>Node34</title>
<g id="a_node34"><a xlink:href="rc_2stream_2tls_2_socket_client_8cpp.html" target="_top" xlink:title=" ">
<polygon fill="white" stroke="black" points="2045,-56.5 2045,-86.5 2177,-86.5 2177,-56.5 2045,-56.5"/>
<text text-anchor="start" x="2053" y="-74.5" font-family="Helvetica,sans-Serif" font-size="10.00">net/rc/stream/tls/Socket</text>
<text text-anchor="middle" x="2111" y="-63.5" font-family="Helvetica,sans-Serif" font-size="10.00">Client.cpp</text>
</a>
</g>
</g>
<!-- Node33&#45;&gt;Node34 -->
<g id="edge33" class="edge">
<title>Node33&#45;&gt;Node34</title>
<path fill="none" stroke="midnightblue" d="M2111,-113.11C2111,-104.15 2111,-94.32 2111,-86.58"/>
<polygon fill="midnightblue" stroke="midnightblue" points="2107.5,-113.4 2111,-123.4 2114.5,-113.4 2107.5,-113.4"/>
</g>
<!-- Node35 -->
<g id="node35" class="node">
<title>Node35</title>
<g id="a_node35"><a xlink:href="tls_2rc_2_client_8h.html" target="_top" xlink:title=" ">
<polygon fill="white" stroke="black" points="2195.5,-62 2195.5,-81 2322.5,-81 2322.5,-62 2195.5,-62"/>
<text text-anchor="middle" x="2259" y="-69" font-family="Helvetica,sans-Serif" font-size="10.00">web/http/tls/rc/Client.h</text>
</a>
</g>
</g>
<!-- Node33&#45;&gt;Node35 -->
<g id="edge34" class="edge">
<title>Node33&#45;&gt;Node35</title>
<path fill="none" stroke="midnightblue" d="M2152.45,-119.3C2180.99,-106.76 2217.6,-90.68 2239.63,-81.01"/>
<polygon fill="midnightblue" stroke="midnightblue" points="2150.86,-116.17 2143.11,-123.4 2153.68,-122.58 2150.86,-116.17"/>
</g>
<!-- Node37 -->
<g id="node37" class="node">
<title>Node37</title>
<g id="a_node37"><a xlink:href="un_2stream_2tls_2_socket_client_8cpp.html" target="_top" xlink:title=" ">
<polygon fill="white" stroke="black" points="2340.5,-56.5 2340.5,-86.5 2475.5,-86.5 2475.5,-56.5 2340.5,-56.5"/>
<text text-anchor="start" x="2348.5" y="-74.5" font-family="Helvetica,sans-Serif" font-size="10.00">net/un/stream/tls/Socket</text>
<text text-anchor="middle" x="2408" y="-63.5" font-family="Helvetica,sans-Serif" font-size="10.00">Client.cpp</text>
</a>
</g>
</g>
<!-- Node36&#45;&gt;Node37 -->
<g id="edge36" class="edge">
<title>Node36&#45;&gt;Node37</title>
<path fill="none" stroke="midnightblue" d="M2408,-113.11C2408,-104.15 2408,-94.32 2408,-86.58"/>
<polygon fill="midnightblue" stroke="midnightblue" points="2404.5,-113.4 2408,-123.4 2411.5,-113.4 2404.5,-113.4"/>
</g>
<!-- Node38 -->
<g id="node38" class="node">
<title>Node38</title>
<g id="a_node38"><a xlink:href="tls_2un_2_client_8h.html" target="_top" xlink:title=" ">
<polygon fill="white" stroke="black" points="2494,-62 2494,-81 2624,-81 2624,-62 2494,-62"/>
<text text-anchor="middle" x="2559" y="-69" font-family="Helvetica,sans-Serif" font-size="10.00">web/http/tls/un/Client.h</text>
</a>
</g>
</g>
<!-- Node36&#45;&gt;Node38 -->
<g id="edge37" class="edge">
<title>Node36&#45;&gt;Node38</title>
<path fill="none" stroke="midnightblue" d="M2450.29,-119.3C2479.41,-106.76 2516.76,-90.68 2539.24,-81.01"/>
<polygon fill="midnightblue" stroke="midnightblue" points="2448.57,-116.23 2440.76,-123.4 2451.33,-122.66 2448.57,-116.23"/>
</g>
</g>
</svg>
