<?xml version="1.0" encoding="UTF-8" standalone="no"?>
<!DOCTYPE svg PUBLIC "-//W3C//DTD SVG 1.1//EN"
 "http://www.w3.org/Graphics/SVG/1.1/DTD/svg11.dtd">
<!-- Generated by graphviz version 2.43.0 (0)
 -->
<!-- Title: utils/base64.h Pages: 1 -->
<svg width="476pt" height="95pt"
 viewBox="0.00 0.00 476.00 95.00" xmlns="http://www.w3.org/2000/svg" xmlns:xlink="http://www.w3.org/1999/xlink">
<g id="graph0" class="graph" transform="scale(1 1) rotate(0) translate(4 91)">
<title>utils/base64.h</title>
<polygon fill="white" stroke="transparent" points="-4,4 -4,-91 472,-91 472,4 -4,4"/>
<!-- Node1 -->
<g id="node1" class="node">
<title>Node1</title>
<g id="a_node1"><a xlink:title=" ">
<polygon fill="#bfbfbf" stroke="black" points="153.5,-67.5 153.5,-86.5 230.5,-86.5 230.5,-67.5 153.5,-67.5"/>
<text text-anchor="middle" x="192" y="-74.5" font-family="Helvetica,sans-Serif" font-size="10.00">utils/base64.h</text>
</a>
</g>
</g>
<!-- Node2 -->
<g id="node2" class="node">
<title>Node2</title>
<g id="a_node2"><a xlink:href="base64_8cpp.html" target="_top" xlink:title=" ">
<polygon fill="white" stroke="black" points="0,-6 0,-25 88,-25 88,-6 0,-6"/>
<text text-anchor="middle" x="44" y="-13" font-family="Helvetica,sans-Serif" font-size="10.00">utils/base64.cpp</text>
</a>
</g>
</g>
<!-- Node1&#45;&gt;Node2 -->
<g id="edge1" class="edge">
<title>Node1&#45;&gt;Node2</title>
<path fill="none" stroke="midnightblue" d="M161.23,-63.63C132.48,-52.07 90.32,-35.12 65.17,-25.01"/>
<polygon fill="midnightblue" stroke="midnightblue" points="160.21,-66.99 170.8,-67.48 162.82,-60.5 160.21,-66.99"/>
</g>
<!-- Node3 -->
<g id="node3" class="node">
<title>Node3</title>
<g id="a_node3"><a xlink:href="websocket_2client_2_socket_context_upgrade_factory_8cpp.html" target="_top" xlink:title=" ">
<polygon fill="white" stroke="black" points="106,-0.5 106,-30.5 278,-30.5 278,-0.5 106,-0.5"/>
<text text-anchor="start" x="114" y="-18.5" font-family="Helvetica,sans-Serif" font-size="10.00">web/websocket/client</text>
<text text-anchor="middle" x="192" y="-7.5" font-family="Helvetica,sans-Serif" font-size="10.00">/SocketContextUpgradeFactory.cpp</text>
</a>
</g>
</g>
<!-- Node1&#45;&gt;Node3 -->
<g id="edge2" class="edge">
<title>Node1&#45;&gt;Node3</title>
<path fill="none" stroke="midnightblue" d="M192,-57.23C192,-48.59 192,-38.5 192,-30.52"/>
<polygon fill="midnightblue" stroke="midnightblue" points="188.5,-57.48 192,-67.48 195.5,-57.48 188.5,-57.48"/>
</g>
<!-- Node4 -->
<g id="node4" class="node">
<title>Node4</title>
<g id="a_node4"><a xlink:href="websocket_2server_2_socket_context_upgrade_factory_8cpp.html" target="_top" xlink:title=" ">
<polygon fill="white" stroke="black" points="296,-0.5 296,-30.5 468,-30.5 468,-0.5 296,-0.5"/>
<text text-anchor="start" x="304" y="-18.5" font-family="Helvetica,sans-Serif" font-size="10.00">web/websocket/server</text>
<text text-anchor="middle" x="382" y="-7.5" font-family="Helvetica,sans-Serif" font-size="10.00">/SocketContextUpgradeFactory.cpp</text>
</a>
</g>
</g>
<!-- Node1&#45;&gt;Node4 -->
<g id="edge3" class="edge">
<title>Node1&#45;&gt;Node4</title>
<path fill="none" stroke="midnightblue" d="M228.78,-64.48C259.75,-54.78 304.18,-40.87 337.22,-30.52"/>
<polygon fill="midnightblue" stroke="midnightblue" points="227.72,-61.15 219.22,-67.48 229.81,-67.83 227.72,-61.15"/>
</g>
</g>
</svg>
