<?xml version="1.0" encoding="UTF-8" standalone="no"?>
<!DOCTYPE svg PUBLIC "-//W3C//DTD SVG 1.1//EN"
 "http://www.w3.org/Graphics/SVG/1.1/DTD/svg11.dtd">
<!-- Generated by graphviz version 2.43.0 (0)
 -->
<!-- Title: net::un::stream::config::ConfigServerSocket Pages: 1 -->
<svg width="666pt" height="550pt"
 viewBox="0.00 0.00 665.50 550.00" xmlns="http://www.w3.org/2000/svg" xmlns:xlink="http://www.w3.org/1999/xlink">
<g id="graph0" class="graph" transform="scale(1 1) rotate(0) translate(4 546)">
<title>net::un::stream::config::ConfigServerSocket</title>
<polygon fill="white" stroke="transparent" points="-4,4 -4,-546 661.5,-546 661.5,4 -4,4"/>
<!-- Node1 -->
<g id="node1" class="node">
<title>Node1</title>
<g id="a_node1"><a xlink:title=" ">
<polygon fill="#bfbfbf" stroke="black" points="287,-0.5 287,-30.5 414,-30.5 414,-0.5 287,-0.5"/>
<text text-anchor="start" x="295" y="-18.5" font-family="Helvetica,sans-Serif" font-size="10.00">net::un::stream::config</text>
<text text-anchor="middle" x="350.5" y="-7.5" font-family="Helvetica,sans-Serif" font-size="10.00">::ConfigServerSocket</text>
</a>
</g>
</g>
<!-- Node2 -->
<g id="node2" class="node">
<title>Node2</title>
<g id="a_node2"><a xlink:href="classnet_1_1config_1_1_config_listen.html" target="_top" xlink:title=" ">
<polygon fill="white" stroke="black" points="283,-74 283,-93 418,-93 418,-74 283,-74"/>
<text text-anchor="middle" x="350.5" y="-81" font-family="Helvetica,sans-Serif" font-size="10.00">net::config::ConfigListen</text>
</a>
</g>
</g>
<!-- Node2&#45;&gt;Node1 -->
<g id="edge1" class="edge">
<title>Node2&#45;&gt;Node1</title>
<path fill="none" stroke="midnightblue" d="M350.5,-63.67C350.5,-53.18 350.5,-40.32 350.5,-30.68"/>
<polygon fill="none" stroke="midnightblue" points="347,-63.87 350.5,-73.87 354,-63.87 347,-63.87"/>
</g>
<!-- Node3 -->
<g id="node3" class="node">
<title>Node3</title>
<g id="a_node3"><a xlink:href="classnet_1_1config_1_1_config_base.html" target="_top" xlink:title=" ">
<polygon fill="white" stroke="black" points="254.5,-207 254.5,-226 384.5,-226 384.5,-207 254.5,-207"/>
<text text-anchor="middle" x="319.5" y="-214" font-family="Helvetica,sans-Serif" font-size="10.00">net::config::ConfigBase</text>
</a>
</g>
</g>
<!-- Node3&#45;&gt;Node2 -->
<g id="edge2" class="edge">
<title>Node3&#45;&gt;Node2</title>
<path fill="none" stroke="darkgreen" d="M327.43,-197.52C329.29,-192.86 331.12,-187.79 332.5,-183 341.89,-150.43 347.42,-110.33 349.52,-93.06"/>
<polygon fill="none" stroke="darkgreen" points="324.17,-196.26 323.52,-206.84 330.62,-198.98 324.17,-196.26"/>
</g>
<!-- Node12 -->
<g id="node12" class="node">
<title>Node12</title>
<g id="a_node12"><a xlink:href="classnet_1_1config_1_1_config_connection.html" target="_top" xlink:title=" ">
<polygon fill="white" stroke="black" points="104,-74 104,-93 265,-93 265,-74 104,-74"/>
<text text-anchor="middle" x="184.5" y="-81" font-family="Helvetica,sans-Serif" font-size="10.00">net::config::ConfigConnection</text>
</a>
</g>
</g>
<!-- Node3&#45;&gt;Node12 -->
<g id="edge17" class="edge">
<title>Node3&#45;&gt;Node12</title>
<path fill="none" stroke="darkgreen" d="M259.92,-204.79C235.75,-199.27 211.62,-191.82 203.5,-183 180.03,-157.5 181.57,-112.13 183.42,-93.18"/>
<polygon fill="none" stroke="darkgreen" points="259.35,-208.25 269.86,-206.96 260.84,-201.41 259.35,-208.25"/>
</g>
<!-- Node4 -->
<g id="node4" class="node">
<title>Node4</title>
<g id="a_node4"><a xlink:href="class_c_l_i_1_1_app.html" target="_top" xlink:title="Creates a command line program, with very few defaults.">
<polygon fill="white" stroke="black" points="315.5,-312.5 315.5,-331.5 371.5,-331.5 371.5,-312.5 315.5,-312.5"/>
<text text-anchor="middle" x="343.5" y="-319.5" font-family="Helvetica,sans-Serif" font-size="10.00">CLI::App</text>
</a>
</g>
</g>
<!-- Node4&#45;&gt;Node3 -->
<g id="edge3" class="edge">
<title>Node4&#45;&gt;Node3</title>
<path fill="none" stroke="#404040" d="M315.28,-316.45C302.06,-312.74 287.5,-306.06 279.5,-294 268.69,-277.7 271.1,-267.66 279.5,-250 282.53,-243.64 287.48,-238.11 292.88,-233.52"/>
<polygon fill="none" stroke="#404040" points="293.1,-233.35 295.58,-226.58 302.78,-226.26 300.31,-233.03 293.1,-233.35"/>
<text text-anchor="middle" x="300.5" y="-269.5" font-family="Helvetica,sans-Serif" font-size="10.00"> &#45;baseSc</text>
</g>
<!-- Node4&#45;&gt;Node4 -->
<g id="edge4" class="edge">
<title>Node4&#45;&gt;Node4</title>
<path fill="none" stroke="#404040" d="M371.8,-328C381.59,-328.06 389.5,-326.06 389.5,-322 389.5,-319.91 387.4,-318.36 384.02,-317.36"/>
<polygon fill="none" stroke="#404040" points="383.73,-317.33 377.32,-320.64 371.8,-316 378.21,-312.69 383.73,-317.33"/>
<text text-anchor="middle" x="414" y="-319.5" font-family="Helvetica,sans-Serif" font-size="10.00"> #parent_</text>
</g>
<!-- Node8 -->
<g id="node8" class="node">
<title>Node8</title>
<g id="a_node8"><a xlink:href="class_c_l_i_1_1_option.html" target="_top" xlink:title=" ">
<polygon fill="white" stroke="black" points="402.5,-207 402.5,-226 472.5,-226 472.5,-207 402.5,-207"/>
<text text-anchor="middle" x="437.5" y="-214" font-family="Helvetica,sans-Serif" font-size="10.00">CLI::Option</text>
</a>
</g>
</g>
<!-- Node4&#45;&gt;Node8 -->
<g id="edge11" class="edge">
<title>Node4&#45;&gt;Node8</title>
<path fill="none" stroke="#404040" d="M371.51,-316.74C386.46,-313.09 404.08,-306.35 415.5,-294 429.49,-278.86 434.65,-255.39 436.51,-238.43"/>
<polygon fill="none" stroke="#404040" points="436.53,-238.25 432.99,-231.97 437.42,-226.29 440.96,-232.57 436.53,-238.25"/>
<text text-anchor="middle" x="458" y="-269.5" font-family="Helvetica,sans-Serif" font-size="10.00"> #parent_</text>
</g>
<!-- Node4&#45;&gt;Node12 -->
<g id="edge18" class="edge">
<title>Node4&#45;&gt;Node12</title>
<path fill="none" stroke="#404040" d="M315.3,-316.16C274.83,-307.48 202,-284.95 173.5,-232 151.45,-191.03 166.12,-134.17 176.58,-104.43"/>
<polygon fill="none" stroke="#404040" points="176.6,-104.39 174.96,-97.36 180.81,-93.15 182.45,-100.17 176.6,-104.39"/>
<text text-anchor="middle" x="209.5" y="-214" font-family="Helvetica,sans-Serif" font-size="10.00"> &#45;connectionSc</text>
</g>
<!-- Node5 -->
<g id="node5" class="node">
<title>Node5</title>
<g id="a_node5"><a xlink:href="class_c_l_i_1_1_option_defaults.html" target="_top" xlink:title=" ">
<polygon fill="white" stroke="black" points="306,-379.5 306,-398.5 417,-398.5 417,-379.5 306,-379.5"/>
<text text-anchor="middle" x="361.5" y="-386.5" font-family="Helvetica,sans-Serif" font-size="10.00">CLI::OptionDefaults</text>
</a>
</g>
</g>
<!-- Node5&#45;&gt;Node4 -->
<g id="edge5" class="edge">
<title>Node5&#45;&gt;Node4</title>
<path fill="none" stroke="#404040" d="M359.07,-379.23C356.54,-370.07 352.47,-355.38 349.12,-343.31"/>
<polygon fill="none" stroke="#404040" points="349.09,-343.19 343.64,-338.48 345.89,-331.63 351.35,-336.34 349.09,-343.19"/>
<text text-anchor="middle" x="400" y="-353" font-family="Helvetica,sans-Serif" font-size="10.00"> #option_defaults_</text>
</g>
<!-- Node6 -->
<g id="node6" class="node">
<title>Node6</title>
<g id="a_node6"><a xlink:href="class_c_l_i_1_1_option_base.html" target="_top" xlink:title=" ">
<polygon fill="white" stroke="black" points="279.5,-455.5 279.5,-474.5 469.5,-474.5 469.5,-455.5 279.5,-455.5"/>
<text text-anchor="middle" x="374.5" y="-462.5" font-family="Helvetica,sans-Serif" font-size="10.00">CLI::OptionBase&lt; OptionDefaults &gt;</text>
</a>
</g>
</g>
<!-- Node6&#45;&gt;Node5 -->
<g id="edge6" class="edge">
<title>Node6&#45;&gt;Node5</title>
<path fill="none" stroke="midnightblue" d="M371.17,-445.07C368.56,-430.18 365.03,-410.11 363.04,-398.77"/>
<polygon fill="none" stroke="midnightblue" points="367.78,-445.98 372.96,-455.22 374.67,-444.77 367.78,-445.98"/>
</g>
<!-- Node7 -->
<g id="node7" class="node">
<title>Node7</title>
<g id="a_node7"><a xlink:href="class_c_l_i_1_1_option_base.html" target="_top" xlink:title=" ">
<polygon fill="white" stroke="black" points="366.5,-522.5 366.5,-541.5 508.5,-541.5 508.5,-522.5 366.5,-522.5"/>
<text text-anchor="middle" x="437.5" y="-529.5" font-family="Helvetica,sans-Serif" font-size="10.00">CLI::OptionBase&lt; CRTP &gt;</text>
</a>
</g>
</g>
<!-- Node7&#45;&gt;Node6 -->
<g id="edge7" class="edge">
<title>Node7&#45;&gt;Node6</title>
<path fill="none" stroke="orange" d="M393.12,-517.81C387.04,-514.23 381.52,-509.71 377.5,-504 371.48,-495.45 371.75,-482.98 372.84,-474.68"/>
<polygon fill="orange" stroke="orange" points="391.8,-521.06 402.31,-522.4 394.93,-514.8 391.8,-521.06"/>
<text text-anchor="middle" x="427.5" y="-496" font-family="Helvetica,sans-Serif" font-size="10.00"> &lt; OptionDefaults &gt;</text>
</g>
<!-- Node9 -->
<g id="node9" class="node">
<title>Node9</title>
<g id="a_node9"><a xlink:href="class_c_l_i_1_1_option_base.html" target="_top" xlink:title=" ">
<polygon fill="white" stroke="black" points="426,-417.5 426,-436.5 575,-436.5 575,-417.5 426,-417.5"/>
<text text-anchor="middle" x="500.5" y="-424.5" font-family="Helvetica,sans-Serif" font-size="10.00">CLI::OptionBase&lt; Option &gt;</text>
</a>
</g>
</g>
<!-- Node7&#45;&gt;Node9 -->
<g id="edge10" class="edge">
<title>Node7&#45;&gt;Node9</title>
<path fill="none" stroke="orange" d="M464.03,-516.89C469.05,-513.24 473.87,-508.92 477.5,-504 492.88,-483.14 498.08,-451.93 499.75,-436.82"/>
<polygon fill="orange" stroke="orange" points="462.02,-514.01 455.54,-522.39 465.83,-519.89 462.02,-514.01"/>
<text text-anchor="middle" x="512.5" y="-496" font-family="Helvetica,sans-Serif" font-size="10.00"> &lt; Option &gt;</text>
</g>
<!-- Node8&#45;&gt;Node2 -->
<g id="edge12" class="edge">
<title>Node8&#45;&gt;Node2</title>
<path fill="none" stroke="#404040" d="M410.79,-206.9C398.71,-201.74 385.21,-194.01 376.5,-183 367.05,-171.07 358.55,-130.65 354,-105.45"/>
<polygon fill="none" stroke="#404040" points="353.94,-105.11 348.98,-99.88 351.9,-93.29 356.86,-98.52 353.94,-105.11"/>
<text text-anchor="middle" x="425" y="-153" font-family="Helvetica,sans-Serif" font-size="10.00"> &#45;acceptsPerTickOpt</text>
<text text-anchor="middle" x="425" y="-142" font-family="Helvetica,sans-Serif" font-size="10.00">&#45;backlogOpt</text>
</g>
<!-- Node8&#45;&gt;Node4 -->
<g id="edge8" class="edge">
<title>Node8&#45;&gt;Node4</title>
<path fill="none" stroke="#404040" d="M411.97,-226.03C384.8,-235.16 345.54,-248.55 344.5,-250 334.13,-264.39 335.1,-285.03 337.94,-300.35"/>
<polygon fill="none" stroke="#404040" points="337.97,-300.46 343.22,-305.4 340.68,-312.15 335.42,-307.21 337.97,-300.46"/>
<text text-anchor="middle" x="380" y="-286" font-family="Helvetica,sans-Serif" font-size="10.00"> #config_ptr_</text>
<text text-anchor="middle" x="380" y="-275" font-family="Helvetica,sans-Serif" font-size="10.00">#help_all_ptr_</text>
<text text-anchor="middle" x="380" y="-264" font-family="Helvetica,sans-Serif" font-size="10.00">#help_ptr_</text>
<text text-anchor="middle" x="380" y="-253" font-family="Helvetica,sans-Serif" font-size="10.00">#version_ptr_</text>
</g>
<!-- Node10 -->
<g id="node10" class="node">
<title>Node10</title>
<g id="a_node10"><a xlink:href="classnet_1_1un_1_1config_1_1_config_address.html" target="_top" xlink:title=" ">
<polygon fill="white" stroke="black" points="436,-68.5 436,-98.5 599,-98.5 599,-68.5 436,-68.5"/>
<text text-anchor="start" x="444" y="-86.5" font-family="Helvetica,sans-Serif" font-size="10.00">net::un::config::ConfigAddress</text>
<text text-anchor="middle" x="517.5" y="-75.5" font-family="Helvetica,sans-Serif" font-size="10.00">&lt; ConfigAddressTypeT &gt;</text>
</a>
</g>
</g>
<!-- Node8&#45;&gt;Node10 -->
<g id="edge15" class="edge">
<title>Node8&#45;&gt;Node10</title>
<path fill="none" stroke="#404040" d="M451.98,-206.95C460.55,-201.18 470.98,-192.85 477.5,-183 494.34,-157.54 483.86,-144.78 496.5,-117 497.72,-114.32 499.14,-111.6 500.65,-108.94"/>
<polygon fill="none" stroke="#404040" points="500.79,-108.72 500.57,-101.51 507.14,-98.54 507.36,-105.75 500.79,-108.72"/>
<text text-anchor="middle" x="530.5" y="-147.5" font-family="Helvetica,sans-Serif" font-size="10.00"> #sunPathOpt</text>
</g>
<!-- Node8&#45;&gt;Node12 -->
<g id="edge20" class="edge">
<title>Node8&#45;&gt;Node12</title>
<path fill="none" stroke="#404040" d="M414.45,-206.95C407.77,-204.73 400.41,-202.54 393.5,-201 327.96,-186.42 299.84,-219.53 243.5,-183 235.96,-178.11 209.77,-131.24 194.94,-103.96"/>
<polygon fill="none" stroke="#404040" points="194.91,-103.89 188.54,-100.51 189.21,-93.33 195.58,-96.71 194.91,-103.89"/>
<text text-anchor="middle" x="298" y="-169.5" font-family="Helvetica,sans-Serif" font-size="10.00"> &#45;readBlockSizeOpt</text>
<text text-anchor="middle" x="298" y="-158.5" font-family="Helvetica,sans-Serif" font-size="10.00">&#45;readTimeoutOpt</text>
<text text-anchor="middle" x="298" y="-147.5" font-family="Helvetica,sans-Serif" font-size="10.00">&#45;terminateTimeoutOpt</text>
<text text-anchor="middle" x="298" y="-136.5" font-family="Helvetica,sans-Serif" font-size="10.00">&#45;writeBlockSizeOpt</text>
<text text-anchor="middle" x="298" y="-125.5" font-family="Helvetica,sans-Serif" font-size="10.00">&#45;writeTimeoutOpt</text>
</g>
<!-- Node9&#45;&gt;Node8 -->
<g id="edge9" class="edge">
<title>Node9&#45;&gt;Node8</title>
<path fill="none" stroke="midnightblue" d="M504.04,-407.2C509.42,-373.18 516.13,-300.31 486.5,-250 480.18,-239.27 468.76,-231.38 458.53,-226.07"/>
<polygon fill="none" stroke="midnightblue" points="500.58,-406.7 502.32,-417.15 507.47,-407.89 500.58,-406.7"/>
</g>
<!-- Node10&#45;&gt;Node1 -->
<g id="edge13" class="edge">
<title>Node10&#45;&gt;Node1</title>
<path fill="none" stroke="midnightblue" d="M472.03,-64.53C444.95,-53.83 411.08,-40.44 385.98,-30.52"/>
<polygon fill="none" stroke="midnightblue" points="471.09,-67.92 481.67,-68.34 473.66,-61.41 471.09,-67.92"/>
</g>
<!-- Node11 -->
<g id="node11" class="node">
<title>Node11</title>
<g id="a_node11"><a xlink:title=" ">
<polygon fill="white" stroke="#bfbfbf" points="507.5,-201.5 507.5,-231.5 657.5,-231.5 657.5,-201.5 507.5,-201.5"/>
<text text-anchor="start" x="515.5" y="-219.5" font-family="Helvetica,sans-Serif" font-size="10.00">ConfigAddressTypeT</text>
<text text-anchor="middle" x="582.5" y="-208.5" font-family="Helvetica,sans-Serif" font-size="10.00">&lt; net::un::SocketAddress &gt;</text>
</a>
</g>
</g>
<!-- Node11&#45;&gt;Node10 -->
<g id="edge14" class="edge">
<title>Node11&#45;&gt;Node10</title>
<path fill="none" stroke="midnightblue" d="M584.48,-191.05C585,-169.83 582.76,-139.13 568.5,-117 563.67,-109.5 556.42,-103.39 548.9,-98.59"/>
<polygon fill="none" stroke="midnightblue" points="580.98,-191.03 584.01,-201.18 587.97,-191.36 580.98,-191.03"/>
</g>
<!-- Node12&#45;&gt;Node1 -->
<g id="edge16" class="edge">
<title>Node12&#45;&gt;Node1</title>
<path fill="none" stroke="midnightblue" d="M215.6,-70.13C243.89,-58.89 285.61,-42.3 315.15,-30.56"/>
<polygon fill="none" stroke="midnightblue" points="214.2,-66.92 206.2,-73.87 216.79,-73.43 214.2,-66.92"/>
</g>
<!-- Node13 -->
<g id="node13" class="node">
<title>Node13</title>
<g id="a_node13"><a xlink:href="classutils_1_1_timeval.html" target="_top" xlink:title=" ">
<polygon fill="white" stroke="black" points="0,-207 0,-226 83,-226 83,-207 0,-207"/>
<text text-anchor="middle" x="41.5" y="-214" font-family="Helvetica,sans-Serif" font-size="10.00">utils::Timeval</text>
</a>
</g>
</g>
<!-- Node13&#45;&gt;Node12 -->
<g id="edge19" class="edge">
<title>Node13&#45;&gt;Node12</title>
<path fill="none" stroke="#404040" d="M38.45,-206.97C32.39,-188.32 21.15,-143.51 42.5,-117 50.31,-107.31 73.1,-100.26 98.2,-95.27"/>
<polygon fill="none" stroke="#404040" points="98.44,-95.22 103.62,-90.2 110.24,-93.04 105.07,-98.06 98.44,-95.22"/>
<text text-anchor="middle" x="96.5" y="-175" font-family="Helvetica,sans-Serif" font-size="10.00"> &#45;readTimeout</text>
<text text-anchor="middle" x="96.5" y="-164" font-family="Helvetica,sans-Serif" font-size="10.00">&#45;readTimeoutSet</text>
<text text-anchor="middle" x="96.5" y="-153" font-family="Helvetica,sans-Serif" font-size="10.00">&#45;terminateTimeout</text>
<text text-anchor="middle" x="96.5" y="-142" font-family="Helvetica,sans-Serif" font-size="10.00">&#45;terminateTimeoutSet</text>
<text text-anchor="middle" x="96.5" y="-131" font-family="Helvetica,sans-Serif" font-size="10.00">&#45;writeTimeout</text>
<text text-anchor="middle" x="96.5" y="-120" font-family="Helvetica,sans-Serif" font-size="10.00">&#45;writeTimeoutSet</text>
</g>
</g>
</svg>
