<?xml version="1.0" encoding="UTF-8" standalone="no"?>
<!DOCTYPE svg PUBLIC "-//W3C//DTD SVG 1.1//EN"
 "http://www.w3.org/Graphics/SVG/1.1/DTD/svg11.dtd">
<!-- Generated by graphviz version 2.43.0 (0)
 -->
<!-- Title: CLI::Option::get_name Pages: 1 -->
<svg width="458pt" height="303pt"
 viewBox="0.00 0.00 458.00 303.00" xmlns="http://www.w3.org/2000/svg" xmlns:xlink="http://www.w3.org/1999/xlink">
<g id="graph0" class="graph" transform="scale(1 1) rotate(0) translate(4 299)">
<title>CLI::Option::get_name</title>
<polygon fill="white" stroke="transparent" points="-4,4 -4,-299 454,-299 454,4 -4,4"/>
<!-- Node1 -->
<g id="node1" class="node">
<title>Node1</title>
<g id="a_node1"><a xlink:title="Gets a comma separated list of names. Will include / prefer the positional name if positional is true...">
<polygon fill="#bfbfbf" stroke="black" points="325,-138 325,-157 450,-157 450,-138 325,-138"/>
<text text-anchor="middle" x="387.5" y="-145" font-family="Helvetica,sans-Serif" font-size="10.00">CLI::Option::get_name</text>
</a>
</g>
</g>
<!-- Node2 -->
<g id="node2" class="node">
<title>Node2</title>
<g id="a_node2"><a xlink:href="class_c_l_i_1_1_app.html#addba2c303be83c18abb0adaa7442ae07" target="_top" xlink:title="Internal function for adding a flag.">
<polygon fill="white" stroke="black" points="168.5,-264.5 168.5,-294.5 278.5,-294.5 278.5,-264.5 168.5,-264.5"/>
<text text-anchor="start" x="176.5" y="-282.5" font-family="Helvetica,sans-Serif" font-size="10.00">CLI::App::_add_flag</text>
<text text-anchor="middle" x="223.5" y="-271.5" font-family="Helvetica,sans-Serif" font-size="10.00">_internal</text>
</a>
</g>
</g>
<!-- Node1&#45;&gt;Node2 -->
<g id="edge1" class="edge">
<title>Node1&#45;&gt;Node2</title>
<path fill="none" stroke="midnightblue" d="M374.23,-165.47C357.44,-188.86 325.24,-229.67 289,-254.5 283.55,-258.23 277.47,-261.52 271.27,-264.37"/>
<polygon fill="midnightblue" stroke="midnightblue" points="377.19,-167.35 380.07,-157.16 371.46,-163.33 377.19,-167.35"/>
</g>
<!-- Node3 -->
<g id="node3" class="node">
<title>Node3</title>
<g id="a_node3"><a xlink:href="class_c_l_i_1_1_app.html#aaabfb31d7fb10ee7465716b948b376dc" target="_top" xlink:title="function that could be used by subclasses of App to shift options around into subcommands">
<polygon fill="white" stroke="black" points="158,-226 158,-245 289,-245 289,-226 158,-226"/>
<text text-anchor="middle" x="223.5" y="-233" font-family="Helvetica,sans-Serif" font-size="10.00">CLI::App::_move_option</text>
</a>
</g>
</g>
<!-- Node1&#45;&gt;Node3 -->
<g id="edge2" class="edge">
<title>Node1&#45;&gt;Node3</title>
<path fill="none" stroke="midnightblue" d="M367.79,-163.61C348.98,-179.08 318.62,-202.15 289,-216.5 281.33,-220.22 272.79,-223.36 264.5,-225.95"/>
<polygon fill="midnightblue" stroke="midnightblue" points="370.15,-166.2 375.57,-157.1 365.65,-160.83 370.15,-166.2"/>
</g>
<!-- Node4 -->
<g id="node4" class="node">
<title>Node4</title>
<g id="a_node4"><a xlink:href="class_c_l_i_1_1_app.html#a4e0c00ce18bbfca1ae890a653bbd2b93" target="_top" xlink:title="Verify required options and cross requirements. Subcommands too (only if selected).">
<polygon fill="white" stroke="black" points="171,-176.5 171,-206.5 276,-206.5 276,-176.5 171,-176.5"/>
<text text-anchor="start" x="179" y="-194.5" font-family="Helvetica,sans-Serif" font-size="10.00">CLI::App::_process</text>
<text text-anchor="middle" x="223.5" y="-183.5" font-family="Helvetica,sans-Serif" font-size="10.00">_requirements</text>
</a>
</g>
</g>
<!-- Node1&#45;&gt;Node4 -->
<g id="edge3" class="edge">
<title>Node1&#45;&gt;Node4</title>
<path fill="none" stroke="midnightblue" d="M341.44,-159.74C321.19,-165.24 297.18,-171.76 276.2,-177.46"/>
<polygon fill="midnightblue" stroke="midnightblue" points="342.62,-163.05 351.35,-157.05 340.78,-156.29 342.62,-163.05"/>
</g>
<!-- Node5 -->
<g id="node5" class="node">
<title>Node5</title>
<g id="a_node5"><a xlink:href="namespace_c_l_i.html#a6cb6f8bfff8c49385fb24f6f23a23c21" target="_top" xlink:title="Helper function to mark an option as deprecated.">
<polygon fill="white" stroke="black" points="162.5,-138 162.5,-157 284.5,-157 284.5,-138 162.5,-138"/>
<text text-anchor="middle" x="223.5" y="-145" font-family="Helvetica,sans-Serif" font-size="10.00">CLI::deprecate_option</text>
</a>
</g>
</g>
<!-- Node1&#45;&gt;Node5 -->
<g id="edge4" class="edge">
<title>Node1&#45;&gt;Node5</title>
<path fill="none" stroke="midnightblue" d="M314.51,-147.5C304.55,-147.5 294.41,-147.5 284.7,-147.5"/>
<polygon fill="midnightblue" stroke="midnightblue" points="314.79,-151 324.79,-147.5 314.79,-144 314.79,-151"/>
</g>
<!-- Node7 -->
<g id="node7" class="node">
<title>Node7</title>
<g id="a_node7"><a xlink:href="class_c_l_i_1_1_formatter.html#ad29eb726bf961560f0c6419fd74332d0" target="_top" xlink:title="This is the name part of an option, Default: left column.">
<polygon fill="white" stroke="black" points="164,-88.5 164,-118.5 283,-118.5 283,-88.5 164,-88.5"/>
<text text-anchor="start" x="172" y="-106.5" font-family="Helvetica,sans-Serif" font-size="10.00">CLI::Formatter::make</text>
<text text-anchor="middle" x="223.5" y="-95.5" font-family="Helvetica,sans-Serif" font-size="10.00">_option_name</text>
</a>
</g>
</g>
<!-- Node1&#45;&gt;Node7 -->
<g id="edge6" class="edge">
<title>Node1&#45;&gt;Node7</title>
<path fill="none" stroke="midnightblue" d="M341.7,-135.33C322.59,-130.14 300.11,-124.04 279.97,-118.57"/>
<polygon fill="midnightblue" stroke="midnightblue" points="340.78,-138.71 351.35,-137.95 342.62,-131.95 340.78,-138.71"/>
</g>
<!-- Node8 -->
<g id="node8" class="node">
<title>Node8</title>
<g id="a_node8"><a xlink:href="namespace_c_l_i.html#a36cfe4a6a80bf143735c0b80960bc252" target="_top" xlink:title="Helper function to mark an option as retired.">
<polygon fill="white" stroke="black" points="173.5,-50 173.5,-69 273.5,-69 273.5,-50 173.5,-50"/>
<text text-anchor="middle" x="223.5" y="-57" font-family="Helvetica,sans-Serif" font-size="10.00">CLI::retire_option</text>
</a>
</g>
</g>
<!-- Node1&#45;&gt;Node8 -->
<g id="edge7" class="edge">
<title>Node1&#45;&gt;Node8</title>
<path fill="none" stroke="midnightblue" d="M367.79,-131.39C348.98,-115.92 318.62,-92.85 289,-78.5 281.33,-74.78 272.79,-71.64 264.5,-69.05"/>
<polygon fill="midnightblue" stroke="midnightblue" points="365.65,-134.17 375.57,-137.9 370.15,-128.8 365.65,-134.17"/>
</g>
<!-- Node10 -->
<g id="node10" class="node">
<title>Node10</title>
<g id="a_node10"><a xlink:href="namespace_c_l_i_1_1_failure_message.html#ab2a36cd7fb3b91628be43f31647f3c38" target="_top" xlink:title="Printout a clean, simple message on error (the default in CLI11 1.5+)">
<polygon fill="white" stroke="black" points="166.5,-0.5 166.5,-30.5 280.5,-30.5 280.5,-0.5 166.5,-0.5"/>
<text text-anchor="start" x="174.5" y="-18.5" font-family="Helvetica,sans-Serif" font-size="10.00">CLI::FailureMessage</text>
<text text-anchor="middle" x="223.5" y="-7.5" font-family="Helvetica,sans-Serif" font-size="10.00">::simple</text>
</a>
</g>
</g>
<!-- Node1&#45;&gt;Node10 -->
<g id="edge9" class="edge">
<title>Node1&#45;&gt;Node10</title>
<path fill="none" stroke="midnightblue" d="M374.23,-129.53C357.44,-106.14 325.24,-65.33 289,-40.5 283.55,-36.77 277.47,-33.48 271.27,-30.63"/>
<polygon fill="midnightblue" stroke="midnightblue" points="371.46,-131.67 380.07,-137.84 377.19,-127.65 371.46,-131.67"/>
</g>
<!-- Node6 -->
<g id="node6" class="node">
<title>Node6</title>
<g id="a_node6"><a xlink:href="namespace_c_l_i.html#ad6d89b5d1aba2ebdca5f94534d658cab" target="_top" xlink:title="Helper function to mark an option as deprecated.">
<polygon fill="white" stroke="black" points="0,-138 0,-157 122,-157 122,-138 0,-138"/>
<text text-anchor="middle" x="61" y="-145" font-family="Helvetica,sans-Serif" font-size="10.00">CLI::deprecate_option</text>
</a>
</g>
</g>
<!-- Node5&#45;&gt;Node6 -->
<g id="edge5" class="edge">
<title>Node5&#45;&gt;Node6</title>
<path fill="none" stroke="midnightblue" d="M151.97,-147.5C141.98,-147.5 131.79,-147.5 122.02,-147.5"/>
<polygon fill="midnightblue" stroke="midnightblue" points="152.28,-151 162.28,-147.5 152.28,-144 152.28,-151"/>
</g>
<!-- Node9 -->
<g id="node9" class="node">
<title>Node9</title>
<g id="a_node9"><a xlink:href="namespace_c_l_i.html#a52390f850f663cf38a27e134c1a39b61" target="_top" xlink:title="Helper function to mark an option as retired.">
<polygon fill="white" stroke="black" points="11,-50 11,-69 111,-69 111,-50 11,-50"/>
<text text-anchor="middle" x="61" y="-57" font-family="Helvetica,sans-Serif" font-size="10.00">CLI::retire_option</text>
</a>
</g>
</g>
<!-- Node8&#45;&gt;Node9 -->
<g id="edge8" class="edge">
<title>Node8&#45;&gt;Node9</title>
<path fill="none" stroke="midnightblue" d="M163.02,-59.5C145.89,-59.5 127.42,-59.5 111,-59.5"/>
<polygon fill="midnightblue" stroke="midnightblue" points="163.47,-63 173.47,-59.5 163.47,-56 163.47,-63"/>
</g>
</g>
</svg>
