<?xml version="1.0" encoding="UTF-8" standalone="no"?>
<!DOCTYPE svg PUBLIC "-//W3C//DTD SVG 1.1//EN"
 "http://www.w3.org/Graphics/SVG/1.1/DTD/svg11.dtd">
<!-- Generated by graphviz version 2.43.0 (0)
 -->
<!-- Title: core::socket::stream::tls::SocketConnection&lt; SocketT &gt; Pages: 1 -->
<svg width="774pt" height="2010pt"
 viewBox="0.00 0.00 774.00 2010.00" xmlns="http://www.w3.org/2000/svg" xmlns:xlink="http://www.w3.org/1999/xlink">
<g id="graph0" class="graph" transform="scale(1 1) rotate(0) translate(4 2006)">
<title>core::socket::stream::tls::SocketConnection&lt; SocketT &gt;</title>
<polygon fill="white" stroke="transparent" points="-4,4 -4,-2006 770,-2006 770,4 -4,4"/>
<!-- Node1 -->
<g id="node1" class="node">
<title>Node1</title>
<g id="a_node1"><a xlink:title=" ">
<polygon fill="#bfbfbf" stroke="black" points="287.5,-0.5 287.5,-211.5 415.5,-211.5 415.5,-0.5 287.5,-0.5"/>
<text text-anchor="start" x="295.5" y="-199.5" font-family="Helvetica,sans-Serif" font-size="10.00">core::socket::stream</text>
<text text-anchor="start" x="295.5" y="-188.5" font-family="Helvetica,sans-Serif" font-size="10.00">::tls::SocketConnection</text>
<text text-anchor="middle" x="351.5" y="-177.5" font-family="Helvetica,sans-Serif" font-size="10.00">&lt; SocketT &gt;</text>
<polyline fill="none" stroke="black" points="287.5,-170.5 415.5,-170.5 "/>
<text text-anchor="start" x="295.5" y="-158.5" font-family="Helvetica,sans-Serif" font-size="10.00">&#45; ssl</text>
<text text-anchor="start" x="295.5" y="-147.5" font-family="Helvetica,sans-Serif" font-size="10.00">&#45; sslErr</text>
<text text-anchor="start" x="295.5" y="-136.5" font-family="Helvetica,sans-Serif" font-size="10.00">&#45; initTimeout</text>
<text text-anchor="start" x="295.5" y="-125.5" font-family="Helvetica,sans-Serif" font-size="10.00">&#45; shutdownTimeout</text>
<polyline fill="none" stroke="black" points="287.5,-118.5 415.5,-118.5 "/>
<text text-anchor="start" x="295.5" y="-106.5" font-family="Helvetica,sans-Serif" font-size="10.00">+ SocketConnection()</text>
<text text-anchor="start" x="295.5" y="-95.5" font-family="Helvetica,sans-Serif" font-size="10.00">+ getSSL()</text>
<text text-anchor="start" x="295.5" y="-84.5" font-family="Helvetica,sans-Serif" font-size="10.00">&#45; ~SocketConnection()</text>
<text text-anchor="start" x="295.5" y="-73.5" font-family="Helvetica,sans-Serif" font-size="10.00">&#45; startSSL()</text>
<text text-anchor="start" x="295.5" y="-62.5" font-family="Helvetica,sans-Serif" font-size="10.00">&#45; stopSSL()</text>
<text text-anchor="start" x="295.5" y="-51.5" font-family="Helvetica,sans-Serif" font-size="10.00">&#45; doSSLHandshake()</text>
<text text-anchor="start" x="295.5" y="-40.5" font-family="Helvetica,sans-Serif" font-size="10.00">&#45; doSSLShutdown()</text>
<text text-anchor="start" x="295.5" y="-29.5" font-family="Helvetica,sans-Serif" font-size="10.00">&#45; doReadShutdown()</text>
<text text-anchor="start" x="295.5" y="-18.5" font-family="Helvetica,sans-Serif" font-size="10.00">&#45; doWriteShutdown()</text>
<text text-anchor="start" x="295.5" y="-7.5" font-family="Helvetica,sans-Serif" font-size="10.00">&#45; setSSLError()</text>
</a>
</g>
</g>
<!-- Node2 -->
<g id="node2" class="node">
<title>Node2</title>
<g id="a_node2"><a xlink:href="classcore_1_1socket_1_1stream_1_1_socket_connection.html" target="_top" xlink:title=" ">
<polygon fill="white" stroke="black" points="247.5,-249.5 247.5,-581.5 455.5,-581.5 455.5,-249.5 247.5,-249.5"/>
<text text-anchor="start" x="255.5" y="-569.5" font-family="Helvetica,sans-Serif" font-size="10.00">core::socket::stream</text>
<text text-anchor="start" x="255.5" y="-558.5" font-family="Helvetica,sans-Serif" font-size="10.00">::SocketConnection&lt; core</text>
<text text-anchor="start" x="255.5" y="-547.5" font-family="Helvetica,sans-Serif" font-size="10.00">::socket::stream::tls::SocketReader</text>
<text text-anchor="start" x="255.5" y="-536.5" font-family="Helvetica,sans-Serif" font-size="10.00">&lt; SocketT &gt;, core::socket::stream</text>
<text text-anchor="start" x="255.5" y="-525.5" font-family="Helvetica,sans-Serif" font-size="10.00">::tls::SocketWriter&lt; SocketT &gt;, SocketT</text>
<text text-anchor="middle" x="351.5" y="-514.5" font-family="Helvetica,sans-Serif" font-size="10.00">::SocketAddress &gt;</text>
<polyline fill="none" stroke="black" points="247.5,-507.5 455.5,-507.5 "/>
<text text-anchor="start" x="255.5" y="-495.5" font-family="Helvetica,sans-Serif" font-size="10.00">&#45; localAddress</text>
<text text-anchor="start" x="255.5" y="-484.5" font-family="Helvetica,sans-Serif" font-size="10.00">&#45; remoteAddress</text>
<text text-anchor="start" x="255.5" y="-473.5" font-family="Helvetica,sans-Serif" font-size="10.00">&#45; newSocketContext</text>
<text text-anchor="start" x="255.5" y="-462.5" font-family="Helvetica,sans-Serif" font-size="10.00">&#45; onDisconnect</text>
<polyline fill="none" stroke="black" points="247.5,-455.5 455.5,-455.5 "/>
<text text-anchor="start" x="255.5" y="-443.5" font-family="Helvetica,sans-Serif" font-size="10.00">+ close()</text>
<text text-anchor="start" x="255.5" y="-432.5" font-family="Helvetica,sans-Serif" font-size="10.00">+ shutdownRead()</text>
<text text-anchor="start" x="255.5" y="-421.5" font-family="Helvetica,sans-Serif" font-size="10.00">+ shutdownWrite()</text>
<text text-anchor="start" x="255.5" y="-410.5" font-family="Helvetica,sans-Serif" font-size="10.00">+ setTimeout()</text>
<text text-anchor="start" x="255.5" y="-399.5" font-family="Helvetica,sans-Serif" font-size="10.00">+ getRemoteAddress()</text>
<text text-anchor="start" x="255.5" y="-388.5" font-family="Helvetica,sans-Serif" font-size="10.00">+ getLocalAddress()</text>
<text text-anchor="start" x="255.5" y="-377.5" font-family="Helvetica,sans-Serif" font-size="10.00">+ getSocketContext()</text>
<text text-anchor="start" x="255.5" y="-366.5" font-family="Helvetica,sans-Serif" font-size="10.00"># SocketConnection()</text>
<text text-anchor="start" x="255.5" y="-355.5" font-family="Helvetica,sans-Serif" font-size="10.00"># ~SocketConnection()</text>
<text text-anchor="start" x="255.5" y="-344.5" font-family="Helvetica,sans-Serif" font-size="10.00">&#45; SocketConnection()</text>
<text text-anchor="start" x="255.5" y="-333.5" font-family="Helvetica,sans-Serif" font-size="10.00">&#45; getLocalAddressAsString()</text>
<text text-anchor="start" x="255.5" y="-322.5" font-family="Helvetica,sans-Serif" font-size="10.00">&#45; getRemoteAddressAsString()</text>
<text text-anchor="start" x="255.5" y="-311.5" font-family="Helvetica,sans-Serif" font-size="10.00">&#45; readFromPeer()</text>
<text text-anchor="start" x="255.5" y="-300.5" font-family="Helvetica,sans-Serif" font-size="10.00">&#45; sendToPeer()</text>
<text text-anchor="start" x="255.5" y="-289.5" font-family="Helvetica,sans-Serif" font-size="10.00">&#45; sendToPeer()</text>
<text text-anchor="start" x="255.5" y="-278.5" font-family="Helvetica,sans-Serif" font-size="10.00">&#45; readEvent()</text>
<text text-anchor="start" x="255.5" y="-267.5" font-family="Helvetica,sans-Serif" font-size="10.00">&#45; writeEvent()</text>
<text text-anchor="start" x="255.5" y="-256.5" font-family="Helvetica,sans-Serif" font-size="10.00">&#45; unobservedEvent()</text>
</a>
</g>
</g>
<!-- Node2&#45;&gt;Node1 -->
<g id="edge1" class="edge">
<title>Node2&#45;&gt;Node1</title>
<path fill="none" stroke="midnightblue" d="M351.5,-239.31C351.5,-229.95 351.5,-220.7 351.5,-211.7"/>
<polygon fill="none" stroke="midnightblue" points="348,-239.5 351.5,-249.5 355,-239.5 348,-239.5"/>
</g>
<!-- Node3 -->
<g id="node3" class="node">
<title>Node3</title>
<g id="a_node3"><a xlink:href="classcore_1_1socket_1_1_socket_connection.html" target="_top" xlink:title=" ">
<polygon fill="white" stroke="black" points="0,-1010.5 0,-1298.5 169,-1298.5 169,-1010.5 0,-1010.5"/>
<text text-anchor="middle" x="84.5" y="-1286.5" font-family="Helvetica,sans-Serif" font-size="10.00">core::socket::SocketConnection</text>
<polyline fill="none" stroke="black" points="0,-1279.5 169,-1279.5 "/>
<text text-anchor="start" x="8" y="-1267.5" font-family="Helvetica,sans-Serif" font-size="10.00">&#45; socketContext</text>
<text text-anchor="start" x="8" y="-1256.5" font-family="Helvetica,sans-Serif" font-size="10.00">&#45; newSocketContext</text>
<polyline fill="none" stroke="black" points="0,-1249.5 169,-1249.5 "/>
<text text-anchor="start" x="8" y="-1237.5" font-family="Helvetica,sans-Serif" font-size="10.00">+ getSocketContext()</text>
<text text-anchor="start" x="8" y="-1226.5" font-family="Helvetica,sans-Serif" font-size="10.00">+ close()</text>
<text text-anchor="start" x="8" y="-1215.5" font-family="Helvetica,sans-Serif" font-size="10.00">+ shutdownRead()</text>
<text text-anchor="start" x="8" y="-1204.5" font-family="Helvetica,sans-Serif" font-size="10.00">+ shutdownWrite()</text>
<text text-anchor="start" x="8" y="-1193.5" font-family="Helvetica,sans-Serif" font-size="10.00">+ setTimeout()</text>
<text text-anchor="start" x="8" y="-1182.5" font-family="Helvetica,sans-Serif" font-size="10.00">+ getLocalAddressAsString()</text>
<text text-anchor="start" x="8" y="-1171.5" font-family="Helvetica,sans-Serif" font-size="10.00">+ getRemoteAddressAsString()</text>
<text text-anchor="start" x="8" y="-1160.5" font-family="Helvetica,sans-Serif" font-size="10.00">+ sendToPeer()</text>
<text text-anchor="start" x="8" y="-1149.5" font-family="Helvetica,sans-Serif" font-size="10.00">+ sendToPeer()</text>
<text text-anchor="start" x="8" y="-1138.5" font-family="Helvetica,sans-Serif" font-size="10.00">+ readFromPeer()</text>
<text text-anchor="start" x="8" y="-1127.5" font-family="Helvetica,sans-Serif" font-size="10.00">+ switchSocketContext()</text>
<text text-anchor="start" x="8" y="-1116.5" font-family="Helvetica,sans-Serif" font-size="10.00"># SocketConnection()</text>
<text text-anchor="start" x="8" y="-1105.5" font-family="Helvetica,sans-Serif" font-size="10.00"># ~SocketConnection()</text>
<text text-anchor="start" x="8" y="-1094.5" font-family="Helvetica,sans-Serif" font-size="10.00"># onConnected()</text>
<text text-anchor="start" x="8" y="-1083.5" font-family="Helvetica,sans-Serif" font-size="10.00"># onDisconnected()</text>
<text text-anchor="start" x="8" y="-1072.5" font-family="Helvetica,sans-Serif" font-size="10.00"># onReceiveFromPeer()</text>
<text text-anchor="start" x="8" y="-1061.5" font-family="Helvetica,sans-Serif" font-size="10.00"># onWriteError()</text>
<text text-anchor="start" x="8" y="-1050.5" font-family="Helvetica,sans-Serif" font-size="10.00"># onReadError()</text>
<text text-anchor="start" x="8" y="-1039.5" font-family="Helvetica,sans-Serif" font-size="10.00">&#45; SocketConnection()</text>
<text text-anchor="start" x="8" y="-1028.5" font-family="Helvetica,sans-Serif" font-size="10.00">&#45; SocketConnection()</text>
<text text-anchor="start" x="8" y="-1017.5" font-family="Helvetica,sans-Serif" font-size="10.00">&#45; operator=()</text>
</a>
</g>
</g>
<!-- Node3&#45;&gt;Node2 -->
<g id="edge2" class="edge">
<title>Node3&#45;&gt;Node2</title>
<path fill="none" stroke="darkgreen" d="M78.66,-1000.1C80.3,-902.8 92.51,-776.26 136.5,-673 161.83,-613.53 205.75,-557.31 247.32,-512.74"/>
<polygon fill="none" stroke="darkgreen" points="75.16,-1000.27 78.52,-1010.32 82.16,-1000.36 75.16,-1000.27"/>
</g>
<!-- Node14 -->
<g id="node14" class="node">
<title>Node14</title>
<g id="a_node14"><a xlink:href="classcore_1_1socket_1_1stream_1_1_socket_connection.html" target="_top" xlink:title=" ">
<polygon fill="white" stroke="black" points="146,-673.5 146,-972.5 337,-972.5 337,-673.5 146,-673.5"/>
<text text-anchor="start" x="154" y="-960.5" font-family="Helvetica,sans-Serif" font-size="10.00">core::socket::stream</text>
<text text-anchor="start" x="154" y="-949.5" font-family="Helvetica,sans-Serif" font-size="10.00">::SocketConnection&lt; SocketReader</text>
<text text-anchor="middle" x="241.5" y="-938.5" font-family="Helvetica,sans-Serif" font-size="10.00">T, SocketWriterT, SocketAddressT &gt;</text>
<polyline fill="none" stroke="black" points="146,-931.5 337,-931.5 "/>
<text text-anchor="start" x="154" y="-919.5" font-family="Helvetica,sans-Serif" font-size="10.00">&#45; localAddress</text>
<text text-anchor="start" x="154" y="-908.5" font-family="Helvetica,sans-Serif" font-size="10.00">&#45; remoteAddress</text>
<text text-anchor="start" x="154" y="-897.5" font-family="Helvetica,sans-Serif" font-size="10.00">&#45; newSocketContext</text>
<text text-anchor="start" x="154" y="-886.5" font-family="Helvetica,sans-Serif" font-size="10.00">&#45; onDisconnect</text>
<polyline fill="none" stroke="black" points="146,-879.5 337,-879.5 "/>
<text text-anchor="start" x="154" y="-867.5" font-family="Helvetica,sans-Serif" font-size="10.00">+ close()</text>
<text text-anchor="start" x="154" y="-856.5" font-family="Helvetica,sans-Serif" font-size="10.00">+ shutdownRead()</text>
<text text-anchor="start" x="154" y="-845.5" font-family="Helvetica,sans-Serif" font-size="10.00">+ shutdownWrite()</text>
<text text-anchor="start" x="154" y="-834.5" font-family="Helvetica,sans-Serif" font-size="10.00">+ setTimeout()</text>
<text text-anchor="start" x="154" y="-823.5" font-family="Helvetica,sans-Serif" font-size="10.00">+ getRemoteAddress()</text>
<text text-anchor="start" x="154" y="-812.5" font-family="Helvetica,sans-Serif" font-size="10.00">+ getLocalAddress()</text>
<text text-anchor="start" x="154" y="-801.5" font-family="Helvetica,sans-Serif" font-size="10.00">+ getSocketContext()</text>
<text text-anchor="start" x="154" y="-790.5" font-family="Helvetica,sans-Serif" font-size="10.00"># SocketConnection()</text>
<text text-anchor="start" x="154" y="-779.5" font-family="Helvetica,sans-Serif" font-size="10.00"># ~SocketConnection()</text>
<text text-anchor="start" x="154" y="-768.5" font-family="Helvetica,sans-Serif" font-size="10.00">&#45; SocketConnection()</text>
<text text-anchor="start" x="154" y="-757.5" font-family="Helvetica,sans-Serif" font-size="10.00">&#45; getLocalAddressAsString()</text>
<text text-anchor="start" x="154" y="-746.5" font-family="Helvetica,sans-Serif" font-size="10.00">&#45; getRemoteAddressAsString()</text>
<text text-anchor="start" x="154" y="-735.5" font-family="Helvetica,sans-Serif" font-size="10.00">&#45; readFromPeer()</text>
<text text-anchor="start" x="154" y="-724.5" font-family="Helvetica,sans-Serif" font-size="10.00">&#45; sendToPeer()</text>
<text text-anchor="start" x="154" y="-713.5" font-family="Helvetica,sans-Serif" font-size="10.00">&#45; sendToPeer()</text>
<text text-anchor="start" x="154" y="-702.5" font-family="Helvetica,sans-Serif" font-size="10.00">&#45; readEvent()</text>
<text text-anchor="start" x="154" y="-691.5" font-family="Helvetica,sans-Serif" font-size="10.00">&#45; writeEvent()</text>
<text text-anchor="start" x="154" y="-680.5" font-family="Helvetica,sans-Serif" font-size="10.00">&#45; unobservedEvent()</text>
</a>
</g>
</g>
<!-- Node3&#45;&gt;Node14 -->
<g id="edge16" class="edge">
<title>Node3&#45;&gt;Node14</title>
<path fill="none" stroke="darkgreen" d="M157.02,-1001.3C161.56,-991.78 166.12,-982.2 170.65,-972.69"/>
<polygon fill="none" stroke="darkgreen" points="153.82,-999.88 152.68,-1010.41 160.14,-1002.89 153.82,-999.88"/>
</g>
<!-- Node4 -->
<g id="node4" class="node">
<title>Node4</title>
<g id="a_node4"><a xlink:href="classcore_1_1socket_1_1stream_1_1tls_1_1_socket_reader.html" target="_top" xlink:title=" ">
<polygon fill="white" stroke="black" points="382.5,-761.5 382.5,-884.5 542.5,-884.5 542.5,-761.5 382.5,-761.5"/>
<text text-anchor="start" x="390.5" y="-872.5" font-family="Helvetica,sans-Serif" font-size="10.00">core::socket::stream</text>
<text text-anchor="start" x="390.5" y="-861.5" font-family="Helvetica,sans-Serif" font-size="10.00">::tls::SocketReader&lt;</text>
<text text-anchor="middle" x="462.5" y="-850.5" font-family="Helvetica,sans-Serif" font-size="10.00"> SocketT &gt;</text>
<polyline fill="none" stroke="black" points="382.5,-843.5 542.5,-843.5 "/>
<text text-anchor="start" x="390.5" y="-831.5" font-family="Helvetica,sans-Serif" font-size="10.00"># ssl</text>
<text text-anchor="start" x="390.5" y="-820.5" font-family="Helvetica,sans-Serif" font-size="10.00"># sslErr</text>
<polyline fill="none" stroke="black" points="382.5,-813.5 542.5,-813.5 "/>
<text text-anchor="start" x="390.5" y="-801.5" font-family="Helvetica,sans-Serif" font-size="10.00"># terminate()</text>
<text text-anchor="start" x="390.5" y="-790.5" font-family="Helvetica,sans-Serif" font-size="10.00"># doSSLHandshake()</text>
<text text-anchor="start" x="390.5" y="-779.5" font-family="Helvetica,sans-Serif" font-size="10.00">&#45; read()</text>
<text text-anchor="start" x="390.5" y="-768.5" font-family="Helvetica,sans-Serif" font-size="10.00">&#45; continueReadImmediately()</text>
</a>
</g>
</g>
<!-- Node4&#45;&gt;Node2 -->
<g id="edge3" class="edge">
<title>Node4&#45;&gt;Node2</title>
<path fill="none" stroke="darkgreen" d="M458.03,-751.18C454,-707.06 446.46,-649.48 432.5,-600 430.77,-593.88 428.88,-587.71 426.86,-581.51"/>
<polygon fill="none" stroke="darkgreen" points="454.56,-751.58 458.91,-761.23 461.53,-750.97 454.56,-751.58"/>
</g>
<!-- Node5 -->
<g id="node5" class="node">
<title>Node5</title>
<g id="a_node5"><a xlink:href="classcore_1_1socket_1_1stream_1_1_socket_reader.html" target="_top" xlink:title=" ">
<polygon fill="white" stroke="black" points="397.5,-1021.5 397.5,-1287.5 561.5,-1287.5 561.5,-1021.5 397.5,-1021.5"/>
<text text-anchor="start" x="405.5" y="-1275.5" font-family="Helvetica,sans-Serif" font-size="10.00">core::socket::stream</text>
<text text-anchor="middle" x="479.5" y="-1264.5" font-family="Helvetica,sans-Serif" font-size="10.00">::SocketReader&lt; SocketT &gt;</text>
<polyline fill="none" stroke="black" points="397.5,-1257.5 561.5,-1257.5 "/>
<text text-anchor="start" x="405.5" y="-1245.5" font-family="Helvetica,sans-Serif" font-size="10.00">&#45; onError</text>
<text text-anchor="start" x="405.5" y="-1234.5" font-family="Helvetica,sans-Serif" font-size="10.00">&#45; readBuffer</text>
<text text-anchor="start" x="405.5" y="-1223.5" font-family="Helvetica,sans-Serif" font-size="10.00">&#45; blockSize</text>
<text text-anchor="start" x="405.5" y="-1212.5" font-family="Helvetica,sans-Serif" font-size="10.00">&#45; size</text>
<text text-anchor="start" x="405.5" y="-1201.5" font-family="Helvetica,sans-Serif" font-size="10.00">&#45; cursor</text>
<text text-anchor="start" x="405.5" y="-1190.5" font-family="Helvetica,sans-Serif" font-size="10.00">&#45; shutdownTriggered</text>
<text text-anchor="start" x="405.5" y="-1179.5" font-family="Helvetica,sans-Serif" font-size="10.00">&#45; terminateInProgress</text>
<text text-anchor="start" x="405.5" y="-1168.5" font-family="Helvetica,sans-Serif" font-size="10.00">&#45; terminateTimeout</text>
<polyline fill="none" stroke="black" points="397.5,-1161.5 561.5,-1161.5 "/>
<text text-anchor="start" x="405.5" y="-1149.5" font-family="Helvetica,sans-Serif" font-size="10.00"># SocketReader()</text>
<text text-anchor="start" x="405.5" y="-1138.5" font-family="Helvetica,sans-Serif" font-size="10.00"># ~SocketReader()</text>
<text text-anchor="start" x="405.5" y="-1127.5" font-family="Helvetica,sans-Serif" font-size="10.00"># setBlockSize()</text>
<text text-anchor="start" x="405.5" y="-1116.5" font-family="Helvetica,sans-Serif" font-size="10.00"># doReadShutdown()</text>
<text text-anchor="start" x="405.5" y="-1105.5" font-family="Helvetica,sans-Serif" font-size="10.00"># readFromPeer()</text>
<text text-anchor="start" x="405.5" y="-1094.5" font-family="Helvetica,sans-Serif" font-size="10.00"># doRead()</text>
<text text-anchor="start" x="405.5" y="-1083.5" font-family="Helvetica,sans-Serif" font-size="10.00"># continueReadImmediately()</text>
<text text-anchor="start" x="405.5" y="-1072.5" font-family="Helvetica,sans-Serif" font-size="10.00"># shutdown()</text>
<text text-anchor="start" x="405.5" y="-1061.5" font-family="Helvetica,sans-Serif" font-size="10.00"># terminate()</text>
<text text-anchor="start" x="405.5" y="-1050.5" font-family="Helvetica,sans-Serif" font-size="10.00">&#45; SocketReader()</text>
<text text-anchor="start" x="405.5" y="-1039.5" font-family="Helvetica,sans-Serif" font-size="10.00">&#45; read()</text>
<text text-anchor="start" x="405.5" y="-1028.5" font-family="Helvetica,sans-Serif" font-size="10.00">&#45; readEvent()</text>
</a>
</g>
</g>
<!-- Node5&#45;&gt;Node4 -->
<g id="edge4" class="edge">
<title>Node5&#45;&gt;Node4</title>
<path fill="none" stroke="midnightblue" d="M472.17,-1011.36C469.88,-967 467.47,-920.42 465.64,-884.8"/>
<polygon fill="none" stroke="midnightblue" points="468.67,-1011.57 472.68,-1021.38 475.66,-1011.21 468.67,-1011.57"/>
</g>
<!-- Node6 -->
<g id="node6" class="node">
<title>Node6</title>
<g id="a_node6"><a xlink:href="classcore_1_1_read_event_receiver.html" target="_top" xlink:title=" ">
<polygon fill="white" stroke="black" points="353.5,-1336.5 353.5,-1459.5 513.5,-1459.5 513.5,-1336.5 353.5,-1336.5"/>
<text text-anchor="middle" x="433.5" y="-1447.5" font-family="Helvetica,sans-Serif" font-size="10.00">core::ReadEventReceiver</text>
<polyline fill="none" stroke="black" points="353.5,-1440.5 513.5,-1440.5 "/>
<text text-anchor="middle" x="433.5" y="-1428.5" font-family="Helvetica,sans-Serif" font-size="10.00"> </text>
<polyline fill="none" stroke="black" points="353.5,-1421.5 513.5,-1421.5 "/>
<text text-anchor="start" x="361.5" y="-1409.5" font-family="Helvetica,sans-Serif" font-size="10.00"># ReadEventReceiver()</text>
<text text-anchor="start" x="361.5" y="-1398.5" font-family="Helvetica,sans-Serif" font-size="10.00">&#45; readEvent()</text>
<text text-anchor="start" x="361.5" y="-1387.5" font-family="Helvetica,sans-Serif" font-size="10.00">&#45; readTimeout()</text>
<text text-anchor="start" x="361.5" y="-1376.5" font-family="Helvetica,sans-Serif" font-size="10.00">&#45; dispatchEvent()</text>
<text text-anchor="start" x="361.5" y="-1365.5" font-family="Helvetica,sans-Serif" font-size="10.00">&#45; timeoutEvent()</text>
<text text-anchor="start" x="361.5" y="-1354.5" font-family="Helvetica,sans-Serif" font-size="10.00">&#45; continueImmediately()</text>
<text text-anchor="start" x="361.5" y="-1343.5" font-family="Helvetica,sans-Serif" font-size="10.00">&#45; continueReadImmediately()</text>
</a>
</g>
</g>
<!-- Node6&#45;&gt;Node5 -->
<g id="edge5" class="edge">
<title>Node6&#45;&gt;Node5</title>
<path fill="none" stroke="midnightblue" d="M446.96,-1326.34C449.28,-1314.14 451.76,-1301.12 454.28,-1287.91"/>
<polygon fill="none" stroke="midnightblue" points="443.48,-1325.89 445.05,-1336.37 450.36,-1327.2 443.48,-1325.89"/>
</g>
<!-- Node7 -->
<g id="node7" class="node">
<title>Node7</title>
<g id="a_node7"><a xlink:href="classcore_1_1_descriptor_event_receiver.html" target="_top" xlink:title=" ">
<polygon fill="white" stroke="black" points="476.5,-1497.5 476.5,-1862.5 640.5,-1862.5 640.5,-1497.5 476.5,-1497.5"/>
<text text-anchor="middle" x="558.5" y="-1850.5" font-family="Helvetica,sans-Serif" font-size="10.00">core::DescriptorEventReceiver</text>
<polyline fill="none" stroke="black" points="476.5,-1843.5 640.5,-1843.5 "/>
<text text-anchor="start" x="484.5" y="-1831.5" font-family="Helvetica,sans-Serif" font-size="10.00">+ publisedTime</text>
<text text-anchor="start" x="484.5" y="-1820.5" font-family="Helvetica,sans-Serif" font-size="10.00">+ lastTriggered</text>
<text text-anchor="start" x="484.5" y="-1809.5" font-family="Helvetica,sans-Serif" font-size="10.00">+ maxInactivity</text>
<text text-anchor="start" x="484.5" y="-1798.5" font-family="Helvetica,sans-Serif" font-size="10.00">+ initialTimeout</text>
<text text-anchor="start" x="484.5" y="-1787.5" font-family="Helvetica,sans-Serif" font-size="10.00">+ eventCounter</text>
<text text-anchor="start" x="484.5" y="-1776.5" font-family="Helvetica,sans-Serif" font-size="10.00">&#45; descriptorEventDispatcher</text>
<text text-anchor="start" x="484.5" y="-1765.5" font-family="Helvetica,sans-Serif" font-size="10.00">&#45; registeredFd</text>
<text text-anchor="start" x="484.5" y="-1754.5" font-family="Helvetica,sans-Serif" font-size="10.00">&#45; enabled</text>
<text text-anchor="start" x="484.5" y="-1743.5" font-family="Helvetica,sans-Serif" font-size="10.00">&#45; suspended</text>
<polyline fill="none" stroke="black" points="476.5,-1736.5 640.5,-1736.5 "/>
<text text-anchor="start" x="484.5" y="-1724.5" font-family="Helvetica,sans-Serif" font-size="10.00">+ getRegisteredFd()</text>
<text text-anchor="start" x="484.5" y="-1713.5" font-family="Helvetica,sans-Serif" font-size="10.00">+ continueImmediately()</text>
<text text-anchor="start" x="484.5" y="-1702.5" font-family="Helvetica,sans-Serif" font-size="10.00">+ enable()</text>
<text text-anchor="start" x="484.5" y="-1691.5" font-family="Helvetica,sans-Serif" font-size="10.00">+ disable()</text>
<text text-anchor="start" x="484.5" y="-1680.5" font-family="Helvetica,sans-Serif" font-size="10.00">+ isEnabled()</text>
<text text-anchor="start" x="484.5" y="-1669.5" font-family="Helvetica,sans-Serif" font-size="10.00">+ suspend()</text>
<text text-anchor="start" x="484.5" y="-1658.5" font-family="Helvetica,sans-Serif" font-size="10.00">+ resume()</text>
<text text-anchor="start" x="484.5" y="-1647.5" font-family="Helvetica,sans-Serif" font-size="10.00">+ isSuspended()</text>
<text text-anchor="start" x="484.5" y="-1636.5" font-family="Helvetica,sans-Serif" font-size="10.00">+ dispatch()</text>
<text text-anchor="start" x="484.5" y="-1625.5" font-family="Helvetica,sans-Serif" font-size="10.00">+ triggered()</text>
<text text-anchor="start" x="484.5" y="-1614.5" font-family="Helvetica,sans-Serif" font-size="10.00">+ disabled()</text>
<text text-anchor="start" x="484.5" y="-1603.5" font-family="Helvetica,sans-Serif" font-size="10.00">+ terminate()</text>
<text text-anchor="start" x="484.5" y="-1592.5" font-family="Helvetica,sans-Serif" font-size="10.00">+ setTimeout()</text>
<text text-anchor="start" x="484.5" y="-1581.5" font-family="Helvetica,sans-Serif" font-size="10.00">+ getTimeout()</text>
<text text-anchor="start" x="484.5" y="-1570.5" font-family="Helvetica,sans-Serif" font-size="10.00">+ checkTimeout()</text>
<text text-anchor="start" x="484.5" y="-1559.5" font-family="Helvetica,sans-Serif" font-size="10.00"># DescriptorEventReceiver()</text>
<text text-anchor="start" x="484.5" y="-1548.5" font-family="Helvetica,sans-Serif" font-size="10.00"># ~DescriptorEventReceiver()</text>
<text text-anchor="start" x="484.5" y="-1537.5" font-family="Helvetica,sans-Serif" font-size="10.00">&#45; DescriptorEventReceiver()</text>
<text text-anchor="start" x="484.5" y="-1526.5" font-family="Helvetica,sans-Serif" font-size="10.00">&#45; operator=()</text>
<text text-anchor="start" x="484.5" y="-1515.5" font-family="Helvetica,sans-Serif" font-size="10.00">&#45; dispatchEvent()</text>
<text text-anchor="start" x="484.5" y="-1504.5" font-family="Helvetica,sans-Serif" font-size="10.00">&#45; timeoutEvent()</text>
</a>
</g>
</g>
<!-- Node7&#45;&gt;Node6 -->
<g id="edge6" class="edge">
<title>Node7&#45;&gt;Node6</title>
<path fill="none" stroke="midnightblue" d="M473.26,-1488.06C468.81,-1478.1 464.54,-1468.53 460.55,-1459.6"/>
<polygon fill="none" stroke="midnightblue" points="470.12,-1489.62 477.39,-1497.32 476.51,-1486.77 470.12,-1489.62"/>
</g>
<!-- Node13 -->
<g id="node13" class="node">
<title>Node13</title>
<g id="a_node13"><a xlink:href="classcore_1_1_write_event_receiver.html" target="_top" xlink:title=" ">
<polygon fill="white" stroke="black" points="605,-1336.5 605,-1459.5 766,-1459.5 766,-1336.5 605,-1336.5"/>
<text text-anchor="middle" x="685.5" y="-1447.5" font-family="Helvetica,sans-Serif" font-size="10.00">core::WriteEventReceiver</text>
<polyline fill="none" stroke="black" points="605,-1440.5 766,-1440.5 "/>
<text text-anchor="middle" x="685.5" y="-1428.5" font-family="Helvetica,sans-Serif" font-size="10.00"> </text>
<polyline fill="none" stroke="black" points="605,-1421.5 766,-1421.5 "/>
<text text-anchor="start" x="613" y="-1409.5" font-family="Helvetica,sans-Serif" font-size="10.00"># WriteEventReceiver()</text>
<text text-anchor="start" x="613" y="-1398.5" font-family="Helvetica,sans-Serif" font-size="10.00">&#45; writeEvent()</text>
<text text-anchor="start" x="613" y="-1387.5" font-family="Helvetica,sans-Serif" font-size="10.00">&#45; writeTimeout()</text>
<text text-anchor="start" x="613" y="-1376.5" font-family="Helvetica,sans-Serif" font-size="10.00">&#45; dispatchEvent()</text>
<text text-anchor="start" x="613" y="-1365.5" font-family="Helvetica,sans-Serif" font-size="10.00">&#45; timeoutEvent()</text>
<text text-anchor="start" x="613" y="-1354.5" font-family="Helvetica,sans-Serif" font-size="10.00">&#45; continueImmediately()</text>
<text text-anchor="start" x="613" y="-1343.5" font-family="Helvetica,sans-Serif" font-size="10.00">&#45; continueWriteImmediately()</text>
</a>
</g>
</g>
<!-- Node7&#45;&gt;Node13 -->
<g id="edge13" class="edge">
<title>Node7&#45;&gt;Node13</title>
<path fill="none" stroke="midnightblue" d="M644.7,-1488.96C649.37,-1478.65 653.86,-1468.77 658.03,-1459.57"/>
<polygon fill="none" stroke="midnightblue" points="641.49,-1487.56 640.55,-1498.11 647.86,-1490.45 641.49,-1487.56"/>
</g>
<!-- Node8 -->
<g id="node8" class="node">
<title>Node8</title>
<g id="a_node8"><a xlink:href="classcore_1_1_observer.html" target="_top" xlink:title=" ">
<polygon fill="white" stroke="black" points="409,-1900.5 409,-2001.5 558,-2001.5 558,-1900.5 409,-1900.5"/>
<text text-anchor="middle" x="483.5" y="-1989.5" font-family="Helvetica,sans-Serif" font-size="10.00">core::Observer</text>
<polyline fill="none" stroke="black" points="409,-1982.5 558,-1982.5 "/>
<text text-anchor="start" x="417" y="-1970.5" font-family="Helvetica,sans-Serif" font-size="10.00">&#45; observationCounter</text>
<polyline fill="none" stroke="black" points="409,-1963.5 558,-1963.5 "/>
<text text-anchor="start" x="417" y="-1951.5" font-family="Helvetica,sans-Serif" font-size="10.00">+ isObserved()</text>
<text text-anchor="start" x="417" y="-1940.5" font-family="Helvetica,sans-Serif" font-size="10.00">+ observed()</text>
<text text-anchor="start" x="417" y="-1929.5" font-family="Helvetica,sans-Serif" font-size="10.00">+ unObserved()</text>
<text text-anchor="start" x="417" y="-1918.5" font-family="Helvetica,sans-Serif" font-size="10.00">+ getObservationCounter()</text>
<text text-anchor="start" x="417" y="-1907.5" font-family="Helvetica,sans-Serif" font-size="10.00">+ unobservedEvent()</text>
</a>
</g>
</g>
<!-- Node8&#45;&gt;Node7 -->
<g id="edge7" class="edge">
<title>Node8&#45;&gt;Node7</title>
<path fill="none" stroke="midnightblue" d="M500.03,-1890.71C502.48,-1881.93 505.1,-1872.52 507.83,-1862.72"/>
<polygon fill="none" stroke="midnightblue" points="496.66,-1889.78 497.34,-1900.35 503.4,-1891.66 496.66,-1889.78"/>
</g>
<!-- Node9 -->
<g id="node9" class="node">
<title>Node9</title>
<g id="a_node9"><a xlink:href="classcore_1_1_event_receiver.html" target="_top" xlink:title=" ">
<polygon fill="white" stroke="black" points="576.5,-1906 576.5,-1996 690.5,-1996 690.5,-1906 576.5,-1906"/>
<text text-anchor="middle" x="633.5" y="-1984" font-family="Helvetica,sans-Serif" font-size="10.00">core::EventReceiver</text>
<polyline fill="none" stroke="black" points="576.5,-1977 690.5,-1977 "/>
<text text-anchor="start" x="584.5" y="-1965" font-family="Helvetica,sans-Serif" font-size="10.00"># event</text>
<polyline fill="none" stroke="black" points="576.5,-1958 690.5,-1958 "/>
<text text-anchor="start" x="584.5" y="-1946" font-family="Helvetica,sans-Serif" font-size="10.00">+ EventReceiver()</text>
<text text-anchor="start" x="584.5" y="-1935" font-family="Helvetica,sans-Serif" font-size="10.00">+ ~EventReceiver()</text>
<text text-anchor="start" x="584.5" y="-1924" font-family="Helvetica,sans-Serif" font-size="10.00">+ publish()</text>
<text text-anchor="start" x="584.5" y="-1913" font-family="Helvetica,sans-Serif" font-size="10.00">+ dispatch()</text>
</a>
</g>
</g>
<!-- Node9&#45;&gt;Node7 -->
<g id="edge8" class="edge">
<title>Node9&#45;&gt;Node7</title>
<path fill="none" stroke="midnightblue" d="M618.43,-1895.96C615.57,-1885.7 612.43,-1874.44 609.14,-1862.63"/>
<polygon fill="none" stroke="midnightblue" points="615.14,-1897.19 621.2,-1905.88 621.88,-1895.31 615.14,-1897.19"/>
</g>
<!-- Node10 -->
<g id="node10" class="node">
<title>Node10</title>
<g id="a_node10"><a xlink:title=" ">
<polygon fill="white" stroke="#bfbfbf" points="532,-1369.5 532,-1426.5 587,-1426.5 587,-1369.5 532,-1369.5"/>
<text text-anchor="middle" x="559.5" y="-1414.5" font-family="Helvetica,sans-Serif" font-size="10.00">SocketT</text>
<polyline fill="none" stroke="#bfbfbf" points="532,-1407.5 587,-1407.5 "/>
<text text-anchor="middle" x="559.5" y="-1395.5" font-family="Helvetica,sans-Serif" font-size="10.00"> </text>
<polyline fill="none" stroke="#bfbfbf" points="532,-1388.5 587,-1388.5 "/>
<text text-anchor="middle" x="559.5" y="-1376.5" font-family="Helvetica,sans-Serif" font-size="10.00"> </text>
</a>
</g>
</g>
<!-- Node10&#45;&gt;Node5 -->
<g id="edge9" class="edge">
<title>Node10&#45;&gt;Node5</title>
<path fill="none" stroke="midnightblue" d="M547.17,-1359.77C540.6,-1339.93 532.07,-1314.19 523.3,-1287.72"/>
<polygon fill="none" stroke="midnightblue" points="543.86,-1360.9 550.32,-1369.3 550.5,-1358.7 543.86,-1360.9"/>
</g>
<!-- Node12 -->
<g id="node12" class="node">
<title>Node12</title>
<g id="a_node12"><a xlink:href="classcore_1_1socket_1_1stream_1_1_socket_writer.html" target="_top" xlink:title=" ">
<polygon fill="white" stroke="black" points="579.5,-1032.5 579.5,-1276.5 725.5,-1276.5 725.5,-1032.5 579.5,-1032.5"/>
<text text-anchor="start" x="587.5" y="-1264.5" font-family="Helvetica,sans-Serif" font-size="10.00">core::socket::stream</text>
<text text-anchor="middle" x="652.5" y="-1253.5" font-family="Helvetica,sans-Serif" font-size="10.00">::SocketWriter&lt; SocketT &gt;</text>
<polyline fill="none" stroke="black" points="579.5,-1246.5 725.5,-1246.5 "/>
<text text-anchor="start" x="587.5" y="-1234.5" font-family="Helvetica,sans-Serif" font-size="10.00">&#45; onError</text>
<text text-anchor="start" x="587.5" y="-1223.5" font-family="Helvetica,sans-Serif" font-size="10.00">&#45; writeBuffer</text>
<text text-anchor="start" x="587.5" y="-1212.5" font-family="Helvetica,sans-Serif" font-size="10.00">&#45; blockSize</text>
<text text-anchor="start" x="587.5" y="-1201.5" font-family="Helvetica,sans-Serif" font-size="10.00">&#45; markShutdown</text>
<text text-anchor="start" x="587.5" y="-1190.5" font-family="Helvetica,sans-Serif" font-size="10.00">&#45; shutdownInProgress</text>
<text text-anchor="start" x="587.5" y="-1179.5" font-family="Helvetica,sans-Serif" font-size="10.00">&#45; terminateInProgress</text>
<text text-anchor="start" x="587.5" y="-1168.5" font-family="Helvetica,sans-Serif" font-size="10.00">&#45; terminateTimeout</text>
<polyline fill="none" stroke="black" points="579.5,-1161.5 725.5,-1161.5 "/>
<text text-anchor="start" x="587.5" y="-1149.5" font-family="Helvetica,sans-Serif" font-size="10.00"># SocketWriter()</text>
<text text-anchor="start" x="587.5" y="-1138.5" font-family="Helvetica,sans-Serif" font-size="10.00"># ~SocketWriter()</text>
<text text-anchor="start" x="587.5" y="-1127.5" font-family="Helvetica,sans-Serif" font-size="10.00"># setBlockSize()</text>
<text text-anchor="start" x="587.5" y="-1116.5" font-family="Helvetica,sans-Serif" font-size="10.00"># doWriteShutdown()</text>
<text text-anchor="start" x="587.5" y="-1105.5" font-family="Helvetica,sans-Serif" font-size="10.00"># sendToPeer()</text>
<text text-anchor="start" x="587.5" y="-1094.5" font-family="Helvetica,sans-Serif" font-size="10.00"># doWrite()</text>
<text text-anchor="start" x="587.5" y="-1083.5" font-family="Helvetica,sans-Serif" font-size="10.00"># shutdown()</text>
<text text-anchor="start" x="587.5" y="-1072.5" font-family="Helvetica,sans-Serif" font-size="10.00"># terminate()</text>
<text text-anchor="start" x="587.5" y="-1061.5" font-family="Helvetica,sans-Serif" font-size="10.00">&#45; SocketWriter()</text>
<text text-anchor="start" x="587.5" y="-1050.5" font-family="Helvetica,sans-Serif" font-size="10.00">&#45; write()</text>
<text text-anchor="start" x="587.5" y="-1039.5" font-family="Helvetica,sans-Serif" font-size="10.00">&#45; writeEvent()</text>
</a>
</g>
</g>
<!-- Node10&#45;&gt;Node12 -->
<g id="edge14" class="edge">
<title>Node10&#45;&gt;Node12</title>
<path fill="none" stroke="midnightblue" d="M573.83,-1359.78C582.54,-1337.17 594.21,-1306.88 605.88,-1276.57"/>
<polygon fill="none" stroke="midnightblue" points="570.5,-1358.71 570.17,-1369.3 577.03,-1361.22 570.5,-1358.71"/>
</g>
<!-- Node11 -->
<g id="node11" class="node">
<title>Node11</title>
<g id="a_node11"><a xlink:href="classcore_1_1socket_1_1stream_1_1tls_1_1_socket_writer.html" target="_top" xlink:title=" ">
<polygon fill="white" stroke="black" points="582,-767 582,-879 701,-879 701,-767 582,-767"/>
<text text-anchor="start" x="590" y="-867" font-family="Helvetica,sans-Serif" font-size="10.00">core::socket::stream</text>
<text text-anchor="start" x="590" y="-856" font-family="Helvetica,sans-Serif" font-size="10.00">::tls::SocketWriter&lt;</text>
<text text-anchor="middle" x="641.5" y="-845" font-family="Helvetica,sans-Serif" font-size="10.00"> SocketT &gt;</text>
<polyline fill="none" stroke="black" points="582,-838 701,-838 "/>
<text text-anchor="start" x="590" y="-826" font-family="Helvetica,sans-Serif" font-size="10.00"># ssl</text>
<text text-anchor="start" x="590" y="-815" font-family="Helvetica,sans-Serif" font-size="10.00"># sslErr</text>
<polyline fill="none" stroke="black" points="582,-808 701,-808 "/>
<text text-anchor="start" x="590" y="-796" font-family="Helvetica,sans-Serif" font-size="10.00"># terminate()</text>
<text text-anchor="start" x="590" y="-785" font-family="Helvetica,sans-Serif" font-size="10.00"># doSSLHandshake()</text>
<text text-anchor="start" x="590" y="-774" font-family="Helvetica,sans-Serif" font-size="10.00">&#45; write()</text>
</a>
</g>
</g>
<!-- Node11&#45;&gt;Node2 -->
<g id="edge10" class="edge">
<title>Node11&#45;&gt;Node2</title>
<path fill="none" stroke="darkgreen" d="M605.1,-757.99C589.32,-731.27 570.2,-700.17 551.5,-673 521.81,-629.86 487.38,-584.31 455.54,-543.76"/>
<polygon fill="none" stroke="darkgreen" points="602.23,-760.03 610.31,-766.88 608.27,-756.48 602.23,-760.03"/>
</g>
<!-- Node12&#45;&gt;Node11 -->
<g id="edge11" class="edge">
<title>Node12&#45;&gt;Node11</title>
<path fill="none" stroke="midnightblue" d="M648.11,-1021.99C646.45,-972.22 644.65,-918.22 643.34,-879.21"/>
<polygon fill="none" stroke="midnightblue" points="644.62,-1022.33 648.45,-1032.21 651.62,-1022.1 644.62,-1022.33"/>
</g>
<!-- Node13&#45;&gt;Node12 -->
<g id="edge12" class="edge">
<title>Node13&#45;&gt;Node12</title>
<path fill="none" stroke="midnightblue" d="M675.84,-1326.28C673.69,-1310.6 671.36,-1293.55 669.03,-1276.5"/>
<polygon fill="none" stroke="midnightblue" points="672.39,-1326.94 677.22,-1336.37 679.33,-1325.99 672.39,-1326.94"/>
</g>
<!-- Node14&#45;&gt;Node2 -->
<g id="edge15" class="edge">
<title>Node14&#45;&gt;Node2</title>
<path fill="none" stroke="orange" d="M272.59,-663.49C277.51,-642.05 282.86,-620.42 288.5,-600 290.16,-593.99 291.91,-587.9 293.73,-581.76"/>
<polygon fill="orange" stroke="orange" points="269.16,-662.79 270.35,-673.32 275.98,-664.34 269.16,-662.79"/>
<text text-anchor="start" x="288.5" y="-647" font-family="Helvetica,sans-Serif" font-size="10.00"> &lt; core::socket::stream</text>
<text text-anchor="start" x="288.5" y="-636" font-family="Helvetica,sans-Serif" font-size="10.00">::tls::SocketReader&lt; SocketT</text>
<text text-anchor="start" x="288.5" y="-625" font-family="Helvetica,sans-Serif" font-size="10.00"> &gt;, core::socket::stream::</text>
<text text-anchor="start" x="288.5" y="-614" font-family="Helvetica,sans-Serif" font-size="10.00">tls::SocketWriter&lt; SocketT</text>
<text text-anchor="middle" x="360.5" y="-603" font-family="Helvetica,sans-Serif" font-size="10.00"> &gt;, SocketT::SocketAddress &gt;</text>
</g>
<!-- Node15 -->
<g id="node15" class="node">
<title>Node15</title>
<g id="a_node15"><a xlink:title=" ">
<polygon fill="white" stroke="#bfbfbf" points="187,-1126 187,-1183 276,-1183 276,-1126 187,-1126"/>
<text text-anchor="middle" x="231.5" y="-1171" font-family="Helvetica,sans-Serif" font-size="10.00">SocketReaderT</text>
<polyline fill="none" stroke="#bfbfbf" points="187,-1164 276,-1164 "/>
<text text-anchor="middle" x="231.5" y="-1152" font-family="Helvetica,sans-Serif" font-size="10.00"> </text>
<polyline fill="none" stroke="#bfbfbf" points="187,-1145 276,-1145 "/>
<text text-anchor="middle" x="231.5" y="-1133" font-family="Helvetica,sans-Serif" font-size="10.00"> </text>
</a>
</g>
</g>
<!-- Node15&#45;&gt;Node14 -->
<g id="edge17" class="edge">
<title>Node15&#45;&gt;Node14</title>
<path fill="none" stroke="darkgreen" d="M232.65,-1115.68C233.72,-1080.39 235.39,-1025.4 236.99,-972.63"/>
<polygon fill="none" stroke="darkgreen" points="229.14,-1115.87 232.34,-1125.97 236.14,-1116.08 229.14,-1115.87"/>
</g>
<!-- Node16 -->
<g id="node16" class="node">
<title>Node16</title>
<g id="a_node16"><a xlink:title=" ">
<polygon fill="white" stroke="#bfbfbf" points="294,-1126 294,-1183 379,-1183 379,-1126 294,-1126"/>
<text text-anchor="middle" x="336.5" y="-1171" font-family="Helvetica,sans-Serif" font-size="10.00">SocketWriterT</text>
<polyline fill="none" stroke="#bfbfbf" points="294,-1164 379,-1164 "/>
<text text-anchor="middle" x="336.5" y="-1152" font-family="Helvetica,sans-Serif" font-size="10.00"> </text>
<polyline fill="none" stroke="#bfbfbf" points="294,-1145 379,-1145 "/>
<text text-anchor="middle" x="336.5" y="-1133" font-family="Helvetica,sans-Serif" font-size="10.00"> </text>
</a>
</g>
</g>
<!-- Node16&#45;&gt;Node14 -->
<g id="edge18" class="edge">
<title>Node16&#45;&gt;Node14</title>
<path fill="none" stroke="darkgreen" d="M325.73,-1116.13C315.56,-1080.86 299.63,-1025.62 284.35,-972.63"/>
<polygon fill="none" stroke="darkgreen" points="322.43,-1117.33 328.56,-1125.97 329.16,-1115.4 322.43,-1117.33"/>
</g>
</g>
</svg>
