<?xml version="1.0" encoding="UTF-8" standalone="no"?>
<!DOCTYPE svg PUBLIC "-//W3C//DTD SVG 1.1//EN"
 "http://www.w3.org/Graphics/SVG/1.1/DTD/svg11.dtd">
<!-- Generated by graphviz version 2.43.0 (0)
 -->
<!-- Title: web::http::client::tls::ClientRfComm&lt; Request, Response &gt; Pages: 1 -->
<svg width="216pt" height="530pt"
 viewBox="0.00 0.00 215.50 530.00" xmlns="http://www.w3.org/2000/svg" xmlns:xlink="http://www.w3.org/1999/xlink">
<g id="graph0" class="graph" transform="scale(1 1) rotate(0) translate(4 526)">
<title>web::http::client::tls::ClientRfComm&lt; Request, Response &gt;</title>
<polygon fill="white" stroke="transparent" points="-4,4 -4,-526 211.5,-526 211.5,4 -4,4"/>
<!-- Node1 -->
<g id="node1" class="node">
<title>Node1</title>
<g id="a_node1"><a xlink:title=" ">
<polygon fill="#bfbfbf" stroke="black" points="1,-0.5 1,-101.5 148,-101.5 148,-0.5 1,-0.5"/>
<text text-anchor="start" x="9" y="-89.5" font-family="Helvetica,sans-Serif" font-size="10.00">web::http::client::</text>
<text text-anchor="start" x="9" y="-78.5" font-family="Helvetica,sans-Serif" font-size="10.00">tls::ClientRfComm&lt; Request,</text>
<text text-anchor="middle" x="74.5" y="-67.5" font-family="Helvetica,sans-Serif" font-size="10.00"> Response &gt;</text>
<polyline fill="none" stroke="black" points="1,-60.5 148,-60.5 "/>
<text text-anchor="middle" x="74.5" y="-48.5" font-family="Helvetica,sans-Serif" font-size="10.00"> </text>
<polyline fill="none" stroke="black" points="1,-41.5 148,-41.5 "/>
<text text-anchor="start" x="9" y="-29.5" font-family="Helvetica,sans-Serif" font-size="10.00">+ connect()</text>
<text text-anchor="start" x="9" y="-18.5" font-family="Helvetica,sans-Serif" font-size="10.00">+ connect()</text>
<text text-anchor="start" x="9" y="-7.5" font-family="Helvetica,sans-Serif" font-size="10.00">+ connect()</text>
</a>
</g>
</g>
<!-- Node2 -->
<g id="node2" class="node">
<title>Node2</title>
<g id="a_node2"><a xlink:href="classweb_1_1http_1_1client_1_1_client.html" target="_top" xlink:title=" ">
<polygon fill="white" stroke="black" points="0,-139.5 0,-306.5 149,-306.5 149,-139.5 0,-139.5"/>
<text text-anchor="start" x="8" y="-294.5" font-family="Helvetica,sans-Serif" font-size="10.00">web::http::client::</text>
<text text-anchor="start" x="8" y="-283.5" font-family="Helvetica,sans-Serif" font-size="10.00">Client&lt; net::socket</text>
<text text-anchor="start" x="8" y="-272.5" font-family="Helvetica,sans-Serif" font-size="10.00">::bluetooth::rfcomm::</text>
<text text-anchor="start" x="8" y="-261.5" font-family="Helvetica,sans-Serif" font-size="10.00">tls::SocketClient, web</text>
<text text-anchor="start" x="8" y="-250.5" font-family="Helvetica,sans-Serif" font-size="10.00">::http::client::Request,</text>
<text text-anchor="middle" x="74.5" y="-239.5" font-family="Helvetica,sans-Serif" font-size="10.00"> web::http::client::Response &gt;</text>
<polyline fill="none" stroke="black" points="0,-232.5 149,-232.5 "/>
<text text-anchor="start" x="8" y="-220.5" font-family="Helvetica,sans-Serif" font-size="10.00"># socketClient</text>
<polyline fill="none" stroke="black" points="0,-213.5 149,-213.5 "/>
<text text-anchor="start" x="8" y="-201.5" font-family="Helvetica,sans-Serif" font-size="10.00">+ Client()</text>
<text text-anchor="start" x="8" y="-190.5" font-family="Helvetica,sans-Serif" font-size="10.00">+ connect()</text>
<text text-anchor="start" x="8" y="-179.5" font-family="Helvetica,sans-Serif" font-size="10.00">+ connect()</text>
<text text-anchor="start" x="8" y="-168.5" font-family="Helvetica,sans-Serif" font-size="10.00">+ onConnect()</text>
<text text-anchor="start" x="8" y="-157.5" font-family="Helvetica,sans-Serif" font-size="10.00">+ onConnected()</text>
<text text-anchor="start" x="8" y="-146.5" font-family="Helvetica,sans-Serif" font-size="10.00">+ onDisconnect()</text>
</a>
</g>
</g>
<!-- Node2&#45;&gt;Node1 -->
<g id="edge1" class="edge">
<title>Node2&#45;&gt;Node1</title>
<path fill="none" stroke="midnightblue" d="M74.5,-129.25C74.5,-119.84 74.5,-110.55 74.5,-101.86"/>
<polygon fill="none" stroke="midnightblue" points="71,-129.49 74.5,-139.49 78,-129.49 71,-129.49"/>
</g>
<!-- Node3 -->
<g id="node3" class="node">
<title>Node3</title>
<g id="a_node3"><a xlink:href="classweb_1_1http_1_1client_1_1_client.html" target="_top" xlink:title=" ">
<polygon fill="white" stroke="black" points="11.5,-387.5 11.5,-521.5 137.5,-521.5 137.5,-387.5 11.5,-387.5"/>
<text text-anchor="start" x="19.5" y="-509.5" font-family="Helvetica,sans-Serif" font-size="10.00">web::http::client::</text>
<text text-anchor="start" x="19.5" y="-498.5" font-family="Helvetica,sans-Serif" font-size="10.00">Client&lt; SocketClientT,</text>
<text text-anchor="middle" x="74.5" y="-487.5" font-family="Helvetica,sans-Serif" font-size="10.00"> RequestT, ResponseT &gt;</text>
<polyline fill="none" stroke="black" points="11.5,-480.5 137.5,-480.5 "/>
<text text-anchor="start" x="19.5" y="-468.5" font-family="Helvetica,sans-Serif" font-size="10.00"># socketClient</text>
<polyline fill="none" stroke="black" points="11.5,-461.5 137.5,-461.5 "/>
<text text-anchor="start" x="19.5" y="-449.5" font-family="Helvetica,sans-Serif" font-size="10.00">+ Client()</text>
<text text-anchor="start" x="19.5" y="-438.5" font-family="Helvetica,sans-Serif" font-size="10.00">+ connect()</text>
<text text-anchor="start" x="19.5" y="-427.5" font-family="Helvetica,sans-Serif" font-size="10.00">+ connect()</text>
<text text-anchor="start" x="19.5" y="-416.5" font-family="Helvetica,sans-Serif" font-size="10.00">+ onConnect()</text>
<text text-anchor="start" x="19.5" y="-405.5" font-family="Helvetica,sans-Serif" font-size="10.00">+ onConnected()</text>
<text text-anchor="start" x="19.5" y="-394.5" font-family="Helvetica,sans-Serif" font-size="10.00">+ onDisconnect()</text>
</a>
</g>
</g>
<!-- Node3&#45;&gt;Node2 -->
<g id="edge2" class="edge">
<title>Node3&#45;&gt;Node2</title>
<path fill="none" stroke="orange" d="M74.5,-377.21C74.5,-354.61 74.5,-329.75 74.5,-306.76"/>
<polygon fill="orange" stroke="orange" points="71,-377.43 74.5,-387.43 78,-377.43 71,-377.43"/>
<text text-anchor="start" x="74.5" y="-361" font-family="Helvetica,sans-Serif" font-size="10.00"> &lt; net::socket::bluetooth</text>
<text text-anchor="start" x="74.5" y="-350" font-family="Helvetica,sans-Serif" font-size="10.00">::rfcomm::tls::SocketClient,</text>
<text text-anchor="start" x="74.5" y="-339" font-family="Helvetica,sans-Serif" font-size="10.00"> web::http::client::Request,</text>
<text text-anchor="middle" x="141" y="-328" font-family="Helvetica,sans-Serif" font-size="10.00"> web::http::client::Response &gt;</text>
</g>
</g>
</svg>
