<?xml version="1.0" encoding="UTF-8" standalone="no"?>
<!DOCTYPE svg PUBLIC "-//W3C//DTD SVG 1.1//EN"
 "http://www.w3.org/Graphics/SVG/1.1/DTD/svg11.dtd">
<!-- Generated by graphviz version 2.43.0 (0)
 -->
<!-- Title: express::Response Pages: 1 -->
<svg width="513pt" height="1174pt"
 viewBox="0.00 0.00 512.50 1174.00" xmlns="http://www.w3.org/2000/svg" xmlns:xlink="http://www.w3.org/1999/xlink">
<g id="graph0" class="graph" transform="scale(1 1) rotate(0) translate(4 1170)">
<title>express::Response</title>
<polygon fill="white" stroke="transparent" points="-4,4 -4,-1170 508.5,-1170 508.5,4 -4,4"/>
<!-- Node1 -->
<g id="node1" class="node">
<title>Node1</title>
<g id="a_node1"><a xlink:title=" ">
<polygon fill="#bfbfbf" stroke="black" points="168,-0.5 168,-134.5 276,-134.5 276,-0.5 168,-0.5"/>
<text text-anchor="middle" x="222" y="-122.5" font-family="Helvetica,sans-Serif" font-size="10.00">express::Response</text>
<polyline fill="none" stroke="black" points="168,-115.5 276,-115.5 "/>
<text text-anchor="middle" x="222" y="-103.5" font-family="Helvetica,sans-Serif" font-size="10.00"> </text>
<polyline fill="none" stroke="black" points="168,-96.5 276,-96.5 "/>
<text text-anchor="start" x="176" y="-84.5" font-family="Helvetica,sans-Serif" font-size="10.00">+ Response()</text>
<text text-anchor="start" x="176" y="-73.5" font-family="Helvetica,sans-Serif" font-size="10.00">+ sendFile()</text>
<text text-anchor="start" x="176" y="-62.5" font-family="Helvetica,sans-Serif" font-size="10.00">+ download()</text>
<text text-anchor="start" x="176" y="-51.5" font-family="Helvetica,sans-Serif" font-size="10.00">+ download()</text>
<text text-anchor="start" x="176" y="-40.5" font-family="Helvetica,sans-Serif" font-size="10.00">+ redirect()</text>
<text text-anchor="start" x="176" y="-29.5" font-family="Helvetica,sans-Serif" font-size="10.00">+ redirect()</text>
<text text-anchor="start" x="176" y="-18.5" font-family="Helvetica,sans-Serif" font-size="10.00">+ sendStatus()</text>
<text text-anchor="start" x="176" y="-7.5" font-family="Helvetica,sans-Serif" font-size="10.00">+ reset()</text>
</a>
</g>
</g>
<!-- Node2 -->
<g id="node2" class="node">
<title>Node2</title>
<g id="a_node2"><a xlink:href="classweb_1_1http_1_1server_1_1_response.html" target="_top" xlink:title=" ">
<polygon fill="white" stroke="black" points="155.5,-172.5 155.5,-526.5 288.5,-526.5 288.5,-172.5 155.5,-172.5"/>
<text text-anchor="start" x="163.5" y="-514.5" font-family="Helvetica,sans-Serif" font-size="10.00">web::http::server::</text>
<text text-anchor="middle" x="222" y="-503.5" font-family="Helvetica,sans-Serif" font-size="10.00">Response</text>
<polyline fill="none" stroke="black" points="155.5,-496.5 288.5,-496.5 "/>
<text text-anchor="start" x="163.5" y="-484.5" font-family="Helvetica,sans-Serif" font-size="10.00"># responseStatus</text>
<text text-anchor="start" x="163.5" y="-473.5" font-family="Helvetica,sans-Serif" font-size="10.00"># headers</text>
<text text-anchor="start" x="163.5" y="-462.5" font-family="Helvetica,sans-Serif" font-size="10.00"># cookies</text>
<text text-anchor="start" x="163.5" y="-451.5" font-family="Helvetica,sans-Serif" font-size="10.00">&#45; connectionState</text>
<text text-anchor="start" x="163.5" y="-440.5" font-family="Helvetica,sans-Serif" font-size="10.00">&#45; sendHeaderInProgress</text>
<text text-anchor="start" x="163.5" y="-429.5" font-family="Helvetica,sans-Serif" font-size="10.00">&#45; headersSent</text>
<text text-anchor="start" x="163.5" y="-418.5" font-family="Helvetica,sans-Serif" font-size="10.00">&#45; contentSent</text>
<text text-anchor="start" x="163.5" y="-407.5" font-family="Helvetica,sans-Serif" font-size="10.00">&#45; contentLength</text>
<polyline fill="none" stroke="black" points="155.5,-400.5 288.5,-400.5 "/>
<text text-anchor="start" x="163.5" y="-388.5" font-family="Helvetica,sans-Serif" font-size="10.00">+ send()</text>
<text text-anchor="start" x="163.5" y="-377.5" font-family="Helvetica,sans-Serif" font-size="10.00">+ send()</text>
<text text-anchor="start" x="163.5" y="-366.5" font-family="Helvetica,sans-Serif" font-size="10.00">+ end()</text>
<text text-anchor="start" x="163.5" y="-355.5" font-family="Helvetica,sans-Serif" font-size="10.00">+ status()</text>
<text text-anchor="start" x="163.5" y="-344.5" font-family="Helvetica,sans-Serif" font-size="10.00">+ append()</text>
<text text-anchor="start" x="163.5" y="-333.5" font-family="Helvetica,sans-Serif" font-size="10.00">+ set()</text>
<text text-anchor="start" x="163.5" y="-322.5" font-family="Helvetica,sans-Serif" font-size="10.00">+ set()</text>
<text text-anchor="start" x="163.5" y="-311.5" font-family="Helvetica,sans-Serif" font-size="10.00">+ cookie()</text>
<text text-anchor="start" x="163.5" y="-300.5" font-family="Helvetica,sans-Serif" font-size="10.00">+ clearCookie()</text>
<text text-anchor="start" x="163.5" y="-289.5" font-family="Helvetica,sans-Serif" font-size="10.00">+ type()</text>
<text text-anchor="start" x="163.5" y="-278.5" font-family="Helvetica,sans-Serif" font-size="10.00">+ upgrade()</text>
<text text-anchor="start" x="163.5" y="-267.5" font-family="Helvetica,sans-Serif" font-size="10.00"># Response()</text>
<text text-anchor="start" x="163.5" y="-256.5" font-family="Helvetica,sans-Serif" font-size="10.00"># ~Response()</text>
<text text-anchor="start" x="163.5" y="-245.5" font-family="Helvetica,sans-Serif" font-size="10.00"># reset()</text>
<text text-anchor="start" x="163.5" y="-234.5" font-family="Helvetica,sans-Serif" font-size="10.00">&#45; enqueue()</text>
<text text-anchor="start" x="163.5" y="-223.5" font-family="Helvetica,sans-Serif" font-size="10.00">&#45; enqueue()</text>
<text text-anchor="start" x="163.5" y="-212.5" font-family="Helvetica,sans-Serif" font-size="10.00">&#45; sendHeader()</text>
<text text-anchor="start" x="163.5" y="-201.5" font-family="Helvetica,sans-Serif" font-size="10.00">&#45; receive()</text>
<text text-anchor="start" x="163.5" y="-190.5" font-family="Helvetica,sans-Serif" font-size="10.00">&#45; eof()</text>
<text text-anchor="start" x="163.5" y="-179.5" font-family="Helvetica,sans-Serif" font-size="10.00">&#45; error()</text>
</a>
</g>
</g>
<!-- Node2&#45;&gt;Node1 -->
<g id="edge1" class="edge">
<title>Node2&#45;&gt;Node1</title>
<path fill="none" stroke="midnightblue" d="M222,-162.21C222,-152.58 222,-143.28 222,-134.51"/>
<polygon fill="none" stroke="midnightblue" points="218.5,-162.36 222,-172.36 225.5,-162.36 218.5,-162.36"/>
</g>
<!-- Node3 -->
<g id="node3" class="node">
<title>Node3</title>
<g id="a_node3"><a xlink:href="classcore_1_1pipe_1_1_sink.html" target="_top" xlink:title=" ">
<polygon fill="white" stroke="black" points="63,-651.5 63,-774.5 155,-774.5 155,-651.5 63,-651.5"/>
<text text-anchor="middle" x="109" y="-762.5" font-family="Helvetica,sans-Serif" font-size="10.00">core::pipe::Sink</text>
<polyline fill="none" stroke="black" points="63,-755.5 155,-755.5 "/>
<text text-anchor="middle" x="109" y="-743.5" font-family="Helvetica,sans-Serif" font-size="10.00"> </text>
<polyline fill="none" stroke="black" points="63,-736.5 155,-736.5 "/>
<text text-anchor="start" x="71" y="-724.5" font-family="Helvetica,sans-Serif" font-size="10.00">+ Sink()</text>
<text text-anchor="start" x="71" y="-713.5" font-family="Helvetica,sans-Serif" font-size="10.00">+ ~Sink()</text>
<text text-anchor="start" x="71" y="-702.5" font-family="Helvetica,sans-Serif" font-size="10.00">+ receive()</text>
<text text-anchor="start" x="71" y="-691.5" font-family="Helvetica,sans-Serif" font-size="10.00">+ eof()</text>
<text text-anchor="start" x="71" y="-680.5" font-family="Helvetica,sans-Serif" font-size="10.00">+ error()</text>
<text text-anchor="start" x="71" y="-669.5" font-family="Helvetica,sans-Serif" font-size="10.00">+ connect()</text>
<text text-anchor="start" x="71" y="-658.5" font-family="Helvetica,sans-Serif" font-size="10.00">+ disconnect()</text>
</a>
</g>
</g>
<!-- Node3&#45;&gt;Node2 -->
<g id="edge2" class="edge">
<title>Node3&#45;&gt;Node2</title>
<path fill="none" stroke="midnightblue" d="M130.91,-641.92C141.26,-608.78 154.15,-567.57 166.93,-526.67"/>
<polygon fill="none" stroke="midnightblue" points="127.56,-640.9 127.91,-651.49 134.24,-642.99 127.56,-640.9"/>
</g>
<!-- Node4 -->
<g id="node4" class="node">
<title>Node4</title>
<g id="a_node4"><a xlink:href="classcore_1_1pipe_1_1_source.html" target="_top" xlink:title=" ">
<polygon fill="white" stroke="black" points="0,-282.5 0,-416.5 122,-416.5 122,-282.5 0,-282.5"/>
<text text-anchor="middle" x="61" y="-404.5" font-family="Helvetica,sans-Serif" font-size="10.00">core::pipe::Source</text>
<polyline fill="none" stroke="black" points="0,-397.5 122,-397.5 "/>
<text text-anchor="middle" x="61" y="-385.5" font-family="Helvetica,sans-Serif" font-size="10.00"> </text>
<polyline fill="none" stroke="black" points="0,-378.5 122,-378.5 "/>
<text text-anchor="start" x="8" y="-366.5" font-family="Helvetica,sans-Serif" font-size="10.00">+ Source()</text>
<text text-anchor="start" x="8" y="-355.5" font-family="Helvetica,sans-Serif" font-size="10.00">+ ~Source()</text>
<text text-anchor="start" x="8" y="-344.5" font-family="Helvetica,sans-Serif" font-size="10.00">+ sinkDisconnected()</text>
<text text-anchor="start" x="8" y="-333.5" font-family="Helvetica,sans-Serif" font-size="10.00">+ connect()</text>
<text text-anchor="start" x="8" y="-322.5" font-family="Helvetica,sans-Serif" font-size="10.00">+ disconnect()</text>
<text text-anchor="start" x="8" y="-311.5" font-family="Helvetica,sans-Serif" font-size="10.00">+ send()</text>
<text text-anchor="start" x="8" y="-300.5" font-family="Helvetica,sans-Serif" font-size="10.00">+ eof()</text>
<text text-anchor="start" x="8" y="-289.5" font-family="Helvetica,sans-Serif" font-size="10.00">+ error()</text>
</a>
</g>
</g>
<!-- Node3&#45;&gt;Node4 -->
<g id="edge4" class="edge">
<title>Node3&#45;&gt;Node4</title>
<path fill="none" stroke="#404040" d="M84.19,-651.24C73.88,-622.82 63.13,-588.22 58,-556 51.36,-514.35 51.5,-467.35 53.56,-428.82"/>
<polygon fill="none" stroke="#404040" points="53.57,-428.6 49.94,-422.37 54.29,-416.62 57.93,-422.85 53.57,-428.6"/>
<text text-anchor="middle" x="74" y="-548" font-family="Helvetica,sans-Serif" font-size="10.00"> #sink</text>
</g>
<!-- Node4&#45;&gt;Node3 -->
<g id="edge3" class="edge">
<title>Node4&#45;&gt;Node3</title>
<path fill="none" stroke="#404040" d="M73.6,-416.92C80.38,-454.42 88.46,-502.2 94,-545 97.98,-575.69 101.24,-609.69 103.69,-638.96"/>
<polygon fill="none" stroke="#404040" points="103.71,-639.23 108.19,-644.88 104.69,-651.19 100.22,-645.54 103.71,-639.23"/>
<text text-anchor="middle" x="118" y="-548" font-family="Helvetica,sans-Serif" font-size="10.00"> #source</text>
</g>
<!-- Node5 -->
<g id="node5" class="node">
<title>Node5</title>
<g id="a_node5"><a xlink:href="classweb_1_1http_1_1_socket_context.html" target="_top" xlink:title=" ">
<polygon fill="white" stroke="black" points="173,-668 173,-758 317,-758 317,-668 173,-668"/>
<text text-anchor="middle" x="245" y="-746" font-family="Helvetica,sans-Serif" font-size="10.00">web::http::SocketContext</text>
<polyline fill="none" stroke="black" points="173,-739 317,-739 "/>
<text text-anchor="middle" x="245" y="-727" font-family="Helvetica,sans-Serif" font-size="10.00"> </text>
<polyline fill="none" stroke="black" points="173,-720 317,-720 "/>
<text text-anchor="start" x="181" y="-708" font-family="Helvetica,sans-Serif" font-size="10.00">+ sendToPeerCompleted()</text>
<text text-anchor="start" x="181" y="-697" font-family="Helvetica,sans-Serif" font-size="10.00"># SocketContext()</text>
<text text-anchor="start" x="181" y="-686" font-family="Helvetica,sans-Serif" font-size="10.00"># operator=()</text>
<text text-anchor="start" x="181" y="-675" font-family="Helvetica,sans-Serif" font-size="10.00"># onReceiveFromPeer()</text>
</a>
</g>
</g>
<!-- Node5&#45;&gt;Node2 -->
<g id="edge5" class="edge">
<title>Node5&#45;&gt;Node2</title>
<path fill="none" stroke="#404040" d="M242.18,-667.67C240.08,-634.65 237.05,-587.1 233.98,-538.83"/>
<polygon fill="none" stroke="#404040" points="233.96,-538.53 229.59,-532.79 233.2,-526.55 237.57,-532.28 233.96,-538.53"/>
<text text-anchor="middle" x="276" y="-548" font-family="Helvetica,sans-Serif" font-size="10.00"> #socketContext</text>
</g>
<!-- Node6 -->
<g id="node6" class="node">
<title>Node6</title>
<g id="a_node6"><a xlink:href="classcore_1_1socket_1_1_socket_context.html" target="_top" xlink:title=" ">
<polygon fill="white" stroke="black" points="214.5,-910.5 214.5,-1165.5 383.5,-1165.5 383.5,-910.5 214.5,-910.5"/>
<text text-anchor="middle" x="299" y="-1153.5" font-family="Helvetica,sans-Serif" font-size="10.00">core::socket::SocketContext</text>
<polyline fill="none" stroke="black" points="214.5,-1146.5 383.5,-1146.5 "/>
<text text-anchor="start" x="222.5" y="-1134.5" font-family="Helvetica,sans-Serif" font-size="10.00">&#45; role</text>
<polyline fill="none" stroke="black" points="214.5,-1127.5 383.5,-1127.5 "/>
<text text-anchor="start" x="222.5" y="-1115.5" font-family="Helvetica,sans-Serif" font-size="10.00">+ getRole()</text>
<text text-anchor="start" x="222.5" y="-1104.5" font-family="Helvetica,sans-Serif" font-size="10.00">+ setTimeout()</text>
<text text-anchor="start" x="222.5" y="-1093.5" font-family="Helvetica,sans-Serif" font-size="10.00">+ getLocalAddressAsString()</text>
<text text-anchor="start" x="222.5" y="-1082.5" font-family="Helvetica,sans-Serif" font-size="10.00">+ getRemoteAddressAsString()</text>
<text text-anchor="start" x="222.5" y="-1071.5" font-family="Helvetica,sans-Serif" font-size="10.00">+ sendToPeer()</text>
<text text-anchor="start" x="222.5" y="-1060.5" font-family="Helvetica,sans-Serif" font-size="10.00">+ sendToPeer()</text>
<text text-anchor="start" x="222.5" y="-1049.5" font-family="Helvetica,sans-Serif" font-size="10.00">+ readFromPeer()</text>
<text text-anchor="start" x="222.5" y="-1038.5" font-family="Helvetica,sans-Serif" font-size="10.00">+ shutdownRead()</text>
<text text-anchor="start" x="222.5" y="-1027.5" font-family="Helvetica,sans-Serif" font-size="10.00">+ shutdownWrite()</text>
<text text-anchor="start" x="222.5" y="-1016.5" font-family="Helvetica,sans-Serif" font-size="10.00">+ shutdown()</text>
<text text-anchor="start" x="222.5" y="-1005.5" font-family="Helvetica,sans-Serif" font-size="10.00">+ close()</text>
<text text-anchor="start" x="222.5" y="-994.5" font-family="Helvetica,sans-Serif" font-size="10.00">+ switchSocketContext()</text>
<text text-anchor="start" x="222.5" y="-983.5" font-family="Helvetica,sans-Serif" font-size="10.00"># SocketContext()</text>
<text text-anchor="start" x="222.5" y="-972.5" font-family="Helvetica,sans-Serif" font-size="10.00"># ~SocketContext()</text>
<text text-anchor="start" x="222.5" y="-961.5" font-family="Helvetica,sans-Serif" font-size="10.00">&#45; onConnected()</text>
<text text-anchor="start" x="222.5" y="-950.5" font-family="Helvetica,sans-Serif" font-size="10.00">&#45; onDisconnected()</text>
<text text-anchor="start" x="222.5" y="-939.5" font-family="Helvetica,sans-Serif" font-size="10.00">&#45; onReceiveFromPeer()</text>
<text text-anchor="start" x="222.5" y="-928.5" font-family="Helvetica,sans-Serif" font-size="10.00">&#45; onWriteError()</text>
<text text-anchor="start" x="222.5" y="-917.5" font-family="Helvetica,sans-Serif" font-size="10.00">&#45; onReadError()</text>
</a>
</g>
</g>
<!-- Node6&#45;&gt;Node5 -->
<g id="edge6" class="edge">
<title>Node6&#45;&gt;Node5</title>
<path fill="none" stroke="midnightblue" d="M276.12,-900.14C267.61,-849.23 258.54,-794.97 252.4,-758.26"/>
<polygon fill="none" stroke="midnightblue" points="272.71,-900.98 277.81,-910.27 279.62,-899.83 272.71,-900.98"/>
</g>
<!-- Node7 -->
<g id="node7" class="node">
<title>Node7</title>
<g id="a_node7"><a xlink:href="classcore_1_1socket_1_1_socket_connection.html" target="_top" xlink:title=" ">
<polygon fill="white" stroke="black" points="335.5,-574.5 335.5,-851.5 504.5,-851.5 504.5,-574.5 335.5,-574.5"/>
<text text-anchor="middle" x="420" y="-839.5" font-family="Helvetica,sans-Serif" font-size="10.00">core::socket::SocketConnection</text>
<polyline fill="none" stroke="black" points="335.5,-832.5 504.5,-832.5 "/>
<text text-anchor="middle" x="420" y="-820.5" font-family="Helvetica,sans-Serif" font-size="10.00"> </text>
<polyline fill="none" stroke="black" points="335.5,-813.5 504.5,-813.5 "/>
<text text-anchor="start" x="343.5" y="-801.5" font-family="Helvetica,sans-Serif" font-size="10.00">+ getSocketContext()</text>
<text text-anchor="start" x="343.5" y="-790.5" font-family="Helvetica,sans-Serif" font-size="10.00">+ close()</text>
<text text-anchor="start" x="343.5" y="-779.5" font-family="Helvetica,sans-Serif" font-size="10.00">+ shutdownRead()</text>
<text text-anchor="start" x="343.5" y="-768.5" font-family="Helvetica,sans-Serif" font-size="10.00">+ shutdownWrite()</text>
<text text-anchor="start" x="343.5" y="-757.5" font-family="Helvetica,sans-Serif" font-size="10.00">+ setTimeout()</text>
<text text-anchor="start" x="343.5" y="-746.5" font-family="Helvetica,sans-Serif" font-size="10.00">+ getLocalAddressAsString()</text>
<text text-anchor="start" x="343.5" y="-735.5" font-family="Helvetica,sans-Serif" font-size="10.00">+ getRemoteAddressAsString()</text>
<text text-anchor="start" x="343.5" y="-724.5" font-family="Helvetica,sans-Serif" font-size="10.00">+ sendToPeer()</text>
<text text-anchor="start" x="343.5" y="-713.5" font-family="Helvetica,sans-Serif" font-size="10.00">+ sendToPeer()</text>
<text text-anchor="start" x="343.5" y="-702.5" font-family="Helvetica,sans-Serif" font-size="10.00">+ readFromPeer()</text>
<text text-anchor="start" x="343.5" y="-691.5" font-family="Helvetica,sans-Serif" font-size="10.00">+ switchSocketContext()</text>
<text text-anchor="start" x="343.5" y="-680.5" font-family="Helvetica,sans-Serif" font-size="10.00"># SocketConnection()</text>
<text text-anchor="start" x="343.5" y="-669.5" font-family="Helvetica,sans-Serif" font-size="10.00"># ~SocketConnection()</text>
<text text-anchor="start" x="343.5" y="-658.5" font-family="Helvetica,sans-Serif" font-size="10.00"># onConnected()</text>
<text text-anchor="start" x="343.5" y="-647.5" font-family="Helvetica,sans-Serif" font-size="10.00"># onDisconnected()</text>
<text text-anchor="start" x="343.5" y="-636.5" font-family="Helvetica,sans-Serif" font-size="10.00"># onReceiveFromPeer()</text>
<text text-anchor="start" x="343.5" y="-625.5" font-family="Helvetica,sans-Serif" font-size="10.00"># onWriteError()</text>
<text text-anchor="start" x="343.5" y="-614.5" font-family="Helvetica,sans-Serif" font-size="10.00"># onReadError()</text>
<text text-anchor="start" x="343.5" y="-603.5" font-family="Helvetica,sans-Serif" font-size="10.00">&#45; SocketConnection()</text>
<text text-anchor="start" x="343.5" y="-592.5" font-family="Helvetica,sans-Serif" font-size="10.00">&#45; SocketConnection()</text>
<text text-anchor="start" x="343.5" y="-581.5" font-family="Helvetica,sans-Serif" font-size="10.00">&#45; operator=()</text>
</a>
</g>
</g>
<!-- Node6&#45;&gt;Node7 -->
<g id="edge8" class="edge">
<title>Node6&#45;&gt;Node7</title>
<path fill="none" stroke="#404040" d="M282.56,-910.27C284.79,-896.11 289,-882.36 296,-870 303.66,-856.47 314.69,-862.67 326,-852 326.2,-851.81 326.4,-851.63 326.59,-851.44"/>
<polygon fill="none" stroke="#404040" points="326.85,-851.18 328.27,-844.11 335.34,-842.7 333.92,-849.77 326.85,-851.18"/>
<text text-anchor="middle" x="345" y="-884" font-family="Helvetica,sans-Serif" font-size="10.00"> &#45;newSocketContext</text>
<text text-anchor="middle" x="345" y="-873" font-family="Helvetica,sans-Serif" font-size="10.00">&#45;socketContext</text>
</g>
<!-- Node7&#45;&gt;Node6 -->
<g id="edge7" class="edge">
<title>Node7&#45;&gt;Node6</title>
<path fill="none" stroke="#404040" d="M409.68,-851.66C406.67,-865.51 402.84,-879.18 398,-892 395.45,-898.76 392.52,-905.51 389.31,-912.2"/>
<polygon fill="none" stroke="#404040" points="389.07,-912.67 389.93,-919.83 383.65,-923.38 382.79,-916.22 389.07,-912.67"/>
<text text-anchor="middle" x="451" y="-878.5" font-family="Helvetica,sans-Serif" font-size="10.00"> &#45;socketConnection</text>
</g>
</g>
</svg>
