<?xml version="1.0" encoding="UTF-8" standalone="no"?>
<!DOCTYPE svg PUBLIC "-//W3C//DTD SVG 1.1//EN"
 "http://www.w3.org/Graphics/SVG/1.1/DTD/svg11.dtd">
<!-- Generated by graphviz version 2.43.0 (0)
 -->
<!-- Title: CLI::App::enabled_by_default Pages: 1 -->
<svg width="249pt" height="66pt"
 viewBox="0.00 0.00 249.00 66.00" xmlns="http://www.w3.org/2000/svg" xmlns:xlink="http://www.w3.org/1999/xlink">
<g id="graph0" class="graph" transform="scale(1 1) rotate(0) translate(4 62)">
<title>CLI::App::enabled_by_default</title>
<polygon fill="white" stroke="transparent" points="-4,4 -4,-62 245,-62 245,4 -4,4"/>
<!-- Node1 -->
<g id="node1" class="node">
<title>Node1</title>
<g id="a_node1"><a xlink:title=" ">
<polygon fill="#bfbfbf" stroke="black" points="122,-14 122,-44 241,-44 241,-14 122,-14"/>
<text text-anchor="start" x="130" y="-32" font-family="Helvetica,sans-Serif" font-size="10.00">CLI::App::enabled_by</text>
<text text-anchor="middle" x="181.5" y="-21" font-family="Helvetica,sans-Serif" font-size="10.00">_default</text>
</a>
</g>
</g>
<!-- Node2 -->
<g id="node2" class="node">
<title>Node2</title>
<g id="a_node2"><a xlink:href="namespace_c_l_i.html#ae611995dabf1e7d4a2480f1952ef6ba7" target="_top" xlink:title="Helper function to disable one option group/subcommand when another is used.">
<polygon fill="white" stroke="black" points="0,-38.5 0,-57.5 86,-57.5 86,-38.5 0,-38.5"/>
<text text-anchor="middle" x="43" y="-45.5" font-family="Helvetica,sans-Serif" font-size="10.00">CLI::TriggerOff</text>
</a>
</g>
</g>
<!-- Node1&#45;&gt;Node2 -->
<g id="edge1" class="edge">
<title>Node1&#45;&gt;Node2</title>
<path fill="none" stroke="midnightblue" d="M111.64,-38.59C102.94,-39.8 94.26,-41 86.15,-42.13"/>
<polygon fill="midnightblue" stroke="midnightblue" points="112.4,-42.01 121.82,-37.17 111.43,-35.08 112.4,-42.01"/>
</g>
<!-- Node3 -->
<g id="node3" class="node">
<title>Node3</title>
<g id="a_node3"><a xlink:href="namespace_c_l_i.html#a495f418aefacfdfbe91642a18f60d77c" target="_top" xlink:title="Helper function to enable one option group/subcommand when another is used.">
<polygon fill="white" stroke="black" points="0.5,-0.5 0.5,-19.5 85.5,-19.5 85.5,-0.5 0.5,-0.5"/>
<text text-anchor="middle" x="43" y="-7.5" font-family="Helvetica,sans-Serif" font-size="10.00">CLI::TriggerOn</text>
</a>
</g>
</g>
<!-- Node1&#45;&gt;Node3 -->
<g id="edge2" class="edge">
<title>Node1&#45;&gt;Node3</title>
<path fill="none" stroke="midnightblue" d="M111.8,-19.44C102.9,-18.2 94.02,-16.96 85.74,-15.81"/>
<polygon fill="midnightblue" stroke="midnightblue" points="111.43,-22.92 121.82,-20.83 112.4,-15.99 111.43,-22.92"/>
</g>
</g>
</svg>
