<?xml version="1.0" encoding="UTF-8" standalone="no"?>
<!DOCTYPE svg PUBLIC "-//W3C//DTD SVG 1.1//EN"
 "http://www.w3.org/Graphics/SVG/1.1/DTD/svg11.dtd">
<!-- Generated by graphviz version 2.43.0 (0)
 -->
<!-- Title: web::http::tls::rf::Client&lt; Request, Response &gt; Pages: 1 -->
<svg width="443pt" height="1199pt"
 viewBox="0.00 0.00 442.50 1199.00" xmlns="http://www.w3.org/2000/svg" xmlns:xlink="http://www.w3.org/1999/xlink">
<g id="graph0" class="graph" transform="scale(1 1) rotate(0) translate(4 1195)">
<title>web::http::tls::rf::Client&lt; Request, Response &gt;</title>
<polygon fill="white" stroke="transparent" points="-4,4 -4,-1195 438.5,-1195 438.5,4 -4,4"/>
<!-- Node1 -->
<g id="node1" class="node">
<title>Node1</title>
<g id="a_node1"><a xlink:title=" ">
<polygon fill="#bfbfbf" stroke="black" points="146,-0.5 146,-68.5 313,-68.5 313,-0.5 146,-0.5"/>
<text text-anchor="start" x="154" y="-56.5" font-family="Helvetica,sans-Serif" font-size="10.00">web::http::tls::rf</text>
<text text-anchor="middle" x="229.5" y="-45.5" font-family="Helvetica,sans-Serif" font-size="10.00">::Client&lt; Request, Response &gt;</text>
<polyline fill="none" stroke="black" points="146,-38.5 313,-38.5 "/>
<text text-anchor="middle" x="229.5" y="-26.5" font-family="Helvetica,sans-Serif" font-size="10.00"> </text>
<polyline fill="none" stroke="black" points="146,-19.5 313,-19.5 "/>
<text text-anchor="middle" x="229.5" y="-7.5" font-family="Helvetica,sans-Serif" font-size="10.00"> </text>
</a>
</g>
</g>
<!-- Node2 -->
<g id="node2" class="node">
<title>Node2</title>
<g id="a_node2"><a xlink:href="classweb_1_1http_1_1client_1_1_client.html" target="_top" xlink:title=" ">
<polygon fill="white" stroke="black" points="148,-106.5 148,-218.5 311,-218.5 311,-106.5 148,-106.5"/>
<text text-anchor="start" x="156" y="-206.5" font-family="Helvetica,sans-Serif" font-size="10.00">web::http::client::</text>
<text text-anchor="start" x="156" y="-195.5" font-family="Helvetica,sans-Serif" font-size="10.00">Client&lt; net::rf::stream</text>
<text text-anchor="start" x="156" y="-184.5" font-family="Helvetica,sans-Serif" font-size="10.00">::tls::SocketClient, web</text>
<text text-anchor="start" x="156" y="-173.5" font-family="Helvetica,sans-Serif" font-size="10.00">::http::client::Request,</text>
<text text-anchor="middle" x="229.5" y="-162.5" font-family="Helvetica,sans-Serif" font-size="10.00"> web::http::client::Response &gt;</text>
<polyline fill="none" stroke="black" points="148,-155.5 311,-155.5 "/>
<text text-anchor="middle" x="229.5" y="-143.5" font-family="Helvetica,sans-Serif" font-size="10.00"> </text>
<polyline fill="none" stroke="black" points="148,-136.5 311,-136.5 "/>
<text text-anchor="start" x="156" y="-124.5" font-family="Helvetica,sans-Serif" font-size="10.00">+ Client()</text>
<text text-anchor="start" x="156" y="-113.5" font-family="Helvetica,sans-Serif" font-size="10.00">+ Client()</text>
</a>
</g>
</g>
<!-- Node2&#45;&gt;Node1 -->
<g id="edge1" class="edge">
<title>Node2&#45;&gt;Node1</title>
<path fill="none" stroke="midnightblue" d="M229.5,-95.96C229.5,-86.48 229.5,-77.08 229.5,-68.62"/>
<polygon fill="none" stroke="midnightblue" points="226,-96.23 229.5,-106.23 233,-96.23 226,-96.23"/>
</g>
<!-- Node3 -->
<g id="node3" class="node">
<title>Node3</title>
<g id="a_node3"><a xlink:href="classcore_1_1socket_1_1stream_1_1tls_1_1_socket_client.html" target="_top" xlink:title=" ">
<polygon fill="white" stroke="black" points="73.5,-299.5 73.5,-411.5 225.5,-411.5 225.5,-299.5 73.5,-299.5"/>
<text text-anchor="start" x="81.5" y="-399.5" font-family="Helvetica,sans-Serif" font-size="10.00">net::rf::stream::tls</text>
<text text-anchor="start" x="81.5" y="-388.5" font-family="Helvetica,sans-Serif" font-size="10.00">::SocketClient &lt; web</text>
<text text-anchor="start" x="81.5" y="-377.5" font-family="Helvetica,sans-Serif" font-size="10.00">::http::client::SocketContext</text>
<text text-anchor="start" x="81.5" y="-366.5" font-family="Helvetica,sans-Serif" font-size="10.00">Factory&lt; web::http::client</text>
<text text-anchor="start" x="81.5" y="-355.5" font-family="Helvetica,sans-Serif" font-size="10.00">::Request , web::http::client</text>
<text text-anchor="middle" x="149.5" y="-344.5" font-family="Helvetica,sans-Serif" font-size="10.00">::Response &gt; &gt;</text>
<polyline fill="none" stroke="black" points="73.5,-337.5 225.5,-337.5 "/>
<text text-anchor="middle" x="149.5" y="-325.5" font-family="Helvetica,sans-Serif" font-size="10.00"> </text>
<polyline fill="none" stroke="black" points="73.5,-318.5 225.5,-318.5 "/>
<text text-anchor="middle" x="149.5" y="-306.5" font-family="Helvetica,sans-Serif" font-size="10.00"> </text>
</a>
</g>
</g>
<!-- Node3&#45;&gt;Node2 -->
<g id="edge2" class="edge">
<title>Node3&#45;&gt;Node2</title>
<path fill="none" stroke="midnightblue" d="M176.57,-289.86C186.26,-266.72 197.09,-240.88 206.41,-218.62"/>
<polygon fill="none" stroke="midnightblue" points="173.27,-288.68 172.64,-299.25 179.73,-291.38 173.27,-288.68"/>
</g>
<!-- Node4 -->
<g id="node4" class="node">
<title>Node4</title>
<g id="a_node4"><a xlink:href="classcore_1_1socket_1_1stream_1_1_socket_client.html" target="_top" xlink:title=" ">
<polygon fill="white" stroke="black" points="0,-449.5 0,-737.5 221,-737.5 221,-449.5 0,-449.5"/>
<text text-anchor="start" x="8" y="-725.5" font-family="Helvetica,sans-Serif" font-size="10.00">core::socket::stream</text>
<text text-anchor="start" x="8" y="-714.5" font-family="Helvetica,sans-Serif" font-size="10.00">::SocketClient&lt; ClientSocket</text>
<text text-anchor="start" x="8" y="-703.5" font-family="Helvetica,sans-Serif" font-size="10.00">T, core::socket::stream::</text>
<text text-anchor="start" x="8" y="-692.5" font-family="Helvetica,sans-Serif" font-size="10.00">tls::SocketConnector&lt; ClientConfig</text>
<text text-anchor="start" x="8" y="-681.5" font-family="Helvetica,sans-Serif" font-size="10.00">T, ClientSocketT::Socket &gt;, SocketContext</text>
<text text-anchor="middle" x="110.5" y="-670.5" font-family="Helvetica,sans-Serif" font-size="10.00">FactoryT &gt;</text>
<polyline fill="none" stroke="black" points="0,-663.5 221,-663.5 "/>
<text text-anchor="start" x="8" y="-651.5" font-family="Helvetica,sans-Serif" font-size="10.00"># config</text>
<text text-anchor="start" x="8" y="-640.5" font-family="Helvetica,sans-Serif" font-size="10.00"># socketContextFactory</text>
<text text-anchor="start" x="8" y="-629.5" font-family="Helvetica,sans-Serif" font-size="10.00"># _onConnect</text>
<text text-anchor="start" x="8" y="-618.5" font-family="Helvetica,sans-Serif" font-size="10.00"># _onConnected</text>
<text text-anchor="start" x="8" y="-607.5" font-family="Helvetica,sans-Serif" font-size="10.00"># _onDisconnect</text>
<text text-anchor="start" x="8" y="-596.5" font-family="Helvetica,sans-Serif" font-size="10.00"># options</text>
<polyline fill="none" stroke="black" points="0,-589.5 221,-589.5 "/>
<text text-anchor="start" x="8" y="-577.5" font-family="Helvetica,sans-Serif" font-size="10.00">+ SocketClient()</text>
<text text-anchor="start" x="8" y="-566.5" font-family="Helvetica,sans-Serif" font-size="10.00">+ SocketClient()</text>
<text text-anchor="start" x="8" y="-555.5" font-family="Helvetica,sans-Serif" font-size="10.00">+ ~SocketClient()</text>
<text text-anchor="start" x="8" y="-544.5" font-family="Helvetica,sans-Serif" font-size="10.00">+ connect()</text>
<text text-anchor="start" x="8" y="-533.5" font-family="Helvetica,sans-Serif" font-size="10.00">+ connect()</text>
<text text-anchor="start" x="8" y="-522.5" font-family="Helvetica,sans-Serif" font-size="10.00">+ connect()</text>
<text text-anchor="start" x="8" y="-511.5" font-family="Helvetica,sans-Serif" font-size="10.00">+ onConnect()</text>
<text text-anchor="start" x="8" y="-500.5" font-family="Helvetica,sans-Serif" font-size="10.00">+ onConnected()</text>
<text text-anchor="start" x="8" y="-489.5" font-family="Helvetica,sans-Serif" font-size="10.00">+ onDisconnect()</text>
<text text-anchor="start" x="8" y="-478.5" font-family="Helvetica,sans-Serif" font-size="10.00">+ getSocketContextFactory()</text>
<text text-anchor="start" x="8" y="-467.5" font-family="Helvetica,sans-Serif" font-size="10.00">+ getConfig()</text>
<text text-anchor="start" x="8" y="-456.5" font-family="Helvetica,sans-Serif" font-size="10.00">&#45; SocketClient()</text>
</a>
</g>
</g>
<!-- Node4&#45;&gt;Node3 -->
<g id="edge3" class="edge">
<title>Node4&#45;&gt;Node3</title>
<path fill="none" stroke="midnightblue" d="M135.82,-439.28C137.41,-429.64 138.95,-420.35 140.38,-411.69"/>
<polygon fill="none" stroke="midnightblue" points="132.32,-439 134.14,-449.43 139.23,-440.14 132.32,-439"/>
</g>
<!-- Node5 -->
<g id="node5" class="node">
<title>Node5</title>
<g id="a_node5"><a xlink:title=" ">
<polygon fill="white" stroke="#bfbfbf" points="65,-1133.5 65,-1190.5 148,-1190.5 148,-1133.5 65,-1133.5"/>
<text text-anchor="middle" x="106.5" y="-1178.5" font-family="Helvetica,sans-Serif" font-size="10.00">ClientSocketT</text>
<polyline fill="none" stroke="#bfbfbf" points="65,-1171.5 148,-1171.5 "/>
<text text-anchor="middle" x="106.5" y="-1159.5" font-family="Helvetica,sans-Serif" font-size="10.00"> </text>
<polyline fill="none" stroke="#bfbfbf" points="65,-1152.5 148,-1152.5 "/>
<text text-anchor="middle" x="106.5" y="-1140.5" font-family="Helvetica,sans-Serif" font-size="10.00"> </text>
</a>
</g>
</g>
<!-- Node5&#45;&gt;Node4 -->
<g id="edge4" class="edge">
<title>Node5&#45;&gt;Node4</title>
<path fill="none" stroke="midnightblue" d="M106.77,-1123.06C107.31,-1045.63 108.58,-865.88 109.49,-737.52"/>
<polygon fill="none" stroke="midnightblue" points="103.27,-1123.27 106.7,-1133.29 110.27,-1123.32 103.27,-1123.27"/>
</g>
<!-- Node6 -->
<g id="node6" class="node">
<title>Node6</title>
<g id="a_node6"><a xlink:href="classcore_1_1socket_1_1stream_1_1_socket_client.html" target="_top" xlink:title=" ">
<polygon fill="white" stroke="black" points="123,-829.5 123,-1095.5 316,-1095.5 316,-829.5 123,-829.5"/>
<text text-anchor="start" x="131" y="-1083.5" font-family="Helvetica,sans-Serif" font-size="10.00">core::socket::stream</text>
<text text-anchor="start" x="131" y="-1072.5" font-family="Helvetica,sans-Serif" font-size="10.00">::SocketClient&lt; ClientSocket</text>
<text text-anchor="start" x="131" y="-1061.5" font-family="Helvetica,sans-Serif" font-size="10.00">T, SocketConnectorT, SocketContext</text>
<text text-anchor="middle" x="219.5" y="-1050.5" font-family="Helvetica,sans-Serif" font-size="10.00">FactoryT &gt;</text>
<polyline fill="none" stroke="black" points="123,-1043.5 316,-1043.5 "/>
<text text-anchor="start" x="131" y="-1031.5" font-family="Helvetica,sans-Serif" font-size="10.00"># config</text>
<text text-anchor="start" x="131" y="-1020.5" font-family="Helvetica,sans-Serif" font-size="10.00"># socketContextFactory</text>
<text text-anchor="start" x="131" y="-1009.5" font-family="Helvetica,sans-Serif" font-size="10.00"># _onConnect</text>
<text text-anchor="start" x="131" y="-998.5" font-family="Helvetica,sans-Serif" font-size="10.00"># _onConnected</text>
<text text-anchor="start" x="131" y="-987.5" font-family="Helvetica,sans-Serif" font-size="10.00"># _onDisconnect</text>
<text text-anchor="start" x="131" y="-976.5" font-family="Helvetica,sans-Serif" font-size="10.00"># options</text>
<polyline fill="none" stroke="black" points="123,-969.5 316,-969.5 "/>
<text text-anchor="start" x="131" y="-957.5" font-family="Helvetica,sans-Serif" font-size="10.00">+ SocketClient()</text>
<text text-anchor="start" x="131" y="-946.5" font-family="Helvetica,sans-Serif" font-size="10.00">+ SocketClient()</text>
<text text-anchor="start" x="131" y="-935.5" font-family="Helvetica,sans-Serif" font-size="10.00">+ ~SocketClient()</text>
<text text-anchor="start" x="131" y="-924.5" font-family="Helvetica,sans-Serif" font-size="10.00">+ connect()</text>
<text text-anchor="start" x="131" y="-913.5" font-family="Helvetica,sans-Serif" font-size="10.00">+ connect()</text>
<text text-anchor="start" x="131" y="-902.5" font-family="Helvetica,sans-Serif" font-size="10.00">+ connect()</text>
<text text-anchor="start" x="131" y="-891.5" font-family="Helvetica,sans-Serif" font-size="10.00">+ onConnect()</text>
<text text-anchor="start" x="131" y="-880.5" font-family="Helvetica,sans-Serif" font-size="10.00">+ onConnected()</text>
<text text-anchor="start" x="131" y="-869.5" font-family="Helvetica,sans-Serif" font-size="10.00">+ onDisconnect()</text>
<text text-anchor="start" x="131" y="-858.5" font-family="Helvetica,sans-Serif" font-size="10.00">+ getSocketContextFactory()</text>
<text text-anchor="start" x="131" y="-847.5" font-family="Helvetica,sans-Serif" font-size="10.00">+ getConfig()</text>
<text text-anchor="start" x="131" y="-836.5" font-family="Helvetica,sans-Serif" font-size="10.00">&#45; SocketClient()</text>
</a>
</g>
</g>
<!-- Node5&#45;&gt;Node6 -->
<g id="edge6" class="edge">
<title>Node5&#45;&gt;Node6</title>
<path fill="none" stroke="midnightblue" d="M127.56,-1124.18C132.51,-1115.54 138.06,-1105.83 143.93,-1095.58"/>
<polygon fill="none" stroke="midnightblue" points="124.38,-1122.7 122.45,-1133.12 130.45,-1126.18 124.38,-1122.7"/>
</g>
<!-- Node6&#45;&gt;Node4 -->
<g id="edge5" class="edge">
<title>Node6&#45;&gt;Node4</title>
<path fill="none" stroke="orange" d="M177.3,-819.43C169.32,-792.55 160.97,-764.43 152.98,-737.53"/>
<polygon fill="orange" stroke="orange" points="174.02,-820.67 180.23,-829.26 180.73,-818.68 174.02,-820.67"/>
<text text-anchor="start" x="175.5" y="-803" font-family="Helvetica,sans-Serif" font-size="10.00"> &lt; ClientSocketT, core</text>
<text text-anchor="start" x="175.5" y="-792" font-family="Helvetica,sans-Serif" font-size="10.00">::socket::stream::tls</text>
<text text-anchor="start" x="175.5" y="-781" font-family="Helvetica,sans-Serif" font-size="10.00">::SocketConnector&lt; ClientConfig</text>
<text text-anchor="start" x="175.5" y="-770" font-family="Helvetica,sans-Serif" font-size="10.00">T, ClientSocketT::Socket &gt;,</text>
<text text-anchor="middle" x="255.5" y="-759" font-family="Helvetica,sans-Serif" font-size="10.00"> SocketContextFactoryT &gt;</text>
</g>
<!-- Node7 -->
<g id="node7" class="node">
<title>Node7</title>
<g id="a_node7"><a xlink:href="classweb_1_1http_1_1client_1_1_client.html" target="_top" xlink:title=" ">
<polygon fill="white" stroke="black" points="258.5,-310.5 258.5,-400.5 394.5,-400.5 394.5,-310.5 258.5,-310.5"/>
<text text-anchor="start" x="266.5" y="-388.5" font-family="Helvetica,sans-Serif" font-size="10.00">web::http::client::</text>
<text text-anchor="start" x="266.5" y="-377.5" font-family="Helvetica,sans-Serif" font-size="10.00">Client&lt; SocketClientT,</text>
<text text-anchor="middle" x="326.5" y="-366.5" font-family="Helvetica,sans-Serif" font-size="10.00"> RequestT, ResponseT &gt;</text>
<polyline fill="none" stroke="black" points="258.5,-359.5 394.5,-359.5 "/>
<text text-anchor="middle" x="326.5" y="-347.5" font-family="Helvetica,sans-Serif" font-size="10.00"> </text>
<polyline fill="none" stroke="black" points="258.5,-340.5 394.5,-340.5 "/>
<text text-anchor="start" x="266.5" y="-328.5" font-family="Helvetica,sans-Serif" font-size="10.00">+ Client()</text>
<text text-anchor="start" x="266.5" y="-317.5" font-family="Helvetica,sans-Serif" font-size="10.00">+ Client()</text>
</a>
</g>
</g>
<!-- Node7&#45;&gt;Node2 -->
<g id="edge7" class="edge">
<title>Node7&#45;&gt;Node2</title>
<path fill="none" stroke="orange" d="M299.33,-301C286.32,-275.38 270.74,-244.71 257.61,-218.84"/>
<polygon fill="orange" stroke="orange" points="296.35,-302.87 304,-310.2 302.59,-299.7 296.35,-302.87"/>
<text text-anchor="start" x="287.5" y="-273" font-family="Helvetica,sans-Serif" font-size="10.00"> &lt; net::rf::stream::</text>
<text text-anchor="start" x="287.5" y="-262" font-family="Helvetica,sans-Serif" font-size="10.00">tls::SocketClient, web</text>
<text text-anchor="start" x="287.5" y="-251" font-family="Helvetica,sans-Serif" font-size="10.00">::http::client::Request,</text>
<text text-anchor="middle" x="361" y="-240" font-family="Helvetica,sans-Serif" font-size="10.00"> web::http::client::Response &gt;</text>
</g>
<!-- Node8 -->
<g id="node8" class="node">
<title>Node8</title>
<g id="a_node8"><a xlink:title=" ">
<polygon fill="white" stroke="#bfbfbf" points="239,-554 239,-633 430,-633 430,-554 239,-554"/>
<text text-anchor="start" x="247" y="-621" font-family="Helvetica,sans-Serif" font-size="10.00">SocketClientT&lt; web</text>
<text text-anchor="start" x="247" y="-610" font-family="Helvetica,sans-Serif" font-size="10.00">::http::client::SocketContext</text>
<text text-anchor="middle" x="334.5" y="-599" font-family="Helvetica,sans-Serif" font-size="10.00">Factory&lt; RequestT, ResponseT &gt; &gt;</text>
<polyline fill="none" stroke="#bfbfbf" points="239,-592 430,-592 "/>
<text text-anchor="middle" x="334.5" y="-580" font-family="Helvetica,sans-Serif" font-size="10.00"> </text>
<polyline fill="none" stroke="#bfbfbf" points="239,-573 430,-573 "/>
<text text-anchor="middle" x="334.5" y="-561" font-family="Helvetica,sans-Serif" font-size="10.00"> </text>
</a>
</g>
</g>
<!-- Node8&#45;&gt;Node7 -->
<g id="edge8" class="edge">
<title>Node8&#45;&gt;Node7</title>
<path fill="none" stroke="midnightblue" d="M332.85,-543.79C331.42,-501.76 329.38,-441.57 328,-400.86"/>
<polygon fill="none" stroke="midnightblue" points="329.35,-543.92 333.19,-553.79 336.35,-543.68 329.35,-543.92"/>
</g>
</g>
</svg>
