<?xml version="1.0" encoding="UTF-8" standalone="no"?>
<!DOCTYPE svg PUBLIC "-//W3C//DTD SVG 1.1//EN"
 "http://www.w3.org/Graphics/SVG/1.1/DTD/svg11.dtd">
<!-- Generated by graphviz version 2.43.0 (0)
 -->
<!-- Title: core::socket::stream::SocketConnector::initConnectEvent Pages: 1 -->
<svg width="360pt" height="116pt"
 viewBox="0.00 0.00 360.00 116.00" xmlns="http://www.w3.org/2000/svg" xmlns:xlink="http://www.w3.org/1999/xlink">
<g id="graph0" class="graph" transform="scale(1 1) rotate(0) translate(4 112)">
<title>core::socket::stream::SocketConnector::initConnectEvent</title>
<polygon fill="white" stroke="transparent" points="-4,4 -4,-112 356,-112 356,4 -4,4"/>
<!-- Node1 -->
<g id="node1" class="node">
<title>Node1</title>
<g id="a_node1"><a xlink:title=" ">
<polygon fill="#bfbfbf" stroke="black" points="0,-33.5 0,-74.5 166,-74.5 166,-33.5 0,-33.5"/>
<text text-anchor="start" x="8" y="-62.5" font-family="Helvetica,sans-Serif" font-size="10.00">core::socket::stream</text>
<text text-anchor="start" x="8" y="-51.5" font-family="Helvetica,sans-Serif" font-size="10.00">::SocketConnector::initConnect</text>
<text text-anchor="middle" x="83" y="-40.5" font-family="Helvetica,sans-Serif" font-size="10.00">Event</text>
</a>
</g>
</g>
<!-- Node2 -->
<g id="node2" class="node">
<title>Node2</title>
<g id="a_node2"><a xlink:href="namespacecore_1_1system.html#a19ceab092964086376447fb7ddbdb2d2" target="_top" xlink:title=" ">
<polygon fill="white" stroke="black" points="223.5,-88.5 223.5,-107.5 330.5,-107.5 330.5,-88.5 223.5,-88.5"/>
<text text-anchor="middle" x="277" y="-95.5" font-family="Helvetica,sans-Serif" font-size="10.00">core::system::bind</text>
</a>
</g>
</g>
<!-- Node1&#45;&gt;Node2 -->
<g id="edge1" class="edge">
<title>Node1&#45;&gt;Node2</title>
<path fill="none" stroke="midnightblue" d="M166.26,-72.85C186.01,-77.38 206.54,-82.08 224.44,-86.18"/>
<polygon fill="midnightblue" stroke="midnightblue" points="223.84,-89.64 234.36,-88.46 225.4,-82.81 223.84,-89.64"/>
</g>
<!-- Node3 -->
<g id="node3" class="node">
<title>Node3</title>
<g id="a_node3"><a xlink:href="classcore_1_1socket_1_1stream_1_1_socket_connector.html#ad3fe140bf7b611d99278804e548ac85e" target="_top" xlink:title=" ">
<polygon fill="white" stroke="black" points="202,-39 202,-69 352,-69 352,-39 202,-39"/>
<text text-anchor="start" x="210" y="-57" font-family="Helvetica,sans-Serif" font-size="10.00">core::socket::stream</text>
<text text-anchor="middle" x="277" y="-46" font-family="Helvetica,sans-Serif" font-size="10.00">::SocketConnector::destruct</text>
</a>
</g>
</g>
<!-- Node1&#45;&gt;Node3 -->
<g id="edge2" class="edge">
<title>Node1&#45;&gt;Node3</title>
<path fill="none" stroke="midnightblue" d="M166.26,-54C174.65,-54 183.19,-54 191.61,-54"/>
<polygon fill="midnightblue" stroke="midnightblue" points="191.8,-57.5 201.8,-54 191.8,-50.5 191.8,-57.5"/>
</g>
<!-- Node4 -->
<g id="node4" class="node">
<title>Node4</title>
<g id="a_node4"><a xlink:href="namespacecore_1_1system.html#af932d59deb1d46aca925c487cebf0ab5" target="_top" xlink:title=" ">
<polygon fill="white" stroke="black" points="222,-0.5 222,-19.5 332,-19.5 332,-0.5 222,-0.5"/>
<text text-anchor="middle" x="277" y="-7.5" font-family="Helvetica,sans-Serif" font-size="10.00">core::system::open</text>
</a>
</g>
</g>
<!-- Node1&#45;&gt;Node4 -->
<g id="edge3" class="edge">
<title>Node1&#45;&gt;Node4</title>
<path fill="none" stroke="midnightblue" d="M166.26,-35.15C186.01,-30.62 206.54,-25.92 224.44,-21.82"/>
<polygon fill="midnightblue" stroke="midnightblue" points="225.4,-25.19 234.36,-19.54 223.84,-18.36 225.4,-25.19"/>
</g>
</g>
</svg>
