<?xml version="1.0" encoding="UTF-8" standalone="no"?>
<!DOCTYPE svg PUBLIC "-//W3C//DTD SVG 1.1//EN"
 "http://www.w3.org/Graphics/SVG/1.1/DTD/svg11.dtd">
<!-- Generated by graphviz version 2.43.0 (0)
 -->
<!-- Title: core::eventreceiver::ConnectEventReceiver Pages: 1 -->
<svg width="455pt" height="1420pt"
 viewBox="0.00 0.00 454.66 1420.00" xmlns="http://www.w3.org/2000/svg" xmlns:xlink="http://www.w3.org/1999/xlink">
<g id="graph0" class="graph" transform="scale(1 1) rotate(0) translate(4 1416)">
<title>core::eventreceiver::ConnectEventReceiver</title>
<polygon fill="white" stroke="transparent" points="-4,4 -4,-1416 450.66,-1416 450.66,4 -4,4"/>
<!-- Node1 -->
<g id="node1" class="node">
<title>Node1</title>
<g id="a_node1"><a xlink:title=" ">
<polygon fill="#bfbfbf" stroke="black" points="165,-768.5 165,-880.5 311,-880.5 311,-768.5 165,-768.5"/>
<text text-anchor="start" x="173" y="-868.5" font-family="Helvetica,sans-Serif" font-size="10.00">core::eventreceiver</text>
<text text-anchor="middle" x="238" y="-857.5" font-family="Helvetica,sans-Serif" font-size="10.00">::ConnectEventReceiver</text>
<polyline fill="none" stroke="black" points="165,-850.5 311,-850.5 "/>
<text text-anchor="middle" x="238" y="-838.5" font-family="Helvetica,sans-Serif" font-size="10.00"> </text>
<polyline fill="none" stroke="black" points="165,-831.5 311,-831.5 "/>
<text text-anchor="start" x="173" y="-819.5" font-family="Helvetica,sans-Serif" font-size="10.00"># ConnectEventReceiver()</text>
<text text-anchor="start" x="173" y="-808.5" font-family="Helvetica,sans-Serif" font-size="10.00">&#45; connectEvent()</text>
<text text-anchor="start" x="173" y="-797.5" font-family="Helvetica,sans-Serif" font-size="10.00">&#45; connectTimeout()</text>
<text text-anchor="start" x="173" y="-786.5" font-family="Helvetica,sans-Serif" font-size="10.00">&#45; dispatchEvent()</text>
<text text-anchor="start" x="173" y="-775.5" font-family="Helvetica,sans-Serif" font-size="10.00">&#45; timeoutEvent()</text>
</a>
</g>
</g>
<!-- Node5 -->
<g id="node5" class="node">
<title>Node5</title>
<g id="a_node5"><a xlink:href="classcore_1_1socket_1_1stream_1_1_socket_connector.html" target="_top" xlink:title=" ">
<polygon fill="white" stroke="black" points="0,-139.5 0,-405.5 182,-405.5 182,-139.5 0,-139.5"/>
<text text-anchor="start" x="8" y="-393.5" font-family="Helvetica,sans-Serif" font-size="10.00">core::socket::stream</text>
<text text-anchor="start" x="8" y="-382.5" font-family="Helvetica,sans-Serif" font-size="10.00">::SocketConnector&lt; ClientConfig</text>
<text text-anchor="start" x="8" y="-371.5" font-family="Helvetica,sans-Serif" font-size="10.00">T, core::socket::stream::legacy</text>
<text text-anchor="middle" x="91" y="-360.5" font-family="Helvetica,sans-Serif" font-size="10.00">::SocketConnection&lt; SocketT &gt; &gt;</text>
<polyline fill="none" stroke="black" points="0,-353.5 182,-353.5 "/>
<text text-anchor="start" x="8" y="-341.5" font-family="Helvetica,sans-Serif" font-size="10.00"># clientConfig</text>
<text text-anchor="start" x="8" y="-330.5" font-family="Helvetica,sans-Serif" font-size="10.00"># onError</text>
<text text-anchor="start" x="8" y="-319.5" font-family="Helvetica,sans-Serif" font-size="10.00"># options</text>
<text text-anchor="start" x="8" y="-308.5" font-family="Helvetica,sans-Serif" font-size="10.00">&#45; socketContextFactory</text>
<text text-anchor="start" x="8" y="-297.5" font-family="Helvetica,sans-Serif" font-size="10.00">&#45; onConnect</text>
<text text-anchor="start" x="8" y="-286.5" font-family="Helvetica,sans-Serif" font-size="10.00">&#45; onDestruct</text>
<text text-anchor="start" x="8" y="-275.5" font-family="Helvetica,sans-Serif" font-size="10.00">&#45; onConnected</text>
<text text-anchor="start" x="8" y="-264.5" font-family="Helvetica,sans-Serif" font-size="10.00">&#45; onDisconnect</text>
<polyline fill="none" stroke="black" points="0,-257.5 182,-257.5 "/>
<text text-anchor="start" x="8" y="-245.5" font-family="Helvetica,sans-Serif" font-size="10.00">+ SocketConnector()</text>
<text text-anchor="start" x="8" y="-234.5" font-family="Helvetica,sans-Serif" font-size="10.00">+ ~SocketConnector()</text>
<text text-anchor="start" x="8" y="-223.5" font-family="Helvetica,sans-Serif" font-size="10.00">+ connect()</text>
<text text-anchor="start" x="8" y="-212.5" font-family="Helvetica,sans-Serif" font-size="10.00"># destruct()</text>
<text text-anchor="start" x="8" y="-201.5" font-family="Helvetica,sans-Serif" font-size="10.00">&#45; SocketConnector()</text>
<text text-anchor="start" x="8" y="-190.5" font-family="Helvetica,sans-Serif" font-size="10.00">&#45; SocketConnector()</text>
<text text-anchor="start" x="8" y="-179.5" font-family="Helvetica,sans-Serif" font-size="10.00">&#45; operator=()</text>
<text text-anchor="start" x="8" y="-168.5" font-family="Helvetica,sans-Serif" font-size="10.00">&#45; initConnectEvent()</text>
<text text-anchor="start" x="8" y="-157.5" font-family="Helvetica,sans-Serif" font-size="10.00">&#45; connectEvent()</text>
<text text-anchor="start" x="8" y="-146.5" font-family="Helvetica,sans-Serif" font-size="10.00">&#45; unobservedEvent()</text>
</a>
</g>
</g>
<!-- Node1&#45;&gt;Node5 -->
<g id="edge4" class="edge">
<title>Node1&#45;&gt;Node5</title>
<path fill="none" stroke="darkgreen" d="M162.11,-760.64C154.07,-751.38 146.75,-741.43 141,-731 86.2,-631.54 76.83,-501.51 79.35,-405.5"/>
<polygon fill="none" stroke="darkgreen" points="159.71,-763.19 169.02,-768.24 164.89,-758.49 159.71,-763.19"/>
</g>
<!-- Node7 -->
<g id="node7" class="node">
<title>Node7</title>
<g id="a_node7"><a xlink:href="classcore_1_1socket_1_1stream_1_1_socket_connector.html" target="_top" xlink:title=" ">
<polygon fill="white" stroke="black" points="211,-139.5 211,-405.5 393,-405.5 393,-139.5 211,-139.5"/>
<text text-anchor="start" x="219" y="-393.5" font-family="Helvetica,sans-Serif" font-size="10.00">core::socket::stream</text>
<text text-anchor="start" x="219" y="-382.5" font-family="Helvetica,sans-Serif" font-size="10.00">::SocketConnector&lt; ClientConfig</text>
<text text-anchor="start" x="219" y="-371.5" font-family="Helvetica,sans-Serif" font-size="10.00">T, core::socket::stream::tls</text>
<text text-anchor="middle" x="302" y="-360.5" font-family="Helvetica,sans-Serif" font-size="10.00">::SocketConnection&lt; SocketT &gt; &gt;</text>
<polyline fill="none" stroke="black" points="211,-353.5 393,-353.5 "/>
<text text-anchor="start" x="219" y="-341.5" font-family="Helvetica,sans-Serif" font-size="10.00"># clientConfig</text>
<text text-anchor="start" x="219" y="-330.5" font-family="Helvetica,sans-Serif" font-size="10.00"># onError</text>
<text text-anchor="start" x="219" y="-319.5" font-family="Helvetica,sans-Serif" font-size="10.00"># options</text>
<text text-anchor="start" x="219" y="-308.5" font-family="Helvetica,sans-Serif" font-size="10.00">&#45; socketContextFactory</text>
<text text-anchor="start" x="219" y="-297.5" font-family="Helvetica,sans-Serif" font-size="10.00">&#45; onConnect</text>
<text text-anchor="start" x="219" y="-286.5" font-family="Helvetica,sans-Serif" font-size="10.00">&#45; onDestruct</text>
<text text-anchor="start" x="219" y="-275.5" font-family="Helvetica,sans-Serif" font-size="10.00">&#45; onConnected</text>
<text text-anchor="start" x="219" y="-264.5" font-family="Helvetica,sans-Serif" font-size="10.00">&#45; onDisconnect</text>
<polyline fill="none" stroke="black" points="211,-257.5 393,-257.5 "/>
<text text-anchor="start" x="219" y="-245.5" font-family="Helvetica,sans-Serif" font-size="10.00">+ SocketConnector()</text>
<text text-anchor="start" x="219" y="-234.5" font-family="Helvetica,sans-Serif" font-size="10.00">+ ~SocketConnector()</text>
<text text-anchor="start" x="219" y="-223.5" font-family="Helvetica,sans-Serif" font-size="10.00">+ connect()</text>
<text text-anchor="start" x="219" y="-212.5" font-family="Helvetica,sans-Serif" font-size="10.00"># destruct()</text>
<text text-anchor="start" x="219" y="-201.5" font-family="Helvetica,sans-Serif" font-size="10.00">&#45; SocketConnector()</text>
<text text-anchor="start" x="219" y="-190.5" font-family="Helvetica,sans-Serif" font-size="10.00">&#45; SocketConnector()</text>
<text text-anchor="start" x="219" y="-179.5" font-family="Helvetica,sans-Serif" font-size="10.00">&#45; operator=()</text>
<text text-anchor="start" x="219" y="-168.5" font-family="Helvetica,sans-Serif" font-size="10.00">&#45; initConnectEvent()</text>
<text text-anchor="start" x="219" y="-157.5" font-family="Helvetica,sans-Serif" font-size="10.00">&#45; connectEvent()</text>
<text text-anchor="start" x="219" y="-146.5" font-family="Helvetica,sans-Serif" font-size="10.00">&#45; unobservedEvent()</text>
</a>
</g>
</g>
<!-- Node1&#45;&gt;Node7 -->
<g id="edge6" class="edge">
<title>Node1&#45;&gt;Node7</title>
<path fill="none" stroke="darkgreen" d="M310.88,-760.86C319.67,-751.4 328,-741.34 335,-731 408.6,-622.36 420.1,-585.84 445,-457 453.74,-411.79 426.33,-370.46 393.25,-338.52"/>
<polygon fill="none" stroke="darkgreen" points="308.13,-758.66 303.74,-768.31 313.19,-763.51 308.13,-758.66"/>
</g>
<!-- Node9 -->
<g id="node9" class="node">
<title>Node9</title>
<g id="a_node9"><a xlink:href="classcore_1_1socket_1_1stream_1_1_socket_connector.html" target="_top" xlink:title=" ">
<polygon fill="white" stroke="black" points="150,-475.5 150,-730.5 326,-730.5 326,-475.5 150,-475.5"/>
<text text-anchor="start" x="158" y="-718.5" font-family="Helvetica,sans-Serif" font-size="10.00">core::socket::stream</text>
<text text-anchor="start" x="158" y="-707.5" font-family="Helvetica,sans-Serif" font-size="10.00">::SocketConnector&lt; ClientConfig</text>
<text text-anchor="middle" x="238" y="-696.5" font-family="Helvetica,sans-Serif" font-size="10.00">T, SocketConnectionT &gt;</text>
<polyline fill="none" stroke="black" points="150,-689.5 326,-689.5 "/>
<text text-anchor="start" x="158" y="-677.5" font-family="Helvetica,sans-Serif" font-size="10.00"># clientConfig</text>
<text text-anchor="start" x="158" y="-666.5" font-family="Helvetica,sans-Serif" font-size="10.00"># onError</text>
<text text-anchor="start" x="158" y="-655.5" font-family="Helvetica,sans-Serif" font-size="10.00"># options</text>
<text text-anchor="start" x="158" y="-644.5" font-family="Helvetica,sans-Serif" font-size="10.00">&#45; socketContextFactory</text>
<text text-anchor="start" x="158" y="-633.5" font-family="Helvetica,sans-Serif" font-size="10.00">&#45; onConnect</text>
<text text-anchor="start" x="158" y="-622.5" font-family="Helvetica,sans-Serif" font-size="10.00">&#45; onDestruct</text>
<text text-anchor="start" x="158" y="-611.5" font-family="Helvetica,sans-Serif" font-size="10.00">&#45; onConnected</text>
<text text-anchor="start" x="158" y="-600.5" font-family="Helvetica,sans-Serif" font-size="10.00">&#45; onDisconnect</text>
<polyline fill="none" stroke="black" points="150,-593.5 326,-593.5 "/>
<text text-anchor="start" x="158" y="-581.5" font-family="Helvetica,sans-Serif" font-size="10.00">+ SocketConnector()</text>
<text text-anchor="start" x="158" y="-570.5" font-family="Helvetica,sans-Serif" font-size="10.00">+ ~SocketConnector()</text>
<text text-anchor="start" x="158" y="-559.5" font-family="Helvetica,sans-Serif" font-size="10.00">+ connect()</text>
<text text-anchor="start" x="158" y="-548.5" font-family="Helvetica,sans-Serif" font-size="10.00"># destruct()</text>
<text text-anchor="start" x="158" y="-537.5" font-family="Helvetica,sans-Serif" font-size="10.00">&#45; SocketConnector()</text>
<text text-anchor="start" x="158" y="-526.5" font-family="Helvetica,sans-Serif" font-size="10.00">&#45; SocketConnector()</text>
<text text-anchor="start" x="158" y="-515.5" font-family="Helvetica,sans-Serif" font-size="10.00">&#45; operator=()</text>
<text text-anchor="start" x="158" y="-504.5" font-family="Helvetica,sans-Serif" font-size="10.00">&#45; initConnectEvent()</text>
<text text-anchor="start" x="158" y="-493.5" font-family="Helvetica,sans-Serif" font-size="10.00">&#45; connectEvent()</text>
<text text-anchor="start" x="158" y="-482.5" font-family="Helvetica,sans-Serif" font-size="10.00">&#45; unobservedEvent()</text>
</a>
</g>
</g>
<!-- Node1&#45;&gt;Node9 -->
<g id="edge8" class="edge">
<title>Node1&#45;&gt;Node9</title>
<path fill="none" stroke="darkgreen" d="M238,-758.29C238,-749.49 238,-740.23 238,-730.79"/>
<polygon fill="none" stroke="darkgreen" points="234.5,-758.39 238,-768.39 241.5,-758.39 234.5,-758.39"/>
</g>
<!-- Node2 -->
<g id="node2" class="node">
<title>Node2</title>
<g id="a_node2"><a xlink:href="classcore_1_1_descriptor_event_receiver.html" target="_top" xlink:title=" ">
<polygon fill="white" stroke="black" points="156,-918.5 156,-1261.5 320,-1261.5 320,-918.5 156,-918.5"/>
<text text-anchor="middle" x="238" y="-1249.5" font-family="Helvetica,sans-Serif" font-size="10.00">core::DescriptorEventReceiver</text>
<polyline fill="none" stroke="black" points="156,-1242.5 320,-1242.5 "/>
<text text-anchor="start" x="164" y="-1230.5" font-family="Helvetica,sans-Serif" font-size="10.00">&#45; descriptorEventPublisher</text>
<text text-anchor="start" x="164" y="-1219.5" font-family="Helvetica,sans-Serif" font-size="10.00">&#45; observedFd</text>
<text text-anchor="start" x="164" y="-1208.5" font-family="Helvetica,sans-Serif" font-size="10.00">&#45; enabled</text>
<text text-anchor="start" x="164" y="-1197.5" font-family="Helvetica,sans-Serif" font-size="10.00">&#45; suspended</text>
<text text-anchor="start" x="164" y="-1186.5" font-family="Helvetica,sans-Serif" font-size="10.00">&#45; lastTriggered</text>
<text text-anchor="start" x="164" y="-1175.5" font-family="Helvetica,sans-Serif" font-size="10.00">&#45; maxInactivity</text>
<text text-anchor="start" x="164" y="-1164.5" font-family="Helvetica,sans-Serif" font-size="10.00">&#45; initialTimeout</text>
<text text-anchor="start" x="164" y="-1153.5" font-family="Helvetica,sans-Serif" font-size="10.00">&#45; eventCounter</text>
<polyline fill="none" stroke="black" points="156,-1146.5 320,-1146.5 "/>
<text text-anchor="start" x="164" y="-1134.5" font-family="Helvetica,sans-Serif" font-size="10.00">+ getRegisteredFd()</text>
<text text-anchor="start" x="164" y="-1123.5" font-family="Helvetica,sans-Serif" font-size="10.00">+ getTimeout()</text>
<text text-anchor="start" x="164" y="-1112.5" font-family="Helvetica,sans-Serif" font-size="10.00">+ isEnabled()</text>
<text text-anchor="start" x="164" y="-1101.5" font-family="Helvetica,sans-Serif" font-size="10.00">+ isSuspended()</text>
<text text-anchor="start" x="164" y="-1090.5" font-family="Helvetica,sans-Serif" font-size="10.00"># DescriptorEventReceiver()</text>
<text text-anchor="start" x="164" y="-1079.5" font-family="Helvetica,sans-Serif" font-size="10.00"># enable()</text>
<text text-anchor="start" x="164" y="-1068.5" font-family="Helvetica,sans-Serif" font-size="10.00"># disable()</text>
<text text-anchor="start" x="164" y="-1057.5" font-family="Helvetica,sans-Serif" font-size="10.00"># suspend()</text>
<text text-anchor="start" x="164" y="-1046.5" font-family="Helvetica,sans-Serif" font-size="10.00"># resume()</text>
<text text-anchor="start" x="164" y="-1035.5" font-family="Helvetica,sans-Serif" font-size="10.00"># setTimeout()</text>
<text text-anchor="start" x="164" y="-1024.5" font-family="Helvetica,sans-Serif" font-size="10.00"># checkTimeout()</text>
<text text-anchor="start" x="164" y="-1013.5" font-family="Helvetica,sans-Serif" font-size="10.00"># terminate()</text>
<text text-anchor="start" x="164" y="-1002.5" font-family="Helvetica,sans-Serif" font-size="10.00">&#45; DescriptorEventReceiver()</text>
<text text-anchor="start" x="164" y="-991.5" font-family="Helvetica,sans-Serif" font-size="10.00">&#45; operator=()</text>
<text text-anchor="start" x="164" y="-980.5" font-family="Helvetica,sans-Serif" font-size="10.00">&#45; dispatch()</text>
<text text-anchor="start" x="164" y="-969.5" font-family="Helvetica,sans-Serif" font-size="10.00">&#45; triggered()</text>
<text text-anchor="start" x="164" y="-958.5" font-family="Helvetica,sans-Serif" font-size="10.00">&#45; setEnabled()</text>
<text text-anchor="start" x="164" y="-947.5" font-family="Helvetica,sans-Serif" font-size="10.00">&#45; setDisabled()</text>
<text text-anchor="start" x="164" y="-936.5" font-family="Helvetica,sans-Serif" font-size="10.00">&#45; dispatchEvent()</text>
<text text-anchor="start" x="164" y="-925.5" font-family="Helvetica,sans-Serif" font-size="10.00">&#45; timeoutEvent()</text>
</a>
</g>
</g>
<!-- Node2&#45;&gt;Node1 -->
<g id="edge1" class="edge">
<title>Node2&#45;&gt;Node1</title>
<path fill="none" stroke="midnightblue" d="M238,-908.2C238,-898.54 238,-889.29 238,-880.7"/>
<polygon fill="none" stroke="midnightblue" points="234.5,-908.4 238,-918.4 241.5,-908.4 234.5,-908.4"/>
</g>
<!-- Node3 -->
<g id="node3" class="node">
<title>Node3</title>
<g id="a_node3"><a xlink:href="classcore_1_1_observer.html" target="_top" xlink:title=" ">
<polygon fill="white" stroke="black" points="88.5,-1299.5 88.5,-1411.5 237.5,-1411.5 237.5,-1299.5 88.5,-1299.5"/>
<text text-anchor="middle" x="163" y="-1399.5" font-family="Helvetica,sans-Serif" font-size="10.00">core::Observer</text>
<polyline fill="none" stroke="black" points="88.5,-1392.5 237.5,-1392.5 "/>
<text text-anchor="start" x="96.5" y="-1380.5" font-family="Helvetica,sans-Serif" font-size="10.00">&#45; observationCounter</text>
<polyline fill="none" stroke="black" points="88.5,-1373.5 237.5,-1373.5 "/>
<text text-anchor="start" x="96.5" y="-1361.5" font-family="Helvetica,sans-Serif" font-size="10.00">+ ~Observer()</text>
<text text-anchor="start" x="96.5" y="-1350.5" font-family="Helvetica,sans-Serif" font-size="10.00">+ isObserved()</text>
<text text-anchor="start" x="96.5" y="-1339.5" font-family="Helvetica,sans-Serif" font-size="10.00">+ observed()</text>
<text text-anchor="start" x="96.5" y="-1328.5" font-family="Helvetica,sans-Serif" font-size="10.00">+ unObserved()</text>
<text text-anchor="start" x="96.5" y="-1317.5" font-family="Helvetica,sans-Serif" font-size="10.00">+ getObservationCounter()</text>
<text text-anchor="start" x="96.5" y="-1306.5" font-family="Helvetica,sans-Serif" font-size="10.00">+ unobservedEvent()</text>
</a>
</g>
</g>
<!-- Node3&#45;&gt;Node2 -->
<g id="edge2" class="edge">
<title>Node3&#45;&gt;Node2</title>
<path fill="none" stroke="midnightblue" d="M181.49,-1289.54C184,-1280.7 186.67,-1271.33 189.43,-1261.65"/>
<polygon fill="none" stroke="midnightblue" points="178.09,-1288.69 178.72,-1299.26 184.83,-1290.6 178.09,-1288.69"/>
</g>
<!-- Node4 -->
<g id="node4" class="node">
<title>Node4</title>
<g id="a_node4"><a xlink:href="classcore_1_1_event_receiver.html" target="_top" xlink:title=" ">
<polygon fill="white" stroke="black" points="256,-1299.5 256,-1411.5 370,-1411.5 370,-1299.5 256,-1299.5"/>
<text text-anchor="middle" x="313" y="-1399.5" font-family="Helvetica,sans-Serif" font-size="10.00">core::EventReceiver</text>
<polyline fill="none" stroke="black" points="256,-1392.5 370,-1392.5 "/>
<text text-anchor="start" x="264" y="-1380.5" font-family="Helvetica,sans-Serif" font-size="10.00"># event</text>
<text text-anchor="start" x="264" y="-1369.5" font-family="Helvetica,sans-Serif" font-size="10.00">&#45; name</text>
<polyline fill="none" stroke="black" points="256,-1362.5 370,-1362.5 "/>
<text text-anchor="start" x="264" y="-1350.5" font-family="Helvetica,sans-Serif" font-size="10.00">+ EventReceiver()</text>
<text text-anchor="start" x="264" y="-1339.5" font-family="Helvetica,sans-Serif" font-size="10.00">+ ~EventReceiver()</text>
<text text-anchor="start" x="264" y="-1328.5" font-family="Helvetica,sans-Serif" font-size="10.00">+ publish()</text>
<text text-anchor="start" x="264" y="-1317.5" font-family="Helvetica,sans-Serif" font-size="10.00">+ dispatch()</text>
<text text-anchor="start" x="264" y="-1306.5" font-family="Helvetica,sans-Serif" font-size="10.00">+ getName()</text>
</a>
</g>
</g>
<!-- Node4&#45;&gt;Node2 -->
<g id="edge3" class="edge">
<title>Node4&#45;&gt;Node2</title>
<path fill="none" stroke="midnightblue" d="M294.51,-1289.54C292,-1280.7 289.33,-1271.33 286.57,-1261.65"/>
<polygon fill="none" stroke="midnightblue" points="291.17,-1290.6 297.28,-1299.26 297.91,-1288.69 291.17,-1290.6"/>
</g>
<!-- Node6 -->
<g id="node6" class="node">
<title>Node6</title>
<g id="a_node6"><a xlink:href="classcore_1_1socket_1_1stream_1_1legacy_1_1_socket_connector.html" target="_top" xlink:title=" ">
<polygon fill="white" stroke="black" points="16.5,-11.5 16.5,-90.5 165.5,-90.5 165.5,-11.5 16.5,-11.5"/>
<text text-anchor="start" x="24.5" y="-78.5" font-family="Helvetica,sans-Serif" font-size="10.00">core::socket::stream</text>
<text text-anchor="start" x="24.5" y="-67.5" font-family="Helvetica,sans-Serif" font-size="10.00">::legacy::SocketConnector</text>
<text text-anchor="middle" x="91" y="-56.5" font-family="Helvetica,sans-Serif" font-size="10.00">&lt; ClientConfigT, SocketT &gt;</text>
<polyline fill="none" stroke="black" points="16.5,-49.5 165.5,-49.5 "/>
<text text-anchor="middle" x="91" y="-37.5" font-family="Helvetica,sans-Serif" font-size="10.00"> </text>
<polyline fill="none" stroke="black" points="16.5,-30.5 165.5,-30.5 "/>
<text text-anchor="start" x="24.5" y="-18.5" font-family="Helvetica,sans-Serif" font-size="10.00">+ SocketConnector()</text>
</a>
</g>
</g>
<!-- Node5&#45;&gt;Node6 -->
<g id="edge5" class="edge">
<title>Node5&#45;&gt;Node6</title>
<path fill="none" stroke="darkgreen" d="M91,-129.17C91,-115.31 91,-102.21 91,-90.87"/>
<polygon fill="none" stroke="darkgreen" points="87.5,-129.38 91,-139.38 94.5,-129.38 87.5,-129.38"/>
</g>
<!-- Node8 -->
<g id="node8" class="node">
<title>Node8</title>
<g id="a_node8"><a xlink:href="classcore_1_1socket_1_1stream_1_1tls_1_1_socket_connector.html" target="_top" xlink:title=" ">
<polygon fill="white" stroke="black" points="227.5,-0.5 227.5,-101.5 376.5,-101.5 376.5,-0.5 227.5,-0.5"/>
<text text-anchor="start" x="235.5" y="-89.5" font-family="Helvetica,sans-Serif" font-size="10.00">core::socket::stream</text>
<text text-anchor="start" x="235.5" y="-78.5" font-family="Helvetica,sans-Serif" font-size="10.00">::tls::SocketConnector</text>
<text text-anchor="middle" x="302" y="-67.5" font-family="Helvetica,sans-Serif" font-size="10.00">&lt; ClientConfigT, SocketT &gt;</text>
<polyline fill="none" stroke="black" points="227.5,-60.5 376.5,-60.5 "/>
<text text-anchor="start" x="235.5" y="-48.5" font-family="Helvetica,sans-Serif" font-size="10.00"># ctx</text>
<polyline fill="none" stroke="black" points="227.5,-41.5 376.5,-41.5 "/>
<text text-anchor="start" x="235.5" y="-29.5" font-family="Helvetica,sans-Serif" font-size="10.00">+ SocketConnector()</text>
<text text-anchor="start" x="235.5" y="-18.5" font-family="Helvetica,sans-Serif" font-size="10.00">+ ~SocketConnector()</text>
<text text-anchor="start" x="235.5" y="-7.5" font-family="Helvetica,sans-Serif" font-size="10.00">+ connect()</text>
</a>
</g>
</g>
<!-- Node7&#45;&gt;Node8 -->
<g id="edge7" class="edge">
<title>Node7&#45;&gt;Node8</title>
<path fill="none" stroke="darkgreen" d="M302,-129.23C302,-119.61 302,-110.35 302,-101.8"/>
<polygon fill="none" stroke="darkgreen" points="298.5,-129.38 302,-139.38 305.5,-129.38 298.5,-129.38"/>
</g>
<!-- Node9&#45;&gt;Node5 -->
<g id="edge9" class="edge">
<title>Node9&#45;&gt;Node5</title>
<path fill="none" stroke="orange" d="M142.85,-522.7C125.24,-503.14 109.21,-480.88 99,-457 92.17,-441.02 87.88,-423.53 85.37,-405.89"/>
<polygon fill="orange" stroke="orange" points="140.3,-525.11 149.67,-530.07 145.44,-520.35 140.3,-525.11"/>
<text text-anchor="start" x="99" y="-449" font-family="Helvetica,sans-Serif" font-size="10.00"> &lt; ClientConfigT, core</text>
<text text-anchor="start" x="99" y="-438" font-family="Helvetica,sans-Serif" font-size="10.00">::socket::stream::legacy</text>
<text text-anchor="middle" x="182" y="-427" font-family="Helvetica,sans-Serif" font-size="10.00">::SocketConnection&lt; SocketT &gt; &gt;</text>
</g>
<!-- Node9&#45;&gt;Node7 -->
<g id="edge10" class="edge">
<title>Node9&#45;&gt;Node7</title>
<path fill="none" stroke="orange" d="M267.39,-465.14C267.93,-462.41 268.47,-459.69 269,-457 272.25,-440.48 275.54,-423.11 278.72,-405.9"/>
<polygon fill="orange" stroke="orange" points="263.92,-464.63 265.37,-475.13 270.78,-466.02 263.92,-464.63"/>
<text text-anchor="start" x="275" y="-449" font-family="Helvetica,sans-Serif" font-size="10.00"> &lt; ClientConfigT, core</text>
<text text-anchor="start" x="275" y="-438" font-family="Helvetica,sans-Serif" font-size="10.00">::socket::stream::tls</text>
<text text-anchor="middle" x="358" y="-427" font-family="Helvetica,sans-Serif" font-size="10.00">::SocketConnection&lt; SocketT &gt; &gt;</text>
</g>
</g>
</svg>
