<?xml version="1.0" encoding="UTF-8" standalone="no"?>
<!DOCTYPE svg PUBLIC "-//W3C//DTD SVG 1.1//EN"
 "http://www.w3.org/Graphics/SVG/1.1/DTD/svg11.dtd">
<!-- Generated by graphviz version 2.43.0 (0)
 -->
<!-- Title: web::http::client::Request::set Pages: 1 -->
<svg width="539pt" height="39pt"
 viewBox="0.00 0.00 539.00 39.00" xmlns="http://www.w3.org/2000/svg" xmlns:xlink="http://www.w3.org/1999/xlink">
<g id="graph0" class="graph" transform="scale(1 1) rotate(0) translate(4 35)">
<title>web::http::client::Request::set</title>
<polygon fill="white" stroke="transparent" points="-4,4 -4,-35 535,-35 535,4 -4,4"/>
<!-- Node1 -->
<g id="node1" class="node">
<title>Node1</title>
<g id="a_node1"><a xlink:title=" ">
<polygon fill="#bfbfbf" stroke="black" points="0,-0.5 0,-30.5 101,-30.5 101,-0.5 0,-0.5"/>
<text text-anchor="start" x="8" y="-18.5" font-family="Helvetica,sans-Serif" font-size="10.00">web::http::client::</text>
<text text-anchor="middle" x="50.5" y="-7.5" font-family="Helvetica,sans-Serif" font-size="10.00">Request::set</text>
</a>
</g>
</g>
<!-- Node2 -->
<g id="node2" class="node">
<title>Node2</title>
<g id="a_node2"><a xlink:href="namespacehttputils.html#af566d4f31d97a3a84b373a94e6cf9594" target="_top" xlink:title=" ">
<polygon fill="white" stroke="black" points="137,-6 137,-25 255,-25 255,-6 137,-6"/>
<text text-anchor="middle" x="196" y="-13" font-family="Helvetica,sans-Serif" font-size="10.00">httputils::ci_contains</text>
</a>
</g>
</g>
<!-- Node1&#45;&gt;Node2 -->
<g id="edge1" class="edge">
<title>Node1&#45;&gt;Node2</title>
<path fill="none" stroke="midnightblue" d="M101.29,-15.5C109.55,-15.5 118.24,-15.5 126.86,-15.5"/>
<polygon fill="midnightblue" stroke="midnightblue" points="126.92,-19 136.92,-15.5 126.92,-12 126.92,-19"/>
</g>
<!-- Node3 -->
<g id="node3" class="node">
<title>Node3</title>
<g id="a_node3"><a xlink:href="namespace_c_l_i_1_1detail.html#aa4b4a0a97c9b07110595765887647385" target="_top" xlink:title="A search function.">
<polygon fill="white" stroke="black" points="291,-6 291,-25 395,-25 395,-6 291,-6"/>
<text text-anchor="middle" x="343" y="-13" font-family="Helvetica,sans-Serif" font-size="10.00">CLI::detail::search</text>
</a>
</g>
</g>
<!-- Node2&#45;&gt;Node3 -->
<g id="edge2" class="edge">
<title>Node2&#45;&gt;Node3</title>
<path fill="none" stroke="midnightblue" d="M255.14,-15.5C263.54,-15.5 272.21,-15.5 280.68,-15.5"/>
<polygon fill="midnightblue" stroke="midnightblue" points="280.86,-19 290.86,-15.5 280.86,-12 280.86,-19"/>
</g>
<!-- Node4 -->
<g id="node4" class="node">
<title>Node4</title>
<g id="a_node4"><a xlink:href="namespace_c_l_i_1_1detail.html#a0c6cf48feae9d909d52e7b4c346cba29" target="_top" xlink:title=" ">
<polygon fill="white" stroke="black" points="431,-0.5 431,-30.5 531,-30.5 531,-0.5 431,-0.5"/>
<text text-anchor="start" x="439" y="-18.5" font-family="Helvetica,sans-Serif" font-size="10.00">CLI::detail::smart</text>
<text text-anchor="middle" x="481" y="-7.5" font-family="Helvetica,sans-Serif" font-size="10.00">_deref</text>
</a>
</g>
</g>
<!-- Node3&#45;&gt;Node4 -->
<g id="edge3" class="edge">
<title>Node3&#45;&gt;Node4</title>
<path fill="none" stroke="midnightblue" d="M395.03,-15.5C403.48,-15.5 412.3,-15.5 420.93,-15.5"/>
<polygon fill="midnightblue" stroke="midnightblue" points="420.94,-19 430.94,-15.5 420.94,-12 420.94,-19"/>
</g>
</g>
</svg>
