<?xml version="1.0" encoding="UTF-8" standalone="no"?>
<!DOCTYPE svg PUBLIC "-//W3C//DTD SVG 1.1//EN"
 "http://www.w3.org/Graphics/SVG/1.1/DTD/svg11.dtd">
<!-- Generated by graphviz version 2.43.0 (0)
 -->
<!-- Title: web::websocket::Receiver::receive Pages: 1 -->
<svg width="509pt" height="333pt"
 viewBox="0.00 0.00 509.00 333.00" xmlns="http://www.w3.org/2000/svg" xmlns:xlink="http://www.w3.org/1999/xlink">
<g id="graph0" class="graph" transform="scale(1 1) rotate(0) translate(4 329)">
<title>web::websocket::Receiver::receive</title>
<polygon fill="white" stroke="transparent" points="-4,4 -4,-329 505,-329 505,4 -4,4"/>
<!-- Node1 -->
<g id="node1" class="node">
<title>Node1</title>
<g id="a_node1"><a xlink:title=" ">
<polygon fill="#bfbfbf" stroke="black" points="0,-147.5 0,-177.5 143,-177.5 143,-147.5 0,-147.5"/>
<text text-anchor="start" x="8" y="-165.5" font-family="Helvetica,sans-Serif" font-size="10.00">web::websocket::Receiver</text>
<text text-anchor="middle" x="71.5" y="-154.5" font-family="Helvetica,sans-Serif" font-size="10.00">::receive</text>
</a>
</g>
</g>
<!-- Node2 -->
<g id="node2" class="node">
<title>Node2</title>
<g id="a_node2"><a xlink:href="classweb_1_1websocket_1_1_receiver.html#a8af78fbe6a18dc8643c52306f006e1a3" target="_top" xlink:title=" ">
<polygon fill="white" stroke="black" points="179,-294.5 179,-324.5 322,-324.5 322,-294.5 179,-294.5"/>
<text text-anchor="start" x="187" y="-312.5" font-family="Helvetica,sans-Serif" font-size="10.00">web::websocket::Receiver</text>
<text text-anchor="middle" x="250.5" y="-301.5" font-family="Helvetica,sans-Serif" font-size="10.00">::onMessageError</text>
</a>
</g>
</g>
<!-- Node1&#45;&gt;Node2 -->
<g id="edge1" class="edge">
<title>Node1&#45;&gt;Node2</title>
<path fill="none" stroke="midnightblue" d="M81.73,-177.65C98.16,-203.41 134.95,-255.84 179,-285.5 181.28,-287.04 183.68,-288.49 186.14,-289.85"/>
<polygon fill="midnightblue" stroke="midnightblue" points="184.82,-293.1 195.34,-294.42 187.94,-286.83 184.82,-293.1"/>
</g>
<!-- Node3 -->
<g id="node3" class="node">
<title>Node3</title>
<g id="a_node3"><a xlink:href="classweb_1_1websocket_1_1_receiver.html#a67172021447182a7867efc354f2a14a9" target="_top" xlink:title=" ">
<polygon fill="white" stroke="black" points="179,-245.5 179,-275.5 322,-275.5 322,-245.5 179,-245.5"/>
<text text-anchor="start" x="187" y="-263.5" font-family="Helvetica,sans-Serif" font-size="10.00">web::websocket::Receiver</text>
<text text-anchor="middle" x="250.5" y="-252.5" font-family="Helvetica,sans-Serif" font-size="10.00">::readELength</text>
</a>
</g>
</g>
<!-- Node1&#45;&gt;Node3 -->
<g id="edge2" class="edge">
<title>Node1&#45;&gt;Node3</title>
<path fill="none" stroke="midnightblue" d="M90.73,-177.56C111.18,-193.85 145.84,-219.75 179,-236.5 182.53,-238.29 186.23,-239.99 190,-241.6"/>
<polygon fill="midnightblue" stroke="midnightblue" points="188.9,-244.93 199.48,-245.42 191.51,-238.43 188.9,-244.93"/>
</g>
<!-- Node5 -->
<g id="node5" class="node">
<title>Node5</title>
<g id="a_node5"><a xlink:href="classweb_1_1websocket_1_1_receiver.html#a4d86cfda2cf5517c53efaf52f07ca06f" target="_top" xlink:title=" ">
<polygon fill="white" stroke="black" points="179,-196.5 179,-226.5 322,-226.5 322,-196.5 179,-196.5"/>
<text text-anchor="start" x="187" y="-214.5" font-family="Helvetica,sans-Serif" font-size="10.00">web::websocket::Receiver</text>
<text text-anchor="middle" x="250.5" y="-203.5" font-family="Helvetica,sans-Serif" font-size="10.00">::readLength</text>
</a>
</g>
</g>
<!-- Node1&#45;&gt;Node5 -->
<g id="edge4" class="edge">
<title>Node1&#45;&gt;Node5</title>
<path fill="none" stroke="midnightblue" d="M127.05,-177.6C145.47,-182.7 166.21,-188.44 185.31,-193.73"/>
<polygon fill="midnightblue" stroke="midnightblue" points="184.56,-197.15 195.13,-196.45 186.43,-190.41 184.56,-197.15"/>
</g>
<!-- Node7 -->
<g id="node7" class="node">
<title>Node7</title>
<g id="a_node7"><a xlink:href="classweb_1_1websocket_1_1_receiver.html#af964a36d8a512b34fd986907d54ae651" target="_top" xlink:title=" ">
<polygon fill="white" stroke="black" points="358,-98.5 358,-128.5 501,-128.5 501,-98.5 358,-98.5"/>
<text text-anchor="start" x="366" y="-116.5" font-family="Helvetica,sans-Serif" font-size="10.00">web::websocket::Receiver</text>
<text text-anchor="middle" x="429.5" y="-105.5" font-family="Helvetica,sans-Serif" font-size="10.00">::reset</text>
</a>
</g>
</g>
<!-- Node1&#45;&gt;Node7 -->
<g id="edge20" class="edge">
<title>Node1&#45;&gt;Node7</title>
<path fill="none" stroke="midnightblue" d="M80.16,-147.2C94.89,-119.69 130.11,-62.72 179,-40.5 236.86,-14.2 265.3,-11.8 322,-40.5 346.11,-52.7 336.21,-73.52 358,-89.5 360.05,-91.01 362.21,-92.42 364.43,-93.75"/>
<polygon fill="midnightblue" stroke="midnightblue" points="362.86,-96.88 373.33,-98.48 366.14,-90.69 362.86,-96.88"/>
</g>
<!-- Node8 -->
<g id="node8" class="node">
<title>Node8</title>
<g id="a_node8"><a xlink:href="classweb_1_1websocket_1_1_receiver.html#a572a3d6a32947d42e70ff548315e6541" target="_top" xlink:title=" ">
<polygon fill="white" stroke="black" points="179,-147.5 179,-177.5 322,-177.5 322,-147.5 179,-147.5"/>
<text text-anchor="start" x="187" y="-165.5" font-family="Helvetica,sans-Serif" font-size="10.00">web::websocket::Receiver</text>
<text text-anchor="middle" x="250.5" y="-154.5" font-family="Helvetica,sans-Serif" font-size="10.00">::readMaskingKey</text>
</a>
</g>
</g>
<!-- Node1&#45;&gt;Node8 -->
<g id="edge8" class="edge">
<title>Node1&#45;&gt;Node8</title>
<path fill="none" stroke="midnightblue" d="M143.22,-162.5C151.57,-162.5 160.14,-162.5 168.62,-162.5"/>
<polygon fill="midnightblue" stroke="midnightblue" points="168.89,-166 178.89,-162.5 168.89,-159 168.89,-166"/>
</g>
<!-- Node9 -->
<g id="node9" class="node">
<title>Node9</title>
<g id="a_node9"><a xlink:href="classweb_1_1websocket_1_1_receiver.html#a9b56f0b3540487930009c8146f29a7da" target="_top" xlink:title=" ">
<polygon fill="white" stroke="black" points="179,-49.5 179,-79.5 322,-79.5 322,-49.5 179,-49.5"/>
<text text-anchor="start" x="187" y="-67.5" font-family="Helvetica,sans-Serif" font-size="10.00">web::websocket::Receiver</text>
<text text-anchor="middle" x="250.5" y="-56.5" font-family="Helvetica,sans-Serif" font-size="10.00">::readOpcode</text>
</a>
</g>
</g>
<!-- Node1&#45;&gt;Node9 -->
<g id="edge12" class="edge">
<title>Node1&#45;&gt;Node9</title>
<path fill="none" stroke="midnightblue" d="M91.18,-147.45C111.74,-131.45 146.24,-106.18 179,-89.5 183.26,-87.33 187.75,-85.27 192.32,-83.33"/>
<polygon fill="midnightblue" stroke="midnightblue" points="193.8,-86.51 201.76,-79.52 191.18,-80.02 193.8,-86.51"/>
</g>
<!-- Node11 -->
<g id="node11" class="node">
<title>Node11</title>
<g id="a_node11"><a xlink:href="classweb_1_1websocket_1_1_receiver.html#a91dbd90f4db1f00871de74eb6444a33c" target="_top" xlink:title=" ">
<polygon fill="white" stroke="black" points="179,-98.5 179,-128.5 322,-128.5 322,-98.5 179,-98.5"/>
<text text-anchor="start" x="187" y="-116.5" font-family="Helvetica,sans-Serif" font-size="10.00">web::websocket::Receiver</text>
<text text-anchor="middle" x="250.5" y="-105.5" font-family="Helvetica,sans-Serif" font-size="10.00">::readPayload</text>
</a>
</g>
</g>
<!-- Node1&#45;&gt;Node11 -->
<g id="edge15" class="edge">
<title>Node1&#45;&gt;Node11</title>
<path fill="none" stroke="midnightblue" d="M127.05,-147.4C145.47,-142.3 166.21,-136.56 185.31,-131.27"/>
<polygon fill="midnightblue" stroke="midnightblue" points="186.43,-134.59 195.13,-128.55 184.56,-127.85 186.43,-134.59"/>
</g>
<!-- Node4 -->
<g id="node4" class="node">
<title>Node4</title>
<g id="a_node4"><a xlink:href="classweb_1_1websocket_1_1_receiver.html#a2a345682728fd482b29586a176a33699" target="_top" xlink:title=" ">
<polygon fill="white" stroke="black" points="358,-196.5 358,-226.5 501,-226.5 501,-196.5 358,-196.5"/>
<text text-anchor="start" x="366" y="-214.5" font-family="Helvetica,sans-Serif" font-size="10.00">web::websocket::Receiver</text>
<text text-anchor="middle" x="429.5" y="-203.5" font-family="Helvetica,sans-Serif" font-size="10.00">::readFrameData</text>
</a>
</g>
</g>
<!-- Node3&#45;&gt;Node4 -->
<g id="edge3" class="edge">
<title>Node3&#45;&gt;Node4</title>
<path fill="none" stroke="midnightblue" d="M306.05,-245.4C324.47,-240.3 345.21,-234.56 364.31,-229.27"/>
<polygon fill="midnightblue" stroke="midnightblue" points="365.43,-232.59 374.13,-226.55 363.56,-225.85 365.43,-232.59"/>
</g>
<!-- Node5&#45;&gt;Node4 -->
<g id="edge6" class="edge">
<title>Node5&#45;&gt;Node4</title>
<path fill="none" stroke="midnightblue" d="M322.22,-211.5C330.57,-211.5 339.14,-211.5 347.62,-211.5"/>
<polygon fill="midnightblue" stroke="midnightblue" points="347.89,-215 357.89,-211.5 347.89,-208 347.89,-215"/>
</g>
<!-- Node6 -->
<g id="node6" class="node">
<title>Node6</title>
<g id="a_node6"><a xlink:href="classweb_1_1websocket_1_1_receiver.html#a0f54f3da386c2166362d48978de37550" target="_top" xlink:title=" ">
<polygon fill="white" stroke="black" points="358,-147.5 358,-177.5 501,-177.5 501,-147.5 358,-147.5"/>
<text text-anchor="start" x="366" y="-165.5" font-family="Helvetica,sans-Serif" font-size="10.00">web::websocket::Receiver</text>
<text text-anchor="middle" x="429.5" y="-154.5" font-family="Helvetica,sans-Serif" font-size="10.00">::onMessageEnd</text>
</a>
</g>
</g>
<!-- Node5&#45;&gt;Node6 -->
<g id="edge5" class="edge">
<title>Node5&#45;&gt;Node6</title>
<path fill="none" stroke="midnightblue" d="M306.05,-196.4C324.47,-191.3 345.21,-185.56 364.31,-180.27"/>
<polygon fill="midnightblue" stroke="midnightblue" points="365.43,-183.59 374.13,-177.55 363.56,-176.85 365.43,-183.59"/>
</g>
<!-- Node5&#45;&gt;Node7 -->
<g id="edge7" class="edge">
<title>Node5&#45;&gt;Node7</title>
<path fill="none" stroke="midnightblue" d="M306.67,-196.48C312.09,-193.91 317.31,-190.94 322,-187.5 343.79,-171.52 336.31,-154.62 358,-138.5 360.47,-136.66 363.1,-134.95 365.82,-133.36"/>
<polygon fill="midnightblue" stroke="midnightblue" points="367.55,-136.4 374.78,-128.66 364.3,-130.2 367.55,-136.4"/>
</g>
<!-- Node8&#45;&gt;Node4 -->
<g id="edge10" class="edge">
<title>Node8&#45;&gt;Node4</title>
<path fill="none" stroke="midnightblue" d="M306.05,-177.6C324.47,-182.7 345.21,-188.44 364.31,-193.73"/>
<polygon fill="midnightblue" stroke="midnightblue" points="363.56,-197.15 374.13,-196.45 365.43,-190.41 363.56,-197.15"/>
</g>
<!-- Node8&#45;&gt;Node6 -->
<g id="edge9" class="edge">
<title>Node8&#45;&gt;Node6</title>
<path fill="none" stroke="midnightblue" d="M322.22,-162.5C330.57,-162.5 339.14,-162.5 347.62,-162.5"/>
<polygon fill="midnightblue" stroke="midnightblue" points="347.89,-166 357.89,-162.5 347.89,-159 347.89,-166"/>
</g>
<!-- Node8&#45;&gt;Node7 -->
<g id="edge11" class="edge">
<title>Node8&#45;&gt;Node7</title>
<path fill="none" stroke="midnightblue" d="M306.05,-147.4C324.47,-142.3 345.21,-136.56 364.31,-131.27"/>
<polygon fill="midnightblue" stroke="midnightblue" points="365.43,-134.59 374.13,-128.55 363.56,-127.85 365.43,-134.59"/>
</g>
<!-- Node9&#45;&gt;Node4 -->
<g id="edge14" class="edge">
<title>Node9&#45;&gt;Node4</title>
<path fill="none" stroke="midnightblue" d="M308.8,-79.66C313.62,-82.42 318.12,-85.67 322,-89.5 355,-122.13 324.8,-155.08 358,-187.5 359.1,-188.57 360.25,-189.6 361.44,-190.58"/>
<polygon fill="midnightblue" stroke="midnightblue" points="359.63,-193.58 369.85,-196.4 363.62,-187.83 359.63,-193.58"/>
</g>
<!-- Node10 -->
<g id="node10" class="node">
<title>Node10</title>
<g id="a_node10"><a xlink:href="classweb_1_1websocket_1_1_receiver.html#a26c04f0b5c7667cf1d26c8bc8ee1e500" target="_top" xlink:title=" ">
<polygon fill="white" stroke="black" points="358,-0.5 358,-30.5 501,-30.5 501,-0.5 358,-0.5"/>
<text text-anchor="start" x="366" y="-18.5" font-family="Helvetica,sans-Serif" font-size="10.00">web::websocket::Receiver</text>
<text text-anchor="middle" x="429.5" y="-7.5" font-family="Helvetica,sans-Serif" font-size="10.00">::onMessageStart</text>
</a>
</g>
</g>
<!-- Node9&#45;&gt;Node10 -->
<g id="edge13" class="edge">
<title>Node9&#45;&gt;Node10</title>
<path fill="none" stroke="midnightblue" d="M306.05,-49.4C324.47,-44.3 345.21,-38.56 364.31,-33.27"/>
<polygon fill="midnightblue" stroke="midnightblue" points="365.43,-36.59 374.13,-30.55 363.56,-29.85 365.43,-36.59"/>
</g>
<!-- Node11&#45;&gt;Node4 -->
<g id="edge18" class="edge">
<title>Node11&#45;&gt;Node4</title>
<path fill="none" stroke="midnightblue" d="M305.22,-128.66C311.16,-131.45 316.89,-134.71 322,-138.5 343.69,-154.62 336.21,-171.52 358,-187.5 360.05,-189.01 362.21,-190.42 364.43,-191.75"/>
<polygon fill="midnightblue" stroke="midnightblue" points="362.86,-194.88 373.33,-196.48 366.14,-188.69 362.86,-194.88"/>
</g>
<!-- Node11&#45;&gt;Node6 -->
<g id="edge17" class="edge">
<title>Node11&#45;&gt;Node6</title>
<path fill="none" stroke="midnightblue" d="M306.05,-128.6C324.47,-133.7 345.21,-139.44 364.31,-144.73"/>
<polygon fill="midnightblue" stroke="midnightblue" points="363.56,-148.15 374.13,-147.45 365.43,-141.41 363.56,-148.15"/>
</g>
<!-- Node11&#45;&gt;Node7 -->
<g id="edge19" class="edge">
<title>Node11&#45;&gt;Node7</title>
<path fill="none" stroke="midnightblue" d="M322.22,-113.5C330.57,-113.5 339.14,-113.5 347.62,-113.5"/>
<polygon fill="midnightblue" stroke="midnightblue" points="347.89,-117 357.89,-113.5 347.89,-110 347.89,-117"/>
</g>
<!-- Node12 -->
<g id="node12" class="node">
<title>Node12</title>
<g id="a_node12"><a xlink:href="classweb_1_1websocket_1_1_receiver.html#a1f94e91b4cd84eb7f425e33ac7eee433" target="_top" xlink:title=" ">
<polygon fill="white" stroke="black" points="358,-49.5 358,-79.5 501,-79.5 501,-49.5 358,-49.5"/>
<text text-anchor="start" x="366" y="-67.5" font-family="Helvetica,sans-Serif" font-size="10.00">web::websocket::Receiver</text>
<text text-anchor="middle" x="429.5" y="-56.5" font-family="Helvetica,sans-Serif" font-size="10.00">::onMessageData</text>
</a>
</g>
</g>
<!-- Node11&#45;&gt;Node12 -->
<g id="edge16" class="edge">
<title>Node11&#45;&gt;Node12</title>
<path fill="none" stroke="midnightblue" d="M306.05,-98.4C324.47,-93.3 345.21,-87.56 364.31,-82.27"/>
<polygon fill="midnightblue" stroke="midnightblue" points="365.43,-85.59 374.13,-79.55 363.56,-78.85 365.43,-85.59"/>
</g>
</g>
</svg>
