<?xml version="1.0" encoding="UTF-8" standalone="no"?>
<!DOCTYPE svg PUBLIC "-//W3C//DTD SVG 1.1//EN"
 "http://www.w3.org/Graphics/SVG/1.1/DTD/svg11.dtd">
<!-- Generated by graphviz version 2.43.0 (0)
 -->
<!-- Title: net::in::SocketAddress Pages: 1 -->
<svg width="182pt" height="552pt"
 viewBox="0.00 0.00 181.50 552.00" xmlns="http://www.w3.org/2000/svg" xmlns:xlink="http://www.w3.org/1999/xlink">
<g id="graph0" class="graph" transform="scale(1 1) rotate(0) translate(4 548)">
<title>net::in::SocketAddress</title>
<polygon fill="white" stroke="transparent" points="-4,4 -4,-548 177.5,-548 177.5,4 -4,4"/>
<!-- Node1 -->
<g id="node1" class="node">
<title>Node1</title>
<g id="a_node1"><a xlink:title=" ">
<polygon fill="#bfbfbf" stroke="black" points="13.5,-0.5 13.5,-145.5 129.5,-145.5 129.5,-0.5 13.5,-0.5"/>
<text text-anchor="middle" x="71.5" y="-133.5" font-family="Helvetica,sans-Serif" font-size="10.00">net::in::SocketAddress</text>
<polyline fill="none" stroke="black" points="13.5,-126.5 129.5,-126.5 "/>
<text text-anchor="middle" x="71.5" y="-114.5" font-family="Helvetica,sans-Serif" font-size="10.00"> </text>
<polyline fill="none" stroke="black" points="13.5,-107.5 129.5,-107.5 "/>
<text text-anchor="start" x="21.5" y="-95.5" font-family="Helvetica,sans-Serif" font-size="10.00">+ SocketAddress()</text>
<text text-anchor="start" x="21.5" y="-84.5" font-family="Helvetica,sans-Serif" font-size="10.00">+ SocketAddress()</text>
<text text-anchor="start" x="21.5" y="-73.5" font-family="Helvetica,sans-Serif" font-size="10.00">+ SocketAddress()</text>
<text text-anchor="start" x="21.5" y="-62.5" font-family="Helvetica,sans-Serif" font-size="10.00">+ SocketAddress()</text>
<text text-anchor="start" x="21.5" y="-51.5" font-family="Helvetica,sans-Serif" font-size="10.00">+ port()</text>
<text text-anchor="start" x="21.5" y="-40.5" font-family="Helvetica,sans-Serif" font-size="10.00">+ host()</text>
<text text-anchor="start" x="21.5" y="-29.5" font-family="Helvetica,sans-Serif" font-size="10.00">+ serv()</text>
<text text-anchor="start" x="21.5" y="-18.5" font-family="Helvetica,sans-Serif" font-size="10.00">+ address()</text>
<text text-anchor="start" x="21.5" y="-7.5" font-family="Helvetica,sans-Serif" font-size="10.00">+ toString()</text>
</a>
</g>
</g>
<!-- Node2 -->
<g id="node2" class="node">
<title>Node2</title>
<g id="a_node2"><a xlink:href="classcore_1_1socket_1_1_socket_address.html" target="_top" xlink:title=" ">
<polygon fill="white" stroke="black" points="0,-183.5 0,-339.5 143,-339.5 143,-183.5 0,-183.5"/>
<text text-anchor="start" x="8" y="-327.5" font-family="Helvetica,sans-Serif" font-size="10.00">core::socket::SocketAddress</text>
<text text-anchor="middle" x="71.5" y="-316.5" font-family="Helvetica,sans-Serif" font-size="10.00">&lt; struct sockaddr_in &gt;</text>
<polyline fill="none" stroke="black" points="0,-309.5 143,-309.5 "/>
<text text-anchor="start" x="8" y="-297.5" font-family="Helvetica,sans-Serif" font-size="10.00"># sockAddr</text>
<polyline fill="none" stroke="black" points="0,-290.5 143,-290.5 "/>
<text text-anchor="start" x="8" y="-278.5" font-family="Helvetica,sans-Serif" font-size="10.00">+ SocketAddress()</text>
<text text-anchor="start" x="8" y="-267.5" font-family="Helvetica,sans-Serif" font-size="10.00">+ SocketAddress()</text>
<text text-anchor="start" x="8" y="-256.5" font-family="Helvetica,sans-Serif" font-size="10.00">+ SocketAddress()</text>
<text text-anchor="start" x="8" y="-245.5" font-family="Helvetica,sans-Serif" font-size="10.00">+ operator=()</text>
<text text-anchor="start" x="8" y="-234.5" font-family="Helvetica,sans-Serif" font-size="10.00">+ operator=()</text>
<text text-anchor="start" x="8" y="-223.5" font-family="Helvetica,sans-Serif" font-size="10.00">+ getSockAddr()</text>
<text text-anchor="start" x="8" y="-212.5" font-family="Helvetica,sans-Serif" font-size="10.00">+ getSockAddrLen()</text>
<text text-anchor="start" x="8" y="-201.5" font-family="Helvetica,sans-Serif" font-size="10.00">+ address()</text>
<text text-anchor="start" x="8" y="-190.5" font-family="Helvetica,sans-Serif" font-size="10.00">+ toString()</text>
</a>
</g>
</g>
<!-- Node2&#45;&gt;Node1 -->
<g id="edge1" class="edge">
<title>Node2&#45;&gt;Node1</title>
<path fill="none" stroke="midnightblue" d="M71.5,-173.03C71.5,-163.9 71.5,-154.69 71.5,-145.76"/>
<polygon fill="none" stroke="midnightblue" points="68,-173.3 71.5,-183.3 75,-173.3 68,-173.3"/>
</g>
<!-- Node3 -->
<g id="node3" class="node">
<title>Node3</title>
<g id="a_node3"><a xlink:href="classcore_1_1socket_1_1_socket_address.html" target="_top" xlink:title=" ">
<polygon fill="white" stroke="black" points="0,-387.5 0,-543.5 143,-543.5 143,-387.5 0,-387.5"/>
<text text-anchor="start" x="8" y="-531.5" font-family="Helvetica,sans-Serif" font-size="10.00">core::socket::SocketAddress</text>
<text text-anchor="middle" x="71.5" y="-520.5" font-family="Helvetica,sans-Serif" font-size="10.00">&lt; SockAddrT &gt;</text>
<polyline fill="none" stroke="black" points="0,-513.5 143,-513.5 "/>
<text text-anchor="start" x="8" y="-501.5" font-family="Helvetica,sans-Serif" font-size="10.00"># sockAddr</text>
<polyline fill="none" stroke="black" points="0,-494.5 143,-494.5 "/>
<text text-anchor="start" x="8" y="-482.5" font-family="Helvetica,sans-Serif" font-size="10.00">+ SocketAddress()</text>
<text text-anchor="start" x="8" y="-471.5" font-family="Helvetica,sans-Serif" font-size="10.00">+ SocketAddress()</text>
<text text-anchor="start" x="8" y="-460.5" font-family="Helvetica,sans-Serif" font-size="10.00">+ SocketAddress()</text>
<text text-anchor="start" x="8" y="-449.5" font-family="Helvetica,sans-Serif" font-size="10.00">+ operator=()</text>
<text text-anchor="start" x="8" y="-438.5" font-family="Helvetica,sans-Serif" font-size="10.00">+ operator=()</text>
<text text-anchor="start" x="8" y="-427.5" font-family="Helvetica,sans-Serif" font-size="10.00">+ getSockAddr()</text>
<text text-anchor="start" x="8" y="-416.5" font-family="Helvetica,sans-Serif" font-size="10.00">+ getSockAddrLen()</text>
<text text-anchor="start" x="8" y="-405.5" font-family="Helvetica,sans-Serif" font-size="10.00">+ address()</text>
<text text-anchor="start" x="8" y="-394.5" font-family="Helvetica,sans-Serif" font-size="10.00">+ toString()</text>
</a>
</g>
</g>
<!-- Node3&#45;&gt;Node2 -->
<g id="edge2" class="edge">
<title>Node3&#45;&gt;Node2</title>
<path fill="none" stroke="orange" d="M71.5,-376.94C71.5,-364.54 71.5,-351.87 71.5,-339.69"/>
<polygon fill="orange" stroke="orange" points="68,-377.27 71.5,-387.27 75,-377.27 68,-377.27"/>
<text text-anchor="middle" x="122.5" y="-361" font-family="Helvetica,sans-Serif" font-size="10.00"> &lt; struct sockaddr_in &gt;</text>
</g>
</g>
</svg>
