<?xml version="1.0" encoding="UTF-8" standalone="no"?>
<!DOCTYPE svg PUBLIC "-//W3C//DTD SVG 1.1//EN"
 "http://www.w3.org/Graphics/SVG/1.1/DTD/svg11.dtd">
<!-- Generated by graphviz version 2.43.0 (0)
 -->
<!-- Title: web::websocket::client::SocketContextUpgradeFactory::prepare Pages: 1 -->
<svg width="778pt" height="78pt"
 viewBox="0.00 0.00 778.00 77.50" xmlns="http://www.w3.org/2000/svg" xmlns:xlink="http://www.w3.org/1999/xlink">
<g id="graph0" class="graph" transform="scale(1 1) rotate(0) translate(4 73.5)">
<title>web::websocket::client::SocketContextUpgradeFactory::prepare</title>
<polygon fill="white" stroke="transparent" points="-4,4 -4,-73.5 774,-73.5 774,4 -4,4"/>
<!-- Node1 -->
<g id="node1" class="node">
<title>Node1</title>
<g id="a_node1"><a xlink:title=" ">
<polygon fill="#bfbfbf" stroke="black" points="0,-17 0,-58 170,-58 170,-17 0,-17"/>
<text text-anchor="start" x="8" y="-46" font-family="Helvetica,sans-Serif" font-size="10.00">web::websocket::client</text>
<text text-anchor="start" x="8" y="-35" font-family="Helvetica,sans-Serif" font-size="10.00">::SocketContextUpgradeFactory</text>
<text text-anchor="middle" x="85" y="-24" font-family="Helvetica,sans-Serif" font-size="10.00">::prepare</text>
</a>
</g>
</g>
<!-- Node2 -->
<g id="node2" class="node">
<title>Node2</title>
<g id="a_node2"><a xlink:href="namespacebase64.html#af19189e96ecbd4de55806b9b705f7374" target="_top" xlink:title=" ">
<polygon fill="white" stroke="black" points="206,-50 206,-69 340,-69 340,-50 206,-50"/>
<text text-anchor="middle" x="273" y="-57" font-family="Helvetica,sans-Serif" font-size="10.00">base64::base64_encode</text>
</a>
</g>
</g>
<!-- Node1&#45;&gt;Node2 -->
<g id="edge1" class="edge">
<title>Node1&#45;&gt;Node2</title>
<path fill="none" stroke="midnightblue" d="M170.02,-47.44C178.67,-48.46 187.42,-49.5 195.98,-50.51"/>
<polygon fill="midnightblue" stroke="midnightblue" points="195.57,-53.98 205.91,-51.68 196.39,-47.03 195.57,-53.98"/>
</g>
<!-- Node3 -->
<g id="node3" class="node">
<title>Node3</title>
<g id="a_node3"><a xlink:href="classweb_1_1http_1_1client_1_1_request.html#a7590755b0f776539d86f08f7eab90951" target="_top" xlink:title=" ">
<polygon fill="white" stroke="black" points="222.5,-0.5 222.5,-30.5 323.5,-30.5 323.5,-0.5 222.5,-0.5"/>
<text text-anchor="start" x="230.5" y="-18.5" font-family="Helvetica,sans-Serif" font-size="10.00">web::http::client::</text>
<text text-anchor="middle" x="273" y="-7.5" font-family="Helvetica,sans-Serif" font-size="10.00">Request::set</text>
</a>
</g>
</g>
<!-- Node1&#45;&gt;Node3 -->
<g id="edge2" class="edge">
<title>Node1&#45;&gt;Node3</title>
<path fill="none" stroke="midnightblue" d="M170.02,-27.56C184.29,-25.87 198.84,-24.15 212.32,-22.56"/>
<polygon fill="midnightblue" stroke="midnightblue" points="212.88,-26.02 222.4,-21.37 212.05,-19.07 212.88,-26.02"/>
</g>
<!-- Node4 -->
<g id="node4" class="node">
<title>Node4</title>
<g id="a_node4"><a xlink:href="namespacehttputils.html#af566d4f31d97a3a84b373a94e6cf9594" target="_top" xlink:title=" ">
<polygon fill="white" stroke="black" points="376,-6 376,-25 494,-25 494,-6 376,-6"/>
<text text-anchor="middle" x="435" y="-13" font-family="Helvetica,sans-Serif" font-size="10.00">httputils::ci_contains</text>
</a>
</g>
</g>
<!-- Node3&#45;&gt;Node4 -->
<g id="edge3" class="edge">
<title>Node3&#45;&gt;Node4</title>
<path fill="none" stroke="midnightblue" d="M323.75,-15.5C337.04,-15.5 351.63,-15.5 365.72,-15.5"/>
<polygon fill="midnightblue" stroke="midnightblue" points="365.88,-19 375.88,-15.5 365.88,-12 365.88,-19"/>
</g>
<!-- Node5 -->
<g id="node5" class="node">
<title>Node5</title>
<g id="a_node5"><a xlink:href="namespace_c_l_i_1_1detail.html#aa4b4a0a97c9b07110595765887647385" target="_top" xlink:title="A search function.">
<polygon fill="white" stroke="black" points="530,-6 530,-25 634,-25 634,-6 530,-6"/>
<text text-anchor="middle" x="582" y="-13" font-family="Helvetica,sans-Serif" font-size="10.00">CLI::detail::search</text>
</a>
</g>
</g>
<!-- Node4&#45;&gt;Node5 -->
<g id="edge4" class="edge">
<title>Node4&#45;&gt;Node5</title>
<path fill="none" stroke="midnightblue" d="M494.14,-15.5C502.54,-15.5 511.21,-15.5 519.68,-15.5"/>
<polygon fill="midnightblue" stroke="midnightblue" points="519.86,-19 529.86,-15.5 519.86,-12 519.86,-19"/>
</g>
<!-- Node6 -->
<g id="node6" class="node">
<title>Node6</title>
<g id="a_node6"><a xlink:href="namespace_c_l_i_1_1detail.html#a0c6cf48feae9d909d52e7b4c346cba29" target="_top" xlink:title=" ">
<polygon fill="white" stroke="black" points="670,-0.5 670,-30.5 770,-30.5 770,-0.5 670,-0.5"/>
<text text-anchor="start" x="678" y="-18.5" font-family="Helvetica,sans-Serif" font-size="10.00">CLI::detail::smart</text>
<text text-anchor="middle" x="720" y="-7.5" font-family="Helvetica,sans-Serif" font-size="10.00">_deref</text>
</a>
</g>
</g>
<!-- Node5&#45;&gt;Node6 -->
<g id="edge5" class="edge">
<title>Node5&#45;&gt;Node6</title>
<path fill="none" stroke="midnightblue" d="M634.03,-15.5C642.48,-15.5 651.3,-15.5 659.93,-15.5"/>
<polygon fill="midnightblue" stroke="midnightblue" points="659.94,-19 669.94,-15.5 659.94,-12 659.94,-19"/>
</g>
</g>
</svg>
