<?xml version="1.0" encoding="UTF-8" standalone="no"?>
<!DOCTYPE svg PUBLIC "-//W3C//DTD SVG 1.1//EN"
 "http://www.w3.org/Graphics/SVG/1.1/DTD/svg11.dtd">
<!-- Generated by graphviz version 2.43.0 (0)
 -->
<!-- Title: web::http::server::legacy::Server6&lt; Request, Response &gt; Pages: 1 -->
<svg width="393pt" height="1078pt"
 viewBox="0.00 0.00 393.00 1078.00" xmlns="http://www.w3.org/2000/svg" xmlns:xlink="http://www.w3.org/1999/xlink">
<g id="graph0" class="graph" transform="scale(1 1) rotate(0) translate(4 1074)">
<title>web::http::server::legacy::Server6&lt; Request, Response &gt;</title>
<polygon fill="white" stroke="transparent" points="-4,4 -4,-1074 389,-1074 389,4 -4,4"/>
<!-- Node1 -->
<g id="node1" class="node">
<title>Node1</title>
<g id="a_node1"><a xlink:title=" ">
<polygon fill="#bfbfbf" stroke="black" points="125,-0.5 125,-112.5 259,-112.5 259,-0.5 125,-0.5"/>
<text text-anchor="start" x="133" y="-100.5" font-family="Helvetica,sans-Serif" font-size="10.00">web::http::server::</text>
<text text-anchor="start" x="133" y="-89.5" font-family="Helvetica,sans-Serif" font-size="10.00">legacy::Server6&lt; Request,</text>
<text text-anchor="middle" x="192" y="-78.5" font-family="Helvetica,sans-Serif" font-size="10.00"> Response &gt;</text>
<polyline fill="none" stroke="black" points="125,-71.5 259,-71.5 "/>
<text text-anchor="middle" x="192" y="-59.5" font-family="Helvetica,sans-Serif" font-size="10.00"> </text>
<polyline fill="none" stroke="black" points="125,-52.5 259,-52.5 "/>
<text text-anchor="start" x="133" y="-40.5" font-family="Helvetica,sans-Serif" font-size="10.00">+ addSniCert()</text>
<text text-anchor="start" x="133" y="-29.5" font-family="Helvetica,sans-Serif" font-size="10.00">+ listen()</text>
<text text-anchor="start" x="133" y="-18.5" font-family="Helvetica,sans-Serif" font-size="10.00">+ listen()</text>
<text text-anchor="start" x="133" y="-7.5" font-family="Helvetica,sans-Serif" font-size="10.00">+ listen()</text>
</a>
</g>
</g>
<!-- Node2 -->
<g id="node2" class="node">
<title>Node2</title>
<g id="a_node2"><a xlink:href="classweb_1_1http_1_1server_1_1_server.html" target="_top" xlink:title=" ">
<polygon fill="white" stroke="black" points="116,-150.5 116,-262.5 268,-262.5 268,-150.5 116,-150.5"/>
<text text-anchor="start" x="124" y="-250.5" font-family="Helvetica,sans-Serif" font-size="10.00">web::http::server::</text>
<text text-anchor="start" x="124" y="-239.5" font-family="Helvetica,sans-Serif" font-size="10.00">Server&lt; net::in6::stream</text>
<text text-anchor="start" x="124" y="-228.5" font-family="Helvetica,sans-Serif" font-size="10.00">::legacy::SocketServer,</text>
<text text-anchor="start" x="124" y="-217.5" font-family="Helvetica,sans-Serif" font-size="10.00"> web::http::server::Request,</text>
<text text-anchor="middle" x="192" y="-206.5" font-family="Helvetica,sans-Serif" font-size="10.00"> web::http::server::Response &gt;</text>
<polyline fill="none" stroke="black" points="116,-199.5 268,-199.5 "/>
<text text-anchor="middle" x="192" y="-187.5" font-family="Helvetica,sans-Serif" font-size="10.00"> </text>
<polyline fill="none" stroke="black" points="116,-180.5 268,-180.5 "/>
<text text-anchor="start" x="124" y="-168.5" font-family="Helvetica,sans-Serif" font-size="10.00">+ Server()</text>
<text text-anchor="start" x="124" y="-157.5" font-family="Helvetica,sans-Serif" font-size="10.00">+ listen()</text>
</a>
</g>
</g>
<!-- Node2&#45;&gt;Node1 -->
<g id="edge1" class="edge">
<title>Node2&#45;&gt;Node1</title>
<path fill="none" stroke="midnightblue" d="M192,-140.14C192,-130.97 192,-121.61 192,-112.66"/>
<polygon fill="none" stroke="midnightblue" points="188.5,-140.39 192,-150.39 195.5,-140.39 188.5,-140.39"/>
</g>
<!-- Node3 -->
<g id="node3" class="node">
<title>Node3</title>
<g id="a_node3"><a xlink:href="classcore_1_1socket_1_1stream_1_1legacy_1_1_socket_server.html" target="_top" xlink:title=" ">
<polygon fill="white" stroke="black" points="26.5,-343.5 26.5,-444.5 193.5,-444.5 193.5,-343.5 26.5,-343.5"/>
<text text-anchor="start" x="34.5" y="-432.5" font-family="Helvetica,sans-Serif" font-size="10.00">net::in6::stream::legacy</text>
<text text-anchor="start" x="34.5" y="-421.5" font-family="Helvetica,sans-Serif" font-size="10.00">::SocketServer &lt; web::http</text>
<text text-anchor="start" x="34.5" y="-410.5" font-family="Helvetica,sans-Serif" font-size="10.00">::server::SocketContextFactory</text>
<text text-anchor="start" x="34.5" y="-399.5" font-family="Helvetica,sans-Serif" font-size="10.00">&lt; web::http::server::Request</text>
<text text-anchor="middle" x="110" y="-388.5" font-family="Helvetica,sans-Serif" font-size="10.00"> , web::http::server::Response &gt; &gt;</text>
<polyline fill="none" stroke="black" points="26.5,-381.5 193.5,-381.5 "/>
<text text-anchor="middle" x="110" y="-369.5" font-family="Helvetica,sans-Serif" font-size="10.00"> </text>
<polyline fill="none" stroke="black" points="26.5,-362.5 193.5,-362.5 "/>
<text text-anchor="middle" x="110" y="-350.5" font-family="Helvetica,sans-Serif" font-size="10.00"> </text>
</a>
</g>
</g>
<!-- Node3&#45;&gt;Node2 -->
<g id="edge2" class="edge">
<title>Node3&#45;&gt;Node2</title>
<path fill="none" stroke="midnightblue" d="M136.07,-334.03C146.19,-311.14 157.71,-285.08 167.65,-262.58"/>
<polygon fill="none" stroke="midnightblue" points="132.82,-332.73 131.97,-343.29 139.22,-335.56 132.82,-332.73"/>
</g>
<!-- Node4 -->
<g id="node4" class="node">
<title>Node4</title>
<g id="a_node4"><a xlink:href="classcore_1_1socket_1_1stream_1_1_socket_server.html" target="_top" xlink:title=" ">
<polygon fill="white" stroke="black" points="0,-482.5 0,-693.5 182,-693.5 182,-482.5 0,-482.5"/>
<text text-anchor="start" x="8" y="-681.5" font-family="Helvetica,sans-Serif" font-size="10.00">core::socket::stream</text>
<text text-anchor="start" x="8" y="-670.5" font-family="Helvetica,sans-Serif" font-size="10.00">::SocketServer&lt; ServerSocket</text>
<text text-anchor="start" x="8" y="-659.5" font-family="Helvetica,sans-Serif" font-size="10.00">T, SocketAcceptor&lt; ServerSocketT</text>
<text text-anchor="middle" x="91" y="-648.5" font-family="Helvetica,sans-Serif" font-size="10.00">::Socket &gt;, SocketContextFactoryT &gt;</text>
<polyline fill="none" stroke="black" points="0,-641.5 182,-641.5 "/>
<text text-anchor="start" x="8" y="-629.5" font-family="Helvetica,sans-Serif" font-size="10.00"># socketContextFactory</text>
<text text-anchor="start" x="8" y="-618.5" font-family="Helvetica,sans-Serif" font-size="10.00"># _onConnect</text>
<text text-anchor="start" x="8" y="-607.5" font-family="Helvetica,sans-Serif" font-size="10.00"># _onConnected</text>
<text text-anchor="start" x="8" y="-596.5" font-family="Helvetica,sans-Serif" font-size="10.00"># _onDisconnect</text>
<text text-anchor="start" x="8" y="-585.5" font-family="Helvetica,sans-Serif" font-size="10.00"># options</text>
<polyline fill="none" stroke="black" points="0,-578.5 182,-578.5 "/>
<text text-anchor="start" x="8" y="-566.5" font-family="Helvetica,sans-Serif" font-size="10.00">+ SocketServer()</text>
<text text-anchor="start" x="8" y="-555.5" font-family="Helvetica,sans-Serif" font-size="10.00">+ ~SocketServer()</text>
<text text-anchor="start" x="8" y="-544.5" font-family="Helvetica,sans-Serif" font-size="10.00">+ listen()</text>
<text text-anchor="start" x="8" y="-533.5" font-family="Helvetica,sans-Serif" font-size="10.00">+ onConnect()</text>
<text text-anchor="start" x="8" y="-522.5" font-family="Helvetica,sans-Serif" font-size="10.00">+ onConnected()</text>
<text text-anchor="start" x="8" y="-511.5" font-family="Helvetica,sans-Serif" font-size="10.00">+ onDisconnect()</text>
<text text-anchor="start" x="8" y="-500.5" font-family="Helvetica,sans-Serif" font-size="10.00">+ getSocketContextFactory()</text>
<text text-anchor="start" x="8" y="-489.5" font-family="Helvetica,sans-Serif" font-size="10.00">&#45; SocketServer()</text>
</a>
</g>
</g>
<!-- Node4&#45;&gt;Node3 -->
<g id="edge3" class="edge">
<title>Node4&#45;&gt;Node3</title>
<path fill="none" stroke="midnightblue" d="M102.35,-472.31C103.29,-462.8 104.21,-453.54 105.06,-444.93"/>
<polygon fill="none" stroke="midnightblue" points="98.86,-472 101.36,-482.29 105.83,-472.69 98.86,-472"/>
</g>
<!-- Node5 -->
<g id="node5" class="node">
<title>Node5</title>
<g id="a_node5"><a xlink:title=" ">
<polygon fill="white" stroke="#bfbfbf" points="46,-1012.5 46,-1069.5 128,-1069.5 128,-1012.5 46,-1012.5"/>
<text text-anchor="middle" x="87" y="-1057.5" font-family="Helvetica,sans-Serif" font-size="10.00">ServerSocketT</text>
<polyline fill="none" stroke="#bfbfbf" points="46,-1050.5 128,-1050.5 "/>
<text text-anchor="middle" x="87" y="-1038.5" font-family="Helvetica,sans-Serif" font-size="10.00"> </text>
<polyline fill="none" stroke="#bfbfbf" points="46,-1031.5 128,-1031.5 "/>
<text text-anchor="middle" x="87" y="-1019.5" font-family="Helvetica,sans-Serif" font-size="10.00"> </text>
</a>
</g>
</g>
<!-- Node5&#45;&gt;Node4 -->
<g id="edge4" class="edge">
<title>Node5&#45;&gt;Node4</title>
<path fill="none" stroke="midnightblue" d="M87.33,-1002.36C87.93,-935.21 89.19,-792.57 90.07,-693.77"/>
<polygon fill="none" stroke="midnightblue" points="83.83,-1002.44 87.24,-1012.47 90.83,-1002.5 83.83,-1002.44"/>
</g>
<!-- Node6 -->
<g id="node6" class="node">
<title>Node6</title>
<g id="a_node6"><a xlink:href="classcore_1_1socket_1_1stream_1_1_socket_server.html" target="_top" xlink:title=" ">
<polygon fill="white" stroke="black" points="103.5,-763.5 103.5,-974.5 276.5,-974.5 276.5,-763.5 103.5,-763.5"/>
<text text-anchor="start" x="111.5" y="-962.5" font-family="Helvetica,sans-Serif" font-size="10.00">core::socket::stream</text>
<text text-anchor="start" x="111.5" y="-951.5" font-family="Helvetica,sans-Serif" font-size="10.00">::SocketServer&lt; ServerSocket</text>
<text text-anchor="start" x="111.5" y="-940.5" font-family="Helvetica,sans-Serif" font-size="10.00">T, SocketAcceptorT, SocketContext</text>
<text text-anchor="middle" x="190" y="-929.5" font-family="Helvetica,sans-Serif" font-size="10.00">FactoryT &gt;</text>
<polyline fill="none" stroke="black" points="103.5,-922.5 276.5,-922.5 "/>
<text text-anchor="start" x="111.5" y="-910.5" font-family="Helvetica,sans-Serif" font-size="10.00"># socketContextFactory</text>
<text text-anchor="start" x="111.5" y="-899.5" font-family="Helvetica,sans-Serif" font-size="10.00"># _onConnect</text>
<text text-anchor="start" x="111.5" y="-888.5" font-family="Helvetica,sans-Serif" font-size="10.00"># _onConnected</text>
<text text-anchor="start" x="111.5" y="-877.5" font-family="Helvetica,sans-Serif" font-size="10.00"># _onDisconnect</text>
<text text-anchor="start" x="111.5" y="-866.5" font-family="Helvetica,sans-Serif" font-size="10.00"># options</text>
<polyline fill="none" stroke="black" points="103.5,-859.5 276.5,-859.5 "/>
<text text-anchor="start" x="111.5" y="-847.5" font-family="Helvetica,sans-Serif" font-size="10.00">+ SocketServer()</text>
<text text-anchor="start" x="111.5" y="-836.5" font-family="Helvetica,sans-Serif" font-size="10.00">+ ~SocketServer()</text>
<text text-anchor="start" x="111.5" y="-825.5" font-family="Helvetica,sans-Serif" font-size="10.00">+ listen()</text>
<text text-anchor="start" x="111.5" y="-814.5" font-family="Helvetica,sans-Serif" font-size="10.00">+ onConnect()</text>
<text text-anchor="start" x="111.5" y="-803.5" font-family="Helvetica,sans-Serif" font-size="10.00">+ onConnected()</text>
<text text-anchor="start" x="111.5" y="-792.5" font-family="Helvetica,sans-Serif" font-size="10.00">+ onDisconnect()</text>
<text text-anchor="start" x="111.5" y="-781.5" font-family="Helvetica,sans-Serif" font-size="10.00">+ getSocketContextFactory()</text>
<text text-anchor="start" x="111.5" y="-770.5" font-family="Helvetica,sans-Serif" font-size="10.00">&#45; SocketServer()</text>
</a>
</g>
</g>
<!-- Node5&#45;&gt;Node6 -->
<g id="edge6" class="edge">
<title>Node5&#45;&gt;Node6</title>
<path fill="none" stroke="midnightblue" d="M109.06,-1003.58C114.37,-994.83 120.3,-985.04 126.48,-974.84"/>
<polygon fill="none" stroke="midnightblue" points="105.97,-1001.94 103.78,-1012.31 111.95,-1005.57 105.97,-1001.94"/>
</g>
<!-- Node6&#45;&gt;Node4 -->
<g id="edge5" class="edge">
<title>Node6&#45;&gt;Node4</title>
<path fill="none" stroke="orange" d="M149.43,-753.66C142.4,-733.85 135.12,-713.34 128.19,-693.81"/>
<polygon fill="orange" stroke="orange" points="146.21,-755.06 152.85,-763.32 152.81,-752.72 146.21,-755.06"/>
<text text-anchor="start" x="144" y="-737" font-family="Helvetica,sans-Serif" font-size="10.00"> &lt; ServerSocketT, SocketAcceptor</text>
<text text-anchor="start" x="144" y="-726" font-family="Helvetica,sans-Serif" font-size="10.00">&lt; ServerSocketT::Socket &gt;,</text>
<text text-anchor="middle" x="220" y="-715" font-family="Helvetica,sans-Serif" font-size="10.00"> SocketContextFactoryT &gt;</text>
</g>
<!-- Node7 -->
<g id="node7" class="node">
<title>Node7</title>
<g id="a_node7"><a xlink:href="classweb_1_1http_1_1server_1_1_server.html" target="_top" xlink:title=" ">
<polygon fill="white" stroke="black" points="220,-349 220,-439 346,-439 346,-349 220,-349"/>
<text text-anchor="start" x="228" y="-427" font-family="Helvetica,sans-Serif" font-size="10.00">web::http::server::</text>
<text text-anchor="start" x="228" y="-416" font-family="Helvetica,sans-Serif" font-size="10.00">Server&lt; SocketServerT,</text>
<text text-anchor="middle" x="283" y="-405" font-family="Helvetica,sans-Serif" font-size="10.00"> RequestT, ResponseT &gt;</text>
<polyline fill="none" stroke="black" points="220,-398 346,-398 "/>
<text text-anchor="middle" x="283" y="-386" font-family="Helvetica,sans-Serif" font-size="10.00"> </text>
<polyline fill="none" stroke="black" points="220,-379 346,-379 "/>
<text text-anchor="start" x="228" y="-367" font-family="Helvetica,sans-Serif" font-size="10.00">+ Server()</text>
<text text-anchor="start" x="228" y="-356" font-family="Helvetica,sans-Serif" font-size="10.00">+ listen()</text>
</a>
</g>
</g>
<!-- Node7&#45;&gt;Node2 -->
<g id="edge7" class="edge">
<title>Node7&#45;&gt;Node2</title>
<path fill="none" stroke="orange" d="M256.77,-339.54C244.92,-315.38 230.93,-286.86 218.99,-262.52"/>
<polygon fill="orange" stroke="orange" points="253.66,-341.13 261.2,-348.57 259.94,-338.05 253.66,-341.13"/>
<text text-anchor="start" x="249" y="-317" font-family="Helvetica,sans-Serif" font-size="10.00"> &lt; net::in6::stream</text>
<text text-anchor="start" x="249" y="-306" font-family="Helvetica,sans-Serif" font-size="10.00">::legacy::SocketServer,</text>
<text text-anchor="start" x="249" y="-295" font-family="Helvetica,sans-Serif" font-size="10.00"> web::http::server::Request,</text>
<text text-anchor="middle" x="317" y="-284" font-family="Helvetica,sans-Serif" font-size="10.00"> web::http::server::Response &gt;</text>
</g>
<!-- Node8 -->
<g id="node8" class="node">
<title>Node8</title>
<g id="a_node8"><a xlink:title=" ">
<polygon fill="white" stroke="#bfbfbf" points="200,-548.5 200,-627.5 374,-627.5 374,-548.5 200,-548.5"/>
<text text-anchor="start" x="208" y="-615.5" font-family="Helvetica,sans-Serif" font-size="10.00">SocketServerT&lt; web</text>
<text text-anchor="start" x="208" y="-604.5" font-family="Helvetica,sans-Serif" font-size="10.00">::http::server::SocketContext</text>
<text text-anchor="middle" x="287" y="-593.5" font-family="Helvetica,sans-Serif" font-size="10.00">Factory&lt; RequestT, ResponseT &gt; &gt;</text>
<polyline fill="none" stroke="#bfbfbf" points="200,-586.5 374,-586.5 "/>
<text text-anchor="middle" x="287" y="-574.5" font-family="Helvetica,sans-Serif" font-size="10.00"> </text>
<polyline fill="none" stroke="#bfbfbf" points="200,-567.5 374,-567.5 "/>
<text text-anchor="middle" x="287" y="-555.5" font-family="Helvetica,sans-Serif" font-size="10.00"> </text>
</a>
</g>
</g>
<!-- Node8&#45;&gt;Node7 -->
<g id="edge8" class="edge">
<title>Node8&#45;&gt;Node7</title>
<path fill="none" stroke="midnightblue" d="M285.97,-537.76C285.34,-507.33 284.53,-468.61 283.92,-439.17"/>
<polygon fill="none" stroke="midnightblue" points="282.48,-538.22 286.19,-548.15 289.48,-538.08 282.48,-538.22"/>
</g>
</g>
</svg>
