<?xml version="1.0" encoding="UTF-8" standalone="no"?>
<!DOCTYPE svg PUBLIC "-//W3C//DTD SVG 1.1//EN"
 "http://www.w3.org/Graphics/SVG/1.1/DTD/svg11.dtd">
<!-- Generated by graphviz version 2.43.0 (0)
 -->
<!-- Title: net::un::stream::ServerSocket Pages: 1 -->
<svg width="184pt" height="343pt"
 viewBox="0.00 0.00 183.50 343.00" xmlns="http://www.w3.org/2000/svg" xmlns:xlink="http://www.w3.org/1999/xlink">
<g id="graph0" class="graph" transform="scale(1 1) rotate(0) translate(4 339)">
<title>net::un::stream::ServerSocket</title>
<polygon fill="white" stroke="transparent" points="-4,4 -4,-339 179.5,-339 179.5,4 -4,4"/>
<!-- Node1 -->
<g id="node1" class="node">
<title>Node1</title>
<g id="a_node1"><a xlink:title=" ">
<polygon fill="#bfbfbf" stroke="black" points="0,-0.5 0,-57.5 161,-57.5 161,-0.5 0,-0.5"/>
<text text-anchor="middle" x="80.5" y="-45.5" font-family="Helvetica,sans-Serif" font-size="10.00">net::un::stream::ServerSocket</text>
<polyline fill="none" stroke="black" points="0,-38.5 161,-38.5 "/>
<text text-anchor="middle" x="80.5" y="-26.5" font-family="Helvetica,sans-Serif" font-size="10.00"> </text>
<polyline fill="none" stroke="black" points="0,-19.5 161,-19.5 "/>
<text text-anchor="start" x="8" y="-7.5" font-family="Helvetica,sans-Serif" font-size="10.00">+ listen()</text>
</a>
</g>
</g>
<!-- Node2 -->
<g id="node2" class="node">
<title>Node2</title>
<g id="a_node2"><a xlink:href="classcore_1_1socket_1_1_server_socket.html" target="_top" xlink:title=" ">
<polygon fill="white" stroke="black" points="4.5,-95.5 4.5,-185.5 156.5,-185.5 156.5,-95.5 4.5,-95.5"/>
<text text-anchor="start" x="12.5" y="-173.5" font-family="Helvetica,sans-Serif" font-size="10.00">core::socket::ServerSocket</text>
<text text-anchor="middle" x="80.5" y="-162.5" font-family="Helvetica,sans-Serif" font-size="10.00">&lt; net::un::stream::Socket &gt;</text>
<polyline fill="none" stroke="black" points="4.5,-155.5 156.5,-155.5 "/>
<text text-anchor="middle" x="80.5" y="-143.5" font-family="Helvetica,sans-Serif" font-size="10.00"> </text>
<polyline fill="none" stroke="black" points="4.5,-136.5 156.5,-136.5 "/>
<text text-anchor="start" x="12.5" y="-124.5" font-family="Helvetica,sans-Serif" font-size="10.00"># ServerSocket()</text>
<text text-anchor="start" x="12.5" y="-113.5" font-family="Helvetica,sans-Serif" font-size="10.00"># listen()</text>
<text text-anchor="start" x="12.5" y="-102.5" font-family="Helvetica,sans-Serif" font-size="10.00"># listen()</text>
</a>
</g>
</g>
<!-- Node2&#45;&gt;Node1 -->
<g id="edge1" class="edge">
<title>Node2&#45;&gt;Node1</title>
<path fill="none" stroke="midnightblue" d="M80.5,-85.04C80.5,-75.56 80.5,-66.06 80.5,-57.69"/>
<polygon fill="none" stroke="midnightblue" points="77,-85.28 80.5,-95.28 84,-85.28 77,-85.28"/>
</g>
<!-- Node3 -->
<g id="node3" class="node">
<title>Node3</title>
<g id="a_node3"><a xlink:href="classcore_1_1socket_1_1_server_socket.html" target="_top" xlink:title=" ">
<polygon fill="white" stroke="black" points="8,-244.5 8,-334.5 153,-334.5 153,-244.5 8,-244.5"/>
<text text-anchor="start" x="16" y="-322.5" font-family="Helvetica,sans-Serif" font-size="10.00">core::socket::ServerSocket</text>
<text text-anchor="middle" x="80.5" y="-311.5" font-family="Helvetica,sans-Serif" font-size="10.00">&lt; SocketT &gt;</text>
<polyline fill="none" stroke="black" points="8,-304.5 153,-304.5 "/>
<text text-anchor="middle" x="80.5" y="-292.5" font-family="Helvetica,sans-Serif" font-size="10.00"> </text>
<polyline fill="none" stroke="black" points="8,-285.5 153,-285.5 "/>
<text text-anchor="start" x="16" y="-273.5" font-family="Helvetica,sans-Serif" font-size="10.00"># ServerSocket()</text>
<text text-anchor="start" x="16" y="-262.5" font-family="Helvetica,sans-Serif" font-size="10.00"># listen()</text>
<text text-anchor="start" x="16" y="-251.5" font-family="Helvetica,sans-Serif" font-size="10.00"># listen()</text>
</a>
</g>
</g>
<!-- Node3&#45;&gt;Node2 -->
<g id="edge2" class="edge">
<title>Node3&#45;&gt;Node2</title>
<path fill="none" stroke="orange" d="M80.5,-234.11C80.5,-218.12 80.5,-200.83 80.5,-185.57"/>
<polygon fill="orange" stroke="orange" points="77,-234.4 80.5,-244.4 84,-234.4 77,-234.4"/>
<text text-anchor="start" x="80.5" y="-218" font-family="Helvetica,sans-Serif" font-size="10.00"> &lt; net::un::stream::</text>
<text text-anchor="middle" x="128" y="-207" font-family="Helvetica,sans-Serif" font-size="10.00">Socket &gt;</text>
</g>
</g>
</svg>
