<?xml version="1.0" encoding="UTF-8" standalone="no"?>
<!DOCTYPE svg PUBLIC "-//W3C//DTD SVG 1.1//EN"
 "http://www.w3.org/Graphics/SVG/1.1/DTD/svg11.dtd">
<!-- Generated by graphviz version 2.43.0 (0)
 -->
<!-- Title: express::WebApp::start Pages: 1 -->
<svg width="1710pt" height="730pt"
 viewBox="0.00 0.00 1710.00 729.50" xmlns="http://www.w3.org/2000/svg" xmlns:xlink="http://www.w3.org/1999/xlink">
<g id="graph0" class="graph" transform="scale(1 1) rotate(0) translate(4 725.5)">
<title>express::WebApp::start</title>
<polygon fill="white" stroke="transparent" points="-4,4 -4,-725.5 1706,-725.5 1706,4 -4,4"/>
<!-- Node1 -->
<g id="node1" class="node">
<title>Node1</title>
<g id="a_node1"><a xlink:title=" ">
<polygon fill="#bfbfbf" stroke="black" points="0,-95.5 0,-114.5 130,-114.5 130,-95.5 0,-95.5"/>
<text text-anchor="middle" x="65" y="-102.5" font-family="Helvetica,sans-Serif" font-size="10.00">express::WebApp::start</text>
</a>
</g>
</g>
<!-- Node2 -->
<g id="node2" class="node">
<title>Node2</title>
<g id="a_node2"><a xlink:href="classcore_1_1_s_node_c.html#ac3d0dcb6c216ae72d9bbb77fe080e461" target="_top" xlink:title=" ">
<polygon fill="white" stroke="black" points="166,-95.5 166,-114.5 276,-114.5 276,-95.5 166,-95.5"/>
<text text-anchor="middle" x="221" y="-102.5" font-family="Helvetica,sans-Serif" font-size="10.00">core::SNodeC::start</text>
</a>
</g>
</g>
<!-- Node1&#45;&gt;Node2 -->
<g id="edge1" class="edge">
<title>Node1&#45;&gt;Node2</title>
<path fill="none" stroke="midnightblue" d="M130.42,-105C138.74,-105 147.26,-105 155.58,-105"/>
<polygon fill="midnightblue" stroke="midnightblue" points="155.6,-108.5 165.6,-105 155.6,-101.5 155.6,-108.5"/>
</g>
<!-- Node3 -->
<g id="node3" class="node">
<title>Node3</title>
<g id="a_node3"><a xlink:href="classcore_1_1_event_loop.html#aaa2c3856fed808d00542d573c2b3a737" target="_top" xlink:title=" ">
<polygon fill="white" stroke="black" points="312,-95.5 312,-114.5 435,-114.5 435,-95.5 312,-95.5"/>
<text text-anchor="middle" x="373.5" y="-102.5" font-family="Helvetica,sans-Serif" font-size="10.00">core::EventLoop::start</text>
</a>
</g>
</g>
<!-- Node2&#45;&gt;Node3 -->
<g id="edge2" class="edge">
<title>Node2&#45;&gt;Node3</title>
<path fill="none" stroke="midnightblue" d="M276.33,-105C284.62,-105 293.28,-105 301.86,-105"/>
<polygon fill="midnightblue" stroke="midnightblue" points="301.87,-108.5 311.87,-105 301.87,-101.5 301.87,-108.5"/>
</g>
<!-- Node4 -->
<g id="node4" class="node">
<title>Node4</title>
<g id="a_node4"><a xlink:href="classcore_1_1_event_loop.html#a3ce638b4895c765df8e60a804be90339" target="_top" xlink:title=" ">
<polygon fill="white" stroke="black" points="664,-278.5 664,-297.5 788,-297.5 788,-278.5 664,-278.5"/>
<text text-anchor="middle" x="726" y="-285.5" font-family="Helvetica,sans-Serif" font-size="10.00">core::EventLoop::_tick</text>
</a>
</g>
</g>
<!-- Node3&#45;&gt;Node4 -->
<g id="edge3" class="edge">
<title>Node3&#45;&gt;Node4</title>
<path fill="none" stroke="midnightblue" d="M381.97,-114.7C396.96,-133.56 432.56,-175.46 471,-200 532.35,-239.16 613.21,-263.27 667.05,-276.13"/>
<polygon fill="midnightblue" stroke="midnightblue" points="666.57,-279.61 677.11,-278.47 668.16,-272.79 666.57,-279.61"/>
</g>
<!-- Node25 -->
<g id="node25" class="node">
<title>Node25</title>
<g id="a_node25"><a xlink:href="classcore_1_1_event_loop.html#a3125b6361565df4753affc73eb83984a" target="_top" xlink:title=" ">
<polygon fill="white" stroke="black" points="485,-171.5 485,-190.5 605,-190.5 605,-171.5 485,-171.5"/>
<text text-anchor="middle" x="545" y="-178.5" font-family="Helvetica,sans-Serif" font-size="10.00">core::EventLoop::free</text>
</a>
</g>
</g>
<!-- Node3&#45;&gt;Node25 -->
<g id="edge25" class="edge">
<title>Node3&#45;&gt;Node25</title>
<path fill="none" stroke="midnightblue" d="M395.97,-114.63C425.64,-127.93 479.37,-152.02 513.28,-167.23"/>
<polygon fill="midnightblue" stroke="midnightblue" points="512.15,-170.55 522.71,-171.45 515.01,-164.17 512.15,-170.55"/>
</g>
<!-- Node27 -->
<g id="node27" class="node">
<title>Node27</title>
<g id="a_node27"><a xlink:href="classcore_1_1_event_loop.html#a413d227511f68c2c9939719bd2590794" target="_top" xlink:title=" ">
<polygon fill="white" stroke="black" points="655,-114.5 655,-133.5 797,-133.5 797,-114.5 655,-114.5"/>
<text text-anchor="middle" x="726" y="-121.5" font-family="Helvetica,sans-Serif" font-size="10.00">core::EventLoop::instance</text>
</a>
</g>
</g>
<!-- Node3&#45;&gt;Node27 -->
<g id="edge39" class="edge">
<title>Node3&#45;&gt;Node27</title>
<path fill="none" stroke="midnightblue" d="M435.15,-108.29C493.18,-111.43 581.05,-116.2 644.83,-119.65"/>
<polygon fill="midnightblue" stroke="midnightblue" points="644.68,-123.15 654.85,-120.2 645.06,-116.16 644.68,-123.15"/>
</g>
<!-- Node34 -->
<g id="node34" class="node">
<title>Node34</title>
<g id="a_node34"><a xlink:href="classutils_1_1_config.html#a7d0c9ae6a3cddcc37b6d47705b1503d2" target="_top" xlink:title=" ">
<polygon fill="white" stroke="black" points="485.5,-76.5 485.5,-95.5 604.5,-95.5 604.5,-76.5 485.5,-76.5"/>
<text text-anchor="middle" x="545" y="-83.5" font-family="Helvetica,sans-Serif" font-size="10.00">utils::Config::prepare</text>
</a>
</g>
</g>
<!-- Node3&#45;&gt;Node34 -->
<g id="edge40" class="edge">
<title>Node3&#45;&gt;Node34</title>
<path fill="none" stroke="midnightblue" d="M435.21,-98.19C448.23,-96.73 462.08,-95.18 475.37,-93.69"/>
<polygon fill="midnightblue" stroke="midnightblue" points="475.86,-97.16 485.41,-92.57 475.08,-90.2 475.86,-97.16"/>
</g>
<!-- Node38 -->
<g id="node38" class="node">
<title>Node38</title>
<g id="a_node38"><a xlink:href="namespacecore_1_1system.html#a0e5e3b39e66ee4db8b9bb6065e693d0a" target="_top" xlink:title=" ">
<polygon fill="white" stroke="black" points="487.5,-38.5 487.5,-57.5 602.5,-57.5 602.5,-38.5 487.5,-38.5"/>
<text text-anchor="middle" x="545" y="-45.5" font-family="Helvetica,sans-Serif" font-size="10.00">core::system::signal</text>
</a>
</g>
</g>
<!-- Node3&#45;&gt;Node38 -->
<g id="edge44" class="edge">
<title>Node3&#45;&gt;Node38</title>
<path fill="none" stroke="midnightblue" d="M396.45,-95.48C415.84,-87.28 444.98,-75.48 471,-67 478.35,-64.6 486.2,-62.3 493.92,-60.18"/>
<polygon fill="midnightblue" stroke="midnightblue" points="494.83,-63.56 503.59,-57.59 493.02,-56.8 494.83,-63.56"/>
</g>
<!-- Node39 -->
<g id="node39" class="node">
<title>Node39</title>
<g id="a_node39"><a xlink:href="classcore_1_1_event_loop.html#a96a2e40259e00e7560dc8dde4d85131f" target="_top" xlink:title=" ">
<polygon fill="white" stroke="black" points="471,-0.5 471,-19.5 619,-19.5 619,-0.5 471,-0.5"/>
<text text-anchor="middle" x="545" y="-7.5" font-family="Helvetica,sans-Serif" font-size="10.00">core::EventLoop::stoponsig</text>
</a>
</g>
</g>
<!-- Node3&#45;&gt;Node39 -->
<g id="edge45" class="edge">
<title>Node3&#45;&gt;Node39</title>
<path fill="none" stroke="midnightblue" d="M383.97,-95.28C400.25,-79.11 435.28,-46.74 471,-29 475.84,-26.6 481.01,-24.48 486.29,-22.61"/>
<polygon fill="midnightblue" stroke="midnightblue" points="487.41,-25.92 495.85,-19.51 485.26,-19.26 487.41,-25.92"/>
</g>
<!-- Node5 -->
<g id="node5" class="node">
<title>Node5</title>
<g id="a_node5"><a xlink:href="classcore_1_1_event_multiplexer.html#a31ffc5108d12ad959b94dffcaccc2649" target="_top" xlink:title=" ">
<polygon fill="white" stroke="black" points="844,-466 844,-496 971,-496 971,-466 844,-466"/>
<text text-anchor="start" x="852" y="-484" font-family="Helvetica,sans-Serif" font-size="10.00">core::EventMultiplexer</text>
<text text-anchor="middle" x="907.5" y="-473" font-family="Helvetica,sans-Serif" font-size="10.00">::tick</text>
</a>
</g>
</g>
<!-- Node4&#45;&gt;Node5 -->
<g id="edge4" class="edge">
<title>Node4&#45;&gt;Node5</title>
<path fill="none" stroke="midnightblue" d="M735.9,-297.57C763.15,-326.87 845.95,-415.9 885.3,-458.2"/>
<polygon fill="midnightblue" stroke="midnightblue" points="882.97,-460.83 892.34,-465.77 888.09,-456.07 882.97,-460.83"/>
</g>
<!-- Node6 -->
<g id="node6" class="node">
<title>Node6</title>
<g id="a_node6"><a xlink:href="classcore_1_1_event_multiplexer.html#a21830006341a0137542d35ba0c57295a" target="_top" xlink:title=" ">
<polygon fill="white" stroke="black" points="1044.5,-319 1044.5,-349 1175.5,-349 1175.5,-319 1044.5,-319"/>
<text text-anchor="start" x="1052.5" y="-337" font-family="Helvetica,sans-Serif" font-size="10.00">core::EventMultiplexer</text>
<text text-anchor="middle" x="1110" y="-326" font-family="Helvetica,sans-Serif" font-size="10.00">::checkTimedOutEvents</text>
</a>
</g>
</g>
<!-- Node5&#45;&gt;Node6 -->
<g id="edge5" class="edge">
<title>Node5&#45;&gt;Node6</title>
<path fill="none" stroke="midnightblue" d="M917.94,-465.7C934.77,-439.74 972.49,-387.14 1018,-359 1023.3,-355.72 1029.04,-352.86 1034.97,-350.38"/>
<polygon fill="midnightblue" stroke="midnightblue" points="1036.32,-353.61 1044.4,-346.76 1033.81,-347.07 1036.32,-353.61"/>
</g>
<!-- Node7 -->
<g id="node7" class="node">
<title>Node7</title>
<g id="a_node7"><a xlink:href="classutils_1_1_timeval.html#a54b232dc1ffeea007100dcd1caad1987" target="_top" xlink:title=" ">
<polygon fill="white" stroke="black" points="1036.5,-652.5 1036.5,-671.5 1183.5,-671.5 1183.5,-652.5 1036.5,-652.5"/>
<text text-anchor="middle" x="1110" y="-659.5" font-family="Helvetica,sans-Serif" font-size="10.00">utils::Timeval::currentTime</text>
</a>
</g>
</g>
<!-- Node5&#45;&gt;Node7 -->
<g id="edge6" class="edge">
<title>Node5&#45;&gt;Node7</title>
<path fill="none" stroke="midnightblue" d="M914.22,-496.41C927.21,-529.12 962.19,-605.54 1018,-643 1020.97,-644.99 1024.11,-646.79 1027.37,-648.39"/>
<polygon fill="midnightblue" stroke="midnightblue" points="1026.24,-651.72 1036.81,-652.46 1029.01,-645.29 1026.24,-651.72"/>
</g>
<!-- Node9 -->
<g id="node9" class="node">
<title>Node9</title>
<g id="a_node9"><a xlink:href="classcore_1_1_timer_event_publisher.html#a05883e2317e3c244387b654916f480e0" target="_top" xlink:title=" ">
<polygon fill="white" stroke="black" points="1038,-691 1038,-721 1182,-721 1182,-691 1038,-691"/>
<text text-anchor="start" x="1046" y="-709" font-family="Helvetica,sans-Serif" font-size="10.00">core::TimerEventPublisher</text>
<text text-anchor="middle" x="1110" y="-698" font-family="Helvetica,sans-Serif" font-size="10.00">::empty</text>
</a>
</g>
</g>
<!-- Node5&#45;&gt;Node9 -->
<g id="edge8" class="edge">
<title>Node5&#45;&gt;Node9</title>
<path fill="none" stroke="midnightblue" d="M912.38,-496.2C922.73,-533.65 954.65,-630.92 1018,-681 1021.33,-683.63 1024.91,-685.98 1028.66,-688.09"/>
<polygon fill="midnightblue" stroke="midnightblue" points="1027.18,-691.26 1037.69,-692.57 1030.29,-684.99 1027.18,-691.26"/>
</g>
<!-- Node10 -->
<g id="node10" class="node">
<title>Node10</title>
<g id="a_node10"><a xlink:href="classcore_1_1_event_multiplexer_1_1_event_queue.html#a05ecc5808b60fde7388876e96b540f29" target="_top" xlink:title=" ">
<polygon fill="white" stroke="black" points="1250.5,-556 1250.5,-586 1377.5,-586 1377.5,-556 1250.5,-556"/>
<text text-anchor="start" x="1258.5" y="-574" font-family="Helvetica,sans-Serif" font-size="10.00">core::EventMultiplexer</text>
<text text-anchor="middle" x="1314" y="-563" font-family="Helvetica,sans-Serif" font-size="10.00">::EventQueue::empty</text>
</a>
</g>
</g>
<!-- Node5&#45;&gt;Node10 -->
<g id="edge9" class="edge">
<title>Node5&#45;&gt;Node10</title>
<path fill="none" stroke="midnightblue" d="M924.75,-496.24C944.87,-514.02 981.03,-542.57 1018,-555 1090.73,-579.44 1179.19,-580.78 1240.17,-577.67"/>
<polygon fill="midnightblue" stroke="midnightblue" points="1240.68,-581.15 1250.47,-577.09 1240.29,-574.16 1240.68,-581.15"/>
</g>
<!-- Node11 -->
<g id="node11" class="node">
<title>Node11</title>
<g id="a_node11"><a xlink:href="classcore_1_1_event_multiplexer.html#af3e7b68817fc910c020a9981b2e58c61" target="_top" xlink:title=" ">
<polygon fill="white" stroke="black" points="1046.5,-231 1046.5,-261 1173.5,-261 1173.5,-231 1046.5,-231"/>
<text text-anchor="start" x="1054.5" y="-249" font-family="Helvetica,sans-Serif" font-size="10.00">core::EventMultiplexer</text>
<text text-anchor="middle" x="1110" y="-238" font-family="Helvetica,sans-Serif" font-size="10.00">::executeEventQueue</text>
</a>
</g>
</g>
<!-- Node5&#45;&gt;Node11 -->
<g id="edge10" class="edge">
<title>Node5&#45;&gt;Node11</title>
<path fill="none" stroke="midnightblue" d="M915.61,-465.93C931.02,-434.38 969.97,-360.16 1018,-310 1034.04,-293.25 1055.05,-278.13 1072.84,-266.8"/>
<polygon fill="midnightblue" stroke="midnightblue" points="1075.16,-269.48 1081.81,-261.23 1071.47,-263.54 1075.16,-269.48"/>
</g>
<!-- Node18 -->
<g id="node18" class="node">
<title>Node18</title>
<g id="a_node18"><a xlink:href="classcore_1_1_event_multiplexer.html#a1747151aa22c4bcbdb9b67c11d0fd403" target="_top" xlink:title=" ">
<polygon fill="white" stroke="black" points="1046.5,-603 1046.5,-633 1173.5,-633 1173.5,-603 1046.5,-603"/>
<text text-anchor="start" x="1054.5" y="-621" font-family="Helvetica,sans-Serif" font-size="10.00">core::EventMultiplexer</text>
<text text-anchor="middle" x="1110" y="-610" font-family="Helvetica,sans-Serif" font-size="10.00">::getNextTimeout</text>
</a>
</g>
</g>
<!-- Node5&#45;&gt;Node18 -->
<g id="edge17" class="edge">
<title>Node5&#45;&gt;Node18</title>
<path fill="none" stroke="midnightblue" d="M920.3,-496.35C938.76,-519.39 976.66,-562.87 1018,-588 1024.97,-592.24 1032.62,-595.95 1040.41,-599.19"/>
<polygon fill="midnightblue" stroke="midnightblue" points="1039.38,-602.55 1049.97,-602.91 1041.92,-596.02 1039.38,-602.55"/>
</g>
<!-- Node20 -->
<g id="node20" class="node">
<title>Node20</title>
<g id="a_node20"><a xlink:href="classcore_1_1_event_multiplexer.html#a06c3f9f6da45e6cfbe8da52792c25596" target="_top" xlink:title=" ">
<polygon fill="white" stroke="black" points="1018,-466 1018,-496 1202,-496 1202,-466 1018,-466"/>
<text text-anchor="start" x="1026" y="-484" font-family="Helvetica,sans-Serif" font-size="10.00">core::EventMultiplexer</text>
<text text-anchor="middle" x="1110" y="-473" font-family="Helvetica,sans-Serif" font-size="10.00">::getObservedEventReceiverCount</text>
</a>
</g>
</g>
<!-- Node5&#45;&gt;Node20 -->
<g id="edge20" class="edge">
<title>Node5&#45;&gt;Node20</title>
<path fill="none" stroke="midnightblue" d="M971.11,-481C982.81,-481 995.31,-481 1007.82,-481"/>
<polygon fill="midnightblue" stroke="midnightblue" points="1007.85,-484.5 1017.85,-481 1007.85,-477.5 1007.85,-484.5"/>
</g>
<!-- Node21 -->
<g id="node21" class="node">
<title>Node21</title>
<g id="a_node21"><a xlink:href="classcore_1_1_event_multiplexer.html#a994b5247211617b78b84e3ada902780a" target="_top" xlink:title=" ">
<polygon fill="white" stroke="black" points="1046.5,-417 1046.5,-447 1173.5,-447 1173.5,-417 1046.5,-417"/>
<text text-anchor="start" x="1054.5" y="-435" font-family="Helvetica,sans-Serif" font-size="10.00">core::EventMultiplexer</text>
<text text-anchor="middle" x="1110" y="-424" font-family="Helvetica,sans-Serif" font-size="10.00">::multiplex</text>
</a>
</g>
</g>
<!-- Node5&#45;&gt;Node21 -->
<g id="edge21" class="edge">
<title>Node5&#45;&gt;Node21</title>
<path fill="none" stroke="midnightblue" d="M970.02,-465.97C991.38,-460.74 1015.52,-454.85 1037.61,-449.45"/>
<polygon fill="midnightblue" stroke="midnightblue" points="1038.71,-452.78 1047.6,-447.01 1037.05,-445.98 1038.71,-452.78"/>
</g>
<!-- Node22 -->
<g id="node22" class="node">
<title>Node22</title>
<g id="a_node22"><a xlink:href="classcore_1_1_event_multiplexer.html#ac5f178c267e5456514d28244ac25dd0c" target="_top" xlink:title=" ">
<polygon fill="white" stroke="black" points="1046.5,-368 1046.5,-398 1173.5,-398 1173.5,-368 1046.5,-368"/>
<text text-anchor="start" x="1054.5" y="-386" font-family="Helvetica,sans-Serif" font-size="10.00">core::EventMultiplexer</text>
<text text-anchor="middle" x="1110" y="-375" font-family="Helvetica,sans-Serif" font-size="10.00">::publishActiveEvents</text>
</a>
</g>
</g>
<!-- Node5&#45;&gt;Node22 -->
<g id="edge22" class="edge">
<title>Node5&#45;&gt;Node22</title>
<path fill="none" stroke="midnightblue" d="M927.17,-465.82C948.13,-449.45 983.7,-423.65 1018,-408 1024.01,-405.26 1030.38,-402.76 1036.86,-400.5"/>
<polygon fill="midnightblue" stroke="midnightblue" points="1037.98,-403.81 1046.38,-397.35 1035.79,-397.16 1037.98,-403.81"/>
</g>
<!-- Node23 -->
<g id="node23" class="node">
<title>Node23</title>
<g id="a_node23"><a xlink:href="classcore_1_1_event_multiplexer.html#ae0818d2d77e21c6a56223a961e9864f8" target="_top" xlink:title=" ">
<polygon fill="white" stroke="black" points="1035.5,-515 1035.5,-545 1184.5,-545 1184.5,-515 1035.5,-515"/>
<text text-anchor="start" x="1043.5" y="-533" font-family="Helvetica,sans-Serif" font-size="10.00">core::EventMultiplexer</text>
<text text-anchor="middle" x="1110" y="-522" font-family="Helvetica,sans-Serif" font-size="10.00">::unobserveDisabledEvents</text>
</a>
</g>
</g>
<!-- Node5&#45;&gt;Node23 -->
<g id="edge23" class="edge">
<title>Node5&#45;&gt;Node23</title>
<path fill="none" stroke="midnightblue" d="M970.02,-496.03C991.38,-501.26 1015.52,-507.15 1037.61,-512.55"/>
<polygon fill="midnightblue" stroke="midnightblue" points="1037.05,-516.02 1047.6,-514.99 1038.71,-509.22 1037.05,-516.02"/>
</g>
<!-- Node8 -->
<g id="node8" class="node">
<title>Node8</title>
<g id="a_node8"><a xlink:href="namespacecore_1_1system.html#acf9e7364dbf51f07083e05caa50d3b66" target="_top" xlink:title=" ">
<polygon fill="white" stroke="black" points="1238,-654.5 1238,-673.5 1390,-673.5 1390,-654.5 1238,-654.5"/>
<text text-anchor="middle" x="1314" y="-661.5" font-family="Helvetica,sans-Serif" font-size="10.00">core::system::gettimeofday</text>
</a>
</g>
</g>
<!-- Node7&#45;&gt;Node8 -->
<g id="edge7" class="edge">
<title>Node7&#45;&gt;Node8</title>
<path fill="none" stroke="midnightblue" d="M1183.64,-662.72C1197.98,-662.86 1213.14,-663.01 1227.85,-663.16"/>
<polygon fill="midnightblue" stroke="midnightblue" points="1227.91,-666.66 1237.94,-663.26 1227.98,-659.66 1227.91,-666.66"/>
</g>
<!-- Node12 -->
<g id="node12" class="node">
<title>Node12</title>
<g id="a_node12"><a xlink:href="classcore_1_1_dynamic_loader.html#a8c4d850882c7177f93a543b96eb450a0" target="_top" xlink:title=" ">
<polygon fill="white" stroke="black" points="1252,-180 1252,-210 1376,-210 1376,-180 1252,-180"/>
<text text-anchor="start" x="1260" y="-198" font-family="Helvetica,sans-Serif" font-size="10.00">core::DynamicLoader</text>
<text text-anchor="middle" x="1314" y="-187" font-family="Helvetica,sans-Serif" font-size="10.00">::execDlCloseDeleyed</text>
</a>
</g>
</g>
<!-- Node11&#45;&gt;Node12 -->
<g id="edge11" class="edge">
<title>Node11&#45;&gt;Node12</title>
<path fill="none" stroke="midnightblue" d="M1170.51,-230.97C1193.43,-225.19 1219.78,-218.53 1243.55,-212.53"/>
<polygon fill="midnightblue" stroke="midnightblue" points="1244.72,-215.85 1253.56,-210.01 1243.01,-209.06 1244.72,-215.85"/>
</g>
<!-- Node17 -->
<g id="node17" class="node">
<title>Node17</title>
<g id="a_node17"><a xlink:href="classcore_1_1_event_multiplexer_1_1_event_queue.html#af3c487910b6de3faae228b92ecedb06a" target="_top" xlink:title=" ">
<polygon fill="white" stroke="black" points="1250.5,-231 1250.5,-261 1377.5,-261 1377.5,-231 1250.5,-231"/>
<text text-anchor="start" x="1258.5" y="-249" font-family="Helvetica,sans-Serif" font-size="10.00">core::EventMultiplexer</text>
<text text-anchor="middle" x="1314" y="-238" font-family="Helvetica,sans-Serif" font-size="10.00">::EventQueue::execute</text>
</a>
</g>
</g>
<!-- Node11&#45;&gt;Node17 -->
<g id="edge16" class="edge">
<title>Node11&#45;&gt;Node17</title>
<path fill="none" stroke="midnightblue" d="M1173.53,-246C1194.64,-246 1218.38,-246 1240.21,-246"/>
<polygon fill="midnightblue" stroke="midnightblue" points="1240.42,-249.5 1250.42,-246 1240.42,-242.5 1240.42,-249.5"/>
</g>
<!-- Node13 -->
<g id="node13" class="node">
<title>Node13</title>
<g id="a_node13"><a xlink:href="classcore_1_1_dynamic_loader.html#a28d14f3029339351d8bb8b328a6110b0" target="_top" xlink:title=" ">
<polygon fill="white" stroke="black" points="1426,-114 1426,-144 1546,-144 1546,-114 1426,-114"/>
<text text-anchor="start" x="1434" y="-132" font-family="Helvetica,sans-Serif" font-size="10.00">core::DynamicLoader</text>
<text text-anchor="middle" x="1486" y="-121" font-family="Helvetica,sans-Serif" font-size="10.00">::dlError</text>
</a>
</g>
</g>
<!-- Node12&#45;&gt;Node13 -->
<g id="edge12" class="edge">
<title>Node12&#45;&gt;Node13</title>
<path fill="none" stroke="midnightblue" d="M1354,-179.86C1378.62,-170.3 1410.61,-157.88 1436.81,-147.71"/>
<polygon fill="midnightblue" stroke="midnightblue" points="1438.12,-150.95 1446.18,-144.07 1435.59,-144.43 1438.12,-150.95"/>
</g>
<!-- Node15 -->
<g id="node15" class="node">
<title>Node15</title>
<g id="a_node15"><a xlink:href="classcore_1_1_dynamic_loader.html#afea22388177ead6ebd12f9ef041e6d2b" target="_top" xlink:title=" ">
<polygon fill="white" stroke="black" points="1426,-171 1426,-201 1546,-201 1546,-171 1426,-171"/>
<text text-anchor="start" x="1434" y="-189" font-family="Helvetica,sans-Serif" font-size="10.00">core::DynamicLoader</text>
<text text-anchor="middle" x="1486" y="-178" font-family="Helvetica,sans-Serif" font-size="10.00">::execDlClose</text>
</a>
</g>
</g>
<!-- Node12&#45;&gt;Node15 -->
<g id="edge14" class="edge">
<title>Node12&#45;&gt;Node15</title>
<path fill="none" stroke="midnightblue" d="M1376.37,-191.75C1389.13,-191.08 1402.66,-190.36 1415.68,-189.67"/>
<polygon fill="midnightblue" stroke="midnightblue" points="1416.19,-193.15 1425.99,-189.12 1415.82,-186.16 1416.19,-193.15"/>
</g>
<!-- Node14 -->
<g id="node14" class="node">
<title>Node14</title>
<g id="a_node14"><a xlink:href="namespacecore_1_1system.html#a0778aa080f796964218bcd02804a2b17" target="_top" xlink:title=" ">
<polygon fill="white" stroke="black" points="1583,-119.5 1583,-138.5 1701,-138.5 1701,-119.5 1583,-119.5"/>
<text text-anchor="middle" x="1642" y="-126.5" font-family="Helvetica,sans-Serif" font-size="10.00">core::system::dlerror</text>
</a>
</g>
</g>
<!-- Node13&#45;&gt;Node14 -->
<g id="edge13" class="edge">
<title>Node13&#45;&gt;Node14</title>
<path fill="none" stroke="midnightblue" d="M1546.1,-129C1554.76,-129 1563.73,-129 1572.56,-129"/>
<polygon fill="midnightblue" stroke="midnightblue" points="1572.82,-132.5 1582.82,-129 1572.82,-125.5 1572.82,-132.5"/>
</g>
<!-- Node16 -->
<g id="node16" class="node">
<title>Node16</title>
<g id="a_node16"><a xlink:href="namespacecore_1_1system.html#a4317d54914cd18248143183ea71252d3" target="_top" xlink:title=" ">
<polygon fill="white" stroke="black" points="1582,-176.5 1582,-195.5 1702,-195.5 1702,-176.5 1582,-176.5"/>
<text text-anchor="middle" x="1642" y="-183.5" font-family="Helvetica,sans-Serif" font-size="10.00">core::system::dlclose</text>
</a>
</g>
</g>
<!-- Node15&#45;&gt;Node16 -->
<g id="edge15" class="edge">
<title>Node15&#45;&gt;Node16</title>
<path fill="none" stroke="midnightblue" d="M1546.1,-186C1554.42,-186 1563.04,-186 1571.53,-186"/>
<polygon fill="midnightblue" stroke="midnightblue" points="1571.8,-189.5 1581.8,-186 1571.8,-182.5 1571.8,-189.5"/>
</g>
<!-- Node18&#45;&gt;Node10 -->
<g id="edge18" class="edge">
<title>Node18&#45;&gt;Node10</title>
<path fill="none" stroke="midnightblue" d="M1173.53,-603.45C1194.73,-598.52 1218.59,-592.97 1240.5,-587.87"/>
<polygon fill="midnightblue" stroke="midnightblue" points="1241.47,-591.24 1250.42,-585.56 1239.88,-584.42 1241.47,-591.24"/>
</g>
<!-- Node19 -->
<g id="node19" class="node">
<title>Node19</title>
<g id="a_node19"><a xlink:href="classcore_1_1_timer_event_publisher.html#a498ad26f0eb68bacc274e81d5c29f027" target="_top" xlink:title=" ">
<polygon fill="white" stroke="black" points="1242,-605 1242,-635 1386,-635 1386,-605 1242,-605"/>
<text text-anchor="start" x="1250" y="-623" font-family="Helvetica,sans-Serif" font-size="10.00">core::TimerEventPublisher</text>
<text text-anchor="middle" x="1314" y="-612" font-family="Helvetica,sans-Serif" font-size="10.00">::getNextTimeout</text>
</a>
</g>
</g>
<!-- Node18&#45;&gt;Node19 -->
<g id="edge19" class="edge">
<title>Node18&#45;&gt;Node19</title>
<path fill="none" stroke="midnightblue" d="M1173.53,-618.62C1191.98,-618.8 1212.45,-619 1231.89,-619.2"/>
<polygon fill="midnightblue" stroke="midnightblue" points="1231.91,-622.7 1241.95,-619.3 1231.98,-615.7 1231.91,-622.7"/>
</g>
<!-- Node24 -->
<g id="node24" class="node">
<title>Node24</title>
<g id="a_node24"><a xlink:href="classcore_1_1_timer_event_publisher.html#a7064625a77fa629ae729f73b839e4264" target="_top" xlink:title=" ">
<polygon fill="white" stroke="black" points="1242,-395 1242,-425 1386,-425 1386,-395 1242,-395"/>
<text text-anchor="start" x="1250" y="-413" font-family="Helvetica,sans-Serif" font-size="10.00">core::TimerEventPublisher</text>
<text text-anchor="middle" x="1314" y="-402" font-family="Helvetica,sans-Serif" font-size="10.00">::unobserveDisableEvents</text>
</a>
</g>
</g>
<!-- Node23&#45;&gt;Node24 -->
<g id="edge24" class="edge">
<title>Node23&#45;&gt;Node24</title>
<path fill="none" stroke="midnightblue" d="M1181.3,-514.96C1188.47,-512.4 1195.5,-509.43 1202,-506 1237.92,-487.05 1272.15,-454.47 1292.86,-432.59"/>
<polygon fill="midnightblue" stroke="midnightblue" points="1295.62,-434.76 1299.86,-425.05 1290.49,-430 1295.62,-434.76"/>
</g>
<!-- Node25&#45;&gt;Node4 -->
<g id="edge26" class="edge">
<title>Node25&#45;&gt;Node4</title>
<path fill="none" stroke="midnightblue" d="M558.21,-190.56C572.76,-201.99 597.78,-221.73 619,-239 635.15,-252.15 636.53,-259.38 655,-269 659.49,-271.34 664.3,-273.41 669.22,-275.24"/>
<polygon fill="midnightblue" stroke="midnightblue" points="668.15,-278.58 678.74,-278.48 670.4,-271.95 668.15,-278.58"/>
</g>
<!-- Node26 -->
<g id="node26" class="node">
<title>Node26</title>
<g id="a_node26"><a xlink:href="classcore_1_1_dynamic_loader.html#acff0a66e885a7bc718171eede89a1c9a" target="_top" xlink:title=" ">
<polygon fill="white" stroke="black" points="1050,-133 1050,-163 1170,-163 1170,-133 1050,-133"/>
<text text-anchor="start" x="1058" y="-151" font-family="Helvetica,sans-Serif" font-size="10.00">core::DynamicLoader</text>
<text text-anchor="middle" x="1110" y="-140" font-family="Helvetica,sans-Serif" font-size="10.00">::execDlCloseAll</text>
</a>
</g>
</g>
<!-- Node25&#45;&gt;Node26 -->
<g id="edge27" class="edge">
<title>Node25&#45;&gt;Node26</title>
<path fill="none" stroke="midnightblue" d="M605.19,-185.73C689.32,-191.39 848.16,-198.1 982,-181 988.67,-180.15 1016.21,-173.06 1043.94,-165.67"/>
<polygon fill="midnightblue" stroke="midnightblue" points="1044.97,-169.02 1053.72,-163.06 1043.16,-162.26 1044.97,-169.02"/>
</g>
<!-- Node25&#45;&gt;Node27 -->
<g id="edge31" class="edge">
<title>Node25&#45;&gt;Node27</title>
<path fill="none" stroke="midnightblue" d="M571.82,-171.42C593.8,-163.41 626.28,-151.89 655,-143 662.44,-140.7 670.38,-138.4 678.13,-136.23"/>
<polygon fill="midnightblue" stroke="midnightblue" points="679.09,-139.6 687.8,-133.57 677.23,-132.85 679.09,-139.6"/>
</g>
<!-- Node28 -->
<g id="node28" class="node">
<title>Node28</title>
<g id="a_node28"><a xlink:href="classcore_1_1_event_multiplexer.html#a56149f93e86262641e94e42d8d5b9a2b" target="_top" xlink:title=" ">
<polygon fill="white" stroke="black" points="662.5,-229 662.5,-259 789.5,-259 789.5,-229 662.5,-229"/>
<text text-anchor="start" x="670.5" y="-247" font-family="Helvetica,sans-Serif" font-size="10.00">core::EventMultiplexer</text>
<text text-anchor="middle" x="726" y="-236" font-family="Helvetica,sans-Serif" font-size="10.00">::stop</text>
</a>
</g>
</g>
<!-- Node25&#45;&gt;Node28 -->
<g id="edge32" class="edge">
<title>Node25&#45;&gt;Node28</title>
<path fill="none" stroke="midnightblue" d="M573.19,-190.57C599.42,-199.8 639.84,-214.03 672.38,-225.48"/>
<polygon fill="midnightblue" stroke="midnightblue" points="671.6,-228.92 682.2,-228.93 673.93,-222.31 671.6,-228.92"/>
</g>
<!-- Node31 -->
<g id="node31" class="node">
<title>Node31</title>
<g id="a_node31"><a xlink:href="classutils_1_1_config.html#ad88e08009a309e143a17fd63b477cdbe" target="_top" xlink:title=" ">
<polygon fill="white" stroke="black" points="661.5,-152.5 661.5,-171.5 790.5,-171.5 790.5,-152.5 661.5,-152.5"/>
<text text-anchor="middle" x="726" y="-159.5" font-family="Helvetica,sans-Serif" font-size="10.00">utils::Config::terminate</text>
</a>
</g>
</g>
<!-- Node25&#45;&gt;Node31 -->
<g id="edge36" class="edge">
<title>Node25&#45;&gt;Node31</title>
<path fill="none" stroke="midnightblue" d="M605.11,-174.73C619.89,-173.16 635.93,-171.45 651.33,-169.82"/>
<polygon fill="midnightblue" stroke="midnightblue" points="651.76,-173.29 661.34,-168.76 651.02,-166.33 651.76,-173.29"/>
</g>
<!-- Node26&#45;&gt;Node12 -->
<g id="edge30" class="edge">
<title>Node26&#45;&gt;Node12</title>
<path fill="none" stroke="midnightblue" d="M1170.24,-161.78C1192.65,-167 1218.39,-172.99 1241.79,-178.43"/>
<polygon fill="midnightblue" stroke="midnightblue" points="1241.12,-181.87 1251.65,-180.73 1242.71,-175.05 1241.12,-181.87"/>
</g>
<!-- Node26&#45;&gt;Node13 -->
<g id="edge28" class="edge">
<title>Node26&#45;&gt;Node13</title>
<path fill="none" stroke="midnightblue" d="M1170.07,-142.22C1191.45,-140.3 1215.8,-138.32 1238,-137 1297.88,-133.44 1366.02,-131.38 1415.54,-130.25"/>
<polygon fill="midnightblue" stroke="midnightblue" points="1415.9,-133.74 1425.82,-130.02 1415.74,-126.74 1415.9,-133.74"/>
</g>
<!-- Node26&#45;&gt;Node15 -->
<g id="edge29" class="edge">
<title>Node26&#45;&gt;Node15</title>
<path fill="none" stroke="midnightblue" d="M1170.18,-151.6C1226.75,-155.34 1314.36,-161.92 1390,-171 1398.34,-172 1407.07,-173.19 1415.72,-174.45"/>
<polygon fill="midnightblue" stroke="midnightblue" points="1415.4,-177.94 1425.8,-175.96 1416.43,-171.02 1415.4,-177.94"/>
</g>
<!-- Node29 -->
<g id="node29" class="node">
<title>Node29</title>
<g id="a_node29"><a xlink:href="classcore_1_1_timer_event_publisher.html#a78db35b8164a8dd0ca09eff66be33d67" target="_top" xlink:title=" ">
<polygon fill="white" stroke="black" points="835.5,-229 835.5,-259 979.5,-259 979.5,-229 835.5,-229"/>
<text text-anchor="start" x="843.5" y="-247" font-family="Helvetica,sans-Serif" font-size="10.00">core::TimerEventPublisher</text>
<text text-anchor="middle" x="907.5" y="-236" font-family="Helvetica,sans-Serif" font-size="10.00">::stop</text>
</a>
</g>
</g>
<!-- Node28&#45;&gt;Node29 -->
<g id="edge33" class="edge">
<title>Node28&#45;&gt;Node29</title>
<path fill="none" stroke="midnightblue" d="M789.53,-244C801.07,-244 813.27,-244 825.27,-244"/>
<polygon fill="midnightblue" stroke="midnightblue" points="825.28,-247.5 835.28,-244 825.28,-240.5 825.28,-247.5"/>
</g>
<!-- Node29&#45;&gt;Node24 -->
<g id="edge35" class="edge">
<title>Node29&#45;&gt;Node24</title>
<path fill="none" stroke="midnightblue" d="M968.09,-259.07C984.26,-263.06 1001.78,-267.28 1018,-271 1099.48,-289.68 1127.51,-272.06 1202,-310 1239.42,-329.06 1273.91,-364.01 1294.2,-387.13"/>
<polygon fill="midnightblue" stroke="midnightblue" points="1291.6,-389.47 1300.77,-394.77 1296.91,-384.9 1291.6,-389.47"/>
</g>
<!-- Node30 -->
<g id="node30" class="node">
<title>Node30</title>
<g id="a_node30"><a xlink:href="classcore_1_1_timer_event_publisher.html#af8725b379e9302f110a8c11e4662a217" target="_top" xlink:title=" ">
<polygon fill="white" stroke="black" points="1038,-182 1038,-212 1182,-212 1182,-182 1038,-182"/>
<text text-anchor="start" x="1046" y="-200" font-family="Helvetica,sans-Serif" font-size="10.00">core::TimerEventPublisher</text>
<text text-anchor="middle" x="1110" y="-189" font-family="Helvetica,sans-Serif" font-size="10.00">::remove</text>
</a>
</g>
</g>
<!-- Node29&#45;&gt;Node30 -->
<g id="edge34" class="edge">
<title>Node29&#45;&gt;Node30</title>
<path fill="none" stroke="midnightblue" d="M972.49,-229C992.39,-224.34 1014.48,-219.16 1035,-214.35"/>
<polygon fill="midnightblue" stroke="midnightblue" points="1035.99,-217.71 1044.93,-212.02 1034.39,-210.89 1035.99,-217.71"/>
</g>
<!-- Node32 -->
<g id="node32" class="node">
<title>Node32</title>
<g id="a_node32"><a xlink:href="classutils_1_1_daemon.html#ade68cf0c06a22b8d0446244b82d75ba8" target="_top" xlink:title=" ">
<polygon fill="white" stroke="black" points="833,-152.5 833,-171.5 982,-171.5 982,-152.5 833,-152.5"/>
<text text-anchor="middle" x="907.5" y="-159.5" font-family="Helvetica,sans-Serif" font-size="10.00">utils::Daemon::erasePidFile</text>
</a>
</g>
</g>
<!-- Node31&#45;&gt;Node32 -->
<g id="edge37" class="edge">
<title>Node31&#45;&gt;Node32</title>
<path fill="none" stroke="midnightblue" d="M790.54,-162C800.93,-162 811.84,-162 822.63,-162"/>
<polygon fill="midnightblue" stroke="midnightblue" points="822.93,-165.5 832.93,-162 822.93,-158.5 822.93,-165.5"/>
</g>
<!-- Node33 -->
<g id="node33" class="node">
<title>Node33</title>
<g id="a_node33"><a xlink:href="namespacecore_1_1system.html#a38a2ef544196b684eb5850c42e8ee770" target="_top" xlink:title=" ">
<polygon fill="white" stroke="black" points="854,-114.5 854,-133.5 961,-133.5 961,-114.5 854,-114.5"/>
<text text-anchor="middle" x="907.5" y="-121.5" font-family="Helvetica,sans-Serif" font-size="10.00">core::system::read</text>
</a>
</g>
</g>
<!-- Node31&#45;&gt;Node33 -->
<g id="edge38" class="edge">
<title>Node31&#45;&gt;Node33</title>
<path fill="none" stroke="midnightblue" d="M772.3,-152.41C796.41,-147.31 826.25,-140.99 851.67,-135.61"/>
<polygon fill="midnightblue" stroke="midnightblue" points="852.47,-139.02 861.53,-133.52 851.02,-132.17 852.47,-139.02"/>
</g>
<!-- Node35 -->
<g id="node35" class="node">
<title>Node35</title>
<g id="a_node35"><a xlink:href="class_c_l_i_1_1_app.html#aca552f0b8af9eec4d079538e9efe0f06" target="_top" xlink:title=" ">
<polygon fill="white" stroke="black" points="663.5,-76.5 663.5,-95.5 788.5,-95.5 788.5,-76.5 663.5,-76.5"/>
<text text-anchor="middle" x="726" y="-83.5" font-family="Helvetica,sans-Serif" font-size="10.00">CLI::App::config_to_str</text>
</a>
</g>
</g>
<!-- Node34&#45;&gt;Node35 -->
<g id="edge41" class="edge">
<title>Node34&#45;&gt;Node35</title>
<path fill="none" stroke="midnightblue" d="M604.61,-86C620.08,-86 636.96,-86 653.05,-86"/>
<polygon fill="midnightblue" stroke="midnightblue" points="653.49,-89.5 663.49,-86 653.49,-82.5 653.49,-89.5"/>
</g>
<!-- Node36 -->
<g id="node36" class="node">
<title>Node36</title>
<g id="a_node36"><a xlink:href="classutils_1_1_config.html#aa5ea623fdeef48f8a74ae158d3292b11" target="_top" xlink:title=" ">
<polygon fill="white" stroke="black" points="672,-38.5 672,-57.5 780,-57.5 780,-38.5 672,-38.5"/>
<text text-anchor="middle" x="726" y="-45.5" font-family="Helvetica,sans-Serif" font-size="10.00">utils::Config::parse</text>
</a>
</g>
</g>
<!-- Node34&#45;&gt;Node36 -->
<g id="edge42" class="edge">
<title>Node34&#45;&gt;Node36</title>
<path fill="none" stroke="midnightblue" d="M591.17,-76.41C615.22,-71.31 644.97,-64.99 670.32,-59.61"/>
<polygon fill="midnightblue" stroke="midnightblue" points="671.1,-63.02 680.16,-57.52 669.65,-56.17 671.1,-63.02"/>
</g>
<!-- Node37 -->
<g id="node37" class="node">
<title>Node37</title>
<g id="a_node37"><a xlink:href="class_c_l_i_1_1_app.html#a5ddf139d5fe065289aca7b83d5d045d9" target="_top" xlink:title=" ">
<polygon fill="white" stroke="black" points="863,-38.5 863,-57.5 952,-57.5 952,-38.5 863,-38.5"/>
<text text-anchor="middle" x="907.5" y="-45.5" font-family="Helvetica,sans-Serif" font-size="10.00">CLI::App::parse</text>
</a>
</g>
</g>
<!-- Node36&#45;&gt;Node37 -->
<g id="edge43" class="edge">
<title>Node36&#45;&gt;Node37</title>
<path fill="none" stroke="midnightblue" d="M780.37,-48C803.22,-48 829.86,-48 852.76,-48"/>
<polygon fill="midnightblue" stroke="midnightblue" points="852.98,-51.5 862.98,-48 852.98,-44.5 852.98,-51.5"/>
</g>
<!-- Node40 -->
<g id="node40" class="node">
<title>Node40</title>
<g id="a_node40"><a xlink:href="classcore_1_1_event_loop.html#aaa96da1dffd0e1800ba0c134ad07f97e" target="_top" xlink:title=" ">
<polygon fill="white" stroke="black" points="665,-0.5 665,-19.5 787,-19.5 787,-0.5 665,-0.5"/>
<text text-anchor="middle" x="726" y="-7.5" font-family="Helvetica,sans-Serif" font-size="10.00">core::EventLoop::stop</text>
</a>
</g>
</g>
<!-- Node39&#45;&gt;Node40 -->
<g id="edge46" class="edge">
<title>Node39&#45;&gt;Node40</title>
<path fill="none" stroke="midnightblue" d="M619.06,-10C630.8,-10 642.93,-10 654.61,-10"/>
<polygon fill="midnightblue" stroke="midnightblue" points="654.73,-13.5 664.73,-10 654.73,-6.5 654.73,-13.5"/>
</g>
</g>
</svg>
