<?xml version="1.0" encoding="UTF-8" standalone="no"?>
<!DOCTYPE svg PUBLIC "-//W3C//DTD SVG 1.1//EN"
 "http://www.w3.org/Graphics/SVG/1.1/DTD/svg11.dtd">
<!-- Generated by graphviz version 2.43.0 (0)
 -->
<!-- Title: net::un::SocketAddress Pages: 1 -->
<svg width="160pt" height="174pt"
 viewBox="0.00 0.00 160.00 174.00" xmlns="http://www.w3.org/2000/svg" xmlns:xlink="http://www.w3.org/1999/xlink">
<g id="graph0" class="graph" transform="scale(1 1) rotate(0) translate(4 170)">
<title>net::un::SocketAddress</title>
<polygon fill="white" stroke="transparent" points="-4,4 -4,-170 156,-170 156,4 -4,4"/>
<!-- Node1 -->
<g id="node1" class="node">
<title>Node1</title>
<g id="a_node1"><a xlink:title=" ">
<polygon fill="#bfbfbf" stroke="black" points="0,-0.5 0,-19.5 128,-19.5 128,-0.5 0,-0.5"/>
<text text-anchor="middle" x="64" y="-7.5" font-family="Helvetica,sans-Serif" font-size="10.00">net::un::SocketAddress</text>
</a>
</g>
</g>
<!-- Node2 -->
<g id="node2" class="node">
<title>Node2</title>
<g id="a_node2"><a xlink:href="classnet_1_1_socket_address.html" target="_top" xlink:title=" ">
<polygon fill="white" stroke="black" points="9,-57.5 9,-87.5 119,-87.5 119,-57.5 9,-57.5"/>
<text text-anchor="start" x="17" y="-75.5" font-family="Helvetica,sans-Serif" font-size="10.00">net::SocketAddress</text>
<text text-anchor="middle" x="64" y="-64.5" font-family="Helvetica,sans-Serif" font-size="10.00">&lt; sockaddr_un &gt;</text>
</a>
</g>
</g>
<!-- Node2&#45;&gt;Node1 -->
<g id="edge1" class="edge">
<title>Node2&#45;&gt;Node1</title>
<path fill="none" stroke="midnightblue" d="M64,-47.35C64,-37.51 64,-26.78 64,-19.54"/>
<polygon fill="none" stroke="midnightblue" points="60.5,-47.47 64,-57.47 67.5,-47.47 60.5,-47.47"/>
</g>
<!-- Node3 -->
<g id="node3" class="node">
<title>Node3</title>
<g id="a_node3"><a xlink:href="classnet_1_1_socket_address.html" target="_top" xlink:title=" ">
<polygon fill="white" stroke="black" points="9,-135.5 9,-165.5 119,-165.5 119,-135.5 9,-135.5"/>
<text text-anchor="start" x="17" y="-153.5" font-family="Helvetica,sans-Serif" font-size="10.00">net::SocketAddress</text>
<text text-anchor="middle" x="64" y="-142.5" font-family="Helvetica,sans-Serif" font-size="10.00">&lt; SockAddrT &gt;</text>
</a>
</g>
</g>
<!-- Node3&#45;&gt;Node2 -->
<g id="edge2" class="edge">
<title>Node3&#45;&gt;Node2</title>
<path fill="none" stroke="orange" d="M64,-125.09C64,-112.76 64,-98.22 64,-87.73"/>
<polygon fill="orange" stroke="orange" points="60.5,-125.2 64,-135.2 67.5,-125.21 60.5,-125.2"/>
<text text-anchor="middle" x="108" y="-109" font-family="Helvetica,sans-Serif" font-size="10.00"> &lt; sockaddr_un &gt;</text>
</g>
</g>
</svg>
