<?xml version="1.0" encoding="UTF-8" standalone="no"?>
<!DOCTYPE svg PUBLIC "-//W3C//DTD SVG 1.1//EN"
 "http://www.w3.org/Graphics/SVG/1.1/DTD/svg11.dtd">
<!-- Generated by graphviz version 2.43.0 (0)
 -->
<!-- Title: web::http::SocketContextFactory&lt; SocketContextT, RequestT, ResponseT &gt; Pages: 1 -->
<svg width="370pt" height="319pt"
 viewBox="0.00 0.00 370.00 319.00" xmlns="http://www.w3.org/2000/svg" xmlns:xlink="http://www.w3.org/1999/xlink">
<g id="graph0" class="graph" transform="scale(1 1) rotate(0) translate(4 315)">
<title>web::http::SocketContextFactory&lt; SocketContextT, RequestT, ResponseT &gt;</title>
<polygon fill="white" stroke="transparent" points="-4,4 -4,-315 366,-315 366,4 -4,4"/>
<!-- Node1 -->
<g id="node1" class="node">
<title>Node1</title>
<g id="a_node1"><a xlink:title=" ">
<polygon fill="#bfbfbf" stroke="black" points="84.5,-201.5 84.5,-242.5 227.5,-242.5 227.5,-201.5 84.5,-201.5"/>
<text text-anchor="start" x="92.5" y="-230.5" font-family="Helvetica,sans-Serif" font-size="10.00">web::http::SocketContext</text>
<text text-anchor="start" x="92.5" y="-219.5" font-family="Helvetica,sans-Serif" font-size="10.00">Factory&lt; SocketContextT,</text>
<text text-anchor="middle" x="156" y="-208.5" font-family="Helvetica,sans-Serif" font-size="10.00"> RequestT, ResponseT &gt;</text>
</a>
</g>
</g>
<!-- Node3 -->
<g id="node3" class="node">
<title>Node3</title>
<g id="a_node3"><a xlink:href="classweb_1_1http_1_1_socket_context_factory.html" target="_top" xlink:title=" ">
<polygon fill="white" stroke="black" points="0,-79.5 0,-131.5 148,-131.5 148,-79.5 0,-79.5"/>
<text text-anchor="start" x="8" y="-119.5" font-family="Helvetica,sans-Serif" font-size="10.00">web::http::SocketContext</text>
<text text-anchor="start" x="8" y="-108.5" font-family="Helvetica,sans-Serif" font-size="10.00">Factory&lt; web::http::client</text>
<text text-anchor="start" x="8" y="-97.5" font-family="Helvetica,sans-Serif" font-size="10.00">::SocketContext, RequestT,</text>
<text text-anchor="middle" x="74" y="-86.5" font-family="Helvetica,sans-Serif" font-size="10.00"> ResponseT &gt;</text>
</a>
</g>
</g>
<!-- Node1&#45;&gt;Node3 -->
<g id="edge2" class="edge">
<title>Node1&#45;&gt;Node3</title>
<path fill="none" stroke="orange" d="M94.51,-195.37C90.13,-191.74 86.2,-187.63 83,-183 72.75,-168.14 70.81,-147.68 71.26,-131.66"/>
<polygon fill="orange" stroke="orange" points="92.66,-198.35 102.8,-201.4 96.78,-192.69 92.66,-198.35"/>
<text text-anchor="start" x="83" y="-175" font-family="Helvetica,sans-Serif" font-size="10.00"> &lt; web::http::client</text>
<text text-anchor="start" x="83" y="-164" font-family="Helvetica,sans-Serif" font-size="10.00">::SocketContext, RequestT,</text>
<text text-anchor="middle" x="149" y="-153" font-family="Helvetica,sans-Serif" font-size="10.00"> ResponseT &gt;</text>
</g>
<!-- Node5 -->
<g id="node5" class="node">
<title>Node5</title>
<g id="a_node5"><a xlink:href="classweb_1_1http_1_1_socket_context_factory.html" target="_top" xlink:title=" ">
<polygon fill="white" stroke="black" points="166,-79.5 166,-131.5 314,-131.5 314,-79.5 166,-79.5"/>
<text text-anchor="start" x="174" y="-119.5" font-family="Helvetica,sans-Serif" font-size="10.00">web::http::SocketContext</text>
<text text-anchor="start" x="174" y="-108.5" font-family="Helvetica,sans-Serif" font-size="10.00">Factory&lt; web::http::server</text>
<text text-anchor="start" x="174" y="-97.5" font-family="Helvetica,sans-Serif" font-size="10.00">::SocketContext, RequestT,</text>
<text text-anchor="middle" x="240" y="-86.5" font-family="Helvetica,sans-Serif" font-size="10.00"> ResponseT &gt;</text>
</a>
</g>
</g>
<!-- Node1&#45;&gt;Node5 -->
<g id="edge4" class="edge">
<title>Node1&#45;&gt;Node5</title>
<path fill="none" stroke="orange" d="M203.17,-195.11C207.54,-191.44 211.6,-187.4 215,-183 226.52,-168.07 232.85,-147.61 236.25,-131.61"/>
<polygon fill="orange" stroke="orange" points="200.86,-192.46 195.01,-201.3 205.09,-198.04 200.86,-192.46"/>
<text text-anchor="start" x="230" y="-175" font-family="Helvetica,sans-Serif" font-size="10.00"> &lt; web::http::server</text>
<text text-anchor="start" x="230" y="-164" font-family="Helvetica,sans-Serif" font-size="10.00">::SocketContext, RequestT,</text>
<text text-anchor="middle" x="296" y="-153" font-family="Helvetica,sans-Serif" font-size="10.00"> ResponseT &gt;</text>
</g>
<!-- Node2 -->
<g id="node2" class="node">
<title>Node2</title>
<g id="a_node2"><a xlink:href="classcore_1_1socket_1_1_socket_context_factory.html" target="_top" xlink:title=" ">
<polygon fill="white" stroke="black" points="80,-280.5 80,-310.5 232,-310.5 232,-280.5 80,-280.5"/>
<text text-anchor="start" x="88" y="-298.5" font-family="Helvetica,sans-Serif" font-size="10.00">core::socket::SocketContext</text>
<text text-anchor="middle" x="156" y="-287.5" font-family="Helvetica,sans-Serif" font-size="10.00">Factory</text>
</a>
</g>
</g>
<!-- Node2&#45;&gt;Node1 -->
<g id="edge1" class="edge">
<title>Node2&#45;&gt;Node1</title>
<path fill="none" stroke="midnightblue" d="M156,-270.1C156,-261.1 156,-251.02 156,-242.51"/>
<polygon fill="none" stroke="midnightblue" points="152.5,-270.37 156,-280.37 159.5,-270.37 152.5,-270.37"/>
</g>
<!-- Node4 -->
<g id="node4" class="node">
<title>Node4</title>
<g id="a_node4"><a xlink:href="classweb_1_1http_1_1client_1_1_socket_context_factory.html" target="_top" xlink:title=" ">
<polygon fill="white" stroke="black" points="2,-0.5 2,-41.5 146,-41.5 146,-0.5 2,-0.5"/>
<text text-anchor="start" x="10" y="-29.5" font-family="Helvetica,sans-Serif" font-size="10.00">web::http::client::</text>
<text text-anchor="start" x="10" y="-18.5" font-family="Helvetica,sans-Serif" font-size="10.00">SocketContextFactory</text>
<text text-anchor="middle" x="74" y="-7.5" font-family="Helvetica,sans-Serif" font-size="10.00">&lt; RequestT, ResponseT &gt;</text>
</a>
</g>
</g>
<!-- Node3&#45;&gt;Node4 -->
<g id="edge3" class="edge">
<title>Node3&#45;&gt;Node4</title>
<path fill="none" stroke="midnightblue" d="M74,-69.27C74,-59.77 74,-49.84 74,-41.55"/>
<polygon fill="none" stroke="midnightblue" points="70.5,-69.3 74,-79.3 77.5,-69.3 70.5,-69.3"/>
</g>
<!-- Node6 -->
<g id="node6" class="node">
<title>Node6</title>
<g id="a_node6"><a xlink:href="classweb_1_1http_1_1server_1_1_socket_context_factory.html" target="_top" xlink:title=" ">
<polygon fill="white" stroke="black" points="168,-0.5 168,-41.5 312,-41.5 312,-0.5 168,-0.5"/>
<text text-anchor="start" x="176" y="-29.5" font-family="Helvetica,sans-Serif" font-size="10.00">web::http::server::</text>
<text text-anchor="start" x="176" y="-18.5" font-family="Helvetica,sans-Serif" font-size="10.00">SocketContextFactory</text>
<text text-anchor="middle" x="240" y="-7.5" font-family="Helvetica,sans-Serif" font-size="10.00">&lt; RequestT, ResponseT &gt;</text>
</a>
</g>
</g>
<!-- Node5&#45;&gt;Node6 -->
<g id="edge5" class="edge">
<title>Node5&#45;&gt;Node6</title>
<path fill="none" stroke="midnightblue" d="M240,-69.27C240,-59.77 240,-49.84 240,-41.55"/>
<polygon fill="none" stroke="midnightblue" points="236.5,-69.3 240,-79.3 243.5,-69.3 236.5,-69.3"/>
</g>
</g>
</svg>
