<?xml version="1.0" encoding="UTF-8" standalone="no"?>
<!DOCTYPE svg PUBLIC "-//W3C//DTD SVG 1.1//EN"
 "http://www.w3.org/Graphics/SVG/1.1/DTD/svg11.dtd">
<!-- Generated by graphviz version 2.43.0 (0)
 -->
<!-- Title: net::config::ConfigAddress&lt; SocketAddressT &gt; Pages: 1 -->
<svg width="398pt" height="320pt"
 viewBox="0.00 0.00 397.50 320.00" xmlns="http://www.w3.org/2000/svg" xmlns:xlink="http://www.w3.org/1999/xlink">
<g id="graph0" class="graph" transform="scale(1 1) rotate(0) translate(4 316)">
<title>net::config::ConfigAddress&lt; SocketAddressT &gt;</title>
<polygon fill="white" stroke="transparent" points="-4,4 -4,-316 393.5,-316 393.5,4 -4,4"/>
<!-- Node1 -->
<g id="node1" class="node">
<title>Node1</title>
<g id="a_node1"><a xlink:title=" ">
<polygon fill="#bfbfbf" stroke="black" points="229,-0.5 229,-30.5 374,-30.5 374,-0.5 229,-0.5"/>
<text text-anchor="start" x="237" y="-18.5" font-family="Helvetica,sans-Serif" font-size="10.00">net::config::ConfigAddress</text>
<text text-anchor="middle" x="301.5" y="-7.5" font-family="Helvetica,sans-Serif" font-size="10.00">&lt; SocketAddressT &gt;</text>
</a>
</g>
</g>
<!-- Node2 -->
<g id="node2" class="node">
<title>Node2</title>
<g id="a_node2"><a xlink:href="classnet_1_1config_1_1_config_base.html" target="_top" xlink:title=" ">
<polygon fill="white" stroke="black" points="186.5,-68.5 186.5,-87.5 316.5,-87.5 316.5,-68.5 186.5,-68.5"/>
<text text-anchor="middle" x="251.5" y="-75.5" font-family="Helvetica,sans-Serif" font-size="10.00">net::config::ConfigBase</text>
</a>
</g>
</g>
<!-- Node2&#45;&gt;Node1 -->
<g id="edge1" class="edge">
<title>Node2&#45;&gt;Node1</title>
<path fill="none" stroke="midnightblue" d="M265.1,-60.54C272.8,-51.22 282.34,-39.69 289.72,-30.76"/>
<polygon fill="none" stroke="midnightblue" points="262.34,-58.39 258.66,-68.33 267.73,-62.85 262.34,-58.39"/>
</g>
<!-- Node3 -->
<g id="node3" class="node">
<title>Node3</title>
<g id="a_node3"><a xlink:href="class_c_l_i_1_1_app.html" target="_top" xlink:title="Creates a command line program, with very few defaults.">
<polygon fill="white" stroke="black" points="205.5,-168.5 205.5,-187.5 261.5,-187.5 261.5,-168.5 205.5,-168.5"/>
<text text-anchor="middle" x="233.5" y="-175.5" font-family="Helvetica,sans-Serif" font-size="10.00">CLI::App</text>
</a>
</g>
</g>
<!-- Node3&#45;&gt;Node1 -->
<g id="edge9" class="edge">
<title>Node3&#45;&gt;Node1</title>
<path fill="none" stroke="#404040" d="M261.6,-171.4C275.16,-167.43 290.77,-160.82 301.5,-150 328.24,-123.03 333.71,-105.07 325.5,-68 323.5,-58.97 319.74,-49.64 315.78,-41.45"/>
<polygon fill="none" stroke="#404040" points="315.77,-41.41 309.45,-37.94 310.22,-30.77 316.54,-34.24 315.77,-41.41"/>
<text text-anchor="middle" x="359" y="-75.5" font-family="Helvetica,sans-Serif" font-size="10.00"> #addressSc</text>
</g>
<!-- Node3&#45;&gt;Node2 -->
<g id="edge2" class="edge">
<title>Node3&#45;&gt;Node2</title>
<path fill="none" stroke="#404040" d="M241.31,-168.2C245.19,-163.23 249.48,-156.69 251.5,-150 256.48,-133.55 256.04,-113.96 254.6,-99.52"/>
<polygon fill="none" stroke="#404040" points="254.59,-99.44 249.86,-94 253.06,-87.54 257.79,-92.98 254.59,-99.44"/>
<text text-anchor="middle" x="276.5" y="-125.5" font-family="Helvetica,sans-Serif" font-size="10.00"> &#45;baseSc</text>
</g>
<!-- Node3&#45;&gt;Node3 -->
<g id="edge3" class="edge">
<title>Node3&#45;&gt;Node3</title>
<path fill="none" stroke="#404040" d="M261.8,-184C271.59,-184.06 279.5,-182.06 279.5,-178 279.5,-175.91 277.4,-174.36 274.02,-173.36"/>
<polygon fill="none" stroke="#404040" points="273.73,-173.33 267.32,-176.64 261.8,-172 268.21,-168.69 273.73,-173.33"/>
<text text-anchor="middle" x="304" y="-175.5" font-family="Helvetica,sans-Serif" font-size="10.00"> #parent_</text>
</g>
<!-- Node6 -->
<g id="node6" class="node">
<title>Node6</title>
<g id="a_node6"><a xlink:href="class_c_l_i_1_1_option.html" target="_top" xlink:title=" ">
<polygon fill="white" stroke="black" points="72.5,-68.5 72.5,-87.5 142.5,-87.5 142.5,-68.5 72.5,-68.5"/>
<text text-anchor="middle" x="107.5" y="-75.5" font-family="Helvetica,sans-Serif" font-size="10.00">CLI::Option</text>
</a>
</g>
</g>
<!-- Node3&#45;&gt;Node6 -->
<g id="edge8" class="edge">
<title>Node3&#45;&gt;Node6</title>
<path fill="none" stroke="#404040" d="M205.44,-173.03C169.44,-167.65 110.85,-157.81 104.5,-150 93.07,-135.94 95.75,-114.64 100.1,-99.04"/>
<polygon fill="none" stroke="#404040" points="100.13,-98.95 98.21,-92 103.88,-87.56 105.8,-94.51 100.13,-98.95"/>
<text text-anchor="middle" x="129" y="-125.5" font-family="Helvetica,sans-Serif" font-size="10.00"> #parent_</text>
</g>
<!-- Node4 -->
<g id="node4" class="node">
<title>Node4</title>
<g id="a_node4"><a xlink:href="class_c_l_i_1_1_option_defaults.html" target="_top" xlink:title=" ">
<polygon fill="white" stroke="black" points="178,-235.5 178,-254.5 289,-254.5 289,-235.5 178,-235.5"/>
<text text-anchor="middle" x="233.5" y="-242.5" font-family="Helvetica,sans-Serif" font-size="10.00">CLI::OptionDefaults</text>
</a>
</g>
</g>
<!-- Node4&#45;&gt;Node3 -->
<g id="edge4" class="edge">
<title>Node4&#45;&gt;Node3</title>
<path fill="none" stroke="#404040" d="M233.5,-235.23C233.5,-226.17 233.5,-211.69 233.5,-199.69"/>
<polygon fill="none" stroke="#404040" points="233.5,-199.63 229.5,-193.63 233.5,-187.63 237.5,-193.63 233.5,-199.63"/>
<text text-anchor="middle" x="280" y="-209" font-family="Helvetica,sans-Serif" font-size="10.00"> #option_defaults_</text>
</g>
<!-- Node5 -->
<g id="node5" class="node">
<title>Node5</title>
<g id="a_node5"><a xlink:href="class_c_l_i_1_1_option_base.html" target="_top" xlink:title=" ">
<polygon fill="white" stroke="black" points="138.5,-292.5 138.5,-311.5 328.5,-311.5 328.5,-292.5 138.5,-292.5"/>
<text text-anchor="middle" x="233.5" y="-299.5" font-family="Helvetica,sans-Serif" font-size="10.00">CLI::OptionBase&lt; OptionDefaults &gt;</text>
</a>
</g>
</g>
<!-- Node5&#45;&gt;Node4 -->
<g id="edge5" class="edge">
<title>Node5&#45;&gt;Node4</title>
<path fill="none" stroke="midnightblue" d="M233.5,-282.12C233.5,-272.82 233.5,-262.06 233.5,-254.71"/>
<polygon fill="none" stroke="midnightblue" points="230,-282.41 233.5,-292.41 237,-282.41 230,-282.41"/>
</g>
<!-- Node6&#45;&gt;Node3 -->
<g id="edge6" class="edge">
<title>Node6&#45;&gt;Node3</title>
<path fill="none" stroke="#404040" d="M130.59,-87.52C139.91,-91.89 150.17,-98 157.5,-106 171.89,-121.71 161.7,-134.68 176.5,-150 181.57,-155.25 187.86,-159.59 194.39,-163.15"/>
<polygon fill="none" stroke="#404040" points="194.61,-163.25 201.75,-162.22 205.45,-168.41 198.31,-169.44 194.61,-163.25"/>
<text text-anchor="middle" x="212" y="-142" font-family="Helvetica,sans-Serif" font-size="10.00"> #config_ptr_</text>
<text text-anchor="middle" x="212" y="-131" font-family="Helvetica,sans-Serif" font-size="10.00">#help_all_ptr_</text>
<text text-anchor="middle" x="212" y="-120" font-family="Helvetica,sans-Serif" font-size="10.00">#help_ptr_</text>
<text text-anchor="middle" x="212" y="-109" font-family="Helvetica,sans-Serif" font-size="10.00">#version_ptr_</text>
</g>
<!-- Node7 -->
<g id="node7" class="node">
<title>Node7</title>
<g id="a_node7"><a xlink:href="class_c_l_i_1_1_option_base.html" target="_top" xlink:title=" ">
<polygon fill="white" stroke="black" points="0,-168.5 0,-187.5 149,-187.5 149,-168.5 0,-168.5"/>
<text text-anchor="middle" x="74.5" y="-175.5" font-family="Helvetica,sans-Serif" font-size="10.00">CLI::OptionBase&lt; Option &gt;</text>
</a>
</g>
</g>
<!-- Node7&#45;&gt;Node6 -->
<g id="edge7" class="edge">
<title>Node7&#45;&gt;Node6</title>
<path fill="none" stroke="midnightblue" d="M76.07,-158.04C77.79,-143.36 81.33,-122.77 88.5,-106 91.29,-99.46 95.84,-92.93 99.78,-87.92"/>
<polygon fill="none" stroke="midnightblue" points="72.55,-158.06 75.04,-168.35 79.51,-158.75 72.55,-158.06"/>
</g>
</g>
</svg>
