<?xml version="1.0" encoding="UTF-8" standalone="no"?>
<!DOCTYPE svg PUBLIC "-//W3C//DTD SVG 1.1//EN"
 "http://www.w3.org/Graphics/SVG/1.1/DTD/svg11.dtd">
<!-- Generated by graphviz version 2.43.0 (0)
 -->
<!-- Title: core::Descriptor Pages: 1 -->
<svg width="1246pt" height="658pt"
 viewBox="0.00 0.00 1245.50 658.00" xmlns="http://www.w3.org/2000/svg" xmlns:xlink="http://www.w3.org/1999/xlink">
<g id="graph0" class="graph" transform="scale(1 1) rotate(0) translate(4 654)">
<title>core::Descriptor</title>
<polygon fill="white" stroke="transparent" points="-4,4 -4,-654 1241.5,-654 1241.5,4 -4,4"/>
<!-- Node1 -->
<g id="node1" class="node">
<title>Node1</title>
<g id="a_node1"><a xlink:title=" ">
<polygon fill="#bfbfbf" stroke="black" points="792.5,-504.5 792.5,-649.5 878.5,-649.5 878.5,-504.5 792.5,-504.5"/>
<text text-anchor="middle" x="835.5" y="-637.5" font-family="Helvetica,sans-Serif" font-size="10.00">core::Descriptor</text>
<polyline fill="none" stroke="black" points="792.5,-630.5 878.5,-630.5 "/>
<text text-anchor="start" x="800.5" y="-618.5" font-family="Helvetica,sans-Serif" font-size="10.00">+ none</text>
<text text-anchor="start" x="800.5" y="-607.5" font-family="Helvetica,sans-Serif" font-size="10.00">&#45; fd</text>
<polyline fill="none" stroke="black" points="792.5,-600.5 878.5,-600.5 "/>
<text text-anchor="start" x="800.5" y="-588.5" font-family="Helvetica,sans-Serif" font-size="10.00"># Descriptor()</text>
<text text-anchor="start" x="800.5" y="-577.5" font-family="Helvetica,sans-Serif" font-size="10.00"># ~Descriptor()</text>
<text text-anchor="start" x="800.5" y="-566.5" font-family="Helvetica,sans-Serif" font-size="10.00"># attach()</text>
<text text-anchor="start" x="800.5" y="-555.5" font-family="Helvetica,sans-Serif" font-size="10.00"># getFd()</text>
<text text-anchor="start" x="800.5" y="-544.5" font-family="Helvetica,sans-Serif" font-size="10.00"># dontClose()</text>
<text text-anchor="start" x="800.5" y="-533.5" font-family="Helvetica,sans-Serif" font-size="10.00"># dontClose()</text>
<text text-anchor="start" x="800.5" y="-522.5" font-family="Helvetica,sans-Serif" font-size="10.00">&#45; Descriptor()</text>
<text text-anchor="start" x="800.5" y="-511.5" font-family="Helvetica,sans-Serif" font-size="10.00">&#45; operator=()</text>
</a>
</g>
</g>
<!-- Node2 -->
<g id="node2" class="node">
<title>Node2</title>
<g id="a_node2"><a xlink:href="classcore_1_1socket_1_1_socket.html" target="_top" xlink:title=" ">
<polygon fill="white" stroke="black" points="346.5,-106.5 346.5,-262.5 486.5,-262.5 486.5,-106.5 346.5,-106.5"/>
<text text-anchor="start" x="354.5" y="-250.5" font-family="Helvetica,sans-Serif" font-size="10.00">core::socket::Socket</text>
<text text-anchor="middle" x="416.5" y="-239.5" font-family="Helvetica,sans-Serif" font-size="10.00">&lt; net::in6::SocketAddress &gt;</text>
<polyline fill="none" stroke="black" points="346.5,-232.5 486.5,-232.5 "/>
<text text-anchor="start" x="354.5" y="-220.5" font-family="Helvetica,sans-Serif" font-size="10.00"># bindAddress</text>
<polyline fill="none" stroke="black" points="346.5,-213.5 486.5,-213.5 "/>
<text text-anchor="start" x="354.5" y="-201.5" font-family="Helvetica,sans-Serif" font-size="10.00">+ shutdown()</text>
<text text-anchor="start" x="354.5" y="-190.5" font-family="Helvetica,sans-Serif" font-size="10.00">+ Socket()</text>
<text text-anchor="start" x="354.5" y="-179.5" font-family="Helvetica,sans-Serif" font-size="10.00">+ Socket()</text>
<text text-anchor="start" x="354.5" y="-168.5" font-family="Helvetica,sans-Serif" font-size="10.00">+ operator=()</text>
<text text-anchor="start" x="354.5" y="-157.5" font-family="Helvetica,sans-Serif" font-size="10.00">+ open()</text>
<text text-anchor="start" x="354.5" y="-146.5" font-family="Helvetica,sans-Serif" font-size="10.00">+ bind()</text>
<text text-anchor="start" x="354.5" y="-135.5" font-family="Helvetica,sans-Serif" font-size="10.00">+ getBindAddress()</text>
<text text-anchor="start" x="354.5" y="-124.5" font-family="Helvetica,sans-Serif" font-size="10.00"># ~Socket()</text>
<text text-anchor="start" x="354.5" y="-113.5" font-family="Helvetica,sans-Serif" font-size="10.00"># create()</text>
</a>
</g>
</g>
<!-- Node1&#45;&gt;Node2 -->
<g id="edge1" class="edge">
<title>Node1&#45;&gt;Node2</title>
<path fill="none" stroke="midnightblue" d="M782.46,-571.56C701.31,-562.69 543.94,-537.17 431.5,-467 340.69,-410.33 215.01,-367.18 278.5,-281 294.51,-259.27 313.28,-276.77 336.5,-263 339.83,-261.03 343.12,-258.89 346.37,-256.63"/>
<polygon fill="none" stroke="midnightblue" points="782.13,-575.04 792.44,-572.6 782.86,-568.08 782.13,-575.04"/>
</g>
<!-- Node4 -->
<g id="node4" class="node">
<title>Node4</title>
<g id="a_node4"><a xlink:href="classcore_1_1socket_1_1_socket.html" target="_top" xlink:title=" ">
<polygon fill="white" stroke="black" points="193.5,-106.5 193.5,-262.5 327.5,-262.5 327.5,-106.5 193.5,-106.5"/>
<text text-anchor="start" x="201.5" y="-250.5" font-family="Helvetica,sans-Serif" font-size="10.00">core::socket::Socket</text>
<text text-anchor="middle" x="260.5" y="-239.5" font-family="Helvetica,sans-Serif" font-size="10.00">&lt; net::in::SocketAddress &gt;</text>
<polyline fill="none" stroke="black" points="193.5,-232.5 327.5,-232.5 "/>
<text text-anchor="start" x="201.5" y="-220.5" font-family="Helvetica,sans-Serif" font-size="10.00"># bindAddress</text>
<polyline fill="none" stroke="black" points="193.5,-213.5 327.5,-213.5 "/>
<text text-anchor="start" x="201.5" y="-201.5" font-family="Helvetica,sans-Serif" font-size="10.00">+ shutdown()</text>
<text text-anchor="start" x="201.5" y="-190.5" font-family="Helvetica,sans-Serif" font-size="10.00">+ Socket()</text>
<text text-anchor="start" x="201.5" y="-179.5" font-family="Helvetica,sans-Serif" font-size="10.00">+ Socket()</text>
<text text-anchor="start" x="201.5" y="-168.5" font-family="Helvetica,sans-Serif" font-size="10.00">+ operator=()</text>
<text text-anchor="start" x="201.5" y="-157.5" font-family="Helvetica,sans-Serif" font-size="10.00">+ open()</text>
<text text-anchor="start" x="201.5" y="-146.5" font-family="Helvetica,sans-Serif" font-size="10.00">+ bind()</text>
<text text-anchor="start" x="201.5" y="-135.5" font-family="Helvetica,sans-Serif" font-size="10.00">+ getBindAddress()</text>
<text text-anchor="start" x="201.5" y="-124.5" font-family="Helvetica,sans-Serif" font-size="10.00"># ~Socket()</text>
<text text-anchor="start" x="201.5" y="-113.5" font-family="Helvetica,sans-Serif" font-size="10.00"># create()</text>
</a>
</g>
</g>
<!-- Node1&#45;&gt;Node4 -->
<g id="edge3" class="edge">
<title>Node1&#45;&gt;Node4</title>
<path fill="none" stroke="midnightblue" d="M782.19,-571.21C656.18,-559.06 344,-523.92 257.5,-467 175.72,-413.19 96.8,-369.1 139.5,-281 151.17,-256.92 172.19,-237.08 193.47,-221.84"/>
<polygon fill="none" stroke="midnightblue" points="782.09,-574.71 792.37,-572.18 782.75,-567.75 782.09,-574.71"/>
</g>
<!-- Node6 -->
<g id="node6" class="node">
<title>Node6</title>
<g id="a_node6"><a xlink:href="classcore_1_1socket_1_1_socket.html" target="_top" xlink:title=" ">
<polygon fill="white" stroke="black" points="0,-106.5 0,-262.5 137,-262.5 137,-106.5 0,-106.5"/>
<text text-anchor="start" x="8" y="-250.5" font-family="Helvetica,sans-Serif" font-size="10.00">core::socket::Socket</text>
<text text-anchor="middle" x="68.5" y="-239.5" font-family="Helvetica,sans-Serif" font-size="10.00">&lt; net::un::SocketAddress &gt;</text>
<polyline fill="none" stroke="black" points="0,-232.5 137,-232.5 "/>
<text text-anchor="start" x="8" y="-220.5" font-family="Helvetica,sans-Serif" font-size="10.00"># bindAddress</text>
<polyline fill="none" stroke="black" points="0,-213.5 137,-213.5 "/>
<text text-anchor="start" x="8" y="-201.5" font-family="Helvetica,sans-Serif" font-size="10.00">+ shutdown()</text>
<text text-anchor="start" x="8" y="-190.5" font-family="Helvetica,sans-Serif" font-size="10.00">+ Socket()</text>
<text text-anchor="start" x="8" y="-179.5" font-family="Helvetica,sans-Serif" font-size="10.00">+ Socket()</text>
<text text-anchor="start" x="8" y="-168.5" font-family="Helvetica,sans-Serif" font-size="10.00">+ operator=()</text>
<text text-anchor="start" x="8" y="-157.5" font-family="Helvetica,sans-Serif" font-size="10.00">+ open()</text>
<text text-anchor="start" x="8" y="-146.5" font-family="Helvetica,sans-Serif" font-size="10.00">+ bind()</text>
<text text-anchor="start" x="8" y="-135.5" font-family="Helvetica,sans-Serif" font-size="10.00">+ getBindAddress()</text>
<text text-anchor="start" x="8" y="-124.5" font-family="Helvetica,sans-Serif" font-size="10.00"># ~Socket()</text>
<text text-anchor="start" x="8" y="-113.5" font-family="Helvetica,sans-Serif" font-size="10.00"># create()</text>
</a>
</g>
</g>
<!-- Node1&#45;&gt;Node6 -->
<g id="edge5" class="edge">
<title>Node1&#45;&gt;Node6</title>
<path fill="none" stroke="midnightblue" d="M781.91,-575.45C632.96,-572.77 218.79,-557.21 124.5,-467 70.22,-415.07 60.45,-326.69 61.59,-262.79"/>
<polygon fill="none" stroke="midnightblue" points="782.11,-578.95 792.16,-575.62 782.22,-571.95 782.11,-578.95"/>
</g>
<!-- Node8 -->
<g id="node8" class="node">
<title>Node8</title>
<g id="a_node8"><a xlink:href="classcore_1_1socket_1_1_socket.html" target="_top" xlink:title=" ">
<polygon fill="white" stroke="black" points="695.5,-106.5 695.5,-262.5 829.5,-262.5 829.5,-106.5 695.5,-106.5"/>
<text text-anchor="start" x="703.5" y="-250.5" font-family="Helvetica,sans-Serif" font-size="10.00">core::socket::Socket</text>
<text text-anchor="middle" x="762.5" y="-239.5" font-family="Helvetica,sans-Serif" font-size="10.00">&lt; net::l2::SocketAddress &gt;</text>
<polyline fill="none" stroke="black" points="695.5,-232.5 829.5,-232.5 "/>
<text text-anchor="start" x="703.5" y="-220.5" font-family="Helvetica,sans-Serif" font-size="10.00"># bindAddress</text>
<polyline fill="none" stroke="black" points="695.5,-213.5 829.5,-213.5 "/>
<text text-anchor="start" x="703.5" y="-201.5" font-family="Helvetica,sans-Serif" font-size="10.00">+ shutdown()</text>
<text text-anchor="start" x="703.5" y="-190.5" font-family="Helvetica,sans-Serif" font-size="10.00">+ Socket()</text>
<text text-anchor="start" x="703.5" y="-179.5" font-family="Helvetica,sans-Serif" font-size="10.00">+ Socket()</text>
<text text-anchor="start" x="703.5" y="-168.5" font-family="Helvetica,sans-Serif" font-size="10.00">+ operator=()</text>
<text text-anchor="start" x="703.5" y="-157.5" font-family="Helvetica,sans-Serif" font-size="10.00">+ open()</text>
<text text-anchor="start" x="703.5" y="-146.5" font-family="Helvetica,sans-Serif" font-size="10.00">+ bind()</text>
<text text-anchor="start" x="703.5" y="-135.5" font-family="Helvetica,sans-Serif" font-size="10.00">+ getBindAddress()</text>
<text text-anchor="start" x="703.5" y="-124.5" font-family="Helvetica,sans-Serif" font-size="10.00"># ~Socket()</text>
<text text-anchor="start" x="703.5" y="-113.5" font-family="Helvetica,sans-Serif" font-size="10.00"># create()</text>
</a>
</g>
</g>
<!-- Node1&#45;&gt;Node8 -->
<g id="edge7" class="edge">
<title>Node1&#45;&gt;Node8</title>
<path fill="none" stroke="midnightblue" d="M861.9,-494.28C877.03,-433.2 887.94,-348.91 859.5,-281 852.74,-264.87 841.79,-250.08 829.63,-237.22"/>
<polygon fill="none" stroke="midnightblue" points="858.44,-493.7 859.35,-504.25 865.22,-495.44 858.44,-493.7"/>
</g>
<!-- Node10 -->
<g id="node10" class="node">
<title>Node10</title>
<g id="a_node10"><a xlink:href="classcore_1_1socket_1_1_socket.html" target="_top" xlink:title=" ">
<polygon fill="white" stroke="black" points="505,-106.5 505,-262.5 638,-262.5 638,-106.5 505,-106.5"/>
<text text-anchor="start" x="513" y="-250.5" font-family="Helvetica,sans-Serif" font-size="10.00">core::socket::Socket</text>
<text text-anchor="middle" x="571.5" y="-239.5" font-family="Helvetica,sans-Serif" font-size="10.00">&lt; net::rf::SocketAddress &gt;</text>
<polyline fill="none" stroke="black" points="505,-232.5 638,-232.5 "/>
<text text-anchor="start" x="513" y="-220.5" font-family="Helvetica,sans-Serif" font-size="10.00"># bindAddress</text>
<polyline fill="none" stroke="black" points="505,-213.5 638,-213.5 "/>
<text text-anchor="start" x="513" y="-201.5" font-family="Helvetica,sans-Serif" font-size="10.00">+ shutdown()</text>
<text text-anchor="start" x="513" y="-190.5" font-family="Helvetica,sans-Serif" font-size="10.00">+ Socket()</text>
<text text-anchor="start" x="513" y="-179.5" font-family="Helvetica,sans-Serif" font-size="10.00">+ Socket()</text>
<text text-anchor="start" x="513" y="-168.5" font-family="Helvetica,sans-Serif" font-size="10.00">+ operator=()</text>
<text text-anchor="start" x="513" y="-157.5" font-family="Helvetica,sans-Serif" font-size="10.00">+ open()</text>
<text text-anchor="start" x="513" y="-146.5" font-family="Helvetica,sans-Serif" font-size="10.00">+ bind()</text>
<text text-anchor="start" x="513" y="-135.5" font-family="Helvetica,sans-Serif" font-size="10.00">+ getBindAddress()</text>
<text text-anchor="start" x="513" y="-124.5" font-family="Helvetica,sans-Serif" font-size="10.00"># ~Socket()</text>
<text text-anchor="start" x="513" y="-113.5" font-family="Helvetica,sans-Serif" font-size="10.00"># create()</text>
</a>
</g>
</g>
<!-- Node1&#45;&gt;Node10 -->
<g id="edge9" class="edge">
<title>Node1&#45;&gt;Node10</title>
<path fill="none" stroke="midnightblue" d="M853.8,-494.47C863.46,-428.27 864.14,-337 811.5,-281 792.28,-260.55 712.69,-273.1 686.5,-263 669.88,-256.59 653.25,-247.41 638.02,-237.6"/>
<polygon fill="none" stroke="midnightblue" points="850.32,-494.04 852.25,-504.46 857.24,-495.12 850.32,-494.04"/>
</g>
<!-- Node12 -->
<g id="node12" class="node">
<title>Node12</title>
<g id="a_node12"><a xlink:href="classcore_1_1file_1_1_file.html" target="_top" xlink:title=" ">
<polygon fill="white" stroke="black" points="901.5,-360 901.5,-417 977.5,-417 977.5,-360 901.5,-360"/>
<text text-anchor="middle" x="939.5" y="-405" font-family="Helvetica,sans-Serif" font-size="10.00">core::file::File</text>
<polyline fill="none" stroke="black" points="901.5,-398 977.5,-398 "/>
<text text-anchor="middle" x="939.5" y="-386" font-family="Helvetica,sans-Serif" font-size="10.00"> </text>
<polyline fill="none" stroke="black" points="901.5,-379 977.5,-379 "/>
<text text-anchor="middle" x="939.5" y="-367" font-family="Helvetica,sans-Serif" font-size="10.00"> </text>
</a>
</g>
</g>
<!-- Node1&#45;&gt;Node12 -->
<g id="edge11" class="edge">
<title>Node1&#45;&gt;Node12</title>
<path fill="none" stroke="midnightblue" d="M882.22,-495.4C884.01,-492.23 885.78,-489.09 887.5,-486 900.39,-462.9 914.62,-436.44 924.92,-417.07"/>
<polygon fill="none" stroke="midnightblue" points="879.02,-493.96 877.13,-504.39 885.11,-497.41 879.02,-493.96"/>
</g>
<!-- Node14 -->
<g id="node14" class="node">
<title>Node14</title>
<g id="a_node14"><a xlink:href="classcore_1_1pipe_1_1_pipe_sink.html" target="_top" xlink:title=" ">
<polygon fill="white" stroke="black" points="996,-310.5 996,-466.5 1103,-466.5 1103,-310.5 996,-310.5"/>
<text text-anchor="middle" x="1049.5" y="-454.5" font-family="Helvetica,sans-Serif" font-size="10.00">core::pipe::PipeSink</text>
<polyline fill="none" stroke="black" points="996,-447.5 1103,-447.5 "/>
<text text-anchor="start" x="1004" y="-435.5" font-family="Helvetica,sans-Serif" font-size="10.00"># onData</text>
<text text-anchor="start" x="1004" y="-424.5" font-family="Helvetica,sans-Serif" font-size="10.00"># onEof</text>
<text text-anchor="start" x="1004" y="-413.5" font-family="Helvetica,sans-Serif" font-size="10.00"># onError</text>
<polyline fill="none" stroke="black" points="996,-406.5 1103,-406.5 "/>
<text text-anchor="start" x="1004" y="-394.5" font-family="Helvetica,sans-Serif" font-size="10.00">+ PipeSink()</text>
<text text-anchor="start" x="1004" y="-383.5" font-family="Helvetica,sans-Serif" font-size="10.00">+ setOnData()</text>
<text text-anchor="start" x="1004" y="-372.5" font-family="Helvetica,sans-Serif" font-size="10.00">+ setOnEof()</text>
<text text-anchor="start" x="1004" y="-361.5" font-family="Helvetica,sans-Serif" font-size="10.00">+ setOnError()</text>
<text text-anchor="start" x="1004" y="-350.5" font-family="Helvetica,sans-Serif" font-size="10.00"># readEvent()</text>
<text text-anchor="start" x="1004" y="-339.5" font-family="Helvetica,sans-Serif" font-size="10.00"># unobservedEvent()</text>
<text text-anchor="start" x="1004" y="-328.5" font-family="Helvetica,sans-Serif" font-size="10.00">&#45; PipeSink()</text>
<text text-anchor="start" x="1004" y="-317.5" font-family="Helvetica,sans-Serif" font-size="10.00">&#45; operator=()</text>
</a>
</g>
</g>
<!-- Node1&#45;&gt;Node14 -->
<g id="edge13" class="edge">
<title>Node1&#45;&gt;Node14</title>
<path fill="none" stroke="midnightblue" d="M887.16,-543.65C917.6,-523.43 955.99,-495.81 986.5,-467 989.65,-464.02 992.79,-460.89 995.88,-457.66"/>
<polygon fill="none" stroke="midnightblue" points="885.23,-540.74 878.8,-549.16 889.08,-546.58 885.23,-540.74"/>
</g>
<!-- Node15 -->
<g id="node15" class="node">
<title>Node15</title>
<g id="a_node15"><a xlink:href="classcore_1_1pipe_1_1_pipe_source.html" target="_top" xlink:title=" ">
<polygon fill="white" stroke="black" points="1121.5,-310.5 1121.5,-466.5 1237.5,-466.5 1237.5,-310.5 1121.5,-310.5"/>
<text text-anchor="middle" x="1179.5" y="-454.5" font-family="Helvetica,sans-Serif" font-size="10.00">core::pipe::PipeSource</text>
<polyline fill="none" stroke="black" points="1121.5,-447.5 1237.5,-447.5 "/>
<text text-anchor="start" x="1129.5" y="-435.5" font-family="Helvetica,sans-Serif" font-size="10.00"># onError</text>
<text text-anchor="start" x="1129.5" y="-424.5" font-family="Helvetica,sans-Serif" font-size="10.00"># writeBuffer</text>
<polyline fill="none" stroke="black" points="1121.5,-417.5 1237.5,-417.5 "/>
<text text-anchor="start" x="1129.5" y="-405.5" font-family="Helvetica,sans-Serif" font-size="10.00">+ PipeSource()</text>
<text text-anchor="start" x="1129.5" y="-394.5" font-family="Helvetica,sans-Serif" font-size="10.00">+ send()</text>
<text text-anchor="start" x="1129.5" y="-383.5" font-family="Helvetica,sans-Serif" font-size="10.00">+ send()</text>
<text text-anchor="start" x="1129.5" y="-372.5" font-family="Helvetica,sans-Serif" font-size="10.00">+ eof()</text>
<text text-anchor="start" x="1129.5" y="-361.5" font-family="Helvetica,sans-Serif" font-size="10.00">+ setOnError()</text>
<text text-anchor="start" x="1129.5" y="-350.5" font-family="Helvetica,sans-Serif" font-size="10.00"># writeEvent()</text>
<text text-anchor="start" x="1129.5" y="-339.5" font-family="Helvetica,sans-Serif" font-size="10.00"># unobservedEvent()</text>
<text text-anchor="start" x="1129.5" y="-328.5" font-family="Helvetica,sans-Serif" font-size="10.00">&#45; PipeSource()</text>
<text text-anchor="start" x="1129.5" y="-317.5" font-family="Helvetica,sans-Serif" font-size="10.00">&#45; operator=()</text>
</a>
</g>
</g>
<!-- Node1&#45;&gt;Node15 -->
<g id="edge14" class="edge">
<title>Node1&#45;&gt;Node15</title>
<path fill="none" stroke="midnightblue" d="M888.53,-563.15C946.93,-547.23 1041.81,-516.06 1111.5,-467 1114.87,-464.63 1118.18,-462.06 1121.41,-459.35"/>
<polygon fill="none" stroke="midnightblue" points="887.52,-559.79 878.77,-565.75 889.33,-566.55 887.52,-559.79"/>
</g>
<!-- Node16 -->
<g id="node16" class="node">
<title>Node16</title>
<g id="a_node16"><a xlink:href="classcore_1_1socket_1_1_socket.html" target="_top" xlink:title=" ">
<polygon fill="white" stroke="black" points="441,-310.5 441,-466.5 548,-466.5 548,-310.5 441,-310.5"/>
<text text-anchor="start" x="449" y="-454.5" font-family="Helvetica,sans-Serif" font-size="10.00">core::socket::Socket</text>
<text text-anchor="middle" x="494.5" y="-443.5" font-family="Helvetica,sans-Serif" font-size="10.00">&lt; SocketAddressT &gt;</text>
<polyline fill="none" stroke="black" points="441,-436.5 548,-436.5 "/>
<text text-anchor="start" x="449" y="-424.5" font-family="Helvetica,sans-Serif" font-size="10.00"># bindAddress</text>
<polyline fill="none" stroke="black" points="441,-417.5 548,-417.5 "/>
<text text-anchor="start" x="449" y="-405.5" font-family="Helvetica,sans-Serif" font-size="10.00">+ Socket()</text>
<text text-anchor="start" x="449" y="-394.5" font-family="Helvetica,sans-Serif" font-size="10.00">+ Socket()</text>
<text text-anchor="start" x="449" y="-383.5" font-family="Helvetica,sans-Serif" font-size="10.00">+ operator=()</text>
<text text-anchor="start" x="449" y="-372.5" font-family="Helvetica,sans-Serif" font-size="10.00">+ open()</text>
<text text-anchor="start" x="449" y="-361.5" font-family="Helvetica,sans-Serif" font-size="10.00">+ bind()</text>
<text text-anchor="start" x="449" y="-350.5" font-family="Helvetica,sans-Serif" font-size="10.00">+ shutdown()</text>
<text text-anchor="start" x="449" y="-339.5" font-family="Helvetica,sans-Serif" font-size="10.00">+ getBindAddress()</text>
<text text-anchor="start" x="449" y="-328.5" font-family="Helvetica,sans-Serif" font-size="10.00"># ~Socket()</text>
<text text-anchor="start" x="449" y="-317.5" font-family="Helvetica,sans-Serif" font-size="10.00"># create()</text>
</a>
</g>
</g>
<!-- Node1&#45;&gt;Node16 -->
<g id="edge15" class="edge">
<title>Node1&#45;&gt;Node16</title>
<path fill="none" stroke="midnightblue" d="M783.24,-547.42C719.59,-512.61 612.6,-454.09 548.27,-418.91"/>
<polygon fill="none" stroke="midnightblue" points="781.86,-550.65 792.31,-552.38 785.22,-544.51 781.86,-550.65"/>
</g>
<!-- Node3 -->
<g id="node3" class="node">
<title>Node3</title>
<g id="a_node3"><a xlink:href="classnet_1_1in6_1_1stream_1_1_socket.html" target="_top" xlink:title=" ">
<polygon fill="white" stroke="black" points="355.5,-6 355.5,-63 477.5,-63 477.5,-6 355.5,-6"/>
<text text-anchor="middle" x="416.5" y="-51" font-family="Helvetica,sans-Serif" font-size="10.00">net::in6::stream::Socket</text>
<polyline fill="none" stroke="black" points="355.5,-44 477.5,-44 "/>
<text text-anchor="middle" x="416.5" y="-32" font-family="Helvetica,sans-Serif" font-size="10.00"> </text>
<polyline fill="none" stroke="black" points="355.5,-25 477.5,-25 "/>
<text text-anchor="start" x="363.5" y="-13" font-family="Helvetica,sans-Serif" font-size="10.00"># create()</text>
</a>
</g>
</g>
<!-- Node2&#45;&gt;Node3 -->
<g id="edge2" class="edge">
<title>Node2&#45;&gt;Node3</title>
<path fill="none" stroke="midnightblue" d="M416.5,-96.29C416.5,-84.27 416.5,-72.74 416.5,-63"/>
<polygon fill="none" stroke="midnightblue" points="413,-96.47 416.5,-106.47 420,-96.47 413,-96.47"/>
</g>
<!-- Node5 -->
<g id="node5" class="node">
<title>Node5</title>
<g id="a_node5"><a xlink:href="classnet_1_1in_1_1stream_1_1_socket.html" target="_top" xlink:title=" ">
<polygon fill="white" stroke="black" points="202.5,-6 202.5,-63 318.5,-63 318.5,-6 202.5,-6"/>
<text text-anchor="middle" x="260.5" y="-51" font-family="Helvetica,sans-Serif" font-size="10.00">net::in::stream::Socket</text>
<polyline fill="none" stroke="black" points="202.5,-44 318.5,-44 "/>
<text text-anchor="middle" x="260.5" y="-32" font-family="Helvetica,sans-Serif" font-size="10.00"> </text>
<polyline fill="none" stroke="black" points="202.5,-25 318.5,-25 "/>
<text text-anchor="start" x="210.5" y="-13" font-family="Helvetica,sans-Serif" font-size="10.00"># create()</text>
</a>
</g>
</g>
<!-- Node4&#45;&gt;Node5 -->
<g id="edge4" class="edge">
<title>Node4&#45;&gt;Node5</title>
<path fill="none" stroke="midnightblue" d="M260.5,-96.29C260.5,-84.27 260.5,-72.74 260.5,-63"/>
<polygon fill="none" stroke="midnightblue" points="257,-96.47 260.5,-106.47 264,-96.47 257,-96.47"/>
</g>
<!-- Node7 -->
<g id="node7" class="node">
<title>Node7</title>
<g id="a_node7"><a xlink:href="classnet_1_1un_1_1stream_1_1_socket.html" target="_top" xlink:title=" ">
<polygon fill="white" stroke="black" points="9,-0.5 9,-68.5 128,-68.5 128,-0.5 9,-0.5"/>
<text text-anchor="middle" x="68.5" y="-56.5" font-family="Helvetica,sans-Serif" font-size="10.00">net::un::stream::Socket</text>
<polyline fill="none" stroke="black" points="9,-49.5 128,-49.5 "/>
<text text-anchor="middle" x="68.5" y="-37.5" font-family="Helvetica,sans-Serif" font-size="10.00"> </text>
<polyline fill="none" stroke="black" points="9,-30.5 128,-30.5 "/>
<text text-anchor="start" x="17" y="-18.5" font-family="Helvetica,sans-Serif" font-size="10.00"># ~Socket()</text>
<text text-anchor="start" x="17" y="-7.5" font-family="Helvetica,sans-Serif" font-size="10.00"># create()</text>
</a>
</g>
</g>
<!-- Node6&#45;&gt;Node7 -->
<g id="edge6" class="edge">
<title>Node6&#45;&gt;Node7</title>
<path fill="none" stroke="midnightblue" d="M68.5,-96.2C68.5,-86.43 68.5,-76.98 68.5,-68.57"/>
<polygon fill="none" stroke="midnightblue" points="65,-96.47 68.5,-106.47 72,-96.47 65,-96.47"/>
</g>
<!-- Node9 -->
<g id="node9" class="node">
<title>Node9</title>
<g id="a_node9"><a xlink:href="classnet_1_1l2_1_1stream_1_1_socket.html" target="_top" xlink:title=" ">
<polygon fill="white" stroke="black" points="704.5,-6 704.5,-63 820.5,-63 820.5,-6 704.5,-6"/>
<text text-anchor="middle" x="762.5" y="-51" font-family="Helvetica,sans-Serif" font-size="10.00">net::l2::stream::Socket</text>
<polyline fill="none" stroke="black" points="704.5,-44 820.5,-44 "/>
<text text-anchor="middle" x="762.5" y="-32" font-family="Helvetica,sans-Serif" font-size="10.00"> </text>
<polyline fill="none" stroke="black" points="704.5,-25 820.5,-25 "/>
<text text-anchor="start" x="712.5" y="-13" font-family="Helvetica,sans-Serif" font-size="10.00"># create()</text>
</a>
</g>
</g>
<!-- Node8&#45;&gt;Node9 -->
<g id="edge8" class="edge">
<title>Node8&#45;&gt;Node9</title>
<path fill="none" stroke="midnightblue" d="M762.5,-96.29C762.5,-84.27 762.5,-72.74 762.5,-63"/>
<polygon fill="none" stroke="midnightblue" points="759,-96.47 762.5,-106.47 766,-96.47 759,-96.47"/>
</g>
<!-- Node11 -->
<g id="node11" class="node">
<title>Node11</title>
<g id="a_node11"><a xlink:href="classnet_1_1rf_1_1stream_1_1_socket.html" target="_top" xlink:title=" ">
<polygon fill="white" stroke="black" points="514,-6 514,-63 629,-63 629,-6 514,-6"/>
<text text-anchor="middle" x="571.5" y="-51" font-family="Helvetica,sans-Serif" font-size="10.00">net::rf::stream::Socket</text>
<polyline fill="none" stroke="black" points="514,-44 629,-44 "/>
<text text-anchor="middle" x="571.5" y="-32" font-family="Helvetica,sans-Serif" font-size="10.00"> </text>
<polyline fill="none" stroke="black" points="514,-25 629,-25 "/>
<text text-anchor="start" x="522" y="-13" font-family="Helvetica,sans-Serif" font-size="10.00"># create()</text>
</a>
</g>
</g>
<!-- Node10&#45;&gt;Node11 -->
<g id="edge10" class="edge">
<title>Node10&#45;&gt;Node11</title>
<path fill="none" stroke="midnightblue" d="M571.5,-96.29C571.5,-84.27 571.5,-72.74 571.5,-63"/>
<polygon fill="none" stroke="midnightblue" points="568,-96.47 571.5,-106.47 575,-96.47 568,-96.47"/>
</g>
<!-- Node13 -->
<g id="node13" class="node">
<title>Node13</title>
<g id="a_node13"><a xlink:href="classcore_1_1file_1_1_file_reader.html" target="_top" xlink:title=" ">
<polygon fill="white" stroke="black" points="886,-134 886,-235 993,-235 993,-134 886,-134"/>
<text text-anchor="middle" x="939.5" y="-223" font-family="Helvetica,sans-Serif" font-size="10.00">core::file::FileReader</text>
<polyline fill="none" stroke="black" points="886,-216 993,-216 "/>
<text text-anchor="middle" x="939.5" y="-204" font-family="Helvetica,sans-Serif" font-size="10.00"> </text>
<polyline fill="none" stroke="black" points="886,-197 993,-197 "/>
<text text-anchor="start" x="894" y="-185" font-family="Helvetica,sans-Serif" font-size="10.00">+ readEvent()</text>
<text text-anchor="start" x="894" y="-174" font-family="Helvetica,sans-Serif" font-size="10.00">+ connect()</text>
<text text-anchor="start" x="894" y="-163" font-family="Helvetica,sans-Serif" font-size="10.00"># FileReader()</text>
<text text-anchor="start" x="894" y="-152" font-family="Helvetica,sans-Serif" font-size="10.00">&#45; sinkDisconnected()</text>
<text text-anchor="start" x="894" y="-141" font-family="Helvetica,sans-Serif" font-size="10.00">&#45; unobservedEvent()</text>
</a>
</g>
</g>
<!-- Node12&#45;&gt;Node13 -->
<g id="edge12" class="edge">
<title>Node12&#45;&gt;Node13</title>
<path fill="none" stroke="midnightblue" d="M939.5,-349.47C939.5,-317.18 939.5,-270.6 939.5,-235.33"/>
<polygon fill="none" stroke="midnightblue" points="936,-349.84 939.5,-359.84 943,-349.84 936,-349.84"/>
</g>
<!-- Node16&#45;&gt;Node2 -->
<g id="edge16" class="edge">
<title>Node16&#45;&gt;Node2</title>
<path fill="none" stroke="orange" d="M434.99,-326.64C427.42,-315.84 420.82,-304.13 416.5,-292 413.21,-282.77 411.28,-272.8 410.29,-262.78"/>
<polygon fill="orange" stroke="orange" points="432.2,-328.75 440.95,-334.73 437.83,-324.6 432.2,-328.75"/>
<text text-anchor="middle" x="480" y="-284" font-family="Helvetica,sans-Serif" font-size="10.00"> &lt; net::in6::SocketAddress &gt;</text>
</g>
<!-- Node16&#45;&gt;Node4 -->
<g id="edge17" class="edge">
<title>Node16&#45;&gt;Node4</title>
<path fill="none" stroke="orange" d="M430.68,-373.37C384.72,-359.96 324.68,-335.23 288.5,-292 281.32,-283.42 275.96,-273.21 271.96,-262.54"/>
<polygon fill="orange" stroke="orange" points="429.98,-376.81 440.55,-376.15 431.87,-370.07 429.98,-376.81"/>
<text text-anchor="middle" x="349" y="-284" font-family="Helvetica,sans-Serif" font-size="10.00"> &lt; net::in::SocketAddress &gt;</text>
</g>
<!-- Node16&#45;&gt;Node6 -->
<g id="edge18" class="edge">
<title>Node16&#45;&gt;Node6</title>
<path fill="none" stroke="orange" d="M430.53,-381.29C358.35,-371.76 239.89,-348.27 154.5,-292 142.3,-283.96 130.99,-273.63 120.86,-262.59"/>
<polygon fill="orange" stroke="orange" points="430.47,-384.81 440.83,-382.6 431.35,-377.87 430.47,-384.81"/>
<text text-anchor="middle" x="216.5" y="-284" font-family="Helvetica,sans-Serif" font-size="10.00"> &lt; net::un::SocketAddress &gt;</text>
</g>
<!-- Node16&#45;&gt;Node8 -->
<g id="edge19" class="edge">
<title>Node16&#45;&gt;Node8</title>
<path fill="none" stroke="orange" d="M557.74,-361.41C594.04,-344.68 639.26,-320.73 674.5,-292 685.19,-283.29 695.52,-273.11 705.1,-262.58"/>
<polygon fill="orange" stroke="orange" points="555.9,-358.4 548.24,-365.72 558.79,-364.78 555.9,-358.4"/>
<text text-anchor="middle" x="747" y="-284" font-family="Helvetica,sans-Serif" font-size="10.00"> &lt; net::l2::SocketAddress &gt;</text>
</g>
<!-- Node16&#45;&gt;Node10 -->
<g id="edge20" class="edge">
<title>Node16&#45;&gt;Node10</title>
<path fill="none" stroke="orange" d="M543.77,-301.22C545.09,-298.13 546.34,-295.06 547.5,-292 551.04,-282.7 554.14,-272.74 556.83,-262.77"/>
<polygon fill="orange" stroke="orange" points="540.52,-299.91 539.64,-310.46 546.91,-302.76 540.52,-299.91"/>
<text text-anchor="middle" x="610.5" y="-284" font-family="Helvetica,sans-Serif" font-size="10.00"> &lt; net::rf::SocketAddress &gt;</text>
</g>
</g>
</svg>
