<?xml version="1.0" encoding="UTF-8" standalone="no"?>
<!DOCTYPE svg PUBLIC "-//W3C//DTD SVG 1.1//EN"
 "http://www.w3.org/Graphics/SVG/1.1/DTD/svg11.dtd">
<!-- Generated by graphviz version 2.43.0 (0)
 -->
<!-- Title: core::socket::stream::SocketConnection::sendToPeer Pages: 1 -->
<svg width="967pt" height="166pt"
 viewBox="0.00 0.00 967.00 165.50" xmlns="http://www.w3.org/2000/svg" xmlns:xlink="http://www.w3.org/1999/xlink">
<g id="graph0" class="graph" transform="scale(1 1) rotate(0) translate(4 161.5)">
<title>core::socket::stream::SocketConnection::sendToPeer</title>
<polygon fill="white" stroke="transparent" points="-4,4 -4,-161.5 963,-161.5 963,4 -4,4"/>
<!-- Node1 -->
<g id="node1" class="node">
<title>Node1</title>
<g id="a_node1"><a xlink:title=" ">
<polygon fill="#bfbfbf" stroke="black" points="0,-66.5 0,-96.5 171,-96.5 171,-66.5 0,-66.5"/>
<text text-anchor="start" x="8" y="-84.5" font-family="Helvetica,sans-Serif" font-size="10.00">core::socket::stream</text>
<text text-anchor="middle" x="85.5" y="-73.5" font-family="Helvetica,sans-Serif" font-size="10.00">::SocketConnection::sendToPeer</text>
</a>
</g>
</g>
<!-- Node2 -->
<g id="node2" class="node">
<title>Node2</title>
<g id="a_node2"><a xlink:href="classcore_1_1socket_1_1stream_1_1_socket_writer.html#ab37b0d0dff3ab0f18964cb36396f04b3" target="_top" xlink:title=" ">
<polygon fill="white" stroke="black" points="207,-66.5 207,-96.5 353,-96.5 353,-66.5 207,-66.5"/>
<text text-anchor="start" x="215" y="-84.5" font-family="Helvetica,sans-Serif" font-size="10.00">core::socket::stream</text>
<text text-anchor="middle" x="280" y="-73.5" font-family="Helvetica,sans-Serif" font-size="10.00">::SocketWriter::sendToPeer</text>
</a>
</g>
</g>
<!-- Node1&#45;&gt;Node2 -->
<g id="edge1" class="edge">
<title>Node1&#45;&gt;Node2</title>
<path fill="none" stroke="midnightblue" d="M171.21,-81.5C179.68,-81.5 188.26,-81.5 196.69,-81.5"/>
<polygon fill="midnightblue" stroke="midnightblue" points="196.9,-85 206.9,-81.5 196.9,-78 196.9,-85"/>
</g>
<!-- Node3 -->
<g id="node3" class="node">
<title>Node3</title>
<g id="a_node3"><a xlink:href="classcore_1_1_descriptor_event_receiver.html#afa983ac6b0ba8f28ce4c0fc16cd914f8" target="_top" xlink:title=" ">
<polygon fill="white" stroke="black" points="389,-66.5 389,-96.5 553,-96.5 553,-66.5 389,-66.5"/>
<text text-anchor="start" x="397" y="-84.5" font-family="Helvetica,sans-Serif" font-size="10.00">core::DescriptorEventReceiver</text>
<text text-anchor="middle" x="471" y="-73.5" font-family="Helvetica,sans-Serif" font-size="10.00">::resume</text>
</a>
</g>
</g>
<!-- Node2&#45;&gt;Node3 -->
<g id="edge2" class="edge">
<title>Node2&#45;&gt;Node3</title>
<path fill="none" stroke="midnightblue" d="M353.26,-81.5C361.65,-81.5 370.29,-81.5 378.89,-81.5"/>
<polygon fill="midnightblue" stroke="midnightblue" points="378.95,-85 388.95,-81.5 378.95,-78 378.95,-85"/>
</g>
<!-- Node4 -->
<g id="node4" class="node">
<title>Node4</title>
<g id="a_node4"><a xlink:href="classutils_1_1_timeval.html#a54b232dc1ffeea007100dcd1caad1987" target="_top" xlink:title=" ">
<polygon fill="white" stroke="black" points="599,-138 599,-157 746,-157 746,-138 599,-138"/>
<text text-anchor="middle" x="672.5" y="-145" font-family="Helvetica,sans-Serif" font-size="10.00">utils::Timeval::currentTime</text>
</a>
</g>
</g>
<!-- Node3&#45;&gt;Node4 -->
<g id="edge3" class="edge">
<title>Node3&#45;&gt;Node4</title>
<path fill="none" stroke="midnightblue" d="M505.54,-96.59C528.66,-106.6 560.28,-119.49 589,-128.5 597.06,-131.03 605.67,-133.38 614.16,-135.51"/>
<polygon fill="midnightblue" stroke="midnightblue" points="613.5,-138.95 624.04,-137.9 615.15,-132.15 613.5,-138.95"/>
</g>
<!-- Node6 -->
<g id="node6" class="node">
<title>Node6</title>
<g id="a_node6"><a xlink:href="classcore_1_1_event_receiver.html#aac62114d8385172bb2c536774a7dfcf7" target="_top" xlink:title=" ">
<polygon fill="white" stroke="black" points="615.5,-88.5 615.5,-118.5 729.5,-118.5 729.5,-88.5 615.5,-88.5"/>
<text text-anchor="start" x="623.5" y="-106.5" font-family="Helvetica,sans-Serif" font-size="10.00">core::EventReceiver</text>
<text text-anchor="middle" x="672.5" y="-95.5" font-family="Helvetica,sans-Serif" font-size="10.00">::getName</text>
</a>
</g>
</g>
<!-- Node3&#45;&gt;Node6 -->
<g id="edge5" class="edge">
<title>Node3&#45;&gt;Node6</title>
<path fill="none" stroke="midnightblue" d="M553.14,-90.45C570.48,-92.36 588.58,-94.36 605.27,-96.2"/>
<polygon fill="midnightblue" stroke="midnightblue" points="605.14,-99.7 615.46,-97.32 605.91,-92.75 605.14,-99.7"/>
</g>
<!-- Node8 -->
<g id="node8" class="node">
<title>Node8</title>
<g id="a_node8"><a xlink:href="classcore_1_1_observer.html#a12bf1ddfdb90f05f28d16c09ce0658f8" target="_top" xlink:title=" ">
<polygon fill="white" stroke="black" points="598,-50 598,-69 747,-69 747,-50 598,-50"/>
<text text-anchor="middle" x="672.5" y="-57" font-family="Helvetica,sans-Serif" font-size="10.00">core::Observer::isObserved</text>
</a>
</g>
</g>
<!-- Node3&#45;&gt;Node8 -->
<g id="edge7" class="edge">
<title>Node3&#45;&gt;Node8</title>
<path fill="none" stroke="midnightblue" d="M553.14,-72.55C564.57,-71.29 576.34,-69.99 587.82,-68.73"/>
<polygon fill="midnightblue" stroke="midnightblue" points="588.26,-72.2 597.82,-67.63 587.49,-65.24 588.26,-72.2"/>
</g>
<!-- Node9 -->
<g id="node9" class="node">
<title>Node9</title>
<g id="a_node9"><a xlink:href="classcore_1_1_descriptor_event_publisher.html#adef0cdee352a13b99772af079fb7bfe1" target="_top" xlink:title=" ">
<polygon fill="white" stroke="black" points="589,-0.5 589,-30.5 756,-30.5 756,-0.5 589,-0.5"/>
<text text-anchor="start" x="597" y="-18.5" font-family="Helvetica,sans-Serif" font-size="10.00">core::DescriptorEventPublisher</text>
<text text-anchor="middle" x="672.5" y="-7.5" font-family="Helvetica,sans-Serif" font-size="10.00">::resume</text>
</a>
</g>
</g>
<!-- Node3&#45;&gt;Node9 -->
<g id="edge8" class="edge">
<title>Node3&#45;&gt;Node9</title>
<path fill="none" stroke="midnightblue" d="M513.55,-66.45C535.84,-58.5 563.83,-48.72 589,-40.5 595.94,-38.23 603.24,-35.92 610.5,-33.66"/>
<polygon fill="midnightblue" stroke="midnightblue" points="611.82,-36.92 620.34,-30.63 609.76,-30.23 611.82,-36.92"/>
</g>
<!-- Node5 -->
<g id="node5" class="node">
<title>Node5</title>
<g id="a_node5"><a xlink:href="namespacecore_1_1system.html#acf9e7364dbf51f07083e05caa50d3b66" target="_top" xlink:title=" ">
<polygon fill="white" stroke="black" points="799.5,-138 799.5,-157 951.5,-157 951.5,-138 799.5,-138"/>
<text text-anchor="middle" x="875.5" y="-145" font-family="Helvetica,sans-Serif" font-size="10.00">core::system::gettimeofday</text>
</a>
</g>
</g>
<!-- Node4&#45;&gt;Node5 -->
<g id="edge4" class="edge">
<title>Node4&#45;&gt;Node5</title>
<path fill="none" stroke="midnightblue" d="M746.07,-147.5C760,-147.5 774.71,-147.5 789.01,-147.5"/>
<polygon fill="midnightblue" stroke="midnightblue" points="789.33,-151 799.33,-147.5 789.33,-144 789.33,-151"/>
</g>
<!-- Node7 -->
<g id="node7" class="node">
<title>Node7</title>
<g id="a_node7"><a xlink:href="classcore_1_1_event.html#add8f12b93d4937dcd6a4863cbe4fdb69" target="_top" xlink:title=" ">
<polygon fill="white" stroke="black" points="814.5,-94 814.5,-113 936.5,-113 936.5,-94 814.5,-94"/>
<text text-anchor="middle" x="875.5" y="-101" font-family="Helvetica,sans-Serif" font-size="10.00">core::Event::getName</text>
</a>
</g>
</g>
<!-- Node6&#45;&gt;Node7 -->
<g id="edge6" class="edge">
<title>Node6&#45;&gt;Node7</title>
<path fill="none" stroke="midnightblue" d="M729.76,-103.5C752.82,-103.5 779.78,-103.5 804.13,-103.5"/>
<polygon fill="midnightblue" stroke="midnightblue" points="804.39,-107 814.39,-103.5 804.39,-100 804.39,-107"/>
</g>
<!-- Node10 -->
<g id="node10" class="node">
<title>Node10</title>
<g id="a_node10"><a xlink:href="classcore_1_1_descriptor_event_publisher.html#a8cdba59fd3522f1e108a21f6f818840e" target="_top" xlink:title=" ">
<polygon fill="white" stroke="black" points="792,-0.5 792,-30.5 959,-30.5 959,-0.5 792,-0.5"/>
<text text-anchor="start" x="800" y="-18.5" font-family="Helvetica,sans-Serif" font-size="10.00">core::DescriptorEventPublisher</text>
<text text-anchor="middle" x="875.5" y="-7.5" font-family="Helvetica,sans-Serif" font-size="10.00">::muxOn</text>
</a>
</g>
</g>
<!-- Node9&#45;&gt;Node10 -->
<g id="edge9" class="edge">
<title>Node9&#45;&gt;Node10</title>
<path fill="none" stroke="midnightblue" d="M756.12,-15.5C764.61,-15.5 773.27,-15.5 781.85,-15.5"/>
<polygon fill="midnightblue" stroke="midnightblue" points="781.87,-19 791.87,-15.5 781.87,-12 781.87,-19"/>
</g>
</g>
</svg>
