<?xml version="1.0" encoding="UTF-8" standalone="no"?>
<!DOCTYPE svg PUBLIC "-//W3C//DTD SVG 1.1//EN"
 "http://www.w3.org/Graphics/SVG/1.1/DTD/svg11.dtd">
<!-- Generated by graphviz version 2.43.0 (0)
 -->
<!-- Title: core::socket::stream::tls::SocketServer&lt; ServerSocketT, SocketContextFactoryT &gt; Pages: 1 -->
<svg width="742pt" height="1156pt"
 viewBox="0.00 0.00 742.00 1156.00" xmlns="http://www.w3.org/2000/svg" xmlns:xlink="http://www.w3.org/1999/xlink">
<g id="graph0" class="graph" transform="scale(1 1) rotate(0) translate(4 1152)">
<title>core::socket::stream::tls::SocketServer&lt; ServerSocketT, SocketContextFactoryT &gt;</title>
<polygon fill="white" stroke="transparent" points="-4,4 -4,-1152 738,-1152 738,4 -4,4"/>
<!-- Node1 -->
<g id="node1" class="node">
<title>Node1</title>
<g id="a_node1"><a xlink:title=" ">
<polygon fill="#bfbfbf" stroke="black" points="283,-289.5 283,-456.5 449,-456.5 449,-289.5 283,-289.5"/>
<text text-anchor="start" x="291" y="-444.5" font-family="Helvetica,sans-Serif" font-size="10.00">core::socket::stream</text>
<text text-anchor="start" x="291" y="-433.5" font-family="Helvetica,sans-Serif" font-size="10.00">::tls::SocketServer&lt;</text>
<text text-anchor="start" x="291" y="-422.5" font-family="Helvetica,sans-Serif" font-size="10.00"> ServerSocketT, SocketContext</text>
<text text-anchor="middle" x="366" y="-411.5" font-family="Helvetica,sans-Serif" font-size="10.00">FactoryT &gt;</text>
<polyline fill="none" stroke="black" points="283,-404.5 449,-404.5 "/>
<text text-anchor="start" x="291" y="-392.5" font-family="Helvetica,sans-Serif" font-size="10.00">&#45; sniSslCtxs</text>
<text text-anchor="start" x="291" y="-381.5" font-family="Helvetica,sans-Serif" font-size="10.00">&#45; forceSni</text>
<polyline fill="none" stroke="black" points="283,-374.5 449,-374.5 "/>
<text text-anchor="start" x="291" y="-362.5" font-family="Helvetica,sans-Serif" font-size="10.00">+ SocketServer()</text>
<text text-anchor="start" x="291" y="-351.5" font-family="Helvetica,sans-Serif" font-size="10.00">+ SocketServer()</text>
<text text-anchor="start" x="291" y="-340.5" font-family="Helvetica,sans-Serif" font-size="10.00">+ addSniCert()</text>
<text text-anchor="start" x="291" y="-329.5" font-family="Helvetica,sans-Serif" font-size="10.00">+ addSniCerts()</text>
<text text-anchor="start" x="291" y="-318.5" font-family="Helvetica,sans-Serif" font-size="10.00">+ setForceSni()</text>
<text text-anchor="start" x="291" y="-307.5" font-family="Helvetica,sans-Serif" font-size="10.00">&#45; addSniCtx()</text>
<text text-anchor="start" x="291" y="-296.5" font-family="Helvetica,sans-Serif" font-size="10.00">&#45; freeSniCerts()</text>
</a>
</g>
</g>
<!-- Node5 -->
<g id="node5" class="node">
<title>Node5</title>
<g id="a_node5"><a xlink:href="classweb_1_1http_1_1server_1_1_server.html" target="_top" xlink:title=" ">
<polygon fill="white" stroke="black" points="13.5,-134 13.5,-246 166.5,-246 166.5,-134 13.5,-134"/>
<text text-anchor="start" x="21.5" y="-234" font-family="Helvetica,sans-Serif" font-size="10.00">web::http::server::</text>
<text text-anchor="start" x="21.5" y="-223" font-family="Helvetica,sans-Serif" font-size="10.00">Server&lt; net::in::stream</text>
<text text-anchor="start" x="21.5" y="-212" font-family="Helvetica,sans-Serif" font-size="10.00">::tls::SocketServer, Request,</text>
<text text-anchor="middle" x="90" y="-201" font-family="Helvetica,sans-Serif" font-size="10.00"> Response &gt;</text>
<polyline fill="none" stroke="black" points="13.5,-194 166.5,-194 "/>
<text text-anchor="middle" x="90" y="-182" font-family="Helvetica,sans-Serif" font-size="10.00"> </text>
<polyline fill="none" stroke="black" points="13.5,-175 166.5,-175 "/>
<text text-anchor="start" x="21.5" y="-163" font-family="Helvetica,sans-Serif" font-size="10.00">+ Server()</text>
<text text-anchor="start" x="21.5" y="-152" font-family="Helvetica,sans-Serif" font-size="10.00">+ Server()</text>
<text text-anchor="start" x="21.5" y="-141" font-family="Helvetica,sans-Serif" font-size="10.00">+ listen()</text>
</a>
</g>
</g>
<!-- Node1&#45;&gt;Node5 -->
<g id="edge5" class="edge">
<title>Node1&#45;&gt;Node5</title>
<path fill="none" stroke="midnightblue" d="M274.22,-312.86C244.42,-293.55 211.25,-271.95 181,-252 176.4,-248.96 171.67,-245.83 166.9,-242.67"/>
<polygon fill="none" stroke="midnightblue" points="272.65,-316.01 282.94,-318.5 276.45,-310.13 272.65,-316.01"/>
</g>
<!-- Node7 -->
<g id="node7" class="node">
<title>Node7</title>
<g id="a_node7"><a xlink:href="classweb_1_1http_1_1server_1_1_server.html" target="_top" xlink:title=" ">
<polygon fill="white" stroke="black" points="190.5,-128.5 190.5,-251.5 357.5,-251.5 357.5,-128.5 190.5,-128.5"/>
<text text-anchor="start" x="198.5" y="-239.5" font-family="Helvetica,sans-Serif" font-size="10.00">web::http::server::</text>
<text text-anchor="start" x="198.5" y="-228.5" font-family="Helvetica,sans-Serif" font-size="10.00">Server&lt; net::un::stream</text>
<text text-anchor="start" x="198.5" y="-217.5" font-family="Helvetica,sans-Serif" font-size="10.00">::tls::SocketServer, web</text>
<text text-anchor="start" x="198.5" y="-206.5" font-family="Helvetica,sans-Serif" font-size="10.00">::http::server::Request,</text>
<text text-anchor="middle" x="274" y="-195.5" font-family="Helvetica,sans-Serif" font-size="10.00"> web::http::server::Response &gt;</text>
<polyline fill="none" stroke="black" points="190.5,-188.5 357.5,-188.5 "/>
<text text-anchor="middle" x="274" y="-176.5" font-family="Helvetica,sans-Serif" font-size="10.00"> </text>
<polyline fill="none" stroke="black" points="190.5,-169.5 357.5,-169.5 "/>
<text text-anchor="start" x="198.5" y="-157.5" font-family="Helvetica,sans-Serif" font-size="10.00">+ Server()</text>
<text text-anchor="start" x="198.5" y="-146.5" font-family="Helvetica,sans-Serif" font-size="10.00">+ Server()</text>
<text text-anchor="start" x="198.5" y="-135.5" font-family="Helvetica,sans-Serif" font-size="10.00">+ listen()</text>
</a>
</g>
</g>
<!-- Node1&#45;&gt;Node7 -->
<g id="edge7" class="edge">
<title>Node1&#45;&gt;Node7</title>
<path fill="none" stroke="midnightblue" d="M319.46,-280.44C314.47,-270.63 309.5,-260.83 304.76,-251.52"/>
<polygon fill="none" stroke="midnightblue" points="316.39,-282.12 324.04,-289.44 322.63,-278.94 316.39,-282.12"/>
</g>
<!-- Node9 -->
<g id="node9" class="node">
<title>Node9</title>
<g id="a_node9"><a xlink:href="classweb_1_1http_1_1server_1_1_server.html" target="_top" xlink:title=" ">
<polygon fill="white" stroke="black" points="376.5,-128.5 376.5,-251.5 543.5,-251.5 543.5,-128.5 376.5,-128.5"/>
<text text-anchor="start" x="384.5" y="-239.5" font-family="Helvetica,sans-Serif" font-size="10.00">web::http::server::</text>
<text text-anchor="start" x="384.5" y="-228.5" font-family="Helvetica,sans-Serif" font-size="10.00">Server&lt; net::in6::stream</text>
<text text-anchor="start" x="384.5" y="-217.5" font-family="Helvetica,sans-Serif" font-size="10.00">::tls::SocketServer, web</text>
<text text-anchor="start" x="384.5" y="-206.5" font-family="Helvetica,sans-Serif" font-size="10.00">::http::server::Request,</text>
<text text-anchor="middle" x="460" y="-195.5" font-family="Helvetica,sans-Serif" font-size="10.00"> web::http::server::Response &gt;</text>
<polyline fill="none" stroke="black" points="376.5,-188.5 543.5,-188.5 "/>
<text text-anchor="middle" x="460" y="-176.5" font-family="Helvetica,sans-Serif" font-size="10.00"> </text>
<polyline fill="none" stroke="black" points="376.5,-169.5 543.5,-169.5 "/>
<text text-anchor="start" x="384.5" y="-157.5" font-family="Helvetica,sans-Serif" font-size="10.00">+ Server()</text>
<text text-anchor="start" x="384.5" y="-146.5" font-family="Helvetica,sans-Serif" font-size="10.00">+ Server()</text>
<text text-anchor="start" x="384.5" y="-135.5" font-family="Helvetica,sans-Serif" font-size="10.00">+ listen()</text>
</a>
</g>
</g>
<!-- Node1&#45;&gt;Node9 -->
<g id="edge9" class="edge">
<title>Node1&#45;&gt;Node9</title>
<path fill="none" stroke="midnightblue" d="M413.55,-280.44C418.65,-270.63 423.73,-260.83 428.57,-251.52"/>
<polygon fill="none" stroke="midnightblue" points="410.38,-278.96 408.87,-289.44 416.59,-282.18 410.38,-278.96"/>
</g>
<!-- Node11 -->
<g id="node11" class="node">
<title>Node11</title>
<g id="a_node11"><a xlink:href="classweb_1_1http_1_1server_1_1_server.html" target="_top" xlink:title=" ">
<polygon fill="white" stroke="black" points="563.5,-128.5 563.5,-251.5 730.5,-251.5 730.5,-128.5 563.5,-128.5"/>
<text text-anchor="start" x="571.5" y="-239.5" font-family="Helvetica,sans-Serif" font-size="10.00">web::http::server::</text>
<text text-anchor="start" x="571.5" y="-228.5" font-family="Helvetica,sans-Serif" font-size="10.00">Server&lt; net::rc::stream</text>
<text text-anchor="start" x="571.5" y="-217.5" font-family="Helvetica,sans-Serif" font-size="10.00">::tls::SocketServer, web</text>
<text text-anchor="start" x="571.5" y="-206.5" font-family="Helvetica,sans-Serif" font-size="10.00">::http::server::Request,</text>
<text text-anchor="middle" x="647" y="-195.5" font-family="Helvetica,sans-Serif" font-size="10.00"> web::http::server::Response &gt;</text>
<polyline fill="none" stroke="black" points="563.5,-188.5 730.5,-188.5 "/>
<text text-anchor="middle" x="647" y="-176.5" font-family="Helvetica,sans-Serif" font-size="10.00"> </text>
<polyline fill="none" stroke="black" points="563.5,-169.5 730.5,-169.5 "/>
<text text-anchor="start" x="571.5" y="-157.5" font-family="Helvetica,sans-Serif" font-size="10.00">+ Server()</text>
<text text-anchor="start" x="571.5" y="-146.5" font-family="Helvetica,sans-Serif" font-size="10.00">+ Server()</text>
<text text-anchor="start" x="571.5" y="-135.5" font-family="Helvetica,sans-Serif" font-size="10.00">+ listen()</text>
</a>
</g>
</g>
<!-- Node1&#45;&gt;Node11 -->
<g id="edge11" class="edge">
<title>Node1&#45;&gt;Node11</title>
<path fill="none" stroke="midnightblue" d="M457.83,-313.21C488.15,-293.76 522.04,-271.98 553,-252 556.43,-249.78 559.93,-247.52 563.47,-245.24"/>
<polygon fill="none" stroke="midnightblue" points="455.9,-310.28 449.37,-318.63 459.68,-316.17 455.9,-310.28"/>
</g>
<!-- Node2 -->
<g id="node2" class="node">
<title>Node2</title>
<g id="a_node2"><a xlink:href="classcore_1_1socket_1_1stream_1_1_socket_server.html" target="_top" xlink:title=" ">
<polygon fill="white" stroke="black" points="273,-494.5 273,-738.5 459,-738.5 459,-494.5 273,-494.5"/>
<text text-anchor="start" x="281" y="-726.5" font-family="Helvetica,sans-Serif" font-size="10.00">core::socket::stream</text>
<text text-anchor="start" x="281" y="-715.5" font-family="Helvetica,sans-Serif" font-size="10.00">::SocketServer&lt; ServerSocket</text>
<text text-anchor="start" x="281" y="-704.5" font-family="Helvetica,sans-Serif" font-size="10.00">T, core::socket::stream::</text>
<text text-anchor="start" x="281" y="-693.5" font-family="Helvetica,sans-Serif" font-size="10.00">tls::SocketAcceptor, SocketContext</text>
<text text-anchor="middle" x="366" y="-682.5" font-family="Helvetica,sans-Serif" font-size="10.00">FactoryT &gt;</text>
<polyline fill="none" stroke="black" points="273,-675.5 459,-675.5 "/>
<text text-anchor="start" x="281" y="-663.5" font-family="Helvetica,sans-Serif" font-size="10.00"># socketContextFactory</text>
<text text-anchor="start" x="281" y="-652.5" font-family="Helvetica,sans-Serif" font-size="10.00"># _onConnect</text>
<text text-anchor="start" x="281" y="-641.5" font-family="Helvetica,sans-Serif" font-size="10.00"># _onConnected</text>
<text text-anchor="start" x="281" y="-630.5" font-family="Helvetica,sans-Serif" font-size="10.00"># _onDisconnect</text>
<text text-anchor="start" x="281" y="-619.5" font-family="Helvetica,sans-Serif" font-size="10.00"># options</text>
<polyline fill="none" stroke="black" points="273,-612.5 459,-612.5 "/>
<text text-anchor="start" x="281" y="-600.5" font-family="Helvetica,sans-Serif" font-size="10.00">+ SocketServer()</text>
<text text-anchor="start" x="281" y="-589.5" font-family="Helvetica,sans-Serif" font-size="10.00">+ SocketServer()</text>
<text text-anchor="start" x="281" y="-578.5" font-family="Helvetica,sans-Serif" font-size="10.00">+ SocketServer()</text>
<text text-anchor="start" x="281" y="-567.5" font-family="Helvetica,sans-Serif" font-size="10.00">+ ~SocketServer()</text>
<text text-anchor="start" x="281" y="-556.5" font-family="Helvetica,sans-Serif" font-size="10.00">+ listen()</text>
<text text-anchor="start" x="281" y="-545.5" font-family="Helvetica,sans-Serif" font-size="10.00">+ onConnect()</text>
<text text-anchor="start" x="281" y="-534.5" font-family="Helvetica,sans-Serif" font-size="10.00">+ onConnected()</text>
<text text-anchor="start" x="281" y="-523.5" font-family="Helvetica,sans-Serif" font-size="10.00">+ onDisconnect()</text>
<text text-anchor="start" x="281" y="-512.5" font-family="Helvetica,sans-Serif" font-size="10.00">+ getSocketContextFactory()</text>
<text text-anchor="start" x="281" y="-501.5" font-family="Helvetica,sans-Serif" font-size="10.00">&#45; SocketServer()</text>
</a>
</g>
</g>
<!-- Node2&#45;&gt;Node1 -->
<g id="edge1" class="edge">
<title>Node2&#45;&gt;Node1</title>
<path fill="none" stroke="midnightblue" d="M366,-484.19C366,-474.8 366,-465.49 366,-456.51"/>
<polygon fill="none" stroke="midnightblue" points="362.5,-484.4 366,-494.4 369.5,-484.4 362.5,-484.4"/>
</g>
<!-- Node3 -->
<g id="node3" class="node">
<title>Node3</title>
<g id="a_node3"><a xlink:title=" ">
<polygon fill="white" stroke="#bfbfbf" points="319,-1090.5 319,-1147.5 405,-1147.5 405,-1090.5 319,-1090.5"/>
<text text-anchor="middle" x="362" y="-1135.5" font-family="Helvetica,sans-Serif" font-size="10.00">ServerSocketT</text>
<polyline fill="none" stroke="#bfbfbf" points="319,-1128.5 405,-1128.5 "/>
<text text-anchor="middle" x="362" y="-1116.5" font-family="Helvetica,sans-Serif" font-size="10.00"> </text>
<polyline fill="none" stroke="#bfbfbf" points="319,-1109.5 405,-1109.5 "/>
<text text-anchor="middle" x="362" y="-1097.5" font-family="Helvetica,sans-Serif" font-size="10.00"> </text>
</a>
</g>
</g>
<!-- Node3&#45;&gt;Node2 -->
<g id="edge2" class="edge">
<title>Node3&#45;&gt;Node2</title>
<path fill="none" stroke="midnightblue" d="M362.3,-1080.03C362.88,-1008.27 364.14,-849.97 365.03,-738.63"/>
<polygon fill="none" stroke="midnightblue" points="358.8,-1080.35 362.22,-1090.38 365.8,-1080.41 358.8,-1080.35"/>
</g>
<!-- Node4 -->
<g id="node4" class="node">
<title>Node4</title>
<g id="a_node4"><a xlink:href="classcore_1_1socket_1_1stream_1_1_socket_server.html" target="_top" xlink:title=" ">
<polygon fill="white" stroke="black" points="378,-819.5 378,-1052.5 564,-1052.5 564,-819.5 378,-819.5"/>
<text text-anchor="start" x="386" y="-1040.5" font-family="Helvetica,sans-Serif" font-size="10.00">core::socket::stream</text>
<text text-anchor="start" x="386" y="-1029.5" font-family="Helvetica,sans-Serif" font-size="10.00">::SocketServer&lt; ServerSocket</text>
<text text-anchor="start" x="386" y="-1018.5" font-family="Helvetica,sans-Serif" font-size="10.00">T, SocketAcceptorT, SocketContext</text>
<text text-anchor="middle" x="471" y="-1007.5" font-family="Helvetica,sans-Serif" font-size="10.00">FactoryT &gt;</text>
<polyline fill="none" stroke="black" points="378,-1000.5 564,-1000.5 "/>
<text text-anchor="start" x="386" y="-988.5" font-family="Helvetica,sans-Serif" font-size="10.00"># socketContextFactory</text>
<text text-anchor="start" x="386" y="-977.5" font-family="Helvetica,sans-Serif" font-size="10.00"># _onConnect</text>
<text text-anchor="start" x="386" y="-966.5" font-family="Helvetica,sans-Serif" font-size="10.00"># _onConnected</text>
<text text-anchor="start" x="386" y="-955.5" font-family="Helvetica,sans-Serif" font-size="10.00"># _onDisconnect</text>
<text text-anchor="start" x="386" y="-944.5" font-family="Helvetica,sans-Serif" font-size="10.00"># options</text>
<polyline fill="none" stroke="black" points="378,-937.5 564,-937.5 "/>
<text text-anchor="start" x="386" y="-925.5" font-family="Helvetica,sans-Serif" font-size="10.00">+ SocketServer()</text>
<text text-anchor="start" x="386" y="-914.5" font-family="Helvetica,sans-Serif" font-size="10.00">+ SocketServer()</text>
<text text-anchor="start" x="386" y="-903.5" font-family="Helvetica,sans-Serif" font-size="10.00">+ SocketServer()</text>
<text text-anchor="start" x="386" y="-892.5" font-family="Helvetica,sans-Serif" font-size="10.00">+ ~SocketServer()</text>
<text text-anchor="start" x="386" y="-881.5" font-family="Helvetica,sans-Serif" font-size="10.00">+ listen()</text>
<text text-anchor="start" x="386" y="-870.5" font-family="Helvetica,sans-Serif" font-size="10.00">+ onConnect()</text>
<text text-anchor="start" x="386" y="-859.5" font-family="Helvetica,sans-Serif" font-size="10.00">+ onConnected()</text>
<text text-anchor="start" x="386" y="-848.5" font-family="Helvetica,sans-Serif" font-size="10.00">+ onDisconnect()</text>
<text text-anchor="start" x="386" y="-837.5" font-family="Helvetica,sans-Serif" font-size="10.00">+ getSocketContextFactory()</text>
<text text-anchor="start" x="386" y="-826.5" font-family="Helvetica,sans-Serif" font-size="10.00">&#45; SocketServer()</text>
</a>
</g>
</g>
<!-- Node3&#45;&gt;Node4 -->
<g id="edge4" class="edge">
<title>Node3&#45;&gt;Node4</title>
<path fill="none" stroke="midnightblue" d="M384.04,-1081.4C389.31,-1072.64 395.22,-1062.83 401.42,-1052.55"/>
<polygon fill="none" stroke="midnightblue" points="380.95,-1079.74 378.79,-1090.12 386.95,-1083.35 380.95,-1079.74"/>
</g>
<!-- Node4&#45;&gt;Node2 -->
<g id="edge3" class="edge">
<title>Node4&#45;&gt;Node2</title>
<path fill="none" stroke="orange" d="M429.61,-809.84C421.85,-786.38 413.75,-761.88 406.03,-738.55"/>
<polygon fill="orange" stroke="orange" points="426.33,-811.08 432.8,-819.48 432.98,-808.88 426.33,-811.08"/>
<text text-anchor="start" x="424" y="-793" font-family="Helvetica,sans-Serif" font-size="10.00"> &lt; ServerSocketT, core</text>
<text text-anchor="start" x="424" y="-782" font-family="Helvetica,sans-Serif" font-size="10.00">::socket::stream::tls</text>
<text text-anchor="start" x="424" y="-771" font-family="Helvetica,sans-Serif" font-size="10.00">::SocketAcceptor, SocketContext</text>
<text text-anchor="middle" x="503" y="-760" font-family="Helvetica,sans-Serif" font-size="10.00">FactoryT &gt;</text>
</g>
<!-- Node6 -->
<g id="node6" class="node">
<title>Node6</title>
<g id="a_node6"><a xlink:href="classweb_1_1http_1_1tls_1_1in_1_1_server.html" target="_top" xlink:title=" ">
<polygon fill="white" stroke="black" points="0,-0.5 0,-90.5 170,-90.5 170,-0.5 0,-0.5"/>
<text text-anchor="start" x="8" y="-78.5" font-family="Helvetica,sans-Serif" font-size="10.00">web::http::tls::in</text>
<text text-anchor="middle" x="85" y="-67.5" font-family="Helvetica,sans-Serif" font-size="10.00">::Server&lt; Request, Response &gt;</text>
<polyline fill="none" stroke="black" points="0,-60.5 170,-60.5 "/>
<text text-anchor="middle" x="85" y="-48.5" font-family="Helvetica,sans-Serif" font-size="10.00"> </text>
<polyline fill="none" stroke="black" points="0,-41.5 170,-41.5 "/>
<text text-anchor="start" x="8" y="-29.5" font-family="Helvetica,sans-Serif" font-size="10.00">+ listen()</text>
<text text-anchor="start" x="8" y="-18.5" font-family="Helvetica,sans-Serif" font-size="10.00">+ listen()</text>
<text text-anchor="start" x="8" y="-7.5" font-family="Helvetica,sans-Serif" font-size="10.00">+ listen()</text>
</a>
</g>
</g>
<!-- Node5&#45;&gt;Node6 -->
<g id="edge6" class="edge">
<title>Node5&#45;&gt;Node6</title>
<path fill="none" stroke="midnightblue" d="M87.71,-123.76C87.32,-112.63 86.92,-101.29 86.56,-90.86"/>
<polygon fill="none" stroke="midnightblue" points="84.22,-124.03 88.07,-133.91 91.21,-123.79 84.22,-124.03"/>
</g>
<!-- Node8 -->
<g id="node8" class="node">
<title>Node8</title>
<g id="a_node8"><a xlink:href="classweb_1_1http_1_1tls_1_1un_1_1_server.html" target="_top" xlink:title=" ">
<polygon fill="white" stroke="black" points="188,-11.5 188,-79.5 358,-79.5 358,-11.5 188,-11.5"/>
<text text-anchor="start" x="196" y="-67.5" font-family="Helvetica,sans-Serif" font-size="10.00">web::http::tls::un</text>
<text text-anchor="middle" x="273" y="-56.5" font-family="Helvetica,sans-Serif" font-size="10.00">::Server&lt; Request, Response &gt;</text>
<polyline fill="none" stroke="black" points="188,-49.5 358,-49.5 "/>
<text text-anchor="middle" x="273" y="-37.5" font-family="Helvetica,sans-Serif" font-size="10.00"> </text>
<polyline fill="none" stroke="black" points="188,-30.5 358,-30.5 "/>
<text text-anchor="start" x="196" y="-18.5" font-family="Helvetica,sans-Serif" font-size="10.00">+ listen()</text>
</a>
</g>
</g>
<!-- Node7&#45;&gt;Node8 -->
<g id="edge8" class="edge">
<title>Node7&#45;&gt;Node8</title>
<path fill="none" stroke="midnightblue" d="M273.5,-117.95C273.41,-104.56 273.31,-91.16 273.23,-79.64"/>
<polygon fill="none" stroke="midnightblue" points="270,-118.18 273.57,-128.15 277,-118.13 270,-118.18"/>
</g>
<!-- Node10 -->
<g id="node10" class="node">
<title>Node10</title>
<g id="a_node10"><a xlink:href="classweb_1_1http_1_1tls_1_1in6_1_1_server.html" target="_top" xlink:title=" ">
<polygon fill="white" stroke="black" points="376,-0.5 376,-90.5 546,-90.5 546,-0.5 376,-0.5"/>
<text text-anchor="start" x="384" y="-78.5" font-family="Helvetica,sans-Serif" font-size="10.00">web::http::tls::in6</text>
<text text-anchor="middle" x="461" y="-67.5" font-family="Helvetica,sans-Serif" font-size="10.00">::Server&lt; Request, Response &gt;</text>
<polyline fill="none" stroke="black" points="376,-60.5 546,-60.5 "/>
<text text-anchor="middle" x="461" y="-48.5" font-family="Helvetica,sans-Serif" font-size="10.00"> </text>
<polyline fill="none" stroke="black" points="376,-41.5 546,-41.5 "/>
<text text-anchor="start" x="384" y="-29.5" font-family="Helvetica,sans-Serif" font-size="10.00">+ listen()</text>
<text text-anchor="start" x="384" y="-18.5" font-family="Helvetica,sans-Serif" font-size="10.00">+ listen()</text>
<text text-anchor="start" x="384" y="-7.5" font-family="Helvetica,sans-Serif" font-size="10.00">+ listen()</text>
</a>
</g>
</g>
<!-- Node9&#45;&gt;Node10 -->
<g id="edge10" class="edge">
<title>Node9&#45;&gt;Node10</title>
<path fill="none" stroke="midnightblue" d="M460.5,-118.08C460.56,-108.77 460.63,-99.46 460.69,-90.77"/>
<polygon fill="none" stroke="midnightblue" points="457,-118.13 460.43,-128.15 464,-118.18 457,-118.13"/>
</g>
<!-- Node12 -->
<g id="node12" class="node">
<title>Node12</title>
<g id="a_node12"><a xlink:href="classweb_1_1http_1_1tls_1_1rc_1_1_server.html" target="_top" xlink:title=" ">
<polygon fill="white" stroke="black" points="564,-0.5 564,-90.5 734,-90.5 734,-0.5 564,-0.5"/>
<text text-anchor="start" x="572" y="-78.5" font-family="Helvetica,sans-Serif" font-size="10.00">web::http::tls::rc</text>
<text text-anchor="middle" x="649" y="-67.5" font-family="Helvetica,sans-Serif" font-size="10.00">::Server&lt; Request, Response &gt;</text>
<polyline fill="none" stroke="black" points="564,-60.5 734,-60.5 "/>
<text text-anchor="middle" x="649" y="-48.5" font-family="Helvetica,sans-Serif" font-size="10.00"> </text>
<polyline fill="none" stroke="black" points="564,-41.5 734,-41.5 "/>
<text text-anchor="start" x="572" y="-29.5" font-family="Helvetica,sans-Serif" font-size="10.00">+ listen()</text>
<text text-anchor="start" x="572" y="-18.5" font-family="Helvetica,sans-Serif" font-size="10.00">+ listen()</text>
<text text-anchor="start" x="572" y="-7.5" font-family="Helvetica,sans-Serif" font-size="10.00">+ listen()</text>
</a>
</g>
</g>
<!-- Node11&#45;&gt;Node12 -->
<g id="edge12" class="edge">
<title>Node11&#45;&gt;Node12</title>
<path fill="none" stroke="midnightblue" d="M648,-118.08C648.13,-108.77 648.26,-99.46 648.38,-90.77"/>
<polygon fill="none" stroke="midnightblue" points="644.49,-118.11 647.85,-128.15 651.49,-118.2 644.49,-118.11"/>
</g>
</g>
</svg>
