<?xml version="1.0" encoding="UTF-8" standalone="no"?>
<!DOCTYPE svg PUBLIC "-//W3C//DTD SVG 1.1//EN"
 "http://www.w3.org/Graphics/SVG/1.1/DTD/svg11.dtd">
<!-- Generated by graphviz version 2.43.0 (0)
 -->
<!-- Title: core::pipe::PipeSource::PipeSource Pages: 1 -->
<svg width="703pt" height="260pt"
 viewBox="0.00 0.00 703.00 259.50" xmlns="http://www.w3.org/2000/svg" xmlns:xlink="http://www.w3.org/1999/xlink">
<g id="graph0" class="graph" transform="scale(1 1) rotate(0) translate(4 255.5)">
<title>core::pipe::PipeSource::PipeSource</title>
<polygon fill="white" stroke="transparent" points="-4,4 -4,-255.5 699,-255.5 699,4 -4,4"/>
<!-- Node1 -->
<g id="node1" class="node">
<title>Node1</title>
<g id="a_node1"><a xlink:title=" ">
<polygon fill="#bfbfbf" stroke="black" points="0,-124.5 0,-154.5 125,-154.5 125,-124.5 0,-124.5"/>
<text text-anchor="start" x="8" y="-142.5" font-family="Helvetica,sans-Serif" font-size="10.00">core::pipe::PipeSource</text>
<text text-anchor="middle" x="62.5" y="-131.5" font-family="Helvetica,sans-Serif" font-size="10.00">::PipeSource</text>
</a>
</g>
</g>
<!-- Node2 -->
<g id="node2" class="node">
<title>Node2</title>
<g id="a_node2"><a xlink:href="classcore_1_1_event_receiver.html#aae56563ec614ab06a115413240e6095f" target="_top" xlink:title=" ">
<polygon fill="white" stroke="black" points="161,-168.5 161,-198.5 275,-198.5 275,-168.5 161,-168.5"/>
<text text-anchor="start" x="169" y="-186.5" font-family="Helvetica,sans-Serif" font-size="10.00">core::EventReceiver</text>
<text text-anchor="middle" x="218" y="-175.5" font-family="Helvetica,sans-Serif" font-size="10.00">::enable</text>
</a>
</g>
</g>
<!-- Node1&#45;&gt;Node2 -->
<g id="edge1" class="edge">
<title>Node1&#45;&gt;Node2</title>
<path fill="none" stroke="midnightblue" d="M115.9,-154.52C128.42,-158.11 141.92,-161.98 154.84,-165.68"/>
<polygon fill="midnightblue" stroke="midnightblue" points="154,-169.08 164.58,-168.47 155.93,-162.35 154,-169.08"/>
</g>
<!-- Node9 -->
<g id="node9" class="node">
<title>Node9</title>
<g id="a_node9"><a xlink:href="classcore_1_1_event_receiver.html#ae460e190a6588ac04bcfc6b0d0777376" target="_top" xlink:title=" ">
<polygon fill="white" stroke="black" points="161,-100.5 161,-130.5 275,-130.5 275,-100.5 161,-100.5"/>
<text text-anchor="start" x="169" y="-118.5" font-family="Helvetica,sans-Serif" font-size="10.00">core::EventReceiver</text>
<text text-anchor="middle" x="218" y="-107.5" font-family="Helvetica,sans-Serif" font-size="10.00">::suspend</text>
</a>
</g>
</g>
<!-- Node1&#45;&gt;Node9 -->
<g id="edge8" class="edge">
<title>Node1&#45;&gt;Node9</title>
<path fill="none" stroke="midnightblue" d="M125.05,-129.88C133.56,-128.55 142.34,-127.17 150.93,-125.83"/>
<polygon fill="midnightblue" stroke="midnightblue" points="151.56,-129.27 160.9,-124.27 150.48,-122.36 151.56,-129.27"/>
</g>
<!-- Node3 -->
<g id="node3" class="node">
<title>Node3</title>
<g id="a_node3"><a xlink:href="classutils_1_1_timeval.html#a54b232dc1ffeea007100dcd1caad1987" target="_top" xlink:title=" ">
<polygon fill="white" stroke="black" points="324.5,-232 324.5,-251 471.5,-251 471.5,-232 324.5,-232"/>
<text text-anchor="middle" x="398" y="-239" font-family="Helvetica,sans-Serif" font-size="10.00">utils::Timeval::currentTime</text>
</a>
</g>
</g>
<!-- Node2&#45;&gt;Node3 -->
<g id="edge2" class="edge">
<title>Node2&#45;&gt;Node3</title>
<path fill="none" stroke="midnightblue" d="M250.39,-198.5C267.92,-206.45 290.34,-215.9 311,-222.5 319.25,-225.14 328.07,-227.54 336.79,-229.68"/>
<polygon fill="midnightblue" stroke="midnightblue" points="336.03,-233.09 346.56,-231.98 337.63,-226.28 336.03,-233.09"/>
</g>
<!-- Node5 -->
<g id="node5" class="node">
<title>Node5</title>
<g id="a_node5"><a xlink:href="classcore_1_1_descriptor_event_dispatcher.html#aeb068dfbe3beb3fca03f7fe45cd5ae5b" target="_top" xlink:title=" ">
<polygon fill="white" stroke="black" points="311,-144.5 311,-174.5 485,-174.5 485,-144.5 311,-144.5"/>
<text text-anchor="start" x="319" y="-162.5" font-family="Helvetica,sans-Serif" font-size="10.00">core::DescriptorEventDispatcher</text>
<text text-anchor="middle" x="398" y="-151.5" font-family="Helvetica,sans-Serif" font-size="10.00">::enable</text>
</a>
</g>
</g>
<!-- Node2&#45;&gt;Node5 -->
<g id="edge4" class="edge">
<title>Node2&#45;&gt;Node5</title>
<path fill="none" stroke="midnightblue" d="M275.32,-175.91C283.45,-174.81 291.99,-173.66 300.64,-172.49"/>
<polygon fill="midnightblue" stroke="midnightblue" points="301.36,-175.93 310.8,-171.12 300.42,-168.99 301.36,-175.93"/>
</g>
<!-- Node8 -->
<g id="node8" class="node">
<title>Node8</title>
<g id="a_node8"><a xlink:href="classcore_1_1_observer.html#aeff595f74f25efea85406cf700e13550" target="_top" xlink:title=" ">
<polygon fill="white" stroke="black" points="328.5,-194 328.5,-213 467.5,-213 467.5,-194 328.5,-194"/>
<text text-anchor="middle" x="398" y="-201" font-family="Helvetica,sans-Serif" font-size="10.00">core::Observer::observed</text>
</a>
</g>
</g>
<!-- Node2&#45;&gt;Node8 -->
<g id="edge7" class="edge">
<title>Node2&#45;&gt;Node8</title>
<path fill="none" stroke="midnightblue" d="M275.32,-189.83C288.97,-191.36 303.82,-193.03 318.3,-194.66"/>
<polygon fill="midnightblue" stroke="midnightblue" points="317.92,-198.14 328.24,-195.77 318.7,-191.18 317.92,-198.14"/>
</g>
<!-- Node4 -->
<g id="node4" class="node">
<title>Node4</title>
<g id="a_node4"><a xlink:href="namespacecore_1_1system.html#acf9e7364dbf51f07083e05caa50d3b66" target="_top" xlink:title=" ">
<polygon fill="white" stroke="black" points="532,-232 532,-251 684,-251 684,-232 532,-232"/>
<text text-anchor="middle" x="608" y="-239" font-family="Helvetica,sans-Serif" font-size="10.00">core::system::gettimeofday</text>
</a>
</g>
</g>
<!-- Node3&#45;&gt;Node4 -->
<g id="edge3" class="edge">
<title>Node3&#45;&gt;Node4</title>
<path fill="none" stroke="midnightblue" d="M471.75,-241.5C487.85,-241.5 505.06,-241.5 521.62,-241.5"/>
<polygon fill="midnightblue" stroke="midnightblue" points="521.82,-245 531.82,-241.5 521.82,-238 521.82,-245"/>
</g>
<!-- Node6 -->
<g id="node6" class="node">
<title>Node6</title>
<g id="a_node6"><a xlink:href="classcore_1_1_event_receiver.html#a945c04c8e000b708049e9422960e9739" target="_top" xlink:title=" ">
<polygon fill="white" stroke="black" points="551,-98.5 551,-128.5 665,-128.5 665,-98.5 551,-98.5"/>
<text text-anchor="start" x="559" y="-116.5" font-family="Helvetica,sans-Serif" font-size="10.00">core::EventReceiver</text>
<text text-anchor="middle" x="608" y="-105.5" font-family="Helvetica,sans-Serif" font-size="10.00">::getRegisteredFd</text>
</a>
</g>
</g>
<!-- Node5&#45;&gt;Node6 -->
<g id="edge5" class="edge">
<title>Node5&#45;&gt;Node6</title>
<path fill="none" stroke="midnightblue" d="M467.11,-144.44C490.85,-139.19 517.43,-133.31 541,-128.1"/>
<polygon fill="midnightblue" stroke="midnightblue" points="541.89,-131.48 550.9,-125.91 540.38,-124.65 541.89,-131.48"/>
</g>
<!-- Node7 -->
<g id="node7" class="node">
<title>Node7</title>
<g id="a_node7"><a xlink:href="classcore_1_1_event_receiver.html#a677995a821e9226e5dcbf92182884477" target="_top" xlink:title=" ">
<polygon fill="white" stroke="black" points="551,-147.5 551,-177.5 665,-177.5 665,-147.5 551,-147.5"/>
<text text-anchor="start" x="559" y="-165.5" font-family="Helvetica,sans-Serif" font-size="10.00">core::EventReceiver</text>
<text text-anchor="middle" x="608" y="-154.5" font-family="Helvetica,sans-Serif" font-size="10.00">::isEnabled</text>
</a>
</g>
</g>
<!-- Node5&#45;&gt;Node7 -->
<g id="edge6" class="edge">
<title>Node5&#45;&gt;Node7</title>
<path fill="none" stroke="midnightblue" d="M485.1,-160.74C503.69,-161.01 523.07,-161.29 540.76,-161.54"/>
<polygon fill="midnightblue" stroke="midnightblue" points="540.92,-165.05 550.97,-161.69 541.02,-158.05 540.92,-165.05"/>
</g>
<!-- Node9&#45;&gt;Node7 -->
<g id="edge9" class="edge">
<title>Node9&#45;&gt;Node7</title>
<path fill="none" stroke="midnightblue" d="M275.04,-117.39C329.05,-119.76 412.96,-124.87 485,-135.5 503.29,-138.2 522.92,-142.09 540.97,-146.09"/>
<polygon fill="midnightblue" stroke="midnightblue" points="540.3,-149.52 550.82,-148.31 541.84,-142.69 540.3,-149.52"/>
</g>
<!-- Node10 -->
<g id="node10" class="node">
<title>Node10</title>
<g id="a_node10"><a xlink:href="classcore_1_1_descriptor_event_dispatcher.html#aaebce3510314723cb81ae2d51f1ddaf0" target="_top" xlink:title=" ">
<polygon fill="white" stroke="black" points="311,-54.5 311,-84.5 485,-84.5 485,-54.5 311,-54.5"/>
<text text-anchor="start" x="319" y="-72.5" font-family="Helvetica,sans-Serif" font-size="10.00">core::DescriptorEventDispatcher</text>
<text text-anchor="middle" x="398" y="-61.5" font-family="Helvetica,sans-Serif" font-size="10.00">::suspend</text>
</a>
</g>
</g>
<!-- Node9&#45;&gt;Node10 -->
<g id="edge10" class="edge">
<title>Node9&#45;&gt;Node10</title>
<path fill="none" stroke="midnightblue" d="M275.32,-100.95C292.42,-96.53 311.39,-91.62 329.17,-87.03"/>
<polygon fill="midnightblue" stroke="midnightblue" points="330.09,-90.41 338.9,-84.51 328.34,-83.63 330.09,-90.41"/>
</g>
<!-- Node10&#45;&gt;Node6 -->
<g id="edge11" class="edge">
<title>Node10&#45;&gt;Node6</title>
<path fill="none" stroke="midnightblue" d="M470,-84.52C492.96,-89.38 518.32,-94.74 540.91,-99.52"/>
<polygon fill="midnightblue" stroke="midnightblue" points="540.24,-102.95 550.75,-101.6 541.69,-96.11 540.24,-102.95"/>
</g>
<!-- Node11 -->
<g id="node11" class="node">
<title>Node11</title>
<g id="a_node11"><a xlink:href="classcore_1_1_event_receiver.html#a3c6fec4001aa28b328c23573c70ad159" target="_top" xlink:title=" ">
<polygon fill="white" stroke="black" points="551,-0.5 551,-30.5 665,-30.5 665,-0.5 551,-0.5"/>
<text text-anchor="start" x="559" y="-18.5" font-family="Helvetica,sans-Serif" font-size="10.00">core::EventReceiver</text>
<text text-anchor="middle" x="608" y="-7.5" font-family="Helvetica,sans-Serif" font-size="10.00">::isSuspended</text>
</a>
</g>
</g>
<!-- Node10&#45;&gt;Node11 -->
<g id="edge12" class="edge">
<title>Node10&#45;&gt;Node11</title>
<path fill="none" stroke="midnightblue" d="M456.94,-54.46C483.06,-47.68 514.04,-39.63 541.05,-32.62"/>
<polygon fill="midnightblue" stroke="midnightblue" points="542.01,-35.99 550.81,-30.09 540.25,-29.21 542.01,-35.99"/>
</g>
<!-- Node12 -->
<g id="node12" class="node">
<title>Node12</title>
<g id="a_node12"><a xlink:href="classcore_1_1_descriptor_event_dispatcher.html#adea584c2b0119033735c5013f4a0b424" target="_top" xlink:title=" ">
<polygon fill="white" stroke="black" points="521,-49.5 521,-79.5 695,-79.5 695,-49.5 521,-49.5"/>
<text text-anchor="start" x="529" y="-67.5" font-family="Helvetica,sans-Serif" font-size="10.00">core::DescriptorEventDispatcher</text>
<text text-anchor="middle" x="608" y="-56.5" font-family="Helvetica,sans-Serif" font-size="10.00">::modOff</text>
</a>
</g>
</g>
<!-- Node10&#45;&gt;Node12 -->
<g id="edge13" class="edge">
<title>Node10&#45;&gt;Node12</title>
<path fill="none" stroke="midnightblue" d="M485.1,-67.43C493.62,-67.23 502.3,-67.02 510.91,-66.81"/>
<polygon fill="midnightblue" stroke="midnightblue" points="511.05,-70.31 520.96,-66.57 510.88,-63.31 511.05,-70.31"/>
</g>
</g>
</svg>
