<?xml version="1.0" encoding="UTF-8" standalone="no"?>
<!DOCTYPE svg PUBLIC "-//W3C//DTD SVG 1.1//EN"
 "http://www.w3.org/Graphics/SVG/1.1/DTD/svg11.dtd">
<!-- Generated by graphviz version 2.43.0 (0)
 -->
<!-- Title: utils::Config Pages: 1 -->
<svg width="326pt" height="338pt"
 viewBox="0.00 0.00 326.00 338.00" xmlns="http://www.w3.org/2000/svg" xmlns:xlink="http://www.w3.org/1999/xlink">
<g id="graph0" class="graph" transform="scale(1 1) rotate(0) translate(4 334)">
<title>utils::Config</title>
<polygon fill="white" stroke="transparent" points="-4,4 -4,-334 322,-334 322,4 -4,4"/>
<!-- Node1 -->
<g id="node1" class="node">
<title>Node1</title>
<g id="a_node1"><a xlink:title=" ">
<polygon fill="#bfbfbf" stroke="black" points="0,-0.5 0,-19.5 75,-19.5 75,-0.5 0,-0.5"/>
<text text-anchor="middle" x="37.5" y="-7.5" font-family="Helvetica,sans-Serif" font-size="10.00">utils::Config</text>
</a>
</g>
</g>
<!-- Node2 -->
<g id="node2" class="node">
<title>Node2</title>
<g id="a_node2"><a xlink:href="class_c_l_i_1_1_app.html" target="_top" xlink:title="Creates a command line program, with very few defaults.">
<polygon fill="white" stroke="black" points="58.5,-100.5 58.5,-119.5 114.5,-119.5 114.5,-100.5 58.5,-100.5"/>
<text text-anchor="middle" x="86.5" y="-107.5" font-family="Helvetica,sans-Serif" font-size="10.00">CLI::App</text>
</a>
</g>
</g>
<!-- Node2&#45;&gt;Node1 -->
<g id="edge1" class="edge">
<title>Node2&#45;&gt;Node1</title>
<path fill="none" stroke="#404040" d="M60.44,-100.42C51.95,-96.26 43.43,-90.3 38.5,-82 29.53,-66.91 30.23,-46.64 32.62,-31.62"/>
<polygon fill="none" stroke="#404040" points="32.67,-31.36 29.94,-24.69 35.06,-19.6 37.78,-26.28 32.67,-31.36"/>
<text text-anchor="middle" x="51" y="-57.5" font-family="Helvetica,sans-Serif" font-size="10.00"> &#45;app</text>
</g>
<!-- Node2&#45;&gt;Node2 -->
<g id="edge2" class="edge">
<title>Node2&#45;&gt;Node2</title>
<path fill="none" stroke="#404040" d="M114.8,-116C124.59,-116.06 132.5,-114.06 132.5,-110 132.5,-107.91 130.4,-106.36 127.02,-105.36"/>
<polygon fill="none" stroke="#404040" points="126.73,-105.33 120.32,-108.64 114.8,-104 121.21,-100.69 126.73,-105.33"/>
<text text-anchor="middle" x="157" y="-107.5" font-family="Helvetica,sans-Serif" font-size="10.00"> #parent_</text>
</g>
<!-- Node6 -->
<g id="node6" class="node">
<title>Node6</title>
<g id="a_node6"><a xlink:href="class_c_l_i_1_1_option.html" target="_top" xlink:title=" ">
<polygon fill="white" stroke="black" points="122.5,-0.5 122.5,-19.5 192.5,-19.5 192.5,-0.5 122.5,-0.5"/>
<text text-anchor="middle" x="157.5" y="-7.5" font-family="Helvetica,sans-Serif" font-size="10.00">CLI::Option</text>
</a>
</g>
</g>
<!-- Node2&#45;&gt;Node6 -->
<g id="edge9" class="edge">
<title>Node2&#45;&gt;Node6</title>
<path fill="none" stroke="#404040" d="M82.8,-100.19C77.39,-85.75 69.3,-56.79 82.5,-38 89.23,-28.42 99.71,-22.22 110.72,-18.22"/>
<polygon fill="none" stroke="#404040" points="110.74,-18.21 115.35,-12.67 122.25,-14.79 117.63,-20.34 110.74,-18.21"/>
<text text-anchor="middle" x="107" y="-57.5" font-family="Helvetica,sans-Serif" font-size="10.00"> #parent_</text>
</g>
<!-- Node3 -->
<g id="node3" class="node">
<title>Node3</title>
<g id="a_node3"><a xlink:href="class_c_l_i_1_1_option_defaults.html" target="_top" xlink:title=" ">
<polygon fill="white" stroke="black" points="49,-167.5 49,-186.5 160,-186.5 160,-167.5 49,-167.5"/>
<text text-anchor="middle" x="104.5" y="-174.5" font-family="Helvetica,sans-Serif" font-size="10.00">CLI::OptionDefaults</text>
</a>
</g>
</g>
<!-- Node3&#45;&gt;Node2 -->
<g id="edge3" class="edge">
<title>Node3&#45;&gt;Node2</title>
<path fill="none" stroke="#404040" d="M102.07,-167.23C99.54,-158.07 95.47,-143.38 92.12,-131.31"/>
<polygon fill="none" stroke="#404040" points="92.09,-131.19 86.64,-126.48 88.89,-119.63 94.35,-124.34 92.09,-131.19"/>
<text text-anchor="middle" x="144" y="-141" font-family="Helvetica,sans-Serif" font-size="10.00"> #option_defaults_</text>
</g>
<!-- Node4 -->
<g id="node4" class="node">
<title>Node4</title>
<g id="a_node4"><a xlink:href="class_c_l_i_1_1_option_base.html" target="_top" xlink:title=" ">
<polygon fill="white" stroke="black" points="22.5,-243.5 22.5,-262.5 212.5,-262.5 212.5,-243.5 22.5,-243.5"/>
<text text-anchor="middle" x="117.5" y="-250.5" font-family="Helvetica,sans-Serif" font-size="10.00">CLI::OptionBase&lt; OptionDefaults &gt;</text>
</a>
</g>
</g>
<!-- Node4&#45;&gt;Node3 -->
<g id="edge4" class="edge">
<title>Node4&#45;&gt;Node3</title>
<path fill="none" stroke="midnightblue" d="M114.17,-233.07C111.56,-218.18 108.03,-198.11 106.04,-186.77"/>
<polygon fill="none" stroke="midnightblue" points="110.78,-233.98 115.96,-243.22 117.67,-232.77 110.78,-233.98"/>
</g>
<!-- Node5 -->
<g id="node5" class="node">
<title>Node5</title>
<g id="a_node5"><a xlink:href="class_c_l_i_1_1_option_base.html" target="_top" xlink:title=" ">
<polygon fill="white" stroke="black" points="109.5,-310.5 109.5,-329.5 251.5,-329.5 251.5,-310.5 109.5,-310.5"/>
<text text-anchor="middle" x="180.5" y="-317.5" font-family="Helvetica,sans-Serif" font-size="10.00">CLI::OptionBase&lt; CRTP &gt;</text>
</a>
</g>
</g>
<!-- Node5&#45;&gt;Node4 -->
<g id="edge5" class="edge">
<title>Node5&#45;&gt;Node4</title>
<path fill="none" stroke="orange" d="M137.37,-305.84C131.23,-302.25 125.61,-297.72 121.5,-292 115.38,-283.49 115.29,-271.01 116.12,-262.7"/>
<polygon fill="orange" stroke="orange" points="136.13,-309.13 146.64,-310.45 139.24,-302.86 136.13,-309.13"/>
<text text-anchor="middle" x="171.5" y="-284" font-family="Helvetica,sans-Serif" font-size="10.00"> &lt; OptionDefaults &gt;</text>
</g>
<!-- Node7 -->
<g id="node7" class="node">
<title>Node7</title>
<g id="a_node7"><a xlink:href="class_c_l_i_1_1_option_base.html" target="_top" xlink:title=" ">
<polygon fill="white" stroke="black" points="169,-205.5 169,-224.5 318,-224.5 318,-205.5 169,-205.5"/>
<text text-anchor="middle" x="243.5" y="-212.5" font-family="Helvetica,sans-Serif" font-size="10.00">CLI::OptionBase&lt; Option &gt;</text>
</a>
</g>
</g>
<!-- Node5&#45;&gt;Node7 -->
<g id="edge8" class="edge">
<title>Node5&#45;&gt;Node7</title>
<path fill="none" stroke="orange" d="M208.01,-304.82C213.06,-301.21 217.87,-296.92 221.5,-292 236.82,-271.21 241.5,-239.97 242.91,-224.84"/>
<polygon fill="orange" stroke="orange" points="206,-301.95 199.45,-310.28 209.76,-307.85 206,-301.95"/>
<text text-anchor="middle" x="256.5" y="-284" font-family="Helvetica,sans-Serif" font-size="10.00"> &lt; Option &gt;</text>
</g>
<!-- Node6&#45;&gt;Node2 -->
<g id="edge6" class="edge">
<title>Node6&#45;&gt;Node2</title>
<path fill="none" stroke="#404040" d="M156.87,-19.85C155.41,-34.34 150.66,-63.39 135.5,-82 131.5,-86.91 126.36,-91.07 120.92,-94.54"/>
<polygon fill="none" stroke="#404040" points="120.81,-94.6 117.49,-101 110.3,-100.39 113.63,-93.99 120.81,-94.6"/>
<text text-anchor="middle" x="190" y="-74" font-family="Helvetica,sans-Serif" font-size="10.00"> #config_ptr_</text>
<text text-anchor="middle" x="190" y="-63" font-family="Helvetica,sans-Serif" font-size="10.00">#help_all_ptr_</text>
<text text-anchor="middle" x="190" y="-52" font-family="Helvetica,sans-Serif" font-size="10.00">#help_ptr_</text>
<text text-anchor="middle" x="190" y="-41" font-family="Helvetica,sans-Serif" font-size="10.00">#version_ptr_</text>
</g>
<!-- Node7&#45;&gt;Node6 -->
<g id="edge7" class="edge">
<title>Node7&#45;&gt;Node6</title>
<path fill="none" stroke="midnightblue" d="M248.02,-194.97C255.15,-160 264.8,-84.85 229.5,-38 220.74,-26.38 206.39,-19.76 192.79,-15.99"/>
<polygon fill="none" stroke="midnightblue" points="244.51,-194.67 245.77,-205.18 251.34,-196.17 244.51,-194.67"/>
</g>
</g>
</svg>
