<?xml version="1.0" encoding="UTF-8" standalone="no"?>
<!DOCTYPE svg PUBLIC "-//W3C//DTD SVG 1.1//EN"
 "http://www.w3.org/Graphics/SVG/1.1/DTD/svg11.dtd">
<!-- Generated by graphviz version 2.43.0 (0)
 -->
<!-- Title: net::DynamicLoader::dlCloseDelayed Pages: 1 -->
<svg width="612pt" height="130pt"
 viewBox="0.00 0.00 612.00 129.50" xmlns="http://www.w3.org/2000/svg" xmlns:xlink="http://www.w3.org/1999/xlink">
<g id="graph0" class="graph" transform="scale(1 1) rotate(0) translate(4 125.5)">
<title>net::DynamicLoader::dlCloseDelayed</title>
<polygon fill="white" stroke="transparent" points="-4,4 -4,-125.5 608,-125.5 608,4 -4,4"/>
<!-- Node1 -->
<g id="node1" class="node">
<title>Node1</title>
<g id="a_node1"><a xlink:title=" ">
<polygon fill="#bfbfbf" stroke="black" points="500,-63 500,-93 604,-93 604,-63 500,-63"/>
<text text-anchor="start" x="508" y="-81" font-family="Helvetica,sans-Serif" font-size="10.00">net::DynamicLoader</text>
<text text-anchor="middle" x="552" y="-70" font-family="Helvetica,sans-Serif" font-size="10.00">::dlCloseDelayed</text>
</a>
</g>
</g>
<!-- Node2 -->
<g id="node2" class="node">
<title>Node2</title>
<g id="a_node2"><a xlink:href="classweb_1_1http_1_1_socket_context_upgrade_factory_selector.html#a674d3db6a410b2dcf2171df2478e1bf6" target="_top" xlink:title=" ">
<polygon fill="white" stroke="black" points="318,-91 318,-121 464,-121 464,-91 318,-91"/>
<text text-anchor="start" x="326" y="-109" font-family="Helvetica,sans-Serif" font-size="10.00">web::http::SocketContext</text>
<text text-anchor="middle" x="391" y="-98" font-family="Helvetica,sans-Serif" font-size="10.00">UpgradeFactorySelector::load</text>
</a>
</g>
</g>
<!-- Node1&#45;&gt;Node2 -->
<g id="edge1" class="edge">
<title>Node1&#45;&gt;Node2</title>
<path fill="none" stroke="midnightblue" d="M489.78,-88.78C481.41,-90.25 472.76,-91.78 464.23,-93.28"/>
<polygon fill="midnightblue" stroke="midnightblue" points="490.57,-92.19 499.82,-87.01 489.36,-85.3 490.57,-92.19"/>
</g>
<!-- Node3 -->
<g id="node3" class="node">
<title>Node3</title>
<g id="a_node3"><a xlink:href="classweb_1_1http_1_1_socket_context_upgrade_factory_selector.html#a95a372b68288705669f80c5721eff016" target="_top" xlink:title=" ">
<polygon fill="white" stroke="black" points="327,-30.5 327,-71.5 455,-71.5 455,-30.5 327,-30.5"/>
<text text-anchor="start" x="335" y="-59.5" font-family="Helvetica,sans-Serif" font-size="10.00">web::http::SocketContext</text>
<text text-anchor="start" x="335" y="-48.5" font-family="Helvetica,sans-Serif" font-size="10.00">UpgradeFactorySelector</text>
<text text-anchor="middle" x="391" y="-37.5" font-family="Helvetica,sans-Serif" font-size="10.00">::unload</text>
</a>
</g>
</g>
<!-- Node1&#45;&gt;Node3 -->
<g id="edge2" class="edge">
<title>Node1&#45;&gt;Node3</title>
<path fill="none" stroke="midnightblue" d="M489.94,-67.63C478.51,-65.69 466.55,-63.66 455.06,-61.71"/>
<polygon fill="midnightblue" stroke="midnightblue" points="489.37,-71.08 499.82,-69.31 490.54,-64.18 489.37,-71.08"/>
</g>
<!-- Node4 -->
<g id="node4" class="node">
<title>Node4</title>
<g id="a_node4"><a xlink:href="classweb_1_1http_1_1client_1_1_socket_context_upgrade_factory.html#a254e57fe75d644633ca8ab5667e04f60" target="_top" xlink:title=" ">
<polygon fill="white" stroke="black" points="130,-60.5 130,-101.5 282,-101.5 282,-60.5 130,-60.5"/>
<text text-anchor="start" x="138" y="-89.5" font-family="Helvetica,sans-Serif" font-size="10.00">web::http::client::</text>
<text text-anchor="start" x="138" y="-78.5" font-family="Helvetica,sans-Serif" font-size="10.00">SocketContextUpgradeFactory</text>
<text text-anchor="middle" x="206" y="-67.5" font-family="Helvetica,sans-Serif" font-size="10.00">::checkRefCount</text>
</a>
</g>
</g>
<!-- Node3&#45;&gt;Node4 -->
<g id="edge3" class="edge">
<title>Node3&#45;&gt;Node4</title>
<path fill="none" stroke="midnightblue" d="M316.87,-62.99C305.46,-64.86 293.66,-66.79 282.21,-68.67"/>
<polygon fill="midnightblue" stroke="midnightblue" points="317.46,-66.44 326.77,-61.37 316.33,-59.53 317.46,-66.44"/>
</g>
<!-- Node6 -->
<g id="node6" class="node">
<title>Node6</title>
<g id="a_node6"><a xlink:href="classweb_1_1http_1_1server_1_1_socket_context_upgrade_factory.html#ad6da4e4f4825434741da9130a3d77e46" target="_top" xlink:title=" ">
<polygon fill="white" stroke="black" points="130,-0.5 130,-41.5 282,-41.5 282,-0.5 130,-0.5"/>
<text text-anchor="start" x="138" y="-29.5" font-family="Helvetica,sans-Serif" font-size="10.00">web::http::server::</text>
<text text-anchor="start" x="138" y="-18.5" font-family="Helvetica,sans-Serif" font-size="10.00">SocketContextUpgradeFactory</text>
<text text-anchor="middle" x="206" y="-7.5" font-family="Helvetica,sans-Serif" font-size="10.00">::checkRefCount</text>
</a>
</g>
</g>
<!-- Node3&#45;&gt;Node6 -->
<g id="edge5" class="edge">
<title>Node3&#45;&gt;Node6</title>
<path fill="none" stroke="midnightblue" d="M316.87,-39.01C305.46,-37.14 293.66,-35.21 282.21,-33.33"/>
<polygon fill="midnightblue" stroke="midnightblue" points="316.33,-42.47 326.77,-40.63 317.46,-35.56 316.33,-42.47"/>
</g>
<!-- Node5 -->
<g id="node5" class="node">
<title>Node5</title>
<g id="a_node5"><a xlink:href="classweb_1_1http_1_1client_1_1_request.html#ade3f2c0c18eb527560f212631a627a0d" target="_top" xlink:title=" ">
<polygon fill="white" stroke="black" points="0,-66 0,-96 94,-96 94,-66 0,-66"/>
<text text-anchor="start" x="8" y="-84" font-family="Helvetica,sans-Serif" font-size="10.00">web::http::client::</text>
<text text-anchor="middle" x="47" y="-73" font-family="Helvetica,sans-Serif" font-size="10.00">Request::upgrade</text>
</a>
</g>
</g>
<!-- Node4&#45;&gt;Node5 -->
<g id="edge4" class="edge">
<title>Node4&#45;&gt;Node5</title>
<path fill="none" stroke="midnightblue" d="M119.49,-81C110.81,-81 102.24,-81 94.21,-81"/>
<polygon fill="midnightblue" stroke="midnightblue" points="119.72,-84.5 129.72,-81 119.72,-77.5 119.72,-84.5"/>
</g>
</g>
</svg>
