<?xml version="1.0" encoding="UTF-8" standalone="no"?>
<!DOCTYPE svg PUBLIC "-//W3C//DTD SVG 1.1//EN"
 "http://www.w3.org/Graphics/SVG/1.1/DTD/svg11.dtd">
<!-- Generated by graphviz version 2.43.0 (0)
 -->
<!-- Title: net::rf::stream::tls::config::ConfigSocketServer Pages: 1 -->
<svg width="538pt" height="788pt"
 viewBox="0.00 0.00 537.50 788.00" xmlns="http://www.w3.org/2000/svg" xmlns:xlink="http://www.w3.org/1999/xlink">
<g id="graph0" class="graph" transform="scale(1 1) rotate(0) translate(4 784)">
<title>net::rf::stream::tls::config::ConfigSocketServer</title>
<polygon fill="white" stroke="transparent" points="-4,4 -4,-784 533.5,-784 533.5,4 -4,4"/>
<!-- Node1 -->
<g id="node1" class="node">
<title>Node1</title>
<g id="a_node1"><a xlink:title=" ">
<polygon fill="#bfbfbf" stroke="black" points="83.5,-0.5 83.5,-68.5 237.5,-68.5 237.5,-0.5 83.5,-0.5"/>
<text text-anchor="start" x="91.5" y="-56.5" font-family="Helvetica,sans-Serif" font-size="10.00">net::rf::stream::tls</text>
<text text-anchor="middle" x="160.5" y="-45.5" font-family="Helvetica,sans-Serif" font-size="10.00">::config::ConfigSocketServer</text>
<polyline fill="none" stroke="black" points="83.5,-38.5 237.5,-38.5 "/>
<text text-anchor="middle" x="160.5" y="-26.5" font-family="Helvetica,sans-Serif" font-size="10.00"> </text>
<polyline fill="none" stroke="black" points="83.5,-19.5 237.5,-19.5 "/>
<text text-anchor="start" x="91.5" y="-7.5" font-family="Helvetica,sans-Serif" font-size="10.00">+ ConfigSocketServer()</text>
</a>
</g>
</g>
<!-- Node2 -->
<g id="node2" class="node">
<title>Node2</title>
<g id="a_node2"><a xlink:href="classnet_1_1rf_1_1stream_1_1config_1_1_config_server_socket.html" target="_top" xlink:title=" ">
<polygon fill="white" stroke="black" points="187,-155 187,-223 318,-223 318,-155 187,-155"/>
<text text-anchor="start" x="195" y="-211" font-family="Helvetica,sans-Serif" font-size="10.00">net::rf::stream::config</text>
<text text-anchor="middle" x="252.5" y="-200" font-family="Helvetica,sans-Serif" font-size="10.00">::ConfigServerSocket</text>
<polyline fill="none" stroke="black" points="187,-193 318,-193 "/>
<text text-anchor="middle" x="252.5" y="-181" font-family="Helvetica,sans-Serif" font-size="10.00"> </text>
<polyline fill="none" stroke="black" points="187,-174 318,-174 "/>
<text text-anchor="start" x="195" y="-162" font-family="Helvetica,sans-Serif" font-size="10.00">+ ConfigServerSocket()</text>
</a>
</g>
</g>
<!-- Node2&#45;&gt;Node1 -->
<g id="edge1" class="edge">
<title>Node2&#45;&gt;Node1</title>
<path fill="none" stroke="midnightblue" d="M227.28,-146.2C212.52,-121.74 194.16,-91.29 180.42,-68.53"/>
<polygon fill="none" stroke="midnightblue" points="224.37,-148.16 232.54,-154.91 230.37,-144.54 224.37,-148.16"/>
</g>
<!-- Node3 -->
<g id="node3" class="node">
<title>Node3</title>
<g id="a_node3"><a xlink:href="classnet_1_1config_1_1_config_listen.html" target="_top" xlink:title=" ">
<polygon fill="white" stroke="black" points="216,-370 216,-526 351,-526 351,-370 216,-370"/>
<text text-anchor="middle" x="283.5" y="-514" font-family="Helvetica,sans-Serif" font-size="10.00">net::config::ConfigListen</text>
<polyline fill="none" stroke="black" points="216,-507 351,-507 "/>
<text text-anchor="start" x="224" y="-495" font-family="Helvetica,sans-Serif" font-size="10.00">&#45; backlogOpt</text>
<text text-anchor="start" x="224" y="-484" font-family="Helvetica,sans-Serif" font-size="10.00">&#45; acceptsPerTickOpt</text>
<text text-anchor="start" x="224" y="-473" font-family="Helvetica,sans-Serif" font-size="10.00">&#45; backlog</text>
<text text-anchor="start" x="224" y="-462" font-family="Helvetica,sans-Serif" font-size="10.00">&#45; backlogSet</text>
<text text-anchor="start" x="224" y="-451" font-family="Helvetica,sans-Serif" font-size="10.00">&#45; acceptsPerTick</text>
<text text-anchor="start" x="224" y="-440" font-family="Helvetica,sans-Serif" font-size="10.00">&#45; acceptsPerTickSet</text>
<polyline fill="none" stroke="black" points="216,-433 351,-433 "/>
<text text-anchor="start" x="224" y="-421" font-family="Helvetica,sans-Serif" font-size="10.00">+ ConfigListen()</text>
<text text-anchor="start" x="224" y="-410" font-family="Helvetica,sans-Serif" font-size="10.00">+ getBacklog()</text>
<text text-anchor="start" x="224" y="-399" font-family="Helvetica,sans-Serif" font-size="10.00">+ setBacklog()</text>
<text text-anchor="start" x="224" y="-388" font-family="Helvetica,sans-Serif" font-size="10.00">+ getAcceptsPerTick()</text>
<text text-anchor="start" x="224" y="-377" font-family="Helvetica,sans-Serif" font-size="10.00">+ setAcceptsPerTick()</text>
</a>
</g>
</g>
<!-- Node3&#45;&gt;Node2 -->
<g id="edge2" class="edge">
<title>Node3&#45;&gt;Node2</title>
<path fill="none" stroke="midnightblue" d="M272.97,-359.7C267.31,-312.75 260.65,-257.58 256.5,-223.2"/>
<polygon fill="none" stroke="midnightblue" points="269.53,-360.38 274.2,-369.89 276.48,-359.54 269.53,-360.38"/>
</g>
<!-- Node4 -->
<g id="node4" class="node">
<title>Node4</title>
<g id="a_node4"><a xlink:href="classnet_1_1config_1_1_config_base.html" target="_top" xlink:title=" ">
<polygon fill="white" stroke="black" points="52.5,-623.5 52.5,-779.5 182.5,-779.5 182.5,-623.5 52.5,-623.5"/>
<text text-anchor="middle" x="117.5" y="-767.5" font-family="Helvetica,sans-Serif" font-size="10.00">net::config::ConfigBase</text>
<polyline fill="none" stroke="black" points="52.5,-760.5 182.5,-760.5 "/>
<text text-anchor="start" x="60.5" y="-748.5" font-family="Helvetica,sans-Serif" font-size="10.00">&#45; baseSc</text>
<text text-anchor="start" x="60.5" y="-737.5" font-family="Helvetica,sans-Serif" font-size="10.00">&#45; name</text>
<polyline fill="none" stroke="black" points="52.5,-730.5 182.5,-730.5 "/>
<text text-anchor="start" x="60.5" y="-718.5" font-family="Helvetica,sans-Serif" font-size="10.00">+ ConfigBase()</text>
<text text-anchor="start" x="60.5" y="-707.5" font-family="Helvetica,sans-Serif" font-size="10.00">+ ConfigBase()</text>
<text text-anchor="start" x="60.5" y="-696.5" font-family="Helvetica,sans-Serif" font-size="10.00">+ ConfigBase()</text>
<text text-anchor="start" x="60.5" y="-685.5" font-family="Helvetica,sans-Serif" font-size="10.00">+ operator=()</text>
<text text-anchor="start" x="60.5" y="-674.5" font-family="Helvetica,sans-Serif" font-size="10.00">+ ~ConfigBase()</text>
<text text-anchor="start" x="60.5" y="-663.5" font-family="Helvetica,sans-Serif" font-size="10.00">+ getName()</text>
<text text-anchor="start" x="60.5" y="-652.5" font-family="Helvetica,sans-Serif" font-size="10.00"># add_subcommand()</text>
<text text-anchor="start" x="60.5" y="-641.5" font-family="Helvetica,sans-Serif" font-size="10.00"># add_option()</text>
<text text-anchor="start" x="60.5" y="-630.5" font-family="Helvetica,sans-Serif" font-size="10.00"># parse()</text>
</a>
</g>
</g>
<!-- Node4&#45;&gt;Node3 -->
<g id="edge3" class="edge">
<title>Node4&#45;&gt;Node3</title>
<path fill="none" stroke="darkgreen" d="M186.74,-615.08C193.62,-605.75 200.33,-596.27 206.5,-587 219.26,-567.81 231.94,-546.36 243.22,-526.19"/>
<polygon fill="none" stroke="darkgreen" points="183.84,-613.12 180.66,-623.23 189.45,-617.31 183.84,-613.12"/>
</g>
<!-- Node7 -->
<g id="node7" class="node">
<title>Node7</title>
<g id="a_node7"><a xlink:href="classnet_1_1config_1_1_config_connection.html" target="_top" xlink:title=" ">
<polygon fill="white" stroke="black" points="37,-309.5 37,-586.5 198,-586.5 198,-309.5 37,-309.5"/>
<text text-anchor="middle" x="117.5" y="-574.5" font-family="Helvetica,sans-Serif" font-size="10.00">net::config::ConfigConnection</text>
<polyline fill="none" stroke="black" points="37,-567.5 198,-567.5 "/>
<text text-anchor="start" x="45" y="-555.5" font-family="Helvetica,sans-Serif" font-size="10.00">&#45; connectionSc</text>
<text text-anchor="start" x="45" y="-544.5" font-family="Helvetica,sans-Serif" font-size="10.00">&#45; readTimeoutOpt</text>
<text text-anchor="start" x="45" y="-533.5" font-family="Helvetica,sans-Serif" font-size="10.00">&#45; writeTimeoutOpt</text>
<text text-anchor="start" x="45" y="-522.5" font-family="Helvetica,sans-Serif" font-size="10.00">&#45; readBlockSizeOpt</text>
<text text-anchor="start" x="45" y="-511.5" font-family="Helvetica,sans-Serif" font-size="10.00">&#45; writeBlockSizeOpt</text>
<text text-anchor="start" x="45" y="-500.5" font-family="Helvetica,sans-Serif" font-size="10.00">&#45; terminateTimeoutOpt</text>
<text text-anchor="start" x="45" y="-489.5" font-family="Helvetica,sans-Serif" font-size="10.00">&#45; readTimeout</text>
<text text-anchor="start" x="45" y="-478.5" font-family="Helvetica,sans-Serif" font-size="10.00">&#45; readTimeoutSet</text>
<text text-anchor="start" x="45" y="-467.5" font-family="Helvetica,sans-Serif" font-size="10.00">&#45; writeTimeout</text>
<text text-anchor="start" x="45" y="-456.5" font-family="Helvetica,sans-Serif" font-size="10.00">&#45; writeTimeoutSet</text>
<text text-anchor="start" x="45" y="-445.5" font-family="Helvetica,sans-Serif" font-size="10.00">and 6 more...</text>
<polyline fill="none" stroke="black" points="37,-438.5 198,-438.5 "/>
<text text-anchor="start" x="45" y="-426.5" font-family="Helvetica,sans-Serif" font-size="10.00">+ ConfigConnection()</text>
<text text-anchor="start" x="45" y="-415.5" font-family="Helvetica,sans-Serif" font-size="10.00">+ getReadTimeout()</text>
<text text-anchor="start" x="45" y="-404.5" font-family="Helvetica,sans-Serif" font-size="10.00">+ getWriteTimeout()</text>
<text text-anchor="start" x="45" y="-393.5" font-family="Helvetica,sans-Serif" font-size="10.00">+ getReadBlockSize()</text>
<text text-anchor="start" x="45" y="-382.5" font-family="Helvetica,sans-Serif" font-size="10.00">+ getWriteBlockSize()</text>
<text text-anchor="start" x="45" y="-371.5" font-family="Helvetica,sans-Serif" font-size="10.00">+ getTerminateTimeout()</text>
<text text-anchor="start" x="45" y="-360.5" font-family="Helvetica,sans-Serif" font-size="10.00">+ setReadTimeout()</text>
<text text-anchor="start" x="45" y="-349.5" font-family="Helvetica,sans-Serif" font-size="10.00">+ setWriteTimeout()</text>
<text text-anchor="start" x="45" y="-338.5" font-family="Helvetica,sans-Serif" font-size="10.00">+ setReadBlockSize()</text>
<text text-anchor="start" x="45" y="-327.5" font-family="Helvetica,sans-Serif" font-size="10.00">+ setWriteBlockSize()</text>
<text text-anchor="start" x="45" y="-316.5" font-family="Helvetica,sans-Serif" font-size="10.00">+ setTerminateTimeout()</text>
</a>
</g>
</g>
<!-- Node4&#45;&gt;Node7 -->
<g id="edge7" class="edge">
<title>Node4&#45;&gt;Node7</title>
<path fill="none" stroke="darkgreen" d="M117.5,-613.32C117.5,-604.67 117.5,-595.76 117.5,-586.76"/>
<polygon fill="none" stroke="darkgreen" points="114,-613.33 117.5,-623.33 121,-613.33 114,-613.33"/>
</g>
<!-- Node8 -->
<g id="node8" class="node">
<title>Node8</title>
<g id="a_node8"><a xlink:href="classnet_1_1config_1_1_config_tls.html" target="_top" xlink:title=" ">
<polygon fill="white" stroke="black" points="0,-105.5 0,-272.5 139,-272.5 139,-105.5 0,-105.5"/>
<text text-anchor="middle" x="69.5" y="-260.5" font-family="Helvetica,sans-Serif" font-size="10.00">net::config::ConfigTls</text>
<polyline fill="none" stroke="black" points="0,-253.5 139,-253.5 "/>
<text text-anchor="start" x="8" y="-241.5" font-family="Helvetica,sans-Serif" font-size="10.00">&#45; tlsSc</text>
<text text-anchor="start" x="8" y="-230.5" font-family="Helvetica,sans-Serif" font-size="10.00">&#45; initTimeoutOpt</text>
<text text-anchor="start" x="8" y="-219.5" font-family="Helvetica,sans-Serif" font-size="10.00">&#45; shutdownTimeoutOpt</text>
<text text-anchor="start" x="8" y="-208.5" font-family="Helvetica,sans-Serif" font-size="10.00">&#45; initTimeout</text>
<text text-anchor="start" x="8" y="-197.5" font-family="Helvetica,sans-Serif" font-size="10.00">&#45; initTimeoutSet</text>
<text text-anchor="start" x="8" y="-186.5" font-family="Helvetica,sans-Serif" font-size="10.00">&#45; shutdownTimeout</text>
<text text-anchor="start" x="8" y="-175.5" font-family="Helvetica,sans-Serif" font-size="10.00">&#45; shutdownTimeoutSet</text>
<polyline fill="none" stroke="black" points="0,-168.5 139,-168.5 "/>
<text text-anchor="start" x="8" y="-156.5" font-family="Helvetica,sans-Serif" font-size="10.00">+ ConfigTls()</text>
<text text-anchor="start" x="8" y="-145.5" font-family="Helvetica,sans-Serif" font-size="10.00">+ getInitTimeout()</text>
<text text-anchor="start" x="8" y="-134.5" font-family="Helvetica,sans-Serif" font-size="10.00">+ getShutdownTimeout()</text>
<text text-anchor="start" x="8" y="-123.5" font-family="Helvetica,sans-Serif" font-size="10.00">+ setInitTimeout()</text>
<text text-anchor="start" x="8" y="-112.5" font-family="Helvetica,sans-Serif" font-size="10.00">+ setShutdownTimeout()</text>
</a>
</g>
</g>
<!-- Node4&#45;&gt;Node8 -->
<g id="edge9" class="edge">
<title>Node4&#45;&gt;Node8</title>
<path fill="none" stroke="darkgreen" d="M46.47,-624.44C38.73,-612.62 32.03,-599.99 27.5,-587 -13.15,-470.32 6.64,-430.78 27.5,-309 29.55,-297.02 32.69,-284.63 36.34,-272.59"/>
<polygon fill="none" stroke="darkgreen" points="43.73,-626.63 52.28,-632.9 49.51,-622.67 43.73,-626.63"/>
</g>
<!-- Node5 -->
<g id="node5" class="node">
<title>Node5</title>
<g id="a_node5"><a xlink:href="classnet_1_1rf_1_1config_1_1_config_address.html" target="_top" xlink:title=" ">
<polygon fill="white" stroke="black" points="369.5,-381 369.5,-515 529.5,-515 529.5,-381 369.5,-381"/>
<text text-anchor="start" x="377.5" y="-503" font-family="Helvetica,sans-Serif" font-size="10.00">net::rf::config::ConfigAddress</text>
<text text-anchor="middle" x="449.5" y="-492" font-family="Helvetica,sans-Serif" font-size="10.00">&lt; ConfigAddressTypeT &gt;</text>
<polyline fill="none" stroke="black" points="369.5,-485 529.5,-485 "/>
<text text-anchor="start" x="377.5" y="-473" font-family="Helvetica,sans-Serif" font-size="10.00"># hostOpt</text>
<text text-anchor="start" x="377.5" y="-462" font-family="Helvetica,sans-Serif" font-size="10.00"># channelOpt</text>
<text text-anchor="start" x="377.5" y="-451" font-family="Helvetica,sans-Serif" font-size="10.00">&#45; host</text>
<text text-anchor="start" x="377.5" y="-440" font-family="Helvetica,sans-Serif" font-size="10.00">&#45; channel</text>
<polyline fill="none" stroke="black" points="369.5,-433 529.5,-433 "/>
<text text-anchor="start" x="377.5" y="-421" font-family="Helvetica,sans-Serif" font-size="10.00">+ ConfigAddress()</text>
<text text-anchor="start" x="377.5" y="-410" font-family="Helvetica,sans-Serif" font-size="10.00"># required()</text>
<text text-anchor="start" x="377.5" y="-399" font-family="Helvetica,sans-Serif" font-size="10.00"># channelRequired()</text>
<text text-anchor="start" x="377.5" y="-388" font-family="Helvetica,sans-Serif" font-size="10.00">&#45; updateFromCommandLine()</text>
</a>
</g>
</g>
<!-- Node5&#45;&gt;Node2 -->
<g id="edge4" class="edge">
<title>Node5&#45;&gt;Node2</title>
<path fill="none" stroke="midnightblue" d="M403.86,-372.42C390.22,-351.45 374.82,-328.93 359.5,-309 336.14,-278.6 306.87,-246.39 284.85,-223.16"/>
<polygon fill="none" stroke="midnightblue" points="401.02,-374.48 409.38,-380.99 406.9,-370.69 401.02,-374.48"/>
</g>
<!-- Node6 -->
<g id="node6" class="node">
<title>Node6</title>
<g id="a_node6"><a xlink:title=" ">
<polygon fill="white" stroke="#bfbfbf" points="377,-667.5 377,-735.5 522,-735.5 522,-667.5 377,-667.5"/>
<text text-anchor="start" x="385" y="-723.5" font-family="Helvetica,sans-Serif" font-size="10.00">ConfigAddressTypeT</text>
<text text-anchor="middle" x="449.5" y="-712.5" font-family="Helvetica,sans-Serif" font-size="10.00">&lt; net::rf::SocketAddress &gt;</text>
<polyline fill="none" stroke="#bfbfbf" points="377,-705.5 522,-705.5 "/>
<text text-anchor="middle" x="449.5" y="-693.5" font-family="Helvetica,sans-Serif" font-size="10.00"> </text>
<polyline fill="none" stroke="#bfbfbf" points="377,-686.5 522,-686.5 "/>
<text text-anchor="middle" x="449.5" y="-674.5" font-family="Helvetica,sans-Serif" font-size="10.00"> </text>
</a>
</g>
</g>
<!-- Node6&#45;&gt;Node5 -->
<g id="edge5" class="edge">
<title>Node6&#45;&gt;Node5</title>
<path fill="none" stroke="midnightblue" d="M449.5,-656.87C449.5,-617.83 449.5,-560 449.5,-515.25"/>
<polygon fill="none" stroke="midnightblue" points="446,-657.36 449.5,-667.36 453,-657.36 446,-657.36"/>
</g>
<!-- Node7&#45;&gt;Node2 -->
<g id="edge6" class="edge">
<title>Node7&#45;&gt;Node2</title>
<path fill="none" stroke="midnightblue" d="M194.49,-300.44C209.73,-271.43 224.31,-243.67 235.04,-223.24"/>
<polygon fill="none" stroke="midnightblue" points="191.29,-298.99 189.74,-309.47 197.49,-302.25 191.29,-298.99"/>
</g>
<!-- Node8&#45;&gt;Node1 -->
<g id="edge8" class="edge">
<title>Node8&#45;&gt;Node1</title>
<path fill="none" stroke="midnightblue" d="M124.17,-96.38C130.02,-86.58 135.65,-77.14 140.67,-68.74"/>
<polygon fill="none" stroke="midnightblue" points="121.11,-94.68 118.99,-105.06 127.12,-98.26 121.11,-94.68"/>
</g>
</g>
</svg>
