<?xml version="1.0" encoding="UTF-8" standalone="no"?>
<!DOCTYPE svg PUBLIC "-//W3C//DTD SVG 1.1//EN"
 "http://www.w3.org/Graphics/SVG/1.1/DTD/svg11.dtd">
<!-- Generated by graphviz version 2.43.0 (0)
 -->
<!-- Title: net::config::ConfigListen Pages: 1 -->
<svg width="1710pt" height="568pt"
 viewBox="0.00 0.00 1710.00 568.00" xmlns="http://www.w3.org/2000/svg" xmlns:xlink="http://www.w3.org/1999/xlink">
<g id="graph0" class="graph" transform="scale(1 1) rotate(0) translate(4 564)">
<title>net::config::ConfigListen</title>
<polygon fill="white" stroke="transparent" points="-4,4 -4,-564 1706,-564 1706,4 -4,4"/>
<!-- Node1 -->
<g id="node1" class="node">
<title>Node1</title>
<g id="a_node1"><a xlink:title=" ">
<polygon fill="#bfbfbf" stroke="black" points="783.5,-210.5 783.5,-366.5 918.5,-366.5 918.5,-210.5 783.5,-210.5"/>
<text text-anchor="middle" x="851" y="-354.5" font-family="Helvetica,sans-Serif" font-size="10.00">net::config::ConfigListen</text>
<polyline fill="none" stroke="black" points="783.5,-347.5 918.5,-347.5 "/>
<text text-anchor="start" x="791.5" y="-335.5" font-family="Helvetica,sans-Serif" font-size="10.00">&#45; backlogOpt</text>
<text text-anchor="start" x="791.5" y="-324.5" font-family="Helvetica,sans-Serif" font-size="10.00">&#45; acceptsPerTickOpt</text>
<text text-anchor="start" x="791.5" y="-313.5" font-family="Helvetica,sans-Serif" font-size="10.00">&#45; backlog</text>
<text text-anchor="start" x="791.5" y="-302.5" font-family="Helvetica,sans-Serif" font-size="10.00">&#45; backlogSet</text>
<text text-anchor="start" x="791.5" y="-291.5" font-family="Helvetica,sans-Serif" font-size="10.00">&#45; acceptsPerTick</text>
<text text-anchor="start" x="791.5" y="-280.5" font-family="Helvetica,sans-Serif" font-size="10.00">&#45; acceptsPerTickSet</text>
<polyline fill="none" stroke="black" points="783.5,-273.5 918.5,-273.5 "/>
<text text-anchor="start" x="791.5" y="-261.5" font-family="Helvetica,sans-Serif" font-size="10.00">+ ConfigListen()</text>
<text text-anchor="start" x="791.5" y="-250.5" font-family="Helvetica,sans-Serif" font-size="10.00">+ getBacklog()</text>
<text text-anchor="start" x="791.5" y="-239.5" font-family="Helvetica,sans-Serif" font-size="10.00">+ setBacklog()</text>
<text text-anchor="start" x="791.5" y="-228.5" font-family="Helvetica,sans-Serif" font-size="10.00">+ getAcceptsPerTick()</text>
<text text-anchor="start" x="791.5" y="-217.5" font-family="Helvetica,sans-Serif" font-size="10.00">+ setAcceptsPerTick()</text>
</a>
</g>
</g>
<!-- Node3 -->
<g id="node3" class="node">
<title>Node3</title>
<g id="a_node3"><a xlink:href="classnet_1_1in6_1_1stream_1_1config_1_1_config_server_socket.html" target="_top" xlink:title=" ">
<polygon fill="white" stroke="black" points="183.5,-105.5 183.5,-173.5 314.5,-173.5 314.5,-105.5 183.5,-105.5"/>
<text text-anchor="start" x="191.5" y="-161.5" font-family="Helvetica,sans-Serif" font-size="10.00">net::in6::stream::config</text>
<text text-anchor="middle" x="249" y="-150.5" font-family="Helvetica,sans-Serif" font-size="10.00">::ConfigServerSocket</text>
<polyline fill="none" stroke="black" points="183.5,-143.5 314.5,-143.5 "/>
<text text-anchor="middle" x="249" y="-131.5" font-family="Helvetica,sans-Serif" font-size="10.00"> </text>
<polyline fill="none" stroke="black" points="183.5,-124.5 314.5,-124.5 "/>
<text text-anchor="start" x="191.5" y="-112.5" font-family="Helvetica,sans-Serif" font-size="10.00">+ ConfigServerSocket()</text>
</a>
</g>
</g>
<!-- Node1&#45;&gt;Node3 -->
<g id="edge2" class="edge">
<title>Node1&#45;&gt;Node3</title>
<path fill="none" stroke="midnightblue" d="M773.59,-268.6C654.13,-239.43 426.95,-183.95 314.88,-156.59"/>
<polygon fill="none" stroke="midnightblue" points="772.86,-272.02 783.4,-270.99 774.52,-265.22 772.86,-272.02"/>
</g>
<!-- Node6 -->
<g id="node6" class="node">
<title>Node6</title>
<g id="a_node6"><a xlink:href="classnet_1_1in_1_1stream_1_1config_1_1_config_server_socket.html" target="_top" xlink:title=" ">
<polygon fill="white" stroke="black" points="527.5,-105.5 527.5,-173.5 658.5,-173.5 658.5,-105.5 527.5,-105.5"/>
<text text-anchor="start" x="535.5" y="-161.5" font-family="Helvetica,sans-Serif" font-size="10.00">net::in::stream::config</text>
<text text-anchor="middle" x="593" y="-150.5" font-family="Helvetica,sans-Serif" font-size="10.00">::ConfigServerSocket</text>
<polyline fill="none" stroke="black" points="527.5,-143.5 658.5,-143.5 "/>
<text text-anchor="middle" x="593" y="-131.5" font-family="Helvetica,sans-Serif" font-size="10.00"> </text>
<polyline fill="none" stroke="black" points="527.5,-124.5 658.5,-124.5 "/>
<text text-anchor="start" x="535.5" y="-112.5" font-family="Helvetica,sans-Serif" font-size="10.00">+ ConfigServerSocket()</text>
</a>
</g>
</g>
<!-- Node1&#45;&gt;Node6 -->
<g id="edge5" class="edge">
<title>Node1&#45;&gt;Node6</title>
<path fill="none" stroke="midnightblue" d="M774.4,-243.86C734.93,-221.37 687.57,-194.39 651.15,-173.63"/>
<polygon fill="none" stroke="midnightblue" points="772.79,-246.97 783.21,-248.88 776.26,-240.89 772.79,-246.97"/>
</g>
<!-- Node9 -->
<g id="node9" class="node">
<title>Node9</title>
<g id="a_node9"><a xlink:href="classnet_1_1l2_1_1stream_1_1config_1_1_config_server_socket.html" target="_top" xlink:title=" ">
<polygon fill="white" stroke="black" points="785.5,-105.5 785.5,-173.5 916.5,-173.5 916.5,-105.5 785.5,-105.5"/>
<text text-anchor="start" x="793.5" y="-161.5" font-family="Helvetica,sans-Serif" font-size="10.00">net::l2::stream::config</text>
<text text-anchor="middle" x="851" y="-150.5" font-family="Helvetica,sans-Serif" font-size="10.00">::ConfigServerSocket</text>
<polyline fill="none" stroke="black" points="785.5,-143.5 916.5,-143.5 "/>
<text text-anchor="middle" x="851" y="-131.5" font-family="Helvetica,sans-Serif" font-size="10.00"> </text>
<polyline fill="none" stroke="black" points="785.5,-124.5 916.5,-124.5 "/>
<text text-anchor="start" x="793.5" y="-112.5" font-family="Helvetica,sans-Serif" font-size="10.00">+ ConfigServerSocket()</text>
</a>
</g>
</g>
<!-- Node1&#45;&gt;Node9 -->
<g id="edge8" class="edge">
<title>Node1&#45;&gt;Node9</title>
<path fill="none" stroke="midnightblue" d="M851,-199.94C851,-190.63 851,-181.64 851,-173.59"/>
<polygon fill="none" stroke="midnightblue" points="847.5,-200.13 851,-210.13 854.5,-200.13 847.5,-200.13"/>
</g>
<!-- Node12 -->
<g id="node12" class="node">
<title>Node12</title>
<g id="a_node12"><a xlink:href="classnet_1_1rf_1_1stream_1_1config_1_1_config_server_socket.html" target="_top" xlink:title=" ">
<polygon fill="white" stroke="black" points="1043.5,-105.5 1043.5,-173.5 1174.5,-173.5 1174.5,-105.5 1043.5,-105.5"/>
<text text-anchor="start" x="1051.5" y="-161.5" font-family="Helvetica,sans-Serif" font-size="10.00">net::rf::stream::config</text>
<text text-anchor="middle" x="1109" y="-150.5" font-family="Helvetica,sans-Serif" font-size="10.00">::ConfigServerSocket</text>
<polyline fill="none" stroke="black" points="1043.5,-143.5 1174.5,-143.5 "/>
<text text-anchor="middle" x="1109" y="-131.5" font-family="Helvetica,sans-Serif" font-size="10.00"> </text>
<polyline fill="none" stroke="black" points="1043.5,-124.5 1174.5,-124.5 "/>
<text text-anchor="start" x="1051.5" y="-112.5" font-family="Helvetica,sans-Serif" font-size="10.00">+ ConfigServerSocket()</text>
</a>
</g>
</g>
<!-- Node1&#45;&gt;Node12 -->
<g id="edge11" class="edge">
<title>Node1&#45;&gt;Node12</title>
<path fill="none" stroke="midnightblue" d="M927.6,-243.86C967.07,-221.37 1014.43,-194.39 1050.85,-173.63"/>
<polygon fill="none" stroke="midnightblue" points="925.74,-240.89 918.79,-248.88 929.21,-246.97 925.74,-240.89"/>
</g>
<!-- Node15 -->
<g id="node15" class="node">
<title>Node15</title>
<g id="a_node15"><a xlink:href="classnet_1_1un_1_1stream_1_1config_1_1_config_server_socket.html" target="_top" xlink:title=" ">
<polygon fill="white" stroke="black" points="1387.5,-105.5 1387.5,-173.5 1518.5,-173.5 1518.5,-105.5 1387.5,-105.5"/>
<text text-anchor="start" x="1395.5" y="-161.5" font-family="Helvetica,sans-Serif" font-size="10.00">net::un::stream::config</text>
<text text-anchor="middle" x="1453" y="-150.5" font-family="Helvetica,sans-Serif" font-size="10.00">::ConfigServerSocket</text>
<polyline fill="none" stroke="black" points="1387.5,-143.5 1518.5,-143.5 "/>
<text text-anchor="middle" x="1453" y="-131.5" font-family="Helvetica,sans-Serif" font-size="10.00"> </text>
<polyline fill="none" stroke="black" points="1387.5,-124.5 1518.5,-124.5 "/>
<text text-anchor="start" x="1395.5" y="-112.5" font-family="Helvetica,sans-Serif" font-size="10.00">+ ConfigServerSocket()</text>
</a>
</g>
</g>
<!-- Node1&#45;&gt;Node15 -->
<g id="edge14" class="edge">
<title>Node1&#45;&gt;Node15</title>
<path fill="none" stroke="midnightblue" d="M928.41,-268.6C1047.87,-239.43 1275.05,-183.95 1387.12,-156.59"/>
<polygon fill="none" stroke="midnightblue" points="927.48,-265.22 918.6,-270.99 929.14,-272.02 927.48,-265.22"/>
</g>
<!-- Node2 -->
<g id="node2" class="node">
<title>Node2</title>
<g id="a_node2"><a xlink:href="classnet_1_1config_1_1_config_base.html" target="_top" xlink:title=" ">
<polygon fill="white" stroke="black" points="786,-403.5 786,-559.5 916,-559.5 916,-403.5 786,-403.5"/>
<text text-anchor="middle" x="851" y="-547.5" font-family="Helvetica,sans-Serif" font-size="10.00">net::config::ConfigBase</text>
<polyline fill="none" stroke="black" points="786,-540.5 916,-540.5 "/>
<text text-anchor="start" x="794" y="-528.5" font-family="Helvetica,sans-Serif" font-size="10.00">&#45; baseSc</text>
<text text-anchor="start" x="794" y="-517.5" font-family="Helvetica,sans-Serif" font-size="10.00">&#45; name</text>
<polyline fill="none" stroke="black" points="786,-510.5 916,-510.5 "/>
<text text-anchor="start" x="794" y="-498.5" font-family="Helvetica,sans-Serif" font-size="10.00">+ ConfigBase()</text>
<text text-anchor="start" x="794" y="-487.5" font-family="Helvetica,sans-Serif" font-size="10.00">+ ConfigBase()</text>
<text text-anchor="start" x="794" y="-476.5" font-family="Helvetica,sans-Serif" font-size="10.00">+ ConfigBase()</text>
<text text-anchor="start" x="794" y="-465.5" font-family="Helvetica,sans-Serif" font-size="10.00">+ operator=()</text>
<text text-anchor="start" x="794" y="-454.5" font-family="Helvetica,sans-Serif" font-size="10.00">+ ~ConfigBase()</text>
<text text-anchor="start" x="794" y="-443.5" font-family="Helvetica,sans-Serif" font-size="10.00">+ getName()</text>
<text text-anchor="start" x="794" y="-432.5" font-family="Helvetica,sans-Serif" font-size="10.00"># add_subcommand()</text>
<text text-anchor="start" x="794" y="-421.5" font-family="Helvetica,sans-Serif" font-size="10.00"># add_option()</text>
<text text-anchor="start" x="794" y="-410.5" font-family="Helvetica,sans-Serif" font-size="10.00"># parse()</text>
</a>
</g>
</g>
<!-- Node2&#45;&gt;Node1 -->
<g id="edge1" class="edge">
<title>Node2&#45;&gt;Node1</title>
<path fill="none" stroke="darkgreen" d="M851,-393.35C851,-384.43 851,-375.41 851,-366.61"/>
<polygon fill="none" stroke="darkgreen" points="847.5,-393.36 851,-403.36 854.5,-393.36 847.5,-393.36"/>
</g>
<!-- Node4 -->
<g id="node4" class="node">
<title>Node4</title>
<g id="a_node4"><a xlink:href="classnet_1_1in6_1_1stream_1_1legacy_1_1config_1_1_config_socket_server.html" target="_top" xlink:title=" ">
<polygon fill="white" stroke="black" points="0,-0.5 0,-68.5 154,-68.5 154,-0.5 0,-0.5"/>
<text text-anchor="start" x="8" y="-56.5" font-family="Helvetica,sans-Serif" font-size="10.00">net::in6::stream::legacy</text>
<text text-anchor="middle" x="77" y="-45.5" font-family="Helvetica,sans-Serif" font-size="10.00">::config::ConfigSocketServer</text>
<polyline fill="none" stroke="black" points="0,-38.5 154,-38.5 "/>
<text text-anchor="middle" x="77" y="-26.5" font-family="Helvetica,sans-Serif" font-size="10.00"> </text>
<polyline fill="none" stroke="black" points="0,-19.5 154,-19.5 "/>
<text text-anchor="start" x="8" y="-7.5" font-family="Helvetica,sans-Serif" font-size="10.00">+ ConfigSocketServer()</text>
</a>
</g>
</g>
<!-- Node3&#45;&gt;Node4 -->
<g id="edge3" class="edge">
<title>Node3&#45;&gt;Node4</title>
<path fill="none" stroke="midnightblue" d="M184.74,-100.02C167.49,-89.69 148.98,-78.61 132.26,-68.59"/>
<polygon fill="none" stroke="midnightblue" points="183.25,-103.21 193.63,-105.34 186.85,-97.2 183.25,-103.21"/>
</g>
<!-- Node5 -->
<g id="node5" class="node">
<title>Node5</title>
<g id="a_node5"><a xlink:href="classnet_1_1in6_1_1stream_1_1tls_1_1config_1_1_config_socket_server.html" target="_top" xlink:title=" ">
<polygon fill="white" stroke="black" points="172,-0.5 172,-68.5 326,-68.5 326,-0.5 172,-0.5"/>
<text text-anchor="start" x="180" y="-56.5" font-family="Helvetica,sans-Serif" font-size="10.00">net::in6::stream::tls</text>
<text text-anchor="middle" x="249" y="-45.5" font-family="Helvetica,sans-Serif" font-size="10.00">::config::ConfigSocketServer</text>
<polyline fill="none" stroke="black" points="172,-38.5 326,-38.5 "/>
<text text-anchor="middle" x="249" y="-26.5" font-family="Helvetica,sans-Serif" font-size="10.00"> </text>
<polyline fill="none" stroke="black" points="172,-19.5 326,-19.5 "/>
<text text-anchor="start" x="180" y="-7.5" font-family="Helvetica,sans-Serif" font-size="10.00">+ ConfigSocketServer()</text>
</a>
</g>
</g>
<!-- Node3&#45;&gt;Node5 -->
<g id="edge4" class="edge">
<title>Node3&#45;&gt;Node5</title>
<path fill="none" stroke="midnightblue" d="M249,-95.14C249,-86.26 249,-77.04 249,-68.59"/>
<polygon fill="none" stroke="midnightblue" points="245.5,-95.34 249,-105.34 252.5,-95.34 245.5,-95.34"/>
</g>
<!-- Node7 -->
<g id="node7" class="node">
<title>Node7</title>
<g id="a_node7"><a xlink:href="classnet_1_1in_1_1stream_1_1legacy_1_1config_1_1_config_socket_server.html" target="_top" xlink:title=" ">
<polygon fill="white" stroke="black" points="344,-0.5 344,-68.5 498,-68.5 498,-0.5 344,-0.5"/>
<text text-anchor="start" x="352" y="-56.5" font-family="Helvetica,sans-Serif" font-size="10.00">net::in::stream::legacy</text>
<text text-anchor="middle" x="421" y="-45.5" font-family="Helvetica,sans-Serif" font-size="10.00">::config::ConfigSocketServer</text>
<polyline fill="none" stroke="black" points="344,-38.5 498,-38.5 "/>
<text text-anchor="middle" x="421" y="-26.5" font-family="Helvetica,sans-Serif" font-size="10.00"> </text>
<polyline fill="none" stroke="black" points="344,-19.5 498,-19.5 "/>
<text text-anchor="start" x="352" y="-7.5" font-family="Helvetica,sans-Serif" font-size="10.00">+ ConfigSocketServer()</text>
</a>
</g>
</g>
<!-- Node6&#45;&gt;Node7 -->
<g id="edge6" class="edge">
<title>Node6&#45;&gt;Node7</title>
<path fill="none" stroke="midnightblue" d="M528.74,-100.02C511.49,-89.69 492.98,-78.61 476.26,-68.59"/>
<polygon fill="none" stroke="midnightblue" points="527.25,-103.21 537.63,-105.34 530.85,-97.2 527.25,-103.21"/>
</g>
<!-- Node8 -->
<g id="node8" class="node">
<title>Node8</title>
<g id="a_node8"><a xlink:href="classnet_1_1in_1_1stream_1_1tls_1_1config_1_1_config_socket_server.html" target="_top" xlink:title=" ">
<polygon fill="white" stroke="black" points="516,-0.5 516,-68.5 670,-68.5 670,-0.5 516,-0.5"/>
<text text-anchor="start" x="524" y="-56.5" font-family="Helvetica,sans-Serif" font-size="10.00">net::in::stream::tls</text>
<text text-anchor="middle" x="593" y="-45.5" font-family="Helvetica,sans-Serif" font-size="10.00">::config::ConfigSocketServer</text>
<polyline fill="none" stroke="black" points="516,-38.5 670,-38.5 "/>
<text text-anchor="middle" x="593" y="-26.5" font-family="Helvetica,sans-Serif" font-size="10.00"> </text>
<polyline fill="none" stroke="black" points="516,-19.5 670,-19.5 "/>
<text text-anchor="start" x="524" y="-7.5" font-family="Helvetica,sans-Serif" font-size="10.00">+ ConfigSocketServer()</text>
</a>
</g>
</g>
<!-- Node6&#45;&gt;Node8 -->
<g id="edge7" class="edge">
<title>Node6&#45;&gt;Node8</title>
<path fill="none" stroke="midnightblue" d="M593,-95.14C593,-86.26 593,-77.04 593,-68.59"/>
<polygon fill="none" stroke="midnightblue" points="589.5,-95.34 593,-105.34 596.5,-95.34 589.5,-95.34"/>
</g>
<!-- Node10 -->
<g id="node10" class="node">
<title>Node10</title>
<g id="a_node10"><a xlink:href="classnet_1_1l2_1_1stream_1_1legacy_1_1config_1_1_config_socket_server.html" target="_top" xlink:title=" ">
<polygon fill="white" stroke="black" points="688,-0.5 688,-68.5 842,-68.5 842,-0.5 688,-0.5"/>
<text text-anchor="start" x="696" y="-56.5" font-family="Helvetica,sans-Serif" font-size="10.00">net::l2::stream::legacy</text>
<text text-anchor="middle" x="765" y="-45.5" font-family="Helvetica,sans-Serif" font-size="10.00">::config::ConfigSocketServer</text>
<polyline fill="none" stroke="black" points="688,-38.5 842,-38.5 "/>
<text text-anchor="middle" x="765" y="-26.5" font-family="Helvetica,sans-Serif" font-size="10.00"> </text>
<polyline fill="none" stroke="black" points="688,-19.5 842,-19.5 "/>
<text text-anchor="start" x="696" y="-7.5" font-family="Helvetica,sans-Serif" font-size="10.00">+ ConfigSocketServer()</text>
</a>
</g>
</g>
<!-- Node9&#45;&gt;Node10 -->
<g id="edge9" class="edge">
<title>Node9&#45;&gt;Node10</title>
<path fill="none" stroke="midnightblue" d="M816.72,-97.44C808.72,-87.86 800.3,-77.78 792.63,-68.59"/>
<polygon fill="none" stroke="midnightblue" points="814.22,-99.91 823.32,-105.34 819.59,-95.42 814.22,-99.91"/>
</g>
<!-- Node11 -->
<g id="node11" class="node">
<title>Node11</title>
<g id="a_node11"><a xlink:href="classnet_1_1l2_1_1stream_1_1tls_1_1config_1_1_config_socket_server.html" target="_top" xlink:title=" ">
<polygon fill="white" stroke="black" points="860,-0.5 860,-68.5 1014,-68.5 1014,-0.5 860,-0.5"/>
<text text-anchor="start" x="868" y="-56.5" font-family="Helvetica,sans-Serif" font-size="10.00">net::l2::stream::tls</text>
<text text-anchor="middle" x="937" y="-45.5" font-family="Helvetica,sans-Serif" font-size="10.00">::config::ConfigSocketServer</text>
<polyline fill="none" stroke="black" points="860,-38.5 1014,-38.5 "/>
<text text-anchor="middle" x="937" y="-26.5" font-family="Helvetica,sans-Serif" font-size="10.00"> </text>
<polyline fill="none" stroke="black" points="860,-19.5 1014,-19.5 "/>
<text text-anchor="start" x="868" y="-7.5" font-family="Helvetica,sans-Serif" font-size="10.00">+ ConfigSocketServer()</text>
</a>
</g>
</g>
<!-- Node9&#45;&gt;Node11 -->
<g id="edge10" class="edge">
<title>Node9&#45;&gt;Node11</title>
<path fill="none" stroke="midnightblue" d="M885.28,-97.44C893.28,-87.86 901.7,-77.78 909.37,-68.59"/>
<polygon fill="none" stroke="midnightblue" points="882.41,-95.42 878.68,-105.34 887.78,-99.91 882.41,-95.42"/>
</g>
<!-- Node13 -->
<g id="node13" class="node">
<title>Node13</title>
<g id="a_node13"><a xlink:href="classnet_1_1rf_1_1stream_1_1legacy_1_1config_1_1_config_socket_server.html" target="_top" xlink:title=" ">
<polygon fill="white" stroke="black" points="1032,-0.5 1032,-68.5 1186,-68.5 1186,-0.5 1032,-0.5"/>
<text text-anchor="start" x="1040" y="-56.5" font-family="Helvetica,sans-Serif" font-size="10.00">net::rf::stream::legacy</text>
<text text-anchor="middle" x="1109" y="-45.5" font-family="Helvetica,sans-Serif" font-size="10.00">::config::ConfigSocketServer</text>
<polyline fill="none" stroke="black" points="1032,-38.5 1186,-38.5 "/>
<text text-anchor="middle" x="1109" y="-26.5" font-family="Helvetica,sans-Serif" font-size="10.00"> </text>
<polyline fill="none" stroke="black" points="1032,-19.5 1186,-19.5 "/>
<text text-anchor="start" x="1040" y="-7.5" font-family="Helvetica,sans-Serif" font-size="10.00">+ ConfigSocketServer()</text>
</a>
</g>
</g>
<!-- Node12&#45;&gt;Node13 -->
<g id="edge12" class="edge">
<title>Node12&#45;&gt;Node13</title>
<path fill="none" stroke="midnightblue" d="M1109,-95.14C1109,-86.26 1109,-77.04 1109,-68.59"/>
<polygon fill="none" stroke="midnightblue" points="1105.5,-95.34 1109,-105.34 1112.5,-95.34 1105.5,-95.34"/>
</g>
<!-- Node14 -->
<g id="node14" class="node">
<title>Node14</title>
<g id="a_node14"><a xlink:href="classnet_1_1rf_1_1stream_1_1tls_1_1config_1_1_config_socket_server.html" target="_top" xlink:title=" ">
<polygon fill="white" stroke="black" points="1204,-0.5 1204,-68.5 1358,-68.5 1358,-0.5 1204,-0.5"/>
<text text-anchor="start" x="1212" y="-56.5" font-family="Helvetica,sans-Serif" font-size="10.00">net::rf::stream::tls</text>
<text text-anchor="middle" x="1281" y="-45.5" font-family="Helvetica,sans-Serif" font-size="10.00">::config::ConfigSocketServer</text>
<polyline fill="none" stroke="black" points="1204,-38.5 1358,-38.5 "/>
<text text-anchor="middle" x="1281" y="-26.5" font-family="Helvetica,sans-Serif" font-size="10.00"> </text>
<polyline fill="none" stroke="black" points="1204,-19.5 1358,-19.5 "/>
<text text-anchor="start" x="1212" y="-7.5" font-family="Helvetica,sans-Serif" font-size="10.00">+ ConfigSocketServer()</text>
</a>
</g>
</g>
<!-- Node12&#45;&gt;Node14 -->
<g id="edge13" class="edge">
<title>Node12&#45;&gt;Node14</title>
<path fill="none" stroke="midnightblue" d="M1173.26,-100.02C1190.51,-89.69 1209.02,-78.61 1225.74,-68.59"/>
<polygon fill="none" stroke="midnightblue" points="1171.15,-97.2 1164.37,-105.34 1174.75,-103.21 1171.15,-97.2"/>
</g>
<!-- Node16 -->
<g id="node16" class="node">
<title>Node16</title>
<g id="a_node16"><a xlink:href="classnet_1_1un_1_1stream_1_1legacy_1_1config_1_1_config_socket_server.html" target="_top" xlink:title=" ">
<polygon fill="white" stroke="black" points="1376,-0.5 1376,-68.5 1530,-68.5 1530,-0.5 1376,-0.5"/>
<text text-anchor="start" x="1384" y="-56.5" font-family="Helvetica,sans-Serif" font-size="10.00">net::un::stream::legacy</text>
<text text-anchor="middle" x="1453" y="-45.5" font-family="Helvetica,sans-Serif" font-size="10.00">::config::ConfigSocketServer</text>
<polyline fill="none" stroke="black" points="1376,-38.5 1530,-38.5 "/>
<text text-anchor="middle" x="1453" y="-26.5" font-family="Helvetica,sans-Serif" font-size="10.00"> </text>
<polyline fill="none" stroke="black" points="1376,-19.5 1530,-19.5 "/>
<text text-anchor="start" x="1384" y="-7.5" font-family="Helvetica,sans-Serif" font-size="10.00">+ ConfigSocketServer()</text>
</a>
</g>
</g>
<!-- Node15&#45;&gt;Node16 -->
<g id="edge15" class="edge">
<title>Node15&#45;&gt;Node16</title>
<path fill="none" stroke="midnightblue" d="M1453,-95.14C1453,-86.26 1453,-77.04 1453,-68.59"/>
<polygon fill="none" stroke="midnightblue" points="1449.5,-95.34 1453,-105.34 1456.5,-95.34 1449.5,-95.34"/>
</g>
<!-- Node17 -->
<g id="node17" class="node">
<title>Node17</title>
<g id="a_node17"><a xlink:href="classnet_1_1un_1_1stream_1_1tls_1_1config_1_1_config_socket_server.html" target="_top" xlink:title=" ">
<polygon fill="white" stroke="black" points="1548,-0.5 1548,-68.5 1702,-68.5 1702,-0.5 1548,-0.5"/>
<text text-anchor="start" x="1556" y="-56.5" font-family="Helvetica,sans-Serif" font-size="10.00">net::un::stream::tls</text>
<text text-anchor="middle" x="1625" y="-45.5" font-family="Helvetica,sans-Serif" font-size="10.00">::config::ConfigSocketServer</text>
<polyline fill="none" stroke="black" points="1548,-38.5 1702,-38.5 "/>
<text text-anchor="middle" x="1625" y="-26.5" font-family="Helvetica,sans-Serif" font-size="10.00"> </text>
<polyline fill="none" stroke="black" points="1548,-19.5 1702,-19.5 "/>
<text text-anchor="start" x="1556" y="-7.5" font-family="Helvetica,sans-Serif" font-size="10.00">+ ConfigSocketServer()</text>
</a>
</g>
</g>
<!-- Node15&#45;&gt;Node17 -->
<g id="edge16" class="edge">
<title>Node15&#45;&gt;Node17</title>
<path fill="none" stroke="midnightblue" d="M1517.26,-100.02C1534.51,-89.69 1553.02,-78.61 1569.74,-68.59"/>
<polygon fill="none" stroke="midnightblue" points="1515.15,-97.2 1508.37,-105.34 1518.75,-103.21 1515.15,-97.2"/>
</g>
</g>
</svg>
