<?xml version="1.0" encoding="UTF-8" standalone="no"?>
<!DOCTYPE svg PUBLIC "-//W3C//DTD SVG 1.1//EN"
 "http://www.w3.org/Graphics/SVG/1.1/DTD/svg11.dtd">
<!-- Generated by graphviz version 2.43.0 (0)
 -->
<!-- Title: core::socket::stream::tls::SocketAcceptor&lt; SocketServerT &gt; Pages: 1 -->
<svg width="308pt" height="433pt"
 viewBox="0.00 0.00 308.00 433.00" xmlns="http://www.w3.org/2000/svg" xmlns:xlink="http://www.w3.org/1999/xlink">
<g id="graph0" class="graph" transform="scale(1 1) rotate(0) translate(4 429)">
<title>core::socket::stream::tls::SocketAcceptor&lt; SocketServerT &gt;</title>
<polygon fill="white" stroke="transparent" points="-4,4 -4,-429 304,-429 304,4 -4,4"/>
<!-- Node1 -->
<g id="node1" class="node">
<title>Node1</title>
<g id="a_node1"><a xlink:title=" ">
<polygon fill="#bfbfbf" stroke="black" points="77,-0.5 77,-41.5 193,-41.5 193,-0.5 77,-0.5"/>
<text text-anchor="start" x="85" y="-29.5" font-family="Helvetica,sans-Serif" font-size="10.00">core::socket::stream</text>
<text text-anchor="start" x="85" y="-18.5" font-family="Helvetica,sans-Serif" font-size="10.00">::tls::SocketAcceptor</text>
<text text-anchor="middle" x="135" y="-7.5" font-family="Helvetica,sans-Serif" font-size="10.00">&lt; SocketServerT &gt;</text>
</a>
</g>
</g>
<!-- Node2 -->
<g id="node2" class="node">
<title>Node2</title>
<g id="a_node2"><a xlink:href="classcore_1_1socket_1_1stream_1_1_socket_acceptor.html" target="_top" xlink:title=" ">
<polygon fill="white" stroke="black" points="48.5,-79.5 48.5,-131.5 221.5,-131.5 221.5,-79.5 48.5,-79.5"/>
<text text-anchor="start" x="56.5" y="-119.5" font-family="Helvetica,sans-Serif" font-size="10.00">core::socket::stream</text>
<text text-anchor="start" x="56.5" y="-108.5" font-family="Helvetica,sans-Serif" font-size="10.00">::SocketAcceptor&lt; SocketServer</text>
<text text-anchor="start" x="56.5" y="-97.5" font-family="Helvetica,sans-Serif" font-size="10.00">T, core::socket::stream::tls</text>
<text text-anchor="middle" x="135" y="-86.5" font-family="Helvetica,sans-Serif" font-size="10.00">::SocketConnection &gt;</text>
</a>
</g>
</g>
<!-- Node2&#45;&gt;Node1 -->
<g id="edge1" class="edge">
<title>Node2&#45;&gt;Node1</title>
<path fill="none" stroke="darkgreen" d="M135,-69.27C135,-59.77 135,-49.84 135,-41.55"/>
<polygon fill="none" stroke="darkgreen" points="131.5,-69.3 135,-79.3 138.5,-69.3 131.5,-69.3"/>
</g>
<!-- Node3 -->
<g id="node3" class="node">
<title>Node3</title>
<g id="a_node3"><a xlink:href="classcore_1_1eventreceiver_1_1_init_accept_event_receiver.html" target="_top" xlink:title=" ">
<polygon fill="white" stroke="black" points="0,-280.5 0,-310.5 142,-310.5 142,-280.5 0,-280.5"/>
<text text-anchor="start" x="8" y="-298.5" font-family="Helvetica,sans-Serif" font-size="10.00">core::eventreceiver</text>
<text text-anchor="middle" x="71" y="-287.5" font-family="Helvetica,sans-Serif" font-size="10.00">::InitAcceptEventReceiver</text>
</a>
</g>
</g>
<!-- Node3&#45;&gt;Node2 -->
<g id="edge2" class="edge">
<title>Node3&#45;&gt;Node2</title>
<path fill="none" stroke="darkgreen" d="M58.84,-271.28C50.43,-252.01 42.21,-224.12 51,-201 61.45,-173.51 83.98,-148.9 103.07,-131.7"/>
<polygon fill="none" stroke="darkgreen" points="55.74,-272.93 63.16,-280.5 62.08,-269.96 55.74,-272.93"/>
</g>
<!-- Node8 -->
<g id="node8" class="node">
<title>Node8</title>
<g id="a_node8"><a xlink:href="classcore_1_1socket_1_1stream_1_1_socket_acceptor.html" target="_top" xlink:title=" ">
<polygon fill="white" stroke="black" points="60.5,-201.5 60.5,-242.5 233.5,-242.5 233.5,-201.5 60.5,-201.5"/>
<text text-anchor="start" x="68.5" y="-230.5" font-family="Helvetica,sans-Serif" font-size="10.00">core::socket::stream</text>
<text text-anchor="start" x="68.5" y="-219.5" font-family="Helvetica,sans-Serif" font-size="10.00">::SocketAcceptor&lt; SocketServer</text>
<text text-anchor="middle" x="147" y="-208.5" font-family="Helvetica,sans-Serif" font-size="10.00">T, SocketConnectionT &gt;</text>
</a>
</g>
</g>
<!-- Node3&#45;&gt;Node8 -->
<g id="edge9" class="edge">
<title>Node3&#45;&gt;Node8</title>
<path fill="none" stroke="darkgreen" d="M93.52,-273.31C103.89,-263.56 116.12,-252.05 126.26,-242.51"/>
<polygon fill="none" stroke="darkgreen" points="90.9,-270.97 86.02,-280.37 95.7,-276.07 90.9,-270.97"/>
</g>
<!-- Node4 -->
<g id="node4" class="node">
<title>Node4</title>
<g id="a_node4"><a xlink:href="classcore_1_1_event_receiver.html" target="_top" xlink:title=" ">
<polygon fill="white" stroke="black" points="38,-405.5 38,-424.5 152,-424.5 152,-405.5 38,-405.5"/>
<text text-anchor="middle" x="95" y="-412.5" font-family="Helvetica,sans-Serif" font-size="10.00">core::EventReceiver</text>
</a>
</g>
</g>
<!-- Node4&#45;&gt;Node3 -->
<g id="edge3" class="edge">
<title>Node4&#45;&gt;Node3</title>
<path fill="none" stroke="midnightblue" d="M91.13,-395.06C86.33,-371.53 78.23,-331.92 73.92,-310.79"/>
<polygon fill="none" stroke="midnightblue" points="87.77,-396.07 93.2,-405.17 94.62,-394.67 87.77,-396.07"/>
</g>
<!-- Node6 -->
<g id="node6" class="node">
<title>Node6</title>
<g id="a_node6"><a xlink:href="classcore_1_1_descriptor_event_receiver.html" target="_top" xlink:title=" ">
<polygon fill="white" stroke="black" points="136,-348.5 136,-367.5 300,-367.5 300,-348.5 136,-348.5"/>
<text text-anchor="middle" x="218" y="-355.5" font-family="Helvetica,sans-Serif" font-size="10.00">core::DescriptorEventReceiver</text>
</a>
</g>
</g>
<!-- Node4&#45;&gt;Node6 -->
<g id="edge7" class="edge">
<title>Node4&#45;&gt;Node6</title>
<path fill="none" stroke="midnightblue" d="M123.55,-401.23C146.72,-390.87 178.75,-376.55 198.92,-367.53"/>
<polygon fill="none" stroke="midnightblue" points="121.92,-398.13 114.22,-405.41 124.78,-404.52 121.92,-398.13"/>
</g>
<!-- Node5 -->
<g id="node5" class="node">
<title>Node5</title>
<g id="a_node5"><a xlink:href="classcore_1_1eventreceiver_1_1_accept_event_receiver.html" target="_top" xlink:title=" ">
<polygon fill="white" stroke="black" points="160,-280.5 160,-310.5 286,-310.5 286,-280.5 160,-280.5"/>
<text text-anchor="start" x="168" y="-298.5" font-family="Helvetica,sans-Serif" font-size="10.00">core::eventreceiver</text>
<text text-anchor="middle" x="223" y="-287.5" font-family="Helvetica,sans-Serif" font-size="10.00">::AcceptEventReceiver</text>
</a>
</g>
</g>
<!-- Node5&#45;&gt;Node2 -->
<g id="edge4" class="edge">
<title>Node5&#45;&gt;Node2</title>
<path fill="none" stroke="darkgreen" d="M236.48,-271.32C252.26,-240.8 273.23,-186.74 248,-150 241.28,-140.21 232.02,-132.62 221.67,-126.74"/>
<polygon fill="none" stroke="darkgreen" points="233.28,-269.88 231.61,-280.34 239.44,-273.21 233.28,-269.88"/>
</g>
<!-- Node5&#45;&gt;Node8 -->
<g id="edge10" class="edge">
<title>Node5&#45;&gt;Node8</title>
<path fill="none" stroke="darkgreen" d="M200.48,-273.31C190.11,-263.56 177.88,-252.05 167.74,-242.51"/>
<polygon fill="none" stroke="darkgreen" points="198.3,-276.07 207.98,-280.37 203.1,-270.97 198.3,-276.07"/>
</g>
<!-- Node6&#45;&gt;Node5 -->
<g id="edge5" class="edge">
<title>Node6&#45;&gt;Node5</title>
<path fill="none" stroke="midnightblue" d="M219.55,-338.22C220.28,-329.36 221.14,-318.96 221.82,-310.76"/>
<polygon fill="none" stroke="midnightblue" points="216.05,-338.08 218.72,-348.33 223.03,-338.65 216.05,-338.08"/>
</g>
<!-- Node7 -->
<g id="node7" class="node">
<title>Node7</title>
<g id="a_node7"><a xlink:href="classcore_1_1_observer.html" target="_top" xlink:title=" ">
<polygon fill="white" stroke="black" points="174,-405.5 174,-424.5 262,-424.5 262,-405.5 174,-405.5"/>
<text text-anchor="middle" x="218" y="-412.5" font-family="Helvetica,sans-Serif" font-size="10.00">core::Observer</text>
</a>
</g>
</g>
<!-- Node7&#45;&gt;Node6 -->
<g id="edge6" class="edge">
<title>Node7&#45;&gt;Node6</title>
<path fill="none" stroke="midnightblue" d="M218,-395.12C218,-385.82 218,-375.06 218,-367.71"/>
<polygon fill="none" stroke="midnightblue" points="214.5,-395.41 218,-405.41 221.5,-395.41 214.5,-395.41"/>
</g>
<!-- Node8&#45;&gt;Node2 -->
<g id="edge8" class="edge">
<title>Node8&#45;&gt;Node2</title>
<path fill="none" stroke="orange" d="M137.58,-191.27C136.95,-188.5 136.4,-185.71 136,-183 133.48,-166.05 133.25,-146.76 133.64,-131.79"/>
<polygon fill="orange" stroke="orange" points="134.23,-192.32 140.15,-201.11 141.01,-190.55 134.23,-192.32"/>
<text text-anchor="start" x="136" y="-175" font-family="Helvetica,sans-Serif" font-size="10.00"> &lt; SocketServerT, core</text>
<text text-anchor="start" x="136" y="-164" font-family="Helvetica,sans-Serif" font-size="10.00">::socket::stream::tls</text>
<text text-anchor="middle" x="192" y="-153" font-family="Helvetica,sans-Serif" font-size="10.00">::SocketConnection &gt;</text>
</g>
</g>
</svg>
