<?xml version="1.0" encoding="UTF-8" standalone="no"?>
<!DOCTYPE svg PUBLIC "-//W3C//DTD SVG 1.1//EN"
 "http://www.w3.org/Graphics/SVG/1.1/DTD/svg11.dtd">
<!-- Generated by graphviz version 2.43.0 (0)
 -->
<!-- Title: CLI::ParseError Pages: 1 -->
<svg width="114pt" height="331pt"
 viewBox="0.00 0.00 114.00 331.00" xmlns="http://www.w3.org/2000/svg" xmlns:xlink="http://www.w3.org/1999/xlink">
<g id="graph0" class="graph" transform="scale(1 1) rotate(0) translate(4 327)">
<title>CLI::ParseError</title>
<polygon fill="white" stroke="transparent" points="-4,4 -4,-327 110,-327 110,4 -4,4"/>
<!-- Node1 -->
<g id="node1" class="node">
<title>Node1</title>
<g id="a_node1"><a xlink:title="Anything that can error in Parse.">
<polygon fill="#bfbfbf" stroke="black" points="9,-0.5 9,-90.5 97,-90.5 97,-0.5 9,-0.5"/>
<text text-anchor="middle" x="53" y="-78.5" font-family="Helvetica,sans-Serif" font-size="10.00">CLI::ParseError</text>
<polyline fill="none" stroke="black" points="9,-71.5 97,-71.5 "/>
<text text-anchor="middle" x="53" y="-59.5" font-family="Helvetica,sans-Serif" font-size="10.00"> </text>
<polyline fill="none" stroke="black" points="9,-52.5 97,-52.5 "/>
<text text-anchor="start" x="17" y="-40.5" font-family="Helvetica,sans-Serif" font-size="10.00">+ ParseError()</text>
<text text-anchor="start" x="17" y="-29.5" font-family="Helvetica,sans-Serif" font-size="10.00">+ ParseError()</text>
<text text-anchor="start" x="17" y="-18.5" font-family="Helvetica,sans-Serif" font-size="10.00"># ParseError()</text>
<text text-anchor="start" x="17" y="-7.5" font-family="Helvetica,sans-Serif" font-size="10.00"># ParseError()</text>
</a>
</g>
</g>
<!-- Node2 -->
<g id="node2" class="node">
<title>Node2</title>
<g id="a_node2"><a xlink:href="class_c_l_i_1_1_error.html" target="_top" xlink:title="All errors derive from this one.">
<polygon fill="white" stroke="black" points="0,-127.5 0,-228.5 106,-228.5 106,-127.5 0,-127.5"/>
<text text-anchor="middle" x="53" y="-216.5" font-family="Helvetica,sans-Serif" font-size="10.00">CLI::Error</text>
<polyline fill="none" stroke="black" points="0,-209.5 106,-209.5 "/>
<text text-anchor="start" x="8" y="-197.5" font-family="Helvetica,sans-Serif" font-size="10.00">&#45; actual_exit_code</text>
<text text-anchor="start" x="8" y="-186.5" font-family="Helvetica,sans-Serif" font-size="10.00">&#45; error_name</text>
<polyline fill="none" stroke="black" points="0,-179.5 106,-179.5 "/>
<text text-anchor="start" x="8" y="-167.5" font-family="Helvetica,sans-Serif" font-size="10.00">+ get_exit_code()</text>
<text text-anchor="start" x="8" y="-156.5" font-family="Helvetica,sans-Serif" font-size="10.00">+ get_name()</text>
<text text-anchor="start" x="8" y="-145.5" font-family="Helvetica,sans-Serif" font-size="10.00">+ Error()</text>
<text text-anchor="start" x="8" y="-134.5" font-family="Helvetica,sans-Serif" font-size="10.00">+ Error()</text>
</a>
</g>
</g>
<!-- Node2&#45;&gt;Node1 -->
<g id="edge1" class="edge">
<title>Node2&#45;&gt;Node1</title>
<path fill="none" stroke="midnightblue" d="M53,-117.23C53,-108.24 53,-99.1 53,-90.52"/>
<polygon fill="none" stroke="midnightblue" points="49.5,-117.29 53,-127.29 56.5,-117.29 49.5,-117.29"/>
</g>
<!-- Node3 -->
<g id="node3" class="node">
<title>Node3</title>
<g id="a_node3"><a xlink:title=" ">
<polygon fill="white" stroke="#bfbfbf" points="1,-265.5 1,-322.5 105,-322.5 105,-265.5 1,-265.5"/>
<text text-anchor="middle" x="53" y="-310.5" font-family="Helvetica,sans-Serif" font-size="10.00">std::runtime_error</text>
<polyline fill="none" stroke="#bfbfbf" points="1,-303.5 105,-303.5 "/>
<text text-anchor="middle" x="53" y="-291.5" font-family="Helvetica,sans-Serif" font-size="10.00"> </text>
<polyline fill="none" stroke="#bfbfbf" points="1,-284.5 105,-284.5 "/>
<text text-anchor="middle" x="53" y="-272.5" font-family="Helvetica,sans-Serif" font-size="10.00"> </text>
</a>
</g>
</g>
<!-- Node3&#45;&gt;Node2 -->
<g id="edge2" class="edge">
<title>Node3&#45;&gt;Node2</title>
<path fill="none" stroke="midnightblue" d="M53,-255.35C53,-246.8 53,-237.58 53,-228.61"/>
<polygon fill="none" stroke="midnightblue" points="49.5,-255.4 53,-265.4 56.5,-255.4 49.5,-255.4"/>
</g>
</g>
</svg>
