<?xml version="1.0" encoding="UTF-8" standalone="no"?>
<!DOCTYPE svg PUBLIC "-//W3C//DTD SVG 1.1//EN"
 "http://www.w3.org/Graphics/SVG/1.1/DTD/svg11.dtd">
<!-- Generated by graphviz version 2.43.0 (0)
 -->
<!-- Title: web::websocket::client::SocketContextUpgrade::create Pages: 1 -->
<svg width="1132pt" height="383pt"
 viewBox="0.00 0.00 1132.00 383.00" xmlns="http://www.w3.org/2000/svg" xmlns:xlink="http://www.w3.org/1999/xlink">
<g id="graph0" class="graph" transform="scale(1 1) rotate(0) translate(4 379)">
<title>web::websocket::client::SocketContextUpgrade::create</title>
<polygon fill="white" stroke="transparent" points="-4,4 -4,-379 1128,-379 1128,4 -4,4"/>
<!-- Node1 -->
<g id="node1" class="node">
<title>Node1</title>
<g id="a_node1"><a xlink:title=" ">
<polygon fill="#bfbfbf" stroke="black" points="0,-186 0,-227 125,-227 125,-186 0,-186"/>
<text text-anchor="start" x="8" y="-215" font-family="Helvetica,sans-Serif" font-size="10.00">web::websocket::client</text>
<text text-anchor="start" x="8" y="-204" font-family="Helvetica,sans-Serif" font-size="10.00">::SocketContextUpgrade</text>
<text text-anchor="middle" x="62.5" y="-193" font-family="Helvetica,sans-Serif" font-size="10.00">::create</text>
</a>
</g>
</g>
<!-- Node2 -->
<g id="node2" class="node">
<title>Node2</title>
<g id="a_node2"><a xlink:href="classweb_1_1websocket_1_1_sub_protocol_factory.html#a79647e7643e038c501951f1681a315a3" target="_top" xlink:title=" ">
<polygon fill="white" stroke="black" points="167,-321.5 167,-351.5 314,-351.5 314,-321.5 167,-321.5"/>
<text text-anchor="start" x="175" y="-339.5" font-family="Helvetica,sans-Serif" font-size="10.00">web::websocket::SubProtocol</text>
<text text-anchor="middle" x="240.5" y="-328.5" font-family="Helvetica,sans-Serif" font-size="10.00">Factory::createSubProtocol</text>
</a>
</g>
</g>
<!-- Node1&#45;&gt;Node2 -->
<g id="edge1" class="edge">
<title>Node1&#45;&gt;Node2</title>
<path fill="none" stroke="midnightblue" d="M85.96,-227.06C105.23,-244.29 134.08,-269.11 161,-288.5 174.61,-298.3 190.26,-308.14 203.99,-316.33"/>
<polygon fill="midnightblue" stroke="midnightblue" points="202.3,-319.4 212.7,-321.46 205.86,-313.37 202.3,-319.4"/>
</g>
<!-- Node4 -->
<g id="node4" class="node">
<title>Node4</title>
<g id="a_node4"><a xlink:href="classweb_1_1websocket_1_1client_1_1_sub_protocol_factory.html#abf50324ce158763cd920304df5f3716c" target="_top" xlink:title=" ">
<polygon fill="white" stroke="black" points="182,-238 182,-279 299,-279 299,-238 182,-238"/>
<text text-anchor="start" x="190" y="-267" font-family="Helvetica,sans-Serif" font-size="10.00">web::websocket::client</text>
<text text-anchor="start" x="190" y="-256" font-family="Helvetica,sans-Serif" font-size="10.00">::SubProtocolFactory::</text>
<text text-anchor="middle" x="240.5" y="-245" font-family="Helvetica,sans-Serif" font-size="10.00">deleteSubProtocol</text>
</a>
</g>
</g>
<!-- Node1&#45;&gt;Node4 -->
<g id="edge3" class="edge">
<title>Node1&#45;&gt;Node4</title>
<path fill="none" stroke="midnightblue" d="M125.06,-224.69C140.18,-229.16 156.45,-233.96 171.85,-238.51"/>
<polygon fill="midnightblue" stroke="midnightblue" points="171.24,-241.98 181.82,-241.46 173.22,-235.27 171.24,-241.98"/>
</g>
<!-- Node6 -->
<g id="node6" class="node">
<title>Node6</title>
<g id="a_node6"><a xlink:href="classweb_1_1websocket_1_1client_1_1_sub_protocol_factory_selector.html#ad8fb3cbccd230e0c0110b4465000aaa1" target="_top" xlink:title=" ">
<polygon fill="white" stroke="black" points="357,-186 357,-227 502,-227 502,-186 357,-186"/>
<text text-anchor="start" x="365" y="-215" font-family="Helvetica,sans-Serif" font-size="10.00">web::websocket::client</text>
<text text-anchor="start" x="365" y="-204" font-family="Helvetica,sans-Serif" font-size="10.00">::SubProtocolFactorySelector</text>
<text text-anchor="middle" x="429.5" y="-193" font-family="Helvetica,sans-Serif" font-size="10.00">::instance</text>
</a>
</g>
</g>
<!-- Node1&#45;&gt;Node6 -->
<g id="edge11" class="edge">
<title>Node1&#45;&gt;Node6</title>
<path fill="none" stroke="midnightblue" d="M125,-206.5C185.88,-206.5 279.44,-206.5 346.58,-206.5"/>
<polygon fill="midnightblue" stroke="midnightblue" points="346.71,-210 356.71,-206.5 346.71,-203 346.71,-210"/>
</g>
<!-- Node12 -->
<g id="node12" class="node">
<title>Node12</title>
<g id="a_node12"><a xlink:href="classweb_1_1websocket_1_1_sub_protocol_factory_selector.html#aec7fe704324bc43a85c5a296ef5fda17" target="_top" xlink:title=" ">
<polygon fill="white" stroke="black" points="167,-144.5 167,-174.5 314,-174.5 314,-144.5 167,-144.5"/>
<text text-anchor="start" x="175" y="-162.5" font-family="Helvetica,sans-Serif" font-size="10.00">web::websocket::SubProtocol</text>
<text text-anchor="middle" x="240.5" y="-151.5" font-family="Helvetica,sans-Serif" font-size="10.00">FactorySelector::select</text>
</a>
</g>
</g>
<!-- Node1&#45;&gt;Node12 -->
<g id="edge12" class="edge">
<title>Node1&#45;&gt;Node12</title>
<path fill="none" stroke="midnightblue" d="M125.06,-190.06C140.74,-185.87 157.65,-181.36 173.54,-177.11"/>
<polygon fill="midnightblue" stroke="midnightblue" points="174.52,-180.48 183.28,-174.51 172.71,-173.71 174.52,-180.48"/>
</g>
<!-- Node21 -->
<g id="node21" class="node">
<title>Node21</title>
<g id="a_node21"><a xlink:href="classweb_1_1websocket_1_1_socket_context_upgrade.html#aa630fad44c5a7187a230ef617ec35725" target="_top" xlink:title=" ">
<polygon fill="white" stroke="black" points="161,-62 161,-125 320,-125 320,-62 161,-62"/>
<text text-anchor="start" x="169" y="-113" font-family="Helvetica,sans-Serif" font-size="10.00">web::websocket::SocketContext</text>
<text text-anchor="start" x="169" y="-102" font-family="Helvetica,sans-Serif" font-size="10.00">Upgrade&lt; SubProtocol, web</text>
<text text-anchor="start" x="169" y="-91" font-family="Helvetica,sans-Serif" font-size="10.00">::http::client::Request, web</text>
<text text-anchor="start" x="169" y="-80" font-family="Helvetica,sans-Serif" font-size="10.00">::http::client::Response &gt;::</text>
<text text-anchor="middle" x="240.5" y="-69" font-family="Helvetica,sans-Serif" font-size="10.00">SocketContextUpgrade</text>
</a>
</g>
</g>
<!-- Node1&#45;&gt;Node21 -->
<g id="edge24" class="edge">
<title>Node1&#45;&gt;Node21</title>
<path fill="none" stroke="midnightblue" d="M89.71,-185.89C108.95,-171.14 135.99,-151.19 161,-135.5 163.9,-133.68 166.89,-131.86 169.93,-130.05"/>
<polygon fill="midnightblue" stroke="midnightblue" points="171.71,-133.06 178.59,-125.01 168.19,-127.01 171.71,-133.06"/>
</g>
<!-- Node3 -->
<g id="node3" class="node">
<title>Node3</title>
<g id="a_node3"><a xlink:href="classweb_1_1websocket_1_1_sub_protocol_factory.html#a25eee3fc89fca13bbcbf838a999cb90c" target="_top" xlink:title=" ">
<polygon fill="white" stroke="black" points="356,-344.5 356,-374.5 503,-374.5 503,-344.5 356,-344.5"/>
<text text-anchor="start" x="364" y="-362.5" font-family="Helvetica,sans-Serif" font-size="10.00">web::websocket::SubProtocol</text>
<text text-anchor="middle" x="429.5" y="-351.5" font-family="Helvetica,sans-Serif" font-size="10.00">Factory::create</text>
</a>
</g>
</g>
<!-- Node2&#45;&gt;Node3 -->
<g id="edge2" class="edge">
<title>Node2&#45;&gt;Node3</title>
<path fill="none" stroke="midnightblue" d="M314.07,-345.43C324.49,-346.71 335.28,-348.03 345.89,-349.34"/>
<polygon fill="midnightblue" stroke="midnightblue" points="345.62,-352.83 355.97,-350.58 346.48,-345.89 345.62,-352.83"/>
</g>
<!-- Node5 -->
<g id="node5" class="node">
<title>Node5</title>
<g id="a_node5"><a xlink:href="classweb_1_1websocket_1_1_sub_protocol_factory.html#a4bc79a954ee570afbf07e3eb32590659" target="_top" xlink:title=" ">
<polygon fill="white" stroke="black" points="356,-295.5 356,-325.5 503,-325.5 503,-295.5 356,-295.5"/>
<text text-anchor="start" x="364" y="-313.5" font-family="Helvetica,sans-Serif" font-size="10.00">web::websocket::SubProtocol</text>
<text text-anchor="middle" x="429.5" y="-302.5" font-family="Helvetica,sans-Serif" font-size="10.00">Factory::deleteSubProtocol</text>
</a>
</g>
</g>
<!-- Node4&#45;&gt;Node5 -->
<g id="edge4" class="edge">
<title>Node4&#45;&gt;Node5</title>
<path fill="none" stroke="midnightblue" d="M299.13,-274.53C319.79,-280.27 343.2,-286.78 364.38,-292.67"/>
<polygon fill="midnightblue" stroke="midnightblue" points="363.68,-296.11 374.25,-295.41 365.56,-289.36 363.68,-296.11"/>
</g>
<!-- Node4&#45;&gt;Node6 -->
<g id="edge5" class="edge">
<title>Node4&#45;&gt;Node6</title>
<path fill="none" stroke="midnightblue" d="M299.13,-242.47C314.24,-238.27 330.82,-233.66 346.92,-229.18"/>
<polygon fill="midnightblue" stroke="midnightblue" points="348.17,-232.47 356.87,-226.42 346.3,-225.73 348.17,-232.47"/>
</g>
<!-- Node7 -->
<g id="node7" class="node">
<title>Node7</title>
<g id="a_node7"><a xlink:href="classweb_1_1websocket_1_1_sub_protocol_factory_selector.html#a562695e0b6cbb6457d3f246cea729baf" target="_top" xlink:title=" ">
<polygon fill="white" stroke="black" points="356,-246.5 356,-276.5 503,-276.5 503,-246.5 356,-246.5"/>
<text text-anchor="start" x="364" y="-264.5" font-family="Helvetica,sans-Serif" font-size="10.00">web::websocket::SubProtocol</text>
<text text-anchor="middle" x="429.5" y="-253.5" font-family="Helvetica,sans-Serif" font-size="10.00">FactorySelector::unload</text>
</a>
</g>
</g>
<!-- Node4&#45;&gt;Node7 -->
<g id="edge6" class="edge">
<title>Node4&#45;&gt;Node7</title>
<path fill="none" stroke="midnightblue" d="M299.13,-259.42C313.83,-259.66 329.93,-259.92 345.62,-260.17"/>
<polygon fill="midnightblue" stroke="midnightblue" points="345.8,-263.67 355.85,-260.33 345.91,-256.67 345.8,-263.67"/>
</g>
<!-- Node8 -->
<g id="node8" class="node">
<title>Node8</title>
<g id="a_node8"><a xlink:href="classweb_1_1websocket_1_1_sub_protocol_factory_selector.html#aa96ae6cce3d101e853ad7ba1437e2f60" target="_top" xlink:title=" ">
<polygon fill="white" stroke="black" points="539,-241.5 539,-271.5 686,-271.5 686,-241.5 539,-241.5"/>
<text text-anchor="start" x="547" y="-259.5" font-family="Helvetica,sans-Serif" font-size="10.00">web::websocket::SubProtocol</text>
<text text-anchor="middle" x="612.5" y="-248.5" font-family="Helvetica,sans-Serif" font-size="10.00">FactorySelector::doUnload</text>
</a>
</g>
</g>
<!-- Node7&#45;&gt;Node8 -->
<g id="edge7" class="edge">
<title>Node7&#45;&gt;Node8</title>
<path fill="none" stroke="midnightblue" d="M503.08,-259.5C511.56,-259.26 520.26,-259.02 528.87,-258.78"/>
<polygon fill="midnightblue" stroke="midnightblue" points="529.01,-262.28 538.91,-258.51 528.81,-255.28 529.01,-262.28"/>
</g>
<!-- Node9 -->
<g id="node9" class="node">
<title>Node9</title>
<g id="a_node9"><a xlink:href="classcore_1_1_dynamic_loader.html#a42ac52cda1ec4534f1cc9e225dcb31b0" target="_top" xlink:title=" ">
<polygon fill="white" stroke="black" points="722,-186.5 722,-216.5 832,-216.5 832,-186.5 722,-186.5"/>
<text text-anchor="start" x="730" y="-204.5" font-family="Helvetica,sans-Serif" font-size="10.00">core::DynamicLoader</text>
<text text-anchor="middle" x="777" y="-193.5" font-family="Helvetica,sans-Serif" font-size="10.00">::dlClose</text>
</a>
</g>
</g>
<!-- Node8&#45;&gt;Node9 -->
<g id="edge8" class="edge">
<title>Node8&#45;&gt;Node9</title>
<path fill="none" stroke="midnightblue" d="M657.9,-241.47C677.7,-234.77 701.19,-226.82 722,-219.78"/>
<polygon fill="midnightblue" stroke="midnightblue" points="723.3,-223.03 731.65,-216.51 721.06,-216.4 723.3,-223.03"/>
</g>
<!-- Node10 -->
<g id="node10" class="node">
<title>Node10</title>
<g id="a_node10"><a xlink:href="classcore_1_1_dynamic_loader.html#afea22388177ead6ebd12f9ef041e6d2b" target="_top" xlink:title=" ">
<polygon fill="white" stroke="black" points="868,-186.5 868,-216.5 978,-216.5 978,-186.5 868,-186.5"/>
<text text-anchor="start" x="876" y="-204.5" font-family="Helvetica,sans-Serif" font-size="10.00">core::DynamicLoader</text>
<text text-anchor="middle" x="923" y="-193.5" font-family="Helvetica,sans-Serif" font-size="10.00">::execDlClose</text>
</a>
</g>
</g>
<!-- Node9&#45;&gt;Node10 -->
<g id="edge9" class="edge">
<title>Node9&#45;&gt;Node10</title>
<path fill="none" stroke="midnightblue" d="M832.03,-201.5C840.31,-201.5 848.94,-201.5 857.42,-201.5"/>
<polygon fill="midnightblue" stroke="midnightblue" points="857.67,-205 867.67,-201.5 857.67,-198 857.67,-205"/>
</g>
<!-- Node11 -->
<g id="node11" class="node">
<title>Node11</title>
<g id="a_node11"><a xlink:href="namespacecore_1_1system.html#a4317d54914cd18248143183ea71252d3" target="_top" xlink:title=" ">
<polygon fill="white" stroke="black" points="1014,-192 1014,-211 1124,-211 1124,-192 1014,-192"/>
<text text-anchor="middle" x="1069" y="-199" font-family="Helvetica,sans-Serif" font-size="10.00">core::system::dlclose</text>
</a>
</g>
</g>
<!-- Node10&#45;&gt;Node11 -->
<g id="edge10" class="edge">
<title>Node10&#45;&gt;Node11</title>
<path fill="none" stroke="midnightblue" d="M978.03,-201.5C986.31,-201.5 994.94,-201.5 1003.42,-201.5"/>
<polygon fill="midnightblue" stroke="midnightblue" points="1003.67,-205 1013.67,-201.5 1003.67,-198 1003.67,-205"/>
</g>
<!-- Node13 -->
<g id="node13" class="node">
<title>Node13</title>
<g id="a_node13"><a xlink:href="classweb_1_1websocket_1_1_sub_protocol_factory_selector.html#acede132589364760936fe84cc98cb7a3" target="_top" xlink:title=" ">
<polygon fill="white" stroke="black" points="539,-186.5 539,-216.5 686,-216.5 686,-186.5 539,-186.5"/>
<text text-anchor="start" x="547" y="-204.5" font-family="Helvetica,sans-Serif" font-size="10.00">web::websocket::SubProtocol</text>
<text text-anchor="middle" x="612.5" y="-193.5" font-family="Helvetica,sans-Serif" font-size="10.00">FactorySelector::add</text>
</a>
</g>
</g>
<!-- Node12&#45;&gt;Node13 -->
<g id="edge13" class="edge">
<title>Node12&#45;&gt;Node13</title>
<path fill="none" stroke="midnightblue" d="M314.26,-161.08C366.91,-162.99 439.64,-167.2 503,-176.5 516.47,-178.48 530.73,-181.26 544.34,-184.25"/>
<polygon fill="midnightblue" stroke="midnightblue" points="543.59,-187.67 554.11,-186.46 545.13,-180.84 543.59,-187.67"/>
</g>
<!-- Node14 -->
<g id="node14" class="node">
<title>Node14</title>
<g id="a_node14"><a xlink:href="classweb_1_1websocket_1_1_sub_protocol_factory_selector.html#af574d40a7e9b0fe561747e793d75176d" target="_top" xlink:title=" ">
<polygon fill="white" stroke="black" points="356,-98.5 356,-128.5 503,-128.5 503,-98.5 356,-98.5"/>
<text text-anchor="start" x="364" y="-116.5" font-family="Helvetica,sans-Serif" font-size="10.00">web::websocket::SubProtocol</text>
<text text-anchor="middle" x="429.5" y="-105.5" font-family="Helvetica,sans-Serif" font-size="10.00">FactorySelector::load</text>
</a>
</g>
</g>
<!-- Node12&#45;&gt;Node14 -->
<g id="edge15" class="edge">
<title>Node12&#45;&gt;Node14</title>
<path fill="none" stroke="midnightblue" d="M302.73,-144.44C320.26,-140.13 339.51,-135.39 357.56,-130.95"/>
<polygon fill="midnightblue" stroke="midnightblue" points="358.58,-134.3 367.45,-128.52 356.9,-127.51 358.58,-134.3"/>
</g>
<!-- Node13&#45;&gt;Node9 -->
<g id="edge14" class="edge">
<title>Node13&#45;&gt;Node9</title>
<path fill="none" stroke="midnightblue" d="M686.19,-201.5C694.73,-201.5 703.38,-201.5 711.79,-201.5"/>
<polygon fill="midnightblue" stroke="midnightblue" points="711.89,-205 721.89,-201.5 711.89,-198 711.89,-205"/>
</g>
<!-- Node14&#45;&gt;Node9 -->
<g id="edge17" class="edge">
<title>Node14&#45;&gt;Node9</title>
<path fill="none" stroke="midnightblue" d="M491.74,-128.56C543.54,-141.37 619.7,-160.36 686,-177.5 694.42,-179.68 703.27,-182 712,-184.31"/>
<polygon fill="midnightblue" stroke="midnightblue" points="711.22,-187.72 721.78,-186.9 713.01,-180.95 711.22,-187.72"/>
</g>
<!-- Node14&#45;&gt;Node13 -->
<g id="edge16" class="edge">
<title>Node14&#45;&gt;Node13</title>
<path fill="none" stroke="midnightblue" d="M472.45,-128.61C482.7,-132.91 493.46,-137.95 503,-143.5 520.52,-153.69 521.48,-161.31 539,-171.5 545.71,-175.4 553.02,-179.05 560.33,-182.37"/>
<polygon fill="midnightblue" stroke="midnightblue" points="558.99,-185.6 569.55,-186.39 561.78,-179.18 558.99,-185.6"/>
</g>
<!-- Node15 -->
<g id="node15" class="node">
<title>Node15</title>
<g id="a_node15"><a xlink:href="classcore_1_1_dynamic_loader.html#a28d14f3029339351d8bb8b328a6110b0" target="_top" xlink:title=" ">
<polygon fill="white" stroke="black" points="557.5,-98.5 557.5,-128.5 667.5,-128.5 667.5,-98.5 557.5,-98.5"/>
<text text-anchor="start" x="565.5" y="-116.5" font-family="Helvetica,sans-Serif" font-size="10.00">core::DynamicLoader</text>
<text text-anchor="middle" x="612.5" y="-105.5" font-family="Helvetica,sans-Serif" font-size="10.00">::dlError</text>
</a>
</g>
</g>
<!-- Node14&#45;&gt;Node15 -->
<g id="edge18" class="edge">
<title>Node14&#45;&gt;Node15</title>
<path fill="none" stroke="midnightblue" d="M503.08,-113.5C517.64,-113.5 532.85,-113.5 547.11,-113.5"/>
<polygon fill="midnightblue" stroke="midnightblue" points="547.3,-117 557.3,-113.5 547.3,-110 547.3,-117"/>
</g>
<!-- Node17 -->
<g id="node17" class="node">
<title>Node17</title>
<g id="a_node17"><a xlink:href="classcore_1_1_dynamic_loader.html#a608355c38f00831c64e122ae1722db2d" target="_top" xlink:title=" ">
<polygon fill="white" stroke="black" points="557.5,-49.5 557.5,-79.5 667.5,-79.5 667.5,-49.5 557.5,-49.5"/>
<text text-anchor="start" x="565.5" y="-67.5" font-family="Helvetica,sans-Serif" font-size="10.00">core::DynamicLoader</text>
<text text-anchor="middle" x="612.5" y="-56.5" font-family="Helvetica,sans-Serif" font-size="10.00">::dlOpen</text>
</a>
</g>
</g>
<!-- Node14&#45;&gt;Node17 -->
<g id="edge20" class="edge">
<title>Node14&#45;&gt;Node17</title>
<path fill="none" stroke="midnightblue" d="M486.28,-98.4C505.74,-93.13 527.73,-87.18 547.78,-81.75"/>
<polygon fill="midnightblue" stroke="midnightblue" points="548.71,-85.12 557.45,-79.13 546.89,-78.37 548.71,-85.12"/>
</g>
<!-- Node19 -->
<g id="node19" class="node">
<title>Node19</title>
<g id="a_node19"><a xlink:href="classcore_1_1_dynamic_loader.html#aa0a7e34f74e126dfbd0f5f5939694e31" target="_top" xlink:title=" ">
<polygon fill="white" stroke="black" points="557.5,-0.5 557.5,-30.5 667.5,-30.5 667.5,-0.5 557.5,-0.5"/>
<text text-anchor="start" x="565.5" y="-18.5" font-family="Helvetica,sans-Serif" font-size="10.00">core::DynamicLoader</text>
<text text-anchor="middle" x="612.5" y="-7.5" font-family="Helvetica,sans-Serif" font-size="10.00">::dlSym</text>
</a>
</g>
</g>
<!-- Node14&#45;&gt;Node19 -->
<g id="edge22" class="edge">
<title>Node14&#45;&gt;Node19</title>
<path fill="none" stroke="midnightblue" d="M449.55,-98.42C470.52,-82.39 505.67,-57.1 539,-40.5 543.32,-38.35 547.86,-36.31 552.49,-34.39"/>
<polygon fill="midnightblue" stroke="midnightblue" points="554.02,-37.54 562.04,-30.61 551.45,-31.03 554.02,-37.54"/>
</g>
<!-- Node16 -->
<g id="node16" class="node">
<title>Node16</title>
<g id="a_node16"><a xlink:href="namespacecore_1_1system.html#a0778aa080f796964218bcd02804a2b17" target="_top" xlink:title=" ">
<polygon fill="white" stroke="black" points="723.5,-104 723.5,-123 830.5,-123 830.5,-104 723.5,-104"/>
<text text-anchor="middle" x="777" y="-111" font-family="Helvetica,sans-Serif" font-size="10.00">core::system::dlerror</text>
</a>
</g>
</g>
<!-- Node15&#45;&gt;Node16 -->
<g id="edge19" class="edge">
<title>Node15&#45;&gt;Node16</title>
<path fill="none" stroke="midnightblue" d="M667.61,-113.5C682.16,-113.5 698.03,-113.5 713.02,-113.5"/>
<polygon fill="midnightblue" stroke="midnightblue" points="713.23,-117 723.23,-113.5 713.23,-110 713.23,-117"/>
</g>
<!-- Node18 -->
<g id="node18" class="node">
<title>Node18</title>
<g id="a_node18"><a xlink:href="namespacecore_1_1system.html#a87ab6f4aac806776e472cc3abeb61447" target="_top" xlink:title=" ">
<polygon fill="white" stroke="black" points="723,-55 723,-74 831,-74 831,-55 723,-55"/>
<text text-anchor="middle" x="777" y="-62" font-family="Helvetica,sans-Serif" font-size="10.00">core::system::dlopen</text>
</a>
</g>
</g>
<!-- Node17&#45;&gt;Node18 -->
<g id="edge21" class="edge">
<title>Node17&#45;&gt;Node18</title>
<path fill="none" stroke="midnightblue" d="M667.61,-64.5C682.09,-64.5 697.87,-64.5 712.79,-64.5"/>
<polygon fill="midnightblue" stroke="midnightblue" points="712.95,-68 722.95,-64.5 712.95,-61 712.95,-68"/>
</g>
<!-- Node20 -->
<g id="node20" class="node">
<title>Node20</title>
<g id="a_node20"><a xlink:href="namespacecore_1_1system.html#a83d3862b9812ad39b93753bbea40238b" target="_top" xlink:title=" ">
<polygon fill="white" stroke="black" points="724,-6 724,-25 830,-25 830,-6 724,-6"/>
<text text-anchor="middle" x="777" y="-13" font-family="Helvetica,sans-Serif" font-size="10.00">core::system::dlsym</text>
</a>
</g>
</g>
<!-- Node19&#45;&gt;Node20 -->
<g id="edge23" class="edge">
<title>Node19&#45;&gt;Node20</title>
<path fill="none" stroke="midnightblue" d="M667.61,-15.5C682.31,-15.5 698.36,-15.5 713.48,-15.5"/>
<polygon fill="midnightblue" stroke="midnightblue" points="713.78,-19 723.78,-15.5 713.78,-12 713.78,-19"/>
</g>
</g>
</svg>
