<?xml version="1.0" encoding="UTF-8" standalone="no"?>
<!DOCTYPE svg PUBLIC "-//W3C//DTD SVG 1.1//EN"
 "http://www.w3.org/Graphics/SVG/1.1/DTD/svg11.dtd">
<!-- Generated by graphviz version 2.43.0 (0)
 -->
<!-- Title: web::websocket::client::SocketContextUpgradeFactory::create Pages: 1 -->
<svg width="1350pt" height="514pt"
 viewBox="0.00 0.00 1350.00 513.50" xmlns="http://www.w3.org/2000/svg" xmlns:xlink="http://www.w3.org/1999/xlink">
<g id="graph0" class="graph" transform="scale(1 1) rotate(0) translate(4 509.5)">
<title>web::websocket::client::SocketContextUpgradeFactory::create</title>
<polygon fill="white" stroke="transparent" points="-4,4 -4,-509.5 1346,-509.5 1346,4 -4,4"/>
<!-- Node1 -->
<g id="node1" class="node">
<title>Node1</title>
<g id="a_node1"><a xlink:title=" ">
<polygon fill="#bfbfbf" stroke="black" points="0,-197.5 0,-238.5 158,-238.5 158,-197.5 0,-197.5"/>
<text text-anchor="start" x="8" y="-226.5" font-family="Helvetica,sans-Serif" font-size="10.00">web::websocket::client</text>
<text text-anchor="start" x="8" y="-215.5" font-family="Helvetica,sans-Serif" font-size="10.00">::SocketContextUpgradeFactory</text>
<text text-anchor="middle" x="79" y="-204.5" font-family="Helvetica,sans-Serif" font-size="10.00">::create</text>
</a>
</g>
</g>
<!-- Node2 -->
<g id="node2" class="node">
<title>Node2</title>
<g id="a_node2"><a xlink:href="classweb_1_1websocket_1_1client_1_1_socket_context_upgrade.html#a3efeb348aa6c5a36e3264a3f367f3c8b" target="_top" xlink:title=" ">
<polygon fill="white" stroke="black" points="206,-291.5 206,-332.5 331,-332.5 331,-291.5 206,-291.5"/>
<text text-anchor="start" x="214" y="-320.5" font-family="Helvetica,sans-Serif" font-size="10.00">web::websocket::client</text>
<text text-anchor="start" x="214" y="-309.5" font-family="Helvetica,sans-Serif" font-size="10.00">::SocketContextUpgrade</text>
<text text-anchor="middle" x="268.5" y="-298.5" font-family="Helvetica,sans-Serif" font-size="10.00">::create</text>
</a>
</g>
</g>
<!-- Node1&#45;&gt;Node2 -->
<g id="edge1" class="edge">
<title>Node1&#45;&gt;Node2</title>
<path fill="none" stroke="midnightblue" d="M121.15,-238.63C149.48,-252.83 187.29,-271.79 217.38,-286.87"/>
<polygon fill="midnightblue" stroke="midnightblue" points="215.94,-290.07 226.45,-291.42 219.08,-283.81 215.94,-290.07"/>
</g>
<!-- Node23 -->
<g id="node23" class="node">
<title>Node23</title>
<g id="a_node23"><a xlink:href="namespacebase64.html#a43968536c5e19d8c265e17d08fd91c3e" target="_top" xlink:title=" ">
<polygon fill="white" stroke="black" points="194,-145.5 194,-164.5 343,-164.5 343,-145.5 194,-145.5"/>
<text text-anchor="middle" x="268.5" y="-152.5" font-family="Helvetica,sans-Serif" font-size="10.00">base64::serverWebSocketKey</text>
</a>
</g>
</g>
<!-- Node1&#45;&gt;Node23 -->
<g id="edge26" class="edge">
<title>Node1&#45;&gt;Node23</title>
<path fill="none" stroke="midnightblue" d="M141.14,-197.46C170.19,-187.7 204.03,-176.33 229.37,-167.81"/>
<polygon fill="midnightblue" stroke="midnightblue" points="230.62,-171.09 238.98,-164.58 228.39,-164.45 230.62,-171.09"/>
</g>
<!-- Node3 -->
<g id="node3" class="node">
<title>Node3</title>
<g id="a_node3"><a xlink:href="classweb_1_1websocket_1_1_sub_protocol_factory.html#a79647e7643e038c501951f1681a315a3" target="_top" xlink:title=" ">
<polygon fill="white" stroke="black" points="385,-452 385,-482 532,-482 532,-452 385,-452"/>
<text text-anchor="start" x="393" y="-470" font-family="Helvetica,sans-Serif" font-size="10.00">web::websocket::SubProtocol</text>
<text text-anchor="middle" x="458.5" y="-459" font-family="Helvetica,sans-Serif" font-size="10.00">Factory::createSubProtocol</text>
</a>
</g>
</g>
<!-- Node2&#45;&gt;Node3 -->
<g id="edge2" class="edge">
<title>Node2&#45;&gt;Node3</title>
<path fill="none" stroke="midnightblue" d="M288.52,-332.87C309.49,-355.29 344.82,-391.27 379,-418 392.29,-428.39 407.88,-438.5 421.66,-446.81"/>
<polygon fill="midnightblue" stroke="midnightblue" points="420.01,-449.91 430.4,-452 423.58,-443.89 420.01,-449.91"/>
</g>
<!-- Node5 -->
<g id="node5" class="node">
<title>Node5</title>
<g id="a_node5"><a xlink:href="classweb_1_1websocket_1_1client_1_1_sub_protocol_factory.html#abf50324ce158763cd920304df5f3716c" target="_top" xlink:title=" ">
<polygon fill="white" stroke="black" points="400,-367.5 400,-408.5 517,-408.5 517,-367.5 400,-367.5"/>
<text text-anchor="start" x="408" y="-396.5" font-family="Helvetica,sans-Serif" font-size="10.00">web::websocket::client</text>
<text text-anchor="start" x="408" y="-385.5" font-family="Helvetica,sans-Serif" font-size="10.00">::SubProtocolFactory::</text>
<text text-anchor="middle" x="458.5" y="-374.5" font-family="Helvetica,sans-Serif" font-size="10.00">deleteSubProtocol</text>
</a>
</g>
</g>
<!-- Node2&#45;&gt;Node5 -->
<g id="edge4" class="edge">
<title>Node2&#45;&gt;Node5</title>
<path fill="none" stroke="midnightblue" d="M320.38,-332.57C344.1,-342.16 372.49,-353.64 397.28,-363.66"/>
<polygon fill="midnightblue" stroke="midnightblue" points="396,-366.91 406.58,-367.42 398.62,-360.42 396,-366.91"/>
</g>
<!-- Node7 -->
<g id="node7" class="node">
<title>Node7</title>
<g id="a_node7"><a xlink:href="classweb_1_1websocket_1_1client_1_1_sub_protocol_factory_selector.html#ad8fb3cbccd230e0c0110b4465000aaa1" target="_top" xlink:title=" ">
<polygon fill="white" stroke="black" points="575,-316.5 575,-357.5 720,-357.5 720,-316.5 575,-316.5"/>
<text text-anchor="start" x="583" y="-345.5" font-family="Helvetica,sans-Serif" font-size="10.00">web::websocket::client</text>
<text text-anchor="start" x="583" y="-334.5" font-family="Helvetica,sans-Serif" font-size="10.00">::SubProtocolFactorySelector</text>
<text text-anchor="middle" x="647.5" y="-323.5" font-family="Helvetica,sans-Serif" font-size="10.00">::instance</text>
</a>
</g>
</g>
<!-- Node2&#45;&gt;Node7 -->
<g id="edge12" class="edge">
<title>Node2&#45;&gt;Node7</title>
<path fill="none" stroke="midnightblue" d="M331.33,-316.1C395.04,-320.33 494.69,-326.93 564.85,-331.59"/>
<polygon fill="midnightblue" stroke="midnightblue" points="564.77,-335.09 574.98,-332.26 565.23,-328.1 564.77,-335.09"/>
</g>
<!-- Node13 -->
<g id="node13" class="node">
<title>Node13</title>
<g id="a_node13"><a xlink:href="classweb_1_1websocket_1_1_sub_protocol_factory_selector.html#aec7fe704324bc43a85c5a296ef5fda17" target="_top" xlink:title=" ">
<polygon fill="white" stroke="black" points="385,-274 385,-304 532,-304 532,-274 385,-274"/>
<text text-anchor="start" x="393" y="-292" font-family="Helvetica,sans-Serif" font-size="10.00">web::websocket::SubProtocol</text>
<text text-anchor="middle" x="458.5" y="-281" font-family="Helvetica,sans-Serif" font-size="10.00">FactorySelector::select</text>
</a>
</g>
</g>
<!-- Node2&#45;&gt;Node13 -->
<g id="edge13" class="edge">
<title>Node2&#45;&gt;Node13</title>
<path fill="none" stroke="midnightblue" d="M331.06,-304.47C344.98,-302.77 359.98,-300.93 374.62,-299.14"/>
<polygon fill="midnightblue" stroke="midnightblue" points="375.18,-302.6 384.68,-297.91 374.33,-295.65 375.18,-302.6"/>
</g>
<!-- Node22 -->
<g id="node22" class="node">
<title>Node22</title>
<g id="a_node22"><a xlink:href="classweb_1_1websocket_1_1_socket_context_upgrade.html#aa630fad44c5a7187a230ef617ec35725" target="_top" xlink:title=" ">
<polygon fill="white" stroke="black" points="379,-191.5 379,-254.5 538,-254.5 538,-191.5 379,-191.5"/>
<text text-anchor="start" x="387" y="-242.5" font-family="Helvetica,sans-Serif" font-size="10.00">web::websocket::SocketContext</text>
<text text-anchor="start" x="387" y="-231.5" font-family="Helvetica,sans-Serif" font-size="10.00">Upgrade&lt; SubProtocol, web</text>
<text text-anchor="start" x="387" y="-220.5" font-family="Helvetica,sans-Serif" font-size="10.00">::http::client::Request, web</text>
<text text-anchor="start" x="387" y="-209.5" font-family="Helvetica,sans-Serif" font-size="10.00">::http::client::Response &gt;::</text>
<text text-anchor="middle" x="458.5" y="-198.5" font-family="Helvetica,sans-Serif" font-size="10.00">SocketContextUpgrade</text>
</a>
</g>
</g>
<!-- Node2&#45;&gt;Node22 -->
<g id="edge25" class="edge">
<title>Node2&#45;&gt;Node22</title>
<path fill="none" stroke="midnightblue" d="M313.1,-291.36C333.5,-281.7 358.39,-269.92 381.73,-258.87"/>
<polygon fill="midnightblue" stroke="midnightblue" points="383.38,-261.96 390.92,-254.52 380.38,-255.63 383.38,-261.96"/>
</g>
<!-- Node4 -->
<g id="node4" class="node">
<title>Node4</title>
<g id="a_node4"><a xlink:href="classweb_1_1websocket_1_1_sub_protocol_factory.html#a25eee3fc89fca13bbcbf838a999cb90c" target="_top" xlink:title=" ">
<polygon fill="white" stroke="black" points="574,-475 574,-505 721,-505 721,-475 574,-475"/>
<text text-anchor="start" x="582" y="-493" font-family="Helvetica,sans-Serif" font-size="10.00">web::websocket::SubProtocol</text>
<text text-anchor="middle" x="647.5" y="-482" font-family="Helvetica,sans-Serif" font-size="10.00">Factory::create</text>
</a>
</g>
</g>
<!-- Node3&#45;&gt;Node4 -->
<g id="edge3" class="edge">
<title>Node3&#45;&gt;Node4</title>
<path fill="none" stroke="midnightblue" d="M532.07,-475.93C542.49,-477.21 553.28,-478.53 563.89,-479.84"/>
<polygon fill="midnightblue" stroke="midnightblue" points="563.62,-483.33 573.97,-481.08 564.48,-476.39 563.62,-483.33"/>
</g>
<!-- Node6 -->
<g id="node6" class="node">
<title>Node6</title>
<g id="a_node6"><a xlink:href="classweb_1_1websocket_1_1_sub_protocol_factory.html#a4bc79a954ee570afbf07e3eb32590659" target="_top" xlink:title=" ">
<polygon fill="white" stroke="black" points="574,-426 574,-456 721,-456 721,-426 574,-426"/>
<text text-anchor="start" x="582" y="-444" font-family="Helvetica,sans-Serif" font-size="10.00">web::websocket::SubProtocol</text>
<text text-anchor="middle" x="647.5" y="-433" font-family="Helvetica,sans-Serif" font-size="10.00">Factory::deleteSubProtocol</text>
</a>
</g>
</g>
<!-- Node5&#45;&gt;Node6 -->
<g id="edge5" class="edge">
<title>Node5&#45;&gt;Node6</title>
<path fill="none" stroke="midnightblue" d="M517.13,-404.33C538.26,-410.32 562.26,-417.12 583.81,-423.23"/>
<polygon fill="midnightblue" stroke="midnightblue" points="582.94,-426.62 593.52,-425.98 584.85,-419.89 582.94,-426.62"/>
</g>
<!-- Node5&#45;&gt;Node7 -->
<g id="edge6" class="edge">
<title>Node5&#45;&gt;Node7</title>
<path fill="none" stroke="midnightblue" d="M517.13,-372.28C532.24,-368.16 548.82,-363.64 564.92,-359.25"/>
<polygon fill="midnightblue" stroke="midnightblue" points="566.14,-362.54 574.87,-356.54 564.3,-355.79 566.14,-362.54"/>
</g>
<!-- Node8 -->
<g id="node8" class="node">
<title>Node8</title>
<g id="a_node8"><a xlink:href="classweb_1_1websocket_1_1_sub_protocol_factory_selector.html#a562695e0b6cbb6457d3f246cea729baf" target="_top" xlink:title=" ">
<polygon fill="white" stroke="black" points="574,-377 574,-407 721,-407 721,-377 574,-377"/>
<text text-anchor="start" x="582" y="-395" font-family="Helvetica,sans-Serif" font-size="10.00">web::websocket::SubProtocol</text>
<text text-anchor="middle" x="647.5" y="-384" font-family="Helvetica,sans-Serif" font-size="10.00">FactorySelector::unload</text>
</a>
</g>
</g>
<!-- Node5&#45;&gt;Node8 -->
<g id="edge7" class="edge">
<title>Node5&#45;&gt;Node8</title>
<path fill="none" stroke="midnightblue" d="M517.13,-389.23C531.83,-389.55 547.93,-389.89 563.62,-390.23"/>
<polygon fill="midnightblue" stroke="midnightblue" points="563.78,-393.73 573.85,-390.45 563.93,-386.73 563.78,-393.73"/>
</g>
<!-- Node9 -->
<g id="node9" class="node">
<title>Node9</title>
<g id="a_node9"><a xlink:href="classweb_1_1websocket_1_1_sub_protocol_factory_selector.html#aa96ae6cce3d101e853ad7ba1437e2f60" target="_top" xlink:title=" ">
<polygon fill="white" stroke="black" points="757,-374 757,-404 904,-404 904,-374 757,-374"/>
<text text-anchor="start" x="765" y="-392" font-family="Helvetica,sans-Serif" font-size="10.00">web::websocket::SubProtocol</text>
<text text-anchor="middle" x="830.5" y="-381" font-family="Helvetica,sans-Serif" font-size="10.00">FactorySelector::doUnload</text>
</a>
</g>
</g>
<!-- Node8&#45;&gt;Node9 -->
<g id="edge8" class="edge">
<title>Node8&#45;&gt;Node9</title>
<path fill="none" stroke="midnightblue" d="M721.08,-390.8C729.56,-390.66 738.26,-390.51 746.87,-390.37"/>
<polygon fill="midnightblue" stroke="midnightblue" points="746.97,-393.87 756.91,-390.2 746.85,-386.87 746.97,-393.87"/>
</g>
<!-- Node10 -->
<g id="node10" class="node">
<title>Node10</title>
<g id="a_node10"><a xlink:href="classcore_1_1_dynamic_loader.html#a42ac52cda1ec4534f1cc9e225dcb31b0" target="_top" xlink:title=" ">
<polygon fill="white" stroke="black" points="940,-320 940,-350 1050,-350 1050,-320 940,-320"/>
<text text-anchor="start" x="948" y="-338" font-family="Helvetica,sans-Serif" font-size="10.00">core::DynamicLoader</text>
<text text-anchor="middle" x="995" y="-327" font-family="Helvetica,sans-Serif" font-size="10.00">::dlClose</text>
</a>
</g>
</g>
<!-- Node9&#45;&gt;Node10 -->
<g id="edge9" class="edge">
<title>Node9&#45;&gt;Node10</title>
<path fill="none" stroke="midnightblue" d="M876.77,-373.96C896.05,-367.55 918.73,-360.01 938.98,-353.28"/>
<polygon fill="midnightblue" stroke="midnightblue" points="940.31,-356.53 948.7,-350.05 938.1,-349.89 940.31,-356.53"/>
</g>
<!-- Node11 -->
<g id="node11" class="node">
<title>Node11</title>
<g id="a_node11"><a xlink:href="classcore_1_1_dynamic_loader.html#afea22388177ead6ebd12f9ef041e6d2b" target="_top" xlink:title=" ">
<polygon fill="white" stroke="black" points="1086,-320 1086,-350 1196,-350 1196,-320 1086,-320"/>
<text text-anchor="start" x="1094" y="-338" font-family="Helvetica,sans-Serif" font-size="10.00">core::DynamicLoader</text>
<text text-anchor="middle" x="1141" y="-327" font-family="Helvetica,sans-Serif" font-size="10.00">::execDlClose</text>
</a>
</g>
</g>
<!-- Node10&#45;&gt;Node11 -->
<g id="edge10" class="edge">
<title>Node10&#45;&gt;Node11</title>
<path fill="none" stroke="midnightblue" d="M1050.03,-335C1058.31,-335 1066.94,-335 1075.42,-335"/>
<polygon fill="midnightblue" stroke="midnightblue" points="1075.67,-338.5 1085.67,-335 1075.67,-331.5 1075.67,-338.5"/>
</g>
<!-- Node12 -->
<g id="node12" class="node">
<title>Node12</title>
<g id="a_node12"><a xlink:href="namespacecore_1_1system.html#a4317d54914cd18248143183ea71252d3" target="_top" xlink:title=" ">
<polygon fill="white" stroke="black" points="1232,-325.5 1232,-344.5 1342,-344.5 1342,-325.5 1232,-325.5"/>
<text text-anchor="middle" x="1287" y="-332.5" font-family="Helvetica,sans-Serif" font-size="10.00">core::system::dlclose</text>
</a>
</g>
</g>
<!-- Node11&#45;&gt;Node12 -->
<g id="edge11" class="edge">
<title>Node11&#45;&gt;Node12</title>
<path fill="none" stroke="midnightblue" d="M1196.03,-335C1204.31,-335 1212.94,-335 1221.42,-335"/>
<polygon fill="midnightblue" stroke="midnightblue" points="1221.67,-338.5 1231.67,-335 1221.67,-331.5 1221.67,-338.5"/>
</g>
<!-- Node14 -->
<g id="node14" class="node">
<title>Node14</title>
<g id="a_node14"><a xlink:href="classweb_1_1websocket_1_1_sub_protocol_factory_selector.html#acede132589364760936fe84cc98cb7a3" target="_top" xlink:title=" ">
<polygon fill="white" stroke="black" points="757,-320 757,-350 904,-350 904,-320 757,-320"/>
<text text-anchor="start" x="765" y="-338" font-family="Helvetica,sans-Serif" font-size="10.00">web::websocket::SubProtocol</text>
<text text-anchor="middle" x="830.5" y="-327" font-family="Helvetica,sans-Serif" font-size="10.00">FactorySelector::add</text>
</a>
</g>
</g>
<!-- Node13&#45;&gt;Node14 -->
<g id="edge14" class="edge">
<title>Node13&#45;&gt;Node14</title>
<path fill="none" stroke="midnightblue" d="M532.05,-290.42C584.77,-292.32 657.66,-296.74 721,-307 736.75,-309.55 753.55,-313.34 769.11,-317.32"/>
<polygon fill="midnightblue" stroke="midnightblue" points="768.57,-320.8 779.13,-319.95 770.34,-314.02 768.57,-320.8"/>
</g>
<!-- Node15 -->
<g id="node15" class="node">
<title>Node15</title>
<g id="a_node15"><a xlink:href="classweb_1_1websocket_1_1_sub_protocol_factory_selector.html#af574d40a7e9b0fe561747e793d75176d" target="_top" xlink:title=" ">
<polygon fill="white" stroke="black" points="574,-229 574,-259 721,-259 721,-229 574,-229"/>
<text text-anchor="start" x="582" y="-247" font-family="Helvetica,sans-Serif" font-size="10.00">web::websocket::SubProtocol</text>
<text text-anchor="middle" x="647.5" y="-236" font-family="Helvetica,sans-Serif" font-size="10.00">FactorySelector::load</text>
</a>
</g>
</g>
<!-- Node13&#45;&gt;Node15 -->
<g id="edge16" class="edge">
<title>Node13&#45;&gt;Node15</title>
<path fill="none" stroke="midnightblue" d="M522.03,-273.95C538.71,-269.94 556.88,-265.57 574.06,-261.43"/>
<polygon fill="midnightblue" stroke="midnightblue" points="575.13,-264.78 584.03,-259.03 573.49,-257.97 575.13,-264.78"/>
</g>
<!-- Node14&#45;&gt;Node10 -->
<g id="edge15" class="edge">
<title>Node14&#45;&gt;Node10</title>
<path fill="none" stroke="midnightblue" d="M904.19,-335C912.73,-335 921.38,-335 929.79,-335"/>
<polygon fill="midnightblue" stroke="midnightblue" points="929.89,-338.5 939.89,-335 929.89,-331.5 929.89,-338.5"/>
</g>
<!-- Node15&#45;&gt;Node10 -->
<g id="edge18" class="edge">
<title>Node15&#45;&gt;Node10</title>
<path fill="none" stroke="midnightblue" d="M706.1,-259.03C757.9,-272.57 836.06,-293.03 904,-311 912.41,-313.22 921.25,-315.57 929.98,-317.89"/>
<polygon fill="midnightblue" stroke="midnightblue" points="929.19,-321.3 939.75,-320.5 930.99,-314.54 929.19,-321.3"/>
</g>
<!-- Node15&#45;&gt;Node14 -->
<g id="edge17" class="edge">
<title>Node15&#45;&gt;Node14</title>
<path fill="none" stroke="midnightblue" d="M691.4,-259.1C701.42,-263.34 711.83,-268.36 721,-274 738.98,-285.07 739.02,-293.93 757,-305 763.3,-308.88 770.19,-312.46 777.14,-315.7"/>
<polygon fill="midnightblue" stroke="midnightblue" points="776.04,-319.04 786.6,-319.9 778.88,-312.64 776.04,-319.04"/>
</g>
<!-- Node16 -->
<g id="node16" class="node">
<title>Node16</title>
<g id="a_node16"><a xlink:href="classcore_1_1_dynamic_loader.html#a28d14f3029339351d8bb8b328a6110b0" target="_top" xlink:title=" ">
<polygon fill="white" stroke="black" points="775.5,-232 775.5,-262 885.5,-262 885.5,-232 775.5,-232"/>
<text text-anchor="start" x="783.5" y="-250" font-family="Helvetica,sans-Serif" font-size="10.00">core::DynamicLoader</text>
<text text-anchor="middle" x="830.5" y="-239" font-family="Helvetica,sans-Serif" font-size="10.00">::dlError</text>
</a>
</g>
</g>
<!-- Node15&#45;&gt;Node16 -->
<g id="edge19" class="edge">
<title>Node15&#45;&gt;Node16</title>
<path fill="none" stroke="midnightblue" d="M721.08,-245.2C735.64,-245.44 750.85,-245.7 765.11,-245.93"/>
<polygon fill="midnightblue" stroke="midnightblue" points="765.24,-249.44 775.3,-246.1 765.36,-242.44 765.24,-249.44"/>
</g>
<!-- Node18 -->
<g id="node18" class="node">
<title>Node18</title>
<g id="a_node18"><a xlink:href="classcore_1_1_dynamic_loader.html#a608355c38f00831c64e122ae1722db2d" target="_top" xlink:title=" ">
<polygon fill="white" stroke="black" points="775.5,-183 775.5,-213 885.5,-213 885.5,-183 775.5,-183"/>
<text text-anchor="start" x="783.5" y="-201" font-family="Helvetica,sans-Serif" font-size="10.00">core::DynamicLoader</text>
<text text-anchor="middle" x="830.5" y="-190" font-family="Helvetica,sans-Serif" font-size="10.00">::dlOpen</text>
</a>
</g>
</g>
<!-- Node15&#45;&gt;Node18 -->
<g id="edge21" class="edge">
<title>Node15&#45;&gt;Node18</title>
<path fill="none" stroke="midnightblue" d="M707.77,-228.94C726.21,-224.25 746.62,-219.06 765.37,-214.3"/>
<polygon fill="midnightblue" stroke="midnightblue" points="766.48,-217.63 775.31,-211.77 764.75,-210.84 766.48,-217.63"/>
</g>
<!-- Node20 -->
<g id="node20" class="node">
<title>Node20</title>
<g id="a_node20"><a xlink:href="classcore_1_1_dynamic_loader.html#aa0a7e34f74e126dfbd0f5f5939694e31" target="_top" xlink:title=" ">
<polygon fill="white" stroke="black" points="775.5,-134 775.5,-164 885.5,-164 885.5,-134 775.5,-134"/>
<text text-anchor="start" x="783.5" y="-152" font-family="Helvetica,sans-Serif" font-size="10.00">core::DynamicLoader</text>
<text text-anchor="middle" x="830.5" y="-141" font-family="Helvetica,sans-Serif" font-size="10.00">::dlSym</text>
</a>
</g>
</g>
<!-- Node15&#45;&gt;Node20 -->
<g id="edge23" class="edge">
<title>Node15&#45;&gt;Node20</title>
<path fill="none" stroke="midnightblue" d="M668.83,-228.75C690,-213.4 724.54,-189.78 757,-174 761.52,-171.8 766.29,-169.71 771.13,-167.73"/>
<polygon fill="midnightblue" stroke="midnightblue" points="772.44,-170.98 780.49,-164.09 769.9,-164.46 772.44,-170.98"/>
</g>
<!-- Node17 -->
<g id="node17" class="node">
<title>Node17</title>
<g id="a_node17"><a xlink:href="namespacecore_1_1system.html#a0778aa080f796964218bcd02804a2b17" target="_top" xlink:title=" ">
<polygon fill="white" stroke="black" points="941.5,-237.5 941.5,-256.5 1048.5,-256.5 1048.5,-237.5 941.5,-237.5"/>
<text text-anchor="middle" x="995" y="-244.5" font-family="Helvetica,sans-Serif" font-size="10.00">core::system::dlerror</text>
</a>
</g>
</g>
<!-- Node16&#45;&gt;Node17 -->
<g id="edge20" class="edge">
<title>Node16&#45;&gt;Node17</title>
<path fill="none" stroke="midnightblue" d="M885.61,-247C900.16,-247 916.03,-247 931.02,-247"/>
<polygon fill="midnightblue" stroke="midnightblue" points="931.23,-250.5 941.23,-247 931.23,-243.5 931.23,-250.5"/>
</g>
<!-- Node19 -->
<g id="node19" class="node">
<title>Node19</title>
<g id="a_node19"><a xlink:href="namespacecore_1_1system.html#a87ab6f4aac806776e472cc3abeb61447" target="_top" xlink:title=" ">
<polygon fill="white" stroke="black" points="941,-188.5 941,-207.5 1049,-207.5 1049,-188.5 941,-188.5"/>
<text text-anchor="middle" x="995" y="-195.5" font-family="Helvetica,sans-Serif" font-size="10.00">core::system::dlopen</text>
</a>
</g>
</g>
<!-- Node18&#45;&gt;Node19 -->
<g id="edge22" class="edge">
<title>Node18&#45;&gt;Node19</title>
<path fill="none" stroke="midnightblue" d="M885.61,-198C900.09,-198 915.87,-198 930.79,-198"/>
<polygon fill="midnightblue" stroke="midnightblue" points="930.95,-201.5 940.95,-198 930.95,-194.5 930.95,-201.5"/>
</g>
<!-- Node21 -->
<g id="node21" class="node">
<title>Node21</title>
<g id="a_node21"><a xlink:href="namespacecore_1_1system.html#a83d3862b9812ad39b93753bbea40238b" target="_top" xlink:title=" ">
<polygon fill="white" stroke="black" points="942,-139.5 942,-158.5 1048,-158.5 1048,-139.5 942,-139.5"/>
<text text-anchor="middle" x="995" y="-146.5" font-family="Helvetica,sans-Serif" font-size="10.00">core::system::dlsym</text>
</a>
</g>
</g>
<!-- Node20&#45;&gt;Node21 -->
<g id="edge24" class="edge">
<title>Node20&#45;&gt;Node21</title>
<path fill="none" stroke="midnightblue" d="M885.61,-149C900.31,-149 916.36,-149 931.48,-149"/>
<polygon fill="midnightblue" stroke="midnightblue" points="931.78,-152.5 941.78,-149 931.78,-145.5 931.78,-152.5"/>
</g>
<!-- Node24 -->
<g id="node24" class="node">
<title>Node24</title>
<g id="a_node24"><a xlink:href="namespacebase64.html#af19189e96ecbd4de55806b9b705f7374" target="_top" xlink:title=" ">
<polygon fill="white" stroke="black" points="397.5,-145.5 397.5,-164.5 519.5,-164.5 519.5,-145.5 397.5,-145.5"/>
<text text-anchor="middle" x="458.5" y="-152.5" font-family="Helvetica,sans-Serif" font-size="10.00">base64::base64_encode</text>
</a>
</g>
</g>
<!-- Node23&#45;&gt;Node24 -->
<g id="edge27" class="edge">
<title>Node23&#45;&gt;Node24</title>
<path fill="none" stroke="midnightblue" d="M343.26,-155C357.67,-155 372.74,-155 387.03,-155"/>
<polygon fill="midnightblue" stroke="midnightblue" points="387.28,-158.5 397.28,-155 387.28,-151.5 387.28,-158.5"/>
</g>
<!-- Node25 -->
<g id="node25" class="node">
<title>Node25</title>
<g id="a_node25"><a xlink:href="sha1_8cpp.html#afd6b87572914723bc6f531873250aeeb" target="_top" xlink:title=" ">
<polygon fill="white" stroke="black" points="439.5,-57.5 439.5,-76.5 477.5,-76.5 477.5,-57.5 439.5,-57.5"/>
<text text-anchor="middle" x="458.5" y="-64.5" font-family="Helvetica,sans-Serif" font-size="10.00">sha1</text>
</a>
</g>
</g>
<!-- Node23&#45;&gt;Node25 -->
<g id="edge28" class="edge">
<title>Node23&#45;&gt;Node25</title>
<path fill="none" stroke="midnightblue" d="M289.98,-145.41C323.87,-129.55 391.68,-97.81 429.81,-79.96"/>
<polygon fill="midnightblue" stroke="midnightblue" points="431.71,-82.94 439.28,-75.53 428.74,-76.6 431.71,-82.94"/>
</g>
<!-- Node26 -->
<g id="node26" class="node">
<title>Node26</title>
<g id="a_node26"><a xlink:href="class_s_h_a1.html#a89ba0f16575431b0942cbbcfb29107db" target="_top" xlink:title=" ">
<polygon fill="white" stroke="black" points="614,-76.5 614,-95.5 681,-95.5 681,-76.5 614,-76.5"/>
<text text-anchor="middle" x="647.5" y="-83.5" font-family="Helvetica,sans-Serif" font-size="10.00">SHA1::final</text>
</a>
</g>
</g>
<!-- Node25&#45;&gt;Node26 -->
<g id="edge29" class="edge">
<title>Node25&#45;&gt;Node26</title>
<path fill="none" stroke="midnightblue" d="M477.77,-68.86C506.71,-71.8 563.86,-77.6 603.59,-81.64"/>
<polygon fill="midnightblue" stroke="midnightblue" points="603.49,-85.15 613.79,-82.68 604.19,-78.18 603.49,-85.15"/>
</g>
<!-- Node30 -->
<g id="node30" class="node">
<title>Node30</title>
<g id="a_node30"><a xlink:href="sha1_8cpp.html#a8208ae2cb301a2a4cf551cd0557bb789" target="_top" xlink:title=" ">
<polygon fill="white" stroke="black" points="596,-38.5 596,-57.5 699,-57.5 699,-38.5 596,-38.5"/>
<text text-anchor="middle" x="647.5" y="-45.5" font-family="Helvetica,sans-Serif" font-size="10.00">transform_to_binary</text>
</a>
</g>
</g>
<!-- Node25&#45;&gt;Node30 -->
<g id="edge33" class="edge">
<title>Node25&#45;&gt;Node30</title>
<path fill="none" stroke="midnightblue" d="M477.77,-65.14C502.55,-62.63 548.03,-58 585.53,-54.19"/>
<polygon fill="midnightblue" stroke="midnightblue" points="586.28,-57.64 595.87,-53.14 585.57,-50.67 586.28,-57.64"/>
</g>
<!-- Node31 -->
<g id="node31" class="node">
<title>Node31</title>
<g id="a_node31"><a xlink:href="class_s_h_a1.html#aec3a46058baf8b4169389c89e3a0a2f4" target="_top" xlink:title=" ">
<polygon fill="white" stroke="black" points="608.5,-0.5 608.5,-19.5 686.5,-19.5 686.5,-0.5 608.5,-0.5"/>
<text text-anchor="middle" x="647.5" y="-7.5" font-family="Helvetica,sans-Serif" font-size="10.00">SHA1::update</text>
</a>
</g>
</g>
<!-- Node25&#45;&gt;Node31 -->
<g id="edge34" class="edge">
<title>Node25&#45;&gt;Node31</title>
<path fill="none" stroke="midnightblue" d="M477.63,-60.58C500.11,-52.72 539.66,-39.19 574,-29 581.89,-26.66 590.31,-24.31 598.52,-22.11"/>
<polygon fill="midnightblue" stroke="midnightblue" points="599.6,-25.45 608.37,-19.5 597.81,-18.68 599.6,-25.45"/>
</g>
<!-- Node27 -->
<g id="node27" class="node">
<title>Node27</title>
<g id="a_node27"><a xlink:href="class_s_h_a1.html#ae2b7954449c67afe467c586ecb5cdef0" target="_top" xlink:title=" ">
<polygon fill="white" stroke="black" points="772.5,-95.5 772.5,-114.5 888.5,-114.5 888.5,-95.5 772.5,-95.5"/>
<text text-anchor="middle" x="830.5" y="-102.5" font-family="Helvetica,sans-Serif" font-size="10.00">SHA1::buffer_to_block</text>
</a>
</g>
</g>
<!-- Node26&#45;&gt;Node27 -->
<g id="edge30" class="edge">
<title>Node26&#45;&gt;Node27</title>
<path fill="none" stroke="midnightblue" d="M681.28,-89.44C703.87,-91.81 734.7,-95.05 762.39,-97.96"/>
<polygon fill="midnightblue" stroke="midnightblue" points="762.12,-101.45 772.43,-99.01 762.85,-94.48 762.12,-101.45"/>
</g>
<!-- Node28 -->
<g id="node28" class="node">
<title>Node28</title>
<g id="a_node28"><a xlink:href="class_s_h_a1.html#ab71aaf39ed956320054861a2fbfa454f" target="_top" xlink:title=" ">
<polygon fill="white" stroke="black" points="795,-57.5 795,-76.5 866,-76.5 866,-57.5 795,-57.5"/>
<text text-anchor="middle" x="830.5" y="-64.5" font-family="Helvetica,sans-Serif" font-size="10.00">SHA1::reset</text>
</a>
</g>
</g>
<!-- Node26&#45;&gt;Node28 -->
<g id="edge31" class="edge">
<title>Node26&#45;&gt;Node28</title>
<path fill="none" stroke="midnightblue" d="M681.28,-82.56C710.23,-79.52 752.72,-75.06 784.79,-71.69"/>
<polygon fill="midnightblue" stroke="midnightblue" points="785.23,-75.17 794.81,-70.64 784.5,-68.2 785.23,-75.17"/>
</g>
<!-- Node29 -->
<g id="node29" class="node">
<title>Node29</title>
<g id="a_node29"><a xlink:href="class_s_h_a1.html#a6e96e00e6bee105a4a1f8e5baf8a3b9c" target="_top" xlink:title=" ">
<polygon fill="white" stroke="black" points="785.5,-19.5 785.5,-38.5 875.5,-38.5 875.5,-19.5 785.5,-19.5"/>
<text text-anchor="middle" x="830.5" y="-26.5" font-family="Helvetica,sans-Serif" font-size="10.00">SHA1::transform</text>
</a>
</g>
</g>
<!-- Node26&#45;&gt;Node29 -->
<g id="edge32" class="edge">
<title>Node26&#45;&gt;Node29</title>
<path fill="none" stroke="midnightblue" d="M681.13,-79.14C693.78,-76.04 708.27,-71.95 721,-67 737.86,-60.44 740.14,-54.56 757,-48 763.27,-45.56 769.97,-43.33 776.67,-41.32"/>
<polygon fill="midnightblue" stroke="midnightblue" points="777.77,-44.65 786.43,-38.55 775.85,-37.92 777.77,-44.65"/>
</g>
</g>
</svg>
