<?xml version="1.0" encoding="UTF-8" standalone="no"?>
<!DOCTYPE svg PUBLIC "-//W3C//DTD SVG 1.1//EN"
 "http://www.w3.org/Graphics/SVG/1.1/DTD/svg11.dtd">
<!-- Generated by graphviz version 2.43.0 (0)
 -->
<!-- Title: core::AcceptEventReceiver Pages: 1 -->
<svg width="408pt" height="1071pt"
 viewBox="0.00 0.00 408.00 1071.00" xmlns="http://www.w3.org/2000/svg" xmlns:xlink="http://www.w3.org/1999/xlink">
<g id="graph0" class="graph" transform="scale(1 1) rotate(0) translate(4 1067)">
<title>core::AcceptEventReceiver</title>
<polygon fill="white" stroke="transparent" points="-4,4 -4,-1067 404,-1067 404,4 -4,4"/>
<!-- Node1 -->
<g id="node1" class="node">
<title>Node1</title>
<g id="a_node1"><a xlink:title=" ">
<polygon fill="#bfbfbf" stroke="black" points="4,-0.5 4,-123.5 156,-123.5 156,-0.5 4,-0.5"/>
<text text-anchor="middle" x="80" y="-111.5" font-family="Helvetica,sans-Serif" font-size="10.00">core::AcceptEventReceiver</text>
<polyline fill="none" stroke="black" points="4,-104.5 156,-104.5 "/>
<text text-anchor="middle" x="80" y="-92.5" font-family="Helvetica,sans-Serif" font-size="10.00"> </text>
<polyline fill="none" stroke="black" points="4,-85.5 156,-85.5 "/>
<text text-anchor="start" x="12" y="-73.5" font-family="Helvetica,sans-Serif" font-size="10.00"># AcceptEventReceiver()</text>
<text text-anchor="start" x="12" y="-62.5" font-family="Helvetica,sans-Serif" font-size="10.00"># continueAcceptImmediately()</text>
<text text-anchor="start" x="12" y="-51.5" font-family="Helvetica,sans-Serif" font-size="10.00">&#45; acceptEvent()</text>
<text text-anchor="start" x="12" y="-40.5" font-family="Helvetica,sans-Serif" font-size="10.00">&#45; acceptTimeout()</text>
<text text-anchor="start" x="12" y="-29.5" font-family="Helvetica,sans-Serif" font-size="10.00">&#45; dispatchEvent()</text>
<text text-anchor="start" x="12" y="-18.5" font-family="Helvetica,sans-Serif" font-size="10.00">&#45; timeoutEvent()</text>
<text text-anchor="start" x="12" y="-7.5" font-family="Helvetica,sans-Serif" font-size="10.00">&#45; continueImmediately()</text>
</a>
</g>
</g>
<!-- Node2 -->
<g id="node2" class="node">
<title>Node2</title>
<g id="a_node2"><a xlink:href="classcore_1_1_event_receiver.html" target="_top" xlink:title=" ">
<polygon fill="white" stroke="black" points="20.5,-161.5 20.5,-493.5 139.5,-493.5 139.5,-161.5 20.5,-161.5"/>
<text text-anchor="middle" x="80" y="-481.5" font-family="Helvetica,sans-Serif" font-size="10.00">core::EventReceiver</text>
<polyline fill="none" stroke="black" points="20.5,-474.5 139.5,-474.5 "/>
<text text-anchor="start" x="28.5" y="-462.5" font-family="Helvetica,sans-Serif" font-size="10.00">&#45; fd</text>
<text text-anchor="start" x="28.5" y="-451.5" font-family="Helvetica,sans-Serif" font-size="10.00">&#45; _enabled</text>
<text text-anchor="start" x="28.5" y="-440.5" font-family="Helvetica,sans-Serif" font-size="10.00">&#45; _suspended</text>
<text text-anchor="start" x="28.5" y="-429.5" font-family="Helvetica,sans-Serif" font-size="10.00">&#45; maxInactivity</text>
<text text-anchor="start" x="28.5" y="-418.5" font-family="Helvetica,sans-Serif" font-size="10.00">&#45; initialTimeout</text>
<polyline fill="none" stroke="black" points="20.5,-411.5 139.5,-411.5 "/>
<text text-anchor="start" x="28.5" y="-399.5" font-family="Helvetica,sans-Serif" font-size="10.00">+ enable()</text>
<text text-anchor="start" x="28.5" y="-388.5" font-family="Helvetica,sans-Serif" font-size="10.00">+ disable()</text>
<text text-anchor="start" x="28.5" y="-377.5" font-family="Helvetica,sans-Serif" font-size="10.00">+ suspend()</text>
<text text-anchor="start" x="28.5" y="-366.5" font-family="Helvetica,sans-Serif" font-size="10.00">+ resume()</text>
<text text-anchor="start" x="28.5" y="-355.5" font-family="Helvetica,sans-Serif" font-size="10.00"># EventReceiver()</text>
<text text-anchor="start" x="28.5" y="-344.5" font-family="Helvetica,sans-Serif" font-size="10.00"># ~EventReceiver()</text>
<text text-anchor="start" x="28.5" y="-333.5" font-family="Helvetica,sans-Serif" font-size="10.00"># setTimeout()</text>
<text text-anchor="start" x="28.5" y="-322.5" font-family="Helvetica,sans-Serif" font-size="10.00"># isEnabled()</text>
<text text-anchor="start" x="28.5" y="-311.5" font-family="Helvetica,sans-Serif" font-size="10.00"># isSuspended()</text>
<text text-anchor="start" x="28.5" y="-300.5" font-family="Helvetica,sans-Serif" font-size="10.00">&#45; EventReceiver()</text>
<text text-anchor="start" x="28.5" y="-289.5" font-family="Helvetica,sans-Serif" font-size="10.00">&#45; operator=()</text>
<text text-anchor="start" x="28.5" y="-278.5" font-family="Helvetica,sans-Serif" font-size="10.00">&#45; dispatchEvent()</text>
<text text-anchor="start" x="28.5" y="-267.5" font-family="Helvetica,sans-Serif" font-size="10.00">&#45; timeoutEvent()</text>
<text text-anchor="start" x="28.5" y="-256.5" font-family="Helvetica,sans-Serif" font-size="10.00">&#45; unobservedEvent()</text>
<text text-anchor="start" x="28.5" y="-245.5" font-family="Helvetica,sans-Serif" font-size="10.00">&#45; continueImmediately()</text>
<text text-anchor="start" x="28.5" y="-234.5" font-family="Helvetica,sans-Serif" font-size="10.00">&#45; enabled()</text>
<text text-anchor="start" x="28.5" y="-223.5" font-family="Helvetica,sans-Serif" font-size="10.00">&#45; disabled()</text>
<text text-anchor="start" x="28.5" y="-212.5" font-family="Helvetica,sans-Serif" font-size="10.00">&#45; suspended()</text>
<text text-anchor="start" x="28.5" y="-201.5" font-family="Helvetica,sans-Serif" font-size="10.00">&#45; resumed()</text>
<text text-anchor="start" x="28.5" y="-190.5" font-family="Helvetica,sans-Serif" font-size="10.00">&#45; getTimeout()</text>
<text text-anchor="start" x="28.5" y="-179.5" font-family="Helvetica,sans-Serif" font-size="10.00">&#45; getLastTriggered()</text>
<text text-anchor="start" x="28.5" y="-168.5" font-family="Helvetica,sans-Serif" font-size="10.00">&#45; triggered()</text>
</a>
</g>
</g>
<!-- Node2&#45;&gt;Node1 -->
<g id="edge1" class="edge">
<title>Node2&#45;&gt;Node1</title>
<path fill="none" stroke="midnightblue" d="M80,-151.33C80,-141.69 80,-132.4 80,-123.7"/>
<polygon fill="none" stroke="midnightblue" points="76.5,-151.49 80,-161.49 83.5,-151.49 76.5,-151.49"/>
</g>
<!-- Node3 -->
<g id="node3" class="node">
<title>Node3</title>
<g id="a_node3"><a xlink:href="classcore_1_1_observation_counter.html" target="_top" xlink:title=" ">
<polygon fill="white" stroke="black" points="0,-629.5 0,-697.5 128,-697.5 128,-629.5 0,-629.5"/>
<text text-anchor="middle" x="64" y="-685.5" font-family="Helvetica,sans-Serif" font-size="10.00">core::ObservationCounter</text>
<polyline fill="none" stroke="black" points="0,-678.5 128,-678.5 "/>
<text text-anchor="start" x="8" y="-666.5" font-family="Helvetica,sans-Serif" font-size="10.00"># observationCounter</text>
<text text-anchor="start" x="8" y="-655.5" font-family="Helvetica,sans-Serif" font-size="10.00"># lastTriggered</text>
<polyline fill="none" stroke="black" points="0,-648.5 128,-648.5 "/>
<text text-anchor="start" x="8" y="-636.5" font-family="Helvetica,sans-Serif" font-size="10.00">+ isObserved()</text>
</a>
</g>
</g>
<!-- Node3&#45;&gt;Node2 -->
<g id="edge2" class="edge">
<title>Node3&#45;&gt;Node2</title>
<path fill="none" stroke="midnightblue" d="M66.07,-619.24C67.63,-586.83 69.86,-540.24 72.08,-493.82"/>
<polygon fill="none" stroke="midnightblue" points="62.58,-619.1 65.59,-629.25 69.57,-619.43 62.58,-619.1"/>
</g>
<!-- Node4 -->
<g id="node4" class="node">
<title>Node4</title>
<g id="a_node4"><a xlink:href="classcore_1_1_event_dispatcher.html" target="_top" xlink:title=" ">
<polygon fill="white" stroke="black" points="146.5,-541.5 146.5,-785.5 289.5,-785.5 289.5,-541.5 146.5,-541.5"/>
<text text-anchor="middle" x="218" y="-773.5" font-family="Helvetica,sans-Serif" font-size="10.00">core::EventDispatcher</text>
<polyline fill="none" stroke="black" points="146.5,-766.5 289.5,-766.5 "/>
<text text-anchor="start" x="154.5" y="-754.5" font-family="Helvetica,sans-Serif" font-size="10.00">&#45; enabledEventReceiver</text>
<text text-anchor="start" x="154.5" y="-743.5" font-family="Helvetica,sans-Serif" font-size="10.00">&#45; observedEventReceiver</text>
<text text-anchor="start" x="154.5" y="-732.5" font-family="Helvetica,sans-Serif" font-size="10.00">&#45; disabledEventReceiver</text>
<text text-anchor="start" x="154.5" y="-721.5" font-family="Helvetica,sans-Serif" font-size="10.00">&#45; eventCounter</text>
<polyline fill="none" stroke="black" points="146.5,-714.5 289.5,-714.5 "/>
<text text-anchor="start" x="154.5" y="-702.5" font-family="Helvetica,sans-Serif" font-size="10.00">+ EventDispatcher()</text>
<text text-anchor="start" x="154.5" y="-691.5" font-family="Helvetica,sans-Serif" font-size="10.00">+ enable()</text>
<text text-anchor="start" x="154.5" y="-680.5" font-family="Helvetica,sans-Serif" font-size="10.00">+ disable()</text>
<text text-anchor="start" x="154.5" y="-669.5" font-family="Helvetica,sans-Serif" font-size="10.00">+ suspend()</text>
<text text-anchor="start" x="154.5" y="-658.5" font-family="Helvetica,sans-Serif" font-size="10.00">+ resume()</text>
<text text-anchor="start" x="154.5" y="-647.5" font-family="Helvetica,sans-Serif" font-size="10.00">+ getEventCounter()</text>
<text text-anchor="start" x="154.5" y="-636.5" font-family="Helvetica,sans-Serif" font-size="10.00">&#45; EventDispatcher()</text>
<text text-anchor="start" x="154.5" y="-625.5" font-family="Helvetica,sans-Serif" font-size="10.00">&#45; operator=()</text>
<text text-anchor="start" x="154.5" y="-614.5" font-family="Helvetica,sans-Serif" font-size="10.00">&#45; getMaxFd()</text>
<text text-anchor="start" x="154.5" y="-603.5" font-family="Helvetica,sans-Serif" font-size="10.00">&#45; getFdSet()</text>
<text text-anchor="start" x="154.5" y="-592.5" font-family="Helvetica,sans-Serif" font-size="10.00">&#45; dispatchActiveEvents()</text>
<text text-anchor="start" x="154.5" y="-581.5" font-family="Helvetica,sans-Serif" font-size="10.00">&#45; observeEnabledEvents()</text>
<text text-anchor="start" x="154.5" y="-570.5" font-family="Helvetica,sans-Serif" font-size="10.00">&#45; unobserveDisabledEvents()</text>
<text text-anchor="start" x="154.5" y="-559.5" font-family="Helvetica,sans-Serif" font-size="10.00">&#45; releaseUnobservedEvents()</text>
<text text-anchor="start" x="154.5" y="-548.5" font-family="Helvetica,sans-Serif" font-size="10.00">&#45; disableObservedEvents()</text>
</a>
</g>
</g>
<!-- Node4&#45;&gt;Node2 -->
<g id="edge3" class="edge">
<title>Node4&#45;&gt;Node2</title>
<path fill="none" stroke="#404040" d="M167.98,-541.45C160.28,-522.8 152.23,-503.32 144.27,-484.04"/>
<polygon fill="none" stroke="#404040" points="144.17,-483.82 138.19,-479.8 139.59,-472.73 145.58,-476.75 144.17,-483.82"/>
<text text-anchor="middle" x="219" y="-515" font-family="Helvetica,sans-Serif" font-size="10.00"> &#45;descriptorEventDispatcher</text>
</g>
<!-- Node5 -->
<g id="node5" class="node">
<title>Node5</title>
<g id="a_node5"><a xlink:href="classcore_1_1_event_dispatcher_1_1_fd_set.html" target="_top" xlink:title=" ">
<polygon fill="white" stroke="black" points="111,-833.5 111,-967.5 225,-967.5 225,-833.5 111,-833.5"/>
<text text-anchor="start" x="119" y="-955.5" font-family="Helvetica,sans-Serif" font-size="10.00">core::EventDispatcher</text>
<text text-anchor="middle" x="168" y="-944.5" font-family="Helvetica,sans-Serif" font-size="10.00">::FdSet</text>
<polyline fill="none" stroke="black" points="111,-937.5 225,-937.5 "/>
<text text-anchor="start" x="119" y="-925.5" font-family="Helvetica,sans-Serif" font-size="10.00"># registered</text>
<text text-anchor="start" x="119" y="-914.5" font-family="Helvetica,sans-Serif" font-size="10.00"># active</text>
<polyline fill="none" stroke="black" points="111,-907.5 225,-907.5 "/>
<text text-anchor="start" x="119" y="-895.5" font-family="Helvetica,sans-Serif" font-size="10.00">+ FdSet()</text>
<text text-anchor="start" x="119" y="-884.5" font-family="Helvetica,sans-Serif" font-size="10.00">+ set()</text>
<text text-anchor="start" x="119" y="-873.5" font-family="Helvetica,sans-Serif" font-size="10.00">+ clr()</text>
<text text-anchor="start" x="119" y="-862.5" font-family="Helvetica,sans-Serif" font-size="10.00">+ isSet()</text>
<text text-anchor="start" x="119" y="-851.5" font-family="Helvetica,sans-Serif" font-size="10.00">+ zero()</text>
<text text-anchor="start" x="119" y="-840.5" font-family="Helvetica,sans-Serif" font-size="10.00">+ get()</text>
</a>
</g>
</g>
<!-- Node5&#45;&gt;Node4 -->
<g id="edge4" class="edge">
<title>Node5&#45;&gt;Node4</title>
<path fill="none" stroke="#404040" d="M182.06,-833.41C184.47,-822.1 187.05,-809.99 189.67,-797.64"/>
<polygon fill="none" stroke="#404040" points="189.7,-797.49 187.04,-790.79 192.2,-785.76 194.86,-792.46 189.7,-797.49"/>
<text text-anchor="middle" x="203" y="-807" font-family="Helvetica,sans-Serif" font-size="10.00"> &#45;fdSet</text>
</g>
<!-- Node6 -->
<g id="node6" class="node">
<title>Node6</title>
<g id="a_node6"><a xlink:href="classcore_1_1_event_dispatcher_1_1_descriptor_event_receiver_list.html" target="_top" xlink:title=" ">
<polygon fill="white" stroke="black" points="243,-866.5 243,-934.5 391,-934.5 391,-866.5 243,-866.5"/>
<text text-anchor="start" x="251" y="-922.5" font-family="Helvetica,sans-Serif" font-size="10.00">core::EventDispatcher</text>
<text text-anchor="middle" x="317" y="-911.5" font-family="Helvetica,sans-Serif" font-size="10.00">::DescriptorEventReceiverList</text>
<polyline fill="none" stroke="black" points="243,-904.5 391,-904.5 "/>
<text text-anchor="middle" x="317" y="-892.5" font-family="Helvetica,sans-Serif" font-size="10.00"> </text>
<polyline fill="none" stroke="black" points="243,-885.5 391,-885.5 "/>
<text text-anchor="start" x="251" y="-873.5" font-family="Helvetica,sans-Serif" font-size="10.00">+ contains()</text>
</a>
</g>
</g>
<!-- Node6&#45;&gt;Node4 -->
<g id="edge5" class="edge">
<title>Node6&#45;&gt;Node4</title>
<path fill="none" stroke="#404040" d="M303.03,-866.33C295.1,-847.51 284.6,-822.59 273.69,-796.7"/>
<polygon fill="none" stroke="#404040" points="273.66,-796.62 267.64,-792.65 269,-785.56 275.02,-789.54 273.66,-796.62"/>
<text text-anchor="middle" x="339.5" y="-807" font-family="Helvetica,sans-Serif" font-size="10.00"> &#45;unobservedEventReceiver</text>
</g>
<!-- Node7 -->
<g id="node7" class="node">
<title>Node7</title>
<g id="a_node7"><a xlink:title=" ">
<polygon fill="white" stroke="#bfbfbf" points="248,-1005.5 248,-1062.5 386,-1062.5 386,-1005.5 248,-1005.5"/>
<text text-anchor="middle" x="317" y="-1050.5" font-family="Helvetica,sans-Serif" font-size="10.00">std::list&lt; EventReceiver * &gt;</text>
<polyline fill="none" stroke="#bfbfbf" points="248,-1043.5 386,-1043.5 "/>
<text text-anchor="middle" x="317" y="-1031.5" font-family="Helvetica,sans-Serif" font-size="10.00"> </text>
<polyline fill="none" stroke="#bfbfbf" points="248,-1024.5 386,-1024.5 "/>
<text text-anchor="middle" x="317" y="-1012.5" font-family="Helvetica,sans-Serif" font-size="10.00"> </text>
</a>
</g>
</g>
<!-- Node7&#45;&gt;Node6 -->
<g id="edge6" class="edge">
<title>Node7&#45;&gt;Node6</title>
<path fill="none" stroke="midnightblue" d="M317,-995.25C317,-976.11 317,-953.07 317,-934.62"/>
<polygon fill="none" stroke="midnightblue" points="313.5,-995.43 317,-1005.43 320.5,-995.43 313.5,-995.43"/>
</g>
</g>
</svg>
