<?xml version="1.0" encoding="UTF-8" standalone="no"?>
<!DOCTYPE svg PUBLIC "-//W3C//DTD SVG 1.1//EN"
 "http://www.w3.org/Graphics/SVG/1.1/DTD/svg11.dtd">
<!-- Generated by graphviz version 2.43.0 (0)
 -->
<!-- Title: net::in6::stream::ClientSocket Pages: 1 -->
<svg width="178pt" height="354pt"
 viewBox="0.00 0.00 177.50 354.00" xmlns="http://www.w3.org/2000/svg" xmlns:xlink="http://www.w3.org/1999/xlink">
<g id="graph0" class="graph" transform="scale(1 1) rotate(0) translate(4 350)">
<title>net::in6::stream::ClientSocket</title>
<polygon fill="white" stroke="transparent" points="-4,4 -4,-350 173.5,-350 173.5,4 -4,4"/>
<!-- Node1 -->
<g id="node1" class="node">
<title>Node1</title>
<g id="a_node1"><a xlink:title=" ">
<polygon fill="#bfbfbf" stroke="black" points="13.5,-0.5 13.5,-90.5 141.5,-90.5 141.5,-0.5 13.5,-0.5"/>
<text text-anchor="start" x="21.5" y="-78.5" font-family="Helvetica,sans-Serif" font-size="10.00">net::in6::stream::Client</text>
<text text-anchor="middle" x="77.5" y="-67.5" font-family="Helvetica,sans-Serif" font-size="10.00">Socket</text>
<polyline fill="none" stroke="black" points="13.5,-60.5 141.5,-60.5 "/>
<text text-anchor="middle" x="77.5" y="-48.5" font-family="Helvetica,sans-Serif" font-size="10.00"> </text>
<polyline fill="none" stroke="black" points="13.5,-41.5 141.5,-41.5 "/>
<text text-anchor="start" x="21.5" y="-29.5" font-family="Helvetica,sans-Serif" font-size="10.00">+ connect()</text>
<text text-anchor="start" x="21.5" y="-18.5" font-family="Helvetica,sans-Serif" font-size="10.00">+ connect()</text>
<text text-anchor="start" x="21.5" y="-7.5" font-family="Helvetica,sans-Serif" font-size="10.00">+ connect()</text>
</a>
</g>
</g>
<!-- Node2 -->
<g id="node2" class="node">
<title>Node2</title>
<g id="a_node2"><a xlink:href="classcore_1_1socket_1_1_client_socket.html" target="_top" xlink:title=" ">
<polygon fill="white" stroke="black" points="0,-128.5 0,-207.5 155,-207.5 155,-128.5 0,-128.5"/>
<text text-anchor="start" x="8" y="-195.5" font-family="Helvetica,sans-Serif" font-size="10.00">core::socket::ClientSocket</text>
<text text-anchor="middle" x="77.5" y="-184.5" font-family="Helvetica,sans-Serif" font-size="10.00">&lt; net::in6::stream::Socket &gt;</text>
<polyline fill="none" stroke="black" points="0,-177.5 155,-177.5 "/>
<text text-anchor="middle" x="77.5" y="-165.5" font-family="Helvetica,sans-Serif" font-size="10.00"> </text>
<polyline fill="none" stroke="black" points="0,-158.5 155,-158.5 "/>
<text text-anchor="start" x="8" y="-146.5" font-family="Helvetica,sans-Serif" font-size="10.00">+ connect()</text>
<text text-anchor="start" x="8" y="-135.5" font-family="Helvetica,sans-Serif" font-size="10.00">+ connect()</text>
</a>
</g>
</g>
<!-- Node2&#45;&gt;Node1 -->
<g id="edge1" class="edge">
<title>Node2&#45;&gt;Node1</title>
<path fill="none" stroke="midnightblue" d="M77.5,-118.14C77.5,-109.05 77.5,-99.6 77.5,-90.66"/>
<polygon fill="none" stroke="midnightblue" points="74,-118.21 77.5,-128.21 81,-118.21 74,-118.21"/>
</g>
<!-- Node3 -->
<g id="node3" class="node">
<title>Node3</title>
<g id="a_node3"><a xlink:href="classcore_1_1socket_1_1_client_socket.html" target="_top" xlink:title=" ">
<polygon fill="white" stroke="black" points="6.5,-266.5 6.5,-345.5 148.5,-345.5 148.5,-266.5 6.5,-266.5"/>
<text text-anchor="start" x="14.5" y="-333.5" font-family="Helvetica,sans-Serif" font-size="10.00">core::socket::ClientSocket</text>
<text text-anchor="middle" x="77.5" y="-322.5" font-family="Helvetica,sans-Serif" font-size="10.00">&lt; SocketT &gt;</text>
<polyline fill="none" stroke="black" points="6.5,-315.5 148.5,-315.5 "/>
<text text-anchor="middle" x="77.5" y="-303.5" font-family="Helvetica,sans-Serif" font-size="10.00"> </text>
<polyline fill="none" stroke="black" points="6.5,-296.5 148.5,-296.5 "/>
<text text-anchor="start" x="14.5" y="-284.5" font-family="Helvetica,sans-Serif" font-size="10.00">+ connect()</text>
<text text-anchor="start" x="14.5" y="-273.5" font-family="Helvetica,sans-Serif" font-size="10.00">+ connect()</text>
</a>
</g>
</g>
<!-- Node3&#45;&gt;Node2 -->
<g id="edge2" class="edge">
<title>Node3&#45;&gt;Node2</title>
<path fill="none" stroke="orange" d="M77.5,-256.18C77.5,-240.25 77.5,-222.79 77.5,-207.7"/>
<polygon fill="orange" stroke="orange" points="74,-256.39 77.5,-266.39 81,-256.39 74,-256.39"/>
<text text-anchor="start" x="77.5" y="-240" font-family="Helvetica,sans-Serif" font-size="10.00"> &lt; net::in6::stream</text>
<text text-anchor="middle" x="123.5" y="-229" font-family="Helvetica,sans-Serif" font-size="10.00">::Socket &gt;</text>
</g>
</g>
</svg>
