<?xml version="1.0" encoding="UTF-8" standalone="no"?>
<!DOCTYPE svg PUBLIC "-//W3C//DTD SVG 1.1//EN"
 "http://www.w3.org/Graphics/SVG/1.1/DTD/svg11.dtd">
<!-- Generated by graphviz version 2.43.0 (0)
 -->
<!-- Title: web::websocket::Transmitter::send Pages: 1 -->
<svg width="979pt" height="235pt"
 viewBox="0.00 0.00 979.00 235.00" xmlns="http://www.w3.org/2000/svg" xmlns:xlink="http://www.w3.org/1999/xlink">
<g id="graph0" class="graph" transform="scale(1 1) rotate(0) translate(4 231)">
<title>web::websocket::Transmitter::send</title>
<polygon fill="white" stroke="transparent" points="-4,4 -4,-231 975,-231 975,4 -4,4"/>
<!-- Node1 -->
<g id="node1" class="node">
<title>Node1</title>
<g id="a_node1"><a xlink:title=" ">
<polygon fill="#bfbfbf" stroke="black" points="814,-73.5 814,-103.5 971,-103.5 971,-73.5 814,-73.5"/>
<text text-anchor="start" x="822" y="-91.5" font-family="Helvetica,sans-Serif" font-size="10.00">web::websocket::Transmitter</text>
<text text-anchor="middle" x="892.5" y="-80.5" font-family="Helvetica,sans-Serif" font-size="10.00">::send</text>
</a>
</g>
</g>
<!-- Node2 -->
<g id="node2" class="node">
<title>Node2</title>
<g id="a_node2"><a xlink:href="classweb_1_1websocket_1_1_transmitter.html#a887ff2ebd7673ac100296aaf12eef7ad" target="_top" xlink:title=" ">
<polygon fill="white" stroke="black" points="621,-147.5 621,-177.5 778,-177.5 778,-147.5 621,-147.5"/>
<text text-anchor="start" x="629" y="-165.5" font-family="Helvetica,sans-Serif" font-size="10.00">web::websocket::Transmitter</text>
<text text-anchor="middle" x="699.5" y="-154.5" font-family="Helvetica,sans-Serif" font-size="10.00">::sendMessage</text>
</a>
</g>
</g>
<!-- Node1&#45;&gt;Node2 -->
<g id="edge1" class="edge">
<title>Node1&#45;&gt;Node2</title>
<path fill="none" stroke="midnightblue" d="M850.5,-107.92C829.13,-117.69 802.42,-129.37 778,-138.5 769.69,-141.61 760.77,-144.64 752.06,-147.44"/>
<polygon fill="midnightblue" stroke="midnightblue" points="852,-111.08 859.62,-103.72 849.07,-104.73 852,-111.08"/>
</g>
<!-- Node8 -->
<g id="node8" class="node">
<title>Node8</title>
<g id="a_node8"><a xlink:href="classweb_1_1websocket_1_1_transmitter.html#a066af0ca66bc0321ea0b7d3ceea2bfde" target="_top" xlink:title=" ">
<polygon fill="white" stroke="black" points="621,-98.5 621,-128.5 778,-128.5 778,-98.5 621,-98.5"/>
<text text-anchor="start" x="629" y="-116.5" font-family="Helvetica,sans-Serif" font-size="10.00">web::websocket::Transmitter</text>
<text text-anchor="middle" x="699.5" y="-105.5" font-family="Helvetica,sans-Serif" font-size="10.00">::sendMessageEnd</text>
</a>
</g>
</g>
<!-- Node1&#45;&gt;Node8 -->
<g id="edge7" class="edge">
<title>Node1&#45;&gt;Node8</title>
<path fill="none" stroke="midnightblue" d="M803.81,-99.98C795.24,-101.1 786.58,-102.23 778.12,-103.34"/>
<polygon fill="midnightblue" stroke="midnightblue" points="804.35,-103.44 813.81,-98.67 803.44,-96.5 804.35,-103.44"/>
</g>
<!-- Node10 -->
<g id="node10" class="node">
<title>Node10</title>
<g id="a_node10"><a xlink:href="classweb_1_1websocket_1_1_transmitter.html#ae08b91785b802614a19757280daa02a8" target="_top" xlink:title=" ">
<polygon fill="white" stroke="black" points="621,-49.5 621,-79.5 778,-79.5 778,-49.5 621,-49.5"/>
<text text-anchor="start" x="629" y="-67.5" font-family="Helvetica,sans-Serif" font-size="10.00">web::websocket::Transmitter</text>
<text text-anchor="middle" x="699.5" y="-56.5" font-family="Helvetica,sans-Serif" font-size="10.00">::sendMessageFrame</text>
</a>
</g>
</g>
<!-- Node1&#45;&gt;Node10 -->
<g id="edge9" class="edge">
<title>Node1&#45;&gt;Node10</title>
<path fill="none" stroke="midnightblue" d="M803.81,-77.48C795.24,-76.4 786.58,-75.32 778.12,-74.25"/>
<polygon fill="midnightblue" stroke="midnightblue" points="803.45,-80.96 813.81,-78.74 804.33,-74.02 803.45,-80.96"/>
</g>
<!-- Node12 -->
<g id="node12" class="node">
<title>Node12</title>
<g id="a_node12"><a xlink:href="classweb_1_1websocket_1_1_transmitter.html#ade57b3248158f861e135de628032dfcf" target="_top" xlink:title=" ">
<polygon fill="white" stroke="black" points="621,-0.5 621,-30.5 778,-30.5 778,-0.5 621,-0.5"/>
<text text-anchor="start" x="629" y="-18.5" font-family="Helvetica,sans-Serif" font-size="10.00">web::websocket::Transmitter</text>
<text text-anchor="middle" x="699.5" y="-7.5" font-family="Helvetica,sans-Serif" font-size="10.00">::sendMessageStart</text>
</a>
</g>
</g>
<!-- Node1&#45;&gt;Node12 -->
<g id="edge11" class="edge">
<title>Node1&#45;&gt;Node12</title>
<path fill="none" stroke="midnightblue" d="M849.72,-69.19C828.46,-59.69 802.09,-48.4 778,-39.5 769.68,-36.42 760.76,-33.41 752.04,-30.61"/>
<polygon fill="midnightblue" stroke="midnightblue" points="848.54,-72.49 859.1,-73.41 851.41,-66.11 848.54,-72.49"/>
</g>
<!-- Node3 -->
<g id="node3" class="node">
<title>Node3</title>
<g id="a_node3"><a xlink:href="classweb_1_1websocket_1_1_socket_context_upgrade.html#ae10f1d494fa964dbd81d5b12cdfd5e0b" target="_top" xlink:title=" ">
<polygon fill="white" stroke="black" points="414,-147.5 414,-177.5 585,-177.5 585,-147.5 414,-147.5"/>
<text text-anchor="start" x="422" y="-165.5" font-family="Helvetica,sans-Serif" font-size="10.00">web::websocket::SocketContext</text>
<text text-anchor="middle" x="499.5" y="-154.5" font-family="Helvetica,sans-Serif" font-size="10.00">Upgrade::sendMessage</text>
</a>
</g>
</g>
<!-- Node2&#45;&gt;Node3 -->
<g id="edge2" class="edge">
<title>Node2&#45;&gt;Node3</title>
<path fill="none" stroke="midnightblue" d="M610.58,-162.5C602.13,-162.5 593.57,-162.5 585.16,-162.5"/>
<polygon fill="midnightblue" stroke="midnightblue" points="610.81,-166 620.81,-162.5 610.81,-159 610.81,-166"/>
</g>
<!-- Node4 -->
<g id="node4" class="node">
<title>Node4</title>
<g id="a_node4"><a xlink:href="classweb_1_1websocket_1_1_socket_context_upgrade.html#ae019e30887ef3efe7d859c86a7c3cecb" target="_top" xlink:title=" ">
<polygon fill="white" stroke="black" points="207,-196.5 207,-226.5 378,-226.5 378,-196.5 207,-196.5"/>
<text text-anchor="start" x="215" y="-214.5" font-family="Helvetica,sans-Serif" font-size="10.00">web::websocket::SocketContext</text>
<text text-anchor="middle" x="292.5" y="-203.5" font-family="Helvetica,sans-Serif" font-size="10.00">Upgrade::sendClose</text>
</a>
</g>
</g>
<!-- Node3&#45;&gt;Node4 -->
<g id="edge3" class="edge">
<title>Node3&#45;&gt;Node4</title>
<path fill="none" stroke="midnightblue" d="M425.69,-179.9C403.01,-185.32 378.21,-191.25 356.28,-196.49"/>
<polygon fill="midnightblue" stroke="midnightblue" points="426.69,-183.26 435.6,-177.53 425.06,-176.46 426.69,-183.26"/>
</g>
<!-- Node5 -->
<g id="node5" class="node">
<title>Node5</title>
<g id="a_node5"><a xlink:href="classweb_1_1websocket_1_1_socket_context_upgrade.html#ad5c12b8e68c19a8206fbdb64ded3655f" target="_top" xlink:title=" ">
<polygon fill="white" stroke="black" points="207,-147.5 207,-177.5 378,-177.5 378,-147.5 207,-147.5"/>
<text text-anchor="start" x="215" y="-165.5" font-family="Helvetica,sans-Serif" font-size="10.00">web::websocket::SocketContext</text>
<text text-anchor="middle" x="292.5" y="-154.5" font-family="Helvetica,sans-Serif" font-size="10.00">Upgrade::sendPing</text>
</a>
</g>
</g>
<!-- Node3&#45;&gt;Node5 -->
<g id="edge4" class="edge">
<title>Node3&#45;&gt;Node5</title>
<path fill="none" stroke="midnightblue" d="M403.91,-162.5C395.34,-162.5 386.69,-162.5 378.2,-162.5"/>
<polygon fill="midnightblue" stroke="midnightblue" points="403.94,-166 413.94,-162.5 403.94,-159 403.94,-166"/>
</g>
<!-- Node6 -->
<g id="node6" class="node">
<title>Node6</title>
<g id="a_node6"><a xlink:href="classweb_1_1websocket_1_1_socket_context_upgrade.html#a5ec72302a65fdf9cd234227438d4802d" target="_top" xlink:title=" ">
<polygon fill="white" stroke="black" points="207,-98.5 207,-128.5 378,-128.5 378,-98.5 207,-98.5"/>
<text text-anchor="start" x="215" y="-116.5" font-family="Helvetica,sans-Serif" font-size="10.00">web::websocket::SocketContext</text>
<text text-anchor="middle" x="292.5" y="-105.5" font-family="Helvetica,sans-Serif" font-size="10.00">Upgrade::sendPong</text>
</a>
</g>
</g>
<!-- Node3&#45;&gt;Node6 -->
<g id="edge5" class="edge">
<title>Node3&#45;&gt;Node6</title>
<path fill="none" stroke="midnightblue" d="M425.69,-145.1C403.01,-139.68 378.21,-133.75 356.28,-128.51"/>
<polygon fill="midnightblue" stroke="midnightblue" points="425.06,-148.54 435.6,-147.47 426.69,-141.74 425.06,-148.54"/>
</g>
<!-- Node7 -->
<g id="node7" class="node">
<title>Node7</title>
<g id="a_node7"><a xlink:href="classweb_1_1websocket_1_1_socket_context_upgrade.html#ad9aa3c21889d4b940d112a7f158b52bf" target="_top" xlink:title=" ">
<polygon fill="white" stroke="black" points="0,-98.5 0,-128.5 171,-128.5 171,-98.5 0,-98.5"/>
<text text-anchor="start" x="8" y="-116.5" font-family="Helvetica,sans-Serif" font-size="10.00">web::websocket::SocketContext</text>
<text text-anchor="middle" x="85.5" y="-105.5" font-family="Helvetica,sans-Serif" font-size="10.00">Upgrade::onMessageEnd</text>
</a>
</g>
</g>
<!-- Node6&#45;&gt;Node7 -->
<g id="edge6" class="edge">
<title>Node6&#45;&gt;Node7</title>
<path fill="none" stroke="midnightblue" d="M196.91,-113.5C188.34,-113.5 179.69,-113.5 171.2,-113.5"/>
<polygon fill="midnightblue" stroke="midnightblue" points="196.94,-117 206.94,-113.5 196.94,-110 196.94,-117"/>
</g>
<!-- Node9 -->
<g id="node9" class="node">
<title>Node9</title>
<g id="a_node9"><a xlink:href="classweb_1_1websocket_1_1_socket_context_upgrade.html#a17e6c5462a4f336bc8735bdcb6951b23" target="_top" xlink:title=" ">
<polygon fill="white" stroke="black" points="414,-98.5 414,-128.5 585,-128.5 585,-98.5 414,-98.5"/>
<text text-anchor="start" x="422" y="-116.5" font-family="Helvetica,sans-Serif" font-size="10.00">web::websocket::SocketContext</text>
<text text-anchor="middle" x="499.5" y="-105.5" font-family="Helvetica,sans-Serif" font-size="10.00">Upgrade::sendMessageEnd</text>
</a>
</g>
</g>
<!-- Node8&#45;&gt;Node9 -->
<g id="edge8" class="edge">
<title>Node8&#45;&gt;Node9</title>
<path fill="none" stroke="midnightblue" d="M610.58,-113.5C602.13,-113.5 593.57,-113.5 585.16,-113.5"/>
<polygon fill="midnightblue" stroke="midnightblue" points="610.81,-117 620.81,-113.5 610.81,-110 610.81,-117"/>
</g>
<!-- Node11 -->
<g id="node11" class="node">
<title>Node11</title>
<g id="a_node11"><a xlink:href="classweb_1_1websocket_1_1_socket_context_upgrade.html#a5ce550d929102f4c1d0472217ef6efe1" target="_top" xlink:title=" ">
<polygon fill="white" stroke="black" points="414,-49.5 414,-79.5 585,-79.5 585,-49.5 414,-49.5"/>
<text text-anchor="start" x="422" y="-67.5" font-family="Helvetica,sans-Serif" font-size="10.00">web::websocket::SocketContext</text>
<text text-anchor="middle" x="499.5" y="-56.5" font-family="Helvetica,sans-Serif" font-size="10.00">Upgrade::sendMessageFrame</text>
</a>
</g>
</g>
<!-- Node10&#45;&gt;Node11 -->
<g id="edge10" class="edge">
<title>Node10&#45;&gt;Node11</title>
<path fill="none" stroke="midnightblue" d="M610.58,-64.5C602.13,-64.5 593.57,-64.5 585.16,-64.5"/>
<polygon fill="midnightblue" stroke="midnightblue" points="610.81,-68 620.81,-64.5 610.81,-61 610.81,-68"/>
</g>
<!-- Node13 -->
<g id="node13" class="node">
<title>Node13</title>
<g id="a_node13"><a xlink:href="classweb_1_1websocket_1_1_socket_context_upgrade.html#a6f2dc809fb5ae111562bf338afcb80f4" target="_top" xlink:title=" ">
<polygon fill="white" stroke="black" points="414,-0.5 414,-30.5 585,-30.5 585,-0.5 414,-0.5"/>
<text text-anchor="start" x="422" y="-18.5" font-family="Helvetica,sans-Serif" font-size="10.00">web::websocket::SocketContext</text>
<text text-anchor="middle" x="499.5" y="-7.5" font-family="Helvetica,sans-Serif" font-size="10.00">Upgrade::sendMessageStart</text>
</a>
</g>
</g>
<!-- Node12&#45;&gt;Node13 -->
<g id="edge12" class="edge">
<title>Node12&#45;&gt;Node13</title>
<path fill="none" stroke="midnightblue" d="M610.58,-15.5C602.13,-15.5 593.57,-15.5 585.16,-15.5"/>
<polygon fill="midnightblue" stroke="midnightblue" points="610.81,-19 620.81,-15.5 610.81,-12 610.81,-19"/>
</g>
</g>
</svg>
