<?xml version="1.0" encoding="UTF-8" standalone="no"?>
<!DOCTYPE svg PUBLIC "-//W3C//DTD SVG 1.1//EN"
 "http://www.w3.org/Graphics/SVG/1.1/DTD/svg11.dtd">
<!-- Generated by graphviz version 2.43.0 (0)
 -->
<!-- Title: web::http::server::SocketContext&lt; RequestT, ResponseT &gt; Pages: 1 -->
<svg width="471pt" height="1468pt"
 viewBox="0.00 0.00 470.50 1468.00" xmlns="http://www.w3.org/2000/svg" xmlns:xlink="http://www.w3.org/1999/xlink">
<g id="graph0" class="graph" transform="scale(1 1) rotate(0) translate(4 1464)">
<title>web::http::server::SocketContext&lt; RequestT, ResponseT &gt;</title>
<polygon fill="white" stroke="transparent" points="-4,4 -4,-1464 466.5,-1464 466.5,4 -4,4"/>
<!-- Node1 -->
<g id="node1" class="node">
<title>Node1</title>
<g id="a_node1"><a xlink:title=" ">
<polygon fill="#bfbfbf" stroke="black" points="110.5,-0.5 110.5,-189.5 257.5,-189.5 257.5,-0.5 110.5,-0.5"/>
<text text-anchor="start" x="118.5" y="-177.5" font-family="Helvetica,sans-Serif" font-size="10.00">web::http::server::</text>
<text text-anchor="start" x="118.5" y="-166.5" font-family="Helvetica,sans-Serif" font-size="10.00">SocketContext&lt; RequestT,</text>
<text text-anchor="middle" x="184" y="-155.5" font-family="Helvetica,sans-Serif" font-size="10.00"> ResponseT &gt;</text>
<polyline fill="none" stroke="black" points="110.5,-148.5 257.5,-148.5 "/>
<text text-anchor="start" x="118.5" y="-136.5" font-family="Helvetica,sans-Serif" font-size="10.00">&#45; onRequestReady</text>
<text text-anchor="start" x="118.5" y="-125.5" font-family="Helvetica,sans-Serif" font-size="10.00">&#45; requestContexts</text>
<text text-anchor="start" x="118.5" y="-114.5" font-family="Helvetica,sans-Serif" font-size="10.00">&#45; requestInProgress</text>
<text text-anchor="start" x="118.5" y="-103.5" font-family="Helvetica,sans-Serif" font-size="10.00">&#45; connectionTerminated</text>
<polyline fill="none" stroke="black" points="110.5,-96.5 257.5,-96.5 "/>
<text text-anchor="start" x="118.5" y="-84.5" font-family="Helvetica,sans-Serif" font-size="10.00">+ SocketContext()</text>
<text text-anchor="start" x="118.5" y="-73.5" font-family="Helvetica,sans-Serif" font-size="10.00"># ~SocketContext()</text>
<text text-anchor="start" x="118.5" y="-62.5" font-family="Helvetica,sans-Serif" font-size="10.00">&#45; onReceiveFromPeer()</text>
<text text-anchor="start" x="118.5" y="-51.5" font-family="Helvetica,sans-Serif" font-size="10.00">&#45; sendToPeerCompleted()</text>
<text text-anchor="start" x="118.5" y="-40.5" font-family="Helvetica,sans-Serif" font-size="10.00">&#45; onConnected()</text>
<text text-anchor="start" x="118.5" y="-29.5" font-family="Helvetica,sans-Serif" font-size="10.00">&#45; onDisconnected()</text>
<text text-anchor="start" x="118.5" y="-18.5" font-family="Helvetica,sans-Serif" font-size="10.00">&#45; requestParsed()</text>
<text text-anchor="start" x="118.5" y="-7.5" font-family="Helvetica,sans-Serif" font-size="10.00">&#45; reset()</text>
</a>
</g>
</g>
<!-- Node2 -->
<g id="node2" class="node">
<title>Node2</title>
<g id="a_node2"><a xlink:href="classweb_1_1http_1_1_socket_context.html" target="_top" xlink:title=" ">
<polygon fill="white" stroke="black" points="0,-978.5 0,-1068.5 144,-1068.5 144,-978.5 0,-978.5"/>
<text text-anchor="middle" x="72" y="-1056.5" font-family="Helvetica,sans-Serif" font-size="10.00">web::http::SocketContext</text>
<polyline fill="none" stroke="black" points="0,-1049.5 144,-1049.5 "/>
<text text-anchor="middle" x="72" y="-1037.5" font-family="Helvetica,sans-Serif" font-size="10.00"> </text>
<polyline fill="none" stroke="black" points="0,-1030.5 144,-1030.5 "/>
<text text-anchor="start" x="8" y="-1018.5" font-family="Helvetica,sans-Serif" font-size="10.00">+ sendToPeerCompleted()</text>
<text text-anchor="start" x="8" y="-1007.5" font-family="Helvetica,sans-Serif" font-size="10.00"># SocketContext()</text>
<text text-anchor="start" x="8" y="-996.5" font-family="Helvetica,sans-Serif" font-size="10.00"># operator=()</text>
<text text-anchor="start" x="8" y="-985.5" font-family="Helvetica,sans-Serif" font-size="10.00"># onReceiveFromPeer()</text>
</a>
</g>
</g>
<!-- Node2&#45;&gt;Node1 -->
<g id="edge1" class="edge">
<title>Node2&#45;&gt;Node1</title>
<path fill="none" stroke="midnightblue" d="M63.26,-968.02C44.51,-837.91 8.5,-500.3 91,-237 96.04,-220.91 103.51,-204.93 112.06,-189.83"/>
<polygon fill="none" stroke="midnightblue" points="59.83,-968.74 64.74,-978.13 66.75,-967.73 59.83,-968.74"/>
</g>
<!-- Node8 -->
<g id="node8" class="node">
<title>Node8</title>
<g id="a_node8"><a xlink:href="classweb_1_1http_1_1server_1_1_request_context_base.html" target="_top" xlink:title=" ">
<polygon fill="white" stroke="black" points="103,-686.5 103,-820.5 249,-820.5 249,-686.5 103,-686.5"/>
<text text-anchor="start" x="111" y="-808.5" font-family="Helvetica,sans-Serif" font-size="10.00">web::http::server::</text>
<text text-anchor="middle" x="176" y="-797.5" font-family="Helvetica,sans-Serif" font-size="10.00">RequestContextBase</text>
<polyline fill="none" stroke="black" points="103,-790.5 249,-790.5 "/>
<text text-anchor="middle" x="176" y="-778.5" font-family="Helvetica,sans-Serif" font-size="10.00"> </text>
<polyline fill="none" stroke="black" points="103,-771.5 249,-771.5 "/>
<text text-anchor="start" x="111" y="-759.5" font-family="Helvetica,sans-Serif" font-size="10.00">+ RequestContextBase()</text>
<text text-anchor="start" x="111" y="-748.5" font-family="Helvetica,sans-Serif" font-size="10.00">+ ~RequestContextBase()</text>
<text text-anchor="start" x="111" y="-737.5" font-family="Helvetica,sans-Serif" font-size="10.00">+ socketContextGone()</text>
<text text-anchor="start" x="111" y="-726.5" font-family="Helvetica,sans-Serif" font-size="10.00">+ switchSocketContext()</text>
<text text-anchor="start" x="111" y="-715.5" font-family="Helvetica,sans-Serif" font-size="10.00">+ sendToPeer()</text>
<text text-anchor="start" x="111" y="-704.5" font-family="Helvetica,sans-Serif" font-size="10.00">+ sendToPeerCompleted()</text>
<text text-anchor="start" x="111" y="-693.5" font-family="Helvetica,sans-Serif" font-size="10.00">+ close()</text>
</a>
</g>
</g>
<!-- Node2&#45;&gt;Node8 -->
<g id="edge10" class="edge">
<title>Node2&#45;&gt;Node8</title>
<path fill="none" stroke="#404040" d="M89.17,-978.25C104.58,-938.54 127.54,-879.37 145.98,-831.85"/>
<polygon fill="none" stroke="#404040" points="145.98,-831.85 144.42,-824.81 150.32,-820.66 151.88,-827.7 145.98,-831.85"/>
<text text-anchor="middle" x="181.5" y="-842" font-family="Helvetica,sans-Serif" font-size="10.00"> &#45;socketContext</text>
</g>
<!-- Node3 -->
<g id="node3" class="node">
<title>Node3</title>
<g id="a_node3"><a xlink:href="classcore_1_1socket_1_1_socket_context.html" target="_top" xlink:title=" ">
<polygon fill="white" stroke="black" points="119,-1237.5 119,-1459.5 271,-1459.5 271,-1237.5 119,-1237.5"/>
<text text-anchor="middle" x="195" y="-1447.5" font-family="Helvetica,sans-Serif" font-size="10.00">core::socket::SocketContext</text>
<polyline fill="none" stroke="black" points="119,-1440.5 271,-1440.5 "/>
<text text-anchor="middle" x="195" y="-1428.5" font-family="Helvetica,sans-Serif" font-size="10.00"> </text>
<polyline fill="none" stroke="black" points="119,-1421.5 271,-1421.5 "/>
<text text-anchor="start" x="127" y="-1409.5" font-family="Helvetica,sans-Serif" font-size="10.00">+ setTimeout()</text>
<text text-anchor="start" x="127" y="-1398.5" font-family="Helvetica,sans-Serif" font-size="10.00">+ sendToPeer()</text>
<text text-anchor="start" x="127" y="-1387.5" font-family="Helvetica,sans-Serif" font-size="10.00">+ sendToPeer()</text>
<text text-anchor="start" x="127" y="-1376.5" font-family="Helvetica,sans-Serif" font-size="10.00">+ readFromPeer()</text>
<text text-anchor="start" x="127" y="-1365.5" font-family="Helvetica,sans-Serif" font-size="10.00">+ shutdownRead()</text>
<text text-anchor="start" x="127" y="-1354.5" font-family="Helvetica,sans-Serif" font-size="10.00">+ shutdownWrite()</text>
<text text-anchor="start" x="127" y="-1343.5" font-family="Helvetica,sans-Serif" font-size="10.00">+ shutdown()</text>
<text text-anchor="start" x="127" y="-1332.5" font-family="Helvetica,sans-Serif" font-size="10.00">+ close()</text>
<text text-anchor="start" x="127" y="-1321.5" font-family="Helvetica,sans-Serif" font-size="10.00">+ switchSocketContext()</text>
<text text-anchor="start" x="127" y="-1310.5" font-family="Helvetica,sans-Serif" font-size="10.00"># SocketContext()</text>
<text text-anchor="start" x="127" y="-1299.5" font-family="Helvetica,sans-Serif" font-size="10.00"># ~SocketContext()</text>
<text text-anchor="start" x="127" y="-1288.5" font-family="Helvetica,sans-Serif" font-size="10.00">&#45; onConnected()</text>
<text text-anchor="start" x="127" y="-1277.5" font-family="Helvetica,sans-Serif" font-size="10.00">&#45; onDisconnected()</text>
<text text-anchor="start" x="127" y="-1266.5" font-family="Helvetica,sans-Serif" font-size="10.00">&#45; onReceiveFromPeer()</text>
<text text-anchor="start" x="127" y="-1255.5" font-family="Helvetica,sans-Serif" font-size="10.00">&#45; onWriteError()</text>
<text text-anchor="start" x="127" y="-1244.5" font-family="Helvetica,sans-Serif" font-size="10.00">&#45; onReadError()</text>
</a>
</g>
</g>
<!-- Node3&#45;&gt;Node2 -->
<g id="edge2" class="edge">
<title>Node3&#45;&gt;Node2</title>
<path fill="none" stroke="midnightblue" d="M126.82,-1228.11C125.5,-1225.06 124.22,-1222.02 123,-1219 102.88,-1169.15 88.51,-1108.89 80.26,-1068.78"/>
<polygon fill="none" stroke="midnightblue" points="123.65,-1229.59 130.94,-1237.28 130.03,-1226.72 123.65,-1229.59"/>
</g>
<!-- Node4 -->
<g id="node4" class="node">
<title>Node4</title>
<g id="a_node4"><a xlink:href="classcore_1_1socket_1_1_socket_connection.html" target="_top" xlink:title=" ">
<polygon fill="white" stroke="black" points="162,-890.5 162,-1156.5 330,-1156.5 330,-890.5 162,-890.5"/>
<text text-anchor="middle" x="246" y="-1144.5" font-family="Helvetica,sans-Serif" font-size="10.00">core::socket::SocketConnection</text>
<polyline fill="none" stroke="black" points="162,-1137.5 330,-1137.5 "/>
<text text-anchor="middle" x="246" y="-1125.5" font-family="Helvetica,sans-Serif" font-size="10.00"> </text>
<polyline fill="none" stroke="black" points="162,-1118.5 330,-1118.5 "/>
<text text-anchor="start" x="170" y="-1106.5" font-family="Helvetica,sans-Serif" font-size="10.00">+ getSocketContext()</text>
<text text-anchor="start" x="170" y="-1095.5" font-family="Helvetica,sans-Serif" font-size="10.00">+ getDescriptor()</text>
<text text-anchor="start" x="170" y="-1084.5" font-family="Helvetica,sans-Serif" font-size="10.00">+ close()</text>
<text text-anchor="start" x="170" y="-1073.5" font-family="Helvetica,sans-Serif" font-size="10.00">+ shutdownRead()</text>
<text text-anchor="start" x="170" y="-1062.5" font-family="Helvetica,sans-Serif" font-size="10.00">+ shutdownWrite()</text>
<text text-anchor="start" x="170" y="-1051.5" font-family="Helvetica,sans-Serif" font-size="10.00">+ setTimeout()</text>
<text text-anchor="start" x="170" y="-1040.5" font-family="Helvetica,sans-Serif" font-size="10.00">+ sendToPeer()</text>
<text text-anchor="start" x="170" y="-1029.5" font-family="Helvetica,sans-Serif" font-size="10.00">+ sendToPeer()</text>
<text text-anchor="start" x="170" y="-1018.5" font-family="Helvetica,sans-Serif" font-size="10.00">+ readFromPeer()</text>
<text text-anchor="start" x="170" y="-1007.5" font-family="Helvetica,sans-Serif" font-size="10.00">+ switchSocketContext()</text>
<text text-anchor="start" x="170" y="-996.5" font-family="Helvetica,sans-Serif" font-size="10.00"># SocketConnection()</text>
<text text-anchor="start" x="170" y="-985.5" font-family="Helvetica,sans-Serif" font-size="10.00"># ~SocketConnection()</text>
<text text-anchor="start" x="170" y="-974.5" font-family="Helvetica,sans-Serif" font-size="10.00"># onConnected()</text>
<text text-anchor="start" x="170" y="-963.5" font-family="Helvetica,sans-Serif" font-size="10.00"># onDisconnected()</text>
<text text-anchor="start" x="170" y="-952.5" font-family="Helvetica,sans-Serif" font-size="10.00"># onReceiveFromPeer()</text>
<text text-anchor="start" x="170" y="-941.5" font-family="Helvetica,sans-Serif" font-size="10.00"># onWriteError()</text>
<text text-anchor="start" x="170" y="-930.5" font-family="Helvetica,sans-Serif" font-size="10.00"># onReadError()</text>
<text text-anchor="start" x="170" y="-919.5" font-family="Helvetica,sans-Serif" font-size="10.00">&#45; SocketConnection()</text>
<text text-anchor="start" x="170" y="-908.5" font-family="Helvetica,sans-Serif" font-size="10.00">&#45; SocketConnection()</text>
<text text-anchor="start" x="170" y="-897.5" font-family="Helvetica,sans-Serif" font-size="10.00">&#45; operator=()</text>
</a>
</g>
</g>
<!-- Node3&#45;&gt;Node4 -->
<g id="edge4" class="edge">
<title>Node3&#45;&gt;Node4</title>
<path fill="none" stroke="#404040" d="M126.83,-1237.38C124.86,-1223.72 126.02,-1210 132,-1197 137.14,-1185.83 145.06,-1188.39 153,-1179 156.45,-1174.92 159.85,-1170.7 163.19,-1166.38"/>
<polygon fill="none" stroke="#404040" points="163.22,-1166.35 163.62,-1159.15 170.43,-1156.76 170.02,-1163.96 163.22,-1166.35"/>
<text text-anchor="middle" x="181" y="-1211" font-family="Helvetica,sans-Serif" font-size="10.00"> &#45;newSocketContext</text>
<text text-anchor="middle" x="181" y="-1200" font-family="Helvetica,sans-Serif" font-size="10.00">&#45;socketContext</text>
</g>
<!-- Node6 -->
<g id="node6" class="node">
<title>Node6</title>
<g id="a_node6"><a xlink:href="classweb_1_1http_1_1_parser.html" target="_top" xlink:title=" ">
<polygon fill="white" stroke="black" points="347.5,-868.5 347.5,-1178.5 462.5,-1178.5 462.5,-868.5 347.5,-868.5"/>
<text text-anchor="middle" x="405" y="-1166.5" font-family="Helvetica,sans-Serif" font-size="10.00">web::http::Parser</text>
<polyline fill="none" stroke="black" points="347.5,-1159.5 462.5,-1159.5 "/>
<text text-anchor="start" x="355.5" y="-1147.5" font-family="Helvetica,sans-Serif" font-size="10.00"># hTTPCompliance</text>
<text text-anchor="start" x="355.5" y="-1136.5" font-family="Helvetica,sans-Serif" font-size="10.00"># parserState</text>
<text text-anchor="start" x="355.5" y="-1125.5" font-family="Helvetica,sans-Serif" font-size="10.00"># contentLength</text>
<text text-anchor="start" x="355.5" y="-1114.5" font-family="Helvetica,sans-Serif" font-size="10.00"># headers</text>
<text text-anchor="start" x="355.5" y="-1103.5" font-family="Helvetica,sans-Serif" font-size="10.00"># content</text>
<text text-anchor="start" x="355.5" y="-1092.5" font-family="Helvetica,sans-Serif" font-size="10.00"># httpVersion</text>
<text text-anchor="start" x="355.5" y="-1081.5" font-family="Helvetica,sans-Serif" font-size="10.00"># httpMajor</text>
<text text-anchor="start" x="355.5" y="-1070.5" font-family="Helvetica,sans-Serif" font-size="10.00"># httpMinor</text>
<text text-anchor="start" x="355.5" y="-1059.5" font-family="Helvetica,sans-Serif" font-size="10.00"># httpVersionRegex</text>
<text text-anchor="start" x="355.5" y="-1048.5" font-family="Helvetica,sans-Serif" font-size="10.00">&#45; EOL</text>
<text text-anchor="start" x="355.5" y="-1037.5" font-family="Helvetica,sans-Serif" font-size="10.00">&#45; line</text>
<text text-anchor="start" x="355.5" y="-1026.5" font-family="Helvetica,sans-Serif" font-size="10.00">&#45; contentRead</text>
<polyline fill="none" stroke="black" points="347.5,-1019.5 462.5,-1019.5 "/>
<text text-anchor="start" x="355.5" y="-1007.5" font-family="Helvetica,sans-Serif" font-size="10.00">+ Parser()</text>
<text text-anchor="start" x="355.5" y="-996.5" font-family="Helvetica,sans-Serif" font-size="10.00">+ ~Parser()</text>
<text text-anchor="start" x="355.5" y="-985.5" font-family="Helvetica,sans-Serif" font-size="10.00">+ parse()</text>
<text text-anchor="start" x="355.5" y="-974.5" font-family="Helvetica,sans-Serif" font-size="10.00"># reset()</text>
<text text-anchor="start" x="355.5" y="-963.5" font-family="Helvetica,sans-Serif" font-size="10.00">&#45; begin()</text>
<text text-anchor="start" x="355.5" y="-952.5" font-family="Helvetica,sans-Serif" font-size="10.00">&#45; parseStartLine()</text>
<text text-anchor="start" x="355.5" y="-941.5" font-family="Helvetica,sans-Serif" font-size="10.00">&#45; parseHeader()</text>
<text text-anchor="start" x="355.5" y="-930.5" font-family="Helvetica,sans-Serif" font-size="10.00">&#45; parseContent()</text>
<text text-anchor="start" x="355.5" y="-919.5" font-family="Helvetica,sans-Serif" font-size="10.00">&#45; parsingError()</text>
<text text-anchor="start" x="355.5" y="-908.5" font-family="Helvetica,sans-Serif" font-size="10.00">&#45; readStartLine()</text>
<text text-anchor="start" x="355.5" y="-897.5" font-family="Helvetica,sans-Serif" font-size="10.00">&#45; readHeaderLine()</text>
<text text-anchor="start" x="355.5" y="-886.5" font-family="Helvetica,sans-Serif" font-size="10.00">&#45; splitHeaderLine()</text>
<text text-anchor="start" x="355.5" y="-875.5" font-family="Helvetica,sans-Serif" font-size="10.00">&#45; readContent()</text>
</a>
</g>
</g>
<!-- Node3&#45;&gt;Node6 -->
<g id="edge7" class="edge">
<title>Node3&#45;&gt;Node6</title>
<path fill="none" stroke="#404040" d="M271.14,-1290.37C294.43,-1269.92 318.5,-1245.35 336,-1219 342.18,-1209.7 347.88,-1199.78 353.12,-1189.52"/>
<polygon fill="none" stroke="#404040" points="353.13,-1189.51 352.18,-1182.36 358.42,-1178.73 359.36,-1185.88 353.13,-1189.51"/>
<text text-anchor="middle" x="386.5" y="-1205.5" font-family="Helvetica,sans-Serif" font-size="10.00"> &#45;socketContext</text>
</g>
<!-- Node4&#45;&gt;Node3 -->
<g id="edge3" class="edge">
<title>Node4&#45;&gt;Node3</title>
<path fill="none" stroke="#404040" d="M242.02,-1156.56C240.19,-1177.55 237.61,-1198.94 234,-1219 233.63,-1221.05 233.24,-1223.11 232.83,-1225.19"/>
<polygon fill="none" stroke="#404040" points="232.78,-1225.42 235.44,-1232.12 230.27,-1237.15 227.62,-1230.45 232.78,-1225.42"/>
<text text-anchor="middle" x="285" y="-1205.5" font-family="Helvetica,sans-Serif" font-size="10.00"> &#45;socketConnection</text>
</g>
<!-- Node5 -->
<g id="node5" class="node">
<title>Node5</title>
<g id="a_node5"><a xlink:href="classweb_1_1http_1_1server_1_1_request_parser.html" target="_top" xlink:title=" ">
<polygon fill="white" stroke="black" points="292,-379.5 292,-667.5 410,-667.5 410,-379.5 292,-379.5"/>
<text text-anchor="start" x="300" y="-655.5" font-family="Helvetica,sans-Serif" font-size="10.00">web::http::server::</text>
<text text-anchor="middle" x="351" y="-644.5" font-family="Helvetica,sans-Serif" font-size="10.00">RequestParser</text>
<polyline fill="none" stroke="black" points="292,-637.5 410,-637.5 "/>
<text text-anchor="start" x="300" y="-625.5" font-family="Helvetica,sans-Serif" font-size="10.00">&#45; supportedMethods</text>
<text text-anchor="start" x="300" y="-614.5" font-family="Helvetica,sans-Serif" font-size="10.00">&#45; method</text>
<text text-anchor="start" x="300" y="-603.5" font-family="Helvetica,sans-Serif" font-size="10.00">&#45; url</text>
<text text-anchor="start" x="300" y="-592.5" font-family="Helvetica,sans-Serif" font-size="10.00">&#45; cookies</text>
<text text-anchor="start" x="300" y="-581.5" font-family="Helvetica,sans-Serif" font-size="10.00">&#45; queries</text>
<text text-anchor="start" x="300" y="-570.5" font-family="Helvetica,sans-Serif" font-size="10.00">&#45; onStart</text>
<text text-anchor="start" x="300" y="-559.5" font-family="Helvetica,sans-Serif" font-size="10.00">&#45; onRequest</text>
<text text-anchor="start" x="300" y="-548.5" font-family="Helvetica,sans-Serif" font-size="10.00">&#45; onHeader</text>
<text text-anchor="start" x="300" y="-537.5" font-family="Helvetica,sans-Serif" font-size="10.00">&#45; onContent</text>
<text text-anchor="start" x="300" y="-526.5" font-family="Helvetica,sans-Serif" font-size="10.00">&#45; onParsed</text>
<text text-anchor="start" x="300" y="-515.5" font-family="Helvetica,sans-Serif" font-size="10.00">&#45; onError</text>
<polyline fill="none" stroke="black" points="292,-508.5 410,-508.5 "/>
<text text-anchor="start" x="300" y="-496.5" font-family="Helvetica,sans-Serif" font-size="10.00">+ RequestParser()</text>
<text text-anchor="start" x="300" y="-485.5" font-family="Helvetica,sans-Serif" font-size="10.00">+ RequestParser()</text>
<text text-anchor="start" x="300" y="-474.5" font-family="Helvetica,sans-Serif" font-size="10.00">+ operator=()</text>
<text text-anchor="start" x="300" y="-463.5" font-family="Helvetica,sans-Serif" font-size="10.00">+ reset()</text>
<text text-anchor="start" x="300" y="-452.5" font-family="Helvetica,sans-Serif" font-size="10.00">&#45; methodSupported()</text>
<text text-anchor="start" x="300" y="-441.5" font-family="Helvetica,sans-Serif" font-size="10.00">&#45; begin()</text>
<text text-anchor="start" x="300" y="-430.5" font-family="Helvetica,sans-Serif" font-size="10.00">&#45; parseStartLine()</text>
<text text-anchor="start" x="300" y="-419.5" font-family="Helvetica,sans-Serif" font-size="10.00">&#45; parseHeader()</text>
<text text-anchor="start" x="300" y="-408.5" font-family="Helvetica,sans-Serif" font-size="10.00">&#45; parseContent()</text>
<text text-anchor="start" x="300" y="-397.5" font-family="Helvetica,sans-Serif" font-size="10.00">&#45; parsingFinished()</text>
<text text-anchor="start" x="300" y="-386.5" font-family="Helvetica,sans-Serif" font-size="10.00">&#45; parsingError()</text>
</a>
</g>
</g>
<!-- Node5&#45;&gt;Node1 -->
<g id="edge5" class="edge">
<title>Node5&#45;&gt;Node1</title>
<path fill="none" stroke="#404040" d="M352.22,-379.49C347.52,-323.34 335.48,-260.02 308,-208 297.77,-188.63 282.78,-170.94 266.74,-155.63"/>
<polygon fill="none" stroke="#404040" points="266.58,-155.49 259.45,-154.38 257.74,-147.37 264.86,-148.48 266.58,-155.49"/>
<text text-anchor="middle" x="370" y="-296.5" font-family="Helvetica,sans-Serif" font-size="10.00"> &#45;parser</text>
</g>
<!-- Node6&#45;&gt;Node5 -->
<g id="edge6" class="edge">
<title>Node6&#45;&gt;Node5</title>
<path fill="none" stroke="midnightblue" d="M387.18,-858.14C380.5,-796.6 372.98,-727.23 366.53,-667.75"/>
<polygon fill="none" stroke="midnightblue" points="383.73,-858.78 388.28,-868.34 390.69,-858.02 383.73,-858.78"/>
</g>
<!-- Node7 -->
<g id="node7" class="node">
<title>Node7</title>
<g id="a_node7"><a xlink:href="classweb_1_1http_1_1server_1_1_socket_context_1_1_request_context.html" target="_top" xlink:title=" ">
<polygon fill="white" stroke="black" points="100,-237.5 100,-360.5 268,-360.5 268,-237.5 100,-237.5"/>
<text text-anchor="start" x="108" y="-348.5" font-family="Helvetica,sans-Serif" font-size="10.00">web::http::server::</text>
<text text-anchor="start" x="108" y="-337.5" font-family="Helvetica,sans-Serif" font-size="10.00">SocketContext&lt; RequestT,</text>
<text text-anchor="middle" x="184" y="-326.5" font-family="Helvetica,sans-Serif" font-size="10.00"> ResponseT &gt;::RequestContext</text>
<polyline fill="none" stroke="black" points="100,-319.5 268,-319.5 "/>
<text text-anchor="start" x="108" y="-307.5" font-family="Helvetica,sans-Serif" font-size="10.00">+ request</text>
<text text-anchor="start" x="108" y="-296.5" font-family="Helvetica,sans-Serif" font-size="10.00">+ response</text>
<text text-anchor="start" x="108" y="-285.5" font-family="Helvetica,sans-Serif" font-size="10.00">+ ready</text>
<text text-anchor="start" x="108" y="-274.5" font-family="Helvetica,sans-Serif" font-size="10.00">+ status</text>
<text text-anchor="start" x="108" y="-263.5" font-family="Helvetica,sans-Serif" font-size="10.00">+ reason</text>
<polyline fill="none" stroke="black" points="100,-256.5 268,-256.5 "/>
<text text-anchor="start" x="108" y="-244.5" font-family="Helvetica,sans-Serif" font-size="10.00">+ RequestContext()</text>
</a>
</g>
</g>
<!-- Node7&#45;&gt;Node1 -->
<g id="edge8" class="edge">
<title>Node7&#45;&gt;Node1</title>
<path fill="none" stroke="#404040" d="M184,-237.39C184,-226.15 184,-214.11 184,-201.97"/>
<polygon fill="none" stroke="#404040" points="184,-201.82 180,-195.82 184,-189.82 188,-195.82 184,-201.82"/>
<text text-anchor="middle" x="244" y="-211" font-family="Helvetica,sans-Serif" font-size="10.00"> &#45;currentRequestContext</text>
</g>
<!-- Node8&#45;&gt;Node7 -->
<g id="edge9" class="edge">
<title>Node8&#45;&gt;Node7</title>
<path fill="none" stroke="midnightblue" d="M177.35,-676.2C178.92,-587.31 181.49,-442.24 182.93,-360.66"/>
<polygon fill="none" stroke="midnightblue" points="173.85,-676.16 177.17,-686.22 180.85,-676.28 173.85,-676.16"/>
</g>
</g>
</svg>
