<?xml version="1.0" encoding="UTF-8" standalone="no"?>
<!DOCTYPE svg PUBLIC "-//W3C//DTD SVG 1.1//EN"
 "http://www.w3.org/Graphics/SVG/1.1/DTD/svg11.dtd">
<!-- Generated by graphviz version 2.43.0 (0)
 -->
<!-- Title: net::in6::stream::ServerSocket::listen Pages: 1 -->
<svg width="1216pt" height="219pt"
 viewBox="0.00 0.00 1216.00 218.50" xmlns="http://www.w3.org/2000/svg" xmlns:xlink="http://www.w3.org/1999/xlink">
<g id="graph0" class="graph" transform="scale(1 1) rotate(0) translate(4 214.5)">
<title>net::in6::stream::ServerSocket::listen</title>
<polygon fill="white" stroke="transparent" points="-4,4 -4,-214.5 1212,-214.5 1212,4 -4,4"/>
<!-- Node1 -->
<g id="node1" class="node">
<title>Node1</title>
<g id="a_node1"><a xlink:title=" ">
<polygon fill="#bfbfbf" stroke="black" points="0,-106 0,-136 131,-136 131,-106 0,-106"/>
<text text-anchor="start" x="8" y="-124" font-family="Helvetica,sans-Serif" font-size="10.00">net::in6::stream::Server</text>
<text text-anchor="middle" x="65.5" y="-113" font-family="Helvetica,sans-Serif" font-size="10.00">Socket::listen</text>
</a>
</g>
</g>
<!-- Node2 -->
<g id="node2" class="node">
<title>Node2</title>
<g id="a_node2"><a xlink:href="classnet_1_1in6_1_1stream_1_1_server_socket.html#acb0fd95c2743e2a2c9402601643b55cd" target="_top" xlink:title=" ">
<polygon fill="white" stroke="black" points="167,-106 167,-136 298,-136 298,-106 167,-106"/>
<text text-anchor="start" x="175" y="-124" font-family="Helvetica,sans-Serif" font-size="10.00">net::in6::stream::Server</text>
<text text-anchor="middle" x="232.5" y="-113" font-family="Helvetica,sans-Serif" font-size="10.00">Socket::listen</text>
</a>
</g>
</g>
<!-- Node1&#45;&gt;Node2 -->
<g id="edge1" class="edge">
<title>Node1&#45;&gt;Node2</title>
<path fill="none" stroke="midnightblue" d="M131.24,-121C139.58,-121 148.18,-121 156.67,-121"/>
<polygon fill="midnightblue" stroke="midnightblue" points="156.95,-124.5 166.95,-121 156.95,-117.5 156.95,-124.5"/>
</g>
<!-- Node3 -->
<g id="node3" class="node">
<title>Node3</title>
<g id="a_node3"><a xlink:href="classnet_1_1_server_config.html#a50174bec8c8388bac67a58cb2b0f4fd5" target="_top" xlink:title=" ">
<polygon fill="white" stroke="black" points="348,-180 348,-210 455,-210 455,-180 348,-180"/>
<text text-anchor="start" x="356" y="-198" font-family="Helvetica,sans-Serif" font-size="10.00">net::ServerConfig::</text>
<text text-anchor="middle" x="401.5" y="-187" font-family="Helvetica,sans-Serif" font-size="10.00">getBacklog</text>
</a>
</g>
</g>
<!-- Node2&#45;&gt;Node3 -->
<g id="edge2" class="edge">
<title>Node2&#45;&gt;Node3</title>
<path fill="none" stroke="midnightblue" d="M261.68,-136.11C281.6,-146.53 309.09,-160.35 334,-171 338.18,-172.79 342.53,-174.56 346.93,-176.28"/>
<polygon fill="midnightblue" stroke="midnightblue" points="345.99,-179.66 356.58,-179.96 348.49,-173.12 345.99,-179.66"/>
</g>
<!-- Node4 -->
<g id="node4" class="node">
<title>Node4</title>
<g id="a_node4"><a xlink:href="classnet_1_1in6_1_1stream_1_1_server_config.html#a2e7c8ca41ac576899aac7d9e610105b8" target="_top" xlink:title=" ">
<polygon fill="white" stroke="black" points="334,-131 334,-161 469,-161 469,-131 334,-131"/>
<text text-anchor="start" x="342" y="-149" font-family="Helvetica,sans-Serif" font-size="10.00">net::in6::stream::Server</text>
<text text-anchor="middle" x="401.5" y="-138" font-family="Helvetica,sans-Serif" font-size="10.00">Config::getBindInterface</text>
</a>
</g>
</g>
<!-- Node2&#45;&gt;Node4 -->
<g id="edge3" class="edge">
<title>Node2&#45;&gt;Node4</title>
<path fill="none" stroke="midnightblue" d="M298.07,-130.67C306.51,-131.93 315.23,-133.23 323.85,-134.52"/>
<polygon fill="midnightblue" stroke="midnightblue" points="323.49,-138.01 333.9,-136.03 324.53,-131.09 323.49,-138.01"/>
</g>
<!-- Node5 -->
<g id="node5" class="node">
<title>Node5</title>
<g id="a_node5"><a xlink:href="classnet_1_1in6_1_1stream_1_1_server_config.html#a546a6b96256fd90d4c6fccacc4f529d2" target="_top" xlink:title=" ">
<polygon fill="white" stroke="black" points="336,-82 336,-112 467,-112 467,-82 336,-82"/>
<text text-anchor="start" x="344" y="-100" font-family="Helvetica,sans-Serif" font-size="10.00">net::in6::stream::Server</text>
<text text-anchor="middle" x="401.5" y="-89" font-family="Helvetica,sans-Serif" font-size="10.00">Config::getBindPort</text>
</a>
</g>
</g>
<!-- Node2&#45;&gt;Node5 -->
<g id="edge4" class="edge">
<title>Node2&#45;&gt;Node5</title>
<path fill="none" stroke="midnightblue" d="M298.07,-111.72C307.17,-110.41 316.58,-109.06 325.85,-107.73"/>
<polygon fill="midnightblue" stroke="midnightblue" points="326.43,-111.18 335.83,-106.29 325.43,-104.25 326.43,-111.18"/>
</g>
<!-- Node6 -->
<g id="node6" class="node">
<title>Node6</title>
<g id="a_node6"><a xlink:href="classnet_1_1in6_1_1stream_1_1_server_config.html#acb150f31a811981a662da7be1e896977" target="_top" xlink:title=" ">
<polygon fill="white" stroke="black" points="336,-33 336,-63 467,-63 467,-33 336,-33"/>
<text text-anchor="start" x="344" y="-51" font-family="Helvetica,sans-Serif" font-size="10.00">net::in6::stream::Server</text>
<text text-anchor="middle" x="401.5" y="-40" font-family="Helvetica,sans-Serif" font-size="10.00">Config::parse</text>
</a>
</g>
</g>
<!-- Node2&#45;&gt;Node6 -->
<g id="edge5" class="edge">
<title>Node2&#45;&gt;Node6</title>
<path fill="none" stroke="midnightblue" d="M263.54,-105.82C283.35,-96.02 309.98,-83.23 334,-73 338.96,-70.89 344.17,-68.76 349.4,-66.7"/>
<polygon fill="midnightblue" stroke="midnightblue" points="350.72,-69.94 358.78,-63.06 348.19,-63.42 350.72,-69.94"/>
</g>
<!-- Node7 -->
<g id="node7" class="node">
<title>Node7</title>
<g id="a_node7"><a xlink:href="classutils_1_1_config.html#ad13f9cf22d17f1f3e1e5150d6acd865a" target="_top" xlink:title=" ">
<polygon fill="white" stroke="black" points="505,-76.5 505,-95.5 627,-95.5 627,-76.5 505,-76.5"/>
<text text-anchor="middle" x="566" y="-83.5" font-family="Helvetica,sans-Serif" font-size="10.00">utils::Config::instance</text>
</a>
</g>
</g>
<!-- Node6&#45;&gt;Node7 -->
<g id="edge6" class="edge">
<title>Node6&#45;&gt;Node7</title>
<path fill="none" stroke="midnightblue" d="M466.72,-63.02C482.44,-66.69 499.04,-70.58 514.04,-74.08"/>
<polygon fill="midnightblue" stroke="midnightblue" points="513.6,-77.57 524.13,-76.44 515.19,-70.76 513.6,-77.57"/>
</g>
<!-- Node8 -->
<g id="node8" class="node">
<title>Node8</title>
<g id="a_node8"><a xlink:href="classutils_1_1_config.html#aa5ea623fdeef48f8a74ae158d3292b11" target="_top" xlink:title=" ">
<polygon fill="white" stroke="black" points="512,-38.5 512,-57.5 620,-57.5 620,-38.5 512,-38.5"/>
<text text-anchor="middle" x="566" y="-45.5" font-family="Helvetica,sans-Serif" font-size="10.00">utils::Config::parse</text>
</a>
</g>
</g>
<!-- Node6&#45;&gt;Node8 -->
<g id="edge7" class="edge">
<title>Node6&#45;&gt;Node8</title>
<path fill="none" stroke="midnightblue" d="M467.19,-48C478.51,-48 490.27,-48 501.55,-48"/>
<polygon fill="midnightblue" stroke="midnightblue" points="501.75,-51.5 511.75,-48 501.75,-44.5 501.75,-51.5"/>
</g>
<!-- Node15 -->
<g id="node15" class="node">
<title>Node15</title>
<g id="a_node15"><a xlink:href="classutils_1_1_config.html#aacaee4b1b3f6b83cb48e7e0d2457a680" target="_top" xlink:title=" ">
<polygon fill="white" stroke="black" points="505,-0.5 505,-19.5 627,-19.5 627,-0.5 505,-0.5"/>
<text text-anchor="middle" x="566" y="-7.5" font-family="Helvetica,sans-Serif" font-size="10.00">utils::Config::required</text>
</a>
</g>
</g>
<!-- Node6&#45;&gt;Node15 -->
<g id="edge16" class="edge">
<title>Node6&#45;&gt;Node15</title>
<path fill="none" stroke="midnightblue" d="M466.72,-32.98C482.44,-29.31 499.04,-25.42 514.04,-21.92"/>
<polygon fill="midnightblue" stroke="midnightblue" points="515.19,-25.24 524.13,-19.56 513.6,-18.43 515.19,-25.24"/>
</g>
<!-- Node9 -->
<g id="node9" class="node">
<title>Node9</title>
<g id="a_node9"><a xlink:href="class_c_l_i_1_1_app.html#aac000657ef11647125ba91af38fd7d9c" target="_top" xlink:title="Print a nice error message and return the exit code.">
<polygon fill="white" stroke="black" points="674,-76.5 674,-95.5 755,-95.5 755,-76.5 674,-76.5"/>
<text text-anchor="middle" x="714.5" y="-83.5" font-family="Helvetica,sans-Serif" font-size="10.00">CLI::App::exit</text>
</a>
</g>
</g>
<!-- Node8&#45;&gt;Node9 -->
<g id="edge8" class="edge">
<title>Node8&#45;&gt;Node9</title>
<path fill="none" stroke="midnightblue" d="M603.97,-57.59C623.13,-62.56 646.71,-68.68 667.09,-73.96"/>
<polygon fill="midnightblue" stroke="midnightblue" points="666.24,-77.36 676.8,-76.48 668,-70.58 666.24,-77.36"/>
</g>
<!-- Node14 -->
<g id="node14" class="node">
<title>Node14</title>
<g id="a_node14"><a xlink:href="class_c_l_i_1_1_app.html#a5ddf139d5fe065289aca7b83d5d045d9" target="_top" xlink:title=" ">
<polygon fill="white" stroke="black" points="670,-38.5 670,-57.5 759,-57.5 759,-38.5 670,-38.5"/>
<text text-anchor="middle" x="714.5" y="-45.5" font-family="Helvetica,sans-Serif" font-size="10.00">CLI::App::parse</text>
</a>
</g>
</g>
<!-- Node8&#45;&gt;Node14 -->
<g id="edge15" class="edge">
<title>Node8&#45;&gt;Node14</title>
<path fill="none" stroke="midnightblue" d="M620.3,-48C633.09,-48 646.75,-48 659.56,-48"/>
<polygon fill="midnightblue" stroke="midnightblue" points="659.61,-51.5 669.61,-48 659.61,-44.5 659.61,-51.5"/>
</g>
<!-- Node10 -->
<g id="node10" class="node">
<title>Node10</title>
<g id="a_node10"><a xlink:href="class_c_l_i_1_1_error.html#a24faca884e953e6366bdb8d84d631588" target="_top" xlink:title=" ">
<polygon fill="white" stroke="black" points="802,-114.5 802,-133.5 937,-133.5 937,-114.5 802,-114.5"/>
<text text-anchor="middle" x="869.5" y="-121.5" font-family="Helvetica,sans-Serif" font-size="10.00">CLI::Error::get_exit_code</text>
</a>
</g>
</g>
<!-- Node9&#45;&gt;Node10 -->
<g id="edge9" class="edge">
<title>Node9&#45;&gt;Node10</title>
<path fill="none" stroke="midnightblue" d="M754.11,-95.59C774.21,-100.58 798.98,-106.73 820.32,-112.03"/>
<polygon fill="midnightblue" stroke="midnightblue" points="819.62,-115.47 830.17,-114.48 821.31,-108.67 819.62,-115.47"/>
</g>
<!-- Node11 -->
<g id="node11" class="node">
<title>Node11</title>
<g id="a_node11"><a xlink:href="class_c_l_i_1_1_error.html#a725f16d721c2320ba75b4d6c99d2056a" target="_top" xlink:title=" ">
<polygon fill="white" stroke="black" points="1092,-38.5 1092,-57.5 1208,-57.5 1208,-38.5 1092,-38.5"/>
<text text-anchor="middle" x="1150" y="-45.5" font-family="Helvetica,sans-Serif" font-size="10.00">CLI::Error::get_name</text>
</a>
</g>
</g>
<!-- Node9&#45;&gt;Node11 -->
<g id="edge10" class="edge">
<title>Node9&#45;&gt;Node11</title>
<path fill="none" stroke="midnightblue" d="M755.13,-83.36C818.67,-79 947.27,-69.74 1056,-59 1064.37,-58.17 1073.16,-57.23 1081.85,-56.25"/>
<polygon fill="midnightblue" stroke="midnightblue" points="1082.45,-59.71 1091.99,-55.1 1081.65,-52.75 1082.45,-59.71"/>
</g>
<!-- Node12 -->
<g id="node12" class="node">
<title>Node12</title>
<g id="a_node12"><a xlink:href="namespace_c_l_i_1_1_failure_message.html#aa7e418b32b7d6f28aee8c4e5ad0bbc95" target="_top" xlink:title="Printout the full help string on error (if this fn is set, the old default for CLI11)">
<polygon fill="white" stroke="black" points="812.5,-27 812.5,-57 926.5,-57 926.5,-27 812.5,-27"/>
<text text-anchor="start" x="820.5" y="-45" font-family="Helvetica,sans-Serif" font-size="10.00">CLI::FailureMessage</text>
<text text-anchor="middle" x="869.5" y="-34" font-family="Helvetica,sans-Serif" font-size="10.00">::help</text>
</a>
</g>
</g>
<!-- Node9&#45;&gt;Node12 -->
<g id="edge11" class="edge">
<title>Node9&#45;&gt;Node12</title>
<path fill="none" stroke="midnightblue" d="M748.7,-76.45C765.54,-71.61 786.56,-65.57 806.26,-59.9"/>
<polygon fill="midnightblue" stroke="midnightblue" points="807.47,-63.19 816.11,-57.07 805.54,-56.47 807.47,-63.19"/>
</g>
<!-- Node12&#45;&gt;Node11 -->
<g id="edge12" class="edge">
<title>Node12&#45;&gt;Node11</title>
<path fill="none" stroke="midnightblue" d="M926.52,-43.21C971.21,-44.17 1033.97,-45.52 1081.44,-46.54"/>
<polygon fill="midnightblue" stroke="midnightblue" points="1081.56,-50.05 1091.63,-46.76 1081.71,-43.05 1081.56,-50.05"/>
</g>
<!-- Node13 -->
<g id="node13" class="node">
<title>Node13</title>
<g id="a_node13"><a xlink:href="class_c_l_i_1_1_app.html#a2d6847ad9eec079214a61d834f29e35f" target="_top" xlink:title=" ">
<polygon fill="white" stroke="black" points="973,-0.5 973,-19.5 1056,-19.5 1056,-0.5 973,-0.5"/>
<text text-anchor="middle" x="1014.5" y="-7.5" font-family="Helvetica,sans-Serif" font-size="10.00">CLI::App::help</text>
</a>
</g>
</g>
<!-- Node12&#45;&gt;Node13 -->
<g id="edge13" class="edge">
<title>Node12&#45;&gt;Node13</title>
<path fill="none" stroke="midnightblue" d="M926.61,-29.44C938.47,-26.79 950.92,-24 962.58,-21.39"/>
<polygon fill="midnightblue" stroke="midnightblue" points="963.59,-24.76 972.58,-19.16 962.06,-17.92 963.59,-24.76"/>
</g>
<!-- Node13&#45;&gt;Node11 -->
<g id="edge14" class="edge">
<title>Node13&#45;&gt;Node11</title>
<path fill="none" stroke="midnightblue" d="M1049.19,-19.59C1066.26,-24.45 1087.2,-30.41 1105.48,-35.61"/>
<polygon fill="midnightblue" stroke="midnightblue" points="1104.75,-39.04 1115.32,-38.41 1106.66,-32.31 1104.75,-39.04"/>
</g>
<!-- Node16 -->
<g id="node16" class="node">
<title>Node16</title>
<g id="a_node16"><a xlink:href="class_c_l_i_1_1_app.html#a33c3eb125a4e70d387dd9fc49c25432b" target="_top" xlink:title="Remove the error when extras are left over on the command line.">
<polygon fill="white" stroke="black" points="663,-0.5 663,-19.5 766,-19.5 766,-0.5 663,-0.5"/>
<text text-anchor="middle" x="714.5" y="-7.5" font-family="Helvetica,sans-Serif" font-size="10.00">CLI::App::required</text>
</a>
</g>
</g>
<!-- Node15&#45;&gt;Node16 -->
<g id="edge17" class="edge">
<title>Node15&#45;&gt;Node16</title>
<path fill="none" stroke="midnightblue" d="M627.01,-10C635.44,-10 644.11,-10 652.55,-10"/>
<polygon fill="midnightblue" stroke="midnightblue" points="652.71,-13.5 662.71,-10 652.71,-6.5 652.71,-13.5"/>
</g>
</g>
</svg>
