<?xml version="1.0" encoding="UTF-8" standalone="no"?>
<!DOCTYPE svg PUBLIC "-//W3C//DTD SVG 1.1//EN"
 "http://www.w3.org/Graphics/SVG/1.1/DTD/svg11.dtd">
<!-- Generated by graphviz version 2.43.0 (0)
 -->
<!-- Title: core::EventReceiver::isEnabled Pages: 1 -->
<svg width="997pt" height="1335pt"
 viewBox="0.00 0.00 997.00 1334.50" xmlns="http://www.w3.org/2000/svg" xmlns:xlink="http://www.w3.org/1999/xlink">
<g id="graph0" class="graph" transform="scale(1 1) rotate(0) translate(4 1330.5)">
<title>core::EventReceiver::isEnabled</title>
<polygon fill="white" stroke="transparent" points="-4,4 -4,-1330.5 993,-1330.5 993,4 -4,4"/>
<!-- Node1 -->
<g id="node1" class="node">
<title>Node1</title>
<g id="a_node1"><a xlink:title=" ">
<polygon fill="#bfbfbf" stroke="black" points="883,-262.5 883,-292.5 989,-292.5 989,-262.5 883,-262.5"/>
<text text-anchor="start" x="891" y="-280.5" font-family="Helvetica,sans-Serif" font-size="10.00">core::EventReceiver</text>
<text text-anchor="middle" x="936" y="-269.5" font-family="Helvetica,sans-Serif" font-size="10.00">::isEnabled</text>
</a>
</g>
</g>
<!-- Node2 -->
<g id="node2" class="node">
<title>Node2</title>
<g id="a_node2"><a xlink:href="classcore_1_1_event_dispatcher.html#a2d4ae0296e1363e62ad8eb40781ac1ac" target="_top" xlink:title=" ">
<polygon fill="white" stroke="black" points="723.5,-597.5 723.5,-627.5 837.5,-627.5 837.5,-597.5 723.5,-597.5"/>
<text text-anchor="start" x="731.5" y="-615.5" font-family="Helvetica,sans-Serif" font-size="10.00">core::EventDispatcher</text>
<text text-anchor="middle" x="780.5" y="-604.5" font-family="Helvetica,sans-Serif" font-size="10.00">::disable</text>
</a>
</g>
</g>
<!-- Node1&#45;&gt;Node2 -->
<g id="edge1" class="edge">
<title>Node1&#45;&gt;Node2</title>
<path fill="none" stroke="midnightblue" d="M923.83,-301.89C893.96,-367.06 812.92,-543.92 788.54,-597.15"/>
<polygon fill="midnightblue" stroke="midnightblue" points="927.02,-303.31 928.01,-292.76 920.66,-300.4 927.02,-303.31"/>
</g>
<!-- Node32 -->
<g id="node32" class="node">
<title>Node32</title>
<g id="a_node32"><a xlink:href="classcore_1_1_event_dispatcher.html#af055e77328163638c98ca34c6bbbdbd1" target="_top" xlink:title=" ">
<polygon fill="white" stroke="black" points="723.5,-262.5 723.5,-292.5 837.5,-292.5 837.5,-262.5 723.5,-262.5"/>
<text text-anchor="start" x="731.5" y="-280.5" font-family="Helvetica,sans-Serif" font-size="10.00">core::EventDispatcher</text>
<text text-anchor="middle" x="780.5" y="-269.5" font-family="Helvetica,sans-Serif" font-size="10.00">::enable</text>
</a>
</g>
</g>
<!-- Node1&#45;&gt;Node32 -->
<g id="edge31" class="edge">
<title>Node1&#45;&gt;Node32</title>
<path fill="none" stroke="midnightblue" d="M872.57,-277.5C861,-277.5 848.97,-277.5 837.59,-277.5"/>
<polygon fill="midnightblue" stroke="midnightblue" points="872.6,-281 882.6,-277.5 872.6,-274 872.6,-281"/>
</g>
<!-- Node44 -->
<g id="node43" class="node">
<title>Node44</title>
<g id="a_node43"><a xlink:href="classcore_1_1_event_receiver.html#a0f7505e88a5c4275601cc558459df9d5" target="_top" xlink:title=" ">
<polygon fill="white" stroke="black" points="556.5,-331.5 556.5,-361.5 662.5,-361.5 662.5,-331.5 556.5,-331.5"/>
<text text-anchor="start" x="564.5" y="-349.5" font-family="Helvetica,sans-Serif" font-size="10.00">core::EventReceiver</text>
<text text-anchor="middle" x="609.5" y="-338.5" font-family="Helvetica,sans-Serif" font-size="10.00">::resume</text>
</a>
</g>
</g>
<!-- Node1&#45;&gt;Node44 -->
<g id="edge43" class="edge">
<title>Node1&#45;&gt;Node44</title>
<path fill="none" stroke="midnightblue" d="M872.89,-295.09C864.22,-297.35 855.41,-299.56 847,-301.5 784.08,-316.04 710.97,-329.42 662.88,-337.75"/>
<polygon fill="midnightblue" stroke="midnightblue" points="873.82,-298.46 882.59,-292.52 872.02,-291.7 873.82,-298.46"/>
</g>
<!-- Node49 -->
<g id="node48" class="node">
<title>Node49</title>
<g id="a_node48"><a xlink:href="classcore_1_1socket_1_1stream_1_1_socket_reader.html#ac38f48735d352595c3356ec856820db3" target="_top" xlink:title=" ">
<polygon fill="white" stroke="black" points="714,-213.5 714,-243.5 847,-243.5 847,-213.5 714,-213.5"/>
<text text-anchor="start" x="722" y="-231.5" font-family="Helvetica,sans-Serif" font-size="10.00">core::socket::stream</text>
<text text-anchor="middle" x="780.5" y="-220.5" font-family="Helvetica,sans-Serif" font-size="10.00">::SocketReader::shutdown</text>
</a>
</g>
</g>
<!-- Node1&#45;&gt;Node49 -->
<g id="edge51" class="edge">
<title>Node1&#45;&gt;Node49</title>
<path fill="none" stroke="midnightblue" d="M877.8,-259.24C861.61,-254.07 844.18,-248.51 828.65,-243.55"/>
<polygon fill="midnightblue" stroke="midnightblue" points="877.1,-262.69 887.69,-262.4 879.23,-256.02 877.1,-262.69"/>
</g>
<!-- Node50 -->
<g id="node49" class="node">
<title>Node50</title>
<g id="a_node49"><a xlink:href="classcore_1_1socket_1_1stream_1_1_socket_writer.html#ad6540708f6529757ecf947f37c1eac32" target="_top" xlink:title=" ">
<polygon fill="white" stroke="black" points="717,-134.5 717,-164.5 844,-164.5 844,-134.5 717,-134.5"/>
<text text-anchor="start" x="725" y="-152.5" font-family="Helvetica,sans-Serif" font-size="10.00">core::socket::stream</text>
<text text-anchor="middle" x="780.5" y="-141.5" font-family="Helvetica,sans-Serif" font-size="10.00">::SocketWriter::shutdown</text>
</a>
</g>
</g>
<!-- Node1&#45;&gt;Node50 -->
<g id="edge52" class="edge">
<title>Node1&#45;&gt;Node50</title>
<path fill="none" stroke="midnightblue" d="M909.12,-255.62C891.62,-240.86 867.96,-220.95 847,-203.5 831.14,-190.3 813.04,-175.39 799.89,-164.58"/>
<polygon fill="midnightblue" stroke="midnightblue" points="907.28,-258.65 917.18,-262.43 911.79,-253.3 907.28,-258.65"/>
</g>
<!-- Node3 -->
<g id="node3" class="node">
<title>Node3</title>
<g id="a_node3"><a xlink:href="classcore_1_1_event_receiver.html#a8b54c1084463cb39c57d99ae533b218e" target="_top" xlink:title=" ">
<polygon fill="white" stroke="black" points="556.5,-819.5 556.5,-849.5 662.5,-849.5 662.5,-819.5 556.5,-819.5"/>
<text text-anchor="start" x="564.5" y="-837.5" font-family="Helvetica,sans-Serif" font-size="10.00">core::EventReceiver</text>
<text text-anchor="middle" x="609.5" y="-826.5" font-family="Helvetica,sans-Serif" font-size="10.00">::disable</text>
</a>
</g>
</g>
<!-- Node2&#45;&gt;Node3 -->
<g id="edge2" class="edge">
<title>Node2&#45;&gt;Node3</title>
<path fill="none" stroke="midnightblue" d="M761.7,-635.88C726.94,-681.55 650.89,-781.44 621.97,-819.43"/>
<polygon fill="midnightblue" stroke="midnightblue" points="764.61,-637.84 767.88,-627.76 759.04,-633.6 764.61,-637.84"/>
</g>
<!-- Node4 -->
<g id="node4" class="node">
<title>Node4</title>
<g id="a_node4"><a xlink:href="classcore_1_1_accept_event_receiver.html#a8487282ae046f21a5639cf3054866169" target="_top" xlink:title=" ">
<polygon fill="white" stroke="black" points="352,-578.5 352,-608.5 489,-608.5 489,-578.5 352,-578.5"/>
<text text-anchor="start" x="360" y="-596.5" font-family="Helvetica,sans-Serif" font-size="10.00">core::AcceptEventReceiver</text>
<text text-anchor="middle" x="420.5" y="-585.5" font-family="Helvetica,sans-Serif" font-size="10.00">::acceptTimeout</text>
</a>
</g>
</g>
<!-- Node3&#45;&gt;Node4 -->
<g id="edge3" class="edge">
<title>Node3&#45;&gt;Node4</title>
<path fill="none" stroke="midnightblue" d="M603.5,-809.57C593.18,-764.66 565.27,-670.04 505,-618.5 500.28,-614.47 494.94,-611.09 489.28,-608.25"/>
<polygon fill="midnightblue" stroke="midnightblue" points="600.09,-810.35 605.65,-819.37 606.92,-808.85 600.09,-810.35"/>
</g>
<!-- Node6 -->
<g id="node6" class="node">
<title>Node6</title>
<g id="a_node6"><a xlink:href="classcore_1_1_connect_event_receiver.html#a028eddd44a4f4237784c044266bf7d67" target="_top" xlink:title=" ">
<polygon fill="white" stroke="black" points="349,-529.5 349,-559.5 492,-559.5 492,-529.5 349,-529.5"/>
<text text-anchor="start" x="357" y="-547.5" font-family="Helvetica,sans-Serif" font-size="10.00">core::ConnectEventReceiver</text>
<text text-anchor="middle" x="420.5" y="-536.5" font-family="Helvetica,sans-Serif" font-size="10.00">::connectTimeout</text>
</a>
</g>
</g>
<!-- Node3&#45;&gt;Node6 -->
<g id="edge5" class="edge">
<title>Node3&#45;&gt;Node6</title>
<path fill="none" stroke="midnightblue" d="M606.03,-809.1C599.52,-756.34 577.1,-634.31 505,-568.5 501.1,-564.94 496.71,-561.91 492.03,-559.32"/>
<polygon fill="midnightblue" stroke="midnightblue" points="602.58,-809.73 607.19,-819.27 609.53,-808.93 602.58,-809.73"/>
</g>
<!-- Node8 -->
<g id="node8" class="node">
<title>Node8</title>
<g id="a_node8"><a xlink:href="classcore_1_1socket_1_1stream_1_1_socket_writer.html#a7cf7e0d247704957a3d606c9c5143e29" target="_top" xlink:title=" ">
<polygon fill="white" stroke="black" points="361.5,-1290.5 361.5,-1320.5 479.5,-1320.5 479.5,-1290.5 361.5,-1290.5"/>
<text text-anchor="start" x="369.5" y="-1308.5" font-family="Helvetica,sans-Serif" font-size="10.00">core::socket::stream</text>
<text text-anchor="middle" x="420.5" y="-1297.5" font-family="Helvetica,sans-Serif" font-size="10.00">::SocketWriter::doWrite</text>
</a>
</g>
</g>
<!-- Node3&#45;&gt;Node8 -->
<g id="edge7" class="edge">
<title>Node3&#45;&gt;Node8</title>
<path fill="none" stroke="midnightblue" d="M605.99,-859.79C597.05,-944.92 564.1,-1219.23 505,-1281.5 498.15,-1288.72 489.28,-1293.81 479.89,-1297.4"/>
<polygon fill="midnightblue" stroke="midnightblue" points="609.49,-860.02 607.03,-849.72 602.52,-859.31 609.49,-860.02"/>
</g>
<!-- Node10 -->
<g id="node10" class="node">
<title>Node10</title>
<g id="a_node10"><a xlink:href="classcore_1_1socket_1_1stream_1_1_socket_acceptor.html#ad83c3fe036cca23dd3d1e3623c8eb6b7" target="_top" xlink:title=" ">
<polygon fill="white" stroke="black" points="363.5,-1241.5 363.5,-1271.5 477.5,-1271.5 477.5,-1241.5 363.5,-1241.5"/>
<text text-anchor="start" x="371.5" y="-1259.5" font-family="Helvetica,sans-Serif" font-size="10.00">core::socket::stream</text>
<text text-anchor="middle" x="420.5" y="-1248.5" font-family="Helvetica,sans-Serif" font-size="10.00">::SocketAcceptor::end</text>
</a>
</g>
</g>
<!-- Node3&#45;&gt;Node10 -->
<g id="edge9" class="edge">
<title>Node3&#45;&gt;Node10</title>
<path fill="none" stroke="midnightblue" d="M605.18,-859.74C594.34,-938.37 557.66,-1176.91 505,-1231.5 497.54,-1239.23 487.8,-1244.6 477.61,-1248.32"/>
<polygon fill="midnightblue" stroke="midnightblue" points="608.66,-860.12 606.53,-849.74 601.72,-859.18 608.66,-860.12"/>
</g>
<!-- Node11 -->
<g id="node11" class="node">
<title>Node11</title>
<g id="a_node11"><a xlink:href="classcore_1_1pipe_1_1_pipe_source.html#a39b9fdbb94241dfd6865129d6f7eef8b" target="_top" xlink:title=" ">
<polygon fill="white" stroke="black" points="353,-1203 353,-1222 488,-1222 488,-1203 353,-1203"/>
<text text-anchor="middle" x="420.5" y="-1210" font-family="Helvetica,sans-Serif" font-size="10.00">core::pipe::PipeSource::eof</text>
</a>
</g>
</g>
<!-- Node3&#45;&gt;Node11 -->
<g id="edge10" class="edge">
<title>Node3&#45;&gt;Node11</title>
<path fill="none" stroke="midnightblue" d="M609.32,-860.11C609.93,-925.87 601.95,-1101.92 505,-1193.5 500.14,-1198.09 494.4,-1201.66 488.26,-1204.42"/>
<polygon fill="midnightblue" stroke="midnightblue" points="612.81,-859.78 609.14,-849.84 605.81,-859.9 612.81,-859.78"/>
</g>
<!-- Node12 -->
<g id="node12" class="node">
<title>Node12</title>
<g id="a_node12"><a xlink:href="classcore_1_1_exceptional_condition_event_receiver.html#a0868ae2174c55a543c2a74efe1512c9c" target="_top" xlink:title=" ">
<polygon fill="white" stroke="black" points="336,-1153.5 336,-1183.5 505,-1183.5 505,-1153.5 336,-1153.5"/>
<text text-anchor="start" x="344" y="-1171.5" font-family="Helvetica,sans-Serif" font-size="10.00">core::ExceptionalCondition</text>
<text text-anchor="middle" x="420.5" y="-1160.5" font-family="Helvetica,sans-Serif" font-size="10.00">EventReceiver::outOfBandTimeout</text>
</a>
</g>
</g>
<!-- Node3&#45;&gt;Node12 -->
<g id="edge11" class="edge">
<title>Node3&#45;&gt;Node12</title>
<path fill="none" stroke="midnightblue" d="M607.65,-859.9C604.27,-918.74 587.54,-1065.38 505,-1144.5 501.41,-1147.94 497.35,-1150.9 493.02,-1153.43"/>
<polygon fill="midnightblue" stroke="midnightblue" points="611.16,-859.82 608.15,-849.66 604.16,-859.48 611.16,-859.82"/>
</g>
<!-- Node14 -->
<g id="node14" class="node">
<title>Node14</title>
<g id="a_node14"><a xlink:href="classcore_1_1file_1_1_file_reader.html#afca7a5cb94011825ca21e49ca738a42d" target="_top" xlink:title=" ">
<polygon fill="white" stroke="black" points="367,-1104.5 367,-1134.5 474,-1134.5 474,-1104.5 367,-1104.5"/>
<text text-anchor="start" x="375" y="-1122.5" font-family="Helvetica,sans-Serif" font-size="10.00">core::file::FileReader</text>
<text text-anchor="middle" x="420.5" y="-1111.5" font-family="Helvetica,sans-Serif" font-size="10.00">::readEvent</text>
</a>
</g>
</g>
<!-- Node3&#45;&gt;Node14 -->
<g id="edge13" class="edge">
<title>Node3&#45;&gt;Node14</title>
<path fill="none" stroke="midnightblue" d="M605.83,-859.8C598.97,-911.79 575.96,-1031.15 505,-1095.5 496.4,-1103.3 485.41,-1108.58 474.26,-1112.15"/>
<polygon fill="midnightblue" stroke="midnightblue" points="609.31,-860.12 607.06,-849.77 602.37,-859.27 609.31,-860.12"/>
</g>
<!-- Node15 -->
<g id="node15" class="node">
<title>Node15</title>
<g id="a_node15"><a xlink:href="classcore_1_1pipe_1_1_pipe_sink.html#a2e57f7ff6c59add569e94b6760c0dac2" target="_top" xlink:title=" ">
<polygon fill="white" stroke="black" points="368.5,-1055.5 368.5,-1085.5 472.5,-1085.5 472.5,-1055.5 368.5,-1055.5"/>
<text text-anchor="start" x="376.5" y="-1073.5" font-family="Helvetica,sans-Serif" font-size="10.00">core::pipe::PipeSink</text>
<text text-anchor="middle" x="420.5" y="-1062.5" font-family="Helvetica,sans-Serif" font-size="10.00">::readEvent</text>
</a>
</g>
</g>
<!-- Node3&#45;&gt;Node15 -->
<g id="edge14" class="edge">
<title>Node3&#45;&gt;Node15</title>
<path fill="none" stroke="midnightblue" d="M603.27,-859.64C592.7,-904.07 564.56,-996.51 505,-1046.5 495.76,-1054.26 484.14,-1059.51 472.53,-1063.07"/>
<polygon fill="midnightblue" stroke="midnightblue" points="606.73,-860.2 605.53,-849.68 599.9,-858.65 606.73,-860.2"/>
</g>
<!-- Node16 -->
<g id="node16" class="node">
<title>Node16</title>
<g id="a_node16"><a xlink:href="classcore_1_1socket_1_1stream_1_1tls_1_1_t_l_s_handshake.html#a2475a79cbe0ba0cdf3e4a568cc93dd1c" target="_top" xlink:title=" ">
<polygon fill="white" stroke="black" points="364,-409 364,-450 477,-450 477,-409 364,-409"/>
<text text-anchor="start" x="372" y="-438" font-family="Helvetica,sans-Serif" font-size="10.00">core::socket::stream</text>
<text text-anchor="start" x="372" y="-427" font-family="Helvetica,sans-Serif" font-size="10.00">::tls::TLSHandshake::</text>
<text text-anchor="middle" x="420.5" y="-416" font-family="Helvetica,sans-Serif" font-size="10.00">readEvent</text>
</a>
</g>
</g>
<!-- Node3&#45;&gt;Node16 -->
<g id="edge15" class="edge">
<title>Node3&#45;&gt;Node16</title>
<path fill="none" stroke="midnightblue" d="M609.02,-808.92C608.97,-742.31 599.63,-561.57 505,-459.5 497.46,-451.37 487.56,-445.44 477.21,-441.11"/>
<polygon fill="midnightblue" stroke="midnightblue" points="605.52,-809.28 608.95,-819.3 612.52,-809.33 605.52,-809.28"/>
</g>
<!-- Node17 -->
<g id="node17" class="node">
<title>Node17</title>
<g id="a_node17"><a xlink:href="classcore_1_1socket_1_1stream_1_1_socket_reader.html#a7ea9c6a33e5e8b0c3fa9b766608e744a" target="_top" xlink:title=" ">
<polygon fill="white" stroke="black" points="344.5,-1006.5 344.5,-1036.5 496.5,-1036.5 496.5,-1006.5 344.5,-1006.5"/>
<text text-anchor="start" x="352.5" y="-1024.5" font-family="Helvetica,sans-Serif" font-size="10.00">core::socket::stream</text>
<text text-anchor="middle" x="420.5" y="-1013.5" font-family="Helvetica,sans-Serif" font-size="10.00">::SocketReader::readFromPeer</text>
</a>
</g>
</g>
<!-- Node3&#45;&gt;Node17 -->
<g id="edge16" class="edge">
<title>Node3&#45;&gt;Node17</title>
<path fill="none" stroke="midnightblue" d="M599.37,-859.38C584.93,-895.29 553.36,-961.3 505,-997.5 500.41,-1000.93 495.34,-1003.88 490.04,-1006.4"/>
<polygon fill="midnightblue" stroke="midnightblue" points="602.78,-860.27 603.15,-849.69 596.26,-857.73 602.78,-860.27"/>
</g>
<!-- Node19 -->
<g id="node19" class="node">
<title>Node19</title>
<g id="a_node19"><a xlink:href="classcore_1_1_read_event_receiver.html#abc9eaa4cf873c9853dfca502559eef1b" target="_top" xlink:title=" ">
<polygon fill="white" stroke="black" points="356,-957.5 356,-987.5 485,-987.5 485,-957.5 356,-957.5"/>
<text text-anchor="start" x="364" y="-975.5" font-family="Helvetica,sans-Serif" font-size="10.00">core::ReadEventReceiver</text>
<text text-anchor="middle" x="420.5" y="-964.5" font-family="Helvetica,sans-Serif" font-size="10.00">::readTimeout</text>
</a>
</g>
</g>
<!-- Node3&#45;&gt;Node19 -->
<g id="edge18" class="edge">
<title>Node3&#45;&gt;Node19</title>
<path fill="none" stroke="midnightblue" d="M592.82,-858.12C574.63,-883.74 542.3,-924.11 505,-947.5 498.85,-951.36 492.06,-954.65 485.11,-957.45"/>
<polygon fill="midnightblue" stroke="midnightblue" points="595.82,-859.93 598.65,-849.72 590.07,-855.94 595.82,-859.93"/>
</g>
<!-- Node21 -->
<g id="node21" class="node">
<title>Node21</title>
<g id="a_node21"><a xlink:href="classcore_1_1socket_1_1stream_1_1tls_1_1_t_l_s_handshake.html#a29687cada93d8edacc7caf4873108cb4" target="_top" xlink:title=" ">
<polygon fill="white" stroke="black" points="364,-897 364,-938 477,-938 477,-897 364,-897"/>
<text text-anchor="start" x="372" y="-926" font-family="Helvetica,sans-Serif" font-size="10.00">core::socket::stream</text>
<text text-anchor="start" x="372" y="-915" font-family="Helvetica,sans-Serif" font-size="10.00">::tls::TLSHandshake::</text>
<text text-anchor="middle" x="420.5" y="-904" font-family="Helvetica,sans-Serif" font-size="10.00">readTimeout</text>
</a>
</g>
</g>
<!-- Node3&#45;&gt;Node21 -->
<g id="edge20" class="edge">
<title>Node3&#45;&gt;Node21</title>
<path fill="none" stroke="midnightblue" d="M572.38,-854.44C552.75,-864.91 527.87,-877.59 505,-887.5 496.1,-891.36 486.52,-895.14 477.14,-898.64"/>
<polygon fill="midnightblue" stroke="midnightblue" points="574.14,-857.47 581.29,-849.65 570.82,-851.3 574.14,-857.47"/>
</g>
<!-- Node22 -->
<g id="node22" class="node">
<title>Node22</title>
<g id="a_node22"><a xlink:href="classcore_1_1file_1_1_file_reader.html#a1ab062a4a99cd471bf4d266d3d89ad68" target="_top" xlink:title=" ">
<polygon fill="white" stroke="black" points="367,-847.5 367,-877.5 474,-877.5 474,-847.5 367,-847.5"/>
<text text-anchor="start" x="375" y="-865.5" font-family="Helvetica,sans-Serif" font-size="10.00">core::file::FileReader</text>
<text text-anchor="middle" x="420.5" y="-854.5" font-family="Helvetica,sans-Serif" font-size="10.00">::sinkDisconnected</text>
</a>
</g>
</g>
<!-- Node3&#45;&gt;Node22 -->
<g id="edge21" class="edge">
<title>Node3&#45;&gt;Node22</title>
<path fill="none" stroke="midnightblue" d="M546.27,-843.82C522.94,-847.31 496.68,-851.24 474.28,-854.6"/>
<polygon fill="midnightblue" stroke="midnightblue" points="547.04,-847.24 556.41,-842.3 546,-840.32 547.04,-847.24"/>
</g>
<!-- Node23 -->
<g id="node23" class="node">
<title>Node23</title>
<g id="a_node23"><a xlink:href="classcore_1_1socket_1_1stream_1_1_socket_connection_t.html#a94d7f88972be8cbb6437b3116b4ddbe4" target="_top" xlink:title=" ">
<polygon fill="white" stroke="black" points="364,-787 364,-828 477,-828 477,-787 364,-787"/>
<text text-anchor="start" x="372" y="-816" font-family="Helvetica,sans-Serif" font-size="10.00">core::socket::stream</text>
<text text-anchor="start" x="372" y="-805" font-family="Helvetica,sans-Serif" font-size="10.00">::SocketConnectionT::</text>
<text text-anchor="middle" x="420.5" y="-794" font-family="Helvetica,sans-Serif" font-size="10.00">SocketConnectionT</text>
</a>
</g>
</g>
<!-- Node3&#45;&gt;Node23 -->
<g id="edge22" class="edge">
<title>Node3&#45;&gt;Node23</title>
<path fill="none" stroke="midnightblue" d="M546.36,-825.53C524.02,-822.3 498.99,-818.69 477.23,-815.55"/>
<polygon fill="midnightblue" stroke="midnightblue" points="546.01,-829.01 556.41,-826.98 547.01,-822.09 546.01,-829.01"/>
</g>
<!-- Node24 -->
<g id="node24" class="node">
<title>Node24</title>
<g id="a_node24"><a xlink:href="classcore_1_1socket_1_1stream_1_1tls_1_1_t_l_s_handshake.html#ac299d0fae027af9303a64090e9415c4d" target="_top" xlink:title=" ">
<polygon fill="white" stroke="black" points="364,-299 364,-340 477,-340 477,-299 364,-299"/>
<text text-anchor="start" x="372" y="-328" font-family="Helvetica,sans-Serif" font-size="10.00">core::socket::stream</text>
<text text-anchor="start" x="372" y="-317" font-family="Helvetica,sans-Serif" font-size="10.00">::tls::TLSHandshake::</text>
<text text-anchor="middle" x="420.5" y="-306" font-family="Helvetica,sans-Serif" font-size="10.00">TLSHandshake</text>
</a>
</g>
</g>
<!-- Node3&#45;&gt;Node24 -->
<g id="edge23" class="edge">
<title>Node3&#45;&gt;Node24</title>
<path fill="none" stroke="midnightblue" d="M606.3,-809C598.08,-719.28 566.45,-419.83 505,-349.5 497.6,-341.03 487.63,-334.95 477.16,-330.59"/>
<polygon fill="midnightblue" stroke="midnightblue" points="602.83,-809.45 607.21,-819.1 609.8,-808.83 602.83,-809.45"/>
</g>
<!-- Node27 -->
<g id="node27" class="node">
<title>Node27</title>
<g id="a_node27"><a xlink:href="classcore_1_1pipe_1_1_pipe_source.html#a7021ffb2c18daac613670c870fc43124" target="_top" xlink:title=" ">
<polygon fill="white" stroke="black" points="362.5,-737.5 362.5,-767.5 478.5,-767.5 478.5,-737.5 362.5,-737.5"/>
<text text-anchor="start" x="370.5" y="-755.5" font-family="Helvetica,sans-Serif" font-size="10.00">core::pipe::PipeSource</text>
<text text-anchor="middle" x="420.5" y="-744.5" font-family="Helvetica,sans-Serif" font-size="10.00">::writeEvent</text>
</a>
</g>
</g>
<!-- Node3&#45;&gt;Node27 -->
<g id="edge26" class="edge">
<title>Node3&#45;&gt;Node27</title>
<path fill="none" stroke="midnightblue" d="M575.87,-814.19C555.93,-802.37 529.61,-787.82 505,-777.5 496.35,-773.87 486.99,-770.53 477.77,-767.56"/>
<polygon fill="midnightblue" stroke="midnightblue" points="574.18,-817.25 584.56,-819.4 577.78,-811.25 574.18,-817.25"/>
</g>
<!-- Node28 -->
<g id="node28" class="node">
<title>Node28</title>
<g id="a_node28"><a xlink:href="classcore_1_1socket_1_1stream_1_1tls_1_1_t_l_s_handshake.html#a92a2d75aee8feac62f78889880ca52f8" target="_top" xlink:title=" ">
<polygon fill="white" stroke="black" points="364,-469 364,-510 477,-510 477,-469 364,-469"/>
<text text-anchor="start" x="372" y="-498" font-family="Helvetica,sans-Serif" font-size="10.00">core::socket::stream</text>
<text text-anchor="start" x="372" y="-487" font-family="Helvetica,sans-Serif" font-size="10.00">::tls::TLSHandshake::</text>
<text text-anchor="middle" x="420.5" y="-476" font-family="Helvetica,sans-Serif" font-size="10.00">writeEvent</text>
</a>
</g>
</g>
<!-- Node3&#45;&gt;Node28 -->
<g id="edge27" class="edge">
<title>Node3&#45;&gt;Node28</title>
<path fill="none" stroke="midnightblue" d="M607.42,-809.06C603.56,-750.07 585.89,-602.64 505,-519.5 497.37,-511.66 487.55,-505.86 477.35,-501.58"/>
<polygon fill="midnightblue" stroke="midnightblue" points="603.94,-809.54 608.01,-819.33 610.93,-809.14 603.94,-809.54"/>
</g>
<!-- Node29 -->
<g id="node29" class="node">
<title>Node29</title>
<g id="a_node29"><a xlink:href="classcore_1_1_write_event_receiver.html#a1fd633bb9b431366175d19f111350f73" target="_top" xlink:title=" ">
<polygon fill="white" stroke="black" points="356.5,-688.5 356.5,-718.5 484.5,-718.5 484.5,-688.5 356.5,-688.5"/>
<text text-anchor="start" x="364.5" y="-706.5" font-family="Helvetica,sans-Serif" font-size="10.00">core::WriteEventReceiver</text>
<text text-anchor="middle" x="420.5" y="-695.5" font-family="Helvetica,sans-Serif" font-size="10.00">::writeTimeout</text>
</a>
</g>
</g>
<!-- Node3&#45;&gt;Node29 -->
<g id="edge28" class="edge">
<title>Node3&#45;&gt;Node29</title>
<path fill="none" stroke="midnightblue" d="M591.34,-810.89C572.66,-786.83 540.67,-750.08 505,-728.5 498.66,-724.66 491.68,-721.38 484.55,-718.57"/>
<polygon fill="midnightblue" stroke="midnightblue" points="588.76,-813.28 597.59,-819.12 594.33,-809.04 588.76,-813.28"/>
</g>
<!-- Node31 -->
<g id="node31" class="node">
<title>Node31</title>
<g id="a_node31"><a xlink:href="classcore_1_1socket_1_1stream_1_1tls_1_1_t_l_s_handshake.html#a3bbc44feb05dc872bc6e0920dfbb9ba3" target="_top" xlink:title=" ">
<polygon fill="white" stroke="black" points="364,-628 364,-669 477,-669 477,-628 364,-628"/>
<text text-anchor="start" x="372" y="-657" font-family="Helvetica,sans-Serif" font-size="10.00">core::socket::stream</text>
<text text-anchor="start" x="372" y="-646" font-family="Helvetica,sans-Serif" font-size="10.00">::tls::TLSHandshake::</text>
<text text-anchor="middle" x="420.5" y="-635" font-family="Helvetica,sans-Serif" font-size="10.00">writeTimeout</text>
</a>
</g>
</g>
<!-- Node3&#45;&gt;Node31 -->
<g id="edge30" class="edge">
<title>Node3&#45;&gt;Node31</title>
<path fill="none" stroke="midnightblue" d="M598.22,-810.27C582.72,-776.47 550.29,-715.29 505,-679.5 496.75,-672.98 486.99,-667.74 477.11,-663.55"/>
<polygon fill="midnightblue" stroke="midnightblue" points="595.03,-811.72 602.31,-819.43 601.43,-808.87 595.03,-811.72"/>
</g>
<!-- Node5 -->
<g id="node5" class="node">
<title>Node5</title>
<g id="a_node5"><a xlink:href="classcore_1_1_accept_event_receiver.html#a23dd9e4d19152a72a9a674e8d30a385b" target="_top" xlink:title=" ">
<polygon fill="white" stroke="black" points="159,-578.5 159,-608.5 296,-608.5 296,-578.5 159,-578.5"/>
<text text-anchor="start" x="167" y="-596.5" font-family="Helvetica,sans-Serif" font-size="10.00">core::AcceptEventReceiver</text>
<text text-anchor="middle" x="227.5" y="-585.5" font-family="Helvetica,sans-Serif" font-size="10.00">::timeoutEvent</text>
</a>
</g>
</g>
<!-- Node4&#45;&gt;Node5 -->
<g id="edge4" class="edge">
<title>Node4&#45;&gt;Node5</title>
<path fill="none" stroke="midnightblue" d="M341.55,-593.5C326.45,-593.5 310.75,-593.5 296.02,-593.5"/>
<polygon fill="midnightblue" stroke="midnightblue" points="341.89,-597 351.89,-593.5 341.89,-590 341.89,-597"/>
</g>
<!-- Node7 -->
<g id="node7" class="node">
<title>Node7</title>
<g id="a_node7"><a xlink:href="classcore_1_1_connect_event_receiver.html#a17a349c35b3e64062cdf3e5b62fc6c3c" target="_top" xlink:title=" ">
<polygon fill="white" stroke="black" points="156,-529.5 156,-559.5 299,-559.5 299,-529.5 156,-529.5"/>
<text text-anchor="start" x="164" y="-547.5" font-family="Helvetica,sans-Serif" font-size="10.00">core::ConnectEventReceiver</text>
<text text-anchor="middle" x="227.5" y="-536.5" font-family="Helvetica,sans-Serif" font-size="10.00">::timeoutEvent</text>
</a>
</g>
</g>
<!-- Node6&#45;&gt;Node7 -->
<g id="edge6" class="edge">
<title>Node6&#45;&gt;Node7</title>
<path fill="none" stroke="midnightblue" d="M338.9,-544.5C325.68,-544.5 312.06,-544.5 299.11,-544.5"/>
<polygon fill="midnightblue" stroke="midnightblue" points="338.92,-548 348.92,-544.5 338.92,-541 338.92,-548"/>
</g>
<!-- Node9 -->
<g id="node9" class="node">
<title>Node9</title>
<g id="a_node9"><a xlink:href="classcore_1_1socket_1_1stream_1_1_socket_connection_t.html#a50c1f4e46c06f7bd65d782c8d2cedc94" target="_top" xlink:title=" ">
<polygon fill="white" stroke="black" points="171,-1285 171,-1326 284,-1326 284,-1285 171,-1285"/>
<text text-anchor="start" x="179" y="-1314" font-family="Helvetica,sans-Serif" font-size="10.00">core::socket::stream</text>
<text text-anchor="start" x="179" y="-1303" font-family="Helvetica,sans-Serif" font-size="10.00">::SocketConnectionT::</text>
<text text-anchor="middle" x="227.5" y="-1292" font-family="Helvetica,sans-Serif" font-size="10.00">writeEvent</text>
</a>
</g>
</g>
<!-- Node8&#45;&gt;Node9 -->
<g id="edge8" class="edge">
<title>Node8&#45;&gt;Node9</title>
<path fill="none" stroke="midnightblue" d="M351.13,-1305.5C329.11,-1305.5 305,-1305.5 284.02,-1305.5"/>
<polygon fill="midnightblue" stroke="midnightblue" points="351.42,-1309 361.42,-1305.5 351.42,-1302 351.42,-1309"/>
</g>
<!-- Node13 -->
<g id="node13" class="node">
<title>Node13</title>
<g id="a_node13"><a xlink:href="classcore_1_1_exceptional_condition_event_receiver.html#a7cc0460d3673292a3bb436bf4958f46d" target="_top" xlink:title=" ">
<polygon fill="white" stroke="black" points="155,-1153.5 155,-1183.5 300,-1183.5 300,-1153.5 155,-1153.5"/>
<text text-anchor="start" x="163" y="-1171.5" font-family="Helvetica,sans-Serif" font-size="10.00">core::ExceptionalCondition</text>
<text text-anchor="middle" x="227.5" y="-1160.5" font-family="Helvetica,sans-Serif" font-size="10.00">EventReceiver::timeoutEvent</text>
</a>
</g>
</g>
<!-- Node12&#45;&gt;Node13 -->
<g id="edge12" class="edge">
<title>Node12&#45;&gt;Node13</title>
<path fill="none" stroke="midnightblue" d="M325.7,-1168.5C317.15,-1168.5 308.57,-1168.5 300.25,-1168.5"/>
<polygon fill="midnightblue" stroke="midnightblue" points="325.72,-1172 335.72,-1168.5 325.72,-1165 325.72,-1172"/>
</g>
<!-- Node18 -->
<g id="node18" class="node">
<title>Node18</title>
<g id="a_node18"><a xlink:href="classcore_1_1socket_1_1stream_1_1_socket_connection_t.html#ad8f6106747babf5c98532a324c361245" target="_top" xlink:title=" ">
<polygon fill="white" stroke="black" points="171,-1004 171,-1045 284,-1045 284,-1004 171,-1004"/>
<text text-anchor="start" x="179" y="-1033" font-family="Helvetica,sans-Serif" font-size="10.00">core::socket::stream</text>
<text text-anchor="start" x="179" y="-1022" font-family="Helvetica,sans-Serif" font-size="10.00">::SocketConnectionT::</text>
<text text-anchor="middle" x="227.5" y="-1011" font-family="Helvetica,sans-Serif" font-size="10.00">readFromPeer</text>
</a>
</g>
</g>
<!-- Node17&#45;&gt;Node18 -->
<g id="edge17" class="edge">
<title>Node17&#45;&gt;Node18</title>
<path fill="none" stroke="midnightblue" d="M333.86,-1022.85C317,-1023.11 299.72,-1023.38 284.16,-1023.63"/>
<polygon fill="midnightblue" stroke="midnightblue" points="334.34,-1026.34 344.29,-1022.68 334.23,-1019.34 334.34,-1026.34"/>
</g>
<!-- Node20 -->
<g id="node20" class="node">
<title>Node20</title>
<g id="a_node20"><a xlink:href="classcore_1_1_read_event_receiver.html#a579dbdce1940f240063fbd827457c46d" target="_top" xlink:title=" ">
<polygon fill="white" stroke="black" points="163,-954.5 163,-984.5 292,-984.5 292,-954.5 163,-954.5"/>
<text text-anchor="start" x="171" y="-972.5" font-family="Helvetica,sans-Serif" font-size="10.00">core::ReadEventReceiver</text>
<text text-anchor="middle" x="227.5" y="-961.5" font-family="Helvetica,sans-Serif" font-size="10.00">::timeoutEvent</text>
</a>
</g>
</g>
<!-- Node19&#45;&gt;Node20 -->
<g id="edge19" class="edge">
<title>Node19&#45;&gt;Node20</title>
<path fill="none" stroke="midnightblue" d="M345.65,-971.34C327.99,-971.06 309.3,-970.77 292.15,-970.5"/>
<polygon fill="midnightblue" stroke="midnightblue" points="345.85,-974.84 355.9,-971.5 345.96,-967.84 345.85,-974.84"/>
</g>
<!-- Node25 -->
<g id="node25" class="node">
<title>Node25</title>
<g id="a_node25"><a xlink:href="classcore_1_1socket_1_1stream_1_1tls_1_1_t_l_s_handshake.html#a2b237e96cbc558865e1af52795641b71" target="_top" xlink:title=" ">
<polygon fill="white" stroke="black" points="171,-299 171,-340 284,-340 284,-299 171,-299"/>
<text text-anchor="start" x="179" y="-328" font-family="Helvetica,sans-Serif" font-size="10.00">core::socket::stream</text>
<text text-anchor="start" x="179" y="-317" font-family="Helvetica,sans-Serif" font-size="10.00">::tls::TLSHandshake::</text>
<text text-anchor="middle" x="227.5" y="-306" font-family="Helvetica,sans-Serif" font-size="10.00">doHandshake</text>
</a>
</g>
</g>
<!-- Node24&#45;&gt;Node25 -->
<g id="edge24" class="edge">
<title>Node24&#45;&gt;Node25</title>
<path fill="none" stroke="midnightblue" d="M353.78,-319.5C331.1,-319.5 305.93,-319.5 284.14,-319.5"/>
<polygon fill="midnightblue" stroke="midnightblue" points="354,-323 364,-319.5 354,-316 354,-323"/>
</g>
<!-- Node26 -->
<g id="node26" class="node">
<title>Node26</title>
<g id="a_node26"><a xlink:href="classcore_1_1socket_1_1stream_1_1tls_1_1_socket_connection.html#a546ab67c528548eaed69277c29a86412" target="_top" xlink:title=" ">
<polygon fill="white" stroke="black" points="0,-299 0,-340 119,-340 119,-299 0,-299"/>
<text text-anchor="start" x="8" y="-328" font-family="Helvetica,sans-Serif" font-size="10.00">core::socket::stream</text>
<text text-anchor="start" x="8" y="-317" font-family="Helvetica,sans-Serif" font-size="10.00">::tls::SocketConnection</text>
<text text-anchor="middle" x="59.5" y="-306" font-family="Helvetica,sans-Serif" font-size="10.00">::doSSLHandshake</text>
</a>
</g>
</g>
<!-- Node25&#45;&gt;Node26 -->
<g id="edge25" class="edge">
<title>Node25&#45;&gt;Node26</title>
<path fill="none" stroke="midnightblue" d="M160.48,-319.5C146.85,-319.5 132.57,-319.5 119.22,-319.5"/>
<polygon fill="midnightblue" stroke="midnightblue" points="160.76,-323 170.76,-319.5 160.76,-316 160.76,-323"/>
</g>
<!-- Node30 -->
<g id="node30" class="node">
<title>Node30</title>
<g id="a_node30"><a xlink:href="classcore_1_1_write_event_receiver.html#a18da0211c1e2b4c6d2949cdea36e2ef1" target="_top" xlink:title=" ">
<polygon fill="white" stroke="black" points="163.5,-688.5 163.5,-718.5 291.5,-718.5 291.5,-688.5 163.5,-688.5"/>
<text text-anchor="start" x="171.5" y="-706.5" font-family="Helvetica,sans-Serif" font-size="10.00">core::WriteEventReceiver</text>
<text text-anchor="middle" x="227.5" y="-695.5" font-family="Helvetica,sans-Serif" font-size="10.00">::timeoutEvent</text>
</a>
</g>
</g>
<!-- Node29&#45;&gt;Node30 -->
<g id="edge29" class="edge">
<title>Node29&#45;&gt;Node30</title>
<path fill="none" stroke="midnightblue" d="M346.25,-703.5C328.19,-703.5 309.02,-703.5 291.5,-703.5"/>
<polygon fill="midnightblue" stroke="midnightblue" points="346.43,-707 356.43,-703.5 346.43,-700 346.43,-707"/>
</g>
<!-- Node33 -->
<g id="node33" class="node">
<title>Node33</title>
<g id="a_node33"><a xlink:href="classcore_1_1_event_receiver.html#aae56563ec614ab06a115413240e6095f" target="_top" xlink:title=" ">
<polygon fill="white" stroke="black" points="556.5,-172.5 556.5,-202.5 662.5,-202.5 662.5,-172.5 556.5,-172.5"/>
<text text-anchor="start" x="564.5" y="-190.5" font-family="Helvetica,sans-Serif" font-size="10.00">core::EventReceiver</text>
<text text-anchor="middle" x="609.5" y="-179.5" font-family="Helvetica,sans-Serif" font-size="10.00">::enable</text>
</a>
</g>
</g>
<!-- Node32&#45;&gt;Node33 -->
<g id="edge32" class="edge">
<title>Node32&#45;&gt;Node33</title>
<path fill="none" stroke="midnightblue" d="M727.11,-258.57C722.63,-256.63 718.2,-254.6 714,-252.5 684.38,-237.73 652.43,-216.82 631.98,-202.74"/>
<polygon fill="midnightblue" stroke="midnightblue" points="725.77,-261.8 736.35,-262.41 728.46,-255.34 725.77,-261.8"/>
</g>
<!-- Node33&#45;&gt;Node24 -->
<g id="edge42" class="edge">
<title>Node33&#45;&gt;Node24</title>
<path fill="none" stroke="midnightblue" d="M590.18,-210.26C571.01,-232.8 539.01,-266.97 505,-288.5 496.51,-293.88 486.94,-298.52 477.4,-302.46"/>
<polygon fill="midnightblue" stroke="midnightblue" points="592.92,-212.45 596.65,-202.53 587.55,-207.96 592.92,-212.45"/>
</g>
<!-- Node34 -->
<g id="node34" class="node">
<title>Node34</title>
<g id="a_node34"><a xlink:href="classcore_1_1socket_1_1stream_1_1_socket_connector.html#a47ad8b2787c844b1a2d9d29b25ab5746" target="_top" xlink:title=" ">
<polygon fill="white" stroke="black" points="351,-53.5 351,-83.5 490,-83.5 490,-53.5 351,-53.5"/>
<text text-anchor="start" x="359" y="-71.5" font-family="Helvetica,sans-Serif" font-size="10.00">core::socket::stream</text>
<text text-anchor="middle" x="420.5" y="-60.5" font-family="Helvetica,sans-Serif" font-size="10.00">::SocketConnector::connect</text>
</a>
</g>
</g>
<!-- Node33&#45;&gt;Node34 -->
<g id="edge33" class="edge">
<title>Node33&#45;&gt;Node34</title>
<path fill="none" stroke="midnightblue" d="M547.39,-167.47C545.15,-165.93 543,-164.28 541,-162.5 514.82,-139.29 532.03,-114.71 505,-92.5 500.57,-88.86 495.62,-85.77 490.39,-83.15"/>
<polygon fill="midnightblue" stroke="midnightblue" points="546.08,-170.76 556.46,-172.86 549.65,-164.75 546.08,-170.76"/>
</g>
<!-- Node36 -->
<g id="node36" class="node">
<title>Node36</title>
<g id="a_node36"><a xlink:href="classcore_1_1file_1_1_file_reader.html#a59f41a74c0d3b7dfd8aea1659066e46c" target="_top" xlink:title=" ">
<polygon fill="white" stroke="black" points="367,-3.5 367,-33.5 474,-33.5 474,-3.5 367,-3.5"/>
<text text-anchor="start" x="375" y="-21.5" font-family="Helvetica,sans-Serif" font-size="10.00">core::file::FileReader</text>
<text text-anchor="middle" x="420.5" y="-10.5" font-family="Helvetica,sans-Serif" font-size="10.00">::FileReader</text>
</a>
</g>
</g>
<!-- Node33&#45;&gt;Node36 -->
<g id="edge35" class="edge">
<title>Node33&#45;&gt;Node36</title>
<path fill="none" stroke="midnightblue" d="M547.7,-168.48C545.3,-166.66 543.05,-164.68 541,-162.5 503.14,-122.26 544.13,-82.52 505,-43.5 496.64,-35.17 485.63,-29.59 474.35,-25.86"/>
<polygon fill="midnightblue" stroke="midnightblue" points="546.06,-171.58 556.37,-174.01 549.82,-165.68 546.06,-171.58"/>
</g>
<!-- Node40 -->
<g id="node39" class="node">
<title>Node40</title>
<g id="a_node39"><a xlink:href="classcore_1_1socket_1_1stream_1_1_socket_acceptor.html#a5b3aca4a5ca1a9cbac65ee3ab2c97c97" target="_top" xlink:title=" ">
<polygon fill="white" stroke="black" points="359.5,-200.5 359.5,-230.5 481.5,-230.5 481.5,-200.5 359.5,-200.5"/>
<text text-anchor="start" x="367.5" y="-218.5" font-family="Helvetica,sans-Serif" font-size="10.00">core::socket::stream</text>
<text text-anchor="middle" x="420.5" y="-207.5" font-family="Helvetica,sans-Serif" font-size="10.00">::SocketAcceptor::listen</text>
</a>
</g>
</g>
<!-- Node33&#45;&gt;Node40 -->
<g id="edge38" class="edge">
<title>Node33&#45;&gt;Node40</title>
<path fill="none" stroke="midnightblue" d="M546.38,-196.8C525.51,-199.93 502.28,-203.41 481.57,-206.51"/>
<polygon fill="midnightblue" stroke="midnightblue" points="547.04,-200.24 556.41,-195.3 546,-193.32 547.04,-200.24"/>
</g>
<!-- Node42 -->
<g id="node41" class="node">
<title>Node42</title>
<g id="a_node41"><a xlink:href="classcore_1_1pipe_1_1_pipe_sink.html#abfdb292fe8bd66fac2a78dcefe678fdf" target="_top" xlink:title=" ">
<polygon fill="white" stroke="black" points="368.5,-151.5 368.5,-181.5 472.5,-181.5 472.5,-151.5 368.5,-151.5"/>
<text text-anchor="start" x="376.5" y="-169.5" font-family="Helvetica,sans-Serif" font-size="10.00">core::pipe::PipeSink</text>
<text text-anchor="middle" x="420.5" y="-158.5" font-family="Helvetica,sans-Serif" font-size="10.00">::PipeSink</text>
</a>
</g>
</g>
<!-- Node33&#45;&gt;Node42 -->
<g id="edge40" class="edge">
<title>Node33&#45;&gt;Node42</title>
<path fill="none" stroke="midnightblue" d="M546.37,-180.52C522.45,-177.84 495.43,-174.8 472.66,-172.25"/>
<polygon fill="midnightblue" stroke="midnightblue" points="546.08,-184.01 556.41,-181.65 546.86,-177.06 546.08,-184.01"/>
</g>
<!-- Node43 -->
<g id="node42" class="node">
<title>Node43</title>
<g id="a_node42"><a xlink:href="classcore_1_1pipe_1_1_pipe_source.html#a6804eb1f9c27124f36a2bf37454af2c7" target="_top" xlink:title=" ">
<polygon fill="white" stroke="black" points="362.5,-102.5 362.5,-132.5 478.5,-132.5 478.5,-102.5 362.5,-102.5"/>
<text text-anchor="start" x="370.5" y="-120.5" font-family="Helvetica,sans-Serif" font-size="10.00">core::pipe::PipeSource</text>
<text text-anchor="middle" x="420.5" y="-109.5" font-family="Helvetica,sans-Serif" font-size="10.00">::PipeSource</text>
</a>
</g>
</g>
<!-- Node33&#45;&gt;Node43 -->
<g id="edge41" class="edge">
<title>Node33&#45;&gt;Node43</title>
<path fill="none" stroke="midnightblue" d="M555.16,-168.73C550.33,-166.74 545.54,-164.65 541,-162.5 524.25,-154.59 522.03,-148.78 505,-141.5 496.68,-137.94 487.67,-134.73 478.76,-131.91"/>
<polygon fill="midnightblue" stroke="midnightblue" points="553.88,-171.99 564.47,-172.45 556.48,-165.49 553.88,-171.99"/>
</g>
<!-- Node35 -->
<g id="node35" class="node">
<title>Node35</title>
<g id="a_node35"><a xlink:href="classcore_1_1socket_1_1stream_1_1tls_1_1_socket_connector.html#ad2aca1e55d40f84096b633cc79693150" target="_top" xlink:title=" ">
<polygon fill="white" stroke="black" points="170,-50 170,-91 285,-91 285,-50 170,-50"/>
<text text-anchor="start" x="178" y="-79" font-family="Helvetica,sans-Serif" font-size="10.00">core::socket::stream</text>
<text text-anchor="start" x="178" y="-68" font-family="Helvetica,sans-Serif" font-size="10.00">::tls::SocketConnector</text>
<text text-anchor="middle" x="227.5" y="-57" font-family="Helvetica,sans-Serif" font-size="10.00">::connect</text>
</a>
</g>
</g>
<!-- Node34&#45;&gt;Node35 -->
<g id="edge34" class="edge">
<title>Node34&#45;&gt;Node35</title>
<path fill="none" stroke="midnightblue" d="M340.61,-69.33C322.05,-69.52 302.63,-69.72 285.27,-69.91"/>
<polygon fill="midnightblue" stroke="midnightblue" points="340.85,-72.82 350.81,-69.22 340.78,-65.82 340.85,-72.82"/>
</g>
<!-- Node37 -->
<g id="node37" class="node">
<title>Node37</title>
<g id="a_node37"><a xlink:href="classcore_1_1file_1_1_file_reader.html#a1283a619871fb6ae3ecaa472afdab866" target="_top" xlink:title=" ">
<polygon fill="white" stroke="black" points="174,-0.5 174,-30.5 281,-30.5 281,-0.5 174,-0.5"/>
<text text-anchor="start" x="182" y="-18.5" font-family="Helvetica,sans-Serif" font-size="10.00">core::file::FileReader</text>
<text text-anchor="middle" x="227.5" y="-7.5" font-family="Helvetica,sans-Serif" font-size="10.00">::connect</text>
</a>
</g>
</g>
<!-- Node36&#45;&gt;Node37 -->
<g id="edge36" class="edge">
<title>Node36&#45;&gt;Node37</title>
<path fill="none" stroke="midnightblue" d="M356.54,-17.51C332.08,-17.13 304.39,-16.69 281.03,-16.33"/>
<polygon fill="midnightblue" stroke="midnightblue" points="356.75,-21.01 366.8,-17.67 356.86,-14.02 356.75,-21.01"/>
</g>
<!-- Node38 -->
<g id="node38" class="node">
<title>Node38</title>
<g id="a_node38"><a xlink:href="classexpress_1_1_response.html#aa7a3b9c880c1af5b11e832f84eeda58c" target="_top" xlink:title=" ">
<polygon fill="white" stroke="red" points="6,-0.5 6,-30.5 113,-30.5 113,-0.5 6,-0.5"/>
<text text-anchor="start" x="14" y="-18.5" font-family="Helvetica,sans-Serif" font-size="10.00">express::Response::</text>
<text text-anchor="middle" x="59.5" y="-7.5" font-family="Helvetica,sans-Serif" font-size="10.00">sendFile</text>
</a>
</g>
</g>
<!-- Node37&#45;&gt;Node38 -->
<g id="edge37" class="edge">
<title>Node37&#45;&gt;Node38</title>
<path fill="none" stroke="midnightblue" d="M163.78,-15.5C147.13,-15.5 129.31,-15.5 113.25,-15.5"/>
<polygon fill="midnightblue" stroke="midnightblue" points="163.98,-19 173.98,-15.5 163.98,-12 163.98,-19"/>
</g>
<!-- Node41 -->
<g id="node40" class="node">
<title>Node41</title>
<g id="a_node40"><a xlink:href="classcore_1_1socket_1_1stream_1_1tls_1_1_socket_acceptor.html#aeb9743611cc4feff93d61a92bfb62215" target="_top" xlink:title=" ">
<polygon fill="white" stroke="black" points="173,-189 173,-230 282,-230 282,-189 173,-189"/>
<text text-anchor="start" x="181" y="-218" font-family="Helvetica,sans-Serif" font-size="10.00">core::socket::stream</text>
<text text-anchor="start" x="181" y="-207" font-family="Helvetica,sans-Serif" font-size="10.00">::tls::SocketAcceptor</text>
<text text-anchor="middle" x="227.5" y="-196" font-family="Helvetica,sans-Serif" font-size="10.00">::listen</text>
</a>
</g>
</g>
<!-- Node40&#45;&gt;Node41 -->
<g id="edge39" class="edge">
<title>Node40&#45;&gt;Node41</title>
<path fill="none" stroke="midnightblue" d="M349.31,-213.29C327.15,-212.6 303.04,-211.84 282.23,-211.19"/>
<polygon fill="midnightblue" stroke="midnightblue" points="349.22,-216.79 359.33,-213.61 349.44,-209.8 349.22,-216.79"/>
</g>
<!-- Node44&#45;&gt;Node16 -->
<g id="edge44" class="edge">
<title>Node44&#45;&gt;Node16</title>
<path fill="none" stroke="midnightblue" d="M571.47,-366.35C551.94,-376.5 527.44,-388.73 505,-398.5 496.07,-402.39 486.47,-406.24 477.09,-409.84"/>
<polygon fill="midnightblue" stroke="midnightblue" points="573.11,-369.44 580.35,-361.7 569.86,-363.24 573.11,-369.44"/>
</g>
<!-- Node44&#45;&gt;Node24 -->
<g id="edge49" class="edge">
<title>Node44&#45;&gt;Node24</title>
<path fill="none" stroke="midnightblue" d="M546.36,-337.53C524.02,-334.3 498.99,-330.69 477.23,-327.55"/>
<polygon fill="midnightblue" stroke="midnightblue" points="546.01,-341.01 556.41,-338.98 547.01,-334.09 546.01,-341.01"/>
</g>
<!-- Node44&#45;&gt;Node28 -->
<g id="edge50" class="edge">
<title>Node44&#45;&gt;Node28</title>
<path fill="none" stroke="midnightblue" d="M592.28,-370.15C573.82,-395.47 541.46,-435.24 505,-459.5 496.54,-465.13 486.89,-469.85 477.22,-473.76"/>
<polygon fill="midnightblue" stroke="midnightblue" points="595.25,-372.02 598.22,-361.85 589.55,-367.95 595.25,-372.02"/>
</g>
<!-- Node45 -->
<g id="node44" class="node">
<title>Node45</title>
<g id="a_node44"><a xlink:href="classcore_1_1pipe_1_1_pipe_source.html#afc3c43fb43ed99f9ca7d68e9fba9dc1b" target="_top" xlink:title=" ">
<polygon fill="white" stroke="black" points="362.5,-249.5 362.5,-279.5 478.5,-279.5 478.5,-249.5 362.5,-249.5"/>
<text text-anchor="start" x="370.5" y="-267.5" font-family="Helvetica,sans-Serif" font-size="10.00">core::pipe::PipeSource</text>
<text text-anchor="middle" x="420.5" y="-256.5" font-family="Helvetica,sans-Serif" font-size="10.00">::send</text>
</a>
</g>
</g>
<!-- Node44&#45;&gt;Node45 -->
<g id="edge45" class="edge">
<title>Node44&#45;&gt;Node45</title>
<path fill="none" stroke="midnightblue" d="M575.87,-326.19C555.93,-314.37 529.61,-299.82 505,-289.5 496.35,-285.87 486.99,-282.53 477.77,-279.56"/>
<polygon fill="midnightblue" stroke="midnightblue" points="574.18,-329.25 584.56,-331.4 577.78,-323.25 574.18,-329.25"/>
</g>
<!-- Node47 -->
<g id="node46" class="node">
<title>Node47</title>
<g id="a_node46"><a xlink:href="classcore_1_1socket_1_1stream_1_1_socket_writer.html#ab37b0d0dff3ab0f18964cb36396f04b3" target="_top" xlink:title=" ">
<polygon fill="white" stroke="black" points="352,-359.5 352,-389.5 489,-389.5 489,-359.5 352,-359.5"/>
<text text-anchor="start" x="360" y="-377.5" font-family="Helvetica,sans-Serif" font-size="10.00">core::socket::stream</text>
<text text-anchor="middle" x="420.5" y="-366.5" font-family="Helvetica,sans-Serif" font-size="10.00">::SocketWriter::sendToPeer</text>
</a>
</g>
</g>
<!-- Node44&#45;&gt;Node47 -->
<g id="edge47" class="edge">
<title>Node44&#45;&gt;Node47</title>
<path fill="none" stroke="midnightblue" d="M546.4,-355.8C528.01,-358.55 507.78,-361.58 489.06,-364.38"/>
<polygon fill="midnightblue" stroke="midnightblue" points="547.04,-359.24 556.41,-354.3 546,-352.32 547.04,-359.24"/>
</g>
<!-- Node46 -->
<g id="node45" class="node">
<title>Node46</title>
<g id="a_node45"><a xlink:href="classcore_1_1pipe_1_1_pipe_source.html#a402476cf32128425a28224c8e91a4978" target="_top" xlink:title=" ">
<polygon fill="white" stroke="black" points="169.5,-249.5 169.5,-279.5 285.5,-279.5 285.5,-249.5 169.5,-249.5"/>
<text text-anchor="start" x="177.5" y="-267.5" font-family="Helvetica,sans-Serif" font-size="10.00">core::pipe::PipeSource</text>
<text text-anchor="middle" x="227.5" y="-256.5" font-family="Helvetica,sans-Serif" font-size="10.00">::send</text>
</a>
</g>
</g>
<!-- Node45&#45;&gt;Node46 -->
<g id="edge46" class="edge">
<title>Node45&#45;&gt;Node46</title>
<path fill="none" stroke="midnightblue" d="M352.29,-264.5C330.5,-264.5 306.56,-264.5 285.58,-264.5"/>
<polygon fill="midnightblue" stroke="midnightblue" points="352.45,-268 362.45,-264.5 352.45,-261 352.45,-268"/>
</g>
<!-- Node48 -->
<g id="node47" class="node">
<title>Node48</title>
<g id="a_node47"><a xlink:href="classcore_1_1socket_1_1stream_1_1_socket_connection_t.html#ad77f979204bac42bc2db7cd6fc718257" target="_top" xlink:title=" ">
<polygon fill="white" stroke="black" points="171,-359 171,-400 284,-400 284,-359 171,-359"/>
<text text-anchor="start" x="179" y="-388" font-family="Helvetica,sans-Serif" font-size="10.00">core::socket::stream</text>
<text text-anchor="start" x="179" y="-377" font-family="Helvetica,sans-Serif" font-size="10.00">::SocketConnectionT::</text>
<text text-anchor="middle" x="227.5" y="-366" font-family="Helvetica,sans-Serif" font-size="10.00">sendToPeer</text>
</a>
</g>
</g>
<!-- Node47&#45;&gt;Node48 -->
<g id="edge48" class="edge">
<title>Node47&#45;&gt;Node48</title>
<path fill="none" stroke="midnightblue" d="M341.87,-376.53C322.5,-377.04 302.11,-377.57 284.04,-378.05"/>
<polygon fill="midnightblue" stroke="midnightblue" points="341.99,-380.03 351.89,-376.27 341.8,-373.03 341.99,-380.03"/>
</g>
<!-- Node51 -->
<g id="node50" class="node">
<title>Node51</title>
<g id="a_node50"><a xlink:href="classcore_1_1socket_1_1stream_1_1_socket_connection_t.html#ae09d47a903785ebd581677a122088886" target="_top" xlink:title=" ">
<polygon fill="white" stroke="black" points="541,-123.5 541,-153.5 678,-153.5 678,-123.5 541,-123.5"/>
<text text-anchor="start" x="549" y="-141.5" font-family="Helvetica,sans-Serif" font-size="10.00">core::socket::stream</text>
<text text-anchor="middle" x="609.5" y="-130.5" font-family="Helvetica,sans-Serif" font-size="10.00">::SocketConnectionT::close</text>
</a>
</g>
</g>
<!-- Node50&#45;&gt;Node51 -->
<g id="edge53" class="edge">
<title>Node50&#45;&gt;Node51</title>
<path fill="none" stroke="midnightblue" d="M706.43,-144.74C696.99,-144.13 687.36,-143.5 678.01,-142.89"/>
<polygon fill="midnightblue" stroke="midnightblue" points="706.36,-148.25 716.57,-145.4 706.82,-141.26 706.36,-148.25"/>
</g>
</g>
</svg>
