<?xml version="1.0" encoding="UTF-8" standalone="no"?>
<!DOCTYPE svg PUBLIC "-//W3C//DTD SVG 1.1//EN"
 "http://www.w3.org/Graphics/SVG/1.1/DTD/svg11.dtd">
<!-- Generated by graphviz version 2.43.0 (0)
 -->
<!-- Title: core::DescriptorEventReceiver::terminate Pages: 1 -->
<svg width="1002pt" height="269pt"
 viewBox="0.00 0.00 1002.00 269.00" xmlns="http://www.w3.org/2000/svg" xmlns:xlink="http://www.w3.org/1999/xlink">
<g id="graph0" class="graph" transform="scale(1 1) rotate(0) translate(4 265)">
<title>core::DescriptorEventReceiver::terminate</title>
<polygon fill="white" stroke="transparent" points="-4,4 -4,-265 998,-265 998,4 -4,4"/>
<!-- Node1 -->
<g id="node1" class="node">
<title>Node1</title>
<g id="a_node1"><a xlink:title=" ">
<polygon fill="#bfbfbf" stroke="black" points="0,-159.5 0,-189.5 164,-189.5 164,-159.5 0,-159.5"/>
<text text-anchor="start" x="8" y="-177.5" font-family="Helvetica,sans-Serif" font-size="10.00">core::DescriptorEventReceiver</text>
<text text-anchor="middle" x="82" y="-166.5" font-family="Helvetica,sans-Serif" font-size="10.00">::terminate</text>
</a>
</g>
</g>
<!-- Node2 -->
<g id="node2" class="node">
<title>Node2</title>
<g id="a_node2"><a xlink:href="classcore_1_1_descriptor_event_receiver.html#a4ab422ce6622a29cee38a0108ee6ccc1" target="_top" xlink:title=" ">
<polygon fill="white" stroke="black" points="200,-181.5 200,-211.5 364,-211.5 364,-181.5 200,-181.5"/>
<text text-anchor="start" x="208" y="-199.5" font-family="Helvetica,sans-Serif" font-size="10.00">core::DescriptorEventReceiver</text>
<text text-anchor="middle" x="282" y="-188.5" font-family="Helvetica,sans-Serif" font-size="10.00">::disable</text>
</a>
</g>
</g>
<!-- Node1&#45;&gt;Node2 -->
<g id="edge1" class="edge">
<title>Node1&#45;&gt;Node2</title>
<path fill="none" stroke="midnightblue" d="M164.11,-183.51C172.55,-184.45 181.17,-185.41 189.72,-186.36"/>
<polygon fill="midnightblue" stroke="midnightblue" points="189.37,-189.84 199.7,-187.47 190.15,-182.88 189.37,-189.84"/>
</g>
<!-- Node8 -->
<g id="node8" class="node">
<title>Node8</title>
<g id="a_node8"><a xlink:href="classcore_1_1_descriptor_event_receiver.html#ac5dc7e86ddad09f5bd3eeb0c74f2e7f9" target="_top" xlink:title=" ">
<polygon fill="white" stroke="black" points="615,-137.5 615,-167.5 779,-167.5 779,-137.5 615,-137.5"/>
<text text-anchor="start" x="623" y="-155.5" font-family="Helvetica,sans-Serif" font-size="10.00">core::DescriptorEventReceiver</text>
<text text-anchor="middle" x="697" y="-144.5" font-family="Helvetica,sans-Serif" font-size="10.00">::isEnabled</text>
</a>
</g>
</g>
<!-- Node1&#45;&gt;Node8 -->
<g id="edge15" class="edge">
<title>Node1&#45;&gt;Node8</title>
<path fill="none" stroke="midnightblue" d="M164.09,-171.59C278.07,-167.5 485.06,-160.07 604.45,-155.79"/>
<polygon fill="midnightblue" stroke="midnightblue" points="604.79,-159.28 614.66,-155.42 604.54,-152.28 604.79,-159.28"/>
</g>
<!-- Node3 -->
<g id="node3" class="node">
<title>Node3</title>
<g id="a_node3"><a xlink:href="classcore_1_1_descriptor_event_dispatcher.html#aef8dc8828e4952028ca2099f1649edad" target="_top" xlink:title=" ">
<polygon fill="white" stroke="black" points="400,-88.5 400,-118.5 574,-118.5 574,-88.5 400,-88.5"/>
<text text-anchor="start" x="408" y="-106.5" font-family="Helvetica,sans-Serif" font-size="10.00">core::DescriptorEventDispatcher</text>
<text text-anchor="middle" x="487" y="-95.5" font-family="Helvetica,sans-Serif" font-size="10.00">::disable</text>
</a>
</g>
</g>
<!-- Node2&#45;&gt;Node3 -->
<g id="edge2" class="edge">
<title>Node2&#45;&gt;Node3</title>
<path fill="none" stroke="midnightblue" d="M316.07,-181.35C350.87,-165.41 405.76,-140.26 443.69,-122.88"/>
<polygon fill="midnightblue" stroke="midnightblue" points="445.31,-125.99 452.95,-118.64 442.4,-119.63 445.31,-125.99"/>
</g>
<!-- Node9 -->
<g id="node9" class="node">
<title>Node9</title>
<g id="a_node9"><a xlink:href="classcore_1_1_descriptor_event_receiver.html#ac80fc901f941c059a6ebdb28147b25a2" target="_top" xlink:title=" ">
<polygon fill="white" stroke="black" points="825,-230.5 825,-260.5 989,-260.5 989,-230.5 825,-230.5"/>
<text text-anchor="start" x="833" y="-248.5" font-family="Helvetica,sans-Serif" font-size="10.00">core::DescriptorEventReceiver</text>
<text text-anchor="middle" x="907" y="-237.5" font-family="Helvetica,sans-Serif" font-size="10.00">::isSuspended</text>
</a>
</g>
</g>
<!-- Node2&#45;&gt;Node9 -->
<g id="edge8" class="edge">
<title>Node2&#45;&gt;Node9</title>
<path fill="none" stroke="midnightblue" d="M347.38,-211.55C364.4,-215.02 382.82,-218.33 400,-220.5 544.05,-238.72 712.73,-243.84 814.37,-245.18"/>
<polygon fill="midnightblue" stroke="midnightblue" points="814.56,-248.68 824.6,-245.3 814.65,-241.68 814.56,-248.68"/>
</g>
<!-- Node10 -->
<g id="node10" class="node">
<title>Node10</title>
<g id="a_node10"><a xlink:href="classcore_1_1_descriptor_event_receiver.html#aab5e466759c83194c5bc4b41f1a33103" target="_top" xlink:title=" ">
<polygon fill="white" stroke="black" points="405,-181.5 405,-211.5 569,-211.5 569,-181.5 405,-181.5"/>
<text text-anchor="start" x="413" y="-199.5" font-family="Helvetica,sans-Serif" font-size="10.00">core::DescriptorEventReceiver</text>
<text text-anchor="middle" x="487" y="-188.5" font-family="Helvetica,sans-Serif" font-size="10.00">::suspend</text>
</a>
</g>
</g>
<!-- Node2&#45;&gt;Node10 -->
<g id="edge9" class="edge">
<title>Node2&#45;&gt;Node10</title>
<path fill="none" stroke="midnightblue" d="M364.11,-196.5C374.13,-196.5 384.43,-196.5 394.59,-196.5"/>
<polygon fill="midnightblue" stroke="midnightblue" points="394.69,-200 404.69,-196.5 394.69,-193 394.69,-200"/>
</g>
<!-- Node4 -->
<g id="node4" class="node">
<title>Node4</title>
<g id="a_node4"><a xlink:href="classcore_1_1_descriptor_event_receiver.html#a4ae11ef40db1dc53806247d7e8d4000e" target="_top" xlink:title=" ">
<polygon fill="white" stroke="black" points="615,-0.5 615,-30.5 779,-30.5 779,-0.5 615,-0.5"/>
<text text-anchor="start" x="623" y="-18.5" font-family="Helvetica,sans-Serif" font-size="10.00">core::DescriptorEventReceiver</text>
<text text-anchor="middle" x="697" y="-7.5" font-family="Helvetica,sans-Serif" font-size="10.00">::disabled</text>
</a>
</g>
</g>
<!-- Node3&#45;&gt;Node4 -->
<g id="edge3" class="edge">
<title>Node3&#45;&gt;Node4</title>
<path fill="none" stroke="midnightblue" d="M517.68,-88.28C542.13,-76.01 577.89,-58.69 610,-45.5 619.64,-41.54 630.02,-37.63 640.12,-34.01"/>
<polygon fill="midnightblue" stroke="midnightblue" points="641.42,-37.26 649.68,-30.63 639.09,-30.66 641.42,-37.26"/>
</g>
<!-- Node6 -->
<g id="node6" class="node">
<title>Node6</title>
<g id="a_node6"><a xlink:href="classcore_1_1_observer.html#a942a6bb4857e6ec986d0a366b2aaea26" target="_top" xlink:title=" ">
<polygon fill="white" stroke="black" points="612.5,-88.5 612.5,-118.5 781.5,-118.5 781.5,-88.5 612.5,-88.5"/>
<text text-anchor="start" x="620.5" y="-106.5" font-family="Helvetica,sans-Serif" font-size="10.00">core::Observer::getObservation</text>
<text text-anchor="middle" x="697" y="-95.5" font-family="Helvetica,sans-Serif" font-size="10.00">Counter</text>
</a>
</g>
</g>
<!-- Node3&#45;&gt;Node6 -->
<g id="edge5" class="edge">
<title>Node3&#45;&gt;Node6</title>
<path fill="none" stroke="midnightblue" d="M574.1,-103.5C583.38,-103.5 592.85,-103.5 602.21,-103.5"/>
<polygon fill="midnightblue" stroke="midnightblue" points="602.3,-107 612.3,-103.5 602.3,-100 602.3,-107"/>
</g>
<!-- Node7 -->
<g id="node7" class="node">
<title>Node7</title>
<g id="a_node7"><a xlink:href="classcore_1_1_descriptor_event_receiver.html#a445606dc995a71972d83e7683ada144b" target="_top" xlink:title=" ">
<polygon fill="white" stroke="black" points="825,-88.5 825,-118.5 989,-118.5 989,-88.5 825,-88.5"/>
<text text-anchor="start" x="833" y="-106.5" font-family="Helvetica,sans-Serif" font-size="10.00">core::DescriptorEventReceiver</text>
<text text-anchor="middle" x="907" y="-95.5" font-family="Helvetica,sans-Serif" font-size="10.00">::getRegisteredFd</text>
</a>
</g>
</g>
<!-- Node3&#45;&gt;Node7 -->
<g id="edge6" class="edge">
<title>Node3&#45;&gt;Node7</title>
<path fill="none" stroke="midnightblue" d="M549.07,-88.47C568.42,-84.38 590,-80.53 610,-78.5 686.94,-70.7 707.06,-70.7 784,-78.5 800.57,-80.18 818.21,-83.11 834.78,-86.39"/>
<polygon fill="midnightblue" stroke="midnightblue" points="834.44,-89.89 844.93,-88.47 835.84,-83.03 834.44,-89.89"/>
</g>
<!-- Node3&#45;&gt;Node8 -->
<g id="edge7" class="edge">
<title>Node3&#45;&gt;Node8</title>
<path fill="none" stroke="midnightblue" d="M551.82,-118.53C574.18,-123.8 599.47,-129.76 622.56,-135.2"/>
<polygon fill="midnightblue" stroke="midnightblue" points="621.76,-138.61 632.3,-137.49 623.37,-131.79 621.76,-138.61"/>
</g>
<!-- Node5 -->
<g id="node5" class="node">
<title>Node5</title>
<g id="a_node5"><a xlink:href="classcore_1_1_observer.html#a00846551b99f8dbde144dd8b7a0a2aef" target="_top" xlink:title=" ">
<polygon fill="white" stroke="black" points="831,-6 831,-25 983,-25 983,-6 831,-6"/>
<text text-anchor="middle" x="907" y="-13" font-family="Helvetica,sans-Serif" font-size="10.00">core::Observer::unObserved</text>
</a>
</g>
</g>
<!-- Node4&#45;&gt;Node5 -->
<g id="edge4" class="edge">
<title>Node4&#45;&gt;Node5</title>
<path fill="none" stroke="midnightblue" d="M779.01,-15.5C792.78,-15.5 807.12,-15.5 820.98,-15.5"/>
<polygon fill="midnightblue" stroke="midnightblue" points="820.99,-19 830.99,-15.5 820.99,-12 820.99,-19"/>
</g>
<!-- Node10&#45;&gt;Node8 -->
<g id="edge10" class="edge">
<title>Node10&#45;&gt;Node8</title>
<path fill="none" stroke="midnightblue" d="M559,-181.48C577.06,-177.66 596.59,-173.53 615.1,-169.61"/>
<polygon fill="midnightblue" stroke="midnightblue" points="615.91,-173.02 624.97,-167.53 614.46,-166.17 615.91,-173.02"/>
</g>
<!-- Node11 -->
<g id="node11" class="node">
<title>Node11</title>
<g id="a_node11"><a xlink:href="classcore_1_1_descriptor_event_dispatcher.html#ab47ad7f67f7559dfe53a3a1bb0cfc0e4" target="_top" xlink:title=" ">
<polygon fill="white" stroke="black" points="610,-186.5 610,-216.5 784,-216.5 784,-186.5 610,-186.5"/>
<text text-anchor="start" x="618" y="-204.5" font-family="Helvetica,sans-Serif" font-size="10.00">core::DescriptorEventDispatcher</text>
<text text-anchor="middle" x="697" y="-193.5" font-family="Helvetica,sans-Serif" font-size="10.00">::suspend</text>
</a>
</g>
</g>
<!-- Node10&#45;&gt;Node11 -->
<g id="edge11" class="edge">
<title>Node10&#45;&gt;Node11</title>
<path fill="none" stroke="midnightblue" d="M569.01,-198.45C579.02,-198.69 589.33,-198.94 599.54,-199.18"/>
<polygon fill="midnightblue" stroke="midnightblue" points="599.63,-202.68 609.71,-199.43 599.79,-195.69 599.63,-202.68"/>
</g>
<!-- Node11&#45;&gt;Node7 -->
<g id="edge12" class="edge">
<title>Node11&#45;&gt;Node7</title>
<path fill="none" stroke="midnightblue" d="M757.46,-186.38C766.49,-183.47 775.59,-180.17 784,-176.5 817.05,-162.09 852.1,-140.36 876.11,-124.36"/>
<polygon fill="midnightblue" stroke="midnightblue" points="878.1,-127.23 884.43,-118.74 874.19,-121.43 878.1,-127.23"/>
</g>
<!-- Node11&#45;&gt;Node9 -->
<g id="edge13" class="edge">
<title>Node11&#45;&gt;Node9</title>
<path fill="none" stroke="midnightblue" d="M769,-216.52C787.06,-220.34 806.59,-224.47 825.1,-228.39"/>
<polygon fill="midnightblue" stroke="midnightblue" points="824.46,-231.83 834.97,-230.47 825.91,-224.98 824.46,-231.83"/>
</g>
<!-- Node12 -->
<g id="node12" class="node">
<title>Node12</title>
<g id="a_node12"><a xlink:href="classcore_1_1_descriptor_event_dispatcher.html#aa7e86babf2d20b18cf738d936298cc13" target="_top" xlink:title=" ">
<polygon fill="white" stroke="black" points="820,-181.5 820,-211.5 994,-211.5 994,-181.5 820,-181.5"/>
<text text-anchor="start" x="828" y="-199.5" font-family="Helvetica,sans-Serif" font-size="10.00">core::DescriptorEventDispatcher</text>
<text text-anchor="middle" x="907" y="-188.5" font-family="Helvetica,sans-Serif" font-size="10.00">::modOff</text>
</a>
</g>
</g>
<!-- Node11&#45;&gt;Node12 -->
<g id="edge14" class="edge">
<title>Node11&#45;&gt;Node12</title>
<path fill="none" stroke="midnightblue" d="M784.1,-199.43C792.62,-199.23 801.3,-199.02 809.91,-198.81"/>
<polygon fill="midnightblue" stroke="midnightblue" points="810.05,-202.31 819.96,-198.57 809.88,-195.31 810.05,-202.31"/>
</g>
</g>
</svg>
