<?xml version="1.0" encoding="UTF-8" standalone="no"?>
<!DOCTYPE svg PUBLIC "-//W3C//DTD SVG 1.1//EN"
 "http://www.w3.org/Graphics/SVG/1.1/DTD/svg11.dtd">
<!-- Generated by graphviz version 2.43.0 (0)
 -->
<!-- Title: core::eventreceiver::InitConnectEventReceiver Pages: 1 -->
<svg width="270pt" height="292pt"
 viewBox="0.00 0.00 270.00 292.00" xmlns="http://www.w3.org/2000/svg" xmlns:xlink="http://www.w3.org/1999/xlink">
<g id="graph0" class="graph" transform="scale(1 1) rotate(0) translate(4 288)">
<title>core::eventreceiver::InitConnectEventReceiver</title>
<polygon fill="white" stroke="transparent" points="-4,4 -4,-288 266,-288 266,4 -4,4"/>
<!-- Node1 -->
<g id="node1" class="node">
<title>Node1</title>
<g id="a_node1"><a xlink:title=" ">
<polygon fill="#bfbfbf" stroke="black" points="0,-17 0,-107 161,-107 161,-17 0,-17"/>
<text text-anchor="start" x="8" y="-95" font-family="Helvetica,sans-Serif" font-size="10.00">core::eventreceiver</text>
<text text-anchor="middle" x="80.5" y="-84" font-family="Helvetica,sans-Serif" font-size="10.00">::InitConnectEventReceiver</text>
<polyline fill="none" stroke="black" points="0,-77 161,-77 "/>
<text text-anchor="middle" x="80.5" y="-65" font-family="Helvetica,sans-Serif" font-size="10.00"> </text>
<polyline fill="none" stroke="black" points="0,-58 161,-58 "/>
<text text-anchor="start" x="8" y="-46" font-family="Helvetica,sans-Serif" font-size="10.00"># InitConnectEventReceiver()</text>
<text text-anchor="start" x="8" y="-35" font-family="Helvetica,sans-Serif" font-size="10.00">&#45; event()</text>
<text text-anchor="start" x="8" y="-24" font-family="Helvetica,sans-Serif" font-size="10.00">&#45; initConnectEvent()</text>
</a>
</g>
</g>
<!-- Node2 -->
<g id="node2" class="node">
<title>Node2</title>
<g id="a_node2"><a xlink:href="classcore_1_1_event_receiver.html" target="_top" xlink:title=" ">
<polygon fill="white" stroke="black" points="62.5,-171.5 62.5,-283.5 176.5,-283.5 176.5,-171.5 62.5,-171.5"/>
<text text-anchor="middle" x="119.5" y="-271.5" font-family="Helvetica,sans-Serif" font-size="10.00">core::EventReceiver</text>
<polyline fill="none" stroke="black" points="62.5,-264.5 176.5,-264.5 "/>
<text text-anchor="middle" x="119.5" y="-252.5" font-family="Helvetica,sans-Serif" font-size="10.00"> </text>
<polyline fill="none" stroke="black" points="62.5,-245.5 176.5,-245.5 "/>
<text text-anchor="start" x="70.5" y="-233.5" font-family="Helvetica,sans-Serif" font-size="10.00">+ EventReceiver()</text>
<text text-anchor="start" x="70.5" y="-222.5" font-family="Helvetica,sans-Serif" font-size="10.00">+ ~EventReceiver()</text>
<text text-anchor="start" x="70.5" y="-211.5" font-family="Helvetica,sans-Serif" font-size="10.00">+ publish()</text>
<text text-anchor="start" x="70.5" y="-200.5" font-family="Helvetica,sans-Serif" font-size="10.00">+ unPublish()</text>
<text text-anchor="start" x="70.5" y="-189.5" font-family="Helvetica,sans-Serif" font-size="10.00">+ event()</text>
<text text-anchor="start" x="70.5" y="-178.5" font-family="Helvetica,sans-Serif" font-size="10.00">+ getName()</text>
</a>
</g>
</g>
<!-- Node2&#45;&gt;Node1 -->
<g id="edge1" class="edge">
<title>Node2&#45;&gt;Node1</title>
<path fill="none" stroke="midnightblue" d="M99.65,-161.5C98.9,-158.63 98.18,-155.79 97.5,-153 93.89,-138.17 90.6,-121.8 87.89,-107.14"/>
<polygon fill="none" stroke="midnightblue" points="96.31,-162.55 102.3,-171.28 103.07,-160.72 96.31,-162.55"/>
</g>
<!-- Node3 -->
<g id="node3" class="node">
<title>Node3</title>
<g id="a_node3"><a xlink:href="classcore_1_1_event.html" target="_top" xlink:title=" ">
<polygon fill="white" stroke="black" points="179,-0.5 179,-123.5 262,-123.5 262,-0.5 179,-0.5"/>
<text text-anchor="middle" x="220.5" y="-111.5" font-family="Helvetica,sans-Serif" font-size="10.00">core::Event</text>
<polyline fill="none" stroke="black" points="179,-104.5 262,-104.5 "/>
<text text-anchor="start" x="187" y="-92.5" font-family="Helvetica,sans-Serif" font-size="10.00">&#45; published</text>
<text text-anchor="start" x="187" y="-81.5" font-family="Helvetica,sans-Serif" font-size="10.00">&#45; name</text>
<polyline fill="none" stroke="black" points="179,-74.5 262,-74.5 "/>
<text text-anchor="start" x="187" y="-62.5" font-family="Helvetica,sans-Serif" font-size="10.00">+ Event()</text>
<text text-anchor="start" x="187" y="-51.5" font-family="Helvetica,sans-Serif" font-size="10.00">+ ~Event()</text>
<text text-anchor="start" x="187" y="-40.5" font-family="Helvetica,sans-Serif" font-size="10.00">+ publish()</text>
<text text-anchor="start" x="187" y="-29.5" font-family="Helvetica,sans-Serif" font-size="10.00">+ unPublish()</text>
<text text-anchor="start" x="187" y="-18.5" font-family="Helvetica,sans-Serif" font-size="10.00">+ getName()</text>
<text text-anchor="start" x="187" y="-7.5" font-family="Helvetica,sans-Serif" font-size="10.00">&#45; dispatch()</text>
</a>
</g>
</g>
<!-- Node2&#45;&gt;Node3 -->
<g id="edge3" class="edge">
<title>Node2&#45;&gt;Node3</title>
<path fill="none" stroke="#404040" d="M107.52,-171.14C107.92,-160.72 110.41,-150.46 116.5,-142 129.44,-124.04 145.13,-134.71 168.31,-123.78"/>
<polygon fill="none" stroke="#404040" points="168.39,-123.73 171.52,-117.24 178.72,-117.63 175.6,-124.12 168.39,-123.73"/>
<text text-anchor="middle" x="155.5" y="-145" font-family="Helvetica,sans-Serif" font-size="10.00"> &#45;eventReceiver</text>
</g>
<!-- Node3&#45;&gt;Node2 -->
<g id="edge2" class="edge">
<title>Node3&#45;&gt;Node2</title>
<path fill="none" stroke="#404040" d="M210.73,-123.95C207.69,-134.06 203.71,-144.12 198.5,-153 194.64,-159.57 190.02,-165.92 184.96,-171.93"/>
<polygon fill="none" stroke="#404040" points="184.74,-172.18 183.7,-179.32 176.72,-181.1 177.75,-173.97 184.74,-172.18"/>
<text text-anchor="middle" x="225" y="-145" font-family="Helvetica,sans-Serif" font-size="10.00"> #_event</text>
</g>
</g>
</svg>
