<?xml version="1.0" encoding="UTF-8" standalone="no"?>
<!DOCTYPE svg PUBLIC "-//W3C//DTD SVG 1.1//EN"
 "http://www.w3.org/Graphics/SVG/1.1/DTD/svg11.dtd">
<!-- Generated by graphviz version 2.43.0 (0)
 -->
<!-- Title: web::http::tls::in::Server&lt; Request, Response &gt; Pages: 1 -->
<svg width="194pt" height="373pt"
 viewBox="0.00 0.00 194.00 373.00" xmlns="http://www.w3.org/2000/svg" xmlns:xlink="http://www.w3.org/1999/xlink">
<g id="graph0" class="graph" transform="scale(1 1) rotate(0) translate(4 369)">
<title>web::http::tls::in::Server&lt; Request, Response &gt;</title>
<polygon fill="white" stroke="transparent" points="-4,4 -4,-369 190,-369 190,4 -4,4"/>
<!-- Node1 -->
<g id="node1" class="node">
<title>Node1</title>
<g id="a_node1"><a xlink:title=" ">
<polygon fill="#bfbfbf" stroke="black" points="8,-0.5 8,-30.5 178,-30.5 178,-0.5 8,-0.5"/>
<text text-anchor="start" x="16" y="-18.5" font-family="Helvetica,sans-Serif" font-size="10.00">web::http::tls::in</text>
<text text-anchor="middle" x="93" y="-7.5" font-family="Helvetica,sans-Serif" font-size="10.00">::Server&lt; Request, Response &gt;</text>
</a>
</g>
</g>
<!-- Node2 -->
<g id="node2" class="node">
<title>Node2</title>
<g id="a_node2"><a xlink:href="classweb_1_1http_1_1server_1_1_server.html" target="_top" xlink:title=" ">
<polygon fill="white" stroke="black" points="16.5,-67.5 16.5,-119.5 169.5,-119.5 169.5,-67.5 16.5,-67.5"/>
<text text-anchor="start" x="24.5" y="-107.5" font-family="Helvetica,sans-Serif" font-size="10.00">web::http::server::</text>
<text text-anchor="start" x="24.5" y="-96.5" font-family="Helvetica,sans-Serif" font-size="10.00">Server&lt; net::in::stream</text>
<text text-anchor="start" x="24.5" y="-85.5" font-family="Helvetica,sans-Serif" font-size="10.00">::tls::SocketServer, Request,</text>
<text text-anchor="middle" x="93" y="-74.5" font-family="Helvetica,sans-Serif" font-size="10.00"> Response &gt;</text>
</a>
</g>
</g>
<!-- Node2&#45;&gt;Node1 -->
<g id="edge1" class="edge">
<title>Node2&#45;&gt;Node1</title>
<path fill="none" stroke="midnightblue" d="M93,-56.96C93,-47.72 93,-38.28 93,-30.85"/>
<polygon fill="none" stroke="midnightblue" points="89.5,-57.19 93,-67.19 96.5,-57.19 89.5,-57.19"/>
</g>
<!-- Node3 -->
<g id="node3" class="node">
<title>Node3</title>
<g id="a_node3"><a xlink:href="classcore_1_1socket_1_1stream_1_1tls_1_1_socket_server.html" target="_top" xlink:title=" ">
<polygon fill="white" stroke="black" points="2,-156.5 2,-208.5 184,-208.5 184,-156.5 2,-156.5"/>
<text text-anchor="start" x="10" y="-196.5" font-family="Helvetica,sans-Serif" font-size="10.00">net::in::stream::tls</text>
<text text-anchor="start" x="10" y="-185.5" font-family="Helvetica,sans-Serif" font-size="10.00">::SocketServer &lt; web</text>
<text text-anchor="start" x="10" y="-174.5" font-family="Helvetica,sans-Serif" font-size="10.00">::http::server::SocketContext</text>
<text text-anchor="middle" x="93" y="-163.5" font-family="Helvetica,sans-Serif" font-size="10.00">Factory&lt; Request , Response &gt; &gt;</text>
</a>
</g>
</g>
<!-- Node3&#45;&gt;Node2 -->
<g id="edge2" class="edge">
<title>Node3&#45;&gt;Node2</title>
<path fill="none" stroke="midnightblue" d="M93,-146.19C93,-137.28 93,-127.9 93,-119.61"/>
<polygon fill="none" stroke="midnightblue" points="89.5,-146.34 93,-156.34 96.5,-146.34 89.5,-146.34"/>
</g>
<!-- Node4 -->
<g id="node4" class="node">
<title>Node4</title>
<g id="a_node4"><a xlink:href="classcore_1_1socket_1_1stream_1_1_socket_server.html" target="_top" xlink:title=" ">
<polygon fill="white" stroke="black" points="0,-245.5 0,-308.5 186,-308.5 186,-245.5 0,-245.5"/>
<text text-anchor="start" x="8" y="-296.5" font-family="Helvetica,sans-Serif" font-size="10.00">core::socket::stream</text>
<text text-anchor="start" x="8" y="-285.5" font-family="Helvetica,sans-Serif" font-size="10.00">::SocketServer&lt; SocketServer</text>
<text text-anchor="start" x="8" y="-274.5" font-family="Helvetica,sans-Serif" font-size="10.00">T, core::socket::stream::</text>
<text text-anchor="start" x="8" y="-263.5" font-family="Helvetica,sans-Serif" font-size="10.00">tls::SocketAcceptor, SocketContext</text>
<text text-anchor="middle" x="93" y="-252.5" font-family="Helvetica,sans-Serif" font-size="10.00">FactoryT &gt;</text>
</a>
</g>
</g>
<!-- Node4&#45;&gt;Node3 -->
<g id="edge3" class="edge">
<title>Node4&#45;&gt;Node3</title>
<path fill="none" stroke="midnightblue" d="M93,-235.42C93,-226.36 93,-217 93,-208.77"/>
<polygon fill="none" stroke="midnightblue" points="89.5,-235.46 93,-245.46 96.5,-235.46 89.5,-235.46"/>
</g>
<!-- Node5 -->
<g id="node5" class="node">
<title>Node5</title>
<g id="a_node5"><a xlink:title=" ">
<polygon fill="white" stroke="#bfbfbf" points="50,-345.5 50,-364.5 136,-364.5 136,-345.5 50,-345.5"/>
<text text-anchor="middle" x="93" y="-352.5" font-family="Helvetica,sans-Serif" font-size="10.00">SocketServerT</text>
</a>
</g>
</g>
<!-- Node5&#45;&gt;Node4 -->
<g id="edge4" class="edge">
<title>Node5&#45;&gt;Node4</title>
<path fill="none" stroke="midnightblue" d="M93,-335.19C93,-327.16 93,-317.59 93,-308.59"/>
<polygon fill="none" stroke="midnightblue" points="89.5,-335.28 93,-345.28 96.5,-335.28 89.5,-335.28"/>
</g>
</g>
</svg>
