<?xml version="1.0" encoding="UTF-8" standalone="no"?>
<!DOCTYPE svg PUBLIC "-//W3C//DTD SVG 1.1//EN"
 "http://www.w3.org/Graphics/SVG/1.1/DTD/svg11.dtd">
<!-- Generated by graphviz version 2.43.0 (0)
 -->
<!-- Title: web::http::legacy::in6::Client&lt; Request, Response &gt; Pages: 1 -->
<svg width="493pt" height="1155pt"
 viewBox="0.00 0.00 493.00 1155.00" xmlns="http://www.w3.org/2000/svg" xmlns:xlink="http://www.w3.org/1999/xlink">
<g id="graph0" class="graph" transform="scale(1 1) rotate(0) translate(4 1151)">
<title>web::http::legacy::in6::Client&lt; Request, Response &gt;</title>
<polygon fill="white" stroke="transparent" points="-4,4 -4,-1151 489,-1151 489,4 -4,4"/>
<!-- Node1 -->
<g id="node1" class="node">
<title>Node1</title>
<g id="a_node1"><a xlink:title=" ">
<polygon fill="#bfbfbf" stroke="black" points="211,-0.5 211,-79.5 331,-79.5 331,-0.5 211,-0.5"/>
<text text-anchor="start" x="219" y="-67.5" font-family="Helvetica,sans-Serif" font-size="10.00">web::http::legacy::</text>
<text text-anchor="start" x="219" y="-56.5" font-family="Helvetica,sans-Serif" font-size="10.00">in6::Client&lt; Request,</text>
<text text-anchor="middle" x="271" y="-45.5" font-family="Helvetica,sans-Serif" font-size="10.00"> Response &gt;</text>
<polyline fill="none" stroke="black" points="211,-38.5 331,-38.5 "/>
<text text-anchor="middle" x="271" y="-26.5" font-family="Helvetica,sans-Serif" font-size="10.00"> </text>
<polyline fill="none" stroke="black" points="211,-19.5 331,-19.5 "/>
<text text-anchor="middle" x="271" y="-7.5" font-family="Helvetica,sans-Serif" font-size="10.00"> </text>
</a>
</g>
</g>
<!-- Node2 -->
<g id="node2" class="node">
<title>Node2</title>
<g id="a_node2"><a xlink:href="classweb_1_1http_1_1client_1_1_client.html" target="_top" xlink:title=" ">
<polygon fill="white" stroke="black" points="189.5,-117.5 189.5,-218.5 352.5,-218.5 352.5,-117.5 189.5,-117.5"/>
<text text-anchor="start" x="197.5" y="-206.5" font-family="Helvetica,sans-Serif" font-size="10.00">web::http::client::</text>
<text text-anchor="start" x="197.5" y="-195.5" font-family="Helvetica,sans-Serif" font-size="10.00">Client&lt; net::in6::stream</text>
<text text-anchor="start" x="197.5" y="-184.5" font-family="Helvetica,sans-Serif" font-size="10.00">::legacy::SocketClient,</text>
<text text-anchor="start" x="197.5" y="-173.5" font-family="Helvetica,sans-Serif" font-size="10.00"> web::http::client::Request,</text>
<text text-anchor="middle" x="271" y="-162.5" font-family="Helvetica,sans-Serif" font-size="10.00"> web::http::client::Response &gt;</text>
<polyline fill="none" stroke="black" points="189.5,-155.5 352.5,-155.5 "/>
<text text-anchor="middle" x="271" y="-143.5" font-family="Helvetica,sans-Serif" font-size="10.00"> </text>
<polyline fill="none" stroke="black" points="189.5,-136.5 352.5,-136.5 "/>
<text text-anchor="start" x="197.5" y="-124.5" font-family="Helvetica,sans-Serif" font-size="10.00">+ Client()</text>
</a>
</g>
</g>
<!-- Node2&#45;&gt;Node1 -->
<g id="edge1" class="edge">
<title>Node2&#45;&gt;Node1</title>
<path fill="none" stroke="midnightblue" d="M271,-107.11C271,-97.74 271,-88.28 271,-79.56"/>
<polygon fill="none" stroke="midnightblue" points="267.5,-107.2 271,-117.2 274.5,-107.2 267.5,-107.2"/>
</g>
<!-- Node3 -->
<g id="node3" class="node">
<title>Node3</title>
<g id="a_node3"><a xlink:href="classcore_1_1socket_1_1stream_1_1legacy_1_1_socket_client.html" target="_top" xlink:title=" ">
<polygon fill="white" stroke="black" points="94,-299.5 94,-400.5 274,-400.5 274,-299.5 94,-299.5"/>
<text text-anchor="start" x="102" y="-388.5" font-family="Helvetica,sans-Serif" font-size="10.00">net::in6::stream::legacy</text>
<text text-anchor="start" x="102" y="-377.5" font-family="Helvetica,sans-Serif" font-size="10.00">::SocketClient &lt; web::http</text>
<text text-anchor="start" x="102" y="-366.5" font-family="Helvetica,sans-Serif" font-size="10.00">::client::SocketContextFactory</text>
<text text-anchor="start" x="102" y="-355.5" font-family="Helvetica,sans-Serif" font-size="10.00">&lt; web::http::client::Request</text>
<text text-anchor="middle" x="184" y="-344.5" font-family="Helvetica,sans-Serif" font-size="10.00"> , web::http::client::Response &gt; &gt;</text>
<polyline fill="none" stroke="black" points="94,-337.5 274,-337.5 "/>
<text text-anchor="middle" x="184" y="-325.5" font-family="Helvetica,sans-Serif" font-size="10.00"> </text>
<polyline fill="none" stroke="black" points="94,-318.5 274,-318.5 "/>
<text text-anchor="middle" x="184" y="-306.5" font-family="Helvetica,sans-Serif" font-size="10.00"> </text>
</a>
</g>
</g>
<!-- Node3&#45;&gt;Node2 -->
<g id="edge2" class="edge">
<title>Node3&#45;&gt;Node2</title>
<path fill="none" stroke="midnightblue" d="M212.38,-290.28C223.59,-267.08 236.34,-240.71 247.07,-218.5"/>
<polygon fill="none" stroke="midnightblue" points="209.2,-288.81 208,-299.34 215.51,-291.86 209.2,-288.81"/>
</g>
<!-- Node4 -->
<g id="node4" class="node">
<title>Node4</title>
<g id="a_node4"><a xlink:href="classcore_1_1socket_1_1stream_1_1_socket_client.html" target="_top" xlink:title=" ">
<polygon fill="white" stroke="black" points="0,-438.5 0,-704.5 274,-704.5 274,-438.5 0,-438.5"/>
<text text-anchor="start" x="8" y="-692.5" font-family="Helvetica,sans-Serif" font-size="10.00">core::socket::stream</text>
<text text-anchor="start" x="8" y="-681.5" font-family="Helvetica,sans-Serif" font-size="10.00">::SocketClient&lt; ClientSocket</text>
<text text-anchor="start" x="8" y="-670.5" font-family="Helvetica,sans-Serif" font-size="10.00">T, core::socket::stream::</text>
<text text-anchor="start" x="8" y="-659.5" font-family="Helvetica,sans-Serif" font-size="10.00">legacy::SocketConnector&lt; ClientConfig</text>
<text text-anchor="middle" x="137" y="-648.5" font-family="Helvetica,sans-Serif" font-size="10.00">T, ClientSocketT::Socket &gt;, SocketContextFactoryT &gt;</text>
<polyline fill="none" stroke="black" points="0,-641.5 274,-641.5 "/>
<text text-anchor="start" x="8" y="-629.5" font-family="Helvetica,sans-Serif" font-size="10.00"># clientConfig</text>
<text text-anchor="start" x="8" y="-618.5" font-family="Helvetica,sans-Serif" font-size="10.00"># socketContextFactory</text>
<text text-anchor="start" x="8" y="-607.5" font-family="Helvetica,sans-Serif" font-size="10.00"># _onConnect</text>
<text text-anchor="start" x="8" y="-596.5" font-family="Helvetica,sans-Serif" font-size="10.00"># _onConnected</text>
<text text-anchor="start" x="8" y="-585.5" font-family="Helvetica,sans-Serif" font-size="10.00"># _onDisconnect</text>
<text text-anchor="start" x="8" y="-574.5" font-family="Helvetica,sans-Serif" font-size="10.00"># options</text>
<polyline fill="none" stroke="black" points="0,-567.5 274,-567.5 "/>
<text text-anchor="start" x="8" y="-555.5" font-family="Helvetica,sans-Serif" font-size="10.00">+ SocketClient()</text>
<text text-anchor="start" x="8" y="-544.5" font-family="Helvetica,sans-Serif" font-size="10.00">+ SocketClient()</text>
<text text-anchor="start" x="8" y="-533.5" font-family="Helvetica,sans-Serif" font-size="10.00">+ ~SocketClient()</text>
<text text-anchor="start" x="8" y="-522.5" font-family="Helvetica,sans-Serif" font-size="10.00">+ connect()</text>
<text text-anchor="start" x="8" y="-511.5" font-family="Helvetica,sans-Serif" font-size="10.00">+ connect()</text>
<text text-anchor="start" x="8" y="-500.5" font-family="Helvetica,sans-Serif" font-size="10.00">+ connect()</text>
<text text-anchor="start" x="8" y="-489.5" font-family="Helvetica,sans-Serif" font-size="10.00">+ onConnect()</text>
<text text-anchor="start" x="8" y="-478.5" font-family="Helvetica,sans-Serif" font-size="10.00">+ onConnected()</text>
<text text-anchor="start" x="8" y="-467.5" font-family="Helvetica,sans-Serif" font-size="10.00">+ onDisconnect()</text>
<text text-anchor="start" x="8" y="-456.5" font-family="Helvetica,sans-Serif" font-size="10.00">+ getSocketContextFactory()</text>
<text text-anchor="start" x="8" y="-445.5" font-family="Helvetica,sans-Serif" font-size="10.00">&#45; SocketClient()</text>
</a>
</g>
</g>
<!-- Node4&#45;&gt;Node3 -->
<g id="edge3" class="edge">
<title>Node4&#45;&gt;Node3</title>
<path fill="none" stroke="midnightblue" d="M167.4,-428.54C169.48,-418.81 171.49,-409.44 173.34,-400.8"/>
<polygon fill="none" stroke="midnightblue" points="163.96,-427.87 165.29,-438.38 170.81,-429.34 163.96,-427.87"/>
</g>
<!-- Node5 -->
<g id="node5" class="node">
<title>Node5</title>
<g id="a_node5"><a xlink:title=" ">
<polygon fill="white" stroke="#bfbfbf" points="91.5,-1089.5 91.5,-1146.5 174.5,-1146.5 174.5,-1089.5 91.5,-1089.5"/>
<text text-anchor="middle" x="133" y="-1134.5" font-family="Helvetica,sans-Serif" font-size="10.00">ClientSocketT</text>
<polyline fill="none" stroke="#bfbfbf" points="91.5,-1127.5 174.5,-1127.5 "/>
<text text-anchor="middle" x="133" y="-1115.5" font-family="Helvetica,sans-Serif" font-size="10.00"> </text>
<polyline fill="none" stroke="#bfbfbf" points="91.5,-1108.5 174.5,-1108.5 "/>
<text text-anchor="middle" x="133" y="-1096.5" font-family="Helvetica,sans-Serif" font-size="10.00"> </text>
</a>
</g>
</g>
<!-- Node5&#45;&gt;Node4 -->
<g id="edge4" class="edge">
<title>Node5&#45;&gt;Node4</title>
<path fill="none" stroke="midnightblue" d="M133.28,-1079.16C133.84,-1002.91 135.13,-827.58 136.03,-704.64"/>
<polygon fill="none" stroke="midnightblue" points="129.78,-1079.22 133.2,-1089.25 136.78,-1079.28 129.78,-1079.22"/>
</g>
<!-- Node6 -->
<g id="node6" class="node">
<title>Node6</title>
<g id="a_node6"><a xlink:href="classcore_1_1socket_1_1stream_1_1_socket_client.html" target="_top" xlink:title=" ">
<polygon fill="white" stroke="black" points="149.5,-796.5 149.5,-1051.5 342.5,-1051.5 342.5,-796.5 149.5,-796.5"/>
<text text-anchor="start" x="157.5" y="-1039.5" font-family="Helvetica,sans-Serif" font-size="10.00">core::socket::stream</text>
<text text-anchor="start" x="157.5" y="-1028.5" font-family="Helvetica,sans-Serif" font-size="10.00">::SocketClient&lt; ClientSocket</text>
<text text-anchor="start" x="157.5" y="-1017.5" font-family="Helvetica,sans-Serif" font-size="10.00">T, SocketConnectorT, SocketContext</text>
<text text-anchor="middle" x="246" y="-1006.5" font-family="Helvetica,sans-Serif" font-size="10.00">FactoryT &gt;</text>
<polyline fill="none" stroke="black" points="149.5,-999.5 342.5,-999.5 "/>
<text text-anchor="start" x="157.5" y="-987.5" font-family="Helvetica,sans-Serif" font-size="10.00"># clientConfig</text>
<text text-anchor="start" x="157.5" y="-976.5" font-family="Helvetica,sans-Serif" font-size="10.00"># socketContextFactory</text>
<text text-anchor="start" x="157.5" y="-965.5" font-family="Helvetica,sans-Serif" font-size="10.00"># _onConnect</text>
<text text-anchor="start" x="157.5" y="-954.5" font-family="Helvetica,sans-Serif" font-size="10.00"># _onConnected</text>
<text text-anchor="start" x="157.5" y="-943.5" font-family="Helvetica,sans-Serif" font-size="10.00"># _onDisconnect</text>
<text text-anchor="start" x="157.5" y="-932.5" font-family="Helvetica,sans-Serif" font-size="10.00"># options</text>
<polyline fill="none" stroke="black" points="149.5,-925.5 342.5,-925.5 "/>
<text text-anchor="start" x="157.5" y="-913.5" font-family="Helvetica,sans-Serif" font-size="10.00">+ SocketClient()</text>
<text text-anchor="start" x="157.5" y="-902.5" font-family="Helvetica,sans-Serif" font-size="10.00">+ SocketClient()</text>
<text text-anchor="start" x="157.5" y="-891.5" font-family="Helvetica,sans-Serif" font-size="10.00">+ ~SocketClient()</text>
<text text-anchor="start" x="157.5" y="-880.5" font-family="Helvetica,sans-Serif" font-size="10.00">+ connect()</text>
<text text-anchor="start" x="157.5" y="-869.5" font-family="Helvetica,sans-Serif" font-size="10.00">+ connect()</text>
<text text-anchor="start" x="157.5" y="-858.5" font-family="Helvetica,sans-Serif" font-size="10.00">+ connect()</text>
<text text-anchor="start" x="157.5" y="-847.5" font-family="Helvetica,sans-Serif" font-size="10.00">+ onConnect()</text>
<text text-anchor="start" x="157.5" y="-836.5" font-family="Helvetica,sans-Serif" font-size="10.00">+ onConnected()</text>
<text text-anchor="start" x="157.5" y="-825.5" font-family="Helvetica,sans-Serif" font-size="10.00">+ onDisconnect()</text>
<text text-anchor="start" x="157.5" y="-814.5" font-family="Helvetica,sans-Serif" font-size="10.00">+ getSocketContextFactory()</text>
<text text-anchor="start" x="157.5" y="-803.5" font-family="Helvetica,sans-Serif" font-size="10.00">&#45; SocketClient()</text>
</a>
</g>
</g>
<!-- Node5&#45;&gt;Node6 -->
<g id="edge6" class="edge">
<title>Node5&#45;&gt;Node6</title>
<path fill="none" stroke="midnightblue" d="M154.31,-1080.78C159.47,-1072.02 165.28,-1062.16 171.4,-1051.75"/>
<polygon fill="none" stroke="midnightblue" points="151.25,-1079.1 149.19,-1089.49 157.28,-1082.65 151.25,-1079.1"/>
</g>
<!-- Node6&#45;&gt;Node4 -->
<g id="edge5" class="edge">
<title>Node6&#45;&gt;Node4</title>
<path fill="none" stroke="orange" d="M203.59,-786.61C195.22,-759.71 186.45,-731.52 178.13,-704.76"/>
<polygon fill="orange" stroke="orange" points="200.34,-787.95 206.65,-796.46 207.02,-785.87 200.34,-787.95"/>
<text text-anchor="start" x="199" y="-770" font-family="Helvetica,sans-Serif" font-size="10.00"> &lt; ClientSocketT, core</text>
<text text-anchor="start" x="199" y="-759" font-family="Helvetica,sans-Serif" font-size="10.00">::socket::stream::legacy</text>
<text text-anchor="start" x="199" y="-748" font-family="Helvetica,sans-Serif" font-size="10.00">::SocketConnector&lt; ClientConfig</text>
<text text-anchor="start" x="199" y="-737" font-family="Helvetica,sans-Serif" font-size="10.00">T, ClientSocketT::Socket &gt;,</text>
<text text-anchor="middle" x="279" y="-726" font-family="Helvetica,sans-Serif" font-size="10.00"> SocketContextFactoryT &gt;</text>
</g>
<!-- Node7 -->
<g id="node7" class="node">
<title>Node7</title>
<g id="a_node7"><a xlink:href="classweb_1_1http_1_1client_1_1_client.html" target="_top" xlink:title=" ">
<polygon fill="white" stroke="black" points="311,-310.5 311,-389.5 447,-389.5 447,-310.5 311,-310.5"/>
<text text-anchor="start" x="319" y="-377.5" font-family="Helvetica,sans-Serif" font-size="10.00">web::http::client::</text>
<text text-anchor="start" x="319" y="-366.5" font-family="Helvetica,sans-Serif" font-size="10.00">Client&lt; SocketClientT,</text>
<text text-anchor="middle" x="379" y="-355.5" font-family="Helvetica,sans-Serif" font-size="10.00"> RequestT, ResponseT &gt;</text>
<polyline fill="none" stroke="black" points="311,-348.5 447,-348.5 "/>
<text text-anchor="middle" x="379" y="-336.5" font-family="Helvetica,sans-Serif" font-size="10.00"> </text>
<polyline fill="none" stroke="black" points="311,-329.5 447,-329.5 "/>
<text text-anchor="start" x="319" y="-317.5" font-family="Helvetica,sans-Serif" font-size="10.00">+ Client()</text>
</a>
</g>
</g>
<!-- Node7&#45;&gt;Node2 -->
<g id="edge7" class="edge">
<title>Node7&#45;&gt;Node2</title>
<path fill="none" stroke="orange" d="M350.56,-301.6C335.2,-276 316.26,-244.43 300.71,-218.52"/>
<polygon fill="orange" stroke="orange" points="347.69,-303.61 355.83,-310.39 353.69,-300.01 347.69,-303.61"/>
<text text-anchor="start" x="338" y="-273" font-family="Helvetica,sans-Serif" font-size="10.00"> &lt; net::in6::stream</text>
<text text-anchor="start" x="338" y="-262" font-family="Helvetica,sans-Serif" font-size="10.00">::legacy::SocketClient,</text>
<text text-anchor="start" x="338" y="-251" font-family="Helvetica,sans-Serif" font-size="10.00"> web::http::client::Request,</text>
<text text-anchor="middle" x="411.5" y="-240" font-family="Helvetica,sans-Serif" font-size="10.00"> web::http::client::Response &gt;</text>
</g>
<!-- Node8 -->
<g id="node8" class="node">
<title>Node8</title>
<g id="a_node8"><a xlink:title=" ">
<polygon fill="white" stroke="#bfbfbf" points="292.5,-532 292.5,-611 483.5,-611 483.5,-532 292.5,-532"/>
<text text-anchor="start" x="300.5" y="-599" font-family="Helvetica,sans-Serif" font-size="10.00">SocketClientT&lt; web</text>
<text text-anchor="start" x="300.5" y="-588" font-family="Helvetica,sans-Serif" font-size="10.00">::http::client::SocketContext</text>
<text text-anchor="middle" x="388" y="-577" font-family="Helvetica,sans-Serif" font-size="10.00">Factory&lt; RequestT, ResponseT &gt; &gt;</text>
<polyline fill="none" stroke="#bfbfbf" points="292.5,-570 483.5,-570 "/>
<text text-anchor="middle" x="388" y="-558" font-family="Helvetica,sans-Serif" font-size="10.00"> </text>
<polyline fill="none" stroke="#bfbfbf" points="292.5,-551 483.5,-551 "/>
<text text-anchor="middle" x="388" y="-539" font-family="Helvetica,sans-Serif" font-size="10.00"> </text>
</a>
</g>
</g>
<!-- Node8&#45;&gt;Node7 -->
<g id="edge8" class="edge">
<title>Node8&#45;&gt;Node7</title>
<path fill="none" stroke="midnightblue" d="M386,-521.75C384.37,-481.97 382.1,-426.51 380.59,-389.72"/>
<polygon fill="none" stroke="midnightblue" points="382.5,-521.91 386.41,-531.76 389.5,-521.63 382.5,-521.91"/>
</g>
</g>
</svg>
