<?xml version="1.0" encoding="UTF-8" standalone="no"?>
<!DOCTYPE svg PUBLIC "-//W3C//DTD SVG 1.1//EN"
 "http://www.w3.org/Graphics/SVG/1.1/DTD/svg11.dtd">
<!-- Generated by graphviz version 2.43.0 (0)
 -->
<!-- Title: web::http::server::Response::end Pages: 1 -->
<svg width="954pt" height="276pt"
 viewBox="0.00 0.00 954.00 276.00" xmlns="http://www.w3.org/2000/svg" xmlns:xlink="http://www.w3.org/1999/xlink">
<g id="graph0" class="graph" transform="scale(1 1) rotate(0) translate(4 272)">
<title>web::http::server::Response::end</title>
<polygon fill="white" stroke="transparent" points="-4,4 -4,-272 950,-272 950,4 -4,4"/>
<!-- Node1 -->
<g id="node1" class="node">
<title>Node1</title>
<g id="a_node1"><a xlink:title=" ">
<polygon fill="#bfbfbf" stroke="black" points="0,-45.5 0,-75.5 105,-75.5 105,-45.5 0,-45.5"/>
<text text-anchor="start" x="8" y="-63.5" font-family="Helvetica,sans-Serif" font-size="10.00">web::http::server::</text>
<text text-anchor="middle" x="52.5" y="-52.5" font-family="Helvetica,sans-Serif" font-size="10.00">Response::end</text>
</a>
</g>
</g>
<!-- Node2 -->
<g id="node2" class="node">
<title>Node2</title>
<g id="a_node2"><a xlink:href="classweb_1_1http_1_1server_1_1_response.html#ad13e93ee083ee9e780a4478a86fdefec" target="_top" xlink:title=" ">
<polygon fill="white" stroke="black" points="141,-45.5 141,-75.5 246,-75.5 246,-45.5 141,-45.5"/>
<text text-anchor="start" x="149" y="-63.5" font-family="Helvetica,sans-Serif" font-size="10.00">web::http::server::</text>
<text text-anchor="middle" x="193.5" y="-52.5" font-family="Helvetica,sans-Serif" font-size="10.00">Response::send</text>
</a>
</g>
</g>
<!-- Node1&#45;&gt;Node2 -->
<g id="edge1" class="edge">
<title>Node1&#45;&gt;Node2</title>
<path fill="none" stroke="midnightblue" d="M105.26,-60.5C113.49,-60.5 122.08,-60.5 130.51,-60.5"/>
<polygon fill="midnightblue" stroke="midnightblue" points="130.7,-64 140.7,-60.5 130.7,-57 130.7,-64"/>
</g>
<!-- Node3 -->
<g id="node3" class="node">
<title>Node3</title>
<g id="a_node3"><a xlink:href="classweb_1_1http_1_1server_1_1_response.html#a6bdff1ff4fb13a952df7bfefd0b87667" target="_top" xlink:title=" ">
<polygon fill="white" stroke="black" points="282,-114.5 282,-144.5 394,-144.5 394,-114.5 282,-114.5"/>
<text text-anchor="start" x="290" y="-132.5" font-family="Helvetica,sans-Serif" font-size="10.00">web::http::server::</text>
<text text-anchor="middle" x="338" y="-121.5" font-family="Helvetica,sans-Serif" font-size="10.00">Response::enqueue</text>
</a>
</g>
</g>
<!-- Node2&#45;&gt;Node3 -->
<g id="edge2" class="edge">
<title>Node2&#45;&gt;Node3</title>
<path fill="none" stroke="midnightblue" d="M225.77,-75.64C246.56,-85.71 274.06,-99.03 296.52,-109.9"/>
<polygon fill="midnightblue" stroke="midnightblue" points="295.27,-113.18 305.8,-114.39 298.33,-106.88 295.27,-113.18"/>
</g>
<!-- Node10 -->
<g id="node10" class="node">
<title>Node10</title>
<g id="a_node10"><a xlink:href="classweb_1_1http_1_1server_1_1_response.html#a82301ce94e8418a2d0b9bc052207a178" target="_top" xlink:title=" ">
<polygon fill="white" stroke="black" points="649.5,-0.5 649.5,-30.5 754.5,-30.5 754.5,-0.5 649.5,-0.5"/>
<text text-anchor="start" x="657.5" y="-18.5" font-family="Helvetica,sans-Serif" font-size="10.00">web::http::server::</text>
<text text-anchor="middle" x="702" y="-7.5" font-family="Helvetica,sans-Serif" font-size="10.00">Response::set</text>
</a>
</g>
</g>
<!-- Node2&#45;&gt;Node10 -->
<g id="edge16" class="edge">
<title>Node2&#45;&gt;Node10</title>
<path fill="none" stroke="midnightblue" d="M246.32,-55.9C340.29,-47.55 538.38,-29.95 639.21,-20.99"/>
<polygon fill="midnightblue" stroke="midnightblue" points="639.6,-24.47 649.25,-20.1 638.98,-17.5 639.6,-24.47"/>
</g>
<!-- Node4 -->
<g id="node4" class="node">
<title>Node4</title>
<g id="a_node4"><a xlink:href="classcore_1_1socket_1_1_socket_context.html#a7daa40724b091ab2970e60cd5c46148a" target="_top" xlink:title=" ">
<polygon fill="white" stroke="black" points="430,-139.5 430,-169.5 582,-169.5 582,-139.5 430,-139.5"/>
<text text-anchor="start" x="438" y="-157.5" font-family="Helvetica,sans-Serif" font-size="10.00">core::socket::SocketContext</text>
<text text-anchor="middle" x="506" y="-146.5" font-family="Helvetica,sans-Serif" font-size="10.00">::close</text>
</a>
</g>
</g>
<!-- Node3&#45;&gt;Node4 -->
<g id="edge3" class="edge">
<title>Node3&#45;&gt;Node4</title>
<path fill="none" stroke="midnightblue" d="M394.28,-137.82C402.48,-139.06 411.09,-140.36 419.73,-141.66"/>
<polygon fill="midnightblue" stroke="midnightblue" points="419.46,-145.16 429.87,-143.19 420.5,-138.24 419.46,-145.16"/>
</g>
<!-- Node6 -->
<g id="node6" class="node">
<title>Node6</title>
<g id="a_node6"><a xlink:href="classweb_1_1http_1_1server_1_1_response.html#a4fae387fd1d11b86260f4572bfebfce2" target="_top" xlink:title=" ">
<polygon fill="white" stroke="black" points="442,-90.5 442,-120.5 570,-120.5 570,-90.5 442,-90.5"/>
<text text-anchor="start" x="450" y="-108.5" font-family="Helvetica,sans-Serif" font-size="10.00">web::http::server::</text>
<text text-anchor="middle" x="506" y="-97.5" font-family="Helvetica,sans-Serif" font-size="10.00">Response::sendHeader</text>
</a>
</g>
</g>
<!-- Node3&#45;&gt;Node6 -->
<g id="edge5" class="edge">
<title>Node3&#45;&gt;Node6</title>
<path fill="none" stroke="midnightblue" d="M394.28,-115.1C406.33,-113.05 419.27,-111.08 431.9,-109.36"/>
<polygon fill="midnightblue" stroke="midnightblue" points="432.48,-112.82 441.94,-108.04 431.56,-105.88 432.48,-112.82"/>
</g>
<!-- Node13 -->
<g id="node13" class="node">
<title>Node13</title>
<g id="a_node13"><a xlink:href="classcore_1_1socket_1_1_socket_context.html#acf71eb98dd1dbbf97af68326bdaac8ff" target="_top" xlink:title=" ">
<polygon fill="white" stroke="black" points="430,-237.5 430,-267.5 582,-267.5 582,-237.5 430,-237.5"/>
<text text-anchor="start" x="438" y="-255.5" font-family="Helvetica,sans-Serif" font-size="10.00">core::socket::SocketContext</text>
<text text-anchor="middle" x="506" y="-244.5" font-family="Helvetica,sans-Serif" font-size="10.00">::sendToPeer</text>
</a>
</g>
</g>
<!-- Node3&#45;&gt;Node13 -->
<g id="edge13" class="edge">
<title>Node3&#45;&gt;Node13</title>
<path fill="none" stroke="midnightblue" d="M348.94,-144.51C363.99,-166.12 394.59,-205.87 430,-228.5 432.57,-230.14 435.26,-231.68 438.02,-233.12"/>
<polygon fill="midnightblue" stroke="midnightblue" points="436.55,-236.29 447.09,-237.38 439.53,-229.96 436.55,-236.29"/>
</g>
<!-- Node15 -->
<g id="node15" class="node">
<title>Node15</title>
<g id="a_node15"><a xlink:href="classweb_1_1http_1_1_socket_context.html#a3d37b0a17a47ce6c9ebf96900bfe2a74" target="_top" xlink:title=" ">
<polygon fill="white" stroke="black" points="436.5,-188.5 436.5,-218.5 575.5,-218.5 575.5,-188.5 436.5,-188.5"/>
<text text-anchor="start" x="444.5" y="-206.5" font-family="Helvetica,sans-Serif" font-size="10.00">web::http::SocketContext</text>
<text text-anchor="middle" x="506" y="-195.5" font-family="Helvetica,sans-Serif" font-size="10.00">::sendToPeerCompleted</text>
</a>
</g>
</g>
<!-- Node3&#45;&gt;Node15 -->
<g id="edge15" class="edge">
<title>Node3&#45;&gt;Node15</title>
<path fill="none" stroke="midnightblue" d="M363.46,-144.63C381.42,-155.31 406.65,-169.46 430,-179.5 434.4,-181.39 439,-183.22 443.66,-184.95"/>
<polygon fill="midnightblue" stroke="midnightblue" points="442.68,-188.32 453.28,-188.4 445.04,-181.73 442.68,-188.32"/>
</g>
<!-- Node5 -->
<g id="node5" class="node">
<title>Node5</title>
<g id="a_node5"><a xlink:href="classcore_1_1socket_1_1_socket_connection.html#a9b8dcd50d3aee2376df71eb53bb3805f" target="_top" xlink:title=" ">
<polygon fill="white" stroke="black" points="618,-186.5 618,-216.5 786,-216.5 786,-186.5 618,-186.5"/>
<text text-anchor="start" x="626" y="-204.5" font-family="Helvetica,sans-Serif" font-size="10.00">core::socket::SocketConnection</text>
<text text-anchor="middle" x="702" y="-193.5" font-family="Helvetica,sans-Serif" font-size="10.00">::close</text>
</a>
</g>
</g>
<!-- Node4&#45;&gt;Node5 -->
<g id="edge4" class="edge">
<title>Node4&#45;&gt;Node5</title>
<path fill="none" stroke="midnightblue" d="M568.92,-169.5C588.08,-174.14 609.35,-179.3 629.13,-184.09"/>
<polygon fill="midnightblue" stroke="midnightblue" points="628.46,-187.53 639.01,-186.48 630.11,-180.72 628.46,-187.53"/>
</g>
<!-- Node6&#45;&gt;Node3 -->
<g id="edge7" class="edge">
<title>Node6&#45;&gt;Node3</title>
<path fill="none" stroke="midnightblue" d="M445.98,-120.53C432.57,-122.76 418.24,-124.87 404.57,-126.64"/>
<polygon fill="midnightblue" stroke="midnightblue" points="403.77,-123.21 394.28,-127.91 404.63,-130.16 403.77,-123.21"/>
</g>
<!-- Node7 -->
<g id="node7" class="node">
<title>Node7</title>
<g id="a_node7"><a xlink:href="classweb_1_1http_1_1server_1_1_response.html#aa9a6f2cbf1a4f186db94f9a2d5d6da08" target="_top" xlink:title=" ">
<polygon fill="white" stroke="black" points="649.5,-49.5 649.5,-79.5 754.5,-79.5 754.5,-49.5 649.5,-49.5"/>
<text text-anchor="start" x="657.5" y="-67.5" font-family="Helvetica,sans-Serif" font-size="10.00">web::http::server::</text>
<text text-anchor="middle" x="702" y="-56.5" font-family="Helvetica,sans-Serif" font-size="10.00">Response::cookie</text>
</a>
</g>
</g>
<!-- Node6&#45;&gt;Node7 -->
<g id="edge6" class="edge">
<title>Node6&#45;&gt;Node7</title>
<path fill="none" stroke="midnightblue" d="M570.25,-92.13C592.5,-87.43 617.45,-82.16 639.55,-77.49"/>
<polygon fill="midnightblue" stroke="midnightblue" points="640.42,-80.88 649.48,-75.39 638.97,-74.03 640.42,-80.88"/>
</g>
<!-- Node8 -->
<g id="node8" class="node">
<title>Node8</title>
<g id="a_node8"><a xlink:href="classweb_1_1http_1_1_status_code.html#ad3c635f1cb778cdb4a2e23332ebda277" target="_top" xlink:title=" ">
<polygon fill="white" stroke="black" points="640,-137.5 640,-167.5 764,-167.5 764,-137.5 640,-137.5"/>
<text text-anchor="start" x="648" y="-155.5" font-family="Helvetica,sans-Serif" font-size="10.00">web::http::StatusCode</text>
<text text-anchor="middle" x="702" y="-144.5" font-family="Helvetica,sans-Serif" font-size="10.00">::reason</text>
</a>
</g>
</g>
<!-- Node6&#45;&gt;Node8 -->
<g id="edge8" class="edge">
<title>Node6&#45;&gt;Node8</title>
<path fill="none" stroke="midnightblue" d="M568.92,-120.5C588.27,-125.19 609.77,-130.4 629.72,-135.23"/>
<polygon fill="midnightblue" stroke="midnightblue" points="629.13,-138.69 639.67,-137.64 630.78,-131.89 629.13,-138.69"/>
</g>
<!-- Node6&#45;&gt;Node10 -->
<g id="edge10" class="edge">
<title>Node6&#45;&gt;Node10</title>
<path fill="none" stroke="midnightblue" d="M528.64,-90.36C550.39,-75.7 585.29,-53.68 618,-39.5 624.81,-36.55 632.09,-33.84 639.41,-31.39"/>
<polygon fill="midnightblue" stroke="midnightblue" points="640.9,-34.59 649.36,-28.22 638.77,-27.92 640.9,-34.59"/>
</g>
<!-- Node12 -->
<g id="node12" class="node">
<title>Node12</title>
<g id="a_node12"><a xlink:href="namespacehttputils.html#a01539c1af68e4d072d3507ae44c0b02a" target="_top" xlink:title=" ">
<polygon fill="white" stroke="black" points="639.5,-99 639.5,-118 764.5,-118 764.5,-99 639.5,-99"/>
<text text-anchor="middle" x="702" y="-106" font-family="Helvetica,sans-Serif" font-size="10.00">httputils::to_http_date</text>
</a>
</g>
</g>
<!-- Node6&#45;&gt;Node12 -->
<g id="edge12" class="edge">
<title>Node6&#45;&gt;Node12</title>
<path fill="none" stroke="midnightblue" d="M570.25,-106.48C589.18,-106.77 610.06,-107.09 629.48,-107.39"/>
<polygon fill="midnightblue" stroke="midnightblue" points="629.43,-110.89 639.48,-107.55 629.54,-103.89 629.43,-110.89"/>
</g>
<!-- Node9 -->
<g id="node9" class="node">
<title>Node9</title>
<g id="a_node9"><a xlink:href="classweb_1_1http_1_1_status_code.html#a7128168d2becba8d8bfd0e47ab2854ff" target="_top" xlink:title=" ">
<polygon fill="white" stroke="black" points="822,-137.5 822,-167.5 946,-167.5 946,-137.5 822,-137.5"/>
<text text-anchor="start" x="830" y="-155.5" font-family="Helvetica,sans-Serif" font-size="10.00">web::http::StatusCode</text>
<text text-anchor="middle" x="884" y="-144.5" font-family="Helvetica,sans-Serif" font-size="10.00">::contains</text>
</a>
</g>
</g>
<!-- Node8&#45;&gt;Node9 -->
<g id="edge9" class="edge">
<title>Node8&#45;&gt;Node9</title>
<path fill="none" stroke="midnightblue" d="M764.19,-152.5C779.49,-152.5 796.03,-152.5 811.77,-152.5"/>
<polygon fill="midnightblue" stroke="midnightblue" points="811.98,-156 821.98,-152.5 811.98,-149 811.98,-156"/>
</g>
<!-- Node11 -->
<g id="node11" class="node">
<title>Node11</title>
<g id="a_node11"><a xlink:href="namespacehttputils.html#af566d4f31d97a3a84b373a94e6cf9594" target="_top" xlink:title=" ">
<polygon fill="white" stroke="black" points="825,-6 825,-25 943,-25 943,-6 825,-6"/>
<text text-anchor="middle" x="884" y="-13" font-family="Helvetica,sans-Serif" font-size="10.00">httputils::ci_contains</text>
</a>
</g>
</g>
<!-- Node10&#45;&gt;Node11 -->
<g id="edge11" class="edge">
<title>Node10&#45;&gt;Node11</title>
<path fill="none" stroke="midnightblue" d="M754.58,-15.5C773.25,-15.5 794.63,-15.5 814.52,-15.5"/>
<polygon fill="midnightblue" stroke="midnightblue" points="814.76,-19 824.76,-15.5 814.76,-12 814.76,-19"/>
</g>
<!-- Node14 -->
<g id="node14" class="node">
<title>Node14</title>
<g id="a_node14"><a xlink:href="classcore_1_1socket_1_1_socket_connection.html#a15c934a69a64a7d2a0f230ebf1033195" target="_top" xlink:title=" ">
<polygon fill="white" stroke="black" points="618,-237.5 618,-267.5 786,-267.5 786,-237.5 618,-237.5"/>
<text text-anchor="start" x="626" y="-255.5" font-family="Helvetica,sans-Serif" font-size="10.00">core::socket::SocketConnection</text>
<text text-anchor="middle" x="702" y="-244.5" font-family="Helvetica,sans-Serif" font-size="10.00">::sendToPeer</text>
</a>
</g>
</g>
<!-- Node13&#45;&gt;Node14 -->
<g id="edge14" class="edge">
<title>Node13&#45;&gt;Node14</title>
<path fill="none" stroke="midnightblue" d="M582.01,-252.5C590.44,-252.5 599.1,-252.5 607.72,-252.5"/>
<polygon fill="midnightblue" stroke="midnightblue" points="607.81,-256 617.81,-252.5 607.81,-249 607.81,-256"/>
</g>
</g>
</svg>
