<?xml version="1.0" encoding="UTF-8" standalone="no"?>
<!DOCTYPE svg PUBLIC "-//W3C//DTD SVG 1.1//EN"
 "http://www.w3.org/Graphics/SVG/1.1/DTD/svg11.dtd">
<!-- Generated by graphviz version 2.43.0 (0)
 -->
<!-- Title: express::Router Pages: 1 -->
<svg width="714pt" height="529pt"
 viewBox="0.00 0.00 714.00 529.00" xmlns="http://www.w3.org/2000/svg" xmlns:xlink="http://www.w3.org/1999/xlink">
<g id="graph0" class="graph" transform="scale(1 1) rotate(0) translate(4 525)">
<title>express::Router</title>
<polygon fill="white" stroke="transparent" points="-4,4 -4,-525 710,-525 710,4 -4,4"/>
<!-- Node1 -->
<g id="node1" class="node">
<title>Node1</title>
<g id="a_node1"><a xlink:title=" ">
<polygon fill="#bfbfbf" stroke="black" points="307.5,-353.5 307.5,-520.5 417.5,-520.5 417.5,-353.5 307.5,-353.5"/>
<text text-anchor="middle" x="362.5" y="-508.5" font-family="Helvetica,sans-Serif" font-size="10.00">express::Router</text>
<polyline fill="none" stroke="black" points="307.5,-501.5 417.5,-501.5 "/>
<text text-anchor="start" x="315.5" y="-489.5" font-family="Helvetica,sans-Serif" font-size="10.00"># routerDispatcher</text>
<polyline fill="none" stroke="black" points="307.5,-482.5 417.5,-482.5 "/>
<text text-anchor="start" x="315.5" y="-470.5" font-family="Helvetica,sans-Serif" font-size="10.00">+ Router()</text>
<text text-anchor="start" x="315.5" y="-459.5" font-family="Helvetica,sans-Serif" font-size="10.00">+ Router()</text>
<text text-anchor="start" x="315.5" y="-448.5" font-family="Helvetica,sans-Serif" font-size="10.00">+ Router()</text>
<text text-anchor="start" x="315.5" y="-437.5" font-family="Helvetica,sans-Serif" font-size="10.00">+ operator=()</text>
<text text-anchor="start" x="315.5" y="-426.5" font-family="Helvetica,sans-Serif" font-size="10.00">+ operator=()</text>
<text text-anchor="start" x="315.5" y="-415.5" font-family="Helvetica,sans-Serif" font-size="10.00">+ use()</text>
<text text-anchor="start" x="315.5" y="-404.5" font-family="Helvetica,sans-Serif" font-size="10.00">+ use()</text>
<text text-anchor="start" x="315.5" y="-393.5" font-family="Helvetica,sans-Serif" font-size="10.00">+ use()</text>
<text text-anchor="start" x="315.5" y="-382.5" font-family="Helvetica,sans-Serif" font-size="10.00">+ use()</text>
<text text-anchor="start" x="315.5" y="-371.5" font-family="Helvetica,sans-Serif" font-size="10.00">+ use()</text>
<text text-anchor="start" x="315.5" y="-360.5" font-family="Helvetica,sans-Serif" font-size="10.00">and 61 more...</text>
</a>
</g>
</g>
<!-- Node2 -->
<g id="node2" class="node">
<title>Node2</title>
<g id="a_node2"><a xlink:href="classexpress_1_1_web_app.html" target="_top" xlink:title=" ">
<polygon fill="white" stroke="black" points="33,-160.5 33,-272.5 134,-272.5 134,-160.5 33,-160.5"/>
<text text-anchor="middle" x="83.5" y="-260.5" font-family="Helvetica,sans-Serif" font-size="10.00">express::WebApp</text>
<polyline fill="none" stroke="black" points="33,-253.5 134,-253.5 "/>
<text text-anchor="middle" x="83.5" y="-241.5" font-family="Helvetica,sans-Serif" font-size="10.00"> </text>
<polyline fill="none" stroke="black" points="33,-234.5 134,-234.5 "/>
<text text-anchor="start" x="41" y="-222.5" font-family="Helvetica,sans-Serif" font-size="10.00">+ init()</text>
<text text-anchor="start" x="41" y="-211.5" font-family="Helvetica,sans-Serif" font-size="10.00">+ start()</text>
<text text-anchor="start" x="41" y="-200.5" font-family="Helvetica,sans-Serif" font-size="10.00">+ stop()</text>
<text text-anchor="start" x="41" y="-189.5" font-family="Helvetica,sans-Serif" font-size="10.00">+ tick()</text>
<text text-anchor="start" x="41" y="-178.5" font-family="Helvetica,sans-Serif" font-size="10.00">+ free()</text>
<text text-anchor="start" x="41" y="-167.5" font-family="Helvetica,sans-Serif" font-size="10.00"># WebApp()</text>
</a>
</g>
</g>
<!-- Node1&#45;&gt;Node2 -->
<g id="edge1" class="edge">
<title>Node1&#45;&gt;Node2</title>
<path fill="none" stroke="midnightblue" d="M297.98,-411.77C251.03,-391.73 188.12,-359.66 143.5,-317 130.3,-304.38 118.94,-288.25 109.76,-272.67"/>
<polygon fill="none" stroke="midnightblue" points="296.87,-415.1 307.44,-415.74 299.57,-408.64 296.87,-415.1"/>
</g>
<!-- Node4 -->
<g id="node4" class="node">
<title>Node4</title>
<g id="a_node4"><a xlink:href="classexpress_1_1middleware_1_1_basic_authentication.html" target="_top" xlink:title=" ">
<polygon fill="white" stroke="black" points="152,-160.5 152,-272.5 285,-272.5 285,-160.5 152,-160.5"/>
<text text-anchor="start" x="160" y="-260.5" font-family="Helvetica,sans-Serif" font-size="10.00">express::middleware</text>
<text text-anchor="middle" x="218.5" y="-249.5" font-family="Helvetica,sans-Serif" font-size="10.00">::BasicAuthentication</text>
<polyline fill="none" stroke="black" points="152,-242.5 285,-242.5 "/>
<text text-anchor="start" x="160" y="-230.5" font-family="Helvetica,sans-Serif" font-size="10.00">&#45; userName</text>
<text text-anchor="start" x="160" y="-219.5" font-family="Helvetica,sans-Serif" font-size="10.00">&#45; password</text>
<text text-anchor="start" x="160" y="-208.5" font-family="Helvetica,sans-Serif" font-size="10.00">&#45; realm</text>
<text text-anchor="start" x="160" y="-197.5" font-family="Helvetica,sans-Serif" font-size="10.00">&#45; credentials</text>
<polyline fill="none" stroke="black" points="152,-190.5 285,-190.5 "/>
<text text-anchor="start" x="160" y="-178.5" font-family="Helvetica,sans-Serif" font-size="10.00"># BasicAuthentication()</text>
<text text-anchor="start" x="160" y="-167.5" font-family="Helvetica,sans-Serif" font-size="10.00"># instance()</text>
</a>
</g>
</g>
<!-- Node1&#45;&gt;Node4 -->
<g id="edge3" class="edge">
<title>Node1&#45;&gt;Node4</title>
<path fill="none" stroke="midnightblue" d="M302.39,-344.8C286.27,-320.33 269.32,-294.61 254.91,-272.75"/>
<polygon fill="none" stroke="midnightblue" points="299.63,-346.97 308.06,-353.39 305.48,-343.12 299.63,-346.97"/>
</g>
<!-- Node5 -->
<g id="node5" class="node">
<title>Node5</title>
<g id="a_node5"><a xlink:href="classexpress_1_1middleware_1_1_json_middleware.html" target="_top" xlink:title=" ">
<polygon fill="white" stroke="black" points="303,-166 303,-267 422,-267 422,-166 303,-166"/>
<text text-anchor="start" x="311" y="-255" font-family="Helvetica,sans-Serif" font-size="10.00">express::middleware</text>
<text text-anchor="middle" x="362.5" y="-244" font-family="Helvetica,sans-Serif" font-size="10.00">::JsonMiddleware</text>
<polyline fill="none" stroke="black" points="303,-237 422,-237 "/>
<text text-anchor="middle" x="362.5" y="-225" font-family="Helvetica,sans-Serif" font-size="10.00"> </text>
<polyline fill="none" stroke="black" points="303,-218 422,-218 "/>
<text text-anchor="start" x="311" y="-206" font-family="Helvetica,sans-Serif" font-size="10.00"># JsonMiddleware()</text>
<text text-anchor="start" x="311" y="-195" font-family="Helvetica,sans-Serif" font-size="10.00"># instance()</text>
<text text-anchor="start" x="311" y="-184" font-family="Helvetica,sans-Serif" font-size="10.00">&#45; JsonMiddleware()</text>
<text text-anchor="start" x="311" y="-173" font-family="Helvetica,sans-Serif" font-size="10.00">&#45; operator=()</text>
</a>
</g>
</g>
<!-- Node1&#45;&gt;Node5 -->
<g id="edge4" class="edge">
<title>Node1&#45;&gt;Node5</title>
<path fill="none" stroke="midnightblue" d="M362.5,-343.1C362.5,-317.05 362.5,-289.73 362.5,-267.25"/>
<polygon fill="none" stroke="midnightblue" points="359,-343.39 362.5,-353.39 366,-343.39 359,-343.39"/>
</g>
<!-- Node6 -->
<g id="node6" class="node">
<title>Node6</title>
<g id="a_node6"><a xlink:href="classexpress_1_1middleware_1_1_static_middleware.html" target="_top" xlink:title=" ">
<polygon fill="white" stroke="black" points="440.5,-116.5 440.5,-316.5 568.5,-316.5 568.5,-116.5 440.5,-116.5"/>
<text text-anchor="start" x="448.5" y="-304.5" font-family="Helvetica,sans-Serif" font-size="10.00">express::middleware</text>
<text text-anchor="middle" x="504.5" y="-293.5" font-family="Helvetica,sans-Serif" font-size="10.00">::StaticMiddleware</text>
<polyline fill="none" stroke="black" points="440.5,-286.5 568.5,-286.5 "/>
<text text-anchor="start" x="448.5" y="-274.5" font-family="Helvetica,sans-Serif" font-size="10.00">&#45; root</text>
<text text-anchor="start" x="448.5" y="-263.5" font-family="Helvetica,sans-Serif" font-size="10.00">&#45; stdHeaders</text>
<text text-anchor="start" x="448.5" y="-252.5" font-family="Helvetica,sans-Serif" font-size="10.00">&#45; stdCookies</text>
<text text-anchor="start" x="448.5" y="-241.5" font-family="Helvetica,sans-Serif" font-size="10.00">&#45; forceClose</text>
<polyline fill="none" stroke="black" points="440.5,-234.5 568.5,-234.5 "/>
<text text-anchor="start" x="448.5" y="-222.5" font-family="Helvetica,sans-Serif" font-size="10.00">+ clearStdHeaders()</text>
<text text-anchor="start" x="448.5" y="-211.5" font-family="Helvetica,sans-Serif" font-size="10.00">+ setStdHeaders()</text>
<text text-anchor="start" x="448.5" y="-200.5" font-family="Helvetica,sans-Serif" font-size="10.00">+ appendStdHeaders()</text>
<text text-anchor="start" x="448.5" y="-189.5" font-family="Helvetica,sans-Serif" font-size="10.00">+ appendStdHeaders()</text>
<text text-anchor="start" x="448.5" y="-178.5" font-family="Helvetica,sans-Serif" font-size="10.00">+ appendStdCookie()</text>
<text text-anchor="start" x="448.5" y="-167.5" font-family="Helvetica,sans-Serif" font-size="10.00">+ alwaysClose()</text>
<text text-anchor="start" x="448.5" y="-156.5" font-family="Helvetica,sans-Serif" font-size="10.00"># StaticMiddleware()</text>
<text text-anchor="start" x="448.5" y="-145.5" font-family="Helvetica,sans-Serif" font-size="10.00"># instance()</text>
<text text-anchor="start" x="448.5" y="-134.5" font-family="Helvetica,sans-Serif" font-size="10.00">&#45; StaticMiddleware()</text>
<text text-anchor="start" x="448.5" y="-123.5" font-family="Helvetica,sans-Serif" font-size="10.00">&#45; operator=()</text>
</a>
</g>
</g>
<!-- Node1&#45;&gt;Node6 -->
<g id="edge5" class="edge">
<title>Node1&#45;&gt;Node6</title>
<path fill="none" stroke="midnightblue" d="M421.81,-344.74C427.97,-335.26 434.26,-325.58 440.47,-316.02"/>
<polygon fill="none" stroke="midnightblue" points="418.7,-343.1 416.18,-353.39 424.57,-346.92 418.7,-343.1"/>
</g>
<!-- Node7 -->
<g id="node7" class="node">
<title>Node7</title>
<g id="a_node7"><a xlink:href="classexpress_1_1middleware_1_1_v_host.html" target="_top" xlink:title=" ">
<polygon fill="white" stroke="black" points="587,-177 587,-256 706,-256 706,-177 587,-177"/>
<text text-anchor="start" x="595" y="-244" font-family="Helvetica,sans-Serif" font-size="10.00">express::middleware</text>
<text text-anchor="middle" x="646.5" y="-233" font-family="Helvetica,sans-Serif" font-size="10.00">::VHost</text>
<polyline fill="none" stroke="black" points="587,-226 706,-226 "/>
<text text-anchor="start" x="595" y="-214" font-family="Helvetica,sans-Serif" font-size="10.00">&#45; host</text>
<polyline fill="none" stroke="black" points="587,-207 706,-207 "/>
<text text-anchor="start" x="595" y="-195" font-family="Helvetica,sans-Serif" font-size="10.00"># VHost()</text>
<text text-anchor="start" x="595" y="-184" font-family="Helvetica,sans-Serif" font-size="10.00"># instance()</text>
</a>
</g>
</g>
<!-- Node1&#45;&gt;Node7 -->
<g id="edge6" class="edge">
<title>Node1&#45;&gt;Node7</title>
<path fill="none" stroke="midnightblue" d="M426.86,-409.87C472.36,-389.25 532.94,-357.28 577.5,-317 596.68,-299.66 613.36,-276.01 625.51,-256.12"/>
<polygon fill="none" stroke="midnightblue" points="425.38,-406.69 417.68,-413.96 428.24,-413.08 425.38,-406.69"/>
</g>
<!-- Node3 -->
<g id="node3" class="node">
<title>Node3</title>
<g id="a_node3"><a xlink:href="classexpress_1_1_web_app_t.html" target="_top" xlink:title=" ">
<polygon fill="white" stroke="black" points="0,-0.5 0,-79.5 167,-79.5 167,-0.5 0,-0.5"/>
<text text-anchor="middle" x="83.5" y="-67.5" font-family="Helvetica,sans-Serif" font-size="10.00">express::WebAppT&lt; ServerT &gt;</text>
<polyline fill="none" stroke="black" points="0,-60.5 167,-60.5 "/>
<text text-anchor="middle" x="83.5" y="-48.5" font-family="Helvetica,sans-Serif" font-size="10.00"> </text>
<polyline fill="none" stroke="black" points="0,-41.5 167,-41.5 "/>
<text text-anchor="start" x="8" y="-29.5" font-family="Helvetica,sans-Serif" font-size="10.00">+ WebAppT()</text>
<text text-anchor="start" x="8" y="-18.5" font-family="Helvetica,sans-Serif" font-size="10.00">+ WebAppT()</text>
<text text-anchor="start" x="8" y="-7.5" font-family="Helvetica,sans-Serif" font-size="10.00">+ WebAppT()</text>
</a>
</g>
</g>
<!-- Node2&#45;&gt;Node3 -->
<g id="edge2" class="edge">
<title>Node2&#45;&gt;Node3</title>
<path fill="none" stroke="midnightblue" d="M83.5,-150.25C83.5,-126.45 83.5,-100.31 83.5,-79.56"/>
<polygon fill="none" stroke="midnightblue" points="80,-150.29 83.5,-160.29 87,-150.29 80,-150.29"/>
</g>
</g>
</svg>
