<?xml version="1.0" encoding="UTF-8" standalone="no"?>
<!DOCTYPE svg PUBLIC "-//W3C//DTD SVG 1.1//EN"
 "http://www.w3.org/Graphics/SVG/1.1/DTD/svg11.dtd">
<!-- Generated by graphviz version 2.43.0 (0)
 -->
<!-- Title: net::rc::SocketAddress::SocketAddress Pages: 1 -->
<svg width="455pt" height="103pt"
 viewBox="0.00 0.00 455.00 103.11" xmlns="http://www.w3.org/2000/svg" xmlns:xlink="http://www.w3.org/1999/xlink">
<g id="graph0" class="graph" transform="scale(1 1) rotate(0) translate(4 99.11)">
<title>net::rc::SocketAddress::SocketAddress</title>
<polygon fill="white" stroke="transparent" points="-4,4 -4,-99.11 451,-99.11 451,4 -4,4"/>
<!-- Node1 -->
<g id="node1" class="node">
<title>Node1</title>
<g id="a_node1"><a xlink:title=" ">
<polygon fill="#bfbfbf" stroke="black" points="0,-49.5 0,-79.5 125,-79.5 125,-49.5 0,-49.5"/>
<text text-anchor="start" x="8" y="-67.5" font-family="Helvetica,sans-Serif" font-size="10.00">net::rc::SocketAddress</text>
<text text-anchor="middle" x="62.5" y="-56.5" font-family="Helvetica,sans-Serif" font-size="10.00">::SocketAddress</text>
</a>
</g>
</g>
<!-- Node2 -->
<g id="node2" class="node">
<title>Node2</title>
<g id="a_node2"><a xlink:href="classnet_1_1rc_1_1_socket_address.html#aa73a5f5884bb8e98d44cd12e9c4f0920" target="_top" xlink:title=" ">
<polygon fill="white" stroke="black" points="322,-46.5 322,-76.5 447,-76.5 447,-46.5 322,-46.5"/>
<text text-anchor="start" x="330" y="-64.5" font-family="Helvetica,sans-Serif" font-size="10.00">net::rc::SocketAddress</text>
<text text-anchor="middle" x="384.5" y="-53.5" font-family="Helvetica,sans-Serif" font-size="10.00">::channel</text>
</a>
</g>
</g>
<!-- Node1&#45;&gt;Node2 -->
<g id="edge1" class="edge">
<title>Node1&#45;&gt;Node2</title>
<path fill="none" stroke="midnightblue" d="M112.14,-79.53C127.6,-83.61 144.88,-87.47 161,-89.5 216.12,-96.45 230.99,-97.24 286,-89.5 300.88,-87.41 316.67,-83.6 331.11,-79.45"/>
<polygon fill="midnightblue" stroke="midnightblue" points="332.28,-82.75 340.86,-76.54 330.28,-76.05 332.28,-82.75"/>
</g>
<!-- Node3 -->
<g id="node3" class="node">
<title>Node3</title>
<g id="a_node3"><a xlink:href="classnet_1_1rc_1_1_socket_address.html#a9f0443f07e7900e8f52a2b883750fdc9" target="_top" xlink:title=" ">
<polygon fill="white" stroke="black" points="161,-49.5 161,-79.5 286,-79.5 286,-49.5 161,-49.5"/>
<text text-anchor="start" x="169" y="-67.5" font-family="Helvetica,sans-Serif" font-size="10.00">net::rc::SocketAddress</text>
<text text-anchor="middle" x="223.5" y="-56.5" font-family="Helvetica,sans-Serif" font-size="10.00">::setAddress</text>
</a>
</g>
</g>
<!-- Node1&#45;&gt;Node3 -->
<g id="edge2" class="edge">
<title>Node1&#45;&gt;Node3</title>
<path fill="none" stroke="midnightblue" d="M125.43,-64.5C133.67,-64.5 142.18,-64.5 150.58,-64.5"/>
<polygon fill="midnightblue" stroke="midnightblue" points="150.74,-68 160.74,-64.5 150.74,-61 150.74,-68"/>
</g>
<!-- Node4 -->
<g id="node4" class="node">
<title>Node4</title>
<g id="a_node4"><a xlink:href="classnet_1_1rc_1_1_socket_address.html#a9615ba2db54c4f71473ae89f47c60c45" target="_top" xlink:title=" ">
<polygon fill="white" stroke="black" points="161,-0.5 161,-30.5 286,-30.5 286,-0.5 161,-0.5"/>
<text text-anchor="start" x="169" y="-18.5" font-family="Helvetica,sans-Serif" font-size="10.00">net::rc::SocketAddress</text>
<text text-anchor="middle" x="223.5" y="-7.5" font-family="Helvetica,sans-Serif" font-size="10.00">::setChannel</text>
</a>
</g>
</g>
<!-- Node1&#45;&gt;Node4 -->
<g id="edge3" class="edge">
<title>Node1&#45;&gt;Node4</title>
<path fill="none" stroke="midnightblue" d="M112.5,-49.4C128.75,-44.39 147,-38.77 163.89,-33.56"/>
<polygon fill="midnightblue" stroke="midnightblue" points="165.13,-36.84 173.66,-30.55 163.07,-30.15 165.13,-36.84"/>
</g>
<!-- Node4&#45;&gt;Node2 -->
<g id="edge4" class="edge">
<title>Node4&#45;&gt;Node2</title>
<path fill="none" stroke="midnightblue" d="M276.56,-30.56C291.05,-34.75 306.92,-39.35 321.9,-43.68"/>
<polygon fill="midnightblue" stroke="midnightblue" points="321.01,-47.07 331.59,-46.48 322.96,-40.34 321.01,-47.07"/>
</g>
</g>
</svg>
