<?xml version="1.0" encoding="UTF-8" standalone="no"?>
<!DOCTYPE svg PUBLIC "-//W3C//DTD SVG 1.1//EN"
 "http://www.w3.org/Graphics/SVG/1.1/DTD/svg11.dtd">
<!-- Generated by graphviz version 2.43.0 (0)
 -->
<!-- Title: core::socket::stream::tls::SocketConnection::doReadShutdown Pages: 1 -->
<svg width="958pt" height="247pt"
 viewBox="0.00 0.00 958.00 247.00" xmlns="http://www.w3.org/2000/svg" xmlns:xlink="http://www.w3.org/1999/xlink">
<g id="graph0" class="graph" transform="scale(1 1) rotate(0) translate(4 243)">
<title>core::socket::stream::tls::SocketConnection::doReadShutdown</title>
<polygon fill="white" stroke="transparent" points="-4,4 -4,-243 954,-243 954,4 -4,4"/>
<!-- Node1 -->
<g id="node1" class="node">
<title>Node1</title>
<g id="a_node1"><a xlink:title=" ">
<polygon fill="#bfbfbf" stroke="black" points="0,-44 0,-85 128,-85 128,-44 0,-44"/>
<text text-anchor="start" x="8" y="-73" font-family="Helvetica,sans-Serif" font-size="10.00">core::socket::stream</text>
<text text-anchor="start" x="8" y="-62" font-family="Helvetica,sans-Serif" font-size="10.00">::tls::SocketConnection</text>
<text text-anchor="middle" x="64" y="-51" font-family="Helvetica,sans-Serif" font-size="10.00">::doReadShutdown</text>
</a>
</g>
</g>
<!-- Node2 -->
<g id="node2" class="node">
<title>Node2</title>
<g id="a_node2"><a xlink:href="classcore_1_1_descriptor_event_receiver.html#a4ab422ce6622a29cee38a0108ee6ccc1" target="_top" xlink:title=" ">
<polygon fill="white" stroke="black" points="170.5,-120.5 170.5,-150.5 334.5,-150.5 334.5,-120.5 170.5,-120.5"/>
<text text-anchor="start" x="178.5" y="-138.5" font-family="Helvetica,sans-Serif" font-size="10.00">core::DescriptorEventReceiver</text>
<text text-anchor="middle" x="252.5" y="-127.5" font-family="Helvetica,sans-Serif" font-size="10.00">::disable</text>
</a>
</g>
</g>
<!-- Node1&#45;&gt;Node2 -->
<g id="edge1" class="edge">
<title>Node1&#45;&gt;Node2</title>
<path fill="none" stroke="midnightblue" d="M118.94,-85.04C145.27,-95.06 176.72,-107.03 202.37,-116.8"/>
<polygon fill="midnightblue" stroke="midnightblue" points="201.31,-120.14 211.9,-120.42 203.8,-113.59 201.31,-120.14"/>
</g>
<!-- Node11 -->
<g id="node11" class="node">
<title>Node11</title>
<g id="a_node11"><a xlink:href="classcore_1_1socket_1_1stream_1_1_socket_writer.html#afb7b9fbcd0e7b59b326b13c2428a84a3" target="_top" xlink:title=" ">
<polygon fill="white" stroke="black" points="164,-49.5 164,-79.5 341,-79.5 341,-49.5 164,-49.5"/>
<text text-anchor="start" x="172" y="-67.5" font-family="Helvetica,sans-Serif" font-size="10.00">core::socket::stream</text>
<text text-anchor="middle" x="252.5" y="-56.5" font-family="Helvetica,sans-Serif" font-size="10.00">::SocketWriter::doWriteShutdown</text>
</a>
</g>
</g>
<!-- Node1&#45;&gt;Node11 -->
<g id="edge11" class="edge">
<title>Node1&#45;&gt;Node11</title>
<path fill="none" stroke="midnightblue" d="M128.14,-64.5C136.42,-64.5 145.05,-64.5 153.74,-64.5"/>
<polygon fill="midnightblue" stroke="midnightblue" points="153.94,-68 163.94,-64.5 153.94,-61 153.94,-68"/>
</g>
<!-- Node13 -->
<g id="node13" class="node">
<title>Node13</title>
<g id="a_node13"><a xlink:href="classcore_1_1_descriptor_event_receiver.html#ac5dc7e86ddad09f5bd3eeb0c74f2e7f9" target="_top" xlink:title=" ">
<polygon fill="white" stroke="black" points="170.5,-0.5 170.5,-30.5 334.5,-30.5 334.5,-0.5 170.5,-0.5"/>
<text text-anchor="start" x="178.5" y="-18.5" font-family="Helvetica,sans-Serif" font-size="10.00">core::DescriptorEventReceiver</text>
<text text-anchor="middle" x="252.5" y="-7.5" font-family="Helvetica,sans-Serif" font-size="10.00">::isEnabled</text>
</a>
</g>
</g>
<!-- Node1&#45;&gt;Node13 -->
<g id="edge13" class="edge">
<title>Node1&#45;&gt;Node13</title>
<path fill="none" stroke="midnightblue" d="M128.14,-47.91C146.32,-43.13 166.22,-37.91 184.62,-33.07"/>
<polygon fill="midnightblue" stroke="midnightblue" points="185.6,-36.43 194.38,-30.51 183.82,-29.66 185.6,-36.43"/>
</g>
<!-- Node3 -->
<g id="node3" class="node">
<title>Node3</title>
<g id="a_node3"><a xlink:href="classcore_1_1_descriptor_event_publisher.html#a998d681666ff72ed73cf0799ff4aca77" target="_top" xlink:title=" ">
<polygon fill="white" stroke="black" points="377,-208.5 377,-238.5 544,-238.5 544,-208.5 377,-208.5"/>
<text text-anchor="start" x="385" y="-226.5" font-family="Helvetica,sans-Serif" font-size="10.00">core::DescriptorEventPublisher</text>
<text text-anchor="middle" x="460.5" y="-215.5" font-family="Helvetica,sans-Serif" font-size="10.00">::disable</text>
</a>
</g>
</g>
<!-- Node2&#45;&gt;Node3 -->
<g id="edge2" class="edge">
<title>Node2&#45;&gt;Node3</title>
<path fill="none" stroke="midnightblue" d="M283.61,-150.57C308.41,-162.76 344.63,-180.04 377,-193.5 386.29,-197.36 396.27,-201.22 405.97,-204.83"/>
<polygon fill="midnightblue" stroke="midnightblue" points="404.95,-208.19 415.54,-208.35 407.36,-201.62 404.95,-208.19"/>
</g>
<!-- Node4 -->
<g id="node4" class="node">
<title>Node4</title>
<g id="a_node4"><a xlink:href="classcore_1_1_event_receiver.html#aac62114d8385172bb2c536774a7dfcf7" target="_top" xlink:title=" ">
<polygon fill="white" stroke="black" points="606.5,-151.5 606.5,-181.5 720.5,-181.5 720.5,-151.5 606.5,-151.5"/>
<text text-anchor="start" x="614.5" y="-169.5" font-family="Helvetica,sans-Serif" font-size="10.00">core::EventReceiver</text>
<text text-anchor="middle" x="663.5" y="-158.5" font-family="Helvetica,sans-Serif" font-size="10.00">::getName</text>
</a>
</g>
</g>
<!-- Node2&#45;&gt;Node4 -->
<g id="edge3" class="edge">
<title>Node2&#45;&gt;Node4</title>
<path fill="none" stroke="midnightblue" d="M316.62,-150.54C335.89,-154.51 357.21,-158.31 377,-160.5 451.72,-168.78 538.1,-169.36 596.1,-168.45"/>
<polygon fill="midnightblue" stroke="midnightblue" points="596.3,-171.95 606.24,-168.27 596.18,-164.95 596.3,-171.95"/>
</g>
<!-- Node6 -->
<g id="node6" class="node">
<title>Node6</title>
<g id="a_node6"><a xlink:href="classcore_1_1_descriptor_event_receiver.html#ac80fc901f941c059a6ebdb28147b25a2" target="_top" xlink:title=" ">
<polygon fill="white" stroke="black" points="378.5,-120.5 378.5,-150.5 542.5,-150.5 542.5,-120.5 378.5,-120.5"/>
<text text-anchor="start" x="386.5" y="-138.5" font-family="Helvetica,sans-Serif" font-size="10.00">core::DescriptorEventReceiver</text>
<text text-anchor="middle" x="460.5" y="-127.5" font-family="Helvetica,sans-Serif" font-size="10.00">::isSuspended</text>
</a>
</g>
</g>
<!-- Node2&#45;&gt;Node6 -->
<g id="edge5" class="edge">
<title>Node2&#45;&gt;Node6</title>
<path fill="none" stroke="midnightblue" d="M334.62,-135.5C345.65,-135.5 357.04,-135.5 368.24,-135.5"/>
<polygon fill="midnightblue" stroke="midnightblue" points="368.45,-139 378.45,-135.5 368.45,-132 368.45,-139"/>
</g>
<!-- Node7 -->
<g id="node7" class="node">
<title>Node7</title>
<g id="a_node7"><a xlink:href="classcore_1_1_descriptor_event_receiver.html#aab5e466759c83194c5bc4b41f1a33103" target="_top" xlink:title=" ">
<polygon fill="white" stroke="black" points="378.5,-71.5 378.5,-101.5 542.5,-101.5 542.5,-71.5 378.5,-71.5"/>
<text text-anchor="start" x="386.5" y="-89.5" font-family="Helvetica,sans-Serif" font-size="10.00">core::DescriptorEventReceiver</text>
<text text-anchor="middle" x="460.5" y="-78.5" font-family="Helvetica,sans-Serif" font-size="10.00">::suspend</text>
</a>
</g>
</g>
<!-- Node2&#45;&gt;Node7 -->
<g id="edge6" class="edge">
<title>Node2&#45;&gt;Node7</title>
<path fill="none" stroke="midnightblue" d="M316.71,-120.47C338.75,-115.22 363.68,-109.29 386.46,-103.87"/>
<polygon fill="midnightblue" stroke="midnightblue" points="387.49,-107.23 396.41,-101.51 385.87,-100.42 387.49,-107.23"/>
</g>
<!-- Node5 -->
<g id="node5" class="node">
<title>Node5</title>
<g id="a_node5"><a xlink:href="classcore_1_1_event.html#add8f12b93d4937dcd6a4863cbe4fdb69" target="_top" xlink:title=" ">
<polygon fill="white" stroke="black" points="805.5,-157 805.5,-176 927.5,-176 927.5,-157 805.5,-157"/>
<text text-anchor="middle" x="866.5" y="-164" font-family="Helvetica,sans-Serif" font-size="10.00">core::Event::getName</text>
</a>
</g>
</g>
<!-- Node4&#45;&gt;Node5 -->
<g id="edge4" class="edge">
<title>Node4&#45;&gt;Node5</title>
<path fill="none" stroke="midnightblue" d="M720.76,-166.5C743.82,-166.5 770.78,-166.5 795.13,-166.5"/>
<polygon fill="midnightblue" stroke="midnightblue" points="795.39,-170 805.39,-166.5 795.39,-163 795.39,-170"/>
</g>
<!-- Node7&#45;&gt;Node4 -->
<g id="edge7" class="edge">
<title>Node7&#45;&gt;Node4</title>
<path fill="none" stroke="midnightblue" d="M515.13,-101.55C524.82,-104.61 534.77,-107.98 544,-111.5 571.19,-121.87 600.9,-135.67 623.77,-146.84"/>
<polygon fill="midnightblue" stroke="midnightblue" points="622.29,-150.02 632.8,-151.3 625.38,-143.74 622.29,-150.02"/>
</g>
<!-- Node8 -->
<g id="node8" class="node">
<title>Node8</title>
<g id="a_node8"><a xlink:href="classcore_1_1_observer.html#a12bf1ddfdb90f05f28d16c09ce0658f8" target="_top" xlink:title=" ">
<polygon fill="white" stroke="black" points="589,-89 589,-108 738,-108 738,-89 589,-89"/>
<text text-anchor="middle" x="663.5" y="-96" font-family="Helvetica,sans-Serif" font-size="10.00">core::Observer::isObserved</text>
</a>
</g>
</g>
<!-- Node7&#45;&gt;Node8 -->
<g id="edge8" class="edge">
<title>Node7&#45;&gt;Node8</title>
<path fill="none" stroke="midnightblue" d="M542.68,-91.35C554.47,-92.05 566.64,-92.78 578.49,-93.48"/>
<polygon fill="midnightblue" stroke="midnightblue" points="578.62,-97 588.81,-94.1 579.04,-90.01 578.62,-97"/>
</g>
<!-- Node9 -->
<g id="node9" class="node">
<title>Node9</title>
<g id="a_node9"><a xlink:href="classcore_1_1_descriptor_event_publisher.html#ac1bfb115c6aba58d380862a43db457e8" target="_top" xlink:title=" ">
<polygon fill="white" stroke="black" points="580,-39.5 580,-69.5 747,-69.5 747,-39.5 580,-39.5"/>
<text text-anchor="start" x="588" y="-57.5" font-family="Helvetica,sans-Serif" font-size="10.00">core::DescriptorEventPublisher</text>
<text text-anchor="middle" x="663.5" y="-46.5" font-family="Helvetica,sans-Serif" font-size="10.00">::suspend</text>
</a>
</g>
</g>
<!-- Node7&#45;&gt;Node9 -->
<g id="edge9" class="edge">
<title>Node7&#45;&gt;Node9</title>
<path fill="none" stroke="midnightblue" d="M542.68,-73.58C551.54,-72.17 560.62,-70.72 569.61,-69.29"/>
<polygon fill="midnightblue" stroke="midnightblue" points="570.39,-72.71 579.71,-67.68 569.29,-65.8 570.39,-72.71"/>
</g>
<!-- Node10 -->
<g id="node10" class="node">
<title>Node10</title>
<g id="a_node10"><a xlink:href="classcore_1_1_descriptor_event_publisher.html#a5e0e1a78a4bae48537ba6d0425a7c1cf" target="_top" xlink:title=" ">
<polygon fill="white" stroke="black" points="783,-39.5 783,-69.5 950,-69.5 950,-39.5 783,-39.5"/>
<text text-anchor="start" x="791" y="-57.5" font-family="Helvetica,sans-Serif" font-size="10.00">core::DescriptorEventPublisher</text>
<text text-anchor="middle" x="866.5" y="-46.5" font-family="Helvetica,sans-Serif" font-size="10.00">::muxOff</text>
</a>
</g>
</g>
<!-- Node9&#45;&gt;Node10 -->
<g id="edge10" class="edge">
<title>Node9&#45;&gt;Node10</title>
<path fill="none" stroke="midnightblue" d="M747.12,-54.5C755.61,-54.5 764.27,-54.5 772.85,-54.5"/>
<polygon fill="midnightblue" stroke="midnightblue" points="772.87,-58 782.87,-54.5 772.87,-51 772.87,-58"/>
</g>
<!-- Node12 -->
<g id="node12" class="node">
<title>Node12</title>
<g id="a_node12"><a xlink:href="namespacecore_1_1system.html#a09a73e9e38f3f98d7ca380cd663facef" target="_top" xlink:title=" ">
<polygon fill="white" stroke="black" points="394,-33 394,-52 527,-52 527,-33 394,-33"/>
<text text-anchor="middle" x="460.5" y="-40" font-family="Helvetica,sans-Serif" font-size="10.00">core::system::shutdown</text>
</a>
</g>
</g>
<!-- Node11&#45;&gt;Node12 -->
<g id="edge12" class="edge">
<title>Node11&#45;&gt;Node12</title>
<path fill="none" stroke="midnightblue" d="M341.16,-55.14C355.35,-53.62 369.93,-52.07 383.81,-50.58"/>
<polygon fill="midnightblue" stroke="midnightblue" points="384.19,-54.06 393.76,-49.52 383.45,-47.1 384.19,-54.06"/>
</g>
</g>
</svg>
