<?xml version="1.0" encoding="UTF-8" standalone="no"?>
<!DOCTYPE svg PUBLIC "-//W3C//DTD SVG 1.1//EN"
 "http://www.w3.org/Graphics/SVG/1.1/DTD/svg11.dtd">
<!-- Generated by graphviz version 2.43.0 (0)
 -->
<!-- Title: core::SNodeC::init Pages: 1 -->
<svg width="1255pt" height="584pt"
 viewBox="0.00 0.00 1255.00 584.00" xmlns="http://www.w3.org/2000/svg" xmlns:xlink="http://www.w3.org/1999/xlink">
<g id="graph0" class="graph" transform="scale(1 1) rotate(0) translate(4 580)">
<title>core::SNodeC::init</title>
<polygon fill="white" stroke="transparent" points="-4,4 -4,-580 1251,-580 1251,4 -4,4"/>
<!-- Node1 -->
<g id="node1" class="node">
<title>Node1</title>
<g id="a_node1"><a xlink:title=" ">
<polygon fill="#bfbfbf" stroke="black" points="0,-221.5 0,-240.5 104,-240.5 104,-221.5 0,-221.5"/>
<text text-anchor="middle" x="52" y="-228.5" font-family="Helvetica,sans-Serif" font-size="10.00">core::SNodeC::init</text>
</a>
</g>
</g>
<!-- Node2 -->
<g id="node2" class="node">
<title>Node2</title>
<g id="a_node2"><a xlink:href="classcore_1_1_event_loop.html#a646626e7bf61e04877f71473b49e90ca" target="_top" xlink:title=" ">
<polygon fill="white" stroke="black" points="140,-221.5 140,-240.5 256,-240.5 256,-221.5 140,-221.5"/>
<text text-anchor="middle" x="198" y="-228.5" font-family="Helvetica,sans-Serif" font-size="10.00">core::EventLoop::init</text>
</a>
</g>
</g>
<!-- Node1&#45;&gt;Node2 -->
<g id="edge1" class="edge">
<title>Node1&#45;&gt;Node2</title>
<path fill="none" stroke="midnightblue" d="M104.17,-231C112.34,-231 120.89,-231 129.36,-231"/>
<polygon fill="midnightblue" stroke="midnightblue" points="129.62,-234.5 139.62,-231 129.62,-227.5 129.62,-234.5"/>
</g>
<!-- Node3 -->
<g id="node3" class="node">
<title>Node3</title>
<g id="a_node3"><a xlink:href="namespacecore.html#a03cf89793e75ef6946726172453454d0" target="_top" xlink:title=" ">
<polygon fill="white" stroke="black" points="322,-518.5 322,-537.5 420,-537.5 420,-518.5 322,-518.5"/>
<text text-anchor="middle" x="371" y="-525.5" font-family="Helvetica,sans-Serif" font-size="10.00">core::daemonize</text>
</a>
</g>
</g>
<!-- Node2&#45;&gt;Node3 -->
<g id="edge2" class="edge">
<title>Node2&#45;&gt;Node3</title>
<path fill="none" stroke="midnightblue" d="M203.07,-240.8C215.11,-269.41 252.18,-354.95 292,-421 311.94,-454.07 339.3,-489.82 355.75,-510.49"/>
<polygon fill="midnightblue" stroke="midnightblue" points="353.09,-512.76 362.09,-518.37 358.55,-508.38 353.09,-512.76"/>
</g>
<!-- Node6 -->
<g id="node6" class="node">
<title>Node6</title>
<g id="a_node6"><a xlink:href="classutils_1_1_config.html#ac4a7891bc8018035e9c6050883f4c375" target="_top" xlink:title=" ">
<polygon fill="white" stroke="black" points="305.5,-392.5 305.5,-411.5 436.5,-411.5 436.5,-392.5 305.5,-392.5"/>
<text text-anchor="middle" x="371" y="-399.5" font-family="Helvetica,sans-Serif" font-size="10.00">utils::Config::getLogFile</text>
</a>
</g>
</g>
<!-- Node2&#45;&gt;Node6 -->
<g id="edge5" class="edge">
<title>Node2&#45;&gt;Node6</title>
<path fill="none" stroke="midnightblue" d="M201.97,-240.64C210.83,-267.7 239.77,-344.89 292,-383 294.65,-384.93 297.46,-386.67 300.4,-388.23"/>
<polygon fill="midnightblue" stroke="midnightblue" points="298.95,-391.42 309.5,-392.41 301.87,-385.05 298.95,-391.42"/>
</g>
<!-- Node7 -->
<g id="node7" class="node">
<title>Node7</title>
<g id="a_node7"><a xlink:href="namespacecore.html#ac82d0e7a5fcc66169eb61cb7dd27b814" target="_top" xlink:title=" ">
<polygon fill="white" stroke="black" points="292,-354.5 292,-373.5 450,-373.5 450,-354.5 292,-354.5"/>
<text text-anchor="middle" x="371" y="-361.5" font-family="Helvetica,sans-Serif" font-size="10.00">core::getTickCounterAsString</text>
</a>
</g>
</g>
<!-- Node2&#45;&gt;Node7 -->
<g id="edge6" class="edge">
<title>Node2&#45;&gt;Node7</title>
<path fill="none" stroke="midnightblue" d="M211.3,-240.57C240.24,-263.08 312.94,-319.62 349.02,-347.68"/>
<polygon fill="midnightblue" stroke="midnightblue" points="347.31,-350.79 357.35,-354.16 351.61,-345.26 347.31,-350.79"/>
</g>
<!-- Node10 -->
<g id="node10" class="node">
<title>Node10</title>
<g id="a_node10"><a xlink:href="classutils_1_1_config.html#a274c132d65a1905fd124d6b235faad71" target="_top" xlink:title=" ">
<polygon fill="white" stroke="black" points="322.5,-259.5 322.5,-278.5 419.5,-278.5 419.5,-259.5 322.5,-259.5"/>
<text text-anchor="middle" x="371" y="-266.5" font-family="Helvetica,sans-Serif" font-size="10.00">utils::Config::init</text>
</a>
</g>
</g>
<!-- Node2&#45;&gt;Node10 -->
<g id="edge9" class="edge">
<title>Node2&#45;&gt;Node10</title>
<path fill="none" stroke="midnightblue" d="M242.15,-240.59C264.92,-245.65 293.05,-251.9 317.12,-257.25"/>
<polygon fill="midnightblue" stroke="midnightblue" points="316.64,-260.73 327.16,-259.48 318.16,-253.89 316.64,-260.73"/>
</g>
<!-- Node29 -->
<g id="node29" class="node">
<title>Node29</title>
<g id="a_node29"><a xlink:href="classlogger_1_1_logger.html#ae9110417eeb7d90905d72e0ff6fd9212" target="_top" xlink:title=" ">
<polygon fill="white" stroke="black" points="317,-221.5 317,-240.5 425,-240.5 425,-221.5 317,-221.5"/>
<text text-anchor="middle" x="371" y="-228.5" font-family="Helvetica,sans-Serif" font-size="10.00">logger::Logger::init</text>
</a>
</g>
</g>
<!-- Node2&#45;&gt;Node29 -->
<g id="edge30" class="edge">
<title>Node2&#45;&gt;Node29</title>
<path fill="none" stroke="midnightblue" d="M256.42,-231C272.57,-231 290.22,-231 306.69,-231"/>
<polygon fill="midnightblue" stroke="midnightblue" points="306.77,-234.5 316.77,-231 306.77,-227.5 306.77,-234.5"/>
</g>
<!-- Node31 -->
<g id="node31" class="node">
<title>Node31</title>
<g id="a_node31"><a xlink:href="classutils_1_1_config.html#ad13f9cf22d17f1f3e1e5150d6acd865a" target="_top" xlink:title=" ">
<polygon fill="white" stroke="black" points="310,-183.5 310,-202.5 432,-202.5 432,-183.5 310,-183.5"/>
<text text-anchor="middle" x="371" y="-190.5" font-family="Helvetica,sans-Serif" font-size="10.00">utils::Config::instance</text>
</a>
</g>
</g>
<!-- Node2&#45;&gt;Node31 -->
<g id="edge32" class="edge">
<title>Node2&#45;&gt;Node31</title>
<path fill="none" stroke="midnightblue" d="M242.15,-221.41C264.92,-216.35 293.05,-210.1 317.12,-204.75"/>
<polygon fill="midnightblue" stroke="midnightblue" points="318.16,-208.11 327.16,-202.52 316.64,-201.27 318.16,-208.11"/>
</g>
<!-- Node32 -->
<g id="node32" class="node">
<title>Node32</title>
<g id="a_node32"><a xlink:href="classlogger_1_1_logger.html#a2fe71814296a418393065c3c7299ff41" target="_top" xlink:title=" ">
<polygon fill="white" stroke="black" points="304,-145.5 304,-164.5 438,-164.5 438,-145.5 304,-145.5"/>
<text text-anchor="middle" x="371" y="-152.5" font-family="Helvetica,sans-Serif" font-size="10.00">logger::Logger::logToFile</text>
</a>
</g>
</g>
<!-- Node2&#45;&gt;Node32 -->
<g id="edge33" class="edge">
<title>Node2&#45;&gt;Node32</title>
<path fill="none" stroke="midnightblue" d="M211.85,-221.32C229.18,-208.69 261.4,-186.73 292,-174 297.91,-171.54 304.21,-169.35 310.57,-167.41"/>
<polygon fill="midnightblue" stroke="midnightblue" points="311.91,-170.67 320.57,-164.58 310,-163.94 311.91,-170.67"/>
</g>
<!-- Node33 -->
<g id="node33" class="node">
<title>Node33</title>
<g id="a_node33"><a xlink:href="classlogger_1_1_logger.html#a9eece213fbcc8ebf67fd69fc73a0dd4b" target="_top" xlink:title=" ">
<polygon fill="white" stroke="black" points="312.5,-107.5 312.5,-126.5 429.5,-126.5 429.5,-107.5 312.5,-107.5"/>
<text text-anchor="middle" x="371" y="-114.5" font-family="Helvetica,sans-Serif" font-size="10.00">logger::Logger::quiet</text>
</a>
</g>
</g>
<!-- Node2&#45;&gt;Node33 -->
<g id="edge34" class="edge">
<title>Node2&#45;&gt;Node33</title>
<path fill="none" stroke="midnightblue" d="M205.45,-221.48C219.06,-202.18 252.69,-158.38 292,-136 295.92,-133.77 300.1,-131.8 304.4,-130.06"/>
<polygon fill="midnightblue" stroke="midnightblue" points="305.76,-133.29 313.98,-126.6 303.39,-126.7 305.76,-133.29"/>
</g>
<!-- Node34 -->
<g id="node34" class="node">
<title>Node34</title>
<g id="a_node34"><a xlink:href="classlogger_1_1_logger.html#a545211a93eadc019ebe4301426594a69" target="_top" xlink:title=" ">
<polygon fill="white" stroke="black" points="298.5,-58 298.5,-88 443.5,-88 443.5,-58 298.5,-58"/>
<text text-anchor="start" x="306.5" y="-76" font-family="Helvetica,sans-Serif" font-size="10.00">logger::Logger::setCustom</text>
<text text-anchor="middle" x="371" y="-65" font-family="Helvetica,sans-Serif" font-size="10.00">FormatSpec</text>
</a>
</g>
</g>
<!-- Node2&#45;&gt;Node34 -->
<g id="edge35" class="edge">
<title>Node2&#45;&gt;Node34</title>
<path fill="none" stroke="midnightblue" d="M203.07,-221.35C213.84,-196.94 245.51,-132.28 292,-98 294.63,-96.06 297.42,-94.26 300.32,-92.61"/>
<polygon fill="midnightblue" stroke="midnightblue" points="301.96,-95.7 309.28,-88.03 298.78,-89.46 301.96,-95.7"/>
</g>
<!-- Node4 -->
<g id="node4" class="node">
<title>Node4</title>
<g id="a_node4"><a xlink:href="namespacecore_1_1system.html#a2aa41abc7d6ba9da2e5035b74608919a" target="_top" xlink:title=" ">
<polygon fill="white" stroke="black" points="511,-556.5 511,-575.5 622,-575.5 622,-556.5 511,-556.5"/>
<text text-anchor="middle" x="566.5" y="-563.5" font-family="Helvetica,sans-Serif" font-size="10.00">core::system::close</text>
</a>
</g>
</g>
<!-- Node3&#45;&gt;Node4 -->
<g id="edge3" class="edge">
<title>Node3&#45;&gt;Node4</title>
<path fill="none" stroke="midnightblue" d="M420.33,-537.49C446.65,-542.66 479.41,-549.09 507.15,-554.54"/>
<polygon fill="midnightblue" stroke="midnightblue" points="506.63,-558.01 517.12,-556.5 507.98,-551.14 506.63,-558.01"/>
</g>
<!-- Node5 -->
<g id="node5" class="node">
<title>Node5</title>
<g id="a_node5"><a xlink:href="namespacecore_1_1system.html#a0e5e3b39e66ee4db8b9bb6065e693d0a" target="_top" xlink:title=" ">
<polygon fill="white" stroke="black" points="509,-518.5 509,-537.5 624,-537.5 624,-518.5 509,-518.5"/>
<text text-anchor="middle" x="566.5" y="-525.5" font-family="Helvetica,sans-Serif" font-size="10.00">core::system::signal</text>
</a>
</g>
</g>
<!-- Node3&#45;&gt;Node5 -->
<g id="edge4" class="edge">
<title>Node3&#45;&gt;Node5</title>
<path fill="none" stroke="midnightblue" d="M420.33,-528C444.05,-528 472.99,-528 498.78,-528"/>
<polygon fill="midnightblue" stroke="midnightblue" points="498.87,-531.5 508.87,-528 498.87,-524.5 498.87,-531.5"/>
</g>
<!-- Node8 -->
<g id="node8" class="node">
<title>Node8</title>
<g id="a_node8"><a xlink:href="classcore_1_1_event_loop.html#aef20810c9fcf4c7b33a5b6dbab1973b9" target="_top" xlink:title=" ">
<polygon fill="white" stroke="black" points="498.5,-469 498.5,-499 634.5,-499 634.5,-469 498.5,-469"/>
<text text-anchor="start" x="506.5" y="-487" font-family="Helvetica,sans-Serif" font-size="10.00">core::EventLoop::getTick</text>
<text text-anchor="middle" x="566.5" y="-476" font-family="Helvetica,sans-Serif" font-size="10.00">Counter</text>
</a>
</g>
</g>
<!-- Node7&#45;&gt;Node8 -->
<g id="edge7" class="edge">
<title>Node7&#45;&gt;Node8</title>
<path fill="none" stroke="midnightblue" d="M434.1,-373.54C439.82,-376.02 445.25,-379.13 450,-383 478.98,-406.61 457.82,-434.45 486,-459 487.96,-460.7 490.03,-462.29 492.19,-463.77"/>
<polygon fill="midnightblue" stroke="midnightblue" points="490.54,-466.86 500.93,-468.96 494.12,-460.85 490.54,-466.86"/>
</g>
<!-- Node9 -->
<g id="node9" class="node">
<title>Node9</title>
<g id="a_node9"><a xlink:href="namespace_c_l_i_1_1detail.html#a0e94052d485636fc9f18c21009026577" target="_top" xlink:title="Convert an object to a string (directly forward if this can become a string)">
<polygon fill="white" stroke="black" points="509.5,-430.5 509.5,-449.5 623.5,-449.5 623.5,-430.5 509.5,-430.5"/>
<text text-anchor="middle" x="566.5" y="-437.5" font-family="Helvetica,sans-Serif" font-size="10.00">CLI::detail::to_string</text>
</a>
</g>
</g>
<!-- Node7&#45;&gt;Node9 -->
<g id="edge8" class="edge">
<title>Node7&#45;&gt;Node9</title>
<path fill="none" stroke="midnightblue" d="M428.48,-373.63C435.99,-376.08 443.37,-379.15 450,-383 470.12,-394.67 465.85,-409.37 486,-421 490.23,-423.44 494.76,-425.57 499.44,-427.43"/>
<polygon fill="midnightblue" stroke="midnightblue" points="498.59,-430.84 509.19,-430.87 500.92,-424.24 498.59,-430.84"/>
</g>
<!-- Node11 -->
<g id="node11" class="node">
<title>Node11</title>
<g id="a_node11"><a xlink:href="class_c_l_i_1_1_app.html#a8f7500a81c09b8eecc301226e018ddfe" target="_top" xlink:title="Add a flag with no description or variable assignment.">
<polygon fill="white" stroke="black" points="514.5,-392.5 514.5,-411.5 618.5,-411.5 618.5,-392.5 514.5,-392.5"/>
<text text-anchor="middle" x="566.5" y="-399.5" font-family="Helvetica,sans-Serif" font-size="10.00">CLI::App::add_flag</text>
</a>
</g>
</g>
<!-- Node10&#45;&gt;Node11 -->
<g id="edge10" class="edge">
<title>Node10&#45;&gt;Node11</title>
<path fill="none" stroke="midnightblue" d="M382.22,-278.71C397.25,-293.04 426.1,-320.77 450,-345 466.33,-361.57 465.85,-371.37 486,-383 491.78,-386.34 498.12,-389.09 504.62,-391.36"/>
<polygon fill="midnightblue" stroke="midnightblue" points="503.62,-394.71 514.21,-394.35 505.7,-388.03 503.62,-394.71"/>
</g>
<!-- Node12 -->
<g id="node12" class="node">
<title>Node12</title>
<g id="a_node12"><a xlink:href="class_c_l_i_1_1_app.html#a1f9503a8cdceb4e5b42c9fd4ae6b7b10" target="_top" xlink:title=" ">
<polygon fill="white" stroke="black" points="508.5,-354.5 508.5,-373.5 624.5,-373.5 624.5,-354.5 508.5,-354.5"/>
<text text-anchor="middle" x="566.5" y="-361.5" font-family="Helvetica,sans-Serif" font-size="10.00">CLI::App::add_option</text>
</a>
</g>
</g>
<!-- Node10&#45;&gt;Node12 -->
<g id="edge11" class="edge">
<title>Node10&#45;&gt;Node12</title>
<path fill="none" stroke="midnightblue" d="M383.5,-278.71C403.19,-294.86 445.23,-327.22 486,-345 491.72,-347.49 497.82,-349.69 504,-351.62"/>
<polygon fill="midnightblue" stroke="midnightblue" points="503.16,-355.02 513.74,-354.44 505.1,-348.3 503.16,-355.02"/>
</g>
<!-- Node13 -->
<g id="node13" class="node">
<title>Node13</title>
<g id="a_node13"><a xlink:href="class_c_l_i_1_1_option_base.html#affbb9fb4e20744e377767952507503f0" target="_top" xlink:title="Allow in a configuration file.">
<polygon fill="white" stroke="black" points="486,-316.5 486,-335.5 647,-335.5 647,-316.5 486,-316.5"/>
<text text-anchor="middle" x="566.5" y="-323.5" font-family="Helvetica,sans-Serif" font-size="10.00">CLI::OptionBase::configurable</text>
</a>
</g>
</g>
<!-- Node10&#45;&gt;Node13 -->
<g id="edge12" class="edge">
<title>Node10&#45;&gt;Node13</title>
<path fill="none" stroke="midnightblue" d="M398.51,-278.57C421.49,-286.68 455.71,-298.35 486,-307 494.53,-309.43 503.63,-311.81 512.51,-314.02"/>
<polygon fill="midnightblue" stroke="midnightblue" points="511.87,-317.46 522.41,-316.43 513.52,-310.66 511.87,-317.46"/>
</g>
<!-- Node14 -->
<g id="node14" class="node">
<title>Node14</title>
<g id="a_node14"><a xlink:href="class_c_l_i_1_1_app.html#ac882ae7b667d460501d77aebfd9a5d26" target="_top" xlink:title=" ">
<polygon fill="white" stroke="black" points="522,-278.5 522,-297.5 611,-297.5 611,-278.5 522,-278.5"/>
<text text-anchor="middle" x="566.5" y="-285.5" font-family="Helvetica,sans-Serif" font-size="10.00">CLI::App::count</text>
</a>
</g>
</g>
<!-- Node10&#45;&gt;Node14 -->
<g id="edge13" class="edge">
<title>Node10&#45;&gt;Node14</title>
<path fill="none" stroke="midnightblue" d="M419.83,-273.7C447.64,-276.43 482.77,-279.88 511.56,-282.7"/>
<polygon fill="midnightblue" stroke="midnightblue" points="511.56,-286.22 521.85,-283.71 512.24,-279.25 511.56,-286.22"/>
</g>
<!-- Node15 -->
<g id="node15" class="node">
<title>Node15</title>
<g id="a_node15"><a xlink:href="class_c_l_i_1_1_app.html#a5c26c64a49536e623739685f42475fc2" target="_top" xlink:title="Set the description of the app.">
<polygon fill="white" stroke="black" points="508.5,-240.5 508.5,-259.5 624.5,-259.5 624.5,-240.5 508.5,-240.5"/>
<text text-anchor="middle" x="566.5" y="-247.5" font-family="Helvetica,sans-Serif" font-size="10.00">CLI::App::description</text>
</a>
</g>
</g>
<!-- Node10&#45;&gt;Node15 -->
<g id="edge14" class="edge">
<title>Node10&#45;&gt;Node15</title>
<path fill="none" stroke="midnightblue" d="M419.83,-264.3C443.44,-261.98 472.33,-259.15 498.14,-256.61"/>
<polygon fill="midnightblue" stroke="midnightblue" points="498.63,-260.08 508.24,-255.62 497.94,-253.12 498.63,-260.08"/>
</g>
<!-- Node16 -->
<g id="node16" class="node">
<title>Node16</title>
<g id="a_node16"><a xlink:href="classutils_1_1_config.html#aa5ea623fdeef48f8a74ae158d3292b11" target="_top" xlink:title=" ">
<polygon fill="white" stroke="black" points="512.5,-202.5 512.5,-221.5 620.5,-221.5 620.5,-202.5 512.5,-202.5"/>
<text text-anchor="middle" x="566.5" y="-209.5" font-family="Helvetica,sans-Serif" font-size="10.00">utils::Config::parse</text>
</a>
</g>
</g>
<!-- Node10&#45;&gt;Node16 -->
<g id="edge15" class="edge">
<title>Node10&#45;&gt;Node16</title>
<path fill="none" stroke="midnightblue" d="M419.18,-259.49C429.48,-256.87 440.23,-253.7 450,-250 466.92,-243.59 469.07,-237.38 486,-231 492.76,-228.46 499.97,-226.17 507.19,-224.15"/>
<polygon fill="midnightblue" stroke="midnightblue" points="508.22,-227.49 516.99,-221.54 506.43,-220.73 508.22,-227.49"/>
</g>
<!-- Node23 -->
<g id="node23" class="node">
<title>Node23</title>
<g id="a_node23"><a xlink:href="class_c_l_i_1_1_app.html#a5775e30426fb3eb1c5f244d4e649601b" target="_top" xlink:title="Set a configuration ini file option, or clear it if no name passed.">
<polygon fill="white" stroke="black" points="510,-164.5 510,-183.5 623,-183.5 623,-164.5 510,-164.5"/>
<text text-anchor="middle" x="566.5" y="-171.5" font-family="Helvetica,sans-Serif" font-size="10.00">CLI::App::set_config</text>
</a>
</g>
</g>
<!-- Node10&#45;&gt;Node23 -->
<g id="edge24" class="edge">
<title>Node10&#45;&gt;Node23</title>
<path fill="none" stroke="midnightblue" d="M419.89,-263.42C430.48,-260.59 441.17,-256.34 450,-250 474.33,-232.51 461.63,-210.43 486,-193 490.29,-189.93 495.01,-187.35 499.95,-185.19"/>
<polygon fill="midnightblue" stroke="midnightblue" points="501.53,-188.33 509.64,-181.51 499.05,-181.78 501.53,-188.33"/>
</g>
<!-- Node24 -->
<g id="node24" class="node">
<title>Node24</title>
<g id="a_node24"><a xlink:href="class_c_l_i_1_1_app.html#a48b15f921a89e4d7c23fc6c79247d2f7" target="_top" xlink:title="Set a help all flag, replaced the existing one if present.">
<polygon fill="white" stroke="black" points="514.5,-115 514.5,-145 618.5,-145 618.5,-115 514.5,-115"/>
<text text-anchor="start" x="522.5" y="-133" font-family="Helvetica,sans-Serif" font-size="10.00">CLI::App::set_help</text>
<text text-anchor="middle" x="566.5" y="-122" font-family="Helvetica,sans-Serif" font-size="10.00">_all_flag</text>
</a>
</g>
</g>
<!-- Node10&#45;&gt;Node24 -->
<g id="edge25" class="edge">
<title>Node10&#45;&gt;Node24</title>
<path fill="none" stroke="midnightblue" d="M419.66,-264.98C430.63,-262.12 441.54,-257.48 450,-250 483.83,-220.1 453.17,-186 486,-155 491.42,-149.88 497.89,-145.81 504.76,-142.57"/>
<polygon fill="midnightblue" stroke="midnightblue" points="506.38,-145.68 514.31,-138.65 503.73,-139.21 506.38,-145.68"/>
</g>
<!-- Node25 -->
<g id="node25" class="node">
<title>Node25</title>
<g id="a_node25"><a xlink:href="classutils_1_1_config.html#a1d83550529d04504183ab3abdab72608" target="_top" xlink:title=" ">
<polygon fill="white" stroke="black" points="496.5,-76.5 496.5,-95.5 636.5,-95.5 636.5,-76.5 496.5,-76.5"/>
<text text-anchor="middle" x="566.5" y="-83.5" font-family="Helvetica,sans-Serif" font-size="10.00">utils::Config::setRequired</text>
</a>
</g>
</g>
<!-- Node10&#45;&gt;Node25 -->
<g id="edge26" class="edge">
<title>Node10&#45;&gt;Node25</title>
<path fill="none" stroke="midnightblue" d="M419.89,-265.77C430.99,-262.91 441.9,-258.06 450,-250 497.06,-203.15 438.84,-151.75 486,-105 487.44,-103.58 488.96,-102.25 490.55,-101.02"/>
<polygon fill="midnightblue" stroke="midnightblue" points="492.51,-103.93 499.07,-95.61 488.75,-98.02 492.51,-103.93"/>
</g>
<!-- Node28 -->
<g id="node28" class="node">
<title>Node28</title>
<g id="a_node28"><a xlink:href="class_c_l_i_1_1_option.html#addaddebd60f66aaedc13e5fb473db902" target="_top" xlink:title="Set a custom option typestring.">
<polygon fill="white" stroke="black" points="501,-38.5 501,-57.5 632,-57.5 632,-38.5 501,-38.5"/>
<text text-anchor="middle" x="566.5" y="-45.5" font-family="Helvetica,sans-Serif" font-size="10.00">CLI::Option::type_name</text>
</a>
</g>
</g>
<!-- Node10&#45;&gt;Node28 -->
<g id="edge29" class="edge">
<title>Node10&#45;&gt;Node28</title>
<path fill="none" stroke="midnightblue" d="M419.77,-266.15C430.99,-263.3 442,-258.36 450,-250 507.29,-190.09 428.58,-126.78 486,-67 487.85,-65.07 489.86,-63.33 491.99,-61.75"/>
<polygon fill="midnightblue" stroke="midnightblue" points="494.02,-64.61 500.75,-56.43 490.39,-58.62 494.02,-64.61"/>
</g>
<!-- Node17 -->
<g id="node17" class="node">
<title>Node17</title>
<g id="a_node17"><a xlink:href="class_c_l_i_1_1_app.html#aac000657ef11647125ba91af38fd7d9c" target="_top" xlink:title="Print a nice error message and return the exit code.">
<polygon fill="white" stroke="black" points="703.5,-221.5 703.5,-240.5 784.5,-240.5 784.5,-221.5 703.5,-221.5"/>
<text text-anchor="middle" x="744" y="-228.5" font-family="Helvetica,sans-Serif" font-size="10.00">CLI::App::exit</text>
</a>
</g>
</g>
<!-- Node16&#45;&gt;Node17 -->
<g id="edge16" class="edge">
<title>Node16&#45;&gt;Node17</title>
<path fill="none" stroke="midnightblue" d="M620.63,-217.75C643.73,-220.25 670.64,-223.17 693.33,-225.62"/>
<polygon fill="midnightblue" stroke="midnightblue" points="693.11,-229.12 703.43,-226.72 693.86,-222.16 693.11,-229.12"/>
</g>
<!-- Node22 -->
<g id="node22" class="node">
<title>Node22</title>
<g id="a_node22"><a xlink:href="class_c_l_i_1_1_app.html#a5ddf139d5fe065289aca7b83d5d045d9" target="_top" xlink:title=" ">
<polygon fill="white" stroke="black" points="699.5,-183.5 699.5,-202.5 788.5,-202.5 788.5,-183.5 699.5,-183.5"/>
<text text-anchor="middle" x="744" y="-190.5" font-family="Helvetica,sans-Serif" font-size="10.00">CLI::App::parse</text>
</a>
</g>
</g>
<!-- Node16&#45;&gt;Node22 -->
<g id="edge23" class="edge">
<title>Node16&#45;&gt;Node22</title>
<path fill="none" stroke="midnightblue" d="M620.63,-206.25C642.41,-203.89 667.57,-201.17 689.39,-198.8"/>
<polygon fill="midnightblue" stroke="midnightblue" points="689.91,-202.27 699.48,-197.71 689.16,-195.31 689.91,-202.27"/>
</g>
<!-- Node18 -->
<g id="node18" class="node">
<title>Node18</title>
<g id="a_node18"><a xlink:href="class_c_l_i_1_1_error.html#a24faca884e953e6366bdb8d84d631588" target="_top" xlink:title=" ">
<polygon fill="white" stroke="black" points="841,-259.5 841,-278.5 976,-278.5 976,-259.5 841,-259.5"/>
<text text-anchor="middle" x="908.5" y="-266.5" font-family="Helvetica,sans-Serif" font-size="10.00">CLI::Error::get_exit_code</text>
</a>
</g>
</g>
<!-- Node17&#45;&gt;Node18 -->
<g id="edge17" class="edge">
<title>Node17&#45;&gt;Node18</title>
<path fill="none" stroke="midnightblue" d="M784.75,-240.3C806.44,-245.37 833.53,-251.7 856.73,-257.13"/>
<polygon fill="midnightblue" stroke="midnightblue" points="856.21,-260.6 866.75,-259.47 857.81,-253.78 856.21,-260.6"/>
</g>
<!-- Node19 -->
<g id="node19" class="node">
<title>Node19</title>
<g id="a_node19"><a xlink:href="class_c_l_i_1_1_error.html#a725f16d721c2320ba75b4d6c99d2056a" target="_top" xlink:title=" ">
<polygon fill="white" stroke="black" points="1131,-183.5 1131,-202.5 1247,-202.5 1247,-183.5 1131,-183.5"/>
<text text-anchor="middle" x="1189" y="-190.5" font-family="Helvetica,sans-Serif" font-size="10.00">CLI::Error::get_name</text>
</a>
</g>
</g>
<!-- Node17&#45;&gt;Node19 -->
<g id="edge18" class="edge">
<title>Node17&#45;&gt;Node19</title>
<path fill="none" stroke="midnightblue" d="M784.67,-228.47C849.62,-224.2 982.64,-214.97 1095,-204 1103.37,-203.18 1112.16,-202.25 1120.86,-201.27"/>
<polygon fill="midnightblue" stroke="midnightblue" points="1121.45,-204.73 1130.99,-200.12 1120.66,-197.77 1121.45,-204.73"/>
</g>
<!-- Node20 -->
<g id="node20" class="node">
<title>Node20</title>
<g id="a_node20"><a xlink:href="namespace_c_l_i_1_1_failure_message.html#aa7e418b32b7d6f28aee8c4e5ad0bbc95" target="_top" xlink:title="Printout the full help string on error (if this fn is set, the old default for CLI11)">
<polygon fill="white" stroke="black" points="851.5,-172 851.5,-202 965.5,-202 965.5,-172 851.5,-172"/>
<text text-anchor="start" x="859.5" y="-190" font-family="Helvetica,sans-Serif" font-size="10.00">CLI::FailureMessage</text>
<text text-anchor="middle" x="908.5" y="-179" font-family="Helvetica,sans-Serif" font-size="10.00">::help</text>
</a>
</g>
</g>
<!-- Node17&#45;&gt;Node20 -->
<g id="edge19" class="edge">
<title>Node17&#45;&gt;Node20</title>
<path fill="none" stroke="midnightblue" d="M780.26,-221.45C798.31,-216.57 820.88,-210.45 841.97,-204.74"/>
<polygon fill="midnightblue" stroke="midnightblue" points="843.12,-208.06 851.86,-202.07 841.29,-201.3 843.12,-208.06"/>
</g>
<!-- Node20&#45;&gt;Node19 -->
<g id="edge20" class="edge">
<title>Node20&#45;&gt;Node19</title>
<path fill="none" stroke="midnightblue" d="M965.52,-188.21C1010.21,-189.17 1072.97,-190.52 1120.44,-191.54"/>
<polygon fill="midnightblue" stroke="midnightblue" points="1120.56,-195.05 1130.63,-191.76 1120.71,-188.05 1120.56,-195.05"/>
</g>
<!-- Node21 -->
<g id="node21" class="node">
<title>Node21</title>
<g id="a_node21"><a xlink:href="class_c_l_i_1_1_app.html#a2d6847ad9eec079214a61d834f29e35f" target="_top" xlink:title=" ">
<polygon fill="white" stroke="black" points="1012,-145.5 1012,-164.5 1095,-164.5 1095,-145.5 1012,-145.5"/>
<text text-anchor="middle" x="1053.5" y="-152.5" font-family="Helvetica,sans-Serif" font-size="10.00">CLI::App::help</text>
</a>
</g>
</g>
<!-- Node20&#45;&gt;Node21 -->
<g id="edge21" class="edge">
<title>Node20&#45;&gt;Node21</title>
<path fill="none" stroke="midnightblue" d="M965.61,-174.44C977.47,-171.79 989.92,-169 1001.58,-166.39"/>
<polygon fill="midnightblue" stroke="midnightblue" points="1002.59,-169.76 1011.58,-164.16 1001.06,-162.92 1002.59,-169.76"/>
</g>
<!-- Node21&#45;&gt;Node19 -->
<g id="edge22" class="edge">
<title>Node21&#45;&gt;Node19</title>
<path fill="none" stroke="midnightblue" d="M1088.19,-164.59C1105.26,-169.45 1126.2,-175.41 1144.48,-180.61"/>
<polygon fill="midnightblue" stroke="midnightblue" points="1143.75,-184.04 1154.32,-183.41 1145.66,-177.31 1143.75,-184.04"/>
</g>
<!-- Node26 -->
<g id="node26" class="node">
<title>Node26</title>
<g id="a_node26"><a xlink:href="classutils_1_1_config.html#aacaee4b1b3f6b83cb48e7e0d2457a680" target="_top" xlink:title=" ">
<polygon fill="white" stroke="black" points="683,-76.5 683,-95.5 805,-95.5 805,-76.5 683,-76.5"/>
<text text-anchor="middle" x="744" y="-83.5" font-family="Helvetica,sans-Serif" font-size="10.00">utils::Config::required</text>
</a>
</g>
</g>
<!-- Node25&#45;&gt;Node26 -->
<g id="edge27" class="edge">
<title>Node25&#45;&gt;Node26</title>
<path fill="none" stroke="midnightblue" d="M636.61,-86C648.41,-86 660.67,-86 672.5,-86"/>
<polygon fill="midnightblue" stroke="midnightblue" points="672.77,-89.5 682.77,-86 672.77,-82.5 672.77,-89.5"/>
</g>
<!-- Node27 -->
<g id="node27" class="node">
<title>Node27</title>
<g id="a_node27"><a xlink:href="class_c_l_i_1_1_app.html#a33c3eb125a4e70d387dd9fc49c25432b" target="_top" xlink:title="Remove the error when extras are left over on the command line.">
<polygon fill="white" stroke="black" points="857,-76.5 857,-95.5 960,-95.5 960,-76.5 857,-76.5"/>
<text text-anchor="middle" x="908.5" y="-83.5" font-family="Helvetica,sans-Serif" font-size="10.00">CLI::App::required</text>
</a>
</g>
</g>
<!-- Node26&#45;&gt;Node27 -->
<g id="edge28" class="edge">
<title>Node26&#45;&gt;Node27</title>
<path fill="none" stroke="midnightblue" d="M805.05,-86C818.59,-86 832.98,-86 846.56,-86"/>
<polygon fill="midnightblue" stroke="midnightblue" points="846.76,-89.5 856.76,-86 846.76,-82.5 846.76,-89.5"/>
</g>
<!-- Node30 -->
<g id="node30" class="node">
<title>Node30</title>
<g id="a_node30"><a xlink:href="classlogger_1_1_logger.html#a7d70e6711ec68f00c5c68946fd030ff9" target="_top" xlink:title=" ">
<polygon fill="white" stroke="black" points="491,-0.5 491,-19.5 642,-19.5 642,-0.5 491,-0.5"/>
<text text-anchor="middle" x="566.5" y="-7.5" font-family="Helvetica,sans-Serif" font-size="10.00">logger::Logger::setLogLevel</text>
</a>
</g>
</g>
<!-- Node29&#45;&gt;Node30 -->
<g id="edge31" class="edge">
<title>Node29&#45;&gt;Node30</title>
<path fill="none" stroke="midnightblue" d="M425.02,-226.65C434.37,-223.67 443.26,-219.05 450,-212 507.29,-152.09 428.58,-88.78 486,-29 487.25,-27.7 488.57,-26.48 489.96,-25.34"/>
<polygon fill="midnightblue" stroke="midnightblue" points="492.14,-28.09 498.49,-19.61 488.23,-22.28 492.14,-28.09"/>
</g>
</g>
</svg>
