<?xml version="1.0" encoding="UTF-8" standalone="no"?>
<!DOCTYPE svg PUBLIC "-//W3C//DTD SVG 1.1//EN"
 "http://www.w3.org/Graphics/SVG/1.1/DTD/svg11.dtd">
<!-- Generated by graphviz version 2.43.0 (0)
 -->
<!-- Title: core::DynamicLoader::dlCloseDelayed Pages: 1 -->
<svg width="728pt" height="350pt"
 viewBox="0.00 0.00 728.00 350.00" xmlns="http://www.w3.org/2000/svg" xmlns:xlink="http://www.w3.org/1999/xlink">
<g id="graph0" class="graph" transform="scale(1 1) rotate(0) translate(4 346)">
<title>core::DynamicLoader::dlCloseDelayed</title>
<polygon fill="white" stroke="transparent" points="-4,4 -4,-346 724,-346 724,4 -4,4"/>
<!-- Node1 -->
<g id="node1" class="node">
<title>Node1</title>
<g id="a_node1"><a xlink:title=" ">
<polygon fill="#bfbfbf" stroke="black" points="600,-186 600,-216 720,-216 720,-186 600,-186"/>
<text text-anchor="start" x="608" y="-204" font-family="Helvetica,sans-Serif" font-size="10.00">core::DynamicLoader</text>
<text text-anchor="middle" x="660" y="-193" font-family="Helvetica,sans-Serif" font-size="10.00">::dlCloseDelayed</text>
</a>
</g>
</g>
<!-- Node2 -->
<g id="node2" class="node">
<title>Node2</title>
<g id="a_node2"><a xlink:href="classweb_1_1http_1_1_socket_context_upgrade_factory_selector.html#a95a372b68288705669f80c5721eff016" target="_top" xlink:title=" ">
<polygon fill="white" stroke="black" points="415.5,-240.5 415.5,-281.5 554.5,-281.5 554.5,-240.5 415.5,-240.5"/>
<text text-anchor="start" x="423.5" y="-269.5" font-family="Helvetica,sans-Serif" font-size="10.00">web::http::SocketContext</text>
<text text-anchor="start" x="423.5" y="-258.5" font-family="Helvetica,sans-Serif" font-size="10.00">UpgradeFactorySelector</text>
<text text-anchor="middle" x="485" y="-247.5" font-family="Helvetica,sans-Serif" font-size="10.00">::unload</text>
</a>
</g>
</g>
<!-- Node1&#45;&gt;Node2 -->
<g id="edge1" class="edge">
<title>Node1&#45;&gt;Node2</title>
<path fill="none" stroke="midnightblue" d="M605.88,-219.42C586.72,-226.07 564.98,-233.61 545.32,-240.42"/>
<polygon fill="midnightblue" stroke="midnightblue" points="607.04,-222.72 615.34,-216.14 604.75,-216.11 607.04,-222.72"/>
</g>
<!-- Node6 -->
<g id="node6" class="node">
<title>Node6</title>
<g id="a_node6"><a xlink:href="classweb_1_1websocket_1_1_sub_protocol_factory_selector.html#a562695e0b6cbb6457d3f246cea729baf" target="_top" xlink:title=" ">
<polygon fill="white" stroke="black" points="406,-126 406,-156 564,-156 564,-126 406,-126"/>
<text text-anchor="start" x="414" y="-144" font-family="Helvetica,sans-Serif" font-size="10.00">web::websocket::SubProtocol</text>
<text text-anchor="middle" x="485" y="-133" font-family="Helvetica,sans-Serif" font-size="10.00">FactorySelector::unload</text>
</a>
</g>
</g>
<!-- Node1&#45;&gt;Node6 -->
<g id="edge5" class="edge">
<title>Node1&#45;&gt;Node6</title>
<path fill="none" stroke="midnightblue" d="M605.82,-182.56C581.29,-174.05 552.53,-164.07 529.34,-156.03"/>
<polygon fill="midnightblue" stroke="midnightblue" points="604.75,-185.89 615.34,-185.86 607.04,-179.28 604.75,-185.89"/>
</g>
<!-- Node3 -->
<g id="node3" class="node">
<title>Node3</title>
<g id="a_node3"><a xlink:href="classweb_1_1http_1_1client_1_1_socket_context_upgrade_factory.html#a254e57fe75d644633ca8ab5667e04f60" target="_top" xlink:title=" ">
<polygon fill="white" stroke="black" points="206,-300.5 206,-341.5 370,-341.5 370,-300.5 206,-300.5"/>
<text text-anchor="start" x="214" y="-329.5" font-family="Helvetica,sans-Serif" font-size="10.00">web::http::client::</text>
<text text-anchor="start" x="214" y="-318.5" font-family="Helvetica,sans-Serif" font-size="10.00">SocketContextUpgradeFactory</text>
<text text-anchor="middle" x="288" y="-307.5" font-family="Helvetica,sans-Serif" font-size="10.00">::checkRefCount</text>
</a>
</g>
</g>
<!-- Node2&#45;&gt;Node3 -->
<g id="edge2" class="edge">
<title>Node2&#45;&gt;Node3</title>
<path fill="none" stroke="midnightblue" d="M407.26,-284.61C390.24,-289.85 372.33,-295.36 355.75,-300.46"/>
<polygon fill="midnightblue" stroke="midnightblue" points="408.64,-287.85 417.16,-281.56 406.58,-281.16 408.64,-287.85"/>
</g>
<!-- Node5 -->
<g id="node5" class="node">
<title>Node5</title>
<g id="a_node5"><a xlink:href="classweb_1_1http_1_1server_1_1_socket_context_upgrade_factory.html#ad6da4e4f4825434741da9130a3d77e46" target="_top" xlink:title=" ">
<polygon fill="white" stroke="black" points="206,-240.5 206,-281.5 370,-281.5 370,-240.5 206,-240.5"/>
<text text-anchor="start" x="214" y="-269.5" font-family="Helvetica,sans-Serif" font-size="10.00">web::http::server::</text>
<text text-anchor="start" x="214" y="-258.5" font-family="Helvetica,sans-Serif" font-size="10.00">SocketContextUpgradeFactory</text>
<text text-anchor="middle" x="288" y="-247.5" font-family="Helvetica,sans-Serif" font-size="10.00">::checkRefCount</text>
</a>
</g>
</g>
<!-- Node2&#45;&gt;Node5 -->
<g id="edge4" class="edge">
<title>Node2&#45;&gt;Node5</title>
<path fill="none" stroke="midnightblue" d="M405.21,-261C393.66,-261 381.74,-261 370.15,-261"/>
<polygon fill="midnightblue" stroke="midnightblue" points="405.25,-264.5 415.25,-261 405.25,-257.5 405.25,-264.5"/>
</g>
<!-- Node4 -->
<g id="node4" class="node">
<title>Node4</title>
<g id="a_node4"><a xlink:href="classweb_1_1http_1_1client_1_1_request.html#ade3f2c0c18eb527560f212631a627a0d" target="_top" xlink:title=" ">
<polygon fill="white" stroke="black" points="34,-306 34,-336 136,-336 136,-306 34,-306"/>
<text text-anchor="start" x="42" y="-324" font-family="Helvetica,sans-Serif" font-size="10.00">web::http::client::</text>
<text text-anchor="middle" x="85" y="-313" font-family="Helvetica,sans-Serif" font-size="10.00">Request::upgrade</text>
</a>
</g>
</g>
<!-- Node3&#45;&gt;Node4 -->
<g id="edge3" class="edge">
<title>Node3&#45;&gt;Node4</title>
<path fill="none" stroke="midnightblue" d="M195.82,-321C175.34,-321 154.33,-321 136.24,-321"/>
<polygon fill="midnightblue" stroke="midnightblue" points="195.83,-324.5 205.82,-321 195.82,-317.5 195.83,-324.5"/>
</g>
<!-- Node7 -->
<g id="node7" class="node">
<title>Node7</title>
<g id="a_node7"><a xlink:href="classweb_1_1websocket_1_1client_1_1_socket_context_upgrade.html#ac72810f638667b8023cefd7686fdefab" target="_top" xlink:title=" ">
<polygon fill="white" stroke="black" points="221,-180.5 221,-221.5 355,-221.5 355,-180.5 221,-180.5"/>
<text text-anchor="start" x="229" y="-209.5" font-family="Helvetica,sans-Serif" font-size="10.00">web::websocket::client</text>
<text text-anchor="start" x="229" y="-198.5" font-family="Helvetica,sans-Serif" font-size="10.00">::SocketContextUpgrade</text>
<text text-anchor="middle" x="288" y="-187.5" font-family="Helvetica,sans-Serif" font-size="10.00">::create</text>
</a>
</g>
</g>
<!-- Node6&#45;&gt;Node7 -->
<g id="edge6" class="edge">
<title>Node6&#45;&gt;Node7</title>
<path fill="none" stroke="midnightblue" d="M425.46,-159.01C403.36,-165.81 378.06,-173.6 355.3,-180.6"/>
<polygon fill="midnightblue" stroke="midnightblue" points="426.52,-162.35 435.04,-156.06 424.46,-155.66 426.52,-162.35"/>
</g>
<!-- Node9 -->
<g id="node9" class="node">
<title>Node9</title>
<g id="a_node9"><a xlink:href="classweb_1_1websocket_1_1server_1_1_socket_context_upgrade.html#a28ec81e77a6a4c4b1ef926fadd9e1861" target="_top" xlink:title=" ">
<polygon fill="white" stroke="black" points="221,-120.5 221,-161.5 355,-161.5 355,-120.5 221,-120.5"/>
<text text-anchor="start" x="229" y="-149.5" font-family="Helvetica,sans-Serif" font-size="10.00">web::websocket::server</text>
<text text-anchor="start" x="229" y="-138.5" font-family="Helvetica,sans-Serif" font-size="10.00">::SocketContextUpgrade</text>
<text text-anchor="middle" x="288" y="-127.5" font-family="Helvetica,sans-Serif" font-size="10.00">::create</text>
</a>
</g>
</g>
<!-- Node6&#45;&gt;Node9 -->
<g id="edge8" class="edge">
<title>Node6&#45;&gt;Node9</title>
<path fill="none" stroke="midnightblue" d="M395.53,-141C382,-141 368.24,-141 355.29,-141"/>
<polygon fill="midnightblue" stroke="midnightblue" points="395.81,-144.5 405.81,-141 395.81,-137.5 395.81,-144.5"/>
</g>
<!-- Node11 -->
<g id="node11" class="node">
<title>Node11</title>
<g id="a_node11"><a xlink:href="classweb_1_1websocket_1_1client_1_1_socket_context_upgrade.html#a0f732892477bf2e2bef36b0571949741" target="_top" xlink:title=" ">
<polygon fill="white" stroke="black" points="216.5,-60.5 216.5,-101.5 359.5,-101.5 359.5,-60.5 216.5,-60.5"/>
<text text-anchor="start" x="224.5" y="-89.5" font-family="Helvetica,sans-Serif" font-size="10.00">web::websocket::client</text>
<text text-anchor="start" x="224.5" y="-78.5" font-family="Helvetica,sans-Serif" font-size="10.00">::SocketContextUpgrade</text>
<text text-anchor="middle" x="288" y="-67.5" font-family="Helvetica,sans-Serif" font-size="10.00">::~SocketContextUpgrade</text>
</a>
</g>
</g>
<!-- Node6&#45;&gt;Node11 -->
<g id="edge10" class="edge">
<title>Node6&#45;&gt;Node11</title>
<path fill="none" stroke="midnightblue" d="M425.21,-122.91C403.29,-116.17 378.24,-108.46 355.66,-101.51"/>
<polygon fill="midnightblue" stroke="midnightblue" points="424.46,-126.34 435.04,-125.94 426.52,-119.65 424.46,-126.34"/>
</g>
<!-- Node12 -->
<g id="node12" class="node">
<title>Node12</title>
<g id="a_node12"><a xlink:href="classweb_1_1websocket_1_1server_1_1_socket_context_upgrade.html#a3abba98798812ea6bf6aef416f01d4d3" target="_top" xlink:title=" ">
<polygon fill="white" stroke="black" points="216.5,-0.5 216.5,-41.5 359.5,-41.5 359.5,-0.5 216.5,-0.5"/>
<text text-anchor="start" x="224.5" y="-29.5" font-family="Helvetica,sans-Serif" font-size="10.00">web::websocket::server</text>
<text text-anchor="start" x="224.5" y="-18.5" font-family="Helvetica,sans-Serif" font-size="10.00">::SocketContextUpgrade</text>
<text text-anchor="middle" x="288" y="-7.5" font-family="Helvetica,sans-Serif" font-size="10.00">::~SocketContextUpgrade</text>
</a>
</g>
</g>
<!-- Node6&#45;&gt;Node12 -->
<g id="edge11" class="edge">
<title>Node6&#45;&gt;Node12</title>
<path fill="none" stroke="midnightblue" d="M460.67,-118.95C438.67,-99.08 404.08,-70.13 370,-51 363.98,-47.62 357.52,-44.49 350.95,-41.63"/>
<polygon fill="midnightblue" stroke="midnightblue" points="458.44,-121.65 468.18,-125.82 463.17,-116.49 458.44,-121.65"/>
</g>
<!-- Node8 -->
<g id="node8" class="node">
<title>Node8</title>
<g id="a_node8"><a xlink:href="classweb_1_1websocket_1_1client_1_1_socket_context_upgrade_factory.html#ad0e31ba9234584931ab111ca3fb445bc" target="_top" xlink:title=" ">
<polygon fill="white" stroke="black" points="0,-180.5 0,-221.5 170,-221.5 170,-180.5 0,-180.5"/>
<text text-anchor="start" x="8" y="-209.5" font-family="Helvetica,sans-Serif" font-size="10.00">web::websocket::client</text>
<text text-anchor="start" x="8" y="-198.5" font-family="Helvetica,sans-Serif" font-size="10.00">::SocketContextUpgradeFactory</text>
<text text-anchor="middle" x="85" y="-187.5" font-family="Helvetica,sans-Serif" font-size="10.00">::create</text>
</a>
</g>
</g>
<!-- Node7&#45;&gt;Node8 -->
<g id="edge7" class="edge">
<title>Node7&#45;&gt;Node8</title>
<path fill="none" stroke="midnightblue" d="M210.85,-201C197.53,-201 183.6,-201 170.08,-201"/>
<polygon fill="midnightblue" stroke="midnightblue" points="210.91,-204.5 220.91,-201 210.91,-197.5 210.91,-204.5"/>
</g>
<!-- Node10 -->
<g id="node10" class="node">
<title>Node10</title>
<g id="a_node10"><a xlink:href="classweb_1_1websocket_1_1server_1_1_socket_context_upgrade_factory.html#a90730a21bf9ea2415499a5287bda028c" target="_top" xlink:title=" ">
<polygon fill="white" stroke="black" points="0,-120.5 0,-161.5 170,-161.5 170,-120.5 0,-120.5"/>
<text text-anchor="start" x="8" y="-149.5" font-family="Helvetica,sans-Serif" font-size="10.00">web::websocket::server</text>
<text text-anchor="start" x="8" y="-138.5" font-family="Helvetica,sans-Serif" font-size="10.00">::SocketContextUpgradeFactory</text>
<text text-anchor="middle" x="85" y="-127.5" font-family="Helvetica,sans-Serif" font-size="10.00">::create</text>
</a>
</g>
</g>
<!-- Node9&#45;&gt;Node10 -->
<g id="edge9" class="edge">
<title>Node9&#45;&gt;Node10</title>
<path fill="none" stroke="midnightblue" d="M210.85,-141C197.53,-141 183.6,-141 170.08,-141"/>
<polygon fill="midnightblue" stroke="midnightblue" points="210.91,-144.5 220.91,-141 210.91,-137.5 210.91,-144.5"/>
</g>
</g>
</svg>
