<?xml version="1.0" encoding="UTF-8" standalone="no"?>
<!DOCTYPE svg PUBLIC "-//W3C//DTD SVG 1.1//EN"
 "http://www.w3.org/Graphics/SVG/1.1/DTD/svg11.dtd">
<!-- Generated by graphviz version 2.43.0 (0)
 -->
<!-- Title: core::socket::stream::tls::SocketAcceptor&lt; SocketServerT &gt; Pages: 1 -->
<svg width="589pt" height="384pt"
 viewBox="0.00 0.00 589.00 384.00" xmlns="http://www.w3.org/2000/svg" xmlns:xlink="http://www.w3.org/1999/xlink">
<g id="graph0" class="graph" transform="scale(1 1) rotate(0) translate(4 380)">
<title>core::socket::stream::tls::SocketAcceptor&lt; SocketServerT &gt;</title>
<polygon fill="white" stroke="transparent" points="-4,4 -4,-380 585,-380 585,4 -4,4"/>
<!-- Node1 -->
<g id="node1" class="node">
<title>Node1</title>
<g id="a_node1"><a xlink:title=" ">
<polygon fill="#bfbfbf" stroke="black" points="89,-0.5 89,-41.5 205,-41.5 205,-0.5 89,-0.5"/>
<text text-anchor="start" x="97" y="-29.5" font-family="Helvetica,sans-Serif" font-size="10.00">core::socket::stream</text>
<text text-anchor="start" x="97" y="-18.5" font-family="Helvetica,sans-Serif" font-size="10.00">::tls::SocketAcceptor</text>
<text text-anchor="middle" x="147" y="-7.5" font-family="Helvetica,sans-Serif" font-size="10.00">&lt; SocketServerT &gt;</text>
</a>
</g>
</g>
<!-- Node2 -->
<g id="node2" class="node">
<title>Node2</title>
<g id="a_node2"><a xlink:href="classcore_1_1socket_1_1stream_1_1_socket_acceptor.html" target="_top" xlink:title=" ">
<polygon fill="white" stroke="black" points="60.5,-79.5 60.5,-131.5 233.5,-131.5 233.5,-79.5 60.5,-79.5"/>
<text text-anchor="start" x="68.5" y="-119.5" font-family="Helvetica,sans-Serif" font-size="10.00">core::socket::stream</text>
<text text-anchor="start" x="68.5" y="-108.5" font-family="Helvetica,sans-Serif" font-size="10.00">::SocketAcceptor&lt; SocketServer</text>
<text text-anchor="start" x="68.5" y="-97.5" font-family="Helvetica,sans-Serif" font-size="10.00">T, core::socket::stream::tls</text>
<text text-anchor="middle" x="147" y="-86.5" font-family="Helvetica,sans-Serif" font-size="10.00">::SocketConnection &gt;</text>
</a>
</g>
</g>
<!-- Node2&#45;&gt;Node1 -->
<g id="edge1" class="edge">
<title>Node2&#45;&gt;Node1</title>
<path fill="none" stroke="darkgreen" d="M147,-69.27C147,-59.77 147,-49.84 147,-41.55"/>
<polygon fill="none" stroke="darkgreen" points="143.5,-69.3 147,-79.3 150.5,-69.3 143.5,-69.3"/>
</g>
<!-- Node3 -->
<g id="node3" class="node">
<title>Node3</title>
<g id="a_node3"><a xlink:href="classcore_1_1eventreceiver_1_1_init_accept_event_receiver.html" target="_top" xlink:title=" ">
<polygon fill="white" stroke="black" points="0,-218.5 0,-248.5 142,-248.5 142,-218.5 0,-218.5"/>
<text text-anchor="start" x="8" y="-236.5" font-family="Helvetica,sans-Serif" font-size="10.00">core::eventreceiver</text>
<text text-anchor="middle" x="71" y="-225.5" font-family="Helvetica,sans-Serif" font-size="10.00">::InitAcceptEventReceiver</text>
</a>
</g>
</g>
<!-- Node3&#45;&gt;Node2 -->
<g id="edge2" class="edge">
<title>Node3&#45;&gt;Node2</title>
<path fill="none" stroke="darkgreen" d="M84.97,-209.34C98.25,-187.32 118.18,-154.28 131.85,-131.62"/>
<polygon fill="none" stroke="darkgreen" points="81.89,-207.68 79.72,-218.05 87.88,-211.29 81.89,-207.68"/>
</g>
<!-- Node4 -->
<g id="node4" class="node">
<title>Node4</title>
<g id="a_node4"><a xlink:href="classcore_1_1_event_receiver.html" target="_top" xlink:title=" ">
<polygon fill="white" stroke="black" points="48,-356.5 48,-375.5 162,-375.5 162,-356.5 48,-356.5"/>
<text text-anchor="middle" x="105" y="-363.5" font-family="Helvetica,sans-Serif" font-size="10.00">core::EventReceiver</text>
</a>
</g>
</g>
<!-- Node4&#45;&gt;Node3 -->
<g id="edge3" class="edge">
<title>Node4&#45;&gt;Node3</title>
<path fill="none" stroke="darkgreen" d="M72.47,-351.21C67.47,-347.64 62.99,-343.28 60,-338 43.89,-309.54 56.06,-269.58 64.57,-248.62"/>
<polygon fill="none" stroke="darkgreen" points="70.81,-354.3 81.18,-356.47 74.43,-348.3 70.81,-354.3"/>
</g>
<!-- Node5 -->
<g id="node5" class="node">
<title>Node5</title>
<g id="a_node5"><a xlink:href="classcore_1_1_event.html" target="_top" xlink:title=" ">
<polygon fill="white" stroke="black" points="77.5,-267.5 77.5,-286.5 148.5,-286.5 148.5,-267.5 77.5,-267.5"/>
<text text-anchor="middle" x="113" y="-274.5" font-family="Helvetica,sans-Serif" font-size="10.00">core::Event</text>
</a>
</g>
</g>
<!-- Node4&#45;&gt;Node5 -->
<g id="edge5" class="edge">
<title>Node4&#45;&gt;Node5</title>
<path fill="none" stroke="#404040" d="M87.36,-356.41C80.29,-351.97 72.91,-345.83 69,-338 62.44,-324.88 61.84,-317.8 69,-305 71.56,-300.42 75.25,-296.53 79.41,-293.25"/>
<polygon fill="none" stroke="#404040" points="79.6,-293.13 82.49,-286.52 89.7,-286.65 86.81,-293.26 79.6,-293.13"/>
<text text-anchor="middle" x="108" y="-319" font-family="Helvetica,sans-Serif" font-size="10.00"> &#45;eventReceiver</text>
</g>
<!-- Node7 -->
<g id="node7" class="node">
<title>Node7</title>
<g id="a_node7"><a xlink:href="classcore_1_1_descriptor_event_receiver.html" target="_top" xlink:title=" ">
<polygon fill="white" stroke="black" points="176,-267.5 176,-286.5 340,-286.5 340,-267.5 176,-267.5"/>
<text text-anchor="middle" x="258" y="-274.5" font-family="Helvetica,sans-Serif" font-size="10.00">core::DescriptorEventReceiver</text>
</a>
</g>
</g>
<!-- Node4&#45;&gt;Node7 -->
<g id="edge9" class="edge">
<title>Node4&#45;&gt;Node7</title>
<path fill="none" stroke="midnightblue" d="M170.3,-353.66C182.72,-349.84 195.19,-344.76 206,-338 227.27,-324.7 244.58,-299.98 252.81,-286.81"/>
<polygon fill="none" stroke="midnightblue" points="169.06,-350.37 160.38,-356.46 170.96,-357.11 169.06,-350.37"/>
</g>
<!-- Node5&#45;&gt;Node4 -->
<g id="edge4" class="edge">
<title>Node5&#45;&gt;Node4</title>
<path fill="none" stroke="#404040" d="M132,-286.61C139.33,-290.99 146.92,-297.09 151,-305 157.73,-318.03 158.29,-325.27 151,-338 148.36,-342.61 144.59,-346.51 140.34,-349.79"/>
<polygon fill="none" stroke="#404040" points="140,-350 137.02,-356.56 129.82,-356.34 132.79,-349.77 140,-350"/>
<text text-anchor="middle" x="179.5" y="-319" font-family="Helvetica,sans-Serif" font-size="10.00"> #_event</text>
</g>
<!-- Node6 -->
<g id="node6" class="node">
<title>Node6</title>
<g id="a_node6"><a xlink:href="classcore_1_1eventreceiver_1_1_accept_event_receiver.html" target="_top" xlink:title=" ">
<polygon fill="white" stroke="black" points="179,-169.5 179,-199.5 305,-199.5 305,-169.5 179,-169.5"/>
<text text-anchor="start" x="187" y="-187.5" font-family="Helvetica,sans-Serif" font-size="10.00">core::eventreceiver</text>
<text text-anchor="middle" x="242" y="-176.5" font-family="Helvetica,sans-Serif" font-size="10.00">::AcceptEventReceiver</text>
</a>
</g>
</g>
<!-- Node6&#45;&gt;Node2 -->
<g id="edge6" class="edge">
<title>Node6&#45;&gt;Node2</title>
<path fill="none" stroke="darkgreen" d="M216.8,-163.07C204.94,-153.46 190.68,-141.91 178.15,-131.75"/>
<polygon fill="none" stroke="darkgreen" points="214.6,-165.8 224.58,-169.38 219.01,-160.36 214.6,-165.8"/>
</g>
<!-- Node7&#45;&gt;Node6 -->
<g id="edge7" class="edge">
<title>Node7&#45;&gt;Node6</title>
<path fill="none" stroke="darkgreen" d="M254.71,-257.37C251.67,-240.22 247.24,-215.14 244.49,-199.59"/>
<polygon fill="none" stroke="darkgreen" points="251.28,-258.08 256.47,-267.32 258.17,-256.87 251.28,-258.08"/>
</g>
<!-- Node8 -->
<g id="node8" class="node">
<title>Node8</title>
<g id="a_node8"><a xlink:href="classcore_1_1_observer.html" target="_top" xlink:title=" ">
<polygon fill="white" stroke="black" points="197,-356.5 197,-375.5 285,-375.5 285,-356.5 197,-356.5"/>
<text text-anchor="middle" x="241" y="-363.5" font-family="Helvetica,sans-Serif" font-size="10.00">core::Observer</text>
</a>
</g>
</g>
<!-- Node8&#45;&gt;Node7 -->
<g id="edge8" class="edge">
<title>Node8&#45;&gt;Node7</title>
<path fill="none" stroke="darkgreen" d="M244.62,-346.46C248.23,-328 253.61,-300.48 256.31,-286.62"/>
<polygon fill="none" stroke="darkgreen" points="241.17,-345.85 242.69,-356.34 248.05,-347.2 241.17,-345.85"/>
</g>
<!-- Node9 -->
<g id="node9" class="node">
<title>Node9</title>
<g id="a_node9"><a xlink:href="classutils_1_1_timeval.html" target="_top" xlink:title=" ">
<polygon fill="white" stroke="black" points="303.5,-356.5 303.5,-375.5 386.5,-375.5 386.5,-356.5 303.5,-356.5"/>
<text text-anchor="middle" x="345" y="-363.5" font-family="Helvetica,sans-Serif" font-size="10.00">utils::Timeval</text>
</a>
</g>
</g>
<!-- Node9&#45;&gt;Node7 -->
<g id="edge10" class="edge">
<title>Node9&#45;&gt;Node7</title>
<path fill="none" stroke="#404040" d="M336.34,-356.34C322.14,-342.14 293.64,-313.64 275.21,-295.21"/>
<polygon fill="none" stroke="#404040" points="275.11,-295.11 268.04,-293.7 266.62,-286.62 273.7,-288.04 275.11,-295.11"/>
<text text-anchor="middle" x="354.5" y="-330" font-family="Helvetica,sans-Serif" font-size="10.00"> &#45;initialTimeout</text>
<text text-anchor="middle" x="354.5" y="-319" font-family="Helvetica,sans-Serif" font-size="10.00">&#45;lastTriggered</text>
<text text-anchor="middle" x="354.5" y="-308" font-family="Helvetica,sans-Serif" font-size="10.00">&#45;maxInactivity</text>
</g>
<!-- Node10 -->
<g id="node10" class="node">
<title>Node10</title>
<g id="a_node10"><a xlink:href="classcore_1_1_descriptor_event_publisher.html" target="_top" xlink:title=" ">
<polygon fill="white" stroke="black" points="404.5,-356.5 404.5,-375.5 571.5,-375.5 571.5,-356.5 404.5,-356.5"/>
<text text-anchor="middle" x="488" y="-363.5" font-family="Helvetica,sans-Serif" font-size="10.00">core::DescriptorEventPublisher</text>
</a>
</g>
</g>
<!-- Node10&#45;&gt;Node7 -->
<g id="edge11" class="edge">
<title>Node10&#45;&gt;Node7</title>
<path fill="none" stroke="#404040" d="M477.71,-356.35C461.45,-343.14 428.33,-318.12 396,-305 378.74,-298 359.52,-292.77 341.03,-288.88"/>
<polygon fill="none" stroke="#404040" points="340.78,-288.83 334.12,-291.6 329.01,-286.51 335.67,-283.75 340.78,-288.83"/>
<text text-anchor="middle" x="516.5" y="-319" font-family="Helvetica,sans-Serif" font-size="10.00"> &#45;descriptorEventPublisher</text>
</g>
</g>
</svg>
