<?xml version="1.0" encoding="UTF-8" standalone="no"?>
<!DOCTYPE svg PUBLIC "-//W3C//DTD SVG 1.1//EN"
 "http://www.w3.org/Graphics/SVG/1.1/DTD/svg11.dtd">
<!-- Generated by graphviz version 2.43.0 (0)
 -->
<!-- Title: core::socket::stream::tls::SocketConnection&lt; SocketT &gt; Pages: 1 -->
<svg width="926pt" height="2068pt"
 viewBox="0.00 0.00 926.43 2068.00" xmlns="http://www.w3.org/2000/svg" xmlns:xlink="http://www.w3.org/1999/xlink">
<g id="graph0" class="graph" transform="scale(1 1) rotate(0) translate(4 2064)">
<title>core::socket::stream::tls::SocketConnection&lt; SocketT &gt;</title>
<polygon fill="white" stroke="transparent" points="-4,4 -4,-2064 922.43,-2064 922.43,4 -4,4"/>
<!-- Node1 -->
<g id="node1" class="node">
<title>Node1</title>
<g id="a_node1"><a xlink:title=" ">
<polygon fill="#bfbfbf" stroke="black" points="367.93,-0.5 367.93,-145.5 486.93,-145.5 486.93,-0.5 367.93,-0.5"/>
<text text-anchor="start" x="375.93" y="-133.5" font-family="Helvetica,sans-Serif" font-size="10.00">core::socket::stream</text>
<text text-anchor="start" x="375.93" y="-122.5" font-family="Helvetica,sans-Serif" font-size="10.00">::tls::SocketConnection</text>
<text text-anchor="middle" x="427.43" y="-111.5" font-family="Helvetica,sans-Serif" font-size="10.00">&lt; SocketT &gt;</text>
<polyline fill="none" stroke="black" points="367.93,-104.5 486.93,-104.5 "/>
<text text-anchor="start" x="375.93" y="-92.5" font-family="Helvetica,sans-Serif" font-size="10.00">&#45; ssl</text>
<text text-anchor="start" x="375.93" y="-81.5" font-family="Helvetica,sans-Serif" font-size="10.00">&#45; sslErr</text>
<polyline fill="none" stroke="black" points="367.93,-74.5 486.93,-74.5 "/>
<text text-anchor="start" x="375.93" y="-62.5" font-family="Helvetica,sans-Serif" font-size="10.00">+ SocketConnection()</text>
<text text-anchor="start" x="375.93" y="-51.5" font-family="Helvetica,sans-Serif" font-size="10.00">+ getSSL()</text>
<text text-anchor="start" x="375.93" y="-40.5" font-family="Helvetica,sans-Serif" font-size="10.00">&#45; startSSL()</text>
<text text-anchor="start" x="375.93" y="-29.5" font-family="Helvetica,sans-Serif" font-size="10.00">&#45; doSSLHandshake()</text>
<text text-anchor="start" x="375.93" y="-18.5" font-family="Helvetica,sans-Serif" font-size="10.00">&#45; stopSSL()</text>
<text text-anchor="start" x="375.93" y="-7.5" font-family="Helvetica,sans-Serif" font-size="10.00">&#45; setSSLError()</text>
</a>
</g>
</g>
<!-- Node2 -->
<g id="node2" class="node">
<title>Node2</title>
<g id="a_node2"><a xlink:href="classcore_1_1socket_1_1stream_1_1_socket_connection_t.html" target="_top" xlink:title=" ">
<polygon fill="white" stroke="black" points="350.93,-183.5 350.93,-482.5 503.93,-482.5 503.93,-183.5 350.93,-183.5"/>
<text text-anchor="start" x="358.93" y="-470.5" font-family="Helvetica,sans-Serif" font-size="10.00">core::socket::stream</text>
<text text-anchor="start" x="358.93" y="-459.5" font-family="Helvetica,sans-Serif" font-size="10.00">::SocketConnectionT&lt;</text>
<text text-anchor="start" x="358.93" y="-448.5" font-family="Helvetica,sans-Serif" font-size="10.00"> SocketReader&lt; SocketT</text>
<text text-anchor="start" x="358.93" y="-437.5" font-family="Helvetica,sans-Serif" font-size="10.00"> &gt;, SocketWriter&lt; SocketT</text>
<text text-anchor="middle" x="427.43" y="-426.5" font-family="Helvetica,sans-Serif" font-size="10.00"> &gt;, SocketT::SocketAddress &gt;</text>
<polyline fill="none" stroke="black" points="350.93,-419.5 503.93,-419.5 "/>
<text text-anchor="start" x="358.93" y="-407.5" font-family="Helvetica,sans-Serif" font-size="10.00">&#45; localAddress</text>
<text text-anchor="start" x="358.93" y="-396.5" font-family="Helvetica,sans-Serif" font-size="10.00">&#45; remoteAddress</text>
<text text-anchor="start" x="358.93" y="-385.5" font-family="Helvetica,sans-Serif" font-size="10.00">&#45; newSocketContext</text>
<text text-anchor="start" x="358.93" y="-374.5" font-family="Helvetica,sans-Serif" font-size="10.00">&#45; onDisconnect</text>
<polyline fill="none" stroke="black" points="350.93,-367.5 503.93,-367.5 "/>
<text text-anchor="start" x="358.93" y="-355.5" font-family="Helvetica,sans-Serif" font-size="10.00">+ getRemoteAddress()</text>
<text text-anchor="start" x="358.93" y="-344.5" font-family="Helvetica,sans-Serif" font-size="10.00">+ getLocalAddress()</text>
<text text-anchor="start" x="358.93" y="-333.5" font-family="Helvetica,sans-Serif" font-size="10.00">+ getLocalAddressAsString()</text>
<text text-anchor="start" x="358.93" y="-322.5" font-family="Helvetica,sans-Serif" font-size="10.00">+ getRemoteAddressAsString()</text>
<text text-anchor="start" x="358.93" y="-311.5" font-family="Helvetica,sans-Serif" font-size="10.00">+ readFromPeer()</text>
<text text-anchor="start" x="358.93" y="-300.5" font-family="Helvetica,sans-Serif" font-size="10.00">+ sendToPeer()</text>
<text text-anchor="start" x="358.93" y="-289.5" font-family="Helvetica,sans-Serif" font-size="10.00">+ sendToPeer()</text>
<text text-anchor="start" x="358.93" y="-278.5" font-family="Helvetica,sans-Serif" font-size="10.00">+ close()</text>
<text text-anchor="start" x="358.93" y="-267.5" font-family="Helvetica,sans-Serif" font-size="10.00">+ setTimeout()</text>
<text text-anchor="start" x="358.93" y="-256.5" font-family="Helvetica,sans-Serif" font-size="10.00">+ switchSocketContext()</text>
<text text-anchor="start" x="358.93" y="-245.5" font-family="Helvetica,sans-Serif" font-size="10.00"># SocketConnectionT()</text>
<text text-anchor="start" x="358.93" y="-234.5" font-family="Helvetica,sans-Serif" font-size="10.00"># ~SocketConnectionT()</text>
<text text-anchor="start" x="358.93" y="-223.5" font-family="Helvetica,sans-Serif" font-size="10.00">&#45; SocketConnectionT()</text>
<text text-anchor="start" x="358.93" y="-212.5" font-family="Helvetica,sans-Serif" font-size="10.00">&#45; readEvent()</text>
<text text-anchor="start" x="358.93" y="-201.5" font-family="Helvetica,sans-Serif" font-size="10.00">&#45; writeEvent()</text>
<text text-anchor="start" x="358.93" y="-190.5" font-family="Helvetica,sans-Serif" font-size="10.00">&#45; unobservedEvent()</text>
</a>
</g>
</g>
<!-- Node2&#45;&gt;Node1 -->
<g id="edge1" class="edge">
<title>Node2&#45;&gt;Node1</title>
<path fill="none" stroke="midnightblue" d="M427.43,-173.13C427.43,-163.72 427.43,-154.54 427.43,-145.79"/>
<polygon fill="none" stroke="midnightblue" points="423.93,-173.42 427.43,-183.42 430.93,-173.42 423.93,-173.42"/>
</g>
<!-- Node3 -->
<g id="node3" class="node">
<title>Node3</title>
<g id="a_node3"><a xlink:href="classcore_1_1socket_1_1stream_1_1_socket_connection.html" target="_top" xlink:title=" ">
<polygon fill="white" stroke="black" points="48.93,-1219 48.93,-1430 201.93,-1430 201.93,-1219 48.93,-1219"/>
<text text-anchor="start" x="56.93" y="-1418" font-family="Helvetica,sans-Serif" font-size="10.00">core::socket::stream</text>
<text text-anchor="middle" x="125.43" y="-1407" font-family="Helvetica,sans-Serif" font-size="10.00">::SocketConnection</text>
<polyline fill="none" stroke="black" points="48.93,-1400 201.93,-1400 "/>
<text text-anchor="start" x="56.93" y="-1388" font-family="Helvetica,sans-Serif" font-size="10.00"># SocketContext</text>
<polyline fill="none" stroke="black" points="48.93,-1381 201.93,-1381 "/>
<text text-anchor="start" x="56.93" y="-1369" font-family="Helvetica,sans-Serif" font-size="10.00">+ getSocketContext()</text>
<text text-anchor="start" x="56.93" y="-1358" font-family="Helvetica,sans-Serif" font-size="10.00">+ getLocalAddressAsString()</text>
<text text-anchor="start" x="56.93" y="-1347" font-family="Helvetica,sans-Serif" font-size="10.00">+ getRemoteAddressAsString()</text>
<text text-anchor="start" x="56.93" y="-1336" font-family="Helvetica,sans-Serif" font-size="10.00">+ sendToPeer()</text>
<text text-anchor="start" x="56.93" y="-1325" font-family="Helvetica,sans-Serif" font-size="10.00">+ sendToPeer()</text>
<text text-anchor="start" x="56.93" y="-1314" font-family="Helvetica,sans-Serif" font-size="10.00">+ readFromPeer()</text>
<text text-anchor="start" x="56.93" y="-1303" font-family="Helvetica,sans-Serif" font-size="10.00">+ close()</text>
<text text-anchor="start" x="56.93" y="-1292" font-family="Helvetica,sans-Serif" font-size="10.00">+ setTimeout()</text>
<text text-anchor="start" x="56.93" y="-1281" font-family="Helvetica,sans-Serif" font-size="10.00">+ switchSocketContext()</text>
<text text-anchor="start" x="56.93" y="-1270" font-family="Helvetica,sans-Serif" font-size="10.00"># SocketConnection()</text>
<text text-anchor="start" x="56.93" y="-1259" font-family="Helvetica,sans-Serif" font-size="10.00"># ~SocketConnection()</text>
<text text-anchor="start" x="56.93" y="-1248" font-family="Helvetica,sans-Serif" font-size="10.00">&#45; SocketConnection()</text>
<text text-anchor="start" x="56.93" y="-1237" font-family="Helvetica,sans-Serif" font-size="10.00">&#45; SocketConnection()</text>
<text text-anchor="start" x="56.93" y="-1226" font-family="Helvetica,sans-Serif" font-size="10.00">&#45; operator=()</text>
</a>
</g>
</g>
<!-- Node3&#45;&gt;Node2 -->
<g id="edge2" class="edge">
<title>Node3&#45;&gt;Node2</title>
<path fill="none" stroke="midnightblue" d="M58.07,-1209.85C43,-1178.83 29.19,-1144.51 21.43,-1111 -2.03,-1009.68 -10.79,-975.88 21.43,-877 85.35,-680.87 252.02,-498.8 350.81,-403.45"/>
<polygon fill="none" stroke="midnightblue" points="55,-1211.52 62.57,-1218.93 61.27,-1208.42 55,-1211.52"/>
</g>
<!-- Node4 -->
<g id="node4" class="node">
<title>Node4</title>
<g id="a_node4"><a xlink:href="classcore_1_1socket_1_1stream_1_1_socket_context.html" target="_top" xlink:title=" ">
<polygon fill="white" stroke="black" points="30.93,-877.5 30.93,-1110.5 183.93,-1110.5 183.93,-877.5 30.93,-877.5"/>
<text text-anchor="start" x="38.93" y="-1098.5" font-family="Helvetica,sans-Serif" font-size="10.00">core::socket::stream</text>
<text text-anchor="middle" x="107.43" y="-1087.5" font-family="Helvetica,sans-Serif" font-size="10.00">::SocketContext</text>
<polyline fill="none" stroke="black" points="30.93,-1080.5 183.93,-1080.5 "/>
<text text-anchor="start" x="38.93" y="-1068.5" font-family="Helvetica,sans-Serif" font-size="10.00"># role</text>
<polyline fill="none" stroke="black" points="30.93,-1061.5 183.93,-1061.5 "/>
<text text-anchor="start" x="38.93" y="-1049.5" font-family="Helvetica,sans-Serif" font-size="10.00">+ sendToPeer()</text>
<text text-anchor="start" x="38.93" y="-1038.5" font-family="Helvetica,sans-Serif" font-size="10.00">+ sendToPeer()</text>
<text text-anchor="start" x="38.93" y="-1027.5" font-family="Helvetica,sans-Serif" font-size="10.00">+ readFromPeer()</text>
<text text-anchor="start" x="38.93" y="-1016.5" font-family="Helvetica,sans-Serif" font-size="10.00">+ close()</text>
<text text-anchor="start" x="38.93" y="-1005.5" font-family="Helvetica,sans-Serif" font-size="10.00">+ getLocalAddressAsString()</text>
<text text-anchor="start" x="38.93" y="-994.5" font-family="Helvetica,sans-Serif" font-size="10.00">+ getRemoteAddressAsString()</text>
<text text-anchor="start" x="38.93" y="-983.5" font-family="Helvetica,sans-Serif" font-size="10.00">+ switchSocketContext()</text>
<text text-anchor="start" x="38.93" y="-972.5" font-family="Helvetica,sans-Serif" font-size="10.00">+ setTimeout()</text>
<text text-anchor="start" x="38.93" y="-961.5" font-family="Helvetica,sans-Serif" font-size="10.00">+ onReceiveFromPeer()</text>
<text text-anchor="start" x="38.93" y="-950.5" font-family="Helvetica,sans-Serif" font-size="10.00">+ onWriteError()</text>
<text text-anchor="start" x="38.93" y="-939.5" font-family="Helvetica,sans-Serif" font-size="10.00">+ onReadError()</text>
<text text-anchor="start" x="38.93" y="-928.5" font-family="Helvetica,sans-Serif" font-size="10.00">+ onConnected()</text>
<text text-anchor="start" x="38.93" y="-917.5" font-family="Helvetica,sans-Serif" font-size="10.00">+ onDisconnected()</text>
<text text-anchor="start" x="38.93" y="-906.5" font-family="Helvetica,sans-Serif" font-size="10.00">+ getRole()</text>
<text text-anchor="start" x="38.93" y="-895.5" font-family="Helvetica,sans-Serif" font-size="10.00"># SocketContext()</text>
<text text-anchor="start" x="38.93" y="-884.5" font-family="Helvetica,sans-Serif" font-size="10.00"># ~SocketContext()</text>
</a>
</g>
</g>
<!-- Node3&#45;&gt;Node4 -->
<g id="edge4" class="edge">
<title>Node3&#45;&gt;Node4</title>
<path fill="none" stroke="#404040" d="M77.53,-1218.98C69.1,-1190.18 64.2,-1158.7 68.43,-1129 68.72,-1126.94 69.04,-1124.86 69.38,-1122.78"/>
<polygon fill="none" stroke="#404040" points="69.42,-1122.58 66.56,-1115.96 71.56,-1110.77 74.43,-1117.39 69.42,-1122.58"/>
<text text-anchor="middle" x="110.93" y="-1132" font-family="Helvetica,sans-Serif" font-size="10.00"> &#45;socketConnection</text>
</g>
<!-- Node16 -->
<g id="node16" class="node">
<title>Node16</title>
<g id="a_node16"><a xlink:href="classcore_1_1socket_1_1stream_1_1_socket_connection_t.html" target="_top" xlink:title=" ">
<polygon fill="white" stroke="black" points="267.93,-552.5 267.93,-829.5 420.93,-829.5 420.93,-552.5 267.93,-552.5"/>
<text text-anchor="start" x="275.93" y="-817.5" font-family="Helvetica,sans-Serif" font-size="10.00">core::socket::stream</text>
<text text-anchor="start" x="275.93" y="-806.5" font-family="Helvetica,sans-Serif" font-size="10.00">::SocketConnectionT&lt;</text>
<text text-anchor="start" x="275.93" y="-795.5" font-family="Helvetica,sans-Serif" font-size="10.00"> SocketReaderT, SocketWriter</text>
<text text-anchor="middle" x="344.43" y="-784.5" font-family="Helvetica,sans-Serif" font-size="10.00">T, SocketAddressT &gt;</text>
<polyline fill="none" stroke="black" points="267.93,-777.5 420.93,-777.5 "/>
<text text-anchor="start" x="275.93" y="-765.5" font-family="Helvetica,sans-Serif" font-size="10.00">&#45; localAddress</text>
<text text-anchor="start" x="275.93" y="-754.5" font-family="Helvetica,sans-Serif" font-size="10.00">&#45; remoteAddress</text>
<text text-anchor="start" x="275.93" y="-743.5" font-family="Helvetica,sans-Serif" font-size="10.00">&#45; onDisconnect</text>
<polyline fill="none" stroke="black" points="267.93,-736.5 420.93,-736.5 "/>
<text text-anchor="start" x="275.93" y="-724.5" font-family="Helvetica,sans-Serif" font-size="10.00">+ getRemoteAddress()</text>
<text text-anchor="start" x="275.93" y="-713.5" font-family="Helvetica,sans-Serif" font-size="10.00">+ getLocalAddress()</text>
<text text-anchor="start" x="275.93" y="-702.5" font-family="Helvetica,sans-Serif" font-size="10.00">+ getLocalAddressAsString()</text>
<text text-anchor="start" x="275.93" y="-691.5" font-family="Helvetica,sans-Serif" font-size="10.00">+ getRemoteAddressAsString()</text>
<text text-anchor="start" x="275.93" y="-680.5" font-family="Helvetica,sans-Serif" font-size="10.00">+ readFromPeer()</text>
<text text-anchor="start" x="275.93" y="-669.5" font-family="Helvetica,sans-Serif" font-size="10.00">+ sendToPeer()</text>
<text text-anchor="start" x="275.93" y="-658.5" font-family="Helvetica,sans-Serif" font-size="10.00">+ sendToPeer()</text>
<text text-anchor="start" x="275.93" y="-647.5" font-family="Helvetica,sans-Serif" font-size="10.00">+ close()</text>
<text text-anchor="start" x="275.93" y="-636.5" font-family="Helvetica,sans-Serif" font-size="10.00">+ setTimeout()</text>
<text text-anchor="start" x="275.93" y="-625.5" font-family="Helvetica,sans-Serif" font-size="10.00">+ switchSocketContext()</text>
<text text-anchor="start" x="275.93" y="-614.5" font-family="Helvetica,sans-Serif" font-size="10.00"># SocketConnectionT()</text>
<text text-anchor="start" x="275.93" y="-603.5" font-family="Helvetica,sans-Serif" font-size="10.00"># ~SocketConnectionT()</text>
<text text-anchor="start" x="275.93" y="-592.5" font-family="Helvetica,sans-Serif" font-size="10.00">&#45; SocketConnectionT()</text>
<text text-anchor="start" x="275.93" y="-581.5" font-family="Helvetica,sans-Serif" font-size="10.00">&#45; readEvent()</text>
<text text-anchor="start" x="275.93" y="-570.5" font-family="Helvetica,sans-Serif" font-size="10.00">&#45; writeEvent()</text>
<text text-anchor="start" x="275.93" y="-559.5" font-family="Helvetica,sans-Serif" font-size="10.00">&#45; unobservedEvent()</text>
</a>
</g>
</g>
<!-- Node3&#45;&gt;Node16 -->
<g id="edge19" class="edge">
<title>Node3&#45;&gt;Node16</title>
<path fill="none" stroke="midnightblue" d="M210.91,-1282.24C273.96,-1246.6 355.02,-1188.6 392.43,-1111 434.49,-1023.78 420.28,-914.85 396.72,-829.93"/>
<polygon fill="none" stroke="midnightblue" points="209.18,-1279.2 202.14,-1287.12 212.58,-1285.31 209.18,-1279.2"/>
</g>
<!-- Node4&#45;&gt;Node3 -->
<g id="edge3" class="edge">
<title>Node4&#45;&gt;Node3</title>
<path fill="none" stroke="#404040" d="M153.49,-1110.87C155.02,-1116.95 156.35,-1123.01 157.43,-1129 161.97,-1154.15 161.14,-1181.17 157.68,-1206.84"/>
<polygon fill="none" stroke="#404040" points="157.65,-1207.06 160.71,-1213.59 155.85,-1218.92 152.8,-1212.39 157.65,-1207.06"/>
<text text-anchor="middle" x="195.93" y="-1132" font-family="Helvetica,sans-Serif" font-size="10.00"> #socketContext</text>
</g>
<!-- Node4&#45;&gt;Node16 -->
<g id="edge22" class="edge">
<title>Node4&#45;&gt;Node16</title>
<path fill="none" stroke="#404040" d="M177.23,-877.25C184.15,-867.18 191.27,-857.3 198.43,-848 217.02,-823.87 238.7,-799.18 259.58,-776.76"/>
<polygon fill="none" stroke="#404040" points="259.63,-776.7 260.82,-769.59 267.84,-767.96 266.65,-775.07 259.63,-776.7"/>
<text text-anchor="middle" x="243.43" y="-851" font-family="Helvetica,sans-Serif" font-size="10.00"> &#45;newSocketContext</text>
</g>
<!-- Node5 -->
<g id="node5" class="node">
<title>Node5</title>
<g id="a_node5"><a xlink:href="classcore_1_1socket_1_1stream_1_1_socket_reader.html" target="_top" xlink:title=" ">
<polygon fill="white" stroke="black" points="439.43,-591 439.43,-791 583.43,-791 583.43,-591 439.43,-591"/>
<text text-anchor="start" x="447.43" y="-779" font-family="Helvetica,sans-Serif" font-size="10.00">core::socket::stream</text>
<text text-anchor="middle" x="511.43" y="-768" font-family="Helvetica,sans-Serif" font-size="10.00">::SocketReader&lt; SocketT &gt;</text>
<polyline fill="none" stroke="black" points="439.43,-761 583.43,-761 "/>
<text text-anchor="start" x="447.43" y="-749" font-family="Helvetica,sans-Serif" font-size="10.00">&#45; onError</text>
<text text-anchor="start" x="447.43" y="-738" font-family="Helvetica,sans-Serif" font-size="10.00">&#45; coursor</text>
<text text-anchor="start" x="447.43" y="-727" font-family="Helvetica,sans-Serif" font-size="10.00">&#45; size</text>
<text text-anchor="start" x="447.43" y="-716" font-family="Helvetica,sans-Serif" font-size="10.00">&#45; data</text>
<text text-anchor="start" x="447.43" y="-705" font-family="Helvetica,sans-Serif" font-size="10.00">&#45; markShutdown</text>
<polyline fill="none" stroke="black" points="439.43,-698 583.43,-698 "/>
<text text-anchor="start" x="447.43" y="-686" font-family="Helvetica,sans-Serif" font-size="10.00"># SocketReader()</text>
<text text-anchor="start" x="447.43" y="-675" font-family="Helvetica,sans-Serif" font-size="10.00"># ~SocketReader()</text>
<text text-anchor="start" x="447.43" y="-664" font-family="Helvetica,sans-Serif" font-size="10.00"># doShutdown()</text>
<text text-anchor="start" x="447.43" y="-653" font-family="Helvetica,sans-Serif" font-size="10.00"># shutdown()</text>
<text text-anchor="start" x="447.43" y="-642" font-family="Helvetica,sans-Serif" font-size="10.00"># readFromPeer()</text>
<text text-anchor="start" x="447.43" y="-631" font-family="Helvetica,sans-Serif" font-size="10.00"># continueReadImmediately()</text>
<text text-anchor="start" x="447.43" y="-620" font-family="Helvetica,sans-Serif" font-size="10.00">&#45; SocketReader()</text>
<text text-anchor="start" x="447.43" y="-609" font-family="Helvetica,sans-Serif" font-size="10.00">&#45; read()</text>
<text text-anchor="start" x="447.43" y="-598" font-family="Helvetica,sans-Serif" font-size="10.00">&#45; getError()</text>
</a>
</g>
</g>
<!-- Node5&#45;&gt;Node2 -->
<g id="edge5" class="edge">
<title>Node5&#45;&gt;Node2</title>
<path fill="none" stroke="darkgreen" d="M505.51,-580.58C502.69,-554.28 498.54,-526.45 492.43,-501 490.98,-494.95 489.35,-488.83 487.6,-482.68"/>
<polygon fill="none" stroke="darkgreen" points="502.03,-580.97 506.52,-590.57 508.99,-580.27 502.03,-580.97"/>
</g>
<!-- Node6 -->
<g id="node6" class="node">
<title>Node6</title>
<g id="a_node6"><a xlink:href="classcore_1_1_read_event_receiver.html" target="_top" xlink:title=" ">
<polygon fill="white" stroke="black" points="440.43,-932.5 440.43,-1055.5 584.43,-1055.5 584.43,-932.5 440.43,-932.5"/>
<text text-anchor="middle" x="512.43" y="-1043.5" font-family="Helvetica,sans-Serif" font-size="10.00">core::ReadEventReceiver</text>
<polyline fill="none" stroke="black" points="440.43,-1036.5 584.43,-1036.5 "/>
<text text-anchor="middle" x="512.43" y="-1024.5" font-family="Helvetica,sans-Serif" font-size="10.00"> </text>
<polyline fill="none" stroke="black" points="440.43,-1017.5 584.43,-1017.5 "/>
<text text-anchor="start" x="448.43" y="-1005.5" font-family="Helvetica,sans-Serif" font-size="10.00"># ReadEventReceiver()</text>
<text text-anchor="start" x="448.43" y="-994.5" font-family="Helvetica,sans-Serif" font-size="10.00"># continueReadImmediately()</text>
<text text-anchor="start" x="448.43" y="-983.5" font-family="Helvetica,sans-Serif" font-size="10.00">&#45; readEvent()</text>
<text text-anchor="start" x="448.43" y="-972.5" font-family="Helvetica,sans-Serif" font-size="10.00">&#45; readTimeout()</text>
<text text-anchor="start" x="448.43" y="-961.5" font-family="Helvetica,sans-Serif" font-size="10.00">&#45; dispatchEvent()</text>
<text text-anchor="start" x="448.43" y="-950.5" font-family="Helvetica,sans-Serif" font-size="10.00">&#45; timeoutEvent()</text>
<text text-anchor="start" x="448.43" y="-939.5" font-family="Helvetica,sans-Serif" font-size="10.00">&#45; continueImmediately()</text>
</a>
</g>
</g>
<!-- Node6&#45;&gt;Node5 -->
<g id="edge6" class="edge">
<title>Node6&#45;&gt;Node5</title>
<path fill="none" stroke="midnightblue" d="M512.2,-922.24C512.07,-883.19 511.9,-834.09 511.76,-791.26"/>
<polygon fill="none" stroke="midnightblue" points="508.7,-922.46 512.23,-932.45 515.7,-922.44 508.7,-922.46"/>
</g>
<!-- Node7 -->
<g id="node7" class="node">
<title>Node7</title>
<g id="a_node7"><a xlink:href="classcore_1_1_event_receiver.html" target="_top" xlink:title=" ">
<polygon fill="white" stroke="black" points="568.93,-1158.5 568.93,-1490.5 687.93,-1490.5 687.93,-1158.5 568.93,-1158.5"/>
<text text-anchor="middle" x="628.43" y="-1478.5" font-family="Helvetica,sans-Serif" font-size="10.00">core::EventReceiver</text>
<polyline fill="none" stroke="black" points="568.93,-1471.5 687.93,-1471.5 "/>
<text text-anchor="start" x="576.93" y="-1459.5" font-family="Helvetica,sans-Serif" font-size="10.00">&#45; fd</text>
<text text-anchor="start" x="576.93" y="-1448.5" font-family="Helvetica,sans-Serif" font-size="10.00">&#45; _enabled</text>
<text text-anchor="start" x="576.93" y="-1437.5" font-family="Helvetica,sans-Serif" font-size="10.00">&#45; _suspended</text>
<text text-anchor="start" x="576.93" y="-1426.5" font-family="Helvetica,sans-Serif" font-size="10.00">&#45; maxInactivity</text>
<text text-anchor="start" x="576.93" y="-1415.5" font-family="Helvetica,sans-Serif" font-size="10.00">&#45; initialTimeout</text>
<polyline fill="none" stroke="black" points="568.93,-1408.5 687.93,-1408.5 "/>
<text text-anchor="start" x="576.93" y="-1396.5" font-family="Helvetica,sans-Serif" font-size="10.00">+ enable()</text>
<text text-anchor="start" x="576.93" y="-1385.5" font-family="Helvetica,sans-Serif" font-size="10.00">+ disable()</text>
<text text-anchor="start" x="576.93" y="-1374.5" font-family="Helvetica,sans-Serif" font-size="10.00">+ suspend()</text>
<text text-anchor="start" x="576.93" y="-1363.5" font-family="Helvetica,sans-Serif" font-size="10.00">+ resume()</text>
<text text-anchor="start" x="576.93" y="-1352.5" font-family="Helvetica,sans-Serif" font-size="10.00"># EventReceiver()</text>
<text text-anchor="start" x="576.93" y="-1341.5" font-family="Helvetica,sans-Serif" font-size="10.00"># ~EventReceiver()</text>
<text text-anchor="start" x="576.93" y="-1330.5" font-family="Helvetica,sans-Serif" font-size="10.00"># setTimeout()</text>
<text text-anchor="start" x="576.93" y="-1319.5" font-family="Helvetica,sans-Serif" font-size="10.00"># isEnabled()</text>
<text text-anchor="start" x="576.93" y="-1308.5" font-family="Helvetica,sans-Serif" font-size="10.00"># isSuspended()</text>
<text text-anchor="start" x="576.93" y="-1297.5" font-family="Helvetica,sans-Serif" font-size="10.00">&#45; EventReceiver()</text>
<text text-anchor="start" x="576.93" y="-1286.5" font-family="Helvetica,sans-Serif" font-size="10.00">&#45; operator=()</text>
<text text-anchor="start" x="576.93" y="-1275.5" font-family="Helvetica,sans-Serif" font-size="10.00">&#45; dispatchEvent()</text>
<text text-anchor="start" x="576.93" y="-1264.5" font-family="Helvetica,sans-Serif" font-size="10.00">&#45; timeoutEvent()</text>
<text text-anchor="start" x="576.93" y="-1253.5" font-family="Helvetica,sans-Serif" font-size="10.00">&#45; unobservedEvent()</text>
<text text-anchor="start" x="576.93" y="-1242.5" font-family="Helvetica,sans-Serif" font-size="10.00">&#45; continueImmediately()</text>
<text text-anchor="start" x="576.93" y="-1231.5" font-family="Helvetica,sans-Serif" font-size="10.00">&#45; enabled()</text>
<text text-anchor="start" x="576.93" y="-1220.5" font-family="Helvetica,sans-Serif" font-size="10.00">&#45; disabled()</text>
<text text-anchor="start" x="576.93" y="-1209.5" font-family="Helvetica,sans-Serif" font-size="10.00">&#45; suspended()</text>
<text text-anchor="start" x="576.93" y="-1198.5" font-family="Helvetica,sans-Serif" font-size="10.00">&#45; resumed()</text>
<text text-anchor="start" x="576.93" y="-1187.5" font-family="Helvetica,sans-Serif" font-size="10.00">&#45; getTimeout()</text>
<text text-anchor="start" x="576.93" y="-1176.5" font-family="Helvetica,sans-Serif" font-size="10.00">&#45; getLastTriggered()</text>
<text text-anchor="start" x="576.93" y="-1165.5" font-family="Helvetica,sans-Serif" font-size="10.00">&#45; triggered()</text>
</a>
</g>
</g>
<!-- Node7&#45;&gt;Node6 -->
<g id="edge7" class="edge">
<title>Node7&#45;&gt;Node6</title>
<path fill="none" stroke="midnightblue" d="M566.75,-1148.82C554.91,-1115.29 543.27,-1082.34 533.83,-1055.6"/>
<polygon fill="none" stroke="midnightblue" points="563.46,-1150.02 570.09,-1158.29 570.06,-1147.69 563.46,-1150.02"/>
</g>
<!-- Node15 -->
<g id="node15" class="node">
<title>Node15</title>
<g id="a_node15"><a xlink:href="classcore_1_1_write_event_receiver.html" target="_top" xlink:title=" ">
<polygon fill="white" stroke="black" points="673.93,-932.5 673.93,-1055.5 816.93,-1055.5 816.93,-932.5 673.93,-932.5"/>
<text text-anchor="middle" x="745.43" y="-1043.5" font-family="Helvetica,sans-Serif" font-size="10.00">core::WriteEventReceiver</text>
<polyline fill="none" stroke="black" points="673.93,-1036.5 816.93,-1036.5 "/>
<text text-anchor="middle" x="745.43" y="-1024.5" font-family="Helvetica,sans-Serif" font-size="10.00"> </text>
<polyline fill="none" stroke="black" points="673.93,-1017.5 816.93,-1017.5 "/>
<text text-anchor="start" x="681.93" y="-1005.5" font-family="Helvetica,sans-Serif" font-size="10.00"># WriteEventReceiver()</text>
<text text-anchor="start" x="681.93" y="-994.5" font-family="Helvetica,sans-Serif" font-size="10.00"># continueWriteImmediately()</text>
<text text-anchor="start" x="681.93" y="-983.5" font-family="Helvetica,sans-Serif" font-size="10.00">&#45; writeEvent()</text>
<text text-anchor="start" x="681.93" y="-972.5" font-family="Helvetica,sans-Serif" font-size="10.00">&#45; writeTimeout()</text>
<text text-anchor="start" x="681.93" y="-961.5" font-family="Helvetica,sans-Serif" font-size="10.00">&#45; dispatchEvent()</text>
<text text-anchor="start" x="681.93" y="-950.5" font-family="Helvetica,sans-Serif" font-size="10.00">&#45; timeoutEvent()</text>
<text text-anchor="start" x="681.93" y="-939.5" font-family="Helvetica,sans-Serif" font-size="10.00">&#45; continueImmediately()</text>
</a>
</g>
</g>
<!-- Node7&#45;&gt;Node15 -->
<g id="edge16" class="edge">
<title>Node7&#45;&gt;Node15</title>
<path fill="none" stroke="midnightblue" d="M690.65,-1148.82C702.59,-1115.29 714.32,-1082.34 723.85,-1055.6"/>
<polygon fill="none" stroke="midnightblue" points="687.33,-1147.69 687.27,-1158.29 693.93,-1150.04 687.33,-1147.69"/>
</g>
<!-- Node8 -->
<g id="node8" class="node">
<title>Node8</title>
<g id="a_node8"><a xlink:href="classcore_1_1_observation_counter.html" target="_top" xlink:title=" ">
<polygon fill="white" stroke="black" points="518.43,-1626.5 518.43,-1694.5 646.43,-1694.5 646.43,-1626.5 518.43,-1626.5"/>
<text text-anchor="middle" x="582.43" y="-1682.5" font-family="Helvetica,sans-Serif" font-size="10.00">core::ObservationCounter</text>
<polyline fill="none" stroke="black" points="518.43,-1675.5 646.43,-1675.5 "/>
<text text-anchor="start" x="526.43" y="-1663.5" font-family="Helvetica,sans-Serif" font-size="10.00"># observationCounter</text>
<text text-anchor="start" x="526.43" y="-1652.5" font-family="Helvetica,sans-Serif" font-size="10.00"># lastTriggered</text>
<polyline fill="none" stroke="black" points="518.43,-1645.5 646.43,-1645.5 "/>
<text text-anchor="start" x="526.43" y="-1633.5" font-family="Helvetica,sans-Serif" font-size="10.00">+ isObserved()</text>
</a>
</g>
</g>
<!-- Node8&#45;&gt;Node7 -->
<g id="edge8" class="edge">
<title>Node8&#45;&gt;Node7</title>
<path fill="none" stroke="midnightblue" d="M588.39,-1616.24C592.85,-1583.83 599.27,-1537.24 605.66,-1490.82"/>
<polygon fill="none" stroke="midnightblue" points="584.91,-1615.87 587.01,-1626.25 591.84,-1616.82 584.91,-1615.87"/>
</g>
<!-- Node9 -->
<g id="node9" class="node">
<title>Node9</title>
<g id="a_node9"><a xlink:href="classcore_1_1_event_dispatcher.html" target="_top" xlink:title=" ">
<polygon fill="white" stroke="black" points="664.93,-1538.5 664.93,-1782.5 807.93,-1782.5 807.93,-1538.5 664.93,-1538.5"/>
<text text-anchor="middle" x="736.43" y="-1770.5" font-family="Helvetica,sans-Serif" font-size="10.00">core::EventDispatcher</text>
<polyline fill="none" stroke="black" points="664.93,-1763.5 807.93,-1763.5 "/>
<text text-anchor="start" x="672.93" y="-1751.5" font-family="Helvetica,sans-Serif" font-size="10.00">&#45; enabledEventReceiver</text>
<text text-anchor="start" x="672.93" y="-1740.5" font-family="Helvetica,sans-Serif" font-size="10.00">&#45; observedEventReceiver</text>
<text text-anchor="start" x="672.93" y="-1729.5" font-family="Helvetica,sans-Serif" font-size="10.00">&#45; disabledEventReceiver</text>
<text text-anchor="start" x="672.93" y="-1718.5" font-family="Helvetica,sans-Serif" font-size="10.00">&#45; eventCounter</text>
<polyline fill="none" stroke="black" points="664.93,-1711.5 807.93,-1711.5 "/>
<text text-anchor="start" x="672.93" y="-1699.5" font-family="Helvetica,sans-Serif" font-size="10.00">+ EventDispatcher()</text>
<text text-anchor="start" x="672.93" y="-1688.5" font-family="Helvetica,sans-Serif" font-size="10.00">+ enable()</text>
<text text-anchor="start" x="672.93" y="-1677.5" font-family="Helvetica,sans-Serif" font-size="10.00">+ disable()</text>
<text text-anchor="start" x="672.93" y="-1666.5" font-family="Helvetica,sans-Serif" font-size="10.00">+ suspend()</text>
<text text-anchor="start" x="672.93" y="-1655.5" font-family="Helvetica,sans-Serif" font-size="10.00">+ resume()</text>
<text text-anchor="start" x="672.93" y="-1644.5" font-family="Helvetica,sans-Serif" font-size="10.00">+ getEventCounter()</text>
<text text-anchor="start" x="672.93" y="-1633.5" font-family="Helvetica,sans-Serif" font-size="10.00">&#45; EventDispatcher()</text>
<text text-anchor="start" x="672.93" y="-1622.5" font-family="Helvetica,sans-Serif" font-size="10.00">&#45; operator=()</text>
<text text-anchor="start" x="672.93" y="-1611.5" font-family="Helvetica,sans-Serif" font-size="10.00">&#45; getMaxFd()</text>
<text text-anchor="start" x="672.93" y="-1600.5" font-family="Helvetica,sans-Serif" font-size="10.00">&#45; getFdSet()</text>
<text text-anchor="start" x="672.93" y="-1589.5" font-family="Helvetica,sans-Serif" font-size="10.00">&#45; dispatchActiveEvents()</text>
<text text-anchor="start" x="672.93" y="-1578.5" font-family="Helvetica,sans-Serif" font-size="10.00">&#45; observeEnabledEvents()</text>
<text text-anchor="start" x="672.93" y="-1567.5" font-family="Helvetica,sans-Serif" font-size="10.00">&#45; unobserveDisabledEvents()</text>
<text text-anchor="start" x="672.93" y="-1556.5" font-family="Helvetica,sans-Serif" font-size="10.00">&#45; releaseUnobservedEvents()</text>
<text text-anchor="start" x="672.93" y="-1545.5" font-family="Helvetica,sans-Serif" font-size="10.00">&#45; disableObservedEvents()</text>
</a>
</g>
</g>
<!-- Node9&#45;&gt;Node7 -->
<g id="edge9" class="edge">
<title>Node9&#45;&gt;Node7</title>
<path fill="none" stroke="#404040" d="M697.29,-1538.45C693.47,-1526.63 689.54,-1514.49 685.59,-1502.27"/>
<polygon fill="none" stroke="#404040" points="685.49,-1501.96 679.84,-1497.49 681.8,-1490.55 687.45,-1495.02 685.49,-1501.96"/>
<text text-anchor="middle" x="750.43" y="-1512" font-family="Helvetica,sans-Serif" font-size="10.00"> &#45;descriptorEventDispatcher</text>
</g>
<!-- Node10 -->
<g id="node10" class="node">
<title>Node10</title>
<g id="a_node10"><a xlink:href="classcore_1_1_event_dispatcher_1_1_fd_set.html" target="_top" xlink:title=" ">
<polygon fill="white" stroke="black" points="629.43,-1830.5 629.43,-1964.5 743.43,-1964.5 743.43,-1830.5 629.43,-1830.5"/>
<text text-anchor="start" x="637.43" y="-1952.5" font-family="Helvetica,sans-Serif" font-size="10.00">core::EventDispatcher</text>
<text text-anchor="middle" x="686.43" y="-1941.5" font-family="Helvetica,sans-Serif" font-size="10.00">::FdSet</text>
<polyline fill="none" stroke="black" points="629.43,-1934.5 743.43,-1934.5 "/>
<text text-anchor="start" x="637.43" y="-1922.5" font-family="Helvetica,sans-Serif" font-size="10.00"># registered</text>
<text text-anchor="start" x="637.43" y="-1911.5" font-family="Helvetica,sans-Serif" font-size="10.00"># active</text>
<polyline fill="none" stroke="black" points="629.43,-1904.5 743.43,-1904.5 "/>
<text text-anchor="start" x="637.43" y="-1892.5" font-family="Helvetica,sans-Serif" font-size="10.00">+ FdSet()</text>
<text text-anchor="start" x="637.43" y="-1881.5" font-family="Helvetica,sans-Serif" font-size="10.00">+ set()</text>
<text text-anchor="start" x="637.43" y="-1870.5" font-family="Helvetica,sans-Serif" font-size="10.00">+ clr()</text>
<text text-anchor="start" x="637.43" y="-1859.5" font-family="Helvetica,sans-Serif" font-size="10.00">+ isSet()</text>
<text text-anchor="start" x="637.43" y="-1848.5" font-family="Helvetica,sans-Serif" font-size="10.00">+ zero()</text>
<text text-anchor="start" x="637.43" y="-1837.5" font-family="Helvetica,sans-Serif" font-size="10.00">+ get()</text>
</a>
</g>
</g>
<!-- Node10&#45;&gt;Node9 -->
<g id="edge10" class="edge">
<title>Node10&#45;&gt;Node9</title>
<path fill="none" stroke="#404040" d="M700.49,-1830.41C702.9,-1819.1 705.48,-1806.99 708.1,-1794.64"/>
<polygon fill="none" stroke="#404040" points="708.13,-1794.49 705.47,-1787.79 710.63,-1782.76 713.3,-1789.46 708.13,-1794.49"/>
<text text-anchor="middle" x="721.43" y="-1804" font-family="Helvetica,sans-Serif" font-size="10.00"> &#45;fdSet</text>
</g>
<!-- Node11 -->
<g id="node11" class="node">
<title>Node11</title>
<g id="a_node11"><a xlink:href="classcore_1_1_event_dispatcher_1_1_descriptor_event_receiver_list.html" target="_top" xlink:title=" ">
<polygon fill="white" stroke="black" points="761.43,-1863.5 761.43,-1931.5 909.43,-1931.5 909.43,-1863.5 761.43,-1863.5"/>
<text text-anchor="start" x="769.43" y="-1919.5" font-family="Helvetica,sans-Serif" font-size="10.00">core::EventDispatcher</text>
<text text-anchor="middle" x="835.43" y="-1908.5" font-family="Helvetica,sans-Serif" font-size="10.00">::DescriptorEventReceiverList</text>
<polyline fill="none" stroke="black" points="761.43,-1901.5 909.43,-1901.5 "/>
<text text-anchor="middle" x="835.43" y="-1889.5" font-family="Helvetica,sans-Serif" font-size="10.00"> </text>
<polyline fill="none" stroke="black" points="761.43,-1882.5 909.43,-1882.5 "/>
<text text-anchor="start" x="769.43" y="-1870.5" font-family="Helvetica,sans-Serif" font-size="10.00">+ contains()</text>
</a>
</g>
</g>
<!-- Node11&#45;&gt;Node9 -->
<g id="edge11" class="edge">
<title>Node11&#45;&gt;Node9</title>
<path fill="none" stroke="#404040" d="M821.46,-1863.33C813.53,-1844.51 803.03,-1819.59 792.12,-1793.7"/>
<polygon fill="none" stroke="#404040" points="792.09,-1793.62 786.07,-1789.65 787.43,-1782.56 793.45,-1786.54 792.09,-1793.62"/>
<text text-anchor="middle" x="857.93" y="-1804" font-family="Helvetica,sans-Serif" font-size="10.00"> &#45;unobservedEventReceiver</text>
</g>
<!-- Node12 -->
<g id="node12" class="node">
<title>Node12</title>
<g id="a_node12"><a xlink:title=" ">
<polygon fill="white" stroke="#bfbfbf" points="766.43,-2002.5 766.43,-2059.5 904.43,-2059.5 904.43,-2002.5 766.43,-2002.5"/>
<text text-anchor="middle" x="835.43" y="-2047.5" font-family="Helvetica,sans-Serif" font-size="10.00">std::list&lt; EventReceiver * &gt;</text>
<polyline fill="none" stroke="#bfbfbf" points="766.43,-2040.5 904.43,-2040.5 "/>
<text text-anchor="middle" x="835.43" y="-2028.5" font-family="Helvetica,sans-Serif" font-size="10.00"> </text>
<polyline fill="none" stroke="#bfbfbf" points="766.43,-2021.5 904.43,-2021.5 "/>
<text text-anchor="middle" x="835.43" y="-2009.5" font-family="Helvetica,sans-Serif" font-size="10.00"> </text>
</a>
</g>
</g>
<!-- Node12&#45;&gt;Node11 -->
<g id="edge12" class="edge">
<title>Node12&#45;&gt;Node11</title>
<path fill="none" stroke="midnightblue" d="M835.43,-1992.25C835.43,-1973.11 835.43,-1950.07 835.43,-1931.62"/>
<polygon fill="none" stroke="midnightblue" points="831.93,-1992.43 835.43,-2002.43 838.93,-1992.43 831.93,-1992.43"/>
</g>
<!-- Node13 -->
<g id="node13" class="node">
<title>Node13</title>
<g id="a_node13"><a xlink:title=" ">
<polygon fill="white" stroke="#bfbfbf" points="602.93,-965.5 602.93,-1022.5 655.93,-1022.5 655.93,-965.5 602.93,-965.5"/>
<text text-anchor="middle" x="629.43" y="-1010.5" font-family="Helvetica,sans-Serif" font-size="10.00">SocketT</text>
<polyline fill="none" stroke="#bfbfbf" points="602.93,-1003.5 655.93,-1003.5 "/>
<text text-anchor="middle" x="629.43" y="-991.5" font-family="Helvetica,sans-Serif" font-size="10.00"> </text>
<polyline fill="none" stroke="#bfbfbf" points="602.93,-984.5 655.93,-984.5 "/>
<text text-anchor="middle" x="629.43" y="-972.5" font-family="Helvetica,sans-Serif" font-size="10.00"> </text>
</a>
</g>
</g>
<!-- Node13&#45;&gt;Node5 -->
<g id="edge13" class="edge">
<title>Node13&#45;&gt;Node5</title>
<path fill="none" stroke="midnightblue" d="M618.95,-955.36C612.29,-932.48 603.11,-902.8 593.43,-877 582.88,-848.88 570.22,-818.9 558.05,-791.45"/>
<polygon fill="none" stroke="midnightblue" points="615.61,-956.4 621.74,-965.04 622.34,-954.46 615.61,-956.4"/>
</g>
<!-- Node14 -->
<g id="node14" class="node">
<title>Node14</title>
<g id="a_node14"><a xlink:href="classcore_1_1socket_1_1stream_1_1_socket_writer.html" target="_top" xlink:title=" ">
<polygon fill="white" stroke="black" points="601.43,-602 601.43,-780 735.43,-780 735.43,-602 601.43,-602"/>
<text text-anchor="start" x="609.43" y="-768" font-family="Helvetica,sans-Serif" font-size="10.00">core::socket::stream</text>
<text text-anchor="middle" x="668.43" y="-757" font-family="Helvetica,sans-Serif" font-size="10.00">::SocketWriter&lt; SocketT &gt;</text>
<polyline fill="none" stroke="black" points="601.43,-750 735.43,-750 "/>
<text text-anchor="start" x="609.43" y="-738" font-family="Helvetica,sans-Serif" font-size="10.00">&#45; onError</text>
<text text-anchor="start" x="609.43" y="-727" font-family="Helvetica,sans-Serif" font-size="10.00">&#45; writeBuffer</text>
<text text-anchor="start" x="609.43" y="-716" font-family="Helvetica,sans-Serif" font-size="10.00">&#45; markShutdown</text>
<polyline fill="none" stroke="black" points="601.43,-709 735.43,-709 "/>
<text text-anchor="start" x="609.43" y="-697" font-family="Helvetica,sans-Serif" font-size="10.00"># SocketWriter()</text>
<text text-anchor="start" x="609.43" y="-686" font-family="Helvetica,sans-Serif" font-size="10.00"># ~SocketWriter()</text>
<text text-anchor="start" x="609.43" y="-675" font-family="Helvetica,sans-Serif" font-size="10.00"># sendToPeer()</text>
<text text-anchor="start" x="609.43" y="-664" font-family="Helvetica,sans-Serif" font-size="10.00"># doShutdown()</text>
<text text-anchor="start" x="609.43" y="-653" font-family="Helvetica,sans-Serif" font-size="10.00"># shutdown()</text>
<text text-anchor="start" x="609.43" y="-642" font-family="Helvetica,sans-Serif" font-size="10.00"># doWrite()</text>
<text text-anchor="start" x="609.43" y="-631" font-family="Helvetica,sans-Serif" font-size="10.00">&#45; SocketWriter()</text>
<text text-anchor="start" x="609.43" y="-620" font-family="Helvetica,sans-Serif" font-size="10.00">&#45; write()</text>
<text text-anchor="start" x="609.43" y="-609" font-family="Helvetica,sans-Serif" font-size="10.00">&#45; getError()</text>
</a>
</g>
</g>
<!-- Node13&#45;&gt;Node14 -->
<g id="edge17" class="edge">
<title>Node13&#45;&gt;Node14</title>
<path fill="none" stroke="midnightblue" d="M634.31,-955.33C639.96,-911.72 649.46,-838.43 657,-780.23"/>
<polygon fill="none" stroke="midnightblue" points="630.81,-955.12 633,-965.49 637.75,-956.02 630.81,-955.12"/>
</g>
<!-- Node14&#45;&gt;Node2 -->
<g id="edge14" class="edge">
<title>Node14&#45;&gt;Node2</title>
<path fill="none" stroke="darkgreen" d="M617.1,-592.59C609.15,-578.77 600.8,-564.89 592.43,-552 565.43,-510.39 532.98,-466.43 504.02,-428.96"/>
<polygon fill="none" stroke="darkgreen" points="614.27,-594.69 622.26,-601.65 620.35,-591.22 614.27,-594.69"/>
</g>
<!-- Node15&#45;&gt;Node14 -->
<g id="edge15" class="edge">
<title>Node15&#45;&gt;Node14</title>
<path fill="none" stroke="midnightblue" d="M727.46,-922.74C716.57,-880.19 702.6,-825.55 690.98,-780.13"/>
<polygon fill="none" stroke="midnightblue" points="724.07,-923.63 729.94,-932.45 730.85,-921.89 724.07,-923.63"/>
</g>
<!-- Node16&#45;&gt;Node2 -->
<g id="edge18" class="edge">
<title>Node16&#45;&gt;Node2</title>
<path fill="none" stroke="orange" d="M351.74,-542.22C353.76,-528.2 356.28,-514.27 359.43,-501 360.88,-494.91 362.51,-488.75 364.3,-482.57"/>
<polygon fill="orange" stroke="orange" points="348.23,-542.07 350.36,-552.44 355.17,-543 348.23,-542.07"/>
<text text-anchor="start" x="359.43" y="-526" font-family="Helvetica,sans-Serif" font-size="10.00"> &lt; SocketReader&lt; SocketT</text>
<text text-anchor="start" x="359.43" y="-515" font-family="Helvetica,sans-Serif" font-size="10.00"> &gt;, SocketWriter&lt; SocketT</text>
<text text-anchor="middle" x="425.93" y="-504" font-family="Helvetica,sans-Serif" font-size="10.00"> &gt;, SocketT::SocketAddress &gt;</text>
</g>
<!-- Node17 -->
<g id="node17" class="node">
<title>Node17</title>
<g id="a_node17"><a xlink:title=" ">
<polygon fill="white" stroke="#bfbfbf" points="201.93,-965.5 201.93,-1022.5 286.93,-1022.5 286.93,-965.5 201.93,-965.5"/>
<text text-anchor="middle" x="244.43" y="-1010.5" font-family="Helvetica,sans-Serif" font-size="10.00">SocketReaderT</text>
<polyline fill="none" stroke="#bfbfbf" points="201.93,-1003.5 286.93,-1003.5 "/>
<text text-anchor="middle" x="244.43" y="-991.5" font-family="Helvetica,sans-Serif" font-size="10.00"> </text>
<polyline fill="none" stroke="#bfbfbf" points="201.93,-984.5 286.93,-984.5 "/>
<text text-anchor="middle" x="244.43" y="-972.5" font-family="Helvetica,sans-Serif" font-size="10.00"> </text>
</a>
</g>
</g>
<!-- Node17&#45;&gt;Node16 -->
<g id="edge20" class="edge">
<title>Node17&#45;&gt;Node16</title>
<path fill="none" stroke="darkgreen" d="M256.81,-955.74C267.38,-923.91 283.28,-876.06 298.64,-829.82"/>
<polygon fill="none" stroke="darkgreen" points="253.4,-954.9 253.57,-965.49 260.04,-957.1 253.4,-954.9"/>
</g>
<!-- Node18 -->
<g id="node18" class="node">
<title>Node18</title>
<g id="a_node18"><a xlink:title=" ">
<polygon fill="white" stroke="#bfbfbf" points="304.93,-965.5 304.93,-1022.5 383.93,-1022.5 383.93,-965.5 304.93,-965.5"/>
<text text-anchor="middle" x="344.43" y="-1010.5" font-family="Helvetica,sans-Serif" font-size="10.00">SocketWriterT</text>
<polyline fill="none" stroke="#bfbfbf" points="304.93,-1003.5 383.93,-1003.5 "/>
<text text-anchor="middle" x="344.43" y="-991.5" font-family="Helvetica,sans-Serif" font-size="10.00"> </text>
<polyline fill="none" stroke="#bfbfbf" points="304.93,-984.5 383.93,-984.5 "/>
<text text-anchor="middle" x="344.43" y="-972.5" font-family="Helvetica,sans-Serif" font-size="10.00"> </text>
</a>
</g>
</g>
<!-- Node18&#45;&gt;Node16 -->
<g id="edge21" class="edge">
<title>Node18&#45;&gt;Node16</title>
<path fill="none" stroke="darkgreen" d="M344.43,-955.33C344.43,-923.5 344.43,-875.86 344.43,-829.82"/>
<polygon fill="none" stroke="darkgreen" points="340.93,-955.49 344.43,-965.49 347.93,-955.49 340.93,-955.49"/>
</g>
</g>
</svg>
