<?xml version="1.0" encoding="UTF-8" standalone="no"?>
<!DOCTYPE svg PUBLIC "-//W3C//DTD SVG 1.1//EN"
 "http://www.w3.org/Graphics/SVG/1.1/DTD/svg11.dtd">
<!-- Generated by graphviz version 2.43.0 (0)
 -->
<!-- Title: core::SNodeC::start Pages: 1 -->
<svg width="1220pt" height="620pt"
 viewBox="0.00 0.00 1220.00 620.00" xmlns="http://www.w3.org/2000/svg" xmlns:xlink="http://www.w3.org/1999/xlink">
<g id="graph0" class="graph" transform="scale(1 1) rotate(0) translate(4 616)">
<title>core::SNodeC::start</title>
<polygon fill="white" stroke="transparent" points="-4,4 -4,-616 1216,-616 1216,4 -4,4"/>
<!-- Node1 -->
<g id="node1" class="node">
<title>Node1</title>
<g id="a_node1"><a xlink:title=" ">
<polygon fill="#bfbfbf" stroke="black" points="0,-92 0,-111 110,-111 110,-92 0,-92"/>
<text text-anchor="middle" x="55" y="-99" font-family="Helvetica,sans-Serif" font-size="10.00">core::SNodeC::start</text>
</a>
</g>
</g>
<!-- Node2 -->
<g id="node2" class="node">
<title>Node2</title>
<g id="a_node2"><a xlink:href="classcore_1_1_event_loop.html#aaa2c3856fed808d00542d573c2b3a737" target="_top" xlink:title=" ">
<polygon fill="white" stroke="black" points="146,-92 146,-111 269,-111 269,-92 146,-92"/>
<text text-anchor="middle" x="207.5" y="-99" font-family="Helvetica,sans-Serif" font-size="10.00">core::EventLoop::start</text>
</a>
</g>
</g>
<!-- Node1&#45;&gt;Node2 -->
<g id="edge1" class="edge">
<title>Node1&#45;&gt;Node2</title>
<path fill="none" stroke="midnightblue" d="M110.33,-101.5C118.62,-101.5 127.28,-101.5 135.86,-101.5"/>
<polygon fill="midnightblue" stroke="midnightblue" points="135.87,-105 145.87,-101.5 135.87,-98 135.87,-105"/>
</g>
<!-- Node3 -->
<g id="node3" class="node">
<title>Node3</title>
<g id="a_node3"><a xlink:href="classcore_1_1_event_loop.html#a304078abe703bded02d1e6cb2683b705" target="_top" xlink:title=" ">
<polygon fill="white" stroke="black" points="490.5,-187 490.5,-206 614.5,-206 614.5,-187 490.5,-187"/>
<text text-anchor="middle" x="552.5" y="-194" font-family="Helvetica,sans-Serif" font-size="10.00">core::EventLoop::_tick</text>
</a>
</g>
</g>
<!-- Node2&#45;&gt;Node3 -->
<g id="edge2" class="edge">
<title>Node2&#45;&gt;Node3</title>
<path fill="none" stroke="midnightblue" d="M230.02,-111.04C249.36,-119.35 278.69,-131.33 305,-139.5 367.2,-158.82 440.05,-174.88 490.34,-184.98"/>
<polygon fill="midnightblue" stroke="midnightblue" points="489.91,-188.46 500.4,-186.98 491.28,-181.6 489.91,-188.46"/>
</g>
<!-- Node21 -->
<g id="node21" class="node">
<title>Node21</title>
<g id="a_node21"><a xlink:href="classcore_1_1_event_loop.html#a3125b6361565df4753affc73eb83984a" target="_top" xlink:title=" ">
<polygon fill="white" stroke="black" points="319,-111 319,-130 439,-130 439,-111 319,-111"/>
<text text-anchor="middle" x="379" y="-118" font-family="Helvetica,sans-Serif" font-size="10.00">core::EventLoop::free</text>
</a>
</g>
</g>
<!-- Node2&#45;&gt;Node21 -->
<g id="edge20" class="edge">
<title>Node2&#45;&gt;Node21</title>
<path fill="none" stroke="midnightblue" d="M269.21,-108.31C281.96,-109.73 295.49,-111.25 308.52,-112.71"/>
<polygon fill="midnightblue" stroke="midnightblue" points="308.52,-116.23 318.85,-113.87 309.3,-109.28 308.52,-116.23"/>
</g>
<!-- Node27 -->
<g id="node27" class="node">
<title>Node27</title>
<g id="a_node27"><a xlink:href="namespacecore_1_1system.html#a0e5e3b39e66ee4db8b9bb6065e693d0a" target="_top" xlink:title=" ">
<polygon fill="white" stroke="black" points="321.5,-73 321.5,-92 436.5,-92 436.5,-73 321.5,-73"/>
<text text-anchor="middle" x="379" y="-80" font-family="Helvetica,sans-Serif" font-size="10.00">core::system::signal</text>
</a>
</g>
</g>
<!-- Node2&#45;&gt;Node27 -->
<g id="edge33" class="edge">
<title>Node2&#45;&gt;Node27</title>
<path fill="none" stroke="midnightblue" d="M269.21,-94.69C282.9,-93.16 297.49,-91.52 311.4,-89.97"/>
<polygon fill="midnightblue" stroke="midnightblue" points="311.84,-93.44 321.38,-88.85 311.06,-86.48 311.84,-93.44"/>
</g>
<!-- Node28 -->
<g id="node28" class="node">
<title>Node28</title>
<g id="a_node28"><a xlink:href="classcore_1_1_event_loop.html#a96a2e40259e00e7560dc8dde4d85131f" target="_top" xlink:title=" ">
<polygon fill="white" stroke="black" points="305,-35 305,-54 453,-54 453,-35 305,-35"/>
<text text-anchor="middle" x="379" y="-42" font-family="Helvetica,sans-Serif" font-size="10.00">core::EventLoop::stoponsig</text>
</a>
</g>
</g>
<!-- Node2&#45;&gt;Node28 -->
<g id="edge34" class="edge">
<title>Node2&#45;&gt;Node28</title>
<path fill="none" stroke="midnightblue" d="M230.45,-91.98C249.84,-83.78 278.98,-71.98 305,-63.5 312.35,-61.1 320.2,-58.8 327.92,-56.68"/>
<polygon fill="midnightblue" stroke="midnightblue" points="328.83,-60.06 337.59,-54.09 327.02,-53.3 328.83,-60.06"/>
</g>
<!-- Node4 -->
<g id="node4" class="node">
<title>Node4</title>
<g id="a_node4"><a xlink:href="classcore_1_1_event_dispatcher.html#a5b403d2a3f909e4f867d1e5ab5376e52" target="_top" xlink:title=" ">
<polygon fill="white" stroke="black" points="666,-336.5 666,-366.5 790,-366.5 790,-336.5 666,-336.5"/>
<text text-anchor="start" x="674" y="-354.5" font-family="Helvetica,sans-Serif" font-size="10.00">core::EventDispatcher</text>
<text text-anchor="middle" x="728" y="-343.5" font-family="Helvetica,sans-Serif" font-size="10.00">::dispatch</text>
</a>
</g>
</g>
<!-- Node3&#45;&gt;Node4 -->
<g id="edge3" class="edge">
<title>Node3&#45;&gt;Node4</title>
<path fill="none" stroke="midnightblue" d="M564.35,-206.2C591.71,-230.64 664.04,-295.25 702.36,-329.49"/>
<polygon fill="midnightblue" stroke="midnightblue" points="700.2,-332.25 709.99,-336.31 704.87,-327.03 700.2,-332.25"/>
</g>
<!-- Node16 -->
<g id="node16" class="node">
<title>Node16</title>
<g id="a_node16"><a xlink:href="classcore_1_1_dynamic_loader.html#a8c4d850882c7177f93a543b96eb450a0" target="_top" xlink:title=" ">
<polygon fill="white" stroke="black" points="666,-93.5 666,-123.5 790,-123.5 790,-93.5 666,-93.5"/>
<text text-anchor="start" x="674" y="-111.5" font-family="Helvetica,sans-Serif" font-size="10.00">core::DynamicLoader</text>
<text text-anchor="middle" x="728" y="-100.5" font-family="Helvetica,sans-Serif" font-size="10.00">::execDlCloseDeleyed</text>
</a>
</g>
</g>
<!-- Node3&#45;&gt;Node16 -->
<g id="edge15" class="edge">
<title>Node3&#45;&gt;Node16</title>
<path fill="none" stroke="midnightblue" d="M596.64,-186.93C603.41,-184.44 610.11,-181.35 616,-177.5 636.58,-164.05 631.76,-149.46 652,-135.5 655.99,-132.75 660.29,-130.24 664.75,-127.97"/>
<polygon fill="midnightblue" stroke="midnightblue" points="666.48,-131.03 674.05,-123.62 663.51,-124.68 666.48,-131.03"/>
</g>
<!-- Node5 -->
<g id="node5" class="node">
<title>Node5</title>
<g id="a_node5"><a xlink:href="classutils_1_1_timeval.html#a54b232dc1ffeea007100dcd1caad1987" target="_top" xlink:title=" ">
<polygon fill="white" stroke="black" points="858.5,-200 858.5,-219 1005.5,-219 1005.5,-200 858.5,-200"/>
<text text-anchor="middle" x="932" y="-207" font-family="Helvetica,sans-Serif" font-size="10.00">utils::Timeval::currentTime</text>
</a>
</g>
</g>
<!-- Node4&#45;&gt;Node5 -->
<g id="edge4" class="edge">
<title>Node4&#45;&gt;Node5</title>
<path fill="none" stroke="midnightblue" d="M738.2,-336.37C754.98,-310.18 793.15,-256.6 840,-229.5 844.73,-226.77 849.79,-224.41 855.01,-222.37"/>
<polygon fill="midnightblue" stroke="midnightblue" points="856.27,-225.63 864.56,-219.04 853.97,-219.03 856.27,-225.63"/>
</g>
<!-- Node7 -->
<g id="node7" class="node">
<title>Node7</title>
<g id="a_node7"><a xlink:href="classcore_1_1_timer_event_dispatcher.html#ad9f23074622661d99d7dacf624fe22d0" target="_top" xlink:title=" ">
<polygon fill="white" stroke="black" points="856,-238.5 856,-268.5 1008,-268.5 1008,-238.5 856,-238.5"/>
<text text-anchor="start" x="864" y="-256.5" font-family="Helvetica,sans-Serif" font-size="10.00">core::TimerEventDispatcher</text>
<text text-anchor="middle" x="932" y="-245.5" font-family="Helvetica,sans-Serif" font-size="10.00">::dispatchActiveEvents</text>
</a>
</g>
</g>
<!-- Node4&#45;&gt;Node7 -->
<g id="edge6" class="edge">
<title>Node4&#45;&gt;Node7</title>
<path fill="none" stroke="midnightblue" d="M747.96,-336.33C769.24,-319.98 805.33,-294.19 840,-278.5 845.36,-276.08 851,-273.84 856.74,-271.79"/>
<polygon fill="midnightblue" stroke="midnightblue" points="858.11,-275.02 866.46,-268.51 855.87,-268.39 858.11,-275.02"/>
</g>
<!-- Node8 -->
<g id="node8" class="node">
<title>Node8</title>
<g id="a_node8"><a xlink:href="classcore_1_1_event_dispatcher.html#a871c108fbe3474eda25a7a8308fff058" target="_top" xlink:title=" ">
<polygon fill="white" stroke="black" points="868,-581.5 868,-611.5 996,-611.5 996,-581.5 868,-581.5"/>
<text text-anchor="start" x="876" y="-599.5" font-family="Helvetica,sans-Serif" font-size="10.00">core::EventDispatcher</text>
<text text-anchor="middle" x="932" y="-588.5" font-family="Helvetica,sans-Serif" font-size="10.00">::dispatchActiveEvents</text>
</a>
</g>
</g>
<!-- Node4&#45;&gt;Node8 -->
<g id="edge7" class="edge">
<title>Node4&#45;&gt;Node8</title>
<path fill="none" stroke="midnightblue" d="M732.06,-366.54C741,-406.57 770.98,-516.5 840,-572.5 845.46,-576.93 851.65,-580.54 858.17,-583.5"/>
<polygon fill="midnightblue" stroke="midnightblue" points="857.34,-586.93 867.92,-587.37 859.92,-580.43 857.34,-586.93"/>
</g>
<!-- Node9 -->
<g id="node9" class="node">
<title>Node9</title>
<g id="a_node9"><a xlink:href="classcore_1_1_timer_event_dispatcher.html#ab9e60520aa911e56dc0fcb8db01a7372" target="_top" xlink:title=" ">
<polygon fill="white" stroke="black" points="856,-532.5 856,-562.5 1008,-562.5 1008,-532.5 856,-532.5"/>
<text text-anchor="start" x="864" y="-550.5" font-family="Helvetica,sans-Serif" font-size="10.00">core::TimerEventDispatcher</text>
<text text-anchor="middle" x="932" y="-539.5" font-family="Helvetica,sans-Serif" font-size="10.00">::empty</text>
</a>
</g>
</g>
<!-- Node4&#45;&gt;Node9 -->
<g id="edge8" class="edge">
<title>Node4&#45;&gt;Node9</title>
<path fill="none" stroke="midnightblue" d="M734.35,-366.6C747.08,-400.25 782.47,-481.75 840,-523.5 842.14,-525.05 844.37,-526.51 846.68,-527.87"/>
<polygon fill="midnightblue" stroke="midnightblue" points="845.41,-531.15 855.9,-532.65 848.64,-524.94 845.41,-531.15"/>
</g>
<!-- Node10 -->
<g id="node10" class="node">
<title>Node10</title>
<g id="a_node10"><a xlink:href="classcore_1_1_event_dispatcher.html#a8668613420b1b5d7df85ba012638c827" target="_top" xlink:title=" ">
<polygon fill="white" stroke="black" points="870,-483.5 870,-513.5 994,-513.5 994,-483.5 870,-483.5"/>
<text text-anchor="start" x="878" y="-501.5" font-family="Helvetica,sans-Serif" font-size="10.00">core::EventDispatcher</text>
<text text-anchor="middle" x="932" y="-490.5" font-family="Helvetica,sans-Serif" font-size="10.00">::getNextTimeout</text>
</a>
</g>
</g>
<!-- Node4&#45;&gt;Node10 -->
<g id="edge9" class="edge">
<title>Node4&#45;&gt;Node10</title>
<path fill="none" stroke="midnightblue" d="M738.29,-366.55C755.2,-392.65 793.58,-446.21 840,-474.5 846.24,-478.3 853.07,-481.5 860.1,-484.2"/>
<polygon fill="midnightblue" stroke="midnightblue" points="859.17,-487.59 869.77,-487.58 861.48,-480.98 859.17,-487.59"/>
</g>
<!-- Node11 -->
<g id="node11" class="node">
<title>Node11</title>
<g id="a_node11"><a xlink:href="classcore_1_1_timer_event_dispatcher.html#a1a0a3e8a85f873c37bb0f38dd49b4cda" target="_top" xlink:title=" ">
<polygon fill="white" stroke="black" points="856,-150.5 856,-180.5 1008,-180.5 1008,-150.5 856,-150.5"/>
<text text-anchor="start" x="864" y="-168.5" font-family="Helvetica,sans-Serif" font-size="10.00">core::TimerEventDispatcher</text>
<text text-anchor="middle" x="932" y="-157.5" font-family="Helvetica,sans-Serif" font-size="10.00">::getNextTimeout</text>
</a>
</g>
</g>
<!-- Node4&#45;&gt;Node11 -->
<g id="edge10" class="edge">
<title>Node4&#45;&gt;Node11</title>
<path fill="none" stroke="midnightblue" d="M735.07,-336.45C748.77,-304.45 785.2,-229.43 840,-190.5 842.74,-188.55 845.62,-186.76 848.61,-185.11"/>
<polygon fill="midnightblue" stroke="midnightblue" points="850.42,-188.11 857.84,-180.55 847.33,-181.84 850.42,-188.11"/>
</g>
<!-- Node12 -->
<g id="node12" class="node">
<title>Node12</title>
<g id="a_node12"><a xlink:href="classcore_1_1_event_dispatcher.html#af0ab163c3c810c0a7a345c644e8dceab" target="_top" xlink:title=" ">
<polygon fill="white" stroke="black" points="840,-434.5 840,-464.5 1024,-464.5 1024,-434.5 840,-434.5"/>
<text text-anchor="start" x="848" y="-452.5" font-family="Helvetica,sans-Serif" font-size="10.00">core::EventDispatcher</text>
<text text-anchor="middle" x="932" y="-441.5" font-family="Helvetica,sans-Serif" font-size="10.00">::getObservedEventReceiverCount</text>
</a>
</g>
</g>
<!-- Node4&#45;&gt;Node12 -->
<g id="edge11" class="edge">
<title>Node4&#45;&gt;Node12</title>
<path fill="none" stroke="midnightblue" d="M747.51,-366.66C768.68,-383.29 804.94,-409.72 840,-425.5 844.42,-427.49 849.04,-429.34 853.76,-431.06"/>
<polygon fill="midnightblue" stroke="midnightblue" points="852.93,-434.48 863.53,-434.4 855.2,-427.86 852.93,-434.48"/>
</g>
<!-- Node13 -->
<g id="node13" class="node">
<title>Node13</title>
<g id="a_node13"><a xlink:href="classcore_1_1_event_dispatcher.html#a0ecbf87eb5bb10f93779e61e7a59d5d5" target="_top" xlink:title=" ">
<polygon fill="white" stroke="black" points="870,-385.5 870,-415.5 994,-415.5 994,-385.5 870,-385.5"/>
<text text-anchor="start" x="878" y="-403.5" font-family="Helvetica,sans-Serif" font-size="10.00">core::EventDispatcher</text>
<text text-anchor="middle" x="932" y="-392.5" font-family="Helvetica,sans-Serif" font-size="10.00">::multiplex</text>
</a>
</g>
</g>
<!-- Node4&#45;&gt;Node13 -->
<g id="edge12" class="edge">
<title>Node4&#45;&gt;Node13</title>
<path fill="none" stroke="midnightblue" d="M790.15,-366.33C812.1,-371.66 837.05,-377.71 859.78,-383.22"/>
<polygon fill="midnightblue" stroke="midnightblue" points="859.16,-386.68 869.7,-385.63 860.81,-379.87 859.16,-386.68"/>
</g>
<!-- Node14 -->
<g id="node14" class="node">
<title>Node14</title>
<g id="a_node14"><a xlink:href="classcore_1_1_event_dispatcher.html#a72c47a2528ac429eaf731bafb10035e6" target="_top" xlink:title=" ">
<polygon fill="white" stroke="black" points="865,-336.5 865,-366.5 999,-366.5 999,-336.5 865,-336.5"/>
<text text-anchor="start" x="873" y="-354.5" font-family="Helvetica,sans-Serif" font-size="10.00">core::EventDispatcher</text>
<text text-anchor="middle" x="932" y="-343.5" font-family="Helvetica,sans-Serif" font-size="10.00">::observeEnabledEvents</text>
</a>
</g>
</g>
<!-- Node4&#45;&gt;Node14 -->
<g id="edge13" class="edge">
<title>Node4&#45;&gt;Node14</title>
<path fill="none" stroke="midnightblue" d="M790.15,-351.5C810.5,-351.5 833.42,-351.5 854.77,-351.5"/>
<polygon fill="midnightblue" stroke="midnightblue" points="854.78,-355 864.78,-351.5 854.78,-348 854.78,-355"/>
</g>
<!-- Node15 -->
<g id="node15" class="node">
<title>Node15</title>
<g id="a_node15"><a xlink:href="classcore_1_1_event_dispatcher.html#ab81cc018afefef91d1b3bafc0baf12fc" target="_top" xlink:title=" ">
<polygon fill="white" stroke="black" points="857.5,-287.5 857.5,-317.5 1006.5,-317.5 1006.5,-287.5 857.5,-287.5"/>
<text text-anchor="start" x="865.5" y="-305.5" font-family="Helvetica,sans-Serif" font-size="10.00">core::EventDispatcher</text>
<text text-anchor="middle" x="932" y="-294.5" font-family="Helvetica,sans-Serif" font-size="10.00">::unobserveDisabledEvents</text>
</a>
</g>
</g>
<!-- Node4&#45;&gt;Node15 -->
<g id="edge14" class="edge">
<title>Node4&#45;&gt;Node15</title>
<path fill="none" stroke="midnightblue" d="M790.15,-336.67C811.9,-331.39 836.59,-325.4 859.15,-319.93"/>
<polygon fill="midnightblue" stroke="midnightblue" points="860.11,-323.3 869.01,-317.54 858.46,-316.49 860.11,-323.3"/>
</g>
<!-- Node6 -->
<g id="node6" class="node">
<title>Node6</title>
<g id="a_node6"><a xlink:href="namespacecore_1_1system.html#acf9e7364dbf51f07083e05caa50d3b66" target="_top" xlink:title=" ">
<polygon fill="white" stroke="black" points="1060,-200 1060,-219 1212,-219 1212,-200 1060,-200"/>
<text text-anchor="middle" x="1136" y="-207" font-family="Helvetica,sans-Serif" font-size="10.00">core::system::gettimeofday</text>
</a>
</g>
</g>
<!-- Node5&#45;&gt;Node6 -->
<g id="edge5" class="edge">
<title>Node5&#45;&gt;Node6</title>
<path fill="none" stroke="midnightblue" d="M1005.64,-209.5C1019.98,-209.5 1035.14,-209.5 1049.85,-209.5"/>
<polygon fill="midnightblue" stroke="midnightblue" points="1049.94,-213 1059.94,-209.5 1049.94,-206 1049.94,-213"/>
</g>
<!-- Node17 -->
<g id="node17" class="node">
<title>Node17</title>
<g id="a_node17"><a xlink:href="classcore_1_1_dynamic_loader.html#a28d14f3029339351d8bb8b328a6110b0" target="_top" xlink:title=" ">
<polygon fill="white" stroke="black" points="872,-52.5 872,-82.5 992,-82.5 992,-52.5 872,-52.5"/>
<text text-anchor="start" x="880" y="-70.5" font-family="Helvetica,sans-Serif" font-size="10.00">core::DynamicLoader</text>
<text text-anchor="middle" x="932" y="-59.5" font-family="Helvetica,sans-Serif" font-size="10.00">::dlError</text>
</a>
</g>
</g>
<!-- Node16&#45;&gt;Node17 -->
<g id="edge16" class="edge">
<title>Node16&#45;&gt;Node17</title>
<path fill="none" stroke="midnightblue" d="M790.15,-96.09C812.81,-91.49 838.66,-86.24 861.97,-81.51"/>
<polygon fill="midnightblue" stroke="midnightblue" points="862.68,-84.94 871.79,-79.52 861.29,-78.08 862.68,-84.94"/>
</g>
<!-- Node19 -->
<g id="node19" class="node">
<title>Node19</title>
<g id="a_node19"><a xlink:href="classcore_1_1_dynamic_loader.html#afea22388177ead6ebd12f9ef041e6d2b" target="_top" xlink:title=" ">
<polygon fill="white" stroke="black" points="872,-3.5 872,-33.5 992,-33.5 992,-3.5 872,-3.5"/>
<text text-anchor="start" x="880" y="-21.5" font-family="Helvetica,sans-Serif" font-size="10.00">core::DynamicLoader</text>
<text text-anchor="middle" x="932" y="-10.5" font-family="Helvetica,sans-Serif" font-size="10.00">::execDlClose</text>
</a>
</g>
</g>
<!-- Node16&#45;&gt;Node19 -->
<g id="edge18" class="edge">
<title>Node16&#45;&gt;Node19</title>
<path fill="none" stroke="midnightblue" d="M751.05,-93.24C772.82,-78.75 807.49,-57.21 840,-43.5 847.11,-40.5 854.69,-37.76 862.32,-35.28"/>
<polygon fill="midnightblue" stroke="midnightblue" points="863.46,-38.59 871.98,-32.29 861.39,-31.91 863.46,-38.59"/>
</g>
<!-- Node18 -->
<g id="node18" class="node">
<title>Node18</title>
<g id="a_node18"><a xlink:href="namespacecore_1_1system.html#a0778aa080f796964218bcd02804a2b17" target="_top" xlink:title=" ">
<polygon fill="white" stroke="black" points="1077,-58 1077,-77 1195,-77 1195,-58 1077,-58"/>
<text text-anchor="middle" x="1136" y="-65" font-family="Helvetica,sans-Serif" font-size="10.00">core::system::dlerror</text>
</a>
</g>
</g>
<!-- Node17&#45;&gt;Node18 -->
<g id="edge17" class="edge">
<title>Node17&#45;&gt;Node18</title>
<path fill="none" stroke="midnightblue" d="M992.24,-67.5C1015.57,-67.5 1042.5,-67.5 1066.65,-67.5"/>
<polygon fill="midnightblue" stroke="midnightblue" points="1066.8,-71 1076.8,-67.5 1066.8,-64 1066.8,-71"/>
</g>
<!-- Node20 -->
<g id="node20" class="node">
<title>Node20</title>
<g id="a_node20"><a xlink:href="namespacecore_1_1system.html#a4317d54914cd18248143183ea71252d3" target="_top" xlink:title=" ">
<polygon fill="white" stroke="black" points="1076,-9 1076,-28 1196,-28 1196,-9 1076,-9"/>
<text text-anchor="middle" x="1136" y="-16" font-family="Helvetica,sans-Serif" font-size="10.00">core::system::dlclose</text>
</a>
</g>
</g>
<!-- Node19&#45;&gt;Node20 -->
<g id="edge19" class="edge">
<title>Node19&#45;&gt;Node20</title>
<path fill="none" stroke="midnightblue" d="M992.24,-18.5C1015.26,-18.5 1041.8,-18.5 1065.7,-18.5"/>
<polygon fill="midnightblue" stroke="midnightblue" points="1065.76,-22 1075.76,-18.5 1065.76,-15 1065.76,-22"/>
</g>
<!-- Node21&#45;&gt;Node3 -->
<g id="edge21" class="edge">
<title>Node21&#45;&gt;Node3</title>
<path fill="none" stroke="midnightblue" d="M396.16,-130.18C417.05,-142.4 454.81,-163.51 489,-177.5 494.51,-179.76 500.4,-181.89 506.26,-183.85"/>
<polygon fill="midnightblue" stroke="midnightblue" points="505.47,-187.27 516.06,-186.98 507.6,-180.6 505.47,-187.27"/>
</g>
<!-- Node21&#45;&gt;Node16 -->
<g id="edge26" class="edge">
<title>Node21&#45;&gt;Node16</title>
<path fill="none" stroke="midnightblue" d="M439.26,-118.45C499.25,-116.38 592.04,-113.17 655.95,-110.96"/>
<polygon fill="midnightblue" stroke="midnightblue" points="656.07,-114.46 665.95,-110.61 655.83,-107.46 656.07,-114.46"/>
</g>
<!-- Node22 -->
<g id="node22" class="node">
<title>Node22</title>
<g id="a_node22"><a xlink:href="classcore_1_1_dynamic_loader.html#acff0a66e885a7bc718171eede89a1c9a" target="_top" xlink:title=" ">
<polygon fill="white" stroke="black" points="492.5,-49.5 492.5,-79.5 612.5,-79.5 612.5,-49.5 492.5,-49.5"/>
<text text-anchor="start" x="500.5" y="-67.5" font-family="Helvetica,sans-Serif" font-size="10.00">core::DynamicLoader</text>
<text text-anchor="middle" x="552.5" y="-56.5" font-family="Helvetica,sans-Serif" font-size="10.00">::execDlCloseAll</text>
</a>
</g>
</g>
<!-- Node21&#45;&gt;Node22 -->
<g id="edge22" class="edge">
<title>Node21&#45;&gt;Node22</title>
<path fill="none" stroke="midnightblue" d="M419.62,-110.99C430.5,-108.16 442.26,-104.9 453,-101.5 469.87,-96.15 488.08,-89.55 504.2,-83.41"/>
<polygon fill="midnightblue" stroke="midnightblue" points="505.86,-86.53 513.94,-79.67 503.35,-79.99 505.86,-86.53"/>
</g>
<!-- Node23 -->
<g id="node23" class="node">
<title>Node23</title>
<g id="a_node23"><a xlink:href="classcore_1_1_event_dispatcher.html#aa5d8669769453b8446d2e53bfa177c37" target="_top" xlink:title=" ">
<polygon fill="white" stroke="black" points="489,-0.5 489,-30.5 616,-30.5 616,-0.5 489,-0.5"/>
<text text-anchor="start" x="497" y="-18.5" font-family="Helvetica,sans-Serif" font-size="10.00">core::EventDispatcher</text>
<text text-anchor="middle" x="552.5" y="-7.5" font-family="Helvetica,sans-Serif" font-size="10.00">::stopDescriptorEvents</text>
</a>
</g>
</g>
<!-- Node21&#45;&gt;Node23 -->
<g id="edge27" class="edge">
<title>Node21&#45;&gt;Node23</title>
<path fill="none" stroke="midnightblue" d="M435.95,-110.9C442.04,-108.44 447.88,-105.36 453,-101.5 478.13,-82.55 465.11,-61 489,-40.5 490.94,-38.84 493.01,-37.27 495.16,-35.81"/>
<polygon fill="midnightblue" stroke="midnightblue" points="497.05,-38.76 503.84,-30.62 493.46,-32.75 497.05,-38.76"/>
</g>
<!-- Node24 -->
<g id="node24" class="node">
<title>Node24</title>
<g id="a_node24"><a xlink:href="classcore_1_1_event_dispatcher.html#a96ff3828bc62515a1a16a6c930df3d0b" target="_top" xlink:title=" ">
<polygon fill="white" stroke="black" points="490.5,-137.5 490.5,-167.5 614.5,-167.5 614.5,-137.5 490.5,-137.5"/>
<text text-anchor="start" x="498.5" y="-155.5" font-family="Helvetica,sans-Serif" font-size="10.00">core::EventDispatcher</text>
<text text-anchor="middle" x="552.5" y="-144.5" font-family="Helvetica,sans-Serif" font-size="10.00">::stopTimerEvents</text>
</a>
</g>
</g>
<!-- Node21&#45;&gt;Node24 -->
<g id="edge28" class="edge">
<title>Node21&#45;&gt;Node24</title>
<path fill="none" stroke="midnightblue" d="M430.99,-130.01C446.45,-132.9 463.71,-136.12 480.24,-139.2"/>
<polygon fill="midnightblue" stroke="midnightblue" points="479.94,-142.71 490.41,-141.1 481.22,-135.83 479.94,-142.71"/>
</g>
<!-- Node22&#45;&gt;Node16 -->
<g id="edge25" class="edge">
<title>Node22&#45;&gt;Node16</title>
<path fill="none" stroke="midnightblue" d="M612.72,-79.52C627.3,-83.22 643.03,-87.21 658.02,-91.01"/>
<polygon fill="midnightblue" stroke="midnightblue" points="657.2,-94.41 667.75,-93.47 658.92,-87.62 657.2,-94.41"/>
</g>
<!-- Node22&#45;&gt;Node17 -->
<g id="edge23" class="edge">
<title>Node22&#45;&gt;Node17</title>
<path fill="none" stroke="midnightblue" d="M612.9,-64.97C680.38,-65.51 790.37,-66.38 861.71,-66.95"/>
<polygon fill="midnightblue" stroke="midnightblue" points="861.92,-70.45 871.95,-67.03 861.97,-63.45 861.92,-70.45"/>
</g>
<!-- Node22&#45;&gt;Node19 -->
<g id="edge24" class="edge">
<title>Node22&#45;&gt;Node19</title>
<path fill="none" stroke="midnightblue" d="M612.9,-57.26C680.38,-49.04 790.37,-35.64 861.71,-26.94"/>
<polygon fill="midnightblue" stroke="midnightblue" points="862.44,-30.38 871.95,-25.7 861.6,-23.43 862.44,-30.38"/>
</g>
<!-- Node25 -->
<g id="node25" class="node">
<title>Node25</title>
<g id="a_node25"><a xlink:href="classcore_1_1_timer_event_dispatcher.html#a229ad877842013f7ff6413842dcb357c" target="_top" xlink:title=" ">
<polygon fill="white" stroke="black" points="652,-144.5 652,-174.5 804,-174.5 804,-144.5 652,-144.5"/>
<text text-anchor="start" x="660" y="-162.5" font-family="Helvetica,sans-Serif" font-size="10.00">core::TimerEventDispatcher</text>
<text text-anchor="middle" x="728" y="-151.5" font-family="Helvetica,sans-Serif" font-size="10.00">::stop</text>
</a>
</g>
</g>
<!-- Node24&#45;&gt;Node25 -->
<g id="edge29" class="edge">
<title>Node24&#45;&gt;Node25</title>
<path fill="none" stroke="midnightblue" d="M614.67,-154.97C623.39,-155.32 632.49,-155.69 641.56,-156.05"/>
<polygon fill="midnightblue" stroke="midnightblue" points="641.65,-159.56 651.78,-156.47 641.93,-152.56 641.65,-159.56"/>
</g>
<!-- Node25&#45;&gt;Node5 -->
<g id="edge30" class="edge">
<title>Node25&#45;&gt;Node5</title>
<path fill="none" stroke="midnightblue" d="M780.21,-174.57C798.95,-179.88 820.37,-185.71 840,-190.5 850.44,-193.05 861.61,-195.55 872.43,-197.87"/>
<polygon fill="midnightblue" stroke="midnightblue" points="871.71,-201.3 882.22,-199.94 873.16,-194.45 871.71,-201.3"/>
</g>
<!-- Node25&#45;&gt;Node11 -->
<g id="edge31" class="edge">
<title>Node25&#45;&gt;Node11</title>
<path fill="none" stroke="midnightblue" d="M804.22,-161.73C817.63,-162.13 831.68,-162.55 845.36,-162.96"/>
<polygon fill="midnightblue" stroke="midnightblue" points="845.62,-166.47 855.72,-163.26 845.83,-159.47 845.62,-166.47"/>
</g>
<!-- Node26 -->
<g id="node26" class="node">
<title>Node26</title>
<g id="a_node26"><a xlink:href="classcore_1_1_timer_event_dispatcher.html#ab0b7b0911ba9e7f5e17464e6419595cb" target="_top" xlink:title=" ">
<polygon fill="white" stroke="black" points="856,-101.5 856,-131.5 1008,-131.5 1008,-101.5 856,-101.5"/>
<text text-anchor="start" x="864" y="-119.5" font-family="Helvetica,sans-Serif" font-size="10.00">core::TimerEventDispatcher</text>
<text text-anchor="middle" x="932" y="-108.5" font-family="Helvetica,sans-Serif" font-size="10.00">::remove</text>
</a>
</g>
</g>
<!-- Node25&#45;&gt;Node26 -->
<g id="edge32" class="edge">
<title>Node25&#45;&gt;Node26</title>
<path fill="none" stroke="midnightblue" d="M799.65,-144.46C816.1,-140.96 833.74,-137.2 850.58,-133.62"/>
<polygon fill="midnightblue" stroke="midnightblue" points="851.34,-137.04 860.39,-131.53 849.88,-130.19 851.34,-137.04"/>
</g>
</g>
</svg>
