<?xml version="1.0" encoding="UTF-8" standalone="no"?>
<!DOCTYPE svg PUBLIC "-//W3C//DTD SVG 1.1//EN"
 "http://www.w3.org/Graphics/SVG/1.1/DTD/svg11.dtd">
<!-- Generated by graphviz version 2.43.0 (0)
 -->
<!-- Title: net::ConfigConn::ConfigConn Pages: 1 -->
<svg width="643pt" height="296pt"
 viewBox="0.00 0.00 643.00 295.50" xmlns="http://www.w3.org/2000/svg" xmlns:xlink="http://www.w3.org/1999/xlink">
<g id="graph0" class="graph" transform="scale(1 1) rotate(0) translate(4 291.5)">
<title>net::ConfigConn::ConfigConn</title>
<polygon fill="white" stroke="transparent" points="-4,4 -4,-291.5 639,-291.5 639,4 -4,4"/>
<!-- Node1 -->
<g id="node1" class="node">
<title>Node1</title>
<g id="a_node1"><a xlink:title=" ">
<polygon fill="#bfbfbf" stroke="black" points="0,-133.5 0,-152.5 157,-152.5 157,-133.5 0,-133.5"/>
<text text-anchor="middle" x="78.5" y="-140.5" font-family="Helvetica,sans-Serif" font-size="10.00">net::ConfigConn::ConfigConn</text>
</a>
</g>
</g>
<!-- Node2 -->
<g id="node2" class="node">
<title>Node2</title>
<g id="a_node2"><a xlink:href="class_c_l_i_1_1_app.html#a1f9503a8cdceb4e5b42c9fd4ae6b7b10" target="_top" xlink:title=" ">
<polygon fill="white" stroke="black" points="215.5,-266.5 215.5,-285.5 331.5,-285.5 331.5,-266.5 215.5,-266.5"/>
<text text-anchor="middle" x="273.5" y="-273.5" font-family="Helvetica,sans-Serif" font-size="10.00">CLI::App::add_option</text>
</a>
</g>
</g>
<!-- Node1&#45;&gt;Node2 -->
<g id="edge1" class="edge">
<title>Node1&#45;&gt;Node2</title>
<path fill="none" stroke="midnightblue" d="M86.19,-152.72C101.99,-174.92 144.04,-229.54 193,-257 197.01,-259.25 201.27,-261.23 205.67,-262.98"/>
<polygon fill="midnightblue" stroke="midnightblue" points="204.85,-266.4 215.44,-266.45 207.19,-259.8 204.85,-266.4"/>
</g>
<!-- Node3 -->
<g id="node3" class="node">
<title>Node3</title>
<g id="a_node3"><a xlink:href="class_c_l_i_1_1_app.html#a7ad6eb4ec4c5f4a0a9593af9f3fcf9cc" target="_top" xlink:title="Add a subcommand. Inherits INHERITABLE and OptionDefaults, and help flag.">
<polygon fill="white" stroke="black" points="197.5,-228.5 197.5,-247.5 349.5,-247.5 349.5,-228.5 197.5,-228.5"/>
<text text-anchor="middle" x="273.5" y="-235.5" font-family="Helvetica,sans-Serif" font-size="10.00">CLI::App::add_subcommand</text>
</a>
</g>
</g>
<!-- Node1&#45;&gt;Node3 -->
<g id="edge2" class="edge">
<title>Node1&#45;&gt;Node3</title>
<path fill="none" stroke="midnightblue" d="M90.94,-152.71C110.54,-168.87 152.37,-201.23 193,-219 198.72,-221.5 204.81,-223.7 210.99,-225.63"/>
<polygon fill="midnightblue" stroke="midnightblue" points="210.15,-229.03 220.73,-228.45 212.1,-222.31 210.15,-229.03"/>
</g>
<!-- Node7 -->
<g id="node7" class="node">
<title>Node7</title>
<g id="a_node7"><a xlink:href="class_c_l_i_1_1_option_base.html#affbb9fb4e20744e377767952507503f0" target="_top" xlink:title="Allow in a configuration file.">
<polygon fill="white" stroke="black" points="193,-190.5 193,-209.5 354,-209.5 354,-190.5 193,-190.5"/>
<text text-anchor="middle" x="273.5" y="-197.5" font-family="Helvetica,sans-Serif" font-size="10.00">CLI::OptionBase::configurable</text>
</a>
</g>
</g>
<!-- Node1&#45;&gt;Node7 -->
<g id="edge8" class="edge">
<title>Node1&#45;&gt;Node7</title>
<path fill="none" stroke="midnightblue" d="M105.89,-152.58C128.77,-160.69 162.83,-172.36 193,-181 201.52,-183.44 210.62,-185.82 219.51,-188.03"/>
<polygon fill="midnightblue" stroke="midnightblue" points="218.87,-191.47 229.41,-190.44 220.52,-184.67 218.87,-191.47"/>
</g>
<!-- Node8 -->
<g id="node8" class="node">
<title>Node8</title>
<g id="a_node8"><a xlink:href="class_c_l_i_1_1_app.html#abb3478595ba469884249b28b3f39b737" target="_top" xlink:title="Specify that the subcommand can be triggered by a config file.">
<polygon fill="white" stroke="black" points="212,-152.5 212,-171.5 335,-171.5 335,-152.5 212,-152.5"/>
<text text-anchor="middle" x="273.5" y="-159.5" font-family="Helvetica,sans-Serif" font-size="10.00">CLI::App::configurable</text>
</a>
</g>
</g>
<!-- Node1&#45;&gt;Node8 -->
<g id="edge9" class="edge">
<title>Node1&#45;&gt;Node8</title>
<path fill="none" stroke="midnightblue" d="M157.17,-150.65C171.83,-152.09 187.1,-153.59 201.55,-155.02"/>
<polygon fill="midnightblue" stroke="midnightblue" points="201.61,-158.54 211.9,-156.03 202.29,-151.57 201.61,-158.54"/>
</g>
<!-- Node9 -->
<g id="node9" class="node">
<title>Node9</title>
<g id="a_node9"><a xlink:href="class_c_l_i_1_1_option.html#a4685cebdb75c6bf8ce0095fd08d8b892" target="_top" xlink:title=" ">
<polygon fill="white" stroke="black" points="208,-114.5 208,-133.5 339,-133.5 339,-114.5 208,-114.5"/>
<text text-anchor="middle" x="273.5" y="-121.5" font-family="Helvetica,sans-Serif" font-size="10.00">CLI::Option::default_val</text>
</a>
</g>
</g>
<!-- Node1&#45;&gt;Node9 -->
<g id="edge10" class="edge">
<title>Node1&#45;&gt;Node9</title>
<path fill="none" stroke="midnightblue" d="M157.17,-135.35C170.6,-134.03 184.55,-132.66 197.9,-131.34"/>
<polygon fill="midnightblue" stroke="midnightblue" points="198.37,-134.81 207.98,-130.35 197.69,-127.85 198.37,-134.81"/>
</g>
<!-- Node11 -->
<g id="node11" class="node">
<title>Node11</title>
<g id="a_node11"><a xlink:href="class_c_l_i_1_1_app.html#a5c26c64a49536e623739685f42475fc2" target="_top" xlink:title="Set the description of the app.">
<polygon fill="white" stroke="black" points="215.5,-76.5 215.5,-95.5 331.5,-95.5 331.5,-76.5 215.5,-76.5"/>
<text text-anchor="middle" x="273.5" y="-83.5" font-family="Helvetica,sans-Serif" font-size="10.00">CLI::App::description</text>
</a>
</g>
</g>
<!-- Node1&#45;&gt;Node11 -->
<g id="edge12" class="edge">
<title>Node1&#45;&gt;Node11</title>
<path fill="none" stroke="midnightblue" d="M105.89,-133.42C128.77,-125.31 162.83,-113.64 193,-105 201.52,-102.56 210.62,-100.18 219.51,-97.97"/>
<polygon fill="midnightblue" stroke="midnightblue" points="220.52,-101.33 229.41,-95.56 218.87,-94.53 220.52,-101.33"/>
</g>
<!-- Node12 -->
<g id="node12" class="node">
<title>Node12</title>
<g id="a_node12"><a xlink:href="class_c_l_i_1_1_app.html#a190faa07c199753e02dec21652cfc611" target="_top" xlink:title="Changes the group membership.">
<polygon fill="white" stroke="black" points="228.5,-38.5 228.5,-57.5 318.5,-57.5 318.5,-38.5 228.5,-38.5"/>
<text text-anchor="middle" x="273.5" y="-45.5" font-family="Helvetica,sans-Serif" font-size="10.00">CLI::App::group</text>
</a>
</g>
</g>
<!-- Node1&#45;&gt;Node12 -->
<g id="edge13" class="edge">
<title>Node1&#45;&gt;Node12</title>
<path fill="none" stroke="midnightblue" d="M90.94,-133.29C110.54,-117.13 152.37,-84.77 193,-67 201.03,-63.49 209.81,-60.56 218.52,-58.15"/>
<polygon fill="midnightblue" stroke="midnightblue" points="219.46,-61.52 228.27,-55.64 217.71,-54.74 219.46,-61.52"/>
</g>
<!-- Node13 -->
<g id="node13" class="node">
<title>Node13</title>
<g id="a_node13"><a xlink:href="class_c_l_i_1_1_option.html#addaddebd60f66aaedc13e5fb473db902" target="_top" xlink:title="Set a custom option typestring.">
<polygon fill="white" stroke="black" points="208,-0.5 208,-19.5 339,-19.5 339,-0.5 208,-0.5"/>
<text text-anchor="middle" x="273.5" y="-7.5" font-family="Helvetica,sans-Serif" font-size="10.00">CLI::Option::type_name</text>
</a>
</g>
</g>
<!-- Node1&#45;&gt;Node13 -->
<g id="edge14" class="edge">
<title>Node1&#45;&gt;Node13</title>
<path fill="none" stroke="midnightblue" d="M86.19,-133.28C101.99,-111.08 144.04,-56.46 193,-29 197.01,-26.75 201.27,-24.77 205.67,-23.02"/>
<polygon fill="midnightblue" stroke="midnightblue" points="207.19,-26.2 215.44,-19.55 204.85,-19.6 207.19,-26.2"/>
</g>
<!-- Node4 -->
<g id="node4" class="node">
<title>Node4</title>
<g id="a_node4"><a xlink:href="namespace_c_l_i_1_1detail.html#a3a05d1129df69e88135e178137b1fd89" target="_top" xlink:title=" ">
<polygon fill="white" stroke="black" points="540,-257 540,-287 635,-287 635,-257 540,-257"/>
<text text-anchor="start" x="548" y="-275" font-family="Helvetica,sans-Serif" font-size="10.00">CLI::detail::valid</text>
<text text-anchor="middle" x="587.5" y="-264" font-family="Helvetica,sans-Serif" font-size="10.00">_first_char</text>
</a>
</g>
</g>
<!-- Node3&#45;&gt;Node4 -->
<g id="edge3" class="edge">
<title>Node3&#45;&gt;Node4</title>
<path fill="none" stroke="midnightblue" d="M315.09,-247.54C342.31,-253.79 375.71,-261.14 390,-263 436.79,-269.09 490.3,-271.23 529.66,-271.91"/>
<polygon fill="midnightblue" stroke="midnightblue" points="529.81,-275.41 539.86,-272.06 529.91,-268.41 529.81,-275.41"/>
</g>
<!-- Node5 -->
<g id="node5" class="node">
<title>Node5</title>
<g id="a_node5"><a xlink:href="namespace_c_l_i_1_1detail.html#a841371d5dbb0a52f453de4cc1d00cc51" target="_top" xlink:title="Verify following characters of an option.">
<polygon fill="white" stroke="black" points="540,-198 540,-228 635,-228 635,-198 540,-198"/>
<text text-anchor="start" x="548" y="-216" font-family="Helvetica,sans-Serif" font-size="10.00">CLI::detail::valid</text>
<text text-anchor="middle" x="587.5" y="-205" font-family="Helvetica,sans-Serif" font-size="10.00">_later_char</text>
</a>
</g>
</g>
<!-- Node3&#45;&gt;Node5 -->
<g id="edge4" class="edge">
<title>Node3&#45;&gt;Node5</title>
<path fill="none" stroke="midnightblue" d="M310.88,-228.49C333.47,-223.08 363.22,-216.82 390,-214 436.87,-209.06 490.38,-209.16 529.71,-210.3"/>
<polygon fill="midnightblue" stroke="midnightblue" points="529.8,-213.81 539.9,-210.63 530.02,-206.81 529.8,-213.81"/>
</g>
<!-- Node6 -->
<g id="node6" class="node">
<title>Node6</title>
<g id="a_node6"><a xlink:href="namespace_c_l_i_1_1detail.html#a4274628d24f9e3fbc719284f1db263b8" target="_top" xlink:title="Verify an option/subcommand name.">
<polygon fill="white" stroke="black" points="399.5,-223 399.5,-253 494.5,-253 494.5,-223 399.5,-223"/>
<text text-anchor="start" x="407.5" y="-241" font-family="Helvetica,sans-Serif" font-size="10.00">CLI::detail::valid</text>
<text text-anchor="middle" x="447" y="-230" font-family="Helvetica,sans-Serif" font-size="10.00">_name_string</text>
</a>
</g>
</g>
<!-- Node3&#45;&gt;Node6 -->
<g id="edge5" class="edge">
<title>Node3&#45;&gt;Node6</title>
<path fill="none" stroke="midnightblue" d="M349.72,-238C362.94,-238 376.5,-238 389.11,-238"/>
<polygon fill="midnightblue" stroke="midnightblue" points="389.46,-241.5 399.46,-238 389.46,-234.5 389.46,-241.5"/>
</g>
<!-- Node6&#45;&gt;Node4 -->
<g id="edge6" class="edge">
<title>Node6&#45;&gt;Node4</title>
<path fill="none" stroke="midnightblue" d="M494.5,-249.42C505.92,-252.22 518.27,-255.25 530.1,-258.15"/>
<polygon fill="midnightblue" stroke="midnightblue" points="529.34,-261.57 539.88,-260.56 531.01,-254.77 529.34,-261.57"/>
</g>
<!-- Node6&#45;&gt;Node5 -->
<g id="edge7" class="edge">
<title>Node6&#45;&gt;Node5</title>
<path fill="none" stroke="midnightblue" d="M494.5,-229.61C505.81,-227.57 518.02,-225.36 529.75,-223.24"/>
<polygon fill="midnightblue" stroke="midnightblue" points="530.66,-226.64 539.88,-221.41 529.42,-219.75 530.66,-226.64"/>
</g>
<!-- Node10 -->
<g id="node10" class="node">
<title>Node10</title>
<g id="a_node10"><a xlink:href="namespace_c_l_i_1_1detail.html#a0e94052d485636fc9f18c21009026577" target="_top" xlink:title="Convert an object to a string (directly forward if this can become a string)">
<polygon fill="white" stroke="black" points="390,-114.5 390,-133.5 504,-133.5 504,-114.5 390,-114.5"/>
<text text-anchor="middle" x="447" y="-121.5" font-family="Helvetica,sans-Serif" font-size="10.00">CLI::detail::to_string</text>
</a>
</g>
</g>
<!-- Node9&#45;&gt;Node10 -->
<g id="edge11" class="edge">
<title>Node9&#45;&gt;Node10</title>
<path fill="none" stroke="midnightblue" d="M339.34,-124C352.56,-124 366.5,-124 379.78,-124"/>
<polygon fill="midnightblue" stroke="midnightblue" points="379.78,-127.5 389.78,-124 379.78,-120.5 379.78,-127.5"/>
</g>
</g>
</svg>
