<?xml version="1.0" encoding="UTF-8" standalone="no"?>
<!DOCTYPE svg PUBLIC "-//W3C//DTD SVG 1.1//EN"
 "http://www.w3.org/Graphics/SVG/1.1/DTD/svg11.dtd">
<!-- Generated by graphviz version 2.43.0 (0)
 -->
<!-- Title: net::socket::stream::SocketWriter&lt; SocketT &gt; Pages: 1 -->
<svg width="347pt" height="1287pt"
 viewBox="0.00 0.00 347.00 1287.00" xmlns="http://www.w3.org/2000/svg" xmlns:xlink="http://www.w3.org/1999/xlink">
<g id="graph0" class="graph" transform="scale(1 1) rotate(0) translate(4 1283)">
<title>net::socket::stream::SocketWriter&lt; SocketT &gt;</title>
<polygon fill="white" stroke="transparent" points="-4,4 -4,-1283 343,-1283 343,4 -4,4"/>
<!-- Node1 -->
<g id="node1" class="node">
<title>Node1</title>
<g id="a_node1"><a xlink:title=" ">
<polygon fill="#bfbfbf" stroke="black" points="68.5,-0.5 68.5,-178.5 202.5,-178.5 202.5,-0.5 68.5,-0.5"/>
<text text-anchor="start" x="76.5" y="-166.5" font-family="Helvetica,sans-Serif" font-size="10.00">net::socket::stream</text>
<text text-anchor="middle" x="135.5" y="-155.5" font-family="Helvetica,sans-Serif" font-size="10.00">::SocketWriter&lt; SocketT &gt;</text>
<polyline fill="none" stroke="black" points="68.5,-148.5 202.5,-148.5 "/>
<text text-anchor="start" x="76.5" y="-136.5" font-family="Helvetica,sans-Serif" font-size="10.00">&#45; onError</text>
<text text-anchor="start" x="76.5" y="-125.5" font-family="Helvetica,sans-Serif" font-size="10.00">&#45; writeBuffer</text>
<text text-anchor="start" x="76.5" y="-114.5" font-family="Helvetica,sans-Serif" font-size="10.00">&#45; markShutdown</text>
<polyline fill="none" stroke="black" points="68.5,-107.5 202.5,-107.5 "/>
<text text-anchor="start" x="76.5" y="-95.5" font-family="Helvetica,sans-Serif" font-size="10.00"># SocketWriter()</text>
<text text-anchor="start" x="76.5" y="-84.5" font-family="Helvetica,sans-Serif" font-size="10.00"># ~SocketWriter()</text>
<text text-anchor="start" x="76.5" y="-73.5" font-family="Helvetica,sans-Serif" font-size="10.00"># sendToPeer()</text>
<text text-anchor="start" x="76.5" y="-62.5" font-family="Helvetica,sans-Serif" font-size="10.00"># doShutdown()</text>
<text text-anchor="start" x="76.5" y="-51.5" font-family="Helvetica,sans-Serif" font-size="10.00"># shutdown()</text>
<text text-anchor="start" x="76.5" y="-40.5" font-family="Helvetica,sans-Serif" font-size="10.00"># doWrite()</text>
<text text-anchor="start" x="76.5" y="-29.5" font-family="Helvetica,sans-Serif" font-size="10.00">&#45; SocketWriter()</text>
<text text-anchor="start" x="76.5" y="-18.5" font-family="Helvetica,sans-Serif" font-size="10.00">&#45; write()</text>
<text text-anchor="start" x="76.5" y="-7.5" font-family="Helvetica,sans-Serif" font-size="10.00">&#45; getError()</text>
</a>
</g>
</g>
<!-- Node2 -->
<g id="node2" class="node">
<title>Node2</title>
<g id="a_node2"><a xlink:href="classnet_1_1_write_event_receiver.html" target="_top" xlink:title=" ">
<polygon fill="white" stroke="black" points="6,-216.5 6,-339.5 149,-339.5 149,-216.5 6,-216.5"/>
<text text-anchor="middle" x="77.5" y="-327.5" font-family="Helvetica,sans-Serif" font-size="10.00">net::WriteEventReceiver</text>
<polyline fill="none" stroke="black" points="6,-320.5 149,-320.5 "/>
<text text-anchor="middle" x="77.5" y="-308.5" font-family="Helvetica,sans-Serif" font-size="10.00"> </text>
<polyline fill="none" stroke="black" points="6,-301.5 149,-301.5 "/>
<text text-anchor="start" x="14" y="-289.5" font-family="Helvetica,sans-Serif" font-size="10.00"># WriteEventReceiver()</text>
<text text-anchor="start" x="14" y="-278.5" font-family="Helvetica,sans-Serif" font-size="10.00"># continueWriteImmediately()</text>
<text text-anchor="start" x="14" y="-267.5" font-family="Helvetica,sans-Serif" font-size="10.00">&#45; writeEvent()</text>
<text text-anchor="start" x="14" y="-256.5" font-family="Helvetica,sans-Serif" font-size="10.00">&#45; writeTimeout()</text>
<text text-anchor="start" x="14" y="-245.5" font-family="Helvetica,sans-Serif" font-size="10.00">&#45; dispatchEvent()</text>
<text text-anchor="start" x="14" y="-234.5" font-family="Helvetica,sans-Serif" font-size="10.00">&#45; timeoutEvent()</text>
<text text-anchor="start" x="14" y="-223.5" font-family="Helvetica,sans-Serif" font-size="10.00">&#45; continueImmediately()</text>
</a>
</g>
</g>
<!-- Node2&#45;&gt;Node1 -->
<g id="edge1" class="edge">
<title>Node2&#45;&gt;Node1</title>
<path fill="none" stroke="midnightblue" d="M99.39,-206.63C102.24,-197.44 105.2,-187.94 108.13,-178.52"/>
<polygon fill="none" stroke="midnightblue" points="95.96,-205.86 96.33,-216.45 102.64,-207.94 95.96,-205.86"/>
</g>
<!-- Node3 -->
<g id="node3" class="node">
<title>Node3</title>
<g id="a_node3"><a xlink:href="classnet_1_1_event_receiver.html" target="_top" xlink:title=" ">
<polygon fill="white" stroke="black" points="18,-377.5 18,-709.5 137,-709.5 137,-377.5 18,-377.5"/>
<text text-anchor="middle" x="77.5" y="-697.5" font-family="Helvetica,sans-Serif" font-size="10.00">net::EventReceiver</text>
<polyline fill="none" stroke="black" points="18,-690.5 137,-690.5 "/>
<text text-anchor="start" x="26" y="-678.5" font-family="Helvetica,sans-Serif" font-size="10.00">&#45; fd</text>
<text text-anchor="start" x="26" y="-667.5" font-family="Helvetica,sans-Serif" font-size="10.00">&#45; _enabled</text>
<text text-anchor="start" x="26" y="-656.5" font-family="Helvetica,sans-Serif" font-size="10.00">&#45; _suspended</text>
<text text-anchor="start" x="26" y="-645.5" font-family="Helvetica,sans-Serif" font-size="10.00">&#45; maxInactivity</text>
<text text-anchor="start" x="26" y="-634.5" font-family="Helvetica,sans-Serif" font-size="10.00">&#45; initialTimeout</text>
<polyline fill="none" stroke="black" points="18,-627.5 137,-627.5 "/>
<text text-anchor="start" x="26" y="-615.5" font-family="Helvetica,sans-Serif" font-size="10.00">+ enable()</text>
<text text-anchor="start" x="26" y="-604.5" font-family="Helvetica,sans-Serif" font-size="10.00">+ disable()</text>
<text text-anchor="start" x="26" y="-593.5" font-family="Helvetica,sans-Serif" font-size="10.00">+ suspend()</text>
<text text-anchor="start" x="26" y="-582.5" font-family="Helvetica,sans-Serif" font-size="10.00">+ resume()</text>
<text text-anchor="start" x="26" y="-571.5" font-family="Helvetica,sans-Serif" font-size="10.00"># EventReceiver()</text>
<text text-anchor="start" x="26" y="-560.5" font-family="Helvetica,sans-Serif" font-size="10.00"># ~EventReceiver()</text>
<text text-anchor="start" x="26" y="-549.5" font-family="Helvetica,sans-Serif" font-size="10.00"># setTimeout()</text>
<text text-anchor="start" x="26" y="-538.5" font-family="Helvetica,sans-Serif" font-size="10.00"># isEnabled()</text>
<text text-anchor="start" x="26" y="-527.5" font-family="Helvetica,sans-Serif" font-size="10.00"># isSuspended()</text>
<text text-anchor="start" x="26" y="-516.5" font-family="Helvetica,sans-Serif" font-size="10.00">&#45; EventReceiver()</text>
<text text-anchor="start" x="26" y="-505.5" font-family="Helvetica,sans-Serif" font-size="10.00">&#45; operator=()</text>
<text text-anchor="start" x="26" y="-494.5" font-family="Helvetica,sans-Serif" font-size="10.00">&#45; dispatchEvent()</text>
<text text-anchor="start" x="26" y="-483.5" font-family="Helvetica,sans-Serif" font-size="10.00">&#45; timeoutEvent()</text>
<text text-anchor="start" x="26" y="-472.5" font-family="Helvetica,sans-Serif" font-size="10.00">&#45; continueImmediately()</text>
<text text-anchor="start" x="26" y="-461.5" font-family="Helvetica,sans-Serif" font-size="10.00">&#45; enabled()</text>
<text text-anchor="start" x="26" y="-450.5" font-family="Helvetica,sans-Serif" font-size="10.00">&#45; disabled()</text>
<text text-anchor="start" x="26" y="-439.5" font-family="Helvetica,sans-Serif" font-size="10.00">&#45; suspended()</text>
<text text-anchor="start" x="26" y="-428.5" font-family="Helvetica,sans-Serif" font-size="10.00">&#45; resumed()</text>
<text text-anchor="start" x="26" y="-417.5" font-family="Helvetica,sans-Serif" font-size="10.00">&#45; getTimeout()</text>
<text text-anchor="start" x="26" y="-406.5" font-family="Helvetica,sans-Serif" font-size="10.00">&#45; getLastTriggered()</text>
<text text-anchor="start" x="26" y="-395.5" font-family="Helvetica,sans-Serif" font-size="10.00">&#45; triggered()</text>
<text text-anchor="start" x="26" y="-384.5" font-family="Helvetica,sans-Serif" font-size="10.00">&#45; unobserved()</text>
</a>
</g>
</g>
<!-- Node3&#45;&gt;Node2 -->
<g id="edge2" class="edge">
<title>Node3&#45;&gt;Node2</title>
<path fill="none" stroke="midnightblue" d="M77.5,-367.33C77.5,-357.69 77.5,-348.4 77.5,-339.7"/>
<polygon fill="none" stroke="midnightblue" points="74,-367.49 77.5,-377.49 81,-367.49 74,-367.49"/>
</g>
<!-- Node4 -->
<g id="node4" class="node">
<title>Node4</title>
<g id="a_node4"><a xlink:href="classnet_1_1_observation_counter.html" target="_top" xlink:title=" ">
<polygon fill="white" stroke="black" points="0,-845.5 0,-913.5 123,-913.5 123,-845.5 0,-845.5"/>
<text text-anchor="middle" x="61.5" y="-901.5" font-family="Helvetica,sans-Serif" font-size="10.00">net::ObservationCounter</text>
<polyline fill="none" stroke="black" points="0,-894.5 123,-894.5 "/>
<text text-anchor="start" x="8" y="-882.5" font-family="Helvetica,sans-Serif" font-size="10.00"># observationCounter</text>
<text text-anchor="start" x="8" y="-871.5" font-family="Helvetica,sans-Serif" font-size="10.00"># lastTriggered</text>
<polyline fill="none" stroke="black" points="0,-864.5 123,-864.5 "/>
<text text-anchor="start" x="8" y="-852.5" font-family="Helvetica,sans-Serif" font-size="10.00">+ isObserved()</text>
</a>
</g>
</g>
<!-- Node4&#45;&gt;Node3 -->
<g id="edge3" class="edge">
<title>Node4&#45;&gt;Node3</title>
<path fill="none" stroke="midnightblue" d="M63.57,-835.24C65.13,-802.83 67.36,-756.24 69.58,-709.82"/>
<polygon fill="none" stroke="midnightblue" points="60.08,-835.1 63.09,-845.25 67.07,-835.43 60.08,-835.1"/>
</g>
<!-- Node5 -->
<g id="node5" class="node">
<title>Node5</title>
<g id="a_node5"><a xlink:href="classnet_1_1_event_dispatcher.html" target="_top" xlink:title=" ">
<polygon fill="white" stroke="black" points="141,-757.5 141,-1001.5 284,-1001.5 284,-757.5 141,-757.5"/>
<text text-anchor="middle" x="212.5" y="-989.5" font-family="Helvetica,sans-Serif" font-size="10.00">net::EventDispatcher</text>
<polyline fill="none" stroke="black" points="141,-982.5 284,-982.5 "/>
<text text-anchor="start" x="149" y="-970.5" font-family="Helvetica,sans-Serif" font-size="10.00">&#45; enabledEventReceiver</text>
<text text-anchor="start" x="149" y="-959.5" font-family="Helvetica,sans-Serif" font-size="10.00">&#45; observedEventReceiver</text>
<text text-anchor="start" x="149" y="-948.5" font-family="Helvetica,sans-Serif" font-size="10.00">&#45; disabledEventReceiver</text>
<text text-anchor="start" x="149" y="-937.5" font-family="Helvetica,sans-Serif" font-size="10.00">&#45; eventCounter</text>
<polyline fill="none" stroke="black" points="141,-930.5 284,-930.5 "/>
<text text-anchor="start" x="149" y="-918.5" font-family="Helvetica,sans-Serif" font-size="10.00">+ EventDispatcher()</text>
<text text-anchor="start" x="149" y="-907.5" font-family="Helvetica,sans-Serif" font-size="10.00">+ enable()</text>
<text text-anchor="start" x="149" y="-896.5" font-family="Helvetica,sans-Serif" font-size="10.00">+ disable()</text>
<text text-anchor="start" x="149" y="-885.5" font-family="Helvetica,sans-Serif" font-size="10.00">+ suspend()</text>
<text text-anchor="start" x="149" y="-874.5" font-family="Helvetica,sans-Serif" font-size="10.00">+ resume()</text>
<text text-anchor="start" x="149" y="-863.5" font-family="Helvetica,sans-Serif" font-size="10.00">+ getEventCounter()</text>
<text text-anchor="start" x="149" y="-852.5" font-family="Helvetica,sans-Serif" font-size="10.00">&#45; EventDispatcher()</text>
<text text-anchor="start" x="149" y="-841.5" font-family="Helvetica,sans-Serif" font-size="10.00">&#45; operator=()</text>
<text text-anchor="start" x="149" y="-830.5" font-family="Helvetica,sans-Serif" font-size="10.00">&#45; getMaxFd()</text>
<text text-anchor="start" x="149" y="-819.5" font-family="Helvetica,sans-Serif" font-size="10.00">&#45; getFdSet()</text>
<text text-anchor="start" x="149" y="-808.5" font-family="Helvetica,sans-Serif" font-size="10.00">&#45; dispatchActiveEvents()</text>
<text text-anchor="start" x="149" y="-797.5" font-family="Helvetica,sans-Serif" font-size="10.00">&#45; observeEnabledEvents()</text>
<text text-anchor="start" x="149" y="-786.5" font-family="Helvetica,sans-Serif" font-size="10.00">&#45; unobserveDisabledEvents()</text>
<text text-anchor="start" x="149" y="-775.5" font-family="Helvetica,sans-Serif" font-size="10.00">&#45; releaseUnobservedEvents()</text>
<text text-anchor="start" x="149" y="-764.5" font-family="Helvetica,sans-Serif" font-size="10.00">&#45; disableObservedEvents()</text>
</a>
</g>
</g>
<!-- Node5&#45;&gt;Node3 -->
<g id="edge4" class="edge">
<title>Node5&#45;&gt;Node3</title>
<path fill="none" stroke="#404040" d="M163.57,-757.45C156.45,-739.82 149.02,-721.46 141.65,-703.22"/>
<polygon fill="none" stroke="#404040" points="141.57,-703.02 135.62,-698.96 137.08,-691.9 143.03,-695.96 141.57,-703.02"/>
<text text-anchor="middle" x="214.5" y="-731" font-family="Helvetica,sans-Serif" font-size="10.00"> &#45;descriptorEventDispatcher</text>
</g>
<!-- Node6 -->
<g id="node6" class="node">
<title>Node6</title>
<g id="a_node6"><a xlink:href="classnet_1_1_event_dispatcher_1_1_descriptor_event_receiver_list.html" target="_top" xlink:title=" ">
<polygon fill="white" stroke="black" points="63.5,-1082.5 63.5,-1150.5 211.5,-1150.5 211.5,-1082.5 63.5,-1082.5"/>
<text text-anchor="start" x="71.5" y="-1138.5" font-family="Helvetica,sans-Serif" font-size="10.00">net::EventDispatcher</text>
<text text-anchor="middle" x="137.5" y="-1127.5" font-family="Helvetica,sans-Serif" font-size="10.00">::DescriptorEventReceiverList</text>
<polyline fill="none" stroke="black" points="63.5,-1120.5 211.5,-1120.5 "/>
<text text-anchor="middle" x="137.5" y="-1108.5" font-family="Helvetica,sans-Serif" font-size="10.00"> </text>
<polyline fill="none" stroke="black" points="63.5,-1101.5 211.5,-1101.5 "/>
<text text-anchor="start" x="71.5" y="-1089.5" font-family="Helvetica,sans-Serif" font-size="10.00">+ contains()</text>
</a>
</g>
</g>
<!-- Node6&#45;&gt;Node5 -->
<g id="edge5" class="edge">
<title>Node6&#45;&gt;Node5</title>
<path fill="none" stroke="#404040" d="M133.55,-1082.3C132.32,-1063.71 132.4,-1040.26 137.5,-1020 138.08,-1017.7 138.7,-1015.4 139.37,-1013.09"/>
<polygon fill="none" stroke="#404040" points="139.4,-1013.02 137.41,-1006.08 143.04,-1001.58 145.03,-1008.52 139.4,-1013.02"/>
<text text-anchor="middle" x="198" y="-1023" font-family="Helvetica,sans-Serif" font-size="10.00"> &#45;unobservedEventReceiver</text>
</g>
<!-- Node7 -->
<g id="node7" class="node">
<title>Node7</title>
<g id="a_node7"><a xlink:title=" ">
<polygon fill="white" stroke="#bfbfbf" points="68.5,-1221.5 68.5,-1278.5 206.5,-1278.5 206.5,-1221.5 68.5,-1221.5"/>
<text text-anchor="middle" x="137.5" y="-1266.5" font-family="Helvetica,sans-Serif" font-size="10.00">std::list&lt; EventReceiver * &gt;</text>
<polyline fill="none" stroke="#bfbfbf" points="68.5,-1259.5 206.5,-1259.5 "/>
<text text-anchor="middle" x="137.5" y="-1247.5" font-family="Helvetica,sans-Serif" font-size="10.00"> </text>
<polyline fill="none" stroke="#bfbfbf" points="68.5,-1240.5 206.5,-1240.5 "/>
<text text-anchor="middle" x="137.5" y="-1228.5" font-family="Helvetica,sans-Serif" font-size="10.00"> </text>
</a>
</g>
</g>
<!-- Node7&#45;&gt;Node6 -->
<g id="edge6" class="edge">
<title>Node7&#45;&gt;Node6</title>
<path fill="none" stroke="midnightblue" d="M137.5,-1211.25C137.5,-1192.11 137.5,-1169.07 137.5,-1150.62"/>
<polygon fill="none" stroke="midnightblue" points="134,-1211.43 137.5,-1221.43 141,-1211.43 134,-1211.43"/>
</g>
<!-- Node8 -->
<g id="node8" class="node">
<title>Node8</title>
<g id="a_node8"><a xlink:href="classnet_1_1_event_dispatcher_1_1_fd_set.html" target="_top" xlink:title=" ">
<polygon fill="white" stroke="black" points="230,-1049.5 230,-1183.5 339,-1183.5 339,-1049.5 230,-1049.5"/>
<text text-anchor="start" x="238" y="-1171.5" font-family="Helvetica,sans-Serif" font-size="10.00">net::EventDispatcher</text>
<text text-anchor="middle" x="284.5" y="-1160.5" font-family="Helvetica,sans-Serif" font-size="10.00">::FdSet</text>
<polyline fill="none" stroke="black" points="230,-1153.5 339,-1153.5 "/>
<text text-anchor="start" x="238" y="-1141.5" font-family="Helvetica,sans-Serif" font-size="10.00"># registered</text>
<text text-anchor="start" x="238" y="-1130.5" font-family="Helvetica,sans-Serif" font-size="10.00"># active</text>
<polyline fill="none" stroke="black" points="230,-1123.5 339,-1123.5 "/>
<text text-anchor="start" x="238" y="-1111.5" font-family="Helvetica,sans-Serif" font-size="10.00">+ FdSet()</text>
<text text-anchor="start" x="238" y="-1100.5" font-family="Helvetica,sans-Serif" font-size="10.00">+ set()</text>
<text text-anchor="start" x="238" y="-1089.5" font-family="Helvetica,sans-Serif" font-size="10.00">+ clr()</text>
<text text-anchor="start" x="238" y="-1078.5" font-family="Helvetica,sans-Serif" font-size="10.00">+ isSet()</text>
<text text-anchor="start" x="238" y="-1067.5" font-family="Helvetica,sans-Serif" font-size="10.00">+ zero()</text>
<text text-anchor="start" x="238" y="-1056.5" font-family="Helvetica,sans-Serif" font-size="10.00">+ get()</text>
</a>
</g>
</g>
<!-- Node8&#45;&gt;Node5 -->
<g id="edge7" class="edge">
<title>Node8&#45;&gt;Node5</title>
<path fill="none" stroke="#404040" d="M270.36,-1049.48C267.93,-1039.55 265.28,-1029.47 262.5,-1020 261.83,-1017.73 261.15,-1015.45 260.46,-1013.15"/>
<polygon fill="none" stroke="#404040" points="260.42,-1013.03 254.82,-1008.49 256.86,-1001.57 262.46,-1006.12 260.42,-1013.03"/>
<text text-anchor="middle" x="279.5" y="-1023" font-family="Helvetica,sans-Serif" font-size="10.00"> &#45;fdSet</text>
</g>
<!-- Node9 -->
<g id="node9" class="node">
<title>Node9</title>
<g id="a_node9"><a xlink:title=" ">
<polygon fill="white" stroke="#bfbfbf" points="167,-249.5 167,-306.5 220,-306.5 220,-249.5 167,-249.5"/>
<text text-anchor="middle" x="193.5" y="-294.5" font-family="Helvetica,sans-Serif" font-size="10.00">SocketT</text>
<polyline fill="none" stroke="#bfbfbf" points="167,-287.5 220,-287.5 "/>
<text text-anchor="middle" x="193.5" y="-275.5" font-family="Helvetica,sans-Serif" font-size="10.00"> </text>
<polyline fill="none" stroke="#bfbfbf" points="167,-268.5 220,-268.5 "/>
<text text-anchor="middle" x="193.5" y="-256.5" font-family="Helvetica,sans-Serif" font-size="10.00"> </text>
</a>
</g>
</g>
<!-- Node9&#45;&gt;Node1 -->
<g id="edge8" class="edge">
<title>Node9&#45;&gt;Node1</title>
<path fill="none" stroke="midnightblue" d="M181.88,-239.65C176.42,-222.07 169.64,-200.29 162.98,-178.86"/>
<polygon fill="none" stroke="midnightblue" points="178.63,-240.97 184.94,-249.48 185.31,-238.89 178.63,-240.97"/>
</g>
</g>
</svg>
