<?xml version="1.0" encoding="UTF-8" standalone="no"?>
<!DOCTYPE svg PUBLIC "-//W3C//DTD SVG 1.1//EN"
 "http://www.w3.org/Graphics/SVG/1.1/DTD/svg11.dtd">
<!-- Generated by graphviz version 2.43.0 (0)
 -->
<!-- Title: web::http::client::SocketContextUpgradeFactorySelector::instance Pages: 1 -->
<svg width="626pt" height="187pt"
 viewBox="0.00 0.00 626.00 186.50" xmlns="http://www.w3.org/2000/svg" xmlns:xlink="http://www.w3.org/1999/xlink">
<g id="graph0" class="graph" transform="scale(1 1) rotate(0) translate(4 182.5)">
<title>web::http::client::SocketContextUpgradeFactorySelector::instance</title>
<polygon fill="white" stroke="transparent" points="-4,4 -4,-182.5 622,-182.5 622,4 -4,4"/>
<!-- Node1 -->
<g id="node1" class="node">
<title>Node1</title>
<g id="a_node1"><a xlink:title=" ">
<polygon fill="#bfbfbf" stroke="black" points="454,-66 454,-107 618,-107 618,-66 454,-66"/>
<text text-anchor="start" x="462" y="-95" font-family="Helvetica,sans-Serif" font-size="10.00">web::http::client::</text>
<text text-anchor="start" x="462" y="-84" font-family="Helvetica,sans-Serif" font-size="10.00">SocketContextUpgradeFactory</text>
<text text-anchor="middle" x="536" y="-73" font-family="Helvetica,sans-Serif" font-size="10.00">Selector::instance</text>
</a>
</g>
</g>
<!-- Node2 -->
<g id="node2" class="node">
<title>Node2</title>
<g id="a_node2"><a xlink:href="classweb_1_1http_1_1client_1_1_socket_context_upgrade_factory.html#a254e57fe75d644633ca8ab5667e04f60" target="_top" xlink:title=" ">
<polygon fill="white" stroke="black" points="242,-137 242,-178 406,-178 406,-137 242,-137"/>
<text text-anchor="start" x="250" y="-166" font-family="Helvetica,sans-Serif" font-size="10.00">web::http::client::</text>
<text text-anchor="start" x="250" y="-155" font-family="Helvetica,sans-Serif" font-size="10.00">SocketContextUpgradeFactory</text>
<text text-anchor="middle" x="324" y="-144" font-family="Helvetica,sans-Serif" font-size="10.00">::checkRefCount</text>
</a>
</g>
</g>
<!-- Node1&#45;&gt;Node2 -->
<g id="edge1" class="edge">
<title>Node1&#45;&gt;Node2</title>
<path fill="none" stroke="midnightblue" d="M464.65,-110.28C439.16,-118.9 410.59,-128.56 385.97,-136.89"/>
<polygon fill="midnightblue" stroke="midnightblue" points="465.91,-113.55 474.26,-107.04 463.67,-106.92 465.91,-113.55"/>
</g>
<!-- Node3 -->
<g id="node3" class="node">
<title>Node3</title>
<g id="a_node3"><a xlink:href="classweb_1_1http_1_1client_1_1_request.html#ade3f2c0c18eb527560f212631a627a0d" target="_top" xlink:title=" ">
<polygon fill="white" stroke="black" points="46,-120.5 46,-150.5 148,-150.5 148,-120.5 46,-120.5"/>
<text text-anchor="start" x="54" y="-138.5" font-family="Helvetica,sans-Serif" font-size="10.00">web::http::client::</text>
<text text-anchor="middle" x="97" y="-127.5" font-family="Helvetica,sans-Serif" font-size="10.00">Request::upgrade</text>
</a>
</g>
</g>
<!-- Node1&#45;&gt;Node3 -->
<g id="edge5" class="edge">
<title>Node1&#45;&gt;Node3</title>
<path fill="none" stroke="midnightblue" d="M443.64,-96.74C353.82,-106.81 220.05,-121.82 148.1,-129.88"/>
<polygon fill="midnightblue" stroke="midnightblue" points="444.28,-100.19 453.83,-95.6 443.5,-93.24 444.28,-100.19"/>
</g>
<!-- Node4 -->
<g id="node4" class="node">
<title>Node4</title>
<g id="a_node4"><a xlink:href="classweb_1_1http_1_1client_1_1_socket_context_upgrade_factory.html#aba8c1dcb3d67268eb0f9a0d2d4766e32" target="_top" xlink:title=" ">
<polygon fill="white" stroke="black" points="230,-49.5 230,-79.5 418,-79.5 418,-49.5 230,-49.5"/>
<text text-anchor="start" x="238" y="-67.5" font-family="Helvetica,sans-Serif" font-size="10.00">web::http::client::</text>
<text text-anchor="middle" x="324" y="-56.5" font-family="Helvetica,sans-Serif" font-size="10.00">SocketContextUpgradeFactory::link</text>
</a>
</g>
</g>
<!-- Node1&#45;&gt;Node4 -->
<g id="edge3" class="edge">
<title>Node1&#45;&gt;Node4</title>
<path fill="none" stroke="midnightblue" d="M443.61,-76.93C435.19,-76.04 426.65,-75.15 418.21,-74.27"/>
<polygon fill="midnightblue" stroke="midnightblue" points="443.5,-80.43 453.81,-77.99 444.23,-73.47 443.5,-80.43"/>
</g>
<!-- Node6 -->
<g id="node6" class="node">
<title>Node6</title>
<g id="a_node6"><a xlink:href="classweb_1_1http_1_1client_1_1_response.html#a9e325e31cf23d211476c9dd9f0636ac0" target="_top" xlink:title=" ">
<polygon fill="white" stroke="black" points="269,-0.5 269,-30.5 379,-30.5 379,-0.5 269,-0.5"/>
<text text-anchor="start" x="277" y="-18.5" font-family="Helvetica,sans-Serif" font-size="10.00">web::http::client::</text>
<text text-anchor="middle" x="324" y="-7.5" font-family="Helvetica,sans-Serif" font-size="10.00">Response::upgrade</text>
</a>
</g>
</g>
<!-- Node1&#45;&gt;Node6 -->
<g id="edge6" class="edge">
<title>Node1&#45;&gt;Node6</title>
<path fill="none" stroke="midnightblue" d="M478.56,-62.11C459.52,-54.35 438.02,-46.07 418,-39.5 405.64,-35.44 392.18,-31.63 379.44,-28.29"/>
<polygon fill="midnightblue" stroke="midnightblue" points="477.4,-65.42 487.98,-65.99 480.07,-58.95 477.4,-65.42"/>
</g>
<!-- Node2&#45;&gt;Node3 -->
<g id="edge2" class="edge">
<title>Node2&#45;&gt;Node3</title>
<path fill="none" stroke="midnightblue" d="M231.75,-148.58C203.15,-145.78 172.66,-142.8 148.02,-140.39"/>
<polygon fill="midnightblue" stroke="midnightblue" points="231.48,-152.07 241.77,-149.56 232.16,-145.1 231.48,-152.07"/>
</g>
<!-- Node5 -->
<g id="node5" class="node">
<title>Node5</title>
<g id="a_node5"><a xlink:href="classweb_1_1websocket_1_1client_1_1_socket_context_upgrade_factory.html#abdf983445629ff9b7b70a4628bae62f2" target="_top" xlink:title=" ">
<polygon fill="white" stroke="black" points="0,-49.5 0,-79.5 194,-79.5 194,-49.5 0,-49.5"/>
<text text-anchor="start" x="8" y="-67.5" font-family="Helvetica,sans-Serif" font-size="10.00">web::websocket::client</text>
<text text-anchor="middle" x="97" y="-56.5" font-family="Helvetica,sans-Serif" font-size="10.00">::SocketContextUpgradeFactory::link</text>
</a>
</g>
</g>
<!-- Node4&#45;&gt;Node5 -->
<g id="edge4" class="edge">
<title>Node4&#45;&gt;Node5</title>
<path fill="none" stroke="midnightblue" d="M219.63,-64.5C211.21,-64.5 202.71,-64.5 194.34,-64.5"/>
<polygon fill="midnightblue" stroke="midnightblue" points="219.86,-68 229.86,-64.5 219.86,-61 219.86,-68"/>
</g>
</g>
</svg>
