<?xml version="1.0" encoding="UTF-8" standalone="no"?>
<!DOCTYPE svg PUBLIC "-//W3C//DTD SVG 1.1//EN"
 "http://www.w3.org/Graphics/SVG/1.1/DTD/svg11.dtd">
<!-- Generated by graphviz version 2.43.0 (0)
 -->
<!-- Title: web::websocket::client::SocketContextUpgradeFactory Pages: 1 -->
<svg width="278pt" height="896pt"
 viewBox="0.00 0.00 278.00 896.00" xmlns="http://www.w3.org/2000/svg" xmlns:xlink="http://www.w3.org/1999/xlink">
<g id="graph0" class="graph" transform="scale(1 1) rotate(0) translate(4 892)">
<title>web::websocket::client::SocketContextUpgradeFactory</title>
<polygon fill="white" stroke="transparent" points="-4,4 -4,-892 274,-892 274,4 -4,4"/>
<!-- Node1 -->
<g id="node1" class="node">
<title>Node1</title>
<g id="a_node1"><a xlink:title=" ">
<polygon fill="#bfbfbf" stroke="black" points="2.5,-0.5 2.5,-134.5 169.5,-134.5 169.5,-0.5 2.5,-0.5"/>
<text text-anchor="start" x="10.5" y="-122.5" font-family="Helvetica,sans-Serif" font-size="10.00">web::websocket::client</text>
<text text-anchor="middle" x="86" y="-111.5" font-family="Helvetica,sans-Serif" font-size="10.00">::SocketContextUpgradeFactory</text>
<polyline fill="none" stroke="black" points="2.5,-104.5 169.5,-104.5 "/>
<text text-anchor="middle" x="86" y="-92.5" font-family="Helvetica,sans-Serif" font-size="10.00"> </text>
<polyline fill="none" stroke="black" points="2.5,-85.5 169.5,-85.5 "/>
<text text-anchor="start" x="10.5" y="-73.5" font-family="Helvetica,sans-Serif" font-size="10.00">+ SocketContextUpgradeFactory()</text>
<text text-anchor="start" x="10.5" y="-62.5" font-family="Helvetica,sans-Serif" font-size="10.00">+ SocketContextUpgradeFactory()</text>
<text text-anchor="start" x="10.5" y="-51.5" font-family="Helvetica,sans-Serif" font-size="10.00">+ operator=()</text>
<text text-anchor="start" x="10.5" y="-40.5" font-family="Helvetica,sans-Serif" font-size="10.00">+ link()</text>
<text text-anchor="start" x="10.5" y="-29.5" font-family="Helvetica,sans-Serif" font-size="10.00">&#45; prepare()</text>
<text text-anchor="start" x="10.5" y="-18.5" font-family="Helvetica,sans-Serif" font-size="10.00">&#45; name()</text>
<text text-anchor="start" x="10.5" y="-7.5" font-family="Helvetica,sans-Serif" font-size="10.00">&#45; create()</text>
</a>
</g>
</g>
<!-- Node2 -->
<g id="node2" class="node">
<title>Node2</title>
<g id="a_node2"><a xlink:href="classweb_1_1http_1_1client_1_1_socket_context_upgrade_factory.html" target="_top" xlink:title=" ">
<polygon fill="white" stroke="black" points="3,-172.5 3,-273.5 169,-273.5 169,-172.5 3,-172.5"/>
<text text-anchor="start" x="11" y="-261.5" font-family="Helvetica,sans-Serif" font-size="10.00">web::http::client::</text>
<text text-anchor="middle" x="86" y="-250.5" font-family="Helvetica,sans-Serif" font-size="10.00">SocketContextUpgradeFactory</text>
<polyline fill="none" stroke="black" points="3,-243.5 169,-243.5 "/>
<text text-anchor="middle" x="86" y="-231.5" font-family="Helvetica,sans-Serif" font-size="10.00"> </text>
<polyline fill="none" stroke="black" points="3,-224.5 169,-224.5 "/>
<text text-anchor="start" x="11" y="-212.5" font-family="Helvetica,sans-Serif" font-size="10.00">+ prepare()</text>
<text text-anchor="start" x="11" y="-201.5" font-family="Helvetica,sans-Serif" font-size="10.00">+ checkRefCount()</text>
<text text-anchor="start" x="11" y="-190.5" font-family="Helvetica,sans-Serif" font-size="10.00"># SocketContextUpgradeFactory()</text>
<text text-anchor="start" x="11" y="-179.5" font-family="Helvetica,sans-Serif" font-size="10.00"># link()</text>
</a>
</g>
</g>
<!-- Node2&#45;&gt;Node1 -->
<g id="edge1" class="edge">
<title>Node2&#45;&gt;Node1</title>
<path fill="none" stroke="midnightblue" d="M86,-162.13C86,-153.09 86,-143.73 86,-134.57"/>
<polygon fill="none" stroke="midnightblue" points="82.5,-162.16 86,-172.16 89.5,-162.16 82.5,-162.16"/>
</g>
<!-- Node3 -->
<g id="node3" class="node">
<title>Node3</title>
<g id="a_node3"><a xlink:href="classweb_1_1http_1_1_socket_context_upgrade_factory.html" target="_top" xlink:title=" ">
<polygon fill="white" stroke="black" points="0,-311.5 0,-511.5 172,-511.5 172,-311.5 0,-311.5"/>
<text text-anchor="start" x="8" y="-499.5" font-family="Helvetica,sans-Serif" font-size="10.00">web::http::SocketContext</text>
<text text-anchor="start" x="8" y="-488.5" font-family="Helvetica,sans-Serif" font-size="10.00">UpgradeFactory&lt; Request,</text>
<text text-anchor="middle" x="86" y="-477.5" font-family="Helvetica,sans-Serif" font-size="10.00"> Response &gt;</text>
<polyline fill="none" stroke="black" points="0,-470.5 172,-470.5 "/>
<text text-anchor="start" x="8" y="-458.5" font-family="Helvetica,sans-Serif" font-size="10.00"># refCount</text>
<text text-anchor="start" x="8" y="-447.5" font-family="Helvetica,sans-Serif" font-size="10.00">&#45; request</text>
<text text-anchor="start" x="8" y="-436.5" font-family="Helvetica,sans-Serif" font-size="10.00">&#45; response</text>
<polyline fill="none" stroke="black" points="0,-429.5 172,-429.5 "/>
<text text-anchor="start" x="8" y="-417.5" font-family="Helvetica,sans-Serif" font-size="10.00">+ name()</text>
<text text-anchor="start" x="8" y="-406.5" font-family="Helvetica,sans-Serif" font-size="10.00">+ prepare()</text>
<text text-anchor="start" x="8" y="-395.5" font-family="Helvetica,sans-Serif" font-size="10.00">+ destroy()</text>
<text text-anchor="start" x="8" y="-384.5" font-family="Helvetica,sans-Serif" font-size="10.00">+ incRefCount()</text>
<text text-anchor="start" x="8" y="-373.5" font-family="Helvetica,sans-Serif" font-size="10.00">+ decRefCount()</text>
<text text-anchor="start" x="8" y="-362.5" font-family="Helvetica,sans-Serif" font-size="10.00">+ checkRefCount()</text>
<text text-anchor="start" x="8" y="-351.5" font-family="Helvetica,sans-Serif" font-size="10.00"># SocketContextUpgradeFactory()</text>
<text text-anchor="start" x="8" y="-340.5" font-family="Helvetica,sans-Serif" font-size="10.00"># ~SocketContextUpgradeFactory()</text>
<text text-anchor="start" x="8" y="-329.5" font-family="Helvetica,sans-Serif" font-size="10.00">&#45; create()</text>
<text text-anchor="start" x="8" y="-318.5" font-family="Helvetica,sans-Serif" font-size="10.00">&#45; create()</text>
</a>
</g>
</g>
<!-- Node3&#45;&gt;Node2 -->
<g id="edge2" class="edge">
<title>Node3&#45;&gt;Node2</title>
<path fill="none" stroke="midnightblue" d="M86,-301.2C86,-291.63 86,-282.29 86,-273.6"/>
<polygon fill="none" stroke="midnightblue" points="82.5,-301.24 86,-311.24 89.5,-301.24 82.5,-301.24"/>
</g>
<!-- Node4 -->
<g id="node4" class="node">
<title>Node4</title>
<g id="a_node4"><a xlink:href="classcore_1_1socket_1_1stream_1_1_socket_context_factory.html" target="_top" xlink:title=" ">
<polygon fill="white" stroke="black" points="14.5,-797.5 14.5,-887.5 149.5,-887.5 149.5,-797.5 14.5,-797.5"/>
<text text-anchor="start" x="22.5" y="-875.5" font-family="Helvetica,sans-Serif" font-size="10.00">core::socket::stream</text>
<text text-anchor="middle" x="82" y="-864.5" font-family="Helvetica,sans-Serif" font-size="10.00">::SocketContextFactory</text>
<polyline fill="none" stroke="black" points="14.5,-857.5 149.5,-857.5 "/>
<text text-anchor="middle" x="82" y="-845.5" font-family="Helvetica,sans-Serif" font-size="10.00"> </text>
<polyline fill="none" stroke="black" points="14.5,-838.5 149.5,-838.5 "/>
<text text-anchor="start" x="22.5" y="-826.5" font-family="Helvetica,sans-Serif" font-size="10.00">+ create()</text>
<text text-anchor="start" x="22.5" y="-815.5" font-family="Helvetica,sans-Serif" font-size="10.00"># SocketContextFactory()</text>
<text text-anchor="start" x="22.5" y="-804.5" font-family="Helvetica,sans-Serif" font-size="10.00"># ~SocketContextFactory()</text>
</a>
</g>
</g>
<!-- Node4&#45;&gt;Node3 -->
<g id="edge3" class="edge">
<title>Node4&#45;&gt;Node3</title>
<path fill="none" stroke="midnightblue" d="M82.51,-786.98C83.15,-717.84 84.28,-597.36 85.07,-511.74"/>
<polygon fill="none" stroke="midnightblue" points="79.01,-787.17 82.41,-797.21 86.01,-787.24 79.01,-787.17"/>
</g>
<!-- Node5 -->
<g id="node5" class="node">
<title>Node5</title>
<g id="a_node5"><a xlink:href="classweb_1_1http_1_1_socket_context_upgrade_factory.html" target="_top" xlink:title=" ">
<polygon fill="white" stroke="black" points="98,-559.5 98,-759.5 270,-759.5 270,-559.5 98,-559.5"/>
<text text-anchor="start" x="106" y="-747.5" font-family="Helvetica,sans-Serif" font-size="10.00">web::http::SocketContext</text>
<text text-anchor="start" x="106" y="-736.5" font-family="Helvetica,sans-Serif" font-size="10.00">UpgradeFactory&lt; RequestT,</text>
<text text-anchor="middle" x="184" y="-725.5" font-family="Helvetica,sans-Serif" font-size="10.00"> ResponseT &gt;</text>
<polyline fill="none" stroke="black" points="98,-718.5 270,-718.5 "/>
<text text-anchor="start" x="106" y="-706.5" font-family="Helvetica,sans-Serif" font-size="10.00"># refCount</text>
<text text-anchor="start" x="106" y="-695.5" font-family="Helvetica,sans-Serif" font-size="10.00">&#45; request</text>
<text text-anchor="start" x="106" y="-684.5" font-family="Helvetica,sans-Serif" font-size="10.00">&#45; response</text>
<polyline fill="none" stroke="black" points="98,-677.5 270,-677.5 "/>
<text text-anchor="start" x="106" y="-665.5" font-family="Helvetica,sans-Serif" font-size="10.00">+ name()</text>
<text text-anchor="start" x="106" y="-654.5" font-family="Helvetica,sans-Serif" font-size="10.00">+ prepare()</text>
<text text-anchor="start" x="106" y="-643.5" font-family="Helvetica,sans-Serif" font-size="10.00">+ destroy()</text>
<text text-anchor="start" x="106" y="-632.5" font-family="Helvetica,sans-Serif" font-size="10.00">+ incRefCount()</text>
<text text-anchor="start" x="106" y="-621.5" font-family="Helvetica,sans-Serif" font-size="10.00">+ decRefCount()</text>
<text text-anchor="start" x="106" y="-610.5" font-family="Helvetica,sans-Serif" font-size="10.00">+ checkRefCount()</text>
<text text-anchor="start" x="106" y="-599.5" font-family="Helvetica,sans-Serif" font-size="10.00"># SocketContextUpgradeFactory()</text>
<text text-anchor="start" x="106" y="-588.5" font-family="Helvetica,sans-Serif" font-size="10.00"># ~SocketContextUpgradeFactory()</text>
<text text-anchor="start" x="106" y="-577.5" font-family="Helvetica,sans-Serif" font-size="10.00">&#45; create()</text>
<text text-anchor="start" x="106" y="-566.5" font-family="Helvetica,sans-Serif" font-size="10.00">&#45; create()</text>
</a>
</g>
</g>
<!-- Node4&#45;&gt;Node5 -->
<g id="edge5" class="edge">
<title>Node4&#45;&gt;Node5</title>
<path fill="none" stroke="midnightblue" d="M111.95,-788.35C117.08,-779.26 122.54,-769.55 128.09,-759.71"/>
<polygon fill="none" stroke="midnightblue" points="108.81,-786.79 106.95,-797.22 114.91,-790.23 108.81,-786.79"/>
</g>
<!-- Node5&#45;&gt;Node3 -->
<g id="edge4" class="edge">
<title>Node5&#45;&gt;Node3</title>
<path fill="none" stroke="orange" d="M140.61,-549.59C135.61,-537.02 130.52,-524.25 125.57,-511.82"/>
<polygon fill="orange" stroke="orange" points="137.47,-551.16 144.42,-559.15 143.97,-548.57 137.47,-551.16"/>
<text text-anchor="middle" x="189.5" y="-533" font-family="Helvetica,sans-Serif" font-size="10.00"> &lt; Request, Response &gt;</text>
</g>
</g>
</svg>
