<?xml version="1.0" encoding="UTF-8" standalone="no"?>
<!DOCTYPE svg PUBLIC "-//W3C//DTD SVG 1.1//EN"
 "http://www.w3.org/Graphics/SVG/1.1/DTD/svg11.dtd">
<!-- Generated by graphviz version 2.43.0 (0)
 -->
<!-- Title: express::tls::WebApp Pages: 1 -->
<svg width="603pt" height="1388pt"
 viewBox="0.00 0.00 603.00 1388.00" xmlns="http://www.w3.org/2000/svg" xmlns:xlink="http://www.w3.org/1999/xlink">
<g id="graph0" class="graph" transform="scale(1 1) rotate(0) translate(4 1384)">
<title>express::tls::WebApp</title>
<polygon fill="white" stroke="transparent" points="-4,4 -4,-1384 599,-1384 599,4 -4,4"/>
<!-- Node1 -->
<g id="node1" class="node">
<title>Node1</title>
<g id="a_node1"><a xlink:title=" ">
<polygon fill="#bfbfbf" stroke="black" points="184,-0.5 184,-57.5 294,-57.5 294,-0.5 184,-0.5"/>
<text text-anchor="middle" x="239" y="-45.5" font-family="Helvetica,sans-Serif" font-size="10.00">express::tls::WebApp</text>
<polyline fill="none" stroke="black" points="184,-38.5 294,-38.5 "/>
<text text-anchor="middle" x="239" y="-26.5" font-family="Helvetica,sans-Serif" font-size="10.00"> </text>
<polyline fill="none" stroke="black" points="184,-19.5 294,-19.5 "/>
<text text-anchor="middle" x="239" y="-7.5" font-family="Helvetica,sans-Serif" font-size="10.00"> </text>
</a>
</g>
</g>
<!-- Node2 -->
<g id="node2" class="node">
<title>Node2</title>
<g id="a_node2"><a xlink:href="classexpress_1_1_web_app_t.html" target="_top" xlink:title=" ">
<polygon fill="white" stroke="black" points="172,-95.5 172,-196.5 306,-196.5 306,-95.5 172,-95.5"/>
<text text-anchor="start" x="180" y="-184.5" font-family="Helvetica,sans-Serif" font-size="10.00">express::WebAppT&lt; web</text>
<text text-anchor="start" x="180" y="-173.5" font-family="Helvetica,sans-Serif" font-size="10.00">::http::server::tls::</text>
<text text-anchor="start" x="180" y="-162.5" font-family="Helvetica,sans-Serif" font-size="10.00">Server&lt; express::Request,</text>
<text text-anchor="middle" x="239" y="-151.5" font-family="Helvetica,sans-Serif" font-size="10.00"> express::Response &gt; &gt;</text>
<polyline fill="none" stroke="black" points="172,-144.5 306,-144.5 "/>
<text text-anchor="middle" x="239" y="-132.5" font-family="Helvetica,sans-Serif" font-size="10.00"> </text>
<polyline fill="none" stroke="black" points="172,-125.5 306,-125.5 "/>
<text text-anchor="start" x="180" y="-113.5" font-family="Helvetica,sans-Serif" font-size="10.00">+ WebAppT()</text>
<text text-anchor="start" x="180" y="-102.5" font-family="Helvetica,sans-Serif" font-size="10.00">+ WebAppT()</text>
</a>
</g>
</g>
<!-- Node2&#45;&gt;Node1 -->
<g id="edge1" class="edge">
<title>Node2&#45;&gt;Node1</title>
<path fill="none" stroke="midnightblue" d="M239,-85.22C239,-75.59 239,-66.06 239,-57.68"/>
<polygon fill="none" stroke="midnightblue" points="235.5,-85.23 239,-95.23 242.5,-85.23 235.5,-85.23"/>
</g>
<!-- Node3 -->
<g id="node3" class="node">
<title>Node3</title>
<g id="a_node3"><a xlink:href="classexpress_1_1_web_app.html" target="_top" xlink:title=" ">
<polygon fill="white" stroke="black" points="122,-422 122,-512 216,-512 216,-422 122,-422"/>
<text text-anchor="middle" x="169" y="-500" font-family="Helvetica,sans-Serif" font-size="10.00">express::WebApp</text>
<polyline fill="none" stroke="black" points="122,-493 216,-493 "/>
<text text-anchor="start" x="130" y="-481" font-family="Helvetica,sans-Serif" font-size="10.00">&#45; initialized</text>
<polyline fill="none" stroke="black" points="122,-474 216,-474 "/>
<text text-anchor="start" x="130" y="-462" font-family="Helvetica,sans-Serif" font-size="10.00">+ init()</text>
<text text-anchor="start" x="130" y="-451" font-family="Helvetica,sans-Serif" font-size="10.00">+ start()</text>
<text text-anchor="start" x="130" y="-440" font-family="Helvetica,sans-Serif" font-size="10.00">+ stop()</text>
<text text-anchor="start" x="130" y="-429" font-family="Helvetica,sans-Serif" font-size="10.00"># WebApp()</text>
</a>
</g>
</g>
<!-- Node3&#45;&gt;Node2 -->
<g id="edge2" class="edge">
<title>Node3&#45;&gt;Node2</title>
<path fill="none" stroke="midnightblue" d="M184.76,-411.78C197.07,-367.91 213.89,-304.38 225,-248 228.29,-231.33 231.08,-212.95 233.28,-196.5"/>
<polygon fill="none" stroke="midnightblue" points="181.32,-411.09 181.97,-421.66 188.05,-412.99 181.32,-411.09"/>
</g>
<!-- Node13 -->
<g id="node13" class="node">
<title>Node13</title>
<g id="a_node13"><a xlink:href="classexpress_1_1_web_app_t.html" target="_top" xlink:title=" ">
<polygon fill="white" stroke="black" points="0,-288.5 0,-356.5 152,-356.5 152,-288.5 0,-288.5"/>
<text text-anchor="middle" x="76" y="-344.5" font-family="Helvetica,sans-Serif" font-size="10.00">express::WebAppT&lt; ServerT &gt;</text>
<polyline fill="none" stroke="black" points="0,-337.5 152,-337.5 "/>
<text text-anchor="middle" x="76" y="-325.5" font-family="Helvetica,sans-Serif" font-size="10.00"> </text>
<polyline fill="none" stroke="black" points="0,-318.5 152,-318.5 "/>
<text text-anchor="start" x="8" y="-306.5" font-family="Helvetica,sans-Serif" font-size="10.00">+ WebAppT()</text>
<text text-anchor="start" x="8" y="-295.5" font-family="Helvetica,sans-Serif" font-size="10.00">+ WebAppT()</text>
</a>
</g>
</g>
<!-- Node3&#45;&gt;Node13 -->
<g id="edge14" class="edge">
<title>Node3&#45;&gt;Node13</title>
<path fill="none" stroke="midnightblue" d="M134.53,-413.19C122.24,-394.35 108.74,-373.66 97.8,-356.91"/>
<polygon fill="none" stroke="midnightblue" points="131.69,-415.23 140.08,-421.69 137.55,-411.41 131.69,-415.23"/>
</g>
<!-- Node4 -->
<g id="node4" class="node">
<title>Node4</title>
<g id="a_node4"><a xlink:href="classexpress_1_1_router.html" target="_top" xlink:title=" ">
<polygon fill="white" stroke="black" points="120.5,-587.5 120.5,-754.5 217.5,-754.5 217.5,-587.5 120.5,-587.5"/>
<text text-anchor="middle" x="169" y="-742.5" font-family="Helvetica,sans-Serif" font-size="10.00">express::Router</text>
<polyline fill="none" stroke="black" points="120.5,-735.5 217.5,-735.5 "/>
<text text-anchor="start" x="128.5" y="-723.5" font-family="Helvetica,sans-Serif" font-size="10.00"># routerDispatcher</text>
<polyline fill="none" stroke="black" points="120.5,-716.5 217.5,-716.5 "/>
<text text-anchor="start" x="128.5" y="-704.5" font-family="Helvetica,sans-Serif" font-size="10.00">+ Router()</text>
<text text-anchor="start" x="128.5" y="-693.5" font-family="Helvetica,sans-Serif" font-size="10.00">+ Router()</text>
<text text-anchor="start" x="128.5" y="-682.5" font-family="Helvetica,sans-Serif" font-size="10.00">+ operator=()</text>
<text text-anchor="start" x="128.5" y="-671.5" font-family="Helvetica,sans-Serif" font-size="10.00">+ use()</text>
<text text-anchor="start" x="128.5" y="-660.5" font-family="Helvetica,sans-Serif" font-size="10.00">+ use()</text>
<text text-anchor="start" x="128.5" y="-649.5" font-family="Helvetica,sans-Serif" font-size="10.00">+ use()</text>
<text text-anchor="start" x="128.5" y="-638.5" font-family="Helvetica,sans-Serif" font-size="10.00">+ use()</text>
<text text-anchor="start" x="128.5" y="-627.5" font-family="Helvetica,sans-Serif" font-size="10.00">+ use()</text>
<text text-anchor="start" x="128.5" y="-616.5" font-family="Helvetica,sans-Serif" font-size="10.00">+ use()</text>
<text text-anchor="start" x="128.5" y="-605.5" font-family="Helvetica,sans-Serif" font-size="10.00">+ all()</text>
<text text-anchor="start" x="128.5" y="-594.5" font-family="Helvetica,sans-Serif" font-size="10.00">and 59 more...</text>
</a>
</g>
</g>
<!-- Node4&#45;&gt;Node3 -->
<g id="edge3" class="edge">
<title>Node4&#45;&gt;Node3</title>
<path fill="none" stroke="midnightblue" d="M169,-577.25C169,-554.58 169,-531.36 169,-512.19"/>
<polygon fill="none" stroke="midnightblue" points="165.5,-577.26 169,-587.26 172.5,-577.26 165.5,-577.26"/>
</g>
<!-- Node5 -->
<g id="node5" class="node">
<title>Node5</title>
<g id="a_node5"><a xlink:href="classweb_1_1http_1_1server_1_1tls_1_1_server.html" target="_top" xlink:title=" ">
<polygon fill="white" stroke="black" points="267,-266.5 267,-378.5 377,-378.5 377,-266.5 267,-266.5"/>
<text text-anchor="start" x="275" y="-366.5" font-family="Helvetica,sans-Serif" font-size="10.00">web::http::server::</text>
<text text-anchor="start" x="275" y="-355.5" font-family="Helvetica,sans-Serif" font-size="10.00">tls::Server&lt; Request,</text>
<text text-anchor="middle" x="322" y="-344.5" font-family="Helvetica,sans-Serif" font-size="10.00"> Response &gt;</text>
<polyline fill="none" stroke="black" points="267,-337.5 377,-337.5 "/>
<text text-anchor="middle" x="322" y="-325.5" font-family="Helvetica,sans-Serif" font-size="10.00"> </text>
<polyline fill="none" stroke="black" points="267,-318.5 377,-318.5 "/>
<text text-anchor="start" x="275" y="-306.5" font-family="Helvetica,sans-Serif" font-size="10.00">+ addSniCert()</text>
<text text-anchor="start" x="275" y="-295.5" font-family="Helvetica,sans-Serif" font-size="10.00">+ listen()</text>
<text text-anchor="start" x="275" y="-284.5" font-family="Helvetica,sans-Serif" font-size="10.00">+ listen()</text>
<text text-anchor="start" x="275" y="-273.5" font-family="Helvetica,sans-Serif" font-size="10.00">+ listen()</text>
</a>
</g>
</g>
<!-- Node5&#45;&gt;Node2 -->
<g id="edge4" class="edge">
<title>Node5&#45;&gt;Node2</title>
<path fill="none" stroke="midnightblue" d="M291.43,-257.22C281.89,-237.18 271.54,-215.4 262.56,-196.54"/>
<polygon fill="none" stroke="midnightblue" points="288.28,-258.76 295.74,-266.29 294.6,-255.75 288.28,-258.76"/>
</g>
<!-- Node6 -->
<g id="node6" class="node">
<title>Node6</title>
<g id="a_node6"><a xlink:href="classweb_1_1http_1_1server_1_1_server.html" target="_top" xlink:title=" ">
<polygon fill="white" stroke="black" points="250.5,-416.5 250.5,-517.5 393.5,-517.5 393.5,-416.5 250.5,-416.5"/>
<text text-anchor="start" x="258.5" y="-505.5" font-family="Helvetica,sans-Serif" font-size="10.00">web::http::server::</text>
<text text-anchor="start" x="258.5" y="-494.5" font-family="Helvetica,sans-Serif" font-size="10.00">Server&lt; net::in::stream</text>
<text text-anchor="start" x="258.5" y="-483.5" font-family="Helvetica,sans-Serif" font-size="10.00">::tls::SocketServer, Request,</text>
<text text-anchor="middle" x="322" y="-472.5" font-family="Helvetica,sans-Serif" font-size="10.00"> Response &gt;</text>
<polyline fill="none" stroke="black" points="250.5,-465.5 393.5,-465.5 "/>
<text text-anchor="middle" x="322" y="-453.5" font-family="Helvetica,sans-Serif" font-size="10.00"> </text>
<polyline fill="none" stroke="black" points="250.5,-446.5 393.5,-446.5 "/>
<text text-anchor="start" x="258.5" y="-434.5" font-family="Helvetica,sans-Serif" font-size="10.00">+ Server()</text>
<text text-anchor="start" x="258.5" y="-423.5" font-family="Helvetica,sans-Serif" font-size="10.00">+ listen()</text>
</a>
</g>
</g>
<!-- Node6&#45;&gt;Node5 -->
<g id="edge5" class="edge">
<title>Node6&#45;&gt;Node5</title>
<path fill="none" stroke="midnightblue" d="M322,-406.11C322,-397.1 322,-387.83 322,-378.91"/>
<polygon fill="none" stroke="midnightblue" points="318.5,-406.16 322,-416.16 325.5,-406.16 318.5,-406.16"/>
</g>
<!-- Node7 -->
<g id="node7" class="node">
<title>Node7</title>
<g id="a_node7"><a xlink:href="classcore_1_1socket_1_1stream_1_1tls_1_1_socket_server.html" target="_top" xlink:title=" ">
<polygon fill="white" stroke="black" points="236.5,-620.5 236.5,-721.5 403.5,-721.5 403.5,-620.5 236.5,-620.5"/>
<text text-anchor="start" x="244.5" y="-709.5" font-family="Helvetica,sans-Serif" font-size="10.00">net::in::stream::tls</text>
<text text-anchor="start" x="244.5" y="-698.5" font-family="Helvetica,sans-Serif" font-size="10.00">::SocketServer &lt; web</text>
<text text-anchor="start" x="244.5" y="-687.5" font-family="Helvetica,sans-Serif" font-size="10.00">::http::server::SocketContext</text>
<text text-anchor="middle" x="320" y="-676.5" font-family="Helvetica,sans-Serif" font-size="10.00">Factory&lt; Request , Response &gt; &gt;</text>
<polyline fill="none" stroke="black" points="236.5,-669.5 403.5,-669.5 "/>
<text text-anchor="start" x="244.5" y="-657.5" font-family="Helvetica,sans-Serif" font-size="10.00">&#45; sniSslCtxs</text>
<polyline fill="none" stroke="black" points="236.5,-650.5 403.5,-650.5 "/>
<text text-anchor="start" x="244.5" y="-638.5" font-family="Helvetica,sans-Serif" font-size="10.00">+ SocketServer()</text>
<text text-anchor="start" x="244.5" y="-627.5" font-family="Helvetica,sans-Serif" font-size="10.00">+ addSniCert()</text>
</a>
</g>
</g>
<!-- Node7&#45;&gt;Node6 -->
<g id="edge6" class="edge">
<title>Node7&#45;&gt;Node6</title>
<path fill="none" stroke="midnightblue" d="M320.59,-610.18C320.88,-580.78 321.23,-545.76 321.51,-517.83"/>
<polygon fill="none" stroke="midnightblue" points="317.09,-610.29 320.49,-620.33 324.09,-610.36 317.09,-610.29"/>
</g>
<!-- Node8 -->
<g id="node8" class="node">
<title>Node8</title>
<g id="a_node8"><a xlink:href="classcore_1_1socket_1_1stream_1_1_socket_server.html" target="_top" xlink:title=" ">
<polygon fill="white" stroke="black" points="221,-792.5 221,-1003.5 403,-1003.5 403,-792.5 221,-792.5"/>
<text text-anchor="start" x="229" y="-991.5" font-family="Helvetica,sans-Serif" font-size="10.00">core::socket::stream</text>
<text text-anchor="start" x="229" y="-980.5" font-family="Helvetica,sans-Serif" font-size="10.00">::SocketServer&lt; ServerSocket</text>
<text text-anchor="start" x="229" y="-969.5" font-family="Helvetica,sans-Serif" font-size="10.00">T, SocketAcceptor&lt; ServerSocketT</text>
<text text-anchor="middle" x="312" y="-958.5" font-family="Helvetica,sans-Serif" font-size="10.00">::Socket &gt;, SocketContextFactoryT &gt;</text>
<polyline fill="none" stroke="black" points="221,-951.5 403,-951.5 "/>
<text text-anchor="start" x="229" y="-939.5" font-family="Helvetica,sans-Serif" font-size="10.00"># socketContextFactory</text>
<text text-anchor="start" x="229" y="-928.5" font-family="Helvetica,sans-Serif" font-size="10.00"># _onConnect</text>
<text text-anchor="start" x="229" y="-917.5" font-family="Helvetica,sans-Serif" font-size="10.00"># _onConnected</text>
<text text-anchor="start" x="229" y="-906.5" font-family="Helvetica,sans-Serif" font-size="10.00"># _onDisconnect</text>
<text text-anchor="start" x="229" y="-895.5" font-family="Helvetica,sans-Serif" font-size="10.00"># options</text>
<polyline fill="none" stroke="black" points="221,-888.5 403,-888.5 "/>
<text text-anchor="start" x="229" y="-876.5" font-family="Helvetica,sans-Serif" font-size="10.00">+ SocketServer()</text>
<text text-anchor="start" x="229" y="-865.5" font-family="Helvetica,sans-Serif" font-size="10.00">+ ~SocketServer()</text>
<text text-anchor="start" x="229" y="-854.5" font-family="Helvetica,sans-Serif" font-size="10.00">+ listen()</text>
<text text-anchor="start" x="229" y="-843.5" font-family="Helvetica,sans-Serif" font-size="10.00">+ onConnect()</text>
<text text-anchor="start" x="229" y="-832.5" font-family="Helvetica,sans-Serif" font-size="10.00">+ onConnected()</text>
<text text-anchor="start" x="229" y="-821.5" font-family="Helvetica,sans-Serif" font-size="10.00">+ onDisconnect()</text>
<text text-anchor="start" x="229" y="-810.5" font-family="Helvetica,sans-Serif" font-size="10.00">+ getSocketContextFactory()</text>
<text text-anchor="start" x="229" y="-799.5" font-family="Helvetica,sans-Serif" font-size="10.00">&#45; SocketServer()</text>
</a>
</g>
</g>
<!-- Node8&#45;&gt;Node7 -->
<g id="edge7" class="edge">
<title>Node8&#45;&gt;Node7</title>
<path fill="none" stroke="midnightblue" d="M316.08,-782.27C316.84,-760.92 317.59,-739.69 318.24,-721.63"/>
<polygon fill="none" stroke="midnightblue" points="312.58,-782.29 315.72,-792.4 319.57,-782.54 312.58,-782.29"/>
</g>
<!-- Node9 -->
<g id="node9" class="node">
<title>Node9</title>
<g id="a_node9"><a xlink:title=" ">
<polygon fill="white" stroke="#bfbfbf" points="267,-1322.5 267,-1379.5 349,-1379.5 349,-1322.5 267,-1322.5"/>
<text text-anchor="middle" x="308" y="-1367.5" font-family="Helvetica,sans-Serif" font-size="10.00">ServerSocketT</text>
<polyline fill="none" stroke="#bfbfbf" points="267,-1360.5 349,-1360.5 "/>
<text text-anchor="middle" x="308" y="-1348.5" font-family="Helvetica,sans-Serif" font-size="10.00"> </text>
<polyline fill="none" stroke="#bfbfbf" points="267,-1341.5 349,-1341.5 "/>
<text text-anchor="middle" x="308" y="-1329.5" font-family="Helvetica,sans-Serif" font-size="10.00"> </text>
</a>
</g>
</g>
<!-- Node9&#45;&gt;Node8 -->
<g id="edge8" class="edge">
<title>Node9&#45;&gt;Node8</title>
<path fill="none" stroke="midnightblue" d="M308.33,-1312.36C308.93,-1245.21 310.19,-1102.57 311.07,-1003.77"/>
<polygon fill="none" stroke="midnightblue" points="304.83,-1312.44 308.24,-1322.47 311.83,-1312.5 304.83,-1312.44"/>
</g>
<!-- Node10 -->
<g id="node10" class="node">
<title>Node10</title>
<g id="a_node10"><a xlink:href="classcore_1_1socket_1_1stream_1_1_socket_server.html" target="_top" xlink:title=" ">
<polygon fill="white" stroke="black" points="324.5,-1073.5 324.5,-1284.5 497.5,-1284.5 497.5,-1073.5 324.5,-1073.5"/>
<text text-anchor="start" x="332.5" y="-1272.5" font-family="Helvetica,sans-Serif" font-size="10.00">core::socket::stream</text>
<text text-anchor="start" x="332.5" y="-1261.5" font-family="Helvetica,sans-Serif" font-size="10.00">::SocketServer&lt; ServerSocket</text>
<text text-anchor="start" x="332.5" y="-1250.5" font-family="Helvetica,sans-Serif" font-size="10.00">T, SocketAcceptorT, SocketContext</text>
<text text-anchor="middle" x="411" y="-1239.5" font-family="Helvetica,sans-Serif" font-size="10.00">FactoryT &gt;</text>
<polyline fill="none" stroke="black" points="324.5,-1232.5 497.5,-1232.5 "/>
<text text-anchor="start" x="332.5" y="-1220.5" font-family="Helvetica,sans-Serif" font-size="10.00"># socketContextFactory</text>
<text text-anchor="start" x="332.5" y="-1209.5" font-family="Helvetica,sans-Serif" font-size="10.00"># _onConnect</text>
<text text-anchor="start" x="332.5" y="-1198.5" font-family="Helvetica,sans-Serif" font-size="10.00"># _onConnected</text>
<text text-anchor="start" x="332.5" y="-1187.5" font-family="Helvetica,sans-Serif" font-size="10.00"># _onDisconnect</text>
<text text-anchor="start" x="332.5" y="-1176.5" font-family="Helvetica,sans-Serif" font-size="10.00"># options</text>
<polyline fill="none" stroke="black" points="324.5,-1169.5 497.5,-1169.5 "/>
<text text-anchor="start" x="332.5" y="-1157.5" font-family="Helvetica,sans-Serif" font-size="10.00">+ SocketServer()</text>
<text text-anchor="start" x="332.5" y="-1146.5" font-family="Helvetica,sans-Serif" font-size="10.00">+ ~SocketServer()</text>
<text text-anchor="start" x="332.5" y="-1135.5" font-family="Helvetica,sans-Serif" font-size="10.00">+ listen()</text>
<text text-anchor="start" x="332.5" y="-1124.5" font-family="Helvetica,sans-Serif" font-size="10.00">+ onConnect()</text>
<text text-anchor="start" x="332.5" y="-1113.5" font-family="Helvetica,sans-Serif" font-size="10.00">+ onConnected()</text>
<text text-anchor="start" x="332.5" y="-1102.5" font-family="Helvetica,sans-Serif" font-size="10.00">+ onDisconnect()</text>
<text text-anchor="start" x="332.5" y="-1091.5" font-family="Helvetica,sans-Serif" font-size="10.00">+ getSocketContextFactory()</text>
<text text-anchor="start" x="332.5" y="-1080.5" font-family="Helvetica,sans-Serif" font-size="10.00">&#45; SocketServer()</text>
</a>
</g>
</g>
<!-- Node9&#45;&gt;Node10 -->
<g id="edge10" class="edge">
<title>Node9&#45;&gt;Node10</title>
<path fill="none" stroke="midnightblue" d="M330.06,-1313.58C335.37,-1304.83 341.3,-1295.04 347.48,-1284.84"/>
<polygon fill="none" stroke="midnightblue" points="326.97,-1311.94 324.78,-1322.31 332.95,-1315.57 326.97,-1311.94"/>
</g>
<!-- Node10&#45;&gt;Node8 -->
<g id="edge9" class="edge">
<title>Node10&#45;&gt;Node8</title>
<path fill="none" stroke="orange" d="M370.43,-1063.66C363.4,-1043.85 356.12,-1023.34 349.19,-1003.81"/>
<polygon fill="orange" stroke="orange" points="367.21,-1065.06 373.85,-1073.32 373.81,-1062.72 367.21,-1065.06"/>
<text text-anchor="start" x="365" y="-1047" font-family="Helvetica,sans-Serif" font-size="10.00"> &lt; ServerSocketT, SocketAcceptor</text>
<text text-anchor="start" x="365" y="-1036" font-family="Helvetica,sans-Serif" font-size="10.00">&lt; ServerSocketT::Socket &gt;,</text>
<text text-anchor="middle" x="441" y="-1025" font-family="Helvetica,sans-Serif" font-size="10.00"> SocketContextFactoryT &gt;</text>
</g>
<!-- Node11 -->
<g id="node11" class="node">
<title>Node11</title>
<g id="a_node11"><a xlink:href="classweb_1_1http_1_1server_1_1_server.html" target="_top" xlink:title=" ">
<polygon fill="white" stroke="black" points="437,-626 437,-716 563,-716 563,-626 437,-626"/>
<text text-anchor="start" x="445" y="-704" font-family="Helvetica,sans-Serif" font-size="10.00">web::http::server::</text>
<text text-anchor="start" x="445" y="-693" font-family="Helvetica,sans-Serif" font-size="10.00">Server&lt; SocketServerT,</text>
<text text-anchor="middle" x="500" y="-682" font-family="Helvetica,sans-Serif" font-size="10.00"> RequestT, ResponseT &gt;</text>
<polyline fill="none" stroke="black" points="437,-675 563,-675 "/>
<text text-anchor="middle" x="500" y="-663" font-family="Helvetica,sans-Serif" font-size="10.00"> </text>
<polyline fill="none" stroke="black" points="437,-656 563,-656 "/>
<text text-anchor="start" x="445" y="-644" font-family="Helvetica,sans-Serif" font-size="10.00">+ Server()</text>
<text text-anchor="start" x="445" y="-633" font-family="Helvetica,sans-Serif" font-size="10.00">+ listen()</text>
</a>
</g>
</g>
<!-- Node11&#45;&gt;Node6 -->
<g id="edge11" class="edge">
<title>Node11&#45;&gt;Node6</title>
<path fill="none" stroke="orange" d="M454.17,-617.99C426.91,-587.06 392.52,-548.03 365.66,-517.55"/>
<polygon fill="orange" stroke="orange" points="451.7,-620.48 460.94,-625.67 456.95,-615.85 451.7,-620.48"/>
<text text-anchor="start" x="411" y="-561" font-family="Helvetica,sans-Serif" font-size="10.00"> &lt; net::in::stream::</text>
<text text-anchor="start" x="411" y="-550" font-family="Helvetica,sans-Serif" font-size="10.00">tls::SocketServer, Request,</text>
<text text-anchor="middle" x="471.5" y="-539" font-family="Helvetica,sans-Serif" font-size="10.00"> Response &gt;</text>
</g>
<!-- Node12 -->
<g id="node12" class="node">
<title>Node12</title>
<g id="a_node12"><a xlink:title=" ">
<polygon fill="white" stroke="#bfbfbf" points="421,-858.5 421,-937.5 595,-937.5 595,-858.5 421,-858.5"/>
<text text-anchor="start" x="429" y="-925.5" font-family="Helvetica,sans-Serif" font-size="10.00">SocketServerT&lt; web</text>
<text text-anchor="start" x="429" y="-914.5" font-family="Helvetica,sans-Serif" font-size="10.00">::http::server::SocketContext</text>
<text text-anchor="middle" x="508" y="-903.5" font-family="Helvetica,sans-Serif" font-size="10.00">Factory&lt; RequestT, ResponseT &gt; &gt;</text>
<polyline fill="none" stroke="#bfbfbf" points="421,-896.5 595,-896.5 "/>
<text text-anchor="middle" x="508" y="-884.5" font-family="Helvetica,sans-Serif" font-size="10.00"> </text>
<polyline fill="none" stroke="#bfbfbf" points="421,-877.5 595,-877.5 "/>
<text text-anchor="middle" x="508" y="-865.5" font-family="Helvetica,sans-Serif" font-size="10.00"> </text>
</a>
</g>
</g>
<!-- Node12&#45;&gt;Node11 -->
<g id="edge12" class="edge">
<title>Node12&#45;&gt;Node11</title>
<path fill="none" stroke="midnightblue" d="M506.26,-848.2C504.87,-808.97 502.93,-754.33 501.58,-716.34"/>
<polygon fill="none" stroke="midnightblue" points="502.77,-848.45 506.62,-858.32 509.77,-848.2 502.77,-848.45"/>
</g>
<!-- Node13&#45;&gt;Node2 -->
<g id="edge13" class="edge">
<title>Node13&#45;&gt;Node2</title>
<path fill="none" stroke="orange" d="M63.84,-278.58C60.52,-257.76 60.69,-233.35 73,-215 95.04,-182.16 136.06,-165.16 171.82,-156.38"/>
<polygon fill="orange" stroke="orange" points="60.42,-279.3 65.72,-288.48 67.29,-278 60.42,-279.3"/>
<text text-anchor="start" x="73" y="-240" font-family="Helvetica,sans-Serif" font-size="10.00"> &lt; web::http::server</text>
<text text-anchor="start" x="73" y="-229" font-family="Helvetica,sans-Serif" font-size="10.00">::tls::Server&lt; express</text>
<text text-anchor="middle" x="149" y="-218" font-family="Helvetica,sans-Serif" font-size="10.00">::Request, express::Response &gt; &gt;</text>
</g>
<!-- Node14 -->
<g id="node14" class="node">
<title>Node14</title>
<g id="a_node14"><a xlink:title=" ">
<polygon fill="white" stroke="#bfbfbf" points="50.5,-438.5 50.5,-495.5 101.5,-495.5 101.5,-438.5 50.5,-438.5"/>
<text text-anchor="middle" x="76" y="-483.5" font-family="Helvetica,sans-Serif" font-size="10.00">ServerT</text>
<polyline fill="none" stroke="#bfbfbf" points="50.5,-476.5 101.5,-476.5 "/>
<text text-anchor="middle" x="76" y="-464.5" font-family="Helvetica,sans-Serif" font-size="10.00"> </text>
<polyline fill="none" stroke="#bfbfbf" points="50.5,-457.5 101.5,-457.5 "/>
<text text-anchor="middle" x="76" y="-445.5" font-family="Helvetica,sans-Serif" font-size="10.00"> </text>
</a>
</g>
</g>
<!-- Node14&#45;&gt;Node13 -->
<g id="edge15" class="edge">
<title>Node14&#45;&gt;Node13</title>
<path fill="none" stroke="midnightblue" d="M76,-428.1C76,-405.9 76,-378.11 76,-356.75"/>
<polygon fill="none" stroke="midnightblue" points="72.5,-428.19 76,-438.19 79.5,-428.19 72.5,-428.19"/>
</g>
</g>
</svg>
