<?xml version="1.0" encoding="UTF-8" standalone="no"?>
<!DOCTYPE svg PUBLIC "-//W3C//DTD SVG 1.1//EN"
 "http://www.w3.org/Graphics/SVG/1.1/DTD/svg11.dtd">
<!-- Generated by graphviz version 2.43.0 (0)
 -->
<!-- Title: net::socket::stream::SocketContext Pages: 1 -->
<svg width="639pt" height="1303pt"
 viewBox="0.00 0.00 639.24 1303.00" xmlns="http://www.w3.org/2000/svg" xmlns:xlink="http://www.w3.org/1999/xlink">
<g id="graph0" class="graph" transform="scale(1 1) rotate(0) translate(4 1299)">
<title>net::socket::stream::SocketContext</title>
<polygon fill="white" stroke="transparent" points="-4,4 -4,-1299 635.24,-1299 635.24,4 -4,4"/>
<!-- Node1 -->
<g id="node1" class="node">
<title>Node1</title>
<g id="a_node1"><a xlink:title=" ">
<polygon fill="#bfbfbf" stroke="black" points="248,-1072.5 248,-1294.5 401,-1294.5 401,-1072.5 248,-1072.5"/>
<text text-anchor="start" x="256" y="-1282.5" font-family="Helvetica,sans-Serif" font-size="10.00">net::socket::stream</text>
<text text-anchor="middle" x="324.5" y="-1271.5" font-family="Helvetica,sans-Serif" font-size="10.00">::SocketContext</text>
<polyline fill="none" stroke="black" points="248,-1264.5 401,-1264.5 "/>
<text text-anchor="start" x="256" y="-1252.5" font-family="Helvetica,sans-Serif" font-size="10.00">&#45; socketConnection</text>
<polyline fill="none" stroke="black" points="248,-1245.5 401,-1245.5 "/>
<text text-anchor="start" x="256" y="-1233.5" font-family="Helvetica,sans-Serif" font-size="10.00">+ sendToPeer()</text>
<text text-anchor="start" x="256" y="-1222.5" font-family="Helvetica,sans-Serif" font-size="10.00">+ sendToPeer()</text>
<text text-anchor="start" x="256" y="-1211.5" font-family="Helvetica,sans-Serif" font-size="10.00">+ readFromPeer()</text>
<text text-anchor="start" x="256" y="-1200.5" font-family="Helvetica,sans-Serif" font-size="10.00">+ close()</text>
<text text-anchor="start" x="256" y="-1189.5" font-family="Helvetica,sans-Serif" font-size="10.00">+ getLocalAddressAsString()</text>
<text text-anchor="start" x="256" y="-1178.5" font-family="Helvetica,sans-Serif" font-size="10.00">+ getRemoteAddressAsString()</text>
<text text-anchor="start" x="256" y="-1167.5" font-family="Helvetica,sans-Serif" font-size="10.00">+ switchSocketContext()</text>
<text text-anchor="start" x="256" y="-1156.5" font-family="Helvetica,sans-Serif" font-size="10.00">+ setTimeout()</text>
<text text-anchor="start" x="256" y="-1145.5" font-family="Helvetica,sans-Serif" font-size="10.00">+ onReceiveFromPeer()</text>
<text text-anchor="start" x="256" y="-1134.5" font-family="Helvetica,sans-Serif" font-size="10.00">+ onWriteError()</text>
<text text-anchor="start" x="256" y="-1123.5" font-family="Helvetica,sans-Serif" font-size="10.00">+ onReadError()</text>
<text text-anchor="start" x="256" y="-1112.5" font-family="Helvetica,sans-Serif" font-size="10.00">+ onConnected()</text>
<text text-anchor="start" x="256" y="-1101.5" font-family="Helvetica,sans-Serif" font-size="10.00">+ onDisconnected()</text>
<text text-anchor="start" x="256" y="-1090.5" font-family="Helvetica,sans-Serif" font-size="10.00"># SocketContext()</text>
<text text-anchor="start" x="256" y="-1079.5" font-family="Helvetica,sans-Serif" font-size="10.00"># ~SocketContext()</text>
</a>
</g>
</g>
<!-- Node2 -->
<g id="node2" class="node">
<title>Node2</title>
<g id="a_node2"><a xlink:href="classweb_1_1http_1_1_socket_context.html" target="_top" xlink:title=" ">
<polygon fill="white" stroke="black" points="155,-955.5 155,-1034.5 286,-1034.5 286,-955.5 155,-955.5"/>
<text text-anchor="middle" x="220.5" y="-1022.5" font-family="Helvetica,sans-Serif" font-size="10.00">web::http::SocketContext</text>
<polyline fill="none" stroke="black" points="155,-1015.5 286,-1015.5 "/>
<text text-anchor="middle" x="220.5" y="-1003.5" font-family="Helvetica,sans-Serif" font-size="10.00"> </text>
<polyline fill="none" stroke="black" points="155,-996.5 286,-996.5 "/>
<text text-anchor="start" x="163" y="-984.5" font-family="Helvetica,sans-Serif" font-size="10.00">+ sendToPeerCompleted()</text>
<text text-anchor="start" x="163" y="-973.5" font-family="Helvetica,sans-Serif" font-size="10.00"># SocketContext()</text>
<text text-anchor="start" x="163" y="-962.5" font-family="Helvetica,sans-Serif" font-size="10.00"># operator=()</text>
</a>
</g>
</g>
<!-- Node1&#45;&gt;Node2 -->
<g id="edge1" class="edge">
<title>Node1&#45;&gt;Node2</title>
<path fill="none" stroke="midnightblue" d="M258.07,-1063.37C252.41,-1053.22 246.99,-1043.5 242.12,-1034.78"/>
<polygon fill="none" stroke="midnightblue" points="255.17,-1065.37 263.1,-1072.39 261.29,-1061.96 255.17,-1065.37"/>
</g>
<!-- Node5 -->
<g id="node5" class="node">
<title>Node5</title>
<g id="a_node5"><a xlink:href="classweb_1_1http_1_1_socket_context_upgrade.html" target="_top" xlink:title=" ">
<polygon fill="white" stroke="black" points="315,-955.5 315,-1034.5 484,-1034.5 484,-955.5 315,-955.5"/>
<text text-anchor="start" x="323" y="-1022.5" font-family="Helvetica,sans-Serif" font-size="10.00">web::http::SocketContext</text>
<text text-anchor="middle" x="399.5" y="-1011.5" font-family="Helvetica,sans-Serif" font-size="10.00">Upgrade&lt; RequestT, ResponseT &gt;</text>
<polyline fill="none" stroke="black" points="315,-1004.5 484,-1004.5 "/>
<text text-anchor="start" x="323" y="-992.5" font-family="Helvetica,sans-Serif" font-size="10.00"># socketContextUpgradeFactory</text>
<polyline fill="none" stroke="black" points="315,-985.5 484,-985.5 "/>
<text text-anchor="start" x="323" y="-973.5" font-family="Helvetica,sans-Serif" font-size="10.00">+ SocketContextUpgrade()</text>
<text text-anchor="start" x="323" y="-962.5" font-family="Helvetica,sans-Serif" font-size="10.00">+ ~SocketContextUpgrade()</text>
</a>
</g>
</g>
<!-- Node1&#45;&gt;Node5 -->
<g id="edge4" class="edge">
<title>Node1&#45;&gt;Node5</title>
<path fill="none" stroke="midnightblue" d="M372.53,-1063.06C376.57,-1053.02 380.43,-1043.42 383.91,-1034.78"/>
<polygon fill="none" stroke="midnightblue" points="369.26,-1061.81 368.78,-1072.39 375.76,-1064.42 369.26,-1061.81"/>
</g>
<!-- Node3 -->
<g id="node3" class="node">
<title>Node3</title>
<g id="a_node3"><a xlink:href="classweb_1_1http_1_1client_1_1_socket_context.html" target="_top" xlink:title=" ">
<polygon fill="white" stroke="black" points="153,-651.5 153,-829.5 288,-829.5 288,-651.5 153,-651.5"/>
<text text-anchor="start" x="161" y="-817.5" font-family="Helvetica,sans-Serif" font-size="10.00">web::http::client::</text>
<text text-anchor="start" x="161" y="-806.5" font-family="Helvetica,sans-Serif" font-size="10.00">SocketContext&lt; RequestT,</text>
<text text-anchor="middle" x="220.5" y="-795.5" font-family="Helvetica,sans-Serif" font-size="10.00"> ResponseT &gt;</text>
<polyline fill="none" stroke="black" points="153,-788.5 288,-788.5 "/>
<text text-anchor="start" x="161" y="-776.5" font-family="Helvetica,sans-Serif" font-size="10.00">&#45; request</text>
<text text-anchor="start" x="161" y="-765.5" font-family="Helvetica,sans-Serif" font-size="10.00">&#45; response</text>
<text text-anchor="start" x="161" y="-754.5" font-family="Helvetica,sans-Serif" font-size="10.00">&#45; parser</text>
<polyline fill="none" stroke="black" points="153,-747.5 288,-747.5 "/>
<text text-anchor="start" x="161" y="-735.5" font-family="Helvetica,sans-Serif" font-size="10.00">+ SocketContext()</text>
<text text-anchor="start" x="161" y="-724.5" font-family="Helvetica,sans-Serif" font-size="10.00">+ ~SocketContext()</text>
<text text-anchor="start" x="161" y="-713.5" font-family="Helvetica,sans-Serif" font-size="10.00">+ getRequest()</text>
<text text-anchor="start" x="161" y="-702.5" font-family="Helvetica,sans-Serif" font-size="10.00">+ getResponse()</text>
<text text-anchor="start" x="161" y="-691.5" font-family="Helvetica,sans-Serif" font-size="10.00">&#45; onReceiveFromPeer()</text>
<text text-anchor="start" x="161" y="-680.5" font-family="Helvetica,sans-Serif" font-size="10.00">&#45; onWriteError()</text>
<text text-anchor="start" x="161" y="-669.5" font-family="Helvetica,sans-Serif" font-size="10.00">&#45; onReadError()</text>
<text text-anchor="start" x="161" y="-658.5" font-family="Helvetica,sans-Serif" font-size="10.00">&#45; sendToPeerCompleted()</text>
</a>
</g>
</g>
<!-- Node2&#45;&gt;Node3 -->
<g id="edge2" class="edge">
<title>Node2&#45;&gt;Node3</title>
<path fill="none" stroke="midnightblue" d="M220.5,-945.16C220.5,-912.41 220.5,-868.34 220.5,-829.58"/>
<polygon fill="none" stroke="midnightblue" points="217,-945.38 220.5,-955.38 224,-945.38 217,-945.38"/>
</g>
<!-- Node4 -->
<g id="node4" class="node">
<title>Node4</title>
<g id="a_node4"><a xlink:href="classweb_1_1http_1_1server_1_1_socket_context.html" target="_top" xlink:title=" ">
<polygon fill="white" stroke="black" points="0,-646 0,-835 135,-835 135,-646 0,-646"/>
<text text-anchor="start" x="8" y="-823" font-family="Helvetica,sans-Serif" font-size="10.00">web::http::server::</text>
<text text-anchor="start" x="8" y="-812" font-family="Helvetica,sans-Serif" font-size="10.00">SocketContext&lt; RequestT,</text>
<text text-anchor="middle" x="67.5" y="-801" font-family="Helvetica,sans-Serif" font-size="10.00"> ResponseT &gt;</text>
<polyline fill="none" stroke="black" points="0,-794 135,-794 "/>
<text text-anchor="start" x="8" y="-782" font-family="Helvetica,sans-Serif" font-size="10.00">&#45; onRequestReady</text>
<text text-anchor="start" x="8" y="-771" font-family="Helvetica,sans-Serif" font-size="10.00">&#45; parser</text>
<text text-anchor="start" x="8" y="-760" font-family="Helvetica,sans-Serif" font-size="10.00">&#45; requestContexts</text>
<text text-anchor="start" x="8" y="-749" font-family="Helvetica,sans-Serif" font-size="10.00">&#45; requestInProgress</text>
<text text-anchor="start" x="8" y="-738" font-family="Helvetica,sans-Serif" font-size="10.00">&#45; connectionTerminated</text>
<polyline fill="none" stroke="black" points="0,-731 135,-731 "/>
<text text-anchor="start" x="8" y="-719" font-family="Helvetica,sans-Serif" font-size="10.00">+ SocketContext()</text>
<text text-anchor="start" x="8" y="-708" font-family="Helvetica,sans-Serif" font-size="10.00">&#45; onReceiveFromPeer()</text>
<text text-anchor="start" x="8" y="-697" font-family="Helvetica,sans-Serif" font-size="10.00">&#45; onReadError()</text>
<text text-anchor="start" x="8" y="-686" font-family="Helvetica,sans-Serif" font-size="10.00">&#45; onWriteError()</text>
<text text-anchor="start" x="8" y="-675" font-family="Helvetica,sans-Serif" font-size="10.00">&#45; sendToPeerCompleted()</text>
<text text-anchor="start" x="8" y="-664" font-family="Helvetica,sans-Serif" font-size="10.00">&#45; requestParsed()</text>
<text text-anchor="start" x="8" y="-653" font-family="Helvetica,sans-Serif" font-size="10.00">&#45; reset()</text>
</a>
</g>
</g>
<!-- Node2&#45;&gt;Node4 -->
<g id="edge3" class="edge">
<title>Node2&#45;&gt;Node4</title>
<path fill="none" stroke="midnightblue" d="M168.2,-947.91C159.27,-938.57 150.61,-928.4 143.5,-918 126.28,-892.79 111.66,-863.06 99.98,-835.25"/>
<polygon fill="none" stroke="midnightblue" points="165.88,-950.54 175.38,-955.22 170.87,-945.64 165.88,-950.54"/>
</g>
<!-- Node6 -->
<g id="node6" class="node">
<title>Node6</title>
<g id="a_node6"><a xlink:href="classweb_1_1websocket_1_1_socket_context_upgrade.html" target="_top" xlink:title=" ">
<polygon fill="white" stroke="black" points="256,-128.5 256,-493.5 415,-493.5 415,-128.5 256,-128.5"/>
<text text-anchor="start" x="264" y="-481.5" font-family="Helvetica,sans-Serif" font-size="10.00">web::websocket::SocketContext</text>
<text text-anchor="start" x="264" y="-470.5" font-family="Helvetica,sans-Serif" font-size="10.00">Upgrade&lt; SubProtocol, web</text>
<text text-anchor="start" x="264" y="-459.5" font-family="Helvetica,sans-Serif" font-size="10.00">::http::client::Request, web</text>
<text text-anchor="middle" x="335.5" y="-448.5" font-family="Helvetica,sans-Serif" font-size="10.00">::http::client::Response &gt;</text>
<polyline fill="none" stroke="black" points="256,-441.5 415,-441.5 "/>
<text text-anchor="start" x="264" y="-429.5" font-family="Helvetica,sans-Serif" font-size="10.00"># subProtocol</text>
<text text-anchor="start" x="264" y="-418.5" font-family="Helvetica,sans-Serif" font-size="10.00">&#45; closeSent</text>
<text text-anchor="start" x="264" y="-407.5" font-family="Helvetica,sans-Serif" font-size="10.00">&#45; opCodeReceived</text>
<text text-anchor="start" x="264" y="-396.5" font-family="Helvetica,sans-Serif" font-size="10.00">&#45; pongCloseData</text>
<polyline fill="none" stroke="black" points="256,-389.5 415,-389.5 "/>
<text text-anchor="start" x="264" y="-377.5" font-family="Helvetica,sans-Serif" font-size="10.00">+ sendMessage()</text>
<text text-anchor="start" x="264" y="-366.5" font-family="Helvetica,sans-Serif" font-size="10.00">+ sendMessageStart()</text>
<text text-anchor="start" x="264" y="-355.5" font-family="Helvetica,sans-Serif" font-size="10.00">+ sendMessageFrame()</text>
<text text-anchor="start" x="264" y="-344.5" font-family="Helvetica,sans-Serif" font-size="10.00">+ sendMessageEnd()</text>
<text text-anchor="start" x="264" y="-333.5" font-family="Helvetica,sans-Serif" font-size="10.00">+ sendPing()</text>
<text text-anchor="start" x="264" y="-322.5" font-family="Helvetica,sans-Serif" font-size="10.00">+ sendPong()</text>
<text text-anchor="start" x="264" y="-311.5" font-family="Helvetica,sans-Serif" font-size="10.00">+ sendClose()</text>
<text text-anchor="start" x="264" y="-300.5" font-family="Helvetica,sans-Serif" font-size="10.00"># SocketContextUpgrade()</text>
<text text-anchor="start" x="264" y="-289.5" font-family="Helvetica,sans-Serif" font-size="10.00"># SocketContextUpgrade()</text>
<text text-anchor="start" x="264" y="-278.5" font-family="Helvetica,sans-Serif" font-size="10.00"># SocketContextUpgrade()</text>
<text text-anchor="start" x="264" y="-267.5" font-family="Helvetica,sans-Serif" font-size="10.00"># operator=()</text>
<text text-anchor="start" x="264" y="-256.5" font-family="Helvetica,sans-Serif" font-size="10.00"># ~SocketContextUpgrade()</text>
<text text-anchor="start" x="264" y="-245.5" font-family="Helvetica,sans-Serif" font-size="10.00">&#45; sendClose()</text>
<text text-anchor="start" x="264" y="-234.5" font-family="Helvetica,sans-Serif" font-size="10.00">&#45; onMessageStart()</text>
<text text-anchor="start" x="264" y="-223.5" font-family="Helvetica,sans-Serif" font-size="10.00">&#45; onMessageData()</text>
<text text-anchor="start" x="264" y="-212.5" font-family="Helvetica,sans-Serif" font-size="10.00">&#45; onMessageEnd()</text>
<text text-anchor="start" x="264" y="-201.5" font-family="Helvetica,sans-Serif" font-size="10.00">&#45; onMessageError()</text>
<text text-anchor="start" x="264" y="-190.5" font-family="Helvetica,sans-Serif" font-size="10.00">&#45; readFrameData()</text>
<text text-anchor="start" x="264" y="-179.5" font-family="Helvetica,sans-Serif" font-size="10.00">&#45; onConnected()</text>
<text text-anchor="start" x="264" y="-168.5" font-family="Helvetica,sans-Serif" font-size="10.00">&#45; onDisconnected()</text>
<text text-anchor="start" x="264" y="-157.5" font-family="Helvetica,sans-Serif" font-size="10.00">&#45; sendFrameData()</text>
<text text-anchor="start" x="264" y="-146.5" font-family="Helvetica,sans-Serif" font-size="10.00">&#45; sendFrameData()</text>
<text text-anchor="start" x="264" y="-135.5" font-family="Helvetica,sans-Serif" font-size="10.00">and 6 more...</text>
</a>
</g>
</g>
<!-- Node5&#45;&gt;Node6 -->
<g id="edge5" class="edge">
<title>Node5&#45;&gt;Node6</title>
<path fill="none" stroke="midnightblue" d="M351.74,-947.18C345.09,-938.17 339.26,-928.3 335.5,-918 308.09,-842.89 313.23,-643.33 321.93,-493.59"/>
<polygon fill="none" stroke="midnightblue" points="349.12,-949.51 358.05,-955.21 354.63,-945.18 349.12,-949.51"/>
</g>
<!-- Node8 -->
<g id="node8" class="node">
<title>Node8</title>
<g id="a_node8"><a xlink:href="classweb_1_1websocket_1_1_socket_context_upgrade.html" target="_top" xlink:title=" ">
<polygon fill="white" stroke="black" points="439,-128.5 439,-493.5 598,-493.5 598,-128.5 439,-128.5"/>
<text text-anchor="start" x="447" y="-481.5" font-family="Helvetica,sans-Serif" font-size="10.00">web::websocket::SocketContext</text>
<text text-anchor="start" x="447" y="-470.5" font-family="Helvetica,sans-Serif" font-size="10.00">Upgrade&lt; SubProtocol, web</text>
<text text-anchor="start" x="447" y="-459.5" font-family="Helvetica,sans-Serif" font-size="10.00">::http::server::Request, web</text>
<text text-anchor="middle" x="518.5" y="-448.5" font-family="Helvetica,sans-Serif" font-size="10.00">::http::server::Response &gt;</text>
<polyline fill="none" stroke="black" points="439,-441.5 598,-441.5 "/>
<text text-anchor="start" x="447" y="-429.5" font-family="Helvetica,sans-Serif" font-size="10.00"># subProtocol</text>
<text text-anchor="start" x="447" y="-418.5" font-family="Helvetica,sans-Serif" font-size="10.00">&#45; closeSent</text>
<text text-anchor="start" x="447" y="-407.5" font-family="Helvetica,sans-Serif" font-size="10.00">&#45; opCodeReceived</text>
<text text-anchor="start" x="447" y="-396.5" font-family="Helvetica,sans-Serif" font-size="10.00">&#45; pongCloseData</text>
<polyline fill="none" stroke="black" points="439,-389.5 598,-389.5 "/>
<text text-anchor="start" x="447" y="-377.5" font-family="Helvetica,sans-Serif" font-size="10.00">+ sendMessage()</text>
<text text-anchor="start" x="447" y="-366.5" font-family="Helvetica,sans-Serif" font-size="10.00">+ sendMessageStart()</text>
<text text-anchor="start" x="447" y="-355.5" font-family="Helvetica,sans-Serif" font-size="10.00">+ sendMessageFrame()</text>
<text text-anchor="start" x="447" y="-344.5" font-family="Helvetica,sans-Serif" font-size="10.00">+ sendMessageEnd()</text>
<text text-anchor="start" x="447" y="-333.5" font-family="Helvetica,sans-Serif" font-size="10.00">+ sendPing()</text>
<text text-anchor="start" x="447" y="-322.5" font-family="Helvetica,sans-Serif" font-size="10.00">+ sendPong()</text>
<text text-anchor="start" x="447" y="-311.5" font-family="Helvetica,sans-Serif" font-size="10.00">+ sendClose()</text>
<text text-anchor="start" x="447" y="-300.5" font-family="Helvetica,sans-Serif" font-size="10.00"># SocketContextUpgrade()</text>
<text text-anchor="start" x="447" y="-289.5" font-family="Helvetica,sans-Serif" font-size="10.00"># SocketContextUpgrade()</text>
<text text-anchor="start" x="447" y="-278.5" font-family="Helvetica,sans-Serif" font-size="10.00"># SocketContextUpgrade()</text>
<text text-anchor="start" x="447" y="-267.5" font-family="Helvetica,sans-Serif" font-size="10.00"># operator=()</text>
<text text-anchor="start" x="447" y="-256.5" font-family="Helvetica,sans-Serif" font-size="10.00"># ~SocketContextUpgrade()</text>
<text text-anchor="start" x="447" y="-245.5" font-family="Helvetica,sans-Serif" font-size="10.00">&#45; sendClose()</text>
<text text-anchor="start" x="447" y="-234.5" font-family="Helvetica,sans-Serif" font-size="10.00">&#45; onMessageStart()</text>
<text text-anchor="start" x="447" y="-223.5" font-family="Helvetica,sans-Serif" font-size="10.00">&#45; onMessageData()</text>
<text text-anchor="start" x="447" y="-212.5" font-family="Helvetica,sans-Serif" font-size="10.00">&#45; onMessageEnd()</text>
<text text-anchor="start" x="447" y="-201.5" font-family="Helvetica,sans-Serif" font-size="10.00">&#45; onMessageError()</text>
<text text-anchor="start" x="447" y="-190.5" font-family="Helvetica,sans-Serif" font-size="10.00">&#45; readFrameData()</text>
<text text-anchor="start" x="447" y="-179.5" font-family="Helvetica,sans-Serif" font-size="10.00">&#45; onConnected()</text>
<text text-anchor="start" x="447" y="-168.5" font-family="Helvetica,sans-Serif" font-size="10.00">&#45; onDisconnected()</text>
<text text-anchor="start" x="447" y="-157.5" font-family="Helvetica,sans-Serif" font-size="10.00">&#45; sendFrameData()</text>
<text text-anchor="start" x="447" y="-146.5" font-family="Helvetica,sans-Serif" font-size="10.00">&#45; sendFrameData()</text>
<text text-anchor="start" x="447" y="-135.5" font-family="Helvetica,sans-Serif" font-size="10.00">and 6 more...</text>
</a>
</g>
</g>
<!-- Node5&#45;&gt;Node8 -->
<g id="edge7" class="edge">
<title>Node5&#45;&gt;Node8</title>
<path fill="none" stroke="midnightblue" d="M490.49,-949.55C502.87,-940.47 514.43,-929.96 523.5,-918 627.65,-780.69 605.72,-715.69 629.5,-545 635.76,-500.07 619.71,-454.23 598.01,-415.23"/>
<polygon fill="none" stroke="midnightblue" points="488.44,-946.72 482.25,-955.32 492.45,-952.45 488.44,-946.72"/>
</g>
<!-- Node10 -->
<g id="node10" class="node">
<title>Node10</title>
<g id="a_node10"><a xlink:href="classweb_1_1websocket_1_1_socket_context_upgrade.html" target="_top" xlink:title=" ">
<polygon fill="white" stroke="black" points="344.5,-563.5 344.5,-917.5 514.5,-917.5 514.5,-563.5 344.5,-563.5"/>
<text text-anchor="start" x="352.5" y="-905.5" font-family="Helvetica,sans-Serif" font-size="10.00">web::websocket::SocketContext</text>
<text text-anchor="start" x="352.5" y="-894.5" font-family="Helvetica,sans-Serif" font-size="10.00">Upgrade&lt; SubProtocolT, RequestT,</text>
<text text-anchor="middle" x="429.5" y="-883.5" font-family="Helvetica,sans-Serif" font-size="10.00"> ResponseT &gt;</text>
<polyline fill="none" stroke="black" points="344.5,-876.5 514.5,-876.5 "/>
<text text-anchor="start" x="352.5" y="-864.5" font-family="Helvetica,sans-Serif" font-size="10.00"># subProtocol</text>
<text text-anchor="start" x="352.5" y="-853.5" font-family="Helvetica,sans-Serif" font-size="10.00">&#45; closeSent</text>
<text text-anchor="start" x="352.5" y="-842.5" font-family="Helvetica,sans-Serif" font-size="10.00">&#45; opCodeReceived</text>
<text text-anchor="start" x="352.5" y="-831.5" font-family="Helvetica,sans-Serif" font-size="10.00">&#45; pongCloseData</text>
<polyline fill="none" stroke="black" points="344.5,-824.5 514.5,-824.5 "/>
<text text-anchor="start" x="352.5" y="-812.5" font-family="Helvetica,sans-Serif" font-size="10.00">+ sendMessage()</text>
<text text-anchor="start" x="352.5" y="-801.5" font-family="Helvetica,sans-Serif" font-size="10.00">+ sendMessageStart()</text>
<text text-anchor="start" x="352.5" y="-790.5" font-family="Helvetica,sans-Serif" font-size="10.00">+ sendMessageFrame()</text>
<text text-anchor="start" x="352.5" y="-779.5" font-family="Helvetica,sans-Serif" font-size="10.00">+ sendMessageEnd()</text>
<text text-anchor="start" x="352.5" y="-768.5" font-family="Helvetica,sans-Serif" font-size="10.00">+ sendPing()</text>
<text text-anchor="start" x="352.5" y="-757.5" font-family="Helvetica,sans-Serif" font-size="10.00">+ sendPong()</text>
<text text-anchor="start" x="352.5" y="-746.5" font-family="Helvetica,sans-Serif" font-size="10.00">+ sendClose()</text>
<text text-anchor="start" x="352.5" y="-735.5" font-family="Helvetica,sans-Serif" font-size="10.00"># SocketContextUpgrade()</text>
<text text-anchor="start" x="352.5" y="-724.5" font-family="Helvetica,sans-Serif" font-size="10.00"># SocketContextUpgrade()</text>
<text text-anchor="start" x="352.5" y="-713.5" font-family="Helvetica,sans-Serif" font-size="10.00"># SocketContextUpgrade()</text>
<text text-anchor="start" x="352.5" y="-702.5" font-family="Helvetica,sans-Serif" font-size="10.00"># operator=()</text>
<text text-anchor="start" x="352.5" y="-691.5" font-family="Helvetica,sans-Serif" font-size="10.00"># ~SocketContextUpgrade()</text>
<text text-anchor="start" x="352.5" y="-680.5" font-family="Helvetica,sans-Serif" font-size="10.00">&#45; sendClose()</text>
<text text-anchor="start" x="352.5" y="-669.5" font-family="Helvetica,sans-Serif" font-size="10.00">&#45; onMessageStart()</text>
<text text-anchor="start" x="352.5" y="-658.5" font-family="Helvetica,sans-Serif" font-size="10.00">&#45; onMessageData()</text>
<text text-anchor="start" x="352.5" y="-647.5" font-family="Helvetica,sans-Serif" font-size="10.00">&#45; onMessageEnd()</text>
<text text-anchor="start" x="352.5" y="-636.5" font-family="Helvetica,sans-Serif" font-size="10.00">&#45; onMessageError()</text>
<text text-anchor="start" x="352.5" y="-625.5" font-family="Helvetica,sans-Serif" font-size="10.00">&#45; readFrameData()</text>
<text text-anchor="start" x="352.5" y="-614.5" font-family="Helvetica,sans-Serif" font-size="10.00">&#45; onConnected()</text>
<text text-anchor="start" x="352.5" y="-603.5" font-family="Helvetica,sans-Serif" font-size="10.00">&#45; onDisconnected()</text>
<text text-anchor="start" x="352.5" y="-592.5" font-family="Helvetica,sans-Serif" font-size="10.00">&#45; sendFrameData()</text>
<text text-anchor="start" x="352.5" y="-581.5" font-family="Helvetica,sans-Serif" font-size="10.00">&#45; sendFrameData()</text>
<text text-anchor="start" x="352.5" y="-570.5" font-family="Helvetica,sans-Serif" font-size="10.00">and 6 more...</text>
</a>
</g>
</g>
<!-- Node5&#45;&gt;Node10 -->
<g id="edge9" class="edge">
<title>Node5&#45;&gt;Node10</title>
<path fill="none" stroke="midnightblue" d="M405.28,-945.37C406.29,-936.83 407.4,-927.52 408.56,-917.74"/>
<polygon fill="none" stroke="midnightblue" points="401.79,-945.03 404.09,-955.38 408.74,-945.86 401.79,-945.03"/>
</g>
<!-- Node7 -->
<g id="node7" class="node">
<title>Node7</title>
<g id="a_node7"><a xlink:href="classweb_1_1websocket_1_1client_1_1_socket_context_upgrade.html" target="_top" xlink:title=" ">
<polygon fill="white" stroke="black" points="266,-0.5 266,-90.5 405,-90.5 405,-0.5 266,-0.5"/>
<text text-anchor="start" x="274" y="-78.5" font-family="Helvetica,sans-Serif" font-size="10.00">web::websocket::client</text>
<text text-anchor="middle" x="335.5" y="-67.5" font-family="Helvetica,sans-Serif" font-size="10.00">::SocketContextUpgrade</text>
<polyline fill="none" stroke="black" points="266,-60.5 405,-60.5 "/>
<text text-anchor="middle" x="335.5" y="-48.5" font-family="Helvetica,sans-Serif" font-size="10.00"> </text>
<polyline fill="none" stroke="black" points="266,-41.5 405,-41.5 "/>
<text text-anchor="start" x="274" y="-29.5" font-family="Helvetica,sans-Serif" font-size="10.00">+ SocketContextUpgrade()</text>
<text text-anchor="start" x="274" y="-18.5" font-family="Helvetica,sans-Serif" font-size="10.00">+ create()</text>
<text text-anchor="start" x="274" y="-7.5" font-family="Helvetica,sans-Serif" font-size="10.00"># ~SocketContextUpgrade()</text>
</a>
</g>
</g>
<!-- Node6&#45;&gt;Node7 -->
<g id="edge6" class="edge">
<title>Node6&#45;&gt;Node7</title>
<path fill="none" stroke="midnightblue" d="M335.5,-118.3C335.5,-108.36 335.5,-98.99 335.5,-90.52"/>
<polygon fill="none" stroke="midnightblue" points="332,-118.43 335.5,-128.43 339,-118.43 332,-118.43"/>
</g>
<!-- Node9 -->
<g id="node9" class="node">
<title>Node9</title>
<g id="a_node9"><a xlink:href="classweb_1_1websocket_1_1server_1_1_socket_context_upgrade.html" target="_top" xlink:title=" ">
<polygon fill="white" stroke="black" points="449,-0.5 449,-90.5 588,-90.5 588,-0.5 449,-0.5"/>
<text text-anchor="start" x="457" y="-78.5" font-family="Helvetica,sans-Serif" font-size="10.00">web::websocket::server</text>
<text text-anchor="middle" x="518.5" y="-67.5" font-family="Helvetica,sans-Serif" font-size="10.00">::SocketContextUpgrade</text>
<polyline fill="none" stroke="black" points="449,-60.5 588,-60.5 "/>
<text text-anchor="middle" x="518.5" y="-48.5" font-family="Helvetica,sans-Serif" font-size="10.00"> </text>
<polyline fill="none" stroke="black" points="449,-41.5 588,-41.5 "/>
<text text-anchor="start" x="457" y="-29.5" font-family="Helvetica,sans-Serif" font-size="10.00">+ SocketContextUpgrade()</text>
<text text-anchor="start" x="457" y="-18.5" font-family="Helvetica,sans-Serif" font-size="10.00">+ create()</text>
<text text-anchor="start" x="457" y="-7.5" font-family="Helvetica,sans-Serif" font-size="10.00"># ~SocketContextUpgrade()</text>
</a>
</g>
</g>
<!-- Node8&#45;&gt;Node9 -->
<g id="edge8" class="edge">
<title>Node8&#45;&gt;Node9</title>
<path fill="none" stroke="midnightblue" d="M518.5,-118.3C518.5,-108.36 518.5,-98.99 518.5,-90.52"/>
<polygon fill="none" stroke="midnightblue" points="515,-118.43 518.5,-128.43 522,-118.43 515,-118.43"/>
</g>
<!-- Node10&#45;&gt;Node6 -->
<g id="edge10" class="edge">
<title>Node10&#45;&gt;Node6</title>
<path fill="none" stroke="orange" d="M348.58,-553.58C347.85,-550.71 347.15,-547.85 346.5,-545 342.72,-528.52 339.89,-511.22 337.78,-493.8"/>
<polygon fill="orange" stroke="orange" points="345.23,-554.61 351.19,-563.37 351.99,-552.8 345.23,-554.61"/>
<text text-anchor="start" x="346.5" y="-537" font-family="Helvetica,sans-Serif" font-size="10.00"> &lt; SubProtocol, web</text>
<text text-anchor="start" x="346.5" y="-526" font-family="Helvetica,sans-Serif" font-size="10.00">::http::client::Request,</text>
<text text-anchor="middle" x="413" y="-515" font-family="Helvetica,sans-Serif" font-size="10.00"> web::http::client::Response &gt;</text>
</g>
<!-- Node10&#45;&gt;Node8 -->
<g id="edge11" class="edge">
<title>Node10&#45;&gt;Node8</title>
<path fill="none" stroke="orange" d="M481.63,-553.61C482.27,-550.72 482.89,-547.85 483.5,-545 487.04,-528.4 490.35,-511.05 493.41,-493.65"/>
<polygon fill="orange" stroke="orange" points="478.19,-552.96 479.39,-563.48 485.01,-554.5 478.19,-552.96"/>
<text text-anchor="start" x="489.5" y="-537" font-family="Helvetica,sans-Serif" font-size="10.00"> &lt; SubProtocol, web</text>
<text text-anchor="start" x="489.5" y="-526" font-family="Helvetica,sans-Serif" font-size="10.00">::http::server::Request,</text>
<text text-anchor="middle" x="557.5" y="-515" font-family="Helvetica,sans-Serif" font-size="10.00"> web::http::server::Response &gt;</text>
</g>
</g>
</svg>
