<?xml version="1.0" encoding="UTF-8" standalone="no"?>
<!DOCTYPE svg PUBLIC "-//W3C//DTD SVG 1.1//EN"
 "http://www.w3.org/Graphics/SVG/1.1/DTD/svg11.dtd">
<!-- Generated by graphviz version 2.43.0 (0)
 -->
<!-- Title: core::SNodeC::init Pages: 1 -->
<svg width="604pt" height="116pt"
 viewBox="0.00 0.00 604.00 115.50" xmlns="http://www.w3.org/2000/svg" xmlns:xlink="http://www.w3.org/1999/xlink">
<g id="graph0" class="graph" transform="scale(1 1) rotate(0) translate(4 111.5)">
<title>core::SNodeC::init</title>
<polygon fill="white" stroke="transparent" points="-4,4 -4,-111.5 600,-111.5 600,4 -4,4"/>
<!-- Node1 -->
<g id="node1" class="node">
<title>Node1</title>
<g id="a_node1"><a xlink:title=" ">
<polygon fill="#bfbfbf" stroke="black" points="0,-50 0,-69 98,-69 98,-50 0,-50"/>
<text text-anchor="middle" x="49" y="-57" font-family="Helvetica,sans-Serif" font-size="10.00">core::SNodeC::init</text>
</a>
</g>
</g>
<!-- Node2 -->
<g id="node2" class="node">
<title>Node2</title>
<g id="a_node2"><a xlink:href="classcore_1_1_event_loop.html#a646626e7bf61e04877f71473b49e90ca" target="_top" xlink:title=" ">
<polygon fill="white" stroke="black" points="134,-50 134,-69 241,-69 241,-50 134,-50"/>
<text text-anchor="middle" x="187.5" y="-57" font-family="Helvetica,sans-Serif" font-size="10.00">core::EventLoop::init</text>
</a>
</g>
</g>
<!-- Node1&#45;&gt;Node2 -->
<g id="edge1" class="edge">
<title>Node1&#45;&gt;Node2</title>
<path fill="none" stroke="midnightblue" d="M98.12,-59.5C106.4,-59.5 115.11,-59.5 123.7,-59.5"/>
<polygon fill="midnightblue" stroke="midnightblue" points="123.7,-63 133.7,-59.5 123.7,-56 123.7,-63"/>
</g>
<!-- Node3 -->
<g id="node3" class="node">
<title>Node3</title>
<g id="a_node3"><a xlink:href="namespacecore.html#ac82d0e7a5fcc66169eb61cb7dd27b814" target="_top" xlink:title=" ">
<polygon fill="white" stroke="black" points="277,-88 277,-107 423,-107 423,-88 277,-88"/>
<text text-anchor="middle" x="350" y="-95" font-family="Helvetica,sans-Serif" font-size="10.00">core::getTickCounterAsString</text>
</a>
</g>
</g>
<!-- Node2&#45;&gt;Node3 -->
<g id="edge2" class="edge">
<title>Node2&#45;&gt;Node3</title>
<path fill="none" stroke="midnightblue" d="M229,-69.09C250.18,-74.1 276.3,-80.29 298.76,-85.61"/>
<polygon fill="midnightblue" stroke="midnightblue" points="298.25,-89.08 308.79,-87.98 299.87,-82.27 298.25,-89.08"/>
</g>
<!-- Node5 -->
<g id="node5" class="node">
<title>Node5</title>
<g id="a_node5"><a xlink:href="classlogger_1_1_logger.html#ae9110417eeb7d90905d72e0ff6fd9212" target="_top" xlink:title=" ">
<polygon fill="white" stroke="black" points="301.5,-50 301.5,-69 398.5,-69 398.5,-50 301.5,-50"/>
<text text-anchor="middle" x="350" y="-57" font-family="Helvetica,sans-Serif" font-size="10.00">logger::Logger::init</text>
</a>
</g>
</g>
<!-- Node2&#45;&gt;Node5 -->
<g id="edge4" class="edge">
<title>Node2&#45;&gt;Node5</title>
<path fill="none" stroke="midnightblue" d="M241.05,-59.5C257.18,-59.5 275.01,-59.5 291.45,-59.5"/>
<polygon fill="midnightblue" stroke="midnightblue" points="291.48,-63 301.48,-59.5 291.48,-56 291.48,-63"/>
</g>
<!-- Node7 -->
<g id="node7" class="node">
<title>Node7</title>
<g id="a_node7"><a xlink:href="classlogger_1_1_logger.html#a545211a93eadc019ebe4301426594a69" target="_top" xlink:title=" ">
<polygon fill="white" stroke="black" points="284,-0.5 284,-30.5 416,-30.5 416,-0.5 284,-0.5"/>
<text text-anchor="start" x="292" y="-18.5" font-family="Helvetica,sans-Serif" font-size="10.00">logger::Logger::setCustom</text>
<text text-anchor="middle" x="350" y="-7.5" font-family="Helvetica,sans-Serif" font-size="10.00">FormatSpec</text>
</a>
</g>
</g>
<!-- Node2&#45;&gt;Node7 -->
<g id="edge6" class="edge">
<title>Node2&#45;&gt;Node7</title>
<path fill="none" stroke="midnightblue" d="M223.33,-49.95C241.15,-45.07 263.44,-38.95 284.28,-33.24"/>
<polygon fill="midnightblue" stroke="midnightblue" points="285.33,-36.58 294.05,-30.57 283.48,-29.83 285.33,-36.58"/>
</g>
<!-- Node4 -->
<g id="node4" class="node">
<title>Node4</title>
<g id="a_node4"><a xlink:href="classcore_1_1_event_loop.html#a413d227511f68c2c9939719bd2590794" target="_top" xlink:title=" ">
<polygon fill="white" stroke="black" points="462,-88 462,-107 593,-107 593,-88 462,-88"/>
<text text-anchor="middle" x="527.5" y="-95" font-family="Helvetica,sans-Serif" font-size="10.00">core::EventLoop::instance</text>
</a>
</g>
</g>
<!-- Node3&#45;&gt;Node4 -->
<g id="edge3" class="edge">
<title>Node3&#45;&gt;Node4</title>
<path fill="none" stroke="midnightblue" d="M423.14,-97.5C432.58,-97.5 442.28,-97.5 451.76,-97.5"/>
<polygon fill="midnightblue" stroke="midnightblue" points="451.95,-101 461.95,-97.5 451.95,-94 451.95,-101"/>
</g>
<!-- Node6 -->
<g id="node6" class="node">
<title>Node6</title>
<g id="a_node6"><a xlink:href="classlogger_1_1_logger.html#a7d70e6711ec68f00c5c68946fd030ff9" target="_top" xlink:title=" ">
<polygon fill="white" stroke="black" points="459,-50 459,-69 596,-69 596,-50 459,-50"/>
<text text-anchor="middle" x="527.5" y="-57" font-family="Helvetica,sans-Serif" font-size="10.00">logger::Logger::setLogLevel</text>
</a>
</g>
</g>
<!-- Node5&#45;&gt;Node6 -->
<g id="edge5" class="edge">
<title>Node5&#45;&gt;Node6</title>
<path fill="none" stroke="midnightblue" d="M398.96,-59.5C414.25,-59.5 431.6,-59.5 448.45,-59.5"/>
<polygon fill="midnightblue" stroke="midnightblue" points="448.87,-63 458.87,-59.5 448.87,-56 448.87,-63"/>
</g>
</g>
</svg>
