<?xml version="1.0" encoding="UTF-8" standalone="no"?>
<!DOCTYPE svg PUBLIC "-//W3C//DTD SVG 1.1//EN"
 "http://www.w3.org/Graphics/SVG/1.1/DTD/svg11.dtd">
<!-- Generated by graphviz version 2.43.0 (0)
 -->
<!-- Title: core::AcceptEventReceiver::acceptTimeout Pages: 1 -->
<svg width="935pt" height="269pt"
 viewBox="0.00 0.00 935.00 269.00" xmlns="http://www.w3.org/2000/svg" xmlns:xlink="http://www.w3.org/1999/xlink">
<g id="graph0" class="graph" transform="scale(1 1) rotate(0) translate(4 265)">
<title>core::AcceptEventReceiver::acceptTimeout</title>
<polygon fill="white" stroke="transparent" points="-4,4 -4,-265 931,-265 931,4 -4,4"/>
<!-- Node1 -->
<g id="node1" class="node">
<title>Node1</title>
<g id="a_node1"><a xlink:title=" ">
<polygon fill="#bfbfbf" stroke="black" points="0,-66.5 0,-96.5 147,-96.5 147,-66.5 0,-66.5"/>
<text text-anchor="start" x="8" y="-84.5" font-family="Helvetica,sans-Serif" font-size="10.00">core::AcceptEventReceiver</text>
<text text-anchor="middle" x="73.5" y="-73.5" font-family="Helvetica,sans-Serif" font-size="10.00">::acceptTimeout</text>
</a>
</g>
</g>
<!-- Node2 -->
<g id="node2" class="node">
<title>Node2</title>
<g id="a_node2"><a xlink:href="classcore_1_1_event_receiver.html#a8b54c1084463cb39c57d99ae533b218e" target="_top" xlink:title=" ">
<polygon fill="white" stroke="black" points="183,-66.5 183,-96.5 297,-96.5 297,-66.5 183,-66.5"/>
<text text-anchor="start" x="191" y="-84.5" font-family="Helvetica,sans-Serif" font-size="10.00">core::EventReceiver</text>
<text text-anchor="middle" x="240" y="-73.5" font-family="Helvetica,sans-Serif" font-size="10.00">::disable</text>
</a>
</g>
</g>
<!-- Node1&#45;&gt;Node2 -->
<g id="edge1" class="edge">
<title>Node1&#45;&gt;Node2</title>
<path fill="none" stroke="midnightblue" d="M147.13,-81.5C155.58,-81.5 164.16,-81.5 172.51,-81.5"/>
<polygon fill="midnightblue" stroke="midnightblue" points="172.57,-85 182.57,-81.5 172.57,-78 172.57,-85"/>
</g>
<!-- Node3 -->
<g id="node3" class="node">
<title>Node3</title>
<g id="a_node3"><a xlink:href="classcore_1_1_descriptor_event_dispatcher.html#a53fb2e428ca488b82ed90521385a4ec1" target="_top" xlink:title=" ">
<polygon fill="white" stroke="black" points="333,-137.5 333,-167.5 507,-167.5 507,-137.5 333,-137.5"/>
<text text-anchor="start" x="341" y="-155.5" font-family="Helvetica,sans-Serif" font-size="10.00">core::DescriptorEventDispatcher</text>
<text text-anchor="middle" x="420" y="-144.5" font-family="Helvetica,sans-Serif" font-size="10.00">::disable</text>
</a>
</g>
</g>
<!-- Node2&#45;&gt;Node3 -->
<g id="edge2" class="edge">
<title>Node2&#45;&gt;Node3</title>
<path fill="none" stroke="midnightblue" d="M278.75,-96.56C305.89,-107.38 342.67,-122.05 371.76,-133.66"/>
<polygon fill="midnightblue" stroke="midnightblue" points="370.72,-137.01 381.31,-137.46 373.31,-130.51 370.72,-137.01"/>
</g>
<!-- Node9 -->
<g id="node9" class="node">
<title>Node9</title>
<g id="a_node9"><a xlink:href="classcore_1_1_event_receiver.html#a3c6fec4001aa28b328c23573c70ad159" target="_top" xlink:title=" ">
<polygon fill="white" stroke="black" points="783,-0.5 783,-30.5 897,-30.5 897,-0.5 783,-0.5"/>
<text text-anchor="start" x="791" y="-18.5" font-family="Helvetica,sans-Serif" font-size="10.00">core::EventReceiver</text>
<text text-anchor="middle" x="840" y="-7.5" font-family="Helvetica,sans-Serif" font-size="10.00">::isSuspended</text>
</a>
</g>
</g>
<!-- Node2&#45;&gt;Node9 -->
<g id="edge8" class="edge">
<title>Node2&#45;&gt;Node9</title>
<path fill="none" stroke="midnightblue" d="M293.25,-66.46C306.16,-63.13 320.01,-59.89 333,-57.5 488.79,-28.81 675.19,-19.7 772.47,-16.82"/>
<polygon fill="midnightblue" stroke="midnightblue" points="772.84,-20.31 782.74,-16.53 772.64,-13.32 772.84,-20.31"/>
</g>
<!-- Node10 -->
<g id="node10" class="node">
<title>Node10</title>
<g id="a_node10"><a xlink:href="classcore_1_1_event_receiver.html#ae460e190a6588ac04bcfc6b0d0777376" target="_top" xlink:title=" ">
<polygon fill="white" stroke="black" points="363,-66.5 363,-96.5 477,-96.5 477,-66.5 363,-66.5"/>
<text text-anchor="start" x="371" y="-84.5" font-family="Helvetica,sans-Serif" font-size="10.00">core::EventReceiver</text>
<text text-anchor="middle" x="420" y="-73.5" font-family="Helvetica,sans-Serif" font-size="10.00">::suspend</text>
</a>
</g>
</g>
<!-- Node2&#45;&gt;Node10 -->
<g id="edge9" class="edge">
<title>Node2&#45;&gt;Node10</title>
<path fill="none" stroke="midnightblue" d="M297.32,-81.5C314.86,-81.5 334.36,-81.5 352.52,-81.5"/>
<polygon fill="midnightblue" stroke="midnightblue" points="352.74,-85 362.74,-81.5 352.74,-78 352.74,-85"/>
</g>
<!-- Node4 -->
<g id="node4" class="node">
<title>Node4</title>
<g id="a_node4"><a xlink:href="classcore_1_1_event_receiver.html#a0eb8167b9b7598025fbe793edc09886a" target="_top" xlink:title=" ">
<polygon fill="white" stroke="black" points="573,-230.5 573,-260.5 687,-260.5 687,-230.5 573,-230.5"/>
<text text-anchor="start" x="581" y="-248.5" font-family="Helvetica,sans-Serif" font-size="10.00">core::EventReceiver</text>
<text text-anchor="middle" x="630" y="-237.5" font-family="Helvetica,sans-Serif" font-size="10.00">::disabled</text>
</a>
</g>
</g>
<!-- Node3&#45;&gt;Node4 -->
<g id="edge3" class="edge">
<title>Node3&#45;&gt;Node4</title>
<path fill="none" stroke="midnightblue" d="M443.98,-167.75C467.89,-183.06 506.82,-206.48 543,-221.5 549.35,-224.14 556.08,-226.58 562.87,-228.81"/>
<polygon fill="midnightblue" stroke="midnightblue" points="562.23,-232.28 572.82,-231.94 564.33,-225.61 562.23,-232.28"/>
</g>
<!-- Node6 -->
<g id="node6" class="node">
<title>Node6</title>
<g id="a_node6"><a xlink:href="classcore_1_1_observer.html#a942a6bb4857e6ec986d0a366b2aaea26" target="_top" xlink:title=" ">
<polygon fill="white" stroke="black" points="545.5,-181.5 545.5,-211.5 714.5,-211.5 714.5,-181.5 545.5,-181.5"/>
<text text-anchor="start" x="553.5" y="-199.5" font-family="Helvetica,sans-Serif" font-size="10.00">core::Observer::getObservation</text>
<text text-anchor="middle" x="630" y="-188.5" font-family="Helvetica,sans-Serif" font-size="10.00">Counter</text>
</a>
</g>
</g>
<!-- Node3&#45;&gt;Node6 -->
<g id="edge5" class="edge">
<title>Node3&#45;&gt;Node6</title>
<path fill="none" stroke="midnightblue" d="M492,-167.52C510.06,-171.34 529.59,-175.47 548.1,-179.39"/>
<polygon fill="midnightblue" stroke="midnightblue" points="547.46,-182.83 557.97,-181.47 548.91,-175.98 547.46,-182.83"/>
</g>
<!-- Node7 -->
<g id="node7" class="node">
<title>Node7</title>
<g id="a_node7"><a xlink:href="classcore_1_1_event_receiver.html#a945c04c8e000b708049e9422960e9739" target="_top" xlink:title=" ">
<polygon fill="white" stroke="black" points="783,-118.5 783,-148.5 897,-148.5 897,-118.5 783,-118.5"/>
<text text-anchor="start" x="791" y="-136.5" font-family="Helvetica,sans-Serif" font-size="10.00">core::EventReceiver</text>
<text text-anchor="middle" x="840" y="-125.5" font-family="Helvetica,sans-Serif" font-size="10.00">::getRegisteredFd</text>
</a>
</g>
</g>
<!-- Node3&#45;&gt;Node7 -->
<g id="edge6" class="edge">
<title>Node3&#45;&gt;Node7</title>
<path fill="none" stroke="midnightblue" d="M507.1,-148.59C585.8,-145.01 700.56,-139.79 772.44,-136.53"/>
<polygon fill="midnightblue" stroke="midnightblue" points="772.9,-140.01 782.73,-136.06 772.58,-133.02 772.9,-140.01"/>
</g>
<!-- Node8 -->
<g id="node8" class="node">
<title>Node8</title>
<g id="a_node8"><a xlink:href="classcore_1_1_event_receiver.html#a677995a821e9226e5dcbf92182884477" target="_top" xlink:title=" ">
<polygon fill="white" stroke="black" points="573,-93.5 573,-123.5 687,-123.5 687,-93.5 573,-93.5"/>
<text text-anchor="start" x="581" y="-111.5" font-family="Helvetica,sans-Serif" font-size="10.00">core::EventReceiver</text>
<text text-anchor="middle" x="630" y="-100.5" font-family="Helvetica,sans-Serif" font-size="10.00">::isEnabled</text>
</a>
</g>
</g>
<!-- Node3&#45;&gt;Node8 -->
<g id="edge7" class="edge">
<title>Node3&#45;&gt;Node8</title>
<path fill="none" stroke="midnightblue" d="M492,-137.48C514.96,-132.62 540.32,-127.26 562.91,-122.48"/>
<polygon fill="midnightblue" stroke="midnightblue" points="563.69,-125.89 572.75,-120.4 562.24,-119.05 563.69,-125.89"/>
</g>
<!-- Node5 -->
<g id="node5" class="node">
<title>Node5</title>
<g id="a_node5"><a xlink:href="classcore_1_1_observer.html#a00846551b99f8dbde144dd8b7a0a2aef" target="_top" xlink:title=" ">
<polygon fill="white" stroke="black" points="764,-236 764,-255 916,-255 916,-236 764,-236"/>
<text text-anchor="middle" x="840" y="-243" font-family="Helvetica,sans-Serif" font-size="10.00">core::Observer::unObserved</text>
</a>
</g>
</g>
<!-- Node4&#45;&gt;Node5 -->
<g id="edge4" class="edge">
<title>Node4&#45;&gt;Node5</title>
<path fill="none" stroke="midnightblue" d="M687.01,-245.5C707.47,-245.5 731.09,-245.5 753.52,-245.5"/>
<polygon fill="midnightblue" stroke="midnightblue" points="753.73,-249 763.73,-245.5 753.73,-242 753.73,-249"/>
</g>
<!-- Node10&#45;&gt;Node8 -->
<g id="edge10" class="edge">
<title>Node10&#45;&gt;Node8</title>
<path fill="none" stroke="midnightblue" d="M477.01,-88.77C503.48,-92.21 535.26,-96.33 562.91,-99.92"/>
<polygon fill="midnightblue" stroke="midnightblue" points="562.52,-103.4 572.89,-101.22 563.42,-96.46 562.52,-103.4"/>
</g>
<!-- Node11 -->
<g id="node11" class="node">
<title>Node11</title>
<g id="a_node11"><a xlink:href="classcore_1_1_descriptor_event_dispatcher.html#aaebce3510314723cb81ae2d51f1ddaf0" target="_top" xlink:title=" ">
<polygon fill="white" stroke="black" points="543,-44.5 543,-74.5 717,-74.5 717,-44.5 543,-44.5"/>
<text text-anchor="start" x="551" y="-62.5" font-family="Helvetica,sans-Serif" font-size="10.00">core::DescriptorEventDispatcher</text>
<text text-anchor="middle" x="630" y="-51.5" font-family="Helvetica,sans-Serif" font-size="10.00">::suspend</text>
</a>
</g>
</g>
<!-- Node10&#45;&gt;Node11 -->
<g id="edge11" class="edge">
<title>Node10&#45;&gt;Node11</title>
<path fill="none" stroke="midnightblue" d="M477.01,-75.58C494.23,-73.75 513.69,-71.7 532.8,-69.68"/>
<polygon fill="midnightblue" stroke="midnightblue" points="533.17,-73.16 542.74,-68.62 532.43,-66.19 533.17,-73.16"/>
</g>
<!-- Node11&#45;&gt;Node7 -->
<g id="edge12" class="edge">
<title>Node11&#45;&gt;Node7</title>
<path fill="none" stroke="midnightblue" d="M685.85,-74.56C696.25,-77.67 707.01,-81.05 717,-84.5 743.05,-93.49 771.67,-104.9 794.64,-114.45"/>
<polygon fill="midnightblue" stroke="midnightblue" points="793.54,-117.78 804.11,-118.42 796.24,-111.33 793.54,-117.78"/>
</g>
<!-- Node11&#45;&gt;Node9 -->
<g id="edge13" class="edge">
<title>Node11&#45;&gt;Node9</title>
<path fill="none" stroke="midnightblue" d="M702,-44.48C724.96,-39.62 750.32,-34.26 772.91,-29.48"/>
<polygon fill="midnightblue" stroke="midnightblue" points="773.69,-32.89 782.75,-27.4 772.24,-26.05 773.69,-32.89"/>
</g>
<!-- Node12 -->
<g id="node12" class="node">
<title>Node12</title>
<g id="a_node12"><a xlink:href="classcore_1_1_descriptor_event_dispatcher.html#adea584c2b0119033735c5013f4a0b424" target="_top" xlink:title=" ">
<polygon fill="white" stroke="black" points="753,-49.5 753,-79.5 927,-79.5 927,-49.5 753,-49.5"/>
<text text-anchor="start" x="761" y="-67.5" font-family="Helvetica,sans-Serif" font-size="10.00">core::DescriptorEventDispatcher</text>
<text text-anchor="middle" x="840" y="-56.5" font-family="Helvetica,sans-Serif" font-size="10.00">::modOff</text>
</a>
</g>
</g>
<!-- Node11&#45;&gt;Node12 -->
<g id="edge14" class="edge">
<title>Node11&#45;&gt;Node12</title>
<path fill="none" stroke="midnightblue" d="M717.1,-61.57C725.62,-61.77 734.3,-61.98 742.91,-62.19"/>
<polygon fill="midnightblue" stroke="midnightblue" points="742.88,-65.69 752.96,-62.43 743.05,-58.69 742.88,-65.69"/>
</g>
</g>
</svg>
