<?xml version="1.0" encoding="UTF-8" standalone="no"?>
<!DOCTYPE svg PUBLIC "-//W3C//DTD SVG 1.1//EN"
 "http://www.w3.org/Graphics/SVG/1.1/DTD/svg11.dtd">
<!-- Generated by graphviz version 2.43.0 (0)
 -->
<!-- Title: CLI::OptionNotFound Pages: 1 -->
<svg width="124pt" height="342pt"
 viewBox="0.00 0.00 124.00 342.00" xmlns="http://www.w3.org/2000/svg" xmlns:xlink="http://www.w3.org/1999/xlink">
<g id="graph0" class="graph" transform="scale(1 1) rotate(0) translate(4 338)">
<title>CLI::OptionNotFound</title>
<polygon fill="white" stroke="transparent" points="-4,4 -4,-338 120,-338 120,4 -4,4"/>
<!-- Node1 -->
<g id="node1" class="node">
<title>Node1</title>
<g id="a_node1"><a xlink:title="Thrown when counting a non&#45;existent option.">
<polygon fill="#bfbfbf" stroke="black" points="0,-0.5 0,-101.5 116,-101.5 116,-0.5 0,-0.5"/>
<text text-anchor="middle" x="58" y="-89.5" font-family="Helvetica,sans-Serif" font-size="10.00">CLI::OptionNotFound</text>
<polyline fill="none" stroke="black" points="0,-82.5 116,-82.5 "/>
<text text-anchor="middle" x="58" y="-70.5" font-family="Helvetica,sans-Serif" font-size="10.00"> </text>
<polyline fill="none" stroke="black" points="0,-63.5 116,-63.5 "/>
<text text-anchor="start" x="8" y="-51.5" font-family="Helvetica,sans-Serif" font-size="10.00">+ OptionNotFound()</text>
<text text-anchor="start" x="8" y="-40.5" font-family="Helvetica,sans-Serif" font-size="10.00">+ OptionNotFound()</text>
<text text-anchor="start" x="8" y="-29.5" font-family="Helvetica,sans-Serif" font-size="10.00">+ OptionNotFound()</text>
<text text-anchor="start" x="8" y="-18.5" font-family="Helvetica,sans-Serif" font-size="10.00"># OptionNotFound()</text>
<text text-anchor="start" x="8" y="-7.5" font-family="Helvetica,sans-Serif" font-size="10.00"># OptionNotFound()</text>
</a>
</g>
</g>
<!-- Node2 -->
<g id="node2" class="node">
<title>Node2</title>
<g id="a_node2"><a xlink:href="class_c_l_i_1_1_error.html" target="_top" xlink:title="All errors derive from this one.">
<polygon fill="white" stroke="black" points="5,-138.5 5,-239.5 111,-239.5 111,-138.5 5,-138.5"/>
<text text-anchor="middle" x="58" y="-227.5" font-family="Helvetica,sans-Serif" font-size="10.00">CLI::Error</text>
<polyline fill="none" stroke="black" points="5,-220.5 111,-220.5 "/>
<text text-anchor="start" x="13" y="-208.5" font-family="Helvetica,sans-Serif" font-size="10.00">&#45; actual_exit_code</text>
<text text-anchor="start" x="13" y="-197.5" font-family="Helvetica,sans-Serif" font-size="10.00">&#45; error_name</text>
<polyline fill="none" stroke="black" points="5,-190.5 111,-190.5 "/>
<text text-anchor="start" x="13" y="-178.5" font-family="Helvetica,sans-Serif" font-size="10.00">+ get_exit_code()</text>
<text text-anchor="start" x="13" y="-167.5" font-family="Helvetica,sans-Serif" font-size="10.00">+ get_name()</text>
<text text-anchor="start" x="13" y="-156.5" font-family="Helvetica,sans-Serif" font-size="10.00">+ Error()</text>
<text text-anchor="start" x="13" y="-145.5" font-family="Helvetica,sans-Serif" font-size="10.00">+ Error()</text>
</a>
</g>
</g>
<!-- Node2&#45;&gt;Node1 -->
<g id="edge1" class="edge">
<title>Node2&#45;&gt;Node1</title>
<path fill="none" stroke="midnightblue" d="M58,-128C58,-119.27 58,-110.36 58,-101.86"/>
<polygon fill="none" stroke="midnightblue" points="54.5,-128.13 58,-138.13 61.5,-128.13 54.5,-128.13"/>
</g>
<!-- Node3 -->
<g id="node3" class="node">
<title>Node3</title>
<g id="a_node3"><a xlink:title=" ">
<polygon fill="white" stroke="#bfbfbf" points="6,-276.5 6,-333.5 110,-333.5 110,-276.5 6,-276.5"/>
<text text-anchor="middle" x="58" y="-321.5" font-family="Helvetica,sans-Serif" font-size="10.00">std::runtime_error</text>
<polyline fill="none" stroke="#bfbfbf" points="6,-314.5 110,-314.5 "/>
<text text-anchor="middle" x="58" y="-302.5" font-family="Helvetica,sans-Serif" font-size="10.00"> </text>
<polyline fill="none" stroke="#bfbfbf" points="6,-295.5 110,-295.5 "/>
<text text-anchor="middle" x="58" y="-283.5" font-family="Helvetica,sans-Serif" font-size="10.00"> </text>
</a>
</g>
</g>
<!-- Node3&#45;&gt;Node2 -->
<g id="edge2" class="edge">
<title>Node3&#45;&gt;Node2</title>
<path fill="none" stroke="midnightblue" d="M58,-266.35C58,-257.8 58,-248.58 58,-239.61"/>
<polygon fill="none" stroke="midnightblue" points="54.5,-266.4 58,-276.4 61.5,-266.4 54.5,-266.4"/>
</g>
</g>
</svg>
