<?xml version="1.0" encoding="UTF-8" standalone="no"?>
<!DOCTYPE svg PUBLIC "-//W3C//DTD SVG 1.1//EN"
 "http://www.w3.org/Graphics/SVG/1.1/DTD/svg11.dtd">
<!-- Generated by graphviz version 2.43.0 (0)
 -->
<!-- Title: database::mariadb::MariaDBClient::execute_sync Pages: 1 -->
<svg width="866pt" height="176pt"
 viewBox="0.00 0.00 866.00 175.50" xmlns="http://www.w3.org/2000/svg" xmlns:xlink="http://www.w3.org/1999/xlink">
<g id="graph0" class="graph" transform="scale(1 1) rotate(0) translate(4 171.5)">
<title>database::mariadb::MariaDBClient::execute_sync</title>
<polygon fill="white" stroke="transparent" points="-4,4 -4,-171.5 862,-171.5 862,4 -4,4"/>
<!-- Node1 -->
<g id="node1" class="node">
<title>Node1</title>
<g id="a_node1"><a xlink:title=" ">
<polygon fill="#bfbfbf" stroke="black" points="0,-63 0,-93 160,-93 160,-63 0,-63"/>
<text text-anchor="start" x="8" y="-81" font-family="Helvetica,sans-Serif" font-size="10.00">database::mariadb::</text>
<text text-anchor="middle" x="80" y="-70" font-family="Helvetica,sans-Serif" font-size="10.00">MariaDBClient::execute_sync</text>
</a>
</g>
</g>
<!-- Node2 -->
<g id="node2" class="node">
<title>Node2</title>
<g id="a_node2"><a xlink:href="classdatabase_1_1mariadb_1_1_maria_d_b_connection.html#ac8e06afa0c2289cbdff61ea78eda39ea" target="_top" xlink:title=" ">
<polygon fill="white" stroke="black" points="196,-63 196,-93 382,-93 382,-63 196,-63"/>
<text text-anchor="start" x="204" y="-81" font-family="Helvetica,sans-Serif" font-size="10.00">database::mariadb::</text>
<text text-anchor="middle" x="289" y="-70" font-family="Helvetica,sans-Serif" font-size="10.00">MariaDBConnection::execute_sync</text>
</a>
</g>
</g>
<!-- Node1&#45;&gt;Node2 -->
<g id="edge1" class="edge">
<title>Node1&#45;&gt;Node2</title>
<path fill="none" stroke="midnightblue" d="M160.14,-78C168.51,-78 177.1,-78 185.69,-78"/>
<polygon fill="midnightblue" stroke="midnightblue" points="185.74,-81.5 195.74,-78 185.74,-74.5 185.74,-81.5"/>
</g>
<!-- Node3 -->
<g id="node3" class="node">
<title>Node3</title>
<g id="a_node3"><a xlink:href="classdatabase_1_1mariadb_1_1_maria_d_b_command.html#aee590f857c6484900b5fa58318216256" target="_top" xlink:title=" ">
<polygon fill="white" stroke="black" points="418,-137 418,-167 635,-167 635,-137 418,-137"/>
<text text-anchor="start" x="426" y="-155" font-family="Helvetica,sans-Serif" font-size="10.00">database::mariadb::</text>
<text text-anchor="middle" x="526.5" y="-144" font-family="Helvetica,sans-Serif" font-size="10.00">MariaDBCommand::commandCompleted</text>
</a>
</g>
</g>
<!-- Node2&#45;&gt;Node3 -->
<g id="edge2" class="edge">
<title>Node2&#45;&gt;Node3</title>
<path fill="none" stroke="midnightblue" d="M324.26,-93.04C349.76,-103.81 385.6,-118.12 418,-128 425.46,-130.27 433.27,-132.43 441.13,-134.46"/>
<polygon fill="midnightblue" stroke="midnightblue" points="440.54,-137.92 451.09,-136.94 442.24,-131.13 440.54,-137.92"/>
</g>
<!-- Node4 -->
<g id="node4" class="node">
<title>Node4</title>
<g id="a_node4"><a xlink:href="classdatabase_1_1mariadb_1_1_maria_d_b_command.html#a914d7e9a32f92290eb04261dc469412c" target="_top" xlink:title=" ">
<polygon fill="white" stroke="black" points="433,-88 433,-118 620,-118 620,-88 433,-88"/>
<text text-anchor="start" x="441" y="-106" font-family="Helvetica,sans-Serif" font-size="10.00">database::mariadb::</text>
<text text-anchor="middle" x="526.5" y="-95" font-family="Helvetica,sans-Serif" font-size="10.00">MariaDBCommand::commandError</text>
</a>
</g>
</g>
<!-- Node2&#45;&gt;Node4 -->
<g id="edge3" class="edge">
<title>Node2&#45;&gt;Node4</title>
<path fill="none" stroke="midnightblue" d="M382.06,-87.77C395.32,-89.18 409.04,-90.64 422.5,-92.07"/>
<polygon fill="midnightblue" stroke="midnightblue" points="422.41,-95.58 432.73,-93.15 423.15,-88.62 422.41,-95.58"/>
</g>
<!-- Node5 -->
<g id="node5" class="node">
<title>Node5</title>
<g id="a_node5"><a xlink:href="classdatabase_1_1mariadb_1_1_maria_d_b_command.html#a77df3ba7d782d733378b3ba88d2bc273" target="_top" xlink:title=" ">
<polygon fill="white" stroke="black" points="433,-39 433,-69 620,-69 620,-39 433,-39"/>
<text text-anchor="start" x="441" y="-57" font-family="Helvetica,sans-Serif" font-size="10.00">database::mariadb::</text>
<text text-anchor="middle" x="526.5" y="-46" font-family="Helvetica,sans-Serif" font-size="10.00">MariaDBCommand::commandStart</text>
</a>
</g>
</g>
<!-- Node2&#45;&gt;Node5 -->
<g id="edge4" class="edge">
<title>Node2&#45;&gt;Node5</title>
<path fill="none" stroke="midnightblue" d="M382.06,-68.62C395.32,-67.27 409.04,-65.87 422.5,-64.5"/>
<polygon fill="midnightblue" stroke="midnightblue" points="423.13,-67.95 432.73,-63.45 422.42,-60.99 423.13,-67.95"/>
</g>
<!-- Node7 -->
<g id="node7" class="node">
<title>Node7</title>
<g id="a_node7"><a xlink:href="classutils_1_1_timeval.html#a54b232dc1ffeea007100dcd1caad1987" target="_top" xlink:title=" ">
<polygon fill="white" stroke="black" points="453,-0.5 453,-19.5 600,-19.5 600,-0.5 453,-0.5"/>
<text text-anchor="middle" x="526.5" y="-7.5" font-family="Helvetica,sans-Serif" font-size="10.00">utils::Timeval::currentTime</text>
</a>
</g>
</g>
<!-- Node2&#45;&gt;Node7 -->
<g id="edge6" class="edge">
<title>Node2&#45;&gt;Node7</title>
<path fill="none" stroke="midnightblue" d="M323.9,-62.98C349.36,-52.21 385.32,-38.05 418,-29 428.28,-26.15 439.23,-23.64 450.07,-21.45"/>
<polygon fill="midnightblue" stroke="midnightblue" points="450.81,-24.87 459.96,-19.53 449.48,-18 450.81,-24.87"/>
</g>
<!-- Node6 -->
<g id="node6" class="node">
<title>Node6</title>
<g id="a_node6"><a xlink:href="classdatabase_1_1mariadb_1_1_maria_d_b_command.html#aaab715e6463aea0c34eb25efb72cd417" target="_top" xlink:title=" ">
<polygon fill="white" stroke="black" points="671,-39 671,-69 858,-69 858,-39 671,-39"/>
<text text-anchor="start" x="679" y="-57" font-family="Helvetica,sans-Serif" font-size="10.00">database::mariadb::</text>
<text text-anchor="middle" x="764.5" y="-46" font-family="Helvetica,sans-Serif" font-size="10.00">MariaDBCommand::commandStart</text>
</a>
</g>
</g>
<!-- Node5&#45;&gt;Node6 -->
<g id="edge5" class="edge">
<title>Node5&#45;&gt;Node6</title>
<path fill="none" stroke="midnightblue" d="M620.1,-54C633.37,-54 647.1,-54 660.55,-54"/>
<polygon fill="midnightblue" stroke="midnightblue" points="660.78,-57.5 670.78,-54 660.78,-50.5 660.78,-57.5"/>
</g>
<!-- Node8 -->
<g id="node8" class="node">
<title>Node8</title>
<g id="a_node8"><a xlink:href="namespacecore_1_1system.html#acf9e7364dbf51f07083e05caa50d3b66" target="_top" xlink:title=" ">
<polygon fill="white" stroke="black" points="688.5,-0.5 688.5,-19.5 840.5,-19.5 840.5,-0.5 688.5,-0.5"/>
<text text-anchor="middle" x="764.5" y="-7.5" font-family="Helvetica,sans-Serif" font-size="10.00">core::system::gettimeofday</text>
</a>
</g>
</g>
<!-- Node7&#45;&gt;Node8 -->
<g id="edge7" class="edge">
<title>Node7&#45;&gt;Node8</title>
<path fill="none" stroke="midnightblue" d="M600.23,-10C624.86,-10 652.59,-10 678.12,-10"/>
<polygon fill="midnightblue" stroke="midnightblue" points="678.15,-13.5 688.15,-10 678.15,-6.5 678.15,-13.5"/>
</g>
</g>
</svg>
