<?xml version="1.0" encoding="UTF-8" standalone="no"?>
<!DOCTYPE svg PUBLIC "-//W3C//DTD SVG 1.1//EN"
 "http://www.w3.org/Graphics/SVG/1.1/DTD/svg11.dtd">
<!-- Generated by graphviz version 2.43.0 (0)
 -->
<!-- Title: core::TimerEventDispatcher::stop Pages: 1 -->
<svg width="964pt" height="102pt"
 viewBox="0.00 0.00 964.00 101.50" xmlns="http://www.w3.org/2000/svg" xmlns:xlink="http://www.w3.org/1999/xlink">
<g id="graph0" class="graph" transform="scale(1 1) rotate(0) translate(4 97.5)">
<title>core::TimerEventDispatcher::stop</title>
<polygon fill="white" stroke="transparent" points="-4,4 -4,-97.5 960,-97.5 960,4 -4,4"/>
<!-- Node1 -->
<g id="node1" class="node">
<title>Node1</title>
<g id="a_node1"><a xlink:title=" ">
<polygon fill="#bfbfbf" stroke="black" points="804,-38 804,-68 956,-68 956,-38 804,-38"/>
<text text-anchor="start" x="812" y="-56" font-family="Helvetica,sans-Serif" font-size="10.00">core::TimerEventDispatcher</text>
<text text-anchor="middle" x="880" y="-45" font-family="Helvetica,sans-Serif" font-size="10.00">::stop</text>
</a>
</g>
</g>
<!-- Node2 -->
<g id="node2" class="node">
<title>Node2</title>
<g id="a_node2"><a xlink:href="classcore_1_1_event_dispatcher.html#a8516a3072393f99750d5ff3434db3b94" target="_top" xlink:title=" ">
<polygon fill="white" stroke="black" points="644,-63 644,-93 768,-93 768,-63 644,-63"/>
<text text-anchor="start" x="652" y="-81" font-family="Helvetica,sans-Serif" font-size="10.00">core::EventDispatcher</text>
<text text-anchor="middle" x="706" y="-70" font-family="Helvetica,sans-Serif" font-size="10.00">::stop</text>
</a>
</g>
</g>
<!-- Node1&#45;&gt;Node2 -->
<g id="edge1" class="edge">
<title>Node1&#45;&gt;Node2</title>
<path fill="none" stroke="midnightblue" d="M793.69,-65.4C785.06,-66.65 776.41,-67.91 768.1,-69.12"/>
<polygon fill="midnightblue" stroke="midnightblue" points="794.42,-68.83 803.81,-63.93 793.41,-61.9 794.42,-68.83"/>
</g>
<!-- Node3 -->
<g id="node3" class="node">
<title>Node3</title>
<g id="a_node3"><a xlink:href="classcore_1_1_event_dispatcher.html#a96ff3828bc62515a1a16a6c930df3d0b" target="_top" xlink:title=" ">
<polygon fill="white" stroke="black" points="644,-14 644,-44 768,-44 768,-14 644,-14"/>
<text text-anchor="start" x="652" y="-32" font-family="Helvetica,sans-Serif" font-size="10.00">core::EventDispatcher</text>
<text text-anchor="middle" x="706" y="-21" font-family="Helvetica,sans-Serif" font-size="10.00">::stopTimerEvents</text>
</a>
</g>
</g>
<!-- Node1&#45;&gt;Node3 -->
<g id="edge2" class="edge">
<title>Node1&#45;&gt;Node3</title>
<path fill="none" stroke="midnightblue" d="M793.69,-41.1C785.06,-39.89 776.41,-38.69 768.1,-37.53"/>
<polygon fill="midnightblue" stroke="midnightblue" points="793.42,-44.59 803.81,-42.51 794.39,-37.66 793.42,-44.59"/>
</g>
<!-- Node4 -->
<g id="node4" class="node">
<title>Node4</title>
<g id="a_node4"><a xlink:href="classcore_1_1_event_loop.html#a3125b6361565df4753affc73eb83984a" target="_top" xlink:title=" ">
<polygon fill="white" stroke="black" points="488,-19.5 488,-38.5 608,-38.5 608,-19.5 488,-19.5"/>
<text text-anchor="middle" x="548" y="-26.5" font-family="Helvetica,sans-Serif" font-size="10.00">core::EventLoop::free</text>
</a>
</g>
</g>
<!-- Node3&#45;&gt;Node4 -->
<g id="edge3" class="edge">
<title>Node3&#45;&gt;Node4</title>
<path fill="none" stroke="midnightblue" d="M633.55,-29C625.08,-29 616.51,-29 608.24,-29"/>
<polygon fill="midnightblue" stroke="midnightblue" points="633.79,-32.5 643.79,-29 633.79,-25.5 633.79,-32.5"/>
</g>
<!-- Node5 -->
<g id="node5" class="node">
<title>Node5</title>
<g id="a_node5"><a xlink:href="classcore_1_1_s_node_c.html#a723f1f8e484db32164adeca1fbf98e28" target="_top" xlink:title=" ">
<polygon fill="white" stroke="black" points="337,-38.5 337,-57.5 444,-57.5 444,-38.5 337,-38.5"/>
<text text-anchor="middle" x="390.5" y="-45.5" font-family="Helvetica,sans-Serif" font-size="10.00">core::SNodeC::free</text>
</a>
</g>
</g>
<!-- Node4&#45;&gt;Node5 -->
<g id="edge4" class="edge">
<title>Node4&#45;&gt;Node5</title>
<path fill="none" stroke="midnightblue" d="M477.57,-37.48C466.37,-38.85 454.93,-40.25 444.2,-41.56"/>
<polygon fill="midnightblue" stroke="midnightblue" points="478.27,-40.92 487.77,-36.24 477.42,-33.98 478.27,-40.92"/>
</g>
<!-- Node7 -->
<g id="node7" class="node">
<title>Node7</title>
<g id="a_node7"><a xlink:href="classcore_1_1_event_loop.html#aaa2c3856fed808d00542d573c2b3a737" target="_top" xlink:title=" ">
<polygon fill="white" stroke="black" points="329,-0.5 329,-19.5 452,-19.5 452,-0.5 329,-0.5"/>
<text text-anchor="middle" x="390.5" y="-7.5" font-family="Helvetica,sans-Serif" font-size="10.00">core::EventLoop::start</text>
</a>
</g>
</g>
<!-- Node4&#45;&gt;Node7 -->
<g id="edge6" class="edge">
<title>Node4&#45;&gt;Node7</title>
<path fill="none" stroke="midnightblue" d="M477.8,-20.55C469.24,-19.5 460.54,-18.44 452.11,-17.41"/>
<polygon fill="midnightblue" stroke="midnightblue" points="477.42,-24.02 487.77,-21.76 478.27,-17.08 477.42,-24.02"/>
</g>
<!-- Node6 -->
<g id="node6" class="node">
<title>Node6</title>
<g id="a_node6"><a xlink:href="classexpress_1_1_web_app.html#a07c26842d227b81ee32b9b26a94cae1b" target="_top" xlink:title=" ">
<polygon fill="white" stroke="black" points="166,-38.5 166,-57.5 293,-57.5 293,-38.5 166,-38.5"/>
<text text-anchor="middle" x="229.5" y="-45.5" font-family="Helvetica,sans-Serif" font-size="10.00">express::WebApp::free</text>
</a>
</g>
</g>
<!-- Node5&#45;&gt;Node6 -->
<g id="edge5" class="edge">
<title>Node5&#45;&gt;Node6</title>
<path fill="none" stroke="midnightblue" d="M326.96,-48C315.85,-48 304.28,-48 293.18,-48"/>
<polygon fill="midnightblue" stroke="midnightblue" points="327,-51.5 337,-48 327,-44.5 327,-51.5"/>
</g>
<!-- Node8 -->
<g id="node8" class="node">
<title>Node8</title>
<g id="a_node8"><a xlink:href="classcore_1_1_s_node_c.html#ac3d0dcb6c216ae72d9bbb77fe080e461" target="_top" xlink:title=" ">
<polygon fill="white" stroke="black" points="174.5,-0.5 174.5,-19.5 284.5,-19.5 284.5,-0.5 174.5,-0.5"/>
<text text-anchor="middle" x="229.5" y="-7.5" font-family="Helvetica,sans-Serif" font-size="10.00">core::SNodeC::start</text>
</a>
</g>
</g>
<!-- Node7&#45;&gt;Node8 -->
<g id="edge7" class="edge">
<title>Node7&#45;&gt;Node8</title>
<path fill="none" stroke="midnightblue" d="M318.92,-10C307.42,-10 295.67,-10 284.64,-10"/>
<polygon fill="midnightblue" stroke="midnightblue" points="318.94,-13.5 328.94,-10 318.94,-6.5 318.94,-13.5"/>
</g>
<!-- Node9 -->
<g id="node9" class="node">
<title>Node9</title>
<g id="a_node9"><a xlink:href="classexpress_1_1_web_app.html#a54e6910c9466c61d0b217490b7d9bb5a" target="_top" xlink:title=" ">
<polygon fill="white" stroke="black" points="0,-0.5 0,-19.5 130,-19.5 130,-0.5 0,-0.5"/>
<text text-anchor="middle" x="65" y="-7.5" font-family="Helvetica,sans-Serif" font-size="10.00">express::WebApp::start</text>
</a>
</g>
</g>
<!-- Node8&#45;&gt;Node9 -->
<g id="edge8" class="edge">
<title>Node8&#45;&gt;Node9</title>
<path fill="none" stroke="midnightblue" d="M164.21,-10C152.96,-10 141.26,-10 130.02,-10"/>
<polygon fill="midnightblue" stroke="midnightblue" points="164.39,-13.5 174.39,-10 164.39,-6.5 164.39,-13.5"/>
</g>
</g>
</svg>
