<?xml version="1.0" encoding="UTF-8" standalone="no"?>
<!DOCTYPE svg PUBLIC "-//W3C//DTD SVG 1.1//EN"
 "http://www.w3.org/Graphics/SVG/1.1/DTD/svg11.dtd">
<!-- Generated by graphviz version 2.43.0 (0)
 -->
<!-- Title: core::socket::stream::tls::SocketClient&lt; ClientSocketT, ClientConfigT, SocketContextFactoryT &gt; Pages: 1 -->
<svg width="730pt" height="1079pt"
 viewBox="0.00 0.00 730.00 1079.00" xmlns="http://www.w3.org/2000/svg" xmlns:xlink="http://www.w3.org/1999/xlink">
<g id="graph0" class="graph" transform="scale(1 1) rotate(0) translate(4 1075)">
<title>core::socket::stream::tls::SocketClient&lt; ClientSocketT, ClientConfigT, SocketContextFactoryT &gt;</title>
<polygon fill="white" stroke="transparent" points="-4,4 -4,-1075 726,-1075 726,4 -4,4"/>
<!-- Node1 -->
<g id="node1" class="node">
<title>Node1</title>
<g id="a_node1"><a xlink:title=" ">
<polygon fill="#bfbfbf" stroke="black" points="283.5,-245.5 283.5,-335.5 435.5,-335.5 435.5,-245.5 283.5,-245.5"/>
<text text-anchor="start" x="291.5" y="-323.5" font-family="Helvetica,sans-Serif" font-size="10.00">core::socket::stream</text>
<text text-anchor="start" x="291.5" y="-312.5" font-family="Helvetica,sans-Serif" font-size="10.00">::tls::SocketClient&lt;</text>
<text text-anchor="start" x="291.5" y="-301.5" font-family="Helvetica,sans-Serif" font-size="10.00"> ClientSocketT, ClientConfig</text>
<text text-anchor="middle" x="359.5" y="-290.5" font-family="Helvetica,sans-Serif" font-size="10.00">T, SocketContextFactoryT &gt;</text>
<polyline fill="none" stroke="black" points="283.5,-283.5 435.5,-283.5 "/>
<text text-anchor="middle" x="359.5" y="-271.5" font-family="Helvetica,sans-Serif" font-size="10.00"> </text>
<polyline fill="none" stroke="black" points="283.5,-264.5 435.5,-264.5 "/>
<text text-anchor="middle" x="359.5" y="-252.5" font-family="Helvetica,sans-Serif" font-size="10.00"> </text>
</a>
</g>
</g>
<!-- Node5 -->
<g id="node5" class="node">
<title>Node5</title>
<g id="a_node5"><a xlink:href="classweb_1_1http_1_1client_1_1_client.html" target="_top" xlink:title=" ">
<polygon fill="white" stroke="black" points="13.5,-112 13.5,-202 163.5,-202 163.5,-112 13.5,-112"/>
<text text-anchor="start" x="21.5" y="-190" font-family="Helvetica,sans-Serif" font-size="10.00">web::http::client::</text>
<text text-anchor="start" x="21.5" y="-179" font-family="Helvetica,sans-Serif" font-size="10.00">Client&lt; net::in::stream</text>
<text text-anchor="start" x="21.5" y="-168" font-family="Helvetica,sans-Serif" font-size="10.00">::tls::SocketClient, Request,</text>
<text text-anchor="middle" x="88.5" y="-157" font-family="Helvetica,sans-Serif" font-size="10.00"> Response &gt;</text>
<polyline fill="none" stroke="black" points="13.5,-150 163.5,-150 "/>
<text text-anchor="middle" x="88.5" y="-138" font-family="Helvetica,sans-Serif" font-size="10.00"> </text>
<polyline fill="none" stroke="black" points="13.5,-131 163.5,-131 "/>
<text text-anchor="start" x="21.5" y="-119" font-family="Helvetica,sans-Serif" font-size="10.00">+ Client()</text>
</a>
</g>
</g>
<!-- Node1&#45;&gt;Node5 -->
<g id="edge5" class="edge">
<title>Node1&#45;&gt;Node5</title>
<path fill="none" stroke="midnightblue" d="M273.81,-252.68C243.44,-239.17 209.21,-223.41 178.5,-208 173.71,-205.59 168.8,-203.07 163.88,-200.48"/>
<polygon fill="none" stroke="midnightblue" points="272.54,-255.95 283.1,-256.8 275.37,-249.55 272.54,-255.95"/>
</g>
<!-- Node7 -->
<g id="node7" class="node">
<title>Node7</title>
<g id="a_node7"><a xlink:href="classweb_1_1http_1_1client_1_1_client.html" target="_top" xlink:title=" ">
<polygon fill="white" stroke="black" points="188,-106.5 188,-207.5 351,-207.5 351,-106.5 188,-106.5"/>
<text text-anchor="start" x="196" y="-195.5" font-family="Helvetica,sans-Serif" font-size="10.00">web::http::client::</text>
<text text-anchor="start" x="196" y="-184.5" font-family="Helvetica,sans-Serif" font-size="10.00">Client&lt; net::in6::stream</text>
<text text-anchor="start" x="196" y="-173.5" font-family="Helvetica,sans-Serif" font-size="10.00">::tls::SocketClient, web</text>
<text text-anchor="start" x="196" y="-162.5" font-family="Helvetica,sans-Serif" font-size="10.00">::http::client::Request,</text>
<text text-anchor="middle" x="269.5" y="-151.5" font-family="Helvetica,sans-Serif" font-size="10.00"> web::http::client::Response &gt;</text>
<polyline fill="none" stroke="black" points="188,-144.5 351,-144.5 "/>
<text text-anchor="middle" x="269.5" y="-132.5" font-family="Helvetica,sans-Serif" font-size="10.00"> </text>
<polyline fill="none" stroke="black" points="188,-125.5 351,-125.5 "/>
<text text-anchor="start" x="196" y="-113.5" font-family="Helvetica,sans-Serif" font-size="10.00">+ Client()</text>
</a>
</g>
</g>
<!-- Node1&#45;&gt;Node7 -->
<g id="edge7" class="edge">
<title>Node1&#45;&gt;Node7</title>
<path fill="none" stroke="midnightblue" d="M323.56,-236.98C316.95,-227.33 310.07,-217.27 303.52,-207.7"/>
<polygon fill="none" stroke="midnightblue" points="320.74,-239.07 329.28,-245.35 326.52,-235.12 320.74,-239.07"/>
</g>
<!-- Node9 -->
<g id="node9" class="node">
<title>Node9</title>
<g id="a_node9"><a xlink:href="classweb_1_1http_1_1client_1_1_client.html" target="_top" xlink:title=" ">
<polygon fill="white" stroke="black" points="370,-106.5 370,-207.5 533,-207.5 533,-106.5 370,-106.5"/>
<text text-anchor="start" x="378" y="-195.5" font-family="Helvetica,sans-Serif" font-size="10.00">web::http::client::</text>
<text text-anchor="start" x="378" y="-184.5" font-family="Helvetica,sans-Serif" font-size="10.00">Client&lt; net::un::stream</text>
<text text-anchor="start" x="378" y="-173.5" font-family="Helvetica,sans-Serif" font-size="10.00">::tls::SocketClient, web</text>
<text text-anchor="start" x="378" y="-162.5" font-family="Helvetica,sans-Serif" font-size="10.00">::http::client::Request,</text>
<text text-anchor="middle" x="451.5" y="-151.5" font-family="Helvetica,sans-Serif" font-size="10.00"> web::http::client::Response &gt;</text>
<polyline fill="none" stroke="black" points="370,-144.5 533,-144.5 "/>
<text text-anchor="middle" x="451.5" y="-132.5" font-family="Helvetica,sans-Serif" font-size="10.00"> </text>
<polyline fill="none" stroke="black" points="370,-125.5 533,-125.5 "/>
<text text-anchor="start" x="378" y="-113.5" font-family="Helvetica,sans-Serif" font-size="10.00">+ Client()</text>
</a>
</g>
</g>
<!-- Node1&#45;&gt;Node9 -->
<g id="edge9" class="edge">
<title>Node1&#45;&gt;Node9</title>
<path fill="none" stroke="midnightblue" d="M396.24,-236.98C403,-227.33 410.03,-217.27 416.73,-207.7"/>
<polygon fill="none" stroke="midnightblue" points="393.26,-235.15 390.39,-245.35 398.99,-239.16 393.26,-235.15"/>
</g>
<!-- Node11 -->
<g id="node11" class="node">
<title>Node11</title>
<g id="a_node11"><a xlink:href="classweb_1_1http_1_1client_1_1_client.html" target="_top" xlink:title=" ">
<polygon fill="white" stroke="black" points="554,-106.5 554,-207.5 717,-207.5 717,-106.5 554,-106.5"/>
<text text-anchor="start" x="562" y="-195.5" font-family="Helvetica,sans-Serif" font-size="10.00">web::http::client::</text>
<text text-anchor="start" x="562" y="-184.5" font-family="Helvetica,sans-Serif" font-size="10.00">Client&lt; net::rf::stream</text>
<text text-anchor="start" x="562" y="-173.5" font-family="Helvetica,sans-Serif" font-size="10.00">::tls::SocketClient, web</text>
<text text-anchor="start" x="562" y="-162.5" font-family="Helvetica,sans-Serif" font-size="10.00">::http::client::Request,</text>
<text text-anchor="middle" x="635.5" y="-151.5" font-family="Helvetica,sans-Serif" font-size="10.00"> web::http::client::Response &gt;</text>
<polyline fill="none" stroke="black" points="554,-144.5 717,-144.5 "/>
<text text-anchor="middle" x="635.5" y="-132.5" font-family="Helvetica,sans-Serif" font-size="10.00"> </text>
<polyline fill="none" stroke="black" points="554,-125.5 717,-125.5 "/>
<text text-anchor="start" x="562" y="-113.5" font-family="Helvetica,sans-Serif" font-size="10.00">+ Client()</text>
</a>
</g>
</g>
<!-- Node1&#45;&gt;Node11 -->
<g id="edge11" class="edge">
<title>Node1&#45;&gt;Node11</title>
<path fill="none" stroke="midnightblue" d="M445.21,-252.9C476.11,-239.29 511.09,-223.41 542.5,-208 546.2,-206.18 549.97,-204.3 553.77,-202.37"/>
<polygon fill="none" stroke="midnightblue" points="443.52,-249.82 435.76,-257.05 446.33,-256.23 443.52,-249.82"/>
</g>
<!-- Node2 -->
<g id="node2" class="node">
<title>Node2</title>
<g id="a_node2"><a xlink:href="classcore_1_1socket_1_1stream_1_1_socket_client.html" target="_top" xlink:title=" ">
<polygon fill="white" stroke="black" points="261.5,-373.5 261.5,-639.5 457.5,-639.5 457.5,-373.5 261.5,-373.5"/>
<text text-anchor="start" x="269.5" y="-627.5" font-family="Helvetica,sans-Serif" font-size="10.00">core::socket::stream</text>
<text text-anchor="start" x="269.5" y="-616.5" font-family="Helvetica,sans-Serif" font-size="10.00">::SocketClient&lt; ClientSocket</text>
<text text-anchor="start" x="269.5" y="-605.5" font-family="Helvetica,sans-Serif" font-size="10.00">T, ClientConfigT, core::socket</text>
<text text-anchor="start" x="269.5" y="-594.5" font-family="Helvetica,sans-Serif" font-size="10.00">::stream::tls::SocketConnector</text>
<text text-anchor="start" x="269.5" y="-583.5" font-family="Helvetica,sans-Serif" font-size="10.00">&lt; ClientConfigT, ClientSocketT</text>
<text text-anchor="middle" x="359.5" y="-572.5" font-family="Helvetica,sans-Serif" font-size="10.00">::Socket &gt;, SocketContextFactoryT &gt;</text>
<polyline fill="none" stroke="black" points="261.5,-565.5 457.5,-565.5 "/>
<text text-anchor="start" x="269.5" y="-553.5" font-family="Helvetica,sans-Serif" font-size="10.00"># clientConfig</text>
<text text-anchor="start" x="269.5" y="-542.5" font-family="Helvetica,sans-Serif" font-size="10.00"># socketContextFactory</text>
<text text-anchor="start" x="269.5" y="-531.5" font-family="Helvetica,sans-Serif" font-size="10.00"># _onConnect</text>
<text text-anchor="start" x="269.5" y="-520.5" font-family="Helvetica,sans-Serif" font-size="10.00"># _onConnected</text>
<text text-anchor="start" x="269.5" y="-509.5" font-family="Helvetica,sans-Serif" font-size="10.00"># _onDisconnect</text>
<text text-anchor="start" x="269.5" y="-498.5" font-family="Helvetica,sans-Serif" font-size="10.00"># options</text>
<polyline fill="none" stroke="black" points="261.5,-491.5 457.5,-491.5 "/>
<text text-anchor="start" x="269.5" y="-479.5" font-family="Helvetica,sans-Serif" font-size="10.00">+ SocketClient()</text>
<text text-anchor="start" x="269.5" y="-468.5" font-family="Helvetica,sans-Serif" font-size="10.00">+ ~SocketClient()</text>
<text text-anchor="start" x="269.5" y="-457.5" font-family="Helvetica,sans-Serif" font-size="10.00">+ connect()</text>
<text text-anchor="start" x="269.5" y="-446.5" font-family="Helvetica,sans-Serif" font-size="10.00">+ connect()</text>
<text text-anchor="start" x="269.5" y="-435.5" font-family="Helvetica,sans-Serif" font-size="10.00">+ connect()</text>
<text text-anchor="start" x="269.5" y="-424.5" font-family="Helvetica,sans-Serif" font-size="10.00">+ onConnect()</text>
<text text-anchor="start" x="269.5" y="-413.5" font-family="Helvetica,sans-Serif" font-size="10.00">+ onConnected()</text>
<text text-anchor="start" x="269.5" y="-402.5" font-family="Helvetica,sans-Serif" font-size="10.00">+ onDisconnect()</text>
<text text-anchor="start" x="269.5" y="-391.5" font-family="Helvetica,sans-Serif" font-size="10.00">+ getSocketContextFactory()</text>
<text text-anchor="start" x="269.5" y="-380.5" font-family="Helvetica,sans-Serif" font-size="10.00">&#45; SocketClient()</text>
</a>
</g>
</g>
<!-- Node2&#45;&gt;Node1 -->
<g id="edge1" class="edge">
<title>Node2&#45;&gt;Node1</title>
<path fill="none" stroke="midnightblue" d="M359.5,-363.1C359.5,-353.43 359.5,-344.19 359.5,-335.76"/>
<polygon fill="none" stroke="midnightblue" points="356,-363.32 359.5,-373.32 363,-363.32 356,-363.32"/>
</g>
<!-- Node3 -->
<g id="node3" class="node">
<title>Node3</title>
<g id="a_node3"><a xlink:title=" ">
<polygon fill="white" stroke="#bfbfbf" points="314,-1013.5 314,-1070.5 397,-1070.5 397,-1013.5 314,-1013.5"/>
<text text-anchor="middle" x="355.5" y="-1058.5" font-family="Helvetica,sans-Serif" font-size="10.00">ClientSocketT</text>
<polyline fill="none" stroke="#bfbfbf" points="314,-1051.5 397,-1051.5 "/>
<text text-anchor="middle" x="355.5" y="-1039.5" font-family="Helvetica,sans-Serif" font-size="10.00"> </text>
<polyline fill="none" stroke="#bfbfbf" points="314,-1032.5 397,-1032.5 "/>
<text text-anchor="middle" x="355.5" y="-1020.5" font-family="Helvetica,sans-Serif" font-size="10.00"> </text>
</a>
</g>
</g>
<!-- Node3&#45;&gt;Node2 -->
<g id="edge2" class="edge">
<title>Node3&#45;&gt;Node2</title>
<path fill="none" stroke="midnightblue" d="M355.78,-1003.14C356.34,-928.58 357.61,-759.55 358.51,-639.66"/>
<polygon fill="none" stroke="midnightblue" points="352.28,-1003.41 355.71,-1013.44 359.28,-1003.47 352.28,-1003.41"/>
</g>
<!-- Node4 -->
<g id="node4" class="node">
<title>Node4</title>
<g id="a_node4"><a xlink:href="classcore_1_1socket_1_1stream_1_1_socket_client.html" target="_top" xlink:title=" ">
<polygon fill="white" stroke="black" points="371.5,-731.5 371.5,-975.5 553.5,-975.5 553.5,-731.5 371.5,-731.5"/>
<text text-anchor="start" x="379.5" y="-963.5" font-family="Helvetica,sans-Serif" font-size="10.00">core::socket::stream</text>
<text text-anchor="start" x="379.5" y="-952.5" font-family="Helvetica,sans-Serif" font-size="10.00">::SocketClient&lt; ClientSocket</text>
<text text-anchor="start" x="379.5" y="-941.5" font-family="Helvetica,sans-Serif" font-size="10.00">T, ClientConfigT, SocketConnector</text>
<text text-anchor="middle" x="462.5" y="-930.5" font-family="Helvetica,sans-Serif" font-size="10.00">T, SocketContextFactoryT &gt;</text>
<polyline fill="none" stroke="black" points="371.5,-923.5 553.5,-923.5 "/>
<text text-anchor="start" x="379.5" y="-911.5" font-family="Helvetica,sans-Serif" font-size="10.00"># clientConfig</text>
<text text-anchor="start" x="379.5" y="-900.5" font-family="Helvetica,sans-Serif" font-size="10.00"># socketContextFactory</text>
<text text-anchor="start" x="379.5" y="-889.5" font-family="Helvetica,sans-Serif" font-size="10.00"># _onConnect</text>
<text text-anchor="start" x="379.5" y="-878.5" font-family="Helvetica,sans-Serif" font-size="10.00"># _onConnected</text>
<text text-anchor="start" x="379.5" y="-867.5" font-family="Helvetica,sans-Serif" font-size="10.00"># _onDisconnect</text>
<text text-anchor="start" x="379.5" y="-856.5" font-family="Helvetica,sans-Serif" font-size="10.00"># options</text>
<polyline fill="none" stroke="black" points="371.5,-849.5 553.5,-849.5 "/>
<text text-anchor="start" x="379.5" y="-837.5" font-family="Helvetica,sans-Serif" font-size="10.00">+ SocketClient()</text>
<text text-anchor="start" x="379.5" y="-826.5" font-family="Helvetica,sans-Serif" font-size="10.00">+ ~SocketClient()</text>
<text text-anchor="start" x="379.5" y="-815.5" font-family="Helvetica,sans-Serif" font-size="10.00">+ connect()</text>
<text text-anchor="start" x="379.5" y="-804.5" font-family="Helvetica,sans-Serif" font-size="10.00">+ connect()</text>
<text text-anchor="start" x="379.5" y="-793.5" font-family="Helvetica,sans-Serif" font-size="10.00">+ connect()</text>
<text text-anchor="start" x="379.5" y="-782.5" font-family="Helvetica,sans-Serif" font-size="10.00">+ onConnect()</text>
<text text-anchor="start" x="379.5" y="-771.5" font-family="Helvetica,sans-Serif" font-size="10.00">+ onConnected()</text>
<text text-anchor="start" x="379.5" y="-760.5" font-family="Helvetica,sans-Serif" font-size="10.00">+ onDisconnect()</text>
<text text-anchor="start" x="379.5" y="-749.5" font-family="Helvetica,sans-Serif" font-size="10.00">+ getSocketContextFactory()</text>
<text text-anchor="start" x="379.5" y="-738.5" font-family="Helvetica,sans-Serif" font-size="10.00">&#45; SocketClient()</text>
</a>
</g>
</g>
<!-- Node3&#45;&gt;Node4 -->
<g id="edge4" class="edge">
<title>Node3&#45;&gt;Node4</title>
<path fill="none" stroke="midnightblue" d="M376.31,-1004.73C381.36,-995.92 387.05,-986.02 393.02,-975.6"/>
<polygon fill="none" stroke="midnightblue" points="373.23,-1003.07 371.29,-1013.48 379.3,-1006.55 373.23,-1003.07"/>
</g>
<!-- Node4&#45;&gt;Node2 -->
<g id="edge3" class="edge">
<title>Node4&#45;&gt;Node2</title>
<path fill="none" stroke="orange" d="M423.4,-721.53C415.38,-694.68 406.94,-666.4 398.91,-639.52"/>
<polygon fill="orange" stroke="orange" points="420.12,-722.77 426.33,-731.35 426.82,-720.77 420.12,-722.77"/>
<text text-anchor="start" x="419.5" y="-705" font-family="Helvetica,sans-Serif" font-size="10.00"> &lt; ClientSocketT, ClientConfig</text>
<text text-anchor="start" x="419.5" y="-694" font-family="Helvetica,sans-Serif" font-size="10.00">T, core::socket::stream::</text>
<text text-anchor="start" x="419.5" y="-683" font-family="Helvetica,sans-Serif" font-size="10.00">tls::SocketConnector&lt; ClientConfig</text>
<text text-anchor="start" x="419.5" y="-672" font-family="Helvetica,sans-Serif" font-size="10.00">T, ClientSocketT::Socket &gt;, SocketContext</text>
<text text-anchor="middle" x="522" y="-661" font-family="Helvetica,sans-Serif" font-size="10.00">FactoryT &gt;</text>
</g>
<!-- Node6 -->
<g id="node6" class="node">
<title>Node6</title>
<g id="a_node6"><a xlink:href="classweb_1_1http_1_1tls_1_1in_1_1_client.html" target="_top" xlink:title=" ">
<polygon fill="white" stroke="black" points="0,-0.5 0,-68.5 167,-68.5 167,-0.5 0,-0.5"/>
<text text-anchor="start" x="8" y="-56.5" font-family="Helvetica,sans-Serif" font-size="10.00">web::http::tls::in</text>
<text text-anchor="middle" x="83.5" y="-45.5" font-family="Helvetica,sans-Serif" font-size="10.00">::Client&lt; Request, Response &gt;</text>
<polyline fill="none" stroke="black" points="0,-38.5 167,-38.5 "/>
<text text-anchor="middle" x="83.5" y="-26.5" font-family="Helvetica,sans-Serif" font-size="10.00"> </text>
<polyline fill="none" stroke="black" points="0,-19.5 167,-19.5 "/>
<text text-anchor="middle" x="83.5" y="-7.5" font-family="Helvetica,sans-Serif" font-size="10.00"> </text>
</a>
</g>
</g>
<!-- Node5&#45;&gt;Node6 -->
<g id="edge6" class="edge">
<title>Node5&#45;&gt;Node6</title>
<path fill="none" stroke="midnightblue" d="M86.24,-101.63C85.78,-90.42 85.3,-78.92 84.88,-68.73"/>
<polygon fill="none" stroke="midnightblue" points="82.75,-101.97 86.67,-111.81 89.75,-101.68 82.75,-101.97"/>
</g>
<!-- Node8 -->
<g id="node8" class="node">
<title>Node8</title>
<g id="a_node8"><a xlink:href="classweb_1_1http_1_1tls_1_1in6_1_1_client.html" target="_top" xlink:title=" ">
<polygon fill="white" stroke="black" points="185,-0.5 185,-68.5 352,-68.5 352,-0.5 185,-0.5"/>
<text text-anchor="start" x="193" y="-56.5" font-family="Helvetica,sans-Serif" font-size="10.00">web::http::tls::in6</text>
<text text-anchor="middle" x="268.5" y="-45.5" font-family="Helvetica,sans-Serif" font-size="10.00">::Client&lt; Request, Response &gt;</text>
<polyline fill="none" stroke="black" points="185,-38.5 352,-38.5 "/>
<text text-anchor="middle" x="268.5" y="-26.5" font-family="Helvetica,sans-Serif" font-size="10.00"> </text>
<polyline fill="none" stroke="black" points="185,-19.5 352,-19.5 "/>
<text text-anchor="middle" x="268.5" y="-7.5" font-family="Helvetica,sans-Serif" font-size="10.00"> </text>
</a>
</g>
</g>
<!-- Node7&#45;&gt;Node8 -->
<g id="edge8" class="edge">
<title>Node7&#45;&gt;Node8</title>
<path fill="none" stroke="midnightblue" d="M269,-96.07C268.92,-86.61 268.85,-77.14 268.77,-68.59"/>
<polygon fill="none" stroke="midnightblue" points="265.5,-96.32 269.09,-106.29 272.5,-96.26 265.5,-96.32"/>
</g>
<!-- Node10 -->
<g id="node10" class="node">
<title>Node10</title>
<g id="a_node10"><a xlink:href="classweb_1_1http_1_1tls_1_1un_1_1_client.html" target="_top" xlink:title=" ">
<polygon fill="white" stroke="black" points="370,-0.5 370,-68.5 537,-68.5 537,-0.5 370,-0.5"/>
<text text-anchor="start" x="378" y="-56.5" font-family="Helvetica,sans-Serif" font-size="10.00">web::http::tls::un</text>
<text text-anchor="middle" x="453.5" y="-45.5" font-family="Helvetica,sans-Serif" font-size="10.00">::Client&lt; Request, Response &gt;</text>
<polyline fill="none" stroke="black" points="370,-38.5 537,-38.5 "/>
<text text-anchor="middle" x="453.5" y="-26.5" font-family="Helvetica,sans-Serif" font-size="10.00"> </text>
<polyline fill="none" stroke="black" points="370,-19.5 537,-19.5 "/>
<text text-anchor="middle" x="453.5" y="-7.5" font-family="Helvetica,sans-Serif" font-size="10.00"> </text>
</a>
</g>
</g>
<!-- Node9&#45;&gt;Node10 -->
<g id="edge10" class="edge">
<title>Node9&#45;&gt;Node10</title>
<path fill="none" stroke="midnightblue" d="M452.49,-96.07C452.65,-86.61 452.81,-77.14 452.95,-68.59"/>
<polygon fill="none" stroke="midnightblue" points="448.99,-96.24 452.33,-106.29 455.99,-96.35 448.99,-96.24"/>
</g>
<!-- Node12 -->
<g id="node12" class="node">
<title>Node12</title>
<g id="a_node12"><a xlink:href="classweb_1_1http_1_1tls_1_1rf_1_1_client.html" target="_top" xlink:title=" ">
<polygon fill="white" stroke="black" points="555,-0.5 555,-68.5 722,-68.5 722,-0.5 555,-0.5"/>
<text text-anchor="start" x="563" y="-56.5" font-family="Helvetica,sans-Serif" font-size="10.00">web::http::tls::rf</text>
<text text-anchor="middle" x="638.5" y="-45.5" font-family="Helvetica,sans-Serif" font-size="10.00">::Client&lt; Request, Response &gt;</text>
<polyline fill="none" stroke="black" points="555,-38.5 722,-38.5 "/>
<text text-anchor="middle" x="638.5" y="-26.5" font-family="Helvetica,sans-Serif" font-size="10.00"> </text>
<polyline fill="none" stroke="black" points="555,-19.5 722,-19.5 "/>
<text text-anchor="middle" x="638.5" y="-7.5" font-family="Helvetica,sans-Serif" font-size="10.00"> </text>
</a>
</g>
</g>
<!-- Node11&#45;&gt;Node12 -->
<g id="edge12" class="edge">
<title>Node11&#45;&gt;Node12</title>
<path fill="none" stroke="midnightblue" d="M636.99,-96.07C637.23,-86.61 637.46,-77.14 637.68,-68.59"/>
<polygon fill="none" stroke="midnightblue" points="633.49,-96.21 636.74,-106.29 640.49,-96.38 633.49,-96.21"/>
</g>
</g>
</svg>
