<?xml version="1.0" encoding="UTF-8" standalone="no"?>
<!DOCTYPE svg PUBLIC "-//W3C//DTD SVG 1.1//EN"
 "http://www.w3.org/Graphics/SVG/1.1/DTD/svg11.dtd">
<!-- Generated by graphviz version 2.43.0 (0)
 -->
<!-- Title: net::in::stream::tls::config::ConfigSocketServer Pages: 1 -->
<svg width="1125pt" height="618pt"
 viewBox="0.00 0.00 1124.50 618.00" xmlns="http://www.w3.org/2000/svg" xmlns:xlink="http://www.w3.org/1999/xlink">
<g id="graph0" class="graph" transform="scale(1 1) rotate(0) translate(4 614)">
<title>net::in::stream::tls::config::ConfigSocketServer</title>
<polygon fill="white" stroke="transparent" points="-4,4 -4,-614 1120.5,-614 1120.5,4 -4,4"/>
<!-- Node1 -->
<g id="node1" class="node">
<title>Node1</title>
<g id="a_node1"><a xlink:title=" ">
<polygon fill="#bfbfbf" stroke="black" points="417,-0.5 417,-30.5 571,-30.5 571,-0.5 417,-0.5"/>
<text text-anchor="start" x="425" y="-18.5" font-family="Helvetica,sans-Serif" font-size="10.00">net::in::stream::tls</text>
<text text-anchor="middle" x="494" y="-7.5" font-family="Helvetica,sans-Serif" font-size="10.00">::config::ConfigSocketServer</text>
</a>
</g>
</g>
<!-- Node2 -->
<g id="node2" class="node">
<title>Node2</title>
<g id="a_node2"><a xlink:href="classnet_1_1in_1_1stream_1_1config_1_1_config_socket_server.html" target="_top" xlink:title=" ">
<polygon fill="white" stroke="black" points="330,-68.5 330,-98.5 454,-98.5 454,-68.5 330,-68.5"/>
<text text-anchor="start" x="338" y="-86.5" font-family="Helvetica,sans-Serif" font-size="10.00">net::in::stream::config</text>
<text text-anchor="middle" x="392" y="-75.5" font-family="Helvetica,sans-Serif" font-size="10.00">::ConfigSocketServer</text>
</a>
</g>
</g>
<!-- Node2&#45;&gt;Node1 -->
<g id="edge1" class="edge">
<title>Node2&#45;&gt;Node1</title>
<path fill="none" stroke="midnightblue" d="M422.39,-62.84C438.39,-52.49 457.64,-40.03 472.15,-30.64"/>
<polygon fill="none" stroke="midnightblue" points="420.38,-59.97 413.88,-68.34 424.18,-65.85 420.38,-59.97"/>
</g>
<!-- Node3 -->
<g id="node3" class="node">
<title>Node3</title>
<g id="a_node3"><a xlink:href="classnet_1_1config_1_1_config_listen.html" target="_top" xlink:title=" ">
<polygon fill="white" stroke="black" points="158.5,-142 158.5,-161 293.5,-161 293.5,-142 158.5,-142"/>
<text text-anchor="middle" x="226" y="-149" font-family="Helvetica,sans-Serif" font-size="10.00">net::config::ConfigListen</text>
</a>
</g>
</g>
<!-- Node3&#45;&gt;Node2 -->
<g id="edge2" class="edge">
<title>Node3&#45;&gt;Node2</title>
<path fill="none" stroke="midnightblue" d="M257.1,-138.13C285.39,-126.89 327.11,-110.3 356.65,-98.56"/>
<polygon fill="none" stroke="midnightblue" points="255.7,-134.92 247.7,-141.87 258.29,-141.43 255.7,-134.92"/>
</g>
<!-- Node4 -->
<g id="node4" class="node">
<title>Node4</title>
<g id="a_node4"><a xlink:href="classnet_1_1config_1_1_config_base.html" target="_top" xlink:title=" ">
<polygon fill="white" stroke="black" points="82,-275 82,-294 212,-294 212,-275 82,-275"/>
<text text-anchor="middle" x="147" y="-282" font-family="Helvetica,sans-Serif" font-size="10.00">net::config::ConfigBase</text>
</a>
</g>
</g>
<!-- Node4&#45;&gt;Node3 -->
<g id="edge3" class="edge">
<title>Node4&#45;&gt;Node3</title>
<path fill="none" stroke="darkgreen" d="M131.68,-266.95C128.14,-262.15 124.86,-256.66 123,-251 113.83,-223.14 105.66,-208.66 123,-185 130.29,-175.06 157.27,-166.75 181.78,-161.03"/>
<polygon fill="none" stroke="darkgreen" points="129.03,-269.25 138.09,-274.74 134.44,-264.8 129.03,-269.25"/>
</g>
<!-- Node13 -->
<g id="node13" class="node">
<title>Node13</title>
<g id="a_node13"><a xlink:href="classnet_1_1config_1_1_config_cluster.html" target="_top" xlink:title=" ">
<polygon fill="white" stroke="black" points="0,-142 0,-161 140,-161 140,-142 0,-142"/>
<text text-anchor="middle" x="70" y="-149" font-family="Helvetica,sans-Serif" font-size="10.00">net::config::ConfigCluster</text>
</a>
</g>
</g>
<!-- Node4&#45;&gt;Node13 -->
<g id="edge18" class="edge">
<title>Node4&#45;&gt;Node13</title>
<path fill="none" stroke="darkgreen" d="M117.17,-270.16C108.94,-265.2 100.71,-258.83 95,-251 74.41,-222.78 70.71,-179.29 70.1,-161.03"/>
<polygon fill="none" stroke="darkgreen" points="115.54,-273.26 125.99,-274.99 118.9,-267.12 115.54,-273.26"/>
</g>
<!-- Node14 -->
<g id="node14" class="node">
<title>Node14</title>
<g id="a_node14"><a xlink:href="classnet_1_1config_1_1_config_connection.html" target="_top" xlink:title=" ">
<polygon fill="white" stroke="black" points="311.5,-142 311.5,-161 472.5,-161 472.5,-142 311.5,-142"/>
<text text-anchor="middle" x="392" y="-149" font-family="Helvetica,sans-Serif" font-size="10.00">net::config::ConfigConnection</text>
</a>
</g>
</g>
<!-- Node4&#45;&gt;Node14 -->
<g id="edge22" class="edge">
<title>Node4&#45;&gt;Node14</title>
<path fill="none" stroke="darkgreen" d="M173,-269.78C180.84,-264.69 188.96,-258.34 195,-251 215.24,-226.39 198.22,-205.03 223,-185 227.68,-181.22 293.31,-169.34 341.39,-161.04"/>
<polygon fill="none" stroke="darkgreen" points="171.15,-266.81 164.4,-274.97 174.77,-272.8 171.15,-266.81"/>
</g>
<!-- Node16 -->
<g id="node16" class="node">
<title>Node16</title>
<g id="a_node16"><a xlink:href="classnet_1_1config_1_1_config_tls.html" target="_top" xlink:title=" ">
<polygon fill="white" stroke="black" points="688,-142 688,-161 808,-161 808,-142 688,-142"/>
<text text-anchor="middle" x="748" y="-149" font-family="Helvetica,sans-Serif" font-size="10.00">net::config::ConfigTls</text>
</a>
</g>
</g>
<!-- Node4&#45;&gt;Node16 -->
<g id="edge27" class="edge">
<title>Node4&#45;&gt;Node16</title>
<path fill="none" stroke="darkgreen" d="M197.49,-273.12C206.93,-271.5 216.74,-270.02 226,-269 252.25,-266.11 679.26,-265.99 701,-251 727.23,-232.91 714.71,-213.48 729,-185 733.16,-176.71 738.55,-167.61 742.53,-161.16"/>
<polygon fill="none" stroke="darkgreen" points="196.65,-269.71 187.43,-274.93 197.89,-276.6 196.65,-269.71"/>
</g>
<!-- Node5 -->
<g id="node5" class="node">
<title>Node5</title>
<g id="a_node5"><a xlink:href="class_c_l_i_1_1_app.html" target="_top" xlink:title="Creates a command line program, with very few defaults.">
<polygon fill="white" stroke="black" points="287,-380.5 287,-399.5 343,-399.5 343,-380.5 287,-380.5"/>
<text text-anchor="middle" x="315" y="-387.5" font-family="Helvetica,sans-Serif" font-size="10.00">CLI::App</text>
</a>
</g>
</g>
<!-- Node5&#45;&gt;Node4 -->
<g id="edge4" class="edge">
<title>Node5&#45;&gt;Node4</title>
<path fill="none" stroke="#404040" d="M286.76,-389.06C260.01,-387.78 219.87,-382.22 192,-362 172.82,-348.09 160.45,-323.29 153.62,-305.71"/>
<polygon fill="none" stroke="#404040" points="153.55,-305.51 147.78,-301.19 149.54,-294.2 155.32,-298.51 153.55,-305.51"/>
<text text-anchor="middle" x="213" y="-337.5" font-family="Helvetica,sans-Serif" font-size="10.00"> &#45;baseSc</text>
</g>
<!-- Node5&#45;&gt;Node5 -->
<g id="edge5" class="edge">
<title>Node5&#45;&gt;Node5</title>
<path fill="none" stroke="#404040" d="M343.3,-396C353.09,-396.06 361,-394.06 361,-390 361,-387.91 358.9,-386.36 355.52,-385.36"/>
<polygon fill="none" stroke="#404040" points="355.23,-385.33 348.82,-388.64 343.3,-384 349.71,-380.69 355.23,-385.33"/>
<text text-anchor="middle" x="385.5" y="-387.5" font-family="Helvetica,sans-Serif" font-size="10.00"> #parent_</text>
</g>
<!-- Node9 -->
<g id="node9" class="node">
<title>Node9</title>
<g id="a_node9"><a xlink:href="class_c_l_i_1_1_option.html" target="_top" xlink:title=" ">
<polygon fill="white" stroke="black" points="352,-275 352,-294 422,-294 422,-275 352,-275"/>
<text text-anchor="middle" x="387" y="-282" font-family="Helvetica,sans-Serif" font-size="10.00">CLI::Option</text>
</a>
</g>
</g>
<!-- Node5&#45;&gt;Node9 -->
<g id="edge12" class="edge">
<title>Node5&#45;&gt;Node9</title>
<path fill="none" stroke="#404040" d="M311.62,-380.28C306.7,-365.97 299.41,-337.18 312,-318 318.72,-307.77 329.42,-300.74 340.66,-295.92"/>
<polygon fill="none" stroke="#404040" points="340.68,-295.91 344.95,-290.1 351.96,-291.8 347.69,-297.62 340.68,-295.91"/>
<text text-anchor="middle" x="336.5" y="-337.5" font-family="Helvetica,sans-Serif" font-size="10.00"> #parent_</text>
</g>
<!-- Node5&#45;&gt;Node13 -->
<g id="edge19" class="edge">
<title>Node5&#45;&gt;Node13</title>
<path fill="none" stroke="#404040" d="M286.91,-386.48C254.73,-383.08 200.68,-375.79 156,-362 92.91,-342.53 56.64,-355.58 21,-300 -5.98,-257.92 31.75,-199.5 54.66,-170.43"/>
<polygon fill="none" stroke="#404040" points="54.67,-170.41 55.39,-163.23 62.28,-161.13 61.57,-168.3 54.67,-170.41"/>
<text text-anchor="middle" x="47" y="-282" font-family="Helvetica,sans-Serif" font-size="10.00"> &#45;clusterSc</text>
</g>
<!-- Node5&#45;&gt;Node14 -->
<g id="edge23" class="edge">
<title>Node5&#45;&gt;Node14</title>
<path fill="none" stroke="#404040" d="M306.92,-380.22C279.99,-349.88 197.72,-247.89 248,-185 253.32,-178.35 291.96,-169.84 327.88,-163.19"/>
<polygon fill="none" stroke="#404040" points="328.09,-163.15 333.28,-158.15 339.9,-161.02 334.71,-166.02 328.09,-163.15"/>
<text text-anchor="middle" x="286" y="-282" font-family="Helvetica,sans-Serif" font-size="10.00"> &#45;connectionSc</text>
</g>
<!-- Node5&#45;&gt;Node16 -->
<g id="edge28" class="edge">
<title>Node5&#45;&gt;Node16</title>
<path fill="none" stroke="#404040" d="M343.13,-387.45C466.4,-380.39 954.76,-349.43 1000,-300 1007.83,-291.45 1007.34,-191.06 1002,-185 990.06,-171.44 890.83,-161.99 820,-156.91"/>
<polygon fill="none" stroke="#404040" points="819.99,-156.9 813.72,-160.48 808.02,-156.07 814.28,-152.5 819.99,-156.9"/>
<text text-anchor="middle" x="1020.5" y="-282" font-family="Helvetica,sans-Serif" font-size="10.00"> &#45;tlsSc</text>
</g>
<!-- Node6 -->
<g id="node6" class="node">
<title>Node6</title>
<g id="a_node6"><a xlink:href="class_c_l_i_1_1_option_defaults.html" target="_top" xlink:title=" ">
<polygon fill="white" stroke="black" points="571.5,-447.5 571.5,-466.5 682.5,-466.5 682.5,-447.5 571.5,-447.5"/>
<text text-anchor="middle" x="627" y="-454.5" font-family="Helvetica,sans-Serif" font-size="10.00">CLI::OptionDefaults</text>
</a>
</g>
</g>
<!-- Node6&#45;&gt;Node5 -->
<g id="edge6" class="edge">
<title>Node6&#45;&gt;Node5</title>
<path fill="none" stroke="#404040" d="M585.89,-447.44C525.8,-434.92 414.66,-411.76 355.13,-399.36"/>
<polygon fill="none" stroke="#404040" points="354.99,-399.33 348.3,-402.02 343.25,-396.88 349.93,-394.19 354.99,-399.33"/>
<text text-anchor="middle" x="535.5" y="-421" font-family="Helvetica,sans-Serif" font-size="10.00"> #option_defaults_</text>
</g>
<!-- Node7 -->
<g id="node7" class="node">
<title>Node7</title>
<g id="a_node7"><a xlink:href="class_c_l_i_1_1_option_base.html" target="_top" xlink:title=" ">
<polygon fill="white" stroke="black" points="762,-523.5 762,-542.5 952,-542.5 952,-523.5 762,-523.5"/>
<text text-anchor="middle" x="857" y="-530.5" font-family="Helvetica,sans-Serif" font-size="10.00">CLI::OptionBase&lt; OptionDefaults &gt;</text>
</a>
</g>
</g>
<!-- Node7&#45;&gt;Node6 -->
<g id="edge7" class="edge">
<title>Node7&#45;&gt;Node6</title>
<path fill="none" stroke="midnightblue" d="M820.49,-520.25C774.02,-505.3 694.85,-479.83 653.66,-466.58"/>
<polygon fill="none" stroke="midnightblue" points="819.57,-523.64 830.17,-523.37 821.72,-516.97 819.57,-523.64"/>
</g>
<!-- Node8 -->
<g id="node8" class="node">
<title>Node8</title>
<g id="a_node8"><a xlink:href="class_c_l_i_1_1_option_base.html" target="_top" xlink:title=" ">
<polygon fill="white" stroke="black" points="885,-590.5 885,-609.5 1027,-609.5 1027,-590.5 885,-590.5"/>
<text text-anchor="middle" x="956" y="-597.5" font-family="Helvetica,sans-Serif" font-size="10.00">CLI::OptionBase&lt; CRTP &gt;</text>
</a>
</g>
</g>
<!-- Node8&#45;&gt;Node7 -->
<g id="edge8" class="edge">
<title>Node8&#45;&gt;Node7</title>
<path fill="none" stroke="orange" d="M934.06,-584.59C914.47,-571.74 886.44,-553.33 870.14,-542.63"/>
<polygon fill="orange" stroke="orange" points="932.37,-587.67 942.65,-590.23 936.21,-581.82 932.37,-587.67"/>
<text text-anchor="middle" x="962" y="-564" font-family="Helvetica,sans-Serif" font-size="10.00"> &lt; OptionDefaults &gt;</text>
</g>
<!-- Node10 -->
<g id="node10" class="node">
<title>Node10</title>
<g id="a_node10"><a xlink:href="class_c_l_i_1_1_option_base.html" target="_top" xlink:title=" ">
<polygon fill="white" stroke="black" points="967.5,-485.5 967.5,-504.5 1116.5,-504.5 1116.5,-485.5 967.5,-485.5"/>
<text text-anchor="middle" x="1042" y="-492.5" font-family="Helvetica,sans-Serif" font-size="10.00">CLI::OptionBase&lt; Option &gt;</text>
</a>
</g>
</g>
<!-- Node8&#45;&gt;Node10 -->
<g id="edge11" class="edge">
<title>Node8&#45;&gt;Node10</title>
<path fill="none" stroke="orange" d="M995.65,-586.21C1002.79,-582.51 1009.65,-577.84 1015,-572 1032.97,-552.38 1039.14,-520.02 1041.12,-504.64"/>
<polygon fill="orange" stroke="orange" points="994.17,-583.04 986.55,-590.4 997.1,-589.4 994.17,-583.04"/>
<text text-anchor="middle" x="1051" y="-564" font-family="Helvetica,sans-Serif" font-size="10.00"> &lt; Option &gt;</text>
</g>
<!-- Node9&#45;&gt;Node3 -->
<g id="edge13" class="edge">
<title>Node9&#45;&gt;Node3</title>
<path fill="none" stroke="#404040" d="M351.9,-275C327.07,-268.47 296.42,-259.21 286,-251 259.71,-230.28 242.17,-194.61 233.16,-172.36"/>
<polygon fill="none" stroke="#404040" points="233.11,-172.23 227.24,-168.05 228.84,-161.02 234.72,-165.2 233.11,-172.23"/>
<text text-anchor="middle" x="334.5" y="-221" font-family="Helvetica,sans-Serif" font-size="10.00"> &#45;acceptsPerTickOpt</text>
<text text-anchor="middle" x="334.5" y="-210" font-family="Helvetica,sans-Serif" font-size="10.00">&#45;backlogOpt</text>
</g>
<!-- Node9&#45;&gt;Node5 -->
<g id="edge9" class="edge">
<title>Node9&#45;&gt;Node5</title>
<path fill="none" stroke="#404040" d="M386.65,-294.05C385.61,-309.31 381.47,-341.55 365,-362 361,-366.96 355.84,-371.14 350.35,-374.61"/>
<polygon fill="none" stroke="#404040" points="350.17,-374.71 346.81,-381.09 339.63,-380.44 342.99,-374.06 350.17,-374.71"/>
<text text-anchor="middle" x="419.5" y="-354" font-family="Helvetica,sans-Serif" font-size="10.00"> #config_ptr_</text>
<text text-anchor="middle" x="419.5" y="-343" font-family="Helvetica,sans-Serif" font-size="10.00">#help_all_ptr_</text>
<text text-anchor="middle" x="419.5" y="-332" font-family="Helvetica,sans-Serif" font-size="10.00">#help_ptr_</text>
<text text-anchor="middle" x="419.5" y="-321" font-family="Helvetica,sans-Serif" font-size="10.00">#version_ptr_</text>
</g>
<!-- Node11 -->
<g id="node11" class="node">
<title>Node11</title>
<g id="a_node11"><a xlink:href="classnet_1_1in_1_1config_1_1_config_address.html" target="_top" xlink:title=" ">
<polygon fill="white" stroke="black" points="491,-136.5 491,-166.5 651,-166.5 651,-136.5 491,-136.5"/>
<text text-anchor="start" x="499" y="-154.5" font-family="Helvetica,sans-Serif" font-size="10.00">net::in::config::ConfigAddress</text>
<text text-anchor="middle" x="571" y="-143.5" font-family="Helvetica,sans-Serif" font-size="10.00">&lt; ConfigAddressTypeT &gt;</text>
</a>
</g>
</g>
<!-- Node9&#45;&gt;Node11 -->
<g id="edge16" class="edge">
<title>Node9&#45;&gt;Node11</title>
<path fill="none" stroke="#404040" d="M422.11,-281.34C446.03,-278.09 476.89,-270.17 497,-251 519.49,-229.57 500.73,-209.36 520,-185 523.35,-180.76 527.42,-176.92 531.77,-173.48"/>
<polygon fill="none" stroke="#404040" points="531.78,-173.47 534.4,-166.75 541.61,-166.59 538.99,-173.31 531.78,-173.47"/>
<text text-anchor="middle" x="545" y="-221" font-family="Helvetica,sans-Serif" font-size="10.00"> #hostOpt</text>
<text text-anchor="middle" x="545" y="-210" font-family="Helvetica,sans-Serif" font-size="10.00">#portOpt</text>
</g>
<!-- Node9&#45;&gt;Node13 -->
<g id="edge20" class="edge">
<title>Node9&#45;&gt;Node13</title>
<path fill="none" stroke="#404040" d="M352.79,-274.98C343.49,-272.84 333.39,-270.68 324,-269 262.25,-257.95 241.28,-276.59 184,-251 162.19,-241.25 113.46,-195.27 87.34,-169.72"/>
<polygon fill="none" stroke="#404040" points="87.08,-169.47 80,-168.11 78.53,-161.05 85.61,-162.41 87.08,-169.47"/>
<text text-anchor="middle" x="210" y="-215.5" font-family="Helvetica,sans-Serif" font-size="10.00"> &#45;modeOpt</text>
</g>
<!-- Node9&#45;&gt;Node14 -->
<g id="edge25" class="edge">
<title>Node9&#45;&gt;Node14</title>
<path fill="none" stroke="#404040" d="M386.76,-274.79C386.36,-257.6 385.8,-218.1 388,-185 388.25,-181.17 388.65,-177.1 389.1,-173.19"/>
<polygon fill="none" stroke="#404040" points="389.13,-172.93 385.94,-166.46 390.68,-161.03 393.88,-167.49 389.13,-172.93"/>
<text text-anchor="middle" x="442.5" y="-237.5" font-family="Helvetica,sans-Serif" font-size="10.00"> &#45;readBlockSizeOpt</text>
<text text-anchor="middle" x="442.5" y="-226.5" font-family="Helvetica,sans-Serif" font-size="10.00">&#45;readTimeoutOpt</text>
<text text-anchor="middle" x="442.5" y="-215.5" font-family="Helvetica,sans-Serif" font-size="10.00">&#45;terminateTimeoutOpt</text>
<text text-anchor="middle" x="442.5" y="-204.5" font-family="Helvetica,sans-Serif" font-size="10.00">&#45;writeBlockSizeOpt</text>
<text text-anchor="middle" x="442.5" y="-193.5" font-family="Helvetica,sans-Serif" font-size="10.00">&#45;writeTimeoutOpt</text>
</g>
<!-- Node9&#45;&gt;Node16 -->
<g id="edge30" class="edge">
<title>Node9&#45;&gt;Node16</title>
<path fill="none" stroke="#404040" d="M422.19,-281.24C506.65,-275.66 714.71,-260.97 726,-251 737.41,-240.92 743.47,-199.14 746.18,-173.34"/>
<polygon fill="none" stroke="#404040" points="746.19,-173.2 742.78,-166.85 747.33,-161.25 750.74,-167.61 746.19,-173.2"/>
<text text-anchor="middle" x="798.5" y="-221" font-family="Helvetica,sans-Serif" font-size="10.00"> &#45;initTimeoutOpt</text>
<text text-anchor="middle" x="798.5" y="-210" font-family="Helvetica,sans-Serif" font-size="10.00">&#45;shutdownTimeoutOpt</text>
</g>
<!-- Node10&#45;&gt;Node9 -->
<g id="edge10" class="edge">
<title>Node10&#45;&gt;Node9</title>
<path fill="none" stroke="midnightblue" d="M1005.41,-482.35C887.12,-444.7 516.68,-326.78 413.76,-294.02"/>
<polygon fill="none" stroke="midnightblue" points="1004.51,-485.74 1015.1,-485.44 1006.63,-479.07 1004.51,-485.74"/>
</g>
<!-- Node11&#45;&gt;Node2 -->
<g id="edge14" class="edge">
<title>Node11&#45;&gt;Node2</title>
<path fill="none" stroke="midnightblue" d="M523.03,-132.81C493.87,-122.06 457.17,-108.53 430.03,-98.52"/>
<polygon fill="none" stroke="midnightblue" points="522.01,-136.17 532.6,-136.34 524.43,-129.6 522.01,-136.17"/>
</g>
<!-- Node12 -->
<g id="node12" class="node">
<title>Node12</title>
<g id="a_node12"><a xlink:title=" ">
<polygon fill="white" stroke="#bfbfbf" points="843.5,-269.5 843.5,-299.5 990.5,-299.5 990.5,-269.5 843.5,-269.5"/>
<text text-anchor="start" x="851.5" y="-287.5" font-family="Helvetica,sans-Serif" font-size="10.00">ConfigAddressTypeT</text>
<text text-anchor="middle" x="917" y="-276.5" font-family="Helvetica,sans-Serif" font-size="10.00">&lt; net::in::SocketAddress &gt;</text>
</a>
</g>
</g>
<!-- Node12&#45;&gt;Node11 -->
<g id="edge15" class="edge">
<title>Node12&#45;&gt;Node11</title>
<path fill="none" stroke="midnightblue" d="M970.41,-263.65C974.96,-260.08 978.97,-255.9 982,-251 997.42,-226.05 1002.12,-206.35 982,-185 958.87,-160.46 712.57,-170.25 679,-167 669.96,-166.13 660.52,-165.07 651.13,-163.93"/>
<polygon fill="none" stroke="midnightblue" points="968.12,-260.97 961.74,-269.43 972,-266.8 968.12,-260.97"/>
</g>
<!-- Node13&#45;&gt;Node2 -->
<g id="edge17" class="edge">
<title>Node13&#45;&gt;Node2</title>
<path fill="none" stroke="midnightblue" d="M121.59,-139.93C178.28,-128.31 269.32,-109.65 329.88,-97.23"/>
<polygon fill="none" stroke="midnightblue" points="120.86,-136.5 111.77,-141.94 122.26,-143.36 120.86,-136.5"/>
</g>
<!-- Node14&#45;&gt;Node2 -->
<g id="edge21" class="edge">
<title>Node14&#45;&gt;Node2</title>
<path fill="none" stroke="midnightblue" d="M392,-131.67C392,-121.18 392,-108.32 392,-98.68"/>
<polygon fill="none" stroke="midnightblue" points="388.5,-131.87 392,-141.87 395.5,-131.87 388.5,-131.87"/>
</g>
<!-- Node15 -->
<g id="node15" class="node">
<title>Node15</title>
<g id="a_node15"><a xlink:href="classutils_1_1_timeval.html" target="_top" xlink:title=" ">
<polygon fill="white" stroke="black" points="646.5,-275 646.5,-294 729.5,-294 729.5,-275 646.5,-275"/>
<text text-anchor="middle" x="688" y="-282" font-family="Helvetica,sans-Serif" font-size="10.00">utils::Timeval</text>
</a>
</g>
</g>
<!-- Node15&#45;&gt;Node14 -->
<g id="edge24" class="edge">
<title>Node15&#45;&gt;Node14</title>
<path fill="none" stroke="#404040" d="M661.59,-274.91C647.66,-269.51 630.83,-261.55 618,-251 589.99,-227.96 600.71,-204.31 570,-185 565.02,-181.87 505.03,-171.29 456.05,-163.05"/>
<polygon fill="none" stroke="#404040" points="456.03,-163.04 449.45,-166 444.19,-161.06 450.77,-158.11 456.03,-163.04"/>
<text text-anchor="middle" x="672" y="-243" font-family="Helvetica,sans-Serif" font-size="10.00"> &#45;readTimeout</text>
<text text-anchor="middle" x="672" y="-232" font-family="Helvetica,sans-Serif" font-size="10.00">&#45;readTimeoutSet</text>
<text text-anchor="middle" x="672" y="-221" font-family="Helvetica,sans-Serif" font-size="10.00">&#45;terminateTimeout</text>
<text text-anchor="middle" x="672" y="-210" font-family="Helvetica,sans-Serif" font-size="10.00">&#45;terminateTimeoutSet</text>
<text text-anchor="middle" x="672" y="-199" font-family="Helvetica,sans-Serif" font-size="10.00">&#45;writeTimeout</text>
<text text-anchor="middle" x="672" y="-188" font-family="Helvetica,sans-Serif" font-size="10.00">&#45;writeTimeoutSet</text>
</g>
<!-- Node15&#45;&gt;Node16 -->
<g id="edge29" class="edge">
<title>Node15&#45;&gt;Node16</title>
<path fill="none" stroke="#404040" d="M729.56,-281.46C774.54,-278.27 842.01,-270.34 858,-251 876.69,-228.39 875.56,-208.5 858,-185 848.69,-172.54 834.82,-164.66 820.04,-159.72"/>
<polygon fill="none" stroke="#404040" points="819.61,-159.6 812.75,-161.83 808.06,-156.36 814.91,-154.13 819.61,-159.6"/>
<text text-anchor="middle" x="924.5" y="-232" font-family="Helvetica,sans-Serif" font-size="10.00"> &#45;initTimeout</text>
<text text-anchor="middle" x="924.5" y="-221" font-family="Helvetica,sans-Serif" font-size="10.00">&#45;initTimeoutSet</text>
<text text-anchor="middle" x="924.5" y="-210" font-family="Helvetica,sans-Serif" font-size="10.00">&#45;shutdownTimeout</text>
<text text-anchor="middle" x="924.5" y="-199" font-family="Helvetica,sans-Serif" font-size="10.00">&#45;shutdownTimeoutSet</text>
</g>
<!-- Node16&#45;&gt;Node1 -->
<g id="edge26" class="edge">
<title>Node16&#45;&gt;Node1</title>
<path fill="none" stroke="midnightblue" d="M722.6,-137.1C674.38,-111.66 570.05,-56.62 520.79,-30.63"/>
<polygon fill="none" stroke="midnightblue" points="721.25,-140.34 731.72,-141.91 724.51,-134.15 721.25,-140.34"/>
</g>
</g>
</svg>
