<?xml version="1.0" encoding="UTF-8" standalone="no"?>
<!DOCTYPE svg PUBLIC "-//W3C//DTD SVG 1.1//EN"
 "http://www.w3.org/Graphics/SVG/1.1/DTD/svg11.dtd">
<!-- Generated by graphviz version 2.43.0 (0)
 -->
<!-- Title: net::un::stream::Socket Pages: 1 -->
<svg width="267pt" height="277pt"
 viewBox="0.00 0.00 266.50 277.00" xmlns="http://www.w3.org/2000/svg" xmlns:xlink="http://www.w3.org/1999/xlink">
<g id="graph0" class="graph" transform="scale(1 1) rotate(0) translate(4 273)">
<title>net::un::stream::Socket</title>
<polygon fill="white" stroke="transparent" points="-4,4 -4,-273 262.5,-273 262.5,4 -4,4"/>
<!-- Node1 -->
<g id="node1" class="node">
<title>Node1</title>
<g id="a_node1"><a xlink:title=" ">
<polygon fill="#bfbfbf" stroke="black" points="0,-0.5 0,-19.5 129,-19.5 129,-0.5 0,-0.5"/>
<text text-anchor="middle" x="64.5" y="-7.5" font-family="Helvetica,sans-Serif" font-size="10.00">net::un::stream::Socket</text>
</a>
</g>
</g>
<!-- Node2 -->
<g id="node2" class="node">
<title>Node2</title>
<g id="a_node2"><a xlink:href="classnet_1_1un_1_1_socket.html" target="_top" xlink:title=" ">
<polygon fill="white" stroke="black" points="20,-57.5 20,-76.5 109,-76.5 109,-57.5 20,-57.5"/>
<text text-anchor="middle" x="64.5" y="-64.5" font-family="Helvetica,sans-Serif" font-size="10.00">net::un::Socket</text>
</a>
</g>
</g>
<!-- Node2&#45;&gt;Node1 -->
<g id="edge1" class="edge">
<title>Node2&#45;&gt;Node1</title>
<path fill="none" stroke="midnightblue" d="M64.5,-47.12C64.5,-37.82 64.5,-27.06 64.5,-19.71"/>
<polygon fill="none" stroke="midnightblue" points="61,-47.41 64.5,-57.41 68,-47.41 61,-47.41"/>
</g>
<!-- Node3 -->
<g id="node3" class="node">
<title>Node3</title>
<g id="a_node3"><a xlink:href="classnet_1_1_socket.html" target="_top" xlink:title=" ">
<polygon fill="white" stroke="black" points="6.5,-114.5 6.5,-144.5 122.5,-144.5 122.5,-114.5 6.5,-114.5"/>
<text text-anchor="start" x="14.5" y="-132.5" font-family="Helvetica,sans-Serif" font-size="10.00">net::Socket&lt; net::un</text>
<text text-anchor="middle" x="64.5" y="-121.5" font-family="Helvetica,sans-Serif" font-size="10.00">::SocketAddress &gt;</text>
</a>
</g>
</g>
<!-- Node3&#45;&gt;Node2 -->
<g id="edge2" class="edge">
<title>Node3&#45;&gt;Node2</title>
<path fill="none" stroke="midnightblue" d="M64.5,-104.35C64.5,-94.51 64.5,-83.78 64.5,-76.54"/>
<polygon fill="none" stroke="midnightblue" points="61,-104.47 64.5,-114.47 68,-104.47 61,-104.47"/>
</g>
<!-- Node4 -->
<g id="node4" class="node">
<title>Node4</title>
<g id="a_node4"><a xlink:href="classcore_1_1_descriptor.html" target="_top" xlink:title=" ">
<polygon fill="white" stroke="black" points="13.5,-249.5 13.5,-268.5 107.5,-268.5 107.5,-249.5 13.5,-249.5"/>
<text text-anchor="middle" x="60.5" y="-256.5" font-family="Helvetica,sans-Serif" font-size="10.00">core::Descriptor</text>
</a>
</g>
</g>
<!-- Node4&#45;&gt;Node3 -->
<g id="edge3" class="edge">
<title>Node4&#45;&gt;Node3</title>
<path fill="none" stroke="midnightblue" d="M61.1,-238.9C61.91,-213.05 63.34,-167.54 64.06,-144.59"/>
<polygon fill="none" stroke="midnightblue" points="57.59,-239.13 60.77,-249.24 64.59,-239.35 57.59,-239.13"/>
</g>
<!-- Node5 -->
<g id="node5" class="node">
<title>Node5</title>
<g id="a_node5"><a xlink:href="classnet_1_1_socket.html" target="_top" xlink:title=" ">
<polygon fill="white" stroke="black" points="76.5,-192.5 76.5,-211.5 246.5,-211.5 246.5,-192.5 76.5,-192.5"/>
<text text-anchor="middle" x="161.5" y="-199.5" font-family="Helvetica,sans-Serif" font-size="10.00">net::Socket&lt; SocketAddressT &gt;</text>
</a>
</g>
</g>
<!-- Node4&#45;&gt;Node5 -->
<g id="edge5" class="edge">
<title>Node4&#45;&gt;Node5</title>
<path fill="none" stroke="midnightblue" d="M85.23,-244.54C104.14,-234.24 129.64,-220.35 145.83,-211.53"/>
<polygon fill="none" stroke="midnightblue" points="83.39,-241.55 76.28,-249.41 86.74,-247.7 83.39,-241.55"/>
</g>
<!-- Node5&#45;&gt;Node3 -->
<g id="edge4" class="edge">
<title>Node5&#45;&gt;Node3</title>
<path fill="none" stroke="orange" d="M141.5,-186.47C124.61,-174.19 100.58,-156.72 83.87,-144.58"/>
<polygon fill="orange" stroke="orange" points="139.46,-189.31 149.61,-192.36 143.57,-183.64 139.46,-189.31"/>
<text text-anchor="middle" x="190" y="-166" font-family="Helvetica,sans-Serif" font-size="10.00"> &lt; net::un::SocketAddress &gt;</text>
</g>
</g>
</svg>
