<?xml version="1.0" encoding="UTF-8" standalone="no"?>
<!DOCTYPE svg PUBLIC "-//W3C//DTD SVG 1.1//EN"
 "http://www.w3.org/Graphics/SVG/1.1/DTD/svg11.dtd">
<!-- Generated by graphviz version 2.43.0 (0)
 -->
<!-- Title: CLI::ConversionError Pages: 1 -->
<svg width="124pt" height="196pt"
 viewBox="0.00 0.00 124.00 196.00" xmlns="http://www.w3.org/2000/svg" xmlns:xlink="http://www.w3.org/1999/xlink">
<g id="graph0" class="graph" transform="scale(1 1) rotate(0) translate(4 192)">
<title>CLI::ConversionError</title>
<polygon fill="white" stroke="transparent" points="-4,4 -4,-192 120,-192 120,4 -4,4"/>
<!-- Node1 -->
<g id="node1" class="node">
<title>Node1</title>
<g id="a_node1"><a xlink:title="Thrown when conversion call back fails, such as when an int fails to coerce to a string.">
<polygon fill="#bfbfbf" stroke="black" points="0,-0.5 0,-19.5 116,-19.5 116,-0.5 0,-0.5"/>
<text text-anchor="middle" x="58" y="-7.5" font-family="Helvetica,sans-Serif" font-size="10.00">CLI::ConversionError</text>
</a>
</g>
</g>
<!-- Node2 -->
<g id="node2" class="node">
<title>Node2</title>
<g id="a_node2"><a xlink:href="class_c_l_i_1_1_parse_error.html" target="_top" xlink:title="Anything that can error in Parse.">
<polygon fill="white" stroke="black" points="14,-56.5 14,-75.5 102,-75.5 102,-56.5 14,-56.5"/>
<text text-anchor="middle" x="58" y="-63.5" font-family="Helvetica,sans-Serif" font-size="10.00">CLI::ParseError</text>
</a>
</g>
</g>
<!-- Node2&#45;&gt;Node1 -->
<g id="edge1" class="edge">
<title>Node2&#45;&gt;Node1</title>
<path fill="none" stroke="midnightblue" d="M58,-45.8C58,-36.91 58,-26.78 58,-19.75"/>
<polygon fill="none" stroke="midnightblue" points="54.5,-46.08 58,-56.08 61.5,-46.08 54.5,-46.08"/>
</g>
<!-- Node3 -->
<g id="node3" class="node">
<title>Node3</title>
<g id="a_node3"><a xlink:href="class_c_l_i_1_1_error.html" target="_top" xlink:title="All errors derive from this one.">
<polygon fill="white" stroke="black" points="27.5,-112.5 27.5,-131.5 88.5,-131.5 88.5,-112.5 27.5,-112.5"/>
<text text-anchor="middle" x="58" y="-119.5" font-family="Helvetica,sans-Serif" font-size="10.00">CLI::Error</text>
</a>
</g>
</g>
<!-- Node3&#45;&gt;Node2 -->
<g id="edge2" class="edge">
<title>Node3&#45;&gt;Node2</title>
<path fill="none" stroke="midnightblue" d="M58,-101.8C58,-92.91 58,-82.78 58,-75.75"/>
<polygon fill="none" stroke="midnightblue" points="54.5,-102.08 58,-112.08 61.5,-102.08 54.5,-102.08"/>
</g>
<!-- Node4 -->
<g id="node4" class="node">
<title>Node4</title>
<g id="a_node4"><a xlink:title=" ">
<polygon fill="white" stroke="#bfbfbf" points="6,-168.5 6,-187.5 110,-187.5 110,-168.5 6,-168.5"/>
<text text-anchor="middle" x="58" y="-175.5" font-family="Helvetica,sans-Serif" font-size="10.00">std::runtime_error</text>
</a>
</g>
</g>
<!-- Node4&#45;&gt;Node3 -->
<g id="edge3" class="edge">
<title>Node4&#45;&gt;Node3</title>
<path fill="none" stroke="midnightblue" d="M58,-157.8C58,-148.91 58,-138.78 58,-131.75"/>
<polygon fill="none" stroke="midnightblue" points="54.5,-158.08 58,-168.08 61.5,-158.08 54.5,-158.08"/>
</g>
</g>
</svg>
