<?xml version="1.0" encoding="UTF-8" standalone="no"?>
<!DOCTYPE svg PUBLIC "-//W3C//DTD SVG 1.1//EN"
 "http://www.w3.org/Graphics/SVG/1.1/DTD/svg11.dtd">
<!-- Generated by graphviz version 2.43.0 (0)
 -->
<!-- Title: net::in::stream::ServerSocket Pages: 1 -->
<svg width="163pt" height="321pt"
 viewBox="0.00 0.00 162.50 321.00" xmlns="http://www.w3.org/2000/svg" xmlns:xlink="http://www.w3.org/1999/xlink">
<g id="graph0" class="graph" transform="scale(1 1) rotate(0) translate(4 317)">
<title>net::in::stream::ServerSocket</title>
<polygon fill="white" stroke="transparent" points="-4,4 -4,-317 158.5,-317 158.5,4 -4,4"/>
<!-- Node1 -->
<g id="node1" class="node">
<title>Node1</title>
<g id="a_node1"><a xlink:title=" ">
<polygon fill="#bfbfbf" stroke="black" points="0,-0.5 0,-79.5 145,-79.5 145,-0.5 0,-0.5"/>
<text text-anchor="middle" x="72.5" y="-67.5" font-family="Helvetica,sans-Serif" font-size="10.00">net::in::stream::ServerSocket</text>
<polyline fill="none" stroke="black" points="0,-60.5 145,-60.5 "/>
<text text-anchor="middle" x="72.5" y="-48.5" font-family="Helvetica,sans-Serif" font-size="10.00"> </text>
<polyline fill="none" stroke="black" points="0,-41.5 145,-41.5 "/>
<text text-anchor="start" x="8" y="-29.5" font-family="Helvetica,sans-Serif" font-size="10.00">+ listen()</text>
<text text-anchor="start" x="8" y="-18.5" font-family="Helvetica,sans-Serif" font-size="10.00">+ listen()</text>
<text text-anchor="start" x="8" y="-7.5" font-family="Helvetica,sans-Serif" font-size="10.00">+ listen()</text>
</a>
</g>
</g>
<!-- Node2 -->
<g id="node2" class="node">
<title>Node2</title>
<g id="a_node2"><a xlink:href="classcore_1_1socket_1_1_server_socket.html" target="_top" xlink:title=" ">
<polygon fill="white" stroke="black" points="4.5,-117.5 4.5,-185.5 140.5,-185.5 140.5,-117.5 4.5,-117.5"/>
<text text-anchor="start" x="12.5" y="-173.5" font-family="Helvetica,sans-Serif" font-size="10.00">core::socket::ServerSocket</text>
<text text-anchor="middle" x="72.5" y="-162.5" font-family="Helvetica,sans-Serif" font-size="10.00">&lt; net::in::stream::Socket &gt;</text>
<polyline fill="none" stroke="black" points="4.5,-155.5 140.5,-155.5 "/>
<text text-anchor="middle" x="72.5" y="-143.5" font-family="Helvetica,sans-Serif" font-size="10.00"> </text>
<polyline fill="none" stroke="black" points="4.5,-136.5 140.5,-136.5 "/>
<text text-anchor="start" x="12.5" y="-124.5" font-family="Helvetica,sans-Serif" font-size="10.00">+ listen()</text>
</a>
</g>
</g>
<!-- Node2&#45;&gt;Node1 -->
<g id="edge1" class="edge">
<title>Node2&#45;&gt;Node1</title>
<path fill="none" stroke="midnightblue" d="M72.5,-107.34C72.5,-98.25 72.5,-88.72 72.5,-79.81"/>
<polygon fill="none" stroke="midnightblue" points="69,-107.35 72.5,-117.35 76,-107.35 69,-107.35"/>
</g>
<!-- Node3 -->
<g id="node3" class="node">
<title>Node3</title>
<g id="a_node3"><a xlink:href="classcore_1_1socket_1_1_server_socket.html" target="_top" xlink:title=" ">
<polygon fill="white" stroke="black" points="4.5,-244.5 4.5,-312.5 140.5,-312.5 140.5,-244.5 4.5,-244.5"/>
<text text-anchor="start" x="12.5" y="-300.5" font-family="Helvetica,sans-Serif" font-size="10.00">core::socket::ServerSocket</text>
<text text-anchor="middle" x="72.5" y="-289.5" font-family="Helvetica,sans-Serif" font-size="10.00">&lt; SocketT &gt;</text>
<polyline fill="none" stroke="black" points="4.5,-282.5 140.5,-282.5 "/>
<text text-anchor="middle" x="72.5" y="-270.5" font-family="Helvetica,sans-Serif" font-size="10.00"> </text>
<polyline fill="none" stroke="black" points="4.5,-263.5 140.5,-263.5 "/>
<text text-anchor="start" x="12.5" y="-251.5" font-family="Helvetica,sans-Serif" font-size="10.00">+ listen()</text>
</a>
</g>
</g>
<!-- Node3&#45;&gt;Node2 -->
<g id="edge2" class="edge">
<title>Node3&#45;&gt;Node2</title>
<path fill="none" stroke="orange" d="M72.5,-234.22C72.5,-218.36 72.5,-200.68 72.5,-185.82"/>
<polygon fill="orange" stroke="orange" points="69,-234.33 72.5,-244.33 76,-234.33 69,-234.33"/>
<text text-anchor="start" x="72.5" y="-218" font-family="Helvetica,sans-Serif" font-size="10.00"> &lt; net::in::stream::</text>
<text text-anchor="middle" x="113.5" y="-207" font-family="Helvetica,sans-Serif" font-size="10.00">Socket &gt;</text>
</g>
</g>
</svg>
