<?xml version="1.0" encoding="UTF-8" standalone="no"?>
<!DOCTYPE svg PUBLIC "-//W3C//DTD SVG 1.1//EN"
 "http://www.w3.org/Graphics/SVG/1.1/DTD/svg11.dtd">
<!-- Generated by graphviz version 2.43.0 (0)
 -->
<!-- Title: core::socket::stream::SocketConnection::close Pages: 1 -->
<svg width="958pt" height="222pt"
 viewBox="0.00 0.00 958.00 222.00" xmlns="http://www.w3.org/2000/svg" xmlns:xlink="http://www.w3.org/1999/xlink">
<g id="graph0" class="graph" transform="scale(1 1) rotate(0) translate(4 218)">
<title>core::socket::stream::SocketConnection::close</title>
<polygon fill="white" stroke="transparent" points="-4,4 -4,-218 954,-218 954,4 -4,4"/>
<!-- Node1 -->
<g id="node1" class="node">
<title>Node1</title>
<g id="a_node1"><a xlink:title=" ">
<polygon fill="#bfbfbf" stroke="black" points="0,-117.5 0,-147.5 141,-147.5 141,-117.5 0,-117.5"/>
<text text-anchor="start" x="8" y="-135.5" font-family="Helvetica,sans-Serif" font-size="10.00">core::socket::stream</text>
<text text-anchor="middle" x="70.5" y="-124.5" font-family="Helvetica,sans-Serif" font-size="10.00">::SocketConnection::close</text>
</a>
</g>
</g>
<!-- Node2 -->
<g id="node2" class="node">
<title>Node2</title>
<g id="a_node2"><a xlink:href="classcore_1_1_descriptor_event_receiver.html#a4ab422ce6622a29cee38a0108ee6ccc1" target="_top" xlink:title=" ">
<polygon fill="white" stroke="black" points="177,-117.5 177,-147.5 341,-147.5 341,-117.5 177,-117.5"/>
<text text-anchor="start" x="185" y="-135.5" font-family="Helvetica,sans-Serif" font-size="10.00">core::DescriptorEventReceiver</text>
<text text-anchor="middle" x="259" y="-124.5" font-family="Helvetica,sans-Serif" font-size="10.00">::disable</text>
</a>
</g>
</g>
<!-- Node1&#45;&gt;Node2 -->
<g id="edge1" class="edge">
<title>Node1&#45;&gt;Node2</title>
<path fill="none" stroke="midnightblue" d="M141.21,-132.5C149.54,-132.5 158.14,-132.5 166.71,-132.5"/>
<polygon fill="midnightblue" stroke="midnightblue" points="166.75,-136 176.75,-132.5 166.75,-129 166.75,-136"/>
</g>
<!-- Node3 -->
<g id="node3" class="node">
<title>Node3</title>
<g id="a_node3"><a xlink:href="classcore_1_1_descriptor_event_publisher.html#a998d681666ff72ed73cf0799ff4aca77" target="_top" xlink:title=" ">
<polygon fill="white" stroke="black" points="377,-183.5 377,-213.5 544,-213.5 544,-183.5 377,-183.5"/>
<text text-anchor="start" x="385" y="-201.5" font-family="Helvetica,sans-Serif" font-size="10.00">core::DescriptorEventPublisher</text>
<text text-anchor="middle" x="460.5" y="-190.5" font-family="Helvetica,sans-Serif" font-size="10.00">::disable</text>
</a>
</g>
</g>
<!-- Node2&#45;&gt;Node3 -->
<g id="edge2" class="edge">
<title>Node2&#45;&gt;Node3</title>
<path fill="none" stroke="midnightblue" d="M305.77,-147.64C335.04,-157.33 373.19,-169.95 404.16,-180.19"/>
<polygon fill="midnightblue" stroke="midnightblue" points="403.35,-183.61 413.94,-183.43 405.55,-176.96 403.35,-183.61"/>
</g>
<!-- Node4 -->
<g id="node4" class="node">
<title>Node4</title>
<g id="a_node4"><a xlink:href="classcore_1_1_event_receiver.html#aac62114d8385172bb2c536774a7dfcf7" target="_top" xlink:title=" ">
<polygon fill="white" stroke="black" points="606.5,-125.5 606.5,-155.5 720.5,-155.5 720.5,-125.5 606.5,-125.5"/>
<text text-anchor="start" x="614.5" y="-143.5" font-family="Helvetica,sans-Serif" font-size="10.00">core::EventReceiver</text>
<text text-anchor="middle" x="663.5" y="-132.5" font-family="Helvetica,sans-Serif" font-size="10.00">::getName</text>
</a>
</g>
</g>
<!-- Node2&#45;&gt;Node4 -->
<g id="edge3" class="edge">
<title>Node2&#45;&gt;Node4</title>
<path fill="none" stroke="midnightblue" d="M341.19,-134.67C353.2,-134.96 365.42,-135.25 377,-135.5 452.16,-137.12 538.45,-138.58 596.32,-139.49"/>
<polygon fill="midnightblue" stroke="midnightblue" points="596.37,-142.99 606.43,-139.65 596.48,-136 596.37,-142.99"/>
</g>
<!-- Node5 -->
<g id="node5" class="node">
<title>Node5</title>
<g id="a_node5"><a xlink:href="classcore_1_1_descriptor_event_receiver.html#ac80fc901f941c059a6ebdb28147b25a2" target="_top" xlink:title=" ">
<polygon fill="white" stroke="black" points="378.5,-95.5 378.5,-125.5 542.5,-125.5 542.5,-95.5 378.5,-95.5"/>
<text text-anchor="start" x="386.5" y="-113.5" font-family="Helvetica,sans-Serif" font-size="10.00">core::DescriptorEventReceiver</text>
<text text-anchor="middle" x="460.5" y="-102.5" font-family="Helvetica,sans-Serif" font-size="10.00">::isSuspended</text>
</a>
</g>
</g>
<!-- Node2&#45;&gt;Node5 -->
<g id="edge4" class="edge">
<title>Node2&#45;&gt;Node5</title>
<path fill="none" stroke="midnightblue" d="M341.14,-123.55C350.08,-122.57 359.22,-121.56 368.27,-120.56"/>
<polygon fill="midnightblue" stroke="midnightblue" points="368.87,-124.02 378.43,-119.44 368.1,-117.06 368.87,-124.02"/>
</g>
<!-- Node6 -->
<g id="node6" class="node">
<title>Node6</title>
<g id="a_node6"><a xlink:href="classcore_1_1_descriptor_event_receiver.html#aab5e466759c83194c5bc4b41f1a33103" target="_top" xlink:title=" ">
<polygon fill="white" stroke="black" points="378.5,-46.5 378.5,-76.5 542.5,-76.5 542.5,-46.5 378.5,-46.5"/>
<text text-anchor="start" x="386.5" y="-64.5" font-family="Helvetica,sans-Serif" font-size="10.00">core::DescriptorEventReceiver</text>
<text text-anchor="middle" x="460.5" y="-53.5" font-family="Helvetica,sans-Serif" font-size="10.00">::suspend</text>
</a>
</g>
</g>
<!-- Node2&#45;&gt;Node6 -->
<g id="edge5" class="edge">
<title>Node2&#45;&gt;Node6</title>
<path fill="none" stroke="midnightblue" d="M294.73,-117.5C317.83,-107.78 348.96,-95.18 377,-85.5 382.83,-83.49 388.93,-81.5 395.06,-79.58"/>
<polygon fill="midnightblue" stroke="midnightblue" points="396.14,-82.91 404.68,-76.62 394.09,-76.21 396.14,-82.91"/>
</g>
<!-- Node6&#45;&gt;Node4 -->
<g id="edge6" class="edge">
<title>Node6&#45;&gt;Node4</title>
<path fill="none" stroke="midnightblue" d="M517.81,-76.59C526.65,-79.33 535.63,-82.33 544,-85.5 560.55,-91.77 563.96,-95.02 580,-102.5 593.11,-108.61 607.42,-115.23 620.38,-121.19"/>
<polygon fill="midnightblue" stroke="midnightblue" points="619,-124.41 629.55,-125.41 621.92,-118.05 619,-124.41"/>
</g>
<!-- Node7 -->
<g id="node7" class="node">
<title>Node7</title>
<g id="a_node7"><a xlink:href="classcore_1_1_observer.html#a12bf1ddfdb90f05f28d16c09ce0658f8" target="_top" xlink:title=" ">
<polygon fill="white" stroke="black" points="589,-74 589,-93 738,-93 738,-74 589,-74"/>
<text text-anchor="middle" x="663.5" y="-81" font-family="Helvetica,sans-Serif" font-size="10.00">core::Observer::isObserved</text>
</a>
</g>
</g>
<!-- Node6&#45;&gt;Node7 -->
<g id="edge7" class="edge">
<title>Node6&#45;&gt;Node7</title>
<path fill="none" stroke="midnightblue" d="M542.68,-70.38C554.59,-71.69 566.89,-73.03 578.85,-74.34"/>
<polygon fill="midnightblue" stroke="midnightblue" points="578.49,-77.83 588.81,-75.43 579.25,-70.87 578.49,-77.83"/>
</g>
<!-- Node8 -->
<g id="node8" class="node">
<title>Node8</title>
<g id="a_node8"><a xlink:href="classcore_1_1_descriptor_event_publisher.html#ac1bfb115c6aba58d380862a43db457e8" target="_top" xlink:title=" ">
<polygon fill="white" stroke="black" points="580,-24.5 580,-54.5 747,-54.5 747,-24.5 580,-24.5"/>
<text text-anchor="start" x="588" y="-42.5" font-family="Helvetica,sans-Serif" font-size="10.00">core::DescriptorEventPublisher</text>
<text text-anchor="middle" x="663.5" y="-31.5" font-family="Helvetica,sans-Serif" font-size="10.00">::suspend</text>
</a>
</g>
</g>
<!-- Node6&#45;&gt;Node8 -->
<g id="edge8" class="edge">
<title>Node6&#45;&gt;Node8</title>
<path fill="none" stroke="midnightblue" d="M542.68,-52.62C551.54,-51.64 560.62,-50.65 569.61,-49.67"/>
<polygon fill="midnightblue" stroke="midnightblue" points="570.15,-53.13 579.71,-48.56 569.39,-46.17 570.15,-53.13"/>
</g>
<!-- Node9 -->
<g id="node9" class="node">
<title>Node9</title>
<g id="a_node9"><a xlink:href="classcore_1_1_descriptor_event_receiver.html#a445606dc995a71972d83e7683ada144b" target="_top" xlink:title=" ">
<polygon fill="white" stroke="black" points="784.5,-49.5 784.5,-79.5 948.5,-79.5 948.5,-49.5 784.5,-49.5"/>
<text text-anchor="start" x="792.5" y="-67.5" font-family="Helvetica,sans-Serif" font-size="10.00">core::DescriptorEventReceiver</text>
<text text-anchor="middle" x="866.5" y="-56.5" font-family="Helvetica,sans-Serif" font-size="10.00">::getRegisteredFd</text>
</a>
</g>
</g>
<!-- Node8&#45;&gt;Node9 -->
<g id="edge9" class="edge">
<title>Node8&#45;&gt;Node9</title>
<path fill="none" stroke="midnightblue" d="M747.12,-49.78C756.09,-50.89 765.26,-52.03 774.32,-53.16"/>
<polygon fill="midnightblue" stroke="midnightblue" points="774.14,-56.66 784.49,-54.42 775,-49.72 774.14,-56.66"/>
</g>
<!-- Node10 -->
<g id="node10" class="node">
<title>Node10</title>
<g id="a_node10"><a xlink:href="classcore_1_1_descriptor_event_publisher.html#af6a191195ac34bd0dfc6573b1adc3745" target="_top" xlink:title=" ">
<polygon fill="white" stroke="black" points="783,-0.5 783,-30.5 950,-30.5 950,-0.5 783,-0.5"/>
<text text-anchor="start" x="791" y="-18.5" font-family="Helvetica,sans-Serif" font-size="10.00">core::DescriptorEventPublisher</text>
<text text-anchor="middle" x="866.5" y="-7.5" font-family="Helvetica,sans-Serif" font-size="10.00">::muxOff</text>
</a>
</g>
</g>
<!-- Node8&#45;&gt;Node10 -->
<g id="edge10" class="edge">
<title>Node8&#45;&gt;Node10</title>
<path fill="none" stroke="midnightblue" d="M747.12,-29.63C755.61,-28.62 764.27,-27.59 772.85,-26.56"/>
<polygon fill="midnightblue" stroke="midnightblue" points="773.36,-30.03 782.87,-25.37 772.53,-23.08 773.36,-30.03"/>
</g>
</g>
</svg>
