<?xml version="1.0" encoding="UTF-8" standalone="no"?>
<!DOCTYPE svg PUBLIC "-//W3C//DTD SVG 1.1//EN"
 "http://www.w3.org/Graphics/SVG/1.1/DTD/svg11.dtd">
<!-- Generated by graphviz version 2.43.0 (0)
 -->
<!-- Title: express::State::getRequest Pages: 1 -->
<svg width="324pt" height="170pt"
 viewBox="0.00 0.00 324.00 170.00" xmlns="http://www.w3.org/2000/svg" xmlns:xlink="http://www.w3.org/1999/xlink">
<g id="graph0" class="graph" transform="scale(1 1) rotate(0) translate(4 166)">
<title>express::State::getRequest</title>
<polygon fill="white" stroke="transparent" points="-4,4 -4,-166 320,-166 320,4 -4,4"/>
<!-- Node1 -->
<g id="node1" class="node">
<title>Node1</title>
<g id="a_node1"><a xlink:title=" ">
<polygon fill="#bfbfbf" stroke="black" points="168,-71.5 168,-90.5 316,-90.5 316,-71.5 168,-71.5"/>
<text text-anchor="middle" x="242" y="-78.5" font-family="Helvetica,sans-Serif" font-size="10.00">express::State::getRequest</text>
</a>
</g>
</g>
<!-- Node2 -->
<g id="node2" class="node">
<title>Node2</title>
<g id="a_node2"><a xlink:href="classexpress_1_1dispatcher_1_1_application_dispatcher.html#a7fa37fb331a158eb372eded9d0c2a9bc" target="_top" xlink:title=" ">
<polygon fill="white" stroke="black" points="1,-120.5 1,-161.5 131,-161.5 131,-120.5 1,-120.5"/>
<text text-anchor="start" x="9" y="-149.5" font-family="Helvetica,sans-Serif" font-size="10.00">express::dispatcher</text>
<text text-anchor="start" x="9" y="-138.5" font-family="Helvetica,sans-Serif" font-size="10.00">::ApplicationDispatcher</text>
<text text-anchor="middle" x="66" y="-127.5" font-family="Helvetica,sans-Serif" font-size="10.00">::dispatch</text>
</a>
</g>
</g>
<!-- Node1&#45;&gt;Node2 -->
<g id="edge1" class="edge">
<title>Node1&#45;&gt;Node2</title>
<path fill="none" stroke="midnightblue" d="M203.92,-93.79C181.41,-101.55 152.18,-111.63 126.5,-120.48"/>
<polygon fill="midnightblue" stroke="midnightblue" points="205.12,-97.08 213.43,-90.51 202.83,-90.46 205.12,-97.08"/>
</g>
<!-- Node3 -->
<g id="node3" class="node">
<title>Node3</title>
<g id="a_node3"><a xlink:href="classexpress_1_1dispatcher_1_1_middleware_dispatcher.html#a8f1f904ebd375cd58635e00fee459b5a" target="_top" xlink:title=" ">
<polygon fill="white" stroke="black" points="0,-60.5 0,-101.5 132,-101.5 132,-60.5 0,-60.5"/>
<text text-anchor="start" x="8" y="-89.5" font-family="Helvetica,sans-Serif" font-size="10.00">express::dispatcher</text>
<text text-anchor="start" x="8" y="-78.5" font-family="Helvetica,sans-Serif" font-size="10.00">::MiddlewareDispatcher</text>
<text text-anchor="middle" x="66" y="-67.5" font-family="Helvetica,sans-Serif" font-size="10.00">::dispatch</text>
</a>
</g>
</g>
<!-- Node1&#45;&gt;Node3 -->
<g id="edge2" class="edge">
<title>Node1&#45;&gt;Node3</title>
<path fill="none" stroke="midnightblue" d="M157.86,-81C149.21,-81 140.51,-81 132.1,-81"/>
<polygon fill="midnightblue" stroke="midnightblue" points="157.96,-84.5 167.96,-81 157.96,-77.5 157.96,-84.5"/>
</g>
<!-- Node4 -->
<g id="node4" class="node">
<title>Node4</title>
<g id="a_node4"><a xlink:href="classexpress_1_1dispatcher_1_1_router_dispatcher.html#aaf6bdbc9f195dc25e4ea205d0e0a9ded" target="_top" xlink:title=" ">
<polygon fill="white" stroke="black" points="9.5,-0.5 9.5,-41.5 122.5,-41.5 122.5,-0.5 9.5,-0.5"/>
<text text-anchor="start" x="17.5" y="-29.5" font-family="Helvetica,sans-Serif" font-size="10.00">express::dispatcher</text>
<text text-anchor="start" x="17.5" y="-18.5" font-family="Helvetica,sans-Serif" font-size="10.00">::RouterDispatcher::</text>
<text text-anchor="middle" x="66" y="-7.5" font-family="Helvetica,sans-Serif" font-size="10.00">dispatch</text>
</a>
</g>
</g>
<!-- Node1&#45;&gt;Node4 -->
<g id="edge3" class="edge">
<title>Node1&#45;&gt;Node4</title>
<path fill="none" stroke="midnightblue" d="M203.78,-68.17C180.12,-60.01 149.07,-49.3 122.53,-40.15"/>
<polygon fill="midnightblue" stroke="midnightblue" points="202.83,-71.54 213.43,-71.49 205.12,-64.92 202.83,-71.54"/>
</g>
</g>
</svg>
