<?xml version="1.0" encoding="UTF-8" standalone="no"?>
<!DOCTYPE svg PUBLIC "-//W3C//DTD SVG 1.1//EN"
 "http://www.w3.org/Graphics/SVG/1.1/DTD/svg11.dtd">
<!-- Generated by graphviz version 2.43.0 (0)
 -->
<!-- Title: core::InitConnectEventReceiver Pages: 1 -->
<svg width="274pt" height="226pt"
 viewBox="0.00 0.00 273.50 226.00" xmlns="http://www.w3.org/2000/svg" xmlns:xlink="http://www.w3.org/1999/xlink">
<g id="graph0" class="graph" transform="scale(1 1) rotate(0) translate(4 222)">
<title>core::InitConnectEventReceiver</title>
<polygon fill="white" stroke="transparent" points="-4,4 -4,-222 269.5,-222 269.5,4 -4,4"/>
<!-- Node1 -->
<g id="node1" class="node">
<title>Node1</title>
<g id="a_node1"><a xlink:title=" ">
<polygon fill="#bfbfbf" stroke="black" points="0,-0.5 0,-79.5 170,-79.5 170,-0.5 0,-0.5"/>
<text text-anchor="middle" x="85" y="-67.5" font-family="Helvetica,sans-Serif" font-size="10.00">core::InitConnectEventReceiver</text>
<polyline fill="none" stroke="black" points="0,-60.5 170,-60.5 "/>
<text text-anchor="middle" x="85" y="-48.5" font-family="Helvetica,sans-Serif" font-size="10.00"> </text>
<polyline fill="none" stroke="black" points="0,-41.5 170,-41.5 "/>
<text text-anchor="start" x="8" y="-29.5" font-family="Helvetica,sans-Serif" font-size="10.00"># InitConnectEventReceiver()</text>
<text text-anchor="start" x="8" y="-18.5" font-family="Helvetica,sans-Serif" font-size="10.00"># dispatch()</text>
<text text-anchor="start" x="8" y="-7.5" font-family="Helvetica,sans-Serif" font-size="10.00">&#45; initConnectEvent()</text>
</a>
</g>
</g>
<!-- Node2 -->
<g id="node2" class="node">
<title>Node2</title>
<g id="a_node2"><a xlink:href="classcore_1_1_event_receiver.html" target="_top" xlink:title=" ">
<polygon fill="white" stroke="black" points="69,-127.5 69,-217.5 183,-217.5 183,-127.5 69,-127.5"/>
<text text-anchor="middle" x="126" y="-205.5" font-family="Helvetica,sans-Serif" font-size="10.00">core::EventReceiver</text>
<polyline fill="none" stroke="black" points="69,-198.5 183,-198.5 "/>
<text text-anchor="middle" x="126" y="-186.5" font-family="Helvetica,sans-Serif" font-size="10.00"> </text>
<polyline fill="none" stroke="black" points="69,-179.5 183,-179.5 "/>
<text text-anchor="start" x="77" y="-167.5" font-family="Helvetica,sans-Serif" font-size="10.00">+ EventReceiver()</text>
<text text-anchor="start" x="77" y="-156.5" font-family="Helvetica,sans-Serif" font-size="10.00">+ ~EventReceiver()</text>
<text text-anchor="start" x="77" y="-145.5" font-family="Helvetica,sans-Serif" font-size="10.00">+ publish()</text>
<text text-anchor="start" x="77" y="-134.5" font-family="Helvetica,sans-Serif" font-size="10.00">+ dispatch()</text>
</a>
</g>
</g>
<!-- Node2&#45;&gt;Node1 -->
<g id="edge1" class="edge">
<title>Node2&#45;&gt;Node1</title>
<path fill="none" stroke="midnightblue" d="M106.74,-117.48C105.79,-114.62 104.88,-111.78 104,-109 101.01,-99.53 98.02,-89.25 95.31,-79.61"/>
<polygon fill="none" stroke="midnightblue" points="103.51,-118.87 110.01,-127.24 110.15,-116.64 103.51,-118.87"/>
</g>
<!-- Node3 -->
<g id="node3" class="node">
<title>Node3</title>
<g id="a_node3"><a xlink:href="classcore_1_1_event.html" target="_top" xlink:title=" ">
<polygon fill="white" stroke="black" points="188.5,-0.5 188.5,-79.5 265.5,-79.5 265.5,-0.5 188.5,-0.5"/>
<text text-anchor="middle" x="227" y="-67.5" font-family="Helvetica,sans-Serif" font-size="10.00">core::Event</text>
<polyline fill="none" stroke="black" points="188.5,-60.5 265.5,-60.5 "/>
<text text-anchor="middle" x="227" y="-48.5" font-family="Helvetica,sans-Serif" font-size="10.00"> </text>
<polyline fill="none" stroke="black" points="188.5,-41.5 265.5,-41.5 "/>
<text text-anchor="start" x="196.5" y="-29.5" font-family="Helvetica,sans-Serif" font-size="10.00">+ Event()</text>
<text text-anchor="start" x="196.5" y="-18.5" font-family="Helvetica,sans-Serif" font-size="10.00">+ ~Event()</text>
<text text-anchor="start" x="196.5" y="-7.5" font-family="Helvetica,sans-Serif" font-size="10.00">+ dispatch()</text>
</a>
</g>
</g>
<!-- Node2&#45;&gt;Node3 -->
<g id="edge3" class="edge">
<title>Node2&#45;&gt;Node3</title>
<path fill="none" stroke="#404040" d="M115.17,-127.14C114.97,-116.79 116.91,-106.36 123,-98 136.54,-79.43 151.78,-89.22 177.18,-79.59"/>
<polygon fill="none" stroke="#404040" points="177.42,-79.48 181.15,-73.31 188.28,-74.38 184.55,-80.55 177.42,-79.48"/>
<text text-anchor="middle" x="162" y="-101" font-family="Helvetica,sans-Serif" font-size="10.00"> &#45;eventReceiver</text>
</g>
<!-- Node3&#45;&gt;Node2 -->
<g id="edge2" class="edge">
<title>Node3&#45;&gt;Node2</title>
<path fill="none" stroke="#404040" d="M218.83,-79.54C215.57,-89.69 211.09,-100.24 205,-109 201.2,-114.48 196.77,-119.71 192,-124.64"/>
<polygon fill="none" stroke="#404040" points="191.74,-124.89 190.18,-131.93 183.09,-133.2 184.64,-126.16 191.74,-124.89"/>
<text text-anchor="middle" x="230" y="-101" font-family="Helvetica,sans-Serif" font-size="10.00"> #event</text>
</g>
</g>
</svg>
