<?xml version="1.0" encoding="UTF-8" standalone="no"?>
<!DOCTYPE svg PUBLIC "-//W3C//DTD SVG 1.1//EN"
 "http://www.w3.org/Graphics/SVG/1.1/DTD/svg11.dtd">
<!-- Generated by graphviz version 2.43.0 (0)
 -->
<!-- Title: net::l2::stream::ConfigConnect::required Pages: 1 -->
<svg width="470pt" height="66pt"
 viewBox="0.00 0.00 470.00 66.00" xmlns="http://www.w3.org/2000/svg" xmlns:xlink="http://www.w3.org/1999/xlink">
<g id="graph0" class="graph" transform="scale(1 1) rotate(0) translate(4 62)">
<title>net::l2::stream::ConfigConnect::required</title>
<polygon fill="white" stroke="transparent" points="-4,4 -4,-62 466,-62 466,4 -4,4"/>
<!-- Node1 -->
<g id="node1" class="node">
<title>Node1</title>
<g id="a_node1"><a xlink:title=" ">
<polygon fill="#bfbfbf" stroke="black" points="0,-14 0,-44 165,-44 165,-14 0,-14"/>
<text text-anchor="start" x="8" y="-32" font-family="Helvetica,sans-Serif" font-size="10.00">net::l2::stream::ConfigConnect</text>
<text text-anchor="middle" x="82.5" y="-21" font-family="Helvetica,sans-Serif" font-size="10.00">::required</text>
</a>
</g>
</g>
<!-- Node2 -->
<g id="node2" class="node">
<title>Node2</title>
<g id="a_node2"><a xlink:href="classutils_1_1_config.html#ad13f9cf22d17f1f3e1e5150d6acd865a" target="_top" xlink:title=" ">
<polygon fill="white" stroke="black" points="201,-38.5 201,-57.5 323,-57.5 323,-38.5 201,-38.5"/>
<text text-anchor="middle" x="262" y="-45.5" font-family="Helvetica,sans-Serif" font-size="10.00">utils::Config::instance</text>
</a>
</g>
</g>
<!-- Node1&#45;&gt;Node2 -->
<g id="edge1" class="edge">
<title>Node1&#45;&gt;Node2</title>
<path fill="none" stroke="midnightblue" d="M165.24,-37.75C173.77,-38.66 182.4,-39.59 190.79,-40.49"/>
<polygon fill="midnightblue" stroke="midnightblue" points="190.58,-43.98 200.9,-41.57 191.33,-37.02 190.58,-43.98"/>
</g>
<!-- Node3 -->
<g id="node3" class="node">
<title>Node3</title>
<g id="a_node3"><a xlink:href="classutils_1_1_config.html#aacaee4b1b3f6b83cb48e7e0d2457a680" target="_top" xlink:title=" ">
<polygon fill="white" stroke="black" points="201,-0.5 201,-19.5 323,-19.5 323,-0.5 201,-0.5"/>
<text text-anchor="middle" x="262" y="-7.5" font-family="Helvetica,sans-Serif" font-size="10.00">utils::Config::required</text>
</a>
</g>
</g>
<!-- Node1&#45;&gt;Node3 -->
<g id="edge2" class="edge">
<title>Node1&#45;&gt;Node3</title>
<path fill="none" stroke="midnightblue" d="M165.24,-20.25C173.77,-19.34 182.4,-18.41 190.79,-17.51"/>
<polygon fill="midnightblue" stroke="midnightblue" points="191.33,-20.98 200.9,-16.43 190.58,-14.02 191.33,-20.98"/>
</g>
<!-- Node4 -->
<g id="node4" class="node">
<title>Node4</title>
<g id="a_node4"><a xlink:href="class_c_l_i_1_1_app.html#a33c3eb125a4e70d387dd9fc49c25432b" target="_top" xlink:title="Remove the error when extras are left over on the command line.">
<polygon fill="white" stroke="black" points="359,-0.5 359,-19.5 462,-19.5 462,-0.5 359,-0.5"/>
<text text-anchor="middle" x="410.5" y="-7.5" font-family="Helvetica,sans-Serif" font-size="10.00">CLI::App::required</text>
</a>
</g>
</g>
<!-- Node3&#45;&gt;Node4 -->
<g id="edge3" class="edge">
<title>Node3&#45;&gt;Node4</title>
<path fill="none" stroke="midnightblue" d="M323.01,-10C331.44,-10 340.11,-10 348.55,-10"/>
<polygon fill="midnightblue" stroke="midnightblue" points="348.71,-13.5 358.71,-10 348.71,-6.5 348.71,-13.5"/>
</g>
</g>
</svg>
