<?xml version="1.0" encoding="UTF-8" standalone="no"?>
<!DOCTYPE svg PUBLIC "-//W3C//DTD SVG 1.1//EN"
 "http://www.w3.org/Graphics/SVG/1.1/DTD/svg11.dtd">
<!-- Generated by graphviz version 2.43.0 (0)
 -->
<!-- Title: core::Event::~Event Pages: 1 -->
<svg width="625pt" height="127pt"
 viewBox="0.00 0.00 625.00 127.00" xmlns="http://www.w3.org/2000/svg" xmlns:xlink="http://www.w3.org/1999/xlink">
<g id="graph0" class="graph" transform="scale(1 1) rotate(0) translate(4 123)">
<title>core::Event::~Event</title>
<polygon fill="white" stroke="transparent" points="-4,4 -4,-123 621,-123 621,4 -4,4"/>
<!-- Node1 -->
<g id="node1" class="node">
<title>Node1</title>
<g id="a_node1"><a xlink:title=" ">
<polygon fill="#bfbfbf" stroke="black" points="0,-50 0,-69 113,-69 113,-50 0,-50"/>
<text text-anchor="middle" x="56.5" y="-57" font-family="Helvetica,sans-Serif" font-size="10.00">core::Event::~Event</text>
</a>
</g>
</g>
<!-- Node2 -->
<g id="node2" class="node">
<title>Node2</title>
<g id="a_node2"><a xlink:href="classcore_1_1_event.html#ab88453934791bf46f7265cec2e34e00b" target="_top" xlink:title=" ">
<polygon fill="white" stroke="black" points="149,-50 149,-69 274,-69 274,-50 149,-50"/>
<text text-anchor="middle" x="211.5" y="-57" font-family="Helvetica,sans-Serif" font-size="10.00">core::Event::unPublish</text>
</a>
</g>
</g>
<!-- Node1&#45;&gt;Node2 -->
<g id="edge1" class="edge">
<title>Node1&#45;&gt;Node2</title>
<path fill="none" stroke="midnightblue" d="M113.17,-59.5C121.52,-59.5 130.23,-59.5 138.86,-59.5"/>
<polygon fill="midnightblue" stroke="midnightblue" points="138.92,-63 148.92,-59.5 138.92,-56 138.92,-63"/>
</g>
<!-- Node3 -->
<g id="node3" class="node">
<title>Node3</title>
<g id="a_node3"><a xlink:href="classcore_1_1_event_loop.html#a17f1623de6ca2ea2682c63cf502c3c36" target="_top" xlink:title=" ">
<polygon fill="white" stroke="black" points="310,-88.5 310,-118.5 454,-118.5 454,-88.5 310,-88.5"/>
<text text-anchor="start" x="318" y="-106.5" font-family="Helvetica,sans-Serif" font-size="10.00">core::EventLoop::getEvent</text>
<text text-anchor="middle" x="382" y="-95.5" font-family="Helvetica,sans-Serif" font-size="10.00">Multiplexer</text>
</a>
</g>
</g>
<!-- Node2&#45;&gt;Node3 -->
<g id="edge2" class="edge">
<title>Node2&#45;&gt;Node3</title>
<path fill="none" stroke="midnightblue" d="M249.06,-69.05C267.86,-73.96 291.39,-80.1 313.35,-85.83"/>
<polygon fill="midnightblue" stroke="midnightblue" points="312.75,-89.29 323.31,-88.43 314.52,-82.52 312.75,-89.29"/>
</g>
<!-- Node4 -->
<g id="node4" class="node">
<title>Node4</title>
<g id="a_node4"><a xlink:href="classcore_1_1_event_loop.html#a413d227511f68c2c9939719bd2590794" target="_top" xlink:title=" ">
<polygon fill="white" stroke="black" points="311,-50 311,-69 453,-69 453,-50 311,-50"/>
<text text-anchor="middle" x="382" y="-57" font-family="Helvetica,sans-Serif" font-size="10.00">core::EventLoop::instance</text>
</a>
</g>
</g>
<!-- Node2&#45;&gt;Node4 -->
<g id="edge3" class="edge">
<title>Node2&#45;&gt;Node4</title>
<path fill="none" stroke="midnightblue" d="M274.29,-59.5C282.95,-59.5 291.96,-59.5 300.91,-59.5"/>
<polygon fill="midnightblue" stroke="midnightblue" points="300.96,-63 310.96,-59.5 300.96,-56 300.96,-63"/>
</g>
<!-- Node5 -->
<g id="node5" class="node">
<title>Node5</title>
<g id="a_node5"><a xlink:href="classcore_1_1_event_multiplexer.html#a90532c9c6ade22e040c40726b5afa5a9" target="_top" xlink:title=" ">
<polygon fill="white" stroke="black" points="318.5,-0.5 318.5,-30.5 445.5,-30.5 445.5,-0.5 318.5,-0.5"/>
<text text-anchor="start" x="326.5" y="-18.5" font-family="Helvetica,sans-Serif" font-size="10.00">core::EventMultiplexer</text>
<text text-anchor="middle" x="382" y="-7.5" font-family="Helvetica,sans-Serif" font-size="10.00">::unPublish</text>
</a>
</g>
</g>
<!-- Node2&#45;&gt;Node5 -->
<g id="edge4" class="edge">
<title>Node2&#45;&gt;Node5</title>
<path fill="none" stroke="midnightblue" d="M249.06,-49.95C267.86,-45.04 291.39,-38.9 313.35,-33.17"/>
<polygon fill="midnightblue" stroke="midnightblue" points="314.52,-36.48 323.31,-30.57 312.75,-29.71 314.52,-36.48"/>
</g>
<!-- Node6 -->
<g id="node6" class="node">
<title>Node6</title>
<g id="a_node6"><a xlink:href="classcore_1_1_event_multiplexer_1_1_event_queue.html#afc78e00c1cdb5f994a01091ee88ea9f3" target="_top" xlink:title=" ">
<polygon fill="white" stroke="black" points="490,-0.5 490,-30.5 617,-30.5 617,-0.5 490,-0.5"/>
<text text-anchor="start" x="498" y="-18.5" font-family="Helvetica,sans-Serif" font-size="10.00">core::EventMultiplexer</text>
<text text-anchor="middle" x="553.5" y="-7.5" font-family="Helvetica,sans-Serif" font-size="10.00">::EventQueue::remove</text>
</a>
</g>
</g>
<!-- Node5&#45;&gt;Node6 -->
<g id="edge5" class="edge">
<title>Node5&#45;&gt;Node6</title>
<path fill="none" stroke="midnightblue" d="M445.63,-15.5C456.68,-15.5 468.27,-15.5 479.57,-15.5"/>
<polygon fill="midnightblue" stroke="midnightblue" points="479.84,-19 489.84,-15.5 479.84,-12 479.84,-19"/>
</g>
</g>
</svg>
