<?xml version="1.0" encoding="UTF-8" standalone="no"?>
<!DOCTYPE svg PUBLIC "-//W3C//DTD SVG 1.1//EN"
 "http://www.w3.org/Graphics/SVG/1.1/DTD/svg11.dtd">
<!-- Generated by graphviz version 2.43.0 (0)
 -->
<!-- Title: CLI::IncorrectConstruction Pages: 1 -->
<svg width="150pt" height="546pt"
 viewBox="0.00 0.00 150.00 546.00" xmlns="http://www.w3.org/2000/svg" xmlns:xlink="http://www.w3.org/1999/xlink">
<g id="graph0" class="graph" transform="scale(1 1) rotate(0) translate(4 542)">
<title>CLI::IncorrectConstruction</title>
<polygon fill="white" stroke="transparent" points="-4,4 -4,-542 146,-542 146,4 -4,4"/>
<!-- Node1 -->
<g id="node1" class="node">
<title>Node1</title>
<g id="a_node1"><a xlink:title="Thrown when an option is set to conflicting values (non&#45;vector and multi args, for example)">
<polygon fill="#bfbfbf" stroke="black" points="0,-0.5 0,-178.5 142,-178.5 142,-0.5 0,-0.5"/>
<text text-anchor="middle" x="71" y="-166.5" font-family="Helvetica,sans-Serif" font-size="10.00">CLI::IncorrectConstruction</text>
<polyline fill="none" stroke="black" points="0,-159.5 142,-159.5 "/>
<text text-anchor="middle" x="71" y="-147.5" font-family="Helvetica,sans-Serif" font-size="10.00"> </text>
<polyline fill="none" stroke="black" points="0,-140.5 142,-140.5 "/>
<text text-anchor="start" x="8" y="-128.5" font-family="Helvetica,sans-Serif" font-size="10.00">+ IncorrectConstruction()</text>
<text text-anchor="start" x="8" y="-117.5" font-family="Helvetica,sans-Serif" font-size="10.00">+ IncorrectConstruction()</text>
<text text-anchor="start" x="8" y="-106.5" font-family="Helvetica,sans-Serif" font-size="10.00">+ IncorrectConstruction()</text>
<text text-anchor="start" x="8" y="-95.5" font-family="Helvetica,sans-Serif" font-size="10.00">+ PositionalFlag()</text>
<text text-anchor="start" x="8" y="-84.5" font-family="Helvetica,sans-Serif" font-size="10.00">+ Set0Opt()</text>
<text text-anchor="start" x="8" y="-73.5" font-family="Helvetica,sans-Serif" font-size="10.00">+ SetFlag()</text>
<text text-anchor="start" x="8" y="-62.5" font-family="Helvetica,sans-Serif" font-size="10.00">+ ChangeNotVector()</text>
<text text-anchor="start" x="8" y="-51.5" font-family="Helvetica,sans-Serif" font-size="10.00">+ AfterMultiOpt()</text>
<text text-anchor="start" x="8" y="-40.5" font-family="Helvetica,sans-Serif" font-size="10.00">+ MissingOption()</text>
<text text-anchor="start" x="8" y="-29.5" font-family="Helvetica,sans-Serif" font-size="10.00">+ MultiOptionPolicy()</text>
<text text-anchor="start" x="8" y="-18.5" font-family="Helvetica,sans-Serif" font-size="10.00"># IncorrectConstruction()</text>
<text text-anchor="start" x="8" y="-7.5" font-family="Helvetica,sans-Serif" font-size="10.00"># IncorrectConstruction()</text>
</a>
</g>
</g>
<!-- Node2 -->
<g id="node2" class="node">
<title>Node2</title>
<g id="a_node2"><a xlink:href="class_c_l_i_1_1_construction_error.html" target="_top" xlink:title="Construction errors (not in parsing)">
<polygon fill="white" stroke="black" points="10,-215.5 10,-305.5 132,-305.5 132,-215.5 10,-215.5"/>
<text text-anchor="middle" x="71" y="-293.5" font-family="Helvetica,sans-Serif" font-size="10.00">CLI::ConstructionError</text>
<polyline fill="none" stroke="black" points="10,-286.5 132,-286.5 "/>
<text text-anchor="middle" x="71" y="-274.5" font-family="Helvetica,sans-Serif" font-size="10.00"> </text>
<polyline fill="none" stroke="black" points="10,-267.5 132,-267.5 "/>
<text text-anchor="start" x="18" y="-255.5" font-family="Helvetica,sans-Serif" font-size="10.00">+ ConstructionError()</text>
<text text-anchor="start" x="18" y="-244.5" font-family="Helvetica,sans-Serif" font-size="10.00">+ ConstructionError()</text>
<text text-anchor="start" x="18" y="-233.5" font-family="Helvetica,sans-Serif" font-size="10.00"># ConstructionError()</text>
<text text-anchor="start" x="18" y="-222.5" font-family="Helvetica,sans-Serif" font-size="10.00"># ConstructionError()</text>
</a>
</g>
</g>
<!-- Node2&#45;&gt;Node1 -->
<g id="edge1" class="edge">
<title>Node2&#45;&gt;Node1</title>
<path fill="none" stroke="midnightblue" d="M71,-205.06C71,-196.63 71,-187.73 71,-178.78"/>
<polygon fill="none" stroke="midnightblue" points="67.5,-205.1 71,-215.1 74.5,-205.1 67.5,-205.1"/>
</g>
<!-- Node3 -->
<g id="node3" class="node">
<title>Node3</title>
<g id="a_node3"><a xlink:href="class_c_l_i_1_1_error.html" target="_top" xlink:title="All errors derive from this one.">
<polygon fill="white" stroke="black" points="18,-342.5 18,-443.5 124,-443.5 124,-342.5 18,-342.5"/>
<text text-anchor="middle" x="71" y="-431.5" font-family="Helvetica,sans-Serif" font-size="10.00">CLI::Error</text>
<polyline fill="none" stroke="black" points="18,-424.5 124,-424.5 "/>
<text text-anchor="start" x="26" y="-412.5" font-family="Helvetica,sans-Serif" font-size="10.00">&#45; actual_exit_code</text>
<text text-anchor="start" x="26" y="-401.5" font-family="Helvetica,sans-Serif" font-size="10.00">&#45; error_name</text>
<polyline fill="none" stroke="black" points="18,-394.5 124,-394.5 "/>
<text text-anchor="start" x="26" y="-382.5" font-family="Helvetica,sans-Serif" font-size="10.00">+ get_exit_code()</text>
<text text-anchor="start" x="26" y="-371.5" font-family="Helvetica,sans-Serif" font-size="10.00">+ get_name()</text>
<text text-anchor="start" x="26" y="-360.5" font-family="Helvetica,sans-Serif" font-size="10.00">+ Error()</text>
<text text-anchor="start" x="26" y="-349.5" font-family="Helvetica,sans-Serif" font-size="10.00">+ Error()</text>
</a>
</g>
</g>
<!-- Node3&#45;&gt;Node2 -->
<g id="edge2" class="edge">
<title>Node3&#45;&gt;Node2</title>
<path fill="none" stroke="midnightblue" d="M71,-332.23C71,-323.24 71,-314.1 71,-305.52"/>
<polygon fill="none" stroke="midnightblue" points="67.5,-332.29 71,-342.29 74.5,-332.29 67.5,-332.29"/>
</g>
<!-- Node4 -->
<g id="node4" class="node">
<title>Node4</title>
<g id="a_node4"><a xlink:title=" ">
<polygon fill="white" stroke="#bfbfbf" points="19,-480.5 19,-537.5 123,-537.5 123,-480.5 19,-480.5"/>
<text text-anchor="middle" x="71" y="-525.5" font-family="Helvetica,sans-Serif" font-size="10.00">std::runtime_error</text>
<polyline fill="none" stroke="#bfbfbf" points="19,-518.5 123,-518.5 "/>
<text text-anchor="middle" x="71" y="-506.5" font-family="Helvetica,sans-Serif" font-size="10.00"> </text>
<polyline fill="none" stroke="#bfbfbf" points="19,-499.5 123,-499.5 "/>
<text text-anchor="middle" x="71" y="-487.5" font-family="Helvetica,sans-Serif" font-size="10.00"> </text>
</a>
</g>
</g>
<!-- Node4&#45;&gt;Node3 -->
<g id="edge3" class="edge">
<title>Node4&#45;&gt;Node3</title>
<path fill="none" stroke="midnightblue" d="M71,-470.35C71,-461.8 71,-452.58 71,-443.61"/>
<polygon fill="none" stroke="midnightblue" points="67.5,-470.4 71,-480.4 74.5,-470.4 67.5,-470.4"/>
</g>
</g>
</svg>
