<?xml version="1.0" encoding="UTF-8" standalone="no"?>
<!DOCTYPE svg PUBLIC "-//W3C//DTD SVG 1.1//EN"
 "http://www.w3.org/Graphics/SVG/1.1/DTD/svg11.dtd">
<!-- Generated by graphviz version 2.43.0 (0)
 -->
<!-- Title: core::eventreceiver::AcceptEventReceiver::timeoutEvent Pages: 1 -->
<svg width="1105pt" height="198pt"
 viewBox="0.00 0.00 1105.00 198.00" xmlns="http://www.w3.org/2000/svg" xmlns:xlink="http://www.w3.org/1999/xlink">
<g id="graph0" class="graph" transform="scale(1 1) rotate(0) translate(4 194)">
<title>core::eventreceiver::AcceptEventReceiver::timeoutEvent</title>
<polygon fill="white" stroke="transparent" points="-4,4 -4,-194 1101,-194 1101,4 -4,4"/>
<!-- Node1 -->
<g id="node1" class="node">
<title>Node1</title>
<g id="a_node1"><a xlink:title=" ">
<polygon fill="#bfbfbf" stroke="black" points="0,-88 0,-129 126,-129 126,-88 0,-88"/>
<text text-anchor="start" x="8" y="-117" font-family="Helvetica,sans-Serif" font-size="10.00">core::eventreceiver</text>
<text text-anchor="start" x="8" y="-106" font-family="Helvetica,sans-Serif" font-size="10.00">::AcceptEventReceiver</text>
<text text-anchor="middle" x="63" y="-95" font-family="Helvetica,sans-Serif" font-size="10.00">::timeoutEvent</text>
</a>
</g>
</g>
<!-- Node2 -->
<g id="node2" class="node">
<title>Node2</title>
<g id="a_node2"><a xlink:href="classcore_1_1eventreceiver_1_1_accept_event_receiver.html#a0cf406f9dd90b76f2d9b7baa8ed96e87" target="_top" xlink:title=" ">
<polygon fill="white" stroke="black" points="162,-88 162,-129 288,-129 288,-88 162,-88"/>
<text text-anchor="start" x="170" y="-117" font-family="Helvetica,sans-Serif" font-size="10.00">core::eventreceiver</text>
<text text-anchor="start" x="170" y="-106" font-family="Helvetica,sans-Serif" font-size="10.00">::AcceptEventReceiver</text>
<text text-anchor="middle" x="225" y="-95" font-family="Helvetica,sans-Serif" font-size="10.00">::acceptTimeout</text>
</a>
</g>
</g>
<!-- Node1&#45;&gt;Node2 -->
<g id="edge1" class="edge">
<title>Node1&#45;&gt;Node2</title>
<path fill="none" stroke="midnightblue" d="M126.32,-108.5C134.62,-108.5 143.18,-108.5 151.63,-108.5"/>
<polygon fill="midnightblue" stroke="midnightblue" points="151.85,-112 161.85,-108.5 151.85,-105 151.85,-112"/>
</g>
<!-- Node3 -->
<g id="node3" class="node">
<title>Node3</title>
<g id="a_node3"><a xlink:href="classcore_1_1_descriptor_event_receiver.html#a4ab422ce6622a29cee38a0108ee6ccc1" target="_top" xlink:title=" ">
<polygon fill="white" stroke="black" points="324,-93.5 324,-123.5 488,-123.5 488,-93.5 324,-93.5"/>
<text text-anchor="start" x="332" y="-111.5" font-family="Helvetica,sans-Serif" font-size="10.00">core::DescriptorEventReceiver</text>
<text text-anchor="middle" x="406" y="-100.5" font-family="Helvetica,sans-Serif" font-size="10.00">::disable</text>
</a>
</g>
</g>
<!-- Node2&#45;&gt;Node3 -->
<g id="edge2" class="edge">
<title>Node2&#45;&gt;Node3</title>
<path fill="none" stroke="midnightblue" d="M288.1,-108.5C296.38,-108.5 305,-108.5 313.64,-108.5"/>
<polygon fill="midnightblue" stroke="midnightblue" points="313.78,-112 323.78,-108.5 313.78,-105 313.78,-112"/>
</g>
<!-- Node4 -->
<g id="node4" class="node">
<title>Node4</title>
<g id="a_node4"><a xlink:href="classcore_1_1_descriptor_event_publisher.html#a998d681666ff72ed73cf0799ff4aca77" target="_top" xlink:title=" ">
<polygon fill="white" stroke="black" points="524,-159.5 524,-189.5 691,-189.5 691,-159.5 524,-159.5"/>
<text text-anchor="start" x="532" y="-177.5" font-family="Helvetica,sans-Serif" font-size="10.00">core::DescriptorEventPublisher</text>
<text text-anchor="middle" x="607.5" y="-166.5" font-family="Helvetica,sans-Serif" font-size="10.00">::disable</text>
</a>
</g>
</g>
<!-- Node3&#45;&gt;Node4 -->
<g id="edge3" class="edge">
<title>Node3&#45;&gt;Node4</title>
<path fill="none" stroke="midnightblue" d="M452.77,-123.64C482.04,-133.33 520.19,-145.95 551.16,-156.19"/>
<polygon fill="midnightblue" stroke="midnightblue" points="550.35,-159.61 560.94,-159.43 552.55,-152.96 550.35,-159.61"/>
</g>
<!-- Node5 -->
<g id="node5" class="node">
<title>Node5</title>
<g id="a_node5"><a xlink:href="classcore_1_1_event_receiver.html#aac62114d8385172bb2c536774a7dfcf7" target="_top" xlink:title=" ">
<polygon fill="white" stroke="black" points="753.5,-101.5 753.5,-131.5 867.5,-131.5 867.5,-101.5 753.5,-101.5"/>
<text text-anchor="start" x="761.5" y="-119.5" font-family="Helvetica,sans-Serif" font-size="10.00">core::EventReceiver</text>
<text text-anchor="middle" x="810.5" y="-108.5" font-family="Helvetica,sans-Serif" font-size="10.00">::getName</text>
</a>
</g>
</g>
<!-- Node3&#45;&gt;Node5 -->
<g id="edge4" class="edge">
<title>Node3&#45;&gt;Node5</title>
<path fill="none" stroke="midnightblue" d="M488.19,-110.67C500.2,-110.96 512.42,-111.25 524,-111.5 599.16,-113.12 685.45,-114.58 743.32,-115.49"/>
<polygon fill="midnightblue" stroke="midnightblue" points="743.37,-118.99 753.43,-115.65 743.48,-112 743.37,-118.99"/>
</g>
<!-- Node7 -->
<g id="node7" class="node">
<title>Node7</title>
<g id="a_node7"><a xlink:href="classcore_1_1_descriptor_event_receiver.html#ac80fc901f941c059a6ebdb28147b25a2" target="_top" xlink:title=" ">
<polygon fill="white" stroke="black" points="525.5,-71.5 525.5,-101.5 689.5,-101.5 689.5,-71.5 525.5,-71.5"/>
<text text-anchor="start" x="533.5" y="-89.5" font-family="Helvetica,sans-Serif" font-size="10.00">core::DescriptorEventReceiver</text>
<text text-anchor="middle" x="607.5" y="-78.5" font-family="Helvetica,sans-Serif" font-size="10.00">::isSuspended</text>
</a>
</g>
</g>
<!-- Node3&#45;&gt;Node7 -->
<g id="edge6" class="edge">
<title>Node3&#45;&gt;Node7</title>
<path fill="none" stroke="midnightblue" d="M488.14,-99.55C497.08,-98.57 506.22,-97.56 515.27,-96.56"/>
<polygon fill="midnightblue" stroke="midnightblue" points="515.87,-100.02 525.43,-95.44 515.1,-93.06 515.87,-100.02"/>
</g>
<!-- Node8 -->
<g id="node8" class="node">
<title>Node8</title>
<g id="a_node8"><a xlink:href="classcore_1_1_descriptor_event_receiver.html#aab5e466759c83194c5bc4b41f1a33103" target="_top" xlink:title=" ">
<polygon fill="white" stroke="black" points="525.5,-22.5 525.5,-52.5 689.5,-52.5 689.5,-22.5 525.5,-22.5"/>
<text text-anchor="start" x="533.5" y="-40.5" font-family="Helvetica,sans-Serif" font-size="10.00">core::DescriptorEventReceiver</text>
<text text-anchor="middle" x="607.5" y="-29.5" font-family="Helvetica,sans-Serif" font-size="10.00">::suspend</text>
</a>
</g>
</g>
<!-- Node3&#45;&gt;Node8 -->
<g id="edge7" class="edge">
<title>Node3&#45;&gt;Node8</title>
<path fill="none" stroke="midnightblue" d="M443.08,-93.45C466.07,-84.07 496.58,-72.03 524,-62.5 530.71,-60.17 537.76,-57.84 544.8,-55.6"/>
<polygon fill="midnightblue" stroke="midnightblue" points="545.87,-58.94 554.36,-52.6 543.77,-52.26 545.87,-58.94"/>
</g>
<!-- Node6 -->
<g id="node6" class="node">
<title>Node6</title>
<g id="a_node6"><a xlink:href="classcore_1_1_event.html#add8f12b93d4937dcd6a4863cbe4fdb69" target="_top" xlink:title=" ">
<polygon fill="white" stroke="black" points="952.5,-107 952.5,-126 1074.5,-126 1074.5,-107 952.5,-107"/>
<text text-anchor="middle" x="1013.5" y="-114" font-family="Helvetica,sans-Serif" font-size="10.00">core::Event::getName</text>
</a>
</g>
</g>
<!-- Node5&#45;&gt;Node6 -->
<g id="edge5" class="edge">
<title>Node5&#45;&gt;Node6</title>
<path fill="none" stroke="midnightblue" d="M867.76,-116.5C890.82,-116.5 917.78,-116.5 942.13,-116.5"/>
<polygon fill="midnightblue" stroke="midnightblue" points="942.39,-120 952.39,-116.5 942.39,-113 942.39,-120"/>
</g>
<!-- Node8&#45;&gt;Node5 -->
<g id="edge8" class="edge">
<title>Node8&#45;&gt;Node5</title>
<path fill="none" stroke="midnightblue" d="M662.11,-52.61C671.8,-55.66 681.76,-59.01 691,-62.5 694.96,-63.99 734.82,-82.21 767.23,-97.08"/>
<polygon fill="midnightblue" stroke="midnightblue" points="766.02,-100.38 776.57,-101.36 768.94,-94.01 766.02,-100.38"/>
</g>
<!-- Node9 -->
<g id="node9" class="node">
<title>Node9</title>
<g id="a_node9"><a xlink:href="classcore_1_1_observer.html#a12bf1ddfdb90f05f28d16c09ce0658f8" target="_top" xlink:title=" ">
<polygon fill="white" stroke="black" points="736,-50 736,-69 885,-69 885,-50 736,-50"/>
<text text-anchor="middle" x="810.5" y="-57" font-family="Helvetica,sans-Serif" font-size="10.00">core::Observer::isObserved</text>
</a>
</g>
</g>
<!-- Node8&#45;&gt;Node9 -->
<g id="edge9" class="edge">
<title>Node8&#45;&gt;Node9</title>
<path fill="none" stroke="midnightblue" d="M689.68,-46.38C701.59,-47.69 713.89,-49.03 725.85,-50.34"/>
<polygon fill="midnightblue" stroke="midnightblue" points="725.49,-53.83 735.81,-51.43 726.25,-46.87 725.49,-53.83"/>
</g>
<!-- Node10 -->
<g id="node10" class="node">
<title>Node10</title>
<g id="a_node10"><a xlink:href="classcore_1_1_descriptor_event_publisher.html#ac1bfb115c6aba58d380862a43db457e8" target="_top" xlink:title=" ">
<polygon fill="white" stroke="black" points="727,-0.5 727,-30.5 894,-30.5 894,-0.5 727,-0.5"/>
<text text-anchor="start" x="735" y="-18.5" font-family="Helvetica,sans-Serif" font-size="10.00">core::DescriptorEventPublisher</text>
<text text-anchor="middle" x="810.5" y="-7.5" font-family="Helvetica,sans-Serif" font-size="10.00">::suspend</text>
</a>
</g>
</g>
<!-- Node8&#45;&gt;Node10 -->
<g id="edge10" class="edge">
<title>Node8&#45;&gt;Node10</title>
<path fill="none" stroke="midnightblue" d="M689.68,-28.62C698.54,-27.64 707.62,-26.65 716.61,-25.67"/>
<polygon fill="midnightblue" stroke="midnightblue" points="717.15,-29.13 726.71,-24.56 716.39,-22.17 717.15,-29.13"/>
</g>
<!-- Node11 -->
<g id="node11" class="node">
<title>Node11</title>
<g id="a_node11"><a xlink:href="classcore_1_1_descriptor_event_publisher.html#a5e0e1a78a4bae48537ba6d0425a7c1cf" target="_top" xlink:title=" ">
<polygon fill="white" stroke="black" points="930,-0.5 930,-30.5 1097,-30.5 1097,-0.5 930,-0.5"/>
<text text-anchor="start" x="938" y="-18.5" font-family="Helvetica,sans-Serif" font-size="10.00">core::DescriptorEventPublisher</text>
<text text-anchor="middle" x="1013.5" y="-7.5" font-family="Helvetica,sans-Serif" font-size="10.00">::muxOff</text>
</a>
</g>
</g>
<!-- Node10&#45;&gt;Node11 -->
<g id="edge11" class="edge">
<title>Node10&#45;&gt;Node11</title>
<path fill="none" stroke="midnightblue" d="M894.12,-15.5C902.61,-15.5 911.27,-15.5 919.85,-15.5"/>
<polygon fill="midnightblue" stroke="midnightblue" points="919.87,-19 929.87,-15.5 919.87,-12 919.87,-19"/>
</g>
</g>
</svg>
