<?xml version="1.0" encoding="UTF-8" standalone="no"?>
<!DOCTYPE svg PUBLIC "-//W3C//DTD SVG 1.1//EN"
 "http://www.w3.org/Graphics/SVG/1.1/DTD/svg11.dtd">
<!-- Generated by graphviz version 2.43.0 (0)
 -->
<!-- Title: core::socket::stream::SocketConnection::close Pages: 1 -->
<svg width="929pt" height="269pt"
 viewBox="0.00 0.00 929.00 269.00" xmlns="http://www.w3.org/2000/svg" xmlns:xlink="http://www.w3.org/1999/xlink">
<g id="graph0" class="graph" transform="scale(1 1) rotate(0) translate(4 265)">
<title>core::socket::stream::SocketConnection::close</title>
<polygon fill="white" stroke="transparent" points="-4,4 -4,-265 925,-265 925,4 -4,4"/>
<!-- Node1 -->
<g id="node1" class="node">
<title>Node1</title>
<g id="a_node1"><a xlink:title=" ">
<polygon fill="#bfbfbf" stroke="black" points="0,-66.5 0,-96.5 141,-96.5 141,-66.5 0,-66.5"/>
<text text-anchor="start" x="8" y="-84.5" font-family="Helvetica,sans-Serif" font-size="10.00">core::socket::stream</text>
<text text-anchor="middle" x="70.5" y="-73.5" font-family="Helvetica,sans-Serif" font-size="10.00">::SocketConnection::close</text>
</a>
</g>
</g>
<!-- Node2 -->
<g id="node2" class="node">
<title>Node2</title>
<g id="a_node2"><a xlink:href="classcore_1_1_event_receiver.html#a8b54c1084463cb39c57d99ae533b218e" target="_top" xlink:title=" ">
<polygon fill="white" stroke="black" points="177,-66.5 177,-96.5 291,-96.5 291,-66.5 177,-66.5"/>
<text text-anchor="start" x="185" y="-84.5" font-family="Helvetica,sans-Serif" font-size="10.00">core::EventReceiver</text>
<text text-anchor="middle" x="234" y="-73.5" font-family="Helvetica,sans-Serif" font-size="10.00">::disable</text>
</a>
</g>
</g>
<!-- Node1&#45;&gt;Node2 -->
<g id="edge1" class="edge">
<title>Node1&#45;&gt;Node2</title>
<path fill="none" stroke="midnightblue" d="M141.4,-81.5C149.76,-81.5 158.28,-81.5 166.59,-81.5"/>
<polygon fill="midnightblue" stroke="midnightblue" points="166.61,-85 176.61,-81.5 166.61,-78 166.61,-85"/>
</g>
<!-- Node3 -->
<g id="node3" class="node">
<title>Node3</title>
<g id="a_node3"><a xlink:href="classcore_1_1_descriptor_event_dispatcher.html#a53fb2e428ca488b82ed90521385a4ec1" target="_top" xlink:title=" ">
<polygon fill="white" stroke="black" points="327,-137.5 327,-167.5 501,-167.5 501,-137.5 327,-137.5"/>
<text text-anchor="start" x="335" y="-155.5" font-family="Helvetica,sans-Serif" font-size="10.00">core::DescriptorEventDispatcher</text>
<text text-anchor="middle" x="414" y="-144.5" font-family="Helvetica,sans-Serif" font-size="10.00">::disable</text>
</a>
</g>
</g>
<!-- Node2&#45;&gt;Node3 -->
<g id="edge2" class="edge">
<title>Node2&#45;&gt;Node3</title>
<path fill="none" stroke="midnightblue" d="M272.75,-96.56C299.89,-107.38 336.67,-122.05 365.76,-133.66"/>
<polygon fill="midnightblue" stroke="midnightblue" points="364.72,-137.01 375.31,-137.46 367.31,-130.51 364.72,-137.01"/>
</g>
<!-- Node9 -->
<g id="node9" class="node">
<title>Node9</title>
<g id="a_node9"><a xlink:href="classcore_1_1_event_receiver.html#a3c6fec4001aa28b328c23573c70ad159" target="_top" xlink:title=" ">
<polygon fill="white" stroke="black" points="777,-0.5 777,-30.5 891,-30.5 891,-0.5 777,-0.5"/>
<text text-anchor="start" x="785" y="-18.5" font-family="Helvetica,sans-Serif" font-size="10.00">core::EventReceiver</text>
<text text-anchor="middle" x="834" y="-7.5" font-family="Helvetica,sans-Serif" font-size="10.00">::isSuspended</text>
</a>
</g>
</g>
<!-- Node2&#45;&gt;Node9 -->
<g id="edge8" class="edge">
<title>Node2&#45;&gt;Node9</title>
<path fill="none" stroke="midnightblue" d="M287.25,-66.46C300.16,-63.13 314.01,-59.89 327,-57.5 482.79,-28.81 669.19,-19.7 766.47,-16.82"/>
<polygon fill="midnightblue" stroke="midnightblue" points="766.84,-20.31 776.74,-16.53 766.64,-13.32 766.84,-20.31"/>
</g>
<!-- Node10 -->
<g id="node10" class="node">
<title>Node10</title>
<g id="a_node10"><a xlink:href="classcore_1_1_event_receiver.html#ae460e190a6588ac04bcfc6b0d0777376" target="_top" xlink:title=" ">
<polygon fill="white" stroke="black" points="357,-66.5 357,-96.5 471,-96.5 471,-66.5 357,-66.5"/>
<text text-anchor="start" x="365" y="-84.5" font-family="Helvetica,sans-Serif" font-size="10.00">core::EventReceiver</text>
<text text-anchor="middle" x="414" y="-73.5" font-family="Helvetica,sans-Serif" font-size="10.00">::suspend</text>
</a>
</g>
</g>
<!-- Node2&#45;&gt;Node10 -->
<g id="edge9" class="edge">
<title>Node2&#45;&gt;Node10</title>
<path fill="none" stroke="midnightblue" d="M291.32,-81.5C308.86,-81.5 328.36,-81.5 346.52,-81.5"/>
<polygon fill="midnightblue" stroke="midnightblue" points="346.74,-85 356.74,-81.5 346.74,-78 346.74,-85"/>
</g>
<!-- Node4 -->
<g id="node4" class="node">
<title>Node4</title>
<g id="a_node4"><a xlink:href="classcore_1_1_event_receiver.html#a0eb8167b9b7598025fbe793edc09886a" target="_top" xlink:title=" ">
<polygon fill="white" stroke="black" points="567,-230.5 567,-260.5 681,-260.5 681,-230.5 567,-230.5"/>
<text text-anchor="start" x="575" y="-248.5" font-family="Helvetica,sans-Serif" font-size="10.00">core::EventReceiver</text>
<text text-anchor="middle" x="624" y="-237.5" font-family="Helvetica,sans-Serif" font-size="10.00">::disabled</text>
</a>
</g>
</g>
<!-- Node3&#45;&gt;Node4 -->
<g id="edge3" class="edge">
<title>Node3&#45;&gt;Node4</title>
<path fill="none" stroke="midnightblue" d="M437.98,-167.75C461.89,-183.06 500.82,-206.48 537,-221.5 543.35,-224.14 550.08,-226.58 556.87,-228.81"/>
<polygon fill="midnightblue" stroke="midnightblue" points="556.23,-232.28 566.82,-231.94 558.33,-225.61 556.23,-232.28"/>
</g>
<!-- Node6 -->
<g id="node6" class="node">
<title>Node6</title>
<g id="a_node6"><a xlink:href="classcore_1_1_observer.html#a942a6bb4857e6ec986d0a366b2aaea26" target="_top" xlink:title=" ">
<polygon fill="white" stroke="black" points="539.5,-181.5 539.5,-211.5 708.5,-211.5 708.5,-181.5 539.5,-181.5"/>
<text text-anchor="start" x="547.5" y="-199.5" font-family="Helvetica,sans-Serif" font-size="10.00">core::Observer::getObservation</text>
<text text-anchor="middle" x="624" y="-188.5" font-family="Helvetica,sans-Serif" font-size="10.00">Counter</text>
</a>
</g>
</g>
<!-- Node3&#45;&gt;Node6 -->
<g id="edge5" class="edge">
<title>Node3&#45;&gt;Node6</title>
<path fill="none" stroke="midnightblue" d="M486,-167.52C504.06,-171.34 523.59,-175.47 542.1,-179.39"/>
<polygon fill="midnightblue" stroke="midnightblue" points="541.46,-182.83 551.97,-181.47 542.91,-175.98 541.46,-182.83"/>
</g>
<!-- Node7 -->
<g id="node7" class="node">
<title>Node7</title>
<g id="a_node7"><a xlink:href="classcore_1_1_event_receiver.html#a945c04c8e000b708049e9422960e9739" target="_top" xlink:title=" ">
<polygon fill="white" stroke="black" points="777,-118.5 777,-148.5 891,-148.5 891,-118.5 777,-118.5"/>
<text text-anchor="start" x="785" y="-136.5" font-family="Helvetica,sans-Serif" font-size="10.00">core::EventReceiver</text>
<text text-anchor="middle" x="834" y="-125.5" font-family="Helvetica,sans-Serif" font-size="10.00">::getRegisteredFd</text>
</a>
</g>
</g>
<!-- Node3&#45;&gt;Node7 -->
<g id="edge6" class="edge">
<title>Node3&#45;&gt;Node7</title>
<path fill="none" stroke="midnightblue" d="M501.1,-148.59C579.8,-145.01 694.56,-139.79 766.44,-136.53"/>
<polygon fill="midnightblue" stroke="midnightblue" points="766.9,-140.01 776.73,-136.06 766.58,-133.02 766.9,-140.01"/>
</g>
<!-- Node8 -->
<g id="node8" class="node">
<title>Node8</title>
<g id="a_node8"><a xlink:href="classcore_1_1_event_receiver.html#a677995a821e9226e5dcbf92182884477" target="_top" xlink:title=" ">
<polygon fill="white" stroke="black" points="567,-93.5 567,-123.5 681,-123.5 681,-93.5 567,-93.5"/>
<text text-anchor="start" x="575" y="-111.5" font-family="Helvetica,sans-Serif" font-size="10.00">core::EventReceiver</text>
<text text-anchor="middle" x="624" y="-100.5" font-family="Helvetica,sans-Serif" font-size="10.00">::isEnabled</text>
</a>
</g>
</g>
<!-- Node3&#45;&gt;Node8 -->
<g id="edge7" class="edge">
<title>Node3&#45;&gt;Node8</title>
<path fill="none" stroke="midnightblue" d="M486,-137.48C508.96,-132.62 534.32,-127.26 556.91,-122.48"/>
<polygon fill="midnightblue" stroke="midnightblue" points="557.69,-125.89 566.75,-120.4 556.24,-119.05 557.69,-125.89"/>
</g>
<!-- Node5 -->
<g id="node5" class="node">
<title>Node5</title>
<g id="a_node5"><a xlink:href="classcore_1_1_observer.html#a00846551b99f8dbde144dd8b7a0a2aef" target="_top" xlink:title=" ">
<polygon fill="white" stroke="black" points="758,-236 758,-255 910,-255 910,-236 758,-236"/>
<text text-anchor="middle" x="834" y="-243" font-family="Helvetica,sans-Serif" font-size="10.00">core::Observer::unObserved</text>
</a>
</g>
</g>
<!-- Node4&#45;&gt;Node5 -->
<g id="edge4" class="edge">
<title>Node4&#45;&gt;Node5</title>
<path fill="none" stroke="midnightblue" d="M681.01,-245.5C701.47,-245.5 725.09,-245.5 747.52,-245.5"/>
<polygon fill="midnightblue" stroke="midnightblue" points="747.73,-249 757.73,-245.5 747.73,-242 747.73,-249"/>
</g>
<!-- Node10&#45;&gt;Node8 -->
<g id="edge10" class="edge">
<title>Node10&#45;&gt;Node8</title>
<path fill="none" stroke="midnightblue" d="M471.01,-88.77C497.48,-92.21 529.26,-96.33 556.91,-99.92"/>
<polygon fill="midnightblue" stroke="midnightblue" points="556.52,-103.4 566.89,-101.22 557.42,-96.46 556.52,-103.4"/>
</g>
<!-- Node11 -->
<g id="node11" class="node">
<title>Node11</title>
<g id="a_node11"><a xlink:href="classcore_1_1_descriptor_event_dispatcher.html#aaebce3510314723cb81ae2d51f1ddaf0" target="_top" xlink:title=" ">
<polygon fill="white" stroke="black" points="537,-44.5 537,-74.5 711,-74.5 711,-44.5 537,-44.5"/>
<text text-anchor="start" x="545" y="-62.5" font-family="Helvetica,sans-Serif" font-size="10.00">core::DescriptorEventDispatcher</text>
<text text-anchor="middle" x="624" y="-51.5" font-family="Helvetica,sans-Serif" font-size="10.00">::suspend</text>
</a>
</g>
</g>
<!-- Node10&#45;&gt;Node11 -->
<g id="edge11" class="edge">
<title>Node10&#45;&gt;Node11</title>
<path fill="none" stroke="midnightblue" d="M471.01,-75.58C488.23,-73.75 507.69,-71.7 526.8,-69.68"/>
<polygon fill="midnightblue" stroke="midnightblue" points="527.17,-73.16 536.74,-68.62 526.43,-66.19 527.17,-73.16"/>
</g>
<!-- Node11&#45;&gt;Node7 -->
<g id="edge12" class="edge">
<title>Node11&#45;&gt;Node7</title>
<path fill="none" stroke="midnightblue" d="M679.85,-74.56C690.25,-77.67 701.01,-81.05 711,-84.5 737.05,-93.49 765.67,-104.9 788.64,-114.45"/>
<polygon fill="midnightblue" stroke="midnightblue" points="787.54,-117.78 798.11,-118.42 790.24,-111.33 787.54,-117.78"/>
</g>
<!-- Node11&#45;&gt;Node9 -->
<g id="edge13" class="edge">
<title>Node11&#45;&gt;Node9</title>
<path fill="none" stroke="midnightblue" d="M696,-44.48C718.96,-39.62 744.32,-34.26 766.91,-29.48"/>
<polygon fill="midnightblue" stroke="midnightblue" points="767.69,-32.89 776.75,-27.4 766.24,-26.05 767.69,-32.89"/>
</g>
<!-- Node12 -->
<g id="node12" class="node">
<title>Node12</title>
<g id="a_node12"><a xlink:href="classcore_1_1_descriptor_event_dispatcher.html#adea584c2b0119033735c5013f4a0b424" target="_top" xlink:title=" ">
<polygon fill="white" stroke="black" points="747,-49.5 747,-79.5 921,-79.5 921,-49.5 747,-49.5"/>
<text text-anchor="start" x="755" y="-67.5" font-family="Helvetica,sans-Serif" font-size="10.00">core::DescriptorEventDispatcher</text>
<text text-anchor="middle" x="834" y="-56.5" font-family="Helvetica,sans-Serif" font-size="10.00">::modOff</text>
</a>
</g>
</g>
<!-- Node11&#45;&gt;Node12 -->
<g id="edge14" class="edge">
<title>Node11&#45;&gt;Node12</title>
<path fill="none" stroke="midnightblue" d="M711.1,-61.57C719.62,-61.77 728.3,-61.98 736.91,-62.19"/>
<polygon fill="midnightblue" stroke="midnightblue" points="736.88,-65.69 746.96,-62.43 737.05,-58.69 736.88,-65.69"/>
</g>
</g>
</svg>
