<?xml version="1.0" encoding="UTF-8" standalone="no"?>
<!DOCTYPE svg PUBLIC "-//W3C//DTD SVG 1.1//EN"
 "http://www.w3.org/Graphics/SVG/1.1/DTD/svg11.dtd">
<!-- Generated by graphviz version 2.43.0 (0)
 -->
<!-- Title: core::eventreceiver::ReadEventReceiver::readTimeout Pages: 1 -->
<svg width="280pt" height="50pt"
 viewBox="0.00 0.00 280.00 50.00" xmlns="http://www.w3.org/2000/svg" xmlns:xlink="http://www.w3.org/1999/xlink">
<g id="graph0" class="graph" transform="scale(1 1) rotate(0) translate(4 46)">
<title>core::eventreceiver::ReadEventReceiver::readTimeout</title>
<polygon fill="white" stroke="transparent" points="-4,4 -4,-46 276,-46 276,4 -4,4"/>
<!-- Node1 -->
<g id="node1" class="node">
<title>Node1</title>
<g id="a_node1"><a xlink:title=" ">
<polygon fill="#bfbfbf" stroke="black" points="154,-0.5 154,-41.5 272,-41.5 272,-0.5 154,-0.5"/>
<text text-anchor="start" x="162" y="-29.5" font-family="Helvetica,sans-Serif" font-size="10.00">core::eventreceiver</text>
<text text-anchor="start" x="162" y="-18.5" font-family="Helvetica,sans-Serif" font-size="10.00">::ReadEventReceiver</text>
<text text-anchor="middle" x="213" y="-7.5" font-family="Helvetica,sans-Serif" font-size="10.00">::readTimeout</text>
</a>
</g>
</g>
<!-- Node2 -->
<g id="node2" class="node">
<title>Node2</title>
<g id="a_node2"><a xlink:href="classcore_1_1eventreceiver_1_1_read_event_receiver.html#ab68961c7203875b4b5dda79b9a74a5a7" target="_top" xlink:title=" ">
<polygon fill="white" stroke="black" points="0,-0.5 0,-41.5 118,-41.5 118,-0.5 0,-0.5"/>
<text text-anchor="start" x="8" y="-29.5" font-family="Helvetica,sans-Serif" font-size="10.00">core::eventreceiver</text>
<text text-anchor="start" x="8" y="-18.5" font-family="Helvetica,sans-Serif" font-size="10.00">::ReadEventReceiver</text>
<text text-anchor="middle" x="59" y="-7.5" font-family="Helvetica,sans-Serif" font-size="10.00">::timeoutEvent</text>
</a>
</g>
</g>
<!-- Node1&#45;&gt;Node2 -->
<g id="edge1" class="edge">
<title>Node1&#45;&gt;Node2</title>
<path fill="none" stroke="midnightblue" d="M143.46,-21C135.01,-21 126.45,-21 118.18,-21"/>
<polygon fill="midnightblue" stroke="midnightblue" points="143.67,-24.5 153.67,-21 143.67,-17.5 143.67,-24.5"/>
</g>
</g>
</svg>
