<?xml version="1.0" encoding="UTF-8" standalone="no"?>
<!DOCTYPE svg PUBLIC "-//W3C//DTD SVG 1.1//EN"
 "http://www.w3.org/Graphics/SVG/1.1/DTD/svg11.dtd">
<!-- Generated by graphviz version 2.43.0 (0)
 -->
<!-- Title: web::http::client::Request::enqueue Pages: 1 -->
<svg width="495pt" height="211pt"
 viewBox="0.00 0.00 495.00 211.00" xmlns="http://www.w3.org/2000/svg" xmlns:xlink="http://www.w3.org/1999/xlink">
<g id="graph0" class="graph" transform="scale(1 1) rotate(0) translate(4 207)">
<title>web::http::client::Request::enqueue</title>
<polygon fill="white" stroke="transparent" points="-4,4 -4,-207 491,-207 491,4 -4,4"/>
<!-- Node1 -->
<g id="node1" class="node">
<title>Node1</title>
<g id="a_node1"><a xlink:title=" ">
<polygon fill="#bfbfbf" stroke="black" points="0,-98.5 0,-128.5 96,-128.5 96,-98.5 0,-98.5"/>
<text text-anchor="start" x="8" y="-116.5" font-family="Helvetica,sans-Serif" font-size="10.00">web::http::client::</text>
<text text-anchor="middle" x="48" y="-105.5" font-family="Helvetica,sans-Serif" font-size="10.00">Request::enqueue</text>
</a>
</g>
</g>
<!-- Node2 -->
<g id="node2" class="node">
<title>Node2</title>
<g id="a_node2"><a xlink:href="classnet_1_1socket_1_1stream_1_1_socket_context.html#a2a7bb4fab1a6291070e7f038057ca319" target="_top" xlink:title=" ">
<polygon fill="white" stroke="black" points="167,-163.5 167,-193.5 284,-193.5 284,-163.5 167,-163.5"/>
<text text-anchor="start" x="175" y="-181.5" font-family="Helvetica,sans-Serif" font-size="10.00">net::socket::stream</text>
<text text-anchor="middle" x="225.5" y="-170.5" font-family="Helvetica,sans-Serif" font-size="10.00">::SocketContext::close</text>
</a>
</g>
</g>
<!-- Node1&#45;&gt;Node2 -->
<g id="edge1" class="edge">
<title>Node1&#45;&gt;Node2</title>
<path fill="none" stroke="midnightblue" d="M89.7,-128.58C114.87,-137.89 147.35,-149.93 174.13,-159.84"/>
<polygon fill="midnightblue" stroke="midnightblue" points="173.12,-163.2 183.71,-163.39 175.55,-156.64 173.12,-163.2"/>
</g>
<!-- Node4 -->
<g id="node4" class="node">
<title>Node4</title>
<g id="a_node4"><a xlink:href="classweb_1_1http_1_1client_1_1_request.html#af01f064a43a4ee0026ff35a265e8ada1" target="_top" xlink:title=" ">
<polygon fill="white" stroke="black" points="169.5,-98.5 169.5,-128.5 281.5,-128.5 281.5,-98.5 169.5,-98.5"/>
<text text-anchor="start" x="177.5" y="-116.5" font-family="Helvetica,sans-Serif" font-size="10.00">web::http::client::</text>
<text text-anchor="middle" x="225.5" y="-105.5" font-family="Helvetica,sans-Serif" font-size="10.00">Request::sendHeader</text>
</a>
</g>
</g>
<!-- Node1&#45;&gt;Node4 -->
<g id="edge3" class="edge">
<title>Node1&#45;&gt;Node4</title>
<path fill="none" stroke="midnightblue" d="M96.03,-107.44C115.4,-106.73 138.17,-106.57 159.12,-106.95"/>
<polygon fill="midnightblue" stroke="midnightblue" points="159.16,-110.45 169.24,-107.18 159.32,-103.45 159.16,-110.45"/>
</g>
<!-- Node7 -->
<g id="node7" class="node">
<title>Node7</title>
<g id="a_node7"><a xlink:href="classnet_1_1socket_1_1stream_1_1_socket_context.html#aa62f437fffcdea88263e87b6997ff85c" target="_top" xlink:title=" ">
<polygon fill="white" stroke="black" points="152.5,-49.5 152.5,-79.5 298.5,-79.5 298.5,-49.5 152.5,-49.5"/>
<text text-anchor="start" x="160.5" y="-67.5" font-family="Helvetica,sans-Serif" font-size="10.00">net::socket::stream</text>
<text text-anchor="middle" x="225.5" y="-56.5" font-family="Helvetica,sans-Serif" font-size="10.00">::SocketContext::sendToPeer</text>
</a>
</g>
</g>
<!-- Node1&#45;&gt;Node7 -->
<g id="edge7" class="edge">
<title>Node1&#45;&gt;Node7</title>
<path fill="none" stroke="midnightblue" d="M96.36,-99.65C108,-96.29 120.44,-92.73 132,-89.5 140.5,-87.12 149.44,-84.66 158.29,-82.24"/>
<polygon fill="midnightblue" stroke="midnightblue" points="159.47,-85.55 168.2,-79.55 157.64,-78.79 159.47,-85.55"/>
</g>
<!-- Node9 -->
<g id="node9" class="node">
<title>Node9</title>
<g id="a_node9"><a xlink:href="classweb_1_1http_1_1client_1_1_socket_context.html#ad66284ae319823f21331775bf1057507" target="_top" xlink:title=" ">
<polygon fill="white" stroke="black" points="132,-0.5 132,-30.5 319,-30.5 319,-0.5 132,-0.5"/>
<text text-anchor="start" x="140" y="-18.5" font-family="Helvetica,sans-Serif" font-size="10.00">web::http::client::</text>
<text text-anchor="middle" x="225.5" y="-7.5" font-family="Helvetica,sans-Serif" font-size="10.00">SocketContext::sendToPeerCompleted</text>
</a>
</g>
</g>
<!-- Node1&#45;&gt;Node9 -->
<g id="edge9" class="edge">
<title>Node1&#45;&gt;Node9</title>
<path fill="none" stroke="midnightblue" d="M61.81,-98.4C76.91,-81.56 103.57,-54.7 132,-39.5 135.52,-37.62 139.2,-35.88 142.97,-34.27"/>
<polygon fill="midnightblue" stroke="midnightblue" points="144.47,-37.44 152.5,-30.54 141.91,-30.92 144.47,-37.44"/>
</g>
<!-- Node3 -->
<g id="node3" class="node">
<title>Node3</title>
<g id="a_node3"><a xlink:href="classnet_1_1socket_1_1stream_1_1_socket_connection.html#ad405013ffe234fae23b0b2a6dfc9869c" target="_top" xlink:title=" ">
<polygon fill="white" stroke="black" points="355,-172.5 355,-202.5 487,-202.5 487,-172.5 355,-172.5"/>
<text text-anchor="start" x="363" y="-190.5" font-family="Helvetica,sans-Serif" font-size="10.00">net::socket::stream</text>
<text text-anchor="middle" x="421" y="-179.5" font-family="Helvetica,sans-Serif" font-size="10.00">::SocketConnection::close</text>
</a>
</g>
</g>
<!-- Node2&#45;&gt;Node3 -->
<g id="edge2" class="edge">
<title>Node2&#45;&gt;Node3</title>
<path fill="none" stroke="midnightblue" d="M284.03,-181.18C303.09,-182.06 324.6,-183.06 344.78,-184"/>
<polygon fill="midnightblue" stroke="midnightblue" points="344.73,-187.5 354.89,-184.47 345.06,-180.51 344.73,-187.5"/>
</g>
<!-- Node4&#45;&gt;Node1 -->
<g id="edge4" class="edge">
<title>Node4&#45;&gt;Node1</title>
<path fill="none" stroke="midnightblue" d="M169.24,-119.82C149.12,-120.38 126.34,-120.39 106.07,-119.87"/>
<polygon fill="midnightblue" stroke="midnightblue" points="106.13,-116.37 96.03,-119.56 105.92,-123.37 106.13,-116.37"/>
</g>
<!-- Node5 -->
<g id="node5" class="node">
<title>Node5</title>
<g id="a_node5"><a xlink:href="namespacehttputils.html#a01539c1af68e4d072d3507ae44c0b02a" target="_top" xlink:title=" ">
<polygon fill="white" stroke="black" points="365.5,-134 365.5,-153 476.5,-153 476.5,-134 365.5,-134"/>
<text text-anchor="middle" x="421" y="-141" font-family="Helvetica,sans-Serif" font-size="10.00">httputils::to_http_date</text>
</a>
</g>
</g>
<!-- Node4&#45;&gt;Node5 -->
<g id="edge5" class="edge">
<title>Node4&#45;&gt;Node5</title>
<path fill="none" stroke="midnightblue" d="M281.69,-122.06C304.66,-125.62 331.49,-129.78 355.37,-133.48"/>
<polygon fill="midnightblue" stroke="midnightblue" points="354.99,-136.96 365.41,-135.04 356.06,-130.04 354.99,-136.96"/>
</g>
<!-- Node6 -->
<g id="node6" class="node">
<title>Node6</title>
<g id="a_node6"><a xlink:href="namespacehttputils.html#a386473920285bded181a38ffac8fe833" target="_top" xlink:title=" ">
<polygon fill="white" stroke="black" points="369,-96 369,-115 473,-115 473,-96 369,-96"/>
<text text-anchor="middle" x="421" y="-103" font-family="Helvetica,sans-Serif" font-size="10.00">httputils::url_encode</text>
</a>
</g>
</g>
<!-- Node4&#45;&gt;Node6 -->
<g id="edge6" class="edge">
<title>Node4&#45;&gt;Node6</title>
<path fill="none" stroke="midnightblue" d="M281.69,-111.22C305.64,-110.23 333.78,-109.06 358.4,-108.05"/>
<polygon fill="midnightblue" stroke="midnightblue" points="358.87,-111.53 368.72,-107.62 358.58,-104.54 358.87,-111.53"/>
</g>
<!-- Node8 -->
<g id="node8" class="node">
<title>Node8</title>
<g id="a_node8"><a xlink:href="classnet_1_1socket_1_1stream_1_1_socket_connection.html#a4b368347b53c2853a0358c98810c15bd" target="_top" xlink:title=" ">
<polygon fill="white" stroke="black" points="366.5,-36 366.5,-77 475.5,-77 475.5,-36 366.5,-36"/>
<text text-anchor="start" x="374.5" y="-65" font-family="Helvetica,sans-Serif" font-size="10.00">net::socket::stream</text>
<text text-anchor="start" x="374.5" y="-54" font-family="Helvetica,sans-Serif" font-size="10.00">::SocketConnection::</text>
<text text-anchor="middle" x="421" y="-43" font-family="Helvetica,sans-Serif" font-size="10.00">sendToPeer</text>
</a>
</g>
</g>
<!-- Node7&#45;&gt;Node8 -->
<g id="edge8" class="edge">
<title>Node7&#45;&gt;Node8</title>
<path fill="none" stroke="midnightblue" d="M298.55,-61.52C317.5,-60.74 337.8,-59.9 356.28,-59.13"/>
<polygon fill="midnightblue" stroke="midnightblue" points="356.49,-62.63 366.34,-58.72 356.2,-55.63 356.49,-62.63"/>
</g>
</g>
</svg>
