<?xml version="1.0" encoding="UTF-8" standalone="no"?>
<!DOCTYPE svg PUBLIC "-//W3C//DTD SVG 1.1//EN"
 "http://www.w3.org/Graphics/SVG/1.1/DTD/svg11.dtd">
<!-- Generated by graphviz version 2.43.0 (0)
 -->
<!-- Title: core::EventLoop::_tick Pages: 1 -->
<svg width="700pt" height="568pt"
 viewBox="0.00 0.00 700.00 567.50" xmlns="http://www.w3.org/2000/svg" xmlns:xlink="http://www.w3.org/1999/xlink">
<g id="graph0" class="graph" transform="scale(1 1) rotate(0) translate(4 563.5)">
<title>core::EventLoop::_tick</title>
<polygon fill="white" stroke="transparent" points="-4,4 -4,-563.5 696,-563.5 696,4 -4,4"/>
<!-- Node1 -->
<g id="node1" class="node">
<title>Node1</title>
<g id="a_node1"><a xlink:title=" ">
<polygon fill="#bfbfbf" stroke="black" points="0,-177 0,-196 124,-196 124,-177 0,-177"/>
<text text-anchor="middle" x="62" y="-184" font-family="Helvetica,sans-Serif" font-size="10.00">core::EventLoop::_tick</text>
</a>
</g>
</g>
<!-- Node2 -->
<g id="node2" class="node">
<title>Node2</title>
<g id="a_node2"><a xlink:href="classcore_1_1_event_dispatcher.html#a5b403d2a3f909e4f867d1e5ab5376e52" target="_top" xlink:title=" ">
<polygon fill="white" stroke="black" points="160,-294.5 160,-324.5 284,-324.5 284,-294.5 160,-294.5"/>
<text text-anchor="start" x="168" y="-312.5" font-family="Helvetica,sans-Serif" font-size="10.00">core::EventDispatcher</text>
<text text-anchor="middle" x="222" y="-301.5" font-family="Helvetica,sans-Serif" font-size="10.00">::dispatch</text>
</a>
</g>
</g>
<!-- Node1&#45;&gt;Node2 -->
<g id="edge1" class="edge">
<title>Node1&#45;&gt;Node2</title>
<path fill="none" stroke="midnightblue" d="M75.4,-196.15C100.68,-215.83 158.73,-261.02 193.41,-288.02"/>
<polygon fill="midnightblue" stroke="midnightblue" points="191.65,-291.09 201.69,-294.47 195.95,-285.56 191.65,-291.09"/>
</g>
<!-- Node14 -->
<g id="node14" class="node">
<title>Node14</title>
<g id="a_node14"><a xlink:href="classcore_1_1_dynamic_loader.html#a8c4d850882c7177f93a543b96eb450a0" target="_top" xlink:title=" ">
<polygon fill="white" stroke="black" points="160,-49.5 160,-79.5 284,-79.5 284,-49.5 160,-49.5"/>
<text text-anchor="start" x="168" y="-67.5" font-family="Helvetica,sans-Serif" font-size="10.00">core::DynamicLoader</text>
<text text-anchor="middle" x="222" y="-56.5" font-family="Helvetica,sans-Serif" font-size="10.00">::execDlCloseDeleyed</text>
</a>
</g>
</g>
<!-- Node1&#45;&gt;Node14 -->
<g id="edge13" class="edge">
<title>Node1&#45;&gt;Node14</title>
<path fill="none" stroke="midnightblue" d="M75.4,-176.93C100.61,-157.46 158.42,-112.82 193.13,-86.02"/>
<polygon fill="midnightblue" stroke="midnightblue" points="195.65,-88.49 201.43,-79.61 191.37,-82.95 195.65,-88.49"/>
</g>
<!-- Node3 -->
<g id="node3" class="node">
<title>Node3</title>
<g id="a_node3"><a xlink:href="classutils_1_1_timeval.html#a54b232dc1ffeea007100dcd1caad1987" target="_top" xlink:title=" ">
<polygon fill="white" stroke="black" points="338.5,-540 338.5,-559 485.5,-559 485.5,-540 338.5,-540"/>
<text text-anchor="middle" x="412" y="-547" font-family="Helvetica,sans-Serif" font-size="10.00">utils::Timeval::currentTime</text>
</a>
</g>
</g>
<!-- Node2&#45;&gt;Node3 -->
<g id="edge2" class="edge">
<title>Node2&#45;&gt;Node3</title>
<path fill="none" stroke="midnightblue" d="M224.9,-324.68C230.79,-365.09 252.64,-475.86 320,-530.5 322.93,-532.88 326.08,-534.98 329.4,-536.83"/>
<polygon fill="midnightblue" stroke="midnightblue" points="327.96,-540.03 338.49,-541.19 330.98,-533.71 327.96,-540.03"/>
</g>
<!-- Node5 -->
<g id="node5" class="node">
<title>Node5</title>
<g id="a_node5"><a xlink:href="classcore_1_1_timer_event_dispatcher.html#ad9f23074622661d99d7dacf624fe22d0" target="_top" xlink:title=" ">
<polygon fill="white" stroke="black" points="336,-490.5 336,-520.5 488,-520.5 488,-490.5 336,-490.5"/>
<text text-anchor="start" x="344" y="-508.5" font-family="Helvetica,sans-Serif" font-size="10.00">core::TimerEventDispatcher</text>
<text text-anchor="middle" x="412" y="-497.5" font-family="Helvetica,sans-Serif" font-size="10.00">::dispatchActiveEvents</text>
</a>
</g>
</g>
<!-- Node2&#45;&gt;Node5 -->
<g id="edge4" class="edge">
<title>Node2&#45;&gt;Node5</title>
<path fill="none" stroke="midnightblue" d="M227.1,-324.57C237.05,-358.19 265.73,-439.59 320,-481.5 322.09,-483.12 324.29,-484.62 326.56,-486.03"/>
<polygon fill="midnightblue" stroke="midnightblue" points="325.2,-489.28 335.66,-490.97 328.54,-483.13 325.2,-489.28"/>
</g>
<!-- Node6 -->
<g id="node6" class="node">
<title>Node6</title>
<g id="a_node6"><a xlink:href="classcore_1_1_event_dispatcher.html#a871c108fbe3474eda25a7a8308fff058" target="_top" xlink:title=" ">
<polygon fill="white" stroke="black" points="348,-441.5 348,-471.5 476,-471.5 476,-441.5 348,-441.5"/>
<text text-anchor="start" x="356" y="-459.5" font-family="Helvetica,sans-Serif" font-size="10.00">core::EventDispatcher</text>
<text text-anchor="middle" x="412" y="-448.5" font-family="Helvetica,sans-Serif" font-size="10.00">::dispatchActiveEvents</text>
</a>
</g>
</g>
<!-- Node2&#45;&gt;Node6 -->
<g id="edge5" class="edge">
<title>Node2&#45;&gt;Node6</title>
<path fill="none" stroke="midnightblue" d="M230.62,-324.57C244.63,-350.7 277.02,-404.31 320,-432.5 325.6,-436.17 331.74,-439.28 338.1,-441.92"/>
<polygon fill="midnightblue" stroke="midnightblue" points="336.95,-445.23 347.55,-445.45 339.4,-438.67 336.95,-445.23"/>
</g>
<!-- Node7 -->
<g id="node7" class="node">
<title>Node7</title>
<g id="a_node7"><a xlink:href="classcore_1_1_timer_event_dispatcher.html#ab9e60520aa911e56dc0fcb8db01a7372" target="_top" xlink:title=" ">
<polygon fill="white" stroke="black" points="336,-392.5 336,-422.5 488,-422.5 488,-392.5 336,-392.5"/>
<text text-anchor="start" x="344" y="-410.5" font-family="Helvetica,sans-Serif" font-size="10.00">core::TimerEventDispatcher</text>
<text text-anchor="middle" x="412" y="-399.5" font-family="Helvetica,sans-Serif" font-size="10.00">::empty</text>
</a>
</g>
</g>
<!-- Node2&#45;&gt;Node7 -->
<g id="edge6" class="edge">
<title>Node2&#45;&gt;Node7</title>
<path fill="none" stroke="midnightblue" d="M238.82,-324.78C257,-341.53 288.41,-368.06 320,-383.5 323.99,-385.45 328.16,-387.26 332.42,-388.93"/>
<polygon fill="midnightblue" stroke="midnightblue" points="331.28,-392.24 341.87,-392.37 333.67,-385.66 331.28,-392.24"/>
</g>
<!-- Node8 -->
<g id="node8" class="node">
<title>Node8</title>
<g id="a_node8"><a xlink:href="classcore_1_1_event_dispatcher.html#a8668613420b1b5d7df85ba012638c827" target="_top" xlink:title=" ">
<polygon fill="white" stroke="black" points="350,-343.5 350,-373.5 474,-373.5 474,-343.5 350,-343.5"/>
<text text-anchor="start" x="358" y="-361.5" font-family="Helvetica,sans-Serif" font-size="10.00">core::EventDispatcher</text>
<text text-anchor="middle" x="412" y="-350.5" font-family="Helvetica,sans-Serif" font-size="10.00">::getNextTimeout</text>
</a>
</g>
</g>
<!-- Node2&#45;&gt;Node8 -->
<g id="edge7" class="edge">
<title>Node2&#45;&gt;Node8</title>
<path fill="none" stroke="midnightblue" d="M280.68,-324.53C300.53,-329.71 322.94,-335.55 343.5,-340.91"/>
<polygon fill="midnightblue" stroke="midnightblue" points="342.87,-344.36 353.43,-343.49 344.63,-337.58 342.87,-344.36"/>
</g>
<!-- Node9 -->
<g id="node9" class="node">
<title>Node9</title>
<g id="a_node9"><a xlink:href="classcore_1_1_timer_event_dispatcher.html#a1a0a3e8a85f873c37bb0f38dd49b4cda" target="_top" xlink:title=" ">
<polygon fill="white" stroke="black" points="336,-294.5 336,-324.5 488,-324.5 488,-294.5 336,-294.5"/>
<text text-anchor="start" x="344" y="-312.5" font-family="Helvetica,sans-Serif" font-size="10.00">core::TimerEventDispatcher</text>
<text text-anchor="middle" x="412" y="-301.5" font-family="Helvetica,sans-Serif" font-size="10.00">::getNextTimeout</text>
</a>
</g>
</g>
<!-- Node2&#45;&gt;Node9 -->
<g id="edge8" class="edge">
<title>Node2&#45;&gt;Node9</title>
<path fill="none" stroke="midnightblue" d="M284.04,-309.5C297.32,-309.5 311.62,-309.5 325.65,-309.5"/>
<polygon fill="midnightblue" stroke="midnightblue" points="325.8,-313 335.8,-309.5 325.8,-306 325.8,-313"/>
</g>
<!-- Node10 -->
<g id="node10" class="node">
<title>Node10</title>
<g id="a_node10"><a xlink:href="classcore_1_1_event_dispatcher.html#af0ab163c3c810c0a7a345c644e8dceab" target="_top" xlink:title=" ">
<polygon fill="white" stroke="black" points="320,-245.5 320,-275.5 504,-275.5 504,-245.5 320,-245.5"/>
<text text-anchor="start" x="328" y="-263.5" font-family="Helvetica,sans-Serif" font-size="10.00">core::EventDispatcher</text>
<text text-anchor="middle" x="412" y="-252.5" font-family="Helvetica,sans-Serif" font-size="10.00">::getObservedEventReceiverCount</text>
</a>
</g>
</g>
<!-- Node2&#45;&gt;Node10 -->
<g id="edge9" class="edge">
<title>Node2&#45;&gt;Node10</title>
<path fill="none" stroke="midnightblue" d="M280.68,-294.47C300.53,-289.29 322.94,-283.45 343.5,-278.09"/>
<polygon fill="midnightblue" stroke="midnightblue" points="344.63,-281.42 353.43,-275.51 342.87,-274.64 344.63,-281.42"/>
</g>
<!-- Node11 -->
<g id="node11" class="node">
<title>Node11</title>
<g id="a_node11"><a xlink:href="classcore_1_1_event_dispatcher.html#a0ecbf87eb5bb10f93779e61e7a59d5d5" target="_top" xlink:title=" ">
<polygon fill="white" stroke="black" points="350,-196.5 350,-226.5 474,-226.5 474,-196.5 350,-196.5"/>
<text text-anchor="start" x="358" y="-214.5" font-family="Helvetica,sans-Serif" font-size="10.00">core::EventDispatcher</text>
<text text-anchor="middle" x="412" y="-203.5" font-family="Helvetica,sans-Serif" font-size="10.00">::multiplex</text>
</a>
</g>
</g>
<!-- Node2&#45;&gt;Node11 -->
<g id="edge10" class="edge">
<title>Node2&#45;&gt;Node11</title>
<path fill="none" stroke="midnightblue" d="M238.89,-294.5C257.13,-278.04 288.6,-251.93 320,-236.5 326.37,-233.37 333.19,-230.59 340.12,-228.12"/>
<polygon fill="midnightblue" stroke="midnightblue" points="341.24,-231.43 349.62,-224.94 339.02,-224.79 341.24,-231.43"/>
</g>
<!-- Node12 -->
<g id="node12" class="node">
<title>Node12</title>
<g id="a_node12"><a xlink:href="classcore_1_1_event_dispatcher.html#a72c47a2528ac429eaf731bafb10035e6" target="_top" xlink:title=" ">
<polygon fill="white" stroke="black" points="345,-147.5 345,-177.5 479,-177.5 479,-147.5 345,-147.5"/>
<text text-anchor="start" x="353" y="-165.5" font-family="Helvetica,sans-Serif" font-size="10.00">core::EventDispatcher</text>
<text text-anchor="middle" x="412" y="-154.5" font-family="Helvetica,sans-Serif" font-size="10.00">::observeEnabledEvents</text>
</a>
</g>
</g>
<!-- Node2&#45;&gt;Node12 -->
<g id="edge11" class="edge">
<title>Node2&#45;&gt;Node12</title>
<path fill="none" stroke="midnightblue" d="M230.91,-294.18C245.13,-268.19 277.55,-215.53 320,-187.5 324.7,-184.4 329.78,-181.68 335.05,-179.29"/>
<polygon fill="midnightblue" stroke="midnightblue" points="336.77,-182.37 344.7,-175.35 334.12,-175.89 336.77,-182.37"/>
</g>
<!-- Node13 -->
<g id="node13" class="node">
<title>Node13</title>
<g id="a_node13"><a xlink:href="classcore_1_1_event_dispatcher.html#ab81cc018afefef91d1b3bafc0baf12fc" target="_top" xlink:title=" ">
<polygon fill="white" stroke="black" points="337.5,-98.5 337.5,-128.5 486.5,-128.5 486.5,-98.5 337.5,-98.5"/>
<text text-anchor="start" x="345.5" y="-116.5" font-family="Helvetica,sans-Serif" font-size="10.00">core::EventDispatcher</text>
<text text-anchor="middle" x="412" y="-105.5" font-family="Helvetica,sans-Serif" font-size="10.00">::unobserveDisabledEvents</text>
</a>
</g>
</g>
<!-- Node2&#45;&gt;Node13 -->
<g id="edge12" class="edge">
<title>Node2&#45;&gt;Node13</title>
<path fill="none" stroke="midnightblue" d="M227.24,-294.3C237.37,-260.81 266.27,-180.33 320,-138.5 322.65,-136.44 325.46,-134.54 328.39,-132.81"/>
<polygon fill="midnightblue" stroke="midnightblue" points="330.24,-135.79 337.47,-128.05 326.99,-129.59 330.24,-135.79"/>
</g>
<!-- Node4 -->
<g id="node4" class="node">
<title>Node4</title>
<g id="a_node4"><a xlink:href="namespacecore_1_1system.html#acf9e7364dbf51f07083e05caa50d3b66" target="_top" xlink:title=" ">
<polygon fill="white" stroke="black" points="540,-540 540,-559 692,-559 692,-540 540,-540"/>
<text text-anchor="middle" x="616" y="-547" font-family="Helvetica,sans-Serif" font-size="10.00">core::system::gettimeofday</text>
</a>
</g>
</g>
<!-- Node3&#45;&gt;Node4 -->
<g id="edge3" class="edge">
<title>Node3&#45;&gt;Node4</title>
<path fill="none" stroke="midnightblue" d="M485.64,-549.5C499.98,-549.5 515.14,-549.5 529.85,-549.5"/>
<polygon fill="midnightblue" stroke="midnightblue" points="529.94,-553 539.94,-549.5 529.94,-546 529.94,-553"/>
</g>
<!-- Node15 -->
<g id="node15" class="node">
<title>Node15</title>
<g id="a_node15"><a xlink:href="classcore_1_1_dynamic_loader.html#a28d14f3029339351d8bb8b328a6110b0" target="_top" xlink:title=" ">
<polygon fill="white" stroke="black" points="352,-49.5 352,-79.5 472,-79.5 472,-49.5 352,-49.5"/>
<text text-anchor="start" x="360" y="-67.5" font-family="Helvetica,sans-Serif" font-size="10.00">core::DynamicLoader</text>
<text text-anchor="middle" x="412" y="-56.5" font-family="Helvetica,sans-Serif" font-size="10.00">::dlError</text>
</a>
</g>
</g>
<!-- Node14&#45;&gt;Node15 -->
<g id="edge14" class="edge">
<title>Node14&#45;&gt;Node15</title>
<path fill="none" stroke="midnightblue" d="M284.04,-64.5C302.49,-64.5 322.88,-64.5 341.82,-64.5"/>
<polygon fill="midnightblue" stroke="midnightblue" points="341.87,-68 351.87,-64.5 341.87,-61 341.87,-68"/>
</g>
<!-- Node17 -->
<g id="node17" class="node">
<title>Node17</title>
<g id="a_node17"><a xlink:href="classcore_1_1_dynamic_loader.html#afea22388177ead6ebd12f9ef041e6d2b" target="_top" xlink:title=" ">
<polygon fill="white" stroke="black" points="352,-0.5 352,-30.5 472,-30.5 472,-0.5 352,-0.5"/>
<text text-anchor="start" x="360" y="-18.5" font-family="Helvetica,sans-Serif" font-size="10.00">core::DynamicLoader</text>
<text text-anchor="middle" x="412" y="-7.5" font-family="Helvetica,sans-Serif" font-size="10.00">::execDlClose</text>
</a>
</g>
</g>
<!-- Node14&#45;&gt;Node17 -->
<g id="edge16" class="edge">
<title>Node14&#45;&gt;Node17</title>
<path fill="none" stroke="midnightblue" d="M280.68,-49.47C300.53,-44.29 322.94,-38.45 343.5,-33.09"/>
<polygon fill="midnightblue" stroke="midnightblue" points="344.63,-36.42 353.43,-30.51 342.87,-29.64 344.63,-36.42"/>
</g>
<!-- Node16 -->
<g id="node16" class="node">
<title>Node16</title>
<g id="a_node16"><a xlink:href="namespacecore_1_1system.html#a0778aa080f796964218bcd02804a2b17" target="_top" xlink:title=" ">
<polygon fill="white" stroke="black" points="557,-55 557,-74 675,-74 675,-55 557,-55"/>
<text text-anchor="middle" x="616" y="-62" font-family="Helvetica,sans-Serif" font-size="10.00">core::system::dlerror</text>
</a>
</g>
</g>
<!-- Node15&#45;&gt;Node16 -->
<g id="edge15" class="edge">
<title>Node15&#45;&gt;Node16</title>
<path fill="none" stroke="midnightblue" d="M472.24,-64.5C495.57,-64.5 522.5,-64.5 546.65,-64.5"/>
<polygon fill="midnightblue" stroke="midnightblue" points="546.8,-68 556.8,-64.5 546.8,-61 546.8,-68"/>
</g>
<!-- Node18 -->
<g id="node18" class="node">
<title>Node18</title>
<g id="a_node18"><a xlink:href="namespacecore_1_1system.html#a4317d54914cd18248143183ea71252d3" target="_top" xlink:title=" ">
<polygon fill="white" stroke="black" points="556,-6 556,-25 676,-25 676,-6 556,-6"/>
<text text-anchor="middle" x="616" y="-13" font-family="Helvetica,sans-Serif" font-size="10.00">core::system::dlclose</text>
</a>
</g>
</g>
<!-- Node17&#45;&gt;Node18 -->
<g id="edge17" class="edge">
<title>Node17&#45;&gt;Node18</title>
<path fill="none" stroke="midnightblue" d="M472.24,-15.5C495.26,-15.5 521.8,-15.5 545.7,-15.5"/>
<polygon fill="midnightblue" stroke="midnightblue" points="545.76,-19 555.76,-15.5 545.76,-12 545.76,-19"/>
</g>
</g>
</svg>
