<?xml version="1.0" encoding="UTF-8" standalone="no"?>
<!DOCTYPE svg PUBLIC "-//W3C//DTD SVG 1.1//EN"
 "http://www.w3.org/Graphics/SVG/1.1/DTD/svg11.dtd">
<!-- Generated by graphviz version 2.43.0 (0)
 -->
<!-- Title: web::websocket::server::ChannelManager::subscribe Pages: 1 -->
<svg width="323pt" height="88pt"
 viewBox="0.00 0.00 323.00 88.00" xmlns="http://www.w3.org/2000/svg" xmlns:xlink="http://www.w3.org/1999/xlink">
<g id="graph0" class="graph" transform="scale(1 1) rotate(0) translate(4 84)">
<title>web::websocket::server::ChannelManager::subscribe</title>
<polygon fill="white" stroke="transparent" points="-4,4 -4,-84 319,-84 319,4 -4,4"/>
<!-- Node1 -->
<g id="node1" class="node">
<title>Node1</title>
<g id="a_node1"><a xlink:title=" ">
<polygon fill="#bfbfbf" stroke="black" points="171,-24.5 171,-54.5 315,-54.5 315,-24.5 171,-24.5"/>
<text text-anchor="start" x="179" y="-42.5" font-family="Helvetica,sans-Serif" font-size="10.00">web::websocket::server</text>
<text text-anchor="middle" x="243" y="-31.5" font-family="Helvetica,sans-Serif" font-size="10.00">::ChannelManager::subscribe</text>
</a>
</g>
</g>
<!-- Node2 -->
<g id="node2" class="node">
<title>Node2</title>
<g id="a_node2"><a xlink:href="classweb_1_1websocket_1_1server_1_1_sub_protocol.html#a09ff711fdd0066999bf8fb2aeb552ff8" target="_top" xlink:title=" ">
<polygon fill="white" stroke="black" points="0,-49.5 0,-79.5 135,-79.5 135,-49.5 0,-49.5"/>
<text text-anchor="start" x="8" y="-67.5" font-family="Helvetica,sans-Serif" font-size="10.00">web::websocket::server</text>
<text text-anchor="middle" x="67.5" y="-56.5" font-family="Helvetica,sans-Serif" font-size="10.00">::SubProtocol::SubProtocol</text>
</a>
</g>
</g>
<!-- Node1&#45;&gt;Node2 -->
<g id="edge1" class="edge">
<title>Node1&#45;&gt;Node2</title>
<path fill="none" stroke="midnightblue" d="M160.91,-51.18C152.32,-52.42 143.66,-53.67 135.27,-54.88"/>
<polygon fill="midnightblue" stroke="midnightblue" points="161.53,-54.63 170.93,-49.74 160.53,-47.7 161.53,-54.63"/>
</g>
<!-- Node3 -->
<g id="node3" class="node">
<title>Node3</title>
<g id="a_node3"><a xlink:href="classweb_1_1websocket_1_1server_1_1_sub_protocol.html#a1eef345693371a2774b740716201d27a" target="_top" xlink:title=" ">
<polygon fill="white" stroke="black" points="5.5,-0.5 5.5,-30.5 129.5,-30.5 129.5,-0.5 5.5,-0.5"/>
<text text-anchor="start" x="13.5" y="-18.5" font-family="Helvetica,sans-Serif" font-size="10.00">web::websocket::server</text>
<text text-anchor="middle" x="67.5" y="-7.5" font-family="Helvetica,sans-Serif" font-size="10.00">::SubProtocol::subscribe</text>
</a>
</g>
</g>
<!-- Node1&#45;&gt;Node3 -->
<g id="edge2" class="edge">
<title>Node1&#45;&gt;Node3</title>
<path fill="none" stroke="midnightblue" d="M160.93,-28.29C150.44,-26.83 139.84,-25.37 129.75,-23.97"/>
<polygon fill="midnightblue" stroke="midnightblue" points="160.55,-31.77 170.93,-29.67 161.5,-24.83 160.55,-31.77"/>
</g>
</g>
</svg>
