<?xml version="1.0" encoding="UTF-8" standalone="no"?>
<!DOCTYPE svg PUBLIC "-//W3C//DTD SVG 1.1//EN"
 "http://www.w3.org/Graphics/SVG/1.1/DTD/svg11.dtd">
<!-- Generated by graphviz version 2.43.0 (0)
 -->
<!-- Title: database::mariadb::commands::async::MariaDBQueryCommand Pages: 1 -->
<svg width="1123pt" height="363pt"
 viewBox="0.00 0.00 1123.00 363.00" xmlns="http://www.w3.org/2000/svg" xmlns:xlink="http://www.w3.org/1999/xlink">
<g id="graph0" class="graph" transform="scale(1 1) rotate(0) translate(4 359)">
<title>database::mariadb::commands::async::MariaDBQueryCommand</title>
<polygon fill="white" stroke="transparent" points="-4,4 -4,-359 1119,-359 1119,4 -4,4"/>
<!-- Node1 -->
<g id="node1" class="node">
<title>Node1</title>
<g id="a_node1"><a xlink:title=" ">
<polygon fill="#bfbfbf" stroke="black" points="0,-0.5 0,-41.5 182,-41.5 182,-0.5 0,-0.5"/>
<text text-anchor="start" x="8" y="-29.5" font-family="Helvetica,sans-Serif" font-size="10.00">database::mariadb::</text>
<text text-anchor="start" x="8" y="-18.5" font-family="Helvetica,sans-Serif" font-size="10.00">commands::async::MariaDBQuery</text>
<text text-anchor="middle" x="91" y="-7.5" font-family="Helvetica,sans-Serif" font-size="10.00">Command</text>
</a>
</g>
</g>
<!-- Node2 -->
<g id="node2" class="node">
<title>Node2</title>
<g id="a_node2"><a xlink:href="classdatabase_1_1mariadb_1_1_maria_d_b_command_a_sync.html" target="_top" xlink:title=" ">
<polygon fill="white" stroke="black" points="21.5,-89.5 21.5,-119.5 160.5,-119.5 160.5,-89.5 21.5,-89.5"/>
<text text-anchor="start" x="29.5" y="-107.5" font-family="Helvetica,sans-Serif" font-size="10.00">database::mariadb::</text>
<text text-anchor="middle" x="91" y="-96.5" font-family="Helvetica,sans-Serif" font-size="10.00">MariaDBCommandASync</text>
</a>
</g>
</g>
<!-- Node2&#45;&gt;Node1 -->
<g id="edge1" class="edge">
<title>Node2&#45;&gt;Node1</title>
<path fill="none" stroke="midnightblue" d="M91,-79.07C91,-67.06 91,-52.79 91,-41.53"/>
<polygon fill="none" stroke="midnightblue" points="87.5,-79.3 91,-89.3 94.5,-79.3 87.5,-79.3"/>
</g>
<!-- Node3 -->
<g id="node3" class="node">
<title>Node3</title>
<g id="a_node3"><a xlink:href="classdatabase_1_1mariadb_1_1_maria_d_b_command.html" target="_top" xlink:title=" ">
<polygon fill="white" stroke="black" points="55,-173 55,-203 169,-203 169,-173 55,-173"/>
<text text-anchor="start" x="63" y="-191" font-family="Helvetica,sans-Serif" font-size="10.00">database::mariadb::</text>
<text text-anchor="middle" x="112" y="-180" font-family="Helvetica,sans-Serif" font-size="10.00">MariaDBCommand</text>
</a>
</g>
</g>
<!-- Node3&#45;&gt;Node2 -->
<g id="edge2" class="edge">
<title>Node3&#45;&gt;Node2</title>
<path fill="none" stroke="midnightblue" d="M105.76,-162.78C102.13,-148.68 97.67,-131.4 94.62,-119.53"/>
<polygon fill="none" stroke="midnightblue" points="102.46,-163.99 108.34,-172.8 109.24,-162.25 102.46,-163.99"/>
</g>
<!-- Node5 -->
<g id="node5" class="node">
<title>Node5</title>
<g id="a_node5"><a xlink:href="classdatabase_1_1mariadb_1_1_maria_d_b_connection.html" target="_top" xlink:title=" ">
<polygon fill="white" stroke="black" points="306,-89.5 306,-119.5 420,-119.5 420,-89.5 306,-89.5"/>
<text text-anchor="start" x="314" y="-107.5" font-family="Helvetica,sans-Serif" font-size="10.00">database::mariadb::</text>
<text text-anchor="middle" x="363" y="-96.5" font-family="Helvetica,sans-Serif" font-size="10.00">MariaDBConnection</text>
</a>
</g>
</g>
<!-- Node3&#45;&gt;Node5 -->
<g id="edge25" class="edge">
<title>Node3&#45;&gt;Node5</title>
<path fill="none" stroke="#404040" d="M110.51,-172.91C110.17,-161.83 111.73,-146.83 121,-138 133.4,-126.18 226.67,-116.33 293.71,-110.67"/>
<polygon fill="none" stroke="#404040" points="293.94,-110.65 299.59,-106.17 305.9,-109.66 300.25,-114.14 293.94,-110.65"/>
<text text-anchor="middle" x="167" y="-141" font-family="Helvetica,sans-Serif" font-size="10.00"> &#45;currentCommand</text>
</g>
<!-- Node4 -->
<g id="node4" class="node">
<title>Node4</title>
<g id="a_node4"><a xlink:href="classutils_1_1_timeval.html" target="_top" xlink:title=" ">
<polygon fill="white" stroke="black" points="120.5,-335.5 120.5,-354.5 203.5,-354.5 203.5,-335.5 120.5,-335.5"/>
<text text-anchor="middle" x="162" y="-342.5" font-family="Helvetica,sans-Serif" font-size="10.00">utils::Timeval</text>
</a>
</g>
</g>
<!-- Node4&#45;&gt;Node3 -->
<g id="edge3" class="edge">
<title>Node4&#45;&gt;Node3</title>
<path fill="none" stroke="#404040" d="M159.17,-335.22C151.81,-312.41 131.85,-250.55 120.4,-215.03"/>
<polygon fill="none" stroke="#404040" points="120.28,-214.67 114.63,-210.19 116.6,-203.25 122.25,-207.73 120.28,-214.67"/>
<text text-anchor="middle" x="166" y="-253.5" font-family="Helvetica,sans-Serif" font-size="10.00"> #startTime</text>
</g>
<!-- Node7 -->
<g id="node7" class="node">
<title>Node7</title>
<g id="a_node7"><a xlink:href="classcore_1_1_descriptor_event_receiver.html" target="_top" xlink:title=" ">
<polygon fill="white" stroke="black" points="320,-246.5 320,-265.5 484,-265.5 484,-246.5 320,-246.5"/>
<text text-anchor="middle" x="402" y="-253.5" font-family="Helvetica,sans-Serif" font-size="10.00">core::DescriptorEventReceiver</text>
</a>
</g>
</g>
<!-- Node4&#45;&gt;Node7 -->
<g id="edge11" class="edge">
<title>Node4&#45;&gt;Node7</title>
<path fill="none" stroke="#404040" d="M169.94,-335.4C182.82,-322.02 209.7,-296.49 238,-284 259.58,-274.47 284.1,-268.28 307.49,-264.26"/>
<polygon fill="none" stroke="#404040" points="307.73,-264.22 313.04,-259.33 319.59,-262.35 314.29,-267.23 307.73,-264.22"/>
<text text-anchor="middle" x="275.5" y="-309" font-family="Helvetica,sans-Serif" font-size="10.00"> &#45;initialTimeout</text>
<text text-anchor="middle" x="275.5" y="-298" font-family="Helvetica,sans-Serif" font-size="10.00">&#45;lastTriggered</text>
<text text-anchor="middle" x="275.5" y="-287" font-family="Helvetica,sans-Serif" font-size="10.00">&#45;maxInactivity</text>
</g>
<!-- Node5&#45;&gt;Node3 -->
<g id="edge4" class="edge">
<title>Node5&#45;&gt;Node3</title>
<path fill="none" stroke="#404040" d="M305.98,-116.58C283.71,-121.81 258.23,-128.92 236,-138 226.97,-141.69 225.84,-144.88 217,-149 201.3,-156.31 183.78,-163.15 167.61,-168.95"/>
<polygon fill="none" stroke="#404040" points="167.45,-169.01 163.11,-174.77 156.12,-172.98 160.46,-167.22 167.45,-169.01"/>
<text text-anchor="middle" x="290.5" y="-141" font-family="Helvetica,sans-Serif" font-size="10.00"> #mariaDBConnection</text>
</g>
<!-- Node14 -->
<g id="node14" class="node">
<title>Node14</title>
<g id="a_node14"><a xlink:href="classdatabase_1_1mariadb_1_1_maria_d_b_command_start_event.html" target="_top" xlink:title=" ">
<polygon fill="white" stroke="black" points="211,-6 211,-36 371,-36 371,-6 211,-6"/>
<text text-anchor="start" x="219" y="-24" font-family="Helvetica,sans-Serif" font-size="10.00">database::mariadb::</text>
<text text-anchor="middle" x="291" y="-13" font-family="Helvetica,sans-Serif" font-size="10.00">MariaDBCommandStartEvent</text>
</a>
</g>
</g>
<!-- Node5&#45;&gt;Node14 -->
<g id="edge19" class="edge">
<title>Node5&#45;&gt;Node14</title>
<path fill="none" stroke="#404040" d="M305.82,-101.22C257.97,-97.96 195,-90.07 179,-71 175.86,-67.25 176.15,-63.97 179,-60 184.59,-52.2 191.88,-45.98 200.05,-41.02"/>
<polygon fill="none" stroke="#404040" points="200.19,-40.95 203.65,-34.63 210.82,-35.4 207.36,-41.72 200.19,-40.95"/>
<text text-anchor="middle" x="231.5" y="-63" font-family="Helvetica,sans-Serif" font-size="10.00"> &#45;mariaDBConnection</text>
</g>
<!-- Node15 -->
<g id="node15" class="node">
<title>Node15</title>
<g id="a_node15"><a xlink:href="classdatabase_1_1mariadb_1_1_maria_d_b_client.html" target="_top" xlink:title=" ">
<polygon fill="white" stroke="black" points="681,-6 681,-36 795,-36 795,-6 681,-6"/>
<text text-anchor="start" x="689" y="-24" font-family="Helvetica,sans-Serif" font-size="10.00">database::mariadb::</text>
<text text-anchor="middle" x="738" y="-13" font-family="Helvetica,sans-Serif" font-size="10.00">MariaDBClient</text>
</a>
</g>
</g>
<!-- Node5&#45;&gt;Node15 -->
<g id="edge24" class="edge">
<title>Node5&#45;&gt;Node15</title>
<path fill="none" stroke="#404040" d="M378.88,-89.33C391.9,-78.03 409.51,-63.53 418,-60 461.83,-41.79 588.13,-31.03 668.33,-25.84"/>
<polygon fill="none" stroke="#404040" points="668.81,-25.81 674.54,-21.44 680.78,-25.05 675.05,-29.42 668.81,-25.81"/>
<text text-anchor="middle" x="470.5" y="-63" font-family="Helvetica,sans-Serif" font-size="10.00"> &#45;mariaDBConnection</text>
</g>
<!-- Node6 -->
<g id="node6" class="node">
<title>Node6</title>
<g id="a_node6"><a xlink:href="classcore_1_1eventreceiver_1_1_read_event_receiver.html" target="_top" xlink:title=" ">
<polygon fill="white" stroke="black" points="497,-173 497,-203 615,-203 615,-173 497,-173"/>
<text text-anchor="start" x="505" y="-191" font-family="Helvetica,sans-Serif" font-size="10.00">core::eventreceiver</text>
<text text-anchor="middle" x="556" y="-180" font-family="Helvetica,sans-Serif" font-size="10.00">::ReadEventReceiver</text>
</a>
</g>
</g>
<!-- Node6&#45;&gt;Node5 -->
<g id="edge5" class="edge">
<title>Node6&#45;&gt;Node5</title>
<path fill="none" stroke="darkgreen" d="M513.28,-168.96C478.06,-154.09 428.78,-133.28 396.39,-119.6"/>
<polygon fill="none" stroke="darkgreen" points="512.25,-172.32 522.82,-172.99 514.97,-165.88 512.25,-172.32"/>
</g>
<!-- Node7&#45;&gt;Node6 -->
<g id="edge6" class="edge">
<title>Node7&#45;&gt;Node6</title>
<path fill="none" stroke="darkgreen" d="M431.55,-242.34C457.77,-231.1 496.04,-214.7 523.2,-203.06"/>
<polygon fill="none" stroke="darkgreen" points="429.95,-239.22 422.13,-246.37 432.7,-245.65 429.95,-239.22"/>
</g>
<!-- Node12 -->
<g id="node12" class="node">
<title>Node12</title>
<g id="a_node12"><a xlink:href="classcore_1_1eventreceiver_1_1_write_event_receiver.html" target="_top" xlink:title=" ">
<polygon fill="white" stroke="black" points="187.5,-173 187.5,-203 306.5,-203 306.5,-173 187.5,-173"/>
<text text-anchor="start" x="195.5" y="-191" font-family="Helvetica,sans-Serif" font-size="10.00">core::eventreceiver</text>
<text text-anchor="middle" x="247" y="-180" font-family="Helvetica,sans-Serif" font-size="10.00">::WriteEventReceiver</text>
</a>
</g>
</g>
<!-- Node7&#45;&gt;Node12 -->
<g id="edge14" class="edge">
<title>Node7&#45;&gt;Node12</title>
<path fill="none" stroke="darkgreen" d="M372.26,-242.34C345.87,-231.1 307.35,-214.7 280.01,-203.06"/>
<polygon fill="none" stroke="darkgreen" points="371.16,-245.67 381.74,-246.37 373.91,-239.23 371.16,-245.67"/>
</g>
<!-- Node13 -->
<g id="node13" class="node">
<title>Node13</title>
<g id="a_node13"><a xlink:href="classcore_1_1eventreceiver_1_1_exceptional_condition_event_receiver.html" target="_top" xlink:title=" ">
<polygon fill="white" stroke="black" points="325,-167.5 325,-208.5 479,-208.5 479,-167.5 325,-167.5"/>
<text text-anchor="start" x="333" y="-196.5" font-family="Helvetica,sans-Serif" font-size="10.00">core::eventreceiver</text>
<text text-anchor="start" x="333" y="-185.5" font-family="Helvetica,sans-Serif" font-size="10.00">::ExceptionalConditionEvent</text>
<text text-anchor="middle" x="402" y="-174.5" font-family="Helvetica,sans-Serif" font-size="10.00">Receiver</text>
</a>
</g>
</g>
<!-- Node7&#45;&gt;Node13 -->
<g id="edge16" class="edge">
<title>Node7&#45;&gt;Node13</title>
<path fill="none" stroke="darkgreen" d="M402,-236.25C402,-227.65 402,-217.45 402,-208.74"/>
<polygon fill="none" stroke="darkgreen" points="398.5,-236.37 402,-246.37 405.5,-236.37 398.5,-236.37"/>
</g>
<!-- Node8 -->
<g id="node8" class="node">
<title>Node8</title>
<g id="a_node8"><a xlink:href="classcore_1_1_observer.html" target="_top" xlink:title=" ">
<polygon fill="white" stroke="black" points="231,-335.5 231,-354.5 319,-354.5 319,-335.5 231,-335.5"/>
<text text-anchor="middle" x="275" y="-342.5" font-family="Helvetica,sans-Serif" font-size="10.00">core::Observer</text>
</a>
</g>
</g>
<!-- Node8&#45;&gt;Node7 -->
<g id="edge7" class="edge">
<title>Node8&#45;&gt;Node7</title>
<path fill="none" stroke="darkgreen" d="M296.24,-329.45C322.87,-311.21 367.67,-280.52 389.41,-265.62"/>
<polygon fill="none" stroke="darkgreen" points="293.91,-326.8 287.64,-335.34 297.87,-332.58 293.91,-326.8"/>
</g>
<!-- Node9 -->
<g id="node9" class="node">
<title>Node9</title>
<g id="a_node9"><a xlink:href="classcore_1_1_event_receiver.html" target="_top" xlink:title=" ">
<polygon fill="white" stroke="black" points="603,-335.5 603,-354.5 717,-354.5 717,-335.5 603,-335.5"/>
<text text-anchor="middle" x="660" y="-342.5" font-family="Helvetica,sans-Serif" font-size="10.00">core::EventReceiver</text>
</a>
</g>
</g>
<!-- Node9&#45;&gt;Node7 -->
<g id="edge8" class="edge">
<title>Node9&#45;&gt;Node7</title>
<path fill="none" stroke="midnightblue" d="M638.66,-329.98C616.78,-316.23 581.33,-295.69 548,-284 524.04,-275.6 496.9,-269.66 472.58,-265.54"/>
<polygon fill="none" stroke="midnightblue" points="636.85,-332.97 647.16,-335.41 640.62,-327.07 636.85,-332.97"/>
</g>
<!-- Node10 -->
<g id="node10" class="node">
<title>Node10</title>
<g id="a_node10"><a xlink:href="classcore_1_1_event.html" target="_top" xlink:title=" ">
<polygon fill="white" stroke="black" points="706.5,-246.5 706.5,-265.5 777.5,-265.5 777.5,-246.5 706.5,-246.5"/>
<text text-anchor="middle" x="742" y="-253.5" font-family="Helvetica,sans-Serif" font-size="10.00">core::Event</text>
</a>
</g>
</g>
<!-- Node9&#45;&gt;Node10 -->
<g id="edge10" class="edge">
<title>Node9&#45;&gt;Node10</title>
<path fill="none" stroke="#404040" d="M659.47,-335.14C659.19,-322.33 660.56,-298.6 673,-284 678.85,-277.13 686.67,-272 694.95,-268.17"/>
<polygon fill="none" stroke="#404040" points="695.19,-268.08 699.33,-262.17 706.37,-263.71 702.24,-269.62 695.19,-268.08"/>
<text text-anchor="middle" x="712" y="-298" font-family="Helvetica,sans-Serif" font-size="10.00"> &#45;eventReceiver</text>
</g>
<!-- Node9&#45;&gt;Node14 -->
<g id="edge18" class="edge">
<title>Node9&#45;&gt;Node14</title>
<path fill="none" stroke="darkgreen" d="M654.23,-325.49C649.3,-308.01 643,-280.99 643,-257 643,-257 643,-257 643,-103.5 643,-83.19 644.72,-72.86 629,-60 590.84,-28.78 458.63,-22.12 371.31,-21.26"/>
<polygon fill="none" stroke="darkgreen" points="650.99,-326.87 657.19,-335.46 657.7,-324.88 650.99,-326.87"/>
</g>
<!-- Node10&#45;&gt;Node9 -->
<g id="edge9" class="edge">
<title>Node10&#45;&gt;Node9</title>
<path fill="none" stroke="#404040" d="M747.81,-265.68C755.44,-278.25 766.56,-301.69 755,-317 748.32,-325.84 738.96,-331.94 728.7,-336.12"/>
<polygon fill="none" stroke="#404040" points="728.67,-336.13 724.25,-341.82 717.29,-339.93 721.71,-334.24 728.67,-336.13"/>
<text text-anchor="middle" x="781.5" y="-298" font-family="Helvetica,sans-Serif" font-size="10.00"> #_event</text>
</g>
<!-- Node11 -->
<g id="node11" class="node">
<title>Node11</title>
<g id="a_node11"><a xlink:href="classcore_1_1_descriptor_event_publisher.html" target="_top" xlink:title=" ">
<polygon fill="white" stroke="black" points="336.5,-335.5 336.5,-354.5 503.5,-354.5 503.5,-335.5 336.5,-335.5"/>
<text text-anchor="middle" x="420" y="-342.5" font-family="Helvetica,sans-Serif" font-size="10.00">core::DescriptorEventPublisher</text>
</a>
</g>
</g>
<!-- Node11&#45;&gt;Node7 -->
<g id="edge12" class="edge">
<title>Node11&#45;&gt;Node7</title>
<path fill="none" stroke="#404040" d="M418.21,-335.34C415.45,-321.99 410.07,-295.99 406.26,-277.61"/>
<polygon fill="none" stroke="#404040" points="406.22,-277.38 401.08,-272.31 403.78,-265.62 408.92,-270.69 406.22,-277.38"/>
<text text-anchor="middle" x="479.5" y="-298" font-family="Helvetica,sans-Serif" font-size="10.00"> &#45;descriptorEventPublisher</text>
</g>
<!-- Node12&#45;&gt;Node5 -->
<g id="edge13" class="edge">
<title>Node12&#45;&gt;Node5</title>
<path fill="none" stroke="darkgreen" d="M306.21,-169.82C324.86,-163.39 342.35,-155.95 349,-149 356.56,-141.09 360.04,-129.06 361.64,-119.66"/>
<polygon fill="none" stroke="darkgreen" points="305.08,-166.5 296.7,-172.98 307.29,-173.14 305.08,-166.5"/>
</g>
<!-- Node13&#45;&gt;Node5 -->
<g id="edge15" class="edge">
<title>Node13&#45;&gt;Node5</title>
<path fill="none" stroke="darkgreen" d="M388.2,-158.17C381.96,-145.12 374.86,-130.28 369.79,-119.68"/>
<polygon fill="none" stroke="darkgreen" points="385.09,-159.76 392.56,-167.27 391.4,-156.74 385.09,-159.76"/>
</g>
<!-- Node14&#45;&gt;Node5 -->
<g id="edge17" class="edge">
<title>Node14&#45;&gt;Node5</title>
<path fill="none" stroke="#404040" d="M287.55,-36.05C285.8,-46.53 285.28,-60.76 292,-71 294.89,-75.4 298.53,-79.21 302.64,-82.51"/>
<polygon fill="none" stroke="#404040" points="302.91,-82.69 310.12,-82.68 312.91,-89.33 305.7,-89.34 302.91,-82.69"/>
<text text-anchor="middle" x="345.5" y="-63" font-family="Helvetica,sans-Serif" font-size="10.00"> &#45;commandStartEvent</text>
</g>
<!-- Node15&#45;&gt;Node5 -->
<g id="edge20" class="edge">
<title>Node15&#45;&gt;Node5</title>
<path fill="none" stroke="#404040" d="M680.8,-35.81C638.42,-45.92 579.21,-59.77 527,-71 495.82,-77.71 461.2,-84.64 431.83,-90.38"/>
<polygon fill="none" stroke="#404040" points="431.8,-90.38 426.67,-95.45 420.02,-92.67 425.14,-87.6 431.8,-90.38"/>
<text text-anchor="middle" x="613.5" y="-63" font-family="Helvetica,sans-Serif" font-size="10.00"> &#45;mariaDBClient</text>
</g>
<!-- Node16 -->
<g id="node16" class="node">
<title>Node16</title>
<g id="a_node16"><a xlink:href="classdatabase_1_1mariadb_1_1_maria_d_b_client_a_sync_a_p_i.html" target="_top" xlink:title=" ">
<polygon fill="white" stroke="black" points="671.5,-89.5 671.5,-119.5 804.5,-119.5 804.5,-89.5 671.5,-89.5"/>
<text text-anchor="start" x="679.5" y="-107.5" font-family="Helvetica,sans-Serif" font-size="10.00">database::mariadb::</text>
<text text-anchor="middle" x="738" y="-96.5" font-family="Helvetica,sans-Serif" font-size="10.00">MariaDBClientASyncAPI</text>
</a>
</g>
</g>
<!-- Node16&#45;&gt;Node15 -->
<g id="edge21" class="edge">
<title>Node16&#45;&gt;Node15</title>
<path fill="none" stroke="midnightblue" d="M738,-79.28C738,-65.18 738,-47.9 738,-36.03"/>
<polygon fill="none" stroke="midnightblue" points="734.5,-79.3 738,-89.3 741.5,-79.3 734.5,-79.3"/>
</g>
<!-- Node17 -->
<g id="node17" class="node">
<title>Node17</title>
<g id="a_node17"><a xlink:href="classdatabase_1_1mariadb_1_1_maria_d_b_client_sync_a_p_i.html" target="_top" xlink:title=" ">
<polygon fill="white" stroke="black" points="823,-89.5 823,-119.5 949,-119.5 949,-89.5 823,-89.5"/>
<text text-anchor="start" x="831" y="-107.5" font-family="Helvetica,sans-Serif" font-size="10.00">database::mariadb::</text>
<text text-anchor="middle" x="886" y="-96.5" font-family="Helvetica,sans-Serif" font-size="10.00">MariaDBClientSyncAPI</text>
</a>
</g>
</g>
<!-- Node17&#45;&gt;Node15 -->
<g id="edge22" class="edge">
<title>Node17&#45;&gt;Node15</title>
<path fill="none" stroke="midnightblue" d="M851.5,-84.5C824.62,-69.7 787.91,-49.48 763.61,-36.1"/>
<polygon fill="none" stroke="midnightblue" points="850.11,-87.73 860.56,-89.49 853.49,-81.6 850.11,-87.73"/>
</g>
<!-- Node18 -->
<g id="node18" class="node">
<title>Node18</title>
<g id="a_node18"><a xlink:href="structdatabase_1_1mariadb_1_1_maria_d_b_connection_details.html" target="_top" xlink:title=" ">
<polygon fill="white" stroke="black" points="967,-89.5 967,-119.5 1115,-119.5 1115,-89.5 967,-89.5"/>
<text text-anchor="start" x="975" y="-107.5" font-family="Helvetica,sans-Serif" font-size="10.00">database::mariadb::</text>
<text text-anchor="middle" x="1041" y="-96.5" font-family="Helvetica,sans-Serif" font-size="10.00">MariaDBConnectionDetails</text>
</a>
</g>
</g>
<!-- Node18&#45;&gt;Node15 -->
<g id="edge23" class="edge">
<title>Node18&#45;&gt;Node15</title>
<path fill="none" stroke="#404040" d="M988.91,-89.49C937.13,-75.56 857.6,-54.17 802,-39.21"/>
<polygon fill="none" stroke="#404040" points="801.76,-39.15 794.92,-41.45 790.17,-36.03 797,-33.73 801.76,-39.15"/>
<text text-anchor="middle" x="936" y="-63" font-family="Helvetica,sans-Serif" font-size="10.00"> &#45;details</text>
</g>
</g>
</svg>
