<?xml version="1.0" encoding="UTF-8" standalone="no"?>
<!DOCTYPE svg PUBLIC "-//W3C//DTD SVG 1.1//EN"
 "http://www.w3.org/Graphics/SVG/1.1/DTD/svg11.dtd">
<!-- Generated by graphviz version 2.43.0 (0)
 -->
<!-- Title: express::dispatcher::RouterDispatcher Pages: 1 -->
<svg width="250pt" height="281pt"
 viewBox="0.00 0.00 250.00 281.00" xmlns="http://www.w3.org/2000/svg" xmlns:xlink="http://www.w3.org/1999/xlink">
<g id="graph0" class="graph" transform="scale(1 1) rotate(0) translate(4 277)">
<title>express::dispatcher::RouterDispatcher</title>
<polygon fill="white" stroke="transparent" points="-4,4 -4,-277 246,-277 246,4 -4,4"/>
<!-- Node1 -->
<g id="node1" class="node">
<title>Node1</title>
<g id="a_node1"><a xlink:title=" ">
<polygon fill="#bfbfbf" stroke="black" points="65,-0.5 65,-112.5 177,-112.5 177,-0.5 65,-0.5"/>
<text text-anchor="start" x="73" y="-100.5" font-family="Helvetica,sans-Serif" font-size="10.00">express::dispatcher</text>
<text text-anchor="middle" x="121" y="-89.5" font-family="Helvetica,sans-Serif" font-size="10.00">::RouterDispatcher</text>
<polyline fill="none" stroke="black" points="65,-82.5 177,-82.5 "/>
<text text-anchor="start" x="73" y="-70.5" font-family="Helvetica,sans-Serif" font-size="10.00">&#45; routes</text>
<polyline fill="none" stroke="black" points="65,-63.5 177,-63.5 "/>
<text text-anchor="start" x="73" y="-51.5" font-family="Helvetica,sans-Serif" font-size="10.00">+ dispatch()</text>
<text text-anchor="start" x="73" y="-40.5" font-family="Helvetica,sans-Serif" font-size="10.00">&#45; dispatch()</text>
<text text-anchor="start" x="73" y="-29.5" font-family="Helvetica,sans-Serif" font-size="10.00">&#45; terminate()</text>
<text text-anchor="start" x="73" y="-18.5" font-family="Helvetica,sans-Serif" font-size="10.00">&#45; getState()</text>
<text text-anchor="start" x="73" y="-7.5" font-family="Helvetica,sans-Serif" font-size="10.00">&#45; returnTo()</text>
</a>
</g>
</g>
<!-- Node2 -->
<g id="node2" class="node">
<title>Node2</title>
<g id="a_node2"><a xlink:href="classexpress_1_1dispatcher_1_1_dispatcher.html" target="_top" xlink:title=" ">
<polygon fill="white" stroke="black" points="0,-160.5 0,-272.5 112,-272.5 112,-160.5 0,-160.5"/>
<text text-anchor="start" x="8" y="-260.5" font-family="Helvetica,sans-Serif" font-size="10.00">express::dispatcher</text>
<text text-anchor="middle" x="56" y="-249.5" font-family="Helvetica,sans-Serif" font-size="10.00">::Dispatcher</text>
<polyline fill="none" stroke="black" points="0,-242.5 112,-242.5 "/>
<text text-anchor="middle" x="56" y="-230.5" font-family="Helvetica,sans-Serif" font-size="10.00"> </text>
<polyline fill="none" stroke="black" points="0,-223.5 112,-223.5 "/>
<text text-anchor="start" x="8" y="-211.5" font-family="Helvetica,sans-Serif" font-size="10.00">+ Dispatcher()</text>
<text text-anchor="start" x="8" y="-200.5" font-family="Helvetica,sans-Serif" font-size="10.00">+ ~Dispatcher()</text>
<text text-anchor="start" x="8" y="-189.5" font-family="Helvetica,sans-Serif" font-size="10.00"># dispatch()</text>
<text text-anchor="start" x="8" y="-178.5" font-family="Helvetica,sans-Serif" font-size="10.00">&#45; Dispatcher()</text>
<text text-anchor="start" x="8" y="-167.5" font-family="Helvetica,sans-Serif" font-size="10.00">&#45; operator=()</text>
</a>
</g>
</g>
<!-- Node2&#45;&gt;Node1 -->
<g id="edge1" class="edge">
<title>Node2&#45;&gt;Node1</title>
<path fill="none" stroke="midnightblue" d="M82.65,-150.72C87.84,-138.11 93.23,-125 98.28,-112.73"/>
<polygon fill="none" stroke="midnightblue" points="79.3,-149.66 78.73,-160.24 85.78,-152.32 79.3,-149.66"/>
</g>
<!-- Node3 -->
<g id="node3" class="node">
<title>Node3</title>
<g id="a_node3"><a xlink:href="classexpress_1_1dispatcher_1_1_state.html" target="_top" xlink:title=" ">
<polygon fill="white" stroke="black" points="130,-177 130,-256 242,-256 242,-177 130,-177"/>
<text text-anchor="start" x="138" y="-244" font-family="Helvetica,sans-Serif" font-size="10.00">express::dispatcher</text>
<text text-anchor="middle" x="186" y="-233" font-family="Helvetica,sans-Serif" font-size="10.00">::State</text>
<polyline fill="none" stroke="black" points="130,-226 242,-226 "/>
<text text-anchor="start" x="138" y="-214" font-family="Helvetica,sans-Serif" font-size="10.00">&#45; proceed</text>
<text text-anchor="start" x="138" y="-203" font-family="Helvetica,sans-Serif" font-size="10.00">&#45; parentProceed</text>
<polyline fill="none" stroke="black" points="130,-196 242,-196 "/>
<text text-anchor="start" x="138" y="-184" font-family="Helvetica,sans-Serif" font-size="10.00">+ operator()()</text>
</a>
</g>
</g>
<!-- Node3&#45;&gt;Node1 -->
<g id="edge2" class="edge">
<title>Node3&#45;&gt;Node1</title>
<path fill="none" stroke="#404040" d="M170.1,-176.85C163.56,-160.96 155.8,-142.1 148.4,-124.11"/>
<polygon fill="none" stroke="#404040" points="148.3,-123.86 142.32,-119.83 143.73,-112.76 149.72,-116.79 148.3,-123.86"/>
<text text-anchor="middle" x="171" y="-134" font-family="Helvetica,sans-Serif" font-size="10.00"> &#45;state</text>
</g>
</g>
</svg>
