<?xml version="1.0" encoding="UTF-8" standalone="no"?>
<!DOCTYPE svg PUBLIC "-//W3C//DTD SVG 1.1//EN"
 "http://www.w3.org/Graphics/SVG/1.1/DTD/svg11.dtd">
<!-- Generated by graphviz version 2.43.0 (0)
 -->
<!-- Title: database::mariadb::commands::async::MariaDBQueryCommand Pages: 1 -->
<svg width="190pt" height="518pt"
 viewBox="0.00 0.00 190.00 518.00" xmlns="http://www.w3.org/2000/svg" xmlns:xlink="http://www.w3.org/1999/xlink">
<g id="graph0" class="graph" transform="scale(1 1) rotate(0) translate(4 514)">
<title>database::mariadb::commands::async::MariaDBQueryCommand</title>
<polygon fill="white" stroke="transparent" points="-4,4 -4,-514 186,-514 186,4 -4,4"/>
<!-- Node1 -->
<g id="node1" class="node">
<title>Node1</title>
<g id="a_node1"><a xlink:title=" ">
<polygon fill="#bfbfbf" stroke="black" points="0,-0.5 0,-156.5 182,-156.5 182,-0.5 0,-0.5"/>
<text text-anchor="start" x="8" y="-144.5" font-family="Helvetica,sans-Serif" font-size="10.00">database::mariadb::</text>
<text text-anchor="start" x="8" y="-133.5" font-family="Helvetica,sans-Serif" font-size="10.00">commands::async::MariaDBQuery</text>
<text text-anchor="middle" x="91" y="-122.5" font-family="Helvetica,sans-Serif" font-size="10.00">Command</text>
<polyline fill="none" stroke="black" points="0,-115.5 182,-115.5 "/>
<text text-anchor="start" x="8" y="-103.5" font-family="Helvetica,sans-Serif" font-size="10.00"># ret</text>
<text text-anchor="start" x="8" y="-92.5" font-family="Helvetica,sans-Serif" font-size="10.00"># sql</text>
<text text-anchor="start" x="8" y="-81.5" font-family="Helvetica,sans-Serif" font-size="10.00"># onQuery</text>
<polyline fill="none" stroke="black" points="0,-74.5 182,-74.5 "/>
<text text-anchor="start" x="8" y="-62.5" font-family="Helvetica,sans-Serif" font-size="10.00">+ MariaDBQueryCommand()</text>
<text text-anchor="start" x="8" y="-51.5" font-family="Helvetica,sans-Serif" font-size="10.00">+ commandStart()</text>
<text text-anchor="start" x="8" y="-40.5" font-family="Helvetica,sans-Serif" font-size="10.00">+ commandContinue()</text>
<text text-anchor="start" x="8" y="-29.5" font-family="Helvetica,sans-Serif" font-size="10.00">+ commandCompleted()</text>
<text text-anchor="start" x="8" y="-18.5" font-family="Helvetica,sans-Serif" font-size="10.00">+ commandError()</text>
<text text-anchor="start" x="8" y="-7.5" font-family="Helvetica,sans-Serif" font-size="10.00">+ commandInfo()</text>
</a>
</g>
</g>
<!-- Node2 -->
<g id="node2" class="node">
<title>Node2</title>
<g id="a_node2"><a xlink:href="classdatabase_1_1mariadb_1_1_maria_d_b_command_a_sync.html" target="_top" xlink:title=" ">
<polygon fill="white" stroke="black" points="21.5,-193.5 21.5,-261.5 160.5,-261.5 160.5,-193.5 21.5,-193.5"/>
<text text-anchor="start" x="29.5" y="-249.5" font-family="Helvetica,sans-Serif" font-size="10.00">database::mariadb::</text>
<text text-anchor="middle" x="91" y="-238.5" font-family="Helvetica,sans-Serif" font-size="10.00">MariaDBCommandASync</text>
<polyline fill="none" stroke="black" points="21.5,-231.5 160.5,-231.5 "/>
<text text-anchor="middle" x="91" y="-219.5" font-family="Helvetica,sans-Serif" font-size="10.00"> </text>
<polyline fill="none" stroke="black" points="21.5,-212.5 160.5,-212.5 "/>
<text text-anchor="start" x="29.5" y="-200.5" font-family="Helvetica,sans-Serif" font-size="10.00">+ MariaDBCommand()</text>
</a>
</g>
</g>
<!-- Node2&#45;&gt;Node1 -->
<g id="edge1" class="edge">
<title>Node2&#45;&gt;Node1</title>
<path fill="none" stroke="midnightblue" d="M91,-183C91,-174.7 91,-165.78 91,-156.79"/>
<polygon fill="none" stroke="midnightblue" points="87.5,-183.14 91,-193.14 94.5,-183.14 87.5,-183.14"/>
</g>
<!-- Node3 -->
<g id="node3" class="node">
<title>Node3</title>
<g id="a_node3"><a xlink:href="classdatabase_1_1mariadb_1_1_maria_d_b_command.html" target="_top" xlink:title=" ">
<polygon fill="white" stroke="black" points="17.5,-298.5 17.5,-509.5 164.5,-509.5 164.5,-298.5 17.5,-298.5"/>
<text text-anchor="start" x="25.5" y="-497.5" font-family="Helvetica,sans-Serif" font-size="10.00">database::mariadb::</text>
<text text-anchor="middle" x="91" y="-486.5" font-family="Helvetica,sans-Serif" font-size="10.00">MariaDBCommand</text>
<polyline fill="none" stroke="black" points="17.5,-479.5 164.5,-479.5 "/>
<text text-anchor="start" x="25.5" y="-467.5" font-family="Helvetica,sans-Serif" font-size="10.00">+ onError</text>
<text text-anchor="start" x="25.5" y="-456.5" font-family="Helvetica,sans-Serif" font-size="10.00"># name</text>
<text text-anchor="start" x="25.5" y="-445.5" font-family="Helvetica,sans-Serif" font-size="10.00"># mariaDBConnection</text>
<text text-anchor="start" x="25.5" y="-434.5" font-family="Helvetica,sans-Serif" font-size="10.00"># mysql</text>
<text text-anchor="start" x="25.5" y="-423.5" font-family="Helvetica,sans-Serif" font-size="10.00"># startTime</text>
<polyline fill="none" stroke="black" points="17.5,-416.5 164.5,-416.5 "/>
<text text-anchor="start" x="25.5" y="-404.5" font-family="Helvetica,sans-Serif" font-size="10.00">+ MariaDBCommand()</text>
<text text-anchor="start" x="25.5" y="-393.5" font-family="Helvetica,sans-Serif" font-size="10.00">+ ~MariaDBCommand()</text>
<text text-anchor="start" x="25.5" y="-382.5" font-family="Helvetica,sans-Serif" font-size="10.00">+ commandName()</text>
<text text-anchor="start" x="25.5" y="-371.5" font-family="Helvetica,sans-Serif" font-size="10.00">+ commandStart()</text>
<text text-anchor="start" x="25.5" y="-360.5" font-family="Helvetica,sans-Serif" font-size="10.00">+ setMariaDBConnection()</text>
<text text-anchor="start" x="25.5" y="-349.5" font-family="Helvetica,sans-Serif" font-size="10.00">+ commandContinue()</text>
<text text-anchor="start" x="25.5" y="-338.5" font-family="Helvetica,sans-Serif" font-size="10.00">+ commandCompleted()</text>
<text text-anchor="start" x="25.5" y="-327.5" font-family="Helvetica,sans-Serif" font-size="10.00">+ commandError()</text>
<text text-anchor="start" x="25.5" y="-316.5" font-family="Helvetica,sans-Serif" font-size="10.00">+ commandInfo()</text>
<text text-anchor="start" x="25.5" y="-305.5" font-family="Helvetica,sans-Serif" font-size="10.00">&#45; commandStart()</text>
</a>
</g>
</g>
<!-- Node3&#45;&gt;Node2 -->
<g id="edge2" class="edge">
<title>Node3&#45;&gt;Node2</title>
<path fill="none" stroke="midnightblue" d="M91,-288.38C91,-278.85 91,-269.81 91,-261.77"/>
<polygon fill="none" stroke="midnightblue" points="87.5,-288.47 91,-298.47 94.5,-288.47 87.5,-288.47"/>
</g>
</g>
</svg>
