<?xml version="1.0" encoding="UTF-8" standalone="no"?>
<!DOCTYPE svg PUBLIC "-//W3C//DTD SVG 1.1//EN"
 "http://www.w3.org/Graphics/SVG/1.1/DTD/svg11.dtd">
<!-- Generated by graphviz version 2.43.0 (0)
 -->
<!-- Title: express::WebApp Pages: 1 -->
<svg width="1171pt" height="687pt"
 viewBox="0.00 0.00 1170.77 687.00" xmlns="http://www.w3.org/2000/svg" xmlns:xlink="http://www.w3.org/1999/xlink">
<g id="graph0" class="graph" transform="scale(1 1) rotate(0) translate(4 683)">
<title>express::WebApp</title>
<polygon fill="white" stroke="transparent" points="-4,4 -4,-683 1166.77,-683 1166.77,4 -4,4"/>
<!-- Node1 -->
<g id="node1" class="node">
<title>Node1</title>
<g id="a_node1"><a xlink:title=" ">
<polygon fill="#bfbfbf" stroke="black" points="508,-383.5 508,-473.5 602,-473.5 602,-383.5 508,-383.5"/>
<text text-anchor="middle" x="555" y="-461.5" font-family="Helvetica,sans-Serif" font-size="10.00">express::WebApp</text>
<polyline fill="none" stroke="black" points="508,-454.5 602,-454.5 "/>
<text text-anchor="start" x="516" y="-442.5" font-family="Helvetica,sans-Serif" font-size="10.00">&#45; initialized</text>
<polyline fill="none" stroke="black" points="508,-435.5 602,-435.5 "/>
<text text-anchor="start" x="516" y="-423.5" font-family="Helvetica,sans-Serif" font-size="10.00">+ init()</text>
<text text-anchor="start" x="516" y="-412.5" font-family="Helvetica,sans-Serif" font-size="10.00">+ start()</text>
<text text-anchor="start" x="516" y="-401.5" font-family="Helvetica,sans-Serif" font-size="10.00">+ stop()</text>
<text text-anchor="start" x="516" y="-390.5" font-family="Helvetica,sans-Serif" font-size="10.00"># WebApp()</text>
</a>
</g>
</g>
<!-- Node3 -->
<g id="node3" class="node">
<title>Node3</title>
<g id="a_node3"><a xlink:href="classexpress_1_1_web_app_t.html" target="_top" xlink:title=" ">
<polygon fill="white" stroke="black" points="377,-95.5 377,-196.5 545,-196.5 545,-95.5 377,-95.5"/>
<text text-anchor="start" x="385" y="-184.5" font-family="Helvetica,sans-Serif" font-size="10.00">express::WebAppT&lt; web</text>
<text text-anchor="start" x="385" y="-173.5" font-family="Helvetica,sans-Serif" font-size="10.00">::http::server::tls::</text>
<text text-anchor="start" x="385" y="-162.5" font-family="Helvetica,sans-Serif" font-size="10.00">ServerRfComm&lt; express</text>
<text text-anchor="middle" x="461" y="-151.5" font-family="Helvetica,sans-Serif" font-size="10.00">::Request, express::Response &gt; &gt;</text>
<polyline fill="none" stroke="black" points="377,-144.5 545,-144.5 "/>
<text text-anchor="middle" x="461" y="-132.5" font-family="Helvetica,sans-Serif" font-size="10.00"> </text>
<polyline fill="none" stroke="black" points="377,-125.5 545,-125.5 "/>
<text text-anchor="start" x="385" y="-113.5" font-family="Helvetica,sans-Serif" font-size="10.00">+ WebAppT()</text>
<text text-anchor="start" x="385" y="-102.5" font-family="Helvetica,sans-Serif" font-size="10.00">+ WebAppT()</text>
</a>
</g>
</g>
<!-- Node1&#45;&gt;Node3 -->
<g id="edge2" class="edge">
<title>Node1&#45;&gt;Node3</title>
<path fill="none" stroke="midnightblue" d="M498.35,-410.51C433.69,-387.72 331.06,-340.4 286,-259 276.53,-241.89 274.07,-230.5 286,-215 305.07,-190.23 324.61,-207.66 354,-197 361.52,-194.27 369.23,-191.22 376.9,-187.99"/>
<polygon fill="none" stroke="midnightblue" points="497.4,-413.88 507.99,-413.83 499.68,-407.26 497.4,-413.88"/>
</g>
<!-- Node5 -->
<g id="node5" class="node">
<title>Node5</title>
<g id="a_node5"><a xlink:href="classexpress_1_1_web_app_t.html" target="_top" xlink:title=" ">
<polygon fill="white" stroke="black" points="211,-95.5 211,-196.5 345,-196.5 345,-95.5 211,-95.5"/>
<text text-anchor="start" x="219" y="-184.5" font-family="Helvetica,sans-Serif" font-size="10.00">express::WebAppT&lt; web</text>
<text text-anchor="start" x="219" y="-173.5" font-family="Helvetica,sans-Serif" font-size="10.00">::http::server::tls::</text>
<text text-anchor="start" x="219" y="-162.5" font-family="Helvetica,sans-Serif" font-size="10.00">Server&lt; express::Request,</text>
<text text-anchor="middle" x="278" y="-151.5" font-family="Helvetica,sans-Serif" font-size="10.00"> express::Response &gt; &gt;</text>
<polyline fill="none" stroke="black" points="211,-144.5 345,-144.5 "/>
<text text-anchor="middle" x="278" y="-132.5" font-family="Helvetica,sans-Serif" font-size="10.00"> </text>
<polyline fill="none" stroke="black" points="211,-125.5 345,-125.5 "/>
<text text-anchor="start" x="219" y="-113.5" font-family="Helvetica,sans-Serif" font-size="10.00">+ WebAppT()</text>
<text text-anchor="start" x="219" y="-102.5" font-family="Helvetica,sans-Serif" font-size="10.00">+ WebAppT()</text>
</a>
</g>
</g>
<!-- Node1&#45;&gt;Node5 -->
<g id="edge4" class="edge">
<title>Node1&#45;&gt;Node5</title>
<path fill="none" stroke="midnightblue" d="M497.42,-426.82C394.44,-422.07 181.09,-395.36 91,-259 80.22,-242.68 79.4,-230.74 91,-215 107.01,-193.27 123.51,-205.88 149,-197 169.19,-189.96 190.93,-181.78 210.7,-174.09"/>
<polygon fill="none" stroke="midnightblue" points="497.49,-430.33 507.63,-427.24 497.78,-423.33 497.49,-430.33"/>
</g>
<!-- Node7 -->
<g id="node7" class="node">
<title>Node7</title>
<g id="a_node7"><a xlink:href="classexpress_1_1_web_app_t.html" target="_top" xlink:title=" ">
<polygon fill="white" stroke="black" points="0,-95.5 0,-196.5 140,-196.5 140,-95.5 0,-95.5"/>
<text text-anchor="start" x="8" y="-184.5" font-family="Helvetica,sans-Serif" font-size="10.00">express::WebAppT&lt; web</text>
<text text-anchor="start" x="8" y="-173.5" font-family="Helvetica,sans-Serif" font-size="10.00">::http::server::tls::</text>
<text text-anchor="start" x="8" y="-162.5" font-family="Helvetica,sans-Serif" font-size="10.00">Server6&lt; express::Request,</text>
<text text-anchor="middle" x="70" y="-151.5" font-family="Helvetica,sans-Serif" font-size="10.00"> express::Response &gt; &gt;</text>
<polyline fill="none" stroke="black" points="0,-144.5 140,-144.5 "/>
<text text-anchor="middle" x="70" y="-132.5" font-family="Helvetica,sans-Serif" font-size="10.00"> </text>
<polyline fill="none" stroke="black" points="0,-125.5 140,-125.5 "/>
<text text-anchor="start" x="8" y="-113.5" font-family="Helvetica,sans-Serif" font-size="10.00">+ WebAppT()</text>
<text text-anchor="start" x="8" y="-102.5" font-family="Helvetica,sans-Serif" font-size="10.00">+ WebAppT()</text>
</a>
</g>
</g>
<!-- Node1&#45;&gt;Node7 -->
<g id="edge6" class="edge">
<title>Node1&#45;&gt;Node7</title>
<path fill="none" stroke="midnightblue" d="M497.88,-424.46C390.07,-417.57 162.25,-397.22 105,-346 63.95,-309.28 60.09,-242.75 63.24,-196.79"/>
<polygon fill="none" stroke="midnightblue" points="497.73,-427.95 507.93,-425.08 498.17,-420.97 497.73,-427.95"/>
</g>
<!-- Node9 -->
<g id="node9" class="node">
<title>Node9</title>
<g id="a_node9"><a xlink:href="classexpress_1_1_web_app_t.html" target="_top" xlink:title=" ">
<polygon fill="white" stroke="black" points="570,-95.5 570,-196.5 738,-196.5 738,-95.5 570,-95.5"/>
<text text-anchor="start" x="578" y="-184.5" font-family="Helvetica,sans-Serif" font-size="10.00">express::WebAppT&lt; web</text>
<text text-anchor="start" x="578" y="-173.5" font-family="Helvetica,sans-Serif" font-size="10.00">::http::server::legacy</text>
<text text-anchor="start" x="578" y="-162.5" font-family="Helvetica,sans-Serif" font-size="10.00">::ServerRfComm&lt; express</text>
<text text-anchor="middle" x="654" y="-151.5" font-family="Helvetica,sans-Serif" font-size="10.00">::Request, express::Response &gt; &gt;</text>
<polyline fill="none" stroke="black" points="570,-144.5 738,-144.5 "/>
<text text-anchor="middle" x="654" y="-132.5" font-family="Helvetica,sans-Serif" font-size="10.00"> </text>
<polyline fill="none" stroke="black" points="570,-125.5 738,-125.5 "/>
<text text-anchor="start" x="578" y="-113.5" font-family="Helvetica,sans-Serif" font-size="10.00">+ WebAppT()</text>
<text text-anchor="start" x="578" y="-102.5" font-family="Helvetica,sans-Serif" font-size="10.00">+ WebAppT()</text>
</a>
</g>
</g>
<!-- Node1&#45;&gt;Node9 -->
<g id="edge8" class="edge">
<title>Node1&#45;&gt;Node9</title>
<path fill="none" stroke="midnightblue" d="M612.21,-421.11C699.01,-408 861.41,-369.29 933,-259 943.65,-242.6 946.13,-229.49 933,-215 905.71,-184.88 789.98,-208.51 751,-197 746.73,-195.74 742.43,-194.29 738.13,-192.69"/>
<polygon fill="none" stroke="midnightblue" points="611.66,-417.66 602.27,-422.55 612.67,-424.59 611.66,-417.66"/>
</g>
<!-- Node11 -->
<g id="node11" class="node">
<title>Node11</title>
<g id="a_node11"><a xlink:href="classexpress_1_1_web_app_t.html" target="_top" xlink:title=" ">
<polygon fill="white" stroke="black" points="760,-95.5 760,-196.5 906,-196.5 906,-95.5 760,-95.5"/>
<text text-anchor="start" x="768" y="-184.5" font-family="Helvetica,sans-Serif" font-size="10.00">express::WebAppT&lt; web</text>
<text text-anchor="start" x="768" y="-173.5" font-family="Helvetica,sans-Serif" font-size="10.00">::http::server::legacy</text>
<text text-anchor="start" x="768" y="-162.5" font-family="Helvetica,sans-Serif" font-size="10.00">::Server6&lt; express::Request,</text>
<text text-anchor="middle" x="833" y="-151.5" font-family="Helvetica,sans-Serif" font-size="10.00"> express::Response &gt; &gt;</text>
<polyline fill="none" stroke="black" points="760,-144.5 906,-144.5 "/>
<text text-anchor="middle" x="833" y="-132.5" font-family="Helvetica,sans-Serif" font-size="10.00"> </text>
<polyline fill="none" stroke="black" points="760,-125.5 906,-125.5 "/>
<text text-anchor="start" x="768" y="-113.5" font-family="Helvetica,sans-Serif" font-size="10.00">+ WebAppT()</text>
<text text-anchor="start" x="768" y="-102.5" font-family="Helvetica,sans-Serif" font-size="10.00">+ WebAppT()</text>
</a>
</g>
</g>
<!-- Node1&#45;&gt;Node11 -->
<g id="edge10" class="edge">
<title>Node1&#45;&gt;Node11</title>
<path fill="none" stroke="midnightblue" d="M612.27,-419.84C746.03,-400.64 1072.25,-345.64 1133,-259 1144.23,-242.99 1146.23,-229.4 1133,-215 1100.86,-180.03 965.34,-211.17 920,-197 915.34,-195.54 910.67,-193.81 906.03,-191.87"/>
<polygon fill="none" stroke="midnightblue" points="611.62,-416.4 602.21,-421.27 612.61,-423.33 611.62,-416.4"/>
</g>
<!-- Node13 -->
<g id="node13" class="node">
<title>Node13</title>
<g id="a_node13"><a xlink:href="classexpress_1_1_web_app_t.html" target="_top" xlink:title=" ">
<polygon fill="white" stroke="black" points="929,-95.5 929,-196.5 1069,-196.5 1069,-95.5 929,-95.5"/>
<text text-anchor="start" x="937" y="-184.5" font-family="Helvetica,sans-Serif" font-size="10.00">express::WebAppT&lt; web</text>
<text text-anchor="start" x="937" y="-173.5" font-family="Helvetica,sans-Serif" font-size="10.00">::http::server::legacy</text>
<text text-anchor="start" x="937" y="-162.5" font-family="Helvetica,sans-Serif" font-size="10.00">::Server&lt; express::Request,</text>
<text text-anchor="middle" x="999" y="-151.5" font-family="Helvetica,sans-Serif" font-size="10.00"> express::Response &gt; &gt;</text>
<polyline fill="none" stroke="black" points="929,-144.5 1069,-144.5 "/>
<text text-anchor="middle" x="999" y="-132.5" font-family="Helvetica,sans-Serif" font-size="10.00"> </text>
<polyline fill="none" stroke="black" points="929,-125.5 1069,-125.5 "/>
<text text-anchor="start" x="937" y="-113.5" font-family="Helvetica,sans-Serif" font-size="10.00">+ WebAppT()</text>
<text text-anchor="start" x="937" y="-102.5" font-family="Helvetica,sans-Serif" font-size="10.00">+ WebAppT()</text>
</a>
</g>
</g>
<!-- Node1&#45;&gt;Node13 -->
<g id="edge12" class="edge">
<title>Node1&#45;&gt;Node13</title>
<path fill="none" stroke="midnightblue" d="M612.48,-422.32C726.82,-411.33 978.43,-383.6 1056,-346 1120.72,-314.63 1190.12,-275.35 1151,-215 1132.76,-186.86 1099.84,-170.26 1069.29,-160.52"/>
<polygon fill="none" stroke="midnightblue" points="611.81,-418.86 602.18,-423.3 612.47,-425.83 611.81,-418.86"/>
</g>
<!-- Node15 -->
<g id="node15" class="node">
<title>Node15</title>
<g id="a_node15"><a xlink:href="classexpress_1_1_web_app_t.html" target="_top" xlink:title=" ">
<polygon fill="white" stroke="black" points="479,-277.5 479,-345.5 631,-345.5 631,-277.5 479,-277.5"/>
<text text-anchor="middle" x="555" y="-333.5" font-family="Helvetica,sans-Serif" font-size="10.00">express::WebAppT&lt; ServerT &gt;</text>
<polyline fill="none" stroke="black" points="479,-326.5 631,-326.5 "/>
<text text-anchor="middle" x="555" y="-314.5" font-family="Helvetica,sans-Serif" font-size="10.00"> </text>
<polyline fill="none" stroke="black" points="479,-307.5 631,-307.5 "/>
<text text-anchor="start" x="487" y="-295.5" font-family="Helvetica,sans-Serif" font-size="10.00">+ WebAppT()</text>
<text text-anchor="start" x="487" y="-284.5" font-family="Helvetica,sans-Serif" font-size="10.00">+ WebAppT()</text>
</a>
</g>
</g>
<!-- Node1&#45;&gt;Node15 -->
<g id="edge14" class="edge">
<title>Node1&#45;&gt;Node15</title>
<path fill="none" stroke="midnightblue" d="M555,-373.23C555,-363.8 555,-354.26 555,-345.62"/>
<polygon fill="none" stroke="midnightblue" points="551.5,-373.37 555,-383.37 558.5,-373.37 551.5,-373.37"/>
</g>
<!-- Node2 -->
<g id="node2" class="node">
<title>Node2</title>
<g id="a_node2"><a xlink:href="classexpress_1_1_router.html" target="_top" xlink:title=" ">
<polygon fill="white" stroke="black" points="506.5,-511.5 506.5,-678.5 603.5,-678.5 603.5,-511.5 506.5,-511.5"/>
<text text-anchor="middle" x="555" y="-666.5" font-family="Helvetica,sans-Serif" font-size="10.00">express::Router</text>
<polyline fill="none" stroke="black" points="506.5,-659.5 603.5,-659.5 "/>
<text text-anchor="start" x="514.5" y="-647.5" font-family="Helvetica,sans-Serif" font-size="10.00"># routerDispatcher</text>
<polyline fill="none" stroke="black" points="506.5,-640.5 603.5,-640.5 "/>
<text text-anchor="start" x="514.5" y="-628.5" font-family="Helvetica,sans-Serif" font-size="10.00">+ Router()</text>
<text text-anchor="start" x="514.5" y="-617.5" font-family="Helvetica,sans-Serif" font-size="10.00">+ Router()</text>
<text text-anchor="start" x="514.5" y="-606.5" font-family="Helvetica,sans-Serif" font-size="10.00">+ operator=()</text>
<text text-anchor="start" x="514.5" y="-595.5" font-family="Helvetica,sans-Serif" font-size="10.00">+ use()</text>
<text text-anchor="start" x="514.5" y="-584.5" font-family="Helvetica,sans-Serif" font-size="10.00">+ use()</text>
<text text-anchor="start" x="514.5" y="-573.5" font-family="Helvetica,sans-Serif" font-size="10.00">+ use()</text>
<text text-anchor="start" x="514.5" y="-562.5" font-family="Helvetica,sans-Serif" font-size="10.00">+ use()</text>
<text text-anchor="start" x="514.5" y="-551.5" font-family="Helvetica,sans-Serif" font-size="10.00">+ use()</text>
<text text-anchor="start" x="514.5" y="-540.5" font-family="Helvetica,sans-Serif" font-size="10.00">+ use()</text>
<text text-anchor="start" x="514.5" y="-529.5" font-family="Helvetica,sans-Serif" font-size="10.00">+ all()</text>
<text text-anchor="start" x="514.5" y="-518.5" font-family="Helvetica,sans-Serif" font-size="10.00">and 59 more...</text>
</a>
</g>
</g>
<!-- Node2&#45;&gt;Node1 -->
<g id="edge1" class="edge">
<title>Node2&#45;&gt;Node1</title>
<path fill="none" stroke="midnightblue" d="M555,-500.97C555,-491.52 555,-482.27 555,-473.72"/>
<polygon fill="none" stroke="midnightblue" points="551.5,-501.27 555,-511.27 558.5,-501.27 551.5,-501.27"/>
</g>
<!-- Node4 -->
<g id="node4" class="node">
<title>Node4</title>
<g id="a_node4"><a xlink:href="classexpress_1_1tls_1_1_web_app_rf_comm.html" target="_top" xlink:title=" ">
<polygon fill="white" stroke="black" points="386,-0.5 386,-57.5 536,-57.5 536,-0.5 386,-0.5"/>
<text text-anchor="middle" x="461" y="-45.5" font-family="Helvetica,sans-Serif" font-size="10.00">express::tls::WebAppRfComm</text>
<polyline fill="none" stroke="black" points="386,-38.5 536,-38.5 "/>
<text text-anchor="middle" x="461" y="-26.5" font-family="Helvetica,sans-Serif" font-size="10.00"> </text>
<polyline fill="none" stroke="black" points="386,-19.5 536,-19.5 "/>
<text text-anchor="middle" x="461" y="-7.5" font-family="Helvetica,sans-Serif" font-size="10.00"> </text>
</a>
</g>
</g>
<!-- Node3&#45;&gt;Node4 -->
<g id="edge3" class="edge">
<title>Node3&#45;&gt;Node4</title>
<path fill="none" stroke="midnightblue" d="M461,-85.22C461,-75.59 461,-66.06 461,-57.68"/>
<polygon fill="none" stroke="midnightblue" points="457.5,-85.23 461,-95.23 464.5,-85.23 457.5,-85.23"/>
</g>
<!-- Node6 -->
<g id="node6" class="node">
<title>Node6</title>
<g id="a_node6"><a xlink:href="classexpress_1_1tls_1_1_web_app.html" target="_top" xlink:title=" ">
<polygon fill="white" stroke="black" points="223,-0.5 223,-57.5 333,-57.5 333,-0.5 223,-0.5"/>
<text text-anchor="middle" x="278" y="-45.5" font-family="Helvetica,sans-Serif" font-size="10.00">express::tls::WebApp</text>
<polyline fill="none" stroke="black" points="223,-38.5 333,-38.5 "/>
<text text-anchor="middle" x="278" y="-26.5" font-family="Helvetica,sans-Serif" font-size="10.00"> </text>
<polyline fill="none" stroke="black" points="223,-19.5 333,-19.5 "/>
<text text-anchor="middle" x="278" y="-7.5" font-family="Helvetica,sans-Serif" font-size="10.00"> </text>
</a>
</g>
</g>
<!-- Node5&#45;&gt;Node6 -->
<g id="edge5" class="edge">
<title>Node5&#45;&gt;Node6</title>
<path fill="none" stroke="midnightblue" d="M278,-85.22C278,-75.59 278,-66.06 278,-57.68"/>
<polygon fill="none" stroke="midnightblue" points="274.5,-85.23 278,-95.23 281.5,-85.23 274.5,-85.23"/>
</g>
<!-- Node8 -->
<g id="node8" class="node">
<title>Node8</title>
<g id="a_node8"><a xlink:href="classexpress_1_1tls_1_1_web_app6.html" target="_top" xlink:title=" ">
<polygon fill="white" stroke="black" points="12,-0.5 12,-57.5 128,-57.5 128,-0.5 12,-0.5"/>
<text text-anchor="middle" x="70" y="-45.5" font-family="Helvetica,sans-Serif" font-size="10.00">express::tls::WebApp6</text>
<polyline fill="none" stroke="black" points="12,-38.5 128,-38.5 "/>
<text text-anchor="middle" x="70" y="-26.5" font-family="Helvetica,sans-Serif" font-size="10.00"> </text>
<polyline fill="none" stroke="black" points="12,-19.5 128,-19.5 "/>
<text text-anchor="middle" x="70" y="-7.5" font-family="Helvetica,sans-Serif" font-size="10.00"> </text>
</a>
</g>
</g>
<!-- Node7&#45;&gt;Node8 -->
<g id="edge7" class="edge">
<title>Node7&#45;&gt;Node8</title>
<path fill="none" stroke="midnightblue" d="M70,-85.22C70,-75.59 70,-66.06 70,-57.68"/>
<polygon fill="none" stroke="midnightblue" points="66.5,-85.23 70,-95.23 73.5,-85.23 66.5,-85.23"/>
</g>
<!-- Node10 -->
<g id="node10" class="node">
<title>Node10</title>
<g id="a_node10"><a xlink:href="classexpress_1_1legacy_1_1_web_app_rf_comm.html" target="_top" xlink:title=" ">
<polygon fill="white" stroke="black" points="570,-0.5 570,-57.5 738,-57.5 738,-0.5 570,-0.5"/>
<text text-anchor="middle" x="654" y="-45.5" font-family="Helvetica,sans-Serif" font-size="10.00">express::legacy::WebAppRfComm</text>
<polyline fill="none" stroke="black" points="570,-38.5 738,-38.5 "/>
<text text-anchor="middle" x="654" y="-26.5" font-family="Helvetica,sans-Serif" font-size="10.00"> </text>
<polyline fill="none" stroke="black" points="570,-19.5 738,-19.5 "/>
<text text-anchor="middle" x="654" y="-7.5" font-family="Helvetica,sans-Serif" font-size="10.00"> </text>
</a>
</g>
</g>
<!-- Node9&#45;&gt;Node10 -->
<g id="edge9" class="edge">
<title>Node9&#45;&gt;Node10</title>
<path fill="none" stroke="midnightblue" d="M654,-85.22C654,-75.59 654,-66.06 654,-57.68"/>
<polygon fill="none" stroke="midnightblue" points="650.5,-85.23 654,-95.23 657.5,-85.23 650.5,-85.23"/>
</g>
<!-- Node12 -->
<g id="node12" class="node">
<title>Node12</title>
<g id="a_node12"><a xlink:href="classexpress_1_1legacy_1_1_web_app6.html" target="_top" xlink:title=" ">
<polygon fill="white" stroke="black" points="766,-0.5 766,-57.5 900,-57.5 900,-0.5 766,-0.5"/>
<text text-anchor="middle" x="833" y="-45.5" font-family="Helvetica,sans-Serif" font-size="10.00">express::legacy::WebApp6</text>
<polyline fill="none" stroke="black" points="766,-38.5 900,-38.5 "/>
<text text-anchor="middle" x="833" y="-26.5" font-family="Helvetica,sans-Serif" font-size="10.00"> </text>
<polyline fill="none" stroke="black" points="766,-19.5 900,-19.5 "/>
<text text-anchor="middle" x="833" y="-7.5" font-family="Helvetica,sans-Serif" font-size="10.00"> </text>
</a>
</g>
</g>
<!-- Node11&#45;&gt;Node12 -->
<g id="edge11" class="edge">
<title>Node11&#45;&gt;Node12</title>
<path fill="none" stroke="midnightblue" d="M833,-85.22C833,-75.59 833,-66.06 833,-57.68"/>
<polygon fill="none" stroke="midnightblue" points="829.5,-85.23 833,-95.23 836.5,-85.23 829.5,-85.23"/>
</g>
<!-- Node14 -->
<g id="node14" class="node">
<title>Node14</title>
<g id="a_node14"><a xlink:href="classexpress_1_1legacy_1_1_web_app.html" target="_top" xlink:title=" ">
<polygon fill="white" stroke="black" points="935,-0.5 935,-57.5 1063,-57.5 1063,-0.5 935,-0.5"/>
<text text-anchor="middle" x="999" y="-45.5" font-family="Helvetica,sans-Serif" font-size="10.00">express::legacy::WebApp</text>
<polyline fill="none" stroke="black" points="935,-38.5 1063,-38.5 "/>
<text text-anchor="middle" x="999" y="-26.5" font-family="Helvetica,sans-Serif" font-size="10.00"> </text>
<polyline fill="none" stroke="black" points="935,-19.5 1063,-19.5 "/>
<text text-anchor="middle" x="999" y="-7.5" font-family="Helvetica,sans-Serif" font-size="10.00"> </text>
</a>
</g>
</g>
<!-- Node13&#45;&gt;Node14 -->
<g id="edge13" class="edge">
<title>Node13&#45;&gt;Node14</title>
<path fill="none" stroke="midnightblue" d="M999,-85.22C999,-75.59 999,-66.06 999,-57.68"/>
<polygon fill="none" stroke="midnightblue" points="995.5,-85.23 999,-95.23 1002.5,-85.23 995.5,-85.23"/>
</g>
<!-- Node15&#45;&gt;Node3 -->
<g id="edge15" class="edge">
<title>Node15&#45;&gt;Node3</title>
<path fill="none" stroke="orange" d="M489.57,-270.02C486.39,-266.56 483.49,-262.89 481,-259 469.23,-240.62 463.89,-217.24 461.63,-196.6"/>
<polygon fill="orange" stroke="orange" points="487.34,-272.74 496.92,-277.25 492.24,-267.74 487.34,-272.74"/>
<text text-anchor="start" x="481" y="-251" font-family="Helvetica,sans-Serif" font-size="10.00"> &lt; web::http::server</text>
<text text-anchor="start" x="481" y="-240" font-family="Helvetica,sans-Serif" font-size="10.00">::tls::ServerRfComm</text>
<text text-anchor="start" x="481" y="-229" font-family="Helvetica,sans-Serif" font-size="10.00">&lt; express::Request, express</text>
<text text-anchor="middle" x="544.5" y="-218" font-family="Helvetica,sans-Serif" font-size="10.00">::Response &gt; &gt;</text>
</g>
<!-- Node15&#45;&gt;Node5 -->
<g id="edge16" class="edge">
<title>Node15&#45;&gt;Node5</title>
<path fill="none" stroke="orange" d="M468.68,-301.97C407.36,-294.19 331.98,-280.57 309,-259 292.01,-243.06 284.04,-218.7 280.41,-196.77"/>
<polygon fill="orange" stroke="orange" points="468.43,-305.47 478.78,-303.22 469.28,-298.52 468.43,-305.47"/>
<text text-anchor="start" x="309" y="-245.5" font-family="Helvetica,sans-Serif" font-size="10.00"> &lt; web::http::server</text>
<text text-anchor="start" x="309" y="-234.5" font-family="Helvetica,sans-Serif" font-size="10.00">::tls::Server&lt; express</text>
<text text-anchor="middle" x="385" y="-223.5" font-family="Helvetica,sans-Serif" font-size="10.00">::Request, express::Response &gt; &gt;</text>
</g>
<!-- Node15&#45;&gt;Node7 -->
<g id="edge17" class="edge">
<title>Node15&#45;&gt;Node7</title>
<path fill="none" stroke="orange" d="M468.55,-309.36C360.27,-306.36 182.42,-295.79 129,-259 107.64,-244.29 93.44,-219.34 84.33,-196.73"/>
<polygon fill="orange" stroke="orange" points="468.72,-312.86 478.81,-309.62 468.9,-305.86 468.72,-312.86"/>
<text text-anchor="start" x="129" y="-245.5" font-family="Helvetica,sans-Serif" font-size="10.00"> &lt; web::http::server</text>
<text text-anchor="start" x="129" y="-234.5" font-family="Helvetica,sans-Serif" font-size="10.00">::tls::Server6&lt; express</text>
<text text-anchor="middle" x="205" y="-223.5" font-family="Helvetica,sans-Serif" font-size="10.00">::Request, express::Response &gt; &gt;</text>
</g>
<!-- Node15&#45;&gt;Node9 -->
<g id="edge18" class="edge">
<title>Node15&#45;&gt;Node9</title>
<path fill="none" stroke="orange" d="M599.75,-269.85C602.72,-266.32 605.51,-262.69 608,-259 615.33,-248.16 626.41,-221.38 635.86,-196.72"/>
<polygon fill="orange" stroke="orange" points="597.09,-267.58 593.05,-277.37 602.31,-272.24 597.09,-267.58"/>
<text text-anchor="start" x="628" y="-251" font-family="Helvetica,sans-Serif" font-size="10.00"> &lt; web::http::server</text>
<text text-anchor="start" x="628" y="-240" font-family="Helvetica,sans-Serif" font-size="10.00">::legacy::ServerRfComm</text>
<text text-anchor="start" x="628" y="-229" font-family="Helvetica,sans-Serif" font-size="10.00">&lt; express::Request, express</text>
<text text-anchor="middle" x="691.5" y="-218" font-family="Helvetica,sans-Serif" font-size="10.00">::Response &gt; &gt;</text>
</g>
<!-- Node15&#45;&gt;Node11 -->
<g id="edge19" class="edge">
<title>Node15&#45;&gt;Node11</title>
<path fill="none" stroke="orange" d="M641.54,-302.66C679.95,-295.79 724.05,-282.96 758,-259 780.27,-243.28 797.81,-218.67 810.3,-196.52"/>
<polygon fill="orange" stroke="orange" points="640.67,-299.25 631.39,-304.36 641.83,-306.16 640.67,-299.25"/>
<text text-anchor="start" x="797" y="-245.5" font-family="Helvetica,sans-Serif" font-size="10.00"> &lt; web::http::server</text>
<text text-anchor="start" x="797" y="-234.5" font-family="Helvetica,sans-Serif" font-size="10.00">::legacy::Server6&lt; express</text>
<text text-anchor="middle" x="873" y="-223.5" font-family="Helvetica,sans-Serif" font-size="10.00">::Request, express::Response &gt; &gt;</text>
</g>
<!-- Node15&#45;&gt;Node13 -->
<g id="edge20" class="edge">
<title>Node15&#45;&gt;Node13</title>
<path fill="none" stroke="orange" d="M641.34,-309.25C743.48,-306.11 905.67,-295.35 953,-259 972.59,-243.96 983.89,-219.13 990.38,-196.67"/>
<polygon fill="orange" stroke="orange" points="641.24,-305.76 631.34,-309.54 641.44,-312.75 641.24,-305.76"/>
<text text-anchor="start" x="983" y="-245.5" font-family="Helvetica,sans-Serif" font-size="10.00"> &lt; web::http::server</text>
<text text-anchor="start" x="983" y="-234.5" font-family="Helvetica,sans-Serif" font-size="10.00">::legacy::Server&lt; express</text>
<text text-anchor="middle" x="1059" y="-223.5" font-family="Helvetica,sans-Serif" font-size="10.00">::Request, express::Response &gt; &gt;</text>
</g>
</g>
</svg>
