<?xml version="1.0" encoding="UTF-8" standalone="no"?>
<!DOCTYPE svg PUBLIC "-//W3C//DTD SVG 1.1//EN"
 "http://www.w3.org/Graphics/SVG/1.1/DTD/svg11.dtd">
<!-- Generated by graphviz version 2.43.0 (0)
 -->
<!-- Title: core::socket::stream::tls::SocketWriter&lt; SocketT &gt; Pages: 1 -->
<svg width="670pt" height="1258pt"
 viewBox="0.00 0.00 670.18 1258.00" xmlns="http://www.w3.org/2000/svg" xmlns:xlink="http://www.w3.org/1999/xlink">
<g id="graph0" class="graph" transform="scale(1 1) rotate(0) translate(4 1254)">
<title>core::socket::stream::tls::SocketWriter&lt; SocketT &gt;</title>
<polygon fill="white" stroke="transparent" points="-4,4 -4,-1254 666.18,-1254 666.18,4 -4,4"/>
<!-- Node1 -->
<g id="node1" class="node">
<title>Node1</title>
<g id="a_node1"><a xlink:title=" ">
<polygon fill="#bfbfbf" stroke="black" points="505.68,-0.5 505.68,-112.5 624.68,-112.5 624.68,-0.5 505.68,-0.5"/>
<text text-anchor="start" x="513.68" y="-100.5" font-family="Helvetica,sans-Serif" font-size="10.00">core::socket::stream</text>
<text text-anchor="start" x="513.68" y="-89.5" font-family="Helvetica,sans-Serif" font-size="10.00">::tls::SocketWriter&lt;</text>
<text text-anchor="middle" x="565.18" y="-78.5" font-family="Helvetica,sans-Serif" font-size="10.00"> SocketT &gt;</text>
<polyline fill="none" stroke="black" points="505.68,-71.5 624.68,-71.5 "/>
<text text-anchor="start" x="513.68" y="-59.5" font-family="Helvetica,sans-Serif" font-size="10.00"># ssl</text>
<text text-anchor="start" x="513.68" y="-48.5" font-family="Helvetica,sans-Serif" font-size="10.00"># sslErr</text>
<polyline fill="none" stroke="black" points="505.68,-41.5 624.68,-41.5 "/>
<text text-anchor="start" x="513.68" y="-29.5" font-family="Helvetica,sans-Serif" font-size="10.00"># terminate()</text>
<text text-anchor="start" x="513.68" y="-18.5" font-family="Helvetica,sans-Serif" font-size="10.00"># doSSLHandshake()</text>
<text text-anchor="start" x="513.68" y="-7.5" font-family="Helvetica,sans-Serif" font-size="10.00">&#45; write()</text>
</a>
</g>
</g>
<!-- Node2 -->
<g id="node2" class="node">
<title>Node2</title>
<g id="a_node2"><a xlink:href="classcore_1_1socket_1_1stream_1_1_socket_writer.html" target="_top" xlink:title=" ">
<polygon fill="white" stroke="black" points="492.18,-150.5 492.18,-383.5 638.18,-383.5 638.18,-150.5 492.18,-150.5"/>
<text text-anchor="start" x="500.18" y="-371.5" font-family="Helvetica,sans-Serif" font-size="10.00">core::socket::stream</text>
<text text-anchor="middle" x="565.18" y="-360.5" font-family="Helvetica,sans-Serif" font-size="10.00">::SocketWriter&lt; SocketT &gt;</text>
<polyline fill="none" stroke="black" points="492.18,-353.5 638.18,-353.5 "/>
<text text-anchor="start" x="500.18" y="-341.5" font-family="Helvetica,sans-Serif" font-size="10.00">&#45; onError</text>
<text text-anchor="start" x="500.18" y="-330.5" font-family="Helvetica,sans-Serif" font-size="10.00">&#45; writeBuffer</text>
<text text-anchor="start" x="500.18" y="-319.5" font-family="Helvetica,sans-Serif" font-size="10.00">&#45; blockSize</text>
<text text-anchor="start" x="500.18" y="-308.5" font-family="Helvetica,sans-Serif" font-size="10.00">&#45; markShutdown</text>
<text text-anchor="start" x="500.18" y="-297.5" font-family="Helvetica,sans-Serif" font-size="10.00">&#45; shutdownInProgress</text>
<text text-anchor="start" x="500.18" y="-286.5" font-family="Helvetica,sans-Serif" font-size="10.00">&#45; terminateInProgress</text>
<polyline fill="none" stroke="black" points="492.18,-279.5 638.18,-279.5 "/>
<text text-anchor="start" x="500.18" y="-267.5" font-family="Helvetica,sans-Serif" font-size="10.00"># SocketWriter()</text>
<text text-anchor="start" x="500.18" y="-256.5" font-family="Helvetica,sans-Serif" font-size="10.00"># ~SocketWriter()</text>
<text text-anchor="start" x="500.18" y="-245.5" font-family="Helvetica,sans-Serif" font-size="10.00"># setBlockSize()</text>
<text text-anchor="start" x="500.18" y="-234.5" font-family="Helvetica,sans-Serif" font-size="10.00"># doWriteShutdown()</text>
<text text-anchor="start" x="500.18" y="-223.5" font-family="Helvetica,sans-Serif" font-size="10.00"># sendToPeer()</text>
<text text-anchor="start" x="500.18" y="-212.5" font-family="Helvetica,sans-Serif" font-size="10.00"># doWrite()</text>
<text text-anchor="start" x="500.18" y="-201.5" font-family="Helvetica,sans-Serif" font-size="10.00"># shutdown()</text>
<text text-anchor="start" x="500.18" y="-190.5" font-family="Helvetica,sans-Serif" font-size="10.00"># terminate()</text>
<text text-anchor="start" x="500.18" y="-179.5" font-family="Helvetica,sans-Serif" font-size="10.00">&#45; SocketWriter()</text>
<text text-anchor="start" x="500.18" y="-168.5" font-family="Helvetica,sans-Serif" font-size="10.00">&#45; write()</text>
<text text-anchor="start" x="500.18" y="-157.5" font-family="Helvetica,sans-Serif" font-size="10.00">&#45; writeEvent()</text>
</a>
</g>
</g>
<!-- Node2&#45;&gt;Node1 -->
<g id="edge1" class="edge">
<title>Node2&#45;&gt;Node1</title>
<path fill="none" stroke="midnightblue" d="M565.18,-140.36C565.18,-130.73 565.18,-121.36 565.18,-112.59"/>
<polygon fill="none" stroke="midnightblue" points="561.68,-140.47 565.18,-150.47 568.68,-140.47 561.68,-140.47"/>
</g>
<!-- Node3 -->
<g id="node3" class="node">
<title>Node3</title>
<g id="a_node3"><a xlink:href="classcore_1_1eventreceiver_1_1_write_event_receiver.html" target="_top" xlink:title=" ">
<polygon fill="white" stroke="black" points="398.18,-421.5 398.18,-533.5 530.18,-533.5 530.18,-421.5 398.18,-421.5"/>
<text text-anchor="start" x="406.18" y="-521.5" font-family="Helvetica,sans-Serif" font-size="10.00">core::eventreceiver</text>
<text text-anchor="middle" x="464.18" y="-510.5" font-family="Helvetica,sans-Serif" font-size="10.00">::WriteEventReceiver</text>
<polyline fill="none" stroke="black" points="398.18,-503.5 530.18,-503.5 "/>
<text text-anchor="middle" x="464.18" y="-491.5" font-family="Helvetica,sans-Serif" font-size="10.00"> </text>
<polyline fill="none" stroke="black" points="398.18,-484.5 530.18,-484.5 "/>
<text text-anchor="start" x="406.18" y="-472.5" font-family="Helvetica,sans-Serif" font-size="10.00"># WriteEventReceiver()</text>
<text text-anchor="start" x="406.18" y="-461.5" font-family="Helvetica,sans-Serif" font-size="10.00">&#45; writeEvent()</text>
<text text-anchor="start" x="406.18" y="-450.5" font-family="Helvetica,sans-Serif" font-size="10.00">&#45; writeTimeout()</text>
<text text-anchor="start" x="406.18" y="-439.5" font-family="Helvetica,sans-Serif" font-size="10.00">&#45; dispatchEvent()</text>
<text text-anchor="start" x="406.18" y="-428.5" font-family="Helvetica,sans-Serif" font-size="10.00">&#45; timeoutEvent()</text>
</a>
</g>
</g>
<!-- Node3&#45;&gt;Node2 -->
<g id="edge2" class="edge">
<title>Node3&#45;&gt;Node2</title>
<path fill="none" stroke="midnightblue" d="M495.23,-412.39C499.71,-403.15 504.43,-393.41 509.21,-383.54"/>
<polygon fill="none" stroke="midnightblue" points="492.06,-410.92 490.85,-421.45 498.35,-413.97 492.06,-410.92"/>
</g>
<!-- Node4 -->
<g id="node4" class="node">
<title>Node4</title>
<g id="a_node4"><a xlink:href="classcore_1_1_descriptor_event_receiver.html" target="_top" xlink:title=" ">
<polygon fill="white" stroke="black" points="348.18,-581.5 348.18,-880.5 512.18,-880.5 512.18,-581.5 348.18,-581.5"/>
<text text-anchor="middle" x="430.18" y="-868.5" font-family="Helvetica,sans-Serif" font-size="10.00">core::DescriptorEventReceiver</text>
<polyline fill="none" stroke="black" points="348.18,-861.5 512.18,-861.5 "/>
<text text-anchor="start" x="356.18" y="-849.5" font-family="Helvetica,sans-Serif" font-size="10.00">&#45; observedFd</text>
<text text-anchor="start" x="356.18" y="-838.5" font-family="Helvetica,sans-Serif" font-size="10.00">&#45; enabled</text>
<text text-anchor="start" x="356.18" y="-827.5" font-family="Helvetica,sans-Serif" font-size="10.00">&#45; suspended</text>
<text text-anchor="start" x="356.18" y="-816.5" font-family="Helvetica,sans-Serif" font-size="10.00">&#45; eventCounter</text>
<polyline fill="none" stroke="black" points="348.18,-809.5 512.18,-809.5 "/>
<text text-anchor="start" x="356.18" y="-797.5" font-family="Helvetica,sans-Serif" font-size="10.00">+ getRegisteredFd()</text>
<text text-anchor="start" x="356.18" y="-786.5" font-family="Helvetica,sans-Serif" font-size="10.00">+ getTimeout()</text>
<text text-anchor="start" x="356.18" y="-775.5" font-family="Helvetica,sans-Serif" font-size="10.00">+ isEnabled()</text>
<text text-anchor="start" x="356.18" y="-764.5" font-family="Helvetica,sans-Serif" font-size="10.00">+ isSuspended()</text>
<text text-anchor="start" x="356.18" y="-753.5" font-family="Helvetica,sans-Serif" font-size="10.00"># DescriptorEventReceiver()</text>
<text text-anchor="start" x="356.18" y="-742.5" font-family="Helvetica,sans-Serif" font-size="10.00"># enable()</text>
<text text-anchor="start" x="356.18" y="-731.5" font-family="Helvetica,sans-Serif" font-size="10.00"># disable()</text>
<text text-anchor="start" x="356.18" y="-720.5" font-family="Helvetica,sans-Serif" font-size="10.00"># suspend()</text>
<text text-anchor="start" x="356.18" y="-709.5" font-family="Helvetica,sans-Serif" font-size="10.00"># resume()</text>
<text text-anchor="start" x="356.18" y="-698.5" font-family="Helvetica,sans-Serif" font-size="10.00"># setTimeout()</text>
<text text-anchor="start" x="356.18" y="-687.5" font-family="Helvetica,sans-Serif" font-size="10.00"># checkTimeout()</text>
<text text-anchor="start" x="356.18" y="-676.5" font-family="Helvetica,sans-Serif" font-size="10.00"># terminate()</text>
<text text-anchor="start" x="356.18" y="-665.5" font-family="Helvetica,sans-Serif" font-size="10.00">&#45; DescriptorEventReceiver()</text>
<text text-anchor="start" x="356.18" y="-654.5" font-family="Helvetica,sans-Serif" font-size="10.00">&#45; operator=()</text>
<text text-anchor="start" x="356.18" y="-643.5" font-family="Helvetica,sans-Serif" font-size="10.00">&#45; dispatch()</text>
<text text-anchor="start" x="356.18" y="-632.5" font-family="Helvetica,sans-Serif" font-size="10.00">&#45; triggered()</text>
<text text-anchor="start" x="356.18" y="-621.5" font-family="Helvetica,sans-Serif" font-size="10.00">&#45; setEnabled()</text>
<text text-anchor="start" x="356.18" y="-610.5" font-family="Helvetica,sans-Serif" font-size="10.00">&#45; setDisabled()</text>
<text text-anchor="start" x="356.18" y="-599.5" font-family="Helvetica,sans-Serif" font-size="10.00">&#45; dispatchEvent()</text>
<text text-anchor="start" x="356.18" y="-588.5" font-family="Helvetica,sans-Serif" font-size="10.00">&#45; timeoutEvent()</text>
</a>
</g>
</g>
<!-- Node4&#45;&gt;Node3 -->
<g id="edge3" class="edge">
<title>Node4&#45;&gt;Node3</title>
<path fill="none" stroke="midnightblue" d="M451.68,-570.96C453.46,-557.75 455.18,-545.07 456.73,-533.56"/>
<polygon fill="none" stroke="midnightblue" points="448.17,-570.78 450.3,-581.16 455.11,-571.72 448.17,-570.78"/>
</g>
<!-- Node5 -->
<g id="node5" class="node">
<title>Node5</title>
<g id="a_node5"><a xlink:href="classcore_1_1_observer.html" target="_top" xlink:title=" ">
<polygon fill="white" stroke="black" points="355.68,-1044 355.68,-1156 504.68,-1156 504.68,-1044 355.68,-1044"/>
<text text-anchor="middle" x="430.18" y="-1144" font-family="Helvetica,sans-Serif" font-size="10.00">core::Observer</text>
<polyline fill="none" stroke="black" points="355.68,-1137 504.68,-1137 "/>
<text text-anchor="start" x="363.68" y="-1125" font-family="Helvetica,sans-Serif" font-size="10.00">&#45; observationCounter</text>
<polyline fill="none" stroke="black" points="355.68,-1118 504.68,-1118 "/>
<text text-anchor="start" x="363.68" y="-1106" font-family="Helvetica,sans-Serif" font-size="10.00">+ ~Observer()</text>
<text text-anchor="start" x="363.68" y="-1095" font-family="Helvetica,sans-Serif" font-size="10.00">+ isObserved()</text>
<text text-anchor="start" x="363.68" y="-1084" font-family="Helvetica,sans-Serif" font-size="10.00">+ observed()</text>
<text text-anchor="start" x="363.68" y="-1073" font-family="Helvetica,sans-Serif" font-size="10.00">+ unObserved()</text>
<text text-anchor="start" x="363.68" y="-1062" font-family="Helvetica,sans-Serif" font-size="10.00">+ getObservationCounter()</text>
<text text-anchor="start" x="363.68" y="-1051" font-family="Helvetica,sans-Serif" font-size="10.00">+ unobservedEvent()</text>
</a>
</g>
</g>
<!-- Node5&#45;&gt;Node4 -->
<g id="edge4" class="edge">
<title>Node5&#45;&gt;Node4</title>
<path fill="none" stroke="midnightblue" d="M430.18,-1033.46C430.18,-990.95 430.18,-933.8 430.18,-880.69"/>
<polygon fill="none" stroke="midnightblue" points="426.68,-1033.66 430.18,-1043.66 433.68,-1033.66 426.68,-1033.66"/>
</g>
<!-- Node6 -->
<g id="node6" class="node">
<title>Node6</title>
<g id="a_node6"><a xlink:href="classcore_1_1_event_receiver.html" target="_top" xlink:title=" ">
<polygon fill="white" stroke="black" points="32.18,-1049.5 32.18,-1150.5 146.18,-1150.5 146.18,-1049.5 32.18,-1049.5"/>
<text text-anchor="middle" x="89.18" y="-1138.5" font-family="Helvetica,sans-Serif" font-size="10.00">core::EventReceiver</text>
<polyline fill="none" stroke="black" points="32.18,-1131.5 146.18,-1131.5 "/>
<text text-anchor="start" x="40.18" y="-1119.5" font-family="Helvetica,sans-Serif" font-size="10.00">&#45; name</text>
<polyline fill="none" stroke="black" points="32.18,-1112.5 146.18,-1112.5 "/>
<text text-anchor="start" x="40.18" y="-1100.5" font-family="Helvetica,sans-Serif" font-size="10.00">+ EventReceiver()</text>
<text text-anchor="start" x="40.18" y="-1089.5" font-family="Helvetica,sans-Serif" font-size="10.00">+ ~EventReceiver()</text>
<text text-anchor="start" x="40.18" y="-1078.5" font-family="Helvetica,sans-Serif" font-size="10.00">+ publish()</text>
<text text-anchor="start" x="40.18" y="-1067.5" font-family="Helvetica,sans-Serif" font-size="10.00">+ dispatch()</text>
<text text-anchor="start" x="40.18" y="-1056.5" font-family="Helvetica,sans-Serif" font-size="10.00">+ getName()</text>
</a>
</g>
</g>
<!-- Node6&#45;&gt;Node4 -->
<g id="edge5" class="edge">
<title>Node6&#45;&gt;Node4</title>
<path fill="none" stroke="midnightblue" d="M107.81,-1039.89C118.73,-1010.97 134.48,-976.73 155.18,-950 208.51,-881.11 288.06,-821.16 347.91,-781.66"/>
<polygon fill="none" stroke="midnightblue" points="104.45,-1038.88 104.29,-1049.47 111.02,-1041.29 104.45,-1038.88"/>
</g>
<!-- Node7 -->
<g id="node7" class="node">
<title>Node7</title>
<g id="a_node7"><a xlink:href="classcore_1_1_event.html" target="_top" xlink:title=" ">
<polygon fill="white" stroke="black" points="22.18,-691.5 22.18,-770.5 94.18,-770.5 94.18,-691.5 22.18,-691.5"/>
<text text-anchor="middle" x="58.18" y="-758.5" font-family="Helvetica,sans-Serif" font-size="10.00">core::Event</text>
<polyline fill="none" stroke="black" points="22.18,-751.5 94.18,-751.5 "/>
<text text-anchor="middle" x="58.18" y="-739.5" font-family="Helvetica,sans-Serif" font-size="10.00"> </text>
<polyline fill="none" stroke="black" points="22.18,-732.5 94.18,-732.5 "/>
<text text-anchor="start" x="30.18" y="-720.5" font-family="Helvetica,sans-Serif" font-size="10.00">+ Event()</text>
<text text-anchor="start" x="30.18" y="-709.5" font-family="Helvetica,sans-Serif" font-size="10.00">+ ~Event()</text>
<text text-anchor="start" x="30.18" y="-698.5" font-family="Helvetica,sans-Serif" font-size="10.00">&#45; dispatch()</text>
</a>
</g>
</g>
<!-- Node6&#45;&gt;Node7 -->
<g id="edge7" class="edge">
<title>Node6&#45;&gt;Node7</title>
<path fill="none" stroke="#404040" d="M55.94,-1049.17C36.65,-1017.18 14.23,-973.92 4.18,-932 -8.21,-880.37 11.65,-821.78 30.68,-781.43"/>
<polygon fill="none" stroke="#404040" points="30.73,-781.33 29.77,-774.18 36,-770.55 36.95,-777.7 30.73,-781.33"/>
<text text-anchor="middle" x="43.18" y="-913" font-family="Helvetica,sans-Serif" font-size="10.00"> &#45;eventReceiver</text>
</g>
<!-- Node7&#45;&gt;Node6 -->
<g id="edge6" class="edge">
<title>Node7&#45;&gt;Node6</title>
<path fill="none" stroke="#404040" d="M66.35,-770.59C73.08,-804.3 82.15,-854.64 86.18,-899 90.37,-945.13 91,-997.48 90.65,-1037.05"/>
<polygon fill="none" stroke="#404040" points="90.65,-1037.17 94.58,-1043.21 90.51,-1049.16 86.58,-1043.12 90.65,-1037.17"/>
<text text-anchor="middle" x="109.18" y="-913" font-family="Helvetica,sans-Serif" font-size="10.00"> #event</text>
</g>
<!-- Node8 -->
<g id="node8" class="node">
<title>Node8</title>
<g id="a_node8"><a xlink:href="classutils_1_1_timeval.html" target="_top" xlink:title=" ">
<polygon fill="white" stroke="black" points="523.18,-1005.5 523.18,-1194.5 617.18,-1194.5 617.18,-1005.5 523.18,-1005.5"/>
<text text-anchor="middle" x="570.18" y="-1182.5" font-family="Helvetica,sans-Serif" font-size="10.00">utils::Timeval</text>
<polyline fill="none" stroke="black" points="523.18,-1175.5 617.18,-1175.5 "/>
<text text-anchor="start" x="531.18" y="-1163.5" font-family="Helvetica,sans-Serif" font-size="10.00">&#45; timeVal</text>
<polyline fill="none" stroke="black" points="523.18,-1156.5 617.18,-1156.5 "/>
<text text-anchor="start" x="531.18" y="-1144.5" font-family="Helvetica,sans-Serif" font-size="10.00">+ Timeval()</text>
<text text-anchor="start" x="531.18" y="-1133.5" font-family="Helvetica,sans-Serif" font-size="10.00">+ Timeval()</text>
<text text-anchor="start" x="531.18" y="-1122.5" font-family="Helvetica,sans-Serif" font-size="10.00">+ Timeval()</text>
<text text-anchor="start" x="531.18" y="-1111.5" font-family="Helvetica,sans-Serif" font-size="10.00">+ Timeval()</text>
<text text-anchor="start" x="531.18" y="-1100.5" font-family="Helvetica,sans-Serif" font-size="10.00">+ Timeval()</text>
<text text-anchor="start" x="531.18" y="-1089.5" font-family="Helvetica,sans-Serif" font-size="10.00">+ operator=()</text>
<text text-anchor="start" x="531.18" y="-1078.5" font-family="Helvetica,sans-Serif" font-size="10.00">+ operator=()</text>
<text text-anchor="start" x="531.18" y="-1067.5" font-family="Helvetica,sans-Serif" font-size="10.00">+ operator=()</text>
<text text-anchor="start" x="531.18" y="-1056.5" font-family="Helvetica,sans-Serif" font-size="10.00">+ operator+()</text>
<text text-anchor="start" x="531.18" y="-1045.5" font-family="Helvetica,sans-Serif" font-size="10.00">+ operator&#45;()</text>
<text text-anchor="start" x="531.18" y="-1034.5" font-family="Helvetica,sans-Serif" font-size="10.00">and 13 more...</text>
<text text-anchor="start" x="531.18" y="-1023.5" font-family="Helvetica,sans-Serif" font-size="10.00">+ currentTime()</text>
<text text-anchor="start" x="531.18" y="-1012.5" font-family="Helvetica,sans-Serif" font-size="10.00">&#45; normalize()</text>
</a>
</g>
</g>
<!-- Node8&#45;&gt;Node2 -->
<g id="edge11" class="edge">
<title>Node8&#45;&gt;Node2</title>
<path fill="none" stroke="#404040" d="M569.61,-1005.29C568.71,-856.03 566.96,-564.04 565.95,-395.76"/>
<polygon fill="none" stroke="#404040" points="565.94,-395.61 561.91,-389.63 565.87,-383.61 569.91,-389.59 565.94,-395.61"/>
<text text-anchor="middle" x="614.68" y="-555" font-family="Helvetica,sans-Serif" font-size="10.00"> &#45;terminateTimeout</text>
</g>
<!-- Node8&#45;&gt;Node4 -->
<g id="edge8" class="edge">
<title>Node8&#45;&gt;Node4</title>
<path fill="none" stroke="#404040" d="M546.68,-1005.39C538.48,-985.47 527.58,-965.72 513.18,-950 500.82,-936.52 487.56,-946.31 476.18,-932 466.68,-920.06 459.08,-906.53 452.99,-892.26"/>
<polygon fill="none" stroke="#404040" points="452.83,-891.85 446.91,-887.73 448.43,-880.68 454.35,-884.8 452.83,-891.85"/>
<text text-anchor="middle" x="513.68" y="-924" font-family="Helvetica,sans-Serif" font-size="10.00"> &#45;initialTimeout</text>
<text text-anchor="middle" x="513.68" y="-913" font-family="Helvetica,sans-Serif" font-size="10.00">&#45;lastTriggered</text>
<text text-anchor="middle" x="513.68" y="-902" font-family="Helvetica,sans-Serif" font-size="10.00">&#45;maxInactivity</text>
</g>
<!-- Node9 -->
<g id="node9" class="node">
<title>Node9</title>
<g id="a_node9"><a xlink:href="classcore_1_1_descriptor_event_publisher.html" target="_top" xlink:title=" ">
<polygon fill="white" stroke="black" points="164.68,-950.5 164.68,-1249.5 337.68,-1249.5 337.68,-950.5 164.68,-950.5"/>
<text text-anchor="middle" x="251.18" y="-1237.5" font-family="Helvetica,sans-Serif" font-size="10.00">core::DescriptorEventPublisher</text>
<polyline fill="none" stroke="black" points="164.68,-1230.5 337.68,-1230.5 "/>
<text text-anchor="start" x="172.68" y="-1218.5" font-family="Helvetica,sans-Serif" font-size="10.00"># observedEventReceivers</text>
<text text-anchor="start" x="172.68" y="-1207.5" font-family="Helvetica,sans-Serif" font-size="10.00"># eventCounter</text>
<text text-anchor="start" x="172.68" y="-1196.5" font-family="Helvetica,sans-Serif" font-size="10.00"># observedEventReceiversDirty</text>
<polyline fill="none" stroke="black" points="164.68,-1189.5 337.68,-1189.5 "/>
<text text-anchor="start" x="172.68" y="-1177.5" font-family="Helvetica,sans-Serif" font-size="10.00">+ ~DescriptorEventPublisher()</text>
<text text-anchor="start" x="172.68" y="-1166.5" font-family="Helvetica,sans-Serif" font-size="10.00">+ publish()</text>
<text text-anchor="start" x="172.68" y="-1155.5" font-family="Helvetica,sans-Serif" font-size="10.00">+ enable()</text>
<text text-anchor="start" x="172.68" y="-1144.5" font-family="Helvetica,sans-Serif" font-size="10.00">+ disable()</text>
<text text-anchor="start" x="172.68" y="-1133.5" font-family="Helvetica,sans-Serif" font-size="10.00">+ suspend()</text>
<text text-anchor="start" x="172.68" y="-1122.5" font-family="Helvetica,sans-Serif" font-size="10.00">+ resume()</text>
<text text-anchor="start" x="172.68" y="-1111.5" font-family="Helvetica,sans-Serif" font-size="10.00">+ dispatchActiveEvents()</text>
<text text-anchor="start" x="172.68" y="-1100.5" font-family="Helvetica,sans-Serif" font-size="10.00">+ checkTimedOutEvents()</text>
<text text-anchor="start" x="172.68" y="-1089.5" font-family="Helvetica,sans-Serif" font-size="10.00">+ unobserveDisabledEvents()</text>
<text text-anchor="start" x="172.68" y="-1078.5" font-family="Helvetica,sans-Serif" font-size="10.00">+ getObservedEventReceiver</text>
<text text-anchor="start" x="172.68" y="-1067.5" font-family="Helvetica,sans-Serif" font-size="10.00">Count()</text>
<text text-anchor="start" x="172.68" y="-1056.5" font-family="Helvetica,sans-Serif" font-size="10.00">+ getMaxFd()</text>
<text text-anchor="start" x="172.68" y="-1045.5" font-family="Helvetica,sans-Serif" font-size="10.00">+ getNextTimeout()</text>
<text text-anchor="start" x="172.68" y="-1034.5" font-family="Helvetica,sans-Serif" font-size="10.00">+ stop()</text>
<text text-anchor="start" x="172.68" y="-1023.5" font-family="Helvetica,sans-Serif" font-size="10.00"># DescriptorEventPublisher()</text>
<text text-anchor="start" x="172.68" y="-1012.5" font-family="Helvetica,sans-Serif" font-size="10.00"># muxAdd()</text>
<text text-anchor="start" x="172.68" y="-1001.5" font-family="Helvetica,sans-Serif" font-size="10.00"># muxDel()</text>
<text text-anchor="start" x="172.68" y="-990.5" font-family="Helvetica,sans-Serif" font-size="10.00"># muxOn()</text>
<text text-anchor="start" x="172.68" y="-979.5" font-family="Helvetica,sans-Serif" font-size="10.00"># muxOff()</text>
<text text-anchor="start" x="172.68" y="-968.5" font-family="Helvetica,sans-Serif" font-size="10.00">&#45; DescriptorEventPublisher()</text>
<text text-anchor="start" x="172.68" y="-957.5" font-family="Helvetica,sans-Serif" font-size="10.00">&#45; operator=()</text>
</a>
</g>
</g>
<!-- Node9&#45;&gt;Node4 -->
<g id="edge9" class="edge">
<title>Node9&#45;&gt;Node4</title>
<path fill="none" stroke="#404040" d="M277.49,-950.34C282.9,-932.63 289.4,-915.13 297.18,-899 308.69,-875.11 324.16,-851.54 340.47,-829.96"/>
<polygon fill="none" stroke="#404040" points="340.68,-829.69 341.18,-822.5 348.01,-820.19 347.51,-827.39 340.68,-829.69"/>
<text text-anchor="middle" x="361.68" y="-913" font-family="Helvetica,sans-Serif" font-size="10.00"> &#45;descriptorEventPublisher</text>
</g>
<!-- Node10 -->
<g id="node10" class="node">
<title>Node10</title>
<g id="a_node10"><a xlink:title=" ">
<polygon fill="white" stroke="#bfbfbf" points="593.68,-449 593.68,-506 648.68,-506 648.68,-449 593.68,-449"/>
<text text-anchor="middle" x="621.18" y="-494" font-family="Helvetica,sans-Serif" font-size="10.00">SocketT</text>
<polyline fill="none" stroke="#bfbfbf" points="593.68,-487 648.68,-487 "/>
<text text-anchor="middle" x="621.18" y="-475" font-family="Helvetica,sans-Serif" font-size="10.00"> </text>
<polyline fill="none" stroke="#bfbfbf" points="593.68,-468 648.68,-468 "/>
<text text-anchor="middle" x="621.18" y="-456" font-family="Helvetica,sans-Serif" font-size="10.00"> </text>
</a>
</g>
</g>
<!-- Node10&#45;&gt;Node2 -->
<g id="edge10" class="edge">
<title>Node10&#45;&gt;Node2</title>
<path fill="none" stroke="midnightblue" d="M611.08,-438.92C606.82,-423.05 601.6,-403.62 596.23,-383.62"/>
<polygon fill="none" stroke="midnightblue" points="607.77,-440.06 613.74,-448.81 614.53,-438.25 607.77,-440.06"/>
</g>
</g>
</svg>
