<?xml version="1.0" encoding="UTF-8" standalone="no"?>
<!DOCTYPE svg PUBLIC "-//W3C//DTD SVG 1.1//EN"
 "http://www.w3.org/Graphics/SVG/1.1/DTD/svg11.dtd">
<!-- Generated by graphviz version 2.43.0 (0)
 -->
<!-- Title: core::socket::stream::legacy::SocketClient&lt; ClientSocketT, ClientConfigT, SocketContextFactoryT &gt; Pages: 1 -->
<svg width="648pt" height="1101pt"
 viewBox="0.00 0.00 648.00 1101.00" xmlns="http://www.w3.org/2000/svg" xmlns:xlink="http://www.w3.org/1999/xlink">
<g id="graph0" class="graph" transform="scale(1 1) rotate(0) translate(4 1097)">
<title>core::socket::stream::legacy::SocketClient&lt; ClientSocketT, ClientConfigT, SocketContextFactoryT &gt;</title>
<polygon fill="white" stroke="transparent" points="-4,4 -4,-1097 644,-1097 644,4 -4,4"/>
<!-- Node1 -->
<g id="node1" class="node">
<title>Node1</title>
<g id="a_node1"><a xlink:title=" ">
<polygon fill="#bfbfbf" stroke="black" points="210.5,-256.5 210.5,-346.5 380.5,-346.5 380.5,-256.5 210.5,-256.5"/>
<text text-anchor="start" x="218.5" y="-334.5" font-family="Helvetica,sans-Serif" font-size="10.00">core::socket::stream</text>
<text text-anchor="start" x="218.5" y="-323.5" font-family="Helvetica,sans-Serif" font-size="10.00">::legacy::SocketClient</text>
<text text-anchor="start" x="218.5" y="-312.5" font-family="Helvetica,sans-Serif" font-size="10.00">&lt; ClientSocketT, ClientConfigT,</text>
<text text-anchor="middle" x="295.5" y="-301.5" font-family="Helvetica,sans-Serif" font-size="10.00"> SocketContextFactoryT &gt;</text>
<polyline fill="none" stroke="black" points="210.5,-294.5 380.5,-294.5 "/>
<text text-anchor="middle" x="295.5" y="-282.5" font-family="Helvetica,sans-Serif" font-size="10.00"> </text>
<polyline fill="none" stroke="black" points="210.5,-275.5 380.5,-275.5 "/>
<text text-anchor="middle" x="295.5" y="-263.5" font-family="Helvetica,sans-Serif" font-size="10.00"> </text>
</a>
</g>
</g>
<!-- Node5 -->
<g id="node5" class="node">
<title>Node5</title>
<g id="a_node5"><a xlink:href="classweb_1_1http_1_1client_1_1_client.html" target="_top" xlink:title=" ">
<polygon fill="white" stroke="black" points="0,-123 0,-213 131,-213 131,-123 0,-123"/>
<text text-anchor="start" x="8" y="-201" font-family="Helvetica,sans-Serif" font-size="10.00">web::http::client::</text>
<text text-anchor="start" x="8" y="-190" font-family="Helvetica,sans-Serif" font-size="10.00">Client&lt; net::un::stream</text>
<text text-anchor="start" x="8" y="-179" font-family="Helvetica,sans-Serif" font-size="10.00">::legacy::SocketClient,</text>
<text text-anchor="middle" x="65.5" y="-168" font-family="Helvetica,sans-Serif" font-size="10.00"> Request, Response &gt;</text>
<polyline fill="none" stroke="black" points="0,-161 131,-161 "/>
<text text-anchor="middle" x="65.5" y="-149" font-family="Helvetica,sans-Serif" font-size="10.00"> </text>
<polyline fill="none" stroke="black" points="0,-142 131,-142 "/>
<text text-anchor="start" x="8" y="-130" font-family="Helvetica,sans-Serif" font-size="10.00">+ Client()</text>
</a>
</g>
</g>
<!-- Node1&#45;&gt;Node5 -->
<g id="edge5" class="edge">
<title>Node1&#45;&gt;Node5</title>
<path fill="none" stroke="midnightblue" d="M201.23,-252.93C180.98,-242.16 159.85,-230.5 140.5,-219 137.27,-217.08 133.99,-215.08 130.69,-213.04"/>
<polygon fill="none" stroke="midnightblue" points="199.68,-256.07 210.16,-257.66 202.95,-249.89 199.68,-256.07"/>
</g>
<!-- Node7 -->
<g id="node7" class="node">
<title>Node7</title>
<g id="a_node7"><a xlink:href="classweb_1_1http_1_1client_1_1_client.html" target="_top" xlink:title=" ">
<polygon fill="white" stroke="black" points="149.5,-123 149.5,-213 277.5,-213 277.5,-123 149.5,-123"/>
<text text-anchor="start" x="157.5" y="-201" font-family="Helvetica,sans-Serif" font-size="10.00">web::http::client::</text>
<text text-anchor="start" x="157.5" y="-190" font-family="Helvetica,sans-Serif" font-size="10.00">Client&lt; net::in::stream</text>
<text text-anchor="start" x="157.5" y="-179" font-family="Helvetica,sans-Serif" font-size="10.00">::legacy::SocketClient,</text>
<text text-anchor="middle" x="213.5" y="-168" font-family="Helvetica,sans-Serif" font-size="10.00"> Request, Response &gt;</text>
<polyline fill="none" stroke="black" points="149.5,-161 277.5,-161 "/>
<text text-anchor="middle" x="213.5" y="-149" font-family="Helvetica,sans-Serif" font-size="10.00"> </text>
<polyline fill="none" stroke="black" points="149.5,-142 277.5,-142 "/>
<text text-anchor="start" x="157.5" y="-130" font-family="Helvetica,sans-Serif" font-size="10.00">+ Client()</text>
</a>
</g>
</g>
<!-- Node1&#45;&gt;Node7 -->
<g id="edge7" class="edge">
<title>Node1&#45;&gt;Node7</title>
<path fill="none" stroke="midnightblue" d="M262.6,-247.74C255.47,-236.3 248,-224.33 241.1,-213.26"/>
<polygon fill="none" stroke="midnightblue" points="259.71,-249.71 267.97,-256.35 265.65,-246.01 259.71,-249.71"/>
</g>
<!-- Node9 -->
<g id="node9" class="node">
<title>Node9</title>
<g id="a_node9"><a xlink:href="classweb_1_1http_1_1client_1_1_client.html" target="_top" xlink:title=" ">
<polygon fill="white" stroke="black" points="296,-117.5 296,-218.5 459,-218.5 459,-117.5 296,-117.5"/>
<text text-anchor="start" x="304" y="-206.5" font-family="Helvetica,sans-Serif" font-size="10.00">web::http::client::</text>
<text text-anchor="start" x="304" y="-195.5" font-family="Helvetica,sans-Serif" font-size="10.00">Client&lt; net::in6::stream</text>
<text text-anchor="start" x="304" y="-184.5" font-family="Helvetica,sans-Serif" font-size="10.00">::legacy::SocketClient,</text>
<text text-anchor="start" x="304" y="-173.5" font-family="Helvetica,sans-Serif" font-size="10.00"> web::http::client::Request,</text>
<text text-anchor="middle" x="377.5" y="-162.5" font-family="Helvetica,sans-Serif" font-size="10.00"> web::http::client::Response &gt;</text>
<polyline fill="none" stroke="black" points="296,-155.5 459,-155.5 "/>
<text text-anchor="middle" x="377.5" y="-143.5" font-family="Helvetica,sans-Serif" font-size="10.00"> </text>
<polyline fill="none" stroke="black" points="296,-136.5 459,-136.5 "/>
<text text-anchor="start" x="304" y="-124.5" font-family="Helvetica,sans-Serif" font-size="10.00">+ Client()</text>
</a>
</g>
</g>
<!-- Node1&#45;&gt;Node9 -->
<g id="edge9" class="edge">
<title>Node1&#45;&gt;Node9</title>
<path fill="none" stroke="midnightblue" d="M328.43,-247.69C334.4,-238.12 340.6,-228.18 346.51,-218.7"/>
<polygon fill="none" stroke="midnightblue" points="325.35,-246.01 323.03,-256.35 331.29,-249.71 325.35,-246.01"/>
</g>
<!-- Node11 -->
<g id="node11" class="node">
<title>Node11</title>
<g id="a_node11"><a xlink:href="classweb_1_1http_1_1client_1_1_client.html" target="_top" xlink:title=" ">
<polygon fill="white" stroke="black" points="477,-117.5 477,-218.5 640,-218.5 640,-117.5 477,-117.5"/>
<text text-anchor="start" x="485" y="-206.5" font-family="Helvetica,sans-Serif" font-size="10.00">web::http::client::</text>
<text text-anchor="start" x="485" y="-195.5" font-family="Helvetica,sans-Serif" font-size="10.00">Client&lt; net::rf::stream</text>
<text text-anchor="start" x="485" y="-184.5" font-family="Helvetica,sans-Serif" font-size="10.00">::legacy::SocketClient,</text>
<text text-anchor="start" x="485" y="-173.5" font-family="Helvetica,sans-Serif" font-size="10.00"> web::http::client::Request,</text>
<text text-anchor="middle" x="558.5" y="-162.5" font-family="Helvetica,sans-Serif" font-size="10.00"> web::http::client::Response &gt;</text>
<polyline fill="none" stroke="black" points="477,-155.5 640,-155.5 "/>
<text text-anchor="middle" x="558.5" y="-143.5" font-family="Helvetica,sans-Serif" font-size="10.00"> </text>
<polyline fill="none" stroke="black" points="477,-136.5 640,-136.5 "/>
<text text-anchor="start" x="485" y="-124.5" font-family="Helvetica,sans-Serif" font-size="10.00">+ Client()</text>
</a>
</g>
</g>
<!-- Node1&#45;&gt;Node11 -->
<g id="edge11" class="edge">
<title>Node1&#45;&gt;Node11</title>
<path fill="none" stroke="midnightblue" d="M389.88,-257.43C415.55,-245.34 443.24,-231.95 468.5,-219 471.2,-217.61 473.95,-216.19 476.71,-214.74"/>
<polygon fill="none" stroke="midnightblue" points="388.09,-254.41 380.52,-261.83 391.06,-260.74 388.09,-254.41"/>
</g>
<!-- Node2 -->
<g id="node2" class="node">
<title>Node2</title>
<g id="a_node2"><a xlink:href="classcore_1_1socket_1_1stream_1_1_socket_client.html" target="_top" xlink:title=" ">
<polygon fill="white" stroke="black" points="158.5,-384.5 158.5,-650.5 432.5,-650.5 432.5,-384.5 158.5,-384.5"/>
<text text-anchor="start" x="166.5" y="-638.5" font-family="Helvetica,sans-Serif" font-size="10.00">core::socket::stream</text>
<text text-anchor="start" x="166.5" y="-627.5" font-family="Helvetica,sans-Serif" font-size="10.00">::SocketClient&lt; ClientSocket</text>
<text text-anchor="start" x="166.5" y="-616.5" font-family="Helvetica,sans-Serif" font-size="10.00">T, core::socket::stream::</text>
<text text-anchor="start" x="166.5" y="-605.5" font-family="Helvetica,sans-Serif" font-size="10.00">legacy::SocketConnector&lt; ClientConfig</text>
<text text-anchor="middle" x="295.5" y="-594.5" font-family="Helvetica,sans-Serif" font-size="10.00">T, ClientSocketT::Socket &gt;, SocketContextFactoryT &gt;</text>
<polyline fill="none" stroke="black" points="158.5,-587.5 432.5,-587.5 "/>
<text text-anchor="start" x="166.5" y="-575.5" font-family="Helvetica,sans-Serif" font-size="10.00"># clientConfig</text>
<text text-anchor="start" x="166.5" y="-564.5" font-family="Helvetica,sans-Serif" font-size="10.00"># socketContextFactory</text>
<text text-anchor="start" x="166.5" y="-553.5" font-family="Helvetica,sans-Serif" font-size="10.00"># _onConnect</text>
<text text-anchor="start" x="166.5" y="-542.5" font-family="Helvetica,sans-Serif" font-size="10.00"># _onConnected</text>
<text text-anchor="start" x="166.5" y="-531.5" font-family="Helvetica,sans-Serif" font-size="10.00"># _onDisconnect</text>
<text text-anchor="start" x="166.5" y="-520.5" font-family="Helvetica,sans-Serif" font-size="10.00"># options</text>
<polyline fill="none" stroke="black" points="158.5,-513.5 432.5,-513.5 "/>
<text text-anchor="start" x="166.5" y="-501.5" font-family="Helvetica,sans-Serif" font-size="10.00">+ SocketClient()</text>
<text text-anchor="start" x="166.5" y="-490.5" font-family="Helvetica,sans-Serif" font-size="10.00">+ SocketClient()</text>
<text text-anchor="start" x="166.5" y="-479.5" font-family="Helvetica,sans-Serif" font-size="10.00">+ ~SocketClient()</text>
<text text-anchor="start" x="166.5" y="-468.5" font-family="Helvetica,sans-Serif" font-size="10.00">+ connect()</text>
<text text-anchor="start" x="166.5" y="-457.5" font-family="Helvetica,sans-Serif" font-size="10.00">+ connect()</text>
<text text-anchor="start" x="166.5" y="-446.5" font-family="Helvetica,sans-Serif" font-size="10.00">+ connect()</text>
<text text-anchor="start" x="166.5" y="-435.5" font-family="Helvetica,sans-Serif" font-size="10.00">+ onConnect()</text>
<text text-anchor="start" x="166.5" y="-424.5" font-family="Helvetica,sans-Serif" font-size="10.00">+ onConnected()</text>
<text text-anchor="start" x="166.5" y="-413.5" font-family="Helvetica,sans-Serif" font-size="10.00">+ onDisconnect()</text>
<text text-anchor="start" x="166.5" y="-402.5" font-family="Helvetica,sans-Serif" font-size="10.00">+ getSocketContextFactory()</text>
<text text-anchor="start" x="166.5" y="-391.5" font-family="Helvetica,sans-Serif" font-size="10.00">&#45; SocketClient()</text>
</a>
</g>
</g>
<!-- Node2&#45;&gt;Node1 -->
<g id="edge1" class="edge">
<title>Node2&#45;&gt;Node1</title>
<path fill="none" stroke="midnightblue" d="M295.5,-374.1C295.5,-364.43 295.5,-355.19 295.5,-346.76"/>
<polygon fill="none" stroke="midnightblue" points="292,-374.32 295.5,-384.32 299,-374.32 292,-374.32"/>
</g>
<!-- Node3 -->
<g id="node3" class="node">
<title>Node3</title>
<g id="a_node3"><a xlink:title=" ">
<polygon fill="white" stroke="#bfbfbf" points="250,-1035.5 250,-1092.5 333,-1092.5 333,-1035.5 250,-1035.5"/>
<text text-anchor="middle" x="291.5" y="-1080.5" font-family="Helvetica,sans-Serif" font-size="10.00">ClientSocketT</text>
<polyline fill="none" stroke="#bfbfbf" points="250,-1073.5 333,-1073.5 "/>
<text text-anchor="middle" x="291.5" y="-1061.5" font-family="Helvetica,sans-Serif" font-size="10.00"> </text>
<polyline fill="none" stroke="#bfbfbf" points="250,-1054.5 333,-1054.5 "/>
<text text-anchor="middle" x="291.5" y="-1042.5" font-family="Helvetica,sans-Serif" font-size="10.00"> </text>
</a>
</g>
</g>
<!-- Node3&#45;&gt;Node2 -->
<g id="edge2" class="edge">
<title>Node3&#45;&gt;Node2</title>
<path fill="none" stroke="midnightblue" d="M291.78,-1025.16C292.34,-948.91 293.63,-773.58 294.53,-650.64"/>
<polygon fill="none" stroke="midnightblue" points="288.28,-1025.22 291.7,-1035.25 295.28,-1025.28 288.28,-1025.22"/>
</g>
<!-- Node4 -->
<g id="node4" class="node">
<title>Node4</title>
<g id="a_node4"><a xlink:href="classcore_1_1socket_1_1stream_1_1_socket_client.html" target="_top" xlink:title=" ">
<polygon fill="white" stroke="black" points="308,-742.5 308,-997.5 501,-997.5 501,-742.5 308,-742.5"/>
<text text-anchor="start" x="316" y="-985.5" font-family="Helvetica,sans-Serif" font-size="10.00">core::socket::stream</text>
<text text-anchor="start" x="316" y="-974.5" font-family="Helvetica,sans-Serif" font-size="10.00">::SocketClient&lt; ClientSocket</text>
<text text-anchor="start" x="316" y="-963.5" font-family="Helvetica,sans-Serif" font-size="10.00">T, SocketConnectorT, SocketContext</text>
<text text-anchor="middle" x="404.5" y="-952.5" font-family="Helvetica,sans-Serif" font-size="10.00">FactoryT &gt;</text>
<polyline fill="none" stroke="black" points="308,-945.5 501,-945.5 "/>
<text text-anchor="start" x="316" y="-933.5" font-family="Helvetica,sans-Serif" font-size="10.00"># clientConfig</text>
<text text-anchor="start" x="316" y="-922.5" font-family="Helvetica,sans-Serif" font-size="10.00"># socketContextFactory</text>
<text text-anchor="start" x="316" y="-911.5" font-family="Helvetica,sans-Serif" font-size="10.00"># _onConnect</text>
<text text-anchor="start" x="316" y="-900.5" font-family="Helvetica,sans-Serif" font-size="10.00"># _onConnected</text>
<text text-anchor="start" x="316" y="-889.5" font-family="Helvetica,sans-Serif" font-size="10.00"># _onDisconnect</text>
<text text-anchor="start" x="316" y="-878.5" font-family="Helvetica,sans-Serif" font-size="10.00"># options</text>
<polyline fill="none" stroke="black" points="308,-871.5 501,-871.5 "/>
<text text-anchor="start" x="316" y="-859.5" font-family="Helvetica,sans-Serif" font-size="10.00">+ SocketClient()</text>
<text text-anchor="start" x="316" y="-848.5" font-family="Helvetica,sans-Serif" font-size="10.00">+ SocketClient()</text>
<text text-anchor="start" x="316" y="-837.5" font-family="Helvetica,sans-Serif" font-size="10.00">+ ~SocketClient()</text>
<text text-anchor="start" x="316" y="-826.5" font-family="Helvetica,sans-Serif" font-size="10.00">+ connect()</text>
<text text-anchor="start" x="316" y="-815.5" font-family="Helvetica,sans-Serif" font-size="10.00">+ connect()</text>
<text text-anchor="start" x="316" y="-804.5" font-family="Helvetica,sans-Serif" font-size="10.00">+ connect()</text>
<text text-anchor="start" x="316" y="-793.5" font-family="Helvetica,sans-Serif" font-size="10.00">+ onConnect()</text>
<text text-anchor="start" x="316" y="-782.5" font-family="Helvetica,sans-Serif" font-size="10.00">+ onConnected()</text>
<text text-anchor="start" x="316" y="-771.5" font-family="Helvetica,sans-Serif" font-size="10.00">+ onDisconnect()</text>
<text text-anchor="start" x="316" y="-760.5" font-family="Helvetica,sans-Serif" font-size="10.00">+ getSocketContextFactory()</text>
<text text-anchor="start" x="316" y="-749.5" font-family="Helvetica,sans-Serif" font-size="10.00">&#45; SocketClient()</text>
</a>
</g>
</g>
<!-- Node3&#45;&gt;Node4 -->
<g id="edge4" class="edge">
<title>Node3&#45;&gt;Node4</title>
<path fill="none" stroke="midnightblue" d="M312.81,-1026.78C317.97,-1018.02 323.78,-1008.16 329.9,-997.75"/>
<polygon fill="none" stroke="midnightblue" points="309.75,-1025.1 307.69,-1035.49 315.78,-1028.65 309.75,-1025.1"/>
</g>
<!-- Node4&#45;&gt;Node2 -->
<g id="edge3" class="edge">
<title>Node4&#45;&gt;Node2</title>
<path fill="none" stroke="orange" d="M362.09,-732.61C353.72,-705.71 344.95,-677.52 336.63,-650.76"/>
<polygon fill="orange" stroke="orange" points="358.84,-733.95 365.15,-742.46 365.52,-731.87 358.84,-733.95"/>
<text text-anchor="start" x="356.5" y="-716" font-family="Helvetica,sans-Serif" font-size="10.00"> &lt; ClientSocketT, core</text>
<text text-anchor="start" x="356.5" y="-705" font-family="Helvetica,sans-Serif" font-size="10.00">::socket::stream::legacy</text>
<text text-anchor="start" x="356.5" y="-694" font-family="Helvetica,sans-Serif" font-size="10.00">::SocketConnector&lt; ClientConfig</text>
<text text-anchor="start" x="356.5" y="-683" font-family="Helvetica,sans-Serif" font-size="10.00">T, ClientSocketT::Socket &gt;,</text>
<text text-anchor="middle" x="436.5" y="-672" font-family="Helvetica,sans-Serif" font-size="10.00"> SocketContextFactoryT &gt;</text>
</g>
<!-- Node6 -->
<g id="node6" class="node">
<title>Node6</title>
<g id="a_node6"><a xlink:href="classweb_1_1http_1_1legacy_1_1un_1_1_client.html" target="_top" xlink:title=" ">
<polygon fill="white" stroke="black" points="7,-0.5 7,-79.5 124,-79.5 124,-0.5 7,-0.5"/>
<text text-anchor="start" x="15" y="-67.5" font-family="Helvetica,sans-Serif" font-size="10.00">web::http::legacy::</text>
<text text-anchor="start" x="15" y="-56.5" font-family="Helvetica,sans-Serif" font-size="10.00">un::Client&lt; Request,</text>
<text text-anchor="middle" x="65.5" y="-45.5" font-family="Helvetica,sans-Serif" font-size="10.00"> Response &gt;</text>
<polyline fill="none" stroke="black" points="7,-38.5 124,-38.5 "/>
<text text-anchor="middle" x="65.5" y="-26.5" font-family="Helvetica,sans-Serif" font-size="10.00"> </text>
<polyline fill="none" stroke="black" points="7,-19.5 124,-19.5 "/>
<text text-anchor="middle" x="65.5" y="-7.5" font-family="Helvetica,sans-Serif" font-size="10.00"> </text>
</a>
</g>
</g>
<!-- Node5&#45;&gt;Node6 -->
<g id="edge6" class="edge">
<title>Node5&#45;&gt;Node6</title>
<path fill="none" stroke="midnightblue" d="M65.5,-112.86C65.5,-101.74 65.5,-90.24 65.5,-79.79"/>
<polygon fill="none" stroke="midnightblue" points="62,-112.93 65.5,-122.93 69,-112.93 62,-112.93"/>
</g>
<!-- Node8 -->
<g id="node8" class="node">
<title>Node8</title>
<g id="a_node8"><a xlink:href="classweb_1_1http_1_1legacy_1_1in_1_1_client.html" target="_top" xlink:title=" ">
<polygon fill="white" stroke="black" points="156.5,-0.5 156.5,-79.5 270.5,-79.5 270.5,-0.5 156.5,-0.5"/>
<text text-anchor="start" x="164.5" y="-67.5" font-family="Helvetica,sans-Serif" font-size="10.00">web::http::legacy::</text>
<text text-anchor="start" x="164.5" y="-56.5" font-family="Helvetica,sans-Serif" font-size="10.00">in::Client&lt; Request,</text>
<text text-anchor="middle" x="213.5" y="-45.5" font-family="Helvetica,sans-Serif" font-size="10.00"> Response &gt;</text>
<polyline fill="none" stroke="black" points="156.5,-38.5 270.5,-38.5 "/>
<text text-anchor="middle" x="213.5" y="-26.5" font-family="Helvetica,sans-Serif" font-size="10.00"> </text>
<polyline fill="none" stroke="black" points="156.5,-19.5 270.5,-19.5 "/>
<text text-anchor="middle" x="213.5" y="-7.5" font-family="Helvetica,sans-Serif" font-size="10.00"> </text>
</a>
</g>
</g>
<!-- Node7&#45;&gt;Node8 -->
<g id="edge8" class="edge">
<title>Node7&#45;&gt;Node8</title>
<path fill="none" stroke="midnightblue" d="M213.5,-112.86C213.5,-101.74 213.5,-90.24 213.5,-79.79"/>
<polygon fill="none" stroke="midnightblue" points="210,-112.93 213.5,-122.93 217,-112.93 210,-112.93"/>
</g>
<!-- Node10 -->
<g id="node10" class="node">
<title>Node10</title>
<g id="a_node10"><a xlink:href="classweb_1_1http_1_1legacy_1_1in6_1_1_client.html" target="_top" xlink:title=" ">
<polygon fill="white" stroke="black" points="317.5,-0.5 317.5,-79.5 437.5,-79.5 437.5,-0.5 317.5,-0.5"/>
<text text-anchor="start" x="325.5" y="-67.5" font-family="Helvetica,sans-Serif" font-size="10.00">web::http::legacy::</text>
<text text-anchor="start" x="325.5" y="-56.5" font-family="Helvetica,sans-Serif" font-size="10.00">in6::Client&lt; Request,</text>
<text text-anchor="middle" x="377.5" y="-45.5" font-family="Helvetica,sans-Serif" font-size="10.00"> Response &gt;</text>
<polyline fill="none" stroke="black" points="317.5,-38.5 437.5,-38.5 "/>
<text text-anchor="middle" x="377.5" y="-26.5" font-family="Helvetica,sans-Serif" font-size="10.00"> </text>
<polyline fill="none" stroke="black" points="317.5,-19.5 437.5,-19.5 "/>
<text text-anchor="middle" x="377.5" y="-7.5" font-family="Helvetica,sans-Serif" font-size="10.00"> </text>
</a>
</g>
</g>
<!-- Node9&#45;&gt;Node10 -->
<g id="edge10" class="edge">
<title>Node9&#45;&gt;Node10</title>
<path fill="none" stroke="midnightblue" d="M377.5,-107.11C377.5,-97.74 377.5,-88.28 377.5,-79.56"/>
<polygon fill="none" stroke="midnightblue" points="374,-107.2 377.5,-117.2 381,-107.2 374,-107.2"/>
</g>
<!-- Node12 -->
<g id="node12" class="node">
<title>Node12</title>
<g id="a_node12"><a xlink:href="classweb_1_1http_1_1legacy_1_1rf_1_1_client.html" target="_top" xlink:title=" ">
<polygon fill="white" stroke="black" points="502.5,-0.5 502.5,-79.5 614.5,-79.5 614.5,-0.5 502.5,-0.5"/>
<text text-anchor="start" x="510.5" y="-67.5" font-family="Helvetica,sans-Serif" font-size="10.00">web::http::legacy::</text>
<text text-anchor="start" x="510.5" y="-56.5" font-family="Helvetica,sans-Serif" font-size="10.00">rf::Client&lt; Request,</text>
<text text-anchor="middle" x="558.5" y="-45.5" font-family="Helvetica,sans-Serif" font-size="10.00"> Response &gt;</text>
<polyline fill="none" stroke="black" points="502.5,-38.5 614.5,-38.5 "/>
<text text-anchor="middle" x="558.5" y="-26.5" font-family="Helvetica,sans-Serif" font-size="10.00"> </text>
<polyline fill="none" stroke="black" points="502.5,-19.5 614.5,-19.5 "/>
<text text-anchor="middle" x="558.5" y="-7.5" font-family="Helvetica,sans-Serif" font-size="10.00"> </text>
</a>
</g>
</g>
<!-- Node11&#45;&gt;Node12 -->
<g id="edge12" class="edge">
<title>Node11&#45;&gt;Node12</title>
<path fill="none" stroke="midnightblue" d="M558.5,-107.11C558.5,-97.74 558.5,-88.28 558.5,-79.56"/>
<polygon fill="none" stroke="midnightblue" points="555,-107.2 558.5,-117.2 562,-107.2 555,-107.2"/>
</g>
</g>
</svg>
