<?xml version="1.0" encoding="UTF-8" standalone="no"?>
<!DOCTYPE svg PUBLIC "-//W3C//DTD SVG 1.1//EN"
 "http://www.w3.org/Graphics/SVG/1.1/DTD/svg11.dtd">
<!-- Generated by graphviz version 2.43.0 (0)
 -->
<!-- Title: core::DescriptorEventPublisher::enable Pages: 1 -->
<svg width="573pt" height="88pt"
 viewBox="0.00 0.00 573.00 88.00" xmlns="http://www.w3.org/2000/svg" xmlns:xlink="http://www.w3.org/1999/xlink">
<g id="graph0" class="graph" transform="scale(1 1) rotate(0) translate(4 84)">
<title>core::DescriptorEventPublisher::enable</title>
<polygon fill="white" stroke="transparent" points="-4,4 -4,-84 569,-84 569,4 -4,4"/>
<!-- Node1 -->
<g id="node1" class="node">
<title>Node1</title>
<g id="a_node1"><a xlink:title=" ">
<polygon fill="#bfbfbf" stroke="black" points="398,-24.5 398,-54.5 565,-54.5 565,-24.5 398,-24.5"/>
<text text-anchor="start" x="406" y="-42.5" font-family="Helvetica,sans-Serif" font-size="10.00">core::DescriptorEventPublisher</text>
<text text-anchor="middle" x="481.5" y="-31.5" font-family="Helvetica,sans-Serif" font-size="10.00">::enable</text>
</a>
</g>
</g>
<!-- Node2 -->
<g id="node2" class="node">
<title>Node2</title>
<g id="a_node2"><a xlink:href="classcore_1_1_descriptor_event_receiver.html#ac8611e3a44e67126e1418844dea4a326" target="_top" xlink:title=" ">
<polygon fill="white" stroke="black" points="198,-24.5 198,-54.5 362,-54.5 362,-24.5 198,-24.5"/>
<text text-anchor="start" x="206" y="-42.5" font-family="Helvetica,sans-Serif" font-size="10.00">core::DescriptorEventReceiver</text>
<text text-anchor="middle" x="280" y="-31.5" font-family="Helvetica,sans-Serif" font-size="10.00">::enable</text>
</a>
</g>
</g>
<!-- Node1&#45;&gt;Node2 -->
<g id="edge1" class="edge">
<title>Node1&#45;&gt;Node2</title>
<path fill="none" stroke="midnightblue" d="M387.9,-39.5C379.33,-39.5 370.69,-39.5 362.24,-39.5"/>
<polygon fill="midnightblue" stroke="midnightblue" points="387.92,-43 397.92,-39.5 387.92,-36 387.92,-43"/>
</g>
<!-- Node3 -->
<g id="node3" class="node">
<title>Node3</title>
<g id="a_node3"><a xlink:href="classcore_1_1socket_1_1stream_1_1_socket_reader.html#a08ed40da6a9eab2338abe7caf813815c" target="_top" xlink:title=" ">
<polygon fill="white" stroke="black" points="0,-49.5 0,-79.5 162,-79.5 162,-49.5 0,-49.5"/>
<text text-anchor="start" x="8" y="-67.5" font-family="Helvetica,sans-Serif" font-size="10.00">core::socket::stream</text>
<text text-anchor="middle" x="81" y="-56.5" font-family="Helvetica,sans-Serif" font-size="10.00">::SocketReader::SocketReader</text>
</a>
</g>
</g>
<!-- Node2&#45;&gt;Node3 -->
<g id="edge2" class="edge">
<title>Node2&#45;&gt;Node3</title>
<path fill="none" stroke="midnightblue" d="M187.74,-51.08C179.19,-52.17 170.56,-53.26 162.13,-54.33"/>
<polygon fill="midnightblue" stroke="midnightblue" points="188.26,-54.54 197.74,-49.81 187.37,-47.6 188.26,-54.54"/>
</g>
<!-- Node4 -->
<g id="node4" class="node">
<title>Node4</title>
<g id="a_node4"><a xlink:href="classcore_1_1socket_1_1stream_1_1_socket_writer.html#a5ba1c52e7d40026bb53913db9dd139ba" target="_top" xlink:title=" ">
<polygon fill="white" stroke="black" points="4.5,-0.5 4.5,-30.5 157.5,-30.5 157.5,-0.5 4.5,-0.5"/>
<text text-anchor="start" x="12.5" y="-18.5" font-family="Helvetica,sans-Serif" font-size="10.00">core::socket::stream</text>
<text text-anchor="middle" x="81" y="-7.5" font-family="Helvetica,sans-Serif" font-size="10.00">::SocketWriter::SocketWriter</text>
</a>
</g>
</g>
<!-- Node2&#45;&gt;Node4 -->
<g id="edge3" class="edge">
<title>Node2&#45;&gt;Node4</title>
<path fill="none" stroke="midnightblue" d="M187.73,-28.38C177.68,-27.16 167.53,-25.92 157.7,-24.72"/>
<polygon fill="midnightblue" stroke="midnightblue" points="187.39,-31.86 197.74,-29.6 188.23,-24.92 187.39,-31.86"/>
</g>
</g>
</svg>
