<?xml version="1.0" encoding="UTF-8" standalone="no"?>
<!DOCTYPE svg PUBLIC "-//W3C//DTD SVG 1.1//EN"
 "http://www.w3.org/Graphics/SVG/1.1/DTD/svg11.dtd">
<!-- Generated by graphviz version 2.43.0 (0)
 -->
<!-- Title: core::TimerEventPublisher::unobserveDisableEvents Pages: 1 -->
<svg width="1304pt" height="116pt"
 viewBox="0.00 0.00 1304.00 115.50" xmlns="http://www.w3.org/2000/svg" xmlns:xlink="http://www.w3.org/1999/xlink">
<g id="graph0" class="graph" transform="scale(1 1) rotate(0) translate(4 111.5)">
<title>core::TimerEventPublisher::unobserveDisableEvents</title>
<polygon fill="white" stroke="transparent" points="-4,4 -4,-111.5 1300,-111.5 1300,4 -4,4"/>
<!-- Node1 -->
<g id="node1" class="node">
<title>Node1</title>
<g id="a_node1"><a xlink:title=" ">
<polygon fill="#bfbfbf" stroke="black" points="1152,-24.5 1152,-54.5 1296,-54.5 1296,-24.5 1152,-24.5"/>
<text text-anchor="start" x="1160" y="-42.5" font-family="Helvetica,sans-Serif" font-size="10.00">core::TimerEventPublisher</text>
<text text-anchor="middle" x="1224" y="-31.5" font-family="Helvetica,sans-Serif" font-size="10.00">::unobserveDisableEvents</text>
</a>
</g>
</g>
<!-- Node2 -->
<g id="node2" class="node">
<title>Node2</title>
<g id="a_node2"><a xlink:href="classcore_1_1_event_multiplexer.html#a6e7720b5765f5cced89b46b8061b4901" target="_top" xlink:title=" ">
<polygon fill="white" stroke="black" points="970,-49.5 970,-79.5 1116,-79.5 1116,-49.5 970,-49.5"/>
<text text-anchor="start" x="978" y="-67.5" font-family="Helvetica,sans-Serif" font-size="10.00">core::EventMultiplexer</text>
<text text-anchor="middle" x="1043" y="-56.5" font-family="Helvetica,sans-Serif" font-size="10.00">::purgeReleasedResources</text>
</a>
</g>
</g>
<!-- Node1&#45;&gt;Node2 -->
<g id="edge1" class="edge">
<title>Node1&#45;&gt;Node2</title>
<path fill="none" stroke="midnightblue" d="M1141.94,-50.82C1133.32,-52.02 1124.6,-53.24 1116.09,-54.43"/>
<polygon fill="midnightblue" stroke="midnightblue" points="1142.58,-54.27 1152,-49.42 1141.61,-47.33 1142.58,-54.27"/>
</g>
<!-- Node14 -->
<g id="node14" class="node">
<title>Node14</title>
<g id="a_node14"><a xlink:href="classcore_1_1_timer_event_publisher.html#a78db35b8164a8dd0ca09eff66be33d67" target="_top" xlink:title=" ">
<polygon fill="white" stroke="black" points="971,-0.5 971,-30.5 1115,-30.5 1115,-0.5 971,-0.5"/>
<text text-anchor="start" x="979" y="-18.5" font-family="Helvetica,sans-Serif" font-size="10.00">core::TimerEventPublisher</text>
<text text-anchor="middle" x="1043" y="-7.5" font-family="Helvetica,sans-Serif" font-size="10.00">::stop</text>
</a>
</g>
</g>
<!-- Node1&#45;&gt;Node14 -->
<g id="edge14" class="edge">
<title>Node1&#45;&gt;Node14</title>
<path fill="none" stroke="midnightblue" d="M1141.98,-28.64C1133.05,-27.44 1124.01,-26.23 1115.21,-25.05"/>
<polygon fill="midnightblue" stroke="midnightblue" points="1141.62,-32.12 1152,-29.98 1142.55,-25.18 1141.62,-32.12"/>
</g>
<!-- Node3 -->
<g id="node3" class="node">
<title>Node3</title>
<g id="a_node3"><a xlink:href="classcore_1_1_event_multiplexer.html#a31ffc5108d12ad959b94dffcaccc2649" target="_top" xlink:title=" ">
<polygon fill="white" stroke="black" points="807,-48.5 807,-78.5 934,-78.5 934,-48.5 807,-48.5"/>
<text text-anchor="start" x="815" y="-66.5" font-family="Helvetica,sans-Serif" font-size="10.00">core::EventMultiplexer</text>
<text text-anchor="middle" x="870.5" y="-55.5" font-family="Helvetica,sans-Serif" font-size="10.00">::tick</text>
</a>
</g>
</g>
<!-- Node2&#45;&gt;Node3 -->
<g id="edge2" class="edge">
<title>Node2&#45;&gt;Node3</title>
<path fill="none" stroke="midnightblue" d="M959.68,-64.02C951.11,-63.97 942.51,-63.92 934.21,-63.87"/>
<polygon fill="midnightblue" stroke="midnightblue" points="959.67,-67.52 969.69,-64.08 959.71,-60.52 959.67,-67.52"/>
</g>
<!-- Node4 -->
<g id="node4" class="node">
<title>Node4</title>
<g id="a_node4"><a xlink:href="classcore_1_1_event_loop.html#a3ce638b4895c765df8e60a804be90339" target="_top" xlink:title=" ">
<polygon fill="white" stroke="black" points="645.5,-54 645.5,-73 769.5,-73 769.5,-54 645.5,-54"/>
<text text-anchor="middle" x="707.5" y="-61" font-family="Helvetica,sans-Serif" font-size="10.00">core::EventLoop::_tick</text>
</a>
</g>
</g>
<!-- Node3&#45;&gt;Node4 -->
<g id="edge3" class="edge">
<title>Node3&#45;&gt;Node4</title>
<path fill="none" stroke="midnightblue" d="M796.69,-63.5C787.68,-63.5 778.53,-63.5 769.72,-63.5"/>
<polygon fill="midnightblue" stroke="midnightblue" points="796.79,-67 806.79,-63.5 796.79,-60 796.79,-67"/>
</g>
<!-- Node5 -->
<g id="node5" class="node">
<title>Node5</title>
<g id="a_node5"><a xlink:href="classcore_1_1_event_loop.html#a3125b6361565df4753affc73eb83984a" target="_top" xlink:title=" ">
<polygon fill="white" stroke="black" points="488,-12 488,-31 608,-31 608,-12 488,-12"/>
<text text-anchor="middle" x="548" y="-19" font-family="Helvetica,sans-Serif" font-size="10.00">core::EventLoop::free</text>
</a>
</g>
</g>
<!-- Node4&#45;&gt;Node5 -->
<g id="edge4" class="edge">
<title>Node4&#45;&gt;Node5</title>
<path fill="none" stroke="midnightblue" d="M661.07,-51.39C636.85,-44.93 607.47,-37.09 584.87,-31.07"/>
<polygon fill="midnightblue" stroke="midnightblue" points="660.2,-54.77 670.76,-53.97 662,-48.01 660.2,-54.77"/>
</g>
<!-- Node8 -->
<g id="node8" class="node">
<title>Node8</title>
<g id="a_node8"><a xlink:href="classcore_1_1_event_loop.html#aaa2c3856fed808d00542d573c2b3a737" target="_top" xlink:title=" ">
<polygon fill="white" stroke="black" points="329,-50 329,-69 452,-69 452,-50 329,-50"/>
<text text-anchor="middle" x="390.5" y="-57" font-family="Helvetica,sans-Serif" font-size="10.00">core::EventLoop::start</text>
</a>
</g>
</g>
<!-- Node4&#45;&gt;Node8 -->
<g id="edge10" class="edge">
<title>Node4&#45;&gt;Node8</title>
<path fill="none" stroke="midnightblue" d="M635.34,-62.6C580.15,-61.9 504.51,-60.94 452.17,-60.27"/>
<polygon fill="midnightblue" stroke="midnightblue" points="635.35,-66.1 645.39,-62.72 635.44,-59.1 635.35,-66.1"/>
</g>
<!-- Node11 -->
<g id="node11" class="node">
<title>Node11</title>
<g id="a_node11"><a xlink:href="classcore_1_1_event_loop.html#a811fbdf8265440db286c44f08c644235" target="_top" xlink:title=" ">
<polygon fill="white" stroke="black" points="488.5,-88 488.5,-107 607.5,-107 607.5,-88 488.5,-88"/>
<text text-anchor="middle" x="548" y="-95" font-family="Helvetica,sans-Serif" font-size="10.00">core::EventLoop::tick</text>
</a>
</g>
</g>
<!-- Node4&#45;&gt;Node11 -->
<g id="edge11" class="edge">
<title>Node4&#45;&gt;Node11</title>
<path fill="none" stroke="midnightblue" d="M652.35,-75.19C633.06,-79.35 611.59,-83.99 593.23,-87.95"/>
<polygon fill="midnightblue" stroke="midnightblue" points="653.17,-78.59 662.21,-73.06 651.69,-71.75 653.17,-78.59"/>
</g>
<!-- Node6 -->
<g id="node6" class="node">
<title>Node6</title>
<g id="a_node6"><a xlink:href="classcore_1_1_s_node_c.html#a723f1f8e484db32164adeca1fbf98e28" target="_top" xlink:title=" ">
<polygon fill="white" stroke="black" points="337,-12 337,-31 444,-31 444,-12 337,-12"/>
<text text-anchor="middle" x="390.5" y="-19" font-family="Helvetica,sans-Serif" font-size="10.00">core::SNodeC::free</text>
</a>
</g>
</g>
<!-- Node5&#45;&gt;Node6 -->
<g id="edge5" class="edge">
<title>Node5&#45;&gt;Node6</title>
<path fill="none" stroke="midnightblue" d="M477.57,-21.5C466.37,-21.5 454.93,-21.5 444.2,-21.5"/>
<polygon fill="midnightblue" stroke="midnightblue" points="477.77,-25 487.77,-21.5 477.77,-18 477.77,-25"/>
</g>
<!-- Node5&#45;&gt;Node8 -->
<g id="edge7" class="edge">
<title>Node5&#45;&gt;Node8</title>
<path fill="none" stroke="midnightblue" d="M498.03,-33.47C476.23,-38.79 450.93,-44.98 430.46,-49.98"/>
<polygon fill="midnightblue" stroke="midnightblue" points="498.88,-36.86 507.76,-31.09 497.22,-30.06 498.88,-36.86"/>
</g>
<!-- Node7 -->
<g id="node7" class="node">
<title>Node7</title>
<g id="a_node7"><a xlink:href="classexpress_1_1_web_app.html#a07c26842d227b81ee32b9b26a94cae1b" target="_top" xlink:title=" ">
<polygon fill="white" stroke="black" points="166,-12 166,-31 293,-31 293,-12 166,-12"/>
<text text-anchor="middle" x="229.5" y="-19" font-family="Helvetica,sans-Serif" font-size="10.00">express::WebApp::free</text>
</a>
</g>
</g>
<!-- Node6&#45;&gt;Node7 -->
<g id="edge6" class="edge">
<title>Node6&#45;&gt;Node7</title>
<path fill="none" stroke="midnightblue" d="M326.96,-21.5C315.85,-21.5 304.28,-21.5 293.18,-21.5"/>
<polygon fill="midnightblue" stroke="midnightblue" points="327,-25 337,-21.5 327,-18 327,-25"/>
</g>
<!-- Node9 -->
<g id="node9" class="node">
<title>Node9</title>
<g id="a_node9"><a xlink:href="classcore_1_1_s_node_c.html#ac3d0dcb6c216ae72d9bbb77fe080e461" target="_top" xlink:title=" ">
<polygon fill="white" stroke="black" points="174.5,-50 174.5,-69 284.5,-69 284.5,-50 174.5,-50"/>
<text text-anchor="middle" x="229.5" y="-57" font-family="Helvetica,sans-Serif" font-size="10.00">core::SNodeC::start</text>
</a>
</g>
</g>
<!-- Node8&#45;&gt;Node9 -->
<g id="edge8" class="edge">
<title>Node8&#45;&gt;Node9</title>
<path fill="none" stroke="midnightblue" d="M318.92,-59.5C307.42,-59.5 295.67,-59.5 284.64,-59.5"/>
<polygon fill="midnightblue" stroke="midnightblue" points="318.94,-63 328.94,-59.5 318.94,-56 318.94,-63"/>
</g>
<!-- Node10 -->
<g id="node10" class="node">
<title>Node10</title>
<g id="a_node10"><a xlink:href="classexpress_1_1_web_app.html#a54e6910c9466c61d0b217490b7d9bb5a" target="_top" xlink:title=" ">
<polygon fill="white" stroke="black" points="0,-50 0,-69 130,-69 130,-50 0,-50"/>
<text text-anchor="middle" x="65" y="-57" font-family="Helvetica,sans-Serif" font-size="10.00">express::WebApp::start</text>
</a>
</g>
</g>
<!-- Node9&#45;&gt;Node10 -->
<g id="edge9" class="edge">
<title>Node9&#45;&gt;Node10</title>
<path fill="none" stroke="midnightblue" d="M164.21,-59.5C152.96,-59.5 141.26,-59.5 130.02,-59.5"/>
<polygon fill="midnightblue" stroke="midnightblue" points="164.39,-63 174.39,-59.5 164.39,-56 164.39,-63"/>
</g>
<!-- Node12 -->
<g id="node12" class="node">
<title>Node12</title>
<g id="a_node12"><a xlink:href="classcore_1_1_s_node_c.html#a57b40bb139f23e6a9fc2704d2415e636" target="_top" xlink:title=" ">
<polygon fill="white" stroke="black" points="337.5,-88 337.5,-107 443.5,-107 443.5,-88 337.5,-88"/>
<text text-anchor="middle" x="390.5" y="-95" font-family="Helvetica,sans-Serif" font-size="10.00">core::SNodeC::tick</text>
</a>
</g>
</g>
<!-- Node11&#45;&gt;Node12 -->
<g id="edge12" class="edge">
<title>Node11&#45;&gt;Node12</title>
<path fill="none" stroke="midnightblue" d="M478.15,-97.5C466.6,-97.5 454.78,-97.5 443.74,-97.5"/>
<polygon fill="midnightblue" stroke="midnightblue" points="478.21,-101 488.21,-97.5 478.21,-94 478.21,-101"/>
</g>
<!-- Node13 -->
<g id="node13" class="node">
<title>Node13</title>
<g id="a_node13"><a xlink:href="classexpress_1_1_web_app.html#a42de99299b0f344789e201aee12b3fd7" target="_top" xlink:title=" ">
<polygon fill="white" stroke="black" points="167,-88 167,-107 292,-107 292,-88 167,-88"/>
<text text-anchor="middle" x="229.5" y="-95" font-family="Helvetica,sans-Serif" font-size="10.00">express::WebApp::tick</text>
</a>
</g>
</g>
<!-- Node12&#45;&gt;Node13 -->
<g id="edge13" class="edge">
<title>Node12&#45;&gt;Node13</title>
<path fill="none" stroke="midnightblue" d="M327.4,-97.5C315.8,-97.5 303.67,-97.5 292.09,-97.5"/>
<polygon fill="midnightblue" stroke="midnightblue" points="327.44,-101 337.44,-97.5 327.44,-94 327.44,-101"/>
</g>
<!-- Node15 -->
<g id="node15" class="node">
<title>Node15</title>
<g id="a_node15"><a xlink:href="classcore_1_1_event_multiplexer.html#a56149f93e86262641e94e42d8d5b9a2b" target="_top" xlink:title=" ">
<polygon fill="white" stroke="black" points="644,-3.5 644,-33.5 771,-33.5 771,-3.5 644,-3.5"/>
<text text-anchor="start" x="652" y="-21.5" font-family="Helvetica,sans-Serif" font-size="10.00">core::EventMultiplexer</text>
<text text-anchor="middle" x="707.5" y="-10.5" font-family="Helvetica,sans-Serif" font-size="10.00">::stop</text>
</a>
</g>
</g>
<!-- Node14&#45;&gt;Node15 -->
<g id="edge15" class="edge">
<title>Node14&#45;&gt;Node15</title>
<path fill="none" stroke="midnightblue" d="M960.56,-16.23C902.17,-16.76 824.67,-17.45 771.1,-17.94"/>
<polygon fill="midnightblue" stroke="midnightblue" points="960.9,-19.73 970.86,-16.14 960.83,-12.73 960.9,-19.73"/>
</g>
<!-- Node15&#45;&gt;Node5 -->
<g id="edge16" class="edge">
<title>Node15&#45;&gt;Node5</title>
<path fill="none" stroke="midnightblue" d="M633.79,-19.88C625.2,-20.05 616.52,-20.21 608.16,-20.37"/>
<polygon fill="midnightblue" stroke="midnightblue" points="633.87,-23.38 643.8,-19.69 633.73,-16.39 633.87,-23.38"/>
</g>
</g>
</svg>
