<?xml version="1.0" encoding="UTF-8" standalone="no"?>
<!DOCTYPE svg PUBLIC "-//W3C//DTD SVG 1.1//EN"
 "http://www.w3.org/Graphics/SVG/1.1/DTD/svg11.dtd">
<!-- Generated by graphviz version 2.43.0 (0)
 -->
<!-- Title: express::Route Pages: 1 -->
<svg width="325pt" height="397pt"
 viewBox="0.00 0.00 325.00 397.00" xmlns="http://www.w3.org/2000/svg" xmlns:xlink="http://www.w3.org/1999/xlink">
<g id="graph0" class="graph" transform="scale(1 1) rotate(0) translate(4 393)">
<title>express::Route</title>
<polygon fill="white" stroke="transparent" points="-4,4 -4,-393 321,-393 321,4 -4,4"/>
<!-- Node1 -->
<g id="node1" class="node">
<title>Node1</title>
<g id="a_node1"><a xlink:title=" ">
<polygon fill="#bfbfbf" stroke="black" points="47.5,-0.5 47.5,-79.5 160.5,-79.5 160.5,-0.5 47.5,-0.5"/>
<text text-anchor="middle" x="104" y="-67.5" font-family="Helvetica,sans-Serif" font-size="10.00">express::Route</text>
<polyline fill="none" stroke="black" points="47.5,-60.5 160.5,-60.5 "/>
<text text-anchor="start" x="55.5" y="-48.5" font-family="Helvetica,sans-Serif" font-size="10.00"># dispatcher</text>
<text text-anchor="start" x="55.5" y="-37.5" font-family="Helvetica,sans-Serif" font-size="10.00"># RouterDispatcher</text>
<polyline fill="none" stroke="black" points="47.5,-30.5 160.5,-30.5 "/>
<text text-anchor="start" x="55.5" y="-18.5" font-family="Helvetica,sans-Serif" font-size="10.00">+ Route()</text>
<text text-anchor="start" x="55.5" y="-7.5" font-family="Helvetica,sans-Serif" font-size="10.00">+ dispatch()</text>
</a>
</g>
</g>
<!-- Node2 -->
<g id="node2" class="node">
<title>Node2</title>
<g id="a_node2"><a xlink:href="structexpress_1_1_mount_point.html" target="_top" xlink:title=" ">
<polygon fill="white" stroke="black" points="0,-149.5 0,-217.5 118,-217.5 118,-149.5 0,-149.5"/>
<text text-anchor="middle" x="59" y="-205.5" font-family="Helvetica,sans-Serif" font-size="10.00">express::MountPoint</text>
<polyline fill="none" stroke="black" points="0,-198.5 118,-198.5 "/>
<text text-anchor="start" x="8" y="-186.5" font-family="Helvetica,sans-Serif" font-size="10.00">+ method</text>
<text text-anchor="start" x="8" y="-175.5" font-family="Helvetica,sans-Serif" font-size="10.00">+ relativeMountPath</text>
<polyline fill="none" stroke="black" points="0,-168.5 118,-168.5 "/>
<text text-anchor="start" x="8" y="-156.5" font-family="Helvetica,sans-Serif" font-size="10.00">+ MountPoint()</text>
</a>
</g>
</g>
<!-- Node2&#45;&gt;Node1 -->
<g id="edge1" class="edge">
<title>Node2&#45;&gt;Node1</title>
<path fill="none" stroke="#404040" d="M69.55,-149.32C75.04,-132.07 81.86,-110.63 87.98,-91.38"/>
<polygon fill="none" stroke="#404040" points="88.04,-91.17 86.05,-84.24 91.68,-79.73 93.67,-86.67 88.04,-91.17"/>
<text text-anchor="middle" x="120" y="-101" font-family="Helvetica,sans-Serif" font-size="10.00"> #mountPoint</text>
</g>
<!-- Node3 -->
<g id="node3" class="node">
<title>Node3</title>
<g id="a_node3"><a xlink:href="classexpress_1_1_router_dispatcher.html" target="_top" xlink:title=" ">
<polygon fill="white" stroke="black" points="136,-127.5 136,-239.5 282,-239.5 282,-127.5 136,-127.5"/>
<text text-anchor="middle" x="209" y="-227.5" font-family="Helvetica,sans-Serif" font-size="10.00">express::RouterDispatcher</text>
<polyline fill="none" stroke="black" points="136,-220.5 282,-220.5 "/>
<text text-anchor="start" x="144" y="-208.5" font-family="Helvetica,sans-Serif" font-size="10.00">&#45; routes</text>
<polyline fill="none" stroke="black" points="136,-201.5 282,-201.5 "/>
<text text-anchor="start" x="144" y="-189.5" font-family="Helvetica,sans-Serif" font-size="10.00">+ dispatch()</text>
<text text-anchor="start" x="144" y="-178.5" font-family="Helvetica,sans-Serif" font-size="10.00">&#45; dispatch()</text>
<text text-anchor="start" x="144" y="-167.5" font-family="Helvetica,sans-Serif" font-size="10.00">&#45; terminate()</text>
<text text-anchor="start" x="144" y="-156.5" font-family="Helvetica,sans-Serif" font-size="10.00">&#45; getState()</text>
<text text-anchor="start" x="144" y="-145.5" font-family="Helvetica,sans-Serif" font-size="10.00">&#45; proceed()</text>
<text text-anchor="start" x="144" y="-134.5" font-family="Helvetica,sans-Serif" font-size="10.00">&#45; returnTo()</text>
</a>
</g>
</g>
<!-- Node3&#45;&gt;Node1 -->
<g id="edge2" class="edge">
<title>Node3&#45;&gt;Node1</title>
<path fill="none" stroke="#404040" d="M177.25,-127.35C170.88,-117.35 163.99,-107.19 157,-98 154.67,-94.94 152.2,-91.85 149.65,-88.78"/>
<polygon fill="none" stroke="#404040" points="149.65,-88.77 142.71,-86.83 141.83,-79.67 148.78,-81.62 149.65,-88.77"/>
<text text-anchor="middle" x="203" y="-101" font-family="Helvetica,sans-Serif" font-size="10.00"> #parentRouter</text>
</g>
<!-- Node4 -->
<g id="node4" class="node">
<title>Node4</title>
<g id="a_node4"><a xlink:href="classexpress_1_1_dispatcher.html" target="_top" xlink:title=" ">
<polygon fill="white" stroke="black" points="91.5,-287.5 91.5,-388.5 204.5,-388.5 204.5,-287.5 91.5,-287.5"/>
<text text-anchor="middle" x="148" y="-376.5" font-family="Helvetica,sans-Serif" font-size="10.00">express::Dispatcher</text>
<polyline fill="none" stroke="black" points="91.5,-369.5 204.5,-369.5 "/>
<text text-anchor="middle" x="148" y="-357.5" font-family="Helvetica,sans-Serif" font-size="10.00"> </text>
<polyline fill="none" stroke="black" points="91.5,-350.5 204.5,-350.5 "/>
<text text-anchor="start" x="99.5" y="-338.5" font-family="Helvetica,sans-Serif" font-size="10.00">+ Dispatcher()</text>
<text text-anchor="start" x="99.5" y="-327.5" font-family="Helvetica,sans-Serif" font-size="10.00">+ ~Dispatcher()</text>
<text text-anchor="start" x="99.5" y="-316.5" font-family="Helvetica,sans-Serif" font-size="10.00">&#45; Dispatcher()</text>
<text text-anchor="start" x="99.5" y="-305.5" font-family="Helvetica,sans-Serif" font-size="10.00">&#45; operator=()</text>
<text text-anchor="start" x="99.5" y="-294.5" font-family="Helvetica,sans-Serif" font-size="10.00">&#45; dispatch()</text>
</a>
</g>
</g>
<!-- Node4&#45;&gt;Node3 -->
<g id="edge3" class="edge">
<title>Node4&#45;&gt;Node3</title>
<path fill="none" stroke="midnightblue" d="M171.61,-277.98C176.66,-265.35 181.98,-252.05 186.97,-239.57"/>
<polygon fill="none" stroke="midnightblue" points="168.27,-276.9 167.8,-287.49 174.77,-279.5 168.27,-276.9"/>
</g>
<!-- Node5 -->
<g id="node5" class="node">
<title>Node5</title>
<g id="a_node5"><a xlink:href="classexpress_1_1_state.html" target="_top" xlink:title=" ">
<polygon fill="white" stroke="black" points="223,-304 223,-372 317,-372 317,-304 223,-304"/>
<text text-anchor="middle" x="270" y="-360" font-family="Helvetica,sans-Serif" font-size="10.00">express::State</text>
<polyline fill="none" stroke="black" points="223,-353 317,-353 "/>
<text text-anchor="start" x="231" y="-341" font-family="Helvetica,sans-Serif" font-size="10.00">&#45; proceed</text>
<text text-anchor="start" x="231" y="-330" font-family="Helvetica,sans-Serif" font-size="10.00">&#45; parentProceed</text>
<polyline fill="none" stroke="black" points="223,-323 317,-323 "/>
<text text-anchor="start" x="231" y="-311" font-family="Helvetica,sans-Serif" font-size="10.00">+ operator()()</text>
</a>
</g>
</g>
<!-- Node5&#45;&gt;Node3 -->
<g id="edge4" class="edge">
<title>Node5&#45;&gt;Node3</title>
<path fill="none" stroke="#404040" d="M256.76,-303.91C250.55,-288.39 242.92,-269.3 235.59,-250.98"/>
<polygon fill="none" stroke="#404040" points="235.54,-250.86 229.6,-246.77 231.09,-239.71 237.03,-243.8 235.54,-250.86"/>
<text text-anchor="middle" x="257" y="-261" font-family="Helvetica,sans-Serif" font-size="10.00"> &#45;state</text>
</g>
</g>
</svg>
