<?xml version="1.0" encoding="UTF-8" standalone="no"?>
<!DOCTYPE svg PUBLIC "-//W3C//DTD SVG 1.1//EN"
 "http://www.w3.org/Graphics/SVG/1.1/DTD/svg11.dtd">
<!-- Generated by graphviz version 2.43.0 (0)
 -->
<!-- Title: core::socket::stream::tls::SocketServer::addSniCerts Pages: 1 -->
<svg width="597pt" height="137pt"
 viewBox="0.00 0.00 597.00 137.00" xmlns="http://www.w3.org/2000/svg" xmlns:xlink="http://www.w3.org/1999/xlink">
<g id="graph0" class="graph" transform="scale(1 1) rotate(0) translate(4 133)">
<title>core::socket::stream::tls::SocketServer::addSniCerts</title>
<polygon fill="white" stroke="transparent" points="-4,4 -4,-133 593,-133 593,4 -4,4"/>
<!-- Node1 -->
<g id="node1" class="node">
<title>Node1</title>
<g id="a_node1"><a xlink:title=" ">
<polygon fill="#bfbfbf" stroke="black" points="0,-44 0,-85 116,-85 116,-44 0,-44"/>
<text text-anchor="start" x="8" y="-73" font-family="Helvetica,sans-Serif" font-size="10.00">core::socket::stream</text>
<text text-anchor="start" x="8" y="-62" font-family="Helvetica,sans-Serif" font-size="10.00">::tls::SocketServer::</text>
<text text-anchor="middle" x="58" y="-51" font-family="Helvetica,sans-Serif" font-size="10.00">addSniCerts</text>
</a>
</g>
</g>
<!-- Node2 -->
<g id="node2" class="node">
<title>Node2</title>
<g id="a_node2"><a xlink:href="classcore_1_1socket_1_1stream_1_1tls_1_1_socket_server.html#a64f32444cfeea68f0958bba05589c0c0" target="_top" xlink:title=" ">
<polygon fill="white" stroke="black" points="152,-44 152,-85 268,-85 268,-44 152,-44"/>
<text text-anchor="start" x="160" y="-73" font-family="Helvetica,sans-Serif" font-size="10.00">core::socket::stream</text>
<text text-anchor="start" x="160" y="-62" font-family="Helvetica,sans-Serif" font-size="10.00">::tls::SocketServer::</text>
<text text-anchor="middle" x="210" y="-51" font-family="Helvetica,sans-Serif" font-size="10.00">addSniCert</text>
</a>
</g>
</g>
<!-- Node1&#45;&gt;Node2 -->
<g id="edge1" class="edge">
<title>Node1&#45;&gt;Node2</title>
<path fill="none" stroke="midnightblue" d="M116.14,-64.5C124.38,-64.5 132.92,-64.5 141.34,-64.5"/>
<polygon fill="midnightblue" stroke="midnightblue" points="141.53,-68 151.53,-64.5 141.53,-61 141.53,-68"/>
</g>
<!-- Node3 -->
<g id="node3" class="node">
<title>Node3</title>
<g id="a_node3"><a xlink:href="namespacecore_1_1socket_1_1stream_1_1tls.html#a68fba92344d4cd12623ce8fad24a6b15" target="_top" xlink:title=" ">
<polygon fill="white" stroke="black" points="304,-49.5 304,-79.5 420,-79.5 420,-49.5 304,-49.5"/>
<text text-anchor="start" x="312" y="-67.5" font-family="Helvetica,sans-Serif" font-size="10.00">core::socket::stream</text>
<text text-anchor="middle" x="362" y="-56.5" font-family="Helvetica,sans-Serif" font-size="10.00">::tls::ssl_ctx_new</text>
</a>
</g>
</g>
<!-- Node2&#45;&gt;Node3 -->
<g id="edge2" class="edge">
<title>Node2&#45;&gt;Node3</title>
<path fill="none" stroke="midnightblue" d="M268.14,-64.5C276.38,-64.5 284.92,-64.5 293.34,-64.5"/>
<polygon fill="midnightblue" stroke="midnightblue" points="293.53,-68 303.53,-64.5 293.53,-61 293.53,-68"/>
</g>
<!-- Node4 -->
<g id="node4" class="node">
<title>Node4</title>
<g id="a_node4"><a xlink:href="namespacecore_1_1socket_1_1stream_1_1tls.html#aba798191552c9bfa63469e93c8a8ca48" target="_top" xlink:title=" ">
<polygon fill="white" stroke="black" points="456,-98.5 456,-128.5 589,-128.5 589,-98.5 456,-98.5"/>
<text text-anchor="start" x="464" y="-116.5" font-family="Helvetica,sans-Serif" font-size="10.00">core::socket::stream</text>
<text text-anchor="middle" x="522.5" y="-105.5" font-family="Helvetica,sans-Serif" font-size="10.00">::tls::password_callback</text>
</a>
</g>
</g>
<!-- Node3&#45;&gt;Node4 -->
<g id="edge3" class="edge">
<title>Node3&#45;&gt;Node4</title>
<path fill="none" stroke="midnightblue" d="M411.85,-79.6C428.04,-84.61 446.24,-90.23 463.08,-95.44"/>
<polygon fill="midnightblue" stroke="midnightblue" points="462.23,-98.84 472.81,-98.45 464.29,-92.15 462.23,-98.84"/>
</g>
<!-- Node5 -->
<g id="node5" class="node">
<title>Node5</title>
<g id="a_node5"><a xlink:href="namespacecore_1_1socket_1_1stream_1_1tls.html#afe89f684150f8b6288c799f430809e29" target="_top" xlink:title=" ">
<polygon fill="white" stroke="black" points="464.5,-49.5 464.5,-79.5 580.5,-79.5 580.5,-49.5 464.5,-49.5"/>
<text text-anchor="start" x="472.5" y="-67.5" font-family="Helvetica,sans-Serif" font-size="10.00">core::socket::stream</text>
<text text-anchor="middle" x="522.5" y="-56.5" font-family="Helvetica,sans-Serif" font-size="10.00">::tls::ssl_log_error</text>
</a>
</g>
</g>
<!-- Node3&#45;&gt;Node5 -->
<g id="edge4" class="edge">
<title>Node3&#45;&gt;Node5</title>
<path fill="none" stroke="midnightblue" d="M420.22,-64.5C431.22,-64.5 442.83,-64.5 454.12,-64.5"/>
<polygon fill="midnightblue" stroke="midnightblue" points="454.36,-68 464.36,-64.5 454.36,-61 454.36,-68"/>
</g>
<!-- Node6 -->
<g id="node6" class="node">
<title>Node6</title>
<g id="a_node6"><a xlink:href="namespacecore_1_1socket_1_1stream_1_1tls.html#af5192f3c2626b934b3406a58d92582c6" target="_top" xlink:title=" ">
<polygon fill="white" stroke="black" points="464.5,-0.5 464.5,-30.5 580.5,-30.5 580.5,-0.5 464.5,-0.5"/>
<text text-anchor="start" x="472.5" y="-18.5" font-family="Helvetica,sans-Serif" font-size="10.00">core::socket::stream</text>
<text text-anchor="middle" x="522.5" y="-7.5" font-family="Helvetica,sans-Serif" font-size="10.00">::tls::verify_callback</text>
</a>
</g>
</g>
<!-- Node3&#45;&gt;Node6 -->
<g id="edge5" class="edge">
<title>Node3&#45;&gt;Node6</title>
<path fill="none" stroke="midnightblue" d="M411.85,-49.4C428.04,-44.39 446.24,-38.77 463.08,-33.56"/>
<polygon fill="midnightblue" stroke="midnightblue" points="464.29,-36.85 472.81,-30.55 462.23,-30.16 464.29,-36.85"/>
</g>
</g>
</svg>
