<?xml version="1.0" encoding="UTF-8" standalone="no"?>
<!DOCTYPE svg PUBLIC "-//W3C//DTD SVG 1.1//EN"
 "http://www.w3.org/Graphics/SVG/1.1/DTD/svg11.dtd">
<!-- Generated by graphviz version 2.43.0 (0)
 -->
<!-- Title: net::in6::stream::ServerSocket Pages: 1 -->
<svg width="173pt" height="420pt"
 viewBox="0.00 0.00 173.00 420.00" xmlns="http://www.w3.org/2000/svg" xmlns:xlink="http://www.w3.org/1999/xlink">
<g id="graph0" class="graph" transform="scale(1 1) rotate(0) translate(4 416)">
<title>net::in6::stream::ServerSocket</title>
<polygon fill="white" stroke="transparent" points="-4,4 -4,-416 169,-416 169,4 -4,4"/>
<!-- Node1 -->
<g id="node1" class="node">
<title>Node1</title>
<g id="a_node1"><a xlink:title=" ">
<polygon fill="#bfbfbf" stroke="black" points="7.5,-0.5 7.5,-90.5 138.5,-90.5 138.5,-0.5 7.5,-0.5"/>
<text text-anchor="start" x="15.5" y="-78.5" font-family="Helvetica,sans-Serif" font-size="10.00">net::in6::stream::Server</text>
<text text-anchor="middle" x="73" y="-67.5" font-family="Helvetica,sans-Serif" font-size="10.00">Socket</text>
<polyline fill="none" stroke="black" points="7.5,-60.5 138.5,-60.5 "/>
<text text-anchor="middle" x="73" y="-48.5" font-family="Helvetica,sans-Serif" font-size="10.00"> </text>
<polyline fill="none" stroke="black" points="7.5,-41.5 138.5,-41.5 "/>
<text text-anchor="start" x="15.5" y="-29.5" font-family="Helvetica,sans-Serif" font-size="10.00">+ listen()</text>
<text text-anchor="start" x="15.5" y="-18.5" font-family="Helvetica,sans-Serif" font-size="10.00">+ listen()</text>
<text text-anchor="start" x="15.5" y="-7.5" font-family="Helvetica,sans-Serif" font-size="10.00">+ listen()</text>
</a>
</g>
</g>
<!-- Node2 -->
<g id="node2" class="node">
<title>Node2</title>
<g id="a_node2"><a xlink:href="classnet_1_1_server_socket.html" target="_top" xlink:title=" ">
<polygon fill="white" stroke="black" points="0,-128.5 0,-240.5 146,-240.5 146,-128.5 0,-128.5"/>
<text text-anchor="start" x="8" y="-228.5" font-family="Helvetica,sans-Serif" font-size="10.00">net::ServerSocket&lt;</text>
<text text-anchor="middle" x="73" y="-217.5" font-family="Helvetica,sans-Serif" font-size="10.00"> net::in6::stream::Socket &gt;</text>
<polyline fill="none" stroke="black" points="0,-210.5 146,-210.5 "/>
<text text-anchor="middle" x="73" y="-198.5" font-family="Helvetica,sans-Serif" font-size="10.00"> </text>
<polyline fill="none" stroke="black" points="0,-191.5 146,-191.5 "/>
<text text-anchor="start" x="8" y="-179.5" font-family="Helvetica,sans-Serif" font-size="10.00"># ServerSocket()</text>
<text text-anchor="start" x="8" y="-168.5" font-family="Helvetica,sans-Serif" font-size="10.00"># ServerSocket()</text>
<text text-anchor="start" x="8" y="-157.5" font-family="Helvetica,sans-Serif" font-size="10.00"># ~ServerSocket()</text>
<text text-anchor="start" x="8" y="-146.5" font-family="Helvetica,sans-Serif" font-size="10.00"># listen()</text>
<text text-anchor="start" x="8" y="-135.5" font-family="Helvetica,sans-Serif" font-size="10.00"># listen()</text>
</a>
</g>
</g>
<!-- Node2&#45;&gt;Node1 -->
<g id="edge1" class="edge">
<title>Node2&#45;&gt;Node1</title>
<path fill="none" stroke="midnightblue" d="M73,-118.13C73,-108.83 73,-99.44 73,-90.67"/>
<polygon fill="none" stroke="midnightblue" points="69.5,-118.17 73,-128.17 76.5,-118.17 69.5,-118.17"/>
</g>
<!-- Node3 -->
<g id="node3" class="node">
<title>Node3</title>
<g id="a_node3"><a xlink:href="classnet_1_1_server_socket.html" target="_top" xlink:title=" ">
<polygon fill="white" stroke="black" points="18,-299.5 18,-411.5 128,-411.5 128,-299.5 18,-299.5"/>
<text text-anchor="start" x="26" y="-399.5" font-family="Helvetica,sans-Serif" font-size="10.00">net::ServerSocket&lt;</text>
<text text-anchor="middle" x="73" y="-388.5" font-family="Helvetica,sans-Serif" font-size="10.00"> SocketT &gt;</text>
<polyline fill="none" stroke="black" points="18,-381.5 128,-381.5 "/>
<text text-anchor="middle" x="73" y="-369.5" font-family="Helvetica,sans-Serif" font-size="10.00"> </text>
<polyline fill="none" stroke="black" points="18,-362.5 128,-362.5 "/>
<text text-anchor="start" x="26" y="-350.5" font-family="Helvetica,sans-Serif" font-size="10.00"># ServerSocket()</text>
<text text-anchor="start" x="26" y="-339.5" font-family="Helvetica,sans-Serif" font-size="10.00"># ServerSocket()</text>
<text text-anchor="start" x="26" y="-328.5" font-family="Helvetica,sans-Serif" font-size="10.00"># ~ServerSocket()</text>
<text text-anchor="start" x="26" y="-317.5" font-family="Helvetica,sans-Serif" font-size="10.00"># listen()</text>
<text text-anchor="start" x="26" y="-306.5" font-family="Helvetica,sans-Serif" font-size="10.00"># listen()</text>
</a>
</g>
</g>
<!-- Node3&#45;&gt;Node2 -->
<g id="edge2" class="edge">
<title>Node3&#45;&gt;Node2</title>
<path fill="none" stroke="orange" d="M73,-288.86C73,-272.93 73,-256.06 73,-240.67"/>
<polygon fill="orange" stroke="orange" points="69.5,-289.16 73,-299.16 76.5,-289.16 69.5,-289.16"/>
<text text-anchor="start" x="73" y="-273" font-family="Helvetica,sans-Serif" font-size="10.00"> &lt; net::in6::stream</text>
<text text-anchor="middle" x="119" y="-262" font-family="Helvetica,sans-Serif" font-size="10.00">::Socket &gt;</text>
</g>
</g>
</svg>
