<?xml version="1.0" encoding="UTF-8" standalone="no"?>
<!DOCTYPE svg PUBLIC "-//W3C//DTD SVG 1.1//EN"
 "http://www.w3.org/Graphics/SVG/1.1/DTD/svg11.dtd">
<!-- Generated by graphviz version 2.43.0 (0)
 -->
<!-- Title: core::timer::Timer::unobservedEvent Pages: 1 -->
<svg width="306pt" height="88pt"
 viewBox="0.00 0.00 306.00 88.00" xmlns="http://www.w3.org/2000/svg" xmlns:xlink="http://www.w3.org/1999/xlink">
<g id="graph0" class="graph" transform="scale(1 1) rotate(0) translate(4 84)">
<title>core::timer::Timer::unobservedEvent</title>
<polygon fill="white" stroke="transparent" points="-4,4 -4,-84 302,-84 302,4 -4,4"/>
<!-- Node1 -->
<g id="node1" class="node">
<title>Node1</title>
<g id="a_node1"><a xlink:title=" ">
<polygon fill="#bfbfbf" stroke="black" points="191,-24.5 191,-54.5 298,-54.5 298,-24.5 191,-24.5"/>
<text text-anchor="start" x="199" y="-42.5" font-family="Helvetica,sans-Serif" font-size="10.00">core::timer::Timer</text>
<text text-anchor="middle" x="244.5" y="-31.5" font-family="Helvetica,sans-Serif" font-size="10.00">::unobservedEvent</text>
</a>
</g>
</g>
<!-- Node2 -->
<g id="node2" class="node">
<title>Node2</title>
<g id="a_node2"><a xlink:href="classcore_1_1timer_1_1_interval_timer.html#abe96cc36b3cbddf77cbbd85b8dac8b6f" target="_top" xlink:title=" ">
<polygon fill="white" stroke="black" points="7,-49.5 7,-79.5 148,-79.5 148,-49.5 7,-49.5"/>
<text text-anchor="start" x="15" y="-67.5" font-family="Helvetica,sans-Serif" font-size="10.00">core::timer::IntervalTimer</text>
<text text-anchor="middle" x="77.5" y="-56.5" font-family="Helvetica,sans-Serif" font-size="10.00">::unobservedEvent</text>
</a>
</g>
</g>
<!-- Node1&#45;&gt;Node2 -->
<g id="edge1" class="edge">
<title>Node1&#45;&gt;Node2</title>
<path fill="none" stroke="midnightblue" d="M180.78,-49C170.11,-50.62 158.97,-52.31 148.13,-53.95"/>
<polygon fill="midnightblue" stroke="midnightblue" points="181.48,-52.44 190.84,-47.48 180.43,-45.52 181.48,-52.44"/>
</g>
<!-- Node3 -->
<g id="node3" class="node">
<title>Node3</title>
<g id="a_node3"><a xlink:href="classcore_1_1timer_1_1_singleshot_timer.html#aec675db0cfe1876ce352a1f479aa6e91" target="_top" xlink:title=" ">
<polygon fill="white" stroke="black" points="0,-0.5 0,-30.5 155,-30.5 155,-0.5 0,-0.5"/>
<text text-anchor="start" x="8" y="-18.5" font-family="Helvetica,sans-Serif" font-size="10.00">core::timer::SingleshotTimer</text>
<text text-anchor="middle" x="77.5" y="-7.5" font-family="Helvetica,sans-Serif" font-size="10.00">::unobservedEvent</text>
</a>
</g>
</g>
<!-- Node1&#45;&gt;Node3 -->
<g id="edge2" class="edge">
<title>Node1&#45;&gt;Node3</title>
<path fill="none" stroke="midnightblue" d="M180.75,-30.37C172.34,-29.15 163.63,-27.88 155.02,-26.63"/>
<polygon fill="midnightblue" stroke="midnightblue" points="180.44,-33.86 190.84,-31.84 181.45,-26.94 180.44,-33.86"/>
</g>
</g>
</svg>
