<?xml version="1.0" encoding="UTF-8" standalone="no"?>
<!DOCTYPE svg PUBLIC "-//W3C//DTD SVG 1.1//EN"
 "http://www.w3.org/Graphics/SVG/1.1/DTD/svg11.dtd">
<!-- Generated by graphviz version 2.43.0 (0)
 -->
<!-- Title: core::socket::stream::legacy::SocketServer&lt; SocketServerT, SocketContextFactoryT &gt; Pages: 1 -->
<svg width="662pt" height="532pt"
 viewBox="0.00 0.00 661.50 532.00" xmlns="http://www.w3.org/2000/svg" xmlns:xlink="http://www.w3.org/1999/xlink">
<g id="graph0" class="graph" transform="scale(1 1) rotate(0) translate(4 528)">
<title>core::socket::stream::legacy::SocketServer&lt; SocketServerT, SocketContextFactoryT &gt;</title>
<polygon fill="white" stroke="transparent" points="-4,4 -4,-528 657.5,-528 657.5,4 -4,4"/>
<!-- Node1 -->
<g id="node1" class="node">
<title>Node1</title>
<g id="a_node1"><a xlink:title=" ">
<polygon fill="#bfbfbf" stroke="black" points="246.5,-180.5 246.5,-232.5 420.5,-232.5 420.5,-180.5 246.5,-180.5"/>
<text text-anchor="start" x="254.5" y="-220.5" font-family="Helvetica,sans-Serif" font-size="10.00">core::socket::stream</text>
<text text-anchor="start" x="254.5" y="-209.5" font-family="Helvetica,sans-Serif" font-size="10.00">::legacy::SocketServer</text>
<text text-anchor="start" x="254.5" y="-198.5" font-family="Helvetica,sans-Serif" font-size="10.00">&lt; SocketServerT, SocketContext</text>
<text text-anchor="middle" x="333.5" y="-187.5" font-family="Helvetica,sans-Serif" font-size="10.00">FactoryT &gt;</text>
</a>
</g>
</g>
<!-- Node5 -->
<g id="node5" class="node">
<title>Node5</title>
<g id="a_node5"><a xlink:href="classweb_1_1http_1_1server_1_1_server.html" target="_top" xlink:title=" ">
<polygon fill="white" stroke="black" points="0,-79.5 0,-142.5 167,-142.5 167,-79.5 0,-79.5"/>
<text text-anchor="start" x="8" y="-130.5" font-family="Helvetica,sans-Serif" font-size="10.00">web::http::server::</text>
<text text-anchor="start" x="8" y="-119.5" font-family="Helvetica,sans-Serif" font-size="10.00">Server&lt; net::in6::stream</text>
<text text-anchor="start" x="8" y="-108.5" font-family="Helvetica,sans-Serif" font-size="10.00">::legacy::SocketServer,</text>
<text text-anchor="start" x="8" y="-97.5" font-family="Helvetica,sans-Serif" font-size="10.00"> web::http::server::Request,</text>
<text text-anchor="middle" x="83.5" y="-86.5" font-family="Helvetica,sans-Serif" font-size="10.00"> web::http::server::Response &gt;</text>
</a>
</g>
</g>
<!-- Node1&#45;&gt;Node5 -->
<g id="edge5" class="edge">
<title>Node1&#45;&gt;Node5</title>
<path fill="none" stroke="midnightblue" d="M256.85,-176.83C227.89,-166 194.83,-153.64 165.41,-142.63"/>
<polygon fill="none" stroke="midnightblue" points="255.91,-180.22 266.5,-180.44 258.36,-173.66 255.91,-180.22"/>
</g>
<!-- Node7 -->
<g id="node7" class="node">
<title>Node7</title>
<g id="a_node7"><a xlink:href="classweb_1_1http_1_1server_1_1_server.html" target="_top" xlink:title=" ">
<polygon fill="white" stroke="black" points="185,-85 185,-137 316,-137 316,-85 185,-85"/>
<text text-anchor="start" x="193" y="-125" font-family="Helvetica,sans-Serif" font-size="10.00">web::http::server::</text>
<text text-anchor="start" x="193" y="-114" font-family="Helvetica,sans-Serif" font-size="10.00">Server&lt; net::in::stream</text>
<text text-anchor="start" x="193" y="-103" font-family="Helvetica,sans-Serif" font-size="10.00">::legacy::SocketServer,</text>
<text text-anchor="middle" x="250.5" y="-92" font-family="Helvetica,sans-Serif" font-size="10.00"> Request, Response &gt;</text>
</a>
</g>
</g>
<!-- Node1&#45;&gt;Node7 -->
<g id="edge7" class="edge">
<title>Node1&#45;&gt;Node7</title>
<path fill="none" stroke="midnightblue" d="M304.61,-172.95C294.18,-161.21 282.58,-148.14 272.8,-137.13"/>
<polygon fill="none" stroke="midnightblue" points="302,-175.29 311.26,-180.44 307.24,-170.64 302,-175.29"/>
</g>
<!-- Node9 -->
<g id="node9" class="node">
<title>Node9</title>
<g id="a_node9"><a xlink:href="classweb_1_1http_1_1server_1_1_server.html" target="_top" xlink:title=" ">
<polygon fill="white" stroke="black" points="334,-79.5 334,-142.5 501,-142.5 501,-79.5 334,-79.5"/>
<text text-anchor="start" x="342" y="-130.5" font-family="Helvetica,sans-Serif" font-size="10.00">web::http::server::</text>
<text text-anchor="start" x="342" y="-119.5" font-family="Helvetica,sans-Serif" font-size="10.00">Server&lt; net::rc::stream</text>
<text text-anchor="start" x="342" y="-108.5" font-family="Helvetica,sans-Serif" font-size="10.00">::legacy::SocketServer,</text>
<text text-anchor="start" x="342" y="-97.5" font-family="Helvetica,sans-Serif" font-size="10.00"> web::http::server::Request,</text>
<text text-anchor="middle" x="417.5" y="-86.5" font-family="Helvetica,sans-Serif" font-size="10.00"> web::http::server::Response &gt;</text>
</a>
</g>
</g>
<!-- Node1&#45;&gt;Node9 -->
<g id="edge9" class="edge">
<title>Node1&#45;&gt;Node9</title>
<path fill="none" stroke="midnightblue" d="M362.83,-172.85C371.6,-163.1 381.17,-152.44 389.83,-142.8"/>
<polygon fill="none" stroke="midnightblue" points="360.09,-170.67 356.01,-180.44 365.3,-175.34 360.09,-170.67"/>
</g>
<!-- Node11 -->
<g id="node11" class="node">
<title>Node11</title>
<g id="a_node11"><a xlink:href="classweb_1_1http_1_1server_1_1_server.html" target="_top" xlink:title=" ">
<polygon fill="white" stroke="black" points="519.5,-85 519.5,-137 653.5,-137 653.5,-85 519.5,-85"/>
<text text-anchor="start" x="527.5" y="-125" font-family="Helvetica,sans-Serif" font-size="10.00">web::http::server::</text>
<text text-anchor="start" x="527.5" y="-114" font-family="Helvetica,sans-Serif" font-size="10.00">Server&lt; net::un::stream</text>
<text text-anchor="start" x="527.5" y="-103" font-family="Helvetica,sans-Serif" font-size="10.00">::legacy::SocketServer,</text>
<text text-anchor="middle" x="586.5" y="-92" font-family="Helvetica,sans-Serif" font-size="10.00"> Request, Response &gt;</text>
</a>
</g>
</g>
<!-- Node1&#45;&gt;Node11 -->
<g id="edge11" class="edge">
<title>Node1&#45;&gt;Node11</title>
<path fill="none" stroke="midnightblue" d="M416.5,-177.11C446.26,-166.69 479.99,-154.6 510.5,-143 515.43,-141.13 520.52,-139.15 525.62,-137.13"/>
<polygon fill="none" stroke="midnightblue" points="415.27,-173.83 406.99,-180.44 417.58,-180.44 415.27,-173.83"/>
</g>
<!-- Node2 -->
<g id="node2" class="node">
<title>Node2</title>
<g id="a_node2"><a xlink:href="classcore_1_1socket_1_1stream_1_1_socket_server.html" target="_top" xlink:title=" ">
<polygon fill="white" stroke="black" points="230.5,-270.5 230.5,-333.5 436.5,-333.5 436.5,-270.5 230.5,-270.5"/>
<text text-anchor="start" x="238.5" y="-321.5" font-family="Helvetica,sans-Serif" font-size="10.00">core::socket::stream</text>
<text text-anchor="start" x="238.5" y="-310.5" font-family="Helvetica,sans-Serif" font-size="10.00">::SocketServer&lt; SocketServer</text>
<text text-anchor="start" x="238.5" y="-299.5" font-family="Helvetica,sans-Serif" font-size="10.00">T, core::socket::stream::</text>
<text text-anchor="start" x="238.5" y="-288.5" font-family="Helvetica,sans-Serif" font-size="10.00">legacy::SocketAcceptor, SocketContext</text>
<text text-anchor="middle" x="333.5" y="-277.5" font-family="Helvetica,sans-Serif" font-size="10.00">FactoryT &gt;</text>
</a>
</g>
</g>
<!-- Node2&#45;&gt;Node1 -->
<g id="edge1" class="edge">
<title>Node2&#45;&gt;Node1</title>
<path fill="none" stroke="midnightblue" d="M333.5,-260.34C333.5,-250.89 333.5,-241.11 333.5,-232.57"/>
<polygon fill="none" stroke="midnightblue" points="330,-260.38 333.5,-270.38 337,-260.38 330,-260.38"/>
</g>
<!-- Node3 -->
<g id="node3" class="node">
<title>Node3</title>
<g id="a_node3"><a xlink:title=" ">
<polygon fill="white" stroke="#bfbfbf" points="286.5,-504.5 286.5,-523.5 372.5,-523.5 372.5,-504.5 286.5,-504.5"/>
<text text-anchor="middle" x="329.5" y="-511.5" font-family="Helvetica,sans-Serif" font-size="10.00">SocketServerT</text>
</a>
</g>
</g>
<!-- Node3&#45;&gt;Node2 -->
<g id="edge2" class="edge">
<title>Node3&#45;&gt;Node2</title>
<path fill="none" stroke="midnightblue" d="M329.86,-494.08C330.55,-457.75 332.07,-377.94 332.91,-333.83"/>
<polygon fill="none" stroke="midnightblue" points="326.36,-494.18 329.67,-504.24 333.36,-494.31 326.36,-494.18"/>
</g>
<!-- Node4 -->
<g id="node4" class="node">
<title>Node4</title>
<g id="a_node4"><a xlink:href="classcore_1_1socket_1_1stream_1_1_socket_server.html" target="_top" xlink:title=" ">
<polygon fill="white" stroke="black" points="345.5,-414.5 345.5,-466.5 531.5,-466.5 531.5,-414.5 345.5,-414.5"/>
<text text-anchor="start" x="353.5" y="-454.5" font-family="Helvetica,sans-Serif" font-size="10.00">core::socket::stream</text>
<text text-anchor="start" x="353.5" y="-443.5" font-family="Helvetica,sans-Serif" font-size="10.00">::SocketServer&lt; SocketServer</text>
<text text-anchor="start" x="353.5" y="-432.5" font-family="Helvetica,sans-Serif" font-size="10.00">T, SocketAcceptorT, SocketContext</text>
<text text-anchor="middle" x="438.5" y="-421.5" font-family="Helvetica,sans-Serif" font-size="10.00">FactoryT &gt;</text>
</a>
</g>
</g>
<!-- Node3&#45;&gt;Node4 -->
<g id="edge4" class="edge">
<title>Node3&#45;&gt;Node4</title>
<path fill="none" stroke="midnightblue" d="M351.32,-498.69C365.29,-489.52 383.8,-477.38 400.17,-466.65"/>
<polygon fill="none" stroke="midnightblue" points="349.31,-495.82 342.87,-504.23 353.15,-501.67 349.31,-495.82"/>
</g>
<!-- Node4&#45;&gt;Node2 -->
<g id="edge3" class="edge">
<title>Node4&#45;&gt;Node2</title>
<path fill="none" stroke="orange" d="M412.99,-406.33C395.94,-384.17 373.67,-355.23 357.05,-333.61"/>
<polygon fill="orange" stroke="orange" points="410.37,-408.67 419.24,-414.46 415.92,-404.4 410.37,-408.67"/>
<text text-anchor="start" x="404.5" y="-388" font-family="Helvetica,sans-Serif" font-size="10.00"> &lt; SocketServerT, core</text>
<text text-anchor="start" x="404.5" y="-377" font-family="Helvetica,sans-Serif" font-size="10.00">::socket::stream::legacy</text>
<text text-anchor="start" x="404.5" y="-366" font-family="Helvetica,sans-Serif" font-size="10.00">::SocketAcceptor, SocketContext</text>
<text text-anchor="middle" x="483.5" y="-355" font-family="Helvetica,sans-Serif" font-size="10.00">FactoryT &gt;</text>
</g>
<!-- Node6 -->
<g id="node6" class="node">
<title>Node6</title>
<g id="a_node6"><a xlink:href="classweb_1_1http_1_1legacy_1_1in6_1_1_server.html" target="_top" xlink:title=" ">
<polygon fill="white" stroke="black" points="22,-0.5 22,-41.5 145,-41.5 145,-0.5 22,-0.5"/>
<text text-anchor="start" x="30" y="-29.5" font-family="Helvetica,sans-Serif" font-size="10.00">web::http::legacy::</text>
<text text-anchor="start" x="30" y="-18.5" font-family="Helvetica,sans-Serif" font-size="10.00">in6::Server&lt; Request,</text>
<text text-anchor="middle" x="83.5" y="-7.5" font-family="Helvetica,sans-Serif" font-size="10.00"> Response &gt;</text>
</a>
</g>
</g>
<!-- Node5&#45;&gt;Node6 -->
<g id="edge6" class="edge">
<title>Node5&#45;&gt;Node6</title>
<path fill="none" stroke="midnightblue" d="M83.5,-69.02C83.5,-59.48 83.5,-49.74 83.5,-41.62"/>
<polygon fill="none" stroke="midnightblue" points="80,-69.22 83.5,-79.22 87,-69.22 80,-69.22"/>
</g>
<!-- Node8 -->
<g id="node8" class="node">
<title>Node8</title>
<g id="a_node8"><a xlink:href="classweb_1_1http_1_1legacy_1_1in_1_1_server.html" target="_top" xlink:title=" ">
<polygon fill="white" stroke="black" points="192,-0.5 192,-41.5 309,-41.5 309,-0.5 192,-0.5"/>
<text text-anchor="start" x="200" y="-29.5" font-family="Helvetica,sans-Serif" font-size="10.00">web::http::legacy::</text>
<text text-anchor="start" x="200" y="-18.5" font-family="Helvetica,sans-Serif" font-size="10.00">in::Server&lt; Request,</text>
<text text-anchor="middle" x="250.5" y="-7.5" font-family="Helvetica,sans-Serif" font-size="10.00"> Response &gt;</text>
</a>
</g>
</g>
<!-- Node7&#45;&gt;Node8 -->
<g id="edge8" class="edge">
<title>Node7&#45;&gt;Node8</title>
<path fill="none" stroke="midnightblue" d="M250.5,-74.51C250.5,-63.26 250.5,-51.23 250.5,-41.52"/>
<polygon fill="none" stroke="midnightblue" points="247,-74.55 250.5,-84.55 254,-74.55 247,-74.55"/>
</g>
<!-- Node10 -->
<g id="node10" class="node">
<title>Node10</title>
<g id="a_node10"><a xlink:href="classweb_1_1http_1_1legacy_1_1rc_1_1_server.html" target="_top" xlink:title=" ">
<polygon fill="white" stroke="black" points="359,-0.5 359,-41.5 476,-41.5 476,-0.5 359,-0.5"/>
<text text-anchor="start" x="367" y="-29.5" font-family="Helvetica,sans-Serif" font-size="10.00">web::http::legacy::</text>
<text text-anchor="start" x="367" y="-18.5" font-family="Helvetica,sans-Serif" font-size="10.00">rc::Server&lt; Request,</text>
<text text-anchor="middle" x="417.5" y="-7.5" font-family="Helvetica,sans-Serif" font-size="10.00"> Response &gt;</text>
</a>
</g>
</g>
<!-- Node9&#45;&gt;Node10 -->
<g id="edge10" class="edge">
<title>Node9&#45;&gt;Node10</title>
<path fill="none" stroke="midnightblue" d="M417.5,-69.02C417.5,-59.48 417.5,-49.74 417.5,-41.62"/>
<polygon fill="none" stroke="midnightblue" points="414,-69.22 417.5,-79.22 421,-69.22 414,-69.22"/>
</g>
<!-- Node12 -->
<g id="node12" class="node">
<title>Node12</title>
<g id="a_node12"><a xlink:href="classweb_1_1http_1_1legacy_1_1un_1_1_server.html" target="_top" xlink:title=" ">
<polygon fill="white" stroke="black" points="526.5,-0.5 526.5,-41.5 646.5,-41.5 646.5,-0.5 526.5,-0.5"/>
<text text-anchor="start" x="534.5" y="-29.5" font-family="Helvetica,sans-Serif" font-size="10.00">web::http::legacy::</text>
<text text-anchor="start" x="534.5" y="-18.5" font-family="Helvetica,sans-Serif" font-size="10.00">un::Server&lt; Request,</text>
<text text-anchor="middle" x="586.5" y="-7.5" font-family="Helvetica,sans-Serif" font-size="10.00"> Response &gt;</text>
</a>
</g>
</g>
<!-- Node11&#45;&gt;Node12 -->
<g id="edge12" class="edge">
<title>Node11&#45;&gt;Node12</title>
<path fill="none" stroke="midnightblue" d="M586.5,-74.51C586.5,-63.26 586.5,-51.23 586.5,-41.52"/>
<polygon fill="none" stroke="midnightblue" points="583,-74.55 586.5,-84.55 590,-74.55 583,-74.55"/>
</g>
</g>
</svg>
