<?xml version="1.0" encoding="UTF-8" standalone="no"?>
<!DOCTYPE svg PUBLIC "-//W3C//DTD SVG 1.1//EN"
 "http://www.w3.org/Graphics/SVG/1.1/DTD/svg11.dtd">
<!-- Generated by graphviz version 2.43.0 (0)
 -->
<!-- Title: core::file::FileReader::dispatch Pages: 1 -->
<svg width="631pt" height="254pt"
 viewBox="0.00 0.00 631.00 253.50" xmlns="http://www.w3.org/2000/svg" xmlns:xlink="http://www.w3.org/1999/xlink">
<g id="graph0" class="graph" transform="scale(1 1) rotate(0) translate(4 249.5)">
<title>core::file::FileReader::dispatch</title>
<polygon fill="white" stroke="transparent" points="-4,4 -4,-249.5 627,-249.5 627,4 -4,4"/>
<!-- Node1 -->
<g id="node1" class="node">
<title>Node1</title>
<g id="a_node1"><a xlink:title=" ">
<polygon fill="#bfbfbf" stroke="black" points="0,-110.5 0,-140.5 116,-140.5 116,-110.5 0,-110.5"/>
<text text-anchor="start" x="8" y="-128.5" font-family="Helvetica,sans-Serif" font-size="10.00">core::file::FileReader</text>
<text text-anchor="middle" x="58" y="-117.5" font-family="Helvetica,sans-Serif" font-size="10.00">::dispatch</text>
</a>
</g>
</g>
<!-- Node2 -->
<g id="node2" class="node">
<title>Node2</title>
<g id="a_node2"><a xlink:href="classcore_1_1pipe_1_1_source.html#a7cdfe3494b76d59780750d8af228f1d1" target="_top" xlink:title=" ">
<polygon fill="white" stroke="black" points="153.5,-226 153.5,-245 278.5,-245 278.5,-226 153.5,-226"/>
<text text-anchor="middle" x="216" y="-233" font-family="Helvetica,sans-Serif" font-size="10.00">core::pipe::Source::eof</text>
</a>
</g>
</g>
<!-- Node1&#45;&gt;Node2 -->
<g id="edge1" class="edge">
<title>Node1&#45;&gt;Node2</title>
<path fill="none" stroke="midnightblue" d="M70.54,-140.68C86.65,-160.85 117.77,-196.27 152,-216.5 155.65,-218.66 159.57,-220.59 163.6,-222.31"/>
<polygon fill="midnightblue" stroke="midnightblue" points="162.54,-225.66 173.13,-225.98 165.05,-219.12 162.54,-225.66"/>
</g>
<!-- Node4 -->
<g id="node4" class="node">
<title>Node4</title>
<g id="a_node4"><a xlink:href="classcore_1_1pipe_1_1_source.html#a179b74c2582275beb312423905f9cbd4" target="_top" xlink:title=" ">
<polygon fill="white" stroke="black" points="164,-176.5 164,-206.5 268,-206.5 268,-176.5 164,-176.5"/>
<text text-anchor="start" x="172" y="-194.5" font-family="Helvetica,sans-Serif" font-size="10.00">core::pipe::Source</text>
<text text-anchor="middle" x="216" y="-183.5" font-family="Helvetica,sans-Serif" font-size="10.00">::error</text>
</a>
</g>
</g>
<!-- Node1&#45;&gt;Node4 -->
<g id="edge3" class="edge">
<title>Node1&#45;&gt;Node4</title>
<path fill="none" stroke="midnightblue" d="M92.45,-140.61C110.09,-148.49 132.14,-158.19 152,-166.5 156.76,-168.49 161.74,-170.54 166.73,-172.56"/>
<polygon fill="midnightblue" stroke="midnightblue" points="165.68,-175.91 176.26,-176.39 168.29,-169.41 165.68,-175.91"/>
</g>
<!-- Node6 -->
<g id="node6" class="node">
<title>Node6</title>
<g id="a_node6"><a xlink:href="classcore_1_1_descriptor.html#af1ac9826d5c5f44bb357c845932ea5e4" target="_top" xlink:title=" ">
<polygon fill="white" stroke="black" points="152,-138 152,-157 280,-157 280,-138 152,-138"/>
<text text-anchor="middle" x="216" y="-145" font-family="Helvetica,sans-Serif" font-size="10.00">core::Descriptor::getFd</text>
</a>
</g>
</g>
<!-- Node1&#45;&gt;Node6 -->
<g id="edge5" class="edge">
<title>Node1&#45;&gt;Node6</title>
<path fill="none" stroke="midnightblue" d="M116.2,-133.57C124.52,-134.74 133.17,-135.96 141.74,-137.17"/>
<polygon fill="midnightblue" stroke="midnightblue" points="141.36,-140.65 151.75,-138.58 142.34,-133.72 141.36,-140.65"/>
</g>
<!-- Node7 -->
<g id="node7" class="node">
<title>Node7</title>
<g id="a_node7"><a xlink:href="classcore_1_1_event_receiver.html#a1c98dfe13e9f7928f7bdc32d27c50be3" target="_top" xlink:title=" ">
<polygon fill="white" stroke="black" points="159,-88.5 159,-118.5 273,-118.5 273,-88.5 159,-88.5"/>
<text text-anchor="start" x="167" y="-106.5" font-family="Helvetica,sans-Serif" font-size="10.00">core::EventReceiver</text>
<text text-anchor="middle" x="216" y="-95.5" font-family="Helvetica,sans-Serif" font-size="10.00">::publish</text>
</a>
</g>
</g>
<!-- Node1&#45;&gt;Node7 -->
<g id="edge6" class="edge">
<title>Node1&#45;&gt;Node7</title>
<path fill="none" stroke="midnightblue" d="M116.2,-117.43C126.75,-115.95 137.84,-114.38 148.62,-112.86"/>
<polygon fill="midnightblue" stroke="midnightblue" points="149.43,-116.28 158.85,-111.42 148.45,-109.35 149.43,-116.28"/>
</g>
<!-- Node12 -->
<g id="node12" class="node">
<title>Node12</title>
<g id="a_node12"><a xlink:href="namespacecore_1_1system.html#a38a2ef544196b684eb5850c42e8ee770" target="_top" xlink:title=" ">
<polygon fill="white" stroke="black" points="162.5,-50 162.5,-69 269.5,-69 269.5,-50 162.5,-50"/>
<text text-anchor="middle" x="216" y="-57" font-family="Helvetica,sans-Serif" font-size="10.00">core::system::read</text>
</a>
</g>
</g>
<!-- Node1&#45;&gt;Node12 -->
<g id="edge11" class="edge">
<title>Node1&#45;&gt;Node12</title>
<path fill="none" stroke="midnightblue" d="M86.57,-110.48C104.82,-100.89 129.45,-88.6 152,-79.5 158.36,-76.93 165.19,-74.47 171.92,-72.21"/>
<polygon fill="midnightblue" stroke="midnightblue" points="173.21,-75.47 181.64,-69.05 171.05,-68.82 173.21,-75.47"/>
</g>
<!-- Node13 -->
<g id="node13" class="node">
<title>Node13</title>
<g id="a_node13"><a xlink:href="classcore_1_1pipe_1_1_source.html#a7363d1d567c71b78ebfd2c098a8993f2" target="_top" xlink:title=" ">
<polygon fill="white" stroke="black" points="164,-0.5 164,-30.5 268,-30.5 268,-0.5 164,-0.5"/>
<text text-anchor="start" x="172" y="-18.5" font-family="Helvetica,sans-Serif" font-size="10.00">core::pipe::Source</text>
<text text-anchor="middle" x="216" y="-7.5" font-family="Helvetica,sans-Serif" font-size="10.00">::send</text>
</a>
</g>
</g>
<!-- Node1&#45;&gt;Node13 -->
<g id="edge12" class="edge">
<title>Node1&#45;&gt;Node13</title>
<path fill="none" stroke="midnightblue" d="M72.17,-110.5C89.09,-91.97 120.11,-60.46 152,-40.5 155.13,-38.54 158.43,-36.69 161.83,-34.95"/>
<polygon fill="midnightblue" stroke="midnightblue" points="163.44,-38.06 170.95,-30.59 160.42,-31.74 163.44,-38.06"/>
</g>
<!-- Node3 -->
<g id="node3" class="node">
<title>Node3</title>
<g id="a_node3"><a xlink:href="classcore_1_1pipe_1_1_sink.html#af28f30291b8e6e43cbce61c0974e1f01" target="_top" xlink:title=" ">
<polygon fill="white" stroke="black" points="331.5,-226 331.5,-245 444.5,-245 444.5,-226 331.5,-226"/>
<text text-anchor="middle" x="388" y="-233" font-family="Helvetica,sans-Serif" font-size="10.00">core::pipe::Sink::eof</text>
</a>
</g>
</g>
<!-- Node2&#45;&gt;Node3 -->
<g id="edge2" class="edge">
<title>Node2&#45;&gt;Node3</title>
<path fill="none" stroke="midnightblue" d="M278.85,-235.5C292.68,-235.5 307.39,-235.5 321.37,-235.5"/>
<polygon fill="midnightblue" stroke="midnightblue" points="321.39,-239 331.39,-235.5 321.39,-232 321.39,-239"/>
</g>
<!-- Node5 -->
<g id="node5" class="node">
<title>Node5</title>
<g id="a_node5"><a xlink:href="classcore_1_1pipe_1_1_sink.html#a8a671f943c329f20fb57444b63bb581d" target="_top" xlink:title=" ">
<polygon fill="white" stroke="black" points="327.5,-182 327.5,-201 448.5,-201 448.5,-182 327.5,-182"/>
<text text-anchor="middle" x="388" y="-189" font-family="Helvetica,sans-Serif" font-size="10.00">core::pipe::Sink::error</text>
</a>
</g>
</g>
<!-- Node4&#45;&gt;Node5 -->
<g id="edge4" class="edge">
<title>Node4&#45;&gt;Node5</title>
<path fill="none" stroke="midnightblue" d="M268.01,-191.5C283.48,-191.5 300.74,-191.5 317.22,-191.5"/>
<polygon fill="midnightblue" stroke="midnightblue" points="317.36,-195 327.36,-191.5 317.36,-188 317.36,-195"/>
</g>
<!-- Node8 -->
<g id="node8" class="node">
<title>Node8</title>
<g id="a_node8"><a xlink:href="classcore_1_1_event_loop.html#a17f1623de6ca2ea2682c63cf502c3c36" target="_top" xlink:title=" ">
<polygon fill="white" stroke="black" points="316,-132.5 316,-162.5 460,-162.5 460,-132.5 316,-132.5"/>
<text text-anchor="start" x="324" y="-150.5" font-family="Helvetica,sans-Serif" font-size="10.00">core::EventLoop::getEvent</text>
<text text-anchor="middle" x="388" y="-139.5" font-family="Helvetica,sans-Serif" font-size="10.00">Multiplexer</text>
</a>
</g>
</g>
<!-- Node7&#45;&gt;Node8 -->
<g id="edge7" class="edge">
<title>Node7&#45;&gt;Node8</title>
<path fill="none" stroke="midnightblue" d="M273.14,-118.03C287.81,-121.83 303.79,-125.96 319.01,-129.9"/>
<polygon fill="midnightblue" stroke="midnightblue" points="318.33,-133.34 328.88,-132.46 320.08,-126.56 318.33,-133.34"/>
</g>
<!-- Node9 -->
<g id="node9" class="node">
<title>Node9</title>
<g id="a_node9"><a xlink:href="classcore_1_1_event_loop.html#a413d227511f68c2c9939719bd2590794" target="_top" xlink:title=" ">
<polygon fill="white" stroke="black" points="317,-94 317,-113 459,-113 459,-94 317,-94"/>
<text text-anchor="middle" x="388" y="-101" font-family="Helvetica,sans-Serif" font-size="10.00">core::EventLoop::instance</text>
</a>
</g>
</g>
<!-- Node7&#45;&gt;Node9 -->
<g id="edge8" class="edge">
<title>Node7&#45;&gt;Node9</title>
<path fill="none" stroke="midnightblue" d="M273.14,-103.5C283.87,-103.5 295.31,-103.5 306.63,-103.5"/>
<polygon fill="midnightblue" stroke="midnightblue" points="306.98,-107 316.98,-103.5 306.98,-100 306.98,-107"/>
</g>
<!-- Node10 -->
<g id="node10" class="node">
<title>Node10</title>
<g id="a_node10"><a xlink:href="classcore_1_1_event_multiplexer.html#adc91f8c5640fafa82ae7403068255392" target="_top" xlink:title=" ">
<polygon fill="white" stroke="black" points="324.5,-44.5 324.5,-74.5 451.5,-74.5 451.5,-44.5 324.5,-44.5"/>
<text text-anchor="start" x="332.5" y="-62.5" font-family="Helvetica,sans-Serif" font-size="10.00">core::EventMultiplexer</text>
<text text-anchor="middle" x="388" y="-51.5" font-family="Helvetica,sans-Serif" font-size="10.00">::publish</text>
</a>
</g>
</g>
<!-- Node7&#45;&gt;Node10 -->
<g id="edge9" class="edge">
<title>Node7&#45;&gt;Node10</title>
<path fill="none" stroke="midnightblue" d="M273.14,-88.97C287.81,-85.17 303.79,-81.04 319.01,-77.1"/>
<polygon fill="midnightblue" stroke="midnightblue" points="320.08,-80.44 328.88,-74.54 318.33,-73.66 320.08,-80.44"/>
</g>
<!-- Node11 -->
<g id="node11" class="node">
<title>Node11</title>
<g id="a_node11"><a xlink:href="classcore_1_1_event_multiplexer_1_1_event_queue.html#aa2238c4397e9b332a5e854f9ec8ea38c" target="_top" xlink:title=" ">
<polygon fill="white" stroke="black" points="496,-44.5 496,-74.5 623,-74.5 623,-44.5 496,-44.5"/>
<text text-anchor="start" x="504" y="-62.5" font-family="Helvetica,sans-Serif" font-size="10.00">core::EventMultiplexer</text>
<text text-anchor="middle" x="559.5" y="-51.5" font-family="Helvetica,sans-Serif" font-size="10.00">::EventQueue::insert</text>
</a>
</g>
</g>
<!-- Node10&#45;&gt;Node11 -->
<g id="edge10" class="edge">
<title>Node10&#45;&gt;Node11</title>
<path fill="none" stroke="midnightblue" d="M451.63,-59.5C462.68,-59.5 474.27,-59.5 485.57,-59.5"/>
<polygon fill="midnightblue" stroke="midnightblue" points="485.84,-63 495.84,-59.5 485.84,-56 485.84,-63"/>
</g>
<!-- Node14 -->
<g id="node14" class="node">
<title>Node14</title>
<g id="a_node14"><a xlink:href="classcore_1_1pipe_1_1_sink.html#aafe9044889dcdd87ea651e51e9e14fb7" target="_top" xlink:title=" ">
<polygon fill="white" stroke="black" points="321,-6 321,-25 455,-25 455,-6 321,-6"/>
<text text-anchor="middle" x="388" y="-13" font-family="Helvetica,sans-Serif" font-size="10.00">core::pipe::Sink::receive</text>
</a>
</g>
</g>
<!-- Node13&#45;&gt;Node14 -->
<g id="edge13" class="edge">
<title>Node13&#45;&gt;Node14</title>
<path fill="none" stroke="midnightblue" d="M268.01,-15.5C281.38,-15.5 296.11,-15.5 310.5,-15.5"/>
<polygon fill="midnightblue" stroke="midnightblue" points="310.9,-19 320.9,-15.5 310.9,-12 310.9,-19"/>
</g>
</g>
</svg>
