<?xml version="1.0" encoding="UTF-8" standalone="no"?>
<!DOCTYPE svg PUBLIC "-//W3C//DTD SVG 1.1//EN"
 "http://www.w3.org/Graphics/SVG/1.1/DTD/svg11.dtd">
<!-- Generated by graphviz version 2.43.0 (0)
 -->
<!-- Title: CLI::CallForAllHelp Pages: 1 -->
<svg width="115pt" height="607pt"
 viewBox="0.00 0.00 115.00 607.00" xmlns="http://www.w3.org/2000/svg" xmlns:xlink="http://www.w3.org/1999/xlink">
<g id="graph0" class="graph" transform="scale(1 1) rotate(0) translate(4 603)">
<title>CLI::CallForAllHelp</title>
<polygon fill="white" stroke="transparent" points="-4,4 -4,-603 111,-603 111,4 -4,4"/>
<!-- Node1 -->
<g id="node1" class="node">
<title>Node1</title>
<g id="a_node1"><a xlink:title="Usually something like –help&#45;all on command line.">
<polygon fill="#bfbfbf" stroke="black" points="0,-0.5 0,-101.5 107,-101.5 107,-0.5 0,-0.5"/>
<text text-anchor="middle" x="53.5" y="-89.5" font-family="Helvetica,sans-Serif" font-size="10.00">CLI::CallForAllHelp</text>
<polyline fill="none" stroke="black" points="0,-82.5 107,-82.5 "/>
<text text-anchor="middle" x="53.5" y="-70.5" font-family="Helvetica,sans-Serif" font-size="10.00"> </text>
<polyline fill="none" stroke="black" points="0,-63.5 107,-63.5 "/>
<text text-anchor="start" x="8" y="-51.5" font-family="Helvetica,sans-Serif" font-size="10.00">+ CallForAllHelp()</text>
<text text-anchor="start" x="8" y="-40.5" font-family="Helvetica,sans-Serif" font-size="10.00">+ CallForAllHelp()</text>
<text text-anchor="start" x="8" y="-29.5" font-family="Helvetica,sans-Serif" font-size="10.00">+ CallForAllHelp()</text>
<text text-anchor="start" x="8" y="-18.5" font-family="Helvetica,sans-Serif" font-size="10.00"># CallForAllHelp()</text>
<text text-anchor="start" x="8" y="-7.5" font-family="Helvetica,sans-Serif" font-size="10.00"># CallForAllHelp()</text>
</a>
</g>
</g>
<!-- Node2 -->
<g id="node2" class="node">
<title>Node2</title>
<g id="a_node2"><a xlink:href="class_c_l_i_1_1_success.html" target="_top" xlink:title="This is a successful completion on parsing, supposed to exit.">
<polygon fill="white" stroke="black" points="15,-138.5 15,-239.5 92,-239.5 92,-138.5 15,-138.5"/>
<text text-anchor="middle" x="53.5" y="-227.5" font-family="Helvetica,sans-Serif" font-size="10.00">CLI::Success</text>
<polyline fill="none" stroke="black" points="15,-220.5 92,-220.5 "/>
<text text-anchor="middle" x="53.5" y="-208.5" font-family="Helvetica,sans-Serif" font-size="10.00"> </text>
<polyline fill="none" stroke="black" points="15,-201.5 92,-201.5 "/>
<text text-anchor="start" x="23" y="-189.5" font-family="Helvetica,sans-Serif" font-size="10.00">+ Success()</text>
<text text-anchor="start" x="23" y="-178.5" font-family="Helvetica,sans-Serif" font-size="10.00">+ Success()</text>
<text text-anchor="start" x="23" y="-167.5" font-family="Helvetica,sans-Serif" font-size="10.00">+ Success()</text>
<text text-anchor="start" x="23" y="-156.5" font-family="Helvetica,sans-Serif" font-size="10.00"># Success()</text>
<text text-anchor="start" x="23" y="-145.5" font-family="Helvetica,sans-Serif" font-size="10.00"># Success()</text>
</a>
</g>
</g>
<!-- Node2&#45;&gt;Node1 -->
<g id="edge1" class="edge">
<title>Node2&#45;&gt;Node1</title>
<path fill="none" stroke="midnightblue" d="M53.5,-128C53.5,-119.27 53.5,-110.36 53.5,-101.86"/>
<polygon fill="none" stroke="midnightblue" points="50,-128.13 53.5,-138.13 57,-128.13 50,-128.13"/>
</g>
<!-- Node3 -->
<g id="node3" class="node">
<title>Node3</title>
<g id="a_node3"><a xlink:href="class_c_l_i_1_1_parse_error.html" target="_top" xlink:title="Anything that can error in Parse.">
<polygon fill="white" stroke="black" points="9.5,-276.5 9.5,-366.5 97.5,-366.5 97.5,-276.5 9.5,-276.5"/>
<text text-anchor="middle" x="53.5" y="-354.5" font-family="Helvetica,sans-Serif" font-size="10.00">CLI::ParseError</text>
<polyline fill="none" stroke="black" points="9.5,-347.5 97.5,-347.5 "/>
<text text-anchor="middle" x="53.5" y="-335.5" font-family="Helvetica,sans-Serif" font-size="10.00"> </text>
<polyline fill="none" stroke="black" points="9.5,-328.5 97.5,-328.5 "/>
<text text-anchor="start" x="17.5" y="-316.5" font-family="Helvetica,sans-Serif" font-size="10.00">+ ParseError()</text>
<text text-anchor="start" x="17.5" y="-305.5" font-family="Helvetica,sans-Serif" font-size="10.00">+ ParseError()</text>
<text text-anchor="start" x="17.5" y="-294.5" font-family="Helvetica,sans-Serif" font-size="10.00"># ParseError()</text>
<text text-anchor="start" x="17.5" y="-283.5" font-family="Helvetica,sans-Serif" font-size="10.00"># ParseError()</text>
</a>
</g>
</g>
<!-- Node3&#45;&gt;Node2 -->
<g id="edge2" class="edge">
<title>Node3&#45;&gt;Node2</title>
<path fill="none" stroke="midnightblue" d="M53.5,-266.13C53.5,-257.31 53.5,-248.22 53.5,-239.52"/>
<polygon fill="none" stroke="midnightblue" points="50,-266.32 53.5,-276.32 57,-266.32 50,-266.32"/>
</g>
<!-- Node4 -->
<g id="node4" class="node">
<title>Node4</title>
<g id="a_node4"><a xlink:href="class_c_l_i_1_1_error.html" target="_top" xlink:title="All errors derive from this one.">
<polygon fill="white" stroke="black" points="0.5,-403.5 0.5,-504.5 106.5,-504.5 106.5,-403.5 0.5,-403.5"/>
<text text-anchor="middle" x="53.5" y="-492.5" font-family="Helvetica,sans-Serif" font-size="10.00">CLI::Error</text>
<polyline fill="none" stroke="black" points="0.5,-485.5 106.5,-485.5 "/>
<text text-anchor="start" x="8.5" y="-473.5" font-family="Helvetica,sans-Serif" font-size="10.00">&#45; actual_exit_code</text>
<text text-anchor="start" x="8.5" y="-462.5" font-family="Helvetica,sans-Serif" font-size="10.00">&#45; error_name</text>
<polyline fill="none" stroke="black" points="0.5,-455.5 106.5,-455.5 "/>
<text text-anchor="start" x="8.5" y="-443.5" font-family="Helvetica,sans-Serif" font-size="10.00">+ get_exit_code()</text>
<text text-anchor="start" x="8.5" y="-432.5" font-family="Helvetica,sans-Serif" font-size="10.00">+ get_name()</text>
<text text-anchor="start" x="8.5" y="-421.5" font-family="Helvetica,sans-Serif" font-size="10.00">+ Error()</text>
<text text-anchor="start" x="8.5" y="-410.5" font-family="Helvetica,sans-Serif" font-size="10.00">+ Error()</text>
</a>
</g>
</g>
<!-- Node4&#45;&gt;Node3 -->
<g id="edge3" class="edge">
<title>Node4&#45;&gt;Node3</title>
<path fill="none" stroke="midnightblue" d="M53.5,-393.23C53.5,-384.24 53.5,-375.1 53.5,-366.52"/>
<polygon fill="none" stroke="midnightblue" points="50,-393.29 53.5,-403.29 57,-393.29 50,-393.29"/>
</g>
<!-- Node5 -->
<g id="node5" class="node">
<title>Node5</title>
<g id="a_node5"><a xlink:title=" ">
<polygon fill="white" stroke="#bfbfbf" points="1.5,-541.5 1.5,-598.5 105.5,-598.5 105.5,-541.5 1.5,-541.5"/>
<text text-anchor="middle" x="53.5" y="-586.5" font-family="Helvetica,sans-Serif" font-size="10.00">std::runtime_error</text>
<polyline fill="none" stroke="#bfbfbf" points="1.5,-579.5 105.5,-579.5 "/>
<text text-anchor="middle" x="53.5" y="-567.5" font-family="Helvetica,sans-Serif" font-size="10.00"> </text>
<polyline fill="none" stroke="#bfbfbf" points="1.5,-560.5 105.5,-560.5 "/>
<text text-anchor="middle" x="53.5" y="-548.5" font-family="Helvetica,sans-Serif" font-size="10.00"> </text>
</a>
</g>
</g>
<!-- Node5&#45;&gt;Node4 -->
<g id="edge4" class="edge">
<title>Node5&#45;&gt;Node4</title>
<path fill="none" stroke="midnightblue" d="M53.5,-531.35C53.5,-522.8 53.5,-513.58 53.5,-504.61"/>
<polygon fill="none" stroke="midnightblue" points="50,-531.4 53.5,-541.4 57,-531.4 50,-531.4"/>
</g>
</g>
</svg>
