<?xml version="1.0" encoding="UTF-8" standalone="no"?>
<!DOCTYPE svg PUBLIC "-//W3C//DTD SVG 1.1//EN"
 "http://www.w3.org/Graphics/SVG/1.1/DTD/svg11.dtd">
<!-- Generated by graphviz version 2.43.0 (0)
 -->
<!-- Title: core::socket::stream::legacy::SocketAcceptor&lt; ServerSocketT &gt; Pages: 1 -->
<svg width="798pt" height="1628pt"
 viewBox="0.00 0.00 798.00 1628.00" xmlns="http://www.w3.org/2000/svg" xmlns:xlink="http://www.w3.org/1999/xlink">
<g id="graph0" class="graph" transform="scale(1 1) rotate(0) translate(4 1624)">
<title>core::socket::stream::legacy::SocketAcceptor&lt; ServerSocketT &gt;</title>
<polygon fill="white" stroke="transparent" points="-4,4 -4,-1624 794,-1624 794,4 -4,4"/>
<!-- Node1 -->
<g id="node1" class="node">
<title>Node1</title>
<g id="a_node1"><a xlink:title=" ">
<polygon fill="#bfbfbf" stroke="black" points="114.5,-0.5 114.5,-79.5 249.5,-79.5 249.5,-0.5 114.5,-0.5"/>
<text text-anchor="start" x="122.5" y="-67.5" font-family="Helvetica,sans-Serif" font-size="10.00">core::socket::stream</text>
<text text-anchor="start" x="122.5" y="-56.5" font-family="Helvetica,sans-Serif" font-size="10.00">::legacy::SocketAcceptor</text>
<text text-anchor="middle" x="182" y="-45.5" font-family="Helvetica,sans-Serif" font-size="10.00">&lt; ServerSocketT &gt;</text>
<polyline fill="none" stroke="black" points="114.5,-38.5 249.5,-38.5 "/>
<text text-anchor="middle" x="182" y="-26.5" font-family="Helvetica,sans-Serif" font-size="10.00"> </text>
<polyline fill="none" stroke="black" points="114.5,-19.5 249.5,-19.5 "/>
<text text-anchor="start" x="122.5" y="-7.5" font-family="Helvetica,sans-Serif" font-size="10.00">+ SocketAcceptor()</text>
</a>
</g>
</g>
<!-- Node2 -->
<g id="node2" class="node">
<title>Node2</title>
<g id="a_node2"><a xlink:href="classcore_1_1socket_1_1stream_1_1_socket_acceptor.html" target="_top" xlink:title=" ">
<polygon fill="white" stroke="black" points="95.5,-117.5 95.5,-394.5 268.5,-394.5 268.5,-117.5 95.5,-117.5"/>
<text text-anchor="start" x="103.5" y="-382.5" font-family="Helvetica,sans-Serif" font-size="10.00">core::socket::stream</text>
<text text-anchor="start" x="103.5" y="-371.5" font-family="Helvetica,sans-Serif" font-size="10.00">::SocketAcceptor&lt; ServerSocket</text>
<text text-anchor="start" x="103.5" y="-360.5" font-family="Helvetica,sans-Serif" font-size="10.00">T, core::socket::stream::legacy</text>
<text text-anchor="middle" x="182" y="-349.5" font-family="Helvetica,sans-Serif" font-size="10.00">::SocketConnection &gt;</text>
<polyline fill="none" stroke="black" points="95.5,-342.5 268.5,-342.5 "/>
<text text-anchor="start" x="103.5" y="-330.5" font-family="Helvetica,sans-Serif" font-size="10.00"># config</text>
<text text-anchor="start" x="103.5" y="-319.5" font-family="Helvetica,sans-Serif" font-size="10.00"># options</text>
<text text-anchor="start" x="103.5" y="-308.5" font-family="Helvetica,sans-Serif" font-size="10.00">&#45; socketContextFactory</text>
<text text-anchor="start" x="103.5" y="-297.5" font-family="Helvetica,sans-Serif" font-size="10.00">&#45; onConnect</text>
<text text-anchor="start" x="103.5" y="-286.5" font-family="Helvetica,sans-Serif" font-size="10.00">&#45; onDestruct</text>
<text text-anchor="start" x="103.5" y="-275.5" font-family="Helvetica,sans-Serif" font-size="10.00">&#45; onConnected</text>
<text text-anchor="start" x="103.5" y="-264.5" font-family="Helvetica,sans-Serif" font-size="10.00">&#45; onDisconnect</text>
<text text-anchor="start" x="103.5" y="-253.5" font-family="Helvetica,sans-Serif" font-size="10.00">&#45; onError</text>
<polyline fill="none" stroke="black" points="95.5,-246.5 268.5,-246.5 "/>
<text text-anchor="start" x="103.5" y="-234.5" font-family="Helvetica,sans-Serif" font-size="10.00">+ SocketAcceptor()</text>
<text text-anchor="start" x="103.5" y="-223.5" font-family="Helvetica,sans-Serif" font-size="10.00">+ ~SocketAcceptor()</text>
<text text-anchor="start" x="103.5" y="-212.5" font-family="Helvetica,sans-Serif" font-size="10.00">+ listen()</text>
<text text-anchor="start" x="103.5" y="-201.5" font-family="Helvetica,sans-Serif" font-size="10.00"># destruct()</text>
<text text-anchor="start" x="103.5" y="-190.5" font-family="Helvetica,sans-Serif" font-size="10.00">&#45; SocketAcceptor()</text>
<text text-anchor="start" x="103.5" y="-179.5" font-family="Helvetica,sans-Serif" font-size="10.00">&#45; SocketAcceptor()</text>
<text text-anchor="start" x="103.5" y="-168.5" font-family="Helvetica,sans-Serif" font-size="10.00">&#45; operator=()</text>
<text text-anchor="start" x="103.5" y="-157.5" font-family="Helvetica,sans-Serif" font-size="10.00">&#45; initAcceptEvent()</text>
<text text-anchor="start" x="103.5" y="-146.5" font-family="Helvetica,sans-Serif" font-size="10.00">&#45; reuseAddress()</text>
<text text-anchor="start" x="103.5" y="-135.5" font-family="Helvetica,sans-Serif" font-size="10.00">&#45; acceptEvent()</text>
<text text-anchor="start" x="103.5" y="-124.5" font-family="Helvetica,sans-Serif" font-size="10.00">&#45; unobservedEvent()</text>
</a>
</g>
</g>
<!-- Node2&#45;&gt;Node1 -->
<g id="edge1" class="edge">
<title>Node2&#45;&gt;Node1</title>
<path fill="none" stroke="darkgreen" d="M182,-107.28C182,-97.38 182,-88.02 182,-79.63"/>
<polygon fill="none" stroke="darkgreen" points="178.5,-107.35 182,-117.35 185.5,-107.35 178.5,-107.35"/>
</g>
<!-- Node3 -->
<g id="node3" class="node">
<title>Node3</title>
<g id="a_node3"><a xlink:title=" ">
<polygon fill="white" stroke="#bfbfbf" points="0,-796 0,-853 124,-853 124,-796 0,-796"/>
<text text-anchor="middle" x="62" y="-841" font-family="Helvetica,sans-Serif" font-size="10.00">ServerSocketT::Socket</text>
<polyline fill="none" stroke="#bfbfbf" points="0,-834 124,-834 "/>
<text text-anchor="middle" x="62" y="-822" font-family="Helvetica,sans-Serif" font-size="10.00"> </text>
<polyline fill="none" stroke="#bfbfbf" points="0,-815 124,-815 "/>
<text text-anchor="middle" x="62" y="-803" font-family="Helvetica,sans-Serif" font-size="10.00"> </text>
</a>
</g>
</g>
<!-- Node3&#45;&gt;Node2 -->
<g id="edge2" class="edge">
<title>Node3&#45;&gt;Node2</title>
<path fill="none" stroke="darkgreen" d="M69.97,-785.9C86.56,-707.57 125.55,-523.51 152.84,-394.66"/>
<polygon fill="none" stroke="darkgreen" points="66.52,-785.28 67.87,-795.79 73.37,-786.74 66.52,-785.28"/>
</g>
<!-- Node12 -->
<g id="node12" class="node">
<title>Node12</title>
<g id="a_node12"><a xlink:href="classcore_1_1socket_1_1stream_1_1_socket_acceptor.html" target="_top" xlink:title=" ">
<polygon fill="white" stroke="black" points="177.5,-464.5 177.5,-730.5 350.5,-730.5 350.5,-464.5 177.5,-464.5"/>
<text text-anchor="start" x="185.5" y="-718.5" font-family="Helvetica,sans-Serif" font-size="10.00">core::socket::stream</text>
<text text-anchor="start" x="185.5" y="-707.5" font-family="Helvetica,sans-Serif" font-size="10.00">::SocketAcceptor&lt; ServerSocket</text>
<text text-anchor="middle" x="264" y="-696.5" font-family="Helvetica,sans-Serif" font-size="10.00">T, SocketConnectionT &gt;</text>
<polyline fill="none" stroke="black" points="177.5,-689.5 350.5,-689.5 "/>
<text text-anchor="start" x="185.5" y="-677.5" font-family="Helvetica,sans-Serif" font-size="10.00"># config</text>
<text text-anchor="start" x="185.5" y="-666.5" font-family="Helvetica,sans-Serif" font-size="10.00"># options</text>
<text text-anchor="start" x="185.5" y="-655.5" font-family="Helvetica,sans-Serif" font-size="10.00">&#45; socketContextFactory</text>
<text text-anchor="start" x="185.5" y="-644.5" font-family="Helvetica,sans-Serif" font-size="10.00">&#45; onConnect</text>
<text text-anchor="start" x="185.5" y="-633.5" font-family="Helvetica,sans-Serif" font-size="10.00">&#45; onDestruct</text>
<text text-anchor="start" x="185.5" y="-622.5" font-family="Helvetica,sans-Serif" font-size="10.00">&#45; onConnected</text>
<text text-anchor="start" x="185.5" y="-611.5" font-family="Helvetica,sans-Serif" font-size="10.00">&#45; onDisconnect</text>
<text text-anchor="start" x="185.5" y="-600.5" font-family="Helvetica,sans-Serif" font-size="10.00">&#45; onError</text>
<polyline fill="none" stroke="black" points="177.5,-593.5 350.5,-593.5 "/>
<text text-anchor="start" x="185.5" y="-581.5" font-family="Helvetica,sans-Serif" font-size="10.00">+ SocketAcceptor()</text>
<text text-anchor="start" x="185.5" y="-570.5" font-family="Helvetica,sans-Serif" font-size="10.00">+ ~SocketAcceptor()</text>
<text text-anchor="start" x="185.5" y="-559.5" font-family="Helvetica,sans-Serif" font-size="10.00">+ listen()</text>
<text text-anchor="start" x="185.5" y="-548.5" font-family="Helvetica,sans-Serif" font-size="10.00"># destruct()</text>
<text text-anchor="start" x="185.5" y="-537.5" font-family="Helvetica,sans-Serif" font-size="10.00">&#45; SocketAcceptor()</text>
<text text-anchor="start" x="185.5" y="-526.5" font-family="Helvetica,sans-Serif" font-size="10.00">&#45; SocketAcceptor()</text>
<text text-anchor="start" x="185.5" y="-515.5" font-family="Helvetica,sans-Serif" font-size="10.00">&#45; operator=()</text>
<text text-anchor="start" x="185.5" y="-504.5" font-family="Helvetica,sans-Serif" font-size="10.00">&#45; initAcceptEvent()</text>
<text text-anchor="start" x="185.5" y="-493.5" font-family="Helvetica,sans-Serif" font-size="10.00">&#45; reuseAddress()</text>
<text text-anchor="start" x="185.5" y="-482.5" font-family="Helvetica,sans-Serif" font-size="10.00">&#45; acceptEvent()</text>
<text text-anchor="start" x="185.5" y="-471.5" font-family="Helvetica,sans-Serif" font-size="10.00">&#45; unobservedEvent()</text>
</a>
</g>
</g>
<!-- Node3&#45;&gt;Node12 -->
<g id="edge14" class="edge">
<title>Node3&#45;&gt;Node12</title>
<path fill="none" stroke="darkgreen" d="M93.47,-788.45C116.01,-763.34 147.55,-728.21 177.37,-694.99"/>
<polygon fill="none" stroke="darkgreen" points="90.85,-786.13 86.77,-795.91 96.05,-790.81 90.85,-786.13"/>
</g>
<!-- Node4 -->
<g id="node4" class="node">
<title>Node4</title>
<g id="a_node4"><a xlink:href="classcore_1_1eventreceiver_1_1_init_accept_event_receiver.html" target="_top" xlink:title=" ">
<polygon fill="white" stroke="black" points="142.5,-779.5 142.5,-869.5 297.5,-869.5 297.5,-779.5 142.5,-779.5"/>
<text text-anchor="start" x="150.5" y="-857.5" font-family="Helvetica,sans-Serif" font-size="10.00">core::eventreceiver</text>
<text text-anchor="middle" x="220" y="-846.5" font-family="Helvetica,sans-Serif" font-size="10.00">::InitAcceptEventReceiver</text>
<polyline fill="none" stroke="black" points="142.5,-839.5 297.5,-839.5 "/>
<text text-anchor="middle" x="220" y="-827.5" font-family="Helvetica,sans-Serif" font-size="10.00"> </text>
<polyline fill="none" stroke="black" points="142.5,-820.5 297.5,-820.5 "/>
<text text-anchor="start" x="150.5" y="-808.5" font-family="Helvetica,sans-Serif" font-size="10.00"># InitAcceptEventReceiver()</text>
<text text-anchor="start" x="150.5" y="-797.5" font-family="Helvetica,sans-Serif" font-size="10.00">&#45; event()</text>
<text text-anchor="start" x="150.5" y="-786.5" font-family="Helvetica,sans-Serif" font-size="10.00">&#45; initAcceptEvent()</text>
</a>
</g>
</g>
<!-- Node4&#45;&gt;Node2 -->
<g id="edge3" class="edge">
<title>Node4&#45;&gt;Node2</title>
<path fill="none" stroke="darkgreen" d="M184.19,-770.53C177.51,-758.07 171.53,-744.48 168,-731 139.07,-620.5 145.61,-490.54 157.67,-394.67"/>
<polygon fill="none" stroke="darkgreen" points="181.21,-772.37 189.15,-779.38 187.32,-768.95 181.21,-772.37"/>
</g>
<!-- Node4&#45;&gt;Node12 -->
<g id="edge15" class="edge">
<title>Node4&#45;&gt;Node12</title>
<path fill="none" stroke="darkgreen" d="M230.61,-769.23C232.93,-757.37 235.48,-744.33 238.11,-730.9"/>
<polygon fill="none" stroke="darkgreen" points="227.12,-768.83 228.64,-779.32 233.99,-770.17 227.12,-768.83"/>
</g>
<!-- Node5 -->
<g id="node5" class="node">
<title>Node5</title>
<g id="a_node5"><a xlink:href="classcore_1_1_event_receiver.html" target="_top" xlink:title=" ">
<polygon fill="white" stroke="black" points="197,-1397.5 197,-1509.5 311,-1509.5 311,-1397.5 197,-1397.5"/>
<text text-anchor="middle" x="254" y="-1497.5" font-family="Helvetica,sans-Serif" font-size="10.00">core::EventReceiver</text>
<polyline fill="none" stroke="black" points="197,-1490.5 311,-1490.5 "/>
<text text-anchor="middle" x="254" y="-1478.5" font-family="Helvetica,sans-Serif" font-size="10.00"> </text>
<polyline fill="none" stroke="black" points="197,-1471.5 311,-1471.5 "/>
<text text-anchor="start" x="205" y="-1459.5" font-family="Helvetica,sans-Serif" font-size="10.00">+ EventReceiver()</text>
<text text-anchor="start" x="205" y="-1448.5" font-family="Helvetica,sans-Serif" font-size="10.00">+ ~EventReceiver()</text>
<text text-anchor="start" x="205" y="-1437.5" font-family="Helvetica,sans-Serif" font-size="10.00">+ publish()</text>
<text text-anchor="start" x="205" y="-1426.5" font-family="Helvetica,sans-Serif" font-size="10.00">+ unPublish()</text>
<text text-anchor="start" x="205" y="-1415.5" font-family="Helvetica,sans-Serif" font-size="10.00">+ event()</text>
<text text-anchor="start" x="205" y="-1404.5" font-family="Helvetica,sans-Serif" font-size="10.00">+ getName()</text>
</a>
</g>
</g>
<!-- Node5&#45;&gt;Node4 -->
<g id="edge4" class="edge">
<title>Node5&#45;&gt;Node4</title>
<path fill="none" stroke="midnightblue" d="M243.24,-1387.19C237.95,-1352.24 232.07,-1308.39 229,-1269 217.62,-1123.12 218.17,-949.48 219.22,-869.65"/>
<polygon fill="none" stroke="midnightblue" points="239.81,-1387.92 244.79,-1397.27 246.73,-1386.86 239.81,-1387.92"/>
</g>
<!-- Node6 -->
<g id="node6" class="node">
<title>Node6</title>
<g id="a_node6"><a xlink:href="classcore_1_1_event.html" target="_top" xlink:title=" ">
<polygon fill="white" stroke="black" points="241.5,-1006.5 241.5,-1129.5 324.5,-1129.5 324.5,-1006.5 241.5,-1006.5"/>
<text text-anchor="middle" x="283" y="-1117.5" font-family="Helvetica,sans-Serif" font-size="10.00">core::Event</text>
<polyline fill="none" stroke="black" points="241.5,-1110.5 324.5,-1110.5 "/>
<text text-anchor="start" x="249.5" y="-1098.5" font-family="Helvetica,sans-Serif" font-size="10.00">&#45; published</text>
<text text-anchor="start" x="249.5" y="-1087.5" font-family="Helvetica,sans-Serif" font-size="10.00">&#45; name</text>
<polyline fill="none" stroke="black" points="241.5,-1080.5 324.5,-1080.5 "/>
<text text-anchor="start" x="249.5" y="-1068.5" font-family="Helvetica,sans-Serif" font-size="10.00">+ Event()</text>
<text text-anchor="start" x="249.5" y="-1057.5" font-family="Helvetica,sans-Serif" font-size="10.00">+ ~Event()</text>
<text text-anchor="start" x="249.5" y="-1046.5" font-family="Helvetica,sans-Serif" font-size="10.00">+ publish()</text>
<text text-anchor="start" x="249.5" y="-1035.5" font-family="Helvetica,sans-Serif" font-size="10.00">+ unPublish()</text>
<text text-anchor="start" x="249.5" y="-1024.5" font-family="Helvetica,sans-Serif" font-size="10.00">+ getName()</text>
<text text-anchor="start" x="249.5" y="-1013.5" font-family="Helvetica,sans-Serif" font-size="10.00">&#45; dispatch()</text>
</a>
</g>
</g>
<!-- Node5&#45;&gt;Node6 -->
<g id="edge6" class="edge">
<title>Node5&#45;&gt;Node6</title>
<path fill="none" stroke="#404040" d="M242.23,-1397.15C234.58,-1353.3 227.32,-1290.55 235,-1236 239.46,-1204.36 248.44,-1170.32 257.44,-1141.28"/>
<polygon fill="none" stroke="#404040" points="257.53,-1141.02 255.53,-1134.09 261.15,-1129.58 263.15,-1136.51 257.53,-1141.02"/>
<text text-anchor="middle" x="274" y="-1250" font-family="Helvetica,sans-Serif" font-size="10.00"> &#45;eventReceiver</text>
</g>
<!-- Node8 -->
<g id="node8" class="node">
<title>Node8</title>
<g id="a_node8"><a xlink:href="classcore_1_1_descriptor_event_receiver.html" target="_top" xlink:title=" ">
<polygon fill="white" stroke="black" points="350,-918.5 350,-1217.5 514,-1217.5 514,-918.5 350,-918.5"/>
<text text-anchor="middle" x="432" y="-1205.5" font-family="Helvetica,sans-Serif" font-size="10.00">core::DescriptorEventReceiver</text>
<polyline fill="none" stroke="black" points="350,-1198.5 514,-1198.5 "/>
<text text-anchor="start" x="358" y="-1186.5" font-family="Helvetica,sans-Serif" font-size="10.00">&#45; observedFd</text>
<text text-anchor="start" x="358" y="-1175.5" font-family="Helvetica,sans-Serif" font-size="10.00">&#45; enabled</text>
<text text-anchor="start" x="358" y="-1164.5" font-family="Helvetica,sans-Serif" font-size="10.00">&#45; suspended</text>
<text text-anchor="start" x="358" y="-1153.5" font-family="Helvetica,sans-Serif" font-size="10.00">&#45; eventCounter</text>
<polyline fill="none" stroke="black" points="350,-1146.5 514,-1146.5 "/>
<text text-anchor="start" x="358" y="-1134.5" font-family="Helvetica,sans-Serif" font-size="10.00">+ getRegisteredFd()</text>
<text text-anchor="start" x="358" y="-1123.5" font-family="Helvetica,sans-Serif" font-size="10.00">+ getTimeout()</text>
<text text-anchor="start" x="358" y="-1112.5" font-family="Helvetica,sans-Serif" font-size="10.00">+ isEnabled()</text>
<text text-anchor="start" x="358" y="-1101.5" font-family="Helvetica,sans-Serif" font-size="10.00">+ isSuspended()</text>
<text text-anchor="start" x="358" y="-1090.5" font-family="Helvetica,sans-Serif" font-size="10.00"># DescriptorEventReceiver()</text>
<text text-anchor="start" x="358" y="-1079.5" font-family="Helvetica,sans-Serif" font-size="10.00"># enable()</text>
<text text-anchor="start" x="358" y="-1068.5" font-family="Helvetica,sans-Serif" font-size="10.00"># disable()</text>
<text text-anchor="start" x="358" y="-1057.5" font-family="Helvetica,sans-Serif" font-size="10.00"># suspend()</text>
<text text-anchor="start" x="358" y="-1046.5" font-family="Helvetica,sans-Serif" font-size="10.00"># resume()</text>
<text text-anchor="start" x="358" y="-1035.5" font-family="Helvetica,sans-Serif" font-size="10.00"># setTimeout()</text>
<text text-anchor="start" x="358" y="-1024.5" font-family="Helvetica,sans-Serif" font-size="10.00"># checkTimeout()</text>
<text text-anchor="start" x="358" y="-1013.5" font-family="Helvetica,sans-Serif" font-size="10.00"># terminate()</text>
<text text-anchor="start" x="358" y="-1002.5" font-family="Helvetica,sans-Serif" font-size="10.00">&#45; DescriptorEventReceiver()</text>
<text text-anchor="start" x="358" y="-991.5" font-family="Helvetica,sans-Serif" font-size="10.00">&#45; operator=()</text>
<text text-anchor="start" x="358" y="-980.5" font-family="Helvetica,sans-Serif" font-size="10.00">&#45; event()</text>
<text text-anchor="start" x="358" y="-969.5" font-family="Helvetica,sans-Serif" font-size="10.00">&#45; triggered()</text>
<text text-anchor="start" x="358" y="-958.5" font-family="Helvetica,sans-Serif" font-size="10.00">&#45; setEnabled()</text>
<text text-anchor="start" x="358" y="-947.5" font-family="Helvetica,sans-Serif" font-size="10.00">&#45; setDisabled()</text>
<text text-anchor="start" x="358" y="-936.5" font-family="Helvetica,sans-Serif" font-size="10.00">&#45; dispatchEvent()</text>
<text text-anchor="start" x="358" y="-925.5" font-family="Helvetica,sans-Serif" font-size="10.00">&#45; timeoutEvent()</text>
</a>
</g>
</g>
<!-- Node5&#45;&gt;Node8 -->
<g id="edge10" class="edge">
<title>Node5&#45;&gt;Node8</title>
<path fill="none" stroke="midnightblue" d="M270.71,-1387.63C282.15,-1354.05 300.36,-1314.45 328,-1287 342.12,-1272.98 355.71,-1283.81 369,-1269 382.37,-1254.1 392.9,-1236.36 401.2,-1217.71"/>
<polygon fill="none" stroke="midnightblue" points="267.3,-1386.79 267.52,-1397.38 273.95,-1388.97 267.3,-1386.79"/>
</g>
<!-- Node6&#45;&gt;Node5 -->
<g id="edge5" class="edge">
<title>Node6&#45;&gt;Node5</title>
<path fill="none" stroke="#404040" d="M303.98,-1129.81C315.02,-1169.44 324.8,-1222.27 317,-1269 310.35,-1308.85 296.1,-1351.64 282.84,-1385.87"/>
<polygon fill="none" stroke="#404040" points="282.8,-1385.97 284.31,-1393.02 278.39,-1397.13 276.87,-1390.08 282.8,-1385.97"/>
<text text-anchor="middle" x="342.5" y="-1250" font-family="Helvetica,sans-Serif" font-size="10.00"> #_event</text>
</g>
<!-- Node7 -->
<g id="node7" class="node">
<title>Node7</title>
<g id="a_node7"><a xlink:href="classcore_1_1eventreceiver_1_1_accept_event_receiver.html" target="_top" xlink:title=" ">
<polygon fill="white" stroke="black" points="315.5,-768.5 315.5,-880.5 454.5,-880.5 454.5,-768.5 315.5,-768.5"/>
<text text-anchor="start" x="323.5" y="-868.5" font-family="Helvetica,sans-Serif" font-size="10.00">core::eventreceiver</text>
<text text-anchor="middle" x="385" y="-857.5" font-family="Helvetica,sans-Serif" font-size="10.00">::AcceptEventReceiver</text>
<polyline fill="none" stroke="black" points="315.5,-850.5 454.5,-850.5 "/>
<text text-anchor="middle" x="385" y="-838.5" font-family="Helvetica,sans-Serif" font-size="10.00"> </text>
<polyline fill="none" stroke="black" points="315.5,-831.5 454.5,-831.5 "/>
<text text-anchor="start" x="323.5" y="-819.5" font-family="Helvetica,sans-Serif" font-size="10.00"># AcceptEventReceiver()</text>
<text text-anchor="start" x="323.5" y="-808.5" font-family="Helvetica,sans-Serif" font-size="10.00">&#45; acceptEvent()</text>
<text text-anchor="start" x="323.5" y="-797.5" font-family="Helvetica,sans-Serif" font-size="10.00">&#45; acceptTimeout()</text>
<text text-anchor="start" x="323.5" y="-786.5" font-family="Helvetica,sans-Serif" font-size="10.00">&#45; dispatchEvent()</text>
<text text-anchor="start" x="323.5" y="-775.5" font-family="Helvetica,sans-Serif" font-size="10.00">&#45; timeoutEvent()</text>
</a>
</g>
</g>
<!-- Node7&#45;&gt;Node2 -->
<g id="edge7" class="edge">
<title>Node7&#45;&gt;Node2</title>
<path fill="none" stroke="darkgreen" d="M394.82,-758.31C404.32,-672.91 409.36,-521.34 347,-413 327.24,-378.66 297.56,-347.24 268.8,-321.74"/>
<polygon fill="none" stroke="darkgreen" points="391.32,-758.05 393.64,-768.39 398.28,-758.86 391.32,-758.05"/>
</g>
<!-- Node7&#45;&gt;Node12 -->
<g id="edge16" class="edge">
<title>Node7&#45;&gt;Node12</title>
<path fill="none" stroke="darkgreen" d="M350.57,-759.48C345.64,-750.3 340.42,-740.6 335.09,-730.69"/>
<polygon fill="none" stroke="darkgreen" points="347.58,-761.31 355.4,-768.46 353.75,-757.99 347.58,-761.31"/>
</g>
<!-- Node8&#45;&gt;Node7 -->
<g id="edge8" class="edge">
<title>Node8&#45;&gt;Node7</title>
<path fill="none" stroke="midnightblue" d="M401.07,-908.08C399.21,-898.49 397.41,-889.27 395.74,-880.68"/>
<polygon fill="none" stroke="midnightblue" points="397.69,-909.03 403.04,-918.18 404.56,-907.7 397.69,-909.03"/>
</g>
<!-- Node9 -->
<g id="node9" class="node">
<title>Node9</title>
<g id="a_node9"><a xlink:href="classcore_1_1_observer.html" target="_top" xlink:title=" ">
<polygon fill="white" stroke="black" points="528.5,-1397.5 528.5,-1509.5 677.5,-1509.5 677.5,-1397.5 528.5,-1397.5"/>
<text text-anchor="middle" x="603" y="-1497.5" font-family="Helvetica,sans-Serif" font-size="10.00">core::Observer</text>
<polyline fill="none" stroke="black" points="528.5,-1490.5 677.5,-1490.5 "/>
<text text-anchor="start" x="536.5" y="-1478.5" font-family="Helvetica,sans-Serif" font-size="10.00">&#45; observationCounter</text>
<polyline fill="none" stroke="black" points="528.5,-1471.5 677.5,-1471.5 "/>
<text text-anchor="start" x="536.5" y="-1459.5" font-family="Helvetica,sans-Serif" font-size="10.00">+ ~Observer()</text>
<text text-anchor="start" x="536.5" y="-1448.5" font-family="Helvetica,sans-Serif" font-size="10.00">+ isObserved()</text>
<text text-anchor="start" x="536.5" y="-1437.5" font-family="Helvetica,sans-Serif" font-size="10.00">+ observed()</text>
<text text-anchor="start" x="536.5" y="-1426.5" font-family="Helvetica,sans-Serif" font-size="10.00">+ unObserved()</text>
<text text-anchor="start" x="536.5" y="-1415.5" font-family="Helvetica,sans-Serif" font-size="10.00">+ getObservationCounter()</text>
<text text-anchor="start" x="536.5" y="-1404.5" font-family="Helvetica,sans-Serif" font-size="10.00">+ unobservedEvent()</text>
</a>
</g>
</g>
<!-- Node9&#45;&gt;Node8 -->
<g id="edge9" class="edge">
<title>Node9&#45;&gt;Node8</title>
<path fill="none" stroke="midnightblue" d="M598.73,-1387.35C593.92,-1343.07 583.7,-1284.03 562,-1236 549.75,-1208.88 532.23,-1182.2 514.02,-1158.4"/>
<polygon fill="none" stroke="midnightblue" points="595.26,-1387.83 599.75,-1397.42 602.22,-1387.12 595.26,-1387.83"/>
</g>
<!-- Node10 -->
<g id="node10" class="node">
<title>Node10</title>
<g id="a_node10"><a xlink:href="classutils_1_1_timeval.html" target="_top" xlink:title=" ">
<polygon fill="white" stroke="black" points="696,-1359 696,-1548 790,-1548 790,-1359 696,-1359"/>
<text text-anchor="middle" x="743" y="-1536" font-family="Helvetica,sans-Serif" font-size="10.00">utils::Timeval</text>
<polyline fill="none" stroke="black" points="696,-1529 790,-1529 "/>
<text text-anchor="start" x="704" y="-1517" font-family="Helvetica,sans-Serif" font-size="10.00">&#45; timeVal</text>
<polyline fill="none" stroke="black" points="696,-1510 790,-1510 "/>
<text text-anchor="start" x="704" y="-1498" font-family="Helvetica,sans-Serif" font-size="10.00">+ Timeval()</text>
<text text-anchor="start" x="704" y="-1487" font-family="Helvetica,sans-Serif" font-size="10.00">+ Timeval()</text>
<text text-anchor="start" x="704" y="-1476" font-family="Helvetica,sans-Serif" font-size="10.00">+ Timeval()</text>
<text text-anchor="start" x="704" y="-1465" font-family="Helvetica,sans-Serif" font-size="10.00">+ Timeval()</text>
<text text-anchor="start" x="704" y="-1454" font-family="Helvetica,sans-Serif" font-size="10.00">+ Timeval()</text>
<text text-anchor="start" x="704" y="-1443" font-family="Helvetica,sans-Serif" font-size="10.00">+ operator=()</text>
<text text-anchor="start" x="704" y="-1432" font-family="Helvetica,sans-Serif" font-size="10.00">+ operator=()</text>
<text text-anchor="start" x="704" y="-1421" font-family="Helvetica,sans-Serif" font-size="10.00">+ operator+()</text>
<text text-anchor="start" x="704" y="-1410" font-family="Helvetica,sans-Serif" font-size="10.00">+ operator&#45;()</text>
<text text-anchor="start" x="704" y="-1399" font-family="Helvetica,sans-Serif" font-size="10.00">+ operator+=()</text>
<text text-anchor="start" x="704" y="-1388" font-family="Helvetica,sans-Serif" font-size="10.00">and 12 more...</text>
<text text-anchor="start" x="704" y="-1377" font-family="Helvetica,sans-Serif" font-size="10.00">+ currentTime()</text>
<text text-anchor="start" x="704" y="-1366" font-family="Helvetica,sans-Serif" font-size="10.00">&#45; normalize()</text>
</a>
</g>
</g>
<!-- Node10&#45;&gt;Node8 -->
<g id="edge11" class="edge">
<title>Node10&#45;&gt;Node8</title>
<path fill="none" stroke="#404040" d="M720.91,-1358.63C712.61,-1334.07 701.53,-1308.48 687,-1287 644.14,-1223.65 578.14,-1167.93 524.03,-1128.68"/>
<polygon fill="none" stroke="#404040" points="523.83,-1128.53 516.62,-1128.29 514.07,-1121.54 521.28,-1121.79 523.83,-1128.53"/>
<text text-anchor="middle" x="708.5" y="-1261" font-family="Helvetica,sans-Serif" font-size="10.00"> &#45;initialTimeout</text>
<text text-anchor="middle" x="708.5" y="-1250" font-family="Helvetica,sans-Serif" font-size="10.00">&#45;lastTriggered</text>
<text text-anchor="middle" x="708.5" y="-1239" font-family="Helvetica,sans-Serif" font-size="10.00">&#45;maxInactivity</text>
</g>
<!-- Node11 -->
<g id="node11" class="node">
<title>Node11</title>
<g id="a_node11"><a xlink:href="classcore_1_1_descriptor_event_publisher.html" target="_top" xlink:title=" ">
<polygon fill="white" stroke="black" points="337.5,-1287.5 337.5,-1619.5 510.5,-1619.5 510.5,-1287.5 337.5,-1287.5"/>
<text text-anchor="middle" x="424" y="-1607.5" font-family="Helvetica,sans-Serif" font-size="10.00">core::DescriptorEventPublisher</text>
<polyline fill="none" stroke="black" points="337.5,-1600.5 510.5,-1600.5 "/>
<text text-anchor="start" x="345.5" y="-1588.5" font-family="Helvetica,sans-Serif" font-size="10.00"># observedEventReceivers</text>
<text text-anchor="start" x="345.5" y="-1577.5" font-family="Helvetica,sans-Serif" font-size="10.00"># eventCounter</text>
<text text-anchor="start" x="345.5" y="-1566.5" font-family="Helvetica,sans-Serif" font-size="10.00"># observedEventReceiversDirty</text>
<text text-anchor="start" x="345.5" y="-1555.5" font-family="Helvetica,sans-Serif" font-size="10.00"># name</text>
<polyline fill="none" stroke="black" points="337.5,-1548.5 510.5,-1548.5 "/>
<text text-anchor="start" x="345.5" y="-1536.5" font-family="Helvetica,sans-Serif" font-size="10.00">+ ~DescriptorEventPublisher()</text>
<text text-anchor="start" x="345.5" y="-1525.5" font-family="Helvetica,sans-Serif" font-size="10.00">+ publish()</text>
<text text-anchor="start" x="345.5" y="-1514.5" font-family="Helvetica,sans-Serif" font-size="10.00">+ enable()</text>
<text text-anchor="start" x="345.5" y="-1503.5" font-family="Helvetica,sans-Serif" font-size="10.00">+ disable()</text>
<text text-anchor="start" x="345.5" y="-1492.5" font-family="Helvetica,sans-Serif" font-size="10.00">+ suspend()</text>
<text text-anchor="start" x="345.5" y="-1481.5" font-family="Helvetica,sans-Serif" font-size="10.00">+ resume()</text>
<text text-anchor="start" x="345.5" y="-1470.5" font-family="Helvetica,sans-Serif" font-size="10.00">+ publishActiveEvents()</text>
<text text-anchor="start" x="345.5" y="-1459.5" font-family="Helvetica,sans-Serif" font-size="10.00">+ checkTimedOutEvents()</text>
<text text-anchor="start" x="345.5" y="-1448.5" font-family="Helvetica,sans-Serif" font-size="10.00">+ unobserveDisabledEvents()</text>
<text text-anchor="start" x="345.5" y="-1437.5" font-family="Helvetica,sans-Serif" font-size="10.00">+ getObservedEventReceiver</text>
<text text-anchor="start" x="345.5" y="-1426.5" font-family="Helvetica,sans-Serif" font-size="10.00">Count()</text>
<text text-anchor="start" x="345.5" y="-1415.5" font-family="Helvetica,sans-Serif" font-size="10.00">+ getMaxFd()</text>
<text text-anchor="start" x="345.5" y="-1404.5" font-family="Helvetica,sans-Serif" font-size="10.00">+ getNextTimeout()</text>
<text text-anchor="start" x="345.5" y="-1393.5" font-family="Helvetica,sans-Serif" font-size="10.00">+ stop()</text>
<text text-anchor="start" x="345.5" y="-1382.5" font-family="Helvetica,sans-Serif" font-size="10.00">+ getName()</text>
<text text-anchor="start" x="345.5" y="-1371.5" font-family="Helvetica,sans-Serif" font-size="10.00"># DescriptorEventPublisher()</text>
<text text-anchor="start" x="345.5" y="-1360.5" font-family="Helvetica,sans-Serif" font-size="10.00"># DescriptorEventPublisher()</text>
<text text-anchor="start" x="345.5" y="-1349.5" font-family="Helvetica,sans-Serif" font-size="10.00"># muxAdd()</text>
<text text-anchor="start" x="345.5" y="-1338.5" font-family="Helvetica,sans-Serif" font-size="10.00"># muxDel()</text>
<text text-anchor="start" x="345.5" y="-1327.5" font-family="Helvetica,sans-Serif" font-size="10.00"># muxOn()</text>
<text text-anchor="start" x="345.5" y="-1316.5" font-family="Helvetica,sans-Serif" font-size="10.00"># muxOff()</text>
<text text-anchor="start" x="345.5" y="-1305.5" font-family="Helvetica,sans-Serif" font-size="10.00">&#45; DescriptorEventPublisher()</text>
<text text-anchor="start" x="345.5" y="-1294.5" font-family="Helvetica,sans-Serif" font-size="10.00">&#45; operator=()</text>
</a>
</g>
</g>
<!-- Node11&#45;&gt;Node8 -->
<g id="edge12" class="edge">
<title>Node11&#45;&gt;Node8</title>
<path fill="none" stroke="#404040" d="M427.44,-1287.36C427.84,-1268.3 428.25,-1248.88 428.64,-1229.87"/>
<polygon fill="none" stroke="#404040" points="428.65,-1229.78 424.77,-1223.69 428.9,-1217.78 432.77,-1223.86 428.65,-1229.78"/>
<text text-anchor="middle" x="493.5" y="-1250" font-family="Helvetica,sans-Serif" font-size="10.00"> &#45;descriptorEventPublisher</text>
</g>
<!-- Node12&#45;&gt;Node2 -->
<g id="edge13" class="edge">
<title>Node12&#45;&gt;Node2</title>
<path fill="none" stroke="orange" d="M229.66,-454.32C224.9,-434.61 220.01,-414.39 215.27,-394.75"/>
<polygon fill="orange" stroke="orange" points="226.31,-455.37 232.06,-464.27 233.12,-453.73 226.31,-455.37"/>
<text text-anchor="start" x="226" y="-438" font-family="Helvetica,sans-Serif" font-size="10.00"> &lt; ServerSocketT, core</text>
<text text-anchor="start" x="226" y="-427" font-family="Helvetica,sans-Serif" font-size="10.00">::socket::stream::legacy</text>
<text text-anchor="middle" x="284.5" y="-416" font-family="Helvetica,sans-Serif" font-size="10.00">::SocketConnection &gt;</text>
</g>
</g>
</svg>
