<?xml version="1.0" encoding="UTF-8" standalone="no"?>
<!DOCTYPE svg PUBLIC "-//W3C//DTD SVG 1.1//EN"
 "http://www.w3.org/Graphics/SVG/1.1/DTD/svg11.dtd">
<!-- Generated by graphviz version 2.43.0 (0)
 -->
<!-- Title: web::http::server::Response::upgrade Pages: 1 -->
<svg width="1115pt" height="381pt"
 viewBox="0.00 0.00 1115.00 381.15" xmlns="http://www.w3.org/2000/svg" xmlns:xlink="http://www.w3.org/1999/xlink">
<g id="graph0" class="graph" transform="scale(1 1) rotate(0) translate(4 377.15)">
<title>web::http::server::Response::upgrade</title>
<polygon fill="white" stroke="transparent" points="-4,4 -4,-377.15 1111,-377.15 1111,4 -4,4"/>
<!-- Node1 -->
<g id="node1" class="node">
<title>Node1</title>
<g id="a_node1"><a xlink:title=" ">
<polygon fill="#bfbfbf" stroke="black" points="0,-200 0,-230 101,-230 101,-200 0,-200"/>
<text text-anchor="start" x="8" y="-218" font-family="Helvetica,sans-Serif" font-size="10.00">web::http::server::</text>
<text text-anchor="middle" x="50.5" y="-207" font-family="Helvetica,sans-Serif" font-size="10.00">Response::upgrade</text>
</a>
</g>
</g>
<!-- Node2 -->
<g id="node2" class="node">
<title>Node2</title>
<g id="a_node2"><a xlink:href="namespacehttputils.html#af566d4f31d97a3a84b373a94e6cf9594" target="_top" xlink:title=" ">
<polygon fill="white" stroke="black" points="1000,-334.5 1000,-353.5 1107,-353.5 1107,-334.5 1000,-334.5"/>
<text text-anchor="middle" x="1053.5" y="-341.5" font-family="Helvetica,sans-Serif" font-size="10.00">httputils::ci_contains</text>
</a>
</g>
</g>
<!-- Node1&#45;&gt;Node2 -->
<g id="edge1" class="edge">
<title>Node1&#45;&gt;Node2</title>
<path fill="none" stroke="midnightblue" d="M57.2,-230.13C68.13,-256.83 94.78,-311.86 137,-337 233.87,-394.68 276.26,-366 389,-366 389,-366 389,-366 724.5,-366 816.87,-366 923.54,-357.21 989.51,-350.74"/>
<polygon fill="midnightblue" stroke="midnightblue" points="990.14,-354.19 999.74,-349.72 989.44,-347.23 990.14,-354.19"/>
</g>
<!-- Node3 -->
<g id="node3" class="node">
<title>Node3</title>
<g id="a_node3"><a xlink:href="classweb_1_1http_1_1server_1_1_response.html#a761cba48efb6eed2fa816750670c03db" target="_top" xlink:title=" ">
<polygon fill="white" stroke="black" points="165.5,-269 165.5,-299 261.5,-299 261.5,-269 165.5,-269"/>
<text text-anchor="start" x="173.5" y="-287" font-family="Helvetica,sans-Serif" font-size="10.00">web::http::server::</text>
<text text-anchor="middle" x="213.5" y="-276" font-family="Helvetica,sans-Serif" font-size="10.00">Response::end</text>
</a>
</g>
</g>
<!-- Node1&#45;&gt;Node3 -->
<g id="edge2" class="edge">
<title>Node1&#45;&gt;Node3</title>
<path fill="none" stroke="midnightblue" d="M83.41,-230.01C99.41,-237.42 119.14,-246.38 137,-254 145.76,-257.74 155.16,-261.59 164.24,-265.24"/>
<polygon fill="midnightblue" stroke="midnightblue" points="162.97,-268.5 173.55,-268.95 165.56,-262 162.97,-268.5"/>
</g>
<!-- Node8 -->
<g id="node8" class="node">
<title>Node8</title>
<g id="a_node8"><a xlink:href="classweb_1_1http_1_1server_1_1_response.html#a82301ce94e8418a2d0b9bc052207a178" target="_top" xlink:title=" ">
<polygon fill="white" stroke="black" points="860.5,-307 860.5,-337 956.5,-337 956.5,-307 860.5,-307"/>
<text text-anchor="start" x="868.5" y="-325" font-family="Helvetica,sans-Serif" font-size="10.00">web::http::server::</text>
<text text-anchor="middle" x="908.5" y="-314" font-family="Helvetica,sans-Serif" font-size="10.00">Response::set</text>
</a>
</g>
</g>
<!-- Node1&#45;&gt;Node8 -->
<g id="edge25" class="edge">
<title>Node1&#45;&gt;Node8</title>
<path fill="none" stroke="midnightblue" d="M60.2,-230.33C73.54,-252.19 101.31,-291.59 137,-309 237.94,-358.26 276.68,-328 389,-328 389,-328 389,-328 543,-328 651.58,-328 778.33,-325.31 850.13,-323.53"/>
<polygon fill="midnightblue" stroke="midnightblue" points="850.41,-327.02 860.32,-323.27 850.24,-320.02 850.41,-327.02"/>
</g>
<!-- Node15 -->
<g id="node15" class="node">
<title>Node15</title>
<g id="a_node15"><a xlink:href="classweb_1_1http_1_1server_1_1_request.html#ad39cdf1338eb6a4d187d5bb7fe416c09" target="_top" xlink:title=" ">
<polygon fill="white" stroke="black" points="342,-220 342,-250 438,-250 438,-220 342,-220"/>
<text text-anchor="start" x="350" y="-238" font-family="Helvetica,sans-Serif" font-size="10.00">web::http::server::</text>
<text text-anchor="middle" x="390" y="-227" font-family="Helvetica,sans-Serif" font-size="10.00">Request::header</text>
</a>
</g>
</g>
<!-- Node1&#45;&gt;Node15 -->
<g id="edge17" class="edge">
<title>Node1&#45;&gt;Node15</title>
<path fill="none" stroke="midnightblue" d="M101.22,-218.61C112.95,-219.43 125.42,-220.27 137,-221 203.69,-225.19 280.34,-229.36 331.43,-232.04"/>
<polygon fill="midnightblue" stroke="midnightblue" points="331.44,-235.55 341.61,-232.57 331.81,-228.56 331.44,-235.55"/>
</g>
<!-- Node17 -->
<g id="node17" class="node">
<title>Node17</title>
<g id="a_node17"><a xlink:href="classweb_1_1http_1_1server_1_1_socket_context_upgrade_factory_selector.html#a568eb6d1145d9494f8b903609a59f0f0" target="_top" xlink:title=" ">
<polygon fill="white" stroke="black" points="137.5,-110.5 137.5,-151.5 289.5,-151.5 289.5,-110.5 137.5,-110.5"/>
<text text-anchor="start" x="145.5" y="-139.5" font-family="Helvetica,sans-Serif" font-size="10.00">web::http::server::</text>
<text text-anchor="start" x="145.5" y="-128.5" font-family="Helvetica,sans-Serif" font-size="10.00">SocketContextUpgradeFactory</text>
<text text-anchor="middle" x="213.5" y="-117.5" font-family="Helvetica,sans-Serif" font-size="10.00">Selector::instance</text>
</a>
</g>
</g>
<!-- Node1&#45;&gt;Node17 -->
<g id="edge19" class="edge">
<title>Node1&#45;&gt;Node17</title>
<path fill="none" stroke="midnightblue" d="M72.99,-199.86C89.9,-188.34 114.31,-172.55 137,-161 140.51,-159.22 144.14,-157.46 147.84,-155.76"/>
<polygon fill="midnightblue" stroke="midnightblue" points="149.42,-158.89 157.13,-151.63 146.57,-152.5 149.42,-158.89"/>
</g>
<!-- Node18 -->
<g id="node18" class="node">
<title>Node18</title>
<g id="a_node18"><a xlink:href="classweb_1_1http_1_1server_1_1_socket_context_upgrade_factory_selector.html#a0f3c3fc11f20bc704da83f07ad3fa2ff" target="_top" xlink:title=" ">
<polygon fill="white" stroke="black" points="137.5,-170.5 137.5,-211.5 289.5,-211.5 289.5,-170.5 137.5,-170.5"/>
<text text-anchor="start" x="145.5" y="-199.5" font-family="Helvetica,sans-Serif" font-size="10.00">web::http::server::</text>
<text text-anchor="start" x="145.5" y="-188.5" font-family="Helvetica,sans-Serif" font-size="10.00">SocketContextUpgradeFactory</text>
<text text-anchor="middle" x="213.5" y="-177.5" font-family="Helvetica,sans-Serif" font-size="10.00">Selector::select</text>
</a>
</g>
</g>
<!-- Node1&#45;&gt;Node18 -->
<g id="edge20" class="edge">
<title>Node1&#45;&gt;Node18</title>
<path fill="none" stroke="midnightblue" d="M101.12,-207.6C109.44,-206.36 118.29,-205.04 127.21,-203.71"/>
<polygon fill="midnightblue" stroke="midnightblue" points="127.92,-207.15 137.29,-202.21 126.89,-200.22 127.92,-207.15"/>
</g>
<!-- Node21 -->
<g id="node21" class="node">
<title>Node21</title>
<g id="a_node21"><a xlink:href="classweb_1_1http_1_1server_1_1_response.html#ab0e29ec119bf92d286d94d12ff2071ba" target="_top" xlink:title=" ">
<polygon fill="white" stroke="black" points="165.5,-61 165.5,-91 261.5,-91 261.5,-61 165.5,-61"/>
<text text-anchor="start" x="173.5" y="-79" font-family="Helvetica,sans-Serif" font-size="10.00">web::http::server::</text>
<text text-anchor="middle" x="213.5" y="-68" font-family="Helvetica,sans-Serif" font-size="10.00">Response::status</text>
</a>
</g>
</g>
<!-- Node1&#45;&gt;Node21 -->
<g id="edge26" class="edge">
<title>Node1&#45;&gt;Node21</title>
<path fill="none" stroke="midnightblue" d="M59.01,-199.72C71.74,-175.36 99.84,-127.72 137,-101 142.65,-96.94 149,-93.51 155.56,-90.61"/>
<polygon fill="midnightblue" stroke="midnightblue" points="157.26,-93.7 165.25,-86.75 154.67,-87.2 157.26,-93.7"/>
</g>
<!-- Node22 -->
<g id="node22" class="node">
<title>Node22</title>
<g id="a_node22"><a xlink:href="classnet_1_1socket_1_1stream_1_1_socket_context.html#aee1c0a98c26ab9e3f95e08befdeb74f3" target="_top" xlink:title=" ">
<polygon fill="white" stroke="black" points="137,-0.5 137,-41.5 290,-41.5 290,-0.5 137,-0.5"/>
<text text-anchor="start" x="145" y="-29.5" font-family="Helvetica,sans-Serif" font-size="10.00">net::socket::stream</text>
<text text-anchor="start" x="145" y="-18.5" font-family="Helvetica,sans-Serif" font-size="10.00">::SocketContext::switchSocket</text>
<text text-anchor="middle" x="213.5" y="-7.5" font-family="Helvetica,sans-Serif" font-size="10.00">Context</text>
</a>
</g>
</g>
<!-- Node1&#45;&gt;Node22 -->
<g id="edge27" class="edge">
<title>Node1&#45;&gt;Node22</title>
<path fill="none" stroke="midnightblue" d="M55.55,-199.64C64.72,-167.65 90.04,-93.38 137,-51 138.33,-49.8 139.72,-48.64 141.15,-47.53"/>
<polygon fill="midnightblue" stroke="midnightblue" points="143.5,-50.16 149.78,-41.62 139.55,-44.38 143.5,-50.16"/>
</g>
<!-- Node4 -->
<g id="node4" class="node">
<title>Node4</title>
<g id="a_node4"><a xlink:href="classweb_1_1http_1_1server_1_1_response.html#ad13e93ee083ee9e780a4478a86fdefec" target="_top" xlink:title=" ">
<polygon fill="white" stroke="black" points="342,-269 342,-299 438,-299 438,-269 342,-269"/>
<text text-anchor="start" x="350" y="-287" font-family="Helvetica,sans-Serif" font-size="10.00">web::http::server::</text>
<text text-anchor="middle" x="390" y="-276" font-family="Helvetica,sans-Serif" font-size="10.00">Response::send</text>
</a>
</g>
</g>
<!-- Node3&#45;&gt;Node4 -->
<g id="edge3" class="edge">
<title>Node3&#45;&gt;Node4</title>
<path fill="none" stroke="midnightblue" d="M261.72,-284C283.25,-284 308.94,-284 331.58,-284"/>
<polygon fill="midnightblue" stroke="midnightblue" points="331.74,-287.5 341.74,-284 331.74,-280.5 331.74,-287.5"/>
</g>
<!-- Node5 -->
<g id="node5" class="node">
<title>Node5</title>
<g id="a_node5"><a xlink:href="classweb_1_1http_1_1server_1_1_response.html#a6bdff1ff4fb13a952df7bfefd0b87667" target="_top" xlink:title=" ">
<polygon fill="white" stroke="black" points="490,-228 490,-258 594,-258 594,-228 490,-228"/>
<text text-anchor="start" x="498" y="-246" font-family="Helvetica,sans-Serif" font-size="10.00">web::http::server::</text>
<text text-anchor="middle" x="542" y="-235" font-family="Helvetica,sans-Serif" font-size="10.00">Response::enqueue</text>
</a>
</g>
</g>
<!-- Node4&#45;&gt;Node5 -->
<g id="edge4" class="edge">
<title>Node4&#45;&gt;Node5</title>
<path fill="none" stroke="midnightblue" d="M438.05,-271.14C451.32,-267.51 465.96,-263.51 479.93,-259.69"/>
<polygon fill="midnightblue" stroke="midnightblue" points="481.23,-262.97 489.96,-256.95 479.39,-256.21 481.23,-262.97"/>
</g>
<!-- Node4&#45;&gt;Node8 -->
<g id="edge16" class="edge">
<title>Node4&#45;&gt;Node8</title>
<path fill="none" stroke="midnightblue" d="M438.3,-287.05C516.94,-292.19 679.53,-303.08 817,-314 827.6,-314.84 838.9,-315.8 849.79,-316.74"/>
<polygon fill="midnightblue" stroke="midnightblue" points="849.81,-320.26 860.07,-317.65 850.42,-313.29 849.81,-320.26"/>
</g>
<!-- Node6 -->
<g id="node6" class="node">
<title>Node6</title>
<g id="a_node6"><a xlink:href="classweb_1_1http_1_1server_1_1_response.html#a4fae387fd1d11b86260f4572bfebfce2" target="_top" xlink:title=" ">
<polygon fill="white" stroke="black" points="664,-231 664,-261 783,-261 783,-231 664,-231"/>
<text text-anchor="start" x="672" y="-249" font-family="Helvetica,sans-Serif" font-size="10.00">web::http::server::</text>
<text text-anchor="middle" x="723.5" y="-238" font-family="Helvetica,sans-Serif" font-size="10.00">Response::sendHeader</text>
</a>
</g>
</g>
<!-- Node5&#45;&gt;Node6 -->
<g id="edge5" class="edge">
<title>Node5&#45;&gt;Node6</title>
<path fill="none" stroke="midnightblue" d="M594.44,-237.69C612.88,-237.4 633.97,-237.62 653.64,-238.26"/>
<polygon fill="midnightblue" stroke="midnightblue" points="653.66,-241.77 663.78,-238.64 653.92,-234.77 653.66,-241.77"/>
</g>
<!-- Node10 -->
<g id="node10" class="node">
<title>Node10</title>
<g id="a_node10"><a xlink:href="classnet_1_1socket_1_1stream_1_1_socket_context.html#aa62f437fffcdea88263e87b6997ff85c" target="_top" xlink:title=" ">
<polygon fill="white" stroke="black" points="650.5,-182 650.5,-212 796.5,-212 796.5,-182 650.5,-182"/>
<text text-anchor="start" x="658.5" y="-200" font-family="Helvetica,sans-Serif" font-size="10.00">net::socket::stream</text>
<text text-anchor="middle" x="723.5" y="-189" font-family="Helvetica,sans-Serif" font-size="10.00">::SocketContext::sendToPeer</text>
</a>
</g>
</g>
<!-- Node5&#45;&gt;Node10 -->
<g id="edge11" class="edge">
<title>Node5&#45;&gt;Node10</title>
<path fill="none" stroke="midnightblue" d="M594.44,-229.82C612.96,-225.07 634.16,-219.64 653.91,-214.58"/>
<polygon fill="midnightblue" stroke="midnightblue" points="654.96,-217.92 663.78,-212.05 653.23,-211.14 654.96,-217.92"/>
</g>
<!-- Node12 -->
<g id="node12" class="node">
<title>Node12</title>
<g id="a_node12"><a xlink:href="classweb_1_1http_1_1server_1_1_socket_context.html#af02d72d4d627ffea40a714dec9b128d7" target="_top" xlink:title=" ">
<polygon fill="white" stroke="black" points="630,-133 630,-163 817,-163 817,-133 630,-133"/>
<text text-anchor="start" x="638" y="-151" font-family="Helvetica,sans-Serif" font-size="10.00">web::http::server::</text>
<text text-anchor="middle" x="723.5" y="-140" font-family="Helvetica,sans-Serif" font-size="10.00">SocketContext::sendToPeerCompleted</text>
</a>
</g>
</g>
<!-- Node5&#45;&gt;Node12 -->
<g id="edge13" class="edge">
<title>Node5&#45;&gt;Node12</title>
<path fill="none" stroke="midnightblue" d="M574.61,-227.96C581.31,-224.16 588.12,-219.78 594,-215 613.08,-199.5 609.21,-186.12 630,-173 633.38,-170.86 636.95,-168.91 640.63,-167.12"/>
<polygon fill="midnightblue" stroke="midnightblue" points="642.25,-170.23 649.99,-163 639.43,-163.82 642.25,-170.23"/>
</g>
<!-- Node13 -->
<g id="node13" class="node">
<title>Node13</title>
<g id="a_node13"><a xlink:href="classweb_1_1http_1_1server_1_1_socket_context.html#a2ad61a6624a14517bdeae82a3a284d9b" target="_top" xlink:title=" ">
<polygon fill="white" stroke="black" points="634.5,-84 634.5,-114 812.5,-114 812.5,-84 634.5,-84"/>
<text text-anchor="start" x="642.5" y="-102" font-family="Helvetica,sans-Serif" font-size="10.00">web::http::server::</text>
<text text-anchor="middle" x="723.5" y="-91" font-family="Helvetica,sans-Serif" font-size="10.00">SocketContext::terminateConnection</text>
</a>
</g>
</g>
<!-- Node5&#45;&gt;Node13 -->
<g id="edge14" class="edge">
<title>Node5&#45;&gt;Node13</title>
<path fill="none" stroke="midnightblue" d="M578.29,-227.89C584.06,-224.28 589.59,-220 594,-215 622.77,-182.38 597.56,-152.97 630,-124 631.76,-122.42 633.62,-120.95 635.55,-119.56"/>
<polygon fill="midnightblue" stroke="midnightblue" points="637.77,-122.3 644.42,-114.05 634.08,-116.35 637.77,-122.3"/>
</g>
<!-- Node6&#45;&gt;Node5 -->
<g id="edge7" class="edge">
<title>Node6&#45;&gt;Node5</title>
<path fill="none" stroke="midnightblue" d="M663.78,-251.4C644.81,-251.55 623.73,-251.22 604.56,-250.47"/>
<polygon fill="midnightblue" stroke="midnightblue" points="604.58,-246.97 594.44,-250.03 604.27,-253.96 604.58,-246.97"/>
</g>
<!-- Node7 -->
<g id="node7" class="node">
<title>Node7</title>
<g id="a_node7"><a xlink:href="classweb_1_1http_1_1server_1_1_response.html#aa9a6f2cbf1a4f186db94f9a2d5d6da08" target="_top" xlink:title=" ">
<polygon fill="white" stroke="black" points="860.5,-258 860.5,-288 956.5,-288 956.5,-258 860.5,-258"/>
<text text-anchor="start" x="868.5" y="-276" font-family="Helvetica,sans-Serif" font-size="10.00">web::http::server::</text>
<text text-anchor="middle" x="908.5" y="-265" font-family="Helvetica,sans-Serif" font-size="10.00">Response::cookie</text>
</a>
</g>
</g>
<!-- Node6&#45;&gt;Node7 -->
<g id="edge6" class="edge">
<title>Node6&#45;&gt;Node7</title>
<path fill="none" stroke="midnightblue" d="M783.16,-254.65C804.73,-257.84 829.11,-261.43 850.52,-264.59"/>
<polygon fill="midnightblue" stroke="midnightblue" points="850.05,-268.06 860.46,-266.06 851.07,-261.14 850.05,-268.06"/>
</g>
<!-- Node6&#45;&gt;Node8 -->
<g id="edge8" class="edge">
<title>Node6&#45;&gt;Node8</title>
<path fill="none" stroke="midnightblue" d="M778.15,-261.04C791.1,-265.31 804.73,-270.36 817,-276 834.04,-283.84 836.38,-289.31 853,-298 855.93,-299.53 858.98,-301.06 862.08,-302.55"/>
<polygon fill="midnightblue" stroke="midnightblue" points="860.87,-305.85 871.41,-306.92 863.84,-299.51 860.87,-305.85"/>
</g>
<!-- Node9 -->
<g id="node9" class="node">
<title>Node9</title>
<g id="a_node9"><a xlink:href="namespacehttputils.html#a01539c1af68e4d072d3507ae44c0b02a" target="_top" xlink:title=" ">
<polygon fill="white" stroke="black" points="853,-219.5 853,-238.5 964,-238.5 964,-219.5 853,-219.5"/>
<text text-anchor="middle" x="908.5" y="-226.5" font-family="Helvetica,sans-Serif" font-size="10.00">httputils::to_http_date</text>
</a>
</g>
</g>
<!-- Node6&#45;&gt;Node9 -->
<g id="edge10" class="edge">
<title>Node6&#45;&gt;Node9</title>
<path fill="none" stroke="midnightblue" d="M783.16,-240.55C802.21,-238.78 823.45,-236.81 842.91,-235"/>
<polygon fill="midnightblue" stroke="midnightblue" points="843.27,-238.48 852.9,-234.07 842.62,-231.51 843.27,-238.48"/>
</g>
<!-- Node8&#45;&gt;Node2 -->
<g id="edge9" class="edge">
<title>Node8&#45;&gt;Node2</title>
<path fill="none" stroke="midnightblue" d="M956.72,-329.26C967.31,-330.89 978.7,-332.65 989.81,-334.36"/>
<polygon fill="midnightblue" stroke="midnightblue" points="989.48,-337.85 999.9,-335.91 990.55,-330.93 989.48,-337.85"/>
</g>
<!-- Node11 -->
<g id="node11" class="node">
<title>Node11</title>
<g id="a_node11"><a xlink:href="classnet_1_1socket_1_1stream_1_1_socket_connection.html#a4b368347b53c2853a0358c98810c15bd" target="_top" xlink:title=" ">
<polygon fill="white" stroke="black" points="854,-159.5 854,-200.5 963,-200.5 963,-159.5 854,-159.5"/>
<text text-anchor="start" x="862" y="-188.5" font-family="Helvetica,sans-Serif" font-size="10.00">net::socket::stream</text>
<text text-anchor="start" x="862" y="-177.5" font-family="Helvetica,sans-Serif" font-size="10.00">::SocketConnection::</text>
<text text-anchor="middle" x="908.5" y="-166.5" font-family="Helvetica,sans-Serif" font-size="10.00">sendToPeer</text>
</a>
</g>
</g>
<!-- Node10&#45;&gt;Node11 -->
<g id="edge12" class="edge">
<title>Node10&#45;&gt;Node11</title>
<path fill="none" stroke="midnightblue" d="M796.56,-190.31C812.09,-188.86 828.39,-187.35 843.58,-185.94"/>
<polygon fill="midnightblue" stroke="midnightblue" points="844.25,-189.39 853.89,-184.98 843.61,-182.42 844.25,-189.39"/>
</g>
<!-- Node14 -->
<g id="node14" class="node">
<title>Node14</title>
<g id="a_node14"><a xlink:href="namespacenet_1_1system.html#a5b804e9ab85ee96fb6af201078653816" target="_top" xlink:title=" ">
<polygon fill="white" stroke="black" points="859.5,-89.5 859.5,-108.5 957.5,-108.5 957.5,-89.5 859.5,-89.5"/>
<text text-anchor="middle" x="908.5" y="-96.5" font-family="Helvetica,sans-Serif" font-size="10.00">net::system::close</text>
</a>
</g>
</g>
<!-- Node13&#45;&gt;Node14 -->
<g id="edge15" class="edge">
<title>Node13&#45;&gt;Node14</title>
<path fill="none" stroke="midnightblue" d="M812.52,-99C824.98,-99 837.53,-99 849.24,-99"/>
<polygon fill="midnightblue" stroke="midnightblue" points="849.29,-102.5 859.29,-99 849.29,-95.5 849.29,-102.5"/>
</g>
<!-- Node16 -->
<g id="node16" class="node">
<title>Node16</title>
<g id="a_node16"><a xlink:href="namespacehttputils.html#a4dd60a8e2472042c70e00dec22ebf927" target="_top" xlink:title=" ">
<polygon fill="white" stroke="black" points="495,-186.5 495,-205.5 589,-205.5 589,-186.5 495,-186.5"/>
<text text-anchor="middle" x="542" y="-193.5" font-family="Helvetica,sans-Serif" font-size="10.00">httputils::to_lower</text>
</a>
</g>
</g>
<!-- Node15&#45;&gt;Node16 -->
<g id="edge18" class="edge">
<title>Node15&#45;&gt;Node16</title>
<path fill="none" stroke="midnightblue" d="M438.05,-222.77C455.94,-218.11 476.32,-212.82 494.19,-208.17"/>
<polygon fill="midnightblue" stroke="midnightblue" points="495.31,-211.5 504.11,-205.59 493.55,-204.72 495.31,-211.5"/>
</g>
<!-- Node18&#45;&gt;Node15 -->
<g id="edge21" class="edge">
<title>Node18&#45;&gt;Node15</title>
<path fill="none" stroke="midnightblue" d="M289.52,-209.92C303.65,-213.48 318.22,-217.15 331.7,-220.55"/>
<polygon fill="midnightblue" stroke="midnightblue" points="331.23,-224.04 341.78,-223.09 332.94,-217.25 331.23,-224.04"/>
</g>
<!-- Node18&#45;&gt;Node16 -->
<g id="edge24" class="edge">
<title>Node18&#45;&gt;Node16</title>
<path fill="none" stroke="midnightblue" d="M289.82,-192.15C349.26,-193.06 430.88,-194.31 484.74,-195.14"/>
<polygon fill="midnightblue" stroke="midnightblue" points="484.74,-198.64 494.79,-195.29 484.85,-191.64 484.74,-198.64"/>
</g>
<!-- Node19 -->
<g id="node19" class="node">
<title>Node19</title>
<g id="a_node19"><a xlink:href="classweb_1_1http_1_1_socket_context_upgrade_factory_selector.html#a57f062efa9fe08c37fe67e32c7a85275" target="_top" xlink:title=" ">
<polygon fill="white" stroke="black" points="326,-121.5 326,-162.5 454,-162.5 454,-121.5 326,-121.5"/>
<text text-anchor="start" x="334" y="-150.5" font-family="Helvetica,sans-Serif" font-size="10.00">web::http::SocketContext</text>
<text text-anchor="start" x="334" y="-139.5" font-family="Helvetica,sans-Serif" font-size="10.00">UpgradeFactorySelector</text>
<text text-anchor="middle" x="390" y="-128.5" font-family="Helvetica,sans-Serif" font-size="10.00">::select</text>
</a>
</g>
</g>
<!-- Node18&#45;&gt;Node19 -->
<g id="edge22" class="edge">
<title>Node18&#45;&gt;Node19</title>
<path fill="none" stroke="midnightblue" d="M287.75,-170.43C297.16,-167.79 306.8,-165.08 316.2,-162.44"/>
<polygon fill="midnightblue" stroke="midnightblue" points="317.22,-165.79 325.91,-159.72 315.33,-159.05 317.22,-165.79"/>
</g>
<!-- Node20 -->
<g id="node20" class="node">
<title>Node20</title>
<g id="a_node20"><a xlink:href="namespacehttputils.html#a9e46abe5c20380871f3884c9176a424d" target="_top" xlink:title=" ">
<polygon fill="white" stroke="black" points="344,-83.5 344,-102.5 436,-102.5 436,-83.5 344,-83.5"/>
<text text-anchor="middle" x="390" y="-90.5" font-family="Helvetica,sans-Serif" font-size="10.00">httputils::str_split</text>
</a>
</g>
</g>
<!-- Node18&#45;&gt;Node20 -->
<g id="edge23" class="edge">
<title>Node18&#45;&gt;Node20</title>
<path fill="none" stroke="midnightblue" d="M275.51,-170.33C280.62,-167.55 285.54,-164.45 290,-161 311.39,-144.48 303.93,-127.59 326,-112 328.84,-109.99 331.89,-108.2 335.07,-106.59"/>
<polygon fill="midnightblue" stroke="midnightblue" points="336.54,-109.77 344.28,-102.53 333.71,-103.36 336.54,-109.77"/>
</g>
<!-- Node23 -->
<g id="node23" class="node">
<title>Node23</title>
<g id="a_node23"><a xlink:href="classnet_1_1socket_1_1stream_1_1_socket_connection.html#a8fe770a7291dfdbc7eb41bdfa288a086" target="_top" xlink:title=" ">
<polygon fill="white" stroke="black" points="335,-0.5 335,-41.5 445,-41.5 445,-0.5 335,-0.5"/>
<text text-anchor="start" x="343" y="-29.5" font-family="Helvetica,sans-Serif" font-size="10.00">net::socket::stream</text>
<text text-anchor="start" x="343" y="-18.5" font-family="Helvetica,sans-Serif" font-size="10.00">::SocketConnection::</text>
<text text-anchor="middle" x="390" y="-7.5" font-family="Helvetica,sans-Serif" font-size="10.00">switchSocketContext</text>
</a>
</g>
</g>
<!-- Node22&#45;&gt;Node23 -->
<g id="edge28" class="edge">
<title>Node22&#45;&gt;Node23</title>
<path fill="none" stroke="midnightblue" d="M290.02,-21C301.59,-21 313.43,-21 324.73,-21"/>
<polygon fill="midnightblue" stroke="midnightblue" points="324.92,-24.5 334.92,-21 324.92,-17.5 324.92,-24.5"/>
</g>
</g>
</svg>
