<?xml version="1.0" encoding="UTF-8" standalone="no"?>
<!DOCTYPE svg PUBLIC "-//W3C//DTD SVG 1.1//EN"
 "http://www.w3.org/Graphics/SVG/1.1/DTD/svg11.dtd">
<!-- Generated by graphviz version 2.43.0 (0)
 -->
<!-- Title: web::http::SocketContextUpgradeFactorySelector::unload Pages: 1 -->
<svg width="324pt" height="110pt"
 viewBox="0.00 0.00 324.00 110.00" xmlns="http://www.w3.org/2000/svg" xmlns:xlink="http://www.w3.org/1999/xlink">
<g id="graph0" class="graph" transform="scale(1 1) rotate(0) translate(4 106)">
<title>web::http::SocketContextUpgradeFactorySelector::unload</title>
<polygon fill="white" stroke="transparent" points="-4,4 -4,-106 320,-106 320,4 -4,4"/>
<!-- Node1 -->
<g id="node1" class="node">
<title>Node1</title>
<g id="a_node1"><a xlink:title=" ">
<polygon fill="#bfbfbf" stroke="black" points="188,-30.5 188,-71.5 316,-71.5 316,-30.5 188,-30.5"/>
<text text-anchor="start" x="196" y="-59.5" font-family="Helvetica,sans-Serif" font-size="10.00">web::http::SocketContext</text>
<text text-anchor="start" x="196" y="-48.5" font-family="Helvetica,sans-Serif" font-size="10.00">UpgradeFactorySelector</text>
<text text-anchor="middle" x="252" y="-37.5" font-family="Helvetica,sans-Serif" font-size="10.00">::unload</text>
</a>
</g>
</g>
<!-- Node2 -->
<g id="node2" class="node">
<title>Node2</title>
<g id="a_node2"><a xlink:href="classweb_1_1http_1_1client_1_1_socket_context_upgrade_factory.html#a254e57fe75d644633ca8ab5667e04f60" target="_top" xlink:title=" ">
<polygon fill="white" stroke="black" points="0,-60.5 0,-101.5 152,-101.5 152,-60.5 0,-60.5"/>
<text text-anchor="start" x="8" y="-89.5" font-family="Helvetica,sans-Serif" font-size="10.00">web::http::client::</text>
<text text-anchor="start" x="8" y="-78.5" font-family="Helvetica,sans-Serif" font-size="10.00">SocketContextUpgradeFactory</text>
<text text-anchor="middle" x="76" y="-67.5" font-family="Helvetica,sans-Serif" font-size="10.00">::checkRefCount</text>
</a>
</g>
</g>
<!-- Node1&#45;&gt;Node2 -->
<g id="edge1" class="edge">
<title>Node1&#45;&gt;Node2</title>
<path fill="none" stroke="midnightblue" d="M177.81,-63.62C169.31,-65.09 160.62,-66.58 152.09,-68.05"/>
<polygon fill="midnightblue" stroke="midnightblue" points="178.43,-67.06 187.69,-61.92 177.24,-60.17 178.43,-67.06"/>
</g>
<!-- Node3 -->
<g id="node3" class="node">
<title>Node3</title>
<g id="a_node3"><a xlink:href="classweb_1_1http_1_1server_1_1_socket_context_upgrade_factory.html#ad6da4e4f4825434741da9130a3d77e46" target="_top" xlink:title=" ">
<polygon fill="white" stroke="black" points="0,-0.5 0,-41.5 152,-41.5 152,-0.5 0,-0.5"/>
<text text-anchor="start" x="8" y="-29.5" font-family="Helvetica,sans-Serif" font-size="10.00">web::http::server::</text>
<text text-anchor="start" x="8" y="-18.5" font-family="Helvetica,sans-Serif" font-size="10.00">SocketContextUpgradeFactory</text>
<text text-anchor="middle" x="76" y="-7.5" font-family="Helvetica,sans-Serif" font-size="10.00">::checkRefCount</text>
</a>
</g>
</g>
<!-- Node1&#45;&gt;Node3 -->
<g id="edge2" class="edge">
<title>Node1&#45;&gt;Node3</title>
<path fill="none" stroke="midnightblue" d="M177.81,-38.38C169.31,-36.91 160.62,-35.42 152.09,-33.95"/>
<polygon fill="midnightblue" stroke="midnightblue" points="177.24,-41.83 187.69,-40.08 178.43,-34.94 177.24,-41.83"/>
</g>
</g>
</svg>
