<?xml version="1.0" encoding="UTF-8" standalone="no"?>
<!DOCTYPE svg PUBLIC "-//W3C//DTD SVG 1.1//EN"
 "http://www.w3.org/Graphics/SVG/1.1/DTD/svg11.dtd">
<!-- Generated by graphviz version 2.43.0 (0)
 -->
<!-- Title: core::DescriptorEventReceiver::isEnabled Pages: 1 -->
<svg width="539pt" height="294pt"
 viewBox="0.00 0.00 539.00 293.50" xmlns="http://www.w3.org/2000/svg" xmlns:xlink="http://www.w3.org/1999/xlink">
<g id="graph0" class="graph" transform="scale(1 1) rotate(0) translate(4 289.5)">
<title>core::DescriptorEventReceiver::isEnabled</title>
<polygon fill="white" stroke="transparent" points="-4,4 -4,-289.5 535,-289.5 535,4 -4,4"/>
<!-- Node1 -->
<g id="node1" class="node">
<title>Node1</title>
<g id="a_node1"><a xlink:title=" ">
<polygon fill="#bfbfbf" stroke="black" points="367,-104.5 367,-134.5 531,-134.5 531,-104.5 367,-104.5"/>
<text text-anchor="start" x="375" y="-122.5" font-family="Helvetica,sans-Serif" font-size="10.00">core::DescriptorEventReceiver</text>
<text text-anchor="middle" x="449" y="-111.5" font-family="Helvetica,sans-Serif" font-size="10.00">::isEnabled</text>
</a>
</g>
</g>
<!-- Node2 -->
<g id="node2" class="node">
<title>Node2</title>
<g id="a_node2"><a xlink:href="classcore_1_1socket_1_1stream_1_1_socket_connection.html#ab2f0c8920543bd78d837fe261340384f" target="_top" xlink:title=" ">
<polygon fill="white" stroke="black" points="177,-219.5 177,-249.5 318,-249.5 318,-219.5 177,-219.5"/>
<text text-anchor="start" x="185" y="-237.5" font-family="Helvetica,sans-Serif" font-size="10.00">core::socket::stream</text>
<text text-anchor="middle" x="247.5" y="-226.5" font-family="Helvetica,sans-Serif" font-size="10.00">::SocketConnection::close</text>
</a>
</g>
</g>
<!-- Node1&#45;&gt;Node2 -->
<g id="edge1" class="edge">
<title>Node1&#45;&gt;Node2</title>
<path fill="none" stroke="midnightblue" d="M424.6,-141.66C402.16,-161.85 366.52,-191.23 331,-209.5 323.68,-213.26 315.7,-216.57 307.67,-219.43"/>
<polygon fill="midnightblue" stroke="midnightblue" points="427.23,-144 432.25,-134.67 422.51,-138.83 427.23,-144"/>
</g>
<!-- Node5 -->
<g id="node5" class="node">
<title>Node5</title>
<g id="a_node5"><a xlink:href="classcore_1_1socket_1_1stream_1_1tls_1_1_socket_connection.html#a9357593ff9cc620f8d212d1ff92e942e" target="_top" xlink:title=" ">
<polygon fill="white" stroke="black" points="183.5,-159 183.5,-200 311.5,-200 311.5,-159 183.5,-159"/>
<text text-anchor="start" x="191.5" y="-188" font-family="Helvetica,sans-Serif" font-size="10.00">core::socket::stream</text>
<text text-anchor="start" x="191.5" y="-177" font-family="Helvetica,sans-Serif" font-size="10.00">::tls::SocketConnection</text>
<text text-anchor="middle" x="247.5" y="-166" font-family="Helvetica,sans-Serif" font-size="10.00">::doReadShutdown</text>
</a>
</g>
</g>
<!-- Node1&#45;&gt;Node5 -->
<g id="edge4" class="edge">
<title>Node1&#45;&gt;Node5</title>
<path fill="none" stroke="midnightblue" d="M388.19,-137.49C364.1,-144.73 336.29,-153.1 311.86,-160.44"/>
<polygon fill="midnightblue" stroke="midnightblue" points="389.35,-140.79 397.92,-134.56 387.33,-134.09 389.35,-140.79"/>
</g>
<!-- Node6 -->
<g id="node6" class="node">
<title>Node6</title>
<g id="a_node6"><a xlink:href="classcore_1_1socket_1_1stream_1_1_socket_connection.html#a645385848a618f16a8492c05ba5dfc5a" target="_top" xlink:title=" ">
<polygon fill="white" stroke="black" points="166,-99 166,-140 329,-140 329,-99 166,-99"/>
<text text-anchor="start" x="174" y="-128" font-family="Helvetica,sans-Serif" font-size="10.00">core::socket::stream</text>
<text text-anchor="start" x="174" y="-117" font-family="Helvetica,sans-Serif" font-size="10.00">::SocketConnection::shutdown</text>
<text text-anchor="middle" x="247.5" y="-106" font-family="Helvetica,sans-Serif" font-size="10.00">Write</text>
</a>
</g>
</g>
<!-- Node1&#45;&gt;Node6 -->
<g id="edge5" class="edge">
<title>Node1&#45;&gt;Node6</title>
<path fill="none" stroke="midnightblue" d="M356.61,-119.5C347.48,-119.5 338.26,-119.5 329.25,-119.5"/>
<polygon fill="midnightblue" stroke="midnightblue" points="356.86,-123 366.86,-119.5 356.86,-116 356.86,-123"/>
</g>
<!-- Node7 -->
<g id="node7" class="node">
<title>Node7</title>
<g id="a_node7"><a xlink:href="classcore_1_1_descriptor_event_receiver.html#a89834bfd8d8f74d4570c45838239eeb8" target="_top" xlink:title=" ">
<polygon fill="white" stroke="black" points="165.5,-49.5 165.5,-79.5 329.5,-79.5 329.5,-49.5 165.5,-49.5"/>
<text text-anchor="start" x="173.5" y="-67.5" font-family="Helvetica,sans-Serif" font-size="10.00">core::DescriptorEventReceiver</text>
<text text-anchor="middle" x="247.5" y="-56.5" font-family="Helvetica,sans-Serif" font-size="10.00">::terminate</text>
</a>
</g>
</g>
<!-- Node1&#45;&gt;Node7 -->
<g id="edge6" class="edge">
<title>Node1&#45;&gt;Node7</title>
<path fill="none" stroke="midnightblue" d="M383.7,-101.77C357.66,-94.59 327.9,-86.39 302.95,-79.51"/>
<polygon fill="midnightblue" stroke="midnightblue" points="382.92,-105.19 393.49,-104.47 384.78,-98.44 382.92,-105.19"/>
</g>
<!-- Node8 -->
<g id="node8" class="node">
<title>Node8</title>
<g id="a_node8"><a xlink:href="classcore_1_1_descriptor_event_publisher.html#afa2551ee901a01c134fee708e44e8178" target="_top" xlink:title=" ">
<polygon fill="white" stroke="black" points="164,-0.5 164,-30.5 331,-30.5 331,-0.5 164,-0.5"/>
<text text-anchor="start" x="172" y="-18.5" font-family="Helvetica,sans-Serif" font-size="10.00">core::DescriptorEventPublisher</text>
<text text-anchor="middle" x="247.5" y="-7.5" font-family="Helvetica,sans-Serif" font-size="10.00">::unobserveDisabledEvents</text>
</a>
</g>
</g>
<!-- Node1&#45;&gt;Node8 -->
<g id="edge7" class="edge">
<title>Node1&#45;&gt;Node8</title>
<path fill="none" stroke="midnightblue" d="M421.83,-98C399.04,-80.19 364.49,-55.32 331,-39.5 323.99,-36.19 316.42,-33.23 308.81,-30.62"/>
<polygon fill="midnightblue" stroke="midnightblue" points="419.66,-100.75 429.67,-104.22 424.01,-95.26 419.66,-100.75"/>
</g>
<!-- Node3 -->
<g id="node3" class="node">
<title>Node3</title>
<g id="a_node3"><a xlink:href="classcore_1_1socket_1_1stream_1_1tls_1_1_socket_connection.html#a546ab67c528548eaed69277c29a86412" target="_top" xlink:title=" ">
<polygon fill="white" stroke="black" points="0,-244 0,-285 128,-285 128,-244 0,-244"/>
<text text-anchor="start" x="8" y="-273" font-family="Helvetica,sans-Serif" font-size="10.00">core::socket::stream</text>
<text text-anchor="start" x="8" y="-262" font-family="Helvetica,sans-Serif" font-size="10.00">::tls::SocketConnection</text>
<text text-anchor="middle" x="64" y="-251" font-family="Helvetica,sans-Serif" font-size="10.00">::doSSLHandshake</text>
</a>
</g>
</g>
<!-- Node2&#45;&gt;Node3 -->
<g id="edge2" class="edge">
<title>Node2&#45;&gt;Node3</title>
<path fill="none" stroke="midnightblue" d="M166.62,-247.7C153.77,-249.83 140.62,-252 128.23,-254.05"/>
<polygon fill="midnightblue" stroke="midnightblue" points="167.55,-251.1 176.85,-246.01 166.41,-244.19 167.55,-251.1"/>
</g>
<!-- Node4 -->
<g id="node4" class="node">
<title>Node4</title>
<g id="a_node4"><a xlink:href="classcore_1_1socket_1_1stream_1_1tls_1_1_socket_connection.html#ab5d3bb6c3435c24e7c263d8a39ad55a7" target="_top" xlink:title=" ">
<polygon fill="white" stroke="black" points="0,-184 0,-225 128,-225 128,-184 0,-184"/>
<text text-anchor="start" x="8" y="-213" font-family="Helvetica,sans-Serif" font-size="10.00">core::socket::stream</text>
<text text-anchor="start" x="8" y="-202" font-family="Helvetica,sans-Serif" font-size="10.00">::tls::SocketConnection</text>
<text text-anchor="middle" x="64" y="-191" font-family="Helvetica,sans-Serif" font-size="10.00">::doWriteShutdown</text>
</a>
</g>
</g>
<!-- Node2&#45;&gt;Node4 -->
<g id="edge3" class="edge">
<title>Node2&#45;&gt;Node4</title>
<path fill="none" stroke="midnightblue" d="M166.62,-221.3C153.77,-219.17 140.62,-217 128.23,-214.95"/>
<polygon fill="midnightblue" stroke="midnightblue" points="166.41,-224.81 176.85,-222.99 167.55,-217.9 166.41,-224.81"/>
</g>
</g>
</svg>
