<?xml version="1.0" encoding="UTF-8" standalone="no"?>
<!DOCTYPE svg PUBLIC "-//W3C//DTD SVG 1.1//EN"
 "http://www.w3.org/Graphics/SVG/1.1/DTD/svg11.dtd">
<!-- Generated by graphviz version 2.43.0 (0)
 -->
<!-- Title: web::http::client::Request Pages: 1 -->
<svg width="406pt" height="1699pt"
 viewBox="0.00 0.00 405.50 1699.00" xmlns="http://www.w3.org/2000/svg" xmlns:xlink="http://www.w3.org/1999/xlink">
<g id="graph0" class="graph" transform="scale(1 1) rotate(0) translate(4 1695)">
<title>web::http::client::Request</title>
<polygon fill="white" stroke="transparent" points="-4,4 -4,-1695 401.5,-1695 401.5,4 -4,4"/>
<!-- Node1 -->
<g id="node1" class="node">
<title>Node1</title>
<g id="a_node1"><a xlink:title=" ">
<polygon fill="#bfbfbf" stroke="black" points="138.5,-0.5 138.5,-420.5 263.5,-420.5 263.5,-0.5 138.5,-0.5"/>
<text text-anchor="start" x="146.5" y="-408.5" font-family="Helvetica,sans-Serif" font-size="10.00">web::http::client::</text>
<text text-anchor="middle" x="201" y="-397.5" font-family="Helvetica,sans-Serif" font-size="10.00">Request</text>
<polyline fill="none" stroke="black" points="138.5,-390.5 263.5,-390.5 "/>
<text text-anchor="start" x="146.5" y="-378.5" font-family="Helvetica,sans-Serif" font-size="10.00">+ method</text>
<text text-anchor="start" x="146.5" y="-367.5" font-family="Helvetica,sans-Serif" font-size="10.00">+ url</text>
<text text-anchor="start" x="146.5" y="-356.5" font-family="Helvetica,sans-Serif" font-size="10.00">+ host</text>
<text text-anchor="start" x="146.5" y="-345.5" font-family="Helvetica,sans-Serif" font-size="10.00">+ httpMajor</text>
<text text-anchor="start" x="146.5" y="-334.5" font-family="Helvetica,sans-Serif" font-size="10.00">+ httpMinor</text>
<text text-anchor="start" x="146.5" y="-323.5" font-family="Helvetica,sans-Serif" font-size="10.00">+ connectionState</text>
<text text-anchor="start" x="146.5" y="-312.5" font-family="Helvetica,sans-Serif" font-size="10.00"># sendHeaderInProgress</text>
<text text-anchor="start" x="146.5" y="-301.5" font-family="Helvetica,sans-Serif" font-size="10.00"># headersSent</text>
<text text-anchor="start" x="146.5" y="-290.5" font-family="Helvetica,sans-Serif" font-size="10.00"># contentSent</text>
<text text-anchor="start" x="146.5" y="-279.5" font-family="Helvetica,sans-Serif" font-size="10.00"># contentLength</text>
<text text-anchor="start" x="146.5" y="-268.5" font-family="Helvetica,sans-Serif" font-size="10.00"># queries</text>
<text text-anchor="start" x="146.5" y="-257.5" font-family="Helvetica,sans-Serif" font-size="10.00"># headers</text>
<text text-anchor="start" x="146.5" y="-246.5" font-family="Helvetica,sans-Serif" font-size="10.00"># cookies</text>
<text text-anchor="start" x="146.5" y="-235.5" font-family="Helvetica,sans-Serif" font-size="10.00"># nullstr</text>
<polyline fill="none" stroke="black" points="138.5,-228.5 263.5,-228.5 "/>
<text text-anchor="start" x="146.5" y="-216.5" font-family="Helvetica,sans-Serif" font-size="10.00">+ setHost()</text>
<text text-anchor="start" x="146.5" y="-205.5" font-family="Helvetica,sans-Serif" font-size="10.00">+ append()</text>
<text text-anchor="start" x="146.5" y="-194.5" font-family="Helvetica,sans-Serif" font-size="10.00">+ set()</text>
<text text-anchor="start" x="146.5" y="-183.5" font-family="Helvetica,sans-Serif" font-size="10.00">+ set()</text>
<text text-anchor="start" x="146.5" y="-172.5" font-family="Helvetica,sans-Serif" font-size="10.00">+ cookie()</text>
<text text-anchor="start" x="146.5" y="-161.5" font-family="Helvetica,sans-Serif" font-size="10.00">+ cookie()</text>
<text text-anchor="start" x="146.5" y="-150.5" font-family="Helvetica,sans-Serif" font-size="10.00">+ type()</text>
<text text-anchor="start" x="146.5" y="-139.5" font-family="Helvetica,sans-Serif" font-size="10.00">+ send()</text>
<text text-anchor="start" x="146.5" y="-128.5" font-family="Helvetica,sans-Serif" font-size="10.00">+ send()</text>
<text text-anchor="start" x="146.5" y="-117.5" font-family="Helvetica,sans-Serif" font-size="10.00">+ upgrade()</text>
<text text-anchor="start" x="146.5" y="-106.5" font-family="Helvetica,sans-Serif" font-size="10.00">+ sendHeader()</text>
<text text-anchor="start" x="146.5" y="-95.5" font-family="Helvetica,sans-Serif" font-size="10.00">+ start()</text>
<text text-anchor="start" x="146.5" y="-84.5" font-family="Helvetica,sans-Serif" font-size="10.00">+ header()</text>
<text text-anchor="start" x="146.5" y="-73.5" font-family="Helvetica,sans-Serif" font-size="10.00"># Request()</text>
<text text-anchor="start" x="146.5" y="-62.5" font-family="Helvetica,sans-Serif" font-size="10.00"># enqueue()</text>
<text text-anchor="start" x="146.5" y="-51.5" font-family="Helvetica,sans-Serif" font-size="10.00"># enqueue()</text>
<text text-anchor="start" x="146.5" y="-40.5" font-family="Helvetica,sans-Serif" font-size="10.00"># reset()</text>
<text text-anchor="start" x="146.5" y="-29.5" font-family="Helvetica,sans-Serif" font-size="10.00"># receive()</text>
<text text-anchor="start" x="146.5" y="-18.5" font-family="Helvetica,sans-Serif" font-size="10.00"># eof()</text>
<text text-anchor="start" x="146.5" y="-7.5" font-family="Helvetica,sans-Serif" font-size="10.00"># error()</text>
</a>
</g>
</g>
<!-- Node2 -->
<g id="node2" class="node">
<title>Node2</title>
<g id="a_node2"><a xlink:href="classnet_1_1pipe_1_1_sink.html" target="_top" xlink:title=" ">
<polygon fill="white" stroke="black" points="42,-501.5 42,-624.5 122,-624.5 122,-501.5 42,-501.5"/>
<text text-anchor="middle" x="82" y="-612.5" font-family="Helvetica,sans-Serif" font-size="10.00">net::pipe::Sink</text>
<polyline fill="none" stroke="black" points="42,-605.5 122,-605.5 "/>
<text text-anchor="middle" x="82" y="-593.5" font-family="Helvetica,sans-Serif" font-size="10.00"> </text>
<polyline fill="none" stroke="black" points="42,-586.5 122,-586.5 "/>
<text text-anchor="start" x="50" y="-574.5" font-family="Helvetica,sans-Serif" font-size="10.00">+ Sink()</text>
<text text-anchor="start" x="50" y="-563.5" font-family="Helvetica,sans-Serif" font-size="10.00">+ ~Sink()</text>
<text text-anchor="start" x="50" y="-552.5" font-family="Helvetica,sans-Serif" font-size="10.00">+ receive()</text>
<text text-anchor="start" x="50" y="-541.5" font-family="Helvetica,sans-Serif" font-size="10.00">+ eof()</text>
<text text-anchor="start" x="50" y="-530.5" font-family="Helvetica,sans-Serif" font-size="10.00">+ error()</text>
<text text-anchor="start" x="50" y="-519.5" font-family="Helvetica,sans-Serif" font-size="10.00">+ connect()</text>
<text text-anchor="start" x="50" y="-508.5" font-family="Helvetica,sans-Serif" font-size="10.00">+ disconnect()</text>
</a>
</g>
</g>
<!-- Node2&#45;&gt;Node1 -->
<g id="edge1" class="edge">
<title>Node2&#45;&gt;Node1</title>
<path fill="none" stroke="midnightblue" d="M105.88,-491.67C115.4,-463.62 126.85,-429.89 138.46,-395.71"/>
<polygon fill="none" stroke="midnightblue" points="102.49,-490.75 102.59,-501.35 109.12,-493 102.49,-490.75"/>
</g>
<!-- Node3 -->
<g id="node3" class="node">
<title>Node3</title>
<g id="a_node3"><a xlink:href="classnet_1_1pipe_1_1_source.html" target="_top" xlink:title=" ">
<polygon fill="white" stroke="black" points="0,-143.5 0,-277.5 110,-277.5 110,-143.5 0,-143.5"/>
<text text-anchor="middle" x="55" y="-265.5" font-family="Helvetica,sans-Serif" font-size="10.00">net::pipe::Source</text>
<polyline fill="none" stroke="black" points="0,-258.5 110,-258.5 "/>
<text text-anchor="middle" x="55" y="-246.5" font-family="Helvetica,sans-Serif" font-size="10.00"> </text>
<polyline fill="none" stroke="black" points="0,-239.5 110,-239.5 "/>
<text text-anchor="start" x="8" y="-227.5" font-family="Helvetica,sans-Serif" font-size="10.00">+ Source()</text>
<text text-anchor="start" x="8" y="-216.5" font-family="Helvetica,sans-Serif" font-size="10.00">+ ~Source()</text>
<text text-anchor="start" x="8" y="-205.5" font-family="Helvetica,sans-Serif" font-size="10.00">+ sinkDisconnected()</text>
<text text-anchor="start" x="8" y="-194.5" font-family="Helvetica,sans-Serif" font-size="10.00">+ connect()</text>
<text text-anchor="start" x="8" y="-183.5" font-family="Helvetica,sans-Serif" font-size="10.00">+ disconnect()</text>
<text text-anchor="start" x="8" y="-172.5" font-family="Helvetica,sans-Serif" font-size="10.00">+ send()</text>
<text text-anchor="start" x="8" y="-161.5" font-family="Helvetica,sans-Serif" font-size="10.00">+ eof()</text>
<text text-anchor="start" x="8" y="-150.5" font-family="Helvetica,sans-Serif" font-size="10.00">+ error()</text>
</a>
</g>
</g>
<!-- Node2&#45;&gt;Node3 -->
<g id="edge3" class="edge">
<title>Node2&#45;&gt;Node3</title>
<path fill="none" stroke="#404040" d="M56.75,-501.36C51.07,-484.97 45.88,-467.05 43,-450 34.05,-397.09 37.22,-336.71 42.54,-289.95"/>
<polygon fill="none" stroke="#404040" points="42.57,-289.67 39.32,-283.23 44.01,-277.75 47.26,-284.19 42.57,-289.67"/>
<text text-anchor="middle" x="56.5" y="-442" font-family="Helvetica,sans-Serif" font-size="10.00"> #sink</text>
</g>
<!-- Node3&#45;&gt;Node2 -->
<g id="edge2" class="edge">
<title>Node3&#45;&gt;Node2</title>
<path fill="none" stroke="#404040" d="M60.1,-277.67C64.74,-337.99 71.6,-426.95 76.4,-489.26"/>
<polygon fill="none" stroke="#404040" points="76.41,-489.38 80.86,-495.06 77.33,-501.35 72.88,-495.67 76.41,-489.38"/>
<text text-anchor="middle" x="93" y="-442" font-family="Helvetica,sans-Serif" font-size="10.00"> #source</text>
</g>
<!-- Node4 -->
<g id="node4" class="node">
<title>Node4</title>
<g id="a_node4"><a xlink:href="classweb_1_1http_1_1client_1_1_socket_context.html" target="_top" xlink:title=" ">
<polygon fill="white" stroke="black" points="140.5,-468.5 140.5,-657.5 275.5,-657.5 275.5,-468.5 140.5,-468.5"/>
<text text-anchor="start" x="148.5" y="-645.5" font-family="Helvetica,sans-Serif" font-size="10.00">web::http::client::</text>
<text text-anchor="start" x="148.5" y="-634.5" font-family="Helvetica,sans-Serif" font-size="10.00">SocketContext&lt; RequestT,</text>
<text text-anchor="middle" x="208" y="-623.5" font-family="Helvetica,sans-Serif" font-size="10.00"> ResponseT &gt;</text>
<polyline fill="none" stroke="black" points="140.5,-616.5 275.5,-616.5 "/>
<text text-anchor="start" x="148.5" y="-604.5" font-family="Helvetica,sans-Serif" font-size="10.00">&#45; request</text>
<text text-anchor="start" x="148.5" y="-593.5" font-family="Helvetica,sans-Serif" font-size="10.00">&#45; response</text>
<polyline fill="none" stroke="black" points="140.5,-586.5 275.5,-586.5 "/>
<text text-anchor="start" x="148.5" y="-574.5" font-family="Helvetica,sans-Serif" font-size="10.00">+ SocketContext()</text>
<text text-anchor="start" x="148.5" y="-563.5" font-family="Helvetica,sans-Serif" font-size="10.00">+ ~SocketContext()</text>
<text text-anchor="start" x="148.5" y="-552.5" font-family="Helvetica,sans-Serif" font-size="10.00">+ getRequest()</text>
<text text-anchor="start" x="148.5" y="-541.5" font-family="Helvetica,sans-Serif" font-size="10.00">+ getResponse()</text>
<text text-anchor="start" x="148.5" y="-530.5" font-family="Helvetica,sans-Serif" font-size="10.00">&#45; stop()</text>
<text text-anchor="start" x="148.5" y="-519.5" font-family="Helvetica,sans-Serif" font-size="10.00">&#45; onReceiveFromPeer()</text>
<text text-anchor="start" x="148.5" y="-508.5" font-family="Helvetica,sans-Serif" font-size="10.00">&#45; onWriteError()</text>
<text text-anchor="start" x="148.5" y="-497.5" font-family="Helvetica,sans-Serif" font-size="10.00">&#45; onReadError()</text>
<text text-anchor="start" x="148.5" y="-486.5" font-family="Helvetica,sans-Serif" font-size="10.00">&#45; terminateConnection()</text>
<text text-anchor="start" x="148.5" y="-475.5" font-family="Helvetica,sans-Serif" font-size="10.00">&#45; sendToPeerCompleted()</text>
</a>
</g>
</g>
<!-- Node4&#45;&gt;Node1 -->
<g id="edge4" class="edge">
<title>Node4&#45;&gt;Node1</title>
<path fill="none" stroke="#404040" d="M206.12,-468.07C205.9,-456.82 205.66,-444.99 205.42,-432.84"/>
<polygon fill="none" stroke="#404040" points="205.42,-432.6 201.3,-426.68 205.18,-420.6 209.3,-426.52 205.42,-432.6"/>
<text text-anchor="middle" x="242.5" y="-442" font-family="Helvetica,sans-Serif" font-size="10.00"> #socketContext</text>
</g>
<!-- Node5 -->
<g id="node5" class="node">
<title>Node5</title>
<g id="a_node5"><a xlink:href="classweb_1_1http_1_1_socket_context.html" target="_top" xlink:title=" ">
<polygon fill="white" stroke="black" points="114.5,-968.5 114.5,-1069.5 245.5,-1069.5 245.5,-968.5 114.5,-968.5"/>
<text text-anchor="middle" x="180" y="-1057.5" font-family="Helvetica,sans-Serif" font-size="10.00">web::http::SocketContext</text>
<polyline fill="none" stroke="black" points="114.5,-1050.5 245.5,-1050.5 "/>
<text text-anchor="middle" x="180" y="-1038.5" font-family="Helvetica,sans-Serif" font-size="10.00"> </text>
<polyline fill="none" stroke="black" points="114.5,-1031.5 245.5,-1031.5 "/>
<text text-anchor="start" x="122.5" y="-1019.5" font-family="Helvetica,sans-Serif" font-size="10.00">+ sendToPeerCompleted()</text>
<text text-anchor="start" x="122.5" y="-1008.5" font-family="Helvetica,sans-Serif" font-size="10.00">+ terminateConnection()</text>
<text text-anchor="start" x="122.5" y="-997.5" font-family="Helvetica,sans-Serif" font-size="10.00"># SocketContext()</text>
<text text-anchor="start" x="122.5" y="-986.5" font-family="Helvetica,sans-Serif" font-size="10.00"># SocketContext()</text>
<text text-anchor="start" x="122.5" y="-975.5" font-family="Helvetica,sans-Serif" font-size="10.00"># operator=()</text>
</a>
</g>
</g>
<!-- Node5&#45;&gt;Node4 -->
<g id="edge5" class="edge">
<title>Node5&#45;&gt;Node4</title>
<path fill="none" stroke="midnightblue" d="M183.57,-958.25C187.35,-895.26 193.51,-793.14 199,-705 199.95,-689.7 200.98,-673.46 201.98,-657.67"/>
<polygon fill="none" stroke="midnightblue" points="180.07,-958.2 182.96,-968.39 187.06,-958.62 180.07,-958.2"/>
</g>
<!-- Node6 -->
<g id="node6" class="node">
<title>Node6</title>
<g id="a_node6"><a xlink:href="classnet_1_1socket_1_1stream_1_1_socket_context.html" target="_top" xlink:title=" ">
<polygon fill="white" stroke="black" points="106.5,-1446.5 106.5,-1690.5 259.5,-1690.5 259.5,-1446.5 106.5,-1446.5"/>
<text text-anchor="start" x="114.5" y="-1678.5" font-family="Helvetica,sans-Serif" font-size="10.00">net::socket::stream</text>
<text text-anchor="middle" x="183" y="-1667.5" font-family="Helvetica,sans-Serif" font-size="10.00">::SocketContext</text>
<polyline fill="none" stroke="black" points="106.5,-1660.5 259.5,-1660.5 "/>
<text text-anchor="middle" x="183" y="-1648.5" font-family="Helvetica,sans-Serif" font-size="10.00"> </text>
<polyline fill="none" stroke="black" points="106.5,-1641.5 259.5,-1641.5 "/>
<text text-anchor="start" x="114.5" y="-1629.5" font-family="Helvetica,sans-Serif" font-size="10.00">+ sendToPeer()</text>
<text text-anchor="start" x="114.5" y="-1618.5" font-family="Helvetica,sans-Serif" font-size="10.00">+ sendToPeer()</text>
<text text-anchor="start" x="114.5" y="-1607.5" font-family="Helvetica,sans-Serif" font-size="10.00">+ readFromPeer()</text>
<text text-anchor="start" x="114.5" y="-1596.5" font-family="Helvetica,sans-Serif" font-size="10.00">+ close()</text>
<text text-anchor="start" x="114.5" y="-1585.5" font-family="Helvetica,sans-Serif" font-size="10.00">+ getLocalAddressAsString()</text>
<text text-anchor="start" x="114.5" y="-1574.5" font-family="Helvetica,sans-Serif" font-size="10.00">+ getRemoteAddressAsString()</text>
<text text-anchor="start" x="114.5" y="-1563.5" font-family="Helvetica,sans-Serif" font-size="10.00">+ switchSocketContext()</text>
<text text-anchor="start" x="114.5" y="-1552.5" font-family="Helvetica,sans-Serif" font-size="10.00">+ setTimeout()</text>
<text text-anchor="start" x="114.5" y="-1541.5" font-family="Helvetica,sans-Serif" font-size="10.00">+ onReceiveFromPeer()</text>
<text text-anchor="start" x="114.5" y="-1530.5" font-family="Helvetica,sans-Serif" font-size="10.00">+ onWriteError()</text>
<text text-anchor="start" x="114.5" y="-1519.5" font-family="Helvetica,sans-Serif" font-size="10.00">+ onReadError()</text>
<text text-anchor="start" x="114.5" y="-1508.5" font-family="Helvetica,sans-Serif" font-size="10.00">+ onConnected()</text>
<text text-anchor="start" x="114.5" y="-1497.5" font-family="Helvetica,sans-Serif" font-size="10.00">+ onDisconnected()</text>
<text text-anchor="start" x="114.5" y="-1486.5" font-family="Helvetica,sans-Serif" font-size="10.00"># SocketContext()</text>
<text text-anchor="start" x="114.5" y="-1475.5" font-family="Helvetica,sans-Serif" font-size="10.00"># ~SocketContext()</text>
<text text-anchor="start" x="114.5" y="-1464.5" font-family="Helvetica,sans-Serif" font-size="10.00">&#45; stop()</text>
<text text-anchor="start" x="114.5" y="-1453.5" font-family="Helvetica,sans-Serif" font-size="10.00">&#45; receiveFromPeer()</text>
</a>
</g>
</g>
<!-- Node6&#45;&gt;Node5 -->
<g id="edge6" class="edge">
<title>Node6&#45;&gt;Node5</title>
<path fill="none" stroke="midnightblue" d="M123.81,-1436.78C119.85,-1424.2 116.46,-1411.48 114,-1399 87.31,-1263.38 62.06,-1216.09 114,-1088 116.6,-1081.6 120.12,-1075.46 124.19,-1069.69"/>
<polygon fill="none" stroke="midnightblue" points="120.51,-1437.95 126.96,-1446.36 127.17,-1435.77 120.51,-1437.95"/>
</g>
<!-- Node7 -->
<g id="node7" class="node">
<title>Node7</title>
<g id="a_node7"><a xlink:href="classnet_1_1socket_1_1stream_1_1_socket_connection.html" target="_top" xlink:title=" ">
<polygon fill="white" stroke="black" points="123.5,-1138 123.5,-1349 276.5,-1349 276.5,-1138 123.5,-1138"/>
<text text-anchor="start" x="131.5" y="-1337" font-family="Helvetica,sans-Serif" font-size="10.00">net::socket::stream</text>
<text text-anchor="middle" x="200" y="-1326" font-family="Helvetica,sans-Serif" font-size="10.00">::SocketConnection</text>
<polyline fill="none" stroke="black" points="123.5,-1319 276.5,-1319 "/>
<text text-anchor="start" x="131.5" y="-1307" font-family="Helvetica,sans-Serif" font-size="10.00"># SocketContext</text>
<polyline fill="none" stroke="black" points="123.5,-1300 276.5,-1300 "/>
<text text-anchor="start" x="131.5" y="-1288" font-family="Helvetica,sans-Serif" font-size="10.00">+ getSocketContext()</text>
<text text-anchor="start" x="131.5" y="-1277" font-family="Helvetica,sans-Serif" font-size="10.00">+ getLocalAddressAsString()</text>
<text text-anchor="start" x="131.5" y="-1266" font-family="Helvetica,sans-Serif" font-size="10.00">+ getRemoteAddressAsString()</text>
<text text-anchor="start" x="131.5" y="-1255" font-family="Helvetica,sans-Serif" font-size="10.00">+ sendToPeer()</text>
<text text-anchor="start" x="131.5" y="-1244" font-family="Helvetica,sans-Serif" font-size="10.00">+ sendToPeer()</text>
<text text-anchor="start" x="131.5" y="-1233" font-family="Helvetica,sans-Serif" font-size="10.00">+ readFromPeer()</text>
<text text-anchor="start" x="131.5" y="-1222" font-family="Helvetica,sans-Serif" font-size="10.00">+ close()</text>
<text text-anchor="start" x="131.5" y="-1211" font-family="Helvetica,sans-Serif" font-size="10.00">+ setTimeout()</text>
<text text-anchor="start" x="131.5" y="-1200" font-family="Helvetica,sans-Serif" font-size="10.00">+ switchSocketContext()</text>
<text text-anchor="start" x="131.5" y="-1189" font-family="Helvetica,sans-Serif" font-size="10.00"># SocketConnection()</text>
<text text-anchor="start" x="131.5" y="-1178" font-family="Helvetica,sans-Serif" font-size="10.00"># ~SocketConnection()</text>
<text text-anchor="start" x="131.5" y="-1167" font-family="Helvetica,sans-Serif" font-size="10.00">&#45; SocketConnection()</text>
<text text-anchor="start" x="131.5" y="-1156" font-family="Helvetica,sans-Serif" font-size="10.00">&#45; SocketConnection()</text>
<text text-anchor="start" x="131.5" y="-1145" font-family="Helvetica,sans-Serif" font-size="10.00">&#45; operator=()</text>
</a>
</g>
</g>
<!-- Node6&#45;&gt;Node7 -->
<g id="edge8" class="edge">
<title>Node6&#45;&gt;Node7</title>
<path fill="none" stroke="#404040" d="M130.6,-1446.29C129.83,-1436.47 130.17,-1426.62 132,-1417 135.53,-1398.41 141.03,-1379.25 147.4,-1360.78"/>
<polygon fill="none" stroke="#404040" points="147.44,-1360.68 145.69,-1353.68 151.47,-1349.38 153.22,-1356.37 147.44,-1360.68"/>
<text text-anchor="middle" x="168.5" y="-1420" font-family="Helvetica,sans-Serif" font-size="10.00"> #socketContext</text>
</g>
<!-- Node9 -->
<g id="node9" class="node">
<title>Node9</title>
<g id="a_node9"><a xlink:href="classweb_1_1http_1_1_parser.html" target="_top" xlink:title=" ">
<polygon fill="white" stroke="black" points="294.5,-1088.5 294.5,-1398.5 397.5,-1398.5 397.5,-1088.5 294.5,-1088.5"/>
<text text-anchor="middle" x="346" y="-1386.5" font-family="Helvetica,sans-Serif" font-size="10.00">web::http::Parser</text>
<polyline fill="none" stroke="black" points="294.5,-1379.5 397.5,-1379.5 "/>
<text text-anchor="start" x="302.5" y="-1367.5" font-family="Helvetica,sans-Serif" font-size="10.00"># hTTPCompliance</text>
<text text-anchor="start" x="302.5" y="-1356.5" font-family="Helvetica,sans-Serif" font-size="10.00"># parserState</text>
<text text-anchor="start" x="302.5" y="-1345.5" font-family="Helvetica,sans-Serif" font-size="10.00"># content</text>
<text text-anchor="start" x="302.5" y="-1334.5" font-family="Helvetica,sans-Serif" font-size="10.00"># contentLength</text>
<text text-anchor="start" x="302.5" y="-1323.5" font-family="Helvetica,sans-Serif" font-size="10.00"># headers</text>
<text text-anchor="start" x="302.5" y="-1312.5" font-family="Helvetica,sans-Serif" font-size="10.00"># httpVersionRegex</text>
<text text-anchor="start" x="302.5" y="-1301.5" font-family="Helvetica,sans-Serif" font-size="10.00">&#45; EOL</text>
<text text-anchor="start" x="302.5" y="-1290.5" font-family="Helvetica,sans-Serif" font-size="10.00">&#45; line</text>
<text text-anchor="start" x="302.5" y="-1279.5" font-family="Helvetica,sans-Serif" font-size="10.00">&#45; contentRead</text>
<text text-anchor="start" x="302.5" y="-1268.5" font-family="Helvetica,sans-Serif" font-size="10.00">&#45; contentJunk</text>
<text text-anchor="start" x="302.5" y="-1257.5" font-family="Helvetica,sans-Serif" font-size="10.00">&#45; stopped</text>
<polyline fill="none" stroke="black" points="294.5,-1250.5 397.5,-1250.5 "/>
<text text-anchor="start" x="302.5" y="-1238.5" font-family="Helvetica,sans-Serif" font-size="10.00">+ Parser()</text>
<text text-anchor="start" x="302.5" y="-1227.5" font-family="Helvetica,sans-Serif" font-size="10.00">+ ~Parser()</text>
<text text-anchor="start" x="302.5" y="-1216.5" font-family="Helvetica,sans-Serif" font-size="10.00">+ parse()</text>
<text text-anchor="start" x="302.5" y="-1205.5" font-family="Helvetica,sans-Serif" font-size="10.00">+ stop()</text>
<text text-anchor="start" x="302.5" y="-1194.5" font-family="Helvetica,sans-Serif" font-size="10.00"># reset()</text>
<text text-anchor="start" x="302.5" y="-1183.5" font-family="Helvetica,sans-Serif" font-size="10.00">&#45; begin()</text>
<text text-anchor="start" x="302.5" y="-1172.5" font-family="Helvetica,sans-Serif" font-size="10.00">&#45; parseStartLine()</text>
<text text-anchor="start" x="302.5" y="-1161.5" font-family="Helvetica,sans-Serif" font-size="10.00">&#45; parseHeader()</text>
<text text-anchor="start" x="302.5" y="-1150.5" font-family="Helvetica,sans-Serif" font-size="10.00">&#45; parseContent()</text>
<text text-anchor="start" x="302.5" y="-1139.5" font-family="Helvetica,sans-Serif" font-size="10.00">&#45; parsingError()</text>
<text text-anchor="start" x="302.5" y="-1128.5" font-family="Helvetica,sans-Serif" font-size="10.00">&#45; readStartLine()</text>
<text text-anchor="start" x="302.5" y="-1117.5" font-family="Helvetica,sans-Serif" font-size="10.00">&#45; readHeaderLine()</text>
<text text-anchor="start" x="302.5" y="-1106.5" font-family="Helvetica,sans-Serif" font-size="10.00">&#45; splitHeaderLine()</text>
<text text-anchor="start" x="302.5" y="-1095.5" font-family="Helvetica,sans-Serif" font-size="10.00">&#45; readContent()</text>
</a>
</g>
</g>
<!-- Node6&#45;&gt;Node9 -->
<g id="edge11" class="edge">
<title>Node6&#45;&gt;Node9</title>
<path fill="none" stroke="#404040" d="M259.59,-1486.46C273.93,-1468.23 287.64,-1448.26 298,-1428 301,-1422.14 303.82,-1416.07 306.48,-1409.86"/>
<polygon fill="none" stroke="#404040" points="306.55,-1409.68 305.11,-1402.61 311.08,-1398.57 312.52,-1405.63 306.55,-1409.68"/>
<text text-anchor="middle" x="337" y="-1420" font-family="Helvetica,sans-Serif" font-size="10.00"> &#45;socketContext</text>
</g>
<!-- Node7&#45;&gt;Node6 -->
<g id="edge7" class="edge">
<title>Node7&#45;&gt;Node6</title>
<path fill="none" stroke="#404040" d="M210.24,-1349.41C211.35,-1375.14 211.35,-1402.59 209,-1428 208.81,-1430.07 208.6,-1432.15 208.38,-1434.24"/>
<polygon fill="none" stroke="#404040" points="208.36,-1434.41 211.64,-1440.84 206.97,-1446.33 203.69,-1439.91 208.36,-1434.41"/>
<text text-anchor="middle" x="251.5" y="-1420" font-family="Helvetica,sans-Serif" font-size="10.00"> &#45;socketConnection</text>
</g>
<!-- Node8 -->
<g id="node8" class="node">
<title>Node8</title>
<g id="a_node8"><a xlink:href="classweb_1_1http_1_1client_1_1_response_parser.html" target="_top" xlink:title=" ">
<polygon fill="white" stroke="black" points="208,-705.5 208,-949.5 312,-949.5 312,-705.5 208,-705.5"/>
<text text-anchor="start" x="216" y="-937.5" font-family="Helvetica,sans-Serif" font-size="10.00">web::http::client::</text>
<text text-anchor="middle" x="260" y="-926.5" font-family="Helvetica,sans-Serif" font-size="10.00">ResponseParser</text>
<polyline fill="none" stroke="black" points="208,-919.5 312,-919.5 "/>
<text text-anchor="start" x="216" y="-907.5" font-family="Helvetica,sans-Serif" font-size="10.00">&#45; httpVersion</text>
<text text-anchor="start" x="216" y="-896.5" font-family="Helvetica,sans-Serif" font-size="10.00">&#45; statusCode</text>
<text text-anchor="start" x="216" y="-885.5" font-family="Helvetica,sans-Serif" font-size="10.00">&#45; reason</text>
<text text-anchor="start" x="216" y="-874.5" font-family="Helvetica,sans-Serif" font-size="10.00">&#45; cookies</text>
<text text-anchor="start" x="216" y="-863.5" font-family="Helvetica,sans-Serif" font-size="10.00">&#45; onStart</text>
<text text-anchor="start" x="216" y="-852.5" font-family="Helvetica,sans-Serif" font-size="10.00">&#45; onResponse</text>
<text text-anchor="start" x="216" y="-841.5" font-family="Helvetica,sans-Serif" font-size="10.00">&#45; onHeader</text>
<text text-anchor="start" x="216" y="-830.5" font-family="Helvetica,sans-Serif" font-size="10.00">&#45; onContent</text>
<text text-anchor="start" x="216" y="-819.5" font-family="Helvetica,sans-Serif" font-size="10.00">&#45; onParsed</text>
<text text-anchor="start" x="216" y="-808.5" font-family="Helvetica,sans-Serif" font-size="10.00">&#45; onError</text>
<polyline fill="none" stroke="black" points="208,-801.5 312,-801.5 "/>
<text text-anchor="start" x="216" y="-789.5" font-family="Helvetica,sans-Serif" font-size="10.00">+ ResponseParser()</text>
<text text-anchor="start" x="216" y="-778.5" font-family="Helvetica,sans-Serif" font-size="10.00">+ reset()</text>
<text text-anchor="start" x="216" y="-767.5" font-family="Helvetica,sans-Serif" font-size="10.00">&#45; begin()</text>
<text text-anchor="start" x="216" y="-756.5" font-family="Helvetica,sans-Serif" font-size="10.00">&#45; parseStartLine()</text>
<text text-anchor="start" x="216" y="-745.5" font-family="Helvetica,sans-Serif" font-size="10.00">&#45; parseHeader()</text>
<text text-anchor="start" x="216" y="-734.5" font-family="Helvetica,sans-Serif" font-size="10.00">&#45; parseContent()</text>
<text text-anchor="start" x="216" y="-723.5" font-family="Helvetica,sans-Serif" font-size="10.00">&#45; parsingError()</text>
<text text-anchor="start" x="216" y="-712.5" font-family="Helvetica,sans-Serif" font-size="10.00">&#45; parsingFinished()</text>
</a>
</g>
</g>
<!-- Node8&#45;&gt;Node4 -->
<g id="edge9" class="edge">
<title>Node8&#45;&gt;Node4</title>
<path fill="none" stroke="#404040" d="M235.98,-705.24C233.63,-693.37 231.26,-681.4 228.94,-669.71"/>
<polygon fill="none" stroke="#404040" points="228.88,-669.41 223.79,-664.3 226.55,-657.64 231.64,-662.75 228.88,-669.41"/>
<text text-anchor="middle" x="247" y="-679" font-family="Helvetica,sans-Serif" font-size="10.00"> &#45;parser</text>
</g>
<!-- Node9&#45;&gt;Node8 -->
<g id="edge10" class="edge">
<title>Node9&#45;&gt;Node8</title>
<path fill="none" stroke="midnightblue" d="M311.91,-1078.37C303,-1035.48 293.55,-990.02 285.2,-949.8"/>
<polygon fill="none" stroke="midnightblue" points="308.52,-1079.26 313.98,-1088.34 315.37,-1077.84 308.52,-1079.26"/>
</g>
</g>
</svg>
