<?xml version="1.0" encoding="UTF-8" standalone="no"?>
<!DOCTYPE svg PUBLIC "-//W3C//DTD SVG 1.1//EN"
 "http://www.w3.org/Graphics/SVG/1.1/DTD/svg11.dtd">
<!-- Generated by graphviz version 2.43.0 (0)
 -->
<!-- Title: core::socket::stream::tls::TLSShutdown::TLSShutdown Pages: 1 -->
<svg width="965pt" height="380pt"
 viewBox="0.00 0.00 965.00 379.92" xmlns="http://www.w3.org/2000/svg" xmlns:xlink="http://www.w3.org/1999/xlink">
<g id="graph0" class="graph" transform="scale(1 1) rotate(0) translate(4 375.92)">
<title>core::socket::stream::tls::TLSShutdown::TLSShutdown</title>
<polygon fill="white" stroke="transparent" points="-4,4 -4,-375.92 961,-375.92 961,4 -4,4"/>
<!-- Node1 -->
<g id="node1" class="node">
<title>Node1</title>
<g id="a_node1"><a xlink:title=" ">
<polygon fill="#bfbfbf" stroke="black" points="0,-108 0,-138 177,-138 177,-108 0,-108"/>
<text text-anchor="start" x="8" y="-126" font-family="Helvetica,sans-Serif" font-size="10.00">core::socket::stream</text>
<text text-anchor="middle" x="88.5" y="-115" font-family="Helvetica,sans-Serif" font-size="10.00">::tls::TLSShutdown::TLSShutdown</text>
</a>
</g>
</g>
<!-- Node2 -->
<g id="node2" class="node">
<title>Node2</title>
<g id="a_node2"><a xlink:href="classcore_1_1_event_receiver.html#a8b54c1084463cb39c57d99ae533b218e" target="_top" xlink:title=" ">
<polygon fill="white" stroke="black" points="213,-199 213,-229 327,-229 327,-199 213,-199"/>
<text text-anchor="start" x="221" y="-217" font-family="Helvetica,sans-Serif" font-size="10.00">core::EventReceiver</text>
<text text-anchor="middle" x="270" y="-206" font-family="Helvetica,sans-Serif" font-size="10.00">::disable</text>
</a>
</g>
</g>
<!-- Node1&#45;&gt;Node2 -->
<g id="edge1" class="edge">
<title>Node1&#45;&gt;Node2</title>
<path fill="none" stroke="midnightblue" d="M119.14,-138.03C149.54,-153.44 196.97,-177.48 230.31,-194.39"/>
<polygon fill="midnightblue" stroke="midnightblue" points="228.81,-197.55 239.32,-198.95 231.98,-191.31 228.81,-197.55"/>
</g>
<!-- Node10 -->
<g id="node10" class="node">
<title>Node10</title>
<g id="a_node10"><a xlink:href="classcore_1_1_event_receiver.html#ae460e190a6588ac04bcfc6b0d0777376" target="_top" xlink:title=" ">
<polygon fill="white" stroke="black" points="393,-175 393,-205 507,-205 507,-175 393,-175"/>
<text text-anchor="start" x="401" y="-193" font-family="Helvetica,sans-Serif" font-size="10.00">core::EventReceiver</text>
<text text-anchor="middle" x="450" y="-182" font-family="Helvetica,sans-Serif" font-size="10.00">::suspend</text>
</a>
</g>
</g>
<!-- Node1&#45;&gt;Node10 -->
<g id="edge29" class="edge">
<title>Node1&#45;&gt;Node10</title>
<path fill="none" stroke="midnightblue" d="M170.18,-138.04C234.27,-149.98 322.8,-166.48 382.77,-177.66"/>
<polygon fill="midnightblue" stroke="midnightblue" points="382.42,-181.15 392.89,-179.54 383.7,-174.27 382.42,-181.15"/>
</g>
<!-- Node13 -->
<g id="node13" class="node">
<title>Node13</title>
<g id="a_node13"><a xlink:href="classcore_1_1_event_receiver.html#aae56563ec614ab06a115413240e6095f" target="_top" xlink:title=" ">
<polygon fill="white" stroke="black" points="213,-37 213,-67 327,-67 327,-37 213,-37"/>
<text text-anchor="start" x="221" y="-55" font-family="Helvetica,sans-Serif" font-size="10.00">core::EventReceiver</text>
<text text-anchor="middle" x="270" y="-44" font-family="Helvetica,sans-Serif" font-size="10.00">::enable</text>
</a>
</g>
</g>
<!-- Node1&#45;&gt;Node13 -->
<g id="edge15" class="edge">
<title>Node1&#45;&gt;Node13</title>
<path fill="none" stroke="midnightblue" d="M127.57,-107.94C154.94,-97.12 192.03,-82.45 221.36,-70.84"/>
<polygon fill="midnightblue" stroke="midnightblue" points="222.98,-73.97 230.99,-67.04 220.4,-67.46 222.98,-73.97"/>
</g>
<!-- Node18 -->
<g id="node18" class="node">
<title>Node18</title>
<g id="a_node18"><a xlink:href="classcore_1_1_event_receiver.html#a0f7505e88a5c4275601cc558459df9d5" target="_top" xlink:title=" ">
<polygon fill="white" stroke="black" points="393,-77 393,-107 507,-107 507,-77 393,-77"/>
<text text-anchor="start" x="401" y="-95" font-family="Helvetica,sans-Serif" font-size="10.00">core::EventReceiver</text>
<text text-anchor="middle" x="450" y="-84" font-family="Helvetica,sans-Serif" font-size="10.00">::resume</text>
</a>
</g>
</g>
<!-- Node1&#45;&gt;Node18 -->
<g id="edge22" class="edge">
<title>Node1&#45;&gt;Node18</title>
<path fill="none" stroke="midnightblue" d="M177.44,-115.42C240.78,-109.95 324.91,-102.7 382.65,-97.72"/>
<polygon fill="midnightblue" stroke="midnightblue" points="383.09,-101.2 392.76,-96.85 382.49,-94.22 383.09,-101.2"/>
</g>
<!-- Node3 -->
<g id="node3" class="node">
<title>Node3</title>
<g id="a_node3"><a xlink:href="classcore_1_1_descriptor_event_dispatcher.html#a53fb2e428ca488b82ed90521385a4ec1" target="_top" xlink:title=" ">
<polygon fill="white" stroke="black" points="363,-224 363,-254 537,-254 537,-224 363,-224"/>
<text text-anchor="start" x="371" y="-242" font-family="Helvetica,sans-Serif" font-size="10.00">core::DescriptorEventDispatcher</text>
<text text-anchor="middle" x="450" y="-231" font-family="Helvetica,sans-Serif" font-size="10.00">::disable</text>
</a>
</g>
</g>
<!-- Node2&#45;&gt;Node3 -->
<g id="edge2" class="edge">
<title>Node2&#45;&gt;Node3</title>
<path fill="none" stroke="midnightblue" d="M327.32,-221.91C335.45,-223.05 343.99,-224.25 352.64,-225.47"/>
<polygon fill="midnightblue" stroke="midnightblue" points="352.41,-228.97 362.8,-226.89 353.39,-222.04 352.41,-228.97"/>
</g>
<!-- Node9 -->
<g id="node9" class="node">
<title>Node9</title>
<g id="a_node9"><a xlink:href="classcore_1_1_event_receiver.html#a3c6fec4001aa28b328c23573c70ad159" target="_top" xlink:title=" ">
<polygon fill="white" stroke="black" points="813,-239 813,-269 927,-269 927,-239 813,-239"/>
<text text-anchor="start" x="821" y="-257" font-family="Helvetica,sans-Serif" font-size="10.00">core::EventReceiver</text>
<text text-anchor="middle" x="870" y="-246" font-family="Helvetica,sans-Serif" font-size="10.00">::isSuspended</text>
</a>
</g>
</g>
<!-- Node2&#45;&gt;Node9 -->
<g id="edge8" class="edge">
<title>Node2&#45;&gt;Node9</title>
<path fill="none" stroke="midnightblue" d="M293.97,-229.14C342.8,-260.25 461.57,-330.36 573,-353 648.79,-368.4 677.12,-386.12 747,-353 769.83,-342.18 764.12,-325.79 783,-309 797.72,-295.9 815.88,-283.81 831.71,-274.32"/>
<polygon fill="midnightblue" stroke="midnightblue" points="833.86,-277.11 840.72,-269.04 830.32,-271.07 833.86,-277.11"/>
</g>
<!-- Node2&#45;&gt;Node10 -->
<g id="edge9" class="edge">
<title>Node2&#45;&gt;Node10</title>
<path fill="none" stroke="midnightblue" d="M327.32,-206.41C344.94,-204.03 364.54,-201.39 382.77,-198.93"/>
<polygon fill="midnightblue" stroke="midnightblue" points="383.3,-202.39 392.74,-197.59 382.36,-195.45 383.3,-202.39"/>
</g>
<!-- Node4 -->
<g id="node4" class="node">
<title>Node4</title>
<g id="a_node4"><a xlink:href="classcore_1_1_event_receiver.html#a0eb8167b9b7598025fbe793edc09886a" target="_top" xlink:title=" ">
<polygon fill="white" stroke="black" points="603,-313 603,-343 717,-343 717,-313 603,-313"/>
<text text-anchor="start" x="611" y="-331" font-family="Helvetica,sans-Serif" font-size="10.00">core::EventReceiver</text>
<text text-anchor="middle" x="660" y="-320" font-family="Helvetica,sans-Serif" font-size="10.00">::disabled</text>
</a>
</g>
</g>
<!-- Node3&#45;&gt;Node4 -->
<g id="edge3" class="edge">
<title>Node3&#45;&gt;Node4</title>
<path fill="none" stroke="midnightblue" d="M475.47,-254.09C499.58,-268.45 537.8,-289.91 573,-304 579.38,-306.55 586.13,-308.94 592.93,-311.15"/>
<polygon fill="midnightblue" stroke="midnightblue" points="592.31,-314.62 602.9,-314.25 594.39,-307.94 592.31,-314.62"/>
</g>
<!-- Node6 -->
<g id="node6" class="node">
<title>Node6</title>
<g id="a_node6"><a xlink:href="classcore_1_1_observer.html#a942a6bb4857e6ec986d0a366b2aaea26" target="_top" xlink:title=" ">
<polygon fill="white" stroke="black" points="575.5,-264 575.5,-294 744.5,-294 744.5,-264 575.5,-264"/>
<text text-anchor="start" x="583.5" y="-282" font-family="Helvetica,sans-Serif" font-size="10.00">core::Observer::getObservation</text>
<text text-anchor="middle" x="660" y="-271" font-family="Helvetica,sans-Serif" font-size="10.00">Counter</text>
</a>
</g>
</g>
<!-- Node3&#45;&gt;Node6 -->
<g id="edge5" class="edge">
<title>Node3&#45;&gt;Node6</title>
<path fill="none" stroke="midnightblue" d="M529.04,-254.01C542.68,-256.63 556.95,-259.38 570.84,-262.05"/>
<polygon fill="midnightblue" stroke="midnightblue" points="570.38,-265.52 580.87,-263.97 571.71,-258.65 570.38,-265.52"/>
</g>
<!-- Node7 -->
<g id="node7" class="node">
<title>Node7</title>
<g id="a_node7"><a xlink:href="classcore_1_1_event_receiver.html#a945c04c8e000b708049e9422960e9739" target="_top" xlink:title=" ">
<polygon fill="white" stroke="black" points="813,-127 813,-157 927,-157 927,-127 813,-127"/>
<text text-anchor="start" x="821" y="-145" font-family="Helvetica,sans-Serif" font-size="10.00">core::EventReceiver</text>
<text text-anchor="middle" x="870" y="-134" font-family="Helvetica,sans-Serif" font-size="10.00">::getRegisteredFd</text>
</a>
</g>
</g>
<!-- Node3&#45;&gt;Node7 -->
<g id="edge6" class="edge">
<title>Node3&#45;&gt;Node7</title>
<path fill="none" stroke="midnightblue" d="M504.29,-223.95C525.6,-218.1 550.4,-211.5 573,-206 615.82,-195.59 729.46,-171.37 802.83,-155.9"/>
<polygon fill="midnightblue" stroke="midnightblue" points="803.84,-159.26 812.9,-153.77 802.39,-152.41 803.84,-159.26"/>
</g>
<!-- Node8 -->
<g id="node8" class="node">
<title>Node8</title>
<g id="a_node8"><a xlink:href="classcore_1_1_event_receiver.html#a677995a821e9226e5dcbf92182884477" target="_top" xlink:title=" ">
<polygon fill="white" stroke="black" points="603,-127 603,-157 717,-157 717,-127 603,-127"/>
<text text-anchor="start" x="611" y="-145" font-family="Helvetica,sans-Serif" font-size="10.00">core::EventReceiver</text>
<text text-anchor="middle" x="660" y="-134" font-family="Helvetica,sans-Serif" font-size="10.00">::isEnabled</text>
</a>
</g>
</g>
<!-- Node3&#45;&gt;Node8 -->
<g id="edge7" class="edge">
<title>Node3&#45;&gt;Node8</title>
<path fill="none" stroke="midnightblue" d="M519.79,-223.94C525.82,-221.4 531.66,-218.45 537,-215 557.94,-201.49 552.5,-186.17 573,-172 579.17,-167.74 586.01,-164.02 593.05,-160.8"/>
<polygon fill="midnightblue" stroke="midnightblue" points="594.89,-163.82 602.74,-156.71 592.17,-157.37 594.89,-163.82"/>
</g>
<!-- Node5 -->
<g id="node5" class="node">
<title>Node5</title>
<g id="a_node5"><a xlink:href="classcore_1_1_observer.html#a00846551b99f8dbde144dd8b7a0a2aef" target="_top" xlink:title=" ">
<polygon fill="white" stroke="black" points="794,-318.5 794,-337.5 946,-337.5 946,-318.5 794,-318.5"/>
<text text-anchor="middle" x="870" y="-325.5" font-family="Helvetica,sans-Serif" font-size="10.00">core::Observer::unObserved</text>
</a>
</g>
</g>
<!-- Node4&#45;&gt;Node5 -->
<g id="edge4" class="edge">
<title>Node4&#45;&gt;Node5</title>
<path fill="none" stroke="midnightblue" d="M717.01,-328C737.47,-328 761.09,-328 783.52,-328"/>
<polygon fill="midnightblue" stroke="midnightblue" points="783.73,-331.5 793.73,-328 783.73,-324.5 783.73,-331.5"/>
</g>
<!-- Node10&#45;&gt;Node8 -->
<g id="edge10" class="edge">
<title>Node10&#45;&gt;Node8</title>
<path fill="none" stroke="midnightblue" d="M507.01,-177.07C533.48,-170.97 565.26,-163.63 592.91,-157.25"/>
<polygon fill="midnightblue" stroke="midnightblue" points="593.93,-160.61 602.89,-154.95 592.36,-153.79 593.93,-160.61"/>
</g>
<!-- Node11 -->
<g id="node11" class="node">
<title>Node11</title>
<g id="a_node11"><a xlink:href="classcore_1_1_descriptor_event_dispatcher.html#aaebce3510314723cb81ae2d51f1ddaf0" target="_top" xlink:title=" ">
<polygon fill="white" stroke="black" points="573,-215 573,-245 747,-245 747,-215 573,-215"/>
<text text-anchor="start" x="581" y="-233" font-family="Helvetica,sans-Serif" font-size="10.00">core::DescriptorEventDispatcher</text>
<text text-anchor="middle" x="660" y="-222" font-family="Helvetica,sans-Serif" font-size="10.00">::suspend</text>
</a>
</g>
</g>
<!-- Node10&#45;&gt;Node11 -->
<g id="edge11" class="edge">
<title>Node10&#45;&gt;Node11</title>
<path fill="none" stroke="midnightblue" d="M507.01,-200.77C526.63,-204.54 549.16,-208.88 570.77,-213.03"/>
<polygon fill="midnightblue" stroke="midnightblue" points="570.14,-216.47 580.62,-214.93 571.46,-209.6 570.14,-216.47"/>
</g>
<!-- Node11&#45;&gt;Node7 -->
<g id="edge12" class="edge">
<title>Node11&#45;&gt;Node7</title>
<path fill="none" stroke="midnightblue" d="M708.36,-214.91C721.06,-210.48 734.68,-205.37 747,-200 763.59,-192.78 766.75,-188.96 783,-181 796.64,-174.32 811.66,-167.37 825.29,-161.21"/>
<polygon fill="midnightblue" stroke="midnightblue" points="826.77,-164.38 834.46,-157.09 823.91,-158 826.77,-164.38"/>
</g>
<!-- Node11&#45;&gt;Node9 -->
<g id="edge13" class="edge">
<title>Node11&#45;&gt;Node9</title>
<path fill="none" stroke="midnightblue" d="M747.1,-239.93C765.69,-242.08 785.07,-244.32 802.76,-246.36"/>
<polygon fill="midnightblue" stroke="midnightblue" points="802.63,-249.87 812.97,-247.53 803.43,-242.91 802.63,-249.87"/>
</g>
<!-- Node12 -->
<g id="node12" class="node">
<title>Node12</title>
<g id="a_node12"><a xlink:href="classcore_1_1_descriptor_event_dispatcher.html#adea584c2b0119033735c5013f4a0b424" target="_top" xlink:title=" ">
<polygon fill="white" stroke="black" points="783,-190 783,-220 957,-220 957,-190 783,-190"/>
<text text-anchor="start" x="791" y="-208" font-family="Helvetica,sans-Serif" font-size="10.00">core::DescriptorEventDispatcher</text>
<text text-anchor="middle" x="870" y="-197" font-family="Helvetica,sans-Serif" font-size="10.00">::modOff</text>
</a>
</g>
</g>
<!-- Node11&#45;&gt;Node12 -->
<g id="edge14" class="edge">
<title>Node11&#45;&gt;Node12</title>
<path fill="none" stroke="midnightblue" d="M747.1,-219.65C755.62,-218.63 764.3,-217.58 772.91,-216.55"/>
<polygon fill="midnightblue" stroke="midnightblue" points="773.45,-220.01 782.96,-215.34 772.62,-213.06 773.45,-220.01"/>
</g>
<!-- Node14 -->
<g id="node14" class="node">
<title>Node14</title>
<g id="a_node14"><a xlink:href="classutils_1_1_timeval.html#a54b232dc1ffeea007100dcd1caad1987" target="_top" xlink:title=" ">
<polygon fill="white" stroke="black" points="586.5,-0.5 586.5,-19.5 733.5,-19.5 733.5,-0.5 586.5,-0.5"/>
<text text-anchor="middle" x="660" y="-7.5" font-family="Helvetica,sans-Serif" font-size="10.00">utils::Timeval::currentTime</text>
</a>
</g>
</g>
<!-- Node13&#45;&gt;Node14 -->
<g id="edge16" class="edge">
<title>Node13&#45;&gt;Node14</title>
<path fill="none" stroke="midnightblue" d="M324.18,-36.97C336.81,-33.88 350.31,-30.98 363,-29 434.43,-17.87 516.52,-13.24 576.11,-11.32"/>
<polygon fill="midnightblue" stroke="midnightblue" points="576.33,-14.81 586.22,-11.01 576.12,-7.82 576.33,-14.81"/>
</g>
<!-- Node16 -->
<g id="node16" class="node">
<title>Node16</title>
<g id="a_node16"><a xlink:href="classcore_1_1_descriptor_event_dispatcher.html#aeb068dfbe3beb3fca03f7fe45cd5ae5b" target="_top" xlink:title=" ">
<polygon fill="white" stroke="black" points="363,-126 363,-156 537,-156 537,-126 363,-126"/>
<text text-anchor="start" x="371" y="-144" font-family="Helvetica,sans-Serif" font-size="10.00">core::DescriptorEventDispatcher</text>
<text text-anchor="middle" x="450" y="-133" font-family="Helvetica,sans-Serif" font-size="10.00">::enable</text>
</a>
</g>
</g>
<!-- Node13&#45;&gt;Node16 -->
<g id="edge18" class="edge">
<title>Node13&#45;&gt;Node16</title>
<path fill="none" stroke="midnightblue" d="M288.52,-67.18C306.23,-81.81 334.91,-103.65 363,-117 367.05,-118.92 371.28,-120.72 375.6,-122.39"/>
<polygon fill="midnightblue" stroke="midnightblue" points="374.56,-125.74 385.16,-125.85 376.95,-119.16 374.56,-125.74"/>
</g>
<!-- Node17 -->
<g id="node17" class="node">
<title>Node17</title>
<g id="a_node17"><a xlink:href="classcore_1_1_observer.html#aeff595f74f25efea85406cf700e13550" target="_top" xlink:title=" ">
<polygon fill="white" stroke="black" points="380.5,-38.5 380.5,-57.5 519.5,-57.5 519.5,-38.5 380.5,-38.5"/>
<text text-anchor="middle" x="450" y="-45.5" font-family="Helvetica,sans-Serif" font-size="10.00">core::Observer::observed</text>
</a>
</g>
</g>
<!-- Node13&#45;&gt;Node17 -->
<g id="edge21" class="edge">
<title>Node13&#45;&gt;Node17</title>
<path fill="none" stroke="midnightblue" d="M327.32,-50.73C340.84,-50.43 355.54,-50.1 369.88,-49.78"/>
<polygon fill="midnightblue" stroke="midnightblue" points="370.33,-53.27 380.24,-49.55 370.17,-46.27 370.33,-53.27"/>
</g>
<!-- Node15 -->
<g id="node15" class="node">
<title>Node15</title>
<g id="a_node15"><a xlink:href="namespacecore_1_1system.html#acf9e7364dbf51f07083e05caa50d3b66" target="_top" xlink:title=" ">
<polygon fill="white" stroke="black" points="794,-0.5 794,-19.5 946,-19.5 946,-0.5 794,-0.5"/>
<text text-anchor="middle" x="870" y="-7.5" font-family="Helvetica,sans-Serif" font-size="10.00">core::system::gettimeofday</text>
</a>
</g>
</g>
<!-- Node14&#45;&gt;Node15 -->
<g id="edge17" class="edge">
<title>Node14&#45;&gt;Node15</title>
<path fill="none" stroke="midnightblue" d="M733.75,-10C749.85,-10 767.06,-10 783.62,-10"/>
<polygon fill="midnightblue" stroke="midnightblue" points="783.82,-13.5 793.82,-10 783.82,-6.5 783.82,-13.5"/>
</g>
<!-- Node16&#45;&gt;Node7 -->
<g id="edge19" class="edge">
<title>Node16&#45;&gt;Node7</title>
<path fill="none" stroke="midnightblue" d="M518.44,-125.97C536.1,-122.67 555.19,-119.66 573,-118 650,-110.81 670.03,-110.5 747,-118 765.31,-119.78 784.95,-123.04 803,-126.59"/>
<polygon fill="midnightblue" stroke="midnightblue" points="802.35,-130.03 812.85,-128.58 803.74,-123.17 802.35,-130.03"/>
</g>
<!-- Node16&#45;&gt;Node8 -->
<g id="edge20" class="edge">
<title>Node16&#45;&gt;Node8</title>
<path fill="none" stroke="midnightblue" d="M537.1,-141.41C555.69,-141.5 575.07,-141.6 592.76,-141.68"/>
<polygon fill="midnightblue" stroke="midnightblue" points="592.95,-145.18 602.97,-141.73 592.98,-138.18 592.95,-145.18"/>
</g>
<!-- Node18&#45;&gt;Node8 -->
<g id="edge24" class="edge">
<title>Node18&#45;&gt;Node8</title>
<path fill="none" stroke="midnightblue" d="M507.01,-105.46C533.48,-111.83 565.26,-119.47 592.91,-126.11"/>
<polygon fill="midnightblue" stroke="midnightblue" points="592.35,-129.58 602.89,-128.51 593.98,-122.77 592.35,-129.58"/>
</g>
<!-- Node18&#45;&gt;Node14 -->
<g id="edge23" class="edge">
<title>Node18&#45;&gt;Node14</title>
<path fill="none" stroke="midnightblue" d="M507.42,-80.26C517.67,-76.85 527.97,-72.51 537,-67 556.86,-54.89 552.75,-40.46 573,-29 577,-26.74 581.25,-24.74 585.63,-22.99"/>
<polygon fill="midnightblue" stroke="midnightblue" points="587.14,-26.16 595.39,-19.51 584.79,-19.57 587.14,-26.16"/>
</g>
<!-- Node19 -->
<g id="node19" class="node">
<title>Node19</title>
<g id="a_node19"><a xlink:href="classcore_1_1_descriptor_event_dispatcher.html#a75a426b93a1ef2348e452159c89bfc9f" target="_top" xlink:title=" ">
<polygon fill="white" stroke="black" points="573,-39 573,-69 747,-69 747,-39 573,-39"/>
<text text-anchor="start" x="581" y="-57" font-family="Helvetica,sans-Serif" font-size="10.00">core::DescriptorEventDispatcher</text>
<text text-anchor="middle" x="660" y="-46" font-family="Helvetica,sans-Serif" font-size="10.00">::resume</text>
</a>
</g>
</g>
<!-- Node18&#45;&gt;Node19 -->
<g id="edge25" class="edge">
<title>Node18&#45;&gt;Node19</title>
<path fill="none" stroke="midnightblue" d="M507.01,-81.77C525.42,-78.4 546.39,-74.57 566.76,-70.85"/>
<polygon fill="midnightblue" stroke="midnightblue" points="567.49,-74.28 576.69,-69.04 566.23,-67.39 567.49,-74.28"/>
</g>
<!-- Node19&#45;&gt;Node7 -->
<g id="edge26" class="edge">
<title>Node19&#45;&gt;Node7</title>
<path fill="none" stroke="midnightblue" d="M707.32,-69.13C720.27,-73.63 734.27,-78.77 747,-84 775.34,-95.64 806.54,-110.51 830.28,-122.28"/>
<polygon fill="midnightblue" stroke="midnightblue" points="828.81,-125.45 839.32,-126.78 831.94,-119.19 828.81,-125.45"/>
</g>
<!-- Node19&#45;&gt;Node9 -->
<g id="edge27" class="edge">
<title>Node19&#45;&gt;Node9</title>
<path fill="none" stroke="midnightblue" d="M689.86,-69.19C708.58,-80.39 732.16,-97.26 747,-118 777.42,-160.52 745.32,-193.75 783,-230 788.81,-235.59 795.82,-239.9 803.28,-243.22"/>
<polygon fill="midnightblue" stroke="midnightblue" points="802.35,-246.61 812.94,-246.91 804.85,-240.07 802.35,-246.61"/>
</g>
<!-- Node20 -->
<g id="node20" class="node">
<title>Node20</title>
<g id="a_node20"><a xlink:href="classcore_1_1_descriptor_event_dispatcher.html#a830cd698abb070a4c7f5948d8c03f527" target="_top" xlink:title=" ">
<polygon fill="white" stroke="black" points="783,-39 783,-69 957,-69 957,-39 783,-39"/>
<text text-anchor="start" x="791" y="-57" font-family="Helvetica,sans-Serif" font-size="10.00">core::DescriptorEventDispatcher</text>
<text text-anchor="middle" x="870" y="-46" font-family="Helvetica,sans-Serif" font-size="10.00">::modOn</text>
</a>
</g>
</g>
<!-- Node19&#45;&gt;Node20 -->
<g id="edge28" class="edge">
<title>Node19&#45;&gt;Node20</title>
<path fill="none" stroke="midnightblue" d="M747.1,-54C755.62,-54 764.3,-54 772.91,-54"/>
<polygon fill="midnightblue" stroke="midnightblue" points="772.96,-57.5 782.96,-54 772.96,-50.5 772.96,-57.5"/>
</g>
</g>
</svg>
