<?xml version="1.0" encoding="UTF-8" standalone="no"?>
<!DOCTYPE svg PUBLIC "-//W3C//DTD SVG 1.1//EN"
 "http://www.w3.org/Graphics/SVG/1.1/DTD/svg11.dtd">
<!-- Generated by graphviz version 2.43.0 (0)
 -->
<!-- Title: core::TimerEventDispatcher::stop Pages: 1 -->
<svg width="536pt" height="127pt"
 viewBox="0.00 0.00 536.00 126.50" xmlns="http://www.w3.org/2000/svg" xmlns:xlink="http://www.w3.org/1999/xlink">
<g id="graph0" class="graph" transform="scale(1 1) rotate(0) translate(4 122.5)">
<title>core::TimerEventDispatcher::stop</title>
<polygon fill="white" stroke="transparent" points="-4,4 -4,-122.5 532,-122.5 532,4 -4,4"/>
<!-- Node1 -->
<g id="node1" class="node">
<title>Node1</title>
<g id="a_node1"><a xlink:title=" ">
<polygon fill="#bfbfbf" stroke="black" points="0,-49.5 0,-79.5 152,-79.5 152,-49.5 0,-49.5"/>
<text text-anchor="start" x="8" y="-67.5" font-family="Helvetica,sans-Serif" font-size="10.00">core::TimerEventDispatcher</text>
<text text-anchor="middle" x="76" y="-56.5" font-family="Helvetica,sans-Serif" font-size="10.00">::stop</text>
</a>
</g>
</g>
<!-- Node2 -->
<g id="node2" class="node">
<title>Node2</title>
<g id="a_node2"><a xlink:href="classutils_1_1_timeval.html#a54b232dc1ffeea007100dcd1caad1987" target="_top" xlink:title=" ">
<polygon fill="white" stroke="black" points="190.5,-99 190.5,-118 337.5,-118 337.5,-99 190.5,-99"/>
<text text-anchor="middle" x="264" y="-106" font-family="Helvetica,sans-Serif" font-size="10.00">utils::Timeval::currentTime</text>
</a>
</g>
</g>
<!-- Node1&#45;&gt;Node2 -->
<g id="edge1" class="edge">
<title>Node1&#45;&gt;Node2</title>
<path fill="none" stroke="midnightblue" d="M140.49,-79.52C164.13,-85.11 190.6,-91.37 212.88,-96.64"/>
<polygon fill="midnightblue" stroke="midnightblue" points="212.25,-100.09 222.79,-98.99 213.86,-93.28 212.25,-100.09"/>
</g>
<!-- Node4 -->
<g id="node4" class="node">
<title>Node4</title>
<g id="a_node4"><a xlink:href="classcore_1_1_timer_event_dispatcher.html#a1a0a3e8a85f873c37bb0f38dd49b4cda" target="_top" xlink:title=" ">
<polygon fill="white" stroke="black" points="188,-49.5 188,-79.5 340,-79.5 340,-49.5 188,-49.5"/>
<text text-anchor="start" x="196" y="-67.5" font-family="Helvetica,sans-Serif" font-size="10.00">core::TimerEventDispatcher</text>
<text text-anchor="middle" x="264" y="-56.5" font-family="Helvetica,sans-Serif" font-size="10.00">::getNextTimeout</text>
</a>
</g>
</g>
<!-- Node1&#45;&gt;Node4 -->
<g id="edge3" class="edge">
<title>Node1&#45;&gt;Node4</title>
<path fill="none" stroke="midnightblue" d="M152.12,-64.5C160.6,-64.5 169.28,-64.5 177.87,-64.5"/>
<polygon fill="midnightblue" stroke="midnightblue" points="177.9,-68 187.9,-64.5 177.9,-61 177.9,-68"/>
</g>
<!-- Node5 -->
<g id="node5" class="node">
<title>Node5</title>
<g id="a_node5"><a xlink:href="classcore_1_1_timer_event_dispatcher.html#ab0b7b0911ba9e7f5e17464e6419595cb" target="_top" xlink:title=" ">
<polygon fill="white" stroke="black" points="188,-0.5 188,-30.5 340,-30.5 340,-0.5 188,-0.5"/>
<text text-anchor="start" x="196" y="-18.5" font-family="Helvetica,sans-Serif" font-size="10.00">core::TimerEventDispatcher</text>
<text text-anchor="middle" x="264" y="-7.5" font-family="Helvetica,sans-Serif" font-size="10.00">::remove</text>
</a>
</g>
</g>
<!-- Node1&#45;&gt;Node5 -->
<g id="edge4" class="edge">
<title>Node1&#45;&gt;Node5</title>
<path fill="none" stroke="midnightblue" d="M134.07,-49.47C153.71,-44.29 175.87,-38.45 196.22,-33.09"/>
<polygon fill="midnightblue" stroke="midnightblue" points="197.26,-36.44 206.04,-30.51 195.48,-29.67 197.26,-36.44"/>
</g>
<!-- Node3 -->
<g id="node3" class="node">
<title>Node3</title>
<g id="a_node3"><a xlink:href="namespacecore_1_1system.html#acf9e7364dbf51f07083e05caa50d3b66" target="_top" xlink:title=" ">
<polygon fill="white" stroke="black" points="376,-99 376,-118 528,-118 528,-99 376,-99"/>
<text text-anchor="middle" x="452" y="-106" font-family="Helvetica,sans-Serif" font-size="10.00">core::system::gettimeofday</text>
</a>
</g>
</g>
<!-- Node2&#45;&gt;Node3 -->
<g id="edge2" class="edge">
<title>Node2&#45;&gt;Node3</title>
<path fill="none" stroke="midnightblue" d="M337.71,-108.5C346.92,-108.5 356.4,-108.5 365.77,-108.5"/>
<polygon fill="midnightblue" stroke="midnightblue" points="365.89,-112 375.89,-108.5 365.89,-105 365.89,-112"/>
</g>
</g>
</svg>
