<?xml version="1.0" encoding="UTF-8" standalone="no"?>
<!DOCTYPE svg PUBLIC "-//W3C//DTD SVG 1.1//EN"
 "http://www.w3.org/Graphics/SVG/1.1/DTD/svg11.dtd">
<!-- Generated by graphviz version 2.43.0 (0)
 -->
<!-- Title: core::socket::stream::tls::SocketWriter&lt; SocketT &gt; Pages: 1 -->
<svg width="222pt" height="1003pt"
 viewBox="0.00 0.00 222.00 1003.00" xmlns="http://www.w3.org/2000/svg" xmlns:xlink="http://www.w3.org/1999/xlink">
<g id="graph0" class="graph" transform="scale(1 1) rotate(0) translate(4 999)">
<title>core::socket::stream::tls::SocketWriter&lt; SocketT &gt;</title>
<polygon fill="white" stroke="transparent" points="-4,4 -4,-999 218,-999 218,4 -4,4"/>
<!-- Node1 -->
<g id="node1" class="node">
<title>Node1</title>
<g id="a_node1"><a xlink:title=" ">
<polygon fill="#bfbfbf" stroke="black" points="74.5,-0.5 74.5,-134.5 184.5,-134.5 184.5,-0.5 74.5,-0.5"/>
<text text-anchor="start" x="82.5" y="-122.5" font-family="Helvetica,sans-Serif" font-size="10.00">core::socket::stream</text>
<text text-anchor="start" x="82.5" y="-111.5" font-family="Helvetica,sans-Serif" font-size="10.00">::tls::SocketWriter&lt;</text>
<text text-anchor="middle" x="129.5" y="-100.5" font-family="Helvetica,sans-Serif" font-size="10.00"> SocketT &gt;</text>
<polyline fill="none" stroke="black" points="74.5,-93.5 184.5,-93.5 "/>
<text text-anchor="start" x="82.5" y="-81.5" font-family="Helvetica,sans-Serif" font-size="10.00"># ssl</text>
<text text-anchor="start" x="82.5" y="-70.5" font-family="Helvetica,sans-Serif" font-size="10.00"># sslErr</text>
<polyline fill="none" stroke="black" points="74.5,-63.5 184.5,-63.5 "/>
<text text-anchor="start" x="82.5" y="-51.5" font-family="Helvetica,sans-Serif" font-size="10.00"># doSSLHandshake()</text>
<text text-anchor="start" x="82.5" y="-40.5" font-family="Helvetica,sans-Serif" font-size="10.00"># setSSLError()</text>
<text text-anchor="start" x="82.5" y="-29.5" font-family="Helvetica,sans-Serif" font-size="10.00">&#45; doShutdown()</text>
<text text-anchor="start" x="82.5" y="-18.5" font-family="Helvetica,sans-Serif" font-size="10.00">&#45; write()</text>
<text text-anchor="start" x="82.5" y="-7.5" font-family="Helvetica,sans-Serif" font-size="10.00">&#45; getError()</text>
</a>
</g>
</g>
<!-- Node2 -->
<g id="node2" class="node">
<title>Node2</title>
<g id="a_node2"><a xlink:href="classcore_1_1socket_1_1stream_1_1_socket_writer.html" target="_top" xlink:title=" ">
<polygon fill="white" stroke="black" points="62.5,-171.5 62.5,-349.5 196.5,-349.5 196.5,-171.5 62.5,-171.5"/>
<text text-anchor="start" x="70.5" y="-337.5" font-family="Helvetica,sans-Serif" font-size="10.00">core::socket::stream</text>
<text text-anchor="middle" x="129.5" y="-326.5" font-family="Helvetica,sans-Serif" font-size="10.00">::SocketWriter&lt; SocketT &gt;</text>
<polyline fill="none" stroke="black" points="62.5,-319.5 196.5,-319.5 "/>
<text text-anchor="start" x="70.5" y="-307.5" font-family="Helvetica,sans-Serif" font-size="10.00">&#45; onError</text>
<text text-anchor="start" x="70.5" y="-296.5" font-family="Helvetica,sans-Serif" font-size="10.00">&#45; writeBuffer</text>
<text text-anchor="start" x="70.5" y="-285.5" font-family="Helvetica,sans-Serif" font-size="10.00">&#45; markShutdown</text>
<polyline fill="none" stroke="black" points="62.5,-278.5 196.5,-278.5 "/>
<text text-anchor="start" x="70.5" y="-266.5" font-family="Helvetica,sans-Serif" font-size="10.00"># SocketWriter()</text>
<text text-anchor="start" x="70.5" y="-255.5" font-family="Helvetica,sans-Serif" font-size="10.00"># ~SocketWriter()</text>
<text text-anchor="start" x="70.5" y="-244.5" font-family="Helvetica,sans-Serif" font-size="10.00"># sendToPeer()</text>
<text text-anchor="start" x="70.5" y="-233.5" font-family="Helvetica,sans-Serif" font-size="10.00"># doShutdown()</text>
<text text-anchor="start" x="70.5" y="-222.5" font-family="Helvetica,sans-Serif" font-size="10.00"># shutdown()</text>
<text text-anchor="start" x="70.5" y="-211.5" font-family="Helvetica,sans-Serif" font-size="10.00"># doWrite()</text>
<text text-anchor="start" x="70.5" y="-200.5" font-family="Helvetica,sans-Serif" font-size="10.00">&#45; SocketWriter()</text>
<text text-anchor="start" x="70.5" y="-189.5" font-family="Helvetica,sans-Serif" font-size="10.00">&#45; write()</text>
<text text-anchor="start" x="70.5" y="-178.5" font-family="Helvetica,sans-Serif" font-size="10.00">&#45; getError()</text>
</a>
</g>
</g>
<!-- Node2&#45;&gt;Node1 -->
<g id="edge1" class="edge">
<title>Node2&#45;&gt;Node1</title>
<path fill="none" stroke="midnightblue" d="M129.5,-161.15C129.5,-152.18 129.5,-143.24 129.5,-134.66"/>
<polygon fill="none" stroke="midnightblue" points="126,-161.27 129.5,-171.27 133,-161.27 126,-161.27"/>
</g>
<!-- Node3 -->
<g id="node3" class="node">
<title>Node3</title>
<g id="a_node3"><a xlink:href="classcore_1_1_write_event_receiver.html" target="_top" xlink:title=" ">
<polygon fill="white" stroke="black" points="0,-386.5 0,-509.5 143,-509.5 143,-386.5 0,-386.5"/>
<text text-anchor="middle" x="71.5" y="-497.5" font-family="Helvetica,sans-Serif" font-size="10.00">core::WriteEventReceiver</text>
<polyline fill="none" stroke="black" points="0,-490.5 143,-490.5 "/>
<text text-anchor="middle" x="71.5" y="-478.5" font-family="Helvetica,sans-Serif" font-size="10.00"> </text>
<polyline fill="none" stroke="black" points="0,-471.5 143,-471.5 "/>
<text text-anchor="start" x="8" y="-459.5" font-family="Helvetica,sans-Serif" font-size="10.00"># WriteEventReceiver()</text>
<text text-anchor="start" x="8" y="-448.5" font-family="Helvetica,sans-Serif" font-size="10.00"># continueWriteImmediately()</text>
<text text-anchor="start" x="8" y="-437.5" font-family="Helvetica,sans-Serif" font-size="10.00">&#45; writeEvent()</text>
<text text-anchor="start" x="8" y="-426.5" font-family="Helvetica,sans-Serif" font-size="10.00">&#45; writeTimeout()</text>
<text text-anchor="start" x="8" y="-415.5" font-family="Helvetica,sans-Serif" font-size="10.00">&#45; dispatchEvent()</text>
<text text-anchor="start" x="8" y="-404.5" font-family="Helvetica,sans-Serif" font-size="10.00">&#45; timeoutEvent()</text>
<text text-anchor="start" x="8" y="-393.5" font-family="Helvetica,sans-Serif" font-size="10.00">&#45; continueImmediately()</text>
</a>
</g>
</g>
<!-- Node3&#45;&gt;Node2 -->
<g id="edge2" class="edge">
<title>Node3&#45;&gt;Node2</title>
<path fill="none" stroke="midnightblue" d="M93.55,-376.48C96.29,-367.7 99.13,-358.64 101.95,-349.63"/>
<polygon fill="none" stroke="midnightblue" points="90.14,-375.67 90.49,-386.26 96.82,-377.76 90.14,-375.67"/>
</g>
<!-- Node4 -->
<g id="node4" class="node">
<title>Node4</title>
<g id="a_node4"><a xlink:href="classcore_1_1_event_receiver.html" target="_top" xlink:title=" ">
<polygon fill="white" stroke="black" points="2.5,-546.5 2.5,-889.5 140.5,-889.5 140.5,-546.5 2.5,-546.5"/>
<text text-anchor="middle" x="71.5" y="-877.5" font-family="Helvetica,sans-Serif" font-size="10.00">core::EventReceiver</text>
<polyline fill="none" stroke="black" points="2.5,-870.5 140.5,-870.5 "/>
<text text-anchor="start" x="10.5" y="-858.5" font-family="Helvetica,sans-Serif" font-size="10.00">&#45; descriptorEventDispatcher</text>
<text text-anchor="start" x="10.5" y="-847.5" font-family="Helvetica,sans-Serif" font-size="10.00">&#45; fd</text>
<text text-anchor="start" x="10.5" y="-836.5" font-family="Helvetica,sans-Serif" font-size="10.00">&#45; _enabled</text>
<text text-anchor="start" x="10.5" y="-825.5" font-family="Helvetica,sans-Serif" font-size="10.00">&#45; _suspended</text>
<text text-anchor="start" x="10.5" y="-814.5" font-family="Helvetica,sans-Serif" font-size="10.00">&#45; maxInactivity</text>
<text text-anchor="start" x="10.5" y="-803.5" font-family="Helvetica,sans-Serif" font-size="10.00">&#45; initialTimeout</text>
<polyline fill="none" stroke="black" points="2.5,-796.5 140.5,-796.5 "/>
<text text-anchor="start" x="10.5" y="-784.5" font-family="Helvetica,sans-Serif" font-size="10.00">+ enable()</text>
<text text-anchor="start" x="10.5" y="-773.5" font-family="Helvetica,sans-Serif" font-size="10.00">+ disable()</text>
<text text-anchor="start" x="10.5" y="-762.5" font-family="Helvetica,sans-Serif" font-size="10.00">+ suspend()</text>
<text text-anchor="start" x="10.5" y="-751.5" font-family="Helvetica,sans-Serif" font-size="10.00">+ resume()</text>
<text text-anchor="start" x="10.5" y="-740.5" font-family="Helvetica,sans-Serif" font-size="10.00"># EventReceiver()</text>
<text text-anchor="start" x="10.5" y="-729.5" font-family="Helvetica,sans-Serif" font-size="10.00"># ~EventReceiver()</text>
<text text-anchor="start" x="10.5" y="-718.5" font-family="Helvetica,sans-Serif" font-size="10.00"># setTimeout()</text>
<text text-anchor="start" x="10.5" y="-707.5" font-family="Helvetica,sans-Serif" font-size="10.00"># isEnabled()</text>
<text text-anchor="start" x="10.5" y="-696.5" font-family="Helvetica,sans-Serif" font-size="10.00"># isSuspended()</text>
<text text-anchor="start" x="10.5" y="-685.5" font-family="Helvetica,sans-Serif" font-size="10.00">&#45; EventReceiver()</text>
<text text-anchor="start" x="10.5" y="-674.5" font-family="Helvetica,sans-Serif" font-size="10.00">&#45; operator=()</text>
<text text-anchor="start" x="10.5" y="-663.5" font-family="Helvetica,sans-Serif" font-size="10.00">&#45; dispatchEvent()</text>
<text text-anchor="start" x="10.5" y="-652.5" font-family="Helvetica,sans-Serif" font-size="10.00">&#45; timeoutEvent()</text>
<text text-anchor="start" x="10.5" y="-641.5" font-family="Helvetica,sans-Serif" font-size="10.00">&#45; unobservedEvent()</text>
<text text-anchor="start" x="10.5" y="-630.5" font-family="Helvetica,sans-Serif" font-size="10.00">&#45; continueImmediately()</text>
<text text-anchor="start" x="10.5" y="-619.5" font-family="Helvetica,sans-Serif" font-size="10.00">&#45; enabled()</text>
<text text-anchor="start" x="10.5" y="-608.5" font-family="Helvetica,sans-Serif" font-size="10.00">&#45; disabled()</text>
<text text-anchor="start" x="10.5" y="-597.5" font-family="Helvetica,sans-Serif" font-size="10.00">&#45; suspended()</text>
<text text-anchor="start" x="10.5" y="-586.5" font-family="Helvetica,sans-Serif" font-size="10.00">&#45; resumed()</text>
<text text-anchor="start" x="10.5" y="-575.5" font-family="Helvetica,sans-Serif" font-size="10.00">&#45; getTimeout()</text>
<text text-anchor="start" x="10.5" y="-564.5" font-family="Helvetica,sans-Serif" font-size="10.00">&#45; getLastTriggered()</text>
<text text-anchor="start" x="10.5" y="-553.5" font-family="Helvetica,sans-Serif" font-size="10.00">&#45; triggered()</text>
</a>
</g>
</g>
<!-- Node4&#45;&gt;Node3 -->
<g id="edge3" class="edge">
<title>Node4&#45;&gt;Node3</title>
<path fill="none" stroke="midnightblue" d="M71.5,-536C71.5,-526.77 71.5,-517.88 71.5,-509.54"/>
<polygon fill="none" stroke="midnightblue" points="68,-536.13 71.5,-546.13 75,-536.13 68,-536.13"/>
</g>
<!-- Node5 -->
<g id="node5" class="node">
<title>Node5</title>
<g id="a_node5"><a xlink:href="classcore_1_1_observation_counter.html" target="_top" xlink:title=" ">
<polygon fill="white" stroke="black" points="7.5,-926.5 7.5,-994.5 135.5,-994.5 135.5,-926.5 7.5,-926.5"/>
<text text-anchor="middle" x="71.5" y="-982.5" font-family="Helvetica,sans-Serif" font-size="10.00">core::ObservationCounter</text>
<polyline fill="none" stroke="black" points="7.5,-975.5 135.5,-975.5 "/>
<text text-anchor="start" x="15.5" y="-963.5" font-family="Helvetica,sans-Serif" font-size="10.00"># observationCounter</text>
<text text-anchor="start" x="15.5" y="-952.5" font-family="Helvetica,sans-Serif" font-size="10.00"># lastTriggered</text>
<polyline fill="none" stroke="black" points="7.5,-945.5 135.5,-945.5 "/>
<text text-anchor="start" x="15.5" y="-933.5" font-family="Helvetica,sans-Serif" font-size="10.00">+ isObserved()</text>
</a>
</g>
</g>
<!-- Node5&#45;&gt;Node4 -->
<g id="edge4" class="edge">
<title>Node5&#45;&gt;Node4</title>
<path fill="none" stroke="midnightblue" d="M71.5,-916.14C71.5,-908.03 71.5,-899.12 71.5,-889.7"/>
<polygon fill="none" stroke="midnightblue" points="68,-916.31 71.5,-926.31 75,-916.31 68,-916.31"/>
</g>
<!-- Node6 -->
<g id="node6" class="node">
<title>Node6</title>
<g id="a_node6"><a xlink:title=" ">
<polygon fill="white" stroke="#bfbfbf" points="161,-419.5 161,-476.5 214,-476.5 214,-419.5 161,-419.5"/>
<text text-anchor="middle" x="187.5" y="-464.5" font-family="Helvetica,sans-Serif" font-size="10.00">SocketT</text>
<polyline fill="none" stroke="#bfbfbf" points="161,-457.5 214,-457.5 "/>
<text text-anchor="middle" x="187.5" y="-445.5" font-family="Helvetica,sans-Serif" font-size="10.00"> </text>
<polyline fill="none" stroke="#bfbfbf" points="161,-438.5 214,-438.5 "/>
<text text-anchor="middle" x="187.5" y="-426.5" font-family="Helvetica,sans-Serif" font-size="10.00"> </text>
</a>
</g>
</g>
<!-- Node6&#45;&gt;Node2 -->
<g id="edge5" class="edge">
<title>Node6&#45;&gt;Node2</title>
<path fill="none" stroke="midnightblue" d="M175.79,-409.54C170.38,-392.24 163.71,-370.9 157.13,-349.86"/>
<polygon fill="none" stroke="midnightblue" points="172.49,-410.73 178.82,-419.23 179.17,-408.64 172.49,-410.73"/>
</g>
</g>
</svg>
