<?xml version="1.0" encoding="UTF-8" standalone="no"?>
<!DOCTYPE svg PUBLIC "-//W3C//DTD SVG 1.1//EN"
 "http://www.w3.org/Graphics/SVG/1.1/DTD/svg11.dtd">
<!-- Generated by graphviz version 2.43.0 (0)
 -->
<!-- Title: core::socket::stream::legacy::SocketServer&lt; SocketServerT, SocketContextFactoryT &gt; Pages: 1 -->
<svg width="340pt" height="352pt"
 viewBox="0.00 0.00 340.00 352.00" xmlns="http://www.w3.org/2000/svg" xmlns:xlink="http://www.w3.org/1999/xlink">
<g id="graph0" class="graph" transform="scale(1 1) rotate(0) translate(4 348)">
<title>core::socket::stream::legacy::SocketServer&lt; SocketServerT, SocketContextFactoryT &gt;</title>
<polygon fill="white" stroke="transparent" points="-4,4 -4,-348 336,-348 336,4 -4,4"/>
<!-- Node1 -->
<g id="node1" class="node">
<title>Node1</title>
<g id="a_node1"><a xlink:title=" ">
<polygon fill="#bfbfbf" stroke="black" points="16,-0.5 16,-52.5 190,-52.5 190,-0.5 16,-0.5"/>
<text text-anchor="start" x="24" y="-40.5" font-family="Helvetica,sans-Serif" font-size="10.00">core::socket::stream</text>
<text text-anchor="start" x="24" y="-29.5" font-family="Helvetica,sans-Serif" font-size="10.00">::legacy::SocketServer</text>
<text text-anchor="start" x="24" y="-18.5" font-family="Helvetica,sans-Serif" font-size="10.00">&lt; SocketServerT, SocketContext</text>
<text text-anchor="middle" x="103" y="-7.5" font-family="Helvetica,sans-Serif" font-size="10.00">FactoryT &gt;</text>
</a>
</g>
</g>
<!-- Node2 -->
<g id="node2" class="node">
<title>Node2</title>
<g id="a_node2"><a xlink:href="classcore_1_1socket_1_1stream_1_1_socket_server.html" target="_top" xlink:title=" ">
<polygon fill="white" stroke="black" points="0,-90.5 0,-153.5 206,-153.5 206,-90.5 0,-90.5"/>
<text text-anchor="start" x="8" y="-141.5" font-family="Helvetica,sans-Serif" font-size="10.00">core::socket::stream</text>
<text text-anchor="start" x="8" y="-130.5" font-family="Helvetica,sans-Serif" font-size="10.00">::SocketServer&lt; SocketServer</text>
<text text-anchor="start" x="8" y="-119.5" font-family="Helvetica,sans-Serif" font-size="10.00">T, core::socket::stream::</text>
<text text-anchor="start" x="8" y="-108.5" font-family="Helvetica,sans-Serif" font-size="10.00">legacy::SocketAcceptor, SocketContext</text>
<text text-anchor="middle" x="103" y="-97.5" font-family="Helvetica,sans-Serif" font-size="10.00">FactoryT &gt;</text>
</a>
</g>
</g>
<!-- Node2&#45;&gt;Node1 -->
<g id="edge1" class="edge">
<title>Node2&#45;&gt;Node1</title>
<path fill="none" stroke="midnightblue" d="M103,-80.34C103,-70.89 103,-61.11 103,-52.57"/>
<polygon fill="none" stroke="midnightblue" points="99.5,-80.38 103,-90.38 106.5,-80.38 99.5,-80.38"/>
</g>
<!-- Node3 -->
<g id="node3" class="node">
<title>Node3</title>
<g id="a_node3"><a xlink:title=" ">
<polygon fill="white" stroke="#bfbfbf" points="56,-324.5 56,-343.5 142,-343.5 142,-324.5 56,-324.5"/>
<text text-anchor="middle" x="99" y="-331.5" font-family="Helvetica,sans-Serif" font-size="10.00">SocketServerT</text>
</a>
</g>
</g>
<!-- Node3&#45;&gt;Node2 -->
<g id="edge2" class="edge">
<title>Node3&#45;&gt;Node2</title>
<path fill="none" stroke="midnightblue" d="M99.36,-314.08C100.05,-277.75 101.57,-197.94 102.41,-153.83"/>
<polygon fill="none" stroke="midnightblue" points="95.86,-314.18 99.17,-324.24 102.86,-314.31 95.86,-314.18"/>
</g>
<!-- Node4 -->
<g id="node4" class="node">
<title>Node4</title>
<g id="a_node4"><a xlink:href="classcore_1_1socket_1_1stream_1_1_socket_server.html" target="_top" xlink:title=" ">
<polygon fill="white" stroke="black" points="115,-234.5 115,-286.5 301,-286.5 301,-234.5 115,-234.5"/>
<text text-anchor="start" x="123" y="-274.5" font-family="Helvetica,sans-Serif" font-size="10.00">core::socket::stream</text>
<text text-anchor="start" x="123" y="-263.5" font-family="Helvetica,sans-Serif" font-size="10.00">::SocketServer&lt; SocketServer</text>
<text text-anchor="start" x="123" y="-252.5" font-family="Helvetica,sans-Serif" font-size="10.00">T, SocketAcceptorT, SocketContext</text>
<text text-anchor="middle" x="208" y="-241.5" font-family="Helvetica,sans-Serif" font-size="10.00">FactoryT &gt;</text>
</a>
</g>
</g>
<!-- Node3&#45;&gt;Node4 -->
<g id="edge4" class="edge">
<title>Node3&#45;&gt;Node4</title>
<path fill="none" stroke="midnightblue" d="M120.82,-318.69C134.79,-309.52 153.3,-297.38 169.67,-286.65"/>
<polygon fill="none" stroke="midnightblue" points="118.81,-315.82 112.37,-324.23 122.65,-321.67 118.81,-315.82"/>
</g>
<!-- Node4&#45;&gt;Node2 -->
<g id="edge3" class="edge">
<title>Node4&#45;&gt;Node2</title>
<path fill="none" stroke="orange" d="M182.49,-226.33C165.44,-204.17 143.17,-175.23 126.55,-153.61"/>
<polygon fill="orange" stroke="orange" points="179.87,-228.67 188.74,-234.46 185.42,-224.4 179.87,-228.67"/>
<text text-anchor="start" x="174" y="-208" font-family="Helvetica,sans-Serif" font-size="10.00"> &lt; SocketServerT, core</text>
<text text-anchor="start" x="174" y="-197" font-family="Helvetica,sans-Serif" font-size="10.00">::socket::stream::legacy</text>
<text text-anchor="start" x="174" y="-186" font-family="Helvetica,sans-Serif" font-size="10.00">::SocketAcceptor, SocketContext</text>
<text text-anchor="middle" x="253" y="-175" font-family="Helvetica,sans-Serif" font-size="10.00">FactoryT &gt;</text>
</g>
</g>
</svg>
