<?xml version="1.0" encoding="UTF-8" standalone="no"?>
<!DOCTYPE svg PUBLIC "-//W3C//DTD SVG 1.1//EN"
 "http://www.w3.org/Graphics/SVG/1.1/DTD/svg11.dtd">
<!-- Generated by graphviz version 2.43.0 (0)
 -->
<!-- Title: core::eventreceiver::InitAcceptEventReceiver Pages: 1 -->
<svg width="418pt" height="1094pt"
 viewBox="0.00 0.00 418.00 1094.00" xmlns="http://www.w3.org/2000/svg" xmlns:xlink="http://www.w3.org/1999/xlink">
<g id="graph0" class="graph" transform="scale(1 1) rotate(0) translate(4 1090)">
<title>core::eventreceiver::InitAcceptEventReceiver</title>
<polygon fill="white" stroke="transparent" points="-4,4 -4,-1090 414,-1090 414,4 -4,4"/>
<!-- Node1 -->
<g id="node1" class="node">
<title>Node1</title>
<g id="a_node1"><a xlink:title=" ">
<polygon fill="#bfbfbf" stroke="black" points="137,-845.5 137,-935.5 292,-935.5 292,-845.5 137,-845.5"/>
<text text-anchor="start" x="145" y="-923.5" font-family="Helvetica,sans-Serif" font-size="10.00">core::eventreceiver</text>
<text text-anchor="middle" x="214.5" y="-912.5" font-family="Helvetica,sans-Serif" font-size="10.00">::InitAcceptEventReceiver</text>
<polyline fill="none" stroke="black" points="137,-905.5 292,-905.5 "/>
<text text-anchor="middle" x="214.5" y="-893.5" font-family="Helvetica,sans-Serif" font-size="10.00"> </text>
<polyline fill="none" stroke="black" points="137,-886.5 292,-886.5 "/>
<text text-anchor="start" x="145" y="-874.5" font-family="Helvetica,sans-Serif" font-size="10.00"># InitAcceptEventReceiver()</text>
<text text-anchor="start" x="145" y="-863.5" font-family="Helvetica,sans-Serif" font-size="10.00">&#45; event()</text>
<text text-anchor="start" x="145" y="-852.5" font-family="Helvetica,sans-Serif" font-size="10.00">&#45; initAcceptEvent()</text>
</a>
</g>
</g>
<!-- Node3 -->
<g id="node3" class="node">
<title>Node3</title>
<g id="a_node3"><a xlink:href="classcore_1_1socket_1_1stream_1_1_socket_acceptor.html" target="_top" xlink:title=" ">
<polygon fill="white" stroke="black" points="0,-194.5 0,-471.5 173,-471.5 173,-194.5 0,-194.5"/>
<text text-anchor="start" x="8" y="-459.5" font-family="Helvetica,sans-Serif" font-size="10.00">core::socket::stream</text>
<text text-anchor="start" x="8" y="-448.5" font-family="Helvetica,sans-Serif" font-size="10.00">::SocketAcceptor&lt; ServerSocket</text>
<text text-anchor="start" x="8" y="-437.5" font-family="Helvetica,sans-Serif" font-size="10.00">T, core::socket::stream::legacy</text>
<text text-anchor="middle" x="86.5" y="-426.5" font-family="Helvetica,sans-Serif" font-size="10.00">::SocketConnection &gt;</text>
<polyline fill="none" stroke="black" points="0,-419.5 173,-419.5 "/>
<text text-anchor="start" x="8" y="-407.5" font-family="Helvetica,sans-Serif" font-size="10.00"># config</text>
<text text-anchor="start" x="8" y="-396.5" font-family="Helvetica,sans-Serif" font-size="10.00"># options</text>
<text text-anchor="start" x="8" y="-385.5" font-family="Helvetica,sans-Serif" font-size="10.00">&#45; socketContextFactory</text>
<text text-anchor="start" x="8" y="-374.5" font-family="Helvetica,sans-Serif" font-size="10.00">&#45; onConnect</text>
<text text-anchor="start" x="8" y="-363.5" font-family="Helvetica,sans-Serif" font-size="10.00">&#45; onDestruct</text>
<text text-anchor="start" x="8" y="-352.5" font-family="Helvetica,sans-Serif" font-size="10.00">&#45; onConnected</text>
<text text-anchor="start" x="8" y="-341.5" font-family="Helvetica,sans-Serif" font-size="10.00">&#45; onDisconnect</text>
<text text-anchor="start" x="8" y="-330.5" font-family="Helvetica,sans-Serif" font-size="10.00">&#45; onError</text>
<polyline fill="none" stroke="black" points="0,-323.5 173,-323.5 "/>
<text text-anchor="start" x="8" y="-311.5" font-family="Helvetica,sans-Serif" font-size="10.00">+ SocketAcceptor()</text>
<text text-anchor="start" x="8" y="-300.5" font-family="Helvetica,sans-Serif" font-size="10.00">+ ~SocketAcceptor()</text>
<text text-anchor="start" x="8" y="-289.5" font-family="Helvetica,sans-Serif" font-size="10.00">+ listen()</text>
<text text-anchor="start" x="8" y="-278.5" font-family="Helvetica,sans-Serif" font-size="10.00"># destruct()</text>
<text text-anchor="start" x="8" y="-267.5" font-family="Helvetica,sans-Serif" font-size="10.00">&#45; SocketAcceptor()</text>
<text text-anchor="start" x="8" y="-256.5" font-family="Helvetica,sans-Serif" font-size="10.00">&#45; SocketAcceptor()</text>
<text text-anchor="start" x="8" y="-245.5" font-family="Helvetica,sans-Serif" font-size="10.00">&#45; operator=()</text>
<text text-anchor="start" x="8" y="-234.5" font-family="Helvetica,sans-Serif" font-size="10.00">&#45; initAcceptEvent()</text>
<text text-anchor="start" x="8" y="-223.5" font-family="Helvetica,sans-Serif" font-size="10.00">&#45; reuseAddress()</text>
<text text-anchor="start" x="8" y="-212.5" font-family="Helvetica,sans-Serif" font-size="10.00">&#45; acceptEvent()</text>
<text text-anchor="start" x="8" y="-201.5" font-family="Helvetica,sans-Serif" font-size="10.00">&#45; unobservedEvent()</text>
</a>
</g>
</g>
<!-- Node1&#45;&gt;Node3 -->
<g id="edge2" class="edge">
<title>Node1&#45;&gt;Node3</title>
<path fill="none" stroke="darkgreen" d="M140.74,-838.4C131.93,-829.27 124.09,-819.09 118.5,-808 66.03,-703.98 61.72,-570.45 68.4,-471.63"/>
<polygon fill="none" stroke="darkgreen" points="138.4,-841 148,-845.5 143.3,-836 138.4,-841"/>
</g>
<!-- Node5 -->
<g id="node5" class="node">
<title>Node5</title>
<g id="a_node5"><a xlink:href="classcore_1_1socket_1_1stream_1_1_socket_acceptor.html" target="_top" xlink:title=" ">
<polygon fill="white" stroke="black" points="237,-194.5 237,-471.5 410,-471.5 410,-194.5 237,-194.5"/>
<text text-anchor="start" x="245" y="-459.5" font-family="Helvetica,sans-Serif" font-size="10.00">core::socket::stream</text>
<text text-anchor="start" x="245" y="-448.5" font-family="Helvetica,sans-Serif" font-size="10.00">::SocketAcceptor&lt; ServerSocket</text>
<text text-anchor="start" x="245" y="-437.5" font-family="Helvetica,sans-Serif" font-size="10.00">T, core::socket::stream::tls</text>
<text text-anchor="middle" x="323.5" y="-426.5" font-family="Helvetica,sans-Serif" font-size="10.00">::SocketConnection &gt;</text>
<polyline fill="none" stroke="black" points="237,-419.5 410,-419.5 "/>
<text text-anchor="start" x="245" y="-407.5" font-family="Helvetica,sans-Serif" font-size="10.00"># config</text>
<text text-anchor="start" x="245" y="-396.5" font-family="Helvetica,sans-Serif" font-size="10.00"># options</text>
<text text-anchor="start" x="245" y="-385.5" font-family="Helvetica,sans-Serif" font-size="10.00">&#45; socketContextFactory</text>
<text text-anchor="start" x="245" y="-374.5" font-family="Helvetica,sans-Serif" font-size="10.00">&#45; onConnect</text>
<text text-anchor="start" x="245" y="-363.5" font-family="Helvetica,sans-Serif" font-size="10.00">&#45; onDestruct</text>
<text text-anchor="start" x="245" y="-352.5" font-family="Helvetica,sans-Serif" font-size="10.00">&#45; onConnected</text>
<text text-anchor="start" x="245" y="-341.5" font-family="Helvetica,sans-Serif" font-size="10.00">&#45; onDisconnect</text>
<text text-anchor="start" x="245" y="-330.5" font-family="Helvetica,sans-Serif" font-size="10.00">&#45; onError</text>
<polyline fill="none" stroke="black" points="237,-323.5 410,-323.5 "/>
<text text-anchor="start" x="245" y="-311.5" font-family="Helvetica,sans-Serif" font-size="10.00">+ SocketAcceptor()</text>
<text text-anchor="start" x="245" y="-300.5" font-family="Helvetica,sans-Serif" font-size="10.00">+ ~SocketAcceptor()</text>
<text text-anchor="start" x="245" y="-289.5" font-family="Helvetica,sans-Serif" font-size="10.00">+ listen()</text>
<text text-anchor="start" x="245" y="-278.5" font-family="Helvetica,sans-Serif" font-size="10.00"># destruct()</text>
<text text-anchor="start" x="245" y="-267.5" font-family="Helvetica,sans-Serif" font-size="10.00">&#45; SocketAcceptor()</text>
<text text-anchor="start" x="245" y="-256.5" font-family="Helvetica,sans-Serif" font-size="10.00">&#45; SocketAcceptor()</text>
<text text-anchor="start" x="245" y="-245.5" font-family="Helvetica,sans-Serif" font-size="10.00">&#45; operator=()</text>
<text text-anchor="start" x="245" y="-234.5" font-family="Helvetica,sans-Serif" font-size="10.00">&#45; initAcceptEvent()</text>
<text text-anchor="start" x="245" y="-223.5" font-family="Helvetica,sans-Serif" font-size="10.00">&#45; reuseAddress()</text>
<text text-anchor="start" x="245" y="-212.5" font-family="Helvetica,sans-Serif" font-size="10.00">&#45; acceptEvent()</text>
<text text-anchor="start" x="245" y="-201.5" font-family="Helvetica,sans-Serif" font-size="10.00">&#45; unobservedEvent()</text>
</a>
</g>
</g>
<!-- Node1&#45;&gt;Node5 -->
<g id="edge4" class="edge">
<title>Node1&#45;&gt;Node5</title>
<path fill="none" stroke="darkgreen" d="M286.96,-838.29C296.05,-829.13 304.31,-818.97 310.5,-808 380.65,-683.61 371.36,-632.03 356.5,-490 355.87,-483.94 355.1,-477.77 354.22,-471.56"/>
<polygon fill="none" stroke="darkgreen" points="284.32,-835.97 279.52,-845.41 289.16,-841.03 284.32,-835.97"/>
</g>
<!-- Node7 -->
<g id="node7" class="node">
<title>Node7</title>
<g id="a_node7"><a xlink:href="classcore_1_1socket_1_1stream_1_1_socket_acceptor.html" target="_top" xlink:title=" ">
<polygon fill="white" stroke="black" points="128,-541.5 128,-807.5 301,-807.5 301,-541.5 128,-541.5"/>
<text text-anchor="start" x="136" y="-795.5" font-family="Helvetica,sans-Serif" font-size="10.00">core::socket::stream</text>
<text text-anchor="start" x="136" y="-784.5" font-family="Helvetica,sans-Serif" font-size="10.00">::SocketAcceptor&lt; ServerSocket</text>
<text text-anchor="middle" x="214.5" y="-773.5" font-family="Helvetica,sans-Serif" font-size="10.00">T, SocketConnectionT &gt;</text>
<polyline fill="none" stroke="black" points="128,-766.5 301,-766.5 "/>
<text text-anchor="start" x="136" y="-754.5" font-family="Helvetica,sans-Serif" font-size="10.00"># config</text>
<text text-anchor="start" x="136" y="-743.5" font-family="Helvetica,sans-Serif" font-size="10.00"># options</text>
<text text-anchor="start" x="136" y="-732.5" font-family="Helvetica,sans-Serif" font-size="10.00">&#45; socketContextFactory</text>
<text text-anchor="start" x="136" y="-721.5" font-family="Helvetica,sans-Serif" font-size="10.00">&#45; onConnect</text>
<text text-anchor="start" x="136" y="-710.5" font-family="Helvetica,sans-Serif" font-size="10.00">&#45; onDestruct</text>
<text text-anchor="start" x="136" y="-699.5" font-family="Helvetica,sans-Serif" font-size="10.00">&#45; onConnected</text>
<text text-anchor="start" x="136" y="-688.5" font-family="Helvetica,sans-Serif" font-size="10.00">&#45; onDisconnect</text>
<text text-anchor="start" x="136" y="-677.5" font-family="Helvetica,sans-Serif" font-size="10.00">&#45; onError</text>
<polyline fill="none" stroke="black" points="128,-670.5 301,-670.5 "/>
<text text-anchor="start" x="136" y="-658.5" font-family="Helvetica,sans-Serif" font-size="10.00">+ SocketAcceptor()</text>
<text text-anchor="start" x="136" y="-647.5" font-family="Helvetica,sans-Serif" font-size="10.00">+ ~SocketAcceptor()</text>
<text text-anchor="start" x="136" y="-636.5" font-family="Helvetica,sans-Serif" font-size="10.00">+ listen()</text>
<text text-anchor="start" x="136" y="-625.5" font-family="Helvetica,sans-Serif" font-size="10.00"># destruct()</text>
<text text-anchor="start" x="136" y="-614.5" font-family="Helvetica,sans-Serif" font-size="10.00">&#45; SocketAcceptor()</text>
<text text-anchor="start" x="136" y="-603.5" font-family="Helvetica,sans-Serif" font-size="10.00">&#45; SocketAcceptor()</text>
<text text-anchor="start" x="136" y="-592.5" font-family="Helvetica,sans-Serif" font-size="10.00">&#45; operator=()</text>
<text text-anchor="start" x="136" y="-581.5" font-family="Helvetica,sans-Serif" font-size="10.00">&#45; initAcceptEvent()</text>
<text text-anchor="start" x="136" y="-570.5" font-family="Helvetica,sans-Serif" font-size="10.00">&#45; reuseAddress()</text>
<text text-anchor="start" x="136" y="-559.5" font-family="Helvetica,sans-Serif" font-size="10.00">&#45; acceptEvent()</text>
<text text-anchor="start" x="136" y="-548.5" font-family="Helvetica,sans-Serif" font-size="10.00">&#45; unobservedEvent()</text>
</a>
</g>
</g>
<!-- Node1&#45;&gt;Node7 -->
<g id="edge6" class="edge">
<title>Node1&#45;&gt;Node7</title>
<path fill="none" stroke="darkgreen" d="M214.5,-835.2C214.5,-826.56 214.5,-817.31 214.5,-807.77"/>
<polygon fill="none" stroke="darkgreen" points="211,-835.42 214.5,-845.42 218,-835.42 211,-835.42"/>
</g>
<!-- Node2 -->
<g id="node2" class="node">
<title>Node2</title>
<g id="a_node2"><a xlink:href="classcore_1_1_event_receiver.html" target="_top" xlink:title=" ">
<polygon fill="white" stroke="black" points="157.5,-973.5 157.5,-1085.5 271.5,-1085.5 271.5,-973.5 157.5,-973.5"/>
<text text-anchor="middle" x="214.5" y="-1073.5" font-family="Helvetica,sans-Serif" font-size="10.00">core::EventReceiver</text>
<polyline fill="none" stroke="black" points="157.5,-1066.5 271.5,-1066.5 "/>
<text text-anchor="start" x="165.5" y="-1054.5" font-family="Helvetica,sans-Serif" font-size="10.00"># _event</text>
<polyline fill="none" stroke="black" points="157.5,-1047.5 271.5,-1047.5 "/>
<text text-anchor="start" x="165.5" y="-1035.5" font-family="Helvetica,sans-Serif" font-size="10.00">+ EventReceiver()</text>
<text text-anchor="start" x="165.5" y="-1024.5" font-family="Helvetica,sans-Serif" font-size="10.00">+ ~EventReceiver()</text>
<text text-anchor="start" x="165.5" y="-1013.5" font-family="Helvetica,sans-Serif" font-size="10.00">+ publish()</text>
<text text-anchor="start" x="165.5" y="-1002.5" font-family="Helvetica,sans-Serif" font-size="10.00">+ unPublish()</text>
<text text-anchor="start" x="165.5" y="-991.5" font-family="Helvetica,sans-Serif" font-size="10.00">+ event()</text>
<text text-anchor="start" x="165.5" y="-980.5" font-family="Helvetica,sans-Serif" font-size="10.00">+ getName()</text>
</a>
</g>
</g>
<!-- Node2&#45;&gt;Node1 -->
<g id="edge1" class="edge">
<title>Node2&#45;&gt;Node1</title>
<path fill="none" stroke="midnightblue" d="M214.5,-963.13C214.5,-953.83 214.5,-944.44 214.5,-935.67"/>
<polygon fill="none" stroke="midnightblue" points="211,-963.17 214.5,-973.17 218,-963.17 211,-963.17"/>
</g>
<!-- Node4 -->
<g id="node4" class="node">
<title>Node4</title>
<g id="a_node4"><a xlink:href="classcore_1_1socket_1_1stream_1_1legacy_1_1_socket_acceptor.html" target="_top" xlink:title=" ">
<polygon fill="white" stroke="black" points="19,-39 19,-118 154,-118 154,-39 19,-39"/>
<text text-anchor="start" x="27" y="-106" font-family="Helvetica,sans-Serif" font-size="10.00">core::socket::stream</text>
<text text-anchor="start" x="27" y="-95" font-family="Helvetica,sans-Serif" font-size="10.00">::legacy::SocketAcceptor</text>
<text text-anchor="middle" x="86.5" y="-84" font-family="Helvetica,sans-Serif" font-size="10.00">&lt; ServerSocketT &gt;</text>
<polyline fill="none" stroke="black" points="19,-77 154,-77 "/>
<text text-anchor="middle" x="86.5" y="-65" font-family="Helvetica,sans-Serif" font-size="10.00"> </text>
<polyline fill="none" stroke="black" points="19,-58 154,-58 "/>
<text text-anchor="start" x="27" y="-46" font-family="Helvetica,sans-Serif" font-size="10.00">+ SocketAcceptor()</text>
</a>
</g>
</g>
<!-- Node3&#45;&gt;Node4 -->
<g id="edge3" class="edge">
<title>Node3&#45;&gt;Node4</title>
<path fill="none" stroke="darkgreen" d="M86.5,-184.15C86.5,-159.74 86.5,-136.44 86.5,-118.05"/>
<polygon fill="none" stroke="darkgreen" points="83,-184.3 86.5,-194.3 90,-184.3 83,-184.3"/>
</g>
<!-- Node6 -->
<g id="node6" class="node">
<title>Node6</title>
<g id="a_node6"><a xlink:href="classcore_1_1socket_1_1stream_1_1tls_1_1_socket_acceptor.html" target="_top" xlink:title=" ">
<polygon fill="white" stroke="black" points="257,-0.5 257,-156.5 390,-156.5 390,-0.5 257,-0.5"/>
<text text-anchor="start" x="265" y="-144.5" font-family="Helvetica,sans-Serif" font-size="10.00">core::socket::stream</text>
<text text-anchor="start" x="265" y="-133.5" font-family="Helvetica,sans-Serif" font-size="10.00">::tls::SocketAcceptor</text>
<text text-anchor="middle" x="323.5" y="-122.5" font-family="Helvetica,sans-Serif" font-size="10.00">&lt; ServerSocketT &gt;</text>
<polyline fill="none" stroke="black" points="257,-115.5 390,-115.5 "/>
<text text-anchor="start" x="265" y="-103.5" font-family="Helvetica,sans-Serif" font-size="10.00">&#45; masterSslCtx</text>
<text text-anchor="start" x="265" y="-92.5" font-family="Helvetica,sans-Serif" font-size="10.00">&#45; masterSslCtxDomains</text>
<text text-anchor="start" x="265" y="-81.5" font-family="Helvetica,sans-Serif" font-size="10.00">&#45; sniSslCtxs</text>
<text text-anchor="start" x="265" y="-70.5" font-family="Helvetica,sans-Serif" font-size="10.00">&#45; forceSni</text>
<polyline fill="none" stroke="black" points="257,-63.5 390,-63.5 "/>
<text text-anchor="start" x="265" y="-51.5" font-family="Helvetica,sans-Serif" font-size="10.00">+ SocketAcceptor()</text>
<text text-anchor="start" x="265" y="-40.5" font-family="Helvetica,sans-Serif" font-size="10.00">+ ~SocketAcceptor()</text>
<text text-anchor="start" x="265" y="-29.5" font-family="Helvetica,sans-Serif" font-size="10.00">+ listen()</text>
<text text-anchor="start" x="265" y="-18.5" font-family="Helvetica,sans-Serif" font-size="10.00">&#45; addMasterCtx()</text>
<text text-anchor="start" x="265" y="-7.5" font-family="Helvetica,sans-Serif" font-size="10.00">&#45; serverNameCallback()</text>
</a>
</g>
</g>
<!-- Node5&#45;&gt;Node6 -->
<g id="edge5" class="edge">
<title>Node5&#45;&gt;Node6</title>
<path fill="none" stroke="darkgreen" d="M323.5,-184.04C323.5,-174.64 323.5,-165.41 323.5,-156.56"/>
<polygon fill="none" stroke="darkgreen" points="320,-184.3 323.5,-194.3 327,-184.3 320,-184.3"/>
</g>
<!-- Node7&#45;&gt;Node3 -->
<g id="edge7" class="edge">
<title>Node7&#45;&gt;Node3</title>
<path fill="none" stroke="orange" d="M123.21,-541.08C120.41,-535.08 117.82,-529.03 115.5,-523 109.25,-506.73 104.34,-489.19 100.48,-471.58"/>
<polygon fill="orange" stroke="orange" points="120.27,-543.03 127.78,-550.49 126.56,-539.97 120.27,-543.03"/>
<text text-anchor="start" x="115.5" y="-515" font-family="Helvetica,sans-Serif" font-size="10.00"> &lt; ServerSocketT, core</text>
<text text-anchor="start" x="115.5" y="-504" font-family="Helvetica,sans-Serif" font-size="10.00">::socket::stream::legacy</text>
<text text-anchor="middle" x="174" y="-493" font-family="Helvetica,sans-Serif" font-size="10.00">::SocketConnection &gt;</text>
</g>
<!-- Node7&#45;&gt;Node5 -->
<g id="edge8" class="edge">
<title>Node7&#45;&gt;Node5</title>
<path fill="none" stroke="orange" d="M233.38,-530.85C236.55,-516.91 240.23,-503.09 244.5,-490 246.48,-483.94 248.66,-477.82 251.01,-471.7"/>
<polygon fill="orange" stroke="orange" points="229.87,-530.5 231.16,-541.02 236.71,-532 229.87,-530.5"/>
<text text-anchor="start" x="244.5" y="-515" font-family="Helvetica,sans-Serif" font-size="10.00"> &lt; ServerSocketT, core</text>
<text text-anchor="start" x="244.5" y="-504" font-family="Helvetica,sans-Serif" font-size="10.00">::socket::stream::tls</text>
<text text-anchor="middle" x="300.5" y="-493" font-family="Helvetica,sans-Serif" font-size="10.00">::SocketConnection &gt;</text>
</g>
</g>
</svg>
