<?xml version="1.0" encoding="UTF-8" standalone="no"?>
<!DOCTYPE svg PUBLIC "-//W3C//DTD SVG 1.1//EN"
 "http://www.w3.org/Graphics/SVG/1.1/DTD/svg11.dtd">
<!-- Generated by graphviz version 2.43.0 (0)
 -->
<!-- Title: web::http::server::SocketContext&lt; RequestT, ResponseT &gt;::RequestContext Pages: 1 -->
<svg width="350pt" height="263pt"
 viewBox="0.00 0.00 350.00 263.00" xmlns="http://www.w3.org/2000/svg" xmlns:xlink="http://www.w3.org/1999/xlink">
<g id="graph0" class="graph" transform="scale(1 1) rotate(0) translate(4 259)">
<title>web::http::server::SocketContext&lt; RequestT, ResponseT &gt;::RequestContext</title>
<polygon fill="white" stroke="transparent" points="-4,4 -4,-259 346,-259 346,4 -4,4"/>
<!-- Node1 -->
<g id="node1" class="node">
<title>Node1</title>
<g id="a_node1"><a xlink:title=" ">
<polygon fill="#bfbfbf" stroke="black" points="0,-0.5 0,-41.5 168,-41.5 168,-0.5 0,-0.5"/>
<text text-anchor="start" x="8" y="-29.5" font-family="Helvetica,sans-Serif" font-size="10.00">web::http::server::</text>
<text text-anchor="start" x="8" y="-18.5" font-family="Helvetica,sans-Serif" font-size="10.00">SocketContext&lt; RequestT,</text>
<text text-anchor="middle" x="84" y="-7.5" font-family="Helvetica,sans-Serif" font-size="10.00"> ResponseT &gt;::RequestContext</text>
</a>
</g>
</g>
<!-- Node2 -->
<g id="node2" class="node">
<title>Node2</title>
<g id="a_node2"><a xlink:href="classweb_1_1http_1_1server_1_1_request_context_base.html" target="_top" xlink:title=" ">
<polygon fill="white" stroke="black" points="24.5,-79.5 24.5,-109.5 143.5,-109.5 143.5,-79.5 24.5,-79.5"/>
<text text-anchor="start" x="32.5" y="-97.5" font-family="Helvetica,sans-Serif" font-size="10.00">web::http::server::</text>
<text text-anchor="middle" x="84" y="-86.5" font-family="Helvetica,sans-Serif" font-size="10.00">RequestContextBase</text>
</a>
</g>
</g>
<!-- Node2&#45;&gt;Node1 -->
<g id="edge1" class="edge">
<title>Node2&#45;&gt;Node1</title>
<path fill="none" stroke="midnightblue" d="M84,-69.1C84,-60.1 84,-50.02 84,-41.51"/>
<polygon fill="none" stroke="midnightblue" points="80.5,-69.37 84,-79.37 87.5,-69.37 80.5,-69.37"/>
</g>
<!-- Node3 -->
<g id="node3" class="node">
<title>Node3</title>
<g id="a_node3"><a xlink:href="classweb_1_1http_1_1_socket_context.html" target="_top" xlink:title=" ">
<polygon fill="white" stroke="black" points="14.5,-157.5 14.5,-176.5 153.5,-176.5 153.5,-157.5 14.5,-157.5"/>
<text text-anchor="middle" x="84" y="-164.5" font-family="Helvetica,sans-Serif" font-size="10.00">web::http::SocketContext</text>
</a>
</g>
</g>
<!-- Node3&#45;&gt;Node2 -->
<g id="edge2" class="edge">
<title>Node3&#45;&gt;Node2</title>
<path fill="none" stroke="#404040" d="M84,-157.36C84,-148.51 84,-134.33 84,-121.78"/>
<polygon fill="none" stroke="#404040" points="84,-121.58 80,-115.58 84,-109.58 88,-115.58 84,-121.58"/>
<text text-anchor="middle" x="122.5" y="-131" font-family="Helvetica,sans-Serif" font-size="10.00"> &#45;socketContext</text>
</g>
<!-- Node4 -->
<g id="node4" class="node">
<title>Node4</title>
<g id="a_node4"><a xlink:href="classcore_1_1socket_1_1_socket_context.html" target="_top" xlink:title=" ">
<polygon fill="white" stroke="black" points="59,-235.5 59,-254.5 211,-254.5 211,-235.5 59,-235.5"/>
<text text-anchor="middle" x="135" y="-242.5" font-family="Helvetica,sans-Serif" font-size="10.00">core::socket::SocketContext</text>
</a>
</g>
</g>
<!-- Node4&#45;&gt;Node3 -->
<g id="edge3" class="edge">
<title>Node4&#45;&gt;Node3</title>
<path fill="none" stroke="midnightblue" d="M120.87,-227.45C118.16,-224.06 115.42,-220.47 113,-217 103.5,-203.38 93.98,-186.53 88.56,-176.56"/>
<polygon fill="none" stroke="midnightblue" points="118.25,-229.78 127.32,-235.26 123.65,-225.32 118.25,-229.78"/>
</g>
<!-- Node5 -->
<g id="node5" class="node">
<title>Node5</title>
<g id="a_node5"><a xlink:href="classcore_1_1socket_1_1_socket_connection.html" target="_top" xlink:title=" ">
<polygon fill="white" stroke="black" points="172,-157.5 172,-176.5 340,-176.5 340,-157.5 172,-157.5"/>
<text text-anchor="middle" x="256" y="-164.5" font-family="Helvetica,sans-Serif" font-size="10.00">core::socket::SocketConnection</text>
</a>
</g>
</g>
<!-- Node4&#45;&gt;Node5 -->
<g id="edge5" class="edge">
<title>Node4&#45;&gt;Node5</title>
<path fill="none" stroke="#404040" d="M131.27,-235.32C127.32,-224.61 122.8,-206.42 132,-195 137.5,-188.17 151.58,-182.98 168.36,-179.06"/>
<polygon fill="none" stroke="#404040" points="168.6,-179.01 173.65,-173.87 180.34,-176.55 175.29,-181.7 168.6,-179.01"/>
<text text-anchor="middle" x="181" y="-209" font-family="Helvetica,sans-Serif" font-size="10.00"> &#45;newSocketContext</text>
<text text-anchor="middle" x="181" y="-198" font-family="Helvetica,sans-Serif" font-size="10.00">&#45;socketContext</text>
</g>
<!-- Node5&#45;&gt;Node4 -->
<g id="edge4" class="edge">
<title>Node5&#45;&gt;Node4</title>
<path fill="none" stroke="#404040" d="M254.47,-176.62C252.06,-187.61 246.33,-206.45 234,-217 227.03,-222.96 218.87,-227.61 210.27,-231.24"/>
<polygon fill="none" stroke="#404040" points="210.04,-231.33 205.78,-237.15 198.77,-235.46 203.03,-229.64 210.04,-231.33"/>
<text text-anchor="middle" x="295" y="-203.5" font-family="Helvetica,sans-Serif" font-size="10.00"> &#45;socketConnection</text>
</g>
</g>
</svg>
