<?xml version="1.0" encoding="UTF-8" standalone="no"?>
<!DOCTYPE svg PUBLIC "-//W3C//DTD SVG 1.1//EN"
 "http://www.w3.org/Graphics/SVG/1.1/DTD/svg11.dtd">
<!-- Generated by graphviz version 2.43.0 (0)
 -->
<!-- Title: net::in6::stream::SocketServer&lt; ConfigT &gt; Pages: 1 -->
<svg width="157pt" height="184pt"
 viewBox="0.00 0.00 157.00 184.00" xmlns="http://www.w3.org/2000/svg" xmlns:xlink="http://www.w3.org/1999/xlink">
<g id="graph0" class="graph" transform="scale(1 1) rotate(0) translate(4 180)">
<title>net::in6::stream::SocketServer&lt; ConfigT &gt;</title>
<polygon fill="white" stroke="transparent" points="-4,4 -4,-180 153,-180 153,4 -4,4"/>
<!-- Node1 -->
<g id="node1" class="node">
<title>Node1</title>
<g id="a_node1"><a xlink:title=" ">
<polygon fill="#bfbfbf" stroke="black" points="8.5,-0.5 8.5,-30.5 140.5,-30.5 140.5,-0.5 8.5,-0.5"/>
<text text-anchor="start" x="16.5" y="-18.5" font-family="Helvetica,sans-Serif" font-size="10.00">net::in6::stream::Socket</text>
<text text-anchor="middle" x="74.5" y="-7.5" font-family="Helvetica,sans-Serif" font-size="10.00">Server&lt; ConfigT &gt;</text>
</a>
</g>
</g>
<!-- Node2 -->
<g id="node2" class="node">
<title>Node2</title>
<g id="a_node2"><a xlink:href="classnet_1_1stream_1_1_socket_server.html" target="_top" xlink:title=" ">
<polygon fill="white" stroke="black" points="0,-67.5 0,-108.5 149,-108.5 149,-67.5 0,-67.5"/>
<text text-anchor="start" x="8" y="-96.5" font-family="Helvetica,sans-Serif" font-size="10.00">net::stream::SocketServer</text>
<text text-anchor="start" x="8" y="-85.5" font-family="Helvetica,sans-Serif" font-size="10.00">&lt; ConfigT, net::in6::stream</text>
<text text-anchor="middle" x="74.5" y="-74.5" font-family="Helvetica,sans-Serif" font-size="10.00">::ServerSocket &gt;</text>
</a>
</g>
</g>
<!-- Node2&#45;&gt;Node1 -->
<g id="edge1" class="edge">
<title>Node2&#45;&gt;Node1</title>
<path fill="none" stroke="midnightblue" d="M74.5,-57.08C74.5,-48.01 74.5,-38.45 74.5,-30.89"/>
<polygon fill="none" stroke="midnightblue" points="71,-57.36 74.5,-67.36 78,-57.36 71,-57.36"/>
</g>
<!-- Node3 -->
<g id="node3" class="node">
<title>Node3</title>
<g id="a_node3"><a xlink:href="classnet_1_1_socket_config.html" target="_top" xlink:title=" ">
<polygon fill="white" stroke="black" points="19.5,-145.5 19.5,-175.5 129.5,-175.5 129.5,-145.5 19.5,-145.5"/>
<text text-anchor="start" x="27.5" y="-163.5" font-family="Helvetica,sans-Serif" font-size="10.00">net::SocketConfig&lt;</text>
<text text-anchor="middle" x="74.5" y="-152.5" font-family="Helvetica,sans-Serif" font-size="10.00"> ConfigT &gt;</text>
</a>
</g>
</g>
<!-- Node3&#45;&gt;Node2 -->
<g id="edge2" class="edge">
<title>Node3&#45;&gt;Node2</title>
<path fill="none" stroke="midnightblue" d="M74.5,-134.98C74.5,-126.35 74.5,-116.76 74.5,-108.59"/>
<polygon fill="none" stroke="midnightblue" points="71,-135.23 74.5,-145.23 78,-135.23 71,-135.23"/>
</g>
</g>
</svg>
