<?xml version="1.0" encoding="UTF-8" standalone="no"?>
<!DOCTYPE svg PUBLIC "-//W3C//DTD SVG 1.1//EN"
 "http://www.w3.org/Graphics/SVG/1.1/DTD/svg11.dtd">
<!-- Generated by graphviz version 2.43.0 (0)
 -->
<!-- Title: web::http::legacy::rc::Server&lt; Request, Response &gt; Pages: 1 -->
<svg width="440pt" height="586pt"
 viewBox="0.00 0.00 440.00 586.00" xmlns="http://www.w3.org/2000/svg" xmlns:xlink="http://www.w3.org/1999/xlink">
<g id="graph0" class="graph" transform="scale(1 1) rotate(0) translate(4 582)">
<title>web::http::legacy::rc::Server&lt; Request, Response &gt;</title>
<polygon fill="white" stroke="transparent" points="-4,4 -4,-582 436,-582 436,4 -4,4"/>
<!-- Node1 -->
<g id="node1" class="node">
<title>Node1</title>
<g id="a_node1"><a xlink:title=" ">
<polygon fill="#bfbfbf" stroke="black" points="157.5,-0.5 157.5,-41.5 274.5,-41.5 274.5,-0.5 157.5,-0.5"/>
<text text-anchor="start" x="165.5" y="-29.5" font-family="Helvetica,sans-Serif" font-size="10.00">web::http::legacy::</text>
<text text-anchor="start" x="165.5" y="-18.5" font-family="Helvetica,sans-Serif" font-size="10.00">rc::Server&lt; Request,</text>
<text text-anchor="middle" x="216" y="-7.5" font-family="Helvetica,sans-Serif" font-size="10.00"> Response &gt;</text>
</a>
</g>
</g>
<!-- Node2 -->
<g id="node2" class="node">
<title>Node2</title>
<g id="a_node2"><a xlink:href="classweb_1_1http_1_1server_1_1_server.html" target="_top" xlink:title=" ">
<polygon fill="white" stroke="black" points="132.5,-79.5 132.5,-142.5 299.5,-142.5 299.5,-79.5 132.5,-79.5"/>
<text text-anchor="start" x="140.5" y="-130.5" font-family="Helvetica,sans-Serif" font-size="10.00">web::http::server::</text>
<text text-anchor="start" x="140.5" y="-119.5" font-family="Helvetica,sans-Serif" font-size="10.00">Server&lt; net::rc::stream</text>
<text text-anchor="start" x="140.5" y="-108.5" font-family="Helvetica,sans-Serif" font-size="10.00">::legacy::SocketServer,</text>
<text text-anchor="start" x="140.5" y="-97.5" font-family="Helvetica,sans-Serif" font-size="10.00"> web::http::server::Request,</text>
<text text-anchor="middle" x="216" y="-86.5" font-family="Helvetica,sans-Serif" font-size="10.00"> web::http::server::Response &gt;</text>
</a>
</g>
</g>
<!-- Node2&#45;&gt;Node1 -->
<g id="edge1" class="edge">
<title>Node2&#45;&gt;Node1</title>
<path fill="none" stroke="midnightblue" d="M216,-69.02C216,-59.48 216,-49.74 216,-41.62"/>
<polygon fill="none" stroke="midnightblue" points="212.5,-69.22 216,-79.22 219.5,-69.22 212.5,-69.22"/>
</g>
<!-- Node3 -->
<g id="node3" class="node">
<title>Node3</title>
<g id="a_node3"><a xlink:href="classcore_1_1socket_1_1stream_1_1legacy_1_1_socket_server.html" target="_top" xlink:title=" ">
<polygon fill="white" stroke="black" points="34.5,-223.5 34.5,-286.5 219.5,-286.5 219.5,-223.5 34.5,-223.5"/>
<text text-anchor="start" x="42.5" y="-274.5" font-family="Helvetica,sans-Serif" font-size="10.00">net::rc::stream::legacy</text>
<text text-anchor="start" x="42.5" y="-263.5" font-family="Helvetica,sans-Serif" font-size="10.00">::SocketServer &lt; web::</text>
<text text-anchor="start" x="42.5" y="-252.5" font-family="Helvetica,sans-Serif" font-size="10.00">http::server::SocketContextFactory</text>
<text text-anchor="start" x="42.5" y="-241.5" font-family="Helvetica,sans-Serif" font-size="10.00">&lt; web::http::server::Request ,</text>
<text text-anchor="middle" x="127" y="-230.5" font-family="Helvetica,sans-Serif" font-size="10.00"> web::http::server::Response &gt; &gt;</text>
</a>
</g>
</g>
<!-- Node3&#45;&gt;Node2 -->
<g id="edge2" class="edge">
<title>Node3&#45;&gt;Node2</title>
<path fill="none" stroke="midnightblue" d="M151.77,-214.47C165.98,-191.8 183.56,-163.77 196.73,-142.75"/>
<polygon fill="none" stroke="midnightblue" points="148.66,-212.86 146.31,-223.19 154.59,-216.57 148.66,-212.86"/>
</g>
<!-- Node4 -->
<g id="node4" class="node">
<title>Node4</title>
<g id="a_node4"><a xlink:href="classcore_1_1socket_1_1stream_1_1_socket_server.html" target="_top" xlink:title=" ">
<polygon fill="white" stroke="black" points="0,-324.5 0,-387.5 206,-387.5 206,-324.5 0,-324.5"/>
<text text-anchor="start" x="8" y="-375.5" font-family="Helvetica,sans-Serif" font-size="10.00">core::socket::stream</text>
<text text-anchor="start" x="8" y="-364.5" font-family="Helvetica,sans-Serif" font-size="10.00">::SocketServer&lt; SocketServer</text>
<text text-anchor="start" x="8" y="-353.5" font-family="Helvetica,sans-Serif" font-size="10.00">T, core::socket::stream::</text>
<text text-anchor="start" x="8" y="-342.5" font-family="Helvetica,sans-Serif" font-size="10.00">legacy::SocketAcceptor, SocketContext</text>
<text text-anchor="middle" x="103" y="-331.5" font-family="Helvetica,sans-Serif" font-size="10.00">FactoryT &gt;</text>
</a>
</g>
</g>
<!-- Node4&#45;&gt;Node3 -->
<g id="edge3" class="edge">
<title>Node4&#45;&gt;Node3</title>
<path fill="none" stroke="midnightblue" d="M112.8,-314.58C115.07,-305.23 117.44,-295.43 119.59,-286.58"/>
<polygon fill="none" stroke="midnightblue" points="109.35,-313.95 110.4,-324.49 116.15,-315.6 109.35,-313.95"/>
</g>
<!-- Node5 -->
<g id="node5" class="node">
<title>Node5</title>
<g id="a_node5"><a xlink:title=" ">
<polygon fill="white" stroke="#bfbfbf" points="56,-558.5 56,-577.5 142,-577.5 142,-558.5 56,-558.5"/>
<text text-anchor="middle" x="99" y="-565.5" font-family="Helvetica,sans-Serif" font-size="10.00">SocketServerT</text>
</a>
</g>
</g>
<!-- Node5&#45;&gt;Node4 -->
<g id="edge4" class="edge">
<title>Node5&#45;&gt;Node4</title>
<path fill="none" stroke="midnightblue" d="M99.36,-548.08C100.05,-511.75 101.57,-431.94 102.41,-387.83"/>
<polygon fill="none" stroke="midnightblue" points="95.86,-548.18 99.17,-558.24 102.86,-548.31 95.86,-548.18"/>
</g>
<!-- Node6 -->
<g id="node6" class="node">
<title>Node6</title>
<g id="a_node6"><a xlink:href="classcore_1_1socket_1_1stream_1_1_socket_server.html" target="_top" xlink:title=" ">
<polygon fill="white" stroke="black" points="115,-468.5 115,-520.5 301,-520.5 301,-468.5 115,-468.5"/>
<text text-anchor="start" x="123" y="-508.5" font-family="Helvetica,sans-Serif" font-size="10.00">core::socket::stream</text>
<text text-anchor="start" x="123" y="-497.5" font-family="Helvetica,sans-Serif" font-size="10.00">::SocketServer&lt; SocketServer</text>
<text text-anchor="start" x="123" y="-486.5" font-family="Helvetica,sans-Serif" font-size="10.00">T, SocketAcceptorT, SocketContext</text>
<text text-anchor="middle" x="208" y="-475.5" font-family="Helvetica,sans-Serif" font-size="10.00">FactoryT &gt;</text>
</a>
</g>
</g>
<!-- Node5&#45;&gt;Node6 -->
<g id="edge6" class="edge">
<title>Node5&#45;&gt;Node6</title>
<path fill="none" stroke="midnightblue" d="M120.82,-552.69C134.79,-543.52 153.3,-531.38 169.67,-520.65"/>
<polygon fill="none" stroke="midnightblue" points="118.81,-549.82 112.37,-558.23 122.65,-555.67 118.81,-549.82"/>
</g>
<!-- Node6&#45;&gt;Node4 -->
<g id="edge5" class="edge">
<title>Node6&#45;&gt;Node4</title>
<path fill="none" stroke="orange" d="M182.49,-460.33C165.44,-438.17 143.17,-409.23 126.55,-387.61"/>
<polygon fill="orange" stroke="orange" points="179.87,-462.67 188.74,-468.46 185.42,-458.4 179.87,-462.67"/>
<text text-anchor="start" x="175" y="-442" font-family="Helvetica,sans-Serif" font-size="10.00"> &lt; SocketServerT, core</text>
<text text-anchor="start" x="175" y="-431" font-family="Helvetica,sans-Serif" font-size="10.00">::socket::stream::legacy</text>
<text text-anchor="start" x="175" y="-420" font-family="Helvetica,sans-Serif" font-size="10.00">::SocketAcceptor, SocketContext</text>
<text text-anchor="middle" x="254" y="-409" font-family="Helvetica,sans-Serif" font-size="10.00">FactoryT &gt;</text>
</g>
<!-- Node7 -->
<g id="node7" class="node">
<title>Node7</title>
<g id="a_node7"><a xlink:href="classweb_1_1http_1_1server_1_1_server.html" target="_top" xlink:title=" ">
<polygon fill="white" stroke="black" points="247,-234.5 247,-275.5 383,-275.5 383,-234.5 247,-234.5"/>
<text text-anchor="start" x="255" y="-263.5" font-family="Helvetica,sans-Serif" font-size="10.00">web::http::server::</text>
<text text-anchor="start" x="255" y="-252.5" font-family="Helvetica,sans-Serif" font-size="10.00">Server&lt; SocketServerT,</text>
<text text-anchor="middle" x="315" y="-241.5" font-family="Helvetica,sans-Serif" font-size="10.00"> RequestT, ResponseT &gt;</text>
</a>
</g>
</g>
<!-- Node7&#45;&gt;Node2 -->
<g id="edge7" class="edge">
<title>Node7&#45;&gt;Node2</title>
<path fill="none" stroke="orange" d="M295.41,-225.9C278.63,-201.83 254.52,-167.24 237.27,-142.51"/>
<polygon fill="orange" stroke="orange" points="292.64,-228.05 301.23,-234.26 298.39,-224.05 292.64,-228.05"/>
<text text-anchor="start" x="281" y="-197" font-family="Helvetica,sans-Serif" font-size="10.00"> &lt; net::rc::stream::</text>
<text text-anchor="start" x="281" y="-186" font-family="Helvetica,sans-Serif" font-size="10.00">legacy::SocketServer,</text>
<text text-anchor="start" x="281" y="-175" font-family="Helvetica,sans-Serif" font-size="10.00"> web::http::server::Request,</text>
<text text-anchor="middle" x="356.5" y="-164" font-family="Helvetica,sans-Serif" font-size="10.00"> web::http::server::Response &gt;</text>
</g>
<!-- Node8 -->
<g id="node8" class="node">
<title>Node8</title>
<g id="a_node8"><a xlink:title=" ">
<polygon fill="white" stroke="#bfbfbf" points="224.5,-335.5 224.5,-376.5 415.5,-376.5 415.5,-335.5 224.5,-335.5"/>
<text text-anchor="start" x="232.5" y="-364.5" font-family="Helvetica,sans-Serif" font-size="10.00">SocketServerT&lt; web</text>
<text text-anchor="start" x="232.5" y="-353.5" font-family="Helvetica,sans-Serif" font-size="10.00">::http::server::SocketContext</text>
<text text-anchor="middle" x="320" y="-342.5" font-family="Helvetica,sans-Serif" font-size="10.00">Factory&lt; RequestT, ResponseT &gt; &gt;</text>
</a>
</g>
</g>
<!-- Node8&#45;&gt;Node7 -->
<g id="edge8" class="edge">
<title>Node8&#45;&gt;Node7</title>
<path fill="none" stroke="midnightblue" d="M318.51,-325.41C317.69,-309.27 316.7,-289.75 315.99,-275.52"/>
<polygon fill="none" stroke="midnightblue" points="315.01,-325.63 319.01,-335.44 322,-325.28 315.01,-325.63"/>
</g>
</g>
</svg>
