<?xml version="1.0" encoding="UTF-8" standalone="no"?>
<!DOCTYPE svg PUBLIC "-//W3C//DTD SVG 1.1//EN"
 "http://www.w3.org/Graphics/SVG/1.1/DTD/svg11.dtd">
<!-- Generated by graphviz version 2.43.0 (0)
 -->
<!-- Title: net::un::stream::ClientSocket Pages: 1 -->
<svg width="166pt" height="321pt"
 viewBox="0.00 0.00 165.50 321.00" xmlns="http://www.w3.org/2000/svg" xmlns:xlink="http://www.w3.org/1999/xlink">
<g id="graph0" class="graph" transform="scale(1 1) rotate(0) translate(4 317)">
<title>net::un::stream::ClientSocket</title>
<polygon fill="white" stroke="transparent" points="-4,4 -4,-317 161.5,-317 161.5,4 -4,4"/>
<!-- Node1 -->
<g id="node1" class="node">
<title>Node1</title>
<g id="a_node1"><a xlink:title=" ">
<polygon fill="#bfbfbf" stroke="black" points="0,-0.5 0,-57.5 145,-57.5 145,-0.5 0,-0.5"/>
<text text-anchor="middle" x="72.5" y="-45.5" font-family="Helvetica,sans-Serif" font-size="10.00">net::un::stream::ClientSocket</text>
<polyline fill="none" stroke="black" points="0,-38.5 145,-38.5 "/>
<text text-anchor="middle" x="72.5" y="-26.5" font-family="Helvetica,sans-Serif" font-size="10.00"> </text>
<polyline fill="none" stroke="black" points="0,-19.5 145,-19.5 "/>
<text text-anchor="start" x="8" y="-7.5" font-family="Helvetica,sans-Serif" font-size="10.00">+ connect()</text>
</a>
</g>
</g>
<!-- Node2 -->
<g id="node2" class="node">
<title>Node2</title>
<g id="a_node2"><a xlink:href="classcore_1_1socket_1_1_client_socket.html" target="_top" xlink:title=" ">
<polygon fill="white" stroke="black" points="4,-95.5 4,-174.5 141,-174.5 141,-95.5 4,-95.5"/>
<text text-anchor="start" x="12" y="-162.5" font-family="Helvetica,sans-Serif" font-size="10.00">core::socket::ClientSocket</text>
<text text-anchor="middle" x="72.5" y="-151.5" font-family="Helvetica,sans-Serif" font-size="10.00">&lt; net::un::stream::Socket &gt;</text>
<polyline fill="none" stroke="black" points="4,-144.5 141,-144.5 "/>
<text text-anchor="middle" x="72.5" y="-132.5" font-family="Helvetica,sans-Serif" font-size="10.00"> </text>
<polyline fill="none" stroke="black" points="4,-125.5 141,-125.5 "/>
<text text-anchor="start" x="12" y="-113.5" font-family="Helvetica,sans-Serif" font-size="10.00">+ connect()</text>
<text text-anchor="start" x="12" y="-102.5" font-family="Helvetica,sans-Serif" font-size="10.00">+ connect()</text>
</a>
</g>
</g>
<!-- Node2&#45;&gt;Node1 -->
<g id="edge1" class="edge">
<title>Node2&#45;&gt;Node1</title>
<path fill="none" stroke="midnightblue" d="M72.5,-85.16C72.5,-75.74 72.5,-66.17 72.5,-57.72"/>
<polygon fill="none" stroke="midnightblue" points="69,-85.27 72.5,-95.27 76,-85.27 69,-85.27"/>
</g>
<!-- Node3 -->
<g id="node3" class="node">
<title>Node3</title>
<g id="a_node3"><a xlink:href="classcore_1_1socket_1_1_client_socket.html" target="_top" xlink:title=" ">
<polygon fill="white" stroke="black" points="6,-233.5 6,-312.5 139,-312.5 139,-233.5 6,-233.5"/>
<text text-anchor="start" x="14" y="-300.5" font-family="Helvetica,sans-Serif" font-size="10.00">core::socket::ClientSocket</text>
<text text-anchor="middle" x="72.5" y="-289.5" font-family="Helvetica,sans-Serif" font-size="10.00">&lt; SocketT &gt;</text>
<polyline fill="none" stroke="black" points="6,-282.5 139,-282.5 "/>
<text text-anchor="middle" x="72.5" y="-270.5" font-family="Helvetica,sans-Serif" font-size="10.00"> </text>
<polyline fill="none" stroke="black" points="6,-263.5 139,-263.5 "/>
<text text-anchor="start" x="14" y="-251.5" font-family="Helvetica,sans-Serif" font-size="10.00">+ connect()</text>
<text text-anchor="start" x="14" y="-240.5" font-family="Helvetica,sans-Serif" font-size="10.00">+ connect()</text>
</a>
</g>
</g>
<!-- Node3&#45;&gt;Node2 -->
<g id="edge2" class="edge">
<title>Node3&#45;&gt;Node2</title>
<path fill="none" stroke="orange" d="M72.5,-223.18C72.5,-207.25 72.5,-189.79 72.5,-174.7"/>
<polygon fill="orange" stroke="orange" points="69,-223.39 72.5,-233.39 76,-223.39 69,-223.39"/>
<text text-anchor="start" x="72.5" y="-207" font-family="Helvetica,sans-Serif" font-size="10.00"> &lt; net::un::stream::</text>
<text text-anchor="middle" x="115" y="-196" font-family="Helvetica,sans-Serif" font-size="10.00">Socket &gt;</text>
</g>
</g>
</svg>
