<?xml version="1.0" encoding="UTF-8" standalone="no"?>
<!DOCTYPE svg PUBLIC "-//W3C//DTD SVG 1.1//EN"
 "http://www.w3.org/Graphics/SVG/1.1/DTD/svg11.dtd">
<!-- Generated by graphviz version 2.43.0 (0)
 -->
<!-- Title: core::DescriptorEventPublisher::unobserveDisabledEvents Pages: 1 -->
<svg width="566pt" height="372pt"
 viewBox="0.00 0.00 566.00 372.00" xmlns="http://www.w3.org/2000/svg" xmlns:xlink="http://www.w3.org/1999/xlink">
<g id="graph0" class="graph" transform="scale(1 1) rotate(0) translate(4 368)">
<title>core::DescriptorEventPublisher::unobserveDisabledEvents</title>
<polygon fill="white" stroke="transparent" points="-4,4 -4,-368 562,-368 562,4 -4,4"/>
<!-- Node1 -->
<g id="node1" class="node">
<title>Node1</title>
<g id="a_node1"><a xlink:title=" ">
<polygon fill="#bfbfbf" stroke="black" points="0,-171.5 0,-201.5 167,-201.5 167,-171.5 0,-171.5"/>
<text text-anchor="start" x="8" y="-189.5" font-family="Helvetica,sans-Serif" font-size="10.00">core::DescriptorEventPublisher</text>
<text text-anchor="middle" x="83.5" y="-178.5" font-family="Helvetica,sans-Serif" font-size="10.00">::unobserveDisabledEvents</text>
</a>
</g>
</g>
<!-- Node2 -->
<g id="node2" class="node">
<title>Node2</title>
<g id="a_node2"><a xlink:href="classcore_1_1_descriptor_event_receiver.html#ac5dc7e86ddad09f5bd3eeb0c74f2e7f9" target="_top" xlink:title=" ">
<polygon fill="white" stroke="black" points="204.5,-333.5 204.5,-363.5 368.5,-363.5 368.5,-333.5 204.5,-333.5"/>
<text text-anchor="start" x="212.5" y="-351.5" font-family="Helvetica,sans-Serif" font-size="10.00">core::DescriptorEventReceiver</text>
<text text-anchor="middle" x="286.5" y="-340.5" font-family="Helvetica,sans-Serif" font-size="10.00">::isEnabled</text>
</a>
</g>
</g>
<!-- Node1&#45;&gt;Node2 -->
<g id="edge1" class="edge">
<title>Node1&#45;&gt;Node2</title>
<path fill="none" stroke="midnightblue" d="M93.52,-201.74C111.02,-230 152.36,-290.62 203,-323.5 206.13,-325.54 209.44,-327.41 212.86,-329.14"/>
<polygon fill="midnightblue" stroke="midnightblue" points="211.57,-332.4 222.12,-333.38 214.48,-326.03 211.57,-332.4"/>
</g>
<!-- Node3 -->
<g id="node3" class="node">
<title>Node3</title>
<g id="a_node3"><a xlink:href="classcore_1_1_observer.html#a12bf1ddfdb90f05f28d16c09ce0658f8" target="_top" xlink:title=" ">
<polygon fill="white" stroke="black" points="212,-295 212,-314 361,-314 361,-295 212,-295"/>
<text text-anchor="middle" x="286.5" y="-302" font-family="Helvetica,sans-Serif" font-size="10.00">core::Observer::isObserved</text>
</a>
</g>
</g>
<!-- Node1&#45;&gt;Node3 -->
<g id="edge2" class="edge">
<title>Node1&#45;&gt;Node3</title>
<path fill="none" stroke="midnightblue" d="M98.21,-201.82C118.76,-223.81 159.79,-264.03 203,-285.5 207.85,-287.91 213.02,-290.02 218.31,-291.87"/>
<polygon fill="midnightblue" stroke="midnightblue" points="217.33,-295.23 227.92,-294.92 219.45,-288.56 217.33,-295.23"/>
</g>
<!-- Node4 -->
<g id="node4" class="node">
<title>Node4</title>
<g id="a_node4"><a xlink:href="classcore_1_1_descriptor_event_receiver.html#ac80fc901f941c059a6ebdb28147b25a2" target="_top" xlink:title=" ">
<polygon fill="white" stroke="black" points="204.5,-245.5 204.5,-275.5 368.5,-275.5 368.5,-245.5 204.5,-245.5"/>
<text text-anchor="start" x="212.5" y="-263.5" font-family="Helvetica,sans-Serif" font-size="10.00">core::DescriptorEventReceiver</text>
<text text-anchor="middle" x="286.5" y="-252.5" font-family="Helvetica,sans-Serif" font-size="10.00">::isSuspended</text>
</a>
</g>
</g>
<!-- Node1&#45;&gt;Node4 -->
<g id="edge3" class="edge">
<title>Node1&#45;&gt;Node4</title>
<path fill="none" stroke="midnightblue" d="M117.3,-201.55C140.86,-212.07 173.54,-226.04 203,-236.5 208.58,-238.48 214.42,-240.43 220.3,-242.3"/>
<polygon fill="midnightblue" stroke="midnightblue" points="219.6,-245.75 230.19,-245.37 221.68,-239.06 219.6,-245.75"/>
</g>
<!-- Node5 -->
<g id="node5" class="node">
<title>Node5</title>
<g id="a_node5"><a xlink:href="classcore_1_1_descriptor_event_publisher.html#a28bc1eb205ca9783d96a4bfedf344e8f" target="_top" xlink:title=" ">
<polygon fill="white" stroke="black" points="203,-196.5 203,-226.5 370,-226.5 370,-196.5 203,-196.5"/>
<text text-anchor="start" x="211" y="-214.5" font-family="Helvetica,sans-Serif" font-size="10.00">core::DescriptorEventPublisher</text>
<text text-anchor="middle" x="286.5" y="-203.5" font-family="Helvetica,sans-Serif" font-size="10.00">::muxDel</text>
</a>
</g>
</g>
<!-- Node1&#45;&gt;Node5 -->
<g id="edge4" class="edge">
<title>Node1&#45;&gt;Node5</title>
<path fill="none" stroke="midnightblue" d="M167.12,-196.78C175.61,-197.83 184.27,-198.91 192.85,-199.98"/>
<polygon fill="midnightblue" stroke="midnightblue" points="192.52,-203.46 202.87,-201.22 193.38,-196.52 192.52,-203.46"/>
</g>
<!-- Node6 -->
<g id="node6" class="node">
<title>Node6</title>
<g id="a_node6"><a xlink:href="classcore_1_1_descriptor_event_publisher.html#a5e0e1a78a4bae48537ba6d0425a7c1cf" target="_top" xlink:title=" ">
<polygon fill="white" stroke="black" points="203,-147.5 203,-177.5 370,-177.5 370,-147.5 203,-147.5"/>
<text text-anchor="start" x="211" y="-165.5" font-family="Helvetica,sans-Serif" font-size="10.00">core::DescriptorEventPublisher</text>
<text text-anchor="middle" x="286.5" y="-154.5" font-family="Helvetica,sans-Serif" font-size="10.00">::muxOff</text>
</a>
</g>
</g>
<!-- Node1&#45;&gt;Node6 -->
<g id="edge5" class="edge">
<title>Node1&#45;&gt;Node6</title>
<path fill="none" stroke="midnightblue" d="M167.12,-176.63C175.61,-175.62 184.27,-174.59 192.85,-173.56"/>
<polygon fill="midnightblue" stroke="midnightblue" points="193.36,-177.03 202.87,-172.37 192.53,-170.08 193.36,-177.03"/>
</g>
<!-- Node7 -->
<g id="node7" class="node">
<title>Node7</title>
<g id="a_node7"><a xlink:href="classcore_1_1_descriptor_event_publisher.html#a8cdba59fd3522f1e108a21f6f818840e" target="_top" xlink:title=" ">
<polygon fill="white" stroke="black" points="203,-98.5 203,-128.5 370,-128.5 370,-98.5 203,-98.5"/>
<text text-anchor="start" x="211" y="-116.5" font-family="Helvetica,sans-Serif" font-size="10.00">core::DescriptorEventPublisher</text>
<text text-anchor="middle" x="286.5" y="-105.5" font-family="Helvetica,sans-Serif" font-size="10.00">::muxOn</text>
</a>
</g>
</g>
<!-- Node1&#45;&gt;Node7 -->
<g id="edge6" class="edge">
<title>Node1&#45;&gt;Node7</title>
<path fill="none" stroke="midnightblue" d="M119.18,-171.48C142.64,-161.57 174.43,-148.59 203,-138.5 209.69,-136.14 216.74,-133.79 223.78,-131.53"/>
<polygon fill="midnightblue" stroke="midnightblue" points="224.85,-134.87 233.34,-128.52 222.75,-128.19 224.85,-134.87"/>
</g>
<!-- Node8 -->
<g id="node8" class="node">
<title>Node8</title>
<g id="a_node8"><a xlink:href="classcore_1_1_descriptor_event_receiver.html#a53b16eb14da654bfaf9a7e28e3024ff1" target="_top" xlink:title=" ">
<polygon fill="white" stroke="black" points="204.5,-49.5 204.5,-79.5 368.5,-79.5 368.5,-49.5 204.5,-49.5"/>
<text text-anchor="start" x="212.5" y="-67.5" font-family="Helvetica,sans-Serif" font-size="10.00">core::DescriptorEventReceiver</text>
<text text-anchor="middle" x="286.5" y="-56.5" font-family="Helvetica,sans-Serif" font-size="10.00">::setDisabled</text>
</a>
</g>
</g>
<!-- Node1&#45;&gt;Node8 -->
<g id="edge7" class="edge">
<title>Node1&#45;&gt;Node8</title>
<path fill="none" stroke="midnightblue" d="M99.17,-171.18C120.27,-149.97 161.25,-111.78 203,-89.5 207.23,-87.24 211.7,-85.16 216.28,-83.24"/>
<polygon fill="midnightblue" stroke="midnightblue" points="217.74,-86.42 225.78,-79.53 215.19,-79.9 217.74,-86.42"/>
</g>
<!-- Node10 -->
<g id="node10" class="node">
<title>Node10</title>
<g id="a_node10"><a xlink:href="classcore_1_1_descriptor_event_receiver.html#a550c1ba95dcb4e286eaf680eed1ca11b" target="_top" xlink:title=" ">
<polygon fill="white" stroke="black" points="204.5,-0.5 204.5,-30.5 368.5,-30.5 368.5,-0.5 204.5,-0.5"/>
<text text-anchor="start" x="212.5" y="-18.5" font-family="Helvetica,sans-Serif" font-size="10.00">core::DescriptorEventReceiver</text>
<text text-anchor="middle" x="286.5" y="-7.5" font-family="Helvetica,sans-Serif" font-size="10.00">::triggered</text>
</a>
</g>
</g>
<!-- Node1&#45;&gt;Node10 -->
<g id="edge9" class="edge">
<title>Node1&#45;&gt;Node10</title>
<path fill="none" stroke="midnightblue" d="M92.73,-171.17C109.49,-141.45 150.43,-75.82 203,-40.5 205.95,-38.52 209.06,-36.69 212.27,-35.01"/>
<polygon fill="midnightblue" stroke="midnightblue" points="214.02,-38.05 221.57,-30.62 211.03,-31.72 214.02,-38.05"/>
</g>
<!-- Node9 -->
<g id="node9" class="node">
<title>Node9</title>
<g id="a_node9"><a xlink:href="classcore_1_1_observer.html#a00846551b99f8dbde144dd8b7a0a2aef" target="_top" xlink:title=" ">
<polygon fill="white" stroke="black" points="406,-55 406,-74 558,-74 558,-55 406,-55"/>
<text text-anchor="middle" x="482" y="-62" font-family="Helvetica,sans-Serif" font-size="10.00">core::Observer::unObserved</text>
</a>
</g>
</g>
<!-- Node8&#45;&gt;Node9 -->
<g id="edge8" class="edge">
<title>Node8&#45;&gt;Node9</title>
<path fill="none" stroke="midnightblue" d="M368.72,-64.5C377.66,-64.5 386.79,-64.5 395.78,-64.5"/>
<polygon fill="midnightblue" stroke="midnightblue" points="395.85,-68 405.85,-64.5 395.85,-61 395.85,-68"/>
</g>
</g>
</svg>
