<?xml version="1.0" encoding="UTF-8" standalone="no"?>
<!DOCTYPE svg PUBLIC "-//W3C//DTD SVG 1.1//EN"
 "http://www.w3.org/Graphics/SVG/1.1/DTD/svg11.dtd">
<!-- Generated by graphviz version 2.43.0 (0)
 -->
<!-- Title: core::socket::stream::SocketServer&lt; SocketServerT, SocketAcceptorT, SocketContextFactoryT &gt; Pages: 1 -->
<svg width="1408pt" height="532pt"
 viewBox="0.00 0.00 1408.00 532.00" xmlns="http://www.w3.org/2000/svg" xmlns:xlink="http://www.w3.org/1999/xlink">
<g id="graph0" class="graph" transform="scale(1 1) rotate(0) translate(4 528)">
<title>core::socket::stream::SocketServer&lt; SocketServerT, SocketAcceptorT, SocketContextFactoryT &gt;</title>
<polygon fill="white" stroke="transparent" points="-4,4 -4,-528 1404,-528 1404,4 -4,4"/>
<!-- Node1 -->
<g id="node1" class="node">
<title>Node1</title>
<g id="a_node1"><a xlink:title=" ">
<polygon fill="#bfbfbf" stroke="black" points="715,-414.5 715,-466.5 901,-466.5 901,-414.5 715,-414.5"/>
<text text-anchor="start" x="723" y="-454.5" font-family="Helvetica,sans-Serif" font-size="10.00">core::socket::stream</text>
<text text-anchor="start" x="723" y="-443.5" font-family="Helvetica,sans-Serif" font-size="10.00">::SocketServer&lt; SocketServer</text>
<text text-anchor="start" x="723" y="-432.5" font-family="Helvetica,sans-Serif" font-size="10.00">T, SocketAcceptorT, SocketContext</text>
<text text-anchor="middle" x="808" y="-421.5" font-family="Helvetica,sans-Serif" font-size="10.00">FactoryT &gt;</text>
</a>
</g>
</g>
<!-- Node3 -->
<g id="node3" class="node">
<title>Node3</title>
<g id="a_node3"><a xlink:href="classcore_1_1socket_1_1stream_1_1_socket_server.html" target="_top" xlink:title=" ">
<polygon fill="white" stroke="black" points="609,-270.5 609,-333.5 795,-333.5 795,-270.5 609,-270.5"/>
<text text-anchor="start" x="617" y="-321.5" font-family="Helvetica,sans-Serif" font-size="10.00">core::socket::stream</text>
<text text-anchor="start" x="617" y="-310.5" font-family="Helvetica,sans-Serif" font-size="10.00">::SocketServer&lt; SocketServer</text>
<text text-anchor="start" x="617" y="-299.5" font-family="Helvetica,sans-Serif" font-size="10.00">T, core::socket::stream::</text>
<text text-anchor="start" x="617" y="-288.5" font-family="Helvetica,sans-Serif" font-size="10.00">tls::SocketAcceptor, SocketContext</text>
<text text-anchor="middle" x="702" y="-277.5" font-family="Helvetica,sans-Serif" font-size="10.00">FactoryT &gt;</text>
</a>
</g>
</g>
<!-- Node1&#45;&gt;Node3 -->
<g id="edge2" class="edge">
<title>Node1&#45;&gt;Node3</title>
<path fill="none" stroke="orange" d="M758.74,-407.85C754.51,-404.13 750.51,-400.16 747,-396 731.5,-377.63 719.9,-353.01 712.36,-333.72"/>
<polygon fill="orange" stroke="orange" points="756.59,-410.62 766.54,-414.27 761.04,-405.21 756.59,-410.62"/>
<text text-anchor="start" x="747" y="-388" font-family="Helvetica,sans-Serif" font-size="10.00"> &lt; SocketServerT, core</text>
<text text-anchor="start" x="747" y="-377" font-family="Helvetica,sans-Serif" font-size="10.00">::socket::stream::tls</text>
<text text-anchor="start" x="747" y="-366" font-family="Helvetica,sans-Serif" font-size="10.00">::SocketAcceptor, SocketContext</text>
<text text-anchor="middle" x="826" y="-355" font-family="Helvetica,sans-Serif" font-size="10.00">FactoryT &gt;</text>
</g>
<!-- Node13 -->
<g id="node13" class="node">
<title>Node13</title>
<g id="a_node13"><a xlink:href="classcore_1_1socket_1_1stream_1_1_socket_server.html" target="_top" xlink:title=" ">
<polygon fill="white" stroke="black" points="853,-270.5 853,-333.5 1059,-333.5 1059,-270.5 853,-270.5"/>
<text text-anchor="start" x="861" y="-321.5" font-family="Helvetica,sans-Serif" font-size="10.00">core::socket::stream</text>
<text text-anchor="start" x="861" y="-310.5" font-family="Helvetica,sans-Serif" font-size="10.00">::SocketServer&lt; SocketServer</text>
<text text-anchor="start" x="861" y="-299.5" font-family="Helvetica,sans-Serif" font-size="10.00">T, core::socket::stream::</text>
<text text-anchor="start" x="861" y="-288.5" font-family="Helvetica,sans-Serif" font-size="10.00">legacy::SocketAcceptor, SocketContext</text>
<text text-anchor="middle" x="956" y="-277.5" font-family="Helvetica,sans-Serif" font-size="10.00">FactoryT &gt;</text>
</a>
</g>
</g>
<!-- Node1&#45;&gt;Node13 -->
<g id="edge12" class="edge">
<title>Node1&#45;&gt;Node13</title>
<path fill="none" stroke="orange" d="M887.44,-409.3C893.72,-405.33 899.69,-400.91 905,-396 923.54,-378.89 936.84,-353.46 945.2,-333.51"/>
<polygon fill="orange" stroke="orange" points="885.55,-406.36 878.7,-414.44 889.09,-412.39 885.55,-406.36"/>
<text text-anchor="start" x="936" y="-388" font-family="Helvetica,sans-Serif" font-size="10.00"> &lt; SocketServerT, core</text>
<text text-anchor="start" x="936" y="-377" font-family="Helvetica,sans-Serif" font-size="10.00">::socket::stream::legacy</text>
<text text-anchor="start" x="936" y="-366" font-family="Helvetica,sans-Serif" font-size="10.00">::SocketAcceptor, SocketContext</text>
<text text-anchor="middle" x="1015" y="-355" font-family="Helvetica,sans-Serif" font-size="10.00">FactoryT &gt;</text>
</g>
<!-- Node2 -->
<g id="node2" class="node">
<title>Node2</title>
<g id="a_node2"><a xlink:title=" ">
<polygon fill="white" stroke="#bfbfbf" points="765,-504.5 765,-523.5 851,-523.5 851,-504.5 765,-504.5"/>
<text text-anchor="middle" x="808" y="-511.5" font-family="Helvetica,sans-Serif" font-size="10.00">SocketServerT</text>
</a>
</g>
</g>
<!-- Node2&#45;&gt;Node1 -->
<g id="edge1" class="edge">
<title>Node2&#45;&gt;Node1</title>
<path fill="none" stroke="midnightblue" d="M808,-494.02C808,-485.63 808,-475.64 808,-466.65"/>
<polygon fill="none" stroke="midnightblue" points="804.5,-494.23 808,-504.23 811.5,-494.23 804.5,-494.23"/>
</g>
<!-- Node4 -->
<g id="node4" class="node">
<title>Node4</title>
<g id="a_node4"><a xlink:href="classcore_1_1socket_1_1stream_1_1tls_1_1_socket_server.html" target="_top" xlink:title=" ">
<polygon fill="white" stroke="black" points="377,-180.5 377,-232.5 543,-232.5 543,-180.5 377,-180.5"/>
<text text-anchor="start" x="385" y="-220.5" font-family="Helvetica,sans-Serif" font-size="10.00">core::socket::stream</text>
<text text-anchor="start" x="385" y="-209.5" font-family="Helvetica,sans-Serif" font-size="10.00">::tls::SocketServer&lt;</text>
<text text-anchor="start" x="385" y="-198.5" font-family="Helvetica,sans-Serif" font-size="10.00"> SocketServerT, SocketContext</text>
<text text-anchor="middle" x="460" y="-187.5" font-family="Helvetica,sans-Serif" font-size="10.00">FactoryT &gt;</text>
</a>
</g>
</g>
<!-- Node3&#45;&gt;Node4 -->
<g id="edge3" class="edge">
<title>Node3&#45;&gt;Node4</title>
<path fill="none" stroke="midnightblue" d="M613.36,-266.75C584.07,-255.44 552.05,-243.06 524.88,-232.57"/>
<polygon fill="none" stroke="midnightblue" points="612.17,-270.05 622.76,-270.38 614.69,-263.52 612.17,-270.05"/>
</g>
<!-- Node5 -->
<g id="node5" class="node">
<title>Node5</title>
<g id="a_node5"><a xlink:href="classweb_1_1http_1_1server_1_1_server.html" target="_top" xlink:title=" ">
<polygon fill="white" stroke="black" points="14.5,-85 14.5,-137 167.5,-137 167.5,-85 14.5,-85"/>
<text text-anchor="start" x="22.5" y="-125" font-family="Helvetica,sans-Serif" font-size="10.00">web::http::server::</text>
<text text-anchor="start" x="22.5" y="-114" font-family="Helvetica,sans-Serif" font-size="10.00">Server&lt; net::in::stream</text>
<text text-anchor="start" x="22.5" y="-103" font-family="Helvetica,sans-Serif" font-size="10.00">::tls::SocketServer, Request,</text>
<text text-anchor="middle" x="91" y="-92" font-family="Helvetica,sans-Serif" font-size="10.00"> Response &gt;</text>
</a>
</g>
</g>
<!-- Node4&#45;&gt;Node5 -->
<g id="edge4" class="edge">
<title>Node4&#45;&gt;Node5</title>
<path fill="none" stroke="midnightblue" d="M366.99,-187.37C312.43,-176.06 242.37,-160.39 181,-143 174.64,-141.2 168.07,-139.2 161.51,-137.12"/>
<polygon fill="none" stroke="midnightblue" points="366.49,-190.84 376.99,-189.43 367.9,-183.99 366.49,-190.84"/>
</g>
<!-- Node7 -->
<g id="node7" class="node">
<title>Node7</title>
<g id="a_node7"><a xlink:href="classweb_1_1http_1_1server_1_1_server.html" target="_top" xlink:title=" ">
<polygon fill="white" stroke="black" points="190.5,-79.5 190.5,-142.5 357.5,-142.5 357.5,-79.5 190.5,-79.5"/>
<text text-anchor="start" x="198.5" y="-130.5" font-family="Helvetica,sans-Serif" font-size="10.00">web::http::server::</text>
<text text-anchor="start" x="198.5" y="-119.5" font-family="Helvetica,sans-Serif" font-size="10.00">Server&lt; net::un::stream</text>
<text text-anchor="start" x="198.5" y="-108.5" font-family="Helvetica,sans-Serif" font-size="10.00">::tls::SocketServer, web</text>
<text text-anchor="start" x="198.5" y="-97.5" font-family="Helvetica,sans-Serif" font-size="10.00">::http::server::Request,</text>
<text text-anchor="middle" x="274" y="-86.5" font-family="Helvetica,sans-Serif" font-size="10.00"> web::http::server::Response &gt;</text>
</a>
</g>
</g>
<!-- Node4&#45;&gt;Node7 -->
<g id="edge6" class="edge">
<title>Node4&#45;&gt;Node7</title>
<path fill="none" stroke="midnightblue" d="M401,-175.84C379.93,-165.25 356.16,-153.3 334.94,-142.63"/>
<polygon fill="none" stroke="midnightblue" points="399.65,-179.08 410.16,-180.44 402.79,-172.83 399.65,-179.08"/>
</g>
<!-- Node9 -->
<g id="node9" class="node">
<title>Node9</title>
<g id="a_node9"><a xlink:href="classweb_1_1http_1_1server_1_1_server.html" target="_top" xlink:title=" ">
<polygon fill="white" stroke="black" points="376.5,-79.5 376.5,-142.5 543.5,-142.5 543.5,-79.5 376.5,-79.5"/>
<text text-anchor="start" x="384.5" y="-130.5" font-family="Helvetica,sans-Serif" font-size="10.00">web::http::server::</text>
<text text-anchor="start" x="384.5" y="-119.5" font-family="Helvetica,sans-Serif" font-size="10.00">Server&lt; net::in6::stream</text>
<text text-anchor="start" x="384.5" y="-108.5" font-family="Helvetica,sans-Serif" font-size="10.00">::tls::SocketServer, web</text>
<text text-anchor="start" x="384.5" y="-97.5" font-family="Helvetica,sans-Serif" font-size="10.00">::http::server::Request,</text>
<text text-anchor="middle" x="460" y="-86.5" font-family="Helvetica,sans-Serif" font-size="10.00"> web::http::server::Response &gt;</text>
</a>
</g>
</g>
<!-- Node4&#45;&gt;Node9 -->
<g id="edge8" class="edge">
<title>Node4&#45;&gt;Node9</title>
<path fill="none" stroke="midnightblue" d="M460,-170.22C460,-161.2 460,-151.58 460,-142.8"/>
<polygon fill="none" stroke="midnightblue" points="456.5,-170.44 460,-180.44 463.5,-170.44 456.5,-170.44"/>
</g>
<!-- Node11 -->
<g id="node11" class="node">
<title>Node11</title>
<g id="a_node11"><a xlink:href="classweb_1_1http_1_1server_1_1_server.html" target="_top" xlink:title=" ">
<polygon fill="white" stroke="black" points="561.5,-79.5 561.5,-142.5 728.5,-142.5 728.5,-79.5 561.5,-79.5"/>
<text text-anchor="start" x="569.5" y="-130.5" font-family="Helvetica,sans-Serif" font-size="10.00">web::http::server::</text>
<text text-anchor="start" x="569.5" y="-119.5" font-family="Helvetica,sans-Serif" font-size="10.00">Server&lt; net::rc::stream</text>
<text text-anchor="start" x="569.5" y="-108.5" font-family="Helvetica,sans-Serif" font-size="10.00">::tls::SocketServer, web</text>
<text text-anchor="start" x="569.5" y="-97.5" font-family="Helvetica,sans-Serif" font-size="10.00">::http::server::Request,</text>
<text text-anchor="middle" x="645" y="-86.5" font-family="Helvetica,sans-Serif" font-size="10.00"> web::http::server::Response &gt;</text>
</a>
</g>
</g>
<!-- Node4&#45;&gt;Node11 -->
<g id="edge10" class="edge">
<title>Node4&#45;&gt;Node11</title>
<path fill="none" stroke="midnightblue" d="M518.69,-175.84C539.64,-165.25 563.28,-153.3 584.39,-142.63"/>
<polygon fill="none" stroke="midnightblue" points="516.92,-172.81 509.58,-180.44 520.08,-179.06 516.92,-172.81"/>
</g>
<!-- Node6 -->
<g id="node6" class="node">
<title>Node6</title>
<g id="a_node6"><a xlink:href="classweb_1_1http_1_1tls_1_1in_1_1_server.html" target="_top" xlink:title=" ">
<polygon fill="white" stroke="black" points="0,-6 0,-36 170,-36 170,-6 0,-6"/>
<text text-anchor="start" x="8" y="-24" font-family="Helvetica,sans-Serif" font-size="10.00">web::http::tls::in</text>
<text text-anchor="middle" x="85" y="-13" font-family="Helvetica,sans-Serif" font-size="10.00">::Server&lt; Request, Response &gt;</text>
</a>
</g>
</g>
<!-- Node5&#45;&gt;Node6 -->
<g id="edge5" class="edge">
<title>Node5&#45;&gt;Node6</title>
<path fill="none" stroke="midnightblue" d="M88.58,-74.57C87.67,-61.12 86.67,-46.56 85.97,-36.18"/>
<polygon fill="none" stroke="midnightblue" points="85.09,-74.81 89.26,-84.55 92.08,-74.33 85.09,-74.81"/>
</g>
<!-- Node8 -->
<g id="node8" class="node">
<title>Node8</title>
<g id="a_node8"><a xlink:href="classweb_1_1http_1_1tls_1_1un_1_1_server.html" target="_top" xlink:title=" ">
<polygon fill="white" stroke="black" points="188,-6 188,-36 358,-36 358,-6 188,-6"/>
<text text-anchor="start" x="196" y="-24" font-family="Helvetica,sans-Serif" font-size="10.00">web::http::tls::un</text>
<text text-anchor="middle" x="273" y="-13" font-family="Helvetica,sans-Serif" font-size="10.00">::Server&lt; Request, Response &gt;</text>
</a>
</g>
</g>
<!-- Node7&#45;&gt;Node8 -->
<g id="edge7" class="edge">
<title>Node7&#45;&gt;Node8</title>
<path fill="none" stroke="midnightblue" d="M273.53,-69C273.4,-57.19 273.26,-45.09 273.16,-36.13"/>
<polygon fill="none" stroke="midnightblue" points="270.04,-69.26 273.65,-79.22 277.04,-69.18 270.04,-69.26"/>
</g>
<!-- Node10 -->
<g id="node10" class="node">
<title>Node10</title>
<g id="a_node10"><a xlink:href="classweb_1_1http_1_1tls_1_1in6_1_1_server.html" target="_top" xlink:title=" ">
<polygon fill="white" stroke="black" points="376,-6 376,-36 546,-36 546,-6 376,-6"/>
<text text-anchor="start" x="384" y="-24" font-family="Helvetica,sans-Serif" font-size="10.00">web::http::tls::in6</text>
<text text-anchor="middle" x="461" y="-13" font-family="Helvetica,sans-Serif" font-size="10.00">::Server&lt; Request, Response &gt;</text>
</a>
</g>
</g>
<!-- Node9&#45;&gt;Node10 -->
<g id="edge9" class="edge">
<title>Node9&#45;&gt;Node10</title>
<path fill="none" stroke="midnightblue" d="M460.47,-69C460.6,-57.19 460.74,-45.09 460.84,-36.13"/>
<polygon fill="none" stroke="midnightblue" points="456.96,-69.18 460.35,-79.22 463.96,-69.26 456.96,-69.18"/>
</g>
<!-- Node12 -->
<g id="node12" class="node">
<title>Node12</title>
<g id="a_node12"><a xlink:href="classweb_1_1http_1_1tls_1_1rc_1_1_server.html" target="_top" xlink:title=" ">
<polygon fill="white" stroke="black" points="564,-6 564,-36 734,-36 734,-6 564,-6"/>
<text text-anchor="start" x="572" y="-24" font-family="Helvetica,sans-Serif" font-size="10.00">web::http::tls::rc</text>
<text text-anchor="middle" x="649" y="-13" font-family="Helvetica,sans-Serif" font-size="10.00">::Server&lt; Request, Response &gt;</text>
</a>
</g>
</g>
<!-- Node11&#45;&gt;Node12 -->
<g id="edge11" class="edge">
<title>Node11&#45;&gt;Node12</title>
<path fill="none" stroke="midnightblue" d="M646.86,-69C647.4,-57.19 647.95,-45.09 648.36,-36.13"/>
<polygon fill="none" stroke="midnightblue" points="643.36,-69.07 646.4,-79.22 650.35,-69.39 643.36,-69.07"/>
</g>
<!-- Node14 -->
<g id="node14" class="node">
<title>Node14</title>
<g id="a_node14"><a xlink:href="classcore_1_1socket_1_1stream_1_1legacy_1_1_socket_server.html" target="_top" xlink:title=" ">
<polygon fill="white" stroke="black" points="910,-180.5 910,-232.5 1084,-232.5 1084,-180.5 910,-180.5"/>
<text text-anchor="start" x="918" y="-220.5" font-family="Helvetica,sans-Serif" font-size="10.00">core::socket::stream</text>
<text text-anchor="start" x="918" y="-209.5" font-family="Helvetica,sans-Serif" font-size="10.00">::legacy::SocketServer</text>
<text text-anchor="start" x="918" y="-198.5" font-family="Helvetica,sans-Serif" font-size="10.00">&lt; SocketServerT, SocketContext</text>
<text text-anchor="middle" x="997" y="-187.5" font-family="Helvetica,sans-Serif" font-size="10.00">FactoryT &gt;</text>
</a>
</g>
</g>
<!-- Node13&#45;&gt;Node14 -->
<g id="edge13" class="edge">
<title>Node13&#45;&gt;Node14</title>
<path fill="none" stroke="midnightblue" d="M973.56,-260.94C977.79,-251.31 982.18,-241.29 986.01,-232.57"/>
<polygon fill="none" stroke="midnightblue" points="970.24,-259.82 969.42,-270.38 976.65,-262.63 970.24,-259.82"/>
</g>
<!-- Node15 -->
<g id="node15" class="node">
<title>Node15</title>
<g id="a_node15"><a xlink:href="classweb_1_1http_1_1server_1_1_server.html" target="_top" xlink:title=" ">
<polygon fill="white" stroke="black" points="746.5,-79.5 746.5,-142.5 913.5,-142.5 913.5,-79.5 746.5,-79.5"/>
<text text-anchor="start" x="754.5" y="-130.5" font-family="Helvetica,sans-Serif" font-size="10.00">web::http::server::</text>
<text text-anchor="start" x="754.5" y="-119.5" font-family="Helvetica,sans-Serif" font-size="10.00">Server&lt; net::in6::stream</text>
<text text-anchor="start" x="754.5" y="-108.5" font-family="Helvetica,sans-Serif" font-size="10.00">::legacy::SocketServer,</text>
<text text-anchor="start" x="754.5" y="-97.5" font-family="Helvetica,sans-Serif" font-size="10.00"> web::http::server::Request,</text>
<text text-anchor="middle" x="830" y="-86.5" font-family="Helvetica,sans-Serif" font-size="10.00"> web::http::server::Response &gt;</text>
</a>
</g>
</g>
<!-- Node14&#45;&gt;Node15 -->
<g id="edge14" class="edge">
<title>Node14&#45;&gt;Node15</title>
<path fill="none" stroke="midnightblue" d="M943.51,-175.55C924.73,-165.04 903.6,-153.21 884.71,-142.63"/>
<polygon fill="none" stroke="midnightblue" points="941.81,-178.61 952.25,-180.44 945.23,-172.5 941.81,-178.61"/>
</g>
<!-- Node17 -->
<g id="node17" class="node">
<title>Node17</title>
<g id="a_node17"><a xlink:href="classweb_1_1http_1_1server_1_1_server.html" target="_top" xlink:title=" ">
<polygon fill="white" stroke="black" points="931.5,-85 931.5,-137 1062.5,-137 1062.5,-85 931.5,-85"/>
<text text-anchor="start" x="939.5" y="-125" font-family="Helvetica,sans-Serif" font-size="10.00">web::http::server::</text>
<text text-anchor="start" x="939.5" y="-114" font-family="Helvetica,sans-Serif" font-size="10.00">Server&lt; net::in::stream</text>
<text text-anchor="start" x="939.5" y="-103" font-family="Helvetica,sans-Serif" font-size="10.00">::legacy::SocketServer,</text>
<text text-anchor="middle" x="997" y="-92" font-family="Helvetica,sans-Serif" font-size="10.00"> Request, Response &gt;</text>
</a>
</g>
</g>
<!-- Node14&#45;&gt;Node17 -->
<g id="edge16" class="edge">
<title>Node14&#45;&gt;Node17</title>
<path fill="none" stroke="midnightblue" d="M997,-170.24C997,-159.23 997,-147.3 997,-137.13"/>
<polygon fill="none" stroke="midnightblue" points="993.5,-170.44 997,-180.44 1000.5,-170.44 993.5,-170.44"/>
</g>
<!-- Node19 -->
<g id="node19" class="node">
<title>Node19</title>
<g id="a_node19"><a xlink:href="classweb_1_1http_1_1server_1_1_server.html" target="_top" xlink:title=" ">
<polygon fill="white" stroke="black" points="1080.5,-79.5 1080.5,-142.5 1247.5,-142.5 1247.5,-79.5 1080.5,-79.5"/>
<text text-anchor="start" x="1088.5" y="-130.5" font-family="Helvetica,sans-Serif" font-size="10.00">web::http::server::</text>
<text text-anchor="start" x="1088.5" y="-119.5" font-family="Helvetica,sans-Serif" font-size="10.00">Server&lt; net::rc::stream</text>
<text text-anchor="start" x="1088.5" y="-108.5" font-family="Helvetica,sans-Serif" font-size="10.00">::legacy::SocketServer,</text>
<text text-anchor="start" x="1088.5" y="-97.5" font-family="Helvetica,sans-Serif" font-size="10.00"> web::http::server::Request,</text>
<text text-anchor="middle" x="1164" y="-86.5" font-family="Helvetica,sans-Serif" font-size="10.00"> web::http::server::Response &gt;</text>
</a>
</g>
</g>
<!-- Node14&#45;&gt;Node19 -->
<g id="edge18" class="edge">
<title>Node14&#45;&gt;Node19</title>
<path fill="none" stroke="midnightblue" d="M1050.49,-175.55C1069.27,-165.04 1090.4,-153.21 1109.29,-142.63"/>
<polygon fill="none" stroke="midnightblue" points="1048.77,-172.5 1041.75,-180.44 1052.19,-178.61 1048.77,-172.5"/>
</g>
<!-- Node21 -->
<g id="node21" class="node">
<title>Node21</title>
<g id="a_node21"><a xlink:href="classweb_1_1http_1_1server_1_1_server.html" target="_top" xlink:title=" ">
<polygon fill="white" stroke="black" points="1266,-85 1266,-137 1400,-137 1400,-85 1266,-85"/>
<text text-anchor="start" x="1274" y="-125" font-family="Helvetica,sans-Serif" font-size="10.00">web::http::server::</text>
<text text-anchor="start" x="1274" y="-114" font-family="Helvetica,sans-Serif" font-size="10.00">Server&lt; net::un::stream</text>
<text text-anchor="start" x="1274" y="-103" font-family="Helvetica,sans-Serif" font-size="10.00">::legacy::SocketServer,</text>
<text text-anchor="middle" x="1333" y="-92" font-family="Helvetica,sans-Serif" font-size="10.00"> Request, Response &gt;</text>
</a>
</g>
</g>
<!-- Node14&#45;&gt;Node21 -->
<g id="edge20" class="edge">
<title>Node14&#45;&gt;Node21</title>
<path fill="none" stroke="midnightblue" d="M1094.29,-185.78C1143.55,-174.88 1203.98,-160.08 1257,-143 1262.56,-141.21 1268.29,-139.2 1273.99,-137.08"/>
<polygon fill="none" stroke="midnightblue" points="1093.3,-182.42 1084.28,-187.98 1094.8,-189.25 1093.3,-182.42"/>
</g>
<!-- Node16 -->
<g id="node16" class="node">
<title>Node16</title>
<g id="a_node16"><a xlink:href="classweb_1_1http_1_1legacy_1_1in6_1_1_server.html" target="_top" xlink:title=" ">
<polygon fill="white" stroke="black" points="768.5,-0.5 768.5,-41.5 891.5,-41.5 891.5,-0.5 768.5,-0.5"/>
<text text-anchor="start" x="776.5" y="-29.5" font-family="Helvetica,sans-Serif" font-size="10.00">web::http::legacy::</text>
<text text-anchor="start" x="776.5" y="-18.5" font-family="Helvetica,sans-Serif" font-size="10.00">in6::Server&lt; Request,</text>
<text text-anchor="middle" x="830" y="-7.5" font-family="Helvetica,sans-Serif" font-size="10.00"> Response &gt;</text>
</a>
</g>
</g>
<!-- Node15&#45;&gt;Node16 -->
<g id="edge15" class="edge">
<title>Node15&#45;&gt;Node16</title>
<path fill="none" stroke="midnightblue" d="M830,-69.02C830,-59.48 830,-49.74 830,-41.62"/>
<polygon fill="none" stroke="midnightblue" points="826.5,-69.22 830,-79.22 833.5,-69.22 826.5,-69.22"/>
</g>
<!-- Node18 -->
<g id="node18" class="node">
<title>Node18</title>
<g id="a_node18"><a xlink:href="classweb_1_1http_1_1legacy_1_1in_1_1_server.html" target="_top" xlink:title=" ">
<polygon fill="white" stroke="black" points="938.5,-0.5 938.5,-41.5 1055.5,-41.5 1055.5,-0.5 938.5,-0.5"/>
<text text-anchor="start" x="946.5" y="-29.5" font-family="Helvetica,sans-Serif" font-size="10.00">web::http::legacy::</text>
<text text-anchor="start" x="946.5" y="-18.5" font-family="Helvetica,sans-Serif" font-size="10.00">in::Server&lt; Request,</text>
<text text-anchor="middle" x="997" y="-7.5" font-family="Helvetica,sans-Serif" font-size="10.00"> Response &gt;</text>
</a>
</g>
</g>
<!-- Node17&#45;&gt;Node18 -->
<g id="edge17" class="edge">
<title>Node17&#45;&gt;Node18</title>
<path fill="none" stroke="midnightblue" d="M997,-74.51C997,-63.26 997,-51.23 997,-41.52"/>
<polygon fill="none" stroke="midnightblue" points="993.5,-74.55 997,-84.55 1000.5,-74.55 993.5,-74.55"/>
</g>
<!-- Node20 -->
<g id="node20" class="node">
<title>Node20</title>
<g id="a_node20"><a xlink:href="classweb_1_1http_1_1legacy_1_1rc_1_1_server.html" target="_top" xlink:title=" ">
<polygon fill="white" stroke="black" points="1105.5,-0.5 1105.5,-41.5 1222.5,-41.5 1222.5,-0.5 1105.5,-0.5"/>
<text text-anchor="start" x="1113.5" y="-29.5" font-family="Helvetica,sans-Serif" font-size="10.00">web::http::legacy::</text>
<text text-anchor="start" x="1113.5" y="-18.5" font-family="Helvetica,sans-Serif" font-size="10.00">rc::Server&lt; Request,</text>
<text text-anchor="middle" x="1164" y="-7.5" font-family="Helvetica,sans-Serif" font-size="10.00"> Response &gt;</text>
</a>
</g>
</g>
<!-- Node19&#45;&gt;Node20 -->
<g id="edge19" class="edge">
<title>Node19&#45;&gt;Node20</title>
<path fill="none" stroke="midnightblue" d="M1164,-69.02C1164,-59.48 1164,-49.74 1164,-41.62"/>
<polygon fill="none" stroke="midnightblue" points="1160.5,-69.22 1164,-79.22 1167.5,-69.22 1160.5,-69.22"/>
</g>
<!-- Node22 -->
<g id="node22" class="node">
<title>Node22</title>
<g id="a_node22"><a xlink:href="classweb_1_1http_1_1legacy_1_1un_1_1_server.html" target="_top" xlink:title=" ">
<polygon fill="white" stroke="black" points="1273,-0.5 1273,-41.5 1393,-41.5 1393,-0.5 1273,-0.5"/>
<text text-anchor="start" x="1281" y="-29.5" font-family="Helvetica,sans-Serif" font-size="10.00">web::http::legacy::</text>
<text text-anchor="start" x="1281" y="-18.5" font-family="Helvetica,sans-Serif" font-size="10.00">un::Server&lt; Request,</text>
<text text-anchor="middle" x="1333" y="-7.5" font-family="Helvetica,sans-Serif" font-size="10.00"> Response &gt;</text>
</a>
</g>
</g>
<!-- Node21&#45;&gt;Node22 -->
<g id="edge21" class="edge">
<title>Node21&#45;&gt;Node22</title>
<path fill="none" stroke="midnightblue" d="M1333,-74.51C1333,-63.26 1333,-51.23 1333,-41.52"/>
<polygon fill="none" stroke="midnightblue" points="1329.5,-74.55 1333,-84.55 1336.5,-74.55 1329.5,-74.55"/>
</g>
</g>
</svg>
