<?xml version="1.0" encoding="UTF-8" standalone="no"?>
<!DOCTYPE svg PUBLIC "-//W3C//DTD SVG 1.1//EN"
 "http://www.w3.org/Graphics/SVG/1.1/DTD/svg11.dtd">
<!-- Generated by graphviz version 2.43.0 (0)
 -->
<!-- Title: database::mariadb::commands::async::MariaDBConnectCommand Pages: 1 -->
<svg width="201pt" height="529pt"
 viewBox="0.00 0.00 201.00 529.00" xmlns="http://www.w3.org/2000/svg" xmlns:xlink="http://www.w3.org/1999/xlink">
<g id="graph0" class="graph" transform="scale(1 1) rotate(0) translate(4 525)">
<title>database::mariadb::commands::async::MariaDBConnectCommand</title>
<polygon fill="white" stroke="transparent" points="-4,4 -4,-525 197,-525 197,4 -4,4"/>
<!-- Node1 -->
<g id="node1" class="node">
<title>Node1</title>
<g id="a_node1"><a xlink:title=" ">
<polygon fill="#bfbfbf" stroke="black" points="0,-0.5 0,-167.5 193,-167.5 193,-0.5 0,-0.5"/>
<text text-anchor="start" x="8" y="-155.5" font-family="Helvetica,sans-Serif" font-size="10.00">database::mariadb::</text>
<text text-anchor="start" x="8" y="-144.5" font-family="Helvetica,sans-Serif" font-size="10.00">commands::async::MariaDBConnect</text>
<text text-anchor="middle" x="96.5" y="-133.5" font-family="Helvetica,sans-Serif" font-size="10.00">Command</text>
<polyline fill="none" stroke="black" points="0,-126.5 193,-126.5 "/>
<text text-anchor="start" x="8" y="-114.5" font-family="Helvetica,sans-Serif" font-size="10.00"># ret</text>
<text text-anchor="start" x="8" y="-103.5" font-family="Helvetica,sans-Serif" font-size="10.00"># details</text>
<text text-anchor="start" x="8" y="-92.5" font-family="Helvetica,sans-Serif" font-size="10.00"># onConnecting</text>
<text text-anchor="start" x="8" y="-81.5" font-family="Helvetica,sans-Serif" font-size="10.00"># onConnect</text>
<polyline fill="none" stroke="black" points="0,-74.5 193,-74.5 "/>
<text text-anchor="start" x="8" y="-62.5" font-family="Helvetica,sans-Serif" font-size="10.00">+ MariaDBConnectCommand()</text>
<text text-anchor="start" x="8" y="-51.5" font-family="Helvetica,sans-Serif" font-size="10.00">+ commandStart()</text>
<text text-anchor="start" x="8" y="-40.5" font-family="Helvetica,sans-Serif" font-size="10.00">+ commandContinue()</text>
<text text-anchor="start" x="8" y="-29.5" font-family="Helvetica,sans-Serif" font-size="10.00">+ commandCompleted()</text>
<text text-anchor="start" x="8" y="-18.5" font-family="Helvetica,sans-Serif" font-size="10.00">+ commandError()</text>
<text text-anchor="start" x="8" y="-7.5" font-family="Helvetica,sans-Serif" font-size="10.00">+ commandInfo()</text>
</a>
</g>
</g>
<!-- Node2 -->
<g id="node2" class="node">
<title>Node2</title>
<g id="a_node2"><a xlink:href="classdatabase_1_1mariadb_1_1_maria_d_b_command_a_sync.html" target="_top" xlink:title=" ">
<polygon fill="white" stroke="black" points="27,-204.5 27,-272.5 166,-272.5 166,-204.5 27,-204.5"/>
<text text-anchor="start" x="35" y="-260.5" font-family="Helvetica,sans-Serif" font-size="10.00">database::mariadb::</text>
<text text-anchor="middle" x="96.5" y="-249.5" font-family="Helvetica,sans-Serif" font-size="10.00">MariaDBCommandASync</text>
<polyline fill="none" stroke="black" points="27,-242.5 166,-242.5 "/>
<text text-anchor="middle" x="96.5" y="-230.5" font-family="Helvetica,sans-Serif" font-size="10.00"> </text>
<polyline fill="none" stroke="black" points="27,-223.5 166,-223.5 "/>
<text text-anchor="start" x="35" y="-211.5" font-family="Helvetica,sans-Serif" font-size="10.00">+ MariaDBCommand()</text>
</a>
</g>
</g>
<!-- Node2&#45;&gt;Node1 -->
<g id="edge1" class="edge">
<title>Node2&#45;&gt;Node1</title>
<path fill="none" stroke="midnightblue" d="M96.5,-194.23C96.5,-185.88 96.5,-176.89 96.5,-167.76"/>
<polygon fill="none" stroke="midnightblue" points="93,-194.41 96.5,-204.41 100,-194.41 93,-194.41"/>
</g>
<!-- Node3 -->
<g id="node3" class="node">
<title>Node3</title>
<g id="a_node3"><a xlink:href="classdatabase_1_1mariadb_1_1_maria_d_b_command.html" target="_top" xlink:title=" ">
<polygon fill="white" stroke="black" points="23,-309.5 23,-520.5 170,-520.5 170,-309.5 23,-309.5"/>
<text text-anchor="start" x="31" y="-508.5" font-family="Helvetica,sans-Serif" font-size="10.00">database::mariadb::</text>
<text text-anchor="middle" x="96.5" y="-497.5" font-family="Helvetica,sans-Serif" font-size="10.00">MariaDBCommand</text>
<polyline fill="none" stroke="black" points="23,-490.5 170,-490.5 "/>
<text text-anchor="start" x="31" y="-478.5" font-family="Helvetica,sans-Serif" font-size="10.00">+ onError</text>
<text text-anchor="start" x="31" y="-467.5" font-family="Helvetica,sans-Serif" font-size="10.00"># name</text>
<text text-anchor="start" x="31" y="-456.5" font-family="Helvetica,sans-Serif" font-size="10.00"># mariaDBConnection</text>
<text text-anchor="start" x="31" y="-445.5" font-family="Helvetica,sans-Serif" font-size="10.00"># mysql</text>
<text text-anchor="start" x="31" y="-434.5" font-family="Helvetica,sans-Serif" font-size="10.00"># startTime</text>
<polyline fill="none" stroke="black" points="23,-427.5 170,-427.5 "/>
<text text-anchor="start" x="31" y="-415.5" font-family="Helvetica,sans-Serif" font-size="10.00">+ MariaDBCommand()</text>
<text text-anchor="start" x="31" y="-404.5" font-family="Helvetica,sans-Serif" font-size="10.00">+ ~MariaDBCommand()</text>
<text text-anchor="start" x="31" y="-393.5" font-family="Helvetica,sans-Serif" font-size="10.00">+ commandName()</text>
<text text-anchor="start" x="31" y="-382.5" font-family="Helvetica,sans-Serif" font-size="10.00">+ commandStart()</text>
<text text-anchor="start" x="31" y="-371.5" font-family="Helvetica,sans-Serif" font-size="10.00">+ setMariaDBConnection()</text>
<text text-anchor="start" x="31" y="-360.5" font-family="Helvetica,sans-Serif" font-size="10.00">+ commandContinue()</text>
<text text-anchor="start" x="31" y="-349.5" font-family="Helvetica,sans-Serif" font-size="10.00">+ commandCompleted()</text>
<text text-anchor="start" x="31" y="-338.5" font-family="Helvetica,sans-Serif" font-size="10.00">+ commandError()</text>
<text text-anchor="start" x="31" y="-327.5" font-family="Helvetica,sans-Serif" font-size="10.00">+ commandInfo()</text>
<text text-anchor="start" x="31" y="-316.5" font-family="Helvetica,sans-Serif" font-size="10.00">&#45; commandStart()</text>
</a>
</g>
</g>
<!-- Node3&#45;&gt;Node2 -->
<g id="edge2" class="edge">
<title>Node3&#45;&gt;Node2</title>
<path fill="none" stroke="midnightblue" d="M96.5,-299.38C96.5,-289.85 96.5,-280.81 96.5,-272.77"/>
<polygon fill="none" stroke="midnightblue" points="93,-299.47 96.5,-309.47 100,-299.47 93,-299.47"/>
</g>
</g>
</svg>
