<?xml version="1.0" encoding="UTF-8" standalone="no"?>
<!DOCTYPE svg PUBLIC "-//W3C//DTD SVG 1.1//EN"
 "http://www.w3.org/Graphics/SVG/1.1/DTD/svg11.dtd">
<!-- Generated by graphviz version 2.43.0 (0)
 -->
<!-- Title: CLI::Validator Pages: 1 -->
<svg width="1864pt" height="151pt"
 viewBox="0.00 0.00 1864.00 151.00" xmlns="http://www.w3.org/2000/svg" xmlns:xlink="http://www.w3.org/1999/xlink">
<g id="graph0" class="graph" transform="scale(1 1) rotate(0) translate(4 147)">
<title>CLI::Validator</title>
<polygon fill="white" stroke="transparent" points="-4,4 -4,-147 1860,-147 1860,4 -4,4"/>
<!-- Node1 -->
<g id="node1" class="node">
<title>Node1</title>
<g id="a_node1"><a xlink:title="Some validators that are provided.">
<polygon fill="#bfbfbf" stroke="black" points="819.5,-123.5 819.5,-142.5 901.5,-142.5 901.5,-123.5 819.5,-123.5"/>
<text text-anchor="middle" x="860.5" y="-130.5" font-family="Helvetica,sans-Serif" font-size="10.00">CLI::Validator</text>
</a>
</g>
</g>
<!-- Node2 -->
<g id="node2" class="node">
<title>Node2</title>
<g id="a_node2"><a xlink:href="class_c_l_i_1_1_as_number_with_unit.html" target="_top" xlink:title=" ">
<polygon fill="white" stroke="black" points="0,-62 0,-81 131,-81 131,-62 0,-62"/>
<text text-anchor="middle" x="65.5" y="-69" font-family="Helvetica,sans-Serif" font-size="10.00">CLI::AsNumberWithUnit</text>
</a>
</g>
</g>
<!-- Node1&#45;&gt;Node2 -->
<g id="edge1" class="edge">
<title>Node1&#45;&gt;Node2</title>
<path fill="none" stroke="midnightblue" d="M809.12,-131.05C690.74,-128.38 389.84,-118.76 140.5,-87 128.79,-85.51 116.16,-83.3 104.66,-81.06"/>
<polygon fill="none" stroke="midnightblue" points="809.26,-134.56 819.33,-131.28 809.41,-127.56 809.26,-134.56"/>
</g>
<!-- Node4 -->
<g id="node4" class="node">
<title>Node4</title>
<g id="a_node4"><a xlink:href="class_c_l_i_1_1_bound.html" target="_top" xlink:title="Produce a bounded range (factory). Min and max are inclusive.">
<polygon fill="white" stroke="black" points="149.5,-62 149.5,-81 217.5,-81 217.5,-62 149.5,-62"/>
<text text-anchor="middle" x="183.5" y="-69" font-family="Helvetica,sans-Serif" font-size="10.00">CLI::Bound</text>
</a>
</g>
</g>
<!-- Node1&#45;&gt;Node4 -->
<g id="edge3" class="edge">
<title>Node1&#45;&gt;Node4</title>
<path fill="none" stroke="midnightblue" d="M809.19,-132.75C700.55,-133.37 439.79,-129.8 226.5,-87 219.55,-85.6 212.17,-83.4 205.52,-81.12"/>
<polygon fill="none" stroke="midnightblue" points="809.25,-136.25 819.22,-132.67 809.2,-129.25 809.25,-136.25"/>
</g>
<!-- Node5 -->
<g id="node5" class="node">
<title>Node5</title>
<g id="a_node5"><a xlink:href="class_c_l_i_1_1_checked_transformer.html" target="_top" xlink:title="translate named items to other or a value set">
<polygon fill="white" stroke="black" points="235.5,-62 235.5,-81 373.5,-81 373.5,-62 235.5,-62"/>
<text text-anchor="middle" x="304.5" y="-69" font-family="Helvetica,sans-Serif" font-size="10.00">CLI::CheckedTransformer</text>
</a>
</g>
</g>
<!-- Node1&#45;&gt;Node5 -->
<g id="edge4" class="edge">
<title>Node1&#45;&gt;Node5</title>
<path fill="none" stroke="midnightblue" d="M809,-128.63C721.35,-122.55 537.69,-108.38 383.5,-87 371.62,-85.35 358.81,-83.18 347.03,-81.01"/>
<polygon fill="none" stroke="midnightblue" points="808.99,-132.13 819.21,-129.33 809.47,-125.15 808.99,-132.13"/>
</g>
<!-- Node6 -->
<g id="node6" class="node">
<title>Node6</title>
<g id="a_node6"><a xlink:href="class_c_l_i_1_1_custom_validator.html" target="_top" xlink:title="Class wrapping some of the accessors of Validator.">
<polygon fill="white" stroke="black" points="392,-62 392,-81 511,-81 511,-62 392,-62"/>
<text text-anchor="middle" x="451.5" y="-69" font-family="Helvetica,sans-Serif" font-size="10.00">CLI::CustomValidator</text>
</a>
</g>
</g>
<!-- Node1&#45;&gt;Node6 -->
<g id="edge5" class="edge">
<title>Node1&#45;&gt;Node6</title>
<path fill="none" stroke="midnightblue" d="M809.02,-126.41C742.26,-118.89 622.31,-104.41 520.5,-87 510.49,-85.29 499.71,-83.16 489.72,-81.07"/>
<polygon fill="none" stroke="midnightblue" points="808.94,-129.93 819.26,-127.56 809.72,-122.97 808.94,-129.93"/>
</g>
<!-- Node7 -->
<g id="node7" class="node">
<title>Node7</title>
<g id="a_node7"><a xlink:href="class_c_l_i_1_1_file_on_default_path.html" target="_top" xlink:title=" ">
<polygon fill="white" stroke="black" points="529,-62 529,-81 654,-81 654,-62 529,-62"/>
<text text-anchor="middle" x="591.5" y="-69" font-family="Helvetica,sans-Serif" font-size="10.00">CLI::FileOnDefaultPath</text>
</a>
</g>
</g>
<!-- Node1&#45;&gt;Node7 -->
<g id="edge6" class="edge">
<title>Node1&#45;&gt;Node7</title>
<path fill="none" stroke="midnightblue" d="M811.94,-121.26C759.75,-109.72 677.88,-91.61 629.97,-81.01"/>
<polygon fill="none" stroke="midnightblue" points="811.44,-124.73 821.96,-123.48 812.95,-117.9 811.44,-124.73"/>
</g>
<!-- Node8 -->
<g id="node8" class="node">
<title>Node8</title>
<g id="a_node8"><a xlink:href="class_c_l_i_1_1_is_member.html" target="_top" xlink:title="Verify items are in a set.">
<polygon fill="white" stroke="black" points="672.5,-62 672.5,-81 758.5,-81 758.5,-62 672.5,-62"/>
<text text-anchor="middle" x="715.5" y="-69" font-family="Helvetica,sans-Serif" font-size="10.00">CLI::IsMember</text>
</a>
</g>
</g>
<!-- Node1&#45;&gt;Node8 -->
<g id="edge7" class="edge">
<title>Node1&#45;&gt;Node8</title>
<path fill="none" stroke="midnightblue" d="M830.36,-119.63C802.19,-108.07 760.88,-91.12 736.24,-81.01"/>
<polygon fill="none" stroke="midnightblue" points="829.14,-122.92 839.73,-123.48 831.8,-116.44 829.14,-122.92"/>
</g>
<!-- Node9 -->
<g id="node9" class="node">
<title>Node9</title>
<g id="a_node9"><a xlink:href="class_c_l_i_1_1_range.html" target="_top" xlink:title="Produce a range (factory). Min and max are inclusive.">
<polygon fill="white" stroke="black" points="776.5,-62 776.5,-81 844.5,-81 844.5,-62 776.5,-62"/>
<text text-anchor="middle" x="810.5" y="-69" font-family="Helvetica,sans-Serif" font-size="10.00">CLI::Range</text>
</a>
</g>
</g>
<!-- Node1&#45;&gt;Node9 -->
<g id="edge8" class="edge">
<title>Node1&#45;&gt;Node9</title>
<path fill="none" stroke="midnightblue" d="M846.78,-115.67C837.35,-104.45 825.22,-90.02 817.65,-81.01"/>
<polygon fill="none" stroke="midnightblue" points="844.22,-118.07 853.34,-123.48 849.58,-113.57 844.22,-118.07"/>
</g>
<!-- Node10 -->
<g id="node10" class="node">
<title>Node10</title>
<g id="a_node10"><a xlink:href="class_c_l_i_1_1_transformer.html" target="_top" xlink:title="Translate named items to other or a value set.">
<polygon fill="white" stroke="black" points="863,-62 863,-81 960,-81 960,-62 863,-62"/>
<text text-anchor="middle" x="911.5" y="-69" font-family="Helvetica,sans-Serif" font-size="10.00">CLI::Transformer</text>
</a>
</g>
</g>
<!-- Node1&#45;&gt;Node10 -->
<g id="edge9" class="edge">
<title>Node1&#45;&gt;Node10</title>
<path fill="none" stroke="midnightblue" d="M874.5,-115.67C884.11,-104.45 896.49,-90.02 904.21,-81.01"/>
<polygon fill="none" stroke="midnightblue" points="871.66,-113.6 867.81,-123.48 876.97,-118.16 871.66,-113.6"/>
</g>
<!-- Node11 -->
<g id="node11" class="node">
<title>Node11</title>
<g id="a_node11"><a xlink:href="class_c_l_i_1_1_type_validator.html" target="_top" xlink:title="Validate the input as a particular type.">
<polygon fill="white" stroke="black" points="978.5,-56.5 978.5,-86.5 1082.5,-86.5 1082.5,-56.5 978.5,-56.5"/>
<text text-anchor="start" x="986.5" y="-74.5" font-family="Helvetica,sans-Serif" font-size="10.00">CLI::TypeValidator</text>
<text text-anchor="middle" x="1030.5" y="-63.5" font-family="Helvetica,sans-Serif" font-size="10.00">&lt; DesiredType &gt;</text>
</a>
</g>
</g>
<!-- Node1&#45;&gt;Node11 -->
<g id="edge10" class="edge">
<title>Node1&#45;&gt;Node11</title>
<path fill="none" stroke="midnightblue" d="M894.49,-120.1C922.15,-110.42 961.25,-96.74 990.43,-86.52"/>
<polygon fill="none" stroke="midnightblue" points="893.14,-116.87 884.86,-123.48 895.45,-123.48 893.14,-116.87"/>
</g>
<!-- Node12 -->
<g id="node12" class="node">
<title>Node12</title>
<g id="a_node12"><a xlink:href="class_c_l_i_1_1detail_1_1_existing_directory_validator.html" target="_top" xlink:title="Check for an existing directory (returns error message if check fails)">
<polygon fill="white" stroke="black" points="1101,-56.5 1101,-86.5 1256,-86.5 1256,-56.5 1101,-56.5"/>
<text text-anchor="start" x="1109" y="-74.5" font-family="Helvetica,sans-Serif" font-size="10.00">CLI::detail::ExistingDirectory</text>
<text text-anchor="middle" x="1178.5" y="-63.5" font-family="Helvetica,sans-Serif" font-size="10.00">Validator</text>
</a>
</g>
</g>
<!-- Node1&#45;&gt;Node12 -->
<g id="edge11" class="edge">
<title>Node1&#45;&gt;Node12</title>
<path fill="none" stroke="midnightblue" d="M911.73,-122.42C963.63,-112.7 1044.47,-97.58 1103.57,-86.52"/>
<polygon fill="none" stroke="midnightblue" points="910.93,-119 901.75,-124.28 912.22,-125.88 910.93,-119"/>
</g>
<!-- Node13 -->
<g id="node13" class="node">
<title>Node13</title>
<g id="a_node13"><a xlink:href="class_c_l_i_1_1detail_1_1_existing_file_validator.html" target="_top" xlink:title="Check for an existing file (returns error message if check fails)">
<polygon fill="white" stroke="black" points="1274,-56.5 1274,-86.5 1401,-86.5 1401,-56.5 1274,-56.5"/>
<text text-anchor="start" x="1282" y="-74.5" font-family="Helvetica,sans-Serif" font-size="10.00">CLI::detail::ExistingFile</text>
<text text-anchor="middle" x="1337.5" y="-63.5" font-family="Helvetica,sans-Serif" font-size="10.00">Validator</text>
</a>
</g>
</g>
<!-- Node1&#45;&gt;Node13 -->
<g id="edge12" class="edge">
<title>Node1&#45;&gt;Node13</title>
<path fill="none" stroke="midnightblue" d="M912.16,-127.73C989.33,-121.02 1139.16,-106.7 1265.5,-87 1268.27,-86.57 1271.1,-86.1 1273.95,-85.61"/>
<polygon fill="none" stroke="midnightblue" points="911.43,-124.28 901.76,-128.62 912.03,-131.25 911.43,-124.28"/>
</g>
<!-- Node14 -->
<g id="node14" class="node">
<title>Node14</title>
<g id="a_node14"><a xlink:href="class_c_l_i_1_1detail_1_1_existing_path_validator.html" target="_top" xlink:title="Check for an existing path.">
<polygon fill="white" stroke="black" points="1419.5,-56.5 1419.5,-86.5 1551.5,-86.5 1551.5,-56.5 1419.5,-56.5"/>
<text text-anchor="start" x="1427.5" y="-74.5" font-family="Helvetica,sans-Serif" font-size="10.00">CLI::detail::ExistingPath</text>
<text text-anchor="middle" x="1485.5" y="-63.5" font-family="Helvetica,sans-Serif" font-size="10.00">Validator</text>
</a>
</g>
</g>
<!-- Node1&#45;&gt;Node14 -->
<g id="edge13" class="edge">
<title>Node1&#45;&gt;Node14</title>
<path fill="none" stroke="midnightblue" d="M911.89,-129.67C1009.45,-124.84 1228.03,-112.03 1410.5,-87 1413.39,-86.6 1416.34,-86.17 1419.31,-85.7"/>
<polygon fill="none" stroke="midnightblue" points="911.54,-126.19 901.72,-130.17 911.88,-133.18 911.54,-126.19"/>
</g>
<!-- Node15 -->
<g id="node15" class="node">
<title>Node15</title>
<g id="a_node15"><a xlink:href="class_c_l_i_1_1detail_1_1_i_p_v4_validator.html" target="_top" xlink:title="Validate the given string is a legal ipv4 address.">
<polygon fill="white" stroke="black" points="1570,-62 1570,-81 1707,-81 1707,-62 1570,-62"/>
<text text-anchor="middle" x="1638.5" y="-69" font-family="Helvetica,sans-Serif" font-size="10.00">CLI::detail::IPV4Validator</text>
</a>
</g>
</g>
<!-- Node1&#45;&gt;Node15 -->
<g id="edge14" class="edge">
<title>Node1&#45;&gt;Node15</title>
<path fill="none" stroke="midnightblue" d="M911.7,-130.8C1027.62,-127.64 1318.86,-117.12 1560.5,-87 1572.66,-85.48 1585.8,-83.27 1597.76,-81.03"/>
<polygon fill="none" stroke="midnightblue" points="911.59,-127.31 901.69,-131.07 911.78,-134.3 911.59,-127.31"/>
</g>
<!-- Node16 -->
<g id="node16" class="node">
<title>Node16</title>
<g id="a_node16"><a xlink:href="class_c_l_i_1_1detail_1_1_nonexistent_path_validator.html" target="_top" xlink:title="Check for an non&#45;existing path.">
<polygon fill="white" stroke="black" points="1725,-56.5 1725,-86.5 1856,-86.5 1856,-56.5 1725,-56.5"/>
<text text-anchor="start" x="1733" y="-74.5" font-family="Helvetica,sans-Serif" font-size="10.00">CLI::detail::Nonexistent</text>
<text text-anchor="middle" x="1790.5" y="-63.5" font-family="Helvetica,sans-Serif" font-size="10.00">PathValidator</text>
</a>
</g>
</g>
<!-- Node1&#45;&gt;Node16 -->
<g id="edge15" class="edge">
<title>Node1&#45;&gt;Node16</title>
<path fill="none" stroke="midnightblue" d="M911.98,-131.82C1045.39,-130.8 1413.09,-124.51 1716.5,-87 1719.23,-86.66 1722.01,-86.28 1724.81,-85.87"/>
<polygon fill="none" stroke="midnightblue" points="911.64,-128.32 901.66,-131.89 911.69,-135.32 911.64,-128.32"/>
</g>
<!-- Node3 -->
<g id="node3" class="node">
<title>Node3</title>
<g id="a_node3"><a xlink:href="class_c_l_i_1_1_as_size_value.html" target="_top" xlink:title=" ">
<polygon fill="white" stroke="black" points="16.5,-0.5 16.5,-19.5 114.5,-19.5 114.5,-0.5 16.5,-0.5"/>
<text text-anchor="middle" x="65.5" y="-7.5" font-family="Helvetica,sans-Serif" font-size="10.00">CLI::AsSizeValue</text>
</a>
</g>
</g>
<!-- Node2&#45;&gt;Node3 -->
<g id="edge2" class="edge">
<title>Node2&#45;&gt;Node3</title>
<path fill="none" stroke="midnightblue" d="M65.5,-51.82C65.5,-41 65.5,-27.9 65.5,-19.51"/>
<polygon fill="none" stroke="midnightblue" points="62,-51.98 65.5,-61.98 69,-51.98 62,-51.98"/>
</g>
</g>
</svg>
