<?xml version="1.0" encoding="UTF-8" standalone="no"?>
<!DOCTYPE svg PUBLIC "-//W3C//DTD SVG 1.1//EN"
 "http://www.w3.org/Graphics/SVG/1.1/DTD/svg11.dtd">
<!-- Generated by graphviz version 2.43.0 (0)
 -->
<!-- Title: core::EventLoop::instance Pages: 1 -->
<svg width="854pt" height="302pt"
 viewBox="0.00 0.00 854.00 301.50" xmlns="http://www.w3.org/2000/svg" xmlns:xlink="http://www.w3.org/1999/xlink">
<g id="graph0" class="graph" transform="scale(1 1) rotate(0) translate(4 297.5)">
<title>core::EventLoop::instance</title>
<polygon fill="white" stroke="transparent" points="-4,4 -4,-297.5 850,-297.5 850,4 -4,4"/>
<!-- Node1 -->
<g id="node1" class="node">
<title>Node1</title>
<g id="a_node1"><a xlink:title=" ">
<polygon fill="#bfbfbf" stroke="black" points="704,-115.5 704,-134.5 846,-134.5 846,-115.5 704,-115.5"/>
<text text-anchor="middle" x="775" y="-122.5" font-family="Helvetica,sans-Serif" font-size="10.00">core::EventLoop::instance</text>
</a>
</g>
</g>
<!-- Node2 -->
<g id="node2" class="node">
<title>Node2</title>
<g id="a_node2"><a xlink:href="classcore_1_1timer_1_1_timer.html#a799ffcc07d85afe22c30af1270ce72b6" target="_top" xlink:title=" ">
<polygon fill="white" stroke="black" points="556,-214 556,-244 660,-244 660,-214 556,-214"/>
<text text-anchor="start" x="564" y="-232" font-family="Helvetica,sans-Serif" font-size="10.00">core::timer::Timer</text>
<text text-anchor="middle" x="608" y="-221" font-family="Helvetica,sans-Serif" font-size="10.00">::cancel</text>
</a>
</g>
</g>
<!-- Node1&#45;&gt;Node2 -->
<g id="edge1" class="edge">
<title>Node1&#45;&gt;Node2</title>
<path fill="none" stroke="midnightblue" d="M755.23,-141.18C734.75,-158.29 700.55,-185.34 668,-204 661.82,-207.54 655.05,-210.87 648.36,-213.88"/>
<polygon fill="midnightblue" stroke="midnightblue" points="757.49,-143.86 762.86,-134.73 752.97,-138.51 757.49,-143.86"/>
</g>
<!-- Node7 -->
<g id="node7" class="node">
<title>Node7</title>
<g id="a_node7"><a xlink:href="classcore_1_1_event_loop.html#a3125b6361565df4753affc73eb83984a" target="_top" xlink:title=" ">
<polygon fill="white" stroke="black" points="548,-175.5 548,-194.5 668,-194.5 668,-175.5 548,-175.5"/>
<text text-anchor="middle" x="608" y="-182.5" font-family="Helvetica,sans-Serif" font-size="10.00">core::EventLoop::free</text>
</a>
</g>
</g>
<!-- Node1&#45;&gt;Node7 -->
<g id="edge6" class="edge">
<title>Node1&#45;&gt;Node7</title>
<path fill="none" stroke="midnightblue" d="M738.29,-137.98C707.3,-149.25 663.15,-165.31 635.3,-175.44"/>
<polygon fill="midnightblue" stroke="midnightblue" points="739.65,-141.21 747.86,-134.51 737.26,-134.64 739.65,-141.21"/>
</g>
<!-- Node10 -->
<g id="node10" class="node">
<title>Node10</title>
<g id="a_node10"><a xlink:href="classcore_1_1_event_loop.html#aaa2c3856fed808d00542d573c2b3a737" target="_top" xlink:title=" ">
<polygon fill="white" stroke="black" points="373,-137.5 373,-156.5 496,-156.5 496,-137.5 373,-137.5"/>
<text text-anchor="middle" x="434.5" y="-144.5" font-family="Helvetica,sans-Serif" font-size="10.00">core::EventLoop::start</text>
</a>
</g>
</g>
<!-- Node1&#45;&gt;Node10 -->
<g id="edge14" class="edge">
<title>Node1&#45;&gt;Node10</title>
<path fill="none" stroke="midnightblue" d="M693.58,-130.23C633.03,-134.16 551.32,-139.47 496.19,-143.06"/>
<polygon fill="midnightblue" stroke="midnightblue" points="694.11,-133.7 703.86,-129.56 693.66,-126.71 694.11,-133.7"/>
</g>
<!-- Node13 -->
<g id="node13" class="node">
<title>Node13</title>
<g id="a_node13"><a xlink:href="classcore_1_1timer_1_1_timer.html#a62b944bbad2f4f711879acab5f780b0c" target="_top" xlink:title=" ">
<polygon fill="white" stroke="black" points="556,-88 556,-118 660,-118 660,-88 556,-88"/>
<text text-anchor="start" x="564" y="-106" font-family="Helvetica,sans-Serif" font-size="10.00">core::timer::Timer</text>
<text text-anchor="middle" x="608" y="-95" font-family="Helvetica,sans-Serif" font-size="10.00">::intervalTimer</text>
</a>
</g>
</g>
<!-- Node1&#45;&gt;Node13 -->
<g id="edge12" class="edge">
<title>Node1&#45;&gt;Node13</title>
<path fill="none" stroke="midnightblue" d="M693.61,-114.28C682.26,-112.77 670.85,-111.25 660.25,-109.83"/>
<polygon fill="midnightblue" stroke="midnightblue" points="693.17,-117.75 703.55,-115.61 694.1,-110.82 693.17,-117.75"/>
</g>
<!-- Node14 -->
<g id="node14" class="node">
<title>Node14</title>
<g id="a_node14"><a xlink:href="classcore_1_1timer_1_1_timer.html#aab3d6c158408a29f43505c782bf1c75c" target="_top" xlink:title=" ">
<polygon fill="white" stroke="black" points="556,-39 556,-69 660,-69 660,-39 556,-39"/>
<text text-anchor="start" x="564" y="-57" font-family="Helvetica,sans-Serif" font-size="10.00">core::timer::Timer</text>
<text text-anchor="middle" x="608" y="-46" font-family="Helvetica,sans-Serif" font-size="10.00">::singleshotTimer</text>
</a>
</g>
</g>
<!-- Node1&#45;&gt;Node14 -->
<g id="edge13" class="edge">
<title>Node1&#45;&gt;Node14</title>
<path fill="none" stroke="midnightblue" d="M742.68,-111.32C721.59,-102.14 693.15,-89.78 668,-79 660.43,-75.76 652.31,-72.3 644.59,-69.02"/>
<polygon fill="midnightblue" stroke="midnightblue" points="741.53,-114.64 752.1,-115.43 744.33,-108.23 741.53,-114.64"/>
</g>
<!-- Node15 -->
<g id="node15" class="node">
<title>Node15</title>
<g id="a_node15"><a xlink:href="classcore_1_1_event_loop.html#a811fbdf8265440db286c44f08c644235" target="_top" xlink:title=" ">
<polygon fill="white" stroke="black" points="548.5,-0.5 548.5,-19.5 667.5,-19.5 667.5,-0.5 548.5,-0.5"/>
<text text-anchor="middle" x="608" y="-7.5" font-family="Helvetica,sans-Serif" font-size="10.00">core::EventLoop::tick</text>
</a>
</g>
</g>
<!-- Node1&#45;&gt;Node15 -->
<g id="edge15" class="edge">
<title>Node1&#45;&gt;Node15</title>
<path fill="none" stroke="midnightblue" d="M759.25,-107.73C740.18,-86.41 705.01,-50.38 668,-29 661.48,-25.23 654.11,-22.11 646.85,-19.55"/>
<polygon fill="midnightblue" stroke="midnightblue" points="756.73,-110.16 765.95,-115.37 761.99,-105.55 756.73,-110.16"/>
</g>
<!-- Node3 -->
<g id="node3" class="node">
<title>Node3</title>
<g id="a_node3"><a xlink:href="classcore_1_1timer_1_1_interval_timer.html#afebbcf3d934ee70870c112150b8bce51" target="_top" xlink:title=" ">
<polygon fill="white" stroke="black" points="364,-263 364,-293 505,-293 505,-263 364,-263"/>
<text text-anchor="start" x="372" y="-281" font-family="Helvetica,sans-Serif" font-size="10.00">core::timer::IntervalTimer</text>
<text text-anchor="middle" x="434.5" y="-270" font-family="Helvetica,sans-Serif" font-size="10.00">::cancel</text>
</a>
</g>
</g>
<!-- Node2&#45;&gt;Node3 -->
<g id="edge2" class="edge">
<title>Node2&#45;&gt;Node3</title>
<path fill="none" stroke="midnightblue" d="M545.85,-246.47C526.97,-251.86 506.36,-257.76 488.11,-262.97"/>
<polygon fill="midnightblue" stroke="midnightblue" points="546.89,-249.81 555.54,-243.7 544.97,-243.08 546.89,-249.81"/>
</g>
<!-- Node5 -->
<g id="node5" class="node">
<title>Node5</title>
<g id="a_node5"><a xlink:href="classcore_1_1timer_1_1_singleshot_timer.html#a9525820c2a0f6acd23982e125d235d8b" target="_top" xlink:title=" ">
<polygon fill="white" stroke="black" points="357,-214 357,-244 512,-244 512,-214 357,-214"/>
<text text-anchor="start" x="365" y="-232" font-family="Helvetica,sans-Serif" font-size="10.00">core::timer::SingleshotTimer</text>
<text text-anchor="middle" x="434.5" y="-221" font-family="Helvetica,sans-Serif" font-size="10.00">::cancel</text>
</a>
</g>
</g>
<!-- Node2&#45;&gt;Node5 -->
<g id="edge4" class="edge">
<title>Node2&#45;&gt;Node5</title>
<path fill="none" stroke="midnightblue" d="M545.43,-229C534.69,-229 523.39,-229 512.29,-229"/>
<polygon fill="midnightblue" stroke="midnightblue" points="545.54,-232.5 555.54,-229 545.54,-225.5 545.54,-232.5"/>
</g>
<!-- Node4 -->
<g id="node4" class="node">
<title>Node4</title>
<g id="a_node4"><a xlink:href="classcore_1_1timer_1_1_interval_timer.html#adfde34de6e71f85f163b20c3f7ae66de" target="_top" xlink:title=" ">
<polygon fill="white" stroke="black" points="173,-263 173,-293 314,-293 314,-263 173,-263"/>
<text text-anchor="start" x="181" y="-281" font-family="Helvetica,sans-Serif" font-size="10.00">core::timer::IntervalTimer</text>
<text text-anchor="middle" x="243.5" y="-270" font-family="Helvetica,sans-Serif" font-size="10.00">::trigger</text>
</a>
</g>
</g>
<!-- Node3&#45;&gt;Node4 -->
<g id="edge3" class="edge">
<title>Node3&#45;&gt;Node4</title>
<path fill="none" stroke="midnightblue" d="M353.55,-278C340.48,-278 327.04,-278 314.24,-278"/>
<polygon fill="midnightblue" stroke="midnightblue" points="353.93,-281.5 363.93,-278 353.93,-274.5 353.93,-281.5"/>
</g>
<!-- Node6 -->
<g id="node6" class="node">
<title>Node6</title>
<g id="a_node6"><a xlink:href="classcore_1_1timer_1_1_singleshot_timer.html#a97bc95286ab99488884a78b1b126a6da" target="_top" xlink:title=" ">
<polygon fill="white" stroke="black" points="166,-214 166,-244 321,-244 321,-214 166,-214"/>
<text text-anchor="start" x="174" y="-232" font-family="Helvetica,sans-Serif" font-size="10.00">core::timer::SingleshotTimer</text>
<text text-anchor="middle" x="243.5" y="-221" font-family="Helvetica,sans-Serif" font-size="10.00">::trigger</text>
</a>
</g>
</g>
<!-- Node5&#45;&gt;Node6 -->
<g id="edge5" class="edge">
<title>Node5&#45;&gt;Node6</title>
<path fill="none" stroke="midnightblue" d="M346.9,-229C338.33,-229 329.67,-229 321.21,-229"/>
<polygon fill="midnightblue" stroke="midnightblue" points="346.9,-232.5 356.9,-229 346.9,-225.5 346.9,-232.5"/>
</g>
<!-- Node8 -->
<g id="node8" class="node">
<title>Node8</title>
<g id="a_node8"><a xlink:href="classcore_1_1_s_node_c.html#a723f1f8e484db32164adeca1fbf98e28" target="_top" xlink:title=" ">
<polygon fill="white" stroke="black" points="381,-175.5 381,-194.5 488,-194.5 488,-175.5 381,-175.5"/>
<text text-anchor="middle" x="434.5" y="-182.5" font-family="Helvetica,sans-Serif" font-size="10.00">core::SNodeC::free</text>
</a>
</g>
</g>
<!-- Node7&#45;&gt;Node8 -->
<g id="edge7" class="edge">
<title>Node7&#45;&gt;Node8</title>
<path fill="none" stroke="midnightblue" d="M537.78,-185C521.18,-185 503.73,-185 488.03,-185"/>
<polygon fill="midnightblue" stroke="midnightblue" points="537.98,-188.5 547.98,-185 537.98,-181.5 537.98,-188.5"/>
</g>
<!-- Node7&#45;&gt;Node10 -->
<g id="edge9" class="edge">
<title>Node7&#45;&gt;Node10</title>
<path fill="none" stroke="midnightblue" d="M553.96,-173.25C529.71,-167.87 501.35,-161.59 478.47,-156.52"/>
<polygon fill="midnightblue" stroke="midnightblue" points="553.2,-176.66 563.72,-175.41 554.72,-169.83 553.2,-176.66"/>
</g>
<!-- Node9 -->
<g id="node9" class="node">
<title>Node9</title>
<g id="a_node9"><a xlink:href="classexpress_1_1_web_app.html#a07c26842d227b81ee32b9b26a94cae1b" target="_top" xlink:title=" ">
<polygon fill="white" stroke="black" points="180,-175.5 180,-194.5 307,-194.5 307,-175.5 180,-175.5"/>
<text text-anchor="middle" x="243.5" y="-182.5" font-family="Helvetica,sans-Serif" font-size="10.00">express::WebApp::free</text>
</a>
</g>
</g>
<!-- Node8&#45;&gt;Node9 -->
<g id="edge8" class="edge">
<title>Node8&#45;&gt;Node9</title>
<path fill="none" stroke="midnightblue" d="M370.72,-185C350.31,-185 327.67,-185 307.26,-185"/>
<polygon fill="midnightblue" stroke="midnightblue" points="370.85,-188.5 380.85,-185 370.85,-181.5 370.85,-188.5"/>
</g>
<!-- Node11 -->
<g id="node11" class="node">
<title>Node11</title>
<g id="a_node11"><a xlink:href="classcore_1_1_s_node_c.html#ac3d0dcb6c216ae72d9bbb77fe080e461" target="_top" xlink:title=" ">
<polygon fill="white" stroke="black" points="188.5,-137.5 188.5,-156.5 298.5,-156.5 298.5,-137.5 188.5,-137.5"/>
<text text-anchor="middle" x="243.5" y="-144.5" font-family="Helvetica,sans-Serif" font-size="10.00">core::SNodeC::start</text>
</a>
</g>
</g>
<!-- Node10&#45;&gt;Node11 -->
<g id="edge10" class="edge">
<title>Node10&#45;&gt;Node11</title>
<path fill="none" stroke="midnightblue" d="M362.68,-147C341.49,-147 318.61,-147 298.67,-147"/>
<polygon fill="midnightblue" stroke="midnightblue" points="362.92,-150.5 372.92,-147 362.92,-143.5 362.92,-150.5"/>
</g>
<!-- Node12 -->
<g id="node12" class="node">
<title>Node12</title>
<g id="a_node12"><a xlink:href="classexpress_1_1_web_app.html#a54e6910c9466c61d0b217490b7d9bb5a" target="_top" xlink:title=" ">
<polygon fill="white" stroke="black" points="0,-137.5 0,-156.5 130,-156.5 130,-137.5 0,-137.5"/>
<text text-anchor="middle" x="65" y="-144.5" font-family="Helvetica,sans-Serif" font-size="10.00">express::WebApp::start</text>
</a>
</g>
</g>
<!-- Node11&#45;&gt;Node12 -->
<g id="edge11" class="edge">
<title>Node11&#45;&gt;Node12</title>
<path fill="none" stroke="midnightblue" d="M178.02,-147C162.41,-147 145.72,-147 130.13,-147"/>
<polygon fill="midnightblue" stroke="midnightblue" points="178.1,-150.5 188.1,-147 178.1,-143.5 178.1,-150.5"/>
</g>
<!-- Node16 -->
<g id="node16" class="node">
<title>Node16</title>
<g id="a_node16"><a xlink:href="classcore_1_1_s_node_c.html#a57b40bb139f23e6a9fc2704d2415e636" target="_top" xlink:title=" ">
<polygon fill="white" stroke="black" points="381.5,-0.5 381.5,-19.5 487.5,-19.5 487.5,-0.5 381.5,-0.5"/>
<text text-anchor="middle" x="434.5" y="-7.5" font-family="Helvetica,sans-Serif" font-size="10.00">core::SNodeC::tick</text>
</a>
</g>
</g>
<!-- Node15&#45;&gt;Node16 -->
<g id="edge16" class="edge">
<title>Node15&#45;&gt;Node16</title>
<path fill="none" stroke="midnightblue" d="M538.14,-10C521.33,-10 503.63,-10 487.74,-10"/>
<polygon fill="midnightblue" stroke="midnightblue" points="538.46,-13.5 548.46,-10 538.46,-6.5 538.46,-13.5"/>
</g>
<!-- Node17 -->
<g id="node17" class="node">
<title>Node17</title>
<g id="a_node17"><a xlink:href="classexpress_1_1_web_app.html#a42de99299b0f344789e201aee12b3fd7" target="_top" xlink:title=" ">
<polygon fill="white" stroke="black" points="181,-0.5 181,-19.5 306,-19.5 306,-0.5 181,-0.5"/>
<text text-anchor="middle" x="243.5" y="-7.5" font-family="Helvetica,sans-Serif" font-size="10.00">express::WebApp::tick</text>
</a>
</g>
</g>
<!-- Node16&#45;&gt;Node17 -->
<g id="edge17" class="edge">
<title>Node16&#45;&gt;Node17</title>
<path fill="none" stroke="midnightblue" d="M371.3,-10C350.39,-10 327.07,-10 306.19,-10"/>
<polygon fill="midnightblue" stroke="midnightblue" points="371.35,-13.5 381.35,-10 371.35,-6.5 371.35,-13.5"/>
</g>
</g>
</svg>
