<?xml version="1.0" encoding="UTF-8" standalone="no"?>
<!DOCTYPE svg PUBLIC "-//W3C//DTD SVG 1.1//EN"
 "http://www.w3.org/Graphics/SVG/1.1/DTD/svg11.dtd">
<!-- Generated by graphviz version 2.43.0 (0)
 -->
<!-- Title: core::socket::stream::SocketConnection::readEvent Pages: 1 -->
<svg width="1150pt" height="222pt"
 viewBox="0.00 0.00 1150.00 222.00" xmlns="http://www.w3.org/2000/svg" xmlns:xlink="http://www.w3.org/1999/xlink">
<g id="graph0" class="graph" transform="scale(1 1) rotate(0) translate(4 218)">
<title>core::socket::stream::SocketConnection::readEvent</title>
<polygon fill="white" stroke="transparent" points="-4,4 -4,-218 1146,-218 1146,4 -4,4"/>
<!-- Node1 -->
<g id="node1" class="node">
<title>Node1</title>
<g id="a_node1"><a xlink:title=" ">
<polygon fill="#bfbfbf" stroke="black" points="0,-92.5 0,-122.5 165,-122.5 165,-92.5 0,-92.5"/>
<text text-anchor="start" x="8" y="-110.5" font-family="Helvetica,sans-Serif" font-size="10.00">core::socket::stream</text>
<text text-anchor="middle" x="82.5" y="-99.5" font-family="Helvetica,sans-Serif" font-size="10.00">::SocketConnection::readEvent</text>
</a>
</g>
</g>
<!-- Node2 -->
<g id="node2" class="node">
<title>Node2</title>
<g id="a_node2"><a xlink:href="classcore_1_1socket_1_1stream_1_1_socket_reader.html#aaad14a17650d9421cb50667e8c74ecd6" target="_top" xlink:title=" ">
<polygon fill="white" stroke="black" points="201,-92.5 201,-122.5 333,-122.5 333,-92.5 201,-92.5"/>
<text text-anchor="start" x="209" y="-110.5" font-family="Helvetica,sans-Serif" font-size="10.00">core::socket::stream</text>
<text text-anchor="middle" x="267" y="-99.5" font-family="Helvetica,sans-Serif" font-size="10.00">::SocketReader::doRead</text>
</a>
</g>
</g>
<!-- Node1&#45;&gt;Node2 -->
<g id="edge1" class="edge">
<title>Node1&#45;&gt;Node2</title>
<path fill="none" stroke="midnightblue" d="M165.14,-107.5C173.64,-107.5 182.26,-107.5 190.68,-107.5"/>
<polygon fill="midnightblue" stroke="midnightblue" points="190.85,-111 200.85,-107.5 190.85,-104 190.85,-111"/>
</g>
<!-- Node3 -->
<g id="node3" class="node">
<title>Node3</title>
<g id="a_node3"><a xlink:href="classcore_1_1_descriptor_event_receiver.html#a4ab422ce6622a29cee38a0108ee6ccc1" target="_top" xlink:title=" ">
<polygon fill="white" stroke="black" points="369,-117.5 369,-147.5 533,-147.5 533,-117.5 369,-117.5"/>
<text text-anchor="start" x="377" y="-135.5" font-family="Helvetica,sans-Serif" font-size="10.00">core::DescriptorEventReceiver</text>
<text text-anchor="middle" x="451" y="-124.5" font-family="Helvetica,sans-Serif" font-size="10.00">::disable</text>
</a>
</g>
</g>
<!-- Node2&#45;&gt;Node3 -->
<g id="edge2" class="edge">
<title>Node2&#45;&gt;Node3</title>
<path fill="none" stroke="midnightblue" d="M333.19,-116.45C341.48,-117.59 350.07,-118.77 358.67,-119.95"/>
<polygon fill="midnightblue" stroke="midnightblue" points="358.37,-123.45 368.75,-121.34 359.32,-116.51 358.37,-123.45"/>
</g>
<!-- Node12 -->
<g id="node12" class="node">
<title>Node12</title>
<g id="a_node12"><a xlink:href="classcore_1_1socket_1_1stream_1_1_socket_reader.html#a2f6182adeb9508a2cb295cd6fc1692ee" target="_top" xlink:title=" ">
<polygon fill="white" stroke="black" points="392.5,-68.5 392.5,-98.5 509.5,-98.5 509.5,-68.5 392.5,-68.5"/>
<text text-anchor="start" x="400.5" y="-86.5" font-family="Helvetica,sans-Serif" font-size="10.00">core::socket::stream</text>
<text text-anchor="middle" x="451" y="-75.5" font-family="Helvetica,sans-Serif" font-size="10.00">::SocketReader::read</text>
</a>
</g>
</g>
<!-- Node2&#45;&gt;Node12 -->
<g id="edge12" class="edge">
<title>Node2&#45;&gt;Node12</title>
<path fill="none" stroke="midnightblue" d="M333.19,-98.9C349.01,-96.82 365.95,-94.58 381.9,-92.48"/>
<polygon fill="midnightblue" stroke="midnightblue" points="382.75,-95.9 392.21,-91.12 381.84,-88.96 382.75,-95.9"/>
</g>
<!-- Node4 -->
<g id="node4" class="node">
<title>Node4</title>
<g id="a_node4"><a xlink:href="classcore_1_1_descriptor_event_publisher.html#a998d681666ff72ed73cf0799ff4aca77" target="_top" xlink:title=" ">
<polygon fill="white" stroke="black" points="569,-183.5 569,-213.5 736,-213.5 736,-183.5 569,-183.5"/>
<text text-anchor="start" x="577" y="-201.5" font-family="Helvetica,sans-Serif" font-size="10.00">core::DescriptorEventPublisher</text>
<text text-anchor="middle" x="652.5" y="-190.5" font-family="Helvetica,sans-Serif" font-size="10.00">::disable</text>
</a>
</g>
</g>
<!-- Node3&#45;&gt;Node4 -->
<g id="edge3" class="edge">
<title>Node3&#45;&gt;Node4</title>
<path fill="none" stroke="midnightblue" d="M497.77,-147.64C527.04,-157.33 565.19,-169.95 596.16,-180.19"/>
<polygon fill="midnightblue" stroke="midnightblue" points="595.35,-183.61 605.94,-183.43 597.55,-176.96 595.35,-183.61"/>
</g>
<!-- Node5 -->
<g id="node5" class="node">
<title>Node5</title>
<g id="a_node5"><a xlink:href="classcore_1_1_event_receiver.html#aac62114d8385172bb2c536774a7dfcf7" target="_top" xlink:title=" ">
<polygon fill="white" stroke="black" points="798.5,-125.5 798.5,-155.5 912.5,-155.5 912.5,-125.5 798.5,-125.5"/>
<text text-anchor="start" x="806.5" y="-143.5" font-family="Helvetica,sans-Serif" font-size="10.00">core::EventReceiver</text>
<text text-anchor="middle" x="855.5" y="-132.5" font-family="Helvetica,sans-Serif" font-size="10.00">::getName</text>
</a>
</g>
</g>
<!-- Node3&#45;&gt;Node5 -->
<g id="edge4" class="edge">
<title>Node3&#45;&gt;Node5</title>
<path fill="none" stroke="midnightblue" d="M533.19,-134.67C545.2,-134.96 557.42,-135.25 569,-135.5 644.16,-137.12 730.45,-138.58 788.32,-139.49"/>
<polygon fill="midnightblue" stroke="midnightblue" points="788.37,-142.99 798.43,-139.65 788.48,-136 788.37,-142.99"/>
</g>
<!-- Node6 -->
<g id="node6" class="node">
<title>Node6</title>
<g id="a_node6"><a xlink:href="classcore_1_1_descriptor_event_receiver.html#ac80fc901f941c059a6ebdb28147b25a2" target="_top" xlink:title=" ">
<polygon fill="white" stroke="black" points="570.5,-95.5 570.5,-125.5 734.5,-125.5 734.5,-95.5 570.5,-95.5"/>
<text text-anchor="start" x="578.5" y="-113.5" font-family="Helvetica,sans-Serif" font-size="10.00">core::DescriptorEventReceiver</text>
<text text-anchor="middle" x="652.5" y="-102.5" font-family="Helvetica,sans-Serif" font-size="10.00">::isSuspended</text>
</a>
</g>
</g>
<!-- Node3&#45;&gt;Node6 -->
<g id="edge5" class="edge">
<title>Node3&#45;&gt;Node6</title>
<path fill="none" stroke="midnightblue" d="M533.14,-123.55C542.08,-122.57 551.22,-121.56 560.27,-120.56"/>
<polygon fill="midnightblue" stroke="midnightblue" points="560.87,-124.02 570.43,-119.44 560.1,-117.06 560.87,-124.02"/>
</g>
<!-- Node7 -->
<g id="node7" class="node">
<title>Node7</title>
<g id="a_node7"><a xlink:href="classcore_1_1_descriptor_event_receiver.html#aab5e466759c83194c5bc4b41f1a33103" target="_top" xlink:title=" ">
<polygon fill="white" stroke="black" points="570.5,-46.5 570.5,-76.5 734.5,-76.5 734.5,-46.5 570.5,-46.5"/>
<text text-anchor="start" x="578.5" y="-64.5" font-family="Helvetica,sans-Serif" font-size="10.00">core::DescriptorEventReceiver</text>
<text text-anchor="middle" x="652.5" y="-53.5" font-family="Helvetica,sans-Serif" font-size="10.00">::suspend</text>
</a>
</g>
</g>
<!-- Node3&#45;&gt;Node7 -->
<g id="edge6" class="edge">
<title>Node3&#45;&gt;Node7</title>
<path fill="none" stroke="midnightblue" d="M507.58,-117.36C516.23,-114.44 524.95,-111.13 533,-107.5 550.09,-99.79 551.85,-93.07 569,-85.5 573.46,-83.53 578.12,-81.68 582.86,-79.93"/>
<polygon fill="midnightblue" stroke="midnightblue" points="584.37,-83.11 592.67,-76.52 582.07,-76.5 584.37,-83.11"/>
</g>
<!-- Node7&#45;&gt;Node5 -->
<g id="edge7" class="edge">
<title>Node7&#45;&gt;Node5</title>
<path fill="none" stroke="midnightblue" d="M709.81,-76.59C718.65,-79.33 727.63,-82.33 736,-85.5 752.55,-91.77 755.96,-95.02 772,-102.5 785.11,-108.61 799.42,-115.23 812.38,-121.19"/>
<polygon fill="midnightblue" stroke="midnightblue" points="811,-124.41 821.55,-125.41 813.92,-118.05 811,-124.41"/>
</g>
<!-- Node8 -->
<g id="node8" class="node">
<title>Node8</title>
<g id="a_node8"><a xlink:href="classcore_1_1_observer.html#a12bf1ddfdb90f05f28d16c09ce0658f8" target="_top" xlink:title=" ">
<polygon fill="white" stroke="black" points="781,-74 781,-93 930,-93 930,-74 781,-74"/>
<text text-anchor="middle" x="855.5" y="-81" font-family="Helvetica,sans-Serif" font-size="10.00">core::Observer::isObserved</text>
</a>
</g>
</g>
<!-- Node7&#45;&gt;Node8 -->
<g id="edge8" class="edge">
<title>Node7&#45;&gt;Node8</title>
<path fill="none" stroke="midnightblue" d="M734.68,-70.38C746.59,-71.69 758.89,-73.03 770.85,-74.34"/>
<polygon fill="midnightblue" stroke="midnightblue" points="770.49,-77.83 780.81,-75.43 771.25,-70.87 770.49,-77.83"/>
</g>
<!-- Node9 -->
<g id="node9" class="node">
<title>Node9</title>
<g id="a_node9"><a xlink:href="classcore_1_1_descriptor_event_publisher.html#ac1bfb115c6aba58d380862a43db457e8" target="_top" xlink:title=" ">
<polygon fill="white" stroke="black" points="772,-24.5 772,-54.5 939,-54.5 939,-24.5 772,-24.5"/>
<text text-anchor="start" x="780" y="-42.5" font-family="Helvetica,sans-Serif" font-size="10.00">core::DescriptorEventPublisher</text>
<text text-anchor="middle" x="855.5" y="-31.5" font-family="Helvetica,sans-Serif" font-size="10.00">::suspend</text>
</a>
</g>
</g>
<!-- Node7&#45;&gt;Node9 -->
<g id="edge9" class="edge">
<title>Node7&#45;&gt;Node9</title>
<path fill="none" stroke="midnightblue" d="M734.68,-52.62C743.54,-51.64 752.62,-50.65 761.61,-49.67"/>
<polygon fill="midnightblue" stroke="midnightblue" points="762.15,-53.13 771.71,-48.56 761.39,-46.17 762.15,-53.13"/>
</g>
<!-- Node10 -->
<g id="node10" class="node">
<title>Node10</title>
<g id="a_node10"><a xlink:href="classcore_1_1_descriptor_event_receiver.html#a445606dc995a71972d83e7683ada144b" target="_top" xlink:title=" ">
<polygon fill="white" stroke="black" points="976.5,-49.5 976.5,-79.5 1140.5,-79.5 1140.5,-49.5 976.5,-49.5"/>
<text text-anchor="start" x="984.5" y="-67.5" font-family="Helvetica,sans-Serif" font-size="10.00">core::DescriptorEventReceiver</text>
<text text-anchor="middle" x="1058.5" y="-56.5" font-family="Helvetica,sans-Serif" font-size="10.00">::getRegisteredFd</text>
</a>
</g>
</g>
<!-- Node9&#45;&gt;Node10 -->
<g id="edge10" class="edge">
<title>Node9&#45;&gt;Node10</title>
<path fill="none" stroke="midnightblue" d="M939.12,-49.78C948.09,-50.89 957.26,-52.03 966.32,-53.16"/>
<polygon fill="midnightblue" stroke="midnightblue" points="966.14,-56.66 976.49,-54.42 967,-49.72 966.14,-56.66"/>
</g>
<!-- Node11 -->
<g id="node11" class="node">
<title>Node11</title>
<g id="a_node11"><a xlink:href="classcore_1_1_descriptor_event_publisher.html#af6a191195ac34bd0dfc6573b1adc3745" target="_top" xlink:title=" ">
<polygon fill="white" stroke="black" points="975,-0.5 975,-30.5 1142,-30.5 1142,-0.5 975,-0.5"/>
<text text-anchor="start" x="983" y="-18.5" font-family="Helvetica,sans-Serif" font-size="10.00">core::DescriptorEventPublisher</text>
<text text-anchor="middle" x="1058.5" y="-7.5" font-family="Helvetica,sans-Serif" font-size="10.00">::muxOff</text>
</a>
</g>
</g>
<!-- Node9&#45;&gt;Node11 -->
<g id="edge11" class="edge">
<title>Node9&#45;&gt;Node11</title>
<path fill="none" stroke="midnightblue" d="M939.12,-29.63C947.61,-28.62 956.27,-27.59 964.85,-26.56"/>
<polygon fill="midnightblue" stroke="midnightblue" points="965.36,-30.03 974.87,-25.37 964.53,-23.08 965.36,-30.03"/>
</g>
</g>
</svg>
