<?xml version="1.0" encoding="UTF-8" standalone="no"?>
<!DOCTYPE svg PUBLIC "-//W3C//DTD SVG 1.1//EN"
 "http://www.w3.org/Graphics/SVG/1.1/DTD/svg11.dtd">
<!-- Generated by graphviz version 2.43.0 (0)
 -->
<!-- Title: web::websocket::client::SocketContextUpgrade::~SocketContextUpgrade Pages: 1 -->
<svg width="926pt" height="247pt"
 viewBox="0.00 0.00 926.00 247.00" xmlns="http://www.w3.org/2000/svg" xmlns:xlink="http://www.w3.org/1999/xlink">
<g id="graph0" class="graph" transform="scale(1 1) rotate(0) translate(4 243)">
<title>web::websocket::client::SocketContextUpgrade::~SocketContextUpgrade</title>
<polygon fill="white" stroke="transparent" points="-4,4 -4,-243 922,-243 922,4 -4,4"/>
<!-- Node1 -->
<g id="node1" class="node">
<title>Node1</title>
<g id="a_node1"><a xlink:title=" ">
<polygon fill="#bfbfbf" stroke="black" points="0,-99 0,-140 131,-140 131,-99 0,-99"/>
<text text-anchor="start" x="8" y="-128" font-family="Helvetica,sans-Serif" font-size="10.00">web::websocket::client</text>
<text text-anchor="start" x="8" y="-117" font-family="Helvetica,sans-Serif" font-size="10.00">::SocketContextUpgrade</text>
<text text-anchor="middle" x="65.5" y="-106" font-family="Helvetica,sans-Serif" font-size="10.00">::~SocketContextUpgrade</text>
</a>
</g>
</g>
<!-- Node2 -->
<g id="node2" class="node">
<title>Node2</title>
<g id="a_node2"><a xlink:href="classweb_1_1websocket_1_1client_1_1_sub_protocol_factory.html#abf50324ce158763cd920304df5f3716c" target="_top" xlink:title=" ">
<polygon fill="white" stroke="black" points="182,-151 182,-192 299,-192 299,-151 182,-151"/>
<text text-anchor="start" x="190" y="-180" font-family="Helvetica,sans-Serif" font-size="10.00">web::websocket::client</text>
<text text-anchor="start" x="190" y="-169" font-family="Helvetica,sans-Serif" font-size="10.00">::SubProtocolFactory::</text>
<text text-anchor="middle" x="240.5" y="-158" font-family="Helvetica,sans-Serif" font-size="10.00">deleteSubProtocol</text>
</a>
</g>
</g>
<!-- Node1&#45;&gt;Node2 -->
<g id="edge1" class="edge">
<title>Node1&#45;&gt;Node2</title>
<path fill="none" stroke="midnightblue" d="M131.41,-139.01C144.76,-143.02 158.84,-147.25 172.27,-151.29"/>
<polygon fill="midnightblue" stroke="midnightblue" points="171.32,-154.66 181.91,-154.19 173.34,-147.96 171.32,-154.66"/>
</g>
<!-- Node4 -->
<g id="node4" class="node">
<title>Node4</title>
<g id="a_node4"><a xlink:href="classweb_1_1websocket_1_1client_1_1_sub_protocol_factory_selector.html#ad8fb3cbccd230e0c0110b4465000aaa1" target="_top" xlink:title=" ">
<polygon fill="white" stroke="black" points="351,-99 351,-140 496,-140 496,-99 351,-99"/>
<text text-anchor="start" x="359" y="-128" font-family="Helvetica,sans-Serif" font-size="10.00">web::websocket::client</text>
<text text-anchor="start" x="359" y="-117" font-family="Helvetica,sans-Serif" font-size="10.00">::SubProtocolFactorySelector</text>
<text text-anchor="middle" x="423.5" y="-106" font-family="Helvetica,sans-Serif" font-size="10.00">::instance</text>
</a>
</g>
</g>
<!-- Node1&#45;&gt;Node4 -->
<g id="edge8" class="edge">
<title>Node1&#45;&gt;Node4</title>
<path fill="none" stroke="midnightblue" d="M131.38,-119.5C190.08,-119.5 276.81,-119.5 340.34,-119.5"/>
<polygon fill="midnightblue" stroke="midnightblue" points="340.72,-123 350.72,-119.5 340.72,-116 340.72,-123"/>
</g>
<!-- Node9 -->
<g id="node9" class="node">
<title>Node9</title>
<g id="a_node9"><a xlink:href="classweb_1_1websocket_1_1_sub_protocol_factory_selector.html#a128338657a57f6a94a910e95daf91e27" target="_top" xlink:title=" ">
<polygon fill="white" stroke="black" points="167,-49.5 167,-79.5 314,-79.5 314,-49.5 167,-49.5"/>
<text text-anchor="start" x="175" y="-67.5" font-family="Helvetica,sans-Serif" font-size="10.00">web::websocket::SubProtocol</text>
<text text-anchor="middle" x="240.5" y="-56.5" font-family="Helvetica,sans-Serif" font-size="10.00">FactorySelector::select</text>
</a>
</g>
</g>
<!-- Node1&#45;&gt;Node9 -->
<g id="edge9" class="edge">
<title>Node1&#45;&gt;Node9</title>
<path fill="none" stroke="midnightblue" d="M131.41,-98.86C148.08,-93.56 165.9,-87.9 182.16,-82.73"/>
<polygon fill="midnightblue" stroke="midnightblue" points="183.59,-85.95 192.06,-79.58 181.47,-79.28 183.59,-85.95"/>
</g>
<!-- Node3 -->
<g id="node3" class="node">
<title>Node3</title>
<g id="a_node3"><a xlink:href="classweb_1_1websocket_1_1_sub_protocol_factory.html#a4bc79a954ee570afbf07e3eb32590659" target="_top" xlink:title=" ">
<polygon fill="white" stroke="black" points="350,-208.5 350,-238.5 497,-238.5 497,-208.5 350,-208.5"/>
<text text-anchor="start" x="358" y="-226.5" font-family="Helvetica,sans-Serif" font-size="10.00">web::websocket::SubProtocol</text>
<text text-anchor="middle" x="423.5" y="-215.5" font-family="Helvetica,sans-Serif" font-size="10.00">Factory::deleteSubProtocol</text>
</a>
</g>
</g>
<!-- Node2&#45;&gt;Node3 -->
<g id="edge2" class="edge">
<title>Node2&#45;&gt;Node3</title>
<path fill="none" stroke="midnightblue" d="M299.27,-188.1C318.74,-193.69 340.55,-199.96 360.34,-205.64"/>
<polygon fill="midnightblue" stroke="midnightblue" points="359.6,-209.07 370.18,-208.47 361.54,-202.34 359.6,-209.07"/>
</g>
<!-- Node2&#45;&gt;Node4 -->
<g id="edge3" class="edge">
<title>Node2&#45;&gt;Node4</title>
<path fill="none" stroke="midnightblue" d="M299.27,-154.9C312.63,-151.06 327.1,-146.91 341.26,-142.84"/>
<polygon fill="midnightblue" stroke="midnightblue" points="342.35,-146.17 351,-140.04 340.42,-139.44 342.35,-146.17"/>
</g>
<!-- Node5 -->
<g id="node5" class="node">
<title>Node5</title>
<g id="a_node5"><a xlink:href="classweb_1_1websocket_1_1_sub_protocol_factory_selector.html#a562695e0b6cbb6457d3f246cea729baf" target="_top" xlink:title=" ">
<polygon fill="white" stroke="black" points="350,-159.5 350,-189.5 497,-189.5 497,-159.5 350,-159.5"/>
<text text-anchor="start" x="358" y="-177.5" font-family="Helvetica,sans-Serif" font-size="10.00">web::websocket::SubProtocol</text>
<text text-anchor="middle" x="423.5" y="-166.5" font-family="Helvetica,sans-Serif" font-size="10.00">FactorySelector::unload</text>
</a>
</g>
</g>
<!-- Node2&#45;&gt;Node5 -->
<g id="edge4" class="edge">
<title>Node2&#45;&gt;Node5</title>
<path fill="none" stroke="midnightblue" d="M299.27,-172.46C312.05,-172.67 325.83,-172.9 339.39,-173.12"/>
<polygon fill="midnightblue" stroke="midnightblue" points="339.64,-176.63 349.7,-173.29 339.76,-169.63 339.64,-176.63"/>
</g>
<!-- Node6 -->
<g id="node6" class="node">
<title>Node6</title>
<g id="a_node6"><a xlink:href="classnet_1_1_dynamic_loader.html#a1aca5c1a857544608e2adf0edc27c82e" target="_top" xlink:title=" ">
<polygon fill="white" stroke="black" points="533,-104.5 533,-134.5 637,-134.5 637,-104.5 533,-104.5"/>
<text text-anchor="start" x="541" y="-122.5" font-family="Helvetica,sans-Serif" font-size="10.00">net::DynamicLoader</text>
<text text-anchor="middle" x="585" y="-111.5" font-family="Helvetica,sans-Serif" font-size="10.00">::dlClose</text>
</a>
</g>
</g>
<!-- Node5&#45;&gt;Node6 -->
<g id="edge5" class="edge">
<title>Node5&#45;&gt;Node6</title>
<path fill="none" stroke="midnightblue" d="M468.08,-159.47C487.51,-152.77 510.57,-144.82 530.99,-137.78"/>
<polygon fill="midnightblue" stroke="midnightblue" points="532.16,-141.08 540.47,-134.51 529.87,-134.46 532.16,-141.08"/>
</g>
<!-- Node7 -->
<g id="node7" class="node">
<title>Node7</title>
<g id="a_node7"><a xlink:href="classnet_1_1_dynamic_loader.html#a959fdd5a4fae487d1cef5c7141ff81ba" target="_top" xlink:title=" ">
<polygon fill="white" stroke="black" points="673,-104.5 673,-134.5 777,-134.5 777,-104.5 673,-104.5"/>
<text text-anchor="start" x="681" y="-122.5" font-family="Helvetica,sans-Serif" font-size="10.00">net::DynamicLoader</text>
<text text-anchor="middle" x="725" y="-111.5" font-family="Helvetica,sans-Serif" font-size="10.00">::execDlClose</text>
</a>
</g>
</g>
<!-- Node6&#45;&gt;Node7 -->
<g id="edge6" class="edge">
<title>Node6&#45;&gt;Node7</title>
<path fill="none" stroke="midnightblue" d="M637.39,-119.5C645.56,-119.5 654.08,-119.5 662.46,-119.5"/>
<polygon fill="midnightblue" stroke="midnightblue" points="662.57,-123 672.57,-119.5 662.57,-116 662.57,-123"/>
</g>
<!-- Node8 -->
<g id="node8" class="node">
<title>Node8</title>
<g id="a_node8"><a xlink:href="namespacenet_1_1system.html#afe90648ec3d910876576a7ce420635af" target="_top" xlink:title=" ">
<polygon fill="white" stroke="black" points="813,-110 813,-129 918,-129 918,-110 813,-110"/>
<text text-anchor="middle" x="865.5" y="-117" font-family="Helvetica,sans-Serif" font-size="10.00">net::system::dlclose</text>
</a>
</g>
</g>
<!-- Node7&#45;&gt;Node8 -->
<g id="edge7" class="edge">
<title>Node7&#45;&gt;Node8</title>
<path fill="none" stroke="midnightblue" d="M777.18,-119.5C785.4,-119.5 793.98,-119.5 802.42,-119.5"/>
<polygon fill="midnightblue" stroke="midnightblue" points="802.61,-123 812.61,-119.5 802.61,-116 802.61,-123"/>
</g>
<!-- Node10 -->
<g id="node10" class="node">
<title>Node10</title>
<g id="a_node10"><a xlink:href="classweb_1_1websocket_1_1_sub_protocol_factory_selector.html#acede132589364760936fe84cc98cb7a3" target="_top" xlink:title=" ">
<polygon fill="white" stroke="black" points="350,-49.5 350,-79.5 497,-79.5 497,-49.5 350,-49.5"/>
<text text-anchor="start" x="358" y="-67.5" font-family="Helvetica,sans-Serif" font-size="10.00">web::websocket::SubProtocol</text>
<text text-anchor="middle" x="423.5" y="-56.5" font-family="Helvetica,sans-Serif" font-size="10.00">FactorySelector::add</text>
</a>
</g>
</g>
<!-- Node9&#45;&gt;Node10 -->
<g id="edge10" class="edge">
<title>Node9&#45;&gt;Node10</title>
<path fill="none" stroke="midnightblue" d="M314.08,-64.5C322.56,-64.5 331.26,-64.5 339.87,-64.5"/>
<polygon fill="midnightblue" stroke="midnightblue" points="339.91,-68 349.91,-64.5 339.91,-61 339.91,-68"/>
</g>
<!-- Node11 -->
<g id="node11" class="node">
<title>Node11</title>
<g id="a_node11"><a xlink:href="classweb_1_1websocket_1_1_sub_protocol_factory_selector.html#a0a66f50d961d8a19be578ca6c61562d1" target="_top" xlink:title=" ">
<polygon fill="white" stroke="black" points="350,-0.5 350,-30.5 497,-30.5 497,-0.5 350,-0.5"/>
<text text-anchor="start" x="358" y="-18.5" font-family="Helvetica,sans-Serif" font-size="10.00">web::websocket::SubProtocol</text>
<text text-anchor="middle" x="423.5" y="-7.5" font-family="Helvetica,sans-Serif" font-size="10.00">FactorySelector::load</text>
</a>
</g>
</g>
<!-- Node9&#45;&gt;Node11 -->
<g id="edge12" class="edge">
<title>Node9&#45;&gt;Node11</title>
<path fill="none" stroke="midnightblue" d="M297.28,-49.4C316.21,-44.27 337.52,-38.5 357.13,-33.2"/>
<polygon fill="midnightblue" stroke="midnightblue" points="358.16,-36.54 366.9,-30.55 356.33,-29.79 358.16,-36.54"/>
</g>
<!-- Node10&#45;&gt;Node6 -->
<g id="edge11" class="edge">
<title>Node10&#45;&gt;Node6</title>
<path fill="none" stroke="midnightblue" d="M468.08,-79.53C487.51,-86.23 510.57,-94.18 530.99,-101.22"/>
<polygon fill="midnightblue" stroke="midnightblue" points="529.87,-104.54 540.47,-104.49 532.16,-97.92 529.87,-104.54"/>
</g>
</g>
</svg>
