<?xml version="1.0" encoding="UTF-8" standalone="no"?>
<!DOCTYPE svg PUBLIC "-//W3C//DTD SVG 1.1//EN"
 "http://www.w3.org/Graphics/SVG/1.1/DTD/svg11.dtd">
<!-- Generated by graphviz version 2.43.0 (0)
 -->
<!-- Title: core::socket::stream::SocketAcceptor::acceptEvent Pages: 1 -->
<svg width="335pt" height="142pt"
 viewBox="0.00 0.00 335.00 142.00" xmlns="http://www.w3.org/2000/svg" xmlns:xlink="http://www.w3.org/1999/xlink">
<g id="graph0" class="graph" transform="scale(1 1) rotate(0) translate(4 138)">
<title>core::socket::stream::SocketAcceptor::acceptEvent</title>
<polygon fill="white" stroke="transparent" points="-4,4 -4,-138 331,-138 331,4 -4,4"/>
<!-- Node1 -->
<g id="node1" class="node">
<title>Node1</title>
<g id="a_node1"><a xlink:title=" ">
<polygon fill="#bfbfbf" stroke="black" points="0,-52 0,-82 153,-82 153,-52 0,-52"/>
<text text-anchor="start" x="8" y="-70" font-family="Helvetica,sans-Serif" font-size="10.00">core::socket::stream</text>
<text text-anchor="middle" x="76.5" y="-59" font-family="Helvetica,sans-Serif" font-size="10.00">::SocketAcceptor::acceptEvent</text>
</a>
</g>
</g>
<!-- Node2 -->
<g id="node2" class="node">
<title>Node2</title>
<g id="a_node2"><a xlink:href="namespacecore_1_1system.html#a2c1b676faa6cb9d0b9e7b42b91b374ab" target="_top" xlink:title=" ">
<polygon fill="white" stroke="black" points="201,-114.5 201,-133.5 315,-133.5 315,-114.5 201,-114.5"/>
<text text-anchor="middle" x="258" y="-121.5" font-family="Helvetica,sans-Serif" font-size="10.00">core::system::accept4</text>
</a>
</g>
</g>
<!-- Node1&#45;&gt;Node2 -->
<g id="edge1" class="edge">
<title>Node1&#45;&gt;Node2</title>
<path fill="none" stroke="midnightblue" d="M119.94,-82.09C140.67,-89.3 166.05,-97.89 189,-105 196.25,-107.24 203.96,-109.51 211.5,-111.67"/>
<polygon fill="midnightblue" stroke="midnightblue" points="210.67,-115.07 221.25,-114.41 212.57,-108.33 210.67,-115.07"/>
</g>
<!-- Node3 -->
<g id="node3" class="node">
<title>Node3</title>
<g id="a_node3"><a xlink:href="namespacecore_1_1system.html#a2aa41abc7d6ba9da2e5035b74608919a" target="_top" xlink:title=" ">
<polygon fill="white" stroke="black" points="206.5,-76.5 206.5,-95.5 309.5,-95.5 309.5,-76.5 206.5,-76.5"/>
<text text-anchor="middle" x="258" y="-83.5" font-family="Helvetica,sans-Serif" font-size="10.00">core::system::close</text>
</a>
</g>
</g>
<!-- Node1&#45;&gt;Node3 -->
<g id="edge2" class="edge">
<title>Node1&#45;&gt;Node3</title>
<path fill="none" stroke="midnightblue" d="M153.1,-75C167.46,-76.52 182.31,-78.09 196.13,-79.56"/>
<polygon fill="midnightblue" stroke="midnightblue" points="196.17,-83.08 206.48,-80.65 196.9,-76.12 196.17,-83.08"/>
</g>
<!-- Node4 -->
<g id="node4" class="node">
<title>Node4</title>
<g id="a_node4"><a xlink:href="namespacecore_1_1system.html#a252068ee271f0319fdfac711649f852f" target="_top" xlink:title=" ">
<polygon fill="white" stroke="black" points="189,-38.5 189,-57.5 327,-57.5 327,-38.5 189,-38.5"/>
<text text-anchor="middle" x="258" y="-45.5" font-family="Helvetica,sans-Serif" font-size="10.00">core::system::getsockname</text>
</a>
</g>
</g>
<!-- Node1&#45;&gt;Node4 -->
<g id="edge3" class="edge">
<title>Node1&#45;&gt;Node4</title>
<path fill="none" stroke="midnightblue" d="M153.1,-59C161.64,-58.09 170.36,-57.17 178.93,-56.26"/>
<polygon fill="midnightblue" stroke="midnightblue" points="179.33,-59.74 188.9,-55.21 178.59,-52.78 179.33,-59.74"/>
</g>
<!-- Node5 -->
<g id="node5" class="node">
<title>Node5</title>
<g id="a_node5"><a xlink:href="namespacecore_1_1system.html#a09a73e9e38f3f98d7ca380cd663facef" target="_top" xlink:title=" ">
<polygon fill="white" stroke="black" points="197,-0.5 197,-19.5 319,-19.5 319,-0.5 197,-0.5"/>
<text text-anchor="middle" x="258" y="-7.5" font-family="Helvetica,sans-Serif" font-size="10.00">core::system::shutdown</text>
</a>
</g>
</g>
<!-- Node1&#45;&gt;Node5 -->
<g id="edge4" class="edge">
<title>Node1&#45;&gt;Node5</title>
<path fill="none" stroke="midnightblue" d="M119.94,-51.91C140.67,-44.7 166.05,-36.11 189,-29 196.25,-26.76 203.96,-24.49 211.5,-22.33"/>
<polygon fill="midnightblue" stroke="midnightblue" points="212.57,-25.67 221.25,-19.59 210.67,-18.93 212.57,-25.67"/>
</g>
</g>
</svg>
