<?xml version="1.0" encoding="UTF-8" standalone="no"?>
<!DOCTYPE svg PUBLIC "-//W3C//DTD SVG 1.1//EN"
 "http://www.w3.org/Graphics/SVG/1.1/DTD/svg11.dtd">
<!-- Generated by graphviz version 2.43.0 (0)
 -->
<!-- Title: core::DescriptorEventReceiver::triggered Pages: 1 -->
<svg width="744pt" height="312pt"
 viewBox="0.00 0.00 744.00 311.50" xmlns="http://www.w3.org/2000/svg" xmlns:xlink="http://www.w3.org/1999/xlink">
<g id="graph0" class="graph" transform="scale(1 1) rotate(0) translate(4 307.5)">
<title>core::DescriptorEventReceiver::triggered</title>
<polygon fill="white" stroke="transparent" points="-4,4 -4,-307.5 740,-307.5 740,4 -4,4"/>
<!-- Node1 -->
<g id="node1" class="node">
<title>Node1</title>
<g id="a_node1"><a xlink:title=" ">
<polygon fill="#bfbfbf" stroke="black" points="572,-175 572,-205 736,-205 736,-175 572,-175"/>
<text text-anchor="start" x="580" y="-193" font-family="Helvetica,sans-Serif" font-size="10.00">core::DescriptorEventReceiver</text>
<text text-anchor="middle" x="654" y="-182" font-family="Helvetica,sans-Serif" font-size="10.00">::triggered</text>
</a>
</g>
</g>
<!-- Node2 -->
<g id="node2" class="node">
<title>Node2</title>
<g id="a_node2"><a xlink:href="classcore_1_1_descriptor_event_receiver.html#a1dfce3b12cb998d452b9b78d1fc9b2fa" target="_top" xlink:title=" ">
<polygon fill="white" stroke="black" points="370.5,-224 370.5,-254 534.5,-254 534.5,-224 370.5,-224"/>
<text text-anchor="start" x="378.5" y="-242" font-family="Helvetica,sans-Serif" font-size="10.00">core::DescriptorEventReceiver</text>
<text text-anchor="middle" x="452.5" y="-231" font-family="Helvetica,sans-Serif" font-size="10.00">::dispatch</text>
</a>
</g>
</g>
<!-- Node1&#45;&gt;Node2 -->
<g id="edge1" class="edge">
<title>Node1&#45;&gt;Node2</title>
<path fill="none" stroke="midnightblue" d="M581.84,-207.48C559.86,-212.88 535.84,-218.78 514.6,-223.99"/>
<polygon fill="midnightblue" stroke="midnightblue" points="582.91,-210.82 591.79,-205.03 581.24,-204.02 582.91,-210.82"/>
</g>
<!-- Node3 -->
<g id="node3" class="node">
<title>Node3</title>
<g id="a_node3"><a xlink:href="classcore_1_1_descriptor_event_receiver.html#ab7891fad490ecab4a5bd98dc9b6f65b2" target="_top" xlink:title=" ">
<polygon fill="white" stroke="black" points="370.5,-175 370.5,-205 534.5,-205 534.5,-175 370.5,-175"/>
<text text-anchor="start" x="378.5" y="-193" font-family="Helvetica,sans-Serif" font-size="10.00">core::DescriptorEventReceiver</text>
<text text-anchor="middle" x="452.5" y="-182" font-family="Helvetica,sans-Serif" font-size="10.00">::setTimeout</text>
</a>
</g>
</g>
<!-- Node1&#45;&gt;Node3 -->
<g id="edge2" class="edge">
<title>Node1&#45;&gt;Node3</title>
<path fill="none" stroke="midnightblue" d="M561.7,-190C552.65,-190 543.51,-190 534.57,-190"/>
<polygon fill="midnightblue" stroke="midnightblue" points="561.86,-193.5 571.86,-190 561.86,-186.5 561.86,-193.5"/>
</g>
<!-- Node13 -->
<g id="node13" class="node">
<title>Node13</title>
<g id="a_node13"><a xlink:href="classcore_1_1_descriptor_event_publisher.html#afa2551ee901a01c134fee708e44e8178" target="_top" xlink:title=" ">
<polygon fill="white" stroke="black" points="369,-126 369,-156 536,-156 536,-126 369,-126"/>
<text text-anchor="start" x="377" y="-144" font-family="Helvetica,sans-Serif" font-size="10.00">core::DescriptorEventPublisher</text>
<text text-anchor="middle" x="452.5" y="-133" font-family="Helvetica,sans-Serif" font-size="10.00">::unobserveDisabledEvents</text>
</a>
</g>
</g>
<!-- Node1&#45;&gt;Node13 -->
<g id="edge12" class="edge">
<title>Node1&#45;&gt;Node13</title>
<path fill="none" stroke="midnightblue" d="M581.84,-172.52C559.86,-167.12 535.84,-161.22 514.6,-156.01"/>
<polygon fill="midnightblue" stroke="midnightblue" points="581.24,-175.98 591.79,-174.97 582.91,-169.18 581.24,-175.98"/>
</g>
<!-- Node4 -->
<g id="node4" class="node">
<title>Node4</title>
<g id="a_node4"><a xlink:href="classcore_1_1socket_1_1stream_1_1_socket_connection.html#acbfaeb8f4cb397378bc666e4b13be45d" target="_top" xlink:title=" ">
<polygon fill="white" stroke="black" points="163,-273 163,-303 333,-303 333,-273 163,-273"/>
<text text-anchor="start" x="171" y="-291" font-family="Helvetica,sans-Serif" font-size="10.00">core::socket::stream</text>
<text text-anchor="middle" x="248" y="-280" font-family="Helvetica,sans-Serif" font-size="10.00">::SocketConnection::setTimeout</text>
</a>
</g>
</g>
<!-- Node3&#45;&gt;Node4 -->
<g id="edge3" class="edge">
<title>Node3&#45;&gt;Node4</title>
<path fill="none" stroke="midnightblue" d="M377.94,-209.45C374.83,-211.15 371.83,-212.99 369,-215 346.94,-230.61 355.18,-248.57 333,-264 328.02,-267.46 322.54,-270.43 316.85,-272.97"/>
<polygon fill="midnightblue" stroke="midnightblue" points="379.52,-212.57 386.96,-205.03 376.44,-206.29 379.52,-212.57"/>
</g>
<!-- Node5 -->
<g id="node5" class="node">
<title>Node5</title>
<g id="a_node5"><a xlink:href="classcore_1_1socket_1_1stream_1_1_socket_reader.html#a08ed40da6a9eab2338abe7caf813815c" target="_top" xlink:title=" ">
<polygon fill="white" stroke="black" points="167,-224 167,-254 329,-254 329,-224 167,-224"/>
<text text-anchor="start" x="175" y="-242" font-family="Helvetica,sans-Serif" font-size="10.00">core::socket::stream</text>
<text text-anchor="middle" x="248" y="-231" font-family="Helvetica,sans-Serif" font-size="10.00">::SocketReader::SocketReader</text>
</a>
</g>
</g>
<!-- Node3&#45;&gt;Node5 -->
<g id="edge4" class="edge">
<title>Node3&#45;&gt;Node5</title>
<path fill="none" stroke="midnightblue" d="M379.58,-207.4C357.17,-212.82 332.68,-218.75 311.02,-223.99"/>
<polygon fill="midnightblue" stroke="midnightblue" points="380.47,-210.79 389.37,-205.03 378.82,-203.98 380.47,-210.79"/>
</g>
<!-- Node6 -->
<g id="node6" class="node">
<title>Node6</title>
<g id="a_node6"><a xlink:href="classcore_1_1socket_1_1stream_1_1_socket_writer.html#a5ba1c52e7d40026bb53913db9dd139ba" target="_top" xlink:title=" ">
<polygon fill="white" stroke="black" points="171.5,-175 171.5,-205 324.5,-205 324.5,-175 171.5,-175"/>
<text text-anchor="start" x="179.5" y="-193" font-family="Helvetica,sans-Serif" font-size="10.00">core::socket::stream</text>
<text text-anchor="middle" x="248" y="-182" font-family="Helvetica,sans-Serif" font-size="10.00">::SocketWriter::SocketWriter</text>
</a>
</g>
</g>
<!-- Node3&#45;&gt;Node6 -->
<g id="edge5" class="edge">
<title>Node3&#45;&gt;Node6</title>
<path fill="none" stroke="midnightblue" d="M359.98,-190C348.16,-190 336.16,-190 324.64,-190"/>
<polygon fill="midnightblue" stroke="midnightblue" points="360.3,-193.5 370.3,-190 360.3,-186.5 360.3,-193.5"/>
</g>
<!-- Node7 -->
<g id="node7" class="node">
<title>Node7</title>
<g id="a_node7"><a xlink:href="classcore_1_1socket_1_1stream_1_1_socket_reader.html#ae02113de143ed92a6f9b8e657dcfc0cb" target="_top" xlink:title=" ">
<polygon fill="white" stroke="black" points="176.5,-126 176.5,-156 319.5,-156 319.5,-126 176.5,-126"/>
<text text-anchor="start" x="184.5" y="-144" font-family="Helvetica,sans-Serif" font-size="10.00">core::socket::stream</text>
<text text-anchor="middle" x="248" y="-133" font-family="Helvetica,sans-Serif" font-size="10.00">::SocketReader::terminate</text>
</a>
</g>
</g>
<!-- Node3&#45;&gt;Node7 -->
<g id="edge6" class="edge">
<title>Node3&#45;&gt;Node7</title>
<path fill="none" stroke="midnightblue" d="M379.58,-172.6C357.17,-167.18 332.68,-161.25 311.02,-156.01"/>
<polygon fill="midnightblue" stroke="midnightblue" points="378.82,-176.02 389.37,-174.97 380.47,-169.21 378.82,-176.02"/>
</g>
<!-- Node10 -->
<g id="node10" class="node">
<title>Node10</title>
<g id="a_node10"><a xlink:href="classcore_1_1socket_1_1stream_1_1_socket_writer.html#a3ad452718fe51eb997addacda7eb03fb" target="_top" xlink:title=" ">
<polygon fill="white" stroke="black" points="178.5,-66 178.5,-96 317.5,-96 317.5,-66 178.5,-66"/>
<text text-anchor="start" x="186.5" y="-84" font-family="Helvetica,sans-Serif" font-size="10.00">core::socket::stream</text>
<text text-anchor="middle" x="248" y="-73" font-family="Helvetica,sans-Serif" font-size="10.00">::SocketWriter::terminate</text>
</a>
</g>
</g>
<!-- Node3&#45;&gt;Node10 -->
<g id="edge9" class="edge">
<title>Node3&#45;&gt;Node10</title>
<path fill="none" stroke="midnightblue" d="M375.67,-170.22C373.37,-168.9 371.14,-167.5 369,-166 346.85,-150.52 354.16,-133.8 333,-117 322.19,-108.42 309.02,-101.51 296.36,-96.13"/>
<polygon fill="midnightblue" stroke="midnightblue" points="374.36,-173.47 384.86,-174.88 377.52,-167.23 374.36,-173.47"/>
</g>
<!-- Node8 -->
<g id="node8" class="node">
<title>Node8</title>
<g id="a_node8"><a xlink:href="classcore_1_1socket_1_1stream_1_1legacy_1_1_socket_reader.html#a9f92f97df23e621382b47d8a4e048001" target="_top" xlink:title=" ">
<polygon fill="white" stroke="black" points="0,-180.5 0,-221.5 127,-221.5 127,-180.5 0,-180.5"/>
<text text-anchor="start" x="8" y="-209.5" font-family="Helvetica,sans-Serif" font-size="10.00">core::socket::stream</text>
<text text-anchor="start" x="8" y="-198.5" font-family="Helvetica,sans-Serif" font-size="10.00">::legacy::SocketReader</text>
<text text-anchor="middle" x="63.5" y="-187.5" font-family="Helvetica,sans-Serif" font-size="10.00">::terminate</text>
</a>
</g>
</g>
<!-- Node7&#45;&gt;Node8 -->
<g id="edge7" class="edge">
<title>Node7&#45;&gt;Node8</title>
<path fill="none" stroke="midnightblue" d="M185.12,-159.02C177.65,-161.31 170.14,-163.67 163,-166 149.28,-170.47 134.59,-175.55 120.84,-180.41"/>
<polygon fill="midnightblue" stroke="midnightblue" points="186.34,-162.3 194.89,-156.05 184.3,-155.61 186.34,-162.3"/>
</g>
<!-- Node9 -->
<g id="node9" class="node">
<title>Node9</title>
<g id="a_node9"><a xlink:href="classcore_1_1socket_1_1stream_1_1tls_1_1_socket_reader.html#a1da5324c7c28bb2c42302115eec21e51" target="_top" xlink:title=" ">
<polygon fill="white" stroke="black" points="5.5,-120.5 5.5,-161.5 121.5,-161.5 121.5,-120.5 5.5,-120.5"/>
<text text-anchor="start" x="13.5" y="-149.5" font-family="Helvetica,sans-Serif" font-size="10.00">core::socket::stream</text>
<text text-anchor="start" x="13.5" y="-138.5" font-family="Helvetica,sans-Serif" font-size="10.00">::tls::SocketReader::</text>
<text text-anchor="middle" x="63.5" y="-127.5" font-family="Helvetica,sans-Serif" font-size="10.00">terminate</text>
</a>
</g>
</g>
<!-- Node7&#45;&gt;Node9 -->
<g id="edge8" class="edge">
<title>Node7&#45;&gt;Node9</title>
<path fill="none" stroke="midnightblue" d="M166.13,-141C151.11,-141 135.72,-141 121.6,-141"/>
<polygon fill="midnightblue" stroke="midnightblue" points="166.44,-144.5 176.44,-141 166.44,-137.5 166.44,-144.5"/>
</g>
<!-- Node11 -->
<g id="node11" class="node">
<title>Node11</title>
<g id="a_node11"><a xlink:href="classcore_1_1socket_1_1stream_1_1legacy_1_1_socket_writer.html#a235ba35ef8f9732ce9d2d69f13db469c" target="_top" xlink:title=" ">
<polygon fill="white" stroke="black" points="2.5,-60.5 2.5,-101.5 124.5,-101.5 124.5,-60.5 2.5,-60.5"/>
<text text-anchor="start" x="10.5" y="-89.5" font-family="Helvetica,sans-Serif" font-size="10.00">core::socket::stream</text>
<text text-anchor="start" x="10.5" y="-78.5" font-family="Helvetica,sans-Serif" font-size="10.00">::legacy::SocketWriter</text>
<text text-anchor="middle" x="63.5" y="-67.5" font-family="Helvetica,sans-Serif" font-size="10.00">::terminate</text>
</a>
</g>
</g>
<!-- Node10&#45;&gt;Node11 -->
<g id="edge10" class="edge">
<title>Node10&#45;&gt;Node11</title>
<path fill="none" stroke="midnightblue" d="M167.85,-81C153.41,-81 138.57,-81 124.79,-81"/>
<polygon fill="midnightblue" stroke="midnightblue" points="168.26,-84.5 178.26,-81 168.26,-77.5 168.26,-84.5"/>
</g>
<!-- Node12 -->
<g id="node12" class="node">
<title>Node12</title>
<g id="a_node12"><a xlink:href="classcore_1_1socket_1_1stream_1_1tls_1_1_socket_writer.html#ada3040026e1cdb1264006fca73f8cf4d" target="_top" xlink:title=" ">
<polygon fill="white" stroke="black" points="5.5,-0.5 5.5,-41.5 121.5,-41.5 121.5,-0.5 5.5,-0.5"/>
<text text-anchor="start" x="13.5" y="-29.5" font-family="Helvetica,sans-Serif" font-size="10.00">core::socket::stream</text>
<text text-anchor="start" x="13.5" y="-18.5" font-family="Helvetica,sans-Serif" font-size="10.00">::tls::SocketWriter::</text>
<text text-anchor="middle" x="63.5" y="-7.5" font-family="Helvetica,sans-Serif" font-size="10.00">terminate</text>
</a>
</g>
</g>
<!-- Node10&#45;&gt;Node12 -->
<g id="edge11" class="edge">
<title>Node10&#45;&gt;Node12</title>
<path fill="none" stroke="midnightblue" d="M191.38,-62.71C169.29,-55.45 143.89,-47.1 121.65,-39.79"/>
<polygon fill="midnightblue" stroke="midnightblue" points="190.35,-66.06 200.95,-65.86 192.54,-59.41 190.35,-66.06"/>
</g>
</g>
</svg>
