<?xml version="1.0" encoding="UTF-8" standalone="no"?>
<!DOCTYPE svg PUBLIC "-//W3C//DTD SVG 1.1//EN"
 "http://www.w3.org/Graphics/SVG/1.1/DTD/svg11.dtd">
<!-- Generated by graphviz version 2.43.0 (0)
 -->
<!-- Title: net::un::stream::config::ConfigSocketClient Pages: 1 -->
<svg width="428pt" height="240pt"
 viewBox="0.00 0.00 428.00 240.00" xmlns="http://www.w3.org/2000/svg" xmlns:xlink="http://www.w3.org/1999/xlink">
<g id="graph0" class="graph" transform="scale(1 1) rotate(0) translate(4 236)">
<title>net::un::stream::config::ConfigSocketClient</title>
<polygon fill="white" stroke="transparent" points="-4,4 -4,-236 424,-236 424,4 -4,4"/>
<!-- Node1 -->
<g id="node1" class="node">
<title>Node1</title>
<g id="a_node1"><a xlink:title=" ">
<polygon fill="#bfbfbf" stroke="black" points="96,-67.5 96,-97.5 223,-97.5 223,-67.5 96,-67.5"/>
<text text-anchor="start" x="104" y="-85.5" font-family="Helvetica,sans-Serif" font-size="10.00">net::un::stream::config</text>
<text text-anchor="middle" x="159.5" y="-74.5" font-family="Helvetica,sans-Serif" font-size="10.00">::ConfigSocketClient</text>
</a>
</g>
</g>
<!-- Node6 -->
<g id="node6" class="node">
<title>Node6</title>
<g id="a_node6"><a xlink:href="classnet_1_1un_1_1stream_1_1legacy_1_1config_1_1_config_socket_client.html" target="_top" xlink:title=" ">
<polygon fill="white" stroke="black" points="0,-0.5 0,-30.5 151,-30.5 151,-0.5 0,-0.5"/>
<text text-anchor="start" x="8" y="-18.5" font-family="Helvetica,sans-Serif" font-size="10.00">net::un::stream::legacy</text>
<text text-anchor="middle" x="75.5" y="-7.5" font-family="Helvetica,sans-Serif" font-size="10.00">::config::ConfigSocketClient</text>
</a>
</g>
</g>
<!-- Node1&#45;&gt;Node6 -->
<g id="edge6" class="edge">
<title>Node1&#45;&gt;Node6</title>
<path fill="none" stroke="midnightblue" d="M133.22,-61.17C120.38,-51.23 105.24,-39.51 93.69,-30.58"/>
<polygon fill="none" stroke="midnightblue" points="131.22,-64.04 141.27,-67.4 135.51,-58.51 131.22,-64.04"/>
</g>
<!-- Node7 -->
<g id="node7" class="node">
<title>Node7</title>
<g id="a_node7"><a xlink:href="classnet_1_1un_1_1stream_1_1tls_1_1config_1_1_config_socket_client.html" target="_top" xlink:title=" ">
<polygon fill="white" stroke="black" points="169,-0.5 169,-30.5 320,-30.5 320,-0.5 169,-0.5"/>
<text text-anchor="start" x="177" y="-18.5" font-family="Helvetica,sans-Serif" font-size="10.00">net::un::stream::tls</text>
<text text-anchor="middle" x="244.5" y="-7.5" font-family="Helvetica,sans-Serif" font-size="10.00">::config::ConfigSocketClient</text>
</a>
</g>
</g>
<!-- Node1&#45;&gt;Node7 -->
<g id="edge7" class="edge">
<title>Node1&#45;&gt;Node7</title>
<path fill="none" stroke="midnightblue" d="M186.09,-61.17C199.09,-51.23 214.4,-39.51 226.09,-30.58"/>
<polygon fill="none" stroke="midnightblue" points="183.76,-58.54 177.94,-67.4 188.01,-64.1 183.76,-58.54"/>
</g>
<!-- Node2 -->
<g id="node2" class="node">
<title>Node2</title>
<g id="a_node2"><a xlink:href="classnet_1_1un_1_1config_1_1_config_address.html" target="_top" xlink:title=" ">
<polygon fill="white" stroke="black" points="78,-134.5 78,-164.5 241,-164.5 241,-134.5 78,-134.5"/>
<text text-anchor="start" x="86" y="-152.5" font-family="Helvetica,sans-Serif" font-size="10.00">net::un::config::ConfigAddress</text>
<text text-anchor="middle" x="159.5" y="-141.5" font-family="Helvetica,sans-Serif" font-size="10.00">&lt; ConfigAddressTypeT &gt;</text>
</a>
</g>
</g>
<!-- Node2&#45;&gt;Node1 -->
<g id="edge1" class="edge">
<title>Node2&#45;&gt;Node1</title>
<path fill="none" stroke="midnightblue" d="M152.95,-124.4C152.51,-115.37 152.8,-105.41 153.83,-97.58"/>
<polygon fill="none" stroke="midnightblue" points="149.47,-124.74 153.82,-134.4 156.44,-124.13 149.47,-124.74"/>
</g>
<!-- Node2&#45;&gt;Node1 -->
<g id="edge3" class="edge">
<title>Node2&#45;&gt;Node1</title>
<path fill="none" stroke="midnightblue" d="M166.05,-124.4C166.49,-115.37 166.2,-105.41 165.17,-97.58"/>
<polygon fill="none" stroke="midnightblue" points="162.56,-124.13 165.18,-134.4 169.53,-124.74 162.56,-124.13"/>
</g>
<!-- Node3 -->
<g id="node3" class="node">
<title>Node3</title>
<g id="a_node3"><a xlink:title=" ">
<polygon fill="white" stroke="#bfbfbf" points="84.5,-201.5 84.5,-231.5 234.5,-231.5 234.5,-201.5 84.5,-201.5"/>
<text text-anchor="start" x="92.5" y="-219.5" font-family="Helvetica,sans-Serif" font-size="10.00">ConfigAddressTypeT</text>
<text text-anchor="middle" x="159.5" y="-208.5" font-family="Helvetica,sans-Serif" font-size="10.00">&lt; net::un::SocketAddress &gt;</text>
</a>
</g>
</g>
<!-- Node3&#45;&gt;Node2 -->
<g id="edge2" class="edge">
<title>Node3&#45;&gt;Node2</title>
<path fill="none" stroke="midnightblue" d="M159.5,-191.11C159.5,-182.15 159.5,-172.32 159.5,-164.58"/>
<polygon fill="none" stroke="midnightblue" points="156,-191.4 159.5,-201.4 163,-191.4 156,-191.4"/>
</g>
<!-- Node4 -->
<g id="node4" class="node">
<title>Node4</title>
<g id="a_node4"><a xlink:href="classnet_1_1config_1_1_config_connection.html" target="_top" xlink:title=" ">
<polygon fill="white" stroke="black" points="259,-140 259,-159 420,-159 420,-140 259,-140"/>
<text text-anchor="middle" x="339.5" y="-147" font-family="Helvetica,sans-Serif" font-size="10.00">net::config::ConfigConnection</text>
</a>
</g>
</g>
<!-- Node4&#45;&gt;Node1 -->
<g id="edge4" class="edge">
<title>Node4&#45;&gt;Node1</title>
<path fill="none" stroke="midnightblue" d="M305.84,-136.35C275.33,-125.33 230.37,-109.09 198.35,-97.53"/>
<polygon fill="none" stroke="midnightblue" points="305,-139.76 315.6,-139.87 307.38,-133.18 305,-139.76"/>
</g>
<!-- Node5 -->
<g id="node5" class="node">
<title>Node5</title>
<g id="a_node5"><a xlink:href="classnet_1_1config_1_1_config_base.html" target="_top" xlink:title=" ">
<polygon fill="white" stroke="black" points="274.5,-207 274.5,-226 404.5,-226 404.5,-207 274.5,-207"/>
<text text-anchor="middle" x="339.5" y="-214" font-family="Helvetica,sans-Serif" font-size="10.00">net::config::ConfigBase</text>
</a>
</g>
</g>
<!-- Node5&#45;&gt;Node4 -->
<g id="edge5" class="edge">
<title>Node5&#45;&gt;Node4</title>
<path fill="none" stroke="darkgreen" d="M339.5,-196.54C339.5,-184.17 339.5,-168.62 339.5,-159.13"/>
<polygon fill="none" stroke="darkgreen" points="336,-196.73 339.5,-206.73 343,-196.73 336,-196.73"/>
</g>
</g>
</svg>
