<?xml version="1.0" encoding="UTF-8" standalone="no"?>
<!DOCTYPE svg PUBLIC "-//W3C//DTD SVG 1.1//EN"
 "http://www.w3.org/Graphics/SVG/1.1/DTD/svg11.dtd">
<!-- Generated by graphviz version 2.43.0 (0)
 -->
<!-- Title: net::socket::stream::tls::TLSHandshake::readTimeout Pages: 1 -->
<svg width="687pt" height="228pt"
 viewBox="0.00 0.00 687.00 228.00" xmlns="http://www.w3.org/2000/svg" xmlns:xlink="http://www.w3.org/1999/xlink">
<g id="graph0" class="graph" transform="scale(1 1) rotate(0) translate(4 224)">
<title>net::socket::stream::tls::TLSHandshake::readTimeout</title>
<polygon fill="white" stroke="transparent" points="-4,4 -4,-224 683,-224 683,4 -4,4"/>
<!-- Node1 -->
<g id="node1" class="node">
<title>Node1</title>
<g id="a_node1"><a xlink:title=" ">
<polygon fill="#bfbfbf" stroke="black" points="0,-91 0,-132 107,-132 107,-91 0,-91"/>
<text text-anchor="start" x="8" y="-120" font-family="Helvetica,sans-Serif" font-size="10.00">net::socket::stream</text>
<text text-anchor="start" x="8" y="-109" font-family="Helvetica,sans-Serif" font-size="10.00">::tls::TLSHandshake</text>
<text text-anchor="middle" x="53.5" y="-98" font-family="Helvetica,sans-Serif" font-size="10.00">::readTimeout</text>
</a>
</g>
</g>
<!-- Node2 -->
<g id="node2" class="node">
<title>Node2</title>
<g id="a_node2"><a xlink:href="classnet_1_1_event_receiver.html#af99ad4621551f0d032b5eabb76b613a1" target="_top" xlink:title=" ">
<polygon fill="white" stroke="black" points="143,-96.5 143,-126.5 244,-126.5 244,-96.5 143,-96.5"/>
<text text-anchor="start" x="151" y="-114.5" font-family="Helvetica,sans-Serif" font-size="10.00">net::EventReceiver</text>
<text text-anchor="middle" x="193.5" y="-103.5" font-family="Helvetica,sans-Serif" font-size="10.00">::disable</text>
</a>
</g>
</g>
<!-- Node1&#45;&gt;Node2 -->
<g id="edge1" class="edge">
<title>Node1&#45;&gt;Node2</title>
<path fill="none" stroke="midnightblue" d="M107.07,-111.5C115.4,-111.5 124.08,-111.5 132.58,-111.5"/>
<polygon fill="midnightblue" stroke="midnightblue" points="132.81,-115 142.81,-111.5 132.81,-108 132.81,-115"/>
</g>
<!-- Node3 -->
<g id="node3" class="node">
<title>Node3</title>
<g id="a_node3"><a xlink:href="classnet_1_1_event_dispatcher.html#a1298354d3ccafbd0c878852449af3799" target="_top" xlink:title=" ">
<polygon fill="white" stroke="black" points="280,-140.5 280,-170.5 389,-170.5 389,-140.5 280,-140.5"/>
<text text-anchor="start" x="288" y="-158.5" font-family="Helvetica,sans-Serif" font-size="10.00">net::EventDispatcher</text>
<text text-anchor="middle" x="334.5" y="-147.5" font-family="Helvetica,sans-Serif" font-size="10.00">::disable</text>
</a>
</g>
</g>
<!-- Node2&#45;&gt;Node3 -->
<g id="edge2" class="edge">
<title>Node2&#45;&gt;Node3</title>
<path fill="none" stroke="midnightblue" d="M241.95,-126.52C252.9,-129.99 264.66,-133.71 275.99,-137.29"/>
<polygon fill="midnightblue" stroke="midnightblue" points="275.2,-140.72 285.79,-140.4 277.32,-134.04 275.2,-140.72"/>
</g>
<!-- Node6 -->
<g id="node6" class="node">
<title>Node6</title>
<g id="a_node6"><a xlink:href="classnet_1_1_event_receiver.html#afdfa280e579e56b9acadb54465c65528" target="_top" xlink:title=" ">
<polygon fill="white" stroke="black" points="574,-98.5 574,-128.5 675,-128.5 675,-98.5 574,-98.5"/>
<text text-anchor="start" x="582" y="-116.5" font-family="Helvetica,sans-Serif" font-size="10.00">net::EventReceiver</text>
<text text-anchor="middle" x="624.5" y="-105.5" font-family="Helvetica,sans-Serif" font-size="10.00">::isSuspended</text>
</a>
</g>
</g>
<!-- Node2&#45;&gt;Node6 -->
<g id="edge5" class="edge">
<title>Node2&#45;&gt;Node6</title>
<path fill="none" stroke="midnightblue" d="M244.13,-111.73C323.5,-112.1 478.72,-112.83 563.95,-113.22"/>
<polygon fill="midnightblue" stroke="midnightblue" points="563.97,-116.72 573.99,-113.27 564,-109.72 563.97,-116.72"/>
</g>
<!-- Node7 -->
<g id="node7" class="node">
<title>Node7</title>
<g id="a_node7"><a xlink:href="classnet_1_1_event_receiver.html#a6c5065f83b6aad6a60f5369ccc5963b1" target="_top" xlink:title=" ">
<polygon fill="white" stroke="black" points="284,-52.5 284,-82.5 385,-82.5 385,-52.5 284,-52.5"/>
<text text-anchor="start" x="292" y="-70.5" font-family="Helvetica,sans-Serif" font-size="10.00">net::EventReceiver</text>
<text text-anchor="middle" x="334.5" y="-59.5" font-family="Helvetica,sans-Serif" font-size="10.00">::suspend</text>
</a>
</g>
</g>
<!-- Node2&#45;&gt;Node7 -->
<g id="edge6" class="edge">
<title>Node2&#45;&gt;Node7</title>
<path fill="none" stroke="midnightblue" d="M241.95,-96.48C252.9,-93.01 264.66,-89.29 275.99,-85.71"/>
<polygon fill="midnightblue" stroke="midnightblue" points="277.32,-88.96 285.79,-82.6 275.2,-82.28 277.32,-88.96"/>
</g>
<!-- Node4 -->
<g id="node4" class="node">
<title>Node4</title>
<g id="a_node4"><a xlink:href="classnet_1_1_event_receiver.html#a26548a33372081c52eff4df128fa573f" target="_top" xlink:title=" ">
<polygon fill="white" stroke="black" points="429,-189.5 429,-219.5 530,-219.5 530,-189.5 429,-189.5"/>
<text text-anchor="start" x="437" y="-207.5" font-family="Helvetica,sans-Serif" font-size="10.00">net::EventReceiver</text>
<text text-anchor="middle" x="479.5" y="-196.5" font-family="Helvetica,sans-Serif" font-size="10.00">::disabled</text>
</a>
</g>
</g>
<!-- Node3&#45;&gt;Node4 -->
<g id="edge3" class="edge">
<title>Node3&#45;&gt;Node4</title>
<path fill="none" stroke="midnightblue" d="M379.57,-170.6C393.84,-175.49 409.83,-180.97 424.73,-186.07"/>
<polygon fill="midnightblue" stroke="midnightblue" points="423.73,-189.43 434.33,-189.36 426,-182.81 423.73,-189.43"/>
</g>
<!-- Node5 -->
<g id="node5" class="node">
<title>Node5</title>
<g id="a_node5"><a xlink:href="classnet_1_1_event_receiver.html#ac4e3a75a2849d0d8b1fc4ba2b754c8e3" target="_top" xlink:title=" ">
<polygon fill="white" stroke="black" points="429,-140.5 429,-170.5 530,-170.5 530,-140.5 429,-140.5"/>
<text text-anchor="start" x="437" y="-158.5" font-family="Helvetica,sans-Serif" font-size="10.00">net::EventReceiver</text>
<text text-anchor="middle" x="479.5" y="-147.5" font-family="Helvetica,sans-Serif" font-size="10.00">::isEnabled</text>
</a>
</g>
</g>
<!-- Node3&#45;&gt;Node5 -->
<g id="edge4" class="edge">
<title>Node3&#45;&gt;Node5</title>
<path fill="none" stroke="midnightblue" d="M389.15,-155.5C398.8,-155.5 408.91,-155.5 418.72,-155.5"/>
<polygon fill="midnightblue" stroke="midnightblue" points="418.8,-159 428.8,-155.5 418.8,-152 418.8,-159"/>
</g>
<!-- Node8 -->
<g id="node8" class="node">
<title>Node8</title>
<g id="a_node8"><a xlink:href="classnet_1_1_event_dispatcher.html#a3e9b28950b4c4738ba9f2d07515faf55" target="_top" xlink:title=" ">
<polygon fill="white" stroke="black" points="425,-51.5 425,-81.5 534,-81.5 534,-51.5 425,-51.5"/>
<text text-anchor="start" x="433" y="-69.5" font-family="Helvetica,sans-Serif" font-size="10.00">net::EventDispatcher</text>
<text text-anchor="middle" x="479.5" y="-58.5" font-family="Helvetica,sans-Serif" font-size="10.00">::suspend</text>
</a>
</g>
</g>
<!-- Node7&#45;&gt;Node8 -->
<g id="edge7" class="edge">
<title>Node7&#45;&gt;Node8</title>
<path fill="none" stroke="midnightblue" d="M385.11,-67.15C394.57,-67.09 404.6,-67.02 414.43,-66.95"/>
<polygon fill="midnightblue" stroke="midnightblue" points="414.61,-70.45 424.58,-66.88 414.56,-63.45 414.61,-70.45"/>
</g>
<!-- Node8&#45;&gt;Node6 -->
<g id="edge9" class="edge">
<title>Node8&#45;&gt;Node6</title>
<path fill="none" stroke="midnightblue" d="M526.14,-81.5C539.43,-85.87 554.09,-90.69 567.92,-95.23"/>
<polygon fill="midnightblue" stroke="midnightblue" points="567.21,-98.68 577.8,-98.48 569.4,-92.03 567.21,-98.68"/>
</g>
<!-- Node9 -->
<g id="node9" class="node">
<title>Node9</title>
<g id="a_node9"><a xlink:href="classnet_1_1_event_dispatcher_1_1_fd_set.html#a9f27047c523223dc325e32b003f350de" target="_top" xlink:title=" ">
<polygon fill="white" stroke="black" points="570,-49.5 570,-79.5 679,-79.5 679,-49.5 570,-49.5"/>
<text text-anchor="start" x="578" y="-67.5" font-family="Helvetica,sans-Serif" font-size="10.00">net::EventDispatcher</text>
<text text-anchor="middle" x="624.5" y="-56.5" font-family="Helvetica,sans-Serif" font-size="10.00">::FdSet::clr</text>
</a>
</g>
</g>
<!-- Node8&#45;&gt;Node9 -->
<g id="edge8" class="edge">
<title>Node8&#45;&gt;Node9</title>
<path fill="none" stroke="midnightblue" d="M534.15,-65.75C542.38,-65.63 550.94,-65.51 559.37,-65.4"/>
<polygon fill="midnightblue" stroke="midnightblue" points="559.59,-68.89 569.54,-65.25 559.5,-61.89 559.59,-68.89"/>
</g>
<!-- Node10 -->
<g id="node10" class="node">
<title>Node10</title>
<g id="a_node10"><a xlink:href="classnet_1_1_event_receiver.html#a2736c19a5be98adb814b4d2b10d93e6a" target="_top" xlink:title=" ">
<polygon fill="white" stroke="black" points="574,-0.5 574,-30.5 675,-30.5 675,-0.5 574,-0.5"/>
<text text-anchor="start" x="582" y="-18.5" font-family="Helvetica,sans-Serif" font-size="10.00">net::EventReceiver</text>
<text text-anchor="middle" x="624.5" y="-7.5" font-family="Helvetica,sans-Serif" font-size="10.00">::suspended</text>
</a>
</g>
</g>
<!-- Node8&#45;&gt;Node10 -->
<g id="edge10" class="edge">
<title>Node8&#45;&gt;Node10</title>
<path fill="none" stroke="midnightblue" d="M522.63,-51.47C537.91,-46.02 555.36,-39.8 571.4,-34.08"/>
<polygon fill="midnightblue" stroke="midnightblue" points="572.93,-37.25 581.18,-30.59 570.58,-30.66 572.93,-37.25"/>
</g>
</g>
</svg>
