<?xml version="1.0" encoding="UTF-8" standalone="no"?>
<!DOCTYPE svg PUBLIC "-//W3C//DTD SVG 1.1//EN"
 "http://www.w3.org/Graphics/SVG/1.1/DTD/svg11.dtd">
<!-- Generated by graphviz version 2.43.0 (0)
 -->
<!-- Title: core::file::FileReader::connect Pages: 1 -->
<svg width="928pt" height="127pt"
 viewBox="0.00 0.00 928.00 127.00" xmlns="http://www.w3.org/2000/svg" xmlns:xlink="http://www.w3.org/1999/xlink">
<g id="graph0" class="graph" transform="scale(1 1) rotate(0) translate(4 123)">
<title>core::file::FileReader::connect</title>
<polygon fill="white" stroke="transparent" points="-4,4 -4,-123 924,-123 924,4 -4,4"/>
<!-- Node1 -->
<g id="node1" class="node">
<title>Node1</title>
<g id="a_node1"><a xlink:title=" ">
<polygon fill="#bfbfbf" stroke="black" points="0,-44.5 0,-74.5 116,-74.5 116,-44.5 0,-44.5"/>
<text text-anchor="start" x="8" y="-62.5" font-family="Helvetica,sans-Serif" font-size="10.00">core::file::FileReader</text>
<text text-anchor="middle" x="58" y="-51.5" font-family="Helvetica,sans-Serif" font-size="10.00">::connect</text>
</a>
</g>
</g>
<!-- Node2 -->
<g id="node2" class="node">
<title>Node2</title>
<g id="a_node2"><a xlink:href="classcore_1_1file_1_1_file_reader.html#a528c00603662070fffba7df4cffa067c" target="_top" xlink:title=" ">
<polygon fill="white" stroke="black" points="152,-66.5 152,-96.5 268,-96.5 268,-66.5 152,-66.5"/>
<text text-anchor="start" x="160" y="-84.5" font-family="Helvetica,sans-Serif" font-size="10.00">core::file::FileReader</text>
<text text-anchor="middle" x="210" y="-73.5" font-family="Helvetica,sans-Serif" font-size="10.00">::FileReader</text>
</a>
</g>
</g>
<!-- Node1&#45;&gt;Node2 -->
<g id="edge1" class="edge">
<title>Node1&#45;&gt;Node2</title>
<path fill="none" stroke="midnightblue" d="M116.14,-67.88C124.47,-69.1 133.11,-70.37 141.62,-71.62"/>
<polygon fill="midnightblue" stroke="midnightblue" points="141.12,-75.08 151.53,-73.07 142.14,-68.16 141.12,-75.08"/>
</g>
<!-- Node10 -->
<g id="node10" class="node">
<title>Node10</title>
<g id="a_node10"><a xlink:href="namespacecore_1_1system.html#af932d59deb1d46aca925c487cebf0ab5" target="_top" xlink:title=" ">
<polygon fill="white" stroke="black" points="155,-28 155,-47 265,-47 265,-28 155,-28"/>
<text text-anchor="middle" x="210" y="-35" font-family="Helvetica,sans-Serif" font-size="10.00">core::system::open</text>
</a>
</g>
</g>
<!-- Node1&#45;&gt;Node10 -->
<g id="edge9" class="edge">
<title>Node1&#45;&gt;Node10</title>
<path fill="none" stroke="midnightblue" d="M116.14,-51.12C125.6,-49.73 135.47,-48.29 145.08,-46.87"/>
<polygon fill="midnightblue" stroke="midnightblue" points="145.6,-50.34 154.99,-45.42 144.59,-43.41 145.6,-50.34"/>
</g>
<!-- Node3 -->
<g id="node3" class="node">
<title>Node3</title>
<g id="a_node3"><a xlink:href="namespacecore_1_1system.html#a461a0fc3cbdbdb164a02d2d920489b62" target="_top" xlink:title=" ">
<polygon fill="white" stroke="black" points="304,-94 304,-113 428,-113 428,-94 304,-94"/>
<text text-anchor="middle" x="366" y="-101" font-family="Helvetica,sans-Serif" font-size="10.00">core::system::connect</text>
</a>
</g>
</g>
<!-- Node2&#45;&gt;Node3 -->
<g id="edge2" class="edge">
<title>Node2&#45;&gt;Node3</title>
<path fill="none" stroke="midnightblue" d="M268.34,-89.69C276.7,-90.89 285.39,-92.13 293.98,-93.35"/>
<polygon fill="midnightblue" stroke="midnightblue" points="293.6,-96.84 304,-94.79 294.59,-89.91 293.6,-96.84"/>
</g>
<!-- Node4 -->
<g id="node4" class="node">
<title>Node4</title>
<g id="a_node4"><a xlink:href="classcore_1_1_event_receiver.html#a2b80e945995510922706c33403f0a4f0" target="_top" xlink:title=" ">
<polygon fill="white" stroke="black" points="309,-44.5 309,-74.5 423,-74.5 423,-44.5 309,-44.5"/>
<text text-anchor="start" x="317" y="-62.5" font-family="Helvetica,sans-Serif" font-size="10.00">core::EventReceiver</text>
<text text-anchor="middle" x="366" y="-51.5" font-family="Helvetica,sans-Serif" font-size="10.00">::publish</text>
</a>
</g>
</g>
<!-- Node2&#45;&gt;Node4 -->
<g id="edge3" class="edge">
<title>Node2&#45;&gt;Node4</title>
<path fill="none" stroke="midnightblue" d="M268.34,-73.31C278.29,-71.89 288.69,-70.4 298.85,-68.95"/>
<polygon fill="midnightblue" stroke="midnightblue" points="299.48,-72.4 308.89,-67.52 298.49,-65.47 299.48,-72.4"/>
</g>
<!-- Node5 -->
<g id="node5" class="node">
<title>Node5</title>
<g id="a_node5"><a xlink:href="classcore_1_1_event.html#ad4d48001b033cdcd0eb4f509cf53e396" target="_top" xlink:title=" ">
<polygon fill="white" stroke="black" points="464,-50 464,-69 577,-69 577,-50 464,-50"/>
<text text-anchor="middle" x="520.5" y="-57" font-family="Helvetica,sans-Serif" font-size="10.00">core::Event::publish</text>
</a>
</g>
</g>
<!-- Node4&#45;&gt;Node5 -->
<g id="edge4" class="edge">
<title>Node4&#45;&gt;Node5</title>
<path fill="none" stroke="midnightblue" d="M423.35,-59.5C433.28,-59.5 443.69,-59.5 453.85,-59.5"/>
<polygon fill="midnightblue" stroke="midnightblue" points="453.89,-63 463.89,-59.5 453.89,-56 453.89,-63"/>
</g>
<!-- Node6 -->
<g id="node6" class="node">
<title>Node6</title>
<g id="a_node6"><a xlink:href="classcore_1_1_event_loop.html#a17f1623de6ca2ea2682c63cf502c3c36" target="_top" xlink:title=" ">
<polygon fill="white" stroke="black" points="613,-88.5 613,-118.5 757,-118.5 757,-88.5 613,-88.5"/>
<text text-anchor="start" x="621" y="-106.5" font-family="Helvetica,sans-Serif" font-size="10.00">core::EventLoop::getEvent</text>
<text text-anchor="middle" x="685" y="-95.5" font-family="Helvetica,sans-Serif" font-size="10.00">Multiplexer</text>
</a>
</g>
</g>
<!-- Node5&#45;&gt;Node6 -->
<g id="edge5" class="edge">
<title>Node5&#45;&gt;Node6</title>
<path fill="none" stroke="midnightblue" d="M556.76,-69.05C574.81,-73.93 597.38,-80.05 618.47,-85.76"/>
<polygon fill="midnightblue" stroke="midnightblue" points="617.79,-89.2 628.36,-88.43 619.62,-82.44 617.79,-89.2"/>
</g>
<!-- Node7 -->
<g id="node7" class="node">
<title>Node7</title>
<g id="a_node7"><a xlink:href="classcore_1_1_event_loop.html#a413d227511f68c2c9939719bd2590794" target="_top" xlink:title=" ">
<polygon fill="white" stroke="black" points="614,-50 614,-69 756,-69 756,-50 614,-50"/>
<text text-anchor="middle" x="685" y="-57" font-family="Helvetica,sans-Serif" font-size="10.00">core::EventLoop::instance</text>
</a>
</g>
</g>
<!-- Node5&#45;&gt;Node7 -->
<g id="edge6" class="edge">
<title>Node5&#45;&gt;Node7</title>
<path fill="none" stroke="midnightblue" d="M577.42,-59.5C585.96,-59.5 594.91,-59.5 603.85,-59.5"/>
<polygon fill="midnightblue" stroke="midnightblue" points="603.91,-63 613.91,-59.5 603.91,-56 603.91,-63"/>
</g>
<!-- Node8 -->
<g id="node8" class="node">
<title>Node8</title>
<g id="a_node8"><a xlink:href="classcore_1_1_event_multiplexer.html#acd7ae9bc9f6028e979515a18c1747dcf" target="_top" xlink:title=" ">
<polygon fill="white" stroke="black" points="621.5,-0.5 621.5,-30.5 748.5,-30.5 748.5,-0.5 621.5,-0.5"/>
<text text-anchor="start" x="629.5" y="-18.5" font-family="Helvetica,sans-Serif" font-size="10.00">core::EventMultiplexer</text>
<text text-anchor="middle" x="685" y="-7.5" font-family="Helvetica,sans-Serif" font-size="10.00">::publish</text>
</a>
</g>
</g>
<!-- Node5&#45;&gt;Node8 -->
<g id="edge7" class="edge">
<title>Node5&#45;&gt;Node8</title>
<path fill="none" stroke="midnightblue" d="M556.76,-49.95C574.81,-45.07 597.38,-38.95 618.47,-33.24"/>
<polygon fill="midnightblue" stroke="midnightblue" points="619.62,-36.56 628.36,-30.57 617.79,-29.8 619.62,-36.56"/>
</g>
<!-- Node9 -->
<g id="node9" class="node">
<title>Node9</title>
<g id="a_node9"><a xlink:href="classcore_1_1_event_multiplexer_1_1_event_queue.html#a009075f2f16a78d3bf8d9e3a20226336" target="_top" xlink:title=" ">
<polygon fill="white" stroke="black" points="793,-0.5 793,-30.5 920,-30.5 920,-0.5 793,-0.5"/>
<text text-anchor="start" x="801" y="-18.5" font-family="Helvetica,sans-Serif" font-size="10.00">core::EventMultiplexer</text>
<text text-anchor="middle" x="856.5" y="-7.5" font-family="Helvetica,sans-Serif" font-size="10.00">::EventQueue::insert</text>
</a>
</g>
</g>
<!-- Node8&#45;&gt;Node9 -->
<g id="edge8" class="edge">
<title>Node8&#45;&gt;Node9</title>
<path fill="none" stroke="midnightblue" d="M748.63,-15.5C759.68,-15.5 771.27,-15.5 782.57,-15.5"/>
<polygon fill="midnightblue" stroke="midnightblue" points="782.84,-19 792.84,-15.5 782.84,-12 782.84,-19"/>
</g>
</g>
</svg>
