<?xml version="1.0" encoding="UTF-8" standalone="no"?>
<!DOCTYPE svg PUBLIC "-//W3C//DTD SVG 1.1//EN"
 "http://www.w3.org/Graphics/SVG/1.1/DTD/svg11.dtd">
<!-- Generated by graphviz version 2.43.0 (0)
 -->
<!-- Title: net::socket::ip::address::ipv4::InetAddress::toString Pages: 1 -->
<svg width="471pt" height="88pt"
 viewBox="0.00 0.00 471.00 88.00" xmlns="http://www.w3.org/2000/svg" xmlns:xlink="http://www.w3.org/1999/xlink">
<g id="graph0" class="graph" transform="scale(1 1) rotate(0) translate(4 84)">
<title>net::socket::ip::address::ipv4::InetAddress::toString</title>
<polygon fill="white" stroke="transparent" points="-4,4 -4,-84 467,-84 467,4 -4,4"/>
<!-- Node1 -->
<g id="node1" class="node">
<title>Node1</title>
<g id="a_node1"><a xlink:title=" ">
<polygon fill="#bfbfbf" stroke="black" points="0,-24.5 0,-54.5 139,-54.5 139,-24.5 0,-24.5"/>
<text text-anchor="start" x="8" y="-42.5" font-family="Helvetica,sans-Serif" font-size="10.00">net::socket::ip::address</text>
<text text-anchor="middle" x="69.5" y="-31.5" font-family="Helvetica,sans-Serif" font-size="10.00">::ipv4::InetAddress::toString</text>
</a>
</g>
</g>
<!-- Node2 -->
<g id="node2" class="node">
<title>Node2</title>
<g id="a_node2"><a xlink:href="classnet_1_1socket_1_1ip_1_1address_1_1ipv4_1_1_inet_address.html#a7f0103c89ee9d457ac88307942807d99" target="_top" xlink:title=" ">
<polygon fill="white" stroke="black" points="175,-49.5 175,-79.5 299,-79.5 299,-49.5 175,-49.5"/>
<text text-anchor="start" x="183" y="-67.5" font-family="Helvetica,sans-Serif" font-size="10.00">net::socket::ip::address</text>
<text text-anchor="middle" x="237" y="-56.5" font-family="Helvetica,sans-Serif" font-size="10.00">::ipv4::InetAddress::host</text>
</a>
</g>
</g>
<!-- Node1&#45;&gt;Node2 -->
<g id="edge1" class="edge">
<title>Node1&#45;&gt;Node2</title>
<path fill="none" stroke="midnightblue" d="M139.25,-49.89C147.74,-51.17 156.43,-52.48 164.95,-53.77"/>
<polygon fill="midnightblue" stroke="midnightblue" points="164.45,-57.23 174.86,-55.26 165.49,-50.31 164.45,-57.23"/>
</g>
<!-- Node4 -->
<g id="node4" class="node">
<title>Node4</title>
<g id="a_node4"><a xlink:href="classnet_1_1socket_1_1ip_1_1address_1_1ipv4_1_1_inet_address.html#ac9fd52422769a88bbb2d9e3241f1776d" target="_top" xlink:title=" ">
<polygon fill="white" stroke="black" points="176,-0.5 176,-30.5 298,-30.5 298,-0.5 176,-0.5"/>
<text text-anchor="start" x="184" y="-18.5" font-family="Helvetica,sans-Serif" font-size="10.00">net::socket::ip::address</text>
<text text-anchor="middle" x="237" y="-7.5" font-family="Helvetica,sans-Serif" font-size="10.00">::ipv4::InetAddress::port</text>
</a>
</g>
</g>
<!-- Node1&#45;&gt;Node4 -->
<g id="edge3" class="edge">
<title>Node1&#45;&gt;Node4</title>
<path fill="none" stroke="midnightblue" d="M139.25,-29.53C147.99,-28.26 156.95,-26.96 165.72,-25.69"/>
<polygon fill="midnightblue" stroke="midnightblue" points="166.51,-29.11 175.9,-24.21 165.51,-22.19 166.51,-29.11"/>
</g>
<!-- Node3 -->
<g id="node3" class="node">
<title>Node3</title>
<g id="a_node3"><a xlink:href="namespacenet_1_1system.html#ad016d75c2fb1d4934774b71d7bbc5469" target="_top" xlink:title=" ">
<polygon fill="white" stroke="black" points="335,-55 335,-74 463,-74 463,-55 335,-55"/>
<text text-anchor="middle" x="399" y="-62" font-family="Helvetica,sans-Serif" font-size="10.00">net::system::getnameinfo</text>
</a>
</g>
</g>
<!-- Node2&#45;&gt;Node3 -->
<g id="edge2" class="edge">
<title>Node2&#45;&gt;Node3</title>
<path fill="none" stroke="midnightblue" d="M299.4,-64.5C307.67,-64.5 316.22,-64.5 324.67,-64.5"/>
<polygon fill="midnightblue" stroke="midnightblue" points="324.91,-68 334.91,-64.5 324.91,-61 324.91,-68"/>
</g>
</g>
</svg>
