<?xml version="1.0" encoding="UTF-8" standalone="no"?>
<!DOCTYPE svg PUBLIC "-//W3C//DTD SVG 1.1//EN"
 "http://www.w3.org/Graphics/SVG/1.1/DTD/svg11.dtd">
<!-- Generated by graphviz version 2.43.0 (0)
 -->
<!-- Title: core::TimerEventReceiver Pages: 1 -->
<svg width="452pt" height="606pt"
 viewBox="0.00 0.00 451.52 606.00" xmlns="http://www.w3.org/2000/svg" xmlns:xlink="http://www.w3.org/1999/xlink">
<g id="graph0" class="graph" transform="scale(1 1) rotate(0) translate(4 602)">
<title>core::TimerEventReceiver</title>
<polygon fill="white" stroke="transparent" points="-4,4 -4,-602 447.52,-602 447.52,4 -4,4"/>
<!-- Node1 -->
<g id="node1" class="node">
<title>Node1</title>
<g id="a_node1"><a xlink:title=" ">
<polygon fill="#bfbfbf" stroke="black" points="151.52,-160.5 151.52,-349.5 293.52,-349.5 293.52,-160.5 151.52,-160.5"/>
<text text-anchor="middle" x="222.52" y="-337.5" font-family="Helvetica,sans-Serif" font-size="10.00">core::TimerEventReceiver</text>
<polyline fill="none" stroke="black" points="151.52,-330.5 293.52,-330.5 "/>
<text text-anchor="middle" x="222.52" y="-318.5" font-family="Helvetica,sans-Serif" font-size="10.00"> </text>
<polyline fill="none" stroke="black" points="151.52,-311.5 293.52,-311.5 "/>
<text text-anchor="start" x="159.52" y="-299.5" font-family="Helvetica,sans-Serif" font-size="10.00"># TimerEventReceiver()</text>
<text text-anchor="start" x="159.52" y="-288.5" font-family="Helvetica,sans-Serif" font-size="10.00"># ~TimerEventReceiver()</text>
<text text-anchor="start" x="159.52" y="-277.5" font-family="Helvetica,sans-Serif" font-size="10.00"># getTimeout()</text>
<text text-anchor="start" x="159.52" y="-266.5" font-family="Helvetica,sans-Serif" font-size="10.00"># enable()</text>
<text text-anchor="start" x="159.52" y="-255.5" font-family="Helvetica,sans-Serif" font-size="10.00"># update()</text>
<text text-anchor="start" x="159.52" y="-244.5" font-family="Helvetica,sans-Serif" font-size="10.00"># cancel()</text>
<text text-anchor="start" x="159.52" y="-233.5" font-family="Helvetica,sans-Serif" font-size="10.00">&#45; TimerEventReceiver()</text>
<text text-anchor="start" x="159.52" y="-222.5" font-family="Helvetica,sans-Serif" font-size="10.00">&#45; operator=()</text>
<text text-anchor="start" x="159.52" y="-211.5" font-family="Helvetica,sans-Serif" font-size="10.00">&#45; event()</text>
<text text-anchor="start" x="159.52" y="-200.5" font-family="Helvetica,sans-Serif" font-size="10.00">&#45; dispatchEvent()</text>
<text text-anchor="start" x="159.52" y="-189.5" font-family="Helvetica,sans-Serif" font-size="10.00">&#45; unobservedEvent()</text>
<text text-anchor="start" x="159.52" y="-178.5" font-family="Helvetica,sans-Serif" font-size="10.00">&#45; setTimer()</text>
<text text-anchor="start" x="159.52" y="-167.5" font-family="Helvetica,sans-Serif" font-size="10.00">&#45; updateTimeout()</text>
</a>
</g>
</g>
<!-- Node4 -->
<g id="node4" class="node">
<title>Node4</title>
<g id="a_node4"><a xlink:href="classcore_1_1_timer.html" target="_top" xlink:title=" ">
<polygon fill="white" stroke="black" points="138.02,-0.5 138.02,-112.5 305.02,-112.5 305.02,-0.5 138.02,-0.5"/>
<text text-anchor="middle" x="221.52" y="-100.5" font-family="Helvetica,sans-Serif" font-size="10.00">core::Timer</text>
<polyline fill="none" stroke="black" points="138.02,-93.5 305.02,-93.5 "/>
<text text-anchor="start" x="146.02" y="-81.5" font-family="Helvetica,sans-Serif" font-size="10.00">&#45; TimerEventReceiver</text>
<polyline fill="none" stroke="black" points="138.02,-74.5 305.02,-74.5 "/>
<text text-anchor="start" x="146.02" y="-62.5" font-family="Helvetica,sans-Serif" font-size="10.00">+ cancel()</text>
<text text-anchor="start" x="146.02" y="-51.5" font-family="Helvetica,sans-Serif" font-size="10.00"># Timer()</text>
<text text-anchor="start" x="146.02" y="-40.5" font-family="Helvetica,sans-Serif" font-size="10.00"># Timer()</text>
<text text-anchor="start" x="146.02" y="-29.5" font-family="Helvetica,sans-Serif" font-size="10.00"># ~Timer()</text>
<text text-anchor="start" x="146.02" y="-18.5" font-family="Helvetica,sans-Serif" font-size="10.00"># operator=()</text>
<text text-anchor="start" x="146.02" y="-7.5" font-family="Helvetica,sans-Serif" font-size="10.00">&#45; removeTimerEventReceiver()</text>
</a>
</g>
</g>
<!-- Node1&#45;&gt;Node4 -->
<g id="edge5" class="edge">
<title>Node1&#45;&gt;Node4</title>
<path fill="none" stroke="#404040" d="M161.77,-160.28C159.34,-154.23 157.21,-148.12 155.52,-142 153.85,-135.93 153.77,-129.98 154.89,-124.24"/>
<polygon fill="none" stroke="#404040" points="154.93,-124.13 153.05,-117.17 158.76,-112.76 160.63,-119.72 154.93,-124.13"/>
<text text-anchor="middle" x="207.52" y="-134" font-family="Helvetica,sans-Serif" font-size="10.00"> &#45;timerEventReceiver</text>
</g>
<!-- Node2 -->
<g id="node2" class="node">
<title>Node2</title>
<g id="a_node2"><a xlink:href="classcore_1_1_event_receiver.html" target="_top" xlink:title=" ">
<polygon fill="white" stroke="black" points="43.52,-447 43.52,-559 157.52,-559 157.52,-447 43.52,-447"/>
<text text-anchor="middle" x="100.52" y="-547" font-family="Helvetica,sans-Serif" font-size="10.00">core::EventReceiver</text>
<polyline fill="none" stroke="black" points="43.52,-540 157.52,-540 "/>
<text text-anchor="middle" x="100.52" y="-528" font-family="Helvetica,sans-Serif" font-size="10.00"> </text>
<polyline fill="none" stroke="black" points="43.52,-521 157.52,-521 "/>
<text text-anchor="start" x="51.52" y="-509" font-family="Helvetica,sans-Serif" font-size="10.00">+ EventReceiver()</text>
<text text-anchor="start" x="51.52" y="-498" font-family="Helvetica,sans-Serif" font-size="10.00">+ ~EventReceiver()</text>
<text text-anchor="start" x="51.52" y="-487" font-family="Helvetica,sans-Serif" font-size="10.00">+ publish()</text>
<text text-anchor="start" x="51.52" y="-476" font-family="Helvetica,sans-Serif" font-size="10.00">+ unPublish()</text>
<text text-anchor="start" x="51.52" y="-465" font-family="Helvetica,sans-Serif" font-size="10.00">+ event()</text>
<text text-anchor="start" x="51.52" y="-454" font-family="Helvetica,sans-Serif" font-size="10.00">+ getName()</text>
</a>
</g>
</g>
<!-- Node2&#45;&gt;Node1 -->
<g id="edge1" class="edge">
<title>Node2&#45;&gt;Node1</title>
<path fill="none" stroke="midnightblue" d="M132.51,-437.51C145.82,-410.67 161.53,-378.99 176.07,-349.66"/>
<polygon fill="none" stroke="midnightblue" points="129.21,-436.28 127.9,-446.79 135.48,-439.39 129.21,-436.28"/>
</g>
<!-- Node3 -->
<g id="node3" class="node">
<title>Node3</title>
<g id="a_node3"><a xlink:href="classcore_1_1_event.html" target="_top" xlink:title=" ">
<polygon fill="white" stroke="black" points="8.02,-193.5 8.02,-316.5 91.02,-316.5 91.02,-193.5 8.02,-193.5"/>
<text text-anchor="middle" x="49.52" y="-304.5" font-family="Helvetica,sans-Serif" font-size="10.00">core::Event</text>
<polyline fill="none" stroke="black" points="8.02,-297.5 91.02,-297.5 "/>
<text text-anchor="start" x="16.02" y="-285.5" font-family="Helvetica,sans-Serif" font-size="10.00">&#45; published</text>
<text text-anchor="start" x="16.02" y="-274.5" font-family="Helvetica,sans-Serif" font-size="10.00">&#45; name</text>
<polyline fill="none" stroke="black" points="8.02,-267.5 91.02,-267.5 "/>
<text text-anchor="start" x="16.02" y="-255.5" font-family="Helvetica,sans-Serif" font-size="10.00">+ Event()</text>
<text text-anchor="start" x="16.02" y="-244.5" font-family="Helvetica,sans-Serif" font-size="10.00">+ ~Event()</text>
<text text-anchor="start" x="16.02" y="-233.5" font-family="Helvetica,sans-Serif" font-size="10.00">+ publish()</text>
<text text-anchor="start" x="16.02" y="-222.5" font-family="Helvetica,sans-Serif" font-size="10.00">+ unPublish()</text>
<text text-anchor="start" x="16.02" y="-211.5" font-family="Helvetica,sans-Serif" font-size="10.00">+ getName()</text>
<text text-anchor="start" x="16.02" y="-200.5" font-family="Helvetica,sans-Serif" font-size="10.00">&#45; dispatch()</text>
</a>
</g>
</g>
<!-- Node2&#45;&gt;Node3 -->
<g id="edge3" class="edge">
<title>Node2&#45;&gt;Node3</title>
<path fill="none" stroke="#404040" d="M43.38,-450.77C27.72,-433.23 12.79,-412.34 4.52,-390 -2.88,-369.99 -0.06,-348.12 6.88,-327.96"/>
<polygon fill="none" stroke="#404040" points="6.93,-327.83 5.37,-320.79 11.26,-316.64 12.83,-323.68 6.93,-327.83"/>
<text text-anchor="middle" x="43.52" y="-376.5" font-family="Helvetica,sans-Serif" font-size="10.00"> &#45;eventReceiver</text>
</g>
<!-- Node3&#45;&gt;Node2 -->
<g id="edge2" class="edge">
<title>Node3&#45;&gt;Node2</title>
<path fill="none" stroke="#404040" d="M72.2,-316.67C77.62,-333.13 82.89,-351.08 86.52,-368 91.14,-389.51 94.26,-413.31 96.35,-434.8"/>
<polygon fill="none" stroke="#404040" points="96.36,-434.86 100.88,-440.48 97.44,-446.82 92.92,-441.2 96.36,-434.86"/>
<text text-anchor="middle" x="114.02" y="-376.5" font-family="Helvetica,sans-Serif" font-size="10.00"> #_event</text>
</g>
<!-- Node4&#45;&gt;Node1 -->
<g id="edge4" class="edge">
<title>Node4&#45;&gt;Node1</title>
<path fill="none" stroke="#404040" d="M257,-112.79C259.64,-118.76 261.9,-124.89 263.52,-131 265.03,-136.68 265.81,-142.49 265.98,-148.33"/>
<polygon fill="none" stroke="#404040" points="265.98,-148.35 269.76,-154.5 265.54,-160.35 261.76,-154.2 265.98,-148.35"/>
<text text-anchor="middle" x="281.52" y="-134" font-family="Helvetica,sans-Serif" font-size="10.00"> &#45;timer</text>
</g>
<!-- Node5 -->
<g id="node5" class="node">
<title>Node5</title>
<g id="a_node5"><a xlink:href="classutils_1_1_timeval.html" target="_top" xlink:title=" ">
<polygon fill="white" stroke="black" points="175.52,-408.5 175.52,-597.5 269.52,-597.5 269.52,-408.5 175.52,-408.5"/>
<text text-anchor="middle" x="222.52" y="-585.5" font-family="Helvetica,sans-Serif" font-size="10.00">utils::Timeval</text>
<polyline fill="none" stroke="black" points="175.52,-578.5 269.52,-578.5 "/>
<text text-anchor="start" x="183.52" y="-566.5" font-family="Helvetica,sans-Serif" font-size="10.00">&#45; timeVal</text>
<polyline fill="none" stroke="black" points="175.52,-559.5 269.52,-559.5 "/>
<text text-anchor="start" x="183.52" y="-547.5" font-family="Helvetica,sans-Serif" font-size="10.00">+ Timeval()</text>
<text text-anchor="start" x="183.52" y="-536.5" font-family="Helvetica,sans-Serif" font-size="10.00">+ Timeval()</text>
<text text-anchor="start" x="183.52" y="-525.5" font-family="Helvetica,sans-Serif" font-size="10.00">+ Timeval()</text>
<text text-anchor="start" x="183.52" y="-514.5" font-family="Helvetica,sans-Serif" font-size="10.00">+ Timeval()</text>
<text text-anchor="start" x="183.52" y="-503.5" font-family="Helvetica,sans-Serif" font-size="10.00">+ Timeval()</text>
<text text-anchor="start" x="183.52" y="-492.5" font-family="Helvetica,sans-Serif" font-size="10.00">+ operator=()</text>
<text text-anchor="start" x="183.52" y="-481.5" font-family="Helvetica,sans-Serif" font-size="10.00">+ operator=()</text>
<text text-anchor="start" x="183.52" y="-470.5" font-family="Helvetica,sans-Serif" font-size="10.00">+ operator+()</text>
<text text-anchor="start" x="183.52" y="-459.5" font-family="Helvetica,sans-Serif" font-size="10.00">+ operator&#45;()</text>
<text text-anchor="start" x="183.52" y="-448.5" font-family="Helvetica,sans-Serif" font-size="10.00">+ operator+=()</text>
<text text-anchor="start" x="183.52" y="-437.5" font-family="Helvetica,sans-Serif" font-size="10.00">and 12 more...</text>
<text text-anchor="start" x="183.52" y="-426.5" font-family="Helvetica,sans-Serif" font-size="10.00">+ currentTime()</text>
<text text-anchor="start" x="183.52" y="-415.5" font-family="Helvetica,sans-Serif" font-size="10.00">&#45; normalize()</text>
</a>
</g>
</g>
<!-- Node5&#45;&gt;Node1 -->
<g id="edge6" class="edge">
<title>Node5&#45;&gt;Node1</title>
<path fill="none" stroke="#404040" d="M222.52,-408.3C222.52,-393.19 222.52,-377.46 222.52,-362.08"/>
<polygon fill="none" stroke="#404040" points="222.52,-361.85 218.52,-355.85 222.52,-349.85 226.52,-355.85 222.52,-361.85"/>
<text text-anchor="middle" x="267.02" y="-382" font-family="Helvetica,sans-Serif" font-size="10.00"> &#45;absoluteTimeout</text>
<text text-anchor="middle" x="267.02" y="-371" font-family="Helvetica,sans-Serif" font-size="10.00">&#45;delay</text>
</g>
<!-- Node6 -->
<g id="node6" class="node">
<title>Node6</title>
<g id="a_node6"><a xlink:href="classcore_1_1_timer_event_publisher.html" target="_top" xlink:title=" ">
<polygon fill="white" stroke="black" points="287.52,-425 287.52,-581 443.52,-581 443.52,-425 287.52,-425"/>
<text text-anchor="middle" x="365.52" y="-569" font-family="Helvetica,sans-Serif" font-size="10.00">core::TimerEventPublisher</text>
<polyline fill="none" stroke="black" points="287.52,-562 443.52,-562 "/>
<text text-anchor="start" x="295.52" y="-550" font-family="Helvetica,sans-Serif" font-size="10.00">&#45; timerList</text>
<text text-anchor="start" x="295.52" y="-539" font-family="Helvetica,sans-Serif" font-size="10.00">&#45; removedList</text>
<polyline fill="none" stroke="black" points="287.52,-532 443.52,-532 "/>
<text text-anchor="start" x="295.52" y="-520" font-family="Helvetica,sans-Serif" font-size="10.00">+ TimerEventPublisher()</text>
<text text-anchor="start" x="295.52" y="-509" font-family="Helvetica,sans-Serif" font-size="10.00">+ getNextTimeout()</text>
<text text-anchor="start" x="295.52" y="-498" font-family="Helvetica,sans-Serif" font-size="10.00">+ publishActiveEvents()</text>
<text text-anchor="start" x="295.52" y="-487" font-family="Helvetica,sans-Serif" font-size="10.00">+ unobserveDisableEvents()</text>
<text text-anchor="start" x="295.52" y="-476" font-family="Helvetica,sans-Serif" font-size="10.00">+ remove()</text>
<text text-anchor="start" x="295.52" y="-465" font-family="Helvetica,sans-Serif" font-size="10.00">+ erase()</text>
<text text-anchor="start" x="295.52" y="-454" font-family="Helvetica,sans-Serif" font-size="10.00">+ insert()</text>
<text text-anchor="start" x="295.52" y="-443" font-family="Helvetica,sans-Serif" font-size="10.00">+ empty()</text>
<text text-anchor="start" x="295.52" y="-432" font-family="Helvetica,sans-Serif" font-size="10.00">+ stop()</text>
</a>
</g>
</g>
<!-- Node6&#45;&gt;Node1 -->
<g id="edge7" class="edge">
<title>Node6&#45;&gt;Node1</title>
<path fill="none" stroke="#404040" d="M341.77,-424.86C334.53,-405.7 325.73,-385.62 315.52,-368 311.08,-360.32 306.1,-352.64 300.82,-345.11"/>
<polygon fill="none" stroke="#404040" points="300.76,-345.02 294,-342.5 293.73,-335.29 300.48,-337.81 300.76,-345.02"/>
<text text-anchor="middle" x="378.52" y="-376.5" font-family="Helvetica,sans-Serif" font-size="10.00"> &#45;timerEventPublisher</text>
</g>
</g>
</svg>
