<?xml version="1.0" encoding="UTF-8" standalone="no"?>
<!DOCTYPE svg PUBLIC "-//W3C//DTD SVG 1.1//EN"
 "http://www.w3.org/Graphics/SVG/1.1/DTD/svg11.dtd">
<!-- Generated by graphviz version 2.43.0 (0)
 -->
<!-- Title: net::in6::config::ConfigAddress::portRequired Pages: 1 -->
<svg width="359pt" height="50pt"
 viewBox="0.00 0.00 359.00 50.00" xmlns="http://www.w3.org/2000/svg" xmlns:xlink="http://www.w3.org/1999/xlink">
<g id="graph0" class="graph" transform="scale(1 1) rotate(0) translate(4 46)">
<title>net::in6::config::ConfigAddress::portRequired</title>
<polygon fill="white" stroke="transparent" points="-4,4 -4,-46 355,-46 355,4 -4,4"/>
<!-- Node1 -->
<g id="node1" class="node">
<title>Node1</title>
<g id="a_node1"><a xlink:title=" ">
<polygon fill="#bfbfbf" stroke="black" points="224,-6 224,-36 351,-36 351,-6 224,-6"/>
<text text-anchor="start" x="232" y="-24" font-family="Helvetica,sans-Serif" font-size="10.00">net::in6::config::Config</text>
<text text-anchor="middle" x="287.5" y="-13" font-family="Helvetica,sans-Serif" font-size="10.00">Address::portRequired</text>
</a>
</g>
</g>
<!-- Node2 -->
<g id="node2" class="node">
<title>Node2</title>
<g id="a_node2"><a xlink:href="classnet_1_1in6_1_1stream_1_1config_1_1_config_socket_server.html#a8eb6cdf058ca497763f87d43c15efcef" target="_top" xlink:title=" ">
<polygon fill="white" stroke="black" points="0,-0.5 0,-41.5 188,-41.5 188,-0.5 0,-0.5"/>
<text text-anchor="start" x="8" y="-29.5" font-family="Helvetica,sans-Serif" font-size="10.00">net::in6::stream::config</text>
<text text-anchor="start" x="8" y="-18.5" font-family="Helvetica,sans-Serif" font-size="10.00">::ConfigSocketServer::ConfigSocket</text>
<text text-anchor="middle" x="94" y="-7.5" font-family="Helvetica,sans-Serif" font-size="10.00">Server</text>
</a>
</g>
</g>
<!-- Node1&#45;&gt;Node2 -->
<g id="edge1" class="edge">
<title>Node1&#45;&gt;Node2</title>
<path fill="none" stroke="midnightblue" d="M213.7,-21C205.31,-21 196.67,-21 188.05,-21"/>
<polygon fill="midnightblue" stroke="midnightblue" points="213.8,-24.5 223.8,-21 213.8,-17.5 213.8,-24.5"/>
</g>
</g>
</svg>
