<?xml version="1.0" encoding="UTF-8" standalone="no"?>
<!DOCTYPE svg PUBLIC "-//W3C//DTD SVG 1.1//EN"
 "http://www.w3.org/Graphics/SVG/1.1/DTD/svg11.dtd">
<!-- Generated by graphviz version 2.43.0 (0)
 -->
<!-- Title: core::pipe::PipeSource Pages: 1 -->
<svg width="333pt" height="898pt"
 viewBox="0.00 0.00 333.00 898.00" xmlns="http://www.w3.org/2000/svg" xmlns:xlink="http://www.w3.org/1999/xlink">
<g id="graph0" class="graph" transform="scale(1 1) rotate(0) translate(4 894)">
<title>core::pipe::PipeSource</title>
<polygon fill="white" stroke="transparent" points="-4,4 -4,-894 329,-894 329,4 -4,4"/>
<!-- Node1 -->
<g id="node1" class="node">
<title>Node1</title>
<g id="a_node1"><a xlink:title=" ">
<polygon fill="#bfbfbf" stroke="black" points="57.5,-0.5 57.5,-167.5 182.5,-167.5 182.5,-0.5 57.5,-0.5"/>
<text text-anchor="middle" x="120" y="-155.5" font-family="Helvetica,sans-Serif" font-size="10.00">core::pipe::PipeSource</text>
<polyline fill="none" stroke="black" points="57.5,-148.5 182.5,-148.5 "/>
<text text-anchor="start" x="65.5" y="-136.5" font-family="Helvetica,sans-Serif" font-size="10.00"># onError</text>
<text text-anchor="start" x="65.5" y="-125.5" font-family="Helvetica,sans-Serif" font-size="10.00"># writeBuffer</text>
<polyline fill="none" stroke="black" points="57.5,-118.5 182.5,-118.5 "/>
<text text-anchor="start" x="65.5" y="-106.5" font-family="Helvetica,sans-Serif" font-size="10.00">+ PipeSource()</text>
<text text-anchor="start" x="65.5" y="-95.5" font-family="Helvetica,sans-Serif" font-size="10.00">+ send()</text>
<text text-anchor="start" x="65.5" y="-84.5" font-family="Helvetica,sans-Serif" font-size="10.00">+ send()</text>
<text text-anchor="start" x="65.5" y="-73.5" font-family="Helvetica,sans-Serif" font-size="10.00">+ eof()</text>
<text text-anchor="start" x="65.5" y="-62.5" font-family="Helvetica,sans-Serif" font-size="10.00">+ setOnError()</text>
<text text-anchor="start" x="65.5" y="-51.5" font-family="Helvetica,sans-Serif" font-size="10.00"># writeEvent()</text>
<text text-anchor="start" x="65.5" y="-40.5" font-family="Helvetica,sans-Serif" font-size="10.00"># unobservedEvent()</text>
<text text-anchor="start" x="65.5" y="-29.5" font-family="Helvetica,sans-Serif" font-size="10.00">&#45; PipeSource()</text>
<text text-anchor="start" x="65.5" y="-18.5" font-family="Helvetica,sans-Serif" font-size="10.00">&#45; operator=()</text>
<text text-anchor="start" x="65.5" y="-7.5" font-family="Helvetica,sans-Serif" font-size="10.00">&#45; terminate()</text>
</a>
</g>
</g>
<!-- Node2 -->
<g id="node2" class="node">
<title>Node2</title>
<g id="a_node2"><a xlink:href="classcore_1_1_descriptor.html" target="_top" xlink:title=" ">
<polygon fill="white" stroke="black" points="0,-204.5 0,-349.5 94,-349.5 94,-204.5 0,-204.5"/>
<text text-anchor="middle" x="47" y="-337.5" font-family="Helvetica,sans-Serif" font-size="10.00">core::Descriptor</text>
<polyline fill="none" stroke="black" points="0,-330.5 94,-330.5 "/>
<text text-anchor="start" x="8" y="-318.5" font-family="Helvetica,sans-Serif" font-size="10.00">+ none</text>
<text text-anchor="start" x="8" y="-307.5" font-family="Helvetica,sans-Serif" font-size="10.00"># fd</text>
<polyline fill="none" stroke="black" points="0,-300.5 94,-300.5 "/>
<text text-anchor="start" x="8" y="-288.5" font-family="Helvetica,sans-Serif" font-size="10.00"># Descriptor()</text>
<text text-anchor="start" x="8" y="-277.5" font-family="Helvetica,sans-Serif" font-size="10.00"># ~Descriptor()</text>
<text text-anchor="start" x="8" y="-266.5" font-family="Helvetica,sans-Serif" font-size="10.00"># getFd()</text>
<text text-anchor="start" x="8" y="-255.5" font-family="Helvetica,sans-Serif" font-size="10.00"># dontClose()</text>
<text text-anchor="start" x="8" y="-244.5" font-family="Helvetica,sans-Serif" font-size="10.00"># dontClose()</text>
<text text-anchor="start" x="8" y="-233.5" font-family="Helvetica,sans-Serif" font-size="10.00">&#45; Descriptor()</text>
<text text-anchor="start" x="8" y="-222.5" font-family="Helvetica,sans-Serif" font-size="10.00">&#45; operator=()</text>
<text text-anchor="start" x="8" y="-211.5" font-family="Helvetica,sans-Serif" font-size="10.00">&#45; close()</text>
</a>
</g>
</g>
<!-- Node2&#45;&gt;Node1 -->
<g id="edge1" class="edge">
<title>Node2&#45;&gt;Node1</title>
<path fill="none" stroke="midnightblue" d="M77.96,-194.99C81.42,-185.95 84.94,-176.73 88.4,-167.67"/>
<polygon fill="none" stroke="midnightblue" points="74.69,-193.74 74.39,-204.34 81.23,-196.24 74.69,-193.74"/>
</g>
<!-- Node3 -->
<g id="node3" class="node">
<title>Node3</title>
<g id="a_node3"><a xlink:href="classcore_1_1_write_event_receiver.html" target="_top" xlink:title=" ">
<polygon fill="white" stroke="black" points="112.5,-215.5 112.5,-338.5 273.5,-338.5 273.5,-215.5 112.5,-215.5"/>
<text text-anchor="middle" x="193" y="-326.5" font-family="Helvetica,sans-Serif" font-size="10.00">core::WriteEventReceiver</text>
<polyline fill="none" stroke="black" points="112.5,-319.5 273.5,-319.5 "/>
<text text-anchor="middle" x="193" y="-307.5" font-family="Helvetica,sans-Serif" font-size="10.00"> </text>
<polyline fill="none" stroke="black" points="112.5,-300.5 273.5,-300.5 "/>
<text text-anchor="start" x="120.5" y="-288.5" font-family="Helvetica,sans-Serif" font-size="10.00"># WriteEventReceiver()</text>
<text text-anchor="start" x="120.5" y="-277.5" font-family="Helvetica,sans-Serif" font-size="10.00">&#45; writeEvent()</text>
<text text-anchor="start" x="120.5" y="-266.5" font-family="Helvetica,sans-Serif" font-size="10.00">&#45; writeTimeout()</text>
<text text-anchor="start" x="120.5" y="-255.5" font-family="Helvetica,sans-Serif" font-size="10.00">&#45; dispatchEvent()</text>
<text text-anchor="start" x="120.5" y="-244.5" font-family="Helvetica,sans-Serif" font-size="10.00">&#45; timeoutEvent()</text>
<text text-anchor="start" x="120.5" y="-233.5" font-family="Helvetica,sans-Serif" font-size="10.00">&#45; continueImmediately()</text>
<text text-anchor="start" x="120.5" y="-222.5" font-family="Helvetica,sans-Serif" font-size="10.00">&#45; continueWriteImmediately()</text>
</a>
</g>
</g>
<!-- Node3&#45;&gt;Node1 -->
<g id="edge2" class="edge">
<title>Node3&#45;&gt;Node1</title>
<path fill="none" stroke="midnightblue" d="M166.21,-205.9C161.44,-193.42 156.43,-180.32 151.54,-167.53"/>
<polygon fill="none" stroke="midnightblue" points="162.96,-207.21 169.8,-215.3 169.5,-204.71 162.96,-207.21"/>
</g>
<!-- Node4 -->
<g id="node4" class="node">
<title>Node4</title>
<g id="a_node4"><a xlink:href="classcore_1_1_descriptor_event_receiver.html" target="_top" xlink:title=" ">
<polygon fill="white" stroke="black" points="111,-386.5 111,-751.5 275,-751.5 275,-386.5 111,-386.5"/>
<text text-anchor="middle" x="193" y="-739.5" font-family="Helvetica,sans-Serif" font-size="10.00">core::DescriptorEventReceiver</text>
<polyline fill="none" stroke="black" points="111,-732.5 275,-732.5 "/>
<text text-anchor="start" x="119" y="-720.5" font-family="Helvetica,sans-Serif" font-size="10.00">+ publisedTime</text>
<text text-anchor="start" x="119" y="-709.5" font-family="Helvetica,sans-Serif" font-size="10.00">+ lastTriggered</text>
<text text-anchor="start" x="119" y="-698.5" font-family="Helvetica,sans-Serif" font-size="10.00">+ maxInactivity</text>
<text text-anchor="start" x="119" y="-687.5" font-family="Helvetica,sans-Serif" font-size="10.00">+ initialTimeout</text>
<text text-anchor="start" x="119" y="-676.5" font-family="Helvetica,sans-Serif" font-size="10.00">+ eventCounter</text>
<text text-anchor="start" x="119" y="-665.5" font-family="Helvetica,sans-Serif" font-size="10.00">&#45; descriptorEventDispatcher</text>
<text text-anchor="start" x="119" y="-654.5" font-family="Helvetica,sans-Serif" font-size="10.00">&#45; registeredFd</text>
<text text-anchor="start" x="119" y="-643.5" font-family="Helvetica,sans-Serif" font-size="10.00">&#45; enabled</text>
<text text-anchor="start" x="119" y="-632.5" font-family="Helvetica,sans-Serif" font-size="10.00">&#45; suspended</text>
<polyline fill="none" stroke="black" points="111,-625.5 275,-625.5 "/>
<text text-anchor="start" x="119" y="-613.5" font-family="Helvetica,sans-Serif" font-size="10.00">+ getRegisteredFd()</text>
<text text-anchor="start" x="119" y="-602.5" font-family="Helvetica,sans-Serif" font-size="10.00">+ continueImmediately()</text>
<text text-anchor="start" x="119" y="-591.5" font-family="Helvetica,sans-Serif" font-size="10.00">+ enable()</text>
<text text-anchor="start" x="119" y="-580.5" font-family="Helvetica,sans-Serif" font-size="10.00">+ disable()</text>
<text text-anchor="start" x="119" y="-569.5" font-family="Helvetica,sans-Serif" font-size="10.00">+ isEnabled()</text>
<text text-anchor="start" x="119" y="-558.5" font-family="Helvetica,sans-Serif" font-size="10.00">+ suspend()</text>
<text text-anchor="start" x="119" y="-547.5" font-family="Helvetica,sans-Serif" font-size="10.00">+ resume()</text>
<text text-anchor="start" x="119" y="-536.5" font-family="Helvetica,sans-Serif" font-size="10.00">+ isSuspended()</text>
<text text-anchor="start" x="119" y="-525.5" font-family="Helvetica,sans-Serif" font-size="10.00">+ dispatch()</text>
<text text-anchor="start" x="119" y="-514.5" font-family="Helvetica,sans-Serif" font-size="10.00">+ triggered()</text>
<text text-anchor="start" x="119" y="-503.5" font-family="Helvetica,sans-Serif" font-size="10.00">+ disabled()</text>
<text text-anchor="start" x="119" y="-492.5" font-family="Helvetica,sans-Serif" font-size="10.00">+ terminate()</text>
<text text-anchor="start" x="119" y="-481.5" font-family="Helvetica,sans-Serif" font-size="10.00">+ setTimeout()</text>
<text text-anchor="start" x="119" y="-470.5" font-family="Helvetica,sans-Serif" font-size="10.00">+ getTimeout()</text>
<text text-anchor="start" x="119" y="-459.5" font-family="Helvetica,sans-Serif" font-size="10.00">+ checkTimeout()</text>
<text text-anchor="start" x="119" y="-448.5" font-family="Helvetica,sans-Serif" font-size="10.00"># DescriptorEventReceiver()</text>
<text text-anchor="start" x="119" y="-437.5" font-family="Helvetica,sans-Serif" font-size="10.00"># ~DescriptorEventReceiver()</text>
<text text-anchor="start" x="119" y="-426.5" font-family="Helvetica,sans-Serif" font-size="10.00">&#45; DescriptorEventReceiver()</text>
<text text-anchor="start" x="119" y="-415.5" font-family="Helvetica,sans-Serif" font-size="10.00">&#45; operator=()</text>
<text text-anchor="start" x="119" y="-404.5" font-family="Helvetica,sans-Serif" font-size="10.00">&#45; dispatchEvent()</text>
<text text-anchor="start" x="119" y="-393.5" font-family="Helvetica,sans-Serif" font-size="10.00">&#45; timeoutEvent()</text>
</a>
</g>
</g>
<!-- Node4&#45;&gt;Node3 -->
<g id="edge3" class="edge">
<title>Node4&#45;&gt;Node3</title>
<path fill="none" stroke="midnightblue" d="M193,-376.13C193,-362.84 193,-350.15 193,-338.55"/>
<polygon fill="none" stroke="midnightblue" points="189.5,-376.4 193,-386.4 196.5,-376.4 189.5,-376.4"/>
</g>
<!-- Node5 -->
<g id="node5" class="node">
<title>Node5</title>
<g id="a_node5"><a xlink:href="classcore_1_1_observer.html" target="_top" xlink:title=" ">
<polygon fill="white" stroke="black" points="43.5,-788.5 43.5,-889.5 192.5,-889.5 192.5,-788.5 43.5,-788.5"/>
<text text-anchor="middle" x="118" y="-877.5" font-family="Helvetica,sans-Serif" font-size="10.00">core::Observer</text>
<polyline fill="none" stroke="black" points="43.5,-870.5 192.5,-870.5 "/>
<text text-anchor="start" x="51.5" y="-858.5" font-family="Helvetica,sans-Serif" font-size="10.00">&#45; observationCounter</text>
<polyline fill="none" stroke="black" points="43.5,-851.5 192.5,-851.5 "/>
<text text-anchor="start" x="51.5" y="-839.5" font-family="Helvetica,sans-Serif" font-size="10.00">+ isObserved()</text>
<text text-anchor="start" x="51.5" y="-828.5" font-family="Helvetica,sans-Serif" font-size="10.00">+ observed()</text>
<text text-anchor="start" x="51.5" y="-817.5" font-family="Helvetica,sans-Serif" font-size="10.00">+ unObserved()</text>
<text text-anchor="start" x="51.5" y="-806.5" font-family="Helvetica,sans-Serif" font-size="10.00">+ getObservationCounter()</text>
<text text-anchor="start" x="51.5" y="-795.5" font-family="Helvetica,sans-Serif" font-size="10.00">+ unobservedEvent()</text>
</a>
</g>
</g>
<!-- Node5&#45;&gt;Node4 -->
<g id="edge4" class="edge">
<title>Node5&#45;&gt;Node4</title>
<path fill="none" stroke="midnightblue" d="M134.64,-778.54C137.02,-770.05 139.56,-760.97 142.2,-751.54"/>
<polygon fill="none" stroke="midnightblue" points="131.26,-777.65 131.93,-788.22 138,-779.53 131.26,-777.65"/>
</g>
<!-- Node6 -->
<g id="node6" class="node">
<title>Node6</title>
<g id="a_node6"><a xlink:href="classcore_1_1_event_receiver.html" target="_top" xlink:title=" ">
<polygon fill="white" stroke="black" points="211,-794 211,-884 325,-884 325,-794 211,-794"/>
<text text-anchor="middle" x="268" y="-872" font-family="Helvetica,sans-Serif" font-size="10.00">core::EventReceiver</text>
<polyline fill="none" stroke="black" points="211,-865 325,-865 "/>
<text text-anchor="start" x="219" y="-853" font-family="Helvetica,sans-Serif" font-size="10.00"># event</text>
<polyline fill="none" stroke="black" points="211,-846 325,-846 "/>
<text text-anchor="start" x="219" y="-834" font-family="Helvetica,sans-Serif" font-size="10.00">+ EventReceiver()</text>
<text text-anchor="start" x="219" y="-823" font-family="Helvetica,sans-Serif" font-size="10.00">+ ~EventReceiver()</text>
<text text-anchor="start" x="219" y="-812" font-family="Helvetica,sans-Serif" font-size="10.00">+ publish()</text>
<text text-anchor="start" x="219" y="-801" font-family="Helvetica,sans-Serif" font-size="10.00">+ dispatch()</text>
</a>
</g>
</g>
<!-- Node6&#45;&gt;Node4 -->
<g id="edge5" class="edge">
<title>Node6&#45;&gt;Node4</title>
<path fill="none" stroke="midnightblue" d="M252.91,-784.09C250.12,-774.11 247.07,-763.2 243.86,-751.75"/>
<polygon fill="none" stroke="midnightblue" points="249.55,-785.06 255.62,-793.75 256.29,-783.17 249.55,-785.06"/>
</g>
</g>
</svg>
