<?xml version="1.0" encoding="UTF-8" standalone="no"?>
<!DOCTYPE svg PUBLIC "-//W3C//DTD SVG 1.1//EN"
 "http://www.w3.org/Graphics/SVG/1.1/DTD/svg11.dtd">
<!-- Generated by graphviz version 2.43.0 (0)
 -->
<!-- Title: web::websocket::Receiver Pages: 1 -->
<svg width="575pt" height="184pt"
 viewBox="0.00 0.00 574.50 184.00" xmlns="http://www.w3.org/2000/svg" xmlns:xlink="http://www.w3.org/1999/xlink">
<g id="graph0" class="graph" transform="scale(1 1) rotate(0) translate(4 180)">
<title>web::websocket::Receiver</title>
<polygon fill="white" stroke="transparent" points="-4,4 -4,-180 570.5,-180 570.5,4 -4,4"/>
<!-- Node1 -->
<g id="node1" class="node">
<title>Node1</title>
<g id="a_node1"><a xlink:title=" ">
<polygon fill="#bfbfbf" stroke="black" points="203,-156.5 203,-175.5 346,-175.5 346,-156.5 203,-156.5"/>
<text text-anchor="middle" x="274.5" y="-163.5" font-family="Helvetica,sans-Serif" font-size="10.00">web::websocket::Receiver</text>
</a>
</g>
</g>
<!-- Node2 -->
<g id="node2" class="node">
<title>Node2</title>
<g id="a_node2"><a xlink:href="classweb_1_1websocket_1_1_socket_context_upgrade.html" target="_top" xlink:title=" ">
<polygon fill="white" stroke="black" points="0,-67.5 0,-119.5 171,-119.5 171,-67.5 0,-67.5"/>
<text text-anchor="start" x="8" y="-107.5" font-family="Helvetica,sans-Serif" font-size="10.00">web::websocket::SocketContext</text>
<text text-anchor="start" x="8" y="-96.5" font-family="Helvetica,sans-Serif" font-size="10.00">Upgrade&lt; SubProtocol, web</text>
<text text-anchor="start" x="8" y="-85.5" font-family="Helvetica,sans-Serif" font-size="10.00">::http::client::Request, web</text>
<text text-anchor="middle" x="85.5" y="-74.5" font-family="Helvetica,sans-Serif" font-size="10.00">::http::client::Response &gt;</text>
</a>
</g>
</g>
<!-- Node1&#45;&gt;Node2 -->
<g id="edge1" class="edge">
<title>Node1&#45;&gt;Node2</title>
<path fill="none" stroke="darkgreen" d="M242.17,-152.94C217.65,-143.79 183.09,-130.9 152.66,-119.55"/>
<polygon fill="none" stroke="darkgreen" points="241.11,-156.28 251.7,-156.5 243.56,-149.72 241.11,-156.28"/>
</g>
<!-- Node4 -->
<g id="node4" class="node">
<title>Node4</title>
<g id="a_node4"><a xlink:href="classweb_1_1websocket_1_1_socket_context_upgrade.html" target="_top" xlink:title=" ">
<polygon fill="white" stroke="black" points="189,-67.5 189,-119.5 360,-119.5 360,-67.5 189,-67.5"/>
<text text-anchor="start" x="197" y="-107.5" font-family="Helvetica,sans-Serif" font-size="10.00">web::websocket::SocketContext</text>
<text text-anchor="start" x="197" y="-96.5" font-family="Helvetica,sans-Serif" font-size="10.00">Upgrade&lt; SubProtocol, web</text>
<text text-anchor="start" x="197" y="-85.5" font-family="Helvetica,sans-Serif" font-size="10.00">::http::server::Request, web</text>
<text text-anchor="middle" x="274.5" y="-74.5" font-family="Helvetica,sans-Serif" font-size="10.00">::http::server::Response &gt;</text>
</a>
</g>
</g>
<!-- Node1&#45;&gt;Node4 -->
<g id="edge3" class="edge">
<title>Node1&#45;&gt;Node4</title>
<path fill="none" stroke="darkgreen" d="M274.5,-146.1C274.5,-137.96 274.5,-128.33 274.5,-119.6"/>
<polygon fill="none" stroke="darkgreen" points="271,-146.36 274.5,-156.36 278,-146.36 271,-146.36"/>
</g>
<!-- Node6 -->
<g id="node6" class="node">
<title>Node6</title>
<g id="a_node6"><a xlink:href="classweb_1_1websocket_1_1_socket_context_upgrade.html" target="_top" xlink:title=" ">
<polygon fill="white" stroke="black" points="378.5,-73 378.5,-114 566.5,-114 566.5,-73 378.5,-73"/>
<text text-anchor="start" x="386.5" y="-102" font-family="Helvetica,sans-Serif" font-size="10.00">web::websocket::SocketContext</text>
<text text-anchor="start" x="386.5" y="-91" font-family="Helvetica,sans-Serif" font-size="10.00">Upgrade&lt; SubProtocolT, RequestT,</text>
<text text-anchor="middle" x="472.5" y="-80" font-family="Helvetica,sans-Serif" font-size="10.00"> ResponseT &gt;</text>
</a>
</g>
</g>
<!-- Node1&#45;&gt;Node6 -->
<g id="edge5" class="edge">
<title>Node1&#45;&gt;Node6</title>
<path fill="none" stroke="darkgreen" d="M307.94,-153.09C337.86,-142.44 382.3,-126.62 417.46,-114.1"/>
<polygon fill="none" stroke="darkgreen" points="306.63,-149.84 298.38,-156.5 308.98,-156.44 306.63,-149.84"/>
</g>
<!-- Node3 -->
<g id="node3" class="node">
<title>Node3</title>
<g id="a_node3"><a xlink:href="classweb_1_1websocket_1_1client_1_1_socket_context_upgrade.html" target="_top" xlink:title=" ">
<polygon fill="white" stroke="black" points="18.5,-0.5 18.5,-30.5 152.5,-30.5 152.5,-0.5 18.5,-0.5"/>
<text text-anchor="start" x="26.5" y="-18.5" font-family="Helvetica,sans-Serif" font-size="10.00">web::websocket::client</text>
<text text-anchor="middle" x="85.5" y="-7.5" font-family="Helvetica,sans-Serif" font-size="10.00">::SocketContextUpgrade</text>
</a>
</g>
</g>
<!-- Node2&#45;&gt;Node3 -->
<g id="edge2" class="edge">
<title>Node2&#45;&gt;Node3</title>
<path fill="none" stroke="midnightblue" d="M85.5,-56.96C85.5,-47.72 85.5,-38.28 85.5,-30.85"/>
<polygon fill="none" stroke="midnightblue" points="82,-57.19 85.5,-67.19 89,-57.19 82,-57.19"/>
</g>
<!-- Node5 -->
<g id="node5" class="node">
<title>Node5</title>
<g id="a_node5"><a xlink:href="classweb_1_1websocket_1_1server_1_1_socket_context_upgrade.html" target="_top" xlink:title=" ">
<polygon fill="white" stroke="black" points="207.5,-0.5 207.5,-30.5 341.5,-30.5 341.5,-0.5 207.5,-0.5"/>
<text text-anchor="start" x="215.5" y="-18.5" font-family="Helvetica,sans-Serif" font-size="10.00">web::websocket::server</text>
<text text-anchor="middle" x="274.5" y="-7.5" font-family="Helvetica,sans-Serif" font-size="10.00">::SocketContextUpgrade</text>
</a>
</g>
</g>
<!-- Node4&#45;&gt;Node5 -->
<g id="edge4" class="edge">
<title>Node4&#45;&gt;Node5</title>
<path fill="none" stroke="midnightblue" d="M274.5,-56.96C274.5,-47.72 274.5,-38.28 274.5,-30.85"/>
<polygon fill="none" stroke="midnightblue" points="271,-57.19 274.5,-67.19 278,-57.19 271,-57.19"/>
</g>
</g>
</svg>
