<?xml version="1.0" encoding="UTF-8" standalone="no"?>
<!DOCTYPE svg PUBLIC "-//W3C//DTD SVG 1.1//EN"
 "http://www.w3.org/Graphics/SVG/1.1/DTD/svg11.dtd">
<!-- Generated by graphviz version 2.43.0 (0)
 -->
<!-- Title: web::http::legacy::un::Client&lt; Request, Response &gt; Pages: 1 -->
<svg width="430pt" height="1078pt"
 viewBox="0.00 0.00 429.50 1078.00" xmlns="http://www.w3.org/2000/svg" xmlns:xlink="http://www.w3.org/1999/xlink">
<g id="graph0" class="graph" transform="scale(1 1) rotate(0) translate(4 1074)">
<title>web::http::legacy::un::Client&lt; Request, Response &gt;</title>
<polygon fill="white" stroke="transparent" points="-4,4 -4,-1074 425.5,-1074 425.5,4 -4,4"/>
<!-- Node1 -->
<g id="node1" class="node">
<title>Node1</title>
<g id="a_node1"><a xlink:title=" ">
<polygon fill="#bfbfbf" stroke="black" points="162.5,-0.5 162.5,-79.5 279.5,-79.5 279.5,-0.5 162.5,-0.5"/>
<text text-anchor="start" x="170.5" y="-67.5" font-family="Helvetica,sans-Serif" font-size="10.00">web::http::legacy::</text>
<text text-anchor="start" x="170.5" y="-56.5" font-family="Helvetica,sans-Serif" font-size="10.00">un::Client&lt; Request,</text>
<text text-anchor="middle" x="221" y="-45.5" font-family="Helvetica,sans-Serif" font-size="10.00"> Response &gt;</text>
<polyline fill="none" stroke="black" points="162.5,-38.5 279.5,-38.5 "/>
<text text-anchor="middle" x="221" y="-26.5" font-family="Helvetica,sans-Serif" font-size="10.00"> </text>
<polyline fill="none" stroke="black" points="162.5,-19.5 279.5,-19.5 "/>
<text text-anchor="middle" x="221" y="-7.5" font-family="Helvetica,sans-Serif" font-size="10.00"> </text>
</a>
</g>
</g>
<!-- Node2 -->
<g id="node2" class="node">
<title>Node2</title>
<g id="a_node2"><a xlink:href="classweb_1_1http_1_1client_1_1_client.html" target="_top" xlink:title=" ">
<polygon fill="white" stroke="black" points="155.5,-117.5 155.5,-218.5 286.5,-218.5 286.5,-117.5 155.5,-117.5"/>
<text text-anchor="start" x="163.5" y="-206.5" font-family="Helvetica,sans-Serif" font-size="10.00">web::http::client::</text>
<text text-anchor="start" x="163.5" y="-195.5" font-family="Helvetica,sans-Serif" font-size="10.00">Client&lt; net::un::stream</text>
<text text-anchor="start" x="163.5" y="-184.5" font-family="Helvetica,sans-Serif" font-size="10.00">::legacy::SocketClient,</text>
<text text-anchor="middle" x="221" y="-173.5" font-family="Helvetica,sans-Serif" font-size="10.00"> Request, Response &gt;</text>
<polyline fill="none" stroke="black" points="155.5,-166.5 286.5,-166.5 "/>
<text text-anchor="middle" x="221" y="-154.5" font-family="Helvetica,sans-Serif" font-size="10.00"> </text>
<polyline fill="none" stroke="black" points="155.5,-147.5 286.5,-147.5 "/>
<text text-anchor="start" x="163.5" y="-135.5" font-family="Helvetica,sans-Serif" font-size="10.00">+ Client()</text>
<text text-anchor="start" x="163.5" y="-124.5" font-family="Helvetica,sans-Serif" font-size="10.00">+ Client()</text>
</a>
</g>
</g>
<!-- Node2&#45;&gt;Node1 -->
<g id="edge1" class="edge">
<title>Node2&#45;&gt;Node1</title>
<path fill="none" stroke="midnightblue" d="M221,-107.11C221,-97.74 221,-88.28 221,-79.56"/>
<polygon fill="none" stroke="midnightblue" points="217.5,-107.2 221,-117.2 224.5,-107.2 217.5,-107.2"/>
</g>
<!-- Node3 -->
<g id="node3" class="node">
<title>Node3</title>
<g id="a_node3"><a xlink:href="classcore_1_1socket_1_1stream_1_1legacy_1_1_socket_client.html" target="_top" xlink:title=" ">
<polygon fill="white" stroke="black" points="42,-288.5 42,-378.5 224,-378.5 224,-288.5 42,-288.5"/>
<text text-anchor="start" x="50" y="-366.5" font-family="Helvetica,sans-Serif" font-size="10.00">net::un::stream::legacy</text>
<text text-anchor="start" x="50" y="-355.5" font-family="Helvetica,sans-Serif" font-size="10.00">::SocketClient &lt; web::</text>
<text text-anchor="start" x="50" y="-344.5" font-family="Helvetica,sans-Serif" font-size="10.00">http::client::SocketContextFactory</text>
<text text-anchor="middle" x="133" y="-333.5" font-family="Helvetica,sans-Serif" font-size="10.00">&lt; Request , Response &gt; &gt;</text>
<polyline fill="none" stroke="black" points="42,-326.5 224,-326.5 "/>
<text text-anchor="middle" x="133" y="-314.5" font-family="Helvetica,sans-Serif" font-size="10.00"> </text>
<polyline fill="none" stroke="black" points="42,-307.5 224,-307.5 "/>
<text text-anchor="middle" x="133" y="-295.5" font-family="Helvetica,sans-Serif" font-size="10.00"> </text>
</a>
</g>
</g>
<!-- Node3&#45;&gt;Node2 -->
<g id="edge2" class="edge">
<title>Node3&#45;&gt;Node2</title>
<path fill="none" stroke="midnightblue" d="M161.68,-279.22C172.14,-259.78 183.92,-237.88 194.22,-218.76"/>
<polygon fill="none" stroke="midnightblue" points="158.47,-277.79 156.81,-288.25 164.64,-281.11 158.47,-277.79"/>
</g>
<!-- Node4 -->
<g id="node4" class="node">
<title>Node4</title>
<g id="a_node4"><a xlink:href="classcore_1_1socket_1_1stream_1_1_socket_client.html" target="_top" xlink:title=" ">
<polygon fill="white" stroke="black" points="0,-416.5 0,-660.5 212,-660.5 212,-416.5 0,-416.5"/>
<text text-anchor="start" x="8" y="-648.5" font-family="Helvetica,sans-Serif" font-size="10.00">core::socket::stream</text>
<text text-anchor="start" x="8" y="-637.5" font-family="Helvetica,sans-Serif" font-size="10.00">::SocketClient&lt; ClientSocket</text>
<text text-anchor="start" x="8" y="-626.5" font-family="Helvetica,sans-Serif" font-size="10.00">T, core::socket::stream::</text>
<text text-anchor="start" x="8" y="-615.5" font-family="Helvetica,sans-Serif" font-size="10.00">legacy::SocketConnector, SocketContext</text>
<text text-anchor="middle" x="106" y="-604.5" font-family="Helvetica,sans-Serif" font-size="10.00">FactoryT &gt;</text>
<polyline fill="none" stroke="black" points="0,-597.5 212,-597.5 "/>
<text text-anchor="start" x="8" y="-585.5" font-family="Helvetica,sans-Serif" font-size="10.00"># socketContextFactory</text>
<text text-anchor="start" x="8" y="-574.5" font-family="Helvetica,sans-Serif" font-size="10.00"># _onConnect</text>
<text text-anchor="start" x="8" y="-563.5" font-family="Helvetica,sans-Serif" font-size="10.00"># _onConnected</text>
<text text-anchor="start" x="8" y="-552.5" font-family="Helvetica,sans-Serif" font-size="10.00"># _onDisconnect</text>
<text text-anchor="start" x="8" y="-541.5" font-family="Helvetica,sans-Serif" font-size="10.00"># options</text>
<polyline fill="none" stroke="black" points="0,-534.5 212,-534.5 "/>
<text text-anchor="start" x="8" y="-522.5" font-family="Helvetica,sans-Serif" font-size="10.00">+ SocketClient()</text>
<text text-anchor="start" x="8" y="-511.5" font-family="Helvetica,sans-Serif" font-size="10.00">+ SocketClient()</text>
<text text-anchor="start" x="8" y="-500.5" font-family="Helvetica,sans-Serif" font-size="10.00">+ SocketClient()</text>
<text text-anchor="start" x="8" y="-489.5" font-family="Helvetica,sans-Serif" font-size="10.00">+ ~SocketClient()</text>
<text text-anchor="start" x="8" y="-478.5" font-family="Helvetica,sans-Serif" font-size="10.00">+ connect()</text>
<text text-anchor="start" x="8" y="-467.5" font-family="Helvetica,sans-Serif" font-size="10.00">+ onConnect()</text>
<text text-anchor="start" x="8" y="-456.5" font-family="Helvetica,sans-Serif" font-size="10.00">+ onConnected()</text>
<text text-anchor="start" x="8" y="-445.5" font-family="Helvetica,sans-Serif" font-size="10.00">+ onDisconnect()</text>
<text text-anchor="start" x="8" y="-434.5" font-family="Helvetica,sans-Serif" font-size="10.00">+ getSocketContextFactory()</text>
<text text-anchor="start" x="8" y="-423.5" font-family="Helvetica,sans-Serif" font-size="10.00">&#45; SocketClient()</text>
</a>
</g>
</g>
<!-- Node4&#45;&gt;Node3 -->
<g id="edge3" class="edge">
<title>Node4&#45;&gt;Node3</title>
<path fill="none" stroke="midnightblue" d="M123.42,-406.53C124.73,-396.69 125.98,-387.25 127.13,-378.64"/>
<polygon fill="none" stroke="midnightblue" points="119.94,-406.11 122.1,-416.48 126.88,-407.03 119.94,-406.11"/>
</g>
<!-- Node5 -->
<g id="node5" class="node">
<title>Node5</title>
<g id="a_node5"><a xlink:title=" ">
<polygon fill="white" stroke="#bfbfbf" points="60.5,-1012.5 60.5,-1069.5 143.5,-1069.5 143.5,-1012.5 60.5,-1012.5"/>
<text text-anchor="middle" x="102" y="-1057.5" font-family="Helvetica,sans-Serif" font-size="10.00">ClientSocketT</text>
<polyline fill="none" stroke="#bfbfbf" points="60.5,-1050.5 143.5,-1050.5 "/>
<text text-anchor="middle" x="102" y="-1038.5" font-family="Helvetica,sans-Serif" font-size="10.00"> </text>
<polyline fill="none" stroke="#bfbfbf" points="60.5,-1031.5 143.5,-1031.5 "/>
<text text-anchor="middle" x="102" y="-1019.5" font-family="Helvetica,sans-Serif" font-size="10.00"> </text>
</a>
</g>
</g>
<!-- Node5&#45;&gt;Node4 -->
<g id="edge4" class="edge">
<title>Node5&#45;&gt;Node4</title>
<path fill="none" stroke="midnightblue" d="M102.3,-1002.03C102.88,-930.27 104.14,-771.97 105.03,-660.63"/>
<polygon fill="none" stroke="midnightblue" points="98.8,-1002.35 102.22,-1012.38 105.8,-1002.41 98.8,-1002.35"/>
</g>
<!-- Node6 -->
<g id="node6" class="node">
<title>Node6</title>
<g id="a_node6"><a xlink:href="classcore_1_1socket_1_1stream_1_1_socket_client.html" target="_top" xlink:title=" ">
<polygon fill="white" stroke="black" points="118.5,-741.5 118.5,-974.5 311.5,-974.5 311.5,-741.5 118.5,-741.5"/>
<text text-anchor="start" x="126.5" y="-962.5" font-family="Helvetica,sans-Serif" font-size="10.00">core::socket::stream</text>
<text text-anchor="start" x="126.5" y="-951.5" font-family="Helvetica,sans-Serif" font-size="10.00">::SocketClient&lt; ClientSocket</text>
<text text-anchor="start" x="126.5" y="-940.5" font-family="Helvetica,sans-Serif" font-size="10.00">T, SocketConnectorT, SocketContext</text>
<text text-anchor="middle" x="215" y="-929.5" font-family="Helvetica,sans-Serif" font-size="10.00">FactoryT &gt;</text>
<polyline fill="none" stroke="black" points="118.5,-922.5 311.5,-922.5 "/>
<text text-anchor="start" x="126.5" y="-910.5" font-family="Helvetica,sans-Serif" font-size="10.00"># socketContextFactory</text>
<text text-anchor="start" x="126.5" y="-899.5" font-family="Helvetica,sans-Serif" font-size="10.00"># _onConnect</text>
<text text-anchor="start" x="126.5" y="-888.5" font-family="Helvetica,sans-Serif" font-size="10.00"># _onConnected</text>
<text text-anchor="start" x="126.5" y="-877.5" font-family="Helvetica,sans-Serif" font-size="10.00"># _onDisconnect</text>
<text text-anchor="start" x="126.5" y="-866.5" font-family="Helvetica,sans-Serif" font-size="10.00"># options</text>
<polyline fill="none" stroke="black" points="118.5,-859.5 311.5,-859.5 "/>
<text text-anchor="start" x="126.5" y="-847.5" font-family="Helvetica,sans-Serif" font-size="10.00">+ SocketClient()</text>
<text text-anchor="start" x="126.5" y="-836.5" font-family="Helvetica,sans-Serif" font-size="10.00">+ SocketClient()</text>
<text text-anchor="start" x="126.5" y="-825.5" font-family="Helvetica,sans-Serif" font-size="10.00">+ SocketClient()</text>
<text text-anchor="start" x="126.5" y="-814.5" font-family="Helvetica,sans-Serif" font-size="10.00">+ ~SocketClient()</text>
<text text-anchor="start" x="126.5" y="-803.5" font-family="Helvetica,sans-Serif" font-size="10.00">+ connect()</text>
<text text-anchor="start" x="126.5" y="-792.5" font-family="Helvetica,sans-Serif" font-size="10.00">+ onConnect()</text>
<text text-anchor="start" x="126.5" y="-781.5" font-family="Helvetica,sans-Serif" font-size="10.00">+ onConnected()</text>
<text text-anchor="start" x="126.5" y="-770.5" font-family="Helvetica,sans-Serif" font-size="10.00">+ onDisconnect()</text>
<text text-anchor="start" x="126.5" y="-759.5" font-family="Helvetica,sans-Serif" font-size="10.00">+ getSocketContextFactory()</text>
<text text-anchor="start" x="126.5" y="-748.5" font-family="Helvetica,sans-Serif" font-size="10.00">&#45; SocketClient()</text>
</a>
</g>
</g>
<!-- Node5&#45;&gt;Node6 -->
<g id="edge6" class="edge">
<title>Node5&#45;&gt;Node6</title>
<path fill="none" stroke="midnightblue" d="M124.85,-1003.4C130.32,-994.64 136.44,-984.83 142.86,-974.55"/>
<polygon fill="none" stroke="midnightblue" points="121.74,-1001.78 119.41,-1012.12 127.67,-1005.49 121.74,-1001.78"/>
</g>
<!-- Node6&#45;&gt;Node4 -->
<g id="edge5" class="edge">
<title>Node6&#45;&gt;Node4</title>
<path fill="none" stroke="orange" d="M172.03,-731.84C163.98,-708.38 155.57,-683.88 147.56,-660.55"/>
<polygon fill="orange" stroke="orange" points="168.78,-733.16 175.34,-741.48 175.4,-730.88 168.78,-733.16"/>
<text text-anchor="start" x="168" y="-715" font-family="Helvetica,sans-Serif" font-size="10.00"> &lt; ClientSocketT, core</text>
<text text-anchor="start" x="168" y="-704" font-family="Helvetica,sans-Serif" font-size="10.00">::socket::stream::legacy</text>
<text text-anchor="start" x="168" y="-693" font-family="Helvetica,sans-Serif" font-size="10.00">::SocketConnector, SocketContext</text>
<text text-anchor="middle" x="250.5" y="-682" font-family="Helvetica,sans-Serif" font-size="10.00">FactoryT &gt;</text>
</g>
<!-- Node7 -->
<g id="node7" class="node">
<title>Node7</title>
<g id="a_node7"><a xlink:href="classweb_1_1http_1_1client_1_1_client.html" target="_top" xlink:title=" ">
<polygon fill="white" stroke="black" points="253,-288.5 253,-378.5 389,-378.5 389,-288.5 253,-288.5"/>
<text text-anchor="start" x="261" y="-366.5" font-family="Helvetica,sans-Serif" font-size="10.00">web::http::client::</text>
<text text-anchor="start" x="261" y="-355.5" font-family="Helvetica,sans-Serif" font-size="10.00">Client&lt; SocketClientT,</text>
<text text-anchor="middle" x="321" y="-344.5" font-family="Helvetica,sans-Serif" font-size="10.00"> RequestT, ResponseT &gt;</text>
<polyline fill="none" stroke="black" points="253,-337.5 389,-337.5 "/>
<text text-anchor="middle" x="321" y="-325.5" font-family="Helvetica,sans-Serif" font-size="10.00"> </text>
<polyline fill="none" stroke="black" points="253,-318.5 389,-318.5 "/>
<text text-anchor="start" x="261" y="-306.5" font-family="Helvetica,sans-Serif" font-size="10.00">+ Client()</text>
<text text-anchor="start" x="261" y="-295.5" font-family="Helvetica,sans-Serif" font-size="10.00">+ Client()</text>
</a>
</g>
</g>
<!-- Node7&#45;&gt;Node2 -->
<g id="edge7" class="edge">
<title>Node7&#45;&gt;Node2</title>
<path fill="none" stroke="orange" d="M288.58,-279.49C276.64,-259.98 263.18,-237.97 251.43,-218.76"/>
<polygon fill="orange" stroke="orange" points="285.74,-281.55 293.94,-288.25 291.71,-277.9 285.74,-281.55"/>
<text text-anchor="start" x="280" y="-262" font-family="Helvetica,sans-Serif" font-size="10.00"> &lt; net::un::stream::</text>
<text text-anchor="start" x="280" y="-251" font-family="Helvetica,sans-Serif" font-size="10.00">legacy::SocketClient,</text>
<text text-anchor="middle" x="334" y="-240" font-family="Helvetica,sans-Serif" font-size="10.00"> Request, Response &gt;</text>
</g>
<!-- Node8 -->
<g id="node8" class="node">
<title>Node8</title>
<g id="a_node8"><a xlink:title=" ">
<polygon fill="white" stroke="#bfbfbf" points="230.5,-499 230.5,-578 421.5,-578 421.5,-499 230.5,-499"/>
<text text-anchor="start" x="238.5" y="-566" font-family="Helvetica,sans-Serif" font-size="10.00">SocketClientT&lt; web</text>
<text text-anchor="start" x="238.5" y="-555" font-family="Helvetica,sans-Serif" font-size="10.00">::http::client::SocketContext</text>
<text text-anchor="middle" x="326" y="-544" font-family="Helvetica,sans-Serif" font-size="10.00">Factory&lt; RequestT, ResponseT &gt; &gt;</text>
<polyline fill="none" stroke="#bfbfbf" points="230.5,-537 421.5,-537 "/>
<text text-anchor="middle" x="326" y="-525" font-family="Helvetica,sans-Serif" font-size="10.00"> </text>
<polyline fill="none" stroke="#bfbfbf" points="230.5,-518 421.5,-518 "/>
<text text-anchor="middle" x="326" y="-506" font-family="Helvetica,sans-Serif" font-size="10.00"> </text>
</a>
</g>
</g>
<!-- Node8&#45;&gt;Node7 -->
<g id="edge8" class="edge">
<title>Node8&#45;&gt;Node7</title>
<path fill="none" stroke="midnightblue" d="M324.8,-488.81C323.98,-455.3 322.89,-411.15 322.09,-378.66"/>
<polygon fill="none" stroke="midnightblue" points="321.3,-488.93 325.05,-498.84 328.3,-488.76 321.3,-488.93"/>
</g>
</g>
</svg>
