<?xml version="1.0" encoding="UTF-8" standalone="no"?>
<!DOCTYPE svg PUBLIC "-//W3C//DTD SVG 1.1//EN"
 "http://www.w3.org/Graphics/SVG/1.1/DTD/svg11.dtd">
<!-- Generated by graphviz version 2.43.0 (0)
 -->
<!-- Title: core::socket::stream::SocketWriter&lt; SocketT &gt; Pages: 1 -->
<svg width="407pt" height="1287pt"
 viewBox="0.00 0.00 407.00 1287.00" xmlns="http://www.w3.org/2000/svg" xmlns:xlink="http://www.w3.org/1999/xlink">
<g id="graph0" class="graph" transform="scale(1 1) rotate(0) translate(4 1283)">
<title>core::socket::stream::SocketWriter&lt; SocketT &gt;</title>
<polygon fill="white" stroke="transparent" points="-4,4 -4,-1283 403,-1283 403,4 -4,4"/>
<!-- Node1 -->
<g id="node1" class="node">
<title>Node1</title>
<g id="a_node1"><a xlink:title=" ">
<polygon fill="#bfbfbf" stroke="black" points="71,-0.5 71,-178.5 205,-178.5 205,-0.5 71,-0.5"/>
<text text-anchor="start" x="79" y="-166.5" font-family="Helvetica,sans-Serif" font-size="10.00">core::socket::stream</text>
<text text-anchor="middle" x="138" y="-155.5" font-family="Helvetica,sans-Serif" font-size="10.00">::SocketWriter&lt; SocketT &gt;</text>
<polyline fill="none" stroke="black" points="71,-148.5 205,-148.5 "/>
<text text-anchor="start" x="79" y="-136.5" font-family="Helvetica,sans-Serif" font-size="10.00">&#45; onError</text>
<text text-anchor="start" x="79" y="-125.5" font-family="Helvetica,sans-Serif" font-size="10.00">&#45; writeBuffer</text>
<text text-anchor="start" x="79" y="-114.5" font-family="Helvetica,sans-Serif" font-size="10.00">&#45; markShutdown</text>
<polyline fill="none" stroke="black" points="71,-107.5 205,-107.5 "/>
<text text-anchor="start" x="79" y="-95.5" font-family="Helvetica,sans-Serif" font-size="10.00"># SocketWriter()</text>
<text text-anchor="start" x="79" y="-84.5" font-family="Helvetica,sans-Serif" font-size="10.00"># ~SocketWriter()</text>
<text text-anchor="start" x="79" y="-73.5" font-family="Helvetica,sans-Serif" font-size="10.00"># sendToPeer()</text>
<text text-anchor="start" x="79" y="-62.5" font-family="Helvetica,sans-Serif" font-size="10.00"># doShutdown()</text>
<text text-anchor="start" x="79" y="-51.5" font-family="Helvetica,sans-Serif" font-size="10.00"># shutdown()</text>
<text text-anchor="start" x="79" y="-40.5" font-family="Helvetica,sans-Serif" font-size="10.00"># doWrite()</text>
<text text-anchor="start" x="79" y="-29.5" font-family="Helvetica,sans-Serif" font-size="10.00">&#45; SocketWriter()</text>
<text text-anchor="start" x="79" y="-18.5" font-family="Helvetica,sans-Serif" font-size="10.00">&#45; write()</text>
<text text-anchor="start" x="79" y="-7.5" font-family="Helvetica,sans-Serif" font-size="10.00">&#45; getError()</text>
</a>
</g>
</g>
<!-- Node2 -->
<g id="node2" class="node">
<title>Node2</title>
<g id="a_node2"><a xlink:href="classcore_1_1_write_event_receiver.html" target="_top" xlink:title=" ">
<polygon fill="white" stroke="black" points="8.5,-216.5 8.5,-339.5 151.5,-339.5 151.5,-216.5 8.5,-216.5"/>
<text text-anchor="middle" x="80" y="-327.5" font-family="Helvetica,sans-Serif" font-size="10.00">core::WriteEventReceiver</text>
<polyline fill="none" stroke="black" points="8.5,-320.5 151.5,-320.5 "/>
<text text-anchor="middle" x="80" y="-308.5" font-family="Helvetica,sans-Serif" font-size="10.00"> </text>
<polyline fill="none" stroke="black" points="8.5,-301.5 151.5,-301.5 "/>
<text text-anchor="start" x="16.5" y="-289.5" font-family="Helvetica,sans-Serif" font-size="10.00"># WriteEventReceiver()</text>
<text text-anchor="start" x="16.5" y="-278.5" font-family="Helvetica,sans-Serif" font-size="10.00"># continueWriteImmediately()</text>
<text text-anchor="start" x="16.5" y="-267.5" font-family="Helvetica,sans-Serif" font-size="10.00">&#45; writeEvent()</text>
<text text-anchor="start" x="16.5" y="-256.5" font-family="Helvetica,sans-Serif" font-size="10.00">&#45; writeTimeout()</text>
<text text-anchor="start" x="16.5" y="-245.5" font-family="Helvetica,sans-Serif" font-size="10.00">&#45; dispatchEvent()</text>
<text text-anchor="start" x="16.5" y="-234.5" font-family="Helvetica,sans-Serif" font-size="10.00">&#45; timeoutEvent()</text>
<text text-anchor="start" x="16.5" y="-223.5" font-family="Helvetica,sans-Serif" font-size="10.00">&#45; continueImmediately()</text>
</a>
</g>
</g>
<!-- Node2&#45;&gt;Node1 -->
<g id="edge1" class="edge">
<title>Node2&#45;&gt;Node1</title>
<path fill="none" stroke="midnightblue" d="M101.89,-206.63C104.74,-197.44 107.7,-187.94 110.63,-178.52"/>
<polygon fill="none" stroke="midnightblue" points="98.46,-205.86 98.83,-216.45 105.14,-207.94 98.46,-205.86"/>
</g>
<!-- Node3 -->
<g id="node3" class="node">
<title>Node3</title>
<g id="a_node3"><a xlink:href="classcore_1_1_event_receiver.html" target="_top" xlink:title=" ">
<polygon fill="white" stroke="black" points="20.5,-377.5 20.5,-709.5 139.5,-709.5 139.5,-377.5 20.5,-377.5"/>
<text text-anchor="middle" x="80" y="-697.5" font-family="Helvetica,sans-Serif" font-size="10.00">core::EventReceiver</text>
<polyline fill="none" stroke="black" points="20.5,-690.5 139.5,-690.5 "/>
<text text-anchor="start" x="28.5" y="-678.5" font-family="Helvetica,sans-Serif" font-size="10.00">&#45; fd</text>
<text text-anchor="start" x="28.5" y="-667.5" font-family="Helvetica,sans-Serif" font-size="10.00">&#45; _enabled</text>
<text text-anchor="start" x="28.5" y="-656.5" font-family="Helvetica,sans-Serif" font-size="10.00">&#45; _suspended</text>
<text text-anchor="start" x="28.5" y="-645.5" font-family="Helvetica,sans-Serif" font-size="10.00">&#45; maxInactivity</text>
<text text-anchor="start" x="28.5" y="-634.5" font-family="Helvetica,sans-Serif" font-size="10.00">&#45; initialTimeout</text>
<polyline fill="none" stroke="black" points="20.5,-627.5 139.5,-627.5 "/>
<text text-anchor="start" x="28.5" y="-615.5" font-family="Helvetica,sans-Serif" font-size="10.00">+ enable()</text>
<text text-anchor="start" x="28.5" y="-604.5" font-family="Helvetica,sans-Serif" font-size="10.00">+ disable()</text>
<text text-anchor="start" x="28.5" y="-593.5" font-family="Helvetica,sans-Serif" font-size="10.00">+ suspend()</text>
<text text-anchor="start" x="28.5" y="-582.5" font-family="Helvetica,sans-Serif" font-size="10.00">+ resume()</text>
<text text-anchor="start" x="28.5" y="-571.5" font-family="Helvetica,sans-Serif" font-size="10.00"># EventReceiver()</text>
<text text-anchor="start" x="28.5" y="-560.5" font-family="Helvetica,sans-Serif" font-size="10.00"># ~EventReceiver()</text>
<text text-anchor="start" x="28.5" y="-549.5" font-family="Helvetica,sans-Serif" font-size="10.00"># setTimeout()</text>
<text text-anchor="start" x="28.5" y="-538.5" font-family="Helvetica,sans-Serif" font-size="10.00"># isEnabled()</text>
<text text-anchor="start" x="28.5" y="-527.5" font-family="Helvetica,sans-Serif" font-size="10.00"># isSuspended()</text>
<text text-anchor="start" x="28.5" y="-516.5" font-family="Helvetica,sans-Serif" font-size="10.00">&#45; EventReceiver()</text>
<text text-anchor="start" x="28.5" y="-505.5" font-family="Helvetica,sans-Serif" font-size="10.00">&#45; operator=()</text>
<text text-anchor="start" x="28.5" y="-494.5" font-family="Helvetica,sans-Serif" font-size="10.00">&#45; dispatchEvent()</text>
<text text-anchor="start" x="28.5" y="-483.5" font-family="Helvetica,sans-Serif" font-size="10.00">&#45; timeoutEvent()</text>
<text text-anchor="start" x="28.5" y="-472.5" font-family="Helvetica,sans-Serif" font-size="10.00">&#45; unobservedEvent()</text>
<text text-anchor="start" x="28.5" y="-461.5" font-family="Helvetica,sans-Serif" font-size="10.00">&#45; continueImmediately()</text>
<text text-anchor="start" x="28.5" y="-450.5" font-family="Helvetica,sans-Serif" font-size="10.00">&#45; enabled()</text>
<text text-anchor="start" x="28.5" y="-439.5" font-family="Helvetica,sans-Serif" font-size="10.00">&#45; disabled()</text>
<text text-anchor="start" x="28.5" y="-428.5" font-family="Helvetica,sans-Serif" font-size="10.00">&#45; suspended()</text>
<text text-anchor="start" x="28.5" y="-417.5" font-family="Helvetica,sans-Serif" font-size="10.00">&#45; resumed()</text>
<text text-anchor="start" x="28.5" y="-406.5" font-family="Helvetica,sans-Serif" font-size="10.00">&#45; getTimeout()</text>
<text text-anchor="start" x="28.5" y="-395.5" font-family="Helvetica,sans-Serif" font-size="10.00">&#45; getLastTriggered()</text>
<text text-anchor="start" x="28.5" y="-384.5" font-family="Helvetica,sans-Serif" font-size="10.00">&#45; triggered()</text>
</a>
</g>
</g>
<!-- Node3&#45;&gt;Node2 -->
<g id="edge2" class="edge">
<title>Node3&#45;&gt;Node2</title>
<path fill="none" stroke="midnightblue" d="M80,-367.33C80,-357.69 80,-348.4 80,-339.7"/>
<polygon fill="none" stroke="midnightblue" points="76.5,-367.49 80,-377.49 83.5,-367.49 76.5,-367.49"/>
</g>
<!-- Node4 -->
<g id="node4" class="node">
<title>Node4</title>
<g id="a_node4"><a xlink:href="classcore_1_1_observation_counter.html" target="_top" xlink:title=" ">
<polygon fill="white" stroke="black" points="0,-845.5 0,-913.5 128,-913.5 128,-845.5 0,-845.5"/>
<text text-anchor="middle" x="64" y="-901.5" font-family="Helvetica,sans-Serif" font-size="10.00">core::ObservationCounter</text>
<polyline fill="none" stroke="black" points="0,-894.5 128,-894.5 "/>
<text text-anchor="start" x="8" y="-882.5" font-family="Helvetica,sans-Serif" font-size="10.00"># observationCounter</text>
<text text-anchor="start" x="8" y="-871.5" font-family="Helvetica,sans-Serif" font-size="10.00"># lastTriggered</text>
<polyline fill="none" stroke="black" points="0,-864.5 128,-864.5 "/>
<text text-anchor="start" x="8" y="-852.5" font-family="Helvetica,sans-Serif" font-size="10.00">+ isObserved()</text>
</a>
</g>
</g>
<!-- Node4&#45;&gt;Node3 -->
<g id="edge3" class="edge">
<title>Node4&#45;&gt;Node3</title>
<path fill="none" stroke="midnightblue" d="M66.07,-835.24C67.63,-802.83 69.86,-756.24 72.08,-709.82"/>
<polygon fill="none" stroke="midnightblue" points="62.58,-835.1 65.59,-845.25 69.57,-835.43 62.58,-835.1"/>
</g>
<!-- Node5 -->
<g id="node5" class="node">
<title>Node5</title>
<g id="a_node5"><a xlink:href="classcore_1_1_event_dispatcher.html" target="_top" xlink:title=" ">
<polygon fill="white" stroke="black" points="146.5,-757.5 146.5,-1001.5 289.5,-1001.5 289.5,-757.5 146.5,-757.5"/>
<text text-anchor="middle" x="218" y="-989.5" font-family="Helvetica,sans-Serif" font-size="10.00">core::EventDispatcher</text>
<polyline fill="none" stroke="black" points="146.5,-982.5 289.5,-982.5 "/>
<text text-anchor="start" x="154.5" y="-970.5" font-family="Helvetica,sans-Serif" font-size="10.00">&#45; enabledEventReceiver</text>
<text text-anchor="start" x="154.5" y="-959.5" font-family="Helvetica,sans-Serif" font-size="10.00">&#45; observedEventReceiver</text>
<text text-anchor="start" x="154.5" y="-948.5" font-family="Helvetica,sans-Serif" font-size="10.00">&#45; disabledEventReceiver</text>
<text text-anchor="start" x="154.5" y="-937.5" font-family="Helvetica,sans-Serif" font-size="10.00">&#45; eventCounter</text>
<polyline fill="none" stroke="black" points="146.5,-930.5 289.5,-930.5 "/>
<text text-anchor="start" x="154.5" y="-918.5" font-family="Helvetica,sans-Serif" font-size="10.00">+ EventDispatcher()</text>
<text text-anchor="start" x="154.5" y="-907.5" font-family="Helvetica,sans-Serif" font-size="10.00">+ enable()</text>
<text text-anchor="start" x="154.5" y="-896.5" font-family="Helvetica,sans-Serif" font-size="10.00">+ disable()</text>
<text text-anchor="start" x="154.5" y="-885.5" font-family="Helvetica,sans-Serif" font-size="10.00">+ suspend()</text>
<text text-anchor="start" x="154.5" y="-874.5" font-family="Helvetica,sans-Serif" font-size="10.00">+ resume()</text>
<text text-anchor="start" x="154.5" y="-863.5" font-family="Helvetica,sans-Serif" font-size="10.00">+ getEventCounter()</text>
<text text-anchor="start" x="154.5" y="-852.5" font-family="Helvetica,sans-Serif" font-size="10.00">&#45; EventDispatcher()</text>
<text text-anchor="start" x="154.5" y="-841.5" font-family="Helvetica,sans-Serif" font-size="10.00">&#45; operator=()</text>
<text text-anchor="start" x="154.5" y="-830.5" font-family="Helvetica,sans-Serif" font-size="10.00">&#45; getMaxFd()</text>
<text text-anchor="start" x="154.5" y="-819.5" font-family="Helvetica,sans-Serif" font-size="10.00">&#45; getFdSet()</text>
<text text-anchor="start" x="154.5" y="-808.5" font-family="Helvetica,sans-Serif" font-size="10.00">&#45; dispatchActiveEvents()</text>
<text text-anchor="start" x="154.5" y="-797.5" font-family="Helvetica,sans-Serif" font-size="10.00">&#45; observeEnabledEvents()</text>
<text text-anchor="start" x="154.5" y="-786.5" font-family="Helvetica,sans-Serif" font-size="10.00">&#45; unobserveDisabledEvents()</text>
<text text-anchor="start" x="154.5" y="-775.5" font-family="Helvetica,sans-Serif" font-size="10.00">&#45; releaseUnobservedEvents()</text>
<text text-anchor="start" x="154.5" y="-764.5" font-family="Helvetica,sans-Serif" font-size="10.00">&#45; disableObservedEvents()</text>
</a>
</g>
</g>
<!-- Node5&#45;&gt;Node3 -->
<g id="edge4" class="edge">
<title>Node5&#45;&gt;Node3</title>
<path fill="none" stroke="#404040" d="M167.98,-757.45C160.28,-738.8 152.23,-719.32 144.27,-700.04"/>
<polygon fill="none" stroke="#404040" points="144.17,-699.82 138.19,-695.8 139.59,-688.73 145.58,-692.75 144.17,-699.82"/>
<text text-anchor="middle" x="219" y="-731" font-family="Helvetica,sans-Serif" font-size="10.00"> &#45;descriptorEventDispatcher</text>
</g>
<!-- Node6 -->
<g id="node6" class="node">
<title>Node6</title>
<g id="a_node6"><a xlink:href="classcore_1_1_event_dispatcher_1_1_fd_set.html" target="_top" xlink:title=" ">
<polygon fill="white" stroke="black" points="110,-1049.5 110,-1183.5 224,-1183.5 224,-1049.5 110,-1049.5"/>
<text text-anchor="start" x="118" y="-1171.5" font-family="Helvetica,sans-Serif" font-size="10.00">core::EventDispatcher</text>
<text text-anchor="middle" x="167" y="-1160.5" font-family="Helvetica,sans-Serif" font-size="10.00">::FdSet</text>
<polyline fill="none" stroke="black" points="110,-1153.5 224,-1153.5 "/>
<text text-anchor="start" x="118" y="-1141.5" font-family="Helvetica,sans-Serif" font-size="10.00"># registered</text>
<text text-anchor="start" x="118" y="-1130.5" font-family="Helvetica,sans-Serif" font-size="10.00"># active</text>
<polyline fill="none" stroke="black" points="110,-1123.5 224,-1123.5 "/>
<text text-anchor="start" x="118" y="-1111.5" font-family="Helvetica,sans-Serif" font-size="10.00">+ FdSet()</text>
<text text-anchor="start" x="118" y="-1100.5" font-family="Helvetica,sans-Serif" font-size="10.00">+ set()</text>
<text text-anchor="start" x="118" y="-1089.5" font-family="Helvetica,sans-Serif" font-size="10.00">+ clr()</text>
<text text-anchor="start" x="118" y="-1078.5" font-family="Helvetica,sans-Serif" font-size="10.00">+ isSet()</text>
<text text-anchor="start" x="118" y="-1067.5" font-family="Helvetica,sans-Serif" font-size="10.00">+ zero()</text>
<text text-anchor="start" x="118" y="-1056.5" font-family="Helvetica,sans-Serif" font-size="10.00">+ get()</text>
</a>
</g>
</g>
<!-- Node6&#45;&gt;Node5 -->
<g id="edge5" class="edge">
<title>Node6&#45;&gt;Node5</title>
<path fill="none" stroke="#404040" d="M181.34,-1049.41C183.8,-1038.1 186.43,-1025.99 189.1,-1013.64"/>
<polygon fill="none" stroke="#404040" points="189.14,-1013.48 186.5,-1006.77 191.68,-1001.76 194.32,-1008.47 189.14,-1013.48"/>
<text text-anchor="middle" x="201" y="-1023" font-family="Helvetica,sans-Serif" font-size="10.00"> &#45;fdSet</text>
</g>
<!-- Node7 -->
<g id="node7" class="node">
<title>Node7</title>
<g id="a_node7"><a xlink:href="classcore_1_1_event_dispatcher_1_1_descriptor_event_receiver_list.html" target="_top" xlink:title=" ">
<polygon fill="white" stroke="black" points="242,-1082.5 242,-1150.5 390,-1150.5 390,-1082.5 242,-1082.5"/>
<text text-anchor="start" x="250" y="-1138.5" font-family="Helvetica,sans-Serif" font-size="10.00">core::EventDispatcher</text>
<text text-anchor="middle" x="316" y="-1127.5" font-family="Helvetica,sans-Serif" font-size="10.00">::DescriptorEventReceiverList</text>
<polyline fill="none" stroke="black" points="242,-1120.5 390,-1120.5 "/>
<text text-anchor="middle" x="316" y="-1108.5" font-family="Helvetica,sans-Serif" font-size="10.00"> </text>
<polyline fill="none" stroke="black" points="242,-1101.5 390,-1101.5 "/>
<text text-anchor="start" x="250" y="-1089.5" font-family="Helvetica,sans-Serif" font-size="10.00">+ contains()</text>
</a>
</g>
</g>
<!-- Node7&#45;&gt;Node5 -->
<g id="edge6" class="edge">
<title>Node7&#45;&gt;Node5</title>
<path fill="none" stroke="#404040" d="M302.17,-1082.33C294.32,-1063.51 283.93,-1038.59 273.13,-1012.7"/>
<polygon fill="none" stroke="#404040" points="273.1,-1012.64 267.1,-1008.64 268.49,-1001.56 274.49,-1005.56 273.1,-1012.64"/>
<text text-anchor="middle" x="338.5" y="-1023" font-family="Helvetica,sans-Serif" font-size="10.00"> &#45;unobservedEventReceiver</text>
</g>
<!-- Node8 -->
<g id="node8" class="node">
<title>Node8</title>
<g id="a_node8"><a xlink:title=" ">
<polygon fill="white" stroke="#bfbfbf" points="247,-1221.5 247,-1278.5 385,-1278.5 385,-1221.5 247,-1221.5"/>
<text text-anchor="middle" x="316" y="-1266.5" font-family="Helvetica,sans-Serif" font-size="10.00">std::list&lt; EventReceiver * &gt;</text>
<polyline fill="none" stroke="#bfbfbf" points="247,-1259.5 385,-1259.5 "/>
<text text-anchor="middle" x="316" y="-1247.5" font-family="Helvetica,sans-Serif" font-size="10.00"> </text>
<polyline fill="none" stroke="#bfbfbf" points="247,-1240.5 385,-1240.5 "/>
<text text-anchor="middle" x="316" y="-1228.5" font-family="Helvetica,sans-Serif" font-size="10.00"> </text>
</a>
</g>
</g>
<!-- Node8&#45;&gt;Node7 -->
<g id="edge7" class="edge">
<title>Node8&#45;&gt;Node7</title>
<path fill="none" stroke="midnightblue" d="M316,-1211.25C316,-1192.11 316,-1169.07 316,-1150.62"/>
<polygon fill="none" stroke="midnightblue" points="312.5,-1211.43 316,-1221.43 319.5,-1211.43 312.5,-1211.43"/>
</g>
<!-- Node9 -->
<g id="node9" class="node">
<title>Node9</title>
<g id="a_node9"><a xlink:title=" ">
<polygon fill="white" stroke="#bfbfbf" points="169.5,-249.5 169.5,-306.5 222.5,-306.5 222.5,-249.5 169.5,-249.5"/>
<text text-anchor="middle" x="196" y="-294.5" font-family="Helvetica,sans-Serif" font-size="10.00">SocketT</text>
<polyline fill="none" stroke="#bfbfbf" points="169.5,-287.5 222.5,-287.5 "/>
<text text-anchor="middle" x="196" y="-275.5" font-family="Helvetica,sans-Serif" font-size="10.00"> </text>
<polyline fill="none" stroke="#bfbfbf" points="169.5,-268.5 222.5,-268.5 "/>
<text text-anchor="middle" x="196" y="-256.5" font-family="Helvetica,sans-Serif" font-size="10.00"> </text>
</a>
</g>
</g>
<!-- Node9&#45;&gt;Node1 -->
<g id="edge8" class="edge">
<title>Node9&#45;&gt;Node1</title>
<path fill="none" stroke="midnightblue" d="M184.38,-239.65C178.92,-222.07 172.14,-200.29 165.48,-178.86"/>
<polygon fill="none" stroke="midnightblue" points="181.13,-240.97 187.44,-249.48 187.81,-238.89 181.13,-240.97"/>
</g>
</g>
</svg>
