<?xml version="1.0" encoding="UTF-8" standalone="no"?>
<!DOCTYPE svg PUBLIC "-//W3C//DTD SVG 1.1//EN"
 "http://www.w3.org/Graphics/SVG/1.1/DTD/svg11.dtd">
<!-- Generated by graphviz version 2.43.0 (0)
 -->
<!-- Title: core::socket::stream::legacy::SocketAcceptor&lt; ServerConfigT, SocketT &gt; Pages: 1 -->
<svg width="491pt" height="1442pt"
 viewBox="0.00 0.00 491.00 1442.00" xmlns="http://www.w3.org/2000/svg" xmlns:xlink="http://www.w3.org/1999/xlink">
<g id="graph0" class="graph" transform="scale(1 1) rotate(0) translate(4 1438)">
<title>core::socket::stream::legacy::SocketAcceptor&lt; ServerConfigT, SocketT &gt;</title>
<polygon fill="white" stroke="transparent" points="-4,4 -4,-1438 487,-1438 487,4 -4,4"/>
<!-- Node1 -->
<g id="node1" class="node">
<title>Node1</title>
<g id="a_node1"><a xlink:title=" ">
<polygon fill="#bfbfbf" stroke="black" points="111.5,-0.5 111.5,-79.5 263.5,-79.5 263.5,-0.5 111.5,-0.5"/>
<text text-anchor="start" x="119.5" y="-67.5" font-family="Helvetica,sans-Serif" font-size="10.00">core::socket::stream</text>
<text text-anchor="start" x="119.5" y="-56.5" font-family="Helvetica,sans-Serif" font-size="10.00">::legacy::SocketAcceptor</text>
<text text-anchor="middle" x="187.5" y="-45.5" font-family="Helvetica,sans-Serif" font-size="10.00">&lt; ServerConfigT, SocketT &gt;</text>
<polyline fill="none" stroke="black" points="111.5,-38.5 263.5,-38.5 "/>
<text text-anchor="middle" x="187.5" y="-26.5" font-family="Helvetica,sans-Serif" font-size="10.00"> </text>
<polyline fill="none" stroke="black" points="111.5,-19.5 263.5,-19.5 "/>
<text text-anchor="start" x="119.5" y="-7.5" font-family="Helvetica,sans-Serif" font-size="10.00">+ SocketAcceptor()</text>
</a>
</g>
</g>
<!-- Node2 -->
<g id="node2" class="node">
<title>Node2</title>
<g id="a_node2"><a xlink:href="classcore_1_1socket_1_1stream_1_1_socket_acceptor.html" target="_top" xlink:title=" ">
<polygon fill="white" stroke="black" points="96.5,-117.5 96.5,-394.5 278.5,-394.5 278.5,-117.5 96.5,-117.5"/>
<text text-anchor="start" x="104.5" y="-382.5" font-family="Helvetica,sans-Serif" font-size="10.00">core::socket::stream</text>
<text text-anchor="start" x="104.5" y="-371.5" font-family="Helvetica,sans-Serif" font-size="10.00">::SocketAcceptor&lt; ServerConfig</text>
<text text-anchor="start" x="104.5" y="-360.5" font-family="Helvetica,sans-Serif" font-size="10.00">T, core::socket::stream::legacy</text>
<text text-anchor="middle" x="187.5" y="-349.5" font-family="Helvetica,sans-Serif" font-size="10.00">::SocketConnection&lt; SocketT &gt; &gt;</text>
<polyline fill="none" stroke="black" points="96.5,-342.5 278.5,-342.5 "/>
<text text-anchor="start" x="104.5" y="-330.5" font-family="Helvetica,sans-Serif" font-size="10.00"># serverConfig</text>
<text text-anchor="start" x="104.5" y="-319.5" font-family="Helvetica,sans-Serif" font-size="10.00"># options</text>
<text text-anchor="start" x="104.5" y="-308.5" font-family="Helvetica,sans-Serif" font-size="10.00">&#45; socketContextFactory</text>
<text text-anchor="start" x="104.5" y="-297.5" font-family="Helvetica,sans-Serif" font-size="10.00">&#45; onConnect</text>
<text text-anchor="start" x="104.5" y="-286.5" font-family="Helvetica,sans-Serif" font-size="10.00">&#45; onDestruct</text>
<text text-anchor="start" x="104.5" y="-275.5" font-family="Helvetica,sans-Serif" font-size="10.00">&#45; onConnected</text>
<text text-anchor="start" x="104.5" y="-264.5" font-family="Helvetica,sans-Serif" font-size="10.00">&#45; onDisconnect</text>
<text text-anchor="start" x="104.5" y="-253.5" font-family="Helvetica,sans-Serif" font-size="10.00">&#45; onError</text>
<polyline fill="none" stroke="black" points="96.5,-246.5 278.5,-246.5 "/>
<text text-anchor="start" x="104.5" y="-234.5" font-family="Helvetica,sans-Serif" font-size="10.00"># SocketAcceptor()</text>
<text text-anchor="start" x="104.5" y="-223.5" font-family="Helvetica,sans-Serif" font-size="10.00"># ~SocketAcceptor()</text>
<text text-anchor="start" x="104.5" y="-212.5" font-family="Helvetica,sans-Serif" font-size="10.00"># listen()</text>
<text text-anchor="start" x="104.5" y="-201.5" font-family="Helvetica,sans-Serif" font-size="10.00"># destruct()</text>
<text text-anchor="start" x="104.5" y="-190.5" font-family="Helvetica,sans-Serif" font-size="10.00">&#45; SocketAcceptor()</text>
<text text-anchor="start" x="104.5" y="-179.5" font-family="Helvetica,sans-Serif" font-size="10.00">&#45; SocketAcceptor()</text>
<text text-anchor="start" x="104.5" y="-168.5" font-family="Helvetica,sans-Serif" font-size="10.00">&#45; operator=()</text>
<text text-anchor="start" x="104.5" y="-157.5" font-family="Helvetica,sans-Serif" font-size="10.00">&#45; initAcceptEvent()</text>
<text text-anchor="start" x="104.5" y="-146.5" font-family="Helvetica,sans-Serif" font-size="10.00">&#45; reuseAddress()</text>
<text text-anchor="start" x="104.5" y="-135.5" font-family="Helvetica,sans-Serif" font-size="10.00">&#45; acceptEvent()</text>
<text text-anchor="start" x="104.5" y="-124.5" font-family="Helvetica,sans-Serif" font-size="10.00">&#45; unobservedEvent()</text>
</a>
</g>
</g>
<!-- Node2&#45;&gt;Node1 -->
<g id="edge1" class="edge">
<title>Node2&#45;&gt;Node1</title>
<path fill="none" stroke="darkgreen" d="M187.5,-107.28C187.5,-97.38 187.5,-88.02 187.5,-79.63"/>
<polygon fill="none" stroke="darkgreen" points="184,-107.35 187.5,-117.35 191,-107.35 184,-107.35"/>
</g>
<!-- Node3 -->
<g id="node3" class="node">
<title>Node3</title>
<g id="a_node3"><a xlink:title=" ">
<polygon fill="white" stroke="#bfbfbf" points="0,-796 0,-864 115,-864 115,-796 0,-796"/>
<text text-anchor="start" x="8" y="-852" font-family="Helvetica,sans-Serif" font-size="10.00">SocketConnectionT::</text>
<text text-anchor="middle" x="57.5" y="-841" font-family="Helvetica,sans-Serif" font-size="10.00">Socket</text>
<polyline fill="none" stroke="#bfbfbf" points="0,-834 115,-834 "/>
<text text-anchor="middle" x="57.5" y="-822" font-family="Helvetica,sans-Serif" font-size="10.00"> </text>
<polyline fill="none" stroke="#bfbfbf" points="0,-815 115,-815 "/>
<text text-anchor="middle" x="57.5" y="-803" font-family="Helvetica,sans-Serif" font-size="10.00"> </text>
</a>
</g>
</g>
<!-- Node3&#45;&gt;Node2 -->
<g id="edge2" class="edge">
<title>Node3&#45;&gt;Node2</title>
<path fill="none" stroke="darkgreen" d="M67.32,-785.8C85.97,-703.72 127.26,-522.04 156.21,-394.66"/>
<polygon fill="none" stroke="darkgreen" points="63.85,-785.25 65.05,-795.77 70.68,-786.8 63.85,-785.25"/>
</g>
<!-- Node9 -->
<g id="node9" class="node">
<title>Node9</title>
<g id="a_node9"><a xlink:href="classcore_1_1socket_1_1stream_1_1_socket_acceptor.html" target="_top" xlink:title=" ">
<polygon fill="white" stroke="black" points="192.5,-464.5 192.5,-730.5 364.5,-730.5 364.5,-464.5 192.5,-464.5"/>
<text text-anchor="start" x="200.5" y="-718.5" font-family="Helvetica,sans-Serif" font-size="10.00">core::socket::stream</text>
<text text-anchor="start" x="200.5" y="-707.5" font-family="Helvetica,sans-Serif" font-size="10.00">::SocketAcceptor&lt; ServerConfig</text>
<text text-anchor="middle" x="278.5" y="-696.5" font-family="Helvetica,sans-Serif" font-size="10.00">T, SocketConnectionT &gt;</text>
<polyline fill="none" stroke="black" points="192.5,-689.5 364.5,-689.5 "/>
<text text-anchor="start" x="200.5" y="-677.5" font-family="Helvetica,sans-Serif" font-size="10.00"># serverConfig</text>
<text text-anchor="start" x="200.5" y="-666.5" font-family="Helvetica,sans-Serif" font-size="10.00"># options</text>
<text text-anchor="start" x="200.5" y="-655.5" font-family="Helvetica,sans-Serif" font-size="10.00">&#45; socketContextFactory</text>
<text text-anchor="start" x="200.5" y="-644.5" font-family="Helvetica,sans-Serif" font-size="10.00">&#45; onConnect</text>
<text text-anchor="start" x="200.5" y="-633.5" font-family="Helvetica,sans-Serif" font-size="10.00">&#45; onDestruct</text>
<text text-anchor="start" x="200.5" y="-622.5" font-family="Helvetica,sans-Serif" font-size="10.00">&#45; onConnected</text>
<text text-anchor="start" x="200.5" y="-611.5" font-family="Helvetica,sans-Serif" font-size="10.00">&#45; onDisconnect</text>
<text text-anchor="start" x="200.5" y="-600.5" font-family="Helvetica,sans-Serif" font-size="10.00">&#45; onError</text>
<polyline fill="none" stroke="black" points="192.5,-593.5 364.5,-593.5 "/>
<text text-anchor="start" x="200.5" y="-581.5" font-family="Helvetica,sans-Serif" font-size="10.00"># SocketAcceptor()</text>
<text text-anchor="start" x="200.5" y="-570.5" font-family="Helvetica,sans-Serif" font-size="10.00"># ~SocketAcceptor()</text>
<text text-anchor="start" x="200.5" y="-559.5" font-family="Helvetica,sans-Serif" font-size="10.00"># listen()</text>
<text text-anchor="start" x="200.5" y="-548.5" font-family="Helvetica,sans-Serif" font-size="10.00"># destruct()</text>
<text text-anchor="start" x="200.5" y="-537.5" font-family="Helvetica,sans-Serif" font-size="10.00">&#45; SocketAcceptor()</text>
<text text-anchor="start" x="200.5" y="-526.5" font-family="Helvetica,sans-Serif" font-size="10.00">&#45; SocketAcceptor()</text>
<text text-anchor="start" x="200.5" y="-515.5" font-family="Helvetica,sans-Serif" font-size="10.00">&#45; operator=()</text>
<text text-anchor="start" x="200.5" y="-504.5" font-family="Helvetica,sans-Serif" font-size="10.00">&#45; initAcceptEvent()</text>
<text text-anchor="start" x="200.5" y="-493.5" font-family="Helvetica,sans-Serif" font-size="10.00">&#45; reuseAddress()</text>
<text text-anchor="start" x="200.5" y="-482.5" font-family="Helvetica,sans-Serif" font-size="10.00">&#45; acceptEvent()</text>
<text text-anchor="start" x="200.5" y="-471.5" font-family="Helvetica,sans-Serif" font-size="10.00">&#45; unobservedEvent()</text>
</a>
</g>
</g>
<!-- Node3&#45;&gt;Node9 -->
<g id="edge10" class="edge">
<title>Node3&#45;&gt;Node9</title>
<path fill="none" stroke="darkgreen" d="M96.38,-788.45C122.91,-760.77 159.13,-723 192.28,-688.43"/>
<polygon fill="none" stroke="darkgreen" points="93.56,-786.33 89.16,-795.97 98.61,-791.18 93.56,-786.33"/>
</g>
<!-- Node4 -->
<g id="node4" class="node">
<title>Node4</title>
<g id="a_node4"><a xlink:href="classcore_1_1_init_accept_event_receiver.html" target="_top" xlink:title=" ">
<polygon fill="white" stroke="black" points="320,-790.5 320,-869.5 483,-869.5 483,-790.5 320,-790.5"/>
<text text-anchor="middle" x="401.5" y="-857.5" font-family="Helvetica,sans-Serif" font-size="10.00">core::InitAcceptEventReceiver</text>
<polyline fill="none" stroke="black" points="320,-850.5 483,-850.5 "/>
<text text-anchor="middle" x="401.5" y="-838.5" font-family="Helvetica,sans-Serif" font-size="10.00"> </text>
<polyline fill="none" stroke="black" points="320,-831.5 483,-831.5 "/>
<text text-anchor="start" x="328" y="-819.5" font-family="Helvetica,sans-Serif" font-size="10.00"># InitAcceptEventReceiver()</text>
<text text-anchor="start" x="328" y="-808.5" font-family="Helvetica,sans-Serif" font-size="10.00"># dispatch()</text>
<text text-anchor="start" x="328" y="-797.5" font-family="Helvetica,sans-Serif" font-size="10.00">&#45; initAcceptEvent()</text>
</a>
</g>
</g>
<!-- Node4&#45;&gt;Node2 -->
<g id="edge3" class="edge">
<title>Node4&#45;&gt;Node2</title>
<path fill="none" stroke="darkgreen" d="M411.58,-780.26C425.79,-699.07 443.67,-533.18 382.5,-413 359.78,-368.37 317.87,-332.26 278.71,-306.06"/>
<polygon fill="none" stroke="darkgreen" points="408.12,-779.74 409.78,-790.21 415,-780.99 408.12,-779.74"/>
</g>
<!-- Node4&#45;&gt;Node9 -->
<g id="edge11" class="edge">
<title>Node4&#45;&gt;Node9</title>
<path fill="none" stroke="darkgreen" d="M376.08,-781.36C368.03,-766.28 358.71,-748.81 349.08,-730.77"/>
<polygon fill="none" stroke="darkgreen" points="373.12,-783.24 380.91,-790.42 379.29,-779.95 373.12,-783.24"/>
</g>
<!-- Node5 -->
<g id="node5" class="node">
<title>Node5</title>
<g id="a_node5"><a xlink:href="classcore_1_1_event_receiver.html" target="_top" xlink:title=" ">
<polygon fill="white" stroke="black" points="339.5,-1338 339.5,-1428 453.5,-1428 453.5,-1338 339.5,-1338"/>
<text text-anchor="middle" x="396.5" y="-1416" font-family="Helvetica,sans-Serif" font-size="10.00">core::EventReceiver</text>
<polyline fill="none" stroke="black" points="339.5,-1409 453.5,-1409 "/>
<text text-anchor="start" x="347.5" y="-1397" font-family="Helvetica,sans-Serif" font-size="10.00"># event</text>
<polyline fill="none" stroke="black" points="339.5,-1390 453.5,-1390 "/>
<text text-anchor="start" x="347.5" y="-1378" font-family="Helvetica,sans-Serif" font-size="10.00">+ EventReceiver()</text>
<text text-anchor="start" x="347.5" y="-1367" font-family="Helvetica,sans-Serif" font-size="10.00">+ ~EventReceiver()</text>
<text text-anchor="start" x="347.5" y="-1356" font-family="Helvetica,sans-Serif" font-size="10.00">+ publish()</text>
<text text-anchor="start" x="347.5" y="-1345" font-family="Helvetica,sans-Serif" font-size="10.00">+ dispatch()</text>
</a>
</g>
</g>
<!-- Node5&#45;&gt;Node4 -->
<g id="edge4" class="edge">
<title>Node5&#45;&gt;Node4</title>
<path fill="none" stroke="midnightblue" d="M396.99,-1327.53C398,-1216.44 400.27,-966.09 401.15,-869.77"/>
<polygon fill="none" stroke="midnightblue" points="393.49,-1327.81 396.9,-1337.84 400.49,-1327.87 393.49,-1327.81"/>
</g>
<!-- Node7 -->
<g id="node7" class="node">
<title>Node7</title>
<g id="a_node7"><a xlink:href="classcore_1_1_descriptor_event_receiver.html" target="_top" xlink:title=" ">
<polygon fill="white" stroke="black" points="147.5,-929.5 147.5,-1294.5 311.5,-1294.5 311.5,-929.5 147.5,-929.5"/>
<text text-anchor="middle" x="229.5" y="-1282.5" font-family="Helvetica,sans-Serif" font-size="10.00">core::DescriptorEventReceiver</text>
<polyline fill="none" stroke="black" points="147.5,-1275.5 311.5,-1275.5 "/>
<text text-anchor="start" x="155.5" y="-1263.5" font-family="Helvetica,sans-Serif" font-size="10.00">+ publisedTime</text>
<text text-anchor="start" x="155.5" y="-1252.5" font-family="Helvetica,sans-Serif" font-size="10.00">+ lastTriggered</text>
<text text-anchor="start" x="155.5" y="-1241.5" font-family="Helvetica,sans-Serif" font-size="10.00">+ maxInactivity</text>
<text text-anchor="start" x="155.5" y="-1230.5" font-family="Helvetica,sans-Serif" font-size="10.00">+ initialTimeout</text>
<text text-anchor="start" x="155.5" y="-1219.5" font-family="Helvetica,sans-Serif" font-size="10.00">+ eventCounter</text>
<text text-anchor="start" x="155.5" y="-1208.5" font-family="Helvetica,sans-Serif" font-size="10.00">&#45; descriptorEventDispatcher</text>
<text text-anchor="start" x="155.5" y="-1197.5" font-family="Helvetica,sans-Serif" font-size="10.00">&#45; registeredFd</text>
<text text-anchor="start" x="155.5" y="-1186.5" font-family="Helvetica,sans-Serif" font-size="10.00">&#45; enabled</text>
<text text-anchor="start" x="155.5" y="-1175.5" font-family="Helvetica,sans-Serif" font-size="10.00">&#45; suspended</text>
<polyline fill="none" stroke="black" points="147.5,-1168.5 311.5,-1168.5 "/>
<text text-anchor="start" x="155.5" y="-1156.5" font-family="Helvetica,sans-Serif" font-size="10.00">+ getRegisteredFd()</text>
<text text-anchor="start" x="155.5" y="-1145.5" font-family="Helvetica,sans-Serif" font-size="10.00">+ continueImmediately()</text>
<text text-anchor="start" x="155.5" y="-1134.5" font-family="Helvetica,sans-Serif" font-size="10.00">+ enable()</text>
<text text-anchor="start" x="155.5" y="-1123.5" font-family="Helvetica,sans-Serif" font-size="10.00">+ disable()</text>
<text text-anchor="start" x="155.5" y="-1112.5" font-family="Helvetica,sans-Serif" font-size="10.00">+ isEnabled()</text>
<text text-anchor="start" x="155.5" y="-1101.5" font-family="Helvetica,sans-Serif" font-size="10.00">+ suspend()</text>
<text text-anchor="start" x="155.5" y="-1090.5" font-family="Helvetica,sans-Serif" font-size="10.00">+ resume()</text>
<text text-anchor="start" x="155.5" y="-1079.5" font-family="Helvetica,sans-Serif" font-size="10.00">+ isSuspended()</text>
<text text-anchor="start" x="155.5" y="-1068.5" font-family="Helvetica,sans-Serif" font-size="10.00">+ dispatch()</text>
<text text-anchor="start" x="155.5" y="-1057.5" font-family="Helvetica,sans-Serif" font-size="10.00">+ triggered()</text>
<text text-anchor="start" x="155.5" y="-1046.5" font-family="Helvetica,sans-Serif" font-size="10.00">+ disabled()</text>
<text text-anchor="start" x="155.5" y="-1035.5" font-family="Helvetica,sans-Serif" font-size="10.00">+ terminate()</text>
<text text-anchor="start" x="155.5" y="-1024.5" font-family="Helvetica,sans-Serif" font-size="10.00">+ setTimeout()</text>
<text text-anchor="start" x="155.5" y="-1013.5" font-family="Helvetica,sans-Serif" font-size="10.00">+ getTimeout()</text>
<text text-anchor="start" x="155.5" y="-1002.5" font-family="Helvetica,sans-Serif" font-size="10.00">+ checkTimeout()</text>
<text text-anchor="start" x="155.5" y="-991.5" font-family="Helvetica,sans-Serif" font-size="10.00"># DescriptorEventReceiver()</text>
<text text-anchor="start" x="155.5" y="-980.5" font-family="Helvetica,sans-Serif" font-size="10.00"># ~DescriptorEventReceiver()</text>
<text text-anchor="start" x="155.5" y="-969.5" font-family="Helvetica,sans-Serif" font-size="10.00">&#45; DescriptorEventReceiver()</text>
<text text-anchor="start" x="155.5" y="-958.5" font-family="Helvetica,sans-Serif" font-size="10.00">&#45; operator=()</text>
<text text-anchor="start" x="155.5" y="-947.5" font-family="Helvetica,sans-Serif" font-size="10.00">&#45; dispatchEvent()</text>
<text text-anchor="start" x="155.5" y="-936.5" font-family="Helvetica,sans-Serif" font-size="10.00">&#45; timeoutEvent()</text>
</a>
</g>
</g>
<!-- Node5&#45;&gt;Node7 -->
<g id="edge8" class="edge">
<title>Node5&#45;&gt;Node7</title>
<path fill="none" stroke="midnightblue" d="M363.73,-1329.21C348.67,-1304.96 330.07,-1274.99 311.56,-1245.17"/>
<polygon fill="none" stroke="midnightblue" points="360.86,-1331.23 369.11,-1337.88 366.81,-1327.54 360.86,-1331.23"/>
</g>
<!-- Node6 -->
<g id="node6" class="node">
<title>Node6</title>
<g id="a_node6"><a xlink:href="classcore_1_1_accept_event_receiver.html" target="_top" xlink:title=" ">
<polygon fill="white" stroke="black" points="133.5,-768.5 133.5,-891.5 301.5,-891.5 301.5,-768.5 133.5,-768.5"/>
<text text-anchor="middle" x="217.5" y="-879.5" font-family="Helvetica,sans-Serif" font-size="10.00">core::AcceptEventReceiver</text>
<polyline fill="none" stroke="black" points="133.5,-872.5 301.5,-872.5 "/>
<text text-anchor="middle" x="217.5" y="-860.5" font-family="Helvetica,sans-Serif" font-size="10.00"> </text>
<polyline fill="none" stroke="black" points="133.5,-853.5 301.5,-853.5 "/>
<text text-anchor="start" x="141.5" y="-841.5" font-family="Helvetica,sans-Serif" font-size="10.00"># AcceptEventReceiver()</text>
<text text-anchor="start" x="141.5" y="-830.5" font-family="Helvetica,sans-Serif" font-size="10.00">&#45; acceptEvent()</text>
<text text-anchor="start" x="141.5" y="-819.5" font-family="Helvetica,sans-Serif" font-size="10.00">&#45; acceptTimeout()</text>
<text text-anchor="start" x="141.5" y="-808.5" font-family="Helvetica,sans-Serif" font-size="10.00">&#45; dispatchEvent()</text>
<text text-anchor="start" x="141.5" y="-797.5" font-family="Helvetica,sans-Serif" font-size="10.00">&#45; timeoutEvent()</text>
<text text-anchor="start" x="141.5" y="-786.5" font-family="Helvetica,sans-Serif" font-size="10.00">&#45; continueImmediately()</text>
<text text-anchor="start" x="141.5" y="-775.5" font-family="Helvetica,sans-Serif" font-size="10.00">&#45; continueAcceptImmediately()</text>
</a>
</g>
</g>
<!-- Node6&#45;&gt;Node2 -->
<g id="edge5" class="edge">
<title>Node6&#45;&gt;Node2</title>
<path fill="none" stroke="darkgreen" d="M189.95,-758.56C187.3,-749.41 185.03,-740.06 183.5,-731 164.61,-618.91 167.27,-489.79 173.72,-394.65"/>
<polygon fill="none" stroke="darkgreen" points="186.69,-759.86 192.97,-768.4 193.38,-757.81 186.69,-759.86"/>
</g>
<!-- Node6&#45;&gt;Node9 -->
<g id="edge12" class="edge">
<title>Node6&#45;&gt;Node9</title>
<path fill="none" stroke="darkgreen" d="M236.16,-758.49C238.54,-749.5 241.03,-740.09 243.56,-730.51"/>
<polygon fill="none" stroke="darkgreen" points="232.7,-757.88 233.53,-768.44 239.47,-759.67 232.7,-757.88"/>
</g>
<!-- Node7&#45;&gt;Node6 -->
<g id="edge6" class="edge">
<title>Node7&#45;&gt;Node6</title>
<path fill="none" stroke="midnightblue" d="M221.28,-919.15C220.86,-909.51 220.47,-900.25 220.1,-891.6"/>
<polygon fill="none" stroke="midnightblue" points="217.79,-919.48 221.71,-929.32 224.78,-919.18 217.79,-919.48"/>
</g>
<!-- Node8 -->
<g id="node8" class="node">
<title>Node8</title>
<g id="a_node8"><a xlink:href="classcore_1_1_observer.html" target="_top" xlink:title=" ">
<polygon fill="white" stroke="black" points="155,-1332.5 155,-1433.5 304,-1433.5 304,-1332.5 155,-1332.5"/>
<text text-anchor="middle" x="229.5" y="-1421.5" font-family="Helvetica,sans-Serif" font-size="10.00">core::Observer</text>
<polyline fill="none" stroke="black" points="155,-1414.5 304,-1414.5 "/>
<text text-anchor="start" x="163" y="-1402.5" font-family="Helvetica,sans-Serif" font-size="10.00">&#45; observationCounter</text>
<polyline fill="none" stroke="black" points="155,-1395.5 304,-1395.5 "/>
<text text-anchor="start" x="163" y="-1383.5" font-family="Helvetica,sans-Serif" font-size="10.00">+ isObserved()</text>
<text text-anchor="start" x="163" y="-1372.5" font-family="Helvetica,sans-Serif" font-size="10.00">+ observed()</text>
<text text-anchor="start" x="163" y="-1361.5" font-family="Helvetica,sans-Serif" font-size="10.00">+ unObserved()</text>
<text text-anchor="start" x="163" y="-1350.5" font-family="Helvetica,sans-Serif" font-size="10.00">+ getObservationCounter()</text>
<text text-anchor="start" x="163" y="-1339.5" font-family="Helvetica,sans-Serif" font-size="10.00">+ unobservedEvent()</text>
</a>
</g>
</g>
<!-- Node8&#45;&gt;Node7 -->
<g id="edge7" class="edge">
<title>Node8&#45;&gt;Node7</title>
<path fill="none" stroke="midnightblue" d="M229.5,-1322.15C229.5,-1313.53 229.5,-1304.31 229.5,-1294.72"/>
<polygon fill="none" stroke="midnightblue" points="226,-1322.35 229.5,-1332.35 233,-1322.35 226,-1322.35"/>
</g>
<!-- Node9&#45;&gt;Node2 -->
<g id="edge9" class="edge">
<title>Node9&#45;&gt;Node2</title>
<path fill="none" stroke="orange" d="M218.95,-454.47C218.1,-451.63 217.28,-448.81 216.5,-446 211.91,-429.53 208,-412.04 204.67,-394.6"/>
<polygon fill="orange" stroke="orange" points="215.66,-455.65 221.97,-464.16 222.34,-453.57 215.66,-455.65"/>
<text text-anchor="start" x="216.5" y="-438" font-family="Helvetica,sans-Serif" font-size="10.00"> &lt; ServerConfigT, core</text>
<text text-anchor="start" x="216.5" y="-427" font-family="Helvetica,sans-Serif" font-size="10.00">::socket::stream::legacy</text>
<text text-anchor="middle" x="299.5" y="-416" font-family="Helvetica,sans-Serif" font-size="10.00">::SocketConnection&lt; SocketT &gt; &gt;</text>
</g>
</g>
</svg>
