<?xml version="1.0" encoding="UTF-8" standalone="no"?>
<!DOCTYPE svg PUBLIC "-//W3C//DTD SVG 1.1//EN"
 "http://www.w3.org/Graphics/SVG/1.1/DTD/svg11.dtd">
<!-- Generated by graphviz version 2.43.0 (0)
 -->
<!-- Title: net::config::ConfigCluster Pages: 1 -->
<svg width="1710pt" height="218pt"
 viewBox="0.00 0.00 1710.00 218.00" xmlns="http://www.w3.org/2000/svg" xmlns:xlink="http://www.w3.org/1999/xlink">
<g id="graph0" class="graph" transform="scale(1 1) rotate(0) translate(4 214)">
<title>net::config::ConfigCluster</title>
<polygon fill="white" stroke="transparent" points="-4,4 -4,-214 1706,-214 1706,4 -4,4"/>
<!-- Node1 -->
<g id="node1" class="node">
<title>Node1</title>
<g id="a_node1"><a xlink:title=" ">
<polygon fill="#bfbfbf" stroke="black" points="781,-134.5 781,-153.5 921,-153.5 921,-134.5 781,-134.5"/>
<text text-anchor="middle" x="851" y="-141.5" font-family="Helvetica,sans-Serif" font-size="10.00">net::config::ConfigCluster</text>
</a>
</g>
</g>
<!-- Node3 -->
<g id="node3" class="node">
<title>Node3</title>
<g id="a_node3"><a xlink:href="classnet_1_1in6_1_1stream_1_1config_1_1_config_socket_server.html" target="_top" xlink:title=" ">
<polygon fill="white" stroke="black" points="184,-67.5 184,-97.5 314,-97.5 314,-67.5 184,-67.5"/>
<text text-anchor="start" x="192" y="-85.5" font-family="Helvetica,sans-Serif" font-size="10.00">net::in6::stream::config</text>
<text text-anchor="middle" x="249" y="-74.5" font-family="Helvetica,sans-Serif" font-size="10.00">::ConfigSocketServer</text>
</a>
</g>
</g>
<!-- Node1&#45;&gt;Node3 -->
<g id="edge2" class="edge">
<title>Node1&#45;&gt;Node3</title>
<path fill="none" stroke="midnightblue" d="M770.5,-135.04C650.01,-123.13 425.08,-100.9 314.21,-89.95"/>
<polygon fill="none" stroke="midnightblue" points="770.47,-138.56 780.76,-136.06 771.16,-131.59 770.47,-138.56"/>
</g>
<!-- Node6 -->
<g id="node6" class="node">
<title>Node6</title>
<g id="a_node6"><a xlink:href="classnet_1_1in_1_1stream_1_1config_1_1_config_socket_server.html" target="_top" xlink:title=" ">
<polygon fill="white" stroke="black" points="531,-67.5 531,-97.5 655,-97.5 655,-67.5 531,-67.5"/>
<text text-anchor="start" x="539" y="-85.5" font-family="Helvetica,sans-Serif" font-size="10.00">net::in::stream::config</text>
<text text-anchor="middle" x="593" y="-74.5" font-family="Helvetica,sans-Serif" font-size="10.00">::ConfigSocketServer</text>
</a>
</g>
</g>
<!-- Node1&#45;&gt;Node6 -->
<g id="edge5" class="edge">
<title>Node1&#45;&gt;Node6</title>
<path fill="none" stroke="midnightblue" d="M804.03,-132.17C761.88,-122.45 699.74,-108.12 653.81,-97.52"/>
<polygon fill="none" stroke="midnightblue" points="803.5,-135.64 814.03,-134.48 805.08,-128.82 803.5,-135.64"/>
</g>
<!-- Node9 -->
<g id="node9" class="node">
<title>Node9</title>
<g id="a_node9"><a xlink:href="classnet_1_1l2_1_1stream_1_1config_1_1_config_socket_server.html" target="_top" xlink:title=" ">
<polygon fill="white" stroke="black" points="789,-67.5 789,-97.5 913,-97.5 913,-67.5 789,-67.5"/>
<text text-anchor="start" x="797" y="-85.5" font-family="Helvetica,sans-Serif" font-size="10.00">net::l2::stream::config</text>
<text text-anchor="middle" x="851" y="-74.5" font-family="Helvetica,sans-Serif" font-size="10.00">::ConfigSocketServer</text>
</a>
</g>
</g>
<!-- Node1&#45;&gt;Node9 -->
<g id="edge8" class="edge">
<title>Node1&#45;&gt;Node9</title>
<path fill="none" stroke="midnightblue" d="M851,-124.23C851,-115.59 851,-105.5 851,-97.52"/>
<polygon fill="none" stroke="midnightblue" points="847.5,-124.48 851,-134.48 854.5,-124.48 847.5,-124.48"/>
</g>
<!-- Node12 -->
<g id="node12" class="node">
<title>Node12</title>
<g id="a_node12"><a xlink:href="classnet_1_1rc_1_1stream_1_1config_1_1_config_socket_server.html" target="_top" xlink:title=" ">
<polygon fill="white" stroke="black" points="1047,-67.5 1047,-97.5 1171,-97.5 1171,-67.5 1047,-67.5"/>
<text text-anchor="start" x="1055" y="-85.5" font-family="Helvetica,sans-Serif" font-size="10.00">net::rc::stream::config</text>
<text text-anchor="middle" x="1109" y="-74.5" font-family="Helvetica,sans-Serif" font-size="10.00">::ConfigSocketServer</text>
</a>
</g>
</g>
<!-- Node1&#45;&gt;Node12 -->
<g id="edge11" class="edge">
<title>Node1&#45;&gt;Node12</title>
<path fill="none" stroke="midnightblue" d="M897.97,-132.17C940.12,-122.45 1002.26,-108.12 1048.19,-97.52"/>
<polygon fill="none" stroke="midnightblue" points="896.92,-128.82 887.97,-134.48 898.5,-135.64 896.92,-128.82"/>
</g>
<!-- Node15 -->
<g id="node15" class="node">
<title>Node15</title>
<g id="a_node15"><a xlink:href="classnet_1_1un_1_1stream_1_1config_1_1_config_socket_server.html" target="_top" xlink:title=" ">
<polygon fill="white" stroke="black" points="1389.5,-67.5 1389.5,-97.5 1516.5,-97.5 1516.5,-67.5 1389.5,-67.5"/>
<text text-anchor="start" x="1397.5" y="-85.5" font-family="Helvetica,sans-Serif" font-size="10.00">net::un::stream::config</text>
<text text-anchor="middle" x="1453" y="-74.5" font-family="Helvetica,sans-Serif" font-size="10.00">::ConfigSocketServer</text>
</a>
</g>
</g>
<!-- Node1&#45;&gt;Node15 -->
<g id="edge14" class="edge">
<title>Node1&#45;&gt;Node15</title>
<path fill="none" stroke="midnightblue" d="M931.54,-135.04C1052.54,-123.08 1278.76,-100.72 1389.14,-89.81"/>
<polygon fill="none" stroke="midnightblue" points="930.84,-131.59 921.24,-136.06 931.53,-138.56 930.84,-131.59"/>
</g>
<!-- Node2 -->
<g id="node2" class="node">
<title>Node2</title>
<g id="a_node2"><a xlink:href="classnet_1_1config_1_1_config_base.html" target="_top" xlink:title=" ">
<polygon fill="white" stroke="black" points="786,-190.5 786,-209.5 916,-209.5 916,-190.5 786,-190.5"/>
<text text-anchor="middle" x="851" y="-197.5" font-family="Helvetica,sans-Serif" font-size="10.00">net::config::ConfigBase</text>
</a>
</g>
</g>
<!-- Node2&#45;&gt;Node1 -->
<g id="edge1" class="edge">
<title>Node2&#45;&gt;Node1</title>
<path fill="none" stroke="darkgreen" d="M851,-179.8C851,-170.91 851,-160.78 851,-153.75"/>
<polygon fill="none" stroke="darkgreen" points="847.5,-180.08 851,-190.08 854.5,-180.08 847.5,-180.08"/>
</g>
<!-- Node4 -->
<g id="node4" class="node">
<title>Node4</title>
<g id="a_node4"><a xlink:href="classnet_1_1in6_1_1stream_1_1legacy_1_1config_1_1_config_socket_server.html" target="_top" xlink:title=" ">
<polygon fill="white" stroke="black" points="0,-0.5 0,-30.5 154,-30.5 154,-0.5 0,-0.5"/>
<text text-anchor="start" x="8" y="-18.5" font-family="Helvetica,sans-Serif" font-size="10.00">net::in6::stream::legacy</text>
<text text-anchor="middle" x="77" y="-7.5" font-family="Helvetica,sans-Serif" font-size="10.00">::config::ConfigSocketServer</text>
</a>
</g>
</g>
<!-- Node3&#45;&gt;Node4 -->
<g id="edge3" class="edge">
<title>Node3&#45;&gt;Node4</title>
<path fill="none" stroke="midnightblue" d="M202.21,-63.82C174.57,-53.37 140.04,-40.32 114.25,-30.58"/>
<polygon fill="none" stroke="midnightblue" points="201.09,-67.13 211.68,-67.4 203.56,-60.59 201.09,-67.13"/>
</g>
<!-- Node5 -->
<g id="node5" class="node">
<title>Node5</title>
<g id="a_node5"><a xlink:href="classnet_1_1in6_1_1stream_1_1tls_1_1config_1_1_config_socket_server.html" target="_top" xlink:title=" ">
<polygon fill="white" stroke="black" points="172,-0.5 172,-30.5 326,-30.5 326,-0.5 172,-0.5"/>
<text text-anchor="start" x="180" y="-18.5" font-family="Helvetica,sans-Serif" font-size="10.00">net::in6::stream::tls</text>
<text text-anchor="middle" x="249" y="-7.5" font-family="Helvetica,sans-Serif" font-size="10.00">::config::ConfigSocketServer</text>
</a>
</g>
</g>
<!-- Node3&#45;&gt;Node5 -->
<g id="edge4" class="edge">
<title>Node3&#45;&gt;Node5</title>
<path fill="none" stroke="midnightblue" d="M249,-57.11C249,-48.15 249,-38.32 249,-30.58"/>
<polygon fill="none" stroke="midnightblue" points="245.5,-57.4 249,-67.4 252.5,-57.4 245.5,-57.4"/>
</g>
<!-- Node7 -->
<g id="node7" class="node">
<title>Node7</title>
<g id="a_node7"><a xlink:href="classnet_1_1in_1_1stream_1_1legacy_1_1config_1_1_config_socket_server.html" target="_top" xlink:title=" ">
<polygon fill="white" stroke="black" points="344,-0.5 344,-30.5 498,-30.5 498,-0.5 344,-0.5"/>
<text text-anchor="start" x="352" y="-18.5" font-family="Helvetica,sans-Serif" font-size="10.00">net::in::stream::legacy</text>
<text text-anchor="middle" x="421" y="-7.5" font-family="Helvetica,sans-Serif" font-size="10.00">::config::ConfigSocketServer</text>
</a>
</g>
</g>
<!-- Node6&#45;&gt;Node7 -->
<g id="edge6" class="edge">
<title>Node6&#45;&gt;Node7</title>
<path fill="none" stroke="midnightblue" d="M546.21,-63.82C518.57,-53.37 484.04,-40.32 458.25,-30.58"/>
<polygon fill="none" stroke="midnightblue" points="545.09,-67.13 555.68,-67.4 547.56,-60.59 545.09,-67.13"/>
</g>
<!-- Node8 -->
<g id="node8" class="node">
<title>Node8</title>
<g id="a_node8"><a xlink:href="classnet_1_1in_1_1stream_1_1tls_1_1config_1_1_config_socket_server.html" target="_top" xlink:title=" ">
<polygon fill="white" stroke="black" points="516,-0.5 516,-30.5 670,-30.5 670,-0.5 516,-0.5"/>
<text text-anchor="start" x="524" y="-18.5" font-family="Helvetica,sans-Serif" font-size="10.00">net::in::stream::tls</text>
<text text-anchor="middle" x="593" y="-7.5" font-family="Helvetica,sans-Serif" font-size="10.00">::config::ConfigSocketServer</text>
</a>
</g>
</g>
<!-- Node6&#45;&gt;Node8 -->
<g id="edge7" class="edge">
<title>Node6&#45;&gt;Node8</title>
<path fill="none" stroke="midnightblue" d="M593,-57.11C593,-48.15 593,-38.32 593,-30.58"/>
<polygon fill="none" stroke="midnightblue" points="589.5,-57.4 593,-67.4 596.5,-57.4 589.5,-57.4"/>
</g>
<!-- Node10 -->
<g id="node10" class="node">
<title>Node10</title>
<g id="a_node10"><a xlink:href="classnet_1_1l2_1_1stream_1_1legacy_1_1config_1_1_config_socket_server.html" target="_top" xlink:title=" ">
<polygon fill="white" stroke="black" points="688,-0.5 688,-30.5 842,-30.5 842,-0.5 688,-0.5"/>
<text text-anchor="start" x="696" y="-18.5" font-family="Helvetica,sans-Serif" font-size="10.00">net::l2::stream::legacy</text>
<text text-anchor="middle" x="765" y="-7.5" font-family="Helvetica,sans-Serif" font-size="10.00">::config::ConfigSocketServer</text>
</a>
</g>
</g>
<!-- Node9&#45;&gt;Node10 -->
<g id="edge9" class="edge">
<title>Node9&#45;&gt;Node10</title>
<path fill="none" stroke="midnightblue" d="M824.1,-61.17C810.95,-51.23 795.45,-39.51 783.62,-30.58"/>
<polygon fill="none" stroke="midnightblue" points="822.25,-64.16 832.34,-67.4 826.47,-58.57 822.25,-64.16"/>
</g>
<!-- Node11 -->
<g id="node11" class="node">
<title>Node11</title>
<g id="a_node11"><a xlink:href="classnet_1_1l2_1_1stream_1_1tls_1_1config_1_1_config_socket_server.html" target="_top" xlink:title=" ">
<polygon fill="white" stroke="black" points="860,-0.5 860,-30.5 1014,-30.5 1014,-0.5 860,-0.5"/>
<text text-anchor="start" x="868" y="-18.5" font-family="Helvetica,sans-Serif" font-size="10.00">net::l2::stream::tls</text>
<text text-anchor="middle" x="937" y="-7.5" font-family="Helvetica,sans-Serif" font-size="10.00">::config::ConfigSocketServer</text>
</a>
</g>
</g>
<!-- Node9&#45;&gt;Node11 -->
<g id="edge10" class="edge">
<title>Node9&#45;&gt;Node11</title>
<path fill="none" stroke="midnightblue" d="M877.9,-61.17C891.05,-51.23 906.55,-39.51 918.38,-30.58"/>
<polygon fill="none" stroke="midnightblue" points="875.53,-58.57 869.66,-67.4 879.75,-64.16 875.53,-58.57"/>
</g>
<!-- Node13 -->
<g id="node13" class="node">
<title>Node13</title>
<g id="a_node13"><a xlink:href="classnet_1_1rc_1_1stream_1_1legacy_1_1config_1_1_config_socket_server.html" target="_top" xlink:title=" ">
<polygon fill="white" stroke="black" points="1032,-0.5 1032,-30.5 1186,-30.5 1186,-0.5 1032,-0.5"/>
<text text-anchor="start" x="1040" y="-18.5" font-family="Helvetica,sans-Serif" font-size="10.00">net::rc::stream::legacy</text>
<text text-anchor="middle" x="1109" y="-7.5" font-family="Helvetica,sans-Serif" font-size="10.00">::config::ConfigSocketServer</text>
</a>
</g>
</g>
<!-- Node12&#45;&gt;Node13 -->
<g id="edge12" class="edge">
<title>Node12&#45;&gt;Node13</title>
<path fill="none" stroke="midnightblue" d="M1109,-57.11C1109,-48.15 1109,-38.32 1109,-30.58"/>
<polygon fill="none" stroke="midnightblue" points="1105.5,-57.4 1109,-67.4 1112.5,-57.4 1105.5,-57.4"/>
</g>
<!-- Node14 -->
<g id="node14" class="node">
<title>Node14</title>
<g id="a_node14"><a xlink:href="classnet_1_1rc_1_1stream_1_1tls_1_1config_1_1_config_socket_server.html" target="_top" xlink:title=" ">
<polygon fill="white" stroke="black" points="1204,-0.5 1204,-30.5 1358,-30.5 1358,-0.5 1204,-0.5"/>
<text text-anchor="start" x="1212" y="-18.5" font-family="Helvetica,sans-Serif" font-size="10.00">net::rc::stream::tls</text>
<text text-anchor="middle" x="1281" y="-7.5" font-family="Helvetica,sans-Serif" font-size="10.00">::config::ConfigSocketServer</text>
</a>
</g>
</g>
<!-- Node12&#45;&gt;Node14 -->
<g id="edge13" class="edge">
<title>Node12&#45;&gt;Node14</title>
<path fill="none" stroke="midnightblue" d="M1155.79,-63.82C1183.43,-53.37 1217.96,-40.32 1243.75,-30.58"/>
<polygon fill="none" stroke="midnightblue" points="1154.44,-60.59 1146.32,-67.4 1156.91,-67.13 1154.44,-60.59"/>
</g>
<!-- Node16 -->
<g id="node16" class="node">
<title>Node16</title>
<g id="a_node16"><a xlink:href="classnet_1_1un_1_1stream_1_1legacy_1_1config_1_1_config_socket_server.html" target="_top" xlink:title=" ">
<polygon fill="white" stroke="black" points="1376,-0.5 1376,-30.5 1530,-30.5 1530,-0.5 1376,-0.5"/>
<text text-anchor="start" x="1384" y="-18.5" font-family="Helvetica,sans-Serif" font-size="10.00">net::un::stream::legacy</text>
<text text-anchor="middle" x="1453" y="-7.5" font-family="Helvetica,sans-Serif" font-size="10.00">::config::ConfigSocketServer</text>
</a>
</g>
</g>
<!-- Node15&#45;&gt;Node16 -->
<g id="edge15" class="edge">
<title>Node15&#45;&gt;Node16</title>
<path fill="none" stroke="midnightblue" d="M1453,-57.11C1453,-48.15 1453,-38.32 1453,-30.58"/>
<polygon fill="none" stroke="midnightblue" points="1449.5,-57.4 1453,-67.4 1456.5,-57.4 1449.5,-57.4"/>
</g>
<!-- Node17 -->
<g id="node17" class="node">
<title>Node17</title>
<g id="a_node17"><a xlink:href="classnet_1_1un_1_1stream_1_1tls_1_1config_1_1_config_socket_server.html" target="_top" xlink:title=" ">
<polygon fill="white" stroke="black" points="1548,-0.5 1548,-30.5 1702,-30.5 1702,-0.5 1548,-0.5"/>
<text text-anchor="start" x="1556" y="-18.5" font-family="Helvetica,sans-Serif" font-size="10.00">net::un::stream::tls</text>
<text text-anchor="middle" x="1625" y="-7.5" font-family="Helvetica,sans-Serif" font-size="10.00">::config::ConfigSocketServer</text>
</a>
</g>
</g>
<!-- Node15&#45;&gt;Node17 -->
<g id="edge16" class="edge">
<title>Node15&#45;&gt;Node17</title>
<path fill="none" stroke="midnightblue" d="M1499.79,-63.82C1527.43,-53.37 1561.96,-40.32 1587.75,-30.58"/>
<polygon fill="none" stroke="midnightblue" points="1498.44,-60.59 1490.32,-67.4 1500.91,-67.13 1498.44,-60.59"/>
</g>
</g>
</svg>
