<?xml version="1.0" encoding="UTF-8" standalone="no"?>
<!DOCTYPE svg PUBLIC "-//W3C//DTD SVG 1.1//EN"
 "http://www.w3.org/Graphics/SVG/1.1/DTD/svg11.dtd">
<!-- Generated by graphviz version 2.43.0 (0)
 -->
<!-- Title: net::ReadEventReceiver::readTimeout Pages: 1 -->
<svg width="704pt" height="228pt"
 viewBox="0.00 0.00 704.00 228.00" xmlns="http://www.w3.org/2000/svg" xmlns:xlink="http://www.w3.org/1999/xlink">
<g id="graph0" class="graph" transform="scale(1 1) rotate(0) translate(4 224)">
<title>net::ReadEventReceiver::readTimeout</title>
<polygon fill="white" stroke="transparent" points="-4,4 -4,-224 700,-224 700,4 -4,4"/>
<!-- Node1 -->
<g id="node1" class="node">
<title>Node1</title>
<g id="a_node1"><a xlink:title=" ">
<polygon fill="#bfbfbf" stroke="black" points="0,-96.5 0,-126.5 124,-126.5 124,-96.5 0,-96.5"/>
<text text-anchor="start" x="8" y="-114.5" font-family="Helvetica,sans-Serif" font-size="10.00">net::ReadEventReceiver</text>
<text text-anchor="middle" x="62" y="-103.5" font-family="Helvetica,sans-Serif" font-size="10.00">::readTimeout</text>
</a>
</g>
</g>
<!-- Node2 -->
<g id="node2" class="node">
<title>Node2</title>
<g id="a_node2"><a xlink:href="classnet_1_1_event_receiver.html#af99ad4621551f0d032b5eabb76b613a1" target="_top" xlink:title=" ">
<polygon fill="white" stroke="black" points="160,-96.5 160,-126.5 261,-126.5 261,-96.5 160,-96.5"/>
<text text-anchor="start" x="168" y="-114.5" font-family="Helvetica,sans-Serif" font-size="10.00">net::EventReceiver</text>
<text text-anchor="middle" x="210.5" y="-103.5" font-family="Helvetica,sans-Serif" font-size="10.00">::disable</text>
</a>
</g>
</g>
<!-- Node1&#45;&gt;Node2 -->
<g id="edge1" class="edge">
<title>Node1&#45;&gt;Node2</title>
<path fill="none" stroke="midnightblue" d="M124.28,-111.5C132.64,-111.5 141.22,-111.5 149.55,-111.5"/>
<polygon fill="midnightblue" stroke="midnightblue" points="149.58,-115 159.58,-111.5 149.58,-108 149.58,-115"/>
</g>
<!-- Node3 -->
<g id="node3" class="node">
<title>Node3</title>
<g id="a_node3"><a xlink:href="classnet_1_1_event_dispatcher.html#a1298354d3ccafbd0c878852449af3799" target="_top" xlink:title=" ">
<polygon fill="white" stroke="black" points="297,-140.5 297,-170.5 406,-170.5 406,-140.5 297,-140.5"/>
<text text-anchor="start" x="305" y="-158.5" font-family="Helvetica,sans-Serif" font-size="10.00">net::EventDispatcher</text>
<text text-anchor="middle" x="351.5" y="-147.5" font-family="Helvetica,sans-Serif" font-size="10.00">::disable</text>
</a>
</g>
</g>
<!-- Node2&#45;&gt;Node3 -->
<g id="edge2" class="edge">
<title>Node2&#45;&gt;Node3</title>
<path fill="none" stroke="midnightblue" d="M258.95,-126.52C269.9,-129.99 281.66,-133.71 292.99,-137.29"/>
<polygon fill="midnightblue" stroke="midnightblue" points="292.2,-140.72 302.79,-140.4 294.32,-134.04 292.2,-140.72"/>
</g>
<!-- Node6 -->
<g id="node6" class="node">
<title>Node6</title>
<g id="a_node6"><a xlink:href="classnet_1_1_event_receiver.html#afdfa280e579e56b9acadb54465c65528" target="_top" xlink:title=" ">
<polygon fill="white" stroke="black" points="591,-98.5 591,-128.5 692,-128.5 692,-98.5 591,-98.5"/>
<text text-anchor="start" x="599" y="-116.5" font-family="Helvetica,sans-Serif" font-size="10.00">net::EventReceiver</text>
<text text-anchor="middle" x="641.5" y="-105.5" font-family="Helvetica,sans-Serif" font-size="10.00">::isSuspended</text>
</a>
</g>
</g>
<!-- Node2&#45;&gt;Node6 -->
<g id="edge5" class="edge">
<title>Node2&#45;&gt;Node6</title>
<path fill="none" stroke="midnightblue" d="M261.13,-111.73C340.5,-112.1 495.72,-112.83 580.95,-113.22"/>
<polygon fill="midnightblue" stroke="midnightblue" points="580.97,-116.72 590.99,-113.27 581,-109.72 580.97,-116.72"/>
</g>
<!-- Node7 -->
<g id="node7" class="node">
<title>Node7</title>
<g id="a_node7"><a xlink:href="classnet_1_1_event_receiver.html#a6c5065f83b6aad6a60f5369ccc5963b1" target="_top" xlink:title=" ">
<polygon fill="white" stroke="black" points="301,-52.5 301,-82.5 402,-82.5 402,-52.5 301,-52.5"/>
<text text-anchor="start" x="309" y="-70.5" font-family="Helvetica,sans-Serif" font-size="10.00">net::EventReceiver</text>
<text text-anchor="middle" x="351.5" y="-59.5" font-family="Helvetica,sans-Serif" font-size="10.00">::suspend</text>
</a>
</g>
</g>
<!-- Node2&#45;&gt;Node7 -->
<g id="edge6" class="edge">
<title>Node2&#45;&gt;Node7</title>
<path fill="none" stroke="midnightblue" d="M258.95,-96.48C269.9,-93.01 281.66,-89.29 292.99,-85.71"/>
<polygon fill="midnightblue" stroke="midnightblue" points="294.32,-88.96 302.79,-82.6 292.2,-82.28 294.32,-88.96"/>
</g>
<!-- Node4 -->
<g id="node4" class="node">
<title>Node4</title>
<g id="a_node4"><a xlink:href="classnet_1_1_event_receiver.html#a26548a33372081c52eff4df128fa573f" target="_top" xlink:title=" ">
<polygon fill="white" stroke="black" points="446,-189.5 446,-219.5 547,-219.5 547,-189.5 446,-189.5"/>
<text text-anchor="start" x="454" y="-207.5" font-family="Helvetica,sans-Serif" font-size="10.00">net::EventReceiver</text>
<text text-anchor="middle" x="496.5" y="-196.5" font-family="Helvetica,sans-Serif" font-size="10.00">::disabled</text>
</a>
</g>
</g>
<!-- Node3&#45;&gt;Node4 -->
<g id="edge3" class="edge">
<title>Node3&#45;&gt;Node4</title>
<path fill="none" stroke="midnightblue" d="M396.57,-170.6C410.84,-175.49 426.83,-180.97 441.73,-186.07"/>
<polygon fill="midnightblue" stroke="midnightblue" points="440.73,-189.43 451.33,-189.36 443,-182.81 440.73,-189.43"/>
</g>
<!-- Node5 -->
<g id="node5" class="node">
<title>Node5</title>
<g id="a_node5"><a xlink:href="classnet_1_1_event_receiver.html#ac4e3a75a2849d0d8b1fc4ba2b754c8e3" target="_top" xlink:title=" ">
<polygon fill="white" stroke="black" points="446,-140.5 446,-170.5 547,-170.5 547,-140.5 446,-140.5"/>
<text text-anchor="start" x="454" y="-158.5" font-family="Helvetica,sans-Serif" font-size="10.00">net::EventReceiver</text>
<text text-anchor="middle" x="496.5" y="-147.5" font-family="Helvetica,sans-Serif" font-size="10.00">::isEnabled</text>
</a>
</g>
</g>
<!-- Node3&#45;&gt;Node5 -->
<g id="edge4" class="edge">
<title>Node3&#45;&gt;Node5</title>
<path fill="none" stroke="midnightblue" d="M406.15,-155.5C415.8,-155.5 425.91,-155.5 435.72,-155.5"/>
<polygon fill="midnightblue" stroke="midnightblue" points="435.8,-159 445.8,-155.5 435.8,-152 435.8,-159"/>
</g>
<!-- Node8 -->
<g id="node8" class="node">
<title>Node8</title>
<g id="a_node8"><a xlink:href="classnet_1_1_event_dispatcher.html#a3e9b28950b4c4738ba9f2d07515faf55" target="_top" xlink:title=" ">
<polygon fill="white" stroke="black" points="442,-51.5 442,-81.5 551,-81.5 551,-51.5 442,-51.5"/>
<text text-anchor="start" x="450" y="-69.5" font-family="Helvetica,sans-Serif" font-size="10.00">net::EventDispatcher</text>
<text text-anchor="middle" x="496.5" y="-58.5" font-family="Helvetica,sans-Serif" font-size="10.00">::suspend</text>
</a>
</g>
</g>
<!-- Node7&#45;&gt;Node8 -->
<g id="edge7" class="edge">
<title>Node7&#45;&gt;Node8</title>
<path fill="none" stroke="midnightblue" d="M402.11,-67.15C411.57,-67.09 421.6,-67.02 431.43,-66.95"/>
<polygon fill="midnightblue" stroke="midnightblue" points="431.61,-70.45 441.58,-66.88 431.56,-63.45 431.61,-70.45"/>
</g>
<!-- Node8&#45;&gt;Node6 -->
<g id="edge9" class="edge">
<title>Node8&#45;&gt;Node6</title>
<path fill="none" stroke="midnightblue" d="M543.14,-81.5C556.43,-85.87 571.09,-90.69 584.92,-95.23"/>
<polygon fill="midnightblue" stroke="midnightblue" points="584.21,-98.68 594.8,-98.48 586.4,-92.03 584.21,-98.68"/>
</g>
<!-- Node9 -->
<g id="node9" class="node">
<title>Node9</title>
<g id="a_node9"><a xlink:href="classnet_1_1_event_dispatcher_1_1_fd_set.html#a9f27047c523223dc325e32b003f350de" target="_top" xlink:title=" ">
<polygon fill="white" stroke="black" points="587,-49.5 587,-79.5 696,-79.5 696,-49.5 587,-49.5"/>
<text text-anchor="start" x="595" y="-67.5" font-family="Helvetica,sans-Serif" font-size="10.00">net::EventDispatcher</text>
<text text-anchor="middle" x="641.5" y="-56.5" font-family="Helvetica,sans-Serif" font-size="10.00">::FdSet::clr</text>
</a>
</g>
</g>
<!-- Node8&#45;&gt;Node9 -->
<g id="edge8" class="edge">
<title>Node8&#45;&gt;Node9</title>
<path fill="none" stroke="midnightblue" d="M551.15,-65.75C559.38,-65.63 567.94,-65.51 576.37,-65.4"/>
<polygon fill="midnightblue" stroke="midnightblue" points="576.59,-68.89 586.54,-65.25 576.5,-61.89 576.59,-68.89"/>
</g>
<!-- Node10 -->
<g id="node10" class="node">
<title>Node10</title>
<g id="a_node10"><a xlink:href="classnet_1_1_event_receiver.html#a2736c19a5be98adb814b4d2b10d93e6a" target="_top" xlink:title=" ">
<polygon fill="white" stroke="black" points="591,-0.5 591,-30.5 692,-30.5 692,-0.5 591,-0.5"/>
<text text-anchor="start" x="599" y="-18.5" font-family="Helvetica,sans-Serif" font-size="10.00">net::EventReceiver</text>
<text text-anchor="middle" x="641.5" y="-7.5" font-family="Helvetica,sans-Serif" font-size="10.00">::suspended</text>
</a>
</g>
</g>
<!-- Node8&#45;&gt;Node10 -->
<g id="edge10" class="edge">
<title>Node8&#45;&gt;Node10</title>
<path fill="none" stroke="midnightblue" d="M539.63,-51.47C554.91,-46.02 572.36,-39.8 588.4,-34.08"/>
<polygon fill="midnightblue" stroke="midnightblue" points="589.93,-37.25 598.18,-30.59 587.58,-30.66 589.93,-37.25"/>
</g>
</g>
</svg>
