<?xml version="1.0" encoding="UTF-8" standalone="no"?>
<!DOCTYPE svg PUBLIC "-//W3C//DTD SVG 1.1//EN"
 "http://www.w3.org/Graphics/SVG/1.1/DTD/svg11.dtd">
<!-- Generated by graphviz version 2.43.0 (0)
 -->
<!-- Title: web::http::server::Response::send Pages: 1 -->
<svg width="813pt" height="276pt"
 viewBox="0.00 0.00 813.00 276.00" xmlns="http://www.w3.org/2000/svg" xmlns:xlink="http://www.w3.org/1999/xlink">
<g id="graph0" class="graph" transform="scale(1 1) rotate(0) translate(4 272)">
<title>web::http::server::Response::send</title>
<polygon fill="white" stroke="transparent" points="-4,4 -4,-272 809,-272 809,4 -4,4"/>
<!-- Node1 -->
<g id="node1" class="node">
<title>Node1</title>
<g id="a_node1"><a xlink:title=" ">
<polygon fill="#bfbfbf" stroke="black" points="0,-45.5 0,-75.5 105,-75.5 105,-45.5 0,-45.5"/>
<text text-anchor="start" x="8" y="-63.5" font-family="Helvetica,sans-Serif" font-size="10.00">web::http::server::</text>
<text text-anchor="middle" x="52.5" y="-52.5" font-family="Helvetica,sans-Serif" font-size="10.00">Response::send</text>
</a>
</g>
</g>
<!-- Node2 -->
<g id="node2" class="node">
<title>Node2</title>
<g id="a_node2"><a xlink:href="classweb_1_1http_1_1server_1_1_response.html#a6bdff1ff4fb13a952df7bfefd0b87667" target="_top" xlink:title=" ">
<polygon fill="white" stroke="black" points="141,-114.5 141,-144.5 253,-144.5 253,-114.5 141,-114.5"/>
<text text-anchor="start" x="149" y="-132.5" font-family="Helvetica,sans-Serif" font-size="10.00">web::http::server::</text>
<text text-anchor="middle" x="197" y="-121.5" font-family="Helvetica,sans-Serif" font-size="10.00">Response::enqueue</text>
</a>
</g>
</g>
<!-- Node1&#45;&gt;Node2 -->
<g id="edge1" class="edge">
<title>Node1&#45;&gt;Node2</title>
<path fill="none" stroke="midnightblue" d="M84.77,-75.64C105.56,-85.71 133.06,-99.03 155.52,-109.9"/>
<polygon fill="midnightblue" stroke="midnightblue" points="154.27,-113.18 164.8,-114.39 157.33,-106.88 154.27,-113.18"/>
</g>
<!-- Node9 -->
<g id="node9" class="node">
<title>Node9</title>
<g id="a_node9"><a xlink:href="classweb_1_1http_1_1server_1_1_response.html#a82301ce94e8418a2d0b9bc052207a178" target="_top" xlink:title=" ">
<polygon fill="white" stroke="black" points="508.5,-0.5 508.5,-30.5 613.5,-30.5 613.5,-0.5 508.5,-0.5"/>
<text text-anchor="start" x="516.5" y="-18.5" font-family="Helvetica,sans-Serif" font-size="10.00">web::http::server::</text>
<text text-anchor="middle" x="561" y="-7.5" font-family="Helvetica,sans-Serif" font-size="10.00">Response::set</text>
</a>
</g>
</g>
<!-- Node1&#45;&gt;Node9 -->
<g id="edge15" class="edge">
<title>Node1&#45;&gt;Node9</title>
<path fill="none" stroke="midnightblue" d="M105.32,-55.9C199.29,-47.55 397.38,-29.95 498.21,-20.99"/>
<polygon fill="midnightblue" stroke="midnightblue" points="498.6,-24.47 508.25,-20.1 497.98,-17.5 498.6,-24.47"/>
</g>
<!-- Node3 -->
<g id="node3" class="node">
<title>Node3</title>
<g id="a_node3"><a xlink:href="classcore_1_1socket_1_1_socket_context.html#a7daa40724b091ab2970e60cd5c46148a" target="_top" xlink:title=" ">
<polygon fill="white" stroke="black" points="289,-139.5 289,-169.5 441,-169.5 441,-139.5 289,-139.5"/>
<text text-anchor="start" x="297" y="-157.5" font-family="Helvetica,sans-Serif" font-size="10.00">core::socket::SocketContext</text>
<text text-anchor="middle" x="365" y="-146.5" font-family="Helvetica,sans-Serif" font-size="10.00">::close</text>
</a>
</g>
</g>
<!-- Node2&#45;&gt;Node3 -->
<g id="edge2" class="edge">
<title>Node2&#45;&gt;Node3</title>
<path fill="none" stroke="midnightblue" d="M253.28,-137.82C261.48,-139.06 270.09,-140.36 278.73,-141.66"/>
<polygon fill="midnightblue" stroke="midnightblue" points="278.46,-145.16 288.87,-143.19 279.5,-138.24 278.46,-145.16"/>
</g>
<!-- Node5 -->
<g id="node5" class="node">
<title>Node5</title>
<g id="a_node5"><a xlink:href="classweb_1_1http_1_1server_1_1_response.html#a4fae387fd1d11b86260f4572bfebfce2" target="_top" xlink:title=" ">
<polygon fill="white" stroke="black" points="301,-90.5 301,-120.5 429,-120.5 429,-90.5 301,-90.5"/>
<text text-anchor="start" x="309" y="-108.5" font-family="Helvetica,sans-Serif" font-size="10.00">web::http::server::</text>
<text text-anchor="middle" x="365" y="-97.5" font-family="Helvetica,sans-Serif" font-size="10.00">Response::sendHeader</text>
</a>
</g>
</g>
<!-- Node2&#45;&gt;Node5 -->
<g id="edge4" class="edge">
<title>Node2&#45;&gt;Node5</title>
<path fill="none" stroke="midnightblue" d="M253.28,-115.1C265.33,-113.05 278.27,-111.08 290.9,-109.36"/>
<polygon fill="midnightblue" stroke="midnightblue" points="291.48,-112.82 300.94,-108.04 290.56,-105.88 291.48,-112.82"/>
</g>
<!-- Node12 -->
<g id="node12" class="node">
<title>Node12</title>
<g id="a_node12"><a xlink:href="classcore_1_1socket_1_1_socket_context.html#acf71eb98dd1dbbf97af68326bdaac8ff" target="_top" xlink:title=" ">
<polygon fill="white" stroke="black" points="289,-237.5 289,-267.5 441,-267.5 441,-237.5 289,-237.5"/>
<text text-anchor="start" x="297" y="-255.5" font-family="Helvetica,sans-Serif" font-size="10.00">core::socket::SocketContext</text>
<text text-anchor="middle" x="365" y="-244.5" font-family="Helvetica,sans-Serif" font-size="10.00">::sendToPeer</text>
</a>
</g>
</g>
<!-- Node2&#45;&gt;Node12 -->
<g id="edge12" class="edge">
<title>Node2&#45;&gt;Node12</title>
<path fill="none" stroke="midnightblue" d="M207.94,-144.51C222.99,-166.12 253.59,-205.87 289,-228.5 291.57,-230.14 294.26,-231.68 297.02,-233.12"/>
<polygon fill="midnightblue" stroke="midnightblue" points="295.55,-236.29 306.09,-237.38 298.53,-229.96 295.55,-236.29"/>
</g>
<!-- Node14 -->
<g id="node14" class="node">
<title>Node14</title>
<g id="a_node14"><a xlink:href="classweb_1_1http_1_1_socket_context.html#a3d37b0a17a47ce6c9ebf96900bfe2a74" target="_top" xlink:title=" ">
<polygon fill="white" stroke="black" points="295.5,-188.5 295.5,-218.5 434.5,-218.5 434.5,-188.5 295.5,-188.5"/>
<text text-anchor="start" x="303.5" y="-206.5" font-family="Helvetica,sans-Serif" font-size="10.00">web::http::SocketContext</text>
<text text-anchor="middle" x="365" y="-195.5" font-family="Helvetica,sans-Serif" font-size="10.00">::sendToPeerCompleted</text>
</a>
</g>
</g>
<!-- Node2&#45;&gt;Node14 -->
<g id="edge14" class="edge">
<title>Node2&#45;&gt;Node14</title>
<path fill="none" stroke="midnightblue" d="M222.46,-144.63C240.42,-155.31 265.65,-169.46 289,-179.5 293.4,-181.39 298,-183.22 302.66,-184.95"/>
<polygon fill="midnightblue" stroke="midnightblue" points="301.68,-188.32 312.28,-188.4 304.04,-181.73 301.68,-188.32"/>
</g>
<!-- Node4 -->
<g id="node4" class="node">
<title>Node4</title>
<g id="a_node4"><a xlink:href="classcore_1_1socket_1_1_socket_connection.html#a9b8dcd50d3aee2376df71eb53bb3805f" target="_top" xlink:title=" ">
<polygon fill="white" stroke="black" points="477,-186.5 477,-216.5 645,-216.5 645,-186.5 477,-186.5"/>
<text text-anchor="start" x="485" y="-204.5" font-family="Helvetica,sans-Serif" font-size="10.00">core::socket::SocketConnection</text>
<text text-anchor="middle" x="561" y="-193.5" font-family="Helvetica,sans-Serif" font-size="10.00">::close</text>
</a>
</g>
</g>
<!-- Node3&#45;&gt;Node4 -->
<g id="edge3" class="edge">
<title>Node3&#45;&gt;Node4</title>
<path fill="none" stroke="midnightblue" d="M427.92,-169.5C447.08,-174.14 468.35,-179.3 488.13,-184.09"/>
<polygon fill="midnightblue" stroke="midnightblue" points="487.46,-187.53 498.01,-186.48 489.11,-180.72 487.46,-187.53"/>
</g>
<!-- Node5&#45;&gt;Node2 -->
<g id="edge6" class="edge">
<title>Node5&#45;&gt;Node2</title>
<path fill="none" stroke="midnightblue" d="M304.98,-120.53C291.57,-122.76 277.24,-124.87 263.57,-126.64"/>
<polygon fill="midnightblue" stroke="midnightblue" points="262.77,-123.21 253.28,-127.91 263.63,-130.16 262.77,-123.21"/>
</g>
<!-- Node6 -->
<g id="node6" class="node">
<title>Node6</title>
<g id="a_node6"><a xlink:href="classweb_1_1http_1_1server_1_1_response.html#aa9a6f2cbf1a4f186db94f9a2d5d6da08" target="_top" xlink:title=" ">
<polygon fill="white" stroke="black" points="508.5,-49.5 508.5,-79.5 613.5,-79.5 613.5,-49.5 508.5,-49.5"/>
<text text-anchor="start" x="516.5" y="-67.5" font-family="Helvetica,sans-Serif" font-size="10.00">web::http::server::</text>
<text text-anchor="middle" x="561" y="-56.5" font-family="Helvetica,sans-Serif" font-size="10.00">Response::cookie</text>
</a>
</g>
</g>
<!-- Node5&#45;&gt;Node6 -->
<g id="edge5" class="edge">
<title>Node5&#45;&gt;Node6</title>
<path fill="none" stroke="midnightblue" d="M429.25,-92.13C451.5,-87.43 476.45,-82.16 498.55,-77.49"/>
<polygon fill="midnightblue" stroke="midnightblue" points="499.42,-80.88 508.48,-75.39 497.97,-74.03 499.42,-80.88"/>
</g>
<!-- Node7 -->
<g id="node7" class="node">
<title>Node7</title>
<g id="a_node7"><a xlink:href="classweb_1_1http_1_1_status_code.html#ad3c635f1cb778cdb4a2e23332ebda277" target="_top" xlink:title=" ">
<polygon fill="white" stroke="black" points="499,-137.5 499,-167.5 623,-167.5 623,-137.5 499,-137.5"/>
<text text-anchor="start" x="507" y="-155.5" font-family="Helvetica,sans-Serif" font-size="10.00">web::http::StatusCode</text>
<text text-anchor="middle" x="561" y="-144.5" font-family="Helvetica,sans-Serif" font-size="10.00">::reason</text>
</a>
</g>
</g>
<!-- Node5&#45;&gt;Node7 -->
<g id="edge7" class="edge">
<title>Node5&#45;&gt;Node7</title>
<path fill="none" stroke="midnightblue" d="M427.92,-120.5C447.27,-125.19 468.77,-130.4 488.72,-135.23"/>
<polygon fill="midnightblue" stroke="midnightblue" points="488.13,-138.69 498.67,-137.64 489.78,-131.89 488.13,-138.69"/>
</g>
<!-- Node5&#45;&gt;Node9 -->
<g id="edge9" class="edge">
<title>Node5&#45;&gt;Node9</title>
<path fill="none" stroke="midnightblue" d="M387.64,-90.36C409.39,-75.7 444.29,-53.68 477,-39.5 483.81,-36.55 491.09,-33.84 498.41,-31.39"/>
<polygon fill="midnightblue" stroke="midnightblue" points="499.9,-34.59 508.36,-28.22 497.77,-27.92 499.9,-34.59"/>
</g>
<!-- Node11 -->
<g id="node11" class="node">
<title>Node11</title>
<g id="a_node11"><a xlink:href="namespacehttputils.html#a01539c1af68e4d072d3507ae44c0b02a" target="_top" xlink:title=" ">
<polygon fill="white" stroke="black" points="498.5,-99 498.5,-118 623.5,-118 623.5,-99 498.5,-99"/>
<text text-anchor="middle" x="561" y="-106" font-family="Helvetica,sans-Serif" font-size="10.00">httputils::to_http_date</text>
</a>
</g>
</g>
<!-- Node5&#45;&gt;Node11 -->
<g id="edge11" class="edge">
<title>Node5&#45;&gt;Node11</title>
<path fill="none" stroke="midnightblue" d="M429.25,-106.48C448.18,-106.77 469.06,-107.09 488.48,-107.39"/>
<polygon fill="midnightblue" stroke="midnightblue" points="488.43,-110.89 498.48,-107.55 488.54,-103.89 488.43,-110.89"/>
</g>
<!-- Node8 -->
<g id="node8" class="node">
<title>Node8</title>
<g id="a_node8"><a xlink:href="classweb_1_1http_1_1_status_code.html#a7128168d2becba8d8bfd0e47ab2854ff" target="_top" xlink:title=" ">
<polygon fill="white" stroke="black" points="681,-137.5 681,-167.5 805,-167.5 805,-137.5 681,-137.5"/>
<text text-anchor="start" x="689" y="-155.5" font-family="Helvetica,sans-Serif" font-size="10.00">web::http::StatusCode</text>
<text text-anchor="middle" x="743" y="-144.5" font-family="Helvetica,sans-Serif" font-size="10.00">::contains</text>
</a>
</g>
</g>
<!-- Node7&#45;&gt;Node8 -->
<g id="edge8" class="edge">
<title>Node7&#45;&gt;Node8</title>
<path fill="none" stroke="midnightblue" d="M623.19,-152.5C638.49,-152.5 655.03,-152.5 670.77,-152.5"/>
<polygon fill="midnightblue" stroke="midnightblue" points="670.98,-156 680.98,-152.5 670.98,-149 670.98,-156"/>
</g>
<!-- Node10 -->
<g id="node10" class="node">
<title>Node10</title>
<g id="a_node10"><a xlink:href="namespacehttputils.html#af566d4f31d97a3a84b373a94e6cf9594" target="_top" xlink:title=" ">
<polygon fill="white" stroke="black" points="684,-6 684,-25 802,-25 802,-6 684,-6"/>
<text text-anchor="middle" x="743" y="-13" font-family="Helvetica,sans-Serif" font-size="10.00">httputils::ci_contains</text>
</a>
</g>
</g>
<!-- Node9&#45;&gt;Node10 -->
<g id="edge10" class="edge">
<title>Node9&#45;&gt;Node10</title>
<path fill="none" stroke="midnightblue" d="M613.58,-15.5C632.25,-15.5 653.63,-15.5 673.52,-15.5"/>
<polygon fill="midnightblue" stroke="midnightblue" points="673.76,-19 683.76,-15.5 673.76,-12 673.76,-19"/>
</g>
<!-- Node13 -->
<g id="node13" class="node">
<title>Node13</title>
<g id="a_node13"><a xlink:href="classcore_1_1socket_1_1_socket_connection.html#a15c934a69a64a7d2a0f230ebf1033195" target="_top" xlink:title=" ">
<polygon fill="white" stroke="black" points="477,-237.5 477,-267.5 645,-267.5 645,-237.5 477,-237.5"/>
<text text-anchor="start" x="485" y="-255.5" font-family="Helvetica,sans-Serif" font-size="10.00">core::socket::SocketConnection</text>
<text text-anchor="middle" x="561" y="-244.5" font-family="Helvetica,sans-Serif" font-size="10.00">::sendToPeer</text>
</a>
</g>
</g>
<!-- Node12&#45;&gt;Node13 -->
<g id="edge13" class="edge">
<title>Node12&#45;&gt;Node13</title>
<path fill="none" stroke="midnightblue" d="M441.01,-252.5C449.44,-252.5 458.1,-252.5 466.72,-252.5"/>
<polygon fill="midnightblue" stroke="midnightblue" points="466.81,-256 476.81,-252.5 466.81,-249 466.81,-256"/>
</g>
</g>
</svg>
