<?xml version="1.0" encoding="UTF-8" standalone="no"?>
<!DOCTYPE svg PUBLIC "-//W3C//DTD SVG 1.1//EN"
 "http://www.w3.org/Graphics/SVG/1.1/DTD/svg11.dtd">
<!-- Generated by graphviz version 2.43.0 (0)
 -->
<!-- Title: core::DynamicLoader::dlCloseDelayed Pages: 1 -->
<svg width="713pt" height="140pt"
 viewBox="0.00 0.00 713.00 140.00" xmlns="http://www.w3.org/2000/svg" xmlns:xlink="http://www.w3.org/1999/xlink">
<g id="graph0" class="graph" transform="scale(1 1) rotate(0) translate(4 136)">
<title>core::DynamicLoader::dlCloseDelayed</title>
<polygon fill="white" stroke="transparent" points="-4,4 -4,-136 709,-136 709,4 -4,4"/>
<!-- Node1 -->
<g id="node1" class="node">
<title>Node1</title>
<g id="a_node1"><a xlink:title=" ">
<polygon fill="#bfbfbf" stroke="black" points="585,-66 585,-96 705,-96 705,-66 585,-66"/>
<text text-anchor="start" x="593" y="-84" font-family="Helvetica,sans-Serif" font-size="10.00">core::DynamicLoader</text>
<text text-anchor="middle" x="645" y="-73" font-family="Helvetica,sans-Serif" font-size="10.00">::dlCloseDelayed</text>
</a>
</g>
</g>
<!-- Node2 -->
<g id="node2" class="node">
<title>Node2</title>
<g id="a_node2"><a xlink:href="classweb_1_1http_1_1_socket_context_upgrade_factory_selector.html#a29a59f732ed9a916406d049045faee9f" target="_top" xlink:title=" ">
<polygon fill="white" stroke="black" points="338,-90.5 338,-131.5 549,-131.5 549,-90.5 338,-90.5"/>
<text text-anchor="start" x="346" y="-119.5" font-family="Helvetica,sans-Serif" font-size="10.00">web::http::SocketContext</text>
<text text-anchor="start" x="346" y="-108.5" font-family="Helvetica,sans-Serif" font-size="10.00">UpgradeFactorySelector</text>
<text text-anchor="middle" x="443.5" y="-97.5" font-family="Helvetica,sans-Serif" font-size="10.00">&lt; SocketContextUpgradeFactory &gt;::add</text>
</a>
</g>
</g>
<!-- Node1&#45;&gt;Node2 -->
<g id="edge1" class="edge">
<title>Node1&#45;&gt;Node2</title>
<path fill="none" stroke="midnightblue" d="M574.89,-91.39C566.5,-92.65 557.79,-93.96 549.03,-95.28"/>
<polygon fill="midnightblue" stroke="midnightblue" points="575.58,-94.83 584.95,-89.88 574.54,-87.91 575.58,-94.83"/>
</g>
<!-- Node3 -->
<g id="node3" class="node">
<title>Node3</title>
<g id="a_node3"><a xlink:href="classweb_1_1http_1_1_socket_context_upgrade_factory_selector.html#a95a372b68288705669f80c5721eff016" target="_top" xlink:title=" ">
<polygon fill="white" stroke="black" points="374,-30.5 374,-71.5 513,-71.5 513,-30.5 374,-30.5"/>
<text text-anchor="start" x="382" y="-59.5" font-family="Helvetica,sans-Serif" font-size="10.00">web::http::SocketContext</text>
<text text-anchor="start" x="382" y="-48.5" font-family="Helvetica,sans-Serif" font-size="10.00">UpgradeFactorySelector</text>
<text text-anchor="middle" x="443.5" y="-37.5" font-family="Helvetica,sans-Serif" font-size="10.00">::unload</text>
</a>
</g>
</g>
<!-- Node1&#45;&gt;Node3 -->
<g id="edge2" class="edge">
<title>Node1&#45;&gt;Node3</title>
<path fill="none" stroke="midnightblue" d="M575,-70.62C555.01,-67.62 533.2,-64.34 513.23,-61.34"/>
<polygon fill="midnightblue" stroke="midnightblue" points="574.54,-74.09 584.95,-72.12 575.58,-67.17 574.54,-74.09"/>
</g>
<!-- Node4 -->
<g id="node4" class="node">
<title>Node4</title>
<g id="a_node4"><a xlink:href="classweb_1_1http_1_1client_1_1_socket_context_upgrade_factory.html#a254e57fe75d644633ca8ab5667e04f60" target="_top" xlink:title=" ">
<polygon fill="white" stroke="black" points="138,-60.5 138,-101.5 302,-101.5 302,-60.5 138,-60.5"/>
<text text-anchor="start" x="146" y="-89.5" font-family="Helvetica,sans-Serif" font-size="10.00">web::http::client::</text>
<text text-anchor="start" x="146" y="-78.5" font-family="Helvetica,sans-Serif" font-size="10.00">SocketContextUpgradeFactory</text>
<text text-anchor="middle" x="220" y="-67.5" font-family="Helvetica,sans-Serif" font-size="10.00">::checkRefCount</text>
</a>
</g>
</g>
<!-- Node3&#45;&gt;Node4 -->
<g id="edge3" class="edge">
<title>Node3&#45;&gt;Node4</title>
<path fill="none" stroke="midnightblue" d="M363.91,-61.64C343.85,-64.36 322.25,-67.29 302.06,-70.02"/>
<polygon fill="midnightblue" stroke="midnightblue" points="364.49,-65.1 373.93,-60.29 363.55,-58.16 364.49,-65.1"/>
</g>
<!-- Node6 -->
<g id="node6" class="node">
<title>Node6</title>
<g id="a_node6"><a xlink:href="classweb_1_1http_1_1server_1_1_socket_context_upgrade_factory.html#ad6da4e4f4825434741da9130a3d77e46" target="_top" xlink:title=" ">
<polygon fill="white" stroke="black" points="138,-0.5 138,-41.5 302,-41.5 302,-0.5 138,-0.5"/>
<text text-anchor="start" x="146" y="-29.5" font-family="Helvetica,sans-Serif" font-size="10.00">web::http::server::</text>
<text text-anchor="start" x="146" y="-18.5" font-family="Helvetica,sans-Serif" font-size="10.00">SocketContextUpgradeFactory</text>
<text text-anchor="middle" x="220" y="-7.5" font-family="Helvetica,sans-Serif" font-size="10.00">::checkRefCount</text>
</a>
</g>
</g>
<!-- Node3&#45;&gt;Node6 -->
<g id="edge5" class="edge">
<title>Node3&#45;&gt;Node6</title>
<path fill="none" stroke="midnightblue" d="M363.91,-40.36C343.85,-37.64 322.25,-34.71 302.06,-31.98"/>
<polygon fill="midnightblue" stroke="midnightblue" points="363.55,-43.84 373.93,-41.71 364.49,-36.9 363.55,-43.84"/>
</g>
<!-- Node5 -->
<g id="node5" class="node">
<title>Node5</title>
<g id="a_node5"><a xlink:href="classweb_1_1http_1_1client_1_1_request.html#ade3f2c0c18eb527560f212631a627a0d" target="_top" xlink:title=" ">
<polygon fill="white" stroke="black" points="0,-66 0,-96 102,-96 102,-66 0,-66"/>
<text text-anchor="start" x="8" y="-84" font-family="Helvetica,sans-Serif" font-size="10.00">web::http::client::</text>
<text text-anchor="middle" x="51" y="-73" font-family="Helvetica,sans-Serif" font-size="10.00">Request::upgrade</text>
</a>
</g>
</g>
<!-- Node4&#45;&gt;Node5 -->
<g id="edge4" class="edge">
<title>Node4&#45;&gt;Node5</title>
<path fill="none" stroke="midnightblue" d="M127.72,-81C119.02,-81 110.45,-81 102.37,-81"/>
<polygon fill="midnightblue" stroke="midnightblue" points="127.95,-84.5 137.95,-81 127.95,-77.5 127.95,-84.5"/>
</g>
</g>
</svg>
