<?xml version="1.0" encoding="UTF-8" standalone="no"?>
<!DOCTYPE svg PUBLIC "-//W3C//DTD SVG 1.1//EN"
 "http://www.w3.org/Graphics/SVG/1.1/DTD/svg11.dtd">
<!-- Generated by graphviz version 2.43.0 (0)
 -->
<!-- Title: core::DescriptorEventDispatcher::dispatchImmediateEvents Pages: 1 -->
<svg width="495pt" height="235pt"
 viewBox="0.00 0.00 495.00 235.00" xmlns="http://www.w3.org/2000/svg" xmlns:xlink="http://www.w3.org/1999/xlink">
<g id="graph0" class="graph" transform="scale(1 1) rotate(0) translate(4 231)">
<title>core::DescriptorEventDispatcher::dispatchImmediateEvents</title>
<polygon fill="white" stroke="transparent" points="-4,4 -4,-231 491,-231 491,4 -4,4"/>
<!-- Node1 -->
<g id="node1" class="node">
<title>Node1</title>
<g id="a_node1"><a xlink:title=" ">
<polygon fill="#bfbfbf" stroke="black" points="0,-98.5 0,-128.5 174,-128.5 174,-98.5 0,-98.5"/>
<text text-anchor="start" x="8" y="-116.5" font-family="Helvetica,sans-Serif" font-size="10.00">core::DescriptorEventDispatcher</text>
<text text-anchor="middle" x="87" y="-105.5" font-family="Helvetica,sans-Serif" font-size="10.00">::dispatchImmediateEvents</text>
</a>
</g>
</g>
<!-- Node2 -->
<g id="node2" class="node">
<title>Node2</title>
<g id="a_node2"><a xlink:href="classcore_1_1_event_receiver.html#a28c410d42667ddb3224f494fd2e2edd0" target="_top" xlink:title=" ">
<polygon fill="white" stroke="black" points="216.5,-196.5 216.5,-226.5 330.5,-226.5 330.5,-196.5 216.5,-196.5"/>
<text text-anchor="start" x="224.5" y="-214.5" font-family="Helvetica,sans-Serif" font-size="10.00">core::EventReceiver</text>
<text text-anchor="middle" x="273.5" y="-203.5" font-family="Helvetica,sans-Serif" font-size="10.00">::checkTimeout</text>
</a>
</g>
</g>
<!-- Node1&#45;&gt;Node2 -->
<g id="edge1" class="edge">
<title>Node1&#45;&gt;Node2</title>
<path fill="none" stroke="midnightblue" d="M110.25,-128.66C134.2,-144.58 173.75,-169.72 210,-187.5 213.48,-189.21 217.12,-190.88 220.81,-192.49"/>
<polygon fill="midnightblue" stroke="midnightblue" points="219.46,-195.72 230.04,-196.37 222.18,-189.27 219.46,-195.72"/>
</g>
<!-- Node4 -->
<g id="node4" class="node">
<title>Node4</title>
<g id="a_node4"><a xlink:href="classcore_1_1_event_receiver.html#ad1f3bd917bcc53c491c5da02e3016137" target="_top" xlink:title=" ">
<polygon fill="white" stroke="black" points="210,-147.5 210,-177.5 337,-177.5 337,-147.5 210,-147.5"/>
<text text-anchor="start" x="218" y="-165.5" font-family="Helvetica,sans-Serif" font-size="10.00">core::EventReceiver</text>
<text text-anchor="middle" x="273.5" y="-154.5" font-family="Helvetica,sans-Serif" font-size="10.00">::continueImmediately</text>
</a>
</g>
</g>
<!-- Node1&#45;&gt;Node4 -->
<g id="edge3" class="edge">
<title>Node1&#45;&gt;Node4</title>
<path fill="none" stroke="midnightblue" d="M144.61,-128.53C164.09,-133.71 186.08,-139.55 206.26,-144.91"/>
<polygon fill="midnightblue" stroke="midnightblue" points="205.43,-148.31 216,-147.49 207.23,-141.54 205.43,-148.31"/>
</g>
<!-- Node5 -->
<g id="node5" class="node">
<title>Node5</title>
<g id="a_node5"><a xlink:href="classcore_1_1_event_receiver.html#a4e481c44b2aefcfcfc4a91b760824786" target="_top" xlink:title=" ">
<polygon fill="white" stroke="black" points="216.5,-98.5 216.5,-128.5 330.5,-128.5 330.5,-98.5 216.5,-98.5"/>
<text text-anchor="start" x="224.5" y="-116.5" font-family="Helvetica,sans-Serif" font-size="10.00">core::EventReceiver</text>
<text text-anchor="middle" x="273.5" y="-105.5" font-family="Helvetica,sans-Serif" font-size="10.00">::dispatch</text>
</a>
</g>
</g>
<!-- Node1&#45;&gt;Node5 -->
<g id="edge4" class="edge">
<title>Node1&#45;&gt;Node5</title>
<path fill="none" stroke="midnightblue" d="M174.04,-113.5C184.82,-113.5 195.71,-113.5 206.13,-113.5"/>
<polygon fill="midnightblue" stroke="midnightblue" points="206.36,-117 216.36,-113.5 206.36,-110 206.36,-117"/>
</g>
<!-- Node8 -->
<g id="node8" class="node">
<title>Node8</title>
<g id="a_node8"><a xlink:href="classcore_1_1_event_receiver.html#a677995a821e9226e5dcbf92182884477" target="_top" xlink:title=" ">
<polygon fill="white" stroke="black" points="216.5,-49.5 216.5,-79.5 330.5,-79.5 330.5,-49.5 216.5,-49.5"/>
<text text-anchor="start" x="224.5" y="-67.5" font-family="Helvetica,sans-Serif" font-size="10.00">core::EventReceiver</text>
<text text-anchor="middle" x="273.5" y="-56.5" font-family="Helvetica,sans-Serif" font-size="10.00">::isEnabled</text>
</a>
</g>
</g>
<!-- Node1&#45;&gt;Node8 -->
<g id="edge7" class="edge">
<title>Node1&#45;&gt;Node8</title>
<path fill="none" stroke="midnightblue" d="M144.61,-98.47C164.18,-93.27 186.28,-87.4 206.54,-82.02"/>
<polygon fill="midnightblue" stroke="midnightblue" points="207.55,-85.37 216.31,-79.42 205.75,-78.61 207.55,-85.37"/>
</g>
<!-- Node9 -->
<g id="node9" class="node">
<title>Node9</title>
<g id="a_node9"><a xlink:href="classcore_1_1_event_receiver.html#a3c6fec4001aa28b328c23573c70ad159" target="_top" xlink:title=" ">
<polygon fill="white" stroke="black" points="216.5,-0.5 216.5,-30.5 330.5,-30.5 330.5,-0.5 216.5,-0.5"/>
<text text-anchor="start" x="224.5" y="-18.5" font-family="Helvetica,sans-Serif" font-size="10.00">core::EventReceiver</text>
<text text-anchor="middle" x="273.5" y="-7.5" font-family="Helvetica,sans-Serif" font-size="10.00">::isSuspended</text>
</a>
</g>
</g>
<!-- Node1&#45;&gt;Node9 -->
<g id="edge8" class="edge">
<title>Node1&#45;&gt;Node9</title>
<path fill="none" stroke="midnightblue" d="M110.77,-98.38C134.83,-82.77 174.17,-58.25 210,-40.5 214.06,-38.49 218.32,-36.52 222.62,-34.61"/>
<polygon fill="midnightblue" stroke="midnightblue" points="224.26,-37.72 232.08,-30.58 221.5,-31.29 224.26,-37.72"/>
</g>
<!-- Node3 -->
<g id="node3" class="node">
<title>Node3</title>
<g id="a_node3"><a xlink:href="classcore_1_1_event_receiver.html#a854cc0f9f55f0f48335d959b23ee47b5" target="_top" xlink:title=" ">
<polygon fill="white" stroke="black" points="373,-196.5 373,-226.5 487,-226.5 487,-196.5 373,-196.5"/>
<text text-anchor="start" x="381" y="-214.5" font-family="Helvetica,sans-Serif" font-size="10.00">core::EventReceiver</text>
<text text-anchor="middle" x="430" y="-203.5" font-family="Helvetica,sans-Serif" font-size="10.00">::timeoutEvent</text>
</a>
</g>
</g>
<!-- Node2&#45;&gt;Node3 -->
<g id="edge2" class="edge">
<title>Node2&#45;&gt;Node3</title>
<path fill="none" stroke="midnightblue" d="M330.72,-211.5C341.11,-211.5 352.06,-211.5 362.72,-211.5"/>
<polygon fill="midnightblue" stroke="midnightblue" points="362.83,-215 372.83,-211.5 362.83,-208 362.83,-215"/>
</g>
<!-- Node6 -->
<g id="node6" class="node">
<title>Node6</title>
<g id="a_node6"><a xlink:href="classcore_1_1_event_receiver.html#a9472344a6dd9eb471d9c3b51deffd0ed" target="_top" xlink:title=" ">
<polygon fill="white" stroke="black" points="373,-123.5 373,-153.5 487,-153.5 487,-123.5 373,-123.5"/>
<text text-anchor="start" x="381" y="-141.5" font-family="Helvetica,sans-Serif" font-size="10.00">core::EventReceiver</text>
<text text-anchor="middle" x="430" y="-130.5" font-family="Helvetica,sans-Serif" font-size="10.00">::dispatchEvent</text>
</a>
</g>
</g>
<!-- Node5&#45;&gt;Node6 -->
<g id="edge5" class="edge">
<title>Node5&#45;&gt;Node6</title>
<path fill="none" stroke="midnightblue" d="M330.72,-122.6C341.11,-124.28 352.06,-126.05 362.72,-127.77"/>
<polygon fill="midnightblue" stroke="midnightblue" points="362.4,-131.27 372.83,-129.41 363.51,-124.36 362.4,-131.27"/>
</g>
<!-- Node7 -->
<g id="node7" class="node">
<title>Node7</title>
<g id="a_node7"><a xlink:href="classcore_1_1_event_receiver.html#a1de6e48903e37b25873e8eebdd91af86" target="_top" xlink:title=" ">
<polygon fill="white" stroke="black" points="373,-74.5 373,-104.5 487,-104.5 487,-74.5 373,-74.5"/>
<text text-anchor="start" x="381" y="-92.5" font-family="Helvetica,sans-Serif" font-size="10.00">core::EventReceiver</text>
<text text-anchor="middle" x="430" y="-81.5" font-family="Helvetica,sans-Serif" font-size="10.00">::triggered</text>
</a>
</g>
</g>
<!-- Node5&#45;&gt;Node7 -->
<g id="edge6" class="edge">
<title>Node5&#45;&gt;Node7</title>
<path fill="none" stroke="midnightblue" d="M330.72,-104.77C341.11,-103.15 352.06,-101.45 362.72,-99.8"/>
<polygon fill="midnightblue" stroke="midnightblue" points="363.48,-103.22 372.83,-98.23 362.41,-96.3 363.48,-103.22"/>
</g>
</g>
</svg>
