<?xml version="1.0" encoding="UTF-8" standalone="no"?>
<!DOCTYPE svg PUBLIC "-//W3C//DTD SVG 1.1//EN"
 "http://www.w3.org/Graphics/SVG/1.1/DTD/svg11.dtd">
<!-- Generated by graphviz version 2.43.0 (0)
 -->
<!-- Title: core::DescriptorEventDispatcher::unobserveDisabledEvents Pages: 1 -->
<svg width="392pt" height="186pt"
 viewBox="0.00 0.00 392.00 186.00" xmlns="http://www.w3.org/2000/svg" xmlns:xlink="http://www.w3.org/1999/xlink">
<g id="graph0" class="graph" transform="scale(1 1) rotate(0) translate(4 182)">
<title>core::DescriptorEventDispatcher::unobserveDisabledEvents</title>
<polygon fill="white" stroke="transparent" points="-4,4 -4,-182 388,-182 388,4 -4,4"/>
<!-- Node1 -->
<g id="node1" class="node">
<title>Node1</title>
<g id="a_node1"><a xlink:title=" ">
<polygon fill="#bfbfbf" stroke="black" points="0,-73.5 0,-103.5 174,-103.5 174,-73.5 0,-73.5"/>
<text text-anchor="start" x="8" y="-91.5" font-family="Helvetica,sans-Serif" font-size="10.00">core::DescriptorEventDispatcher</text>
<text text-anchor="middle" x="87" y="-80.5" font-family="Helvetica,sans-Serif" font-size="10.00">::unobserveDisabledEvents</text>
</a>
</g>
</g>
<!-- Node2 -->
<g id="node2" class="node">
<title>Node2</title>
<g id="a_node2"><a xlink:href="classcore_1_1_descriptor_event_dispatcher.html#a1f4f559f01dd2d4fd96796c26cba0b4e" target="_top" xlink:title=" ">
<polygon fill="white" stroke="black" points="210,-147.5 210,-177.5 384,-177.5 384,-147.5 210,-147.5"/>
<text text-anchor="start" x="218" y="-165.5" font-family="Helvetica,sans-Serif" font-size="10.00">core::DescriptorEventDispatcher</text>
<text text-anchor="middle" x="297" y="-154.5" font-family="Helvetica,sans-Serif" font-size="10.00">::finishTick</text>
</a>
</g>
</g>
<!-- Node1&#45;&gt;Node2 -->
<g id="edge1" class="edge">
<title>Node1&#45;&gt;Node2</title>
<path fill="none" stroke="midnightblue" d="M121.78,-103.59C146.04,-114.12 179.69,-128.1 210,-138.5 215.97,-140.55 222.21,-142.55 228.49,-144.47"/>
<polygon fill="midnightblue" stroke="midnightblue" points="227.77,-147.91 238.35,-147.42 229.77,-141.2 227.77,-147.91"/>
</g>
<!-- Node3 -->
<g id="node3" class="node">
<title>Node3</title>
<g id="a_node3"><a xlink:href="classcore_1_1_descriptor_event_dispatcher.html#a3e187799f02a251dff7525a1b356604f" target="_top" xlink:title=" ">
<polygon fill="white" stroke="black" points="210,-98.5 210,-128.5 384,-128.5 384,-98.5 210,-98.5"/>
<text text-anchor="start" x="218" y="-116.5" font-family="Helvetica,sans-Serif" font-size="10.00">core::DescriptorEventDispatcher</text>
<text text-anchor="middle" x="297" y="-105.5" font-family="Helvetica,sans-Serif" font-size="10.00">::modDel</text>
</a>
</g>
</g>
<!-- Node1&#45;&gt;Node3 -->
<g id="edge2" class="edge">
<title>Node1&#45;&gt;Node3</title>
<path fill="none" stroke="midnightblue" d="M174.1,-98.85C182.62,-99.87 191.3,-100.92 199.91,-101.95"/>
<polygon fill="midnightblue" stroke="midnightblue" points="199.62,-105.44 209.96,-103.16 200.45,-98.49 199.62,-105.44"/>
</g>
<!-- Node4 -->
<g id="node4" class="node">
<title>Node4</title>
<g id="a_node4"><a xlink:href="classcore_1_1_descriptor_event_dispatcher.html#adea584c2b0119033735c5013f4a0b424" target="_top" xlink:title=" ">
<polygon fill="white" stroke="black" points="210,-49.5 210,-79.5 384,-79.5 384,-49.5 210,-49.5"/>
<text text-anchor="start" x="218" y="-67.5" font-family="Helvetica,sans-Serif" font-size="10.00">core::DescriptorEventDispatcher</text>
<text text-anchor="middle" x="297" y="-56.5" font-family="Helvetica,sans-Serif" font-size="10.00">::modOff</text>
</a>
</g>
</g>
<!-- Node1&#45;&gt;Node4 -->
<g id="edge3" class="edge">
<title>Node1&#45;&gt;Node4</title>
<path fill="none" stroke="midnightblue" d="M174.1,-78.57C182.62,-77.58 191.3,-76.58 199.91,-75.59"/>
<polygon fill="midnightblue" stroke="midnightblue" points="200.43,-79.05 209.96,-74.43 199.63,-72.1 200.43,-79.05"/>
</g>
<!-- Node5 -->
<g id="node5" class="node">
<title>Node5</title>
<g id="a_node5"><a xlink:href="classcore_1_1_descriptor_event_dispatcher.html#a830cd698abb070a4c7f5948d8c03f527" target="_top" xlink:title=" ">
<polygon fill="white" stroke="black" points="210,-0.5 210,-30.5 384,-30.5 384,-0.5 210,-0.5"/>
<text text-anchor="start" x="218" y="-18.5" font-family="Helvetica,sans-Serif" font-size="10.00">core::DescriptorEventDispatcher</text>
<text text-anchor="middle" x="297" y="-7.5" font-family="Helvetica,sans-Serif" font-size="10.00">::modOn</text>
</a>
</g>
</g>
<!-- Node1&#45;&gt;Node5 -->
<g id="edge4" class="edge">
<title>Node1&#45;&gt;Node5</title>
<path fill="none" stroke="midnightblue" d="M123.71,-73.45C147.86,-63.51 180.6,-50.53 210,-40.5 216.88,-38.15 224.11,-35.83 231.35,-33.6"/>
<polygon fill="midnightblue" stroke="midnightblue" points="232.61,-36.87 241.17,-30.62 230.58,-30.17 232.61,-36.87"/>
</g>
</g>
</svg>
