<?xml version="1.0" encoding="UTF-8" standalone="no"?>
<!DOCTYPE svg PUBLIC "-//W3C//DTD SVG 1.1//EN"
 "http://www.w3.org/Graphics/SVG/1.1/DTD/svg11.dtd">
<!-- Generated by graphviz version 2.43.0 (0)
 -->
<!-- Title: core::TimerEventPublisher::remove Pages: 1 -->
<svg width="1167pt" height="189pt"
 viewBox="0.00 0.00 1167.00 189.00" xmlns="http://www.w3.org/2000/svg" xmlns:xlink="http://www.w3.org/1999/xlink">
<g id="graph0" class="graph" transform="scale(1 1) rotate(0) translate(4 185)">
<title>core::TimerEventPublisher::remove</title>
<polygon fill="white" stroke="transparent" points="-4,4 -4,-185 1163,-185 1163,4 -4,4"/>
<!-- Node1 -->
<g id="node1" class="node">
<title>Node1</title>
<g id="a_node1"><a xlink:title=" ">
<polygon fill="#bfbfbf" stroke="black" points="1015,-87 1015,-117 1159,-117 1159,-87 1015,-87"/>
<text text-anchor="start" x="1023" y="-105" font-family="Helvetica,sans-Serif" font-size="10.00">core::TimerEventPublisher</text>
<text text-anchor="middle" x="1087" y="-94" font-family="Helvetica,sans-Serif" font-size="10.00">::remove</text>
</a>
</g>
</g>
<!-- Node2 -->
<g id="node2" class="node">
<title>Node2</title>
<g id="a_node2"><a xlink:href="classcore_1_1_timer_event_receiver.html#ae4772b0cd2211c02e4ec10432368395a" target="_top" xlink:title=" ">
<polygon fill="white" stroke="black" points="836,-112 836,-142 978,-142 978,-112 836,-112"/>
<text text-anchor="start" x="844" y="-130" font-family="Helvetica,sans-Serif" font-size="10.00">core::TimerEventReceiver</text>
<text text-anchor="middle" x="907" y="-119" font-family="Helvetica,sans-Serif" font-size="10.00">::cancel</text>
</a>
</g>
</g>
<!-- Node1&#45;&gt;Node2 -->
<g id="edge1" class="edge">
<title>Node1&#45;&gt;Node2</title>
<path fill="none" stroke="midnightblue" d="M1004.87,-113.39C995.94,-114.65 986.91,-115.92 978.13,-117.15"/>
<polygon fill="midnightblue" stroke="midnightblue" points="1005.47,-116.85 1014.88,-111.99 1004.49,-109.91 1005.47,-116.85"/>
</g>
<!-- Node5 -->
<g id="node5" class="node">
<title>Node5</title>
<g id="a_node5"><a xlink:href="classcore_1_1_timer_event_publisher.html#a78db35b8164a8dd0ca09eff66be33d67" target="_top" xlink:title=" ">
<polygon fill="white" stroke="black" points="835,-63 835,-93 979,-93 979,-63 835,-63"/>
<text text-anchor="start" x="843" y="-81" font-family="Helvetica,sans-Serif" font-size="10.00">core::TimerEventPublisher</text>
<text text-anchor="middle" x="907" y="-70" font-family="Helvetica,sans-Serif" font-size="10.00">::stop</text>
</a>
</g>
</g>
<!-- Node1&#45;&gt;Node5 -->
<g id="edge4" class="edge">
<title>Node1&#45;&gt;Node5</title>
<path fill="none" stroke="midnightblue" d="M1004.83,-91.06C996.21,-89.89 987.49,-88.72 979,-87.57"/>
<polygon fill="midnightblue" stroke="midnightblue" points="1004.5,-94.54 1014.88,-92.41 1005.44,-87.61 1004.5,-94.54"/>
</g>
<!-- Node3 -->
<g id="node3" class="node">
<title>Node3</title>
<g id="a_node3"><a xlink:href="classcore_1_1_timer.html#a70f46820601c0dcf32d594f4ba4d41d3" target="_top" xlink:title=" ">
<polygon fill="white" stroke="black" points="667,-161.5 667,-180.5 776,-180.5 776,-161.5 667,-161.5"/>
<text text-anchor="middle" x="721.5" y="-168.5" font-family="Helvetica,sans-Serif" font-size="10.00">core::Timer::cancel</text>
</a>
</g>
</g>
<!-- Node2&#45;&gt;Node3 -->
<g id="edge2" class="edge">
<title>Node2&#45;&gt;Node3</title>
<path fill="none" stroke="midnightblue" d="M833.45,-144.4C809.16,-150.22 782.99,-156.5 762.17,-161.49"/>
<polygon fill="midnightblue" stroke="midnightblue" points="834.45,-147.75 843.36,-142.02 832.82,-140.95 834.45,-147.75"/>
</g>
<!-- Node4 -->
<g id="node4" class="node">
<title>Node4</title>
<g id="a_node4"><a xlink:href="classcore_1_1timer_1_1_singleshot_timer.html#ac295163335c73b76eda6701e7bdc6560" target="_top" xlink:title=" ">
<polygon fill="white" stroke="black" points="644,-112 644,-142 799,-142 799,-112 644,-112"/>
<text text-anchor="start" x="652" y="-130" font-family="Helvetica,sans-Serif" font-size="10.00">core::timer::SingleshotTimer</text>
<text text-anchor="middle" x="721.5" y="-119" font-family="Helvetica,sans-Serif" font-size="10.00">::dispatchEvent</text>
</a>
</g>
</g>
<!-- Node2&#45;&gt;Node4 -->
<g id="edge3" class="edge">
<title>Node2&#45;&gt;Node4</title>
<path fill="none" stroke="midnightblue" d="M825.58,-127C816.76,-127 807.8,-127 799.04,-127"/>
<polygon fill="midnightblue" stroke="midnightblue" points="825.84,-130.5 835.84,-127 825.84,-123.5 825.84,-130.5"/>
</g>
<!-- Node6 -->
<g id="node6" class="node">
<title>Node6</title>
<g id="a_node6"><a xlink:href="classcore_1_1_event_multiplexer.html#a56149f93e86262641e94e42d8d5b9a2b" target="_top" xlink:title=" ">
<polygon fill="white" stroke="black" points="658,-63 658,-93 785,-93 785,-63 658,-63"/>
<text text-anchor="start" x="666" y="-81" font-family="Helvetica,sans-Serif" font-size="10.00">core::EventMultiplexer</text>
<text text-anchor="middle" x="721.5" y="-70" font-family="Helvetica,sans-Serif" font-size="10.00">::stop</text>
</a>
</g>
</g>
<!-- Node5&#45;&gt;Node6 -->
<g id="edge5" class="edge">
<title>Node5&#45;&gt;Node6</title>
<path fill="none" stroke="midnightblue" d="M824.69,-78C811.38,-78 797.77,-78 785.01,-78"/>
<polygon fill="midnightblue" stroke="midnightblue" points="824.79,-81.5 834.79,-78 824.79,-74.5 824.79,-81.5"/>
</g>
<!-- Node7 -->
<g id="node7" class="node">
<title>Node7</title>
<g id="a_node7"><a xlink:href="classcore_1_1_event_multiplexer.html#ad8ae4c5a75053b30ac7abfa2cf87a179" target="_top" xlink:title=" ">
<polygon fill="white" stroke="black" points="658,-14 658,-44 785,-44 785,-14 658,-14"/>
<text text-anchor="start" x="666" y="-32" font-family="Helvetica,sans-Serif" font-size="10.00">core::EventMultiplexer</text>
<text text-anchor="middle" x="721.5" y="-21" font-family="Helvetica,sans-Serif" font-size="10.00">::stopTimerEvents</text>
</a>
</g>
</g>
<!-- Node5&#45;&gt;Node7 -->
<g id="edge6" class="edge">
<title>Node5&#45;&gt;Node7</title>
<path fill="none" stroke="midnightblue" d="M840,-60.38C819.93,-55.02 798.06,-49.18 778.7,-44.01"/>
<polygon fill="midnightblue" stroke="midnightblue" points="839.13,-63.77 849.7,-62.97 840.94,-57 839.13,-63.77"/>
</g>
<!-- Node8 -->
<g id="node8" class="node">
<title>Node8</title>
<g id="a_node8"><a xlink:href="classcore_1_1_event_loop.html#a3125b6361565df4753affc73eb83984a" target="_top" xlink:title=" ">
<polygon fill="white" stroke="black" points="488,-19.5 488,-38.5 608,-38.5 608,-19.5 488,-19.5"/>
<text text-anchor="middle" x="548" y="-26.5" font-family="Helvetica,sans-Serif" font-size="10.00">core::EventLoop::free</text>
</a>
</g>
</g>
<!-- Node7&#45;&gt;Node8 -->
<g id="edge7" class="edge">
<title>Node7&#45;&gt;Node8</title>
<path fill="none" stroke="midnightblue" d="M647.26,-29C634.21,-29 620.77,-29 608.17,-29"/>
<polygon fill="midnightblue" stroke="midnightblue" points="647.61,-32.5 657.61,-29 647.61,-25.5 647.61,-32.5"/>
</g>
<!-- Node9 -->
<g id="node9" class="node">
<title>Node9</title>
<g id="a_node9"><a xlink:href="classcore_1_1_s_node_c.html#a723f1f8e484db32164adeca1fbf98e28" target="_top" xlink:title=" ">
<polygon fill="white" stroke="black" points="337,-38.5 337,-57.5 444,-57.5 444,-38.5 337,-38.5"/>
<text text-anchor="middle" x="390.5" y="-45.5" font-family="Helvetica,sans-Serif" font-size="10.00">core::SNodeC::free</text>
</a>
</g>
</g>
<!-- Node8&#45;&gt;Node9 -->
<g id="edge8" class="edge">
<title>Node8&#45;&gt;Node9</title>
<path fill="none" stroke="midnightblue" d="M477.57,-37.48C466.37,-38.85 454.93,-40.25 444.2,-41.56"/>
<polygon fill="midnightblue" stroke="midnightblue" points="478.27,-40.92 487.77,-36.24 477.42,-33.98 478.27,-40.92"/>
</g>
<!-- Node11 -->
<g id="node11" class="node">
<title>Node11</title>
<g id="a_node11"><a xlink:href="classcore_1_1_event_loop.html#aaa2c3856fed808d00542d573c2b3a737" target="_top" xlink:title=" ">
<polygon fill="white" stroke="black" points="329,-0.5 329,-19.5 452,-19.5 452,-0.5 329,-0.5"/>
<text text-anchor="middle" x="390.5" y="-7.5" font-family="Helvetica,sans-Serif" font-size="10.00">core::EventLoop::start</text>
</a>
</g>
</g>
<!-- Node8&#45;&gt;Node11 -->
<g id="edge10" class="edge">
<title>Node8&#45;&gt;Node11</title>
<path fill="none" stroke="midnightblue" d="M477.8,-20.55C469.24,-19.5 460.54,-18.44 452.11,-17.41"/>
<polygon fill="midnightblue" stroke="midnightblue" points="477.42,-24.02 487.77,-21.76 478.27,-17.08 477.42,-24.02"/>
</g>
<!-- Node10 -->
<g id="node10" class="node">
<title>Node10</title>
<g id="a_node10"><a xlink:href="classexpress_1_1_web_app.html#a07c26842d227b81ee32b9b26a94cae1b" target="_top" xlink:title=" ">
<polygon fill="white" stroke="black" points="166,-38.5 166,-57.5 293,-57.5 293,-38.5 166,-38.5"/>
<text text-anchor="middle" x="229.5" y="-45.5" font-family="Helvetica,sans-Serif" font-size="10.00">express::WebApp::free</text>
</a>
</g>
</g>
<!-- Node9&#45;&gt;Node10 -->
<g id="edge9" class="edge">
<title>Node9&#45;&gt;Node10</title>
<path fill="none" stroke="midnightblue" d="M326.96,-48C315.85,-48 304.28,-48 293.18,-48"/>
<polygon fill="midnightblue" stroke="midnightblue" points="327,-51.5 337,-48 327,-44.5 327,-51.5"/>
</g>
<!-- Node12 -->
<g id="node12" class="node">
<title>Node12</title>
<g id="a_node12"><a xlink:href="classcore_1_1_s_node_c.html#ac3d0dcb6c216ae72d9bbb77fe080e461" target="_top" xlink:title=" ">
<polygon fill="white" stroke="black" points="174.5,-0.5 174.5,-19.5 284.5,-19.5 284.5,-0.5 174.5,-0.5"/>
<text text-anchor="middle" x="229.5" y="-7.5" font-family="Helvetica,sans-Serif" font-size="10.00">core::SNodeC::start</text>
</a>
</g>
</g>
<!-- Node11&#45;&gt;Node12 -->
<g id="edge11" class="edge">
<title>Node11&#45;&gt;Node12</title>
<path fill="none" stroke="midnightblue" d="M318.92,-10C307.42,-10 295.67,-10 284.64,-10"/>
<polygon fill="midnightblue" stroke="midnightblue" points="318.94,-13.5 328.94,-10 318.94,-6.5 318.94,-13.5"/>
</g>
<!-- Node13 -->
<g id="node13" class="node">
<title>Node13</title>
<g id="a_node13"><a xlink:href="classexpress_1_1_web_app.html#a54e6910c9466c61d0b217490b7d9bb5a" target="_top" xlink:title=" ">
<polygon fill="white" stroke="black" points="0,-0.5 0,-19.5 130,-19.5 130,-0.5 0,-0.5"/>
<text text-anchor="middle" x="65" y="-7.5" font-family="Helvetica,sans-Serif" font-size="10.00">express::WebApp::start</text>
</a>
</g>
</g>
<!-- Node12&#45;&gt;Node13 -->
<g id="edge12" class="edge">
<title>Node12&#45;&gt;Node13</title>
<path fill="none" stroke="midnightblue" d="M164.21,-10C152.96,-10 141.26,-10 130.02,-10"/>
<polygon fill="midnightblue" stroke="midnightblue" points="164.39,-13.5 174.39,-10 164.39,-6.5 164.39,-13.5"/>
</g>
</g>
</svg>
