<?xml version="1.0" encoding="UTF-8" standalone="no"?>
<!DOCTYPE svg PUBLIC "-//W3C//DTD SVG 1.1//EN"
 "http://www.w3.org/Graphics/SVG/1.1/DTD/svg11.dtd">
<!-- Generated by graphviz version 2.43.0 (0)
 -->
<!-- Title: net::rf::stream::ServerSocket Pages: 1 -->
<svg width="201pt" height="387pt"
 viewBox="0.00 0.00 200.50 387.00" xmlns="http://www.w3.org/2000/svg" xmlns:xlink="http://www.w3.org/1999/xlink">
<g id="graph0" class="graph" transform="scale(1 1) rotate(0) translate(4 383)">
<title>net::rf::stream::ServerSocket</title>
<polygon fill="white" stroke="transparent" points="-4,4 -4,-383 196.5,-383 196.5,4 -4,4"/>
<!-- Node1 -->
<g id="node1" class="node">
<title>Node1</title>
<g id="a_node1"><a xlink:title=" ">
<polygon fill="#bfbfbf" stroke="black" points="7,-0.5 7,-79.5 162,-79.5 162,-0.5 7,-0.5"/>
<text text-anchor="middle" x="84.5" y="-67.5" font-family="Helvetica,sans-Serif" font-size="10.00">net::rf::stream::ServerSocket</text>
<polyline fill="none" stroke="black" points="7,-60.5 162,-60.5 "/>
<text text-anchor="middle" x="84.5" y="-48.5" font-family="Helvetica,sans-Serif" font-size="10.00"> </text>
<polyline fill="none" stroke="black" points="7,-41.5 162,-41.5 "/>
<text text-anchor="start" x="15" y="-29.5" font-family="Helvetica,sans-Serif" font-size="10.00">+ listen()</text>
<text text-anchor="start" x="15" y="-18.5" font-family="Helvetica,sans-Serif" font-size="10.00">+ listen()</text>
<text text-anchor="start" x="15" y="-7.5" font-family="Helvetica,sans-Serif" font-size="10.00">+ listen()</text>
</a>
</g>
</g>
<!-- Node2 -->
<g id="node2" class="node">
<title>Node2</title>
<g id="a_node2"><a xlink:href="classcore_1_1socket_1_1_server_socket.html" target="_top" xlink:title=" ">
<polygon fill="white" stroke="black" points="0,-117.5 0,-218.5 169,-218.5 169,-117.5 0,-117.5"/>
<text text-anchor="start" x="8" y="-206.5" font-family="Helvetica,sans-Serif" font-size="10.00">core::socket::ServerSocket</text>
<text text-anchor="start" x="8" y="-195.5" font-family="Helvetica,sans-Serif" font-size="10.00">&lt; net::rf::stream::Socket,</text>
<text text-anchor="middle" x="84.5" y="-184.5" font-family="Helvetica,sans-Serif" font-size="10.00"> net::rf::stream::ServerConfig &gt;</text>
<polyline fill="none" stroke="black" points="0,-177.5 169,-177.5 "/>
<text text-anchor="middle" x="84.5" y="-165.5" font-family="Helvetica,sans-Serif" font-size="10.00"> </text>
<polyline fill="none" stroke="black" points="0,-158.5 169,-158.5 "/>
<text text-anchor="start" x="8" y="-146.5" font-family="Helvetica,sans-Serif" font-size="10.00">+ listen()</text>
<text text-anchor="start" x="8" y="-135.5" font-family="Helvetica,sans-Serif" font-size="10.00">+ listen()</text>
<text text-anchor="start" x="8" y="-124.5" font-family="Helvetica,sans-Serif" font-size="10.00"># ServerSocket()</text>
</a>
</g>
</g>
<!-- Node2&#45;&gt;Node1 -->
<g id="edge1" class="edge">
<title>Node2&#45;&gt;Node1</title>
<path fill="none" stroke="midnightblue" d="M84.5,-107.11C84.5,-97.74 84.5,-88.28 84.5,-79.56"/>
<polygon fill="none" stroke="midnightblue" points="81,-107.2 84.5,-117.2 88,-107.2 81,-107.2"/>
</g>
<!-- Node3 -->
<g id="node3" class="node">
<title>Node3</title>
<g id="a_node3"><a xlink:href="classcore_1_1socket_1_1_server_socket.html" target="_top" xlink:title=" ">
<polygon fill="white" stroke="black" points="8.5,-288.5 8.5,-378.5 160.5,-378.5 160.5,-288.5 8.5,-288.5"/>
<text text-anchor="start" x="16.5" y="-366.5" font-family="Helvetica,sans-Serif" font-size="10.00">core::socket::ServerSocket</text>
<text text-anchor="middle" x="84.5" y="-355.5" font-family="Helvetica,sans-Serif" font-size="10.00">&lt; SocketT, ServerConfigT &gt;</text>
<polyline fill="none" stroke="black" points="8.5,-348.5 160.5,-348.5 "/>
<text text-anchor="middle" x="84.5" y="-336.5" font-family="Helvetica,sans-Serif" font-size="10.00"> </text>
<polyline fill="none" stroke="black" points="8.5,-329.5 160.5,-329.5 "/>
<text text-anchor="start" x="16.5" y="-317.5" font-family="Helvetica,sans-Serif" font-size="10.00">+ listen()</text>
<text text-anchor="start" x="16.5" y="-306.5" font-family="Helvetica,sans-Serif" font-size="10.00">+ listen()</text>
<text text-anchor="start" x="16.5" y="-295.5" font-family="Helvetica,sans-Serif" font-size="10.00"># ServerSocket()</text>
</a>
</g>
</g>
<!-- Node3&#45;&gt;Node2 -->
<g id="edge2" class="edge">
<title>Node3&#45;&gt;Node2</title>
<path fill="none" stroke="orange" d="M84.5,-278.16C84.5,-258.99 84.5,-237.54 84.5,-218.76"/>
<polygon fill="orange" stroke="orange" points="81,-278.25 84.5,-288.25 88,-278.25 81,-278.25"/>
<text text-anchor="start" x="84.5" y="-262" font-family="Helvetica,sans-Serif" font-size="10.00"> &lt; net::rf::stream::</text>
<text text-anchor="start" x="84.5" y="-251" font-family="Helvetica,sans-Serif" font-size="10.00">Socket, net::rf::stream</text>
<text text-anchor="middle" x="138.5" y="-240" font-family="Helvetica,sans-Serif" font-size="10.00">::ServerConfig &gt;</text>
</g>
</g>
</svg>
