<?xml version="1.0" encoding="UTF-8" standalone="no"?>
<!DOCTYPE svg PUBLIC "-//W3C//DTD SVG 1.1//EN"
 "http://www.w3.org/Graphics/SVG/1.1/DTD/svg11.dtd">
<!-- Generated by graphviz version 2.43.0 (0)
 -->
<!-- Title: core::DescriptorEventReceiver::suspend Pages: 1 -->
<svg width="788pt" height="796pt"
 viewBox="0.00 0.00 788.00 795.50" xmlns="http://www.w3.org/2000/svg" xmlns:xlink="http://www.w3.org/1999/xlink">
<g id="graph0" class="graph" transform="scale(1 1) rotate(0) translate(4 791.5)">
<title>core::DescriptorEventReceiver::suspend</title>
<polygon fill="white" stroke="transparent" points="-4,4 -4,-791.5 784,-791.5 784,4 -4,4"/>
<!-- Node1 -->
<g id="node1" class="node">
<title>Node1</title>
<g id="a_node1"><a xlink:title=" ">
<polygon fill="#bfbfbf" stroke="black" points="616,-93 616,-123 780,-123 780,-93 616,-93"/>
<text text-anchor="start" x="624" y="-111" font-family="Helvetica,sans-Serif" font-size="10.00">core::DescriptorEventReceiver</text>
<text text-anchor="middle" x="698" y="-100" font-family="Helvetica,sans-Serif" font-size="10.00">::suspend</text>
</a>
</g>
</g>
<!-- Node2 -->
<g id="node2" class="node">
<title>Node2</title>
<g id="a_node2"><a xlink:href="classcore_1_1_descriptor_event_receiver.html#a4ab422ce6622a29cee38a0108ee6ccc1" target="_top" xlink:title=" ">
<polygon fill="white" stroke="black" points="416,-399 416,-429 580,-429 580,-399 416,-399"/>
<text text-anchor="start" x="424" y="-417" font-family="Helvetica,sans-Serif" font-size="10.00">core::DescriptorEventReceiver</text>
<text text-anchor="middle" x="498" y="-406" font-family="Helvetica,sans-Serif" font-size="10.00">::disable</text>
</a>
</g>
</g>
<!-- Node1&#45;&gt;Node2 -->
<g id="edge1" class="edge">
<title>Node1&#45;&gt;Node2</title>
<path fill="none" stroke="midnightblue" d="M681.71,-131.63C642.84,-191.71 541.03,-349.05 508.88,-398.73"/>
<polygon fill="midnightblue" stroke="midnightblue" points="684.69,-133.47 687.18,-123.17 678.81,-129.67 684.69,-133.47"/>
</g>
<!-- Node6 -->
<g id="node6" class="node">
<title>Node6</title>
<g id="a_node6"><a xlink:href="classcore_1_1socket_1_1stream_1_1tls_1_1_socket_connection.html#a546ab67c528548eaed69277c29a86412" target="_top" xlink:title=" ">
<polygon fill="white" stroke="black" points="20,-112.5 20,-153.5 148,-153.5 148,-112.5 20,-112.5"/>
<text text-anchor="start" x="28" y="-141.5" font-family="Helvetica,sans-Serif" font-size="10.00">core::socket::stream</text>
<text text-anchor="start" x="28" y="-130.5" font-family="Helvetica,sans-Serif" font-size="10.00">::tls::SocketConnection</text>
<text text-anchor="middle" x="84" y="-119.5" font-family="Helvetica,sans-Serif" font-size="10.00">::doSSLHandshake</text>
</a>
</g>
</g>
<!-- Node1&#45;&gt;Node6 -->
<g id="edge25" class="edge">
<title>Node1&#45;&gt;Node6</title>
<path fill="none" stroke="midnightblue" d="M605.59,-111.2C506.61,-114.74 344.08,-120.77 204,-127 185.92,-127.8 166.29,-128.76 148.3,-129.67"/>
<polygon fill="midnightblue" stroke="midnightblue" points="605.99,-114.69 615.86,-110.83 605.74,-107.69 605.99,-114.69"/>
</g>
<!-- Node11 -->
<g id="node11" class="node">
<title>Node11</title>
<g id="a_node11"><a xlink:href="classcore_1_1socket_1_1stream_1_1_socket_reader.html#a2bb6e3a9b83bb3c8fdf390f242c1ac83" target="_top" xlink:title=" ">
<polygon fill="white" stroke="black" points="226,-757 226,-787 358,-787 358,-757 226,-757"/>
<text text-anchor="start" x="234" y="-775" font-family="Helvetica,sans-Serif" font-size="10.00">core::socket::stream</text>
<text text-anchor="middle" x="292" y="-764" font-family="Helvetica,sans-Serif" font-size="10.00">::SocketReader::doRead</text>
</a>
</g>
</g>
<!-- Node1&#45;&gt;Node11 -->
<g id="edge24" class="edge">
<title>Node1&#45;&gt;Node11</title>
<path fill="none" stroke="midnightblue" d="M690.41,-132.8C675.03,-188.99 633.91,-329.6 580,-439 507.86,-585.41 511.17,-649.88 380,-747 373.43,-751.86 365.94,-755.78 358.18,-758.94"/>
<polygon fill="midnightblue" stroke="midnightblue" points="693.83,-133.59 693.06,-123.02 687.07,-131.76 693.83,-133.59"/>
</g>
<!-- Node14 -->
<g id="node14" class="node">
<title>Node14</title>
<g id="a_node14"><a xlink:href="classcore_1_1socket_1_1stream_1_1_socket_writer.html#a7cf7e0d247704957a3d606c9c5143e29" target="_top" xlink:title=" ">
<polygon fill="white" stroke="black" points="227.5,-49 227.5,-79 356.5,-79 356.5,-49 227.5,-49"/>
<text text-anchor="start" x="235.5" y="-67" font-family="Helvetica,sans-Serif" font-size="10.00">core::socket::stream</text>
<text text-anchor="middle" x="292" y="-56" font-family="Helvetica,sans-Serif" font-size="10.00">::SocketWriter::doWrite</text>
</a>
</g>
</g>
<!-- Node1&#45;&gt;Node14 -->
<g id="edge27" class="edge">
<title>Node1&#45;&gt;Node14</title>
<path fill="none" stroke="midnightblue" d="M605.66,-96.94C596.99,-95.93 588.33,-94.93 580,-94 503.2,-85.39 414.76,-76.27 356.58,-70.37"/>
<polygon fill="midnightblue" stroke="midnightblue" points="605.49,-100.44 615.83,-98.13 606.3,-93.49 605.49,-100.44"/>
</g>
<!-- Node25 -->
<g id="node25" class="node">
<title>Node25</title>
<g id="a_node25"><a xlink:href="classcore_1_1socket_1_1stream_1_1tls_1_1_socket_connection.html#a027a0630872458233920f5afb9baf071" target="_top" xlink:title=" ">
<polygon fill="white" stroke="black" points="434,-0.5 434,-41.5 562,-41.5 562,-0.5 434,-0.5"/>
<text text-anchor="start" x="442" y="-29.5" font-family="Helvetica,sans-Serif" font-size="10.00">core::socket::stream</text>
<text text-anchor="start" x="442" y="-18.5" font-family="Helvetica,sans-Serif" font-size="10.00">::tls::SocketConnection</text>
<text text-anchor="middle" x="498" y="-7.5" font-family="Helvetica,sans-Serif" font-size="10.00">::doSSLShutdown</text>
</a>
</g>
</g>
<!-- Node1&#45;&gt;Node25 -->
<g id="edge26" class="edge">
<title>Node1&#45;&gt;Node25</title>
<path fill="none" stroke="midnightblue" d="M653.82,-88.68C631.76,-78.84 604.47,-66.73 580,-56 569.34,-51.33 557.87,-46.34 547.01,-41.65"/>
<polygon fill="midnightblue" stroke="midnightblue" points="652.69,-92.01 663.25,-92.89 655.54,-85.62 652.69,-92.01"/>
</g>
<!-- Node3 -->
<g id="node3" class="node">
<title>Node3</title>
<g id="a_node3"><a xlink:href="classcore_1_1eventreceiver_1_1_accept_event_receiver.html#a0cf406f9dd90b76f2d9b7baa8ed96e87" target="_top" xlink:title=" ">
<polygon fill="white" stroke="black" points="229,-586.5 229,-627.5 355,-627.5 355,-586.5 229,-586.5"/>
<text text-anchor="start" x="237" y="-615.5" font-family="Helvetica,sans-Serif" font-size="10.00">core::eventreceiver</text>
<text text-anchor="start" x="237" y="-604.5" font-family="Helvetica,sans-Serif" font-size="10.00">::AcceptEventReceiver</text>
<text text-anchor="middle" x="292" y="-593.5" font-family="Helvetica,sans-Serif" font-size="10.00">::acceptTimeout</text>
</a>
</g>
</g>
<!-- Node2&#45;&gt;Node3 -->
<g id="edge2" class="edge">
<title>Node2&#45;&gt;Node3</title>
<path fill="none" stroke="midnightblue" d="M485.5,-438.62C467.73,-474.13 430.31,-539.53 380,-577 372.57,-582.54 364.04,-587.1 355.29,-590.86"/>
<polygon fill="midnightblue" stroke="midnightblue" points="488.74,-439.97 489.99,-429.45 482.45,-436.9 488.74,-439.97"/>
</g>
<!-- Node5 -->
<g id="node5" class="node">
<title>Node5</title>
<g id="a_node5"><a xlink:href="classcore_1_1socket_1_1stream_1_1_socket_connection.html#ab2f0c8920543bd78d837fe261340384f" target="_top" xlink:title=" ">
<polygon fill="white" stroke="black" points="221.5,-197 221.5,-227 362.5,-227 362.5,-197 221.5,-197"/>
<text text-anchor="start" x="229.5" y="-215" font-family="Helvetica,sans-Serif" font-size="10.00">core::socket::stream</text>
<text text-anchor="middle" x="292" y="-204" font-family="Helvetica,sans-Serif" font-size="10.00">::SocketConnection::close</text>
</a>
</g>
</g>
<!-- Node2&#45;&gt;Node5 -->
<g id="edge4" class="edge">
<title>Node2&#45;&gt;Node5</title>
<path fill="none" stroke="midnightblue" d="M487.42,-389.42C471.2,-351.04 434.65,-277.12 380,-237 374.68,-233.09 368.76,-229.8 362.59,-227.01"/>
<polygon fill="midnightblue" stroke="midnightblue" points="484.24,-390.9 491.28,-398.81 490.72,-388.23 484.24,-390.9"/>
</g>
<!-- Node8 -->
<g id="node8" class="node">
<title>Node8</title>
<g id="a_node8"><a xlink:href="classcore_1_1socket_1_1stream_1_1_socket_connector.html#a28792044f3cf0487a4ce2bd3e322c328" target="_top" xlink:title=" ">
<polygon fill="white" stroke="black" points="204,-427 204,-457 380,-457 380,-427 204,-427"/>
<text text-anchor="start" x="212" y="-445" font-family="Helvetica,sans-Serif" font-size="10.00">core::socket::stream</text>
<text text-anchor="middle" x="292" y="-434" font-family="Helvetica,sans-Serif" font-size="10.00">::SocketConnector::connectEvent</text>
</a>
</g>
</g>
<!-- Node2&#45;&gt;Node8 -->
<g id="edge7" class="edge">
<title>Node2&#45;&gt;Node8</title>
<path fill="none" stroke="midnightblue" d="M405.87,-426.51C397.37,-427.68 388.76,-428.86 380.3,-430.02"/>
<polygon fill="midnightblue" stroke="midnightblue" points="406.36,-429.97 415.79,-425.15 405.4,-423.04 406.36,-429.97"/>
</g>
<!-- Node9 -->
<g id="node9" class="node">
<title>Node9</title>
<g id="a_node9"><a xlink:href="classcore_1_1eventreceiver_1_1_connect_event_receiver.html#a6e1a6306ec6a7d9045a871134383c026" target="_top" xlink:title=" ">
<polygon fill="white" stroke="black" points="225.5,-476.5 225.5,-517.5 358.5,-517.5 358.5,-476.5 225.5,-476.5"/>
<text text-anchor="start" x="233.5" y="-505.5" font-family="Helvetica,sans-Serif" font-size="10.00">core::eventreceiver</text>
<text text-anchor="start" x="233.5" y="-494.5" font-family="Helvetica,sans-Serif" font-size="10.00">::ConnectEventReceiver</text>
<text text-anchor="middle" x="292" y="-483.5" font-family="Helvetica,sans-Serif" font-size="10.00">::connectTimeout</text>
</a>
</g>
</g>
<!-- Node2&#45;&gt;Node9 -->
<g id="edge8" class="edge">
<title>Node2&#45;&gt;Node9</title>
<path fill="none" stroke="midnightblue" d="M456.39,-433.52C434.06,-443.97 405.74,-456.76 380,-467 371.98,-470.19 363.48,-473.37 355.05,-476.4"/>
<polygon fill="midnightblue" stroke="midnightblue" points="458.01,-436.63 465.56,-429.21 455.02,-430.3 458.01,-436.63"/>
</g>
<!-- Node2&#45;&gt;Node11 -->
<g id="edge10" class="edge">
<title>Node2&#45;&gt;Node11</title>
<path fill="none" stroke="midnightblue" d="M485.78,-438.9C469.16,-476.38 437.62,-549.74 416,-614 396.47,-672.04 422.97,-703.36 380,-747 373.83,-753.27 366.19,-757.99 358.03,-761.55"/>
<polygon fill="midnightblue" stroke="midnightblue" points="489.18,-439.88 490.05,-429.32 482.78,-437.03 489.18,-439.88"/>
</g>
<!-- Node13 -->
<g id="node13" class="node">
<title>Node13</title>
<g id="a_node13"><a xlink:href="classcore_1_1socket_1_1stream_1_1tls_1_1_socket_connection.html#a9357593ff9cc620f8d212d1ff92e942e" target="_top" xlink:title=" ">
<polygon fill="white" stroke="black" points="228,-136.5 228,-177.5 356,-177.5 356,-136.5 228,-136.5"/>
<text text-anchor="start" x="236" y="-165.5" font-family="Helvetica,sans-Serif" font-size="10.00">core::socket::stream</text>
<text text-anchor="start" x="236" y="-154.5" font-family="Helvetica,sans-Serif" font-size="10.00">::tls::SocketConnection</text>
<text text-anchor="middle" x="292" y="-143.5" font-family="Helvetica,sans-Serif" font-size="10.00">::doReadShutdown</text>
</a>
</g>
</g>
<!-- Node2&#45;&gt;Node13 -->
<g id="edge12" class="edge">
<title>Node2&#45;&gt;Node13</title>
<path fill="none" stroke="midnightblue" d="M490.8,-389.01C478.01,-342.59 444.38,-242.72 380,-187 372.99,-180.94 364.7,-176.08 356.05,-172.19"/>
<polygon fill="midnightblue" stroke="midnightblue" points="487.46,-390.07 493.41,-398.84 494.22,-388.27 487.46,-390.07"/>
</g>
<!-- Node2&#45;&gt;Node14 -->
<g id="edge13" class="edge">
<title>Node2&#45;&gt;Node14</title>
<path fill="none" stroke="midnightblue" d="M491.73,-388.9C479.59,-335.89 445.59,-210.55 380,-127 364.22,-106.9 340.42,-90.27 321.69,-79.16"/>
<polygon fill="midnightblue" stroke="midnightblue" points="488.34,-389.79 493.92,-398.79 495.17,-388.27 488.34,-389.79"/>
</g>
<!-- Node16 -->
<g id="node16" class="node">
<title>Node16</title>
<g id="a_node16"><a xlink:href="classcore_1_1eventreceiver_1_1_exceptional_condition_event_receiver.html#a55cd4bbf27a064f65c579c5068d6f2bd" target="_top" xlink:title=" ">
<polygon fill="white" stroke="black" points="213.5,-306.5 213.5,-347.5 370.5,-347.5 370.5,-306.5 213.5,-306.5"/>
<text text-anchor="start" x="221.5" y="-335.5" font-family="Helvetica,sans-Serif" font-size="10.00">core::eventreceiver</text>
<text text-anchor="start" x="221.5" y="-324.5" font-family="Helvetica,sans-Serif" font-size="10.00">::ExceptionalConditionEvent</text>
<text text-anchor="middle" x="292" y="-313.5" font-family="Helvetica,sans-Serif" font-size="10.00">Receiver::outOfBandTimeout</text>
</a>
</g>
</g>
<!-- Node2&#45;&gt;Node16 -->
<g id="edge15" class="edge">
<title>Node2&#45;&gt;Node16</title>
<path fill="none" stroke="midnightblue" d="M459.63,-394.36C436.92,-382.78 407.15,-368.25 380,-357 372.18,-353.76 363.86,-350.57 355.6,-347.56"/>
<polygon fill="midnightblue" stroke="midnightblue" points="458.1,-397.5 468.6,-398.96 461.3,-391.28 458.1,-397.5"/>
</g>
<!-- Node18 -->
<g id="node18" class="node">
<title>Node18</title>
<g id="a_node18"><a xlink:href="classcore_1_1eventreceiver_1_1_read_event_receiver.html#a200fd809003fdd94839f07aaec13a144" target="_top" xlink:title=" ">
<polygon fill="white" stroke="black" points="233,-246.5 233,-287.5 351,-287.5 351,-246.5 233,-246.5"/>
<text text-anchor="start" x="241" y="-275.5" font-family="Helvetica,sans-Serif" font-size="10.00">core::eventreceiver</text>
<text text-anchor="start" x="241" y="-264.5" font-family="Helvetica,sans-Serif" font-size="10.00">::ReadEventReceiver</text>
<text text-anchor="middle" x="292" y="-253.5" font-family="Helvetica,sans-Serif" font-size="10.00">::readTimeout</text>
</a>
</g>
</g>
<!-- Node2&#45;&gt;Node18 -->
<g id="edge17" class="edge">
<title>Node2&#45;&gt;Node18</title>
<path fill="none" stroke="midnightblue" d="M479.47,-391.02C458.45,-364.89 420.88,-322.56 380,-297 371.19,-291.49 361.25,-286.85 351.32,-282.99"/>
<polygon fill="midnightblue" stroke="midnightblue" points="476.75,-393.22 485.7,-398.89 482.24,-388.88 476.75,-393.22"/>
</g>
<!-- Node20 -->
<g id="node20" class="node">
<title>Node20</title>
<g id="a_node20"><a xlink:href="classcore_1_1socket_1_1stream_1_1_socket_connection.html#a645385848a618f16a8492c05ba5dfc5a" target="_top" xlink:title=" ">
<polygon fill="white" stroke="black" points="210.5,-696.5 210.5,-737.5 373.5,-737.5 373.5,-696.5 210.5,-696.5"/>
<text text-anchor="start" x="218.5" y="-725.5" font-family="Helvetica,sans-Serif" font-size="10.00">core::socket::stream</text>
<text text-anchor="start" x="218.5" y="-714.5" font-family="Helvetica,sans-Serif" font-size="10.00">::SocketConnection::shutdown</text>
<text text-anchor="middle" x="292" y="-703.5" font-family="Helvetica,sans-Serif" font-size="10.00">Write</text>
</a>
</g>
</g>
<!-- Node2&#45;&gt;Node20 -->
<g id="edge19" class="edge">
<title>Node2&#45;&gt;Node20</title>
<path fill="none" stroke="midnightblue" d="M487.01,-438.79C460.51,-504.35 389.79,-677.9 380,-687 376.26,-690.48 372.09,-693.56 367.66,-696.28"/>
<polygon fill="midnightblue" stroke="midnightblue" points="490.37,-439.82 490.87,-429.24 483.88,-437.2 490.37,-439.82"/>
</g>
<!-- Node21 -->
<g id="node21" class="node">
<title>Node21</title>
<g id="a_node21"><a xlink:href="classcore_1_1_descriptor_event_receiver.html#a89834bfd8d8f74d4570c45838239eeb8" target="_top" xlink:title=" ">
<polygon fill="white" stroke="black" points="210,-647 210,-677 374,-677 374,-647 210,-647"/>
<text text-anchor="start" x="218" y="-665" font-family="Helvetica,sans-Serif" font-size="10.00">core::DescriptorEventReceiver</text>
<text text-anchor="middle" x="292" y="-654" font-family="Helvetica,sans-Serif" font-size="10.00">::terminate</text>
</a>
</g>
</g>
<!-- Node2&#45;&gt;Node21 -->
<g id="edge20" class="edge">
<title>Node2&#45;&gt;Node21</title>
<path fill="none" stroke="midnightblue" d="M490.93,-438.87C478.36,-485.01 445.09,-583.96 380,-637 375.25,-640.87 369.93,-644.14 364.32,-646.91"/>
<polygon fill="midnightblue" stroke="midnightblue" points="494.34,-439.66 493.49,-429.1 487.57,-437.88 494.34,-439.66"/>
</g>
<!-- Node22 -->
<g id="node22" class="node">
<title>Node22</title>
<g id="a_node22"><a xlink:href="classcore_1_1socket_1_1stream_1_1_socket_writer.html#a3ad452718fe51eb997addacda7eb03fb" target="_top" xlink:title=" ">
<polygon fill="white" stroke="black" points="222.5,-537 222.5,-567 361.5,-567 361.5,-537 222.5,-537"/>
<text text-anchor="start" x="230.5" y="-555" font-family="Helvetica,sans-Serif" font-size="10.00">core::socket::stream</text>
<text text-anchor="middle" x="292" y="-544" font-family="Helvetica,sans-Serif" font-size="10.00">::SocketWriter::terminate</text>
</a>
</g>
</g>
<!-- Node2&#45;&gt;Node22 -->
<g id="edge21" class="edge">
<title>Node2&#45;&gt;Node22</title>
<path fill="none" stroke="midnightblue" d="M478.92,-437.29C457.83,-462.89 420.64,-503.52 380,-527 373.33,-530.85 366.03,-534.15 358.58,-536.95"/>
<polygon fill="midnightblue" stroke="midnightblue" points="481.87,-439.2 485.43,-429.22 476.42,-434.8 481.87,-439.2"/>
</g>
<!-- Node23 -->
<g id="node23" class="node">
<title>Node23</title>
<g id="a_node23"><a xlink:href="classcore_1_1eventreceiver_1_1_write_event_receiver.html#a1e1766d1ad2740f6f6bb915a7676cb08" target="_top" xlink:title=" ">
<polygon fill="white" stroke="black" points="232.5,-366.5 232.5,-407.5 351.5,-407.5 351.5,-366.5 232.5,-366.5"/>
<text text-anchor="start" x="240.5" y="-395.5" font-family="Helvetica,sans-Serif" font-size="10.00">core::eventreceiver</text>
<text text-anchor="start" x="240.5" y="-384.5" font-family="Helvetica,sans-Serif" font-size="10.00">::WriteEventReceiver</text>
<text text-anchor="middle" x="292" y="-373.5" font-family="Helvetica,sans-Serif" font-size="10.00">::writeTimeout</text>
</a>
</g>
</g>
<!-- Node2&#45;&gt;Node23 -->
<g id="edge22" class="edge">
<title>Node2&#45;&gt;Node23</title>
<path fill="none" stroke="midnightblue" d="M405.66,-401.91C387.31,-399.48 368.49,-396.99 351.63,-394.76"/>
<polygon fill="midnightblue" stroke="midnightblue" points="405.41,-405.41 415.79,-403.25 406.33,-398.47 405.41,-405.41"/>
</g>
<!-- Node4 -->
<g id="node4" class="node">
<title>Node4</title>
<g id="a_node4"><a xlink:href="classcore_1_1eventreceiver_1_1_accept_event_receiver.html#aad868d5d04dbbd49ebdb19ffcc9a3f05" target="_top" xlink:title=" ">
<polygon fill="white" stroke="black" points="21,-586.5 21,-627.5 147,-627.5 147,-586.5 21,-586.5"/>
<text text-anchor="start" x="29" y="-615.5" font-family="Helvetica,sans-Serif" font-size="10.00">core::eventreceiver</text>
<text text-anchor="start" x="29" y="-604.5" font-family="Helvetica,sans-Serif" font-size="10.00">::AcceptEventReceiver</text>
<text text-anchor="middle" x="84" y="-593.5" font-family="Helvetica,sans-Serif" font-size="10.00">::timeoutEvent</text>
</a>
</g>
</g>
<!-- Node3&#45;&gt;Node4 -->
<g id="edge3" class="edge">
<title>Node3&#45;&gt;Node4</title>
<path fill="none" stroke="midnightblue" d="M218.74,-607C195.44,-607 169.83,-607 147.31,-607"/>
<polygon fill="midnightblue" stroke="midnightblue" points="218.91,-610.5 228.91,-607 218.91,-603.5 218.91,-610.5"/>
</g>
<!-- Node5&#45;&gt;Node6 -->
<g id="edge5" class="edge">
<title>Node5&#45;&gt;Node6</title>
<path fill="none" stroke="midnightblue" d="M224.02,-193.83C217.22,-191.66 210.44,-189.37 204,-187 177.6,-177.28 148.86,-164.3 126.23,-153.51"/>
<polygon fill="midnightblue" stroke="midnightblue" points="223.4,-197.3 233.99,-196.91 225.47,-190.61 223.4,-197.3"/>
</g>
<!-- Node7 -->
<g id="node7" class="node">
<title>Node7</title>
<g id="a_node7"><a xlink:href="classcore_1_1socket_1_1stream_1_1tls_1_1_socket_connection.html#ab5d3bb6c3435c24e7c263d8a39ad55a7" target="_top" xlink:title=" ">
<polygon fill="white" stroke="black" points="20,-186.5 20,-227.5 148,-227.5 148,-186.5 20,-186.5"/>
<text text-anchor="start" x="28" y="-215.5" font-family="Helvetica,sans-Serif" font-size="10.00">core::socket::stream</text>
<text text-anchor="start" x="28" y="-204.5" font-family="Helvetica,sans-Serif" font-size="10.00">::tls::SocketConnection</text>
<text text-anchor="middle" x="84" y="-193.5" font-family="Helvetica,sans-Serif" font-size="10.00">::doWriteShutdown</text>
</a>
</g>
</g>
<!-- Node5&#45;&gt;Node7 -->
<g id="edge6" class="edge">
<title>Node5&#45;&gt;Node7</title>
<path fill="none" stroke="midnightblue" d="M211.12,-210.06C190.22,-209.55 167.98,-209.01 148.09,-208.53"/>
<polygon fill="midnightblue" stroke="midnightblue" points="211.18,-213.56 221.26,-210.31 211.35,-206.57 211.18,-213.56"/>
</g>
<!-- Node10 -->
<g id="node10" class="node">
<title>Node10</title>
<g id="a_node10"><a xlink:href="classcore_1_1eventreceiver_1_1_connect_event_receiver.html#a24107f1a6e60ee7b954f686bd82a63a1" target="_top" xlink:title=" ">
<polygon fill="white" stroke="black" points="17.5,-476.5 17.5,-517.5 150.5,-517.5 150.5,-476.5 17.5,-476.5"/>
<text text-anchor="start" x="25.5" y="-505.5" font-family="Helvetica,sans-Serif" font-size="10.00">core::eventreceiver</text>
<text text-anchor="start" x="25.5" y="-494.5" font-family="Helvetica,sans-Serif" font-size="10.00">::ConnectEventReceiver</text>
<text text-anchor="middle" x="84" y="-483.5" font-family="Helvetica,sans-Serif" font-size="10.00">::timeoutEvent</text>
</a>
</g>
</g>
<!-- Node9&#45;&gt;Node10 -->
<g id="edge9" class="edge">
<title>Node9&#45;&gt;Node10</title>
<path fill="none" stroke="midnightblue" d="M215.05,-497C193.98,-497 171.27,-497 150.83,-497"/>
<polygon fill="midnightblue" stroke="midnightblue" points="215.25,-500.5 225.25,-497 215.25,-493.5 215.25,-500.5"/>
</g>
<!-- Node12 -->
<g id="node12" class="node">
<title>Node12</title>
<g id="a_node12"><a xlink:href="classcore_1_1socket_1_1stream_1_1_socket_connection.html#ae597b13d1eb1c421b1cc740bb2ff8fb4" target="_top" xlink:title=" ">
<polygon fill="white" stroke="black" points="1.5,-757 1.5,-787 166.5,-787 166.5,-757 1.5,-757"/>
<text text-anchor="start" x="9.5" y="-775" font-family="Helvetica,sans-Serif" font-size="10.00">core::socket::stream</text>
<text text-anchor="middle" x="84" y="-764" font-family="Helvetica,sans-Serif" font-size="10.00">::SocketConnection::readEvent</text>
</a>
</g>
</g>
<!-- Node11&#45;&gt;Node12 -->
<g id="edge11" class="edge">
<title>Node11&#45;&gt;Node12</title>
<path fill="none" stroke="midnightblue" d="M215.55,-772C199.68,-772 182.87,-772 166.79,-772"/>
<polygon fill="midnightblue" stroke="midnightblue" points="215.82,-775.5 225.82,-772 215.82,-768.5 215.82,-775.5"/>
</g>
<!-- Node15 -->
<g id="node15" class="node">
<title>Node15</title>
<g id="a_node15"><a xlink:href="classcore_1_1socket_1_1stream_1_1_socket_connection.html#afecd9701e798eb07a5f2358603d12fa7" target="_top" xlink:title=" ">
<polygon fill="white" stroke="black" points="0,-49 0,-79 168,-79 168,-49 0,-49"/>
<text text-anchor="start" x="8" y="-67" font-family="Helvetica,sans-Serif" font-size="10.00">core::socket::stream</text>
<text text-anchor="middle" x="84" y="-56" font-family="Helvetica,sans-Serif" font-size="10.00">::SocketConnection::writeEvent</text>
</a>
</g>
</g>
<!-- Node14&#45;&gt;Node15 -->
<g id="edge14" class="edge">
<title>Node14&#45;&gt;Node15</title>
<path fill="none" stroke="midnightblue" d="M216.99,-64C201.16,-64 184.33,-64 168.18,-64"/>
<polygon fill="midnightblue" stroke="midnightblue" points="217.23,-67.5 227.23,-64 217.23,-60.5 217.23,-67.5"/>
</g>
<!-- Node17 -->
<g id="node17" class="node">
<title>Node17</title>
<g id="a_node17"><a xlink:href="classcore_1_1eventreceiver_1_1_exceptional_condition_event_receiver.html#ad21bbdf3d35a64c764cf71e3f4556d1e" target="_top" xlink:title=" ">
<polygon fill="white" stroke="black" points="7,-306.5 7,-347.5 161,-347.5 161,-306.5 7,-306.5"/>
<text text-anchor="start" x="15" y="-335.5" font-family="Helvetica,sans-Serif" font-size="10.00">core::eventreceiver</text>
<text text-anchor="start" x="15" y="-324.5" font-family="Helvetica,sans-Serif" font-size="10.00">::ExceptionalConditionEvent</text>
<text text-anchor="middle" x="84" y="-313.5" font-family="Helvetica,sans-Serif" font-size="10.00">Receiver::timeoutEvent</text>
</a>
</g>
</g>
<!-- Node16&#45;&gt;Node17 -->
<g id="edge16" class="edge">
<title>Node16&#45;&gt;Node17</title>
<path fill="none" stroke="midnightblue" d="M203.29,-327C189.27,-327 174.87,-327 161.15,-327"/>
<polygon fill="midnightblue" stroke="midnightblue" points="203.41,-330.5 213.41,-327 203.41,-323.5 203.41,-330.5"/>
</g>
<!-- Node19 -->
<g id="node19" class="node">
<title>Node19</title>
<g id="a_node19"><a xlink:href="classcore_1_1eventreceiver_1_1_read_event_receiver.html#ab68961c7203875b4b5dda79b9a74a5a7" target="_top" xlink:title=" ">
<polygon fill="white" stroke="black" points="25,-246.5 25,-287.5 143,-287.5 143,-246.5 25,-246.5"/>
<text text-anchor="start" x="33" y="-275.5" font-family="Helvetica,sans-Serif" font-size="10.00">core::eventreceiver</text>
<text text-anchor="start" x="33" y="-264.5" font-family="Helvetica,sans-Serif" font-size="10.00">::ReadEventReceiver</text>
<text text-anchor="middle" x="84" y="-253.5" font-family="Helvetica,sans-Serif" font-size="10.00">::timeoutEvent</text>
</a>
</g>
</g>
<!-- Node18&#45;&gt;Node19 -->
<g id="edge18" class="edge">
<title>Node18&#45;&gt;Node19</title>
<path fill="none" stroke="midnightblue" d="M222.71,-267C196.92,-267 167.83,-267 143.06,-267"/>
<polygon fill="midnightblue" stroke="midnightblue" points="222.79,-270.5 232.79,-267 222.79,-263.5 222.79,-270.5"/>
</g>
<!-- Node24 -->
<g id="node24" class="node">
<title>Node24</title>
<g id="a_node24"><a xlink:href="classcore_1_1eventreceiver_1_1_write_event_receiver.html#ac2573380ee490ca0039e4746cff1303c" target="_top" xlink:title=" ">
<polygon fill="white" stroke="black" points="24.5,-366.5 24.5,-407.5 143.5,-407.5 143.5,-366.5 24.5,-366.5"/>
<text text-anchor="start" x="32.5" y="-395.5" font-family="Helvetica,sans-Serif" font-size="10.00">core::eventreceiver</text>
<text text-anchor="start" x="32.5" y="-384.5" font-family="Helvetica,sans-Serif" font-size="10.00">::WriteEventReceiver</text>
<text text-anchor="middle" x="84" y="-373.5" font-family="Helvetica,sans-Serif" font-size="10.00">::timeoutEvent</text>
</a>
</g>
</g>
<!-- Node23&#45;&gt;Node24 -->
<g id="edge23" class="edge">
<title>Node23&#45;&gt;Node24</title>
<path fill="none" stroke="midnightblue" d="M221.96,-387C196.62,-387 168.2,-387 143.83,-387"/>
<polygon fill="midnightblue" stroke="midnightblue" points="222.24,-390.5 232.24,-387 222.24,-383.5 222.24,-390.5"/>
</g>
</g>
</svg>
