<?xml version="1.0" encoding="UTF-8" standalone="no"?>
<!DOCTYPE svg PUBLIC "-//W3C//DTD SVG 1.1//EN"
 "http://www.w3.org/Graphics/SVG/1.1/DTD/svg11.dtd">
<!-- Generated by graphviz version 2.43.0 (0)
 -->
<!-- Title: CLI::Option::get_positional Pages: 1 -->
<svg width="308pt" height="137pt"
 viewBox="0.00 0.00 308.00 137.00" xmlns="http://www.w3.org/2000/svg" xmlns:xlink="http://www.w3.org/1999/xlink">
<g id="graph0" class="graph" transform="scale(1 1) rotate(0) translate(4 133)">
<title>CLI::Option::get_positional</title>
<polygon fill="white" stroke="transparent" points="-4,4 -4,-133 304,-133 304,4 -4,4"/>
<!-- Node1 -->
<g id="node1" class="node">
<title>Node1</title>
<g id="a_node1"><a xlink:title="True if the argument can be given directly.">
<polygon fill="#bfbfbf" stroke="black" points="155,-55 155,-74 300,-74 300,-55 155,-55"/>
<text text-anchor="middle" x="227.5" y="-62" font-family="Helvetica,sans-Serif" font-size="10.00">CLI::Option::get_positional</text>
</a>
</g>
</g>
<!-- Node2 -->
<g id="node2" class="node">
<title>Node2</title>
<g id="a_node2"><a xlink:href="class_c_l_i_1_1_app.html#addba2c303be83c18abb0adaa7442ae07" target="_top" xlink:title="Internal function for adding a flag.">
<polygon fill="white" stroke="black" points="4.5,-98.5 4.5,-128.5 114.5,-128.5 114.5,-98.5 4.5,-98.5"/>
<text text-anchor="start" x="12.5" y="-116.5" font-family="Helvetica,sans-Serif" font-size="10.00">CLI::App::_add_flag</text>
<text text-anchor="middle" x="59.5" y="-105.5" font-family="Helvetica,sans-Serif" font-size="10.00">_internal</text>
</a>
</g>
</g>
<!-- Node1&#45;&gt;Node2 -->
<g id="edge1" class="edge">
<title>Node1&#45;&gt;Node2</title>
<path fill="none" stroke="midnightblue" d="M184.31,-76.95C162.14,-83.5 134.79,-91.57 111.44,-98.46"/>
<polygon fill="midnightblue" stroke="midnightblue" points="185.5,-80.25 194.1,-74.06 183.52,-73.54 185.5,-80.25"/>
</g>
<!-- Node3 -->
<g id="node3" class="node">
<title>Node3</title>
<g id="a_node3"><a xlink:href="class_c_l_i_1_1_formatter.html#aab5f07a6d3154ace0be4d9dbf85f795b" target="_top" xlink:title="This prints out just the positionals &quot;group&quot;.">
<polygon fill="white" stroke="black" points="0,-49.5 0,-79.5 119,-79.5 119,-49.5 0,-49.5"/>
<text text-anchor="start" x="8" y="-67.5" font-family="Helvetica,sans-Serif" font-size="10.00">CLI::Formatter::make</text>
<text text-anchor="middle" x="59.5" y="-56.5" font-family="Helvetica,sans-Serif" font-size="10.00">_positionals</text>
</a>
</g>
</g>
<!-- Node1&#45;&gt;Node3 -->
<g id="edge2" class="edge">
<title>Node1&#45;&gt;Node3</title>
<path fill="none" stroke="midnightblue" d="M144.62,-64.5C136.05,-64.5 127.47,-64.5 119.23,-64.5"/>
<polygon fill="midnightblue" stroke="midnightblue" points="144.66,-68 154.66,-64.5 144.66,-61 144.66,-68"/>
</g>
<!-- Node4 -->
<g id="node4" class="node">
<title>Node4</title>
<g id="a_node4"><a xlink:href="class_c_l_i_1_1_formatter.html#a3aac4a7ce4ca139704e632915892024c" target="_top" xlink:title="This displays the usage line.">
<polygon fill="white" stroke="black" points="0,-0.5 0,-30.5 119,-30.5 119,-0.5 0,-0.5"/>
<text text-anchor="start" x="8" y="-18.5" font-family="Helvetica,sans-Serif" font-size="10.00">CLI::Formatter::make</text>
<text text-anchor="middle" x="59.5" y="-7.5" font-family="Helvetica,sans-Serif" font-size="10.00">_usage</text>
</a>
</g>
</g>
<!-- Node1&#45;&gt;Node4 -->
<g id="edge3" class="edge">
<title>Node1&#45;&gt;Node4</title>
<path fill="none" stroke="midnightblue" d="M184.31,-52.05C162.14,-45.5 134.79,-37.43 111.44,-30.54"/>
<polygon fill="midnightblue" stroke="midnightblue" points="183.52,-55.46 194.1,-54.94 185.5,-48.75 183.52,-55.46"/>
</g>
</g>
</svg>
