<?xml version="1.0" encoding="UTF-8" standalone="no"?>
<!DOCTYPE svg PUBLIC "-//W3C//DTD SVG 1.1//EN"
 "http://www.w3.org/Graphics/SVG/1.1/DTD/svg11.dtd">
<!-- Generated by graphviz version 2.43.0 (0)
 -->
<!-- Title: web::http::legacy::rc::Client&lt; Request, Response &gt; Pages: 1 -->
<svg width="441pt" height="586pt"
 viewBox="0.00 0.00 441.00 586.00" xmlns="http://www.w3.org/2000/svg" xmlns:xlink="http://www.w3.org/1999/xlink">
<g id="graph0" class="graph" transform="scale(1 1) rotate(0) translate(4 582)">
<title>web::http::legacy::rc::Client&lt; Request, Response &gt;</title>
<polygon fill="white" stroke="transparent" points="-4,4 -4,-582 437,-582 437,4 -4,4"/>
<!-- Node1 -->
<g id="node1" class="node">
<title>Node1</title>
<g id="a_node1"><a xlink:title=" ">
<polygon fill="#bfbfbf" stroke="black" points="164,-0.5 164,-41.5 278,-41.5 278,-0.5 164,-0.5"/>
<text text-anchor="start" x="172" y="-29.5" font-family="Helvetica,sans-Serif" font-size="10.00">web::http::legacy::</text>
<text text-anchor="start" x="172" y="-18.5" font-family="Helvetica,sans-Serif" font-size="10.00">rc::Client&lt; Request,</text>
<text text-anchor="middle" x="221" y="-7.5" font-family="Helvetica,sans-Serif" font-size="10.00"> Response &gt;</text>
</a>
</g>
</g>
<!-- Node2 -->
<g id="node2" class="node">
<title>Node2</title>
<g id="a_node2"><a xlink:href="classweb_1_1http_1_1client_1_1_client.html" target="_top" xlink:title=" ">
<polygon fill="white" stroke="black" points="139.5,-79.5 139.5,-142.5 302.5,-142.5 302.5,-79.5 139.5,-79.5"/>
<text text-anchor="start" x="147.5" y="-130.5" font-family="Helvetica,sans-Serif" font-size="10.00">web::http::client::</text>
<text text-anchor="start" x="147.5" y="-119.5" font-family="Helvetica,sans-Serif" font-size="10.00">Client&lt; net::rc::stream</text>
<text text-anchor="start" x="147.5" y="-108.5" font-family="Helvetica,sans-Serif" font-size="10.00">::legacy::SocketClient,</text>
<text text-anchor="start" x="147.5" y="-97.5" font-family="Helvetica,sans-Serif" font-size="10.00"> web::http::client::Request,</text>
<text text-anchor="middle" x="221" y="-86.5" font-family="Helvetica,sans-Serif" font-size="10.00"> web::http::client::Response &gt;</text>
</a>
</g>
</g>
<!-- Node2&#45;&gt;Node1 -->
<g id="edge1" class="edge">
<title>Node2&#45;&gt;Node1</title>
<path fill="none" stroke="midnightblue" d="M221,-69.02C221,-59.48 221,-49.74 221,-41.62"/>
<polygon fill="none" stroke="midnightblue" points="217.5,-69.22 221,-79.22 224.5,-69.22 217.5,-69.22"/>
</g>
<!-- Node3 -->
<g id="node3" class="node">
<title>Node3</title>
<g id="a_node3"><a xlink:href="classcore_1_1socket_1_1stream_1_1legacy_1_1_socket_client.html" target="_top" xlink:title=" ">
<polygon fill="white" stroke="black" points="42,-223.5 42,-286.5 224,-286.5 224,-223.5 42,-223.5"/>
<text text-anchor="start" x="50" y="-274.5" font-family="Helvetica,sans-Serif" font-size="10.00">net::rc::stream::legacy</text>
<text text-anchor="start" x="50" y="-263.5" font-family="Helvetica,sans-Serif" font-size="10.00">::SocketClient &lt; web::</text>
<text text-anchor="start" x="50" y="-252.5" font-family="Helvetica,sans-Serif" font-size="10.00">http::client::SocketContextFactory</text>
<text text-anchor="start" x="50" y="-241.5" font-family="Helvetica,sans-Serif" font-size="10.00">&lt; web::http::client::Request ,</text>
<text text-anchor="middle" x="133" y="-230.5" font-family="Helvetica,sans-Serif" font-size="10.00"> web::http::client::Response &gt; &gt;</text>
</a>
</g>
</g>
<!-- Node3&#45;&gt;Node2 -->
<g id="edge2" class="edge">
<title>Node3&#45;&gt;Node2</title>
<path fill="none" stroke="midnightblue" d="M157.5,-214.47C171.54,-191.8 188.92,-163.77 201.94,-142.75"/>
<polygon fill="none" stroke="midnightblue" points="154.39,-212.84 152.09,-223.19 160.34,-216.53 154.39,-212.84"/>
</g>
<!-- Node4 -->
<g id="node4" class="node">
<title>Node4</title>
<g id="a_node4"><a xlink:href="classcore_1_1socket_1_1stream_1_1_socket_client.html" target="_top" xlink:title=" ">
<polygon fill="white" stroke="black" points="0,-324.5 0,-387.5 212,-387.5 212,-324.5 0,-324.5"/>
<text text-anchor="start" x="8" y="-375.5" font-family="Helvetica,sans-Serif" font-size="10.00">core::socket::stream</text>
<text text-anchor="start" x="8" y="-364.5" font-family="Helvetica,sans-Serif" font-size="10.00">::SocketClient&lt; SocketClient</text>
<text text-anchor="start" x="8" y="-353.5" font-family="Helvetica,sans-Serif" font-size="10.00">T, core::socket::stream::</text>
<text text-anchor="start" x="8" y="-342.5" font-family="Helvetica,sans-Serif" font-size="10.00">legacy::SocketConnector, SocketContext</text>
<text text-anchor="middle" x="106" y="-331.5" font-family="Helvetica,sans-Serif" font-size="10.00">FactoryT &gt;</text>
</a>
</g>
</g>
<!-- Node4&#45;&gt;Node3 -->
<g id="edge3" class="edge">
<title>Node4&#45;&gt;Node3</title>
<path fill="none" stroke="midnightblue" d="M117.02,-314.58C119.57,-305.23 122.25,-295.43 124.66,-286.58"/>
<polygon fill="none" stroke="midnightblue" points="113.58,-313.92 114.32,-324.49 120.33,-315.76 113.58,-313.92"/>
</g>
<!-- Node5 -->
<g id="node5" class="node">
<title>Node5</title>
<g id="a_node5"><a xlink:title=" ">
<polygon fill="white" stroke="#bfbfbf" points="60.5,-558.5 60.5,-577.5 143.5,-577.5 143.5,-558.5 60.5,-558.5"/>
<text text-anchor="middle" x="102" y="-565.5" font-family="Helvetica,sans-Serif" font-size="10.00">SocketClientT</text>
</a>
</g>
</g>
<!-- Node5&#45;&gt;Node4 -->
<g id="edge4" class="edge">
<title>Node5&#45;&gt;Node4</title>
<path fill="none" stroke="midnightblue" d="M102.36,-548.08C103.05,-511.75 104.57,-431.94 105.41,-387.83"/>
<polygon fill="none" stroke="midnightblue" points="98.86,-548.18 102.17,-558.24 105.86,-548.31 98.86,-548.18"/>
</g>
<!-- Node6 -->
<g id="node6" class="node">
<title>Node6</title>
<g id="a_node6"><a xlink:href="classcore_1_1socket_1_1stream_1_1_socket_client.html" target="_top" xlink:title=" ">
<polygon fill="white" stroke="black" points="118.5,-468.5 118.5,-520.5 311.5,-520.5 311.5,-468.5 118.5,-468.5"/>
<text text-anchor="start" x="126.5" y="-508.5" font-family="Helvetica,sans-Serif" font-size="10.00">core::socket::stream</text>
<text text-anchor="start" x="126.5" y="-497.5" font-family="Helvetica,sans-Serif" font-size="10.00">::SocketClient&lt; SocketClient</text>
<text text-anchor="start" x="126.5" y="-486.5" font-family="Helvetica,sans-Serif" font-size="10.00">T, SocketConnectorT, SocketContext</text>
<text text-anchor="middle" x="215" y="-475.5" font-family="Helvetica,sans-Serif" font-size="10.00">FactoryT &gt;</text>
</a>
</g>
</g>
<!-- Node5&#45;&gt;Node6 -->
<g id="edge6" class="edge">
<title>Node5&#45;&gt;Node6</title>
<path fill="none" stroke="midnightblue" d="M124.62,-552.69C139.1,-543.52 158.29,-531.38 175.26,-520.65"/>
<polygon fill="none" stroke="midnightblue" points="122.44,-549.93 115.86,-558.23 126.18,-555.84 122.44,-549.93"/>
</g>
<!-- Node6&#45;&gt;Node4 -->
<g id="edge5" class="edge">
<title>Node6&#45;&gt;Node4</title>
<path fill="none" stroke="orange" d="M188.75,-460.62C171.02,-438.42 147.78,-409.32 130.44,-387.61"/>
<polygon fill="orange" stroke="orange" points="186.03,-462.83 195.01,-468.46 191.5,-458.47 186.03,-462.83"/>
<text text-anchor="start" x="180" y="-442" font-family="Helvetica,sans-Serif" font-size="10.00"> &lt; SocketClientT, core</text>
<text text-anchor="start" x="180" y="-431" font-family="Helvetica,sans-Serif" font-size="10.00">::socket::stream::legacy</text>
<text text-anchor="start" x="180" y="-420" font-family="Helvetica,sans-Serif" font-size="10.00">::SocketConnector, SocketContext</text>
<text text-anchor="middle" x="262.5" y="-409" font-family="Helvetica,sans-Serif" font-size="10.00">FactoryT &gt;</text>
</g>
<!-- Node7 -->
<g id="node7" class="node">
<title>Node7</title>
<g id="a_node7"><a xlink:href="classweb_1_1http_1_1client_1_1_client.html" target="_top" xlink:title=" ">
<polygon fill="white" stroke="black" points="253,-234.5 253,-275.5 389,-275.5 389,-234.5 253,-234.5"/>
<text text-anchor="start" x="261" y="-263.5" font-family="Helvetica,sans-Serif" font-size="10.00">web::http::client::</text>
<text text-anchor="start" x="261" y="-252.5" font-family="Helvetica,sans-Serif" font-size="10.00">Client&lt; SocketClientT,</text>
<text text-anchor="middle" x="321" y="-241.5" font-family="Helvetica,sans-Serif" font-size="10.00"> RequestT, ResponseT &gt;</text>
</a>
</g>
</g>
<!-- Node7&#45;&gt;Node2 -->
<g id="edge7" class="edge">
<title>Node7&#45;&gt;Node2</title>
<path fill="none" stroke="orange" d="M301.21,-225.9C284.26,-201.83 259.9,-167.24 242.48,-142.51"/>
<polygon fill="orange" stroke="orange" points="298.48,-228.09 307.1,-234.26 304.2,-224.06 298.48,-228.09"/>
<text text-anchor="start" x="286" y="-197" font-family="Helvetica,sans-Serif" font-size="10.00"> &lt; net::rc::stream::</text>
<text text-anchor="start" x="286" y="-186" font-family="Helvetica,sans-Serif" font-size="10.00">legacy::SocketClient,</text>
<text text-anchor="start" x="286" y="-175" font-family="Helvetica,sans-Serif" font-size="10.00"> web::http::client::Request,</text>
<text text-anchor="middle" x="359.5" y="-164" font-family="Helvetica,sans-Serif" font-size="10.00"> web::http::client::Response &gt;</text>
</g>
<!-- Node8 -->
<g id="node8" class="node">
<title>Node8</title>
<g id="a_node8"><a xlink:title=" ">
<polygon fill="white" stroke="#bfbfbf" points="230.5,-335.5 230.5,-376.5 421.5,-376.5 421.5,-335.5 230.5,-335.5"/>
<text text-anchor="start" x="238.5" y="-364.5" font-family="Helvetica,sans-Serif" font-size="10.00">SocketClientT&lt; web</text>
<text text-anchor="start" x="238.5" y="-353.5" font-family="Helvetica,sans-Serif" font-size="10.00">::http::client::SocketContext</text>
<text text-anchor="middle" x="326" y="-342.5" font-family="Helvetica,sans-Serif" font-size="10.00">Factory&lt; RequestT, ResponseT &gt; &gt;</text>
</a>
</g>
</g>
<!-- Node8&#45;&gt;Node7 -->
<g id="edge8" class="edge">
<title>Node8&#45;&gt;Node7</title>
<path fill="none" stroke="midnightblue" d="M324.51,-325.41C323.69,-309.27 322.7,-289.75 321.99,-275.52"/>
<polygon fill="none" stroke="midnightblue" points="321.01,-325.63 325.01,-335.44 328,-325.28 321.01,-325.63"/>
</g>
</g>
</svg>
