<?xml version="1.0" encoding="UTF-8" standalone="no"?>
<!DOCTYPE svg PUBLIC "-//W3C//DTD SVG 1.1//EN"
 "http://www.w3.org/Graphics/SVG/1.1/DTD/svg11.dtd">
<!-- Generated by graphviz version 2.43.0 (0)
 -->
<!-- Title: core::socket::stream::legacy::SocketClient&lt; ClientSocketT, ClientConfigT, SocketContextFactoryT &gt; Pages: 1 -->
<svg width="648pt" height="1134pt"
 viewBox="0.00 0.00 648.00 1134.00" xmlns="http://www.w3.org/2000/svg" xmlns:xlink="http://www.w3.org/1999/xlink">
<g id="graph0" class="graph" transform="scale(1 1) rotate(0) translate(4 1130)">
<title>core::socket::stream::legacy::SocketClient&lt; ClientSocketT, ClientConfigT, SocketContextFactoryT &gt;</title>
<polygon fill="white" stroke="transparent" points="-4,4 -4,-1130 644,-1130 644,4 -4,4"/>
<!-- Node1 -->
<g id="node1" class="node">
<title>Node1</title>
<g id="a_node1"><a xlink:title=" ">
<polygon fill="#bfbfbf" stroke="black" points="210.5,-267.5 210.5,-357.5 380.5,-357.5 380.5,-267.5 210.5,-267.5"/>
<text text-anchor="start" x="218.5" y="-345.5" font-family="Helvetica,sans-Serif" font-size="10.00">core::socket::stream</text>
<text text-anchor="start" x="218.5" y="-334.5" font-family="Helvetica,sans-Serif" font-size="10.00">::legacy::SocketClient</text>
<text text-anchor="start" x="218.5" y="-323.5" font-family="Helvetica,sans-Serif" font-size="10.00">&lt; ClientSocketT, ClientConfigT,</text>
<text text-anchor="middle" x="295.5" y="-312.5" font-family="Helvetica,sans-Serif" font-size="10.00"> SocketContextFactoryT &gt;</text>
<polyline fill="none" stroke="black" points="210.5,-305.5 380.5,-305.5 "/>
<text text-anchor="middle" x="295.5" y="-293.5" font-family="Helvetica,sans-Serif" font-size="10.00"> </text>
<polyline fill="none" stroke="black" points="210.5,-286.5 380.5,-286.5 "/>
<text text-anchor="middle" x="295.5" y="-274.5" font-family="Helvetica,sans-Serif" font-size="10.00"> </text>
</a>
</g>
</g>
<!-- Node5 -->
<g id="node5" class="node">
<title>Node5</title>
<g id="a_node5"><a xlink:href="classweb_1_1http_1_1client_1_1_client.html" target="_top" xlink:title=" ">
<polygon fill="white" stroke="black" points="0,-123 0,-224 131,-224 131,-123 0,-123"/>
<text text-anchor="start" x="8" y="-212" font-family="Helvetica,sans-Serif" font-size="10.00">web::http::client::</text>
<text text-anchor="start" x="8" y="-201" font-family="Helvetica,sans-Serif" font-size="10.00">Client&lt; net::un::stream</text>
<text text-anchor="start" x="8" y="-190" font-family="Helvetica,sans-Serif" font-size="10.00">::legacy::SocketClient,</text>
<text text-anchor="middle" x="65.5" y="-179" font-family="Helvetica,sans-Serif" font-size="10.00"> Request, Response &gt;</text>
<polyline fill="none" stroke="black" points="0,-172 131,-172 "/>
<text text-anchor="middle" x="65.5" y="-160" font-family="Helvetica,sans-Serif" font-size="10.00"> </text>
<polyline fill="none" stroke="black" points="0,-153 131,-153 "/>
<text text-anchor="start" x="8" y="-141" font-family="Helvetica,sans-Serif" font-size="10.00">+ Client()</text>
<text text-anchor="start" x="8" y="-130" font-family="Helvetica,sans-Serif" font-size="10.00">+ Client()</text>
</a>
</g>
</g>
<!-- Node1&#45;&gt;Node5 -->
<g id="edge5" class="edge">
<title>Node1&#45;&gt;Node5</title>
<path fill="none" stroke="midnightblue" d="M201.15,-264.84C180.82,-253.97 159.68,-242.04 140.5,-230 137.48,-228.11 134.43,-226.13 131.37,-224.09"/>
<polygon fill="none" stroke="midnightblue" points="199.64,-268 210.12,-269.59 202.92,-261.82 199.64,-268"/>
</g>
<!-- Node7 -->
<g id="node7" class="node">
<title>Node7</title>
<g id="a_node7"><a xlink:href="classweb_1_1http_1_1client_1_1_client.html" target="_top" xlink:title=" ">
<polygon fill="white" stroke="black" points="149.5,-123 149.5,-224 277.5,-224 277.5,-123 149.5,-123"/>
<text text-anchor="start" x="157.5" y="-212" font-family="Helvetica,sans-Serif" font-size="10.00">web::http::client::</text>
<text text-anchor="start" x="157.5" y="-201" font-family="Helvetica,sans-Serif" font-size="10.00">Client&lt; net::in::stream</text>
<text text-anchor="start" x="157.5" y="-190" font-family="Helvetica,sans-Serif" font-size="10.00">::legacy::SocketClient,</text>
<text text-anchor="middle" x="213.5" y="-179" font-family="Helvetica,sans-Serif" font-size="10.00"> Request, Response &gt;</text>
<polyline fill="none" stroke="black" points="149.5,-172 277.5,-172 "/>
<text text-anchor="middle" x="213.5" y="-160" font-family="Helvetica,sans-Serif" font-size="10.00"> </text>
<polyline fill="none" stroke="black" points="149.5,-153 277.5,-153 "/>
<text text-anchor="start" x="157.5" y="-141" font-family="Helvetica,sans-Serif" font-size="10.00">+ Client()</text>
<text text-anchor="start" x="157.5" y="-130" font-family="Helvetica,sans-Serif" font-size="10.00">+ Client()</text>
</a>
</g>
</g>
<!-- Node1&#45;&gt;Node7 -->
<g id="edge7" class="edge">
<title>Node1&#45;&gt;Node7</title>
<path fill="none" stroke="midnightblue" d="M263.78,-258.51C257.04,-247.24 249.93,-235.37 243.26,-224.23"/>
<polygon fill="none" stroke="midnightblue" points="260.96,-260.62 269.1,-267.4 266.97,-257.02 260.96,-260.62"/>
</g>
<!-- Node9 -->
<g id="node9" class="node">
<title>Node9</title>
<g id="a_node9"><a xlink:href="classweb_1_1http_1_1client_1_1_client.html" target="_top" xlink:title=" ">
<polygon fill="white" stroke="black" points="296,-117.5 296,-229.5 459,-229.5 459,-117.5 296,-117.5"/>
<text text-anchor="start" x="304" y="-217.5" font-family="Helvetica,sans-Serif" font-size="10.00">web::http::client::</text>
<text text-anchor="start" x="304" y="-206.5" font-family="Helvetica,sans-Serif" font-size="10.00">Client&lt; net::in6::stream</text>
<text text-anchor="start" x="304" y="-195.5" font-family="Helvetica,sans-Serif" font-size="10.00">::legacy::SocketClient,</text>
<text text-anchor="start" x="304" y="-184.5" font-family="Helvetica,sans-Serif" font-size="10.00"> web::http::client::Request,</text>
<text text-anchor="middle" x="377.5" y="-173.5" font-family="Helvetica,sans-Serif" font-size="10.00"> web::http::client::Response &gt;</text>
<polyline fill="none" stroke="black" points="296,-166.5 459,-166.5 "/>
<text text-anchor="middle" x="377.5" y="-154.5" font-family="Helvetica,sans-Serif" font-size="10.00"> </text>
<polyline fill="none" stroke="black" points="296,-147.5 459,-147.5 "/>
<text text-anchor="start" x="304" y="-135.5" font-family="Helvetica,sans-Serif" font-size="10.00">+ Client()</text>
<text text-anchor="start" x="304" y="-124.5" font-family="Helvetica,sans-Serif" font-size="10.00">+ Client()</text>
</a>
</g>
</g>
<!-- Node1&#45;&gt;Node9 -->
<g id="edge9" class="edge">
<title>Node1&#45;&gt;Node9</title>
<path fill="none" stroke="midnightblue" d="M327.07,-258.76C332.79,-249.2 338.77,-239.2 344.54,-229.57"/>
<polygon fill="none" stroke="midnightblue" points="324.03,-257.02 321.9,-267.4 330.04,-260.62 324.03,-257.02"/>
</g>
<!-- Node11 -->
<g id="node11" class="node">
<title>Node11</title>
<g id="a_node11"><a xlink:href="classweb_1_1http_1_1client_1_1_client.html" target="_top" xlink:title=" ">
<polygon fill="white" stroke="black" points="477,-117.5 477,-229.5 640,-229.5 640,-117.5 477,-117.5"/>
<text text-anchor="start" x="485" y="-217.5" font-family="Helvetica,sans-Serif" font-size="10.00">web::http::client::</text>
<text text-anchor="start" x="485" y="-206.5" font-family="Helvetica,sans-Serif" font-size="10.00">Client&lt; net::rf::stream</text>
<text text-anchor="start" x="485" y="-195.5" font-family="Helvetica,sans-Serif" font-size="10.00">::legacy::SocketClient,</text>
<text text-anchor="start" x="485" y="-184.5" font-family="Helvetica,sans-Serif" font-size="10.00"> web::http::client::Request,</text>
<text text-anchor="middle" x="558.5" y="-173.5" font-family="Helvetica,sans-Serif" font-size="10.00"> web::http::client::Response &gt;</text>
<polyline fill="none" stroke="black" points="477,-166.5 640,-166.5 "/>
<text text-anchor="middle" x="558.5" y="-154.5" font-family="Helvetica,sans-Serif" font-size="10.00"> </text>
<polyline fill="none" stroke="black" points="477,-147.5 640,-147.5 "/>
<text text-anchor="start" x="485" y="-135.5" font-family="Helvetica,sans-Serif" font-size="10.00">+ Client()</text>
<text text-anchor="start" x="485" y="-124.5" font-family="Helvetica,sans-Serif" font-size="10.00">+ Client()</text>
</a>
</g>
</g>
<!-- Node1&#45;&gt;Node11 -->
<g id="edge11" class="edge">
<title>Node1&#45;&gt;Node11</title>
<path fill="none" stroke="midnightblue" d="M390.28,-269.19C415.95,-257.1 443.54,-243.52 468.5,-230 471.24,-228.51 474.02,-226.98 476.81,-225.41"/>
<polygon fill="none" stroke="midnightblue" points="388.49,-266.17 380.92,-273.58 391.46,-272.51 388.49,-266.17"/>
</g>
<!-- Node2 -->
<g id="node2" class="node">
<title>Node2</title>
<g id="a_node2"><a xlink:href="classcore_1_1socket_1_1stream_1_1_socket_client.html" target="_top" xlink:title=" ">
<polygon fill="white" stroke="black" points="158.5,-395.5 158.5,-672.5 432.5,-672.5 432.5,-395.5 158.5,-395.5"/>
<text text-anchor="start" x="166.5" y="-660.5" font-family="Helvetica,sans-Serif" font-size="10.00">core::socket::stream</text>
<text text-anchor="start" x="166.5" y="-649.5" font-family="Helvetica,sans-Serif" font-size="10.00">::SocketClient&lt; ClientSocket</text>
<text text-anchor="start" x="166.5" y="-638.5" font-family="Helvetica,sans-Serif" font-size="10.00">T, core::socket::stream::</text>
<text text-anchor="start" x="166.5" y="-627.5" font-family="Helvetica,sans-Serif" font-size="10.00">legacy::SocketConnector&lt; ClientConfig</text>
<text text-anchor="middle" x="295.5" y="-616.5" font-family="Helvetica,sans-Serif" font-size="10.00">T, ClientSocketT::Socket &gt;, SocketContextFactoryT &gt;</text>
<polyline fill="none" stroke="black" points="158.5,-609.5 432.5,-609.5 "/>
<text text-anchor="start" x="166.5" y="-597.5" font-family="Helvetica,sans-Serif" font-size="10.00"># config</text>
<text text-anchor="start" x="166.5" y="-586.5" font-family="Helvetica,sans-Serif" font-size="10.00"># socketContextFactory</text>
<text text-anchor="start" x="166.5" y="-575.5" font-family="Helvetica,sans-Serif" font-size="10.00"># _onConnect</text>
<text text-anchor="start" x="166.5" y="-564.5" font-family="Helvetica,sans-Serif" font-size="10.00"># _onConnected</text>
<text text-anchor="start" x="166.5" y="-553.5" font-family="Helvetica,sans-Serif" font-size="10.00"># _onDisconnect</text>
<text text-anchor="start" x="166.5" y="-542.5" font-family="Helvetica,sans-Serif" font-size="10.00"># options</text>
<polyline fill="none" stroke="black" points="158.5,-535.5 432.5,-535.5 "/>
<text text-anchor="start" x="166.5" y="-523.5" font-family="Helvetica,sans-Serif" font-size="10.00">+ SocketClient()</text>
<text text-anchor="start" x="166.5" y="-512.5" font-family="Helvetica,sans-Serif" font-size="10.00">+ SocketClient()</text>
<text text-anchor="start" x="166.5" y="-501.5" font-family="Helvetica,sans-Serif" font-size="10.00">+ ~SocketClient()</text>
<text text-anchor="start" x="166.5" y="-490.5" font-family="Helvetica,sans-Serif" font-size="10.00">+ connect()</text>
<text text-anchor="start" x="166.5" y="-479.5" font-family="Helvetica,sans-Serif" font-size="10.00">+ connect()</text>
<text text-anchor="start" x="166.5" y="-468.5" font-family="Helvetica,sans-Serif" font-size="10.00">+ connect()</text>
<text text-anchor="start" x="166.5" y="-457.5" font-family="Helvetica,sans-Serif" font-size="10.00">+ onConnect()</text>
<text text-anchor="start" x="166.5" y="-446.5" font-family="Helvetica,sans-Serif" font-size="10.00">+ onConnected()</text>
<text text-anchor="start" x="166.5" y="-435.5" font-family="Helvetica,sans-Serif" font-size="10.00">+ onDisconnect()</text>
<text text-anchor="start" x="166.5" y="-424.5" font-family="Helvetica,sans-Serif" font-size="10.00">+ getSocketContextFactory()</text>
<text text-anchor="start" x="166.5" y="-413.5" font-family="Helvetica,sans-Serif" font-size="10.00">+ getConfig()</text>
<text text-anchor="start" x="166.5" y="-402.5" font-family="Helvetica,sans-Serif" font-size="10.00">&#45; SocketClient()</text>
</a>
</g>
</g>
<!-- Node2&#45;&gt;Node1 -->
<g id="edge1" class="edge">
<title>Node2&#45;&gt;Node1</title>
<path fill="none" stroke="midnightblue" d="M295.5,-384.98C295.5,-375.28 295.5,-366.03 295.5,-357.61"/>
<polygon fill="none" stroke="midnightblue" points="292,-385.23 295.5,-395.23 299,-385.23 292,-385.23"/>
</g>
<!-- Node3 -->
<g id="node3" class="node">
<title>Node3</title>
<g id="a_node3"><a xlink:title=" ">
<polygon fill="white" stroke="#bfbfbf" points="250,-1068.5 250,-1125.5 333,-1125.5 333,-1068.5 250,-1068.5"/>
<text text-anchor="middle" x="291.5" y="-1113.5" font-family="Helvetica,sans-Serif" font-size="10.00">ClientSocketT</text>
<polyline fill="none" stroke="#bfbfbf" points="250,-1106.5 333,-1106.5 "/>
<text text-anchor="middle" x="291.5" y="-1094.5" font-family="Helvetica,sans-Serif" font-size="10.00"> </text>
<polyline fill="none" stroke="#bfbfbf" points="250,-1087.5 333,-1087.5 "/>
<text text-anchor="middle" x="291.5" y="-1075.5" font-family="Helvetica,sans-Serif" font-size="10.00"> </text>
</a>
</g>
</g>
<!-- Node3&#45;&gt;Node2 -->
<g id="edge2" class="edge">
<title>Node3&#45;&gt;Node2</title>
<path fill="none" stroke="midnightblue" d="M291.77,-1057.9C292.33,-980.12 293.61,-799.68 294.52,-672.61"/>
<polygon fill="none" stroke="midnightblue" points="288.27,-1058.16 291.7,-1068.18 295.27,-1058.21 288.27,-1058.16"/>
</g>
<!-- Node4 -->
<g id="node4" class="node">
<title>Node4</title>
<g id="a_node4"><a xlink:href="classcore_1_1socket_1_1stream_1_1_socket_client.html" target="_top" xlink:title=" ">
<polygon fill="white" stroke="black" points="308,-764.5 308,-1030.5 501,-1030.5 501,-764.5 308,-764.5"/>
<text text-anchor="start" x="316" y="-1018.5" font-family="Helvetica,sans-Serif" font-size="10.00">core::socket::stream</text>
<text text-anchor="start" x="316" y="-1007.5" font-family="Helvetica,sans-Serif" font-size="10.00">::SocketClient&lt; ClientSocket</text>
<text text-anchor="start" x="316" y="-996.5" font-family="Helvetica,sans-Serif" font-size="10.00">T, SocketConnectorT, SocketContext</text>
<text text-anchor="middle" x="404.5" y="-985.5" font-family="Helvetica,sans-Serif" font-size="10.00">FactoryT &gt;</text>
<polyline fill="none" stroke="black" points="308,-978.5 501,-978.5 "/>
<text text-anchor="start" x="316" y="-966.5" font-family="Helvetica,sans-Serif" font-size="10.00"># config</text>
<text text-anchor="start" x="316" y="-955.5" font-family="Helvetica,sans-Serif" font-size="10.00"># socketContextFactory</text>
<text text-anchor="start" x="316" y="-944.5" font-family="Helvetica,sans-Serif" font-size="10.00"># _onConnect</text>
<text text-anchor="start" x="316" y="-933.5" font-family="Helvetica,sans-Serif" font-size="10.00"># _onConnected</text>
<text text-anchor="start" x="316" y="-922.5" font-family="Helvetica,sans-Serif" font-size="10.00"># _onDisconnect</text>
<text text-anchor="start" x="316" y="-911.5" font-family="Helvetica,sans-Serif" font-size="10.00"># options</text>
<polyline fill="none" stroke="black" points="308,-904.5 501,-904.5 "/>
<text text-anchor="start" x="316" y="-892.5" font-family="Helvetica,sans-Serif" font-size="10.00">+ SocketClient()</text>
<text text-anchor="start" x="316" y="-881.5" font-family="Helvetica,sans-Serif" font-size="10.00">+ SocketClient()</text>
<text text-anchor="start" x="316" y="-870.5" font-family="Helvetica,sans-Serif" font-size="10.00">+ ~SocketClient()</text>
<text text-anchor="start" x="316" y="-859.5" font-family="Helvetica,sans-Serif" font-size="10.00">+ connect()</text>
<text text-anchor="start" x="316" y="-848.5" font-family="Helvetica,sans-Serif" font-size="10.00">+ connect()</text>
<text text-anchor="start" x="316" y="-837.5" font-family="Helvetica,sans-Serif" font-size="10.00">+ connect()</text>
<text text-anchor="start" x="316" y="-826.5" font-family="Helvetica,sans-Serif" font-size="10.00">+ onConnect()</text>
<text text-anchor="start" x="316" y="-815.5" font-family="Helvetica,sans-Serif" font-size="10.00">+ onConnected()</text>
<text text-anchor="start" x="316" y="-804.5" font-family="Helvetica,sans-Serif" font-size="10.00">+ onDisconnect()</text>
<text text-anchor="start" x="316" y="-793.5" font-family="Helvetica,sans-Serif" font-size="10.00">+ getSocketContextFactory()</text>
<text text-anchor="start" x="316" y="-782.5" font-family="Helvetica,sans-Serif" font-size="10.00">+ getConfig()</text>
<text text-anchor="start" x="316" y="-771.5" font-family="Helvetica,sans-Serif" font-size="10.00">&#45; SocketClient()</text>
</a>
</g>
</g>
<!-- Node3&#45;&gt;Node4 -->
<g id="edge4" class="edge">
<title>Node3&#45;&gt;Node4</title>
<path fill="none" stroke="midnightblue" d="M312.56,-1059.18C317.51,-1050.54 323.06,-1040.83 328.93,-1030.58"/>
<polygon fill="none" stroke="midnightblue" points="309.38,-1057.7 307.45,-1068.12 315.45,-1061.18 309.38,-1057.7"/>
</g>
<!-- Node4&#45;&gt;Node2 -->
<g id="edge3" class="edge">
<title>Node4&#45;&gt;Node2</title>
<path fill="none" stroke="orange" d="M361.71,-754.6C353.6,-727.68 345.12,-699.55 337.04,-672.76"/>
<polygon fill="orange" stroke="orange" points="358.45,-755.89 364.69,-764.46 365.15,-753.87 358.45,-755.89"/>
<text text-anchor="start" x="356.5" y="-738" font-family="Helvetica,sans-Serif" font-size="10.00"> &lt; ClientSocketT, core</text>
<text text-anchor="start" x="356.5" y="-727" font-family="Helvetica,sans-Serif" font-size="10.00">::socket::stream::legacy</text>
<text text-anchor="start" x="356.5" y="-716" font-family="Helvetica,sans-Serif" font-size="10.00">::SocketConnector&lt; ClientConfig</text>
<text text-anchor="start" x="356.5" y="-705" font-family="Helvetica,sans-Serif" font-size="10.00">T, ClientSocketT::Socket &gt;,</text>
<text text-anchor="middle" x="436.5" y="-694" font-family="Helvetica,sans-Serif" font-size="10.00"> SocketContextFactoryT &gt;</text>
</g>
<!-- Node6 -->
<g id="node6" class="node">
<title>Node6</title>
<g id="a_node6"><a xlink:href="classweb_1_1http_1_1legacy_1_1un_1_1_client.html" target="_top" xlink:title=" ">
<polygon fill="white" stroke="black" points="7,-0.5 7,-79.5 124,-79.5 124,-0.5 7,-0.5"/>
<text text-anchor="start" x="15" y="-67.5" font-family="Helvetica,sans-Serif" font-size="10.00">web::http::legacy::</text>
<text text-anchor="start" x="15" y="-56.5" font-family="Helvetica,sans-Serif" font-size="10.00">un::Client&lt; Request,</text>
<text text-anchor="middle" x="65.5" y="-45.5" font-family="Helvetica,sans-Serif" font-size="10.00"> Response &gt;</text>
<polyline fill="none" stroke="black" points="7,-38.5 124,-38.5 "/>
<text text-anchor="middle" x="65.5" y="-26.5" font-family="Helvetica,sans-Serif" font-size="10.00"> </text>
<polyline fill="none" stroke="black" points="7,-19.5 124,-19.5 "/>
<text text-anchor="middle" x="65.5" y="-7.5" font-family="Helvetica,sans-Serif" font-size="10.00"> </text>
</a>
</g>
</g>
<!-- Node5&#45;&gt;Node6 -->
<g id="edge6" class="edge">
<title>Node5&#45;&gt;Node6</title>
<path fill="none" stroke="midnightblue" d="M65.5,-112.62C65.5,-101.45 65.5,-90.04 65.5,-79.72"/>
<polygon fill="none" stroke="midnightblue" points="62,-112.79 65.5,-122.79 69,-112.79 62,-112.79"/>
</g>
<!-- Node8 -->
<g id="node8" class="node">
<title>Node8</title>
<g id="a_node8"><a xlink:href="classweb_1_1http_1_1legacy_1_1in_1_1_client.html" target="_top" xlink:title=" ">
<polygon fill="white" stroke="black" points="156.5,-0.5 156.5,-79.5 270.5,-79.5 270.5,-0.5 156.5,-0.5"/>
<text text-anchor="start" x="164.5" y="-67.5" font-family="Helvetica,sans-Serif" font-size="10.00">web::http::legacy::</text>
<text text-anchor="start" x="164.5" y="-56.5" font-family="Helvetica,sans-Serif" font-size="10.00">in::Client&lt; Request,</text>
<text text-anchor="middle" x="213.5" y="-45.5" font-family="Helvetica,sans-Serif" font-size="10.00"> Response &gt;</text>
<polyline fill="none" stroke="black" points="156.5,-38.5 270.5,-38.5 "/>
<text text-anchor="middle" x="213.5" y="-26.5" font-family="Helvetica,sans-Serif" font-size="10.00"> </text>
<polyline fill="none" stroke="black" points="156.5,-19.5 270.5,-19.5 "/>
<text text-anchor="middle" x="213.5" y="-7.5" font-family="Helvetica,sans-Serif" font-size="10.00"> </text>
</a>
</g>
</g>
<!-- Node7&#45;&gt;Node8 -->
<g id="edge8" class="edge">
<title>Node7&#45;&gt;Node8</title>
<path fill="none" stroke="midnightblue" d="M213.5,-112.62C213.5,-101.45 213.5,-90.04 213.5,-79.72"/>
<polygon fill="none" stroke="midnightblue" points="210,-112.79 213.5,-122.79 217,-112.79 210,-112.79"/>
</g>
<!-- Node10 -->
<g id="node10" class="node">
<title>Node10</title>
<g id="a_node10"><a xlink:href="classweb_1_1http_1_1legacy_1_1in6_1_1_client.html" target="_top" xlink:title=" ">
<polygon fill="white" stroke="black" points="317.5,-0.5 317.5,-79.5 437.5,-79.5 437.5,-0.5 317.5,-0.5"/>
<text text-anchor="start" x="325.5" y="-67.5" font-family="Helvetica,sans-Serif" font-size="10.00">web::http::legacy::</text>
<text text-anchor="start" x="325.5" y="-56.5" font-family="Helvetica,sans-Serif" font-size="10.00">in6::Client&lt; Request,</text>
<text text-anchor="middle" x="377.5" y="-45.5" font-family="Helvetica,sans-Serif" font-size="10.00"> Response &gt;</text>
<polyline fill="none" stroke="black" points="317.5,-38.5 437.5,-38.5 "/>
<text text-anchor="middle" x="377.5" y="-26.5" font-family="Helvetica,sans-Serif" font-size="10.00"> </text>
<polyline fill="none" stroke="black" points="317.5,-19.5 437.5,-19.5 "/>
<text text-anchor="middle" x="377.5" y="-7.5" font-family="Helvetica,sans-Serif" font-size="10.00"> </text>
</a>
</g>
</g>
<!-- Node9&#45;&gt;Node10 -->
<g id="edge10" class="edge">
<title>Node9&#45;&gt;Node10</title>
<path fill="none" stroke="midnightblue" d="M377.5,-107.32C377.5,-97.9 377.5,-88.47 377.5,-79.8"/>
<polygon fill="none" stroke="midnightblue" points="374,-107.49 377.5,-117.49 381,-107.49 374,-107.49"/>
</g>
<!-- Node12 -->
<g id="node12" class="node">
<title>Node12</title>
<g id="a_node12"><a xlink:href="classweb_1_1http_1_1legacy_1_1rf_1_1_client.html" target="_top" xlink:title=" ">
<polygon fill="white" stroke="black" points="502.5,-0.5 502.5,-79.5 614.5,-79.5 614.5,-0.5 502.5,-0.5"/>
<text text-anchor="start" x="510.5" y="-67.5" font-family="Helvetica,sans-Serif" font-size="10.00">web::http::legacy::</text>
<text text-anchor="start" x="510.5" y="-56.5" font-family="Helvetica,sans-Serif" font-size="10.00">rf::Client&lt; Request,</text>
<text text-anchor="middle" x="558.5" y="-45.5" font-family="Helvetica,sans-Serif" font-size="10.00"> Response &gt;</text>
<polyline fill="none" stroke="black" points="502.5,-38.5 614.5,-38.5 "/>
<text text-anchor="middle" x="558.5" y="-26.5" font-family="Helvetica,sans-Serif" font-size="10.00"> </text>
<polyline fill="none" stroke="black" points="502.5,-19.5 614.5,-19.5 "/>
<text text-anchor="middle" x="558.5" y="-7.5" font-family="Helvetica,sans-Serif" font-size="10.00"> </text>
</a>
</g>
</g>
<!-- Node11&#45;&gt;Node12 -->
<g id="edge12" class="edge">
<title>Node11&#45;&gt;Node12</title>
<path fill="none" stroke="midnightblue" d="M558.5,-107.32C558.5,-97.9 558.5,-88.47 558.5,-79.8"/>
<polygon fill="none" stroke="midnightblue" points="555,-107.49 558.5,-117.49 562,-107.49 555,-107.49"/>
</g>
</g>
</svg>
