<?xml version="1.0" encoding="UTF-8" standalone="no"?>
<!DOCTYPE svg PUBLIC "-//W3C//DTD SVG 1.1//EN"
 "http://www.w3.org/Graphics/SVG/1.1/DTD/svg11.dtd">
<!-- Generated by graphviz version 2.43.0 (0)
 -->
<!-- Title: core::EventLoop Pages: 1 -->
<svg width="333pt" height="932pt"
 viewBox="0.00 0.00 333.00 932.00" xmlns="http://www.w3.org/2000/svg" xmlns:xlink="http://www.w3.org/1999/xlink">
<g id="graph0" class="graph" transform="scale(1 1) rotate(0) translate(4 928)">
<title>core::EventLoop</title>
<polygon fill="white" stroke="transparent" points="-4,4 -4,-928 329,-928 329,4 -4,4"/>
<!-- Node1 -->
<g id="node1" class="node">
<title>Node1</title>
<g id="a_node1"><a xlink:title=" ">
<polygon fill="#bfbfbf" stroke="black" points="89.5,-0.5 89.5,-321.5 246.5,-321.5 246.5,-0.5 89.5,-0.5"/>
<text text-anchor="middle" x="168" y="-309.5" font-family="Helvetica,sans-Serif" font-size="10.00">core::EventLoop</text>
<polyline fill="none" stroke="black" points="89.5,-302.5 246.5,-302.5 "/>
<text text-anchor="start" x="97.5" y="-290.5" font-family="Helvetica,sans-Serif" font-size="10.00">&#45; nextEventTimeout</text>
<text text-anchor="start" x="97.5" y="-279.5" font-family="Helvetica,sans-Serif" font-size="10.00">&#45; tickCounter</text>
<text text-anchor="start" x="97.5" y="-268.5" font-family="Helvetica,sans-Serif" font-size="10.00">&#45; running</text>
<text text-anchor="start" x="97.5" y="-257.5" font-family="Helvetica,sans-Serif" font-size="10.00">&#45; stopped</text>
<text text-anchor="start" x="97.5" y="-246.5" font-family="Helvetica,sans-Serif" font-size="10.00">&#45; stopsig</text>
<text text-anchor="start" x="97.5" y="-235.5" font-family="Helvetica,sans-Serif" font-size="10.00">&#45; initialized</text>
<polyline fill="none" stroke="black" points="89.5,-228.5 246.5,-228.5 "/>
<text text-anchor="start" x="97.5" y="-216.5" font-family="Helvetica,sans-Serif" font-size="10.00">+ getReadEventDispatcher()</text>
<text text-anchor="start" x="97.5" y="-205.5" font-family="Helvetica,sans-Serif" font-size="10.00">+ getWriteEventDispatcher()</text>
<text text-anchor="start" x="97.5" y="-194.5" font-family="Helvetica,sans-Serif" font-size="10.00">+ getExceptionalConditionEvent</text>
<text text-anchor="start" x="97.5" y="-183.5" font-family="Helvetica,sans-Serif" font-size="10.00">Dispatcher()</text>
<text text-anchor="start" x="97.5" y="-172.5" font-family="Helvetica,sans-Serif" font-size="10.00">+ getTimerEventDispatcher()</text>
<text text-anchor="start" x="97.5" y="-161.5" font-family="Helvetica,sans-Serif" font-size="10.00">+ getEventCounter()</text>
<text text-anchor="start" x="97.5" y="-150.5" font-family="Helvetica,sans-Serif" font-size="10.00">+ getTickCounter()</text>
<text text-anchor="start" x="97.5" y="-139.5" font-family="Helvetica,sans-Serif" font-size="10.00">+ instance()</text>
<text text-anchor="start" x="97.5" y="-128.5" font-family="Helvetica,sans-Serif" font-size="10.00"># init()</text>
<text text-anchor="start" x="97.5" y="-117.5" font-family="Helvetica,sans-Serif" font-size="10.00"># start()</text>
<text text-anchor="start" x="97.5" y="-106.5" font-family="Helvetica,sans-Serif" font-size="10.00"># tick()</text>
<text text-anchor="start" x="97.5" y="-95.5" font-family="Helvetica,sans-Serif" font-size="10.00"># stop()</text>
<text text-anchor="start" x="97.5" y="-84.5" font-family="Helvetica,sans-Serif" font-size="10.00"># free()</text>
<text text-anchor="start" x="97.5" y="-73.5" font-family="Helvetica,sans-Serif" font-size="10.00">&#45; EventLoop()</text>
<text text-anchor="start" x="97.5" y="-62.5" font-family="Helvetica,sans-Serif" font-size="10.00">&#45; operator=()</text>
<text text-anchor="start" x="97.5" y="-51.5" font-family="Helvetica,sans-Serif" font-size="10.00">&#45; EventLoop()</text>
<text text-anchor="start" x="97.5" y="-40.5" font-family="Helvetica,sans-Serif" font-size="10.00">&#45; ~EventLoop()</text>
<text text-anchor="start" x="97.5" y="-29.5" font-family="Helvetica,sans-Serif" font-size="10.00">&#45; _tick()</text>
<text text-anchor="start" x="97.5" y="-18.5" font-family="Helvetica,sans-Serif" font-size="10.00">&#45; _free()</text>
<text text-anchor="start" x="97.5" y="-7.5" font-family="Helvetica,sans-Serif" font-size="10.00">&#45; stoponsig()</text>
</a>
</g>
</g>
<!-- Node1&#45;&gt;Node1 -->
<g id="edge5" class="edge">
<title>Node1&#45;&gt;Node1</title>
<path fill="none" stroke="#404040" d="M246.76,-194.27C257.41,-188.69 264.5,-177.6 264.5,-161 264.5,-150.11 261.45,-141.58 256.33,-135.44"/>
<polygon fill="none" stroke="#404040" points="256.11,-135.25 248.92,-134.61 246.76,-127.73 253.94,-128.38 256.11,-135.25"/>
<text text-anchor="middle" x="290.5" y="-158.5" font-family="Helvetica,sans-Serif" font-size="10.00"> &#45;eventLoop</text>
</g>
<!-- Node2 -->
<g id="node2" class="node">
<title>Node2</title>
<g id="a_node2"><a xlink:href="classcore_1_1_event_dispatcher.html" target="_top" xlink:title=" ">
<polygon fill="white" stroke="black" points="11.5,-402.5 11.5,-646.5 154.5,-646.5 154.5,-402.5 11.5,-402.5"/>
<text text-anchor="middle" x="83" y="-634.5" font-family="Helvetica,sans-Serif" font-size="10.00">core::EventDispatcher</text>
<polyline fill="none" stroke="black" points="11.5,-627.5 154.5,-627.5 "/>
<text text-anchor="start" x="19.5" y="-615.5" font-family="Helvetica,sans-Serif" font-size="10.00">&#45; enabledEventReceiver</text>
<text text-anchor="start" x="19.5" y="-604.5" font-family="Helvetica,sans-Serif" font-size="10.00">&#45; observedEventReceiver</text>
<text text-anchor="start" x="19.5" y="-593.5" font-family="Helvetica,sans-Serif" font-size="10.00">&#45; disabledEventReceiver</text>
<text text-anchor="start" x="19.5" y="-582.5" font-family="Helvetica,sans-Serif" font-size="10.00">&#45; eventCounter</text>
<polyline fill="none" stroke="black" points="11.5,-575.5 154.5,-575.5 "/>
<text text-anchor="start" x="19.5" y="-563.5" font-family="Helvetica,sans-Serif" font-size="10.00">+ EventDispatcher()</text>
<text text-anchor="start" x="19.5" y="-552.5" font-family="Helvetica,sans-Serif" font-size="10.00">+ enable()</text>
<text text-anchor="start" x="19.5" y="-541.5" font-family="Helvetica,sans-Serif" font-size="10.00">+ disable()</text>
<text text-anchor="start" x="19.5" y="-530.5" font-family="Helvetica,sans-Serif" font-size="10.00">+ suspend()</text>
<text text-anchor="start" x="19.5" y="-519.5" font-family="Helvetica,sans-Serif" font-size="10.00">+ resume()</text>
<text text-anchor="start" x="19.5" y="-508.5" font-family="Helvetica,sans-Serif" font-size="10.00">+ getEventCounter()</text>
<text text-anchor="start" x="19.5" y="-497.5" font-family="Helvetica,sans-Serif" font-size="10.00">&#45; EventDispatcher()</text>
<text text-anchor="start" x="19.5" y="-486.5" font-family="Helvetica,sans-Serif" font-size="10.00">&#45; operator=()</text>
<text text-anchor="start" x="19.5" y="-475.5" font-family="Helvetica,sans-Serif" font-size="10.00">&#45; getMaxFd()</text>
<text text-anchor="start" x="19.5" y="-464.5" font-family="Helvetica,sans-Serif" font-size="10.00">&#45; getFdSet()</text>
<text text-anchor="start" x="19.5" y="-453.5" font-family="Helvetica,sans-Serif" font-size="10.00">&#45; dispatchActiveEvents()</text>
<text text-anchor="start" x="19.5" y="-442.5" font-family="Helvetica,sans-Serif" font-size="10.00">&#45; observeEnabledEvents()</text>
<text text-anchor="start" x="19.5" y="-431.5" font-family="Helvetica,sans-Serif" font-size="10.00">&#45; unobserveDisabledEvents()</text>
<text text-anchor="start" x="19.5" y="-420.5" font-family="Helvetica,sans-Serif" font-size="10.00">&#45; releaseUnobservedEvents()</text>
<text text-anchor="start" x="19.5" y="-409.5" font-family="Helvetica,sans-Serif" font-size="10.00">&#45; disableObservedEvents()</text>
</a>
</g>
</g>
<!-- Node2&#45;&gt;Node1 -->
<g id="edge1" class="edge">
<title>Node2&#45;&gt;Node1</title>
<path fill="none" stroke="#404040" d="M80.38,-402.23C81.79,-381.3 84.44,-359.88 89,-340 89.5,-337.81 90.03,-335.61 90.59,-333.41"/>
<polygon fill="none" stroke="#404040" points="90.65,-333.19 88.35,-326.35 93.78,-321.6 96.08,-328.44 90.65,-333.19"/>
<text text-anchor="start" x="89" y="-376" font-family="Helvetica,sans-Serif" font-size="10.00"> &#45;exceptionalConditionEvent</text>
<text text-anchor="middle" x="150.5" y="-365" font-family="Helvetica,sans-Serif" font-size="10.00">Dispatcher</text>
<text text-anchor="middle" x="150.5" y="-354" font-family="Helvetica,sans-Serif" font-size="10.00">&#45;readEventDispatcher</text>
<text text-anchor="middle" x="150.5" y="-343" font-family="Helvetica,sans-Serif" font-size="10.00">&#45;writeEventDispatcher</text>
</g>
<!-- Node3 -->
<g id="node3" class="node">
<title>Node3</title>
<g id="a_node3"><a xlink:href="classcore_1_1_event_dispatcher_1_1_fd_set.html" target="_top" xlink:title=" ">
<polygon fill="white" stroke="black" points="0,-694.5 0,-828.5 114,-828.5 114,-694.5 0,-694.5"/>
<text text-anchor="start" x="8" y="-816.5" font-family="Helvetica,sans-Serif" font-size="10.00">core::EventDispatcher</text>
<text text-anchor="middle" x="57" y="-805.5" font-family="Helvetica,sans-Serif" font-size="10.00">::FdSet</text>
<polyline fill="none" stroke="black" points="0,-798.5 114,-798.5 "/>
<text text-anchor="start" x="8" y="-786.5" font-family="Helvetica,sans-Serif" font-size="10.00"># registered</text>
<text text-anchor="start" x="8" y="-775.5" font-family="Helvetica,sans-Serif" font-size="10.00"># active</text>
<polyline fill="none" stroke="black" points="0,-768.5 114,-768.5 "/>
<text text-anchor="start" x="8" y="-756.5" font-family="Helvetica,sans-Serif" font-size="10.00">+ FdSet()</text>
<text text-anchor="start" x="8" y="-745.5" font-family="Helvetica,sans-Serif" font-size="10.00">+ set()</text>
<text text-anchor="start" x="8" y="-734.5" font-family="Helvetica,sans-Serif" font-size="10.00">+ clr()</text>
<text text-anchor="start" x="8" y="-723.5" font-family="Helvetica,sans-Serif" font-size="10.00">+ isSet()</text>
<text text-anchor="start" x="8" y="-712.5" font-family="Helvetica,sans-Serif" font-size="10.00">+ zero()</text>
<text text-anchor="start" x="8" y="-701.5" font-family="Helvetica,sans-Serif" font-size="10.00">+ get()</text>
</a>
</g>
</g>
<!-- Node3&#45;&gt;Node2 -->
<g id="edge2" class="edge">
<title>Node3&#45;&gt;Node2</title>
<path fill="none" stroke="#404040" d="M64.31,-694.41C65.55,-683.21 66.88,-671.24 68.23,-659.03"/>
<polygon fill="none" stroke="#404040" points="68.26,-658.68 64.95,-652.28 69.58,-646.76 72.9,-653.16 68.26,-658.68"/>
<text text-anchor="middle" x="82" y="-668" font-family="Helvetica,sans-Serif" font-size="10.00"> &#45;fdSet</text>
</g>
<!-- Node4 -->
<g id="node4" class="node">
<title>Node4</title>
<g id="a_node4"><a xlink:href="classcore_1_1_event_dispatcher_1_1_descriptor_event_receiver_list.html" target="_top" xlink:title=" ">
<polygon fill="white" stroke="black" points="132,-727.5 132,-795.5 280,-795.5 280,-727.5 132,-727.5"/>
<text text-anchor="start" x="140" y="-783.5" font-family="Helvetica,sans-Serif" font-size="10.00">core::EventDispatcher</text>
<text text-anchor="middle" x="206" y="-772.5" font-family="Helvetica,sans-Serif" font-size="10.00">::DescriptorEventReceiverList</text>
<polyline fill="none" stroke="black" points="132,-765.5 280,-765.5 "/>
<text text-anchor="middle" x="206" y="-753.5" font-family="Helvetica,sans-Serif" font-size="10.00"> </text>
<polyline fill="none" stroke="black" points="132,-746.5 280,-746.5 "/>
<text text-anchor="start" x="140" y="-734.5" font-family="Helvetica,sans-Serif" font-size="10.00">+ contains()</text>
</a>
</g>
</g>
<!-- Node4&#45;&gt;Node2 -->
<g id="edge3" class="edge">
<title>Node4&#45;&gt;Node2</title>
<path fill="none" stroke="#404040" d="M188.64,-727.33C178.74,-708.42 165.63,-683.37 152.01,-657.35"/>
<polygon fill="none" stroke="#404040" points="151.93,-657.19 145.6,-653.73 146.36,-646.56 152.69,-650.02 151.93,-657.19"/>
<text text-anchor="middle" x="220.5" y="-668" font-family="Helvetica,sans-Serif" font-size="10.00"> &#45;unobservedEventReceiver</text>
</g>
<!-- Node5 -->
<g id="node5" class="node">
<title>Node5</title>
<g id="a_node5"><a xlink:title=" ">
<polygon fill="white" stroke="#bfbfbf" points="137,-866.5 137,-923.5 275,-923.5 275,-866.5 137,-866.5"/>
<text text-anchor="middle" x="206" y="-911.5" font-family="Helvetica,sans-Serif" font-size="10.00">std::list&lt; EventReceiver * &gt;</text>
<polyline fill="none" stroke="#bfbfbf" points="137,-904.5 275,-904.5 "/>
<text text-anchor="middle" x="206" y="-892.5" font-family="Helvetica,sans-Serif" font-size="10.00"> </text>
<polyline fill="none" stroke="#bfbfbf" points="137,-885.5 275,-885.5 "/>
<text text-anchor="middle" x="206" y="-873.5" font-family="Helvetica,sans-Serif" font-size="10.00"> </text>
</a>
</g>
</g>
<!-- Node5&#45;&gt;Node4 -->
<g id="edge4" class="edge">
<title>Node5&#45;&gt;Node4</title>
<path fill="none" stroke="midnightblue" d="M206,-856.25C206,-837.11 206,-814.07 206,-795.62"/>
<polygon fill="none" stroke="midnightblue" points="202.5,-856.43 206,-866.43 209.5,-856.43 202.5,-856.43"/>
</g>
<!-- Node6 -->
<g id="node6" class="node">
<title>Node6</title>
<g id="a_node6"><a xlink:href="classcore_1_1_timer_event_dispatcher.html" target="_top" xlink:title=" ">
<polygon fill="white" stroke="black" points="172.5,-446.5 172.5,-602.5 311.5,-602.5 311.5,-446.5 172.5,-446.5"/>
<text text-anchor="middle" x="242" y="-590.5" font-family="Helvetica,sans-Serif" font-size="10.00">core::TimerEventDispatcher</text>
<polyline fill="none" stroke="black" points="172.5,-583.5 311.5,-583.5 "/>
<text text-anchor="start" x="180.5" y="-571.5" font-family="Helvetica,sans-Serif" font-size="10.00">&#45; timerList</text>
<text text-anchor="start" x="180.5" y="-560.5" font-family="Helvetica,sans-Serif" font-size="10.00">&#45; addedList</text>
<text text-anchor="start" x="180.5" y="-549.5" font-family="Helvetica,sans-Serif" font-size="10.00">&#45; removedList</text>
<text text-anchor="start" x="180.5" y="-538.5" font-family="Helvetica,sans-Serif" font-size="10.00">&#45; timerListDirty</text>
<polyline fill="none" stroke="black" points="172.5,-531.5 311.5,-531.5 "/>
<text text-anchor="start" x="180.5" y="-519.5" font-family="Helvetica,sans-Serif" font-size="10.00">+ TimerEventDispatcher()</text>
<text text-anchor="start" x="180.5" y="-508.5" font-family="Helvetica,sans-Serif" font-size="10.00">+ getNextTimeout()</text>
<text text-anchor="start" x="180.5" y="-497.5" font-family="Helvetica,sans-Serif" font-size="10.00">+ dispatch()</text>
<text text-anchor="start" x="180.5" y="-486.5" font-family="Helvetica,sans-Serif" font-size="10.00">+ remove()</text>
<text text-anchor="start" x="180.5" y="-475.5" font-family="Helvetica,sans-Serif" font-size="10.00">+ add()</text>
<text text-anchor="start" x="180.5" y="-464.5" font-family="Helvetica,sans-Serif" font-size="10.00">+ empty()</text>
<text text-anchor="start" x="180.5" y="-453.5" font-family="Helvetica,sans-Serif" font-size="10.00">+ cancelAll()</text>
</a>
</g>
</g>
<!-- Node6&#45;&gt;Node1 -->
<g id="edge6" class="edge">
<title>Node6&#45;&gt;Node1</title>
<path fill="none" stroke="#404040" d="M233.21,-446.36C228.9,-413.43 223.1,-374.67 216,-340 215.58,-337.95 215.15,-335.89 214.71,-333.82"/>
<polygon fill="none" stroke="#404040" points="214.67,-333.61 209.48,-328.6 212.11,-321.89 217.29,-326.9 214.67,-333.61"/>
<text text-anchor="middle" x="274.5" y="-359.5" font-family="Helvetica,sans-Serif" font-size="10.00"> &#45;timerEventDispatcher</text>
</g>
</g>
</svg>
