<?xml version="1.0" encoding="UTF-8" standalone="no"?>
<!DOCTYPE svg PUBLIC "-//W3C//DTD SVG 1.1//EN"
 "http://www.w3.org/Graphics/SVG/1.1/DTD/svg11.dtd">
<!-- Generated by graphviz version 2.43.0 (0)
 -->
<!-- Title: database::mariadb::commands::async::MariaDBAutoCommitCommand Pages: 1 -->
<svg width="1224pt" height="1466pt"
 viewBox="0.00 0.00 1223.50 1466.00" xmlns="http://www.w3.org/2000/svg" xmlns:xlink="http://www.w3.org/1999/xlink">
<g id="graph0" class="graph" transform="scale(1 1) rotate(0) translate(4 1462)">
<title>database::mariadb::commands::async::MariaDBAutoCommitCommand</title>
<polygon fill="white" stroke="transparent" points="-4,4 -4,-1462 1219.5,-1462 1219.5,4 -4,4"/>
<!-- Node1 -->
<g id="node1" class="node">
<title>Node1</title>
<g id="a_node1"><a xlink:title=" ">
<polygon fill="#bfbfbf" stroke="black" points="0,-0.5 0,-156.5 189,-156.5 189,-0.5 0,-0.5"/>
<text text-anchor="start" x="8" y="-144.5" font-family="Helvetica,sans-Serif" font-size="10.00">database::mariadb::</text>
<text text-anchor="start" x="8" y="-133.5" font-family="Helvetica,sans-Serif" font-size="10.00">commands::async::MariaDBAuto</text>
<text text-anchor="middle" x="94.5" y="-122.5" font-family="Helvetica,sans-Serif" font-size="10.00">CommitCommand</text>
<polyline fill="none" stroke="black" points="0,-115.5 189,-115.5 "/>
<text text-anchor="start" x="8" y="-103.5" font-family="Helvetica,sans-Serif" font-size="10.00"># ret</text>
<text text-anchor="start" x="8" y="-92.5" font-family="Helvetica,sans-Serif" font-size="10.00"># autoCommit</text>
<text text-anchor="start" x="8" y="-81.5" font-family="Helvetica,sans-Serif" font-size="10.00"># onAutoCommit</text>
<polyline fill="none" stroke="black" points="0,-74.5 189,-74.5 "/>
<text text-anchor="start" x="8" y="-62.5" font-family="Helvetica,sans-Serif" font-size="10.00">+ MariaDBAutoCommitCommand()</text>
<text text-anchor="start" x="8" y="-51.5" font-family="Helvetica,sans-Serif" font-size="10.00">+ commandStart()</text>
<text text-anchor="start" x="8" y="-40.5" font-family="Helvetica,sans-Serif" font-size="10.00">+ commandContinue()</text>
<text text-anchor="start" x="8" y="-29.5" font-family="Helvetica,sans-Serif" font-size="10.00">+ commandCompleted()</text>
<text text-anchor="start" x="8" y="-18.5" font-family="Helvetica,sans-Serif" font-size="10.00">+ commandError()</text>
<text text-anchor="start" x="8" y="-7.5" font-family="Helvetica,sans-Serif" font-size="10.00">+ commandInfo()</text>
</a>
</g>
</g>
<!-- Node2 -->
<g id="node2" class="node">
<title>Node2</title>
<g id="a_node2"><a xlink:href="classdatabase_1_1mariadb_1_1_maria_d_b_command_a_sync.html" target="_top" xlink:title=" ">
<polygon fill="white" stroke="black" points="25,-309 25,-377 164,-377 164,-309 25,-309"/>
<text text-anchor="start" x="33" y="-365" font-family="Helvetica,sans-Serif" font-size="10.00">database::mariadb::</text>
<text text-anchor="middle" x="94.5" y="-354" font-family="Helvetica,sans-Serif" font-size="10.00">MariaDBCommandASync</text>
<polyline fill="none" stroke="black" points="25,-347 164,-347 "/>
<text text-anchor="middle" x="94.5" y="-335" font-family="Helvetica,sans-Serif" font-size="10.00"> </text>
<polyline fill="none" stroke="black" points="25,-328 164,-328 "/>
<text text-anchor="start" x="33" y="-316" font-family="Helvetica,sans-Serif" font-size="10.00">+ MariaDBCommand()</text>
</a>
</g>
</g>
<!-- Node2&#45;&gt;Node1 -->
<g id="edge1" class="edge">
<title>Node2&#45;&gt;Node1</title>
<path fill="none" stroke="midnightblue" d="M94.5,-298.42C94.5,-259.93 94.5,-202.92 94.5,-156.73"/>
<polygon fill="none" stroke="midnightblue" points="91,-298.75 94.5,-308.75 98,-298.75 91,-298.75"/>
</g>
<!-- Node3 -->
<g id="node3" class="node">
<title>Node3</title>
<g id="a_node3"><a xlink:href="classdatabase_1_1mariadb_1_1_maria_d_b_command.html" target="_top" xlink:title=" ">
<polygon fill="white" stroke="black" points="37,-529.5 37,-718.5 184,-718.5 184,-529.5 37,-529.5"/>
<text text-anchor="start" x="45" y="-706.5" font-family="Helvetica,sans-Serif" font-size="10.00">database::mariadb::</text>
<text text-anchor="middle" x="110.5" y="-695.5" font-family="Helvetica,sans-Serif" font-size="10.00">MariaDBCommand</text>
<polyline fill="none" stroke="black" points="37,-688.5 184,-688.5 "/>
<text text-anchor="start" x="45" y="-676.5" font-family="Helvetica,sans-Serif" font-size="10.00">+ onError</text>
<text text-anchor="start" x="45" y="-665.5" font-family="Helvetica,sans-Serif" font-size="10.00"># name</text>
<text text-anchor="start" x="45" y="-654.5" font-family="Helvetica,sans-Serif" font-size="10.00"># mysql</text>
<polyline fill="none" stroke="black" points="37,-647.5 184,-647.5 "/>
<text text-anchor="start" x="45" y="-635.5" font-family="Helvetica,sans-Serif" font-size="10.00">+ MariaDBCommand()</text>
<text text-anchor="start" x="45" y="-624.5" font-family="Helvetica,sans-Serif" font-size="10.00">+ ~MariaDBCommand()</text>
<text text-anchor="start" x="45" y="-613.5" font-family="Helvetica,sans-Serif" font-size="10.00">+ commandName()</text>
<text text-anchor="start" x="45" y="-602.5" font-family="Helvetica,sans-Serif" font-size="10.00">+ commandStart()</text>
<text text-anchor="start" x="45" y="-591.5" font-family="Helvetica,sans-Serif" font-size="10.00">+ setMariaDBConnection()</text>
<text text-anchor="start" x="45" y="-580.5" font-family="Helvetica,sans-Serif" font-size="10.00">+ commandContinue()</text>
<text text-anchor="start" x="45" y="-569.5" font-family="Helvetica,sans-Serif" font-size="10.00">+ commandCompleted()</text>
<text text-anchor="start" x="45" y="-558.5" font-family="Helvetica,sans-Serif" font-size="10.00">+ commandError()</text>
<text text-anchor="start" x="45" y="-547.5" font-family="Helvetica,sans-Serif" font-size="10.00">+ commandInfo()</text>
<text text-anchor="start" x="45" y="-536.5" font-family="Helvetica,sans-Serif" font-size="10.00">&#45; commandStart()</text>
</a>
</g>
</g>
<!-- Node3&#45;&gt;Node2 -->
<g id="edge2" class="edge">
<title>Node3&#45;&gt;Node2</title>
<path fill="none" stroke="midnightblue" d="M104.54,-519.05C101.66,-468.83 98.4,-412.04 96.4,-377.12"/>
<polygon fill="none" stroke="midnightblue" points="101.06,-519.54 105.13,-529.32 108.05,-519.14 101.06,-519.54"/>
</g>
<!-- Node5 -->
<g id="node5" class="node">
<title>Node5</title>
<g id="a_node5"><a xlink:href="classdatabase_1_1mariadb_1_1_maria_d_b_connection.html" target="_top" xlink:title=" ">
<polygon fill="white" stroke="black" points="291,-204.5 291,-481.5 442,-481.5 442,-204.5 291,-204.5"/>
<text text-anchor="start" x="299" y="-469.5" font-family="Helvetica,sans-Serif" font-size="10.00">database::mariadb::</text>
<text text-anchor="middle" x="366.5" y="-458.5" font-family="Helvetica,sans-Serif" font-size="10.00">MariaDBConnection</text>
<polyline fill="none" stroke="black" points="291,-451.5 442,-451.5 "/>
<text text-anchor="start" x="299" y="-439.5" font-family="Helvetica,sans-Serif" font-size="10.00">&#45; mysql</text>
<text text-anchor="start" x="299" y="-428.5" font-family="Helvetica,sans-Serif" font-size="10.00">&#45; commandSequenceQueue</text>
<text text-anchor="start" x="299" y="-417.5" font-family="Helvetica,sans-Serif" font-size="10.00">&#45; connected</text>
<polyline fill="none" stroke="black" points="291,-410.5 442,-410.5 "/>
<text text-anchor="start" x="299" y="-398.5" font-family="Helvetica,sans-Serif" font-size="10.00">+ MariaDBConnection()</text>
<text text-anchor="start" x="299" y="-387.5" font-family="Helvetica,sans-Serif" font-size="10.00">+ MariaDBConnection()</text>
<text text-anchor="start" x="299" y="-376.5" font-family="Helvetica,sans-Serif" font-size="10.00">+ ~MariaDBConnection()</text>
<text text-anchor="start" x="299" y="-365.5" font-family="Helvetica,sans-Serif" font-size="10.00">+ operator=()</text>
<text text-anchor="start" x="299" y="-354.5" font-family="Helvetica,sans-Serif" font-size="10.00">+ execute_async()</text>
<text text-anchor="start" x="299" y="-343.5" font-family="Helvetica,sans-Serif" font-size="10.00">+ execute_sync()</text>
<text text-anchor="start" x="299" y="-332.5" font-family="Helvetica,sans-Serif" font-size="10.00">+ commandStart()</text>
<text text-anchor="start" x="299" y="-321.5" font-family="Helvetica,sans-Serif" font-size="10.00">+ commandContinue()</text>
<text text-anchor="start" x="299" y="-310.5" font-family="Helvetica,sans-Serif" font-size="10.00">+ commandCompleted()</text>
<text text-anchor="start" x="299" y="-299.5" font-family="Helvetica,sans-Serif" font-size="10.00">+ unmanaged()</text>
<text text-anchor="start" x="299" y="-288.5" font-family="Helvetica,sans-Serif" font-size="10.00"># checkStatus()</text>
<text text-anchor="start" x="299" y="-277.5" font-family="Helvetica,sans-Serif" font-size="10.00"># readEvent()</text>
<text text-anchor="start" x="299" y="-266.5" font-family="Helvetica,sans-Serif" font-size="10.00"># writeEvent()</text>
<text text-anchor="start" x="299" y="-255.5" font-family="Helvetica,sans-Serif" font-size="10.00"># outOfBandEvent()</text>
<text text-anchor="start" x="299" y="-244.5" font-family="Helvetica,sans-Serif" font-size="10.00"># readTimeout()</text>
<text text-anchor="start" x="299" y="-233.5" font-family="Helvetica,sans-Serif" font-size="10.00"># writeTimeout()</text>
<text text-anchor="start" x="299" y="-222.5" font-family="Helvetica,sans-Serif" font-size="10.00"># outOfBandTimeout()</text>
<text text-anchor="start" x="299" y="-211.5" font-family="Helvetica,sans-Serif" font-size="10.00"># unobservedEvent()</text>
</a>
</g>
</g>
<!-- Node3&#45;&gt;Node5 -->
<g id="edge25" class="edge">
<title>Node3&#45;&gt;Node5</title>
<path fill="none" stroke="#404040" d="M110.08,-529.32C113.14,-518.72 117.76,-508.64 124.5,-500 138.52,-482.04 152.38,-492.69 172.5,-482 209.71,-462.22 248.05,-436.31 280.72,-412.29"/>
<polygon fill="none" stroke="#404040" points="281.04,-412.05 283.47,-405.26 290.67,-404.9 288.24,-411.69 281.04,-412.05"/>
<text text-anchor="middle" x="170.5" y="-503" font-family="Helvetica,sans-Serif" font-size="10.00"> &#45;currentCommand</text>
</g>
<!-- Node4 -->
<g id="node4" class="node">
<title>Node4</title>
<g id="a_node4"><a xlink:href="classutils_1_1_timeval.html" target="_top" xlink:title=" ">
<polygon fill="white" stroke="black" points="87.5,-1197 87.5,-1386 181.5,-1386 181.5,-1197 87.5,-1197"/>
<text text-anchor="middle" x="134.5" y="-1374" font-family="Helvetica,sans-Serif" font-size="10.00">utils::Timeval</text>
<polyline fill="none" stroke="black" points="87.5,-1367 181.5,-1367 "/>
<text text-anchor="start" x="95.5" y="-1355" font-family="Helvetica,sans-Serif" font-size="10.00">&#45; timeVal</text>
<polyline fill="none" stroke="black" points="87.5,-1348 181.5,-1348 "/>
<text text-anchor="start" x="95.5" y="-1336" font-family="Helvetica,sans-Serif" font-size="10.00">+ Timeval()</text>
<text text-anchor="start" x="95.5" y="-1325" font-family="Helvetica,sans-Serif" font-size="10.00">+ Timeval()</text>
<text text-anchor="start" x="95.5" y="-1314" font-family="Helvetica,sans-Serif" font-size="10.00">+ Timeval()</text>
<text text-anchor="start" x="95.5" y="-1303" font-family="Helvetica,sans-Serif" font-size="10.00">+ Timeval()</text>
<text text-anchor="start" x="95.5" y="-1292" font-family="Helvetica,sans-Serif" font-size="10.00">+ Timeval()</text>
<text text-anchor="start" x="95.5" y="-1281" font-family="Helvetica,sans-Serif" font-size="10.00">+ operator=()</text>
<text text-anchor="start" x="95.5" y="-1270" font-family="Helvetica,sans-Serif" font-size="10.00">+ operator=()</text>
<text text-anchor="start" x="95.5" y="-1259" font-family="Helvetica,sans-Serif" font-size="10.00">+ operator+()</text>
<text text-anchor="start" x="95.5" y="-1248" font-family="Helvetica,sans-Serif" font-size="10.00">+ operator&#45;()</text>
<text text-anchor="start" x="95.5" y="-1237" font-family="Helvetica,sans-Serif" font-size="10.00">+ operator+=()</text>
<text text-anchor="start" x="95.5" y="-1226" font-family="Helvetica,sans-Serif" font-size="10.00">and 12 more...</text>
<text text-anchor="start" x="95.5" y="-1215" font-family="Helvetica,sans-Serif" font-size="10.00">+ currentTime()</text>
<text text-anchor="start" x="95.5" y="-1204" font-family="Helvetica,sans-Serif" font-size="10.00">&#45; normalize()</text>
</a>
</g>
</g>
<!-- Node4&#45;&gt;Node3 -->
<g id="edge3" class="edge">
<title>Node4&#45;&gt;Node3</title>
<path fill="none" stroke="#404040" d="M131.12,-1196.91C126.7,-1074.14 118.95,-859.25 114.31,-730.73"/>
<polygon fill="none" stroke="#404040" points="114.31,-730.56 110.09,-724.71 113.87,-718.57 118.09,-724.42 114.31,-730.56"/>
<text text-anchor="middle" x="155.5" y="-903.5" font-family="Helvetica,sans-Serif" font-size="10.00"> #startTime</text>
</g>
<!-- Node7 -->
<g id="node7" class="node">
<title>Node7</title>
<g id="a_node7"><a xlink:href="classcore_1_1_descriptor_event_receiver.html" target="_top" xlink:title=" ">
<polygon fill="white" stroke="black" points="350.5,-756.5 350.5,-1055.5 514.5,-1055.5 514.5,-756.5 350.5,-756.5"/>
<text text-anchor="middle" x="432.5" y="-1043.5" font-family="Helvetica,sans-Serif" font-size="10.00">core::DescriptorEventReceiver</text>
<polyline fill="none" stroke="black" points="350.5,-1036.5 514.5,-1036.5 "/>
<text text-anchor="start" x="358.5" y="-1024.5" font-family="Helvetica,sans-Serif" font-size="10.00">&#45; observedFd</text>
<text text-anchor="start" x="358.5" y="-1013.5" font-family="Helvetica,sans-Serif" font-size="10.00">&#45; enabled</text>
<text text-anchor="start" x="358.5" y="-1002.5" font-family="Helvetica,sans-Serif" font-size="10.00">&#45; suspended</text>
<text text-anchor="start" x="358.5" y="-991.5" font-family="Helvetica,sans-Serif" font-size="10.00">&#45; eventCounter</text>
<polyline fill="none" stroke="black" points="350.5,-984.5 514.5,-984.5 "/>
<text text-anchor="start" x="358.5" y="-972.5" font-family="Helvetica,sans-Serif" font-size="10.00">+ getRegisteredFd()</text>
<text text-anchor="start" x="358.5" y="-961.5" font-family="Helvetica,sans-Serif" font-size="10.00">+ getTimeout()</text>
<text text-anchor="start" x="358.5" y="-950.5" font-family="Helvetica,sans-Serif" font-size="10.00">+ isEnabled()</text>
<text text-anchor="start" x="358.5" y="-939.5" font-family="Helvetica,sans-Serif" font-size="10.00">+ isSuspended()</text>
<text text-anchor="start" x="358.5" y="-928.5" font-family="Helvetica,sans-Serif" font-size="10.00"># DescriptorEventReceiver()</text>
<text text-anchor="start" x="358.5" y="-917.5" font-family="Helvetica,sans-Serif" font-size="10.00"># enable()</text>
<text text-anchor="start" x="358.5" y="-906.5" font-family="Helvetica,sans-Serif" font-size="10.00"># disable()</text>
<text text-anchor="start" x="358.5" y="-895.5" font-family="Helvetica,sans-Serif" font-size="10.00"># suspend()</text>
<text text-anchor="start" x="358.5" y="-884.5" font-family="Helvetica,sans-Serif" font-size="10.00"># resume()</text>
<text text-anchor="start" x="358.5" y="-873.5" font-family="Helvetica,sans-Serif" font-size="10.00"># setTimeout()</text>
<text text-anchor="start" x="358.5" y="-862.5" font-family="Helvetica,sans-Serif" font-size="10.00"># checkTimeout()</text>
<text text-anchor="start" x="358.5" y="-851.5" font-family="Helvetica,sans-Serif" font-size="10.00"># terminate()</text>
<text text-anchor="start" x="358.5" y="-840.5" font-family="Helvetica,sans-Serif" font-size="10.00">&#45; DescriptorEventReceiver()</text>
<text text-anchor="start" x="358.5" y="-829.5" font-family="Helvetica,sans-Serif" font-size="10.00">&#45; operator=()</text>
<text text-anchor="start" x="358.5" y="-818.5" font-family="Helvetica,sans-Serif" font-size="10.00">&#45; event()</text>
<text text-anchor="start" x="358.5" y="-807.5" font-family="Helvetica,sans-Serif" font-size="10.00">&#45; triggered()</text>
<text text-anchor="start" x="358.5" y="-796.5" font-family="Helvetica,sans-Serif" font-size="10.00">&#45; setEnabled()</text>
<text text-anchor="start" x="358.5" y="-785.5" font-family="Helvetica,sans-Serif" font-size="10.00">&#45; setDisabled()</text>
<text text-anchor="start" x="358.5" y="-774.5" font-family="Helvetica,sans-Serif" font-size="10.00">&#45; dispatchEvent()</text>
<text text-anchor="start" x="358.5" y="-763.5" font-family="Helvetica,sans-Serif" font-size="10.00">&#45; timeoutEvent()</text>
</a>
</g>
</g>
<!-- Node4&#45;&gt;Node7 -->
<g id="edge11" class="edge">
<title>Node4&#45;&gt;Node7</title>
<path fill="none" stroke="#404040" d="M157.62,-1196.9C166.07,-1172.34 177.18,-1146.68 191.5,-1125 231,-1065.18 290.66,-1011.04 340.74,-971.67"/>
<polygon fill="none" stroke="#404040" points="340.81,-971.61 343.1,-964.77 350.29,-964.25 348.01,-971.09 340.81,-971.61"/>
<text text-anchor="middle" x="267" y="-1099" font-family="Helvetica,sans-Serif" font-size="10.00"> &#45;initialTimeout</text>
<text text-anchor="middle" x="267" y="-1088" font-family="Helvetica,sans-Serif" font-size="10.00">&#45;lastTriggered</text>
<text text-anchor="middle" x="267" y="-1077" font-family="Helvetica,sans-Serif" font-size="10.00">&#45;maxInactivity</text>
</g>
<!-- Node5&#45;&gt;Node3 -->
<g id="edge4" class="edge">
<title>Node5&#45;&gt;Node3</title>
<path fill="none" stroke="#404040" d="M290.65,-439.53C269.18,-464.05 244.96,-489.54 220.5,-511 209.66,-520.51 204.36,-519.51 193.5,-529 193.4,-529.09 193.31,-529.17 193.21,-529.26"/>
<polygon fill="none" stroke="#404040" points="193.06,-529.39 191.31,-536.39 184.18,-537.47 185.93,-530.47 193.06,-529.39"/>
<text text-anchor="middle" x="284" y="-503" font-family="Helvetica,sans-Serif" font-size="10.00"> #mariaDBConnection</text>
</g>
<!-- Node14 -->
<g id="node14" class="node">
<title>Node14</title>
<g id="a_node14"><a xlink:href="classdatabase_1_1mariadb_1_1_maria_d_b_command_start_event.html" target="_top" xlink:title=" ">
<polygon fill="white" stroke="black" points="244,-28 244,-129 431,-129 431,-28 244,-28"/>
<text text-anchor="start" x="252" y="-117" font-family="Helvetica,sans-Serif" font-size="10.00">database::mariadb::</text>
<text text-anchor="middle" x="337.5" y="-106" font-family="Helvetica,sans-Serif" font-size="10.00">MariaDBCommandStartEvent</text>
<polyline fill="none" stroke="black" points="244,-99 431,-99 "/>
<text text-anchor="middle" x="337.5" y="-87" font-family="Helvetica,sans-Serif" font-size="10.00"> </text>
<polyline fill="none" stroke="black" points="244,-80 431,-80 "/>
<text text-anchor="start" x="252" y="-68" font-family="Helvetica,sans-Serif" font-size="10.00">+ MariaDBCommandStartEvent()</text>
<text text-anchor="start" x="252" y="-57" font-family="Helvetica,sans-Serif" font-size="10.00">+ ~MariaDBCommandStartEvent()</text>
<text text-anchor="start" x="252" y="-46" font-family="Helvetica,sans-Serif" font-size="10.00">+ publish()</text>
<text text-anchor="start" x="252" y="-35" font-family="Helvetica,sans-Serif" font-size="10.00">&#45; event()</text>
</a>
</g>
</g>
<!-- Node5&#45;&gt;Node14 -->
<g id="edge19" class="edge">
<title>Node5&#45;&gt;Node14</title>
<path fill="none" stroke="#404040" d="M290.76,-277.15C266.37,-251.54 242.34,-220.07 229.5,-186 222.84,-168.31 228.4,-152.17 239.86,-138.1"/>
<polygon fill="none" stroke="#404040" points="240,-137.95 241.15,-130.83 248.17,-129.16 247.01,-136.27 240,-137.95"/>
<text text-anchor="middle" x="282" y="-178" font-family="Helvetica,sans-Serif" font-size="10.00"> &#45;mariaDBConnection</text>
</g>
<!-- Node15 -->
<g id="node15" class="node">
<title>Node15</title>
<g id="a_node15"><a xlink:href="classdatabase_1_1mariadb_1_1_maria_d_b_client.html" target="_top" xlink:title=" ">
<polygon fill="white" stroke="black" points="733,-22.5 733,-134.5 862,-134.5 862,-22.5 733,-22.5"/>
<text text-anchor="start" x="741" y="-122.5" font-family="Helvetica,sans-Serif" font-size="10.00">database::mariadb::</text>
<text text-anchor="middle" x="797.5" y="-111.5" font-family="Helvetica,sans-Serif" font-size="10.00">MariaDBClient</text>
<polyline fill="none" stroke="black" points="733,-104.5 862,-104.5 "/>
<text text-anchor="middle" x="797.5" y="-92.5" font-family="Helvetica,sans-Serif" font-size="10.00"> </text>
<polyline fill="none" stroke="black" points="733,-85.5 862,-85.5 "/>
<text text-anchor="start" x="741" y="-73.5" font-family="Helvetica,sans-Serif" font-size="10.00">+ MariaDBClient()</text>
<text text-anchor="start" x="741" y="-62.5" font-family="Helvetica,sans-Serif" font-size="10.00">+ ~MariaDBClient()</text>
<text text-anchor="start" x="741" y="-51.5" font-family="Helvetica,sans-Serif" font-size="10.00">&#45; execute_async()</text>
<text text-anchor="start" x="741" y="-40.5" font-family="Helvetica,sans-Serif" font-size="10.00">&#45; execute_sync()</text>
<text text-anchor="start" x="741" y="-29.5" font-family="Helvetica,sans-Serif" font-size="10.00">&#45; connectionVanished()</text>
</a>
</g>
</g>
<!-- Node5&#45;&gt;Node15 -->
<g id="edge24" class="edge">
<title>Node5&#45;&gt;Node15</title>
<path fill="none" stroke="#404040" d="M442.02,-246.61C466.19,-220.67 494.52,-194.42 524.5,-175 585.09,-135.75 663.73,-110.47 721.04,-95.84"/>
<polygon fill="none" stroke="#404040" points="721.28,-95.78 726.14,-90.45 732.93,-92.88 728.07,-98.21 721.28,-95.78"/>
<text text-anchor="middle" x="577" y="-178" font-family="Helvetica,sans-Serif" font-size="10.00"> &#45;mariaDBConnection</text>
</g>
<!-- Node6 -->
<g id="node6" class="node">
<title>Node6</title>
<g id="a_node6"><a xlink:href="classcore_1_1eventreceiver_1_1_read_event_receiver.html" target="_top" xlink:title=" ">
<polygon fill="white" stroke="black" points="530,-568 530,-680 661,-680 661,-568 530,-568"/>
<text text-anchor="start" x="538" y="-668" font-family="Helvetica,sans-Serif" font-size="10.00">core::eventreceiver</text>
<text text-anchor="middle" x="595.5" y="-657" font-family="Helvetica,sans-Serif" font-size="10.00">::ReadEventReceiver</text>
<polyline fill="none" stroke="black" points="530,-650 661,-650 "/>
<text text-anchor="middle" x="595.5" y="-638" font-family="Helvetica,sans-Serif" font-size="10.00"> </text>
<polyline fill="none" stroke="black" points="530,-631 661,-631 "/>
<text text-anchor="start" x="538" y="-619" font-family="Helvetica,sans-Serif" font-size="10.00"># ReadEventReceiver()</text>
<text text-anchor="start" x="538" y="-608" font-family="Helvetica,sans-Serif" font-size="10.00">&#45; readEvent()</text>
<text text-anchor="start" x="538" y="-597" font-family="Helvetica,sans-Serif" font-size="10.00">&#45; readTimeout()</text>
<text text-anchor="start" x="538" y="-586" font-family="Helvetica,sans-Serif" font-size="10.00">&#45; dispatchEvent()</text>
<text text-anchor="start" x="538" y="-575" font-family="Helvetica,sans-Serif" font-size="10.00">&#45; timeoutEvent()</text>
</a>
</g>
</g>
<!-- Node6&#45;&gt;Node5 -->
<g id="edge5" class="edge">
<title>Node6&#45;&gt;Node5</title>
<path fill="none" stroke="#8b1a1a" d="M545.4,-559.83C537.12,-549.5 528.59,-538.93 520.5,-529 495.15,-497.9 467.16,-464.11 442.07,-434.02"/>
<polygon fill="none" stroke="#8b1a1a" points="542.69,-562.05 551.67,-567.67 548.15,-557.68 542.69,-562.05"/>
</g>
<!-- Node7&#45;&gt;Node6 -->
<g id="edge6" class="edge">
<title>Node7&#45;&gt;Node6</title>
<path fill="none" stroke="midnightblue" d="M519.79,-755.06C535.39,-728.26 550.71,-701.95 563.44,-680.08"/>
<polygon fill="none" stroke="midnightblue" points="516.72,-753.37 514.72,-763.77 522.77,-756.89 516.72,-753.37"/>
</g>
<!-- Node12 -->
<g id="node12" class="node">
<title>Node12</title>
<g id="a_node12"><a xlink:href="classcore_1_1eventreceiver_1_1_write_event_receiver.html" target="_top" xlink:title=" ">
<polygon fill="white" stroke="black" points="202.5,-568 202.5,-680 334.5,-680 334.5,-568 202.5,-568"/>
<text text-anchor="start" x="210.5" y="-668" font-family="Helvetica,sans-Serif" font-size="10.00">core::eventreceiver</text>
<text text-anchor="middle" x="268.5" y="-657" font-family="Helvetica,sans-Serif" font-size="10.00">::WriteEventReceiver</text>
<polyline fill="none" stroke="black" points="202.5,-650 334.5,-650 "/>
<text text-anchor="middle" x="268.5" y="-638" font-family="Helvetica,sans-Serif" font-size="10.00"> </text>
<polyline fill="none" stroke="black" points="202.5,-631 334.5,-631 "/>
<text text-anchor="start" x="210.5" y="-619" font-family="Helvetica,sans-Serif" font-size="10.00"># WriteEventReceiver()</text>
<text text-anchor="start" x="210.5" y="-608" font-family="Helvetica,sans-Serif" font-size="10.00">&#45; writeEvent()</text>
<text text-anchor="start" x="210.5" y="-597" font-family="Helvetica,sans-Serif" font-size="10.00">&#45; writeTimeout()</text>
<text text-anchor="start" x="210.5" y="-586" font-family="Helvetica,sans-Serif" font-size="10.00">&#45; dispatchEvent()</text>
<text text-anchor="start" x="210.5" y="-575" font-family="Helvetica,sans-Serif" font-size="10.00">&#45; timeoutEvent()</text>
</a>
</g>
</g>
<!-- Node7&#45;&gt;Node12 -->
<g id="edge14" class="edge">
<title>Node7&#45;&gt;Node12</title>
<path fill="none" stroke="midnightblue" d="M345.11,-755.8C329.28,-728.77 313.71,-702.19 300.79,-680.13"/>
<polygon fill="none" stroke="midnightblue" points="342.19,-757.73 350.26,-764.59 348.23,-754.19 342.19,-757.73"/>
</g>
<!-- Node13 -->
<g id="node13" class="node">
<title>Node13</title>
<g id="a_node13"><a xlink:href="classcore_1_1eventreceiver_1_1_exceptional_condition_event_receiver.html" target="_top" xlink:title=" ">
<polygon fill="white" stroke="black" points="353,-557 353,-691 512,-691 512,-557 353,-557"/>
<text text-anchor="start" x="361" y="-679" font-family="Helvetica,sans-Serif" font-size="10.00">core::eventreceiver</text>
<text text-anchor="start" x="361" y="-668" font-family="Helvetica,sans-Serif" font-size="10.00">::ExceptionalConditionEvent</text>
<text text-anchor="middle" x="432.5" y="-657" font-family="Helvetica,sans-Serif" font-size="10.00">Receiver</text>
<polyline fill="none" stroke="black" points="353,-650 512,-650 "/>
<text text-anchor="middle" x="432.5" y="-638" font-family="Helvetica,sans-Serif" font-size="10.00"> </text>
<polyline fill="none" stroke="black" points="353,-631 512,-631 "/>
<text text-anchor="start" x="361" y="-619" font-family="Helvetica,sans-Serif" font-size="10.00"># ExceptionalConditionEvent</text>
<text text-anchor="start" x="361" y="-608" font-family="Helvetica,sans-Serif" font-size="10.00">Receiver()</text>
<text text-anchor="start" x="361" y="-597" font-family="Helvetica,sans-Serif" font-size="10.00">&#45; outOfBandEvent()</text>
<text text-anchor="start" x="361" y="-586" font-family="Helvetica,sans-Serif" font-size="10.00">&#45; outOfBandTimeout()</text>
<text text-anchor="start" x="361" y="-575" font-family="Helvetica,sans-Serif" font-size="10.00">&#45; dispatchEvent()</text>
<text text-anchor="start" x="361" y="-564" font-family="Helvetica,sans-Serif" font-size="10.00">&#45; timeoutEvent()</text>
</a>
</g>
</g>
<!-- Node7&#45;&gt;Node13 -->
<g id="edge16" class="edge">
<title>Node7&#45;&gt;Node13</title>
<path fill="none" stroke="midnightblue" d="M432.5,-746.22C432.5,-726.84 432.5,-707.95 432.5,-691.06"/>
<polygon fill="none" stroke="midnightblue" points="429,-746.39 432.5,-756.39 436,-746.39 429,-746.39"/>
</g>
<!-- Node8 -->
<g id="node8" class="node">
<title>Node8</title>
<g id="a_node8"><a xlink:href="classcore_1_1_observer.html" target="_top" xlink:title=" ">
<polygon fill="white" stroke="black" points="201,-1235.5 201,-1347.5 350,-1347.5 350,-1235.5 201,-1235.5"/>
<text text-anchor="middle" x="275.5" y="-1335.5" font-family="Helvetica,sans-Serif" font-size="10.00">core::Observer</text>
<polyline fill="none" stroke="black" points="201,-1328.5 350,-1328.5 "/>
<text text-anchor="start" x="209" y="-1316.5" font-family="Helvetica,sans-Serif" font-size="10.00">&#45; observationCounter</text>
<polyline fill="none" stroke="black" points="201,-1309.5 350,-1309.5 "/>
<text text-anchor="start" x="209" y="-1297.5" font-family="Helvetica,sans-Serif" font-size="10.00">+ ~Observer()</text>
<text text-anchor="start" x="209" y="-1286.5" font-family="Helvetica,sans-Serif" font-size="10.00">+ isObserved()</text>
<text text-anchor="start" x="209" y="-1275.5" font-family="Helvetica,sans-Serif" font-size="10.00">+ observed()</text>
<text text-anchor="start" x="209" y="-1264.5" font-family="Helvetica,sans-Serif" font-size="10.00">+ unObserved()</text>
<text text-anchor="start" x="209" y="-1253.5" font-family="Helvetica,sans-Serif" font-size="10.00">+ getObservationCounter()</text>
<text text-anchor="start" x="209" y="-1242.5" font-family="Helvetica,sans-Serif" font-size="10.00">+ unobservedEvent()</text>
</a>
</g>
</g>
<!-- Node8&#45;&gt;Node7 -->
<g id="edge7" class="edge">
<title>Node8&#45;&gt;Node7</title>
<path fill="none" stroke="midnightblue" d="M301.98,-1225.81C321.01,-1179.34 347.44,-1114.78 371.54,-1055.9"/>
<polygon fill="none" stroke="midnightblue" points="298.71,-1224.56 298.16,-1235.15 305.19,-1227.22 298.71,-1224.56"/>
</g>
<!-- Node9 -->
<g id="node9" class="node">
<title>Node9</title>
<g id="a_node9"><a xlink:href="classcore_1_1_event_receiver.html" target="_top" xlink:title=" ">
<polygon fill="white" stroke="black" points="649.5,-1235.5 649.5,-1347.5 763.5,-1347.5 763.5,-1235.5 649.5,-1235.5"/>
<text text-anchor="middle" x="706.5" y="-1335.5" font-family="Helvetica,sans-Serif" font-size="10.00">core::EventReceiver</text>
<polyline fill="none" stroke="black" points="649.5,-1328.5 763.5,-1328.5 "/>
<text text-anchor="middle" x="706.5" y="-1316.5" font-family="Helvetica,sans-Serif" font-size="10.00"> </text>
<polyline fill="none" stroke="black" points="649.5,-1309.5 763.5,-1309.5 "/>
<text text-anchor="start" x="657.5" y="-1297.5" font-family="Helvetica,sans-Serif" font-size="10.00">+ EventReceiver()</text>
<text text-anchor="start" x="657.5" y="-1286.5" font-family="Helvetica,sans-Serif" font-size="10.00">+ ~EventReceiver()</text>
<text text-anchor="start" x="657.5" y="-1275.5" font-family="Helvetica,sans-Serif" font-size="10.00">+ publish()</text>
<text text-anchor="start" x="657.5" y="-1264.5" font-family="Helvetica,sans-Serif" font-size="10.00">+ unPublish()</text>
<text text-anchor="start" x="657.5" y="-1253.5" font-family="Helvetica,sans-Serif" font-size="10.00">+ event()</text>
<text text-anchor="start" x="657.5" y="-1242.5" font-family="Helvetica,sans-Serif" font-size="10.00">+ getName()</text>
</a>
</g>
</g>
<!-- Node9&#45;&gt;Node7 -->
<g id="edge8" class="edge">
<title>Node9&#45;&gt;Node7</title>
<path fill="none" stroke="midnightblue" d="M671.95,-1226.6C647.2,-1182.5 612.08,-1123.19 576.5,-1074 557.65,-1047.94 535.67,-1021.01 514.64,-996.57"/>
<polygon fill="none" stroke="midnightblue" points="668.98,-1228.46 676.91,-1235.49 675.09,-1225.05 668.98,-1228.46"/>
</g>
<!-- Node10 -->
<g id="node10" class="node">
<title>Node10</title>
<g id="a_node10"><a xlink:href="classcore_1_1_event.html" target="_top" xlink:title=" ">
<polygon fill="white" stroke="black" points="750,-844.5 750,-967.5 833,-967.5 833,-844.5 750,-844.5"/>
<text text-anchor="middle" x="791.5" y="-955.5" font-family="Helvetica,sans-Serif" font-size="10.00">core::Event</text>
<polyline fill="none" stroke="black" points="750,-948.5 833,-948.5 "/>
<text text-anchor="start" x="758" y="-936.5" font-family="Helvetica,sans-Serif" font-size="10.00">&#45; published</text>
<text text-anchor="start" x="758" y="-925.5" font-family="Helvetica,sans-Serif" font-size="10.00">&#45; name</text>
<polyline fill="none" stroke="black" points="750,-918.5 833,-918.5 "/>
<text text-anchor="start" x="758" y="-906.5" font-family="Helvetica,sans-Serif" font-size="10.00">+ Event()</text>
<text text-anchor="start" x="758" y="-895.5" font-family="Helvetica,sans-Serif" font-size="10.00">+ ~Event()</text>
<text text-anchor="start" x="758" y="-884.5" font-family="Helvetica,sans-Serif" font-size="10.00">+ publish()</text>
<text text-anchor="start" x="758" y="-873.5" font-family="Helvetica,sans-Serif" font-size="10.00">+ unPublish()</text>
<text text-anchor="start" x="758" y="-862.5" font-family="Helvetica,sans-Serif" font-size="10.00">+ getName()</text>
<text text-anchor="start" x="758" y="-851.5" font-family="Helvetica,sans-Serif" font-size="10.00">&#45; dispatch()</text>
</a>
</g>
</g>
<!-- Node9&#45;&gt;Node10 -->
<g id="edge10" class="edge">
<title>Node9&#45;&gt;Node10</title>
<path fill="none" stroke="#404040" d="M704.6,-1235.46C704.31,-1191.24 706.69,-1127.85 719.5,-1074 727.18,-1041.73 740.68,-1007.82 753.93,-979.06"/>
<polygon fill="none" stroke="#404040" points="754.07,-978.75 753.01,-971.62 759.18,-967.89 760.25,-975.02 754.07,-978.75"/>
<text text-anchor="middle" x="758.5" y="-1088" font-family="Helvetica,sans-Serif" font-size="10.00"> &#45;eventReceiver</text>
</g>
<!-- Node9&#45;&gt;Node14 -->
<g id="edge18" class="edge">
<title>Node9&#45;&gt;Node14</title>
<path fill="none" stroke="#8b1a1a" d="M701.82,-1224.87C696.79,-1148.54 689.5,-1018.71 689.5,-907 689.5,-907 689.5,-907 689.5,-342 689.5,-267.52 722.88,-232.47 675.5,-175 644.47,-137.36 520.19,-109.47 431.35,-93.84"/>
<polygon fill="none" stroke="#8b1a1a" points="698.36,-1225.54 702.51,-1235.28 705.34,-1225.07 698.36,-1225.54"/>
</g>
<!-- Node10&#45;&gt;Node9 -->
<g id="edge9" class="edge">
<title>Node10&#45;&gt;Node9</title>
<path fill="none" stroke="#404040" d="M803.47,-967.8C809.19,-1007.88 812.65,-1061.23 801.5,-1107 791.39,-1148.52 770.12,-1191.12 750.27,-1224.82"/>
<polygon fill="none" stroke="#404040" points="750.07,-1225.15 750.41,-1232.35 743.89,-1235.43 743.55,-1228.23 750.07,-1225.15"/>
<text text-anchor="middle" x="829" y="-1088" font-family="Helvetica,sans-Serif" font-size="10.00"> #_event</text>
</g>
<!-- Node11 -->
<g id="node11" class="node">
<title>Node11</title>
<g id="a_node11"><a xlink:href="classcore_1_1_descriptor_event_publisher.html" target="_top" xlink:title=" ">
<polygon fill="white" stroke="black" points="368,-1125.5 368,-1457.5 541,-1457.5 541,-1125.5 368,-1125.5"/>
<text text-anchor="middle" x="454.5" y="-1445.5" font-family="Helvetica,sans-Serif" font-size="10.00">core::DescriptorEventPublisher</text>
<polyline fill="none" stroke="black" points="368,-1438.5 541,-1438.5 "/>
<text text-anchor="start" x="376" y="-1426.5" font-family="Helvetica,sans-Serif" font-size="10.00"># observedEventReceivers</text>
<text text-anchor="start" x="376" y="-1415.5" font-family="Helvetica,sans-Serif" font-size="10.00"># eventCounter</text>
<text text-anchor="start" x="376" y="-1404.5" font-family="Helvetica,sans-Serif" font-size="10.00"># observedEventReceiversDirty</text>
<text text-anchor="start" x="376" y="-1393.5" font-family="Helvetica,sans-Serif" font-size="10.00"># name</text>
<polyline fill="none" stroke="black" points="368,-1386.5 541,-1386.5 "/>
<text text-anchor="start" x="376" y="-1374.5" font-family="Helvetica,sans-Serif" font-size="10.00">+ ~DescriptorEventPublisher()</text>
<text text-anchor="start" x="376" y="-1363.5" font-family="Helvetica,sans-Serif" font-size="10.00">+ publish()</text>
<text text-anchor="start" x="376" y="-1352.5" font-family="Helvetica,sans-Serif" font-size="10.00">+ enable()</text>
<text text-anchor="start" x="376" y="-1341.5" font-family="Helvetica,sans-Serif" font-size="10.00">+ disable()</text>
<text text-anchor="start" x="376" y="-1330.5" font-family="Helvetica,sans-Serif" font-size="10.00">+ suspend()</text>
<text text-anchor="start" x="376" y="-1319.5" font-family="Helvetica,sans-Serif" font-size="10.00">+ resume()</text>
<text text-anchor="start" x="376" y="-1308.5" font-family="Helvetica,sans-Serif" font-size="10.00">+ publishActiveEvents()</text>
<text text-anchor="start" x="376" y="-1297.5" font-family="Helvetica,sans-Serif" font-size="10.00">+ checkTimedOutEvents()</text>
<text text-anchor="start" x="376" y="-1286.5" font-family="Helvetica,sans-Serif" font-size="10.00">+ unobserveDisabledEvents()</text>
<text text-anchor="start" x="376" y="-1275.5" font-family="Helvetica,sans-Serif" font-size="10.00">+ getObservedEventReceiver</text>
<text text-anchor="start" x="376" y="-1264.5" font-family="Helvetica,sans-Serif" font-size="10.00">Count()</text>
<text text-anchor="start" x="376" y="-1253.5" font-family="Helvetica,sans-Serif" font-size="10.00">+ getMaxFd()</text>
<text text-anchor="start" x="376" y="-1242.5" font-family="Helvetica,sans-Serif" font-size="10.00">+ getNextTimeout()</text>
<text text-anchor="start" x="376" y="-1231.5" font-family="Helvetica,sans-Serif" font-size="10.00">+ stop()</text>
<text text-anchor="start" x="376" y="-1220.5" font-family="Helvetica,sans-Serif" font-size="10.00">+ getName()</text>
<text text-anchor="start" x="376" y="-1209.5" font-family="Helvetica,sans-Serif" font-size="10.00"># DescriptorEventPublisher()</text>
<text text-anchor="start" x="376" y="-1198.5" font-family="Helvetica,sans-Serif" font-size="10.00"># DescriptorEventPublisher()</text>
<text text-anchor="start" x="376" y="-1187.5" font-family="Helvetica,sans-Serif" font-size="10.00"># muxAdd()</text>
<text text-anchor="start" x="376" y="-1176.5" font-family="Helvetica,sans-Serif" font-size="10.00"># muxDel()</text>
<text text-anchor="start" x="376" y="-1165.5" font-family="Helvetica,sans-Serif" font-size="10.00"># muxOn()</text>
<text text-anchor="start" x="376" y="-1154.5" font-family="Helvetica,sans-Serif" font-size="10.00"># muxOff()</text>
<text text-anchor="start" x="376" y="-1143.5" font-family="Helvetica,sans-Serif" font-size="10.00">&#45; DescriptorEventPublisher()</text>
<text text-anchor="start" x="376" y="-1132.5" font-family="Helvetica,sans-Serif" font-size="10.00">&#45; operator=()</text>
</a>
</g>
</g>
<!-- Node11&#45;&gt;Node7 -->
<g id="edge12" class="edge">
<title>Node11&#45;&gt;Node7</title>
<path fill="none" stroke="#404040" d="M445.03,-1125.36C443.93,-1106.3 442.82,-1086.88 441.73,-1067.87"/>
<polygon fill="none" stroke="#404040" points="441.72,-1067.76 437.39,-1062 441.03,-1055.78 445.37,-1061.54 441.72,-1067.76"/>
<text text-anchor="middle" x="508" y="-1088" font-family="Helvetica,sans-Serif" font-size="10.00"> &#45;descriptorEventPublisher</text>
</g>
<!-- Node12&#45;&gt;Node5 -->
<g id="edge13" class="edge">
<title>Node12&#45;&gt;Node5</title>
<path fill="none" stroke="#8b1a1a" d="M320.75,-559.62C335.32,-540.65 348.32,-521.98 352.5,-511 356.07,-501.62 358.93,-491.73 361.21,-481.65"/>
<polygon fill="none" stroke="#8b1a1a" points="317.8,-557.71 314.43,-567.75 323.33,-562 317.8,-557.71"/>
</g>
<!-- Node13&#45;&gt;Node5 -->
<g id="edge15" class="edge">
<title>Node13&#45;&gt;Node5</title>
<path fill="none" stroke="#8b1a1a" d="M414.54,-547.09C409.73,-526.75 404.38,-504.12 399.04,-481.55"/>
<polygon fill="none" stroke="#8b1a1a" points="411.15,-547.96 416.86,-556.88 417.96,-546.34 411.15,-547.96"/>
</g>
<!-- Node14&#45;&gt;Node5 -->
<g id="edge17" class="edge">
<title>Node14&#45;&gt;Node5</title>
<path fill="none" stroke="#404040" d="M336.24,-129.17C336.24,-147.11 336.77,-167.5 338.5,-186 338.69,-188.07 338.9,-190.16 339.12,-192.25"/>
<polygon fill="none" stroke="#404040" points="339.14,-192.44 343.8,-197.95 340.5,-204.37 335.85,-198.86 339.14,-192.44"/>
<text text-anchor="middle" x="392" y="-178" font-family="Helvetica,sans-Serif" font-size="10.00"> &#45;commandStartEvent</text>
</g>
<!-- Node15&#45;&gt;Node5 -->
<g id="edge20" class="edge">
<title>Node15&#45;&gt;Node5</title>
<path fill="none" stroke="#404040" d="M732.93,-118.82C658.29,-164.28 535.14,-239.29 452.45,-289.65"/>
<polygon fill="none" stroke="#404040" points="452.32,-289.73 449.27,-296.27 442.07,-295.98 445.11,-289.44 452.32,-289.73"/>
<text text-anchor="middle" x="673" y="-178" font-family="Helvetica,sans-Serif" font-size="10.00"> &#45;mariaDBClient</text>
</g>
<!-- Node16 -->
<g id="node16" class="node">
<title>Node16</title>
<g id="a_node16"><a xlink:href="classdatabase_1_1mariadb_1_1_maria_d_b_client_a_sync_a_p_i.html" target="_top" xlink:title=" ">
<polygon fill="white" stroke="black" points="717.5,-270.5 717.5,-415.5 877.5,-415.5 877.5,-270.5 717.5,-270.5"/>
<text text-anchor="start" x="725.5" y="-403.5" font-family="Helvetica,sans-Serif" font-size="10.00">database::mariadb::</text>
<text text-anchor="middle" x="797.5" y="-392.5" font-family="Helvetica,sans-Serif" font-size="10.00">MariaDBClientASyncAPI</text>
<polyline fill="none" stroke="black" points="717.5,-385.5 877.5,-385.5 "/>
<text text-anchor="start" x="725.5" y="-373.5" font-family="Helvetica,sans-Serif" font-size="10.00"># lastResult</text>
<polyline fill="none" stroke="black" points="717.5,-366.5 877.5,-366.5 "/>
<text text-anchor="start" x="725.5" y="-354.5" font-family="Helvetica,sans-Serif" font-size="10.00">+ ~MariaDBClientASyncAPI()</text>
<text text-anchor="start" x="725.5" y="-343.5" font-family="Helvetica,sans-Serif" font-size="10.00">+ query()</text>
<text text-anchor="start" x="725.5" y="-332.5" font-family="Helvetica,sans-Serif" font-size="10.00">+ exec()</text>
<text text-anchor="start" x="725.5" y="-321.5" font-family="Helvetica,sans-Serif" font-size="10.00">+ startTransactions()</text>
<text text-anchor="start" x="725.5" y="-310.5" font-family="Helvetica,sans-Serif" font-size="10.00">+ endTransactions()</text>
<text text-anchor="start" x="725.5" y="-299.5" font-family="Helvetica,sans-Serif" font-size="10.00">+ commit()</text>
<text text-anchor="start" x="725.5" y="-288.5" font-family="Helvetica,sans-Serif" font-size="10.00">+ rollback()</text>
<text text-anchor="start" x="725.5" y="-277.5" font-family="Helvetica,sans-Serif" font-size="10.00"># execute_async()</text>
</a>
</g>
</g>
<!-- Node16&#45;&gt;Node15 -->
<g id="edge21" class="edge">
<title>Node16&#45;&gt;Node15</title>
<path fill="none" stroke="midnightblue" d="M797.5,-260.09C797.5,-219.37 797.5,-171.24 797.5,-134.91"/>
<polygon fill="none" stroke="midnightblue" points="794,-260.27 797.5,-270.27 801,-260.27 794,-260.27"/>
</g>
<!-- Node17 -->
<g id="node17" class="node">
<title>Node17</title>
<g id="a_node17"><a xlink:href="classdatabase_1_1mariadb_1_1_maria_d_b_client_sync_a_p_i.html" target="_top" xlink:title=" ">
<polygon fill="white" stroke="black" points="896,-292.5 896,-393.5 1049,-393.5 1049,-292.5 896,-292.5"/>
<text text-anchor="start" x="904" y="-381.5" font-family="Helvetica,sans-Serif" font-size="10.00">database::mariadb::</text>
<text text-anchor="middle" x="972.5" y="-370.5" font-family="Helvetica,sans-Serif" font-size="10.00">MariaDBClientSyncAPI</text>
<polyline fill="none" stroke="black" points="896,-363.5 1049,-363.5 "/>
<text text-anchor="middle" x="972.5" y="-351.5" font-family="Helvetica,sans-Serif" font-size="10.00"> </text>
<polyline fill="none" stroke="black" points="896,-344.5 1049,-344.5 "/>
<text text-anchor="start" x="904" y="-332.5" font-family="Helvetica,sans-Serif" font-size="10.00">+ ~MariaDBClientSyncAPI()</text>
<text text-anchor="start" x="904" y="-321.5" font-family="Helvetica,sans-Serif" font-size="10.00">+ affectedRows()</text>
<text text-anchor="start" x="904" y="-310.5" font-family="Helvetica,sans-Serif" font-size="10.00">+ fieldCount()</text>
<text text-anchor="start" x="904" y="-299.5" font-family="Helvetica,sans-Serif" font-size="10.00"># execute_sync()</text>
</a>
</g>
</g>
<!-- Node17&#45;&gt;Node15 -->
<g id="edge22" class="edge">
<title>Node17&#45;&gt;Node15</title>
<path fill="none" stroke="midnightblue" d="M937.33,-283.76C922.06,-258.95 903.75,-229.83 886.5,-204 871.15,-181.02 853.58,-156.17 838.13,-134.75"/>
<polygon fill="none" stroke="midnightblue" points="934.39,-285.65 942.6,-292.34 940.35,-281.98 934.39,-285.65"/>
</g>
<!-- Node18 -->
<g id="node18" class="node">
<title>Node18</title>
<g id="a_node18"><a xlink:href="structdatabase_1_1mariadb_1_1_maria_d_b_connection_details.html" target="_top" xlink:title=" ">
<polygon fill="white" stroke="black" points="1067.5,-276 1067.5,-410 1215.5,-410 1215.5,-276 1067.5,-276"/>
<text text-anchor="start" x="1075.5" y="-398" font-family="Helvetica,sans-Serif" font-size="10.00">database::mariadb::</text>
<text text-anchor="middle" x="1141.5" y="-387" font-family="Helvetica,sans-Serif" font-size="10.00">MariaDBConnectionDetails</text>
<polyline fill="none" stroke="black" points="1067.5,-380 1215.5,-380 "/>
<text text-anchor="start" x="1075.5" y="-368" font-family="Helvetica,sans-Serif" font-size="10.00">+ hostname</text>
<text text-anchor="start" x="1075.5" y="-357" font-family="Helvetica,sans-Serif" font-size="10.00">+ username</text>
<text text-anchor="start" x="1075.5" y="-346" font-family="Helvetica,sans-Serif" font-size="10.00">+ password</text>
<text text-anchor="start" x="1075.5" y="-335" font-family="Helvetica,sans-Serif" font-size="10.00">+ database</text>
<text text-anchor="start" x="1075.5" y="-324" font-family="Helvetica,sans-Serif" font-size="10.00">+ port</text>
<text text-anchor="start" x="1075.5" y="-313" font-family="Helvetica,sans-Serif" font-size="10.00">+ socket</text>
<text text-anchor="start" x="1075.5" y="-302" font-family="Helvetica,sans-Serif" font-size="10.00">+ flags</text>
<polyline fill="none" stroke="black" points="1067.5,-295 1215.5,-295 "/>
<text text-anchor="middle" x="1141.5" y="-283" font-family="Helvetica,sans-Serif" font-size="10.00"> </text>
</a>
</g>
</g>
<!-- Node18&#45;&gt;Node15 -->
<g id="edge23" class="edge">
<title>Node18&#45;&gt;Node15</title>
<path fill="none" stroke="#404040" d="M1112,-275.9C1098.44,-251.01 1080.44,-223.92 1058.5,-204 1005.24,-155.64 929.82,-122.41 873.74,-102.52"/>
<polygon fill="none" stroke="#404040" points="873.42,-102.41 866.44,-104.22 862.08,-98.48 869.06,-96.67 873.42,-102.41"/>
<text text-anchor="middle" x="1053.5" y="-178" font-family="Helvetica,sans-Serif" font-size="10.00"> &#45;details</text>
</g>
</g>
</svg>
