<?xml version="1.0" encoding="UTF-8" standalone="no"?>
<!DOCTYPE svg PUBLIC "-//W3C//DTD SVG 1.1//EN"
 "http://www.w3.org/Graphics/SVG/1.1/DTD/svg11.dtd">
<!-- Generated by graphviz version 2.43.0 (0)
 -->
<!-- Title: core::select::DescriptorEventDispatcher::dispatchActiveEvents Pages: 1 -->
<svg width="563pt" height="230pt"
 viewBox="0.00 0.00 563.00 230.00" xmlns="http://www.w3.org/2000/svg" xmlns:xlink="http://www.w3.org/1999/xlink">
<g id="graph0" class="graph" transform="scale(1 1) rotate(0) translate(4 226)">
<title>core::select::DescriptorEventDispatcher::dispatchActiveEvents</title>
<polygon fill="white" stroke="transparent" points="-4,4 -4,-226 559,-226 559,4 -4,4"/>
<!-- Node1 -->
<g id="node1" class="node">
<title>Node1</title>
<g id="a_node1"><a xlink:title=" ">
<polygon fill="#bfbfbf" stroke="black" points="0,-112 0,-153 175,-153 175,-112 0,-112"/>
<text text-anchor="start" x="8" y="-141" font-family="Helvetica,sans-Serif" font-size="10.00">core::select::Descriptor</text>
<text text-anchor="start" x="8" y="-130" font-family="Helvetica,sans-Serif" font-size="10.00">EventDispatcher::dispatchActive</text>
<text text-anchor="middle" x="87.5" y="-119" font-family="Helvetica,sans-Serif" font-size="10.00">Events</text>
</a>
</g>
</g>
<!-- Node2 -->
<g id="node2" class="node">
<title>Node2</title>
<g id="a_node2"><a xlink:href="classcore_1_1_descriptor_event_receiver.html#ae575d9926c7957613f44acbecf352a3f" target="_top" xlink:title=" ">
<polygon fill="white" stroke="black" points="211,-191.5 211,-221.5 375,-221.5 375,-191.5 211,-191.5"/>
<text text-anchor="start" x="219" y="-209.5" font-family="Helvetica,sans-Serif" font-size="10.00">core::DescriptorEventReceiver</text>
<text text-anchor="middle" x="293" y="-198.5" font-family="Helvetica,sans-Serif" font-size="10.00">::continueImmediately</text>
</a>
</g>
</g>
<!-- Node1&#45;&gt;Node2 -->
<g id="edge1" class="edge">
<title>Node1&#45;&gt;Node2</title>
<path fill="none" stroke="midnightblue" d="M135.78,-153.08C158.35,-162.58 185.86,-173.67 211,-182.5 216.81,-184.54 222.9,-186.56 229.01,-188.51"/>
<polygon fill="midnightblue" stroke="midnightblue" points="228.01,-191.86 238.6,-191.5 230.1,-185.18 228.01,-191.86"/>
</g>
<!-- Node3 -->
<g id="node3" class="node">
<title>Node3</title>
<g id="a_node3"><a xlink:href="classcore_1_1select_1_1_fd_set.html#a05eb5d4e3cc521ba5fba0ba65fa08a0d" target="_top" xlink:title=" ">
<polygon fill="white" stroke="black" points="239.5,-142.5 239.5,-172.5 346.5,-172.5 346.5,-142.5 239.5,-142.5"/>
<text text-anchor="start" x="247.5" y="-160.5" font-family="Helvetica,sans-Serif" font-size="10.00">core::select::FdSet</text>
<text text-anchor="middle" x="293" y="-149.5" font-family="Helvetica,sans-Serif" font-size="10.00">::isSet</text>
</a>
</g>
</g>
<!-- Node1&#45;&gt;Node3 -->
<g id="edge2" class="edge">
<title>Node1&#45;&gt;Node3</title>
<path fill="none" stroke="midnightblue" d="M175.1,-143.14C193.19,-145.36 211.94,-147.67 228.99,-149.76"/>
<polygon fill="midnightblue" stroke="midnightblue" points="229.01,-153.29 239.36,-151.03 229.86,-146.34 229.01,-153.29"/>
</g>
<!-- Node4 -->
<g id="node4" class="node">
<title>Node4</title>
<g id="a_node4"><a xlink:href="classcore_1_1_descriptor_event_receiver.html#ac80fc901f941c059a6ebdb28147b25a2" target="_top" xlink:title=" ">
<polygon fill="white" stroke="black" points="211,-93.5 211,-123.5 375,-123.5 375,-93.5 211,-93.5"/>
<text text-anchor="start" x="219" y="-111.5" font-family="Helvetica,sans-Serif" font-size="10.00">core::DescriptorEventReceiver</text>
<text text-anchor="middle" x="293" y="-100.5" font-family="Helvetica,sans-Serif" font-size="10.00">::isSuspended</text>
</a>
</g>
</g>
<!-- Node1&#45;&gt;Node4 -->
<g id="edge3" class="edge">
<title>Node1&#45;&gt;Node4</title>
<path fill="none" stroke="midnightblue" d="M175.1,-122.29C183.65,-121.28 192.35,-120.25 200.95,-119.24"/>
<polygon fill="midnightblue" stroke="midnightblue" points="201.45,-122.7 210.97,-118.06 200.63,-115.75 201.45,-122.7"/>
</g>
<!-- Node5 -->
<g id="node5" class="node">
<title>Node5</title>
<g id="a_node5"><a xlink:href="classcore_1_1_event_receiver.html#a2b80e945995510922706c33403f0a4f0" target="_top" xlink:title=" ">
<polygon fill="white" stroke="black" points="236,-44.5 236,-74.5 350,-74.5 350,-44.5 236,-44.5"/>
<text text-anchor="start" x="244" y="-62.5" font-family="Helvetica,sans-Serif" font-size="10.00">core::EventReceiver</text>
<text text-anchor="middle" x="293" y="-51.5" font-family="Helvetica,sans-Serif" font-size="10.00">::publish</text>
</a>
</g>
</g>
<!-- Node1&#45;&gt;Node5 -->
<g id="edge4" class="edge">
<title>Node1&#45;&gt;Node5</title>
<path fill="none" stroke="midnightblue" d="M138.55,-111.92C160.62,-103.1 186.96,-92.91 211,-84.5 217.53,-82.22 224.4,-79.93 231.26,-77.71"/>
<polygon fill="midnightblue" stroke="midnightblue" points="232.79,-80.9 241.26,-74.53 230.67,-74.23 232.79,-80.9"/>
</g>
<!-- Node6 -->
<g id="node6" class="node">
<title>Node6</title>
<g id="a_node6"><a xlink:href="classcore_1_1_event_loop.html#a90fd241e5df4d2227f1d5d2a00dcca01" target="_top" xlink:title=" ">
<polygon fill="white" stroke="black" points="411,-88.5 411,-118.5 555,-118.5 555,-88.5 411,-88.5"/>
<text text-anchor="start" x="419" y="-106.5" font-family="Helvetica,sans-Serif" font-size="10.00">core::EventLoop::getEvent</text>
<text text-anchor="middle" x="483" y="-95.5" font-family="Helvetica,sans-Serif" font-size="10.00">Dispatcher</text>
</a>
</g>
</g>
<!-- Node5&#45;&gt;Node6 -->
<g id="edge5" class="edge">
<title>Node5&#45;&gt;Node6</title>
<path fill="none" stroke="midnightblue" d="M350.15,-72.64C368.3,-76.89 388.71,-81.67 407.96,-86.17"/>
<polygon fill="midnightblue" stroke="midnightblue" points="407.36,-89.63 417.89,-88.5 408.95,-82.81 407.36,-89.63"/>
</g>
<!-- Node7 -->
<g id="node7" class="node">
<title>Node7</title>
<g id="a_node7"><a xlink:href="classcore_1_1_event_loop.html#a413d227511f68c2c9939719bd2590794" target="_top" xlink:title=" ">
<polygon fill="white" stroke="black" points="412,-50 412,-69 554,-69 554,-50 412,-50"/>
<text text-anchor="middle" x="483" y="-57" font-family="Helvetica,sans-Serif" font-size="10.00">core::EventLoop::instance</text>
</a>
</g>
</g>
<!-- Node5&#45;&gt;Node7 -->
<g id="edge6" class="edge">
<title>Node5&#45;&gt;Node7</title>
<path fill="none" stroke="midnightblue" d="M350.15,-59.5C366.34,-59.5 384.33,-59.5 401.68,-59.5"/>
<polygon fill="midnightblue" stroke="midnightblue" points="401.81,-63 411.81,-59.5 401.81,-56 401.81,-63"/>
</g>
<!-- Node8 -->
<g id="node8" class="node">
<title>Node8</title>
<g id="a_node8"><a xlink:href="classcore_1_1_event_dispatcher.html#a67ea6954faa01cc7b64293dc116056c9" target="_top" xlink:title=" ">
<polygon fill="white" stroke="black" points="421,-0.5 421,-30.5 545,-30.5 545,-0.5 421,-0.5"/>
<text text-anchor="start" x="429" y="-18.5" font-family="Helvetica,sans-Serif" font-size="10.00">core::EventDispatcher</text>
<text text-anchor="middle" x="483" y="-7.5" font-family="Helvetica,sans-Serif" font-size="10.00">::publish</text>
</a>
</g>
</g>
<!-- Node5&#45;&gt;Node8 -->
<g id="edge7" class="edge">
<title>Node5&#45;&gt;Node8</title>
<path fill="none" stroke="midnightblue" d="M350.15,-46.36C369.31,-41.88 390.98,-36.8 411.14,-32.09"/>
<polygon fill="midnightblue" stroke="midnightblue" points="411.95,-35.49 420.89,-29.8 410.36,-28.67 411.95,-35.49"/>
</g>
</g>
</svg>
