<?xml version="1.0" encoding="UTF-8" standalone="no"?>
<!DOCTYPE svg PUBLIC "-//W3C//DTD SVG 1.1//EN"
 "http://www.w3.org/Graphics/SVG/1.1/DTD/svg11.dtd">
<!-- Generated by graphviz version 2.43.0 (0)
 -->
<!-- Title: database::mariadb::MariaDBConnection::writeTimeout Pages: 1 -->
<svg width="1682pt" height="248pt"
 viewBox="0.00 0.00 1682.00 247.50" xmlns="http://www.w3.org/2000/svg" xmlns:xlink="http://www.w3.org/1999/xlink">
<g id="graph0" class="graph" transform="scale(1 1) rotate(0) translate(4 243.5)">
<title>database::mariadb::MariaDBConnection::writeTimeout</title>
<polygon fill="white" stroke="transparent" points="-4,4 -4,-243.5 1678,-243.5 1678,4 -4,4"/>
<!-- Node1 -->
<g id="node1" class="node">
<title>Node1</title>
<g id="a_node1"><a xlink:title=" ">
<polygon fill="#bfbfbf" stroke="black" points="0,-98.5 0,-128.5 184,-128.5 184,-98.5 0,-98.5"/>
<text text-anchor="start" x="8" y="-116.5" font-family="Helvetica,sans-Serif" font-size="10.00">database::mariadb::</text>
<text text-anchor="middle" x="92" y="-105.5" font-family="Helvetica,sans-Serif" font-size="10.00">MariaDBConnection::writeTimeout</text>
</a>
</g>
</g>
<!-- Node2 -->
<g id="node2" class="node">
<title>Node2</title>
<g id="a_node2"><a xlink:href="classdatabase_1_1mariadb_1_1_maria_d_b_connection.html#ab6064af831f9fbe11c742954db49fdb9" target="_top" xlink:title=" ">
<polygon fill="white" stroke="black" points="220,-93 220,-134 388,-134 388,-93 220,-93"/>
<text text-anchor="start" x="228" y="-122" font-family="Helvetica,sans-Serif" font-size="10.00">database::mariadb::</text>
<text text-anchor="start" x="228" y="-111" font-family="Helvetica,sans-Serif" font-size="10.00">MariaDBConnection::command</text>
<text text-anchor="middle" x="304" y="-100" font-family="Helvetica,sans-Serif" font-size="10.00">Continue</text>
</a>
</g>
</g>
<!-- Node1&#45;&gt;Node2 -->
<g id="edge1" class="edge">
<title>Node1&#45;&gt;Node2</title>
<path fill="none" stroke="midnightblue" d="M184.19,-113.5C192.61,-113.5 201.15,-113.5 209.59,-113.5"/>
<polygon fill="midnightblue" stroke="midnightblue" points="209.82,-117 219.82,-113.5 209.82,-110 209.82,-117"/>
</g>
<!-- Node3 -->
<g id="node3" class="node">
<title>Node3</title>
<g id="a_node3"><a xlink:href="classdatabase_1_1mariadb_1_1_maria_d_b_connection.html#afd1535c332bed7e8562eb5cbe9feaa66" target="_top" xlink:title=" ">
<polygon fill="white" stroke="black" points="438,-123.5 438,-153.5 617,-153.5 617,-123.5 438,-123.5"/>
<text text-anchor="start" x="446" y="-141.5" font-family="Helvetica,sans-Serif" font-size="10.00">database::mariadb::</text>
<text text-anchor="middle" x="527.5" y="-130.5" font-family="Helvetica,sans-Serif" font-size="10.00">MariaDBConnection::checkStatus</text>
</a>
</g>
</g>
<!-- Node2&#45;&gt;Node3 -->
<g id="edge2" class="edge">
<title>Node2&#45;&gt;Node3</title>
<path fill="none" stroke="midnightblue" d="M388.11,-122.88C401.02,-124.34 414.47,-125.86 427.69,-127.35"/>
<polygon fill="midnightblue" stroke="midnightblue" points="427.41,-130.84 437.74,-128.48 428.19,-123.88 427.41,-130.84"/>
</g>
<!-- Node16 -->
<g id="node16" class="node">
<title>Node16</title>
<g id="a_node16"><a xlink:href="classdatabase_1_1mariadb_1_1_maria_d_b_command.html#a4e6c906a19121b309d2fce48173c1e11" target="_top" xlink:title=" ">
<polygon fill="white" stroke="black" points="424,-74.5 424,-104.5 631,-104.5 631,-74.5 424,-74.5"/>
<text text-anchor="start" x="432" y="-92.5" font-family="Helvetica,sans-Serif" font-size="10.00">database::mariadb::</text>
<text text-anchor="middle" x="527.5" y="-81.5" font-family="Helvetica,sans-Serif" font-size="10.00">MariaDBCommand::commandContinue</text>
</a>
</g>
</g>
<!-- Node2&#45;&gt;Node16 -->
<g id="edge15" class="edge">
<title>Node2&#45;&gt;Node16</title>
<path fill="none" stroke="midnightblue" d="M388.11,-104.5C396.49,-103.59 405.1,-102.65 413.72,-101.72"/>
<polygon fill="midnightblue" stroke="midnightblue" points="414.28,-105.18 423.84,-100.62 413.52,-98.22 414.28,-105.18"/>
</g>
<!-- Node4 -->
<g id="node4" class="node">
<title>Node4</title>
<g id="a_node4"><a xlink:href="classdatabase_1_1mariadb_1_1_maria_d_b_connection.html#a5b1a0ad0d80cc448a80685789699fe61" target="_top" xlink:title=" ">
<polygon fill="white" stroke="black" points="691.5,-198 691.5,-239 859.5,-239 859.5,-198 691.5,-198"/>
<text text-anchor="start" x="699.5" y="-227" font-family="Helvetica,sans-Serif" font-size="10.00">database::mariadb::</text>
<text text-anchor="start" x="699.5" y="-216" font-family="Helvetica,sans-Serif" font-size="10.00">MariaDBConnection::command</text>
<text text-anchor="middle" x="775.5" y="-205" font-family="Helvetica,sans-Serif" font-size="10.00">Completed</text>
</a>
</g>
</g>
<!-- Node3&#45;&gt;Node4 -->
<g id="edge3" class="edge">
<title>Node3&#45;&gt;Node4</title>
<path fill="none" stroke="midnightblue" d="M567.64,-153.51C595.23,-163.87 633.15,-177.68 667,-188.5 673.92,-190.71 681.11,-192.92 688.35,-195.07"/>
<polygon fill="midnightblue" stroke="midnightblue" points="687.66,-198.51 698.24,-197.97 689.63,-191.8 687.66,-198.51"/>
</g>
<!-- Node7 -->
<g id="node7" class="node">
<title>Node7</title>
<g id="a_node7"><a xlink:href="classdatabase_1_1mariadb_1_1_maria_d_b_command.html#aee590f857c6484900b5fa58318216256" target="_top" xlink:title=" ">
<polygon fill="white" stroke="black" points="667,-148.5 667,-178.5 884,-178.5 884,-148.5 667,-148.5"/>
<text text-anchor="start" x="675" y="-166.5" font-family="Helvetica,sans-Serif" font-size="10.00">database::mariadb::</text>
<text text-anchor="middle" x="775.5" y="-155.5" font-family="Helvetica,sans-Serif" font-size="10.00">MariaDBCommand::commandCompleted</text>
</a>
</g>
</g>
<!-- Node3&#45;&gt;Node7 -->
<g id="edge6" class="edge">
<title>Node3&#45;&gt;Node7</title>
<path fill="none" stroke="midnightblue" d="M617.31,-147.53C630.14,-148.83 643.51,-150.19 656.8,-151.54"/>
<polygon fill="midnightblue" stroke="midnightblue" points="656.63,-155.04 666.94,-152.57 657.34,-148.08 656.63,-155.04"/>
</g>
<!-- Node8 -->
<g id="node8" class="node">
<title>Node8</title>
<g id="a_node8"><a xlink:href="classdatabase_1_1mariadb_1_1_maria_d_b_command.html#a914d7e9a32f92290eb04261dc469412c" target="_top" xlink:title=" ">
<polygon fill="white" stroke="black" points="682,-99.5 682,-129.5 869,-129.5 869,-99.5 682,-99.5"/>
<text text-anchor="start" x="690" y="-117.5" font-family="Helvetica,sans-Serif" font-size="10.00">database::mariadb::</text>
<text text-anchor="middle" x="775.5" y="-106.5" font-family="Helvetica,sans-Serif" font-size="10.00">MariaDBCommand::commandError</text>
</a>
</g>
</g>
<!-- Node3&#45;&gt;Node8 -->
<g id="edge7" class="edge">
<title>Node3&#45;&gt;Node8</title>
<path fill="none" stroke="midnightblue" d="M617.31,-129.84C634.96,-128.11 653.63,-126.29 671.7,-124.53"/>
<polygon fill="midnightblue" stroke="midnightblue" points="672.06,-128.01 681.67,-123.56 671.38,-121.04 672.06,-128.01"/>
</g>
<!-- Node9 -->
<g id="node9" class="node">
<title>Node9</title>
<g id="a_node9"><a xlink:href="classdatabase_1_1mariadb_1_1_maria_d_b_command_start_event.html#a032f8603d84248fc542f08778dbc4daf" target="_top" xlink:title=" ">
<polygon fill="white" stroke="black" points="695.5,-39 695.5,-80 855.5,-80 855.5,-39 695.5,-39"/>
<text text-anchor="start" x="703.5" y="-68" font-family="Helvetica,sans-Serif" font-size="10.00">database::mariadb::</text>
<text text-anchor="start" x="703.5" y="-57" font-family="Helvetica,sans-Serif" font-size="10.00">MariaDBCommandStartEvent</text>
<text text-anchor="middle" x="775.5" y="-46" font-family="Helvetica,sans-Serif" font-size="10.00">::publish</text>
</a>
</g>
</g>
<!-- Node3&#45;&gt;Node9 -->
<g id="edge8" class="edge">
<title>Node3&#45;&gt;Node9</title>
<path fill="none" stroke="midnightblue" d="M606.14,-123.46C614.68,-120.89 623.12,-117.92 631,-114.5 648.64,-106.85 649.56,-98.59 667,-90.5 673.04,-87.7 679.38,-85.09 685.85,-82.68"/>
<polygon fill="midnightblue" stroke="midnightblue" points="687.14,-85.93 695.39,-79.28 684.79,-79.34 687.14,-85.93"/>
</g>
<!-- Node5 -->
<g id="node5" class="node">
<title>Node5</title>
<g id="a_node5"><a xlink:href="classdatabase_1_1mariadb_1_1_maria_d_b_command.html#a28796a334f9f6b564bb99eaa513aa2e8" target="_top" xlink:title=" ">
<polygon fill="white" stroke="black" points="920,-203.5 920,-233.5 1102,-233.5 1102,-203.5 920,-203.5"/>
<text text-anchor="start" x="928" y="-221.5" font-family="Helvetica,sans-Serif" font-size="10.00">database::mariadb::</text>
<text text-anchor="middle" x="1011" y="-210.5" font-family="Helvetica,sans-Serif" font-size="10.00">MariaDBCommand::commandInfo</text>
</a>
</g>
</g>
<!-- Node4&#45;&gt;Node5 -->
<g id="edge4" class="edge">
<title>Node4&#45;&gt;Node5</title>
<path fill="none" stroke="midnightblue" d="M859.81,-218.5C875.97,-218.5 893.07,-218.5 909.7,-218.5"/>
<polygon fill="midnightblue" stroke="midnightblue" points="909.99,-222 919.99,-218.5 909.99,-215 909.99,-222"/>
</g>
<!-- Node6 -->
<g id="node6" class="node">
<title>Node6</title>
<g id="a_node6"><a xlink:href="classdatabase_1_1mariadb_1_1_maria_d_b_command.html#a21dbfe439154587a4b72c1a02378fb65" target="_top" xlink:title=" ">
<polygon fill="white" stroke="black" points="1138,-203.5 1138,-233.5 1331,-233.5 1331,-203.5 1138,-203.5"/>
<text text-anchor="start" x="1146" y="-221.5" font-family="Helvetica,sans-Serif" font-size="10.00">database::mariadb::</text>
<text text-anchor="middle" x="1234.5" y="-210.5" font-family="Helvetica,sans-Serif" font-size="10.00">MariaDBCommand::commandName</text>
</a>
</g>
</g>
<!-- Node5&#45;&gt;Node6 -->
<g id="edge5" class="edge">
<title>Node5&#45;&gt;Node6</title>
<path fill="none" stroke="midnightblue" d="M1102.09,-218.5C1110.53,-218.5 1119.13,-218.5 1127.69,-218.5"/>
<polygon fill="midnightblue" stroke="midnightblue" points="1127.72,-222 1137.72,-218.5 1127.72,-215 1127.72,-222"/>
</g>
<!-- Node10 -->
<g id="node10" class="node">
<title>Node10</title>
<g id="a_node10"><a xlink:href="classcore_1_1_event_receiver.html#a2b80e945995510922706c33403f0a4f0" target="_top" xlink:title=" ">
<polygon fill="white" stroke="black" points="954,-44.5 954,-74.5 1068,-74.5 1068,-44.5 954,-44.5"/>
<text text-anchor="start" x="962" y="-62.5" font-family="Helvetica,sans-Serif" font-size="10.00">core::EventReceiver</text>
<text text-anchor="middle" x="1011" y="-51.5" font-family="Helvetica,sans-Serif" font-size="10.00">::publish</text>
</a>
</g>
</g>
<!-- Node9&#45;&gt;Node10 -->
<g id="edge9" class="edge">
<title>Node9&#45;&gt;Node10</title>
<path fill="none" stroke="midnightblue" d="M855.55,-59.5C884.18,-59.5 916.19,-59.5 943.62,-59.5"/>
<polygon fill="midnightblue" stroke="midnightblue" points="943.89,-63 953.89,-59.5 943.89,-56 943.89,-63"/>
</g>
<!-- Node11 -->
<g id="node11" class="node">
<title>Node11</title>
<g id="a_node11"><a xlink:href="classcore_1_1_event.html#ad4d48001b033cdcd0eb4f509cf53e396" target="_top" xlink:title=" ">
<polygon fill="white" stroke="black" points="1178,-50 1178,-69 1291,-69 1291,-50 1178,-50"/>
<text text-anchor="middle" x="1234.5" y="-57" font-family="Helvetica,sans-Serif" font-size="10.00">core::Event::publish</text>
</a>
</g>
</g>
<!-- Node10&#45;&gt;Node11 -->
<g id="edge10" class="edge">
<title>Node10&#45;&gt;Node11</title>
<path fill="none" stroke="midnightblue" d="M1068.18,-59.5C1098.48,-59.5 1136.05,-59.5 1167.71,-59.5"/>
<polygon fill="midnightblue" stroke="midnightblue" points="1167.76,-63 1177.76,-59.5 1167.76,-56 1167.76,-63"/>
</g>
<!-- Node12 -->
<g id="node12" class="node">
<title>Node12</title>
<g id="a_node12"><a xlink:href="classcore_1_1_event_loop.html#a17f1623de6ca2ea2682c63cf502c3c36" target="_top" xlink:title=" ">
<polygon fill="white" stroke="black" points="1367,-88.5 1367,-118.5 1511,-118.5 1511,-88.5 1367,-88.5"/>
<text text-anchor="start" x="1375" y="-106.5" font-family="Helvetica,sans-Serif" font-size="10.00">core::EventLoop::getEvent</text>
<text text-anchor="middle" x="1439" y="-95.5" font-family="Helvetica,sans-Serif" font-size="10.00">Multiplexer</text>
</a>
</g>
</g>
<!-- Node11&#45;&gt;Node12 -->
<g id="edge11" class="edge">
<title>Node11&#45;&gt;Node12</title>
<path fill="none" stroke="midnightblue" d="M1279.44,-69.05C1302.65,-74.09 1331.84,-80.43 1358.83,-86.3"/>
<polygon fill="midnightblue" stroke="midnightblue" points="1358.15,-89.73 1368.67,-88.43 1359.64,-82.89 1358.15,-89.73"/>
</g>
<!-- Node13 -->
<g id="node13" class="node">
<title>Node13</title>
<g id="a_node13"><a xlink:href="classcore_1_1_event_loop.html#a413d227511f68c2c9939719bd2590794" target="_top" xlink:title=" ">
<polygon fill="white" stroke="black" points="1368,-50 1368,-69 1510,-69 1510,-50 1368,-50"/>
<text text-anchor="middle" x="1439" y="-57" font-family="Helvetica,sans-Serif" font-size="10.00">core::EventLoop::instance</text>
</a>
</g>
</g>
<!-- Node11&#45;&gt;Node13 -->
<g id="edge12" class="edge">
<title>Node11&#45;&gt;Node13</title>
<path fill="none" stroke="midnightblue" d="M1291.1,-59.5C1311.61,-59.5 1335.28,-59.5 1357.55,-59.5"/>
<polygon fill="midnightblue" stroke="midnightblue" points="1357.67,-63 1367.67,-59.5 1357.67,-56 1357.67,-63"/>
</g>
<!-- Node14 -->
<g id="node14" class="node">
<title>Node14</title>
<g id="a_node14"><a xlink:href="classcore_1_1_event_multiplexer.html#acd7ae9bc9f6028e979515a18c1747dcf" target="_top" xlink:title=" ">
<polygon fill="white" stroke="black" points="1375.5,-0.5 1375.5,-30.5 1502.5,-30.5 1502.5,-0.5 1375.5,-0.5"/>
<text text-anchor="start" x="1383.5" y="-18.5" font-family="Helvetica,sans-Serif" font-size="10.00">core::EventMultiplexer</text>
<text text-anchor="middle" x="1439" y="-7.5" font-family="Helvetica,sans-Serif" font-size="10.00">::publish</text>
</a>
</g>
</g>
<!-- Node11&#45;&gt;Node14 -->
<g id="edge13" class="edge">
<title>Node11&#45;&gt;Node14</title>
<path fill="none" stroke="midnightblue" d="M1279.44,-49.95C1304.52,-44.5 1336.59,-37.54 1365.32,-31.29"/>
<polygon fill="midnightblue" stroke="midnightblue" points="1366.29,-34.66 1375.32,-29.12 1364.81,-27.82 1366.29,-34.66"/>
</g>
<!-- Node15 -->
<g id="node15" class="node">
<title>Node15</title>
<g id="a_node15"><a xlink:href="classcore_1_1_event_multiplexer_1_1_event_queue.html#a009075f2f16a78d3bf8d9e3a20226336" target="_top" xlink:title=" ">
<polygon fill="white" stroke="black" points="1547,-0.5 1547,-30.5 1674,-30.5 1674,-0.5 1547,-0.5"/>
<text text-anchor="start" x="1555" y="-18.5" font-family="Helvetica,sans-Serif" font-size="10.00">core::EventMultiplexer</text>
<text text-anchor="middle" x="1610.5" y="-7.5" font-family="Helvetica,sans-Serif" font-size="10.00">::EventQueue::insert</text>
</a>
</g>
</g>
<!-- Node14&#45;&gt;Node15 -->
<g id="edge14" class="edge">
<title>Node14&#45;&gt;Node15</title>
<path fill="none" stroke="midnightblue" d="M1502.63,-15.5C1513.68,-15.5 1525.27,-15.5 1536.57,-15.5"/>
<polygon fill="midnightblue" stroke="midnightblue" points="1536.84,-19 1546.84,-15.5 1536.84,-12 1536.84,-19"/>
</g>
</g>
</svg>
