<?xml version="1.0" encoding="UTF-8" standalone="no"?>
<!DOCTYPE svg PUBLIC "-//W3C//DTD SVG 1.1//EN"
 "http://www.w3.org/Graphics/SVG/1.1/DTD/svg11.dtd">
<!-- Generated by graphviz version 2.43.0 (0)
 -->
<!-- Title: net::socket::stream::legacy::SocketListener&lt; SocketT &gt; Pages: 1 -->
<svg width="496pt" height="1784pt"
 viewBox="0.00 0.00 496.17 1784.00" xmlns="http://www.w3.org/2000/svg" xmlns:xlink="http://www.w3.org/1999/xlink">
<g id="graph0" class="graph" transform="scale(1 1) rotate(0) translate(4 1780)">
<title>net::socket::stream::legacy::SocketListener&lt; SocketT &gt;</title>
<polygon fill="white" stroke="transparent" points="-4,4 -4,-1780 492.17,-1780 492.17,4 -4,4"/>
<!-- Node1 -->
<g id="node1" class="node">
<title>Node1</title>
<g id="a_node1"><a xlink:title=" ">
<polygon fill="#bfbfbf" stroke="black" points="48.67,-0.5 48.67,-79.5 170.67,-79.5 170.67,-0.5 48.67,-0.5"/>
<text text-anchor="start" x="56.67" y="-67.5" font-family="Helvetica,sans-Serif" font-size="10.00">net::socket::stream</text>
<text text-anchor="start" x="56.67" y="-56.5" font-family="Helvetica,sans-Serif" font-size="10.00">::legacy::SocketListener</text>
<text text-anchor="middle" x="109.67" y="-45.5" font-family="Helvetica,sans-Serif" font-size="10.00">&lt; SocketT &gt;</text>
<polyline fill="none" stroke="black" points="48.67,-38.5 170.67,-38.5 "/>
<text text-anchor="middle" x="109.67" y="-26.5" font-family="Helvetica,sans-Serif" font-size="10.00"> </text>
<polyline fill="none" stroke="black" points="48.67,-19.5 170.67,-19.5 "/>
<text text-anchor="start" x="56.67" y="-7.5" font-family="Helvetica,sans-Serif" font-size="10.00">+ SocketListener()</text>
</a>
</g>
</g>
<!-- Node2 -->
<g id="node2" class="node">
<title>Node2</title>
<g id="a_node2"><a xlink:href="classnet_1_1socket_1_1stream_1_1_socket_listener.html" target="_top" xlink:title=" ">
<polygon fill="white" stroke="black" points="26.17,-117.5 26.17,-372.5 193.17,-372.5 193.17,-117.5 26.17,-117.5"/>
<text text-anchor="start" x="34.17" y="-360.5" font-family="Helvetica,sans-Serif" font-size="10.00">net::socket::stream</text>
<text text-anchor="start" x="34.17" y="-349.5" font-family="Helvetica,sans-Serif" font-size="10.00">::SocketListener&lt; net</text>
<text text-anchor="start" x="34.17" y="-338.5" font-family="Helvetica,sans-Serif" font-size="10.00">::socket::stream::legacy</text>
<text text-anchor="middle" x="109.67" y="-327.5" font-family="Helvetica,sans-Serif" font-size="10.00">::SocketConnection&lt; SocketT &gt; &gt;</text>
<polyline fill="none" stroke="black" points="26.17,-320.5 193.17,-320.5 "/>
<text text-anchor="start" x="34.17" y="-308.5" font-family="Helvetica,sans-Serif" font-size="10.00"># options</text>
<text text-anchor="start" x="34.17" y="-297.5" font-family="Helvetica,sans-Serif" font-size="10.00"># onConnect</text>
<text text-anchor="start" x="34.17" y="-286.5" font-family="Helvetica,sans-Serif" font-size="10.00"># onDestruct</text>
<text text-anchor="start" x="34.17" y="-275.5" font-family="Helvetica,sans-Serif" font-size="10.00"># onConnected</text>
<text text-anchor="start" x="34.17" y="-264.5" font-family="Helvetica,sans-Serif" font-size="10.00"># onDisconnect</text>
<text text-anchor="start" x="34.17" y="-253.5" font-family="Helvetica,sans-Serif" font-size="10.00">&#45; socketContextFactory</text>
<polyline fill="none" stroke="black" points="26.17,-246.5 193.17,-246.5 "/>
<text text-anchor="start" x="34.17" y="-234.5" font-family="Helvetica,sans-Serif" font-size="10.00">+ SocketListener()</text>
<text text-anchor="start" x="34.17" y="-223.5" font-family="Helvetica,sans-Serif" font-size="10.00">+ ~SocketListener()</text>
<text text-anchor="start" x="34.17" y="-212.5" font-family="Helvetica,sans-Serif" font-size="10.00">+ listen()</text>
<text text-anchor="start" x="34.17" y="-201.5" font-family="Helvetica,sans-Serif" font-size="10.00"># destruct()</text>
<text text-anchor="start" x="34.17" y="-190.5" font-family="Helvetica,sans-Serif" font-size="10.00">&#45; SocketListener()</text>
<text text-anchor="start" x="34.17" y="-179.5" font-family="Helvetica,sans-Serif" font-size="10.00">&#45; SocketListener()</text>
<text text-anchor="start" x="34.17" y="-168.5" font-family="Helvetica,sans-Serif" font-size="10.00">&#45; operator=()</text>
<text text-anchor="start" x="34.17" y="-157.5" font-family="Helvetica,sans-Serif" font-size="10.00">&#45; reuseAddress()</text>
<text text-anchor="start" x="34.17" y="-146.5" font-family="Helvetica,sans-Serif" font-size="10.00">&#45; acceptEvent()</text>
<text text-anchor="start" x="34.17" y="-135.5" font-family="Helvetica,sans-Serif" font-size="10.00">&#45; end()</text>
<text text-anchor="start" x="34.17" y="-124.5" font-family="Helvetica,sans-Serif" font-size="10.00">&#45; unobserved()</text>
</a>
</g>
</g>
<!-- Node2&#45;&gt;Node1 -->
<g id="edge1" class="edge">
<title>Node2&#45;&gt;Node1</title>
<path fill="none" stroke="midnightblue" d="M109.67,-107.15C109.67,-97.42 109.67,-88.19 109.67,-79.87"/>
<polygon fill="none" stroke="midnightblue" points="106.17,-107.46 109.67,-117.46 113.17,-107.46 106.17,-107.46"/>
</g>
<!-- Node3 -->
<g id="node3" class="node">
<title>Node3</title>
<g id="a_node3"><a xlink:title=" ">
<polygon fill="white" stroke="#bfbfbf" points="6.17,-741 6.17,-809 113.17,-809 113.17,-741 6.17,-741"/>
<text text-anchor="start" x="14.17" y="-797" font-family="Helvetica,sans-Serif" font-size="10.00">SocketConnectionT::</text>
<text text-anchor="middle" x="59.67" y="-786" font-family="Helvetica,sans-Serif" font-size="10.00">Socket</text>
<polyline fill="none" stroke="#bfbfbf" points="6.17,-779 113.17,-779 "/>
<text text-anchor="middle" x="59.67" y="-767" font-family="Helvetica,sans-Serif" font-size="10.00"> </text>
<polyline fill="none" stroke="#bfbfbf" points="6.17,-760 113.17,-760 "/>
<text text-anchor="middle" x="59.67" y="-748" font-family="Helvetica,sans-Serif" font-size="10.00"> </text>
</a>
</g>
</g>
<!-- Node3&#45;&gt;Node2 -->
<g id="edge2" class="edge">
<title>Node3&#45;&gt;Node2</title>
<path fill="none" stroke="midnightblue" d="M36.53,-731.68C28.57,-714.87 20.66,-695.02 16.67,-676 -4.68,-574.21 -6.18,-543.46 16.67,-442 21.88,-418.85 30.16,-395.23 39.68,-372.76"/>
<polygon fill="none" stroke="midnightblue" points="33.4,-733.24 40.93,-740.69 39.68,-730.17 33.4,-733.24"/>
</g>
<!-- Node11 -->
<g id="node11" class="node">
<title>Node11</title>
<g id="a_node11"><a xlink:href="classnet_1_1socket_1_1stream_1_1_socket_listener.html" target="_top" xlink:title=" ">
<polygon fill="white" stroke="black" points="25.67,-442.5 25.67,-675.5 217.67,-675.5 217.67,-442.5 25.67,-442.5"/>
<text text-anchor="start" x="33.67" y="-663.5" font-family="Helvetica,sans-Serif" font-size="10.00">net::socket::stream</text>
<text text-anchor="middle" x="121.67" y="-652.5" font-family="Helvetica,sans-Serif" font-size="10.00">::SocketListener&lt; SocketConnectionT &gt;</text>
<polyline fill="none" stroke="black" points="25.67,-645.5 217.67,-645.5 "/>
<text text-anchor="start" x="33.67" y="-633.5" font-family="Helvetica,sans-Serif" font-size="10.00"># options</text>
<text text-anchor="start" x="33.67" y="-622.5" font-family="Helvetica,sans-Serif" font-size="10.00"># onConnect</text>
<text text-anchor="start" x="33.67" y="-611.5" font-family="Helvetica,sans-Serif" font-size="10.00"># onDestruct</text>
<text text-anchor="start" x="33.67" y="-600.5" font-family="Helvetica,sans-Serif" font-size="10.00"># onConnected</text>
<text text-anchor="start" x="33.67" y="-589.5" font-family="Helvetica,sans-Serif" font-size="10.00"># onDisconnect</text>
<text text-anchor="start" x="33.67" y="-578.5" font-family="Helvetica,sans-Serif" font-size="10.00">&#45; socketContextFactory</text>
<polyline fill="none" stroke="black" points="25.67,-571.5 217.67,-571.5 "/>
<text text-anchor="start" x="33.67" y="-559.5" font-family="Helvetica,sans-Serif" font-size="10.00">+ SocketListener()</text>
<text text-anchor="start" x="33.67" y="-548.5" font-family="Helvetica,sans-Serif" font-size="10.00">+ ~SocketListener()</text>
<text text-anchor="start" x="33.67" y="-537.5" font-family="Helvetica,sans-Serif" font-size="10.00">+ listen()</text>
<text text-anchor="start" x="33.67" y="-526.5" font-family="Helvetica,sans-Serif" font-size="10.00"># destruct()</text>
<text text-anchor="start" x="33.67" y="-515.5" font-family="Helvetica,sans-Serif" font-size="10.00">&#45; SocketListener()</text>
<text text-anchor="start" x="33.67" y="-504.5" font-family="Helvetica,sans-Serif" font-size="10.00">&#45; SocketListener()</text>
<text text-anchor="start" x="33.67" y="-493.5" font-family="Helvetica,sans-Serif" font-size="10.00">&#45; operator=()</text>
<text text-anchor="start" x="33.67" y="-482.5" font-family="Helvetica,sans-Serif" font-size="10.00">&#45; reuseAddress()</text>
<text text-anchor="start" x="33.67" y="-471.5" font-family="Helvetica,sans-Serif" font-size="10.00">&#45; acceptEvent()</text>
<text text-anchor="start" x="33.67" y="-460.5" font-family="Helvetica,sans-Serif" font-size="10.00">&#45; end()</text>
<text text-anchor="start" x="33.67" y="-449.5" font-family="Helvetica,sans-Serif" font-size="10.00">&#45; unobserved()</text>
</a>
</g>
</g>
<!-- Node3&#45;&gt;Node11 -->
<g id="edge11" class="edge">
<title>Node3&#45;&gt;Node11</title>
<path fill="none" stroke="midnightblue" d="M72.15,-730.9C76.85,-714.71 82.43,-695.44 88.13,-675.77"/>
<polygon fill="none" stroke="midnightblue" points="68.78,-729.98 69.36,-740.56 75.5,-731.93 68.78,-729.98"/>
</g>
<!-- Node4 -->
<g id="node4" class="node">
<title>Node4</title>
<g id="a_node4"><a xlink:href="classnet_1_1_accept_event_receiver.html" target="_top" xlink:title=" ">
<polygon fill="white" stroke="black" points="150.67,-713.5 150.67,-836.5 302.67,-836.5 302.67,-713.5 150.67,-713.5"/>
<text text-anchor="middle" x="226.67" y="-824.5" font-family="Helvetica,sans-Serif" font-size="10.00">net::AcceptEventReceiver</text>
<polyline fill="none" stroke="black" points="150.67,-817.5 302.67,-817.5 "/>
<text text-anchor="middle" x="226.67" y="-805.5" font-family="Helvetica,sans-Serif" font-size="10.00"> </text>
<polyline fill="none" stroke="black" points="150.67,-798.5 302.67,-798.5 "/>
<text text-anchor="start" x="158.67" y="-786.5" font-family="Helvetica,sans-Serif" font-size="10.00"># AcceptEventReceiver()</text>
<text text-anchor="start" x="158.67" y="-775.5" font-family="Helvetica,sans-Serif" font-size="10.00"># continueAcceptImmediately()</text>
<text text-anchor="start" x="158.67" y="-764.5" font-family="Helvetica,sans-Serif" font-size="10.00">&#45; acceptEvent()</text>
<text text-anchor="start" x="158.67" y="-753.5" font-family="Helvetica,sans-Serif" font-size="10.00">&#45; acceptTimeout()</text>
<text text-anchor="start" x="158.67" y="-742.5" font-family="Helvetica,sans-Serif" font-size="10.00">&#45; dispatchEvent()</text>
<text text-anchor="start" x="158.67" y="-731.5" font-family="Helvetica,sans-Serif" font-size="10.00">&#45; timeoutEvent()</text>
<text text-anchor="start" x="158.67" y="-720.5" font-family="Helvetica,sans-Serif" font-size="10.00">&#45; continueImmediately()</text>
</a>
</g>
</g>
<!-- Node4&#45;&gt;Node2 -->
<g id="edge3" class="edge">
<title>Node4&#45;&gt;Node2</title>
<path fill="none" stroke="midnightblue" d="M242.22,-703.11C256.23,-624.28 269.39,-494.43 231.67,-391 223.16,-367.67 209.05,-345.48 193.4,-325.8"/>
<polygon fill="none" stroke="midnightblue" points="238.69,-702.94 240.33,-713.41 245.58,-704.2 238.69,-702.94"/>
</g>
<!-- Node4&#45;&gt;Node11 -->
<g id="edge12" class="edge">
<title>Node4&#45;&gt;Node11</title>
<path fill="none" stroke="midnightblue" d="M192.41,-704.19C187.89,-694.97 183.17,-685.34 178.39,-675.61"/>
<polygon fill="none" stroke="midnightblue" points="189.31,-705.81 196.86,-713.25 195.6,-702.73 189.31,-705.81"/>
</g>
<!-- Node5 -->
<g id="node5" class="node">
<title>Node5</title>
<g id="a_node5"><a xlink:href="classnet_1_1_event_receiver.html" target="_top" xlink:title=" ">
<polygon fill="white" stroke="black" points="167.17,-874.5 167.17,-1206.5 286.17,-1206.5 286.17,-874.5 167.17,-874.5"/>
<text text-anchor="middle" x="226.67" y="-1194.5" font-family="Helvetica,sans-Serif" font-size="10.00">net::EventReceiver</text>
<polyline fill="none" stroke="black" points="167.17,-1187.5 286.17,-1187.5 "/>
<text text-anchor="start" x="175.17" y="-1175.5" font-family="Helvetica,sans-Serif" font-size="10.00">&#45; fd</text>
<text text-anchor="start" x="175.17" y="-1164.5" font-family="Helvetica,sans-Serif" font-size="10.00">&#45; _enabled</text>
<text text-anchor="start" x="175.17" y="-1153.5" font-family="Helvetica,sans-Serif" font-size="10.00">&#45; _suspended</text>
<text text-anchor="start" x="175.17" y="-1142.5" font-family="Helvetica,sans-Serif" font-size="10.00">&#45; maxInactivity</text>
<text text-anchor="start" x="175.17" y="-1131.5" font-family="Helvetica,sans-Serif" font-size="10.00">&#45; initialTimeout</text>
<polyline fill="none" stroke="black" points="167.17,-1124.5 286.17,-1124.5 "/>
<text text-anchor="start" x="175.17" y="-1112.5" font-family="Helvetica,sans-Serif" font-size="10.00">+ enable()</text>
<text text-anchor="start" x="175.17" y="-1101.5" font-family="Helvetica,sans-Serif" font-size="10.00">+ disable()</text>
<text text-anchor="start" x="175.17" y="-1090.5" font-family="Helvetica,sans-Serif" font-size="10.00">+ suspend()</text>
<text text-anchor="start" x="175.17" y="-1079.5" font-family="Helvetica,sans-Serif" font-size="10.00">+ resume()</text>
<text text-anchor="start" x="175.17" y="-1068.5" font-family="Helvetica,sans-Serif" font-size="10.00"># EventReceiver()</text>
<text text-anchor="start" x="175.17" y="-1057.5" font-family="Helvetica,sans-Serif" font-size="10.00"># ~EventReceiver()</text>
<text text-anchor="start" x="175.17" y="-1046.5" font-family="Helvetica,sans-Serif" font-size="10.00"># setTimeout()</text>
<text text-anchor="start" x="175.17" y="-1035.5" font-family="Helvetica,sans-Serif" font-size="10.00"># isEnabled()</text>
<text text-anchor="start" x="175.17" y="-1024.5" font-family="Helvetica,sans-Serif" font-size="10.00"># isSuspended()</text>
<text text-anchor="start" x="175.17" y="-1013.5" font-family="Helvetica,sans-Serif" font-size="10.00">&#45; EventReceiver()</text>
<text text-anchor="start" x="175.17" y="-1002.5" font-family="Helvetica,sans-Serif" font-size="10.00">&#45; operator=()</text>
<text text-anchor="start" x="175.17" y="-991.5" font-family="Helvetica,sans-Serif" font-size="10.00">&#45; dispatchEvent()</text>
<text text-anchor="start" x="175.17" y="-980.5" font-family="Helvetica,sans-Serif" font-size="10.00">&#45; timeoutEvent()</text>
<text text-anchor="start" x="175.17" y="-969.5" font-family="Helvetica,sans-Serif" font-size="10.00">&#45; continueImmediately()</text>
<text text-anchor="start" x="175.17" y="-958.5" font-family="Helvetica,sans-Serif" font-size="10.00">&#45; enabled()</text>
<text text-anchor="start" x="175.17" y="-947.5" font-family="Helvetica,sans-Serif" font-size="10.00">&#45; disabled()</text>
<text text-anchor="start" x="175.17" y="-936.5" font-family="Helvetica,sans-Serif" font-size="10.00">&#45; suspended()</text>
<text text-anchor="start" x="175.17" y="-925.5" font-family="Helvetica,sans-Serif" font-size="10.00">&#45; resumed()</text>
<text text-anchor="start" x="175.17" y="-914.5" font-family="Helvetica,sans-Serif" font-size="10.00">&#45; getTimeout()</text>
<text text-anchor="start" x="175.17" y="-903.5" font-family="Helvetica,sans-Serif" font-size="10.00">&#45; getLastTriggered()</text>
<text text-anchor="start" x="175.17" y="-892.5" font-family="Helvetica,sans-Serif" font-size="10.00">&#45; triggered()</text>
<text text-anchor="start" x="175.17" y="-881.5" font-family="Helvetica,sans-Serif" font-size="10.00">&#45; unobserved()</text>
</a>
</g>
</g>
<!-- Node5&#45;&gt;Node4 -->
<g id="edge4" class="edge">
<title>Node5&#45;&gt;Node4</title>
<path fill="none" stroke="midnightblue" d="M226.67,-864.33C226.67,-854.69 226.67,-845.4 226.67,-836.7"/>
<polygon fill="none" stroke="midnightblue" points="223.17,-864.49 226.67,-874.49 230.17,-864.49 223.17,-864.49"/>
</g>
<!-- Node6 -->
<g id="node6" class="node">
<title>Node6</title>
<g id="a_node6"><a xlink:href="classnet_1_1_observation_counter.html" target="_top" xlink:title=" ">
<polygon fill="white" stroke="black" points="149.17,-1342.5 149.17,-1410.5 272.17,-1410.5 272.17,-1342.5 149.17,-1342.5"/>
<text text-anchor="middle" x="210.67" y="-1398.5" font-family="Helvetica,sans-Serif" font-size="10.00">net::ObservationCounter</text>
<polyline fill="none" stroke="black" points="149.17,-1391.5 272.17,-1391.5 "/>
<text text-anchor="start" x="157.17" y="-1379.5" font-family="Helvetica,sans-Serif" font-size="10.00"># observationCounter</text>
<text text-anchor="start" x="157.17" y="-1368.5" font-family="Helvetica,sans-Serif" font-size="10.00"># lastTriggered</text>
<polyline fill="none" stroke="black" points="149.17,-1361.5 272.17,-1361.5 "/>
<text text-anchor="start" x="157.17" y="-1349.5" font-family="Helvetica,sans-Serif" font-size="10.00">+ isObserved()</text>
</a>
</g>
</g>
<!-- Node6&#45;&gt;Node5 -->
<g id="edge5" class="edge">
<title>Node6&#45;&gt;Node5</title>
<path fill="none" stroke="midnightblue" d="M212.74,-1332.24C214.29,-1299.83 216.53,-1253.24 218.75,-1206.82"/>
<polygon fill="none" stroke="midnightblue" points="209.24,-1332.1 212.26,-1342.25 216.24,-1332.43 209.24,-1332.1"/>
</g>
<!-- Node7 -->
<g id="node7" class="node">
<title>Node7</title>
<g id="a_node7"><a xlink:href="classnet_1_1_event_dispatcher.html" target="_top" xlink:title=" ">
<polygon fill="white" stroke="black" points="290.17,-1254.5 290.17,-1498.5 433.17,-1498.5 433.17,-1254.5 290.17,-1254.5"/>
<text text-anchor="middle" x="361.67" y="-1486.5" font-family="Helvetica,sans-Serif" font-size="10.00">net::EventDispatcher</text>
<polyline fill="none" stroke="black" points="290.17,-1479.5 433.17,-1479.5 "/>
<text text-anchor="start" x="298.17" y="-1467.5" font-family="Helvetica,sans-Serif" font-size="10.00">&#45; enabledEventReceiver</text>
<text text-anchor="start" x="298.17" y="-1456.5" font-family="Helvetica,sans-Serif" font-size="10.00">&#45; observedEventReceiver</text>
<text text-anchor="start" x="298.17" y="-1445.5" font-family="Helvetica,sans-Serif" font-size="10.00">&#45; disabledEventReceiver</text>
<text text-anchor="start" x="298.17" y="-1434.5" font-family="Helvetica,sans-Serif" font-size="10.00">&#45; eventCounter</text>
<polyline fill="none" stroke="black" points="290.17,-1427.5 433.17,-1427.5 "/>
<text text-anchor="start" x="298.17" y="-1415.5" font-family="Helvetica,sans-Serif" font-size="10.00">+ EventDispatcher()</text>
<text text-anchor="start" x="298.17" y="-1404.5" font-family="Helvetica,sans-Serif" font-size="10.00">+ enable()</text>
<text text-anchor="start" x="298.17" y="-1393.5" font-family="Helvetica,sans-Serif" font-size="10.00">+ disable()</text>
<text text-anchor="start" x="298.17" y="-1382.5" font-family="Helvetica,sans-Serif" font-size="10.00">+ suspend()</text>
<text text-anchor="start" x="298.17" y="-1371.5" font-family="Helvetica,sans-Serif" font-size="10.00">+ resume()</text>
<text text-anchor="start" x="298.17" y="-1360.5" font-family="Helvetica,sans-Serif" font-size="10.00">+ getEventCounter()</text>
<text text-anchor="start" x="298.17" y="-1349.5" font-family="Helvetica,sans-Serif" font-size="10.00">&#45; EventDispatcher()</text>
<text text-anchor="start" x="298.17" y="-1338.5" font-family="Helvetica,sans-Serif" font-size="10.00">&#45; operator=()</text>
<text text-anchor="start" x="298.17" y="-1327.5" font-family="Helvetica,sans-Serif" font-size="10.00">&#45; getMaxFd()</text>
<text text-anchor="start" x="298.17" y="-1316.5" font-family="Helvetica,sans-Serif" font-size="10.00">&#45; getFdSet()</text>
<text text-anchor="start" x="298.17" y="-1305.5" font-family="Helvetica,sans-Serif" font-size="10.00">&#45; dispatchActiveEvents()</text>
<text text-anchor="start" x="298.17" y="-1294.5" font-family="Helvetica,sans-Serif" font-size="10.00">&#45; observeEnabledEvents()</text>
<text text-anchor="start" x="298.17" y="-1283.5" font-family="Helvetica,sans-Serif" font-size="10.00">&#45; unobserveDisabledEvents()</text>
<text text-anchor="start" x="298.17" y="-1272.5" font-family="Helvetica,sans-Serif" font-size="10.00">&#45; releaseUnobservedEvents()</text>
<text text-anchor="start" x="298.17" y="-1261.5" font-family="Helvetica,sans-Serif" font-size="10.00">&#45; disableObservedEvents()</text>
</a>
</g>
</g>
<!-- Node7&#45;&gt;Node5 -->
<g id="edge6" class="edge">
<title>Node7&#45;&gt;Node5</title>
<path fill="none" stroke="#404040" d="M312.74,-1254.45C305.62,-1236.82 298.19,-1218.46 290.82,-1200.22"/>
<polygon fill="none" stroke="#404040" points="290.74,-1200.02 284.78,-1195.96 286.24,-1188.9 292.2,-1192.96 290.74,-1200.02"/>
<text text-anchor="middle" x="363.67" y="-1228" font-family="Helvetica,sans-Serif" font-size="10.00"> &#45;descriptorEventDispatcher</text>
</g>
<!-- Node8 -->
<g id="node8" class="node">
<title>Node8</title>
<g id="a_node8"><a xlink:href="classnet_1_1_event_dispatcher_1_1_descriptor_event_receiver_list.html" target="_top" xlink:title=" ">
<polygon fill="white" stroke="black" points="212.67,-1579.5 212.67,-1647.5 360.67,-1647.5 360.67,-1579.5 212.67,-1579.5"/>
<text text-anchor="start" x="220.67" y="-1635.5" font-family="Helvetica,sans-Serif" font-size="10.00">net::EventDispatcher</text>
<text text-anchor="middle" x="286.67" y="-1624.5" font-family="Helvetica,sans-Serif" font-size="10.00">::DescriptorEventReceiverList</text>
<polyline fill="none" stroke="black" points="212.67,-1617.5 360.67,-1617.5 "/>
<text text-anchor="middle" x="286.67" y="-1605.5" font-family="Helvetica,sans-Serif" font-size="10.00"> </text>
<polyline fill="none" stroke="black" points="212.67,-1598.5 360.67,-1598.5 "/>
<text text-anchor="start" x="220.67" y="-1586.5" font-family="Helvetica,sans-Serif" font-size="10.00">+ contains()</text>
</a>
</g>
</g>
<!-- Node8&#45;&gt;Node7 -->
<g id="edge7" class="edge">
<title>Node8&#45;&gt;Node7</title>
<path fill="none" stroke="#404040" d="M282.72,-1579.3C281.49,-1560.71 281.57,-1537.26 286.67,-1517 287.25,-1514.7 287.87,-1512.4 288.54,-1510.09"/>
<polygon fill="none" stroke="#404040" points="288.56,-1510.02 286.58,-1503.08 292.21,-1498.58 294.2,-1505.52 288.56,-1510.02"/>
<text text-anchor="middle" x="347.17" y="-1520" font-family="Helvetica,sans-Serif" font-size="10.00"> &#45;unobservedEventReceiver</text>
</g>
<!-- Node9 -->
<g id="node9" class="node">
<title>Node9</title>
<g id="a_node9"><a xlink:title=" ">
<polygon fill="white" stroke="#bfbfbf" points="217.67,-1718.5 217.67,-1775.5 355.67,-1775.5 355.67,-1718.5 217.67,-1718.5"/>
<text text-anchor="middle" x="286.67" y="-1763.5" font-family="Helvetica,sans-Serif" font-size="10.00">std::list&lt; EventReceiver * &gt;</text>
<polyline fill="none" stroke="#bfbfbf" points="217.67,-1756.5 355.67,-1756.5 "/>
<text text-anchor="middle" x="286.67" y="-1744.5" font-family="Helvetica,sans-Serif" font-size="10.00"> </text>
<polyline fill="none" stroke="#bfbfbf" points="217.67,-1737.5 355.67,-1737.5 "/>
<text text-anchor="middle" x="286.67" y="-1725.5" font-family="Helvetica,sans-Serif" font-size="10.00"> </text>
</a>
</g>
</g>
<!-- Node9&#45;&gt;Node8 -->
<g id="edge8" class="edge">
<title>Node9&#45;&gt;Node8</title>
<path fill="none" stroke="midnightblue" d="M286.67,-1708.25C286.67,-1689.11 286.67,-1666.07 286.67,-1647.62"/>
<polygon fill="none" stroke="midnightblue" points="283.17,-1708.43 286.67,-1718.43 290.17,-1708.43 283.17,-1708.43"/>
</g>
<!-- Node10 -->
<g id="node10" class="node">
<title>Node10</title>
<g id="a_node10"><a xlink:href="classnet_1_1_event_dispatcher_1_1_fd_set.html" target="_top" xlink:title=" ">
<polygon fill="white" stroke="black" points="379.17,-1546.5 379.17,-1680.5 488.17,-1680.5 488.17,-1546.5 379.17,-1546.5"/>
<text text-anchor="start" x="387.17" y="-1668.5" font-family="Helvetica,sans-Serif" font-size="10.00">net::EventDispatcher</text>
<text text-anchor="middle" x="433.67" y="-1657.5" font-family="Helvetica,sans-Serif" font-size="10.00">::FdSet</text>
<polyline fill="none" stroke="black" points="379.17,-1650.5 488.17,-1650.5 "/>
<text text-anchor="start" x="387.17" y="-1638.5" font-family="Helvetica,sans-Serif" font-size="10.00"># registered</text>
<text text-anchor="start" x="387.17" y="-1627.5" font-family="Helvetica,sans-Serif" font-size="10.00"># active</text>
<polyline fill="none" stroke="black" points="379.17,-1620.5 488.17,-1620.5 "/>
<text text-anchor="start" x="387.17" y="-1608.5" font-family="Helvetica,sans-Serif" font-size="10.00">+ FdSet()</text>
<text text-anchor="start" x="387.17" y="-1597.5" font-family="Helvetica,sans-Serif" font-size="10.00">+ set()</text>
<text text-anchor="start" x="387.17" y="-1586.5" font-family="Helvetica,sans-Serif" font-size="10.00">+ clr()</text>
<text text-anchor="start" x="387.17" y="-1575.5" font-family="Helvetica,sans-Serif" font-size="10.00">+ isSet()</text>
<text text-anchor="start" x="387.17" y="-1564.5" font-family="Helvetica,sans-Serif" font-size="10.00">+ zero()</text>
<text text-anchor="start" x="387.17" y="-1553.5" font-family="Helvetica,sans-Serif" font-size="10.00">+ get()</text>
</a>
</g>
</g>
<!-- Node10&#45;&gt;Node7 -->
<g id="edge9" class="edge">
<title>Node10&#45;&gt;Node7</title>
<path fill="none" stroke="#404040" d="M419.53,-1546.48C417.09,-1536.55 414.45,-1526.47 411.67,-1517 411,-1514.73 410.32,-1512.45 409.62,-1510.15"/>
<polygon fill="none" stroke="#404040" points="409.59,-1510.03 403.99,-1505.49 406.03,-1498.57 411.63,-1503.12 409.59,-1510.03"/>
<text text-anchor="middle" x="429.67" y="-1520" font-family="Helvetica,sans-Serif" font-size="10.00"> &#45;fdSet</text>
</g>
<!-- Node11&#45;&gt;Node2 -->
<g id="edge10" class="edge">
<title>Node11&#45;&gt;Node2</title>
<path fill="none" stroke="orange" d="M111.06,-432.16C110.92,-429.42 110.79,-426.69 110.67,-424 109.94,-407.48 109.48,-390.09 109.2,-372.92"/>
<polygon fill="orange" stroke="orange" points="107.56,-432.39 111.61,-442.19 114.55,-432.01 107.56,-432.39"/>
<text text-anchor="start" x="110.67" y="-416" font-family="Helvetica,sans-Serif" font-size="10.00"> &lt; net::socket::stream</text>
<text text-anchor="start" x="110.67" y="-405" font-family="Helvetica,sans-Serif" font-size="10.00">::legacy::SocketConnection</text>
<text text-anchor="middle" x="171.17" y="-394" font-family="Helvetica,sans-Serif" font-size="10.00">&lt; SocketT &gt; &gt;</text>
</g>
</g>
</svg>
