<?xml version="1.0" encoding="UTF-8" standalone="no"?>
<!DOCTYPE svg PUBLIC "-//W3C//DTD SVG 1.1//EN"
 "http://www.w3.org/Graphics/SVG/1.1/DTD/svg11.dtd">
<!-- Generated by graphviz version 2.43.0 (0)
 -->
<!-- Title: net::rf::stream::Socket Pages: 1 -->
<svg width="248pt" height="658pt"
 viewBox="0.00 0.00 247.50 658.00" xmlns="http://www.w3.org/2000/svg" xmlns:xlink="http://www.w3.org/1999/xlink">
<g id="graph0" class="graph" transform="scale(1 1) rotate(0) translate(4 654)">
<title>net::rf::stream::Socket</title>
<polygon fill="white" stroke="transparent" points="-4,4 -4,-654 243.5,-654 243.5,4 -4,4"/>
<!-- Node1 -->
<g id="node1" class="node">
<title>Node1</title>
<g id="a_node1"><a xlink:title=" ">
<polygon fill="#bfbfbf" stroke="black" points="10.5,-0.5 10.5,-57.5 134.5,-57.5 134.5,-0.5 10.5,-0.5"/>
<text text-anchor="middle" x="72.5" y="-45.5" font-family="Helvetica,sans-Serif" font-size="10.00">net::rf::stream::Socket</text>
<polyline fill="none" stroke="black" points="10.5,-38.5 134.5,-38.5 "/>
<text text-anchor="middle" x="72.5" y="-26.5" font-family="Helvetica,sans-Serif" font-size="10.00"> </text>
<polyline fill="none" stroke="black" points="10.5,-19.5 134.5,-19.5 "/>
<text text-anchor="start" x="18.5" y="-7.5" font-family="Helvetica,sans-Serif" font-size="10.00"># create()</text>
</a>
</g>
</g>
<!-- Node2 -->
<g id="node2" class="node">
<title>Node2</title>
<g id="a_node2"><a xlink:href="classcore_1_1socket_1_1_socket.html" target="_top" xlink:title=" ">
<polygon fill="white" stroke="black" points="0,-95.5 0,-251.5 145,-251.5 145,-95.5 0,-95.5"/>
<text text-anchor="start" x="8" y="-239.5" font-family="Helvetica,sans-Serif" font-size="10.00">core::socket::Socket</text>
<text text-anchor="middle" x="72.5" y="-228.5" font-family="Helvetica,sans-Serif" font-size="10.00">&lt; net::rf::SocketAddress &gt;</text>
<polyline fill="none" stroke="black" points="0,-221.5 145,-221.5 "/>
<text text-anchor="start" x="8" y="-209.5" font-family="Helvetica,sans-Serif" font-size="10.00"># bindAddress</text>
<polyline fill="none" stroke="black" points="0,-202.5 145,-202.5 "/>
<text text-anchor="start" x="8" y="-190.5" font-family="Helvetica,sans-Serif" font-size="10.00">+ shutdown()</text>
<text text-anchor="start" x="8" y="-179.5" font-family="Helvetica,sans-Serif" font-size="10.00">+ Socket()</text>
<text text-anchor="start" x="8" y="-168.5" font-family="Helvetica,sans-Serif" font-size="10.00">+ Socket()</text>
<text text-anchor="start" x="8" y="-157.5" font-family="Helvetica,sans-Serif" font-size="10.00">+ operator=()</text>
<text text-anchor="start" x="8" y="-146.5" font-family="Helvetica,sans-Serif" font-size="10.00">+ open()</text>
<text text-anchor="start" x="8" y="-135.5" font-family="Helvetica,sans-Serif" font-size="10.00">+ bind()</text>
<text text-anchor="start" x="8" y="-124.5" font-family="Helvetica,sans-Serif" font-size="10.00">+ getBindAddress()</text>
<text text-anchor="start" x="8" y="-113.5" font-family="Helvetica,sans-Serif" font-size="10.00"># ~Socket()</text>
<text text-anchor="start" x="8" y="-102.5" font-family="Helvetica,sans-Serif" font-size="10.00"># create()</text>
</a>
</g>
</g>
<!-- Node2&#45;&gt;Node1 -->
<g id="edge1" class="edge">
<title>Node2&#45;&gt;Node1</title>
<path fill="none" stroke="midnightblue" d="M72.5,-85.36C72.5,-75.43 72.5,-65.93 72.5,-57.69"/>
<polygon fill="none" stroke="midnightblue" points="69,-85.41 72.5,-95.41 76,-85.41 69,-85.41"/>
</g>
<!-- Node3 -->
<g id="node3" class="node">
<title>Node3</title>
<g id="a_node3"><a xlink:href="classcore_1_1_descriptor.html" target="_top" xlink:title=" ">
<polygon fill="white" stroke="black" points="21.5,-493.5 21.5,-649.5 115.5,-649.5 115.5,-493.5 21.5,-493.5"/>
<text text-anchor="middle" x="68.5" y="-637.5" font-family="Helvetica,sans-Serif" font-size="10.00">core::Descriptor</text>
<polyline fill="none" stroke="black" points="21.5,-630.5 115.5,-630.5 "/>
<text text-anchor="start" x="29.5" y="-618.5" font-family="Helvetica,sans-Serif" font-size="10.00"># none</text>
<text text-anchor="start" x="29.5" y="-607.5" font-family="Helvetica,sans-Serif" font-size="10.00">&#45; fd</text>
<polyline fill="none" stroke="black" points="21.5,-600.5 115.5,-600.5 "/>
<text text-anchor="start" x="29.5" y="-588.5" font-family="Helvetica,sans-Serif" font-size="10.00"># Descriptor()</text>
<text text-anchor="start" x="29.5" y="-577.5" font-family="Helvetica,sans-Serif" font-size="10.00"># ~Descriptor()</text>
<text text-anchor="start" x="29.5" y="-566.5" font-family="Helvetica,sans-Serif" font-size="10.00"># attachFd()</text>
<text text-anchor="start" x="29.5" y="-555.5" font-family="Helvetica,sans-Serif" font-size="10.00"># getFd()</text>
<text text-anchor="start" x="29.5" y="-544.5" font-family="Helvetica,sans-Serif" font-size="10.00"># dontClose()</text>
<text text-anchor="start" x="29.5" y="-533.5" font-family="Helvetica,sans-Serif" font-size="10.00"># dontClose()</text>
<text text-anchor="start" x="29.5" y="-522.5" font-family="Helvetica,sans-Serif" font-size="10.00">&#45; Descriptor()</text>
<text text-anchor="start" x="29.5" y="-511.5" font-family="Helvetica,sans-Serif" font-size="10.00">&#45; operator=()</text>
<text text-anchor="start" x="29.5" y="-500.5" font-family="Helvetica,sans-Serif" font-size="10.00">&#45; close()</text>
</a>
</g>
</g>
<!-- Node3&#45;&gt;Node2 -->
<g id="edge2" class="edge">
<title>Node3&#45;&gt;Node2</title>
<path fill="none" stroke="midnightblue" d="M69.38,-483.19C70.08,-413.93 71.05,-318.05 71.72,-251.6"/>
<polygon fill="none" stroke="midnightblue" points="65.88,-483.17 69.28,-493.21 72.88,-483.24 65.88,-483.17"/>
</g>
<!-- Node4 -->
<g id="node4" class="node">
<title>Node4</title>
<g id="a_node4"><a xlink:href="classcore_1_1socket_1_1_socket.html" target="_top" xlink:title=" ">
<polygon fill="white" stroke="black" points="84.5,-299.5 84.5,-455.5 200.5,-455.5 200.5,-299.5 84.5,-299.5"/>
<text text-anchor="start" x="92.5" y="-443.5" font-family="Helvetica,sans-Serif" font-size="10.00">core::socket::Socket</text>
<text text-anchor="middle" x="142.5" y="-432.5" font-family="Helvetica,sans-Serif" font-size="10.00">&lt; SocketAddressT &gt;</text>
<polyline fill="none" stroke="black" points="84.5,-425.5 200.5,-425.5 "/>
<text text-anchor="start" x="92.5" y="-413.5" font-family="Helvetica,sans-Serif" font-size="10.00"># bindAddress</text>
<polyline fill="none" stroke="black" points="84.5,-406.5 200.5,-406.5 "/>
<text text-anchor="start" x="92.5" y="-394.5" font-family="Helvetica,sans-Serif" font-size="10.00">+ Socket()</text>
<text text-anchor="start" x="92.5" y="-383.5" font-family="Helvetica,sans-Serif" font-size="10.00">+ Socket()</text>
<text text-anchor="start" x="92.5" y="-372.5" font-family="Helvetica,sans-Serif" font-size="10.00">+ operator=()</text>
<text text-anchor="start" x="92.5" y="-361.5" font-family="Helvetica,sans-Serif" font-size="10.00">+ open()</text>
<text text-anchor="start" x="92.5" y="-350.5" font-family="Helvetica,sans-Serif" font-size="10.00">+ bind()</text>
<text text-anchor="start" x="92.5" y="-339.5" font-family="Helvetica,sans-Serif" font-size="10.00">+ shutdown()</text>
<text text-anchor="start" x="92.5" y="-328.5" font-family="Helvetica,sans-Serif" font-size="10.00">+ getBindAddress()</text>
<text text-anchor="start" x="92.5" y="-317.5" font-family="Helvetica,sans-Serif" font-size="10.00"># ~Socket()</text>
<text text-anchor="start" x="92.5" y="-306.5" font-family="Helvetica,sans-Serif" font-size="10.00"># create()</text>
</a>
</g>
</g>
<!-- Node3&#45;&gt;Node4 -->
<g id="edge4" class="edge">
<title>Node3&#45;&gt;Node4</title>
<path fill="none" stroke="midnightblue" d="M101.89,-483.87C105.52,-474.45 109.2,-464.9 112.78,-455.61"/>
<polygon fill="none" stroke="midnightblue" points="98.61,-482.65 98.28,-493.24 105.14,-485.16 98.61,-482.65"/>
</g>
<!-- Node4&#45;&gt;Node2 -->
<g id="edge3" class="edge">
<title>Node4&#45;&gt;Node2</title>
<path fill="none" stroke="orange" d="M112.41,-289.68C108.04,-277.05 103.55,-264.11 99.25,-251.69"/>
<polygon fill="orange" stroke="orange" points="109.15,-290.97 115.74,-299.27 115.77,-288.67 109.15,-290.97"/>
<text text-anchor="middle" x="173.5" y="-273" font-family="Helvetica,sans-Serif" font-size="10.00"> &lt; net::rf::SocketAddress &gt;</text>
</g>
</g>
</svg>
