<?xml version="1.0" encoding="UTF-8" standalone="no"?>
<!DOCTYPE svg PUBLIC "-//W3C//DTD SVG 1.1//EN"
 "http://www.w3.org/Graphics/SVG/1.1/DTD/svg11.dtd">
<!-- Generated by graphviz version 2.43.0 (0)
 -->
<!-- Title: net::config::ConfigTls Pages: 1 -->
<svg width="1700pt" height="151pt"
 viewBox="0.00 0.00 1699.50 151.00" xmlns="http://www.w3.org/2000/svg" xmlns:xlink="http://www.w3.org/1999/xlink">
<g id="graph0" class="graph" transform="scale(1 1) rotate(0) translate(4 147)">
<title>net::config::ConfigTls</title>
<polygon fill="white" stroke="transparent" points="-4,4 -4,-147 1695.5,-147 1695.5,4 -4,4"/>
<!-- Node1 -->
<g id="node1" class="node">
<title>Node1</title>
<g id="a_node1"><a xlink:title=" ">
<polygon fill="#bfbfbf" stroke="black" points="784.5,-67.5 784.5,-86.5 904.5,-86.5 904.5,-67.5 784.5,-67.5"/>
<text text-anchor="middle" x="844.5" y="-74.5" font-family="Helvetica,sans-Serif" font-size="10.00">net::config::ConfigTls</text>
</a>
</g>
</g>
<!-- Node3 -->
<g id="node3" class="node">
<title>Node3</title>
<g id="a_node3"><a xlink:href="classnet_1_1in6_1_1stream_1_1tls_1_1config_1_1_config_socket_client.html" target="_top" xlink:title=" ">
<polygon fill="white" stroke="black" points="0,-0.5 0,-30.5 151,-30.5 151,-0.5 0,-0.5"/>
<text text-anchor="start" x="8" y="-18.5" font-family="Helvetica,sans-Serif" font-size="10.00">net::in6::stream::tls</text>
<text text-anchor="middle" x="75.5" y="-7.5" font-family="Helvetica,sans-Serif" font-size="10.00">::config::ConfigSocketClient</text>
</a>
</g>
</g>
<!-- Node1&#45;&gt;Node3 -->
<g id="edge2" class="edge">
<title>Node1&#45;&gt;Node3</title>
<path fill="none" stroke="midnightblue" d="M774.25,-73.77C650.07,-69.3 383.8,-57.32 160.5,-31 157.53,-30.65 154.5,-30.27 151.44,-29.85"/>
<polygon fill="none" stroke="midnightblue" points="774.26,-77.28 784.38,-74.13 774.51,-70.28 774.26,-77.28"/>
</g>
<!-- Node4 -->
<g id="node4" class="node">
<title>Node4</title>
<g id="a_node4"><a xlink:href="classnet_1_1in6_1_1stream_1_1tls_1_1config_1_1_config_socket_server.html" target="_top" xlink:title=" ">
<polygon fill="white" stroke="black" points="169.5,-0.5 169.5,-30.5 323.5,-30.5 323.5,-0.5 169.5,-0.5"/>
<text text-anchor="start" x="177.5" y="-18.5" font-family="Helvetica,sans-Serif" font-size="10.00">net::in6::stream::tls</text>
<text text-anchor="middle" x="246.5" y="-7.5" font-family="Helvetica,sans-Serif" font-size="10.00">::config::ConfigSocketServer</text>
</a>
</g>
</g>
<!-- Node1&#45;&gt;Node4 -->
<g id="edge3" class="edge">
<title>Node1&#45;&gt;Node4</title>
<path fill="none" stroke="midnightblue" d="M774.27,-71.6C675.43,-65 489.79,-51.14 332.5,-31 329.65,-30.63 326.74,-30.24 323.81,-29.83"/>
<polygon fill="none" stroke="midnightblue" points="774.22,-75.1 784.43,-72.27 774.68,-68.12 774.22,-75.1"/>
</g>
<!-- Node5 -->
<g id="node5" class="node">
<title>Node5</title>
<g id="a_node5"><a xlink:href="classnet_1_1in_1_1stream_1_1tls_1_1config_1_1_config_socket_client.html" target="_top" xlink:title=" ">
<polygon fill="white" stroke="black" points="342,-0.5 342,-30.5 493,-30.5 493,-0.5 342,-0.5"/>
<text text-anchor="start" x="350" y="-18.5" font-family="Helvetica,sans-Serif" font-size="10.00">net::in::stream::tls</text>
<text text-anchor="middle" x="417.5" y="-7.5" font-family="Helvetica,sans-Serif" font-size="10.00">::config::ConfigSocketClient</text>
</a>
</g>
</g>
<!-- Node1&#45;&gt;Node5 -->
<g id="edge4" class="edge">
<title>Node1&#45;&gt;Node5</title>
<path fill="none" stroke="midnightblue" d="M774.13,-67.54C704.91,-59.02 596.28,-45.16 502.5,-31 499.39,-30.53 496.22,-30.04 493.02,-29.54"/>
<polygon fill="none" stroke="midnightblue" points="774.12,-71.06 784.48,-68.81 774.98,-64.11 774.12,-71.06"/>
</g>
<!-- Node6 -->
<g id="node6" class="node">
<title>Node6</title>
<g id="a_node6"><a xlink:href="classnet_1_1in_1_1stream_1_1tls_1_1config_1_1_config_socket_server.html" target="_top" xlink:title=" ">
<polygon fill="white" stroke="black" points="511.5,-0.5 511.5,-30.5 665.5,-30.5 665.5,-0.5 511.5,-0.5"/>
<text text-anchor="start" x="519.5" y="-18.5" font-family="Helvetica,sans-Serif" font-size="10.00">net::in::stream::tls</text>
<text text-anchor="middle" x="588.5" y="-7.5" font-family="Helvetica,sans-Serif" font-size="10.00">::config::ConfigSocketServer</text>
</a>
</g>
</g>
<!-- Node1&#45;&gt;Node6 -->
<g id="edge5" class="edge">
<title>Node1&#45;&gt;Node6</title>
<path fill="none" stroke="midnightblue" d="M797.9,-65.17C756.07,-55.45 694.42,-41.12 648.83,-30.52"/>
<polygon fill="none" stroke="midnightblue" points="797.29,-68.62 807.82,-67.48 798.87,-61.8 797.29,-68.62"/>
</g>
<!-- Node7 -->
<g id="node7" class="node">
<title>Node7</title>
<g id="a_node7"><a xlink:href="classnet_1_1l2_1_1stream_1_1tls_1_1config_1_1_config_socket_client.html" target="_top" xlink:title=" ">
<polygon fill="white" stroke="black" points="684,-0.5 684,-30.5 835,-30.5 835,-0.5 684,-0.5"/>
<text text-anchor="start" x="692" y="-18.5" font-family="Helvetica,sans-Serif" font-size="10.00">net::l2::stream::tls</text>
<text text-anchor="middle" x="759.5" y="-7.5" font-family="Helvetica,sans-Serif" font-size="10.00">::config::ConfigSocketClient</text>
</a>
</g>
</g>
<!-- Node1&#45;&gt;Node7 -->
<g id="edge6" class="edge">
<title>Node1&#45;&gt;Node7</title>
<path fill="none" stroke="midnightblue" d="M824.13,-61.74C810.62,-52.28 792.97,-39.93 779.53,-30.52"/>
<polygon fill="none" stroke="midnightblue" points="822.12,-64.61 832.32,-67.48 826.14,-58.87 822.12,-64.61"/>
</g>
<!-- Node8 -->
<g id="node8" class="node">
<title>Node8</title>
<g id="a_node8"><a xlink:href="classnet_1_1l2_1_1stream_1_1tls_1_1config_1_1_config_socket_server.html" target="_top" xlink:title=" ">
<polygon fill="white" stroke="black" points="853.5,-0.5 853.5,-30.5 1007.5,-30.5 1007.5,-0.5 853.5,-0.5"/>
<text text-anchor="start" x="861.5" y="-18.5" font-family="Helvetica,sans-Serif" font-size="10.00">net::l2::stream::tls</text>
<text text-anchor="middle" x="930.5" y="-7.5" font-family="Helvetica,sans-Serif" font-size="10.00">::config::ConfigSocketServer</text>
</a>
</g>
</g>
<!-- Node1&#45;&gt;Node8 -->
<g id="edge7" class="edge">
<title>Node1&#45;&gt;Node8</title>
<path fill="none" stroke="midnightblue" d="M865.11,-61.74C878.78,-52.28 896.63,-39.93 910.23,-30.52"/>
<polygon fill="none" stroke="midnightblue" points="863.05,-58.91 856.82,-67.48 867.04,-64.66 863.05,-58.91"/>
</g>
<!-- Node9 -->
<g id="node9" class="node">
<title>Node9</title>
<g id="a_node9"><a xlink:href="classnet_1_1rc_1_1stream_1_1tls_1_1config_1_1_config_socket_client.html" target="_top" xlink:title=" ">
<polygon fill="white" stroke="black" points="1026,-0.5 1026,-30.5 1177,-30.5 1177,-0.5 1026,-0.5"/>
<text text-anchor="start" x="1034" y="-18.5" font-family="Helvetica,sans-Serif" font-size="10.00">net::rc::stream::tls</text>
<text text-anchor="middle" x="1101.5" y="-7.5" font-family="Helvetica,sans-Serif" font-size="10.00">::config::ConfigSocketClient</text>
</a>
</g>
</g>
<!-- Node1&#45;&gt;Node9 -->
<g id="edge8" class="edge">
<title>Node1&#45;&gt;Node9</title>
<path fill="none" stroke="midnightblue" d="M891.28,-65.17C933.28,-55.45 995.17,-41.12 1040.93,-30.52"/>
<polygon fill="none" stroke="midnightblue" points="890.27,-61.81 881.32,-67.48 891.85,-68.63 890.27,-61.81"/>
</g>
<!-- Node10 -->
<g id="node10" class="node">
<title>Node10</title>
<g id="a_node10"><a xlink:href="classnet_1_1rc_1_1stream_1_1tls_1_1config_1_1_config_socket_server.html" target="_top" xlink:title=" ">
<polygon fill="white" stroke="black" points="1195.5,-0.5 1195.5,-30.5 1349.5,-30.5 1349.5,-0.5 1195.5,-0.5"/>
<text text-anchor="start" x="1203.5" y="-18.5" font-family="Helvetica,sans-Serif" font-size="10.00">net::rc::stream::tls</text>
<text text-anchor="middle" x="1272.5" y="-7.5" font-family="Helvetica,sans-Serif" font-size="10.00">::config::ConfigSocketServer</text>
</a>
</g>
</g>
<!-- Node1&#45;&gt;Node10 -->
<g id="edge9" class="edge">
<title>Node1&#45;&gt;Node10</title>
<path fill="none" stroke="midnightblue" d="M914.86,-67.5C984.08,-58.96 1092.71,-45.07 1186.5,-31 1189.34,-30.57 1192.24,-30.13 1195.17,-29.67"/>
<polygon fill="none" stroke="midnightblue" points="914.02,-64.08 904.52,-68.77 914.87,-71.02 914.02,-64.08"/>
</g>
<!-- Node11 -->
<g id="node11" class="node">
<title>Node11</title>
<g id="a_node11"><a xlink:href="classnet_1_1un_1_1stream_1_1tls_1_1config_1_1_config_socket_client.html" target="_top" xlink:title=" ">
<polygon fill="white" stroke="black" points="1368,-0.5 1368,-30.5 1519,-30.5 1519,-0.5 1368,-0.5"/>
<text text-anchor="start" x="1376" y="-18.5" font-family="Helvetica,sans-Serif" font-size="10.00">net::un::stream::tls</text>
<text text-anchor="middle" x="1443.5" y="-7.5" font-family="Helvetica,sans-Serif" font-size="10.00">::config::ConfigSocketClient</text>
</a>
</g>
</g>
<!-- Node1&#45;&gt;Node11 -->
<g id="edge10" class="edge">
<title>Node1&#45;&gt;Node11</title>
<path fill="none" stroke="midnightblue" d="M915.01,-71.66C1014.24,-65.13 1200.62,-51.34 1358.5,-31 1361.47,-30.62 1364.49,-30.21 1367.55,-29.77"/>
<polygon fill="none" stroke="midnightblue" points="914.56,-68.18 904.81,-72.32 915.02,-75.16 914.56,-68.18"/>
</g>
<!-- Node12 -->
<g id="node12" class="node">
<title>Node12</title>
<g id="a_node12"><a xlink:href="classnet_1_1un_1_1stream_1_1tls_1_1config_1_1_config_socket_server.html" target="_top" xlink:title=" ">
<polygon fill="white" stroke="black" points="1537.5,-0.5 1537.5,-30.5 1691.5,-30.5 1691.5,-0.5 1537.5,-0.5"/>
<text text-anchor="start" x="1545.5" y="-18.5" font-family="Helvetica,sans-Serif" font-size="10.00">net::un::stream::tls</text>
<text text-anchor="middle" x="1614.5" y="-7.5" font-family="Helvetica,sans-Serif" font-size="10.00">::config::ConfigSocketServer</text>
</a>
</g>
</g>
<!-- Node1&#45;&gt;Node12 -->
<g id="edge11" class="edge">
<title>Node1&#45;&gt;Node12</title>
<path fill="none" stroke="midnightblue" d="M914.75,-73.73C1038.92,-69.19 1305.17,-57.11 1528.5,-31 1531.36,-30.67 1534.26,-30.3 1537.2,-29.91"/>
<polygon fill="none" stroke="midnightblue" points="914.48,-70.24 904.61,-74.09 914.73,-77.23 914.48,-70.24"/>
</g>
<!-- Node2 -->
<g id="node2" class="node">
<title>Node2</title>
<g id="a_node2"><a xlink:href="classnet_1_1config_1_1_config_base.html" target="_top" xlink:title=" ">
<polygon fill="white" stroke="black" points="779.5,-123.5 779.5,-142.5 909.5,-142.5 909.5,-123.5 779.5,-123.5"/>
<text text-anchor="middle" x="844.5" y="-130.5" font-family="Helvetica,sans-Serif" font-size="10.00">net::config::ConfigBase</text>
</a>
</g>
</g>
<!-- Node2&#45;&gt;Node1 -->
<g id="edge1" class="edge">
<title>Node2&#45;&gt;Node1</title>
<path fill="none" stroke="darkgreen" d="M844.5,-112.8C844.5,-103.91 844.5,-93.78 844.5,-86.75"/>
<polygon fill="none" stroke="darkgreen" points="841,-113.08 844.5,-123.08 848,-113.08 841,-113.08"/>
</g>
</g>
</svg>
