<?xml version="1.0" encoding="UTF-8" standalone="no"?>
<!DOCTYPE svg PUBLIC "-//W3C//DTD SVG 1.1//EN"
 "http://www.w3.org/Graphics/SVG/1.1/DTD/svg11.dtd">
<!-- Generated by graphviz version 2.43.0 (0)
 -->
<!-- Title: core::socket::stream::tls::SocketAcceptor::SocketAcceptor Pages: 1 -->
<svg width="405pt" height="137pt"
 viewBox="0.00 0.00 405.00 137.00" xmlns="http://www.w3.org/2000/svg" xmlns:xlink="http://www.w3.org/1999/xlink">
<g id="graph0" class="graph" transform="scale(1 1) rotate(0) translate(4 133)">
<title>core::socket::stream::tls::SocketAcceptor::SocketAcceptor</title>
<polygon fill="white" stroke="transparent" points="-4,4 -4,-133 401,-133 401,4 -4,4"/>
<!-- Node1 -->
<g id="node1" class="node">
<title>Node1</title>
<g id="a_node1"><a xlink:title=" ">
<polygon fill="#bfbfbf" stroke="black" points="0,-44 0,-85 109,-85 109,-44 0,-44"/>
<text text-anchor="start" x="8" y="-73" font-family="Helvetica,sans-Serif" font-size="10.00">core::socket::stream</text>
<text text-anchor="start" x="8" y="-62" font-family="Helvetica,sans-Serif" font-size="10.00">::tls::SocketAcceptor</text>
<text text-anchor="middle" x="54.5" y="-51" font-family="Helvetica,sans-Serif" font-size="10.00">::SocketAcceptor</text>
</a>
</g>
</g>
<!-- Node2 -->
<g id="node2" class="node">
<title>Node2</title>
<g id="a_node2"><a xlink:href="namespacecore_1_1socket_1_1stream_1_1tls.html#adae6a3615f37e032ede0621579fee758" target="_top" xlink:title=" ">
<polygon fill="white" stroke="black" points="145,-49.5 145,-79.5 252,-79.5 252,-49.5 145,-49.5"/>
<text text-anchor="start" x="153" y="-67.5" font-family="Helvetica,sans-Serif" font-size="10.00">core::socket::stream</text>
<text text-anchor="middle" x="198.5" y="-56.5" font-family="Helvetica,sans-Serif" font-size="10.00">::tls::ssl_log</text>
</a>
</g>
</g>
<!-- Node1&#45;&gt;Node2 -->
<g id="edge1" class="edge">
<title>Node1&#45;&gt;Node2</title>
<path fill="none" stroke="midnightblue" d="M109.18,-64.5C117.45,-64.5 126.04,-64.5 134.49,-64.5"/>
<polygon fill="midnightblue" stroke="midnightblue" points="134.68,-68 144.68,-64.5 134.68,-61 134.68,-68"/>
</g>
<!-- Node3 -->
<g id="node3" class="node">
<title>Node3</title>
<g id="a_node3"><a xlink:href="namespacecore_1_1socket_1_1stream_1_1tls.html#afe89f684150f8b6288c799f430809e29" target="_top" xlink:title=" ">
<polygon fill="white" stroke="black" points="289,-98.5 289,-128.5 396,-128.5 396,-98.5 289,-98.5"/>
<text text-anchor="start" x="297" y="-116.5" font-family="Helvetica,sans-Serif" font-size="10.00">core::socket::stream</text>
<text text-anchor="middle" x="342.5" y="-105.5" font-family="Helvetica,sans-Serif" font-size="10.00">::tls::ssl_log_error</text>
</a>
</g>
</g>
<!-- Node2&#45;&gt;Node3 -->
<g id="edge2" class="edge">
<title>Node2&#45;&gt;Node3</title>
<path fill="none" stroke="midnightblue" d="M243.26,-79.6C257.44,-84.49 273.31,-89.97 288.1,-95.07"/>
<polygon fill="midnightblue" stroke="midnightblue" points="287.04,-98.41 297.64,-98.36 289.33,-91.79 287.04,-98.41"/>
</g>
<!-- Node4 -->
<g id="node4" class="node">
<title>Node4</title>
<g id="a_node4"><a xlink:href="namespacecore_1_1socket_1_1stream_1_1tls.html#a6f3a1ef614b0412d91d64f823826f189" target="_top" xlink:title=" ">
<polygon fill="white" stroke="black" points="289,-49.5 289,-79.5 396,-79.5 396,-49.5 289,-49.5"/>
<text text-anchor="start" x="297" y="-67.5" font-family="Helvetica,sans-Serif" font-size="10.00">core::socket::stream</text>
<text text-anchor="middle" x="342.5" y="-56.5" font-family="Helvetica,sans-Serif" font-size="10.00">::tls::ssl_log_info</text>
</a>
</g>
</g>
<!-- Node2&#45;&gt;Node4 -->
<g id="edge3" class="edge">
<title>Node2&#45;&gt;Node4</title>
<path fill="none" stroke="midnightblue" d="M252.38,-64.5C260.88,-64.5 269.75,-64.5 278.46,-64.5"/>
<polygon fill="midnightblue" stroke="midnightblue" points="278.58,-68 288.58,-64.5 278.58,-61 278.58,-68"/>
</g>
<!-- Node5 -->
<g id="node5" class="node">
<title>Node5</title>
<g id="a_node5"><a xlink:href="namespacecore_1_1socket_1_1stream_1_1tls.html#a3a133b1b35c394931d65dfe02977c810" target="_top" xlink:title=" ">
<polygon fill="white" stroke="black" points="288,-0.5 288,-30.5 397,-30.5 397,-0.5 288,-0.5"/>
<text text-anchor="start" x="296" y="-18.5" font-family="Helvetica,sans-Serif" font-size="10.00">core::socket::stream</text>
<text text-anchor="middle" x="342.5" y="-7.5" font-family="Helvetica,sans-Serif" font-size="10.00">::tls::ssl_log_warning</text>
</a>
</g>
</g>
<!-- Node2&#45;&gt;Node5 -->
<g id="edge4" class="edge">
<title>Node2&#45;&gt;Node5</title>
<path fill="none" stroke="midnightblue" d="M243.26,-49.4C257.44,-44.51 273.31,-39.03 288.1,-33.93"/>
<polygon fill="midnightblue" stroke="midnightblue" points="289.33,-37.21 297.64,-30.64 287.04,-30.59 289.33,-37.21"/>
</g>
</g>
</svg>
