<?xml version="1.0" encoding="UTF-8" standalone="no"?>
<!DOCTYPE svg PUBLIC "-//W3C//DTD SVG 1.1//EN"
 "http://www.w3.org/Graphics/SVG/1.1/DTD/svg11.dtd">
<!-- Generated by graphviz version 2.43.0 (0)
 -->
<!-- Title: core::DescriptorEventReceiver::resume Pages: 1 -->
<svg width="592pt" height="176pt"
 viewBox="0.00 0.00 592.00 175.50" xmlns="http://www.w3.org/2000/svg" xmlns:xlink="http://www.w3.org/1999/xlink">
<g id="graph0" class="graph" transform="scale(1 1) rotate(0) translate(4 171.5)">
<title>core::DescriptorEventReceiver::resume</title>
<polygon fill="white" stroke="transparent" points="-4,4 -4,-171.5 588,-171.5 588,4 -4,4"/>
<!-- Node1 -->
<g id="node1" class="node">
<title>Node1</title>
<g id="a_node1"><a xlink:title=" ">
<polygon fill="#bfbfbf" stroke="black" points="0,-98.5 0,-128.5 164,-128.5 164,-98.5 0,-98.5"/>
<text text-anchor="start" x="8" y="-116.5" font-family="Helvetica,sans-Serif" font-size="10.00">core::DescriptorEventReceiver</text>
<text text-anchor="middle" x="82" y="-105.5" font-family="Helvetica,sans-Serif" font-size="10.00">::resume</text>
</a>
</g>
</g>
<!-- Node2 -->
<g id="node2" class="node">
<title>Node2</title>
<g id="a_node2"><a xlink:href="classutils_1_1_timeval.html#a54b232dc1ffeea007100dcd1caad1987" target="_top" xlink:title=" ">
<polygon fill="white" stroke="black" points="213.5,-148 213.5,-167 360.5,-167 360.5,-148 213.5,-148"/>
<text text-anchor="middle" x="287" y="-155" font-family="Helvetica,sans-Serif" font-size="10.00">utils::Timeval::currentTime</text>
</a>
</g>
</g>
<!-- Node1&#45;&gt;Node2 -->
<g id="edge1" class="edge">
<title>Node1&#45;&gt;Node2</title>
<path fill="none" stroke="midnightblue" d="M152.29,-128.52C178.44,-134.19 207.77,-140.54 232.28,-145.86"/>
<polygon fill="midnightblue" stroke="midnightblue" points="231.6,-149.29 242.11,-147.99 233.08,-142.45 231.6,-149.29"/>
</g>
<!-- Node4 -->
<g id="node4" class="node">
<title>Node4</title>
<g id="a_node4"><a xlink:href="classcore_1_1_descriptor_event_receiver.html#ac5dc7e86ddad09f5bd3eeb0c74f2e7f9" target="_top" xlink:title=" ">
<polygon fill="white" stroke="black" points="205,-98.5 205,-128.5 369,-128.5 369,-98.5 205,-98.5"/>
<text text-anchor="start" x="213" y="-116.5" font-family="Helvetica,sans-Serif" font-size="10.00">core::DescriptorEventReceiver</text>
<text text-anchor="middle" x="287" y="-105.5" font-family="Helvetica,sans-Serif" font-size="10.00">::isEnabled</text>
</a>
</g>
</g>
<!-- Node1&#45;&gt;Node4 -->
<g id="edge3" class="edge">
<title>Node1&#45;&gt;Node4</title>
<path fill="none" stroke="midnightblue" d="M164.11,-113.5C174.13,-113.5 184.43,-113.5 194.59,-113.5"/>
<polygon fill="midnightblue" stroke="midnightblue" points="194.69,-117 204.69,-113.5 194.69,-110 194.69,-117"/>
</g>
<!-- Node5 -->
<g id="node5" class="node">
<title>Node5</title>
<g id="a_node5"><a xlink:href="classcore_1_1_descriptor_event_dispatcher.html#ab197433bb62044a20c3f6b413592a058" target="_top" xlink:title=" ">
<polygon fill="white" stroke="black" points="200,-49.5 200,-79.5 374,-79.5 374,-49.5 200,-49.5"/>
<text text-anchor="start" x="208" y="-67.5" font-family="Helvetica,sans-Serif" font-size="10.00">core::DescriptorEventDispatcher</text>
<text text-anchor="middle" x="287" y="-56.5" font-family="Helvetica,sans-Serif" font-size="10.00">::resume</text>
</a>
</g>
</g>
<!-- Node1&#45;&gt;Node5 -->
<g id="edge4" class="edge">
<title>Node1&#45;&gt;Node5</title>
<path fill="none" stroke="midnightblue" d="M145.29,-98.47C167.01,-93.22 191.57,-87.29 214.02,-81.87"/>
<polygon fill="midnightblue" stroke="midnightblue" points="214.93,-85.25 223.83,-79.51 213.29,-78.45 214.93,-85.25"/>
</g>
<!-- Node3 -->
<g id="node3" class="node">
<title>Node3</title>
<g id="a_node3"><a xlink:href="namespacecore_1_1system.html#acf9e7364dbf51f07083e05caa50d3b66" target="_top" xlink:title=" ">
<polygon fill="white" stroke="black" points="421,-148 421,-167 573,-167 573,-148 421,-148"/>
<text text-anchor="middle" x="497" y="-155" font-family="Helvetica,sans-Serif" font-size="10.00">core::system::gettimeofday</text>
</a>
</g>
</g>
<!-- Node2&#45;&gt;Node3 -->
<g id="edge2" class="edge">
<title>Node2&#45;&gt;Node3</title>
<path fill="none" stroke="midnightblue" d="M360.75,-157.5C376.85,-157.5 394.06,-157.5 410.62,-157.5"/>
<polygon fill="midnightblue" stroke="midnightblue" points="410.82,-161 420.82,-157.5 410.82,-154 410.82,-161"/>
</g>
<!-- Node6 -->
<g id="node6" class="node">
<title>Node6</title>
<g id="a_node6"><a xlink:href="classcore_1_1_descriptor_event_receiver.html#a445606dc995a71972d83e7683ada144b" target="_top" xlink:title=" ">
<polygon fill="white" stroke="black" points="415,-98.5 415,-128.5 579,-128.5 579,-98.5 415,-98.5"/>
<text text-anchor="start" x="423" y="-116.5" font-family="Helvetica,sans-Serif" font-size="10.00">core::DescriptorEventReceiver</text>
<text text-anchor="middle" x="497" y="-105.5" font-family="Helvetica,sans-Serif" font-size="10.00">::getRegisteredFd</text>
</a>
</g>
</g>
<!-- Node5&#45;&gt;Node6 -->
<g id="edge5" class="edge">
<title>Node5&#45;&gt;Node6</title>
<path fill="none" stroke="midnightblue" d="M351.82,-79.53C374.18,-84.8 399.47,-90.76 422.56,-96.2"/>
<polygon fill="midnightblue" stroke="midnightblue" points="421.76,-99.61 432.3,-98.49 423.37,-92.79 421.76,-99.61"/>
</g>
<!-- Node7 -->
<g id="node7" class="node">
<title>Node7</title>
<g id="a_node7"><a xlink:href="classcore_1_1_descriptor_event_receiver.html#ac80fc901f941c059a6ebdb28147b25a2" target="_top" xlink:title=" ">
<polygon fill="white" stroke="black" points="415,-49.5 415,-79.5 579,-79.5 579,-49.5 415,-49.5"/>
<text text-anchor="start" x="423" y="-67.5" font-family="Helvetica,sans-Serif" font-size="10.00">core::DescriptorEventReceiver</text>
<text text-anchor="middle" x="497" y="-56.5" font-family="Helvetica,sans-Serif" font-size="10.00">::isSuspended</text>
</a>
</g>
</g>
<!-- Node5&#45;&gt;Node7 -->
<g id="edge6" class="edge">
<title>Node5&#45;&gt;Node7</title>
<path fill="none" stroke="midnightblue" d="M374.1,-64.5C384.25,-64.5 394.62,-64.5 404.83,-64.5"/>
<polygon fill="midnightblue" stroke="midnightblue" points="404.97,-68 414.97,-64.5 404.97,-61 404.97,-68"/>
</g>
<!-- Node8 -->
<g id="node8" class="node">
<title>Node8</title>
<g id="a_node8"><a xlink:href="classcore_1_1_descriptor_event_dispatcher.html#a5718bcf9f911526bf408b9f324cedd3c" target="_top" xlink:title=" ">
<polygon fill="white" stroke="black" points="410,-0.5 410,-30.5 584,-30.5 584,-0.5 410,-0.5"/>
<text text-anchor="start" x="418" y="-18.5" font-family="Helvetica,sans-Serif" font-size="10.00">core::DescriptorEventDispatcher</text>
<text text-anchor="middle" x="497" y="-7.5" font-family="Helvetica,sans-Serif" font-size="10.00">::modOn</text>
</a>
</g>
</g>
<!-- Node5&#45;&gt;Node8 -->
<g id="edge7" class="edge">
<title>Node5&#45;&gt;Node8</title>
<path fill="none" stroke="midnightblue" d="M351.82,-49.47C374.18,-44.2 399.47,-38.24 422.56,-32.8"/>
<polygon fill="midnightblue" stroke="midnightblue" points="423.37,-36.21 432.3,-30.51 421.76,-29.39 423.37,-36.21"/>
</g>
</g>
</svg>
