<?xml version="1.0" encoding="UTF-8" standalone="no"?>
<!DOCTYPE svg PUBLIC "-//W3C//DTD SVG 1.1//EN"
 "http://www.w3.org/Graphics/SVG/1.1/DTD/svg11.dtd">
<!-- Generated by graphviz version 2.43.0 (0)
 -->
<!-- Title: core::EventReceiver::resume Pages: 1 -->
<svg width="548pt" height="137pt"
 viewBox="0.00 0.00 548.00 137.00" xmlns="http://www.w3.org/2000/svg" xmlns:xlink="http://www.w3.org/1999/xlink">
<g id="graph0" class="graph" transform="scale(1 1) rotate(0) translate(4 133)">
<title>core::EventReceiver::resume</title>
<polygon fill="white" stroke="transparent" points="-4,4 -4,-133 544,-133 544,4 -4,4"/>
<!-- Node1 -->
<g id="node1" class="node">
<title>Node1</title>
<g id="a_node1"><a xlink:title=" ">
<polygon fill="#bfbfbf" stroke="black" points="0,-73.5 0,-103.5 106,-103.5 106,-73.5 0,-73.5"/>
<text text-anchor="start" x="8" y="-91.5" font-family="Helvetica,sans-Serif" font-size="10.00">core::EventReceiver</text>
<text text-anchor="middle" x="53" y="-80.5" font-family="Helvetica,sans-Serif" font-size="10.00">::resume</text>
</a>
</g>
</g>
<!-- Node2 -->
<g id="node2" class="node">
<title>Node2</title>
<g id="a_node2"><a xlink:href="classcore_1_1_event_receiver.html#a677995a821e9226e5dcbf92182884477" target="_top" xlink:title=" ">
<polygon fill="white" stroke="black" points="146,-98.5 146,-128.5 252,-128.5 252,-98.5 146,-98.5"/>
<text text-anchor="start" x="154" y="-116.5" font-family="Helvetica,sans-Serif" font-size="10.00">core::EventReceiver</text>
<text text-anchor="middle" x="199" y="-105.5" font-family="Helvetica,sans-Serif" font-size="10.00">::isEnabled</text>
</a>
</g>
</g>
<!-- Node1&#45;&gt;Node2 -->
<g id="edge1" class="edge">
<title>Node1&#45;&gt;Node2</title>
<path fill="none" stroke="midnightblue" d="M106.39,-97.6C115.94,-99.25 125.99,-101 135.79,-102.7"/>
<polygon fill="midnightblue" stroke="midnightblue" points="135.43,-106.19 145.89,-104.45 136.63,-99.29 135.43,-106.19"/>
</g>
<!-- Node3 -->
<g id="node3" class="node">
<title>Node3</title>
<g id="a_node3"><a xlink:href="classcore_1_1_event_dispatcher.html#a3c203994e925338f4ce9cdb21d9b2a5e" target="_top" xlink:title=" ">
<polygon fill="white" stroke="black" points="142,-49.5 142,-79.5 256,-79.5 256,-49.5 142,-49.5"/>
<text text-anchor="start" x="150" y="-67.5" font-family="Helvetica,sans-Serif" font-size="10.00">core::EventDispatcher</text>
<text text-anchor="middle" x="199" y="-56.5" font-family="Helvetica,sans-Serif" font-size="10.00">::resume</text>
</a>
</g>
</g>
<!-- Node1&#45;&gt;Node3 -->
<g id="edge2" class="edge">
<title>Node1&#45;&gt;Node3</title>
<path fill="none" stroke="midnightblue" d="M106.39,-79.77C114.6,-78.4 123.18,-76.97 131.65,-75.56"/>
<polygon fill="midnightblue" stroke="midnightblue" points="132.23,-79.01 141.52,-73.91 131.08,-72.11 132.23,-79.01"/>
</g>
<!-- Node4 -->
<g id="node4" class="node">
<title>Node4</title>
<g id="a_node4"><a xlink:href="classcore_1_1_event_receiver.html#a3c6fec4001aa28b328c23573c70ad159" target="_top" xlink:title=" ">
<polygon fill="white" stroke="black" points="296,-98.5 296,-128.5 402,-128.5 402,-98.5 296,-98.5"/>
<text text-anchor="start" x="304" y="-116.5" font-family="Helvetica,sans-Serif" font-size="10.00">core::EventReceiver</text>
<text text-anchor="middle" x="349" y="-105.5" font-family="Helvetica,sans-Serif" font-size="10.00">::isSuspended</text>
</a>
</g>
</g>
<!-- Node3&#45;&gt;Node4 -->
<g id="edge3" class="edge">
<title>Node3&#45;&gt;Node4</title>
<path fill="none" stroke="midnightblue" d="M245.61,-79.6C260.59,-84.56 277.41,-90.13 293.01,-95.29"/>
<polygon fill="midnightblue" stroke="midnightblue" points="291.94,-98.63 302.54,-98.45 294.14,-91.98 291.94,-98.63"/>
</g>
<!-- Node5 -->
<g id="node5" class="node">
<title>Node5</title>
<g id="a_node5"><a xlink:href="classcore_1_1_event_receiver.html#aaaf17d03aa9a154967453307fa7a28a6" target="_top" xlink:title=" ">
<polygon fill="white" stroke="black" points="296,-49.5 296,-79.5 402,-79.5 402,-49.5 296,-49.5"/>
<text text-anchor="start" x="304" y="-67.5" font-family="Helvetica,sans-Serif" font-size="10.00">core::EventReceiver</text>
<text text-anchor="middle" x="349" y="-56.5" font-family="Helvetica,sans-Serif" font-size="10.00">::resumed</text>
</a>
</g>
</g>
<!-- Node3&#45;&gt;Node5 -->
<g id="edge4" class="edge">
<title>Node3&#45;&gt;Node5</title>
<path fill="none" stroke="midnightblue" d="M256.37,-64.5C265.95,-64.5 275.95,-64.5 285.67,-64.5"/>
<polygon fill="midnightblue" stroke="midnightblue" points="285.68,-68 295.68,-64.5 285.68,-61 285.68,-68"/>
</g>
<!-- Node7 -->
<g id="node7" class="node">
<title>Node7</title>
<g id="a_node7"><a xlink:href="classcore_1_1_event_dispatcher_1_1_fd_set.html#a12a56c9a803470047718b691cdfa6748" target="_top" xlink:title=" ">
<polygon fill="white" stroke="black" points="292,-0.5 292,-30.5 406,-30.5 406,-0.5 292,-0.5"/>
<text text-anchor="start" x="300" y="-18.5" font-family="Helvetica,sans-Serif" font-size="10.00">core::EventDispatcher</text>
<text text-anchor="middle" x="349" y="-7.5" font-family="Helvetica,sans-Serif" font-size="10.00">::FdSet::set</text>
</a>
</g>
</g>
<!-- Node3&#45;&gt;Node7 -->
<g id="edge6" class="edge">
<title>Node3&#45;&gt;Node7</title>
<path fill="none" stroke="midnightblue" d="M245.61,-49.4C260.59,-44.44 277.41,-38.87 293.01,-33.71"/>
<polygon fill="midnightblue" stroke="midnightblue" points="294.14,-37.02 302.54,-30.55 291.94,-30.37 294.14,-37.02"/>
</g>
<!-- Node6 -->
<g id="node6" class="node">
<title>Node6</title>
<g id="a_node6"><a xlink:href="namespacecore_1_1system.html#a04721c28c02cc5c20d4dda8e7c2d991c" target="_top" xlink:title=" ">
<polygon fill="white" stroke="black" points="442,-55 442,-74 540,-74 540,-55 442,-55"/>
<text text-anchor="middle" x="491" y="-62" font-family="Helvetica,sans-Serif" font-size="10.00">core::system::time</text>
</a>
</g>
</g>
<!-- Node5&#45;&gt;Node6 -->
<g id="edge5" class="edge">
<title>Node5&#45;&gt;Node6</title>
<path fill="none" stroke="midnightblue" d="M402.13,-64.5C411.82,-64.5 422.01,-64.5 431.87,-64.5"/>
<polygon fill="midnightblue" stroke="midnightblue" points="431.99,-68 441.99,-64.5 431.99,-61 431.99,-68"/>
</g>
</g>
</svg>
