<?xml version="1.0" encoding="UTF-8" standalone="no"?>
<!DOCTYPE svg PUBLIC "-//W3C//DTD SVG 1.1//EN"
 "http://www.w3.org/Graphics/SVG/1.1/DTD/svg11.dtd">
<!-- Generated by graphviz version 2.43.0 (0)
 -->
<!-- Title: web::http::legacy::un::Server&lt; Request, Response &gt; Pages: 1 -->
<svg width="494pt" height="1111pt"
 viewBox="0.00 0.00 494.00 1111.00" xmlns="http://www.w3.org/2000/svg" xmlns:xlink="http://www.w3.org/1999/xlink">
<g id="graph0" class="graph" transform="scale(1 1) rotate(0) translate(4 1107)">
<title>web::http::legacy::un::Server&lt; Request, Response &gt;</title>
<polygon fill="white" stroke="transparent" points="-4,4 -4,-1107 490,-1107 490,4 -4,4"/>
<!-- Node1 -->
<g id="node1" class="node">
<title>Node1</title>
<g id="a_node1"><a xlink:title=" ">
<polygon fill="#bfbfbf" stroke="black" points="213.5,-0.5 213.5,-79.5 333.5,-79.5 333.5,-0.5 213.5,-0.5"/>
<text text-anchor="start" x="221.5" y="-67.5" font-family="Helvetica,sans-Serif" font-size="10.00">web::http::legacy::</text>
<text text-anchor="start" x="221.5" y="-56.5" font-family="Helvetica,sans-Serif" font-size="10.00">un::Server&lt; Request,</text>
<text text-anchor="middle" x="273.5" y="-45.5" font-family="Helvetica,sans-Serif" font-size="10.00"> Response &gt;</text>
<polyline fill="none" stroke="black" points="213.5,-38.5 333.5,-38.5 "/>
<text text-anchor="middle" x="273.5" y="-26.5" font-family="Helvetica,sans-Serif" font-size="10.00"> </text>
<polyline fill="none" stroke="black" points="213.5,-19.5 333.5,-19.5 "/>
<text text-anchor="start" x="221.5" y="-7.5" font-family="Helvetica,sans-Serif" font-size="10.00">+ listen()</text>
</a>
</g>
</g>
<!-- Node2 -->
<g id="node2" class="node">
<title>Node2</title>
<g id="a_node2"><a xlink:href="classweb_1_1http_1_1server_1_1_server.html" target="_top" xlink:title=" ">
<polygon fill="white" stroke="black" points="206.5,-117.5 206.5,-218.5 340.5,-218.5 340.5,-117.5 206.5,-117.5"/>
<text text-anchor="start" x="214.5" y="-206.5" font-family="Helvetica,sans-Serif" font-size="10.00">web::http::server::</text>
<text text-anchor="start" x="214.5" y="-195.5" font-family="Helvetica,sans-Serif" font-size="10.00">Server&lt; net::un::stream</text>
<text text-anchor="start" x="214.5" y="-184.5" font-family="Helvetica,sans-Serif" font-size="10.00">::legacy::SocketServer,</text>
<text text-anchor="middle" x="273.5" y="-173.5" font-family="Helvetica,sans-Serif" font-size="10.00"> Request, Response &gt;</text>
<polyline fill="none" stroke="black" points="206.5,-166.5 340.5,-166.5 "/>
<text text-anchor="middle" x="273.5" y="-154.5" font-family="Helvetica,sans-Serif" font-size="10.00"> </text>
<polyline fill="none" stroke="black" points="206.5,-147.5 340.5,-147.5 "/>
<text text-anchor="start" x="214.5" y="-135.5" font-family="Helvetica,sans-Serif" font-size="10.00">+ Server()</text>
<text text-anchor="start" x="214.5" y="-124.5" font-family="Helvetica,sans-Serif" font-size="10.00">+ listen()</text>
</a>
</g>
</g>
<!-- Node2&#45;&gt;Node1 -->
<g id="edge1" class="edge">
<title>Node2&#45;&gt;Node1</title>
<path fill="none" stroke="midnightblue" d="M273.5,-107.11C273.5,-97.74 273.5,-88.28 273.5,-79.56"/>
<polygon fill="none" stroke="midnightblue" points="270,-107.2 273.5,-117.2 277,-107.2 270,-107.2"/>
</g>
<!-- Node3 -->
<g id="node3" class="node">
<title>Node3</title>
<g id="a_node3"><a xlink:href="classcore_1_1socket_1_1stream_1_1legacy_1_1_socket_server.html" target="_top" xlink:title=" ">
<polygon fill="white" stroke="black" points="92,-288.5 92,-378.5 277,-378.5 277,-288.5 92,-288.5"/>
<text text-anchor="start" x="100" y="-366.5" font-family="Helvetica,sans-Serif" font-size="10.00">net::un::stream::legacy</text>
<text text-anchor="start" x="100" y="-355.5" font-family="Helvetica,sans-Serif" font-size="10.00">::SocketServer &lt; web::</text>
<text text-anchor="start" x="100" y="-344.5" font-family="Helvetica,sans-Serif" font-size="10.00">http::server::SocketContextFactory</text>
<text text-anchor="middle" x="184.5" y="-333.5" font-family="Helvetica,sans-Serif" font-size="10.00">&lt; Request , Response &gt; &gt;</text>
<polyline fill="none" stroke="black" points="92,-326.5 277,-326.5 "/>
<text text-anchor="middle" x="184.5" y="-314.5" font-family="Helvetica,sans-Serif" font-size="10.00"> </text>
<polyline fill="none" stroke="black" points="92,-307.5 277,-307.5 "/>
<text text-anchor="middle" x="184.5" y="-295.5" font-family="Helvetica,sans-Serif" font-size="10.00"> </text>
</a>
</g>
</g>
<!-- Node3&#45;&gt;Node2 -->
<g id="edge2" class="edge">
<title>Node3&#45;&gt;Node2</title>
<path fill="none" stroke="midnightblue" d="M213.5,-279.22C224.08,-259.78 236,-237.88 246.41,-218.76"/>
<polygon fill="none" stroke="midnightblue" points="210.29,-277.8 208.58,-288.25 216.44,-281.14 210.29,-277.8"/>
</g>
<!-- Node4 -->
<g id="node4" class="node">
<title>Node4</title>
<g id="a_node4"><a xlink:href="classcore_1_1socket_1_1stream_1_1_socket_server.html" target="_top" xlink:title=" ">
<polygon fill="white" stroke="black" points="0,-416.5 0,-671.5 277,-671.5 277,-416.5 0,-416.5"/>
<text text-anchor="start" x="8" y="-659.5" font-family="Helvetica,sans-Serif" font-size="10.00">core::socket::stream</text>
<text text-anchor="start" x="8" y="-648.5" font-family="Helvetica,sans-Serif" font-size="10.00">::SocketServer&lt; ServerSocket</text>
<text text-anchor="start" x="8" y="-637.5" font-family="Helvetica,sans-Serif" font-size="10.00">T, core::socket::stream::</text>
<text text-anchor="start" x="8" y="-626.5" font-family="Helvetica,sans-Serif" font-size="10.00">legacy::SocketAcceptor&lt; ServerConfig</text>
<text text-anchor="middle" x="138.5" y="-615.5" font-family="Helvetica,sans-Serif" font-size="10.00">T, ServerSocketT::Socket &gt;, SocketContextFactoryT &gt;</text>
<polyline fill="none" stroke="black" points="0,-608.5 277,-608.5 "/>
<text text-anchor="start" x="8" y="-596.5" font-family="Helvetica,sans-Serif" font-size="10.00"># serverConfig</text>
<text text-anchor="start" x="8" y="-585.5" font-family="Helvetica,sans-Serif" font-size="10.00"># socketContextFactory</text>
<text text-anchor="start" x="8" y="-574.5" font-family="Helvetica,sans-Serif" font-size="10.00"># _onConnect</text>
<text text-anchor="start" x="8" y="-563.5" font-family="Helvetica,sans-Serif" font-size="10.00"># _onConnected</text>
<text text-anchor="start" x="8" y="-552.5" font-family="Helvetica,sans-Serif" font-size="10.00"># _onDisconnect</text>
<text text-anchor="start" x="8" y="-541.5" font-family="Helvetica,sans-Serif" font-size="10.00"># options</text>
<polyline fill="none" stroke="black" points="0,-534.5 277,-534.5 "/>
<text text-anchor="start" x="8" y="-522.5" font-family="Helvetica,sans-Serif" font-size="10.00">+ SocketServer()</text>
<text text-anchor="start" x="8" y="-511.5" font-family="Helvetica,sans-Serif" font-size="10.00">+ ~SocketServer()</text>
<text text-anchor="start" x="8" y="-500.5" font-family="Helvetica,sans-Serif" font-size="10.00">+ listen()</text>
<text text-anchor="start" x="8" y="-489.5" font-family="Helvetica,sans-Serif" font-size="10.00">+ listen()</text>
<text text-anchor="start" x="8" y="-478.5" font-family="Helvetica,sans-Serif" font-size="10.00">+ onConnect()</text>
<text text-anchor="start" x="8" y="-467.5" font-family="Helvetica,sans-Serif" font-size="10.00">+ onConnected()</text>
<text text-anchor="start" x="8" y="-456.5" font-family="Helvetica,sans-Serif" font-size="10.00">+ onDisconnect()</text>
<text text-anchor="start" x="8" y="-445.5" font-family="Helvetica,sans-Serif" font-size="10.00">+ getSocketContextFactory()</text>
<text text-anchor="start" x="8" y="-434.5" font-family="Helvetica,sans-Serif" font-size="10.00">+ getServerConfig()</text>
<text text-anchor="start" x="8" y="-423.5" font-family="Helvetica,sans-Serif" font-size="10.00">&#45; SocketServer()</text>
</a>
</g>
</g>
<!-- Node4&#45;&gt;Node3 -->
<g id="edge3" class="edge">
<title>Node4&#45;&gt;Node3</title>
<path fill="none" stroke="midnightblue" d="M168.63,-406.44C170.78,-396.7 172.83,-387.37 174.71,-378.86"/>
<polygon fill="none" stroke="midnightblue" points="165.19,-405.79 166.45,-416.31 172.02,-407.3 165.19,-405.79"/>
</g>
<!-- Node5 -->
<g id="node5" class="node">
<title>Node5</title>
<g id="a_node5"><a xlink:title=" ">
<polygon fill="white" stroke="#bfbfbf" points="91.5,-1045.5 91.5,-1102.5 177.5,-1102.5 177.5,-1045.5 91.5,-1045.5"/>
<text text-anchor="middle" x="134.5" y="-1090.5" font-family="Helvetica,sans-Serif" font-size="10.00">ServerSocketT</text>
<polyline fill="none" stroke="#bfbfbf" points="91.5,-1083.5 177.5,-1083.5 "/>
<text text-anchor="middle" x="134.5" y="-1071.5" font-family="Helvetica,sans-Serif" font-size="10.00"> </text>
<polyline fill="none" stroke="#bfbfbf" points="91.5,-1064.5 177.5,-1064.5 "/>
<text text-anchor="middle" x="134.5" y="-1052.5" font-family="Helvetica,sans-Serif" font-size="10.00"> </text>
</a>
</g>
</g>
<!-- Node5&#45;&gt;Node4 -->
<g id="edge4" class="edge">
<title>Node5&#45;&gt;Node4</title>
<path fill="none" stroke="midnightblue" d="M134.79,-1035.01C135.36,-960.1 136.64,-790.35 137.54,-671.77"/>
<polygon fill="none" stroke="midnightblue" points="131.29,-1035.33 134.71,-1045.36 138.29,-1035.38 131.29,-1035.33"/>
</g>
<!-- Node6 -->
<g id="node6" class="node">
<title>Node6</title>
<g id="a_node6"><a xlink:href="classcore_1_1socket_1_1stream_1_1_socket_server.html" target="_top" xlink:title=" ">
<polygon fill="white" stroke="black" points="150.5,-763.5 150.5,-1007.5 336.5,-1007.5 336.5,-763.5 150.5,-763.5"/>
<text text-anchor="start" x="158.5" y="-995.5" font-family="Helvetica,sans-Serif" font-size="10.00">core::socket::stream</text>
<text text-anchor="start" x="158.5" y="-984.5" font-family="Helvetica,sans-Serif" font-size="10.00">::SocketServer&lt; ServerSocket</text>
<text text-anchor="start" x="158.5" y="-973.5" font-family="Helvetica,sans-Serif" font-size="10.00">T, SocketAcceptorT, SocketContext</text>
<text text-anchor="middle" x="243.5" y="-962.5" font-family="Helvetica,sans-Serif" font-size="10.00">FactoryT &gt;</text>
<polyline fill="none" stroke="black" points="150.5,-955.5 336.5,-955.5 "/>
<text text-anchor="start" x="158.5" y="-943.5" font-family="Helvetica,sans-Serif" font-size="10.00"># serverConfig</text>
<text text-anchor="start" x="158.5" y="-932.5" font-family="Helvetica,sans-Serif" font-size="10.00"># socketContextFactory</text>
<text text-anchor="start" x="158.5" y="-921.5" font-family="Helvetica,sans-Serif" font-size="10.00"># _onConnect</text>
<text text-anchor="start" x="158.5" y="-910.5" font-family="Helvetica,sans-Serif" font-size="10.00"># _onConnected</text>
<text text-anchor="start" x="158.5" y="-899.5" font-family="Helvetica,sans-Serif" font-size="10.00"># _onDisconnect</text>
<text text-anchor="start" x="158.5" y="-888.5" font-family="Helvetica,sans-Serif" font-size="10.00"># options</text>
<polyline fill="none" stroke="black" points="150.5,-881.5 336.5,-881.5 "/>
<text text-anchor="start" x="158.5" y="-869.5" font-family="Helvetica,sans-Serif" font-size="10.00">+ SocketServer()</text>
<text text-anchor="start" x="158.5" y="-858.5" font-family="Helvetica,sans-Serif" font-size="10.00">+ ~SocketServer()</text>
<text text-anchor="start" x="158.5" y="-847.5" font-family="Helvetica,sans-Serif" font-size="10.00">+ listen()</text>
<text text-anchor="start" x="158.5" y="-836.5" font-family="Helvetica,sans-Serif" font-size="10.00">+ listen()</text>
<text text-anchor="start" x="158.5" y="-825.5" font-family="Helvetica,sans-Serif" font-size="10.00">+ onConnect()</text>
<text text-anchor="start" x="158.5" y="-814.5" font-family="Helvetica,sans-Serif" font-size="10.00">+ onConnected()</text>
<text text-anchor="start" x="158.5" y="-803.5" font-family="Helvetica,sans-Serif" font-size="10.00">+ onDisconnect()</text>
<text text-anchor="start" x="158.5" y="-792.5" font-family="Helvetica,sans-Serif" font-size="10.00">+ getSocketContextFactory()</text>
<text text-anchor="start" x="158.5" y="-781.5" font-family="Helvetica,sans-Serif" font-size="10.00">+ getServerConfig()</text>
<text text-anchor="start" x="158.5" y="-770.5" font-family="Helvetica,sans-Serif" font-size="10.00">&#45; SocketServer()</text>
</a>
</g>
</g>
<!-- Node5&#45;&gt;Node6 -->
<g id="edge6" class="edge">
<title>Node5&#45;&gt;Node6</title>
<path fill="none" stroke="midnightblue" d="M155.7,-1036.73C160.85,-1027.92 166.64,-1018.02 172.72,-1007.6"/>
<polygon fill="none" stroke="midnightblue" points="152.61,-1035.08 150.58,-1045.48 158.65,-1038.61 152.61,-1035.08"/>
</g>
<!-- Node6&#45;&gt;Node4 -->
<g id="edge5" class="edge">
<title>Node6&#45;&gt;Node4</title>
<path fill="none" stroke="orange" d="M202.99,-753.52C194.66,-726.59 185.91,-698.3 177.63,-671.53"/>
<polygon fill="orange" stroke="orange" points="199.74,-754.85 206.04,-763.37 206.43,-752.78 199.74,-754.85"/>
<text text-anchor="start" x="197.5" y="-737" font-family="Helvetica,sans-Serif" font-size="10.00"> &lt; ServerSocketT, core</text>
<text text-anchor="start" x="197.5" y="-726" font-family="Helvetica,sans-Serif" font-size="10.00">::socket::stream::legacy</text>
<text text-anchor="start" x="197.5" y="-715" font-family="Helvetica,sans-Serif" font-size="10.00">::SocketAcceptor&lt; ServerConfigT,</text>
<text text-anchor="start" x="197.5" y="-704" font-family="Helvetica,sans-Serif" font-size="10.00"> ServerSocketT::Socket &gt;, SocketContext</text>
<text text-anchor="middle" x="297" y="-693" font-family="Helvetica,sans-Serif" font-size="10.00">FactoryT &gt;</text>
</g>
<!-- Node7 -->
<g id="node7" class="node">
<title>Node7</title>
<g id="a_node7"><a xlink:href="classweb_1_1http_1_1server_1_1_server.html" target="_top" xlink:title=" ">
<polygon fill="white" stroke="black" points="313.5,-288.5 313.5,-378.5 449.5,-378.5 449.5,-288.5 313.5,-288.5"/>
<text text-anchor="start" x="321.5" y="-366.5" font-family="Helvetica,sans-Serif" font-size="10.00">web::http::server::</text>
<text text-anchor="start" x="321.5" y="-355.5" font-family="Helvetica,sans-Serif" font-size="10.00">Server&lt; SocketServerT,</text>
<text text-anchor="middle" x="381.5" y="-344.5" font-family="Helvetica,sans-Serif" font-size="10.00"> RequestT, ResponseT &gt;</text>
<polyline fill="none" stroke="black" points="313.5,-337.5 449.5,-337.5 "/>
<text text-anchor="middle" x="381.5" y="-325.5" font-family="Helvetica,sans-Serif" font-size="10.00"> </text>
<polyline fill="none" stroke="black" points="313.5,-318.5 449.5,-318.5 "/>
<text text-anchor="start" x="321.5" y="-306.5" font-family="Helvetica,sans-Serif" font-size="10.00">+ Server()</text>
<text text-anchor="start" x="321.5" y="-295.5" font-family="Helvetica,sans-Serif" font-size="10.00">+ listen()</text>
</a>
</g>
</g>
<!-- Node7&#45;&gt;Node2 -->
<g id="edge7" class="edge">
<title>Node7&#45;&gt;Node2</title>
<path fill="none" stroke="orange" d="M346.66,-279.75C333.73,-260.18 319.12,-238.06 306.37,-218.76"/>
<polygon fill="orange" stroke="orange" points="343.84,-281.84 352.27,-288.25 349.68,-277.98 343.84,-281.84"/>
<text text-anchor="start" x="337.5" y="-262" font-family="Helvetica,sans-Serif" font-size="10.00"> &lt; net::un::stream::</text>
<text text-anchor="start" x="337.5" y="-251" font-family="Helvetica,sans-Serif" font-size="10.00">legacy::SocketServer,</text>
<text text-anchor="middle" x="391.5" y="-240" font-family="Helvetica,sans-Serif" font-size="10.00"> Request, Response &gt;</text>
</g>
<!-- Node8 -->
<g id="node8" class="node">
<title>Node8</title>
<g id="a_node8"><a xlink:title=" ">
<polygon fill="white" stroke="#bfbfbf" points="295,-504.5 295,-583.5 486,-583.5 486,-504.5 295,-504.5"/>
<text text-anchor="start" x="303" y="-571.5" font-family="Helvetica,sans-Serif" font-size="10.00">SocketServerT&lt; web</text>
<text text-anchor="start" x="303" y="-560.5" font-family="Helvetica,sans-Serif" font-size="10.00">::http::server::SocketContext</text>
<text text-anchor="middle" x="390.5" y="-549.5" font-family="Helvetica,sans-Serif" font-size="10.00">Factory&lt; RequestT, ResponseT &gt; &gt;</text>
<polyline fill="none" stroke="#bfbfbf" points="295,-542.5 486,-542.5 "/>
<text text-anchor="middle" x="390.5" y="-530.5" font-family="Helvetica,sans-Serif" font-size="10.00"> </text>
<polyline fill="none" stroke="#bfbfbf" points="295,-523.5 486,-523.5 "/>
<text text-anchor="middle" x="390.5" y="-511.5" font-family="Helvetica,sans-Serif" font-size="10.00"> </text>
</a>
</g>
</g>
<!-- Node8&#45;&gt;Node7 -->
<g id="edge8" class="edge">
<title>Node8&#45;&gt;Node7</title>
<path fill="none" stroke="midnightblue" d="M388.38,-493.84C386.87,-458.96 384.87,-412.54 383.41,-378.8"/>
<polygon fill="none" stroke="midnightblue" points="384.9,-494.43 388.83,-504.27 391.89,-494.13 384.9,-494.43"/>
</g>
</g>
</svg>
