<?xml version="1.0" encoding="UTF-8" standalone="no"?>
<!DOCTYPE svg PUBLIC "-//W3C//DTD SVG 1.1//EN"
 "http://www.w3.org/Graphics/SVG/1.1/DTD/svg11.dtd">
<!-- Generated by graphviz version 2.43.0 (0)
 -->
<!-- Title: web::websocket::server::GroupsManager::unsubscribe Pages: 1 -->
<svg width="540pt" height="112pt"
 viewBox="0.00 0.00 540.00 112.00" xmlns="http://www.w3.org/2000/svg" xmlns:xlink="http://www.w3.org/1999/xlink">
<g id="graph0" class="graph" transform="scale(1 1) rotate(0) translate(4 108)">
<title>web::websocket::server::GroupsManager::unsubscribe</title>
<polygon fill="white" stroke="transparent" points="-4,4 -4,-108 536,-108 536,4 -4,4"/>
<!-- Node1 -->
<g id="node1" class="node">
<title>Node1</title>
<g id="a_node1"><a xlink:title=" ">
<polygon fill="#bfbfbf" stroke="black" points="368,-24.5 368,-54.5 532,-54.5 532,-24.5 368,-24.5"/>
<text text-anchor="start" x="376" y="-42.5" font-family="Helvetica,sans-Serif" font-size="10.00">web::websocket::server</text>
<text text-anchor="middle" x="450" y="-31.5" font-family="Helvetica,sans-Serif" font-size="10.00">::GroupsManager::unsubscribe</text>
</a>
</g>
</g>
<!-- Node2 -->
<g id="node2" class="node">
<title>Node2</title>
<g id="a_node2"><a xlink:href="classweb_1_1websocket_1_1server_1_1_groups_manager.html#ade3410c0a9684641183c209ee0d8d630" target="_top" xlink:title=" ">
<polygon fill="white" stroke="black" points="180,-49.5 180,-79.5 332,-79.5 332,-49.5 180,-49.5"/>
<text text-anchor="start" x="188" y="-67.5" font-family="Helvetica,sans-Serif" font-size="10.00">web::websocket::server</text>
<text text-anchor="middle" x="256" y="-56.5" font-family="Helvetica,sans-Serif" font-size="10.00">::GroupsManager::subscribe</text>
</a>
</g>
</g>
<!-- Node1&#45;&gt;Node2 -->
<g id="edge1" class="edge">
<title>Node1&#45;&gt;Node2</title>
<path fill="none" stroke="midnightblue" d="M357.78,-51.38C349.16,-52.5 340.5,-53.63 332.05,-54.73"/>
<polygon fill="midnightblue" stroke="midnightblue" points="358.39,-54.83 367.85,-50.07 357.48,-47.89 358.39,-54.83"/>
</g>
<!-- Node5 -->
<g id="node5" class="node">
<title>Node5</title>
<g id="a_node5"><a xlink:href="classweb_1_1websocket_1_1server_1_1_sub_protocol.html#aee801141f906aec646de34c82da8c58c" target="_top" xlink:title=" ">
<polygon fill="white" stroke="black" points="180,-0.5 180,-30.5 332,-30.5 332,-0.5 180,-0.5"/>
<text text-anchor="start" x="188" y="-18.5" font-family="Helvetica,sans-Serif" font-size="10.00">web::websocket::server</text>
<text text-anchor="middle" x="256" y="-7.5" font-family="Helvetica,sans-Serif" font-size="10.00">::SubProtocol::~SubProtocol</text>
</a>
</g>
</g>
<!-- Node1&#45;&gt;Node5 -->
<g id="edge4" class="edge">
<title>Node1&#45;&gt;Node5</title>
<path fill="none" stroke="midnightblue" d="M357.78,-28.1C349.16,-27.02 340.5,-25.94 332.05,-24.88"/>
<polygon fill="midnightblue" stroke="midnightblue" points="357.5,-31.59 367.85,-29.36 358.36,-24.64 357.5,-31.59"/>
</g>
<!-- Node3 -->
<g id="node3" class="node">
<title>Node3</title>
<g id="a_node3"><a xlink:href="classweb_1_1websocket_1_1server_1_1_sub_protocol.html#a09ff711fdd0066999bf8fb2aeb552ff8" target="_top" xlink:title=" ">
<polygon fill="white" stroke="black" points="0,-73.5 0,-103.5 144,-103.5 144,-73.5 0,-73.5"/>
<text text-anchor="start" x="8" y="-91.5" font-family="Helvetica,sans-Serif" font-size="10.00">web::websocket::server</text>
<text text-anchor="middle" x="72" y="-80.5" font-family="Helvetica,sans-Serif" font-size="10.00">::SubProtocol::SubProtocol</text>
</a>
</g>
</g>
<!-- Node2&#45;&gt;Node3 -->
<g id="edge2" class="edge">
<title>Node2&#45;&gt;Node3</title>
<path fill="none" stroke="midnightblue" d="M169.86,-75.73C161.24,-76.86 152.55,-78.01 144.1,-79.12"/>
<polygon fill="midnightblue" stroke="midnightblue" points="170.47,-79.18 179.92,-74.4 169.55,-72.24 170.47,-79.18"/>
</g>
<!-- Node4 -->
<g id="node4" class="node">
<title>Node4</title>
<g id="a_node4"><a xlink:href="classweb_1_1websocket_1_1server_1_1_sub_protocol.html#a1eef345693371a2774b740716201d27a" target="_top" xlink:title=" ">
<polygon fill="white" stroke="black" points="5.5,-24.5 5.5,-54.5 138.5,-54.5 138.5,-24.5 5.5,-24.5"/>
<text text-anchor="start" x="13.5" y="-42.5" font-family="Helvetica,sans-Serif" font-size="10.00">web::websocket::server</text>
<text text-anchor="middle" x="72" y="-31.5" font-family="Helvetica,sans-Serif" font-size="10.00">::SubProtocol::subscribe</text>
</a>
</g>
</g>
<!-- Node2&#45;&gt;Node4 -->
<g id="edge3" class="edge">
<title>Node2&#45;&gt;Node4</title>
<path fill="none" stroke="midnightblue" d="M169.89,-52.81C159.38,-51.37 148.76,-49.91 138.6,-48.51"/>
<polygon fill="midnightblue" stroke="midnightblue" points="169.54,-56.29 179.92,-54.19 170.49,-49.36 169.54,-56.29"/>
</g>
</g>
</svg>
