<?xml version="1.0" encoding="UTF-8" standalone="no"?>
<!DOCTYPE svg PUBLIC "-//W3C//DTD SVG 1.1//EN"
 "http://www.w3.org/Graphics/SVG/1.1/DTD/svg11.dtd">
<!-- Generated by graphviz version 2.43.0 (0)
 -->
<!-- Title: core::socket::stream::SocketConnection::sendToPeer Pages: 1 -->
<svg width="931pt" height="176pt"
 viewBox="0.00 0.00 931.00 176.00" xmlns="http://www.w3.org/2000/svg" xmlns:xlink="http://www.w3.org/1999/xlink">
<g id="graph0" class="graph" transform="scale(1 1) rotate(0) translate(4 172)">
<title>core::socket::stream::SocketConnection::sendToPeer</title>
<polygon fill="white" stroke="transparent" points="-4,4 -4,-172 927,-172 927,4 -4,4"/>
<!-- Node1 -->
<g id="node1" class="node">
<title>Node1</title>
<g id="a_node1"><a xlink:title=" ">
<polygon fill="#bfbfbf" stroke="black" points="0,-88.5 0,-118.5 171,-118.5 171,-88.5 0,-88.5"/>
<text text-anchor="start" x="8" y="-106.5" font-family="Helvetica,sans-Serif" font-size="10.00">core::socket::stream</text>
<text text-anchor="middle" x="85.5" y="-95.5" font-family="Helvetica,sans-Serif" font-size="10.00">::SocketConnection::sendToPeer</text>
</a>
</g>
</g>
<!-- Node2 -->
<g id="node2" class="node">
<title>Node2</title>
<g id="a_node2"><a xlink:href="classcore_1_1socket_1_1stream_1_1_socket_writer.html#ab37b0d0dff3ab0f18964cb36396f04b3" target="_top" xlink:title=" ">
<polygon fill="white" stroke="black" points="207,-88.5 207,-118.5 353,-118.5 353,-88.5 207,-88.5"/>
<text text-anchor="start" x="215" y="-106.5" font-family="Helvetica,sans-Serif" font-size="10.00">core::socket::stream</text>
<text text-anchor="middle" x="280" y="-95.5" font-family="Helvetica,sans-Serif" font-size="10.00">::SocketWriter::sendToPeer</text>
</a>
</g>
</g>
<!-- Node1&#45;&gt;Node2 -->
<g id="edge1" class="edge">
<title>Node1&#45;&gt;Node2</title>
<path fill="none" stroke="midnightblue" d="M171.21,-103.5C179.68,-103.5 188.26,-103.5 196.69,-103.5"/>
<polygon fill="midnightblue" stroke="midnightblue" points="196.9,-107 206.9,-103.5 196.9,-100 196.9,-107"/>
</g>
<!-- Node3 -->
<g id="node3" class="node">
<title>Node3</title>
<g id="a_node3"><a xlink:href="classcore_1_1_event_receiver.html#a3c6fec4001aa28b328c23573c70ad159" target="_top" xlink:title=" ">
<polygon fill="white" stroke="black" points="779,-137.5 779,-167.5 893,-167.5 893,-137.5 779,-137.5"/>
<text text-anchor="start" x="787" y="-155.5" font-family="Helvetica,sans-Serif" font-size="10.00">core::EventReceiver</text>
<text text-anchor="middle" x="836" y="-144.5" font-family="Helvetica,sans-Serif" font-size="10.00">::isSuspended</text>
</a>
</g>
</g>
<!-- Node2&#45;&gt;Node3 -->
<g id="edge2" class="edge">
<title>Node2&#45;&gt;Node3</title>
<path fill="none" stroke="midnightblue" d="M353.26,-110.81C404.97,-115.96 476.25,-122.92 539,-128.5 617.89,-135.52 708.68,-142.76 768.69,-147.42"/>
<polygon fill="midnightblue" stroke="midnightblue" points="768.54,-150.92 778.78,-148.21 769.08,-143.94 768.54,-150.92"/>
</g>
<!-- Node4 -->
<g id="node4" class="node">
<title>Node4</title>
<g id="a_node4"><a xlink:href="classcore_1_1_event_receiver.html#a0f7505e88a5c4275601cc558459df9d5" target="_top" xlink:title=" ">
<polygon fill="white" stroke="black" points="389,-66.5 389,-96.5 503,-96.5 503,-66.5 389,-66.5"/>
<text text-anchor="start" x="397" y="-84.5" font-family="Helvetica,sans-Serif" font-size="10.00">core::EventReceiver</text>
<text text-anchor="middle" x="446" y="-73.5" font-family="Helvetica,sans-Serif" font-size="10.00">::resume</text>
</a>
</g>
</g>
<!-- Node2&#45;&gt;Node4 -->
<g id="edge3" class="edge">
<title>Node2&#45;&gt;Node4</title>
<path fill="none" stroke="midnightblue" d="M353.41,-93.79C361.83,-92.66 370.38,-91.51 378.71,-90.39"/>
<polygon fill="midnightblue" stroke="midnightblue" points="379.29,-93.85 388.74,-89.05 378.36,-86.91 379.29,-93.85"/>
</g>
<!-- Node5 -->
<g id="node5" class="node">
<title>Node5</title>
<g id="a_node5"><a xlink:href="classutils_1_1_timeval.html#a54b232dc1ffeea007100dcd1caad1987" target="_top" xlink:title=" ">
<polygon fill="white" stroke="black" points="552.5,-50 552.5,-69 699.5,-69 699.5,-50 552.5,-50"/>
<text text-anchor="middle" x="626" y="-57" font-family="Helvetica,sans-Serif" font-size="10.00">utils::Timeval::currentTime</text>
</a>
</g>
</g>
<!-- Node4&#45;&gt;Node5 -->
<g id="edge4" class="edge">
<title>Node4&#45;&gt;Node5</title>
<path fill="none" stroke="midnightblue" d="M503.32,-74.54C515.74,-73 529.14,-71.35 542.36,-69.71"/>
<polygon fill="midnightblue" stroke="midnightblue" points="542.91,-73.17 552.41,-68.47 542.05,-66.23 542.91,-73.17"/>
</g>
<!-- Node7 -->
<g id="node7" class="node">
<title>Node7</title>
<g id="a_node7"><a xlink:href="classcore_1_1_event_receiver.html#a677995a821e9226e5dcbf92182884477" target="_top" xlink:title=" ">
<polygon fill="white" stroke="black" points="569,-0.5 569,-30.5 683,-30.5 683,-0.5 569,-0.5"/>
<text text-anchor="start" x="577" y="-18.5" font-family="Helvetica,sans-Serif" font-size="10.00">core::EventReceiver</text>
<text text-anchor="middle" x="626" y="-7.5" font-family="Helvetica,sans-Serif" font-size="10.00">::isEnabled</text>
</a>
</g>
</g>
<!-- Node4&#45;&gt;Node7 -->
<g id="edge6" class="edge">
<title>Node4&#45;&gt;Node7</title>
<path fill="none" stroke="midnightblue" d="M478.07,-66.38C495.7,-58.13 518.31,-48.08 539,-40.5 545.47,-38.13 552.29,-35.83 559.12,-33.65"/>
<polygon fill="midnightblue" stroke="midnightblue" points="560.61,-36.85 569.13,-30.54 558.54,-30.16 560.61,-36.85"/>
</g>
<!-- Node8 -->
<g id="node8" class="node">
<title>Node8</title>
<g id="a_node8"><a xlink:href="classcore_1_1_descriptor_event_dispatcher.html#a75a426b93a1ef2348e452159c89bfc9f" target="_top" xlink:title=" ">
<polygon fill="white" stroke="black" points="539,-88.5 539,-118.5 713,-118.5 713,-88.5 539,-88.5"/>
<text text-anchor="start" x="547" y="-106.5" font-family="Helvetica,sans-Serif" font-size="10.00">core::DescriptorEventDispatcher</text>
<text text-anchor="middle" x="626" y="-95.5" font-family="Helvetica,sans-Serif" font-size="10.00">::resume</text>
</a>
</g>
</g>
<!-- Node4&#45;&gt;Node8 -->
<g id="edge7" class="edge">
<title>Node4&#45;&gt;Node8</title>
<path fill="none" stroke="midnightblue" d="M503.32,-88.46C511.45,-89.47 519.99,-90.52 528.64,-91.59"/>
<polygon fill="midnightblue" stroke="midnightblue" points="528.45,-95.09 538.8,-92.85 529.31,-88.15 528.45,-95.09"/>
</g>
<!-- Node6 -->
<g id="node6" class="node">
<title>Node6</title>
<g id="a_node6"><a xlink:href="namespacecore_1_1system.html#acf9e7364dbf51f07083e05caa50d3b66" target="_top" xlink:title=" ">
<polygon fill="white" stroke="black" points="760,-1 760,-20 912,-20 912,-1 760,-1"/>
<text text-anchor="middle" x="836" y="-8" font-family="Helvetica,sans-Serif" font-size="10.00">core::system::gettimeofday</text>
</a>
</g>
</g>
<!-- Node5&#45;&gt;Node6 -->
<g id="edge5" class="edge">
<title>Node5&#45;&gt;Node6</title>
<path fill="none" stroke="midnightblue" d="M672.19,-49.99C685.38,-47.09 699.8,-43.79 713,-40.5 729.11,-36.49 732.91,-34.6 749,-30.5 759.8,-27.74 771.41,-24.94 782.49,-22.34"/>
<polygon fill="midnightblue" stroke="midnightblue" points="783.54,-25.69 792.48,-20.01 781.95,-18.87 783.54,-25.69"/>
</g>
<!-- Node8&#45;&gt;Node3 -->
<g id="edge9" class="edge">
<title>Node8&#45;&gt;Node3</title>
<path fill="none" stroke="midnightblue" d="M690.82,-118.53C715.6,-124.37 743.96,-131.05 768.95,-136.94"/>
<polygon fill="midnightblue" stroke="midnightblue" points="768.17,-140.35 778.7,-139.24 769.77,-133.54 768.17,-140.35"/>
</g>
<!-- Node9 -->
<g id="node9" class="node">
<title>Node9</title>
<g id="a_node9"><a xlink:href="classcore_1_1_event_receiver.html#a945c04c8e000b708049e9422960e9739" target="_top" xlink:title=" ">
<polygon fill="white" stroke="black" points="779,-88.5 779,-118.5 893,-118.5 893,-88.5 779,-88.5"/>
<text text-anchor="start" x="787" y="-106.5" font-family="Helvetica,sans-Serif" font-size="10.00">core::EventReceiver</text>
<text text-anchor="middle" x="836" y="-95.5" font-family="Helvetica,sans-Serif" font-size="10.00">::getRegisteredFd</text>
</a>
</g>
</g>
<!-- Node8&#45;&gt;Node9 -->
<g id="edge8" class="edge">
<title>Node8&#45;&gt;Node9</title>
<path fill="none" stroke="midnightblue" d="M713.1,-103.5C731.69,-103.5 751.07,-103.5 768.76,-103.5"/>
<polygon fill="midnightblue" stroke="midnightblue" points="768.97,-107 778.97,-103.5 768.97,-100 768.97,-107"/>
</g>
<!-- Node10 -->
<g id="node10" class="node">
<title>Node10</title>
<g id="a_node10"><a xlink:href="classcore_1_1_descriptor_event_dispatcher.html#a830cd698abb070a4c7f5948d8c03f527" target="_top" xlink:title=" ">
<polygon fill="white" stroke="black" points="749,-39.5 749,-69.5 923,-69.5 923,-39.5 749,-39.5"/>
<text text-anchor="start" x="757" y="-57.5" font-family="Helvetica,sans-Serif" font-size="10.00">core::DescriptorEventDispatcher</text>
<text text-anchor="middle" x="836" y="-46.5" font-family="Helvetica,sans-Serif" font-size="10.00">::modOn</text>
</a>
</g>
</g>
<!-- Node8&#45;&gt;Node10 -->
<g id="edge10" class="edge">
<title>Node8&#45;&gt;Node10</title>
<path fill="none" stroke="midnightblue" d="M690.82,-88.47C713.18,-83.2 738.47,-77.24 761.56,-71.8"/>
<polygon fill="midnightblue" stroke="midnightblue" points="762.37,-75.21 771.3,-69.51 760.76,-68.39 762.37,-75.21"/>
</g>
</g>
</svg>
