<?xml version="1.0" encoding="UTF-8" standalone="no"?>
<!DOCTYPE svg PUBLIC "-//W3C//DTD SVG 1.1//EN"
 "http://www.w3.org/Graphics/SVG/1.1/DTD/svg11.dtd">
<!-- Generated by graphviz version 2.43.0 (0)
 -->
<!-- Title: core::eventreceiver::ExceptionalConditionEventReceiver::outOfBandTimeout Pages: 1 -->
<svg width="974pt" height="222pt"
 viewBox="0.00 0.00 974.00 222.00" xmlns="http://www.w3.org/2000/svg" xmlns:xlink="http://www.w3.org/1999/xlink">
<g id="graph0" class="graph" transform="scale(1 1) rotate(0) translate(4 218)">
<title>core::eventreceiver::ExceptionalConditionEventReceiver::outOfBandTimeout</title>
<polygon fill="white" stroke="transparent" points="-4,4 -4,-218 970,-218 970,4 -4,4"/>
<!-- Node1 -->
<g id="node1" class="node">
<title>Node1</title>
<g id="a_node1"><a xlink:title=" ">
<polygon fill="#bfbfbf" stroke="black" points="0,-112 0,-153 157,-153 157,-112 0,-112"/>
<text text-anchor="start" x="8" y="-141" font-family="Helvetica,sans-Serif" font-size="10.00">core::eventreceiver</text>
<text text-anchor="start" x="8" y="-130" font-family="Helvetica,sans-Serif" font-size="10.00">::ExceptionalConditionEvent</text>
<text text-anchor="middle" x="78.5" y="-119" font-family="Helvetica,sans-Serif" font-size="10.00">Receiver::outOfBandTimeout</text>
</a>
</g>
</g>
<!-- Node2 -->
<g id="node2" class="node">
<title>Node2</title>
<g id="a_node2"><a xlink:href="classcore_1_1_descriptor_event_receiver.html#a4ab422ce6622a29cee38a0108ee6ccc1" target="_top" xlink:title=" ">
<polygon fill="white" stroke="black" points="193,-117.5 193,-147.5 357,-147.5 357,-117.5 193,-117.5"/>
<text text-anchor="start" x="201" y="-135.5" font-family="Helvetica,sans-Serif" font-size="10.00">core::DescriptorEventReceiver</text>
<text text-anchor="middle" x="275" y="-124.5" font-family="Helvetica,sans-Serif" font-size="10.00">::disable</text>
</a>
</g>
</g>
<!-- Node1&#45;&gt;Node2 -->
<g id="edge1" class="edge">
<title>Node1&#45;&gt;Node2</title>
<path fill="none" stroke="midnightblue" d="M157.21,-132.5C165.65,-132.5 174.3,-132.5 182.88,-132.5"/>
<polygon fill="midnightblue" stroke="midnightblue" points="182.91,-136 192.91,-132.5 182.91,-129 182.91,-136"/>
</g>
<!-- Node3 -->
<g id="node3" class="node">
<title>Node3</title>
<g id="a_node3"><a xlink:href="classcore_1_1_descriptor_event_publisher.html#a998d681666ff72ed73cf0799ff4aca77" target="_top" xlink:title=" ">
<polygon fill="white" stroke="black" points="393,-183.5 393,-213.5 560,-213.5 560,-183.5 393,-183.5"/>
<text text-anchor="start" x="401" y="-201.5" font-family="Helvetica,sans-Serif" font-size="10.00">core::DescriptorEventPublisher</text>
<text text-anchor="middle" x="476.5" y="-190.5" font-family="Helvetica,sans-Serif" font-size="10.00">::disable</text>
</a>
</g>
</g>
<!-- Node2&#45;&gt;Node3 -->
<g id="edge2" class="edge">
<title>Node2&#45;&gt;Node3</title>
<path fill="none" stroke="midnightblue" d="M321.77,-147.64C351.04,-157.33 389.19,-169.95 420.16,-180.19"/>
<polygon fill="midnightblue" stroke="midnightblue" points="419.35,-183.61 429.94,-183.43 421.55,-176.96 419.35,-183.61"/>
</g>
<!-- Node4 -->
<g id="node4" class="node">
<title>Node4</title>
<g id="a_node4"><a xlink:href="classcore_1_1_event_receiver.html#aac62114d8385172bb2c536774a7dfcf7" target="_top" xlink:title=" ">
<polygon fill="white" stroke="black" points="622.5,-125.5 622.5,-155.5 736.5,-155.5 736.5,-125.5 622.5,-125.5"/>
<text text-anchor="start" x="630.5" y="-143.5" font-family="Helvetica,sans-Serif" font-size="10.00">core::EventReceiver</text>
<text text-anchor="middle" x="679.5" y="-132.5" font-family="Helvetica,sans-Serif" font-size="10.00">::getName</text>
</a>
</g>
</g>
<!-- Node2&#45;&gt;Node4 -->
<g id="edge3" class="edge">
<title>Node2&#45;&gt;Node4</title>
<path fill="none" stroke="midnightblue" d="M357.19,-134.67C369.2,-134.96 381.42,-135.25 393,-135.5 468.16,-137.12 554.45,-138.58 612.32,-139.49"/>
<polygon fill="midnightblue" stroke="midnightblue" points="612.37,-142.99 622.43,-139.65 612.48,-136 612.37,-142.99"/>
</g>
<!-- Node5 -->
<g id="node5" class="node">
<title>Node5</title>
<g id="a_node5"><a xlink:href="classcore_1_1_descriptor_event_receiver.html#ac80fc901f941c059a6ebdb28147b25a2" target="_top" xlink:title=" ">
<polygon fill="white" stroke="black" points="394.5,-95.5 394.5,-125.5 558.5,-125.5 558.5,-95.5 394.5,-95.5"/>
<text text-anchor="start" x="402.5" y="-113.5" font-family="Helvetica,sans-Serif" font-size="10.00">core::DescriptorEventReceiver</text>
<text text-anchor="middle" x="476.5" y="-102.5" font-family="Helvetica,sans-Serif" font-size="10.00">::isSuspended</text>
</a>
</g>
</g>
<!-- Node2&#45;&gt;Node5 -->
<g id="edge4" class="edge">
<title>Node2&#45;&gt;Node5</title>
<path fill="none" stroke="midnightblue" d="M357.14,-123.55C366.08,-122.57 375.22,-121.56 384.27,-120.56"/>
<polygon fill="midnightblue" stroke="midnightblue" points="384.87,-124.02 394.43,-119.44 384.1,-117.06 384.87,-124.02"/>
</g>
<!-- Node6 -->
<g id="node6" class="node">
<title>Node6</title>
<g id="a_node6"><a xlink:href="classcore_1_1_descriptor_event_receiver.html#aab5e466759c83194c5bc4b41f1a33103" target="_top" xlink:title=" ">
<polygon fill="white" stroke="black" points="394.5,-46.5 394.5,-76.5 558.5,-76.5 558.5,-46.5 394.5,-46.5"/>
<text text-anchor="start" x="402.5" y="-64.5" font-family="Helvetica,sans-Serif" font-size="10.00">core::DescriptorEventReceiver</text>
<text text-anchor="middle" x="476.5" y="-53.5" font-family="Helvetica,sans-Serif" font-size="10.00">::suspend</text>
</a>
</g>
</g>
<!-- Node2&#45;&gt;Node6 -->
<g id="edge5" class="edge">
<title>Node2&#45;&gt;Node6</title>
<path fill="none" stroke="midnightblue" d="M310.73,-117.5C333.83,-107.78 364.96,-95.18 393,-85.5 398.83,-83.49 404.93,-81.5 411.06,-79.58"/>
<polygon fill="midnightblue" stroke="midnightblue" points="412.14,-82.91 420.68,-76.62 410.09,-76.21 412.14,-82.91"/>
</g>
<!-- Node6&#45;&gt;Node4 -->
<g id="edge6" class="edge">
<title>Node6&#45;&gt;Node4</title>
<path fill="none" stroke="midnightblue" d="M533.81,-76.59C542.65,-79.33 551.63,-82.33 560,-85.5 576.55,-91.77 579.96,-95.02 596,-102.5 609.11,-108.61 623.42,-115.23 636.38,-121.19"/>
<polygon fill="midnightblue" stroke="midnightblue" points="635,-124.41 645.55,-125.41 637.92,-118.05 635,-124.41"/>
</g>
<!-- Node7 -->
<g id="node7" class="node">
<title>Node7</title>
<g id="a_node7"><a xlink:href="classcore_1_1_observer.html#a12bf1ddfdb90f05f28d16c09ce0658f8" target="_top" xlink:title=" ">
<polygon fill="white" stroke="black" points="605,-74 605,-93 754,-93 754,-74 605,-74"/>
<text text-anchor="middle" x="679.5" y="-81" font-family="Helvetica,sans-Serif" font-size="10.00">core::Observer::isObserved</text>
</a>
</g>
</g>
<!-- Node6&#45;&gt;Node7 -->
<g id="edge7" class="edge">
<title>Node6&#45;&gt;Node7</title>
<path fill="none" stroke="midnightblue" d="M558.68,-70.38C570.59,-71.69 582.89,-73.03 594.85,-74.34"/>
<polygon fill="midnightblue" stroke="midnightblue" points="594.49,-77.83 604.81,-75.43 595.25,-70.87 594.49,-77.83"/>
</g>
<!-- Node8 -->
<g id="node8" class="node">
<title>Node8</title>
<g id="a_node8"><a xlink:href="classcore_1_1_descriptor_event_publisher.html#ac1bfb115c6aba58d380862a43db457e8" target="_top" xlink:title=" ">
<polygon fill="white" stroke="black" points="596,-24.5 596,-54.5 763,-54.5 763,-24.5 596,-24.5"/>
<text text-anchor="start" x="604" y="-42.5" font-family="Helvetica,sans-Serif" font-size="10.00">core::DescriptorEventPublisher</text>
<text text-anchor="middle" x="679.5" y="-31.5" font-family="Helvetica,sans-Serif" font-size="10.00">::suspend</text>
</a>
</g>
</g>
<!-- Node6&#45;&gt;Node8 -->
<g id="edge8" class="edge">
<title>Node6&#45;&gt;Node8</title>
<path fill="none" stroke="midnightblue" d="M558.68,-52.62C567.54,-51.64 576.62,-50.65 585.61,-49.67"/>
<polygon fill="midnightblue" stroke="midnightblue" points="586.15,-53.13 595.71,-48.56 585.39,-46.17 586.15,-53.13"/>
</g>
<!-- Node9 -->
<g id="node9" class="node">
<title>Node9</title>
<g id="a_node9"><a xlink:href="classcore_1_1_descriptor_event_receiver.html#a445606dc995a71972d83e7683ada144b" target="_top" xlink:title=" ">
<polygon fill="white" stroke="black" points="800.5,-49.5 800.5,-79.5 964.5,-79.5 964.5,-49.5 800.5,-49.5"/>
<text text-anchor="start" x="808.5" y="-67.5" font-family="Helvetica,sans-Serif" font-size="10.00">core::DescriptorEventReceiver</text>
<text text-anchor="middle" x="882.5" y="-56.5" font-family="Helvetica,sans-Serif" font-size="10.00">::getRegisteredFd</text>
</a>
</g>
</g>
<!-- Node8&#45;&gt;Node9 -->
<g id="edge9" class="edge">
<title>Node8&#45;&gt;Node9</title>
<path fill="none" stroke="midnightblue" d="M763.12,-49.78C772.09,-50.89 781.26,-52.03 790.32,-53.16"/>
<polygon fill="midnightblue" stroke="midnightblue" points="790.14,-56.66 800.49,-54.42 791,-49.72 790.14,-56.66"/>
</g>
<!-- Node10 -->
<g id="node10" class="node">
<title>Node10</title>
<g id="a_node10"><a xlink:href="classcore_1_1_descriptor_event_publisher.html#af6a191195ac34bd0dfc6573b1adc3745" target="_top" xlink:title=" ">
<polygon fill="white" stroke="black" points="799,-0.5 799,-30.5 966,-30.5 966,-0.5 799,-0.5"/>
<text text-anchor="start" x="807" y="-18.5" font-family="Helvetica,sans-Serif" font-size="10.00">core::DescriptorEventPublisher</text>
<text text-anchor="middle" x="882.5" y="-7.5" font-family="Helvetica,sans-Serif" font-size="10.00">::muxOff</text>
</a>
</g>
</g>
<!-- Node8&#45;&gt;Node10 -->
<g id="edge10" class="edge">
<title>Node8&#45;&gt;Node10</title>
<path fill="none" stroke="midnightblue" d="M763.12,-29.63C771.61,-28.62 780.27,-27.59 788.85,-26.56"/>
<polygon fill="midnightblue" stroke="midnightblue" points="789.36,-30.03 798.87,-25.37 788.53,-23.08 789.36,-30.03"/>
</g>
</g>
</svg>
