<?xml version="1.0" encoding="UTF-8" standalone="no"?>
<!DOCTYPE svg PUBLIC "-//W3C//DTD SVG 1.1//EN"
 "http://www.w3.org/Graphics/SVG/1.1/DTD/svg11.dtd">
<!-- Generated by graphviz version 2.43.0 (0)
 -->
<!-- Title: core::DescriptorEventDispatcher::enable Pages: 1 -->
<svg width="1117pt" height="355pt"
 viewBox="0.00 0.00 1117.00 354.50" xmlns="http://www.w3.org/2000/svg" xmlns:xlink="http://www.w3.org/1999/xlink">
<g id="graph0" class="graph" transform="scale(1 1) rotate(0) translate(4 350.5)">
<title>core::DescriptorEventDispatcher::enable</title>
<polygon fill="white" stroke="transparent" points="-4,4 -4,-350.5 1113,-350.5 1113,4 -4,4"/>
<!-- Node1 -->
<g id="node1" class="node">
<title>Node1</title>
<g id="a_node1"><a xlink:title=" ">
<polygon fill="#bfbfbf" stroke="black" points="935,-169 935,-199 1109,-199 1109,-169 935,-169"/>
<text text-anchor="start" x="943" y="-187" font-family="Helvetica,sans-Serif" font-size="10.00">core::DescriptorEventDispatcher</text>
<text text-anchor="middle" x="1022" y="-176" font-family="Helvetica,sans-Serif" font-size="10.00">::enable</text>
</a>
</g>
</g>
<!-- Node2 -->
<g id="node2" class="node">
<title>Node2</title>
<g id="a_node2"><a xlink:href="classcore_1_1_descriptor_event_receiver.html#ac8611e3a44e67126e1418844dea4a326" target="_top" xlink:title=" ">
<polygon fill="white" stroke="black" points="735,-169 735,-199 899,-199 899,-169 735,-169"/>
<text text-anchor="start" x="743" y="-187" font-family="Helvetica,sans-Serif" font-size="10.00">core::DescriptorEventReceiver</text>
<text text-anchor="middle" x="817" y="-176" font-family="Helvetica,sans-Serif" font-size="10.00">::enable</text>
</a>
</g>
</g>
<!-- Node1&#45;&gt;Node2 -->
<g id="edge1" class="edge">
<title>Node1&#45;&gt;Node2</title>
<path fill="none" stroke="midnightblue" d="M924.83,-184C916.2,-184 907.53,-184 899.06,-184"/>
<polygon fill="midnightblue" stroke="midnightblue" points="924.91,-187.5 934.91,-184 924.91,-180.5 924.91,-187.5"/>
</g>
<!-- Node3 -->
<g id="node3" class="node">
<title>Node3</title>
<g id="a_node3"><a xlink:href="classcore_1_1file_1_1_file_reader.html#a59f41a74c0d3b7dfd8aea1659066e46c" target="_top" xlink:title=" ">
<polygon fill="white" stroke="black" points="552.5,-316 552.5,-346 668.5,-346 668.5,-316 552.5,-316"/>
<text text-anchor="start" x="560.5" y="-334" font-family="Helvetica,sans-Serif" font-size="10.00">core::file::FileReader</text>
<text text-anchor="middle" x="610.5" y="-323" font-family="Helvetica,sans-Serif" font-size="10.00">::FileReader</text>
</a>
</g>
</g>
<!-- Node2&#45;&gt;Node3 -->
<g id="edge2" class="edge">
<title>Node2&#45;&gt;Node3</title>
<path fill="none" stroke="midnightblue" d="M799.69,-207.79C779.33,-235.67 741.91,-281.34 699,-307 689.81,-312.5 679.32,-316.77 668.89,-320.08"/>
<polygon fill="midnightblue" stroke="midnightblue" points="802.71,-209.57 805.69,-199.4 797.02,-205.5 802.71,-209.57"/>
</g>
<!-- Node7 -->
<g id="node7" class="node">
<title>Node7</title>
<g id="a_node7"><a xlink:href="classcore_1_1pipe_1_1_pipe_sink.html#abfdb292fe8bd66fac2a78dcefe678fdf" target="_top" xlink:title=" ">
<polygon fill="white" stroke="black" points="554,-267 554,-297 667,-297 667,-267 554,-267"/>
<text text-anchor="start" x="562" y="-285" font-family="Helvetica,sans-Serif" font-size="10.00">core::pipe::PipeSink</text>
<text text-anchor="middle" x="610.5" y="-274" font-family="Helvetica,sans-Serif" font-size="10.00">::PipeSink</text>
</a>
</g>
</g>
<!-- Node2&#45;&gt;Node7 -->
<g id="edge6" class="edge">
<title>Node2&#45;&gt;Node7</title>
<path fill="none" stroke="midnightblue" d="M788.1,-204.99C765.19,-221.39 731.36,-243.71 699,-258 689.06,-262.39 678.12,-266.16 667.44,-269.32"/>
<polygon fill="midnightblue" stroke="midnightblue" points="790.28,-207.74 796.32,-199.03 786.17,-202.07 790.28,-207.74"/>
</g>
<!-- Node8 -->
<g id="node8" class="node">
<title>Node8</title>
<g id="a_node8"><a xlink:href="classcore_1_1pipe_1_1_pipe_source.html#a6804eb1f9c27124f36a2bf37454af2c7" target="_top" xlink:title=" ">
<polygon fill="white" stroke="black" points="548,-218 548,-248 673,-248 673,-218 548,-218"/>
<text text-anchor="start" x="556" y="-236" font-family="Helvetica,sans-Serif" font-size="10.00">core::pipe::PipeSource</text>
<text text-anchor="middle" x="610.5" y="-225" font-family="Helvetica,sans-Serif" font-size="10.00">::PipeSource</text>
</a>
</g>
</g>
<!-- Node2&#45;&gt;Node8 -->
<g id="edge7" class="edge">
<title>Node2&#45;&gt;Node8</title>
<path fill="none" stroke="midnightblue" d="M743.22,-201.44C720.28,-206.94 695.16,-212.95 673.07,-218.25"/>
<polygon fill="midnightblue" stroke="midnightblue" points="744.34,-204.77 753.25,-199.03 742.71,-197.96 744.34,-204.77"/>
</g>
<!-- Node9 -->
<g id="node9" class="node">
<title>Node9</title>
<g id="a_node9"><a xlink:href="classcore_1_1socket_1_1stream_1_1_socket_reader.html#a08ed40da6a9eab2338abe7caf813815c" target="_top" xlink:title=" ">
<polygon fill="white" stroke="black" points="529.5,-169 529.5,-199 691.5,-199 691.5,-169 529.5,-169"/>
<text text-anchor="start" x="537.5" y="-187" font-family="Helvetica,sans-Serif" font-size="10.00">core::socket::stream</text>
<text text-anchor="middle" x="610.5" y="-176" font-family="Helvetica,sans-Serif" font-size="10.00">::SocketReader::SocketReader</text>
</a>
</g>
</g>
<!-- Node2&#45;&gt;Node9 -->
<g id="edge8" class="edge">
<title>Node2&#45;&gt;Node9</title>
<path fill="none" stroke="midnightblue" d="M724.77,-184C713.68,-184 702.42,-184 691.52,-184"/>
<polygon fill="midnightblue" stroke="midnightblue" points="724.88,-187.5 734.88,-184 724.88,-180.5 724.88,-187.5"/>
</g>
<!-- Node10 -->
<g id="node10" class="node">
<title>Node10</title>
<g id="a_node10"><a xlink:href="classcore_1_1socket_1_1stream_1_1_socket_writer.html#a5ba1c52e7d40026bb53913db9dd139ba" target="_top" xlink:title=" ">
<polygon fill="white" stroke="black" points="534,-120 534,-150 687,-150 687,-120 534,-120"/>
<text text-anchor="start" x="542" y="-138" font-family="Helvetica,sans-Serif" font-size="10.00">core::socket::stream</text>
<text text-anchor="middle" x="610.5" y="-127" font-family="Helvetica,sans-Serif" font-size="10.00">::SocketWriter::SocketWriter</text>
</a>
</g>
</g>
<!-- Node2&#45;&gt;Node10 -->
<g id="edge9" class="edge">
<title>Node2&#45;&gt;Node10</title>
<path fill="none" stroke="midnightblue" d="M743.37,-166.6C720.74,-161.18 696,-155.25 674.13,-150.01"/>
<polygon fill="midnightblue" stroke="midnightblue" points="742.71,-170.04 753.25,-168.97 744.34,-163.23 742.71,-170.04"/>
</g>
<!-- Node11 -->
<g id="node11" class="node">
<title>Node11</title>
<g id="a_node11"><a xlink:href="classcore_1_1socket_1_1stream_1_1tls_1_1_t_l_s_handshake.html#a25bf095ec9148785030733d143a41633" target="_top" xlink:title=" ">
<polygon fill="white" stroke="black" points="551.5,-59.5 551.5,-100.5 669.5,-100.5 669.5,-59.5 551.5,-59.5"/>
<text text-anchor="start" x="559.5" y="-88.5" font-family="Helvetica,sans-Serif" font-size="10.00">core::socket::stream</text>
<text text-anchor="start" x="559.5" y="-77.5" font-family="Helvetica,sans-Serif" font-size="10.00">::tls::TLSHandshake::</text>
<text text-anchor="middle" x="610.5" y="-66.5" font-family="Helvetica,sans-Serif" font-size="10.00">TLSHandshake</text>
</a>
</g>
</g>
<!-- Node2&#45;&gt;Node11 -->
<g id="edge10" class="edge">
<title>Node2&#45;&gt;Node11</title>
<path fill="none" stroke="midnightblue" d="M786.5,-163.08C763.44,-147.35 730.17,-126.03 699,-111 689.71,-106.52 679.59,-102.34 669.65,-98.6"/>
<polygon fill="midnightblue" stroke="midnightblue" points="784.59,-166.02 794.81,-168.81 788.57,-160.25 784.59,-166.02"/>
</g>
<!-- Node14 -->
<g id="node14" class="node">
<title>Node14</title>
<g id="a_node14"><a xlink:href="classcore_1_1socket_1_1stream_1_1tls_1_1_t_l_s_shutdown.html#a7b52255464e549ef7127a88af3d075d3" target="_top" xlink:title=" ">
<polygon fill="white" stroke="black" points="522,-9 522,-39 699,-39 699,-9 522,-9"/>
<text text-anchor="start" x="530" y="-27" font-family="Helvetica,sans-Serif" font-size="10.00">core::socket::stream</text>
<text text-anchor="middle" x="610.5" y="-16" font-family="Helvetica,sans-Serif" font-size="10.00">::tls::TLSShutdown::TLSShutdown</text>
</a>
</g>
</g>
<!-- Node2&#45;&gt;Node14 -->
<g id="edge13" class="edge">
<title>Node2&#45;&gt;Node14</title>
<path fill="none" stroke="midnightblue" d="M801.29,-160.03C781.62,-129.97 743.98,-78.89 699,-50 692.33,-45.72 684.93,-42.12 677.34,-39.09"/>
<polygon fill="midnightblue" stroke="midnightblue" points="798.46,-162.1 806.8,-168.64 804.35,-158.33 798.46,-162.1"/>
</g>
<!-- Node4 -->
<g id="node4" class="node">
<title>Node4</title>
<g id="a_node4"><a xlink:href="classcore_1_1file_1_1_file_reader.html#a1283a619871fb6ae3ecaa472afdab866" target="_top" xlink:title=" ">
<polygon fill="white" stroke="black" points="342,-316 342,-346 458,-346 458,-316 342,-316"/>
<text text-anchor="start" x="350" y="-334" font-family="Helvetica,sans-Serif" font-size="10.00">core::file::FileReader</text>
<text text-anchor="middle" x="400" y="-323" font-family="Helvetica,sans-Serif" font-size="10.00">::connect</text>
</a>
</g>
</g>
<!-- Node3&#45;&gt;Node4 -->
<g id="edge3" class="edge">
<title>Node3&#45;&gt;Node4</title>
<path fill="none" stroke="midnightblue" d="M542.07,-331C514.98,-331 484.08,-331 458.12,-331"/>
<polygon fill="midnightblue" stroke="midnightblue" points="542.25,-334.5 552.25,-331 542.25,-327.5 542.25,-334.5"/>
</g>
<!-- Node5 -->
<g id="node5" class="node">
<title>Node5</title>
<g id="a_node5"><a xlink:href="classexpress_1_1_response.html#aa7a3b9c880c1af5b11e832f84eeda58c" target="_top" xlink:title=" ">
<polygon fill="white" stroke="black" points="157,-316 157,-346 271,-346 271,-316 157,-316"/>
<text text-anchor="start" x="165" y="-334" font-family="Helvetica,sans-Serif" font-size="10.00">express::Response::</text>
<text text-anchor="middle" x="214" y="-323" font-family="Helvetica,sans-Serif" font-size="10.00">sendFile</text>
</a>
</g>
</g>
<!-- Node4&#45;&gt;Node5 -->
<g id="edge4" class="edge">
<title>Node4&#45;&gt;Node5</title>
<path fill="none" stroke="midnightblue" d="M331.59,-331C311.76,-331 290.28,-331 271.23,-331"/>
<polygon fill="midnightblue" stroke="midnightblue" points="331.79,-334.5 341.79,-331 331.79,-327.5 331.79,-334.5"/>
</g>
<!-- Node6 -->
<g id="node6" class="node">
<title>Node6</title>
<g id="a_node6"><a xlink:href="classexpress_1_1_response.html#a9fe9c08eaaf312665cefdd87b0a47f54" target="_top" xlink:title=" ">
<polygon fill="white" stroke="black" points="0,-316 0,-346 114,-346 114,-316 0,-316"/>
<text text-anchor="start" x="8" y="-334" font-family="Helvetica,sans-Serif" font-size="10.00">express::Response::</text>
<text text-anchor="middle" x="57" y="-323" font-family="Helvetica,sans-Serif" font-size="10.00">download</text>
</a>
</g>
</g>
<!-- Node5&#45;&gt;Node6 -->
<g id="edge5" class="edge">
<title>Node5&#45;&gt;Node6</title>
<path fill="none" stroke="midnightblue" d="M146.4,-331C135.63,-331 124.58,-331 114.1,-331"/>
<polygon fill="midnightblue" stroke="midnightblue" points="146.6,-334.5 156.6,-331 146.6,-327.5 146.6,-334.5"/>
</g>
<!-- Node12 -->
<g id="node12" class="node">
<title>Node12</title>
<g id="a_node12"><a xlink:href="classcore_1_1socket_1_1stream_1_1tls_1_1_t_l_s_handshake.html#a3f3f95800656e2a4314b2a1688e42f97" target="_top" xlink:title=" ">
<polygon fill="white" stroke="black" points="341,-59.5 341,-100.5 459,-100.5 459,-59.5 341,-59.5"/>
<text text-anchor="start" x="349" y="-88.5" font-family="Helvetica,sans-Serif" font-size="10.00">core::socket::stream</text>
<text text-anchor="start" x="349" y="-77.5" font-family="Helvetica,sans-Serif" font-size="10.00">::tls::TLSHandshake::</text>
<text text-anchor="middle" x="400" y="-66.5" font-family="Helvetica,sans-Serif" font-size="10.00">doHandshake</text>
</a>
</g>
</g>
<!-- Node11&#45;&gt;Node12 -->
<g id="edge11" class="edge">
<title>Node11&#45;&gt;Node12</title>
<path fill="none" stroke="midnightblue" d="M541.07,-80C514.57,-80 484.56,-80 459.13,-80"/>
<polygon fill="midnightblue" stroke="midnightblue" points="541.42,-83.5 551.42,-80 541.42,-76.5 541.42,-83.5"/>
</g>
<!-- Node13 -->
<g id="node13" class="node">
<title>Node13</title>
<g id="a_node13"><a xlink:href="classcore_1_1socket_1_1stream_1_1tls_1_1_socket_connection.html#a546ab67c528548eaed69277c29a86412" target="_top" xlink:title=" ">
<polygon fill="white" stroke="black" points="150,-60.5 150,-101.5 278,-101.5 278,-60.5 150,-60.5"/>
<text text-anchor="start" x="158" y="-89.5" font-family="Helvetica,sans-Serif" font-size="10.00">core::socket::stream</text>
<text text-anchor="start" x="158" y="-78.5" font-family="Helvetica,sans-Serif" font-size="10.00">::tls::SocketConnection</text>
<text text-anchor="middle" x="214" y="-67.5" font-family="Helvetica,sans-Serif" font-size="10.00">::doSSLHandshake</text>
</a>
</g>
</g>
<!-- Node12&#45;&gt;Node13 -->
<g id="edge12" class="edge">
<title>Node12&#45;&gt;Node13</title>
<path fill="none" stroke="midnightblue" d="M330.33,-80.37C313.26,-80.47 295.05,-80.56 278.26,-80.66"/>
<polygon fill="midnightblue" stroke="midnightblue" points="330.8,-83.87 340.78,-80.32 330.76,-76.87 330.8,-83.87"/>
</g>
<!-- Node15 -->
<g id="node15" class="node">
<title>Node15</title>
<g id="a_node15"><a xlink:href="classcore_1_1socket_1_1stream_1_1tls_1_1_t_l_s_shutdown.html#a73bea20c9a3103a6974905f344e09d09" target="_top" xlink:title=" ">
<polygon fill="white" stroke="black" points="314,-8 314,-38 486,-38 486,-8 314,-8"/>
<text text-anchor="start" x="322" y="-26" font-family="Helvetica,sans-Serif" font-size="10.00">core::socket::stream</text>
<text text-anchor="middle" x="400" y="-15" font-family="Helvetica,sans-Serif" font-size="10.00">::tls::TLSShutdown::doShutdown</text>
</a>
</g>
</g>
<!-- Node14&#45;&gt;Node15 -->
<g id="edge14" class="edge">
<title>Node14&#45;&gt;Node15</title>
<path fill="none" stroke="midnightblue" d="M511.96,-23.53C503.39,-23.49 494.75,-23.45 486.29,-23.41"/>
<polygon fill="midnightblue" stroke="midnightblue" points="511.97,-27.03 521.98,-23.58 512,-20.03 511.97,-27.03"/>
</g>
<!-- Node16 -->
<g id="node16" class="node">
<title>Node16</title>
<g id="a_node16"><a xlink:href="classcore_1_1socket_1_1stream_1_1tls_1_1_socket_connection.html#a027a0630872458233920f5afb9baf071" target="_top" xlink:title=" ">
<polygon fill="white" stroke="black" points="150,-0.5 150,-41.5 278,-41.5 278,-0.5 150,-0.5"/>
<text text-anchor="start" x="158" y="-29.5" font-family="Helvetica,sans-Serif" font-size="10.00">core::socket::stream</text>
<text text-anchor="start" x="158" y="-18.5" font-family="Helvetica,sans-Serif" font-size="10.00">::tls::SocketConnection</text>
<text text-anchor="middle" x="214" y="-7.5" font-family="Helvetica,sans-Serif" font-size="10.00">::doSSLShutdown</text>
</a>
</g>
</g>
<!-- Node15&#45;&gt;Node16 -->
<g id="edge15" class="edge">
<title>Node15&#45;&gt;Node16</title>
<path fill="none" stroke="midnightblue" d="M303.56,-21.96C294.9,-21.87 286.28,-21.77 278,-21.68"/>
<polygon fill="midnightblue" stroke="midnightblue" points="303.7,-25.46 313.73,-22.07 303.77,-18.46 303.7,-25.46"/>
</g>
</g>
</svg>
