<?xml version="1.0" encoding="UTF-8" standalone="no"?>
<!DOCTYPE svg PUBLIC "-//W3C//DTD SVG 1.1//EN"
 "http://www.w3.org/Graphics/SVG/1.1/DTD/svg11.dtd">
<!-- Generated by graphviz version 2.43.0 (0)
 -->
<!-- Title: core::socket::stream::tls::SocketAcceptor&lt; ServerSocketT &gt; Pages: 1 -->
<svg width="463pt" height="1497pt"
 viewBox="0.00 0.00 462.50 1497.00" xmlns="http://www.w3.org/2000/svg" xmlns:xlink="http://www.w3.org/1999/xlink">
<g id="graph0" class="graph" transform="scale(1 1) rotate(0) translate(4 1493)">
<title>core::socket::stream::tls::SocketAcceptor&lt; ServerSocketT &gt;</title>
<polygon fill="white" stroke="transparent" points="-4,4 -4,-1493 458.5,-1493 458.5,4 -4,4"/>
<!-- Node1 -->
<g id="node1" class="node">
<title>Node1</title>
<g id="a_node1"><a xlink:title=" ">
<polygon fill="#bfbfbf" stroke="black" points="126.5,-0.5 126.5,-156.5 259.5,-156.5 259.5,-0.5 126.5,-0.5"/>
<text text-anchor="start" x="134.5" y="-144.5" font-family="Helvetica,sans-Serif" font-size="10.00">core::socket::stream</text>
<text text-anchor="start" x="134.5" y="-133.5" font-family="Helvetica,sans-Serif" font-size="10.00">::tls::SocketAcceptor</text>
<text text-anchor="middle" x="193" y="-122.5" font-family="Helvetica,sans-Serif" font-size="10.00">&lt; ServerSocketT &gt;</text>
<polyline fill="none" stroke="black" points="126.5,-115.5 259.5,-115.5 "/>
<text text-anchor="start" x="134.5" y="-103.5" font-family="Helvetica,sans-Serif" font-size="10.00">&#45; masterSslCtx</text>
<text text-anchor="start" x="134.5" y="-92.5" font-family="Helvetica,sans-Serif" font-size="10.00">&#45; masterSslCtxDomains</text>
<text text-anchor="start" x="134.5" y="-81.5" font-family="Helvetica,sans-Serif" font-size="10.00">&#45; sniSslCtxs</text>
<text text-anchor="start" x="134.5" y="-70.5" font-family="Helvetica,sans-Serif" font-size="10.00">&#45; forceSni</text>
<polyline fill="none" stroke="black" points="126.5,-63.5 259.5,-63.5 "/>
<text text-anchor="start" x="134.5" y="-51.5" font-family="Helvetica,sans-Serif" font-size="10.00">+ SocketAcceptor()</text>
<text text-anchor="start" x="134.5" y="-40.5" font-family="Helvetica,sans-Serif" font-size="10.00">+ ~SocketAcceptor()</text>
<text text-anchor="start" x="134.5" y="-29.5" font-family="Helvetica,sans-Serif" font-size="10.00">+ listen()</text>
<text text-anchor="start" x="134.5" y="-18.5" font-family="Helvetica,sans-Serif" font-size="10.00">&#45; addMasterCtx()</text>
<text text-anchor="start" x="134.5" y="-7.5" font-family="Helvetica,sans-Serif" font-size="10.00">&#45; serverNameCallback()</text>
</a>
</g>
</g>
<!-- Node2 -->
<g id="node2" class="node">
<title>Node2</title>
<g id="a_node2"><a xlink:href="classcore_1_1socket_1_1stream_1_1_socket_acceptor.html" target="_top" xlink:title=" ">
<polygon fill="white" stroke="black" points="106.5,-194.5 106.5,-471.5 279.5,-471.5 279.5,-194.5 106.5,-194.5"/>
<text text-anchor="start" x="114.5" y="-459.5" font-family="Helvetica,sans-Serif" font-size="10.00">core::socket::stream</text>
<text text-anchor="start" x="114.5" y="-448.5" font-family="Helvetica,sans-Serif" font-size="10.00">::SocketAcceptor&lt; ServerSocket</text>
<text text-anchor="start" x="114.5" y="-437.5" font-family="Helvetica,sans-Serif" font-size="10.00">T, core::socket::stream::tls</text>
<text text-anchor="middle" x="193" y="-426.5" font-family="Helvetica,sans-Serif" font-size="10.00">::SocketConnection &gt;</text>
<polyline fill="none" stroke="black" points="106.5,-419.5 279.5,-419.5 "/>
<text text-anchor="start" x="114.5" y="-407.5" font-family="Helvetica,sans-Serif" font-size="10.00"># config</text>
<text text-anchor="start" x="114.5" y="-396.5" font-family="Helvetica,sans-Serif" font-size="10.00"># options</text>
<text text-anchor="start" x="114.5" y="-385.5" font-family="Helvetica,sans-Serif" font-size="10.00">&#45; socketContextFactory</text>
<text text-anchor="start" x="114.5" y="-374.5" font-family="Helvetica,sans-Serif" font-size="10.00">&#45; onConnect</text>
<text text-anchor="start" x="114.5" y="-363.5" font-family="Helvetica,sans-Serif" font-size="10.00">&#45; onDestruct</text>
<text text-anchor="start" x="114.5" y="-352.5" font-family="Helvetica,sans-Serif" font-size="10.00">&#45; onConnected</text>
<text text-anchor="start" x="114.5" y="-341.5" font-family="Helvetica,sans-Serif" font-size="10.00">&#45; onDisconnect</text>
<text text-anchor="start" x="114.5" y="-330.5" font-family="Helvetica,sans-Serif" font-size="10.00">&#45; onError</text>
<polyline fill="none" stroke="black" points="106.5,-323.5 279.5,-323.5 "/>
<text text-anchor="start" x="114.5" y="-311.5" font-family="Helvetica,sans-Serif" font-size="10.00">+ SocketAcceptor()</text>
<text text-anchor="start" x="114.5" y="-300.5" font-family="Helvetica,sans-Serif" font-size="10.00">+ ~SocketAcceptor()</text>
<text text-anchor="start" x="114.5" y="-289.5" font-family="Helvetica,sans-Serif" font-size="10.00">+ listen()</text>
<text text-anchor="start" x="114.5" y="-278.5" font-family="Helvetica,sans-Serif" font-size="10.00"># destruct()</text>
<text text-anchor="start" x="114.5" y="-267.5" font-family="Helvetica,sans-Serif" font-size="10.00">&#45; SocketAcceptor()</text>
<text text-anchor="start" x="114.5" y="-256.5" font-family="Helvetica,sans-Serif" font-size="10.00">&#45; SocketAcceptor()</text>
<text text-anchor="start" x="114.5" y="-245.5" font-family="Helvetica,sans-Serif" font-size="10.00">&#45; operator=()</text>
<text text-anchor="start" x="114.5" y="-234.5" font-family="Helvetica,sans-Serif" font-size="10.00">&#45; initAcceptEvent()</text>
<text text-anchor="start" x="114.5" y="-223.5" font-family="Helvetica,sans-Serif" font-size="10.00">&#45; reuseAddress()</text>
<text text-anchor="start" x="114.5" y="-212.5" font-family="Helvetica,sans-Serif" font-size="10.00">&#45; acceptEvent()</text>
<text text-anchor="start" x="114.5" y="-201.5" font-family="Helvetica,sans-Serif" font-size="10.00">&#45; unobservedEvent()</text>
</a>
</g>
</g>
<!-- Node2&#45;&gt;Node1 -->
<g id="edge1" class="edge">
<title>Node2&#45;&gt;Node1</title>
<path fill="none" stroke="darkgreen" d="M193,-184.04C193,-174.64 193,-165.41 193,-156.56"/>
<polygon fill="none" stroke="darkgreen" points="189.5,-184.3 193,-194.3 196.5,-184.3 189.5,-184.3"/>
</g>
<!-- Node3 -->
<g id="node3" class="node">
<title>Node3</title>
<g id="a_node3"><a xlink:title=" ">
<polygon fill="white" stroke="#bfbfbf" points="0,-873 0,-930 124,-930 124,-873 0,-873"/>
<text text-anchor="middle" x="62" y="-918" font-family="Helvetica,sans-Serif" font-size="10.00">ServerSocketT::Socket</text>
<polyline fill="none" stroke="#bfbfbf" points="0,-911 124,-911 "/>
<text text-anchor="middle" x="62" y="-899" font-family="Helvetica,sans-Serif" font-size="10.00"> </text>
<polyline fill="none" stroke="#bfbfbf" points="0,-892 124,-892 "/>
<text text-anchor="middle" x="62" y="-880" font-family="Helvetica,sans-Serif" font-size="10.00"> </text>
</a>
</g>
</g>
<!-- Node3&#45;&gt;Node2 -->
<g id="edge2" class="edge">
<title>Node3&#45;&gt;Node2</title>
<path fill="none" stroke="darkgreen" d="M69.29,-862.99C83.52,-790.58 116.55,-626.64 150,-490 151.47,-484 153,-477.87 154.58,-471.69"/>
<polygon fill="none" stroke="darkgreen" points="65.81,-862.51 67.33,-872.99 72.68,-863.85 65.81,-862.51"/>
</g>
<!-- Node9 -->
<g id="node9" class="node">
<title>Node9</title>
<g id="a_node9"><a xlink:href="classcore_1_1socket_1_1stream_1_1_socket_acceptor.html" target="_top" xlink:title=" ">
<polygon fill="white" stroke="black" points="170.5,-541.5 170.5,-807.5 343.5,-807.5 343.5,-541.5 170.5,-541.5"/>
<text text-anchor="start" x="178.5" y="-795.5" font-family="Helvetica,sans-Serif" font-size="10.00">core::socket::stream</text>
<text text-anchor="start" x="178.5" y="-784.5" font-family="Helvetica,sans-Serif" font-size="10.00">::SocketAcceptor&lt; ServerSocket</text>
<text text-anchor="middle" x="257" y="-773.5" font-family="Helvetica,sans-Serif" font-size="10.00">T, SocketConnectionT &gt;</text>
<polyline fill="none" stroke="black" points="170.5,-766.5 343.5,-766.5 "/>
<text text-anchor="start" x="178.5" y="-754.5" font-family="Helvetica,sans-Serif" font-size="10.00"># config</text>
<text text-anchor="start" x="178.5" y="-743.5" font-family="Helvetica,sans-Serif" font-size="10.00"># options</text>
<text text-anchor="start" x="178.5" y="-732.5" font-family="Helvetica,sans-Serif" font-size="10.00">&#45; socketContextFactory</text>
<text text-anchor="start" x="178.5" y="-721.5" font-family="Helvetica,sans-Serif" font-size="10.00">&#45; onConnect</text>
<text text-anchor="start" x="178.5" y="-710.5" font-family="Helvetica,sans-Serif" font-size="10.00">&#45; onDestruct</text>
<text text-anchor="start" x="178.5" y="-699.5" font-family="Helvetica,sans-Serif" font-size="10.00">&#45; onConnected</text>
<text text-anchor="start" x="178.5" y="-688.5" font-family="Helvetica,sans-Serif" font-size="10.00">&#45; onDisconnect</text>
<text text-anchor="start" x="178.5" y="-677.5" font-family="Helvetica,sans-Serif" font-size="10.00">&#45; onError</text>
<polyline fill="none" stroke="black" points="170.5,-670.5 343.5,-670.5 "/>
<text text-anchor="start" x="178.5" y="-658.5" font-family="Helvetica,sans-Serif" font-size="10.00">+ SocketAcceptor()</text>
<text text-anchor="start" x="178.5" y="-647.5" font-family="Helvetica,sans-Serif" font-size="10.00">+ ~SocketAcceptor()</text>
<text text-anchor="start" x="178.5" y="-636.5" font-family="Helvetica,sans-Serif" font-size="10.00">+ listen()</text>
<text text-anchor="start" x="178.5" y="-625.5" font-family="Helvetica,sans-Serif" font-size="10.00"># destruct()</text>
<text text-anchor="start" x="178.5" y="-614.5" font-family="Helvetica,sans-Serif" font-size="10.00">&#45; SocketAcceptor()</text>
<text text-anchor="start" x="178.5" y="-603.5" font-family="Helvetica,sans-Serif" font-size="10.00">&#45; SocketAcceptor()</text>
<text text-anchor="start" x="178.5" y="-592.5" font-family="Helvetica,sans-Serif" font-size="10.00">&#45; operator=()</text>
<text text-anchor="start" x="178.5" y="-581.5" font-family="Helvetica,sans-Serif" font-size="10.00">&#45; initAcceptEvent()</text>
<text text-anchor="start" x="178.5" y="-570.5" font-family="Helvetica,sans-Serif" font-size="10.00">&#45; reuseAddress()</text>
<text text-anchor="start" x="178.5" y="-559.5" font-family="Helvetica,sans-Serif" font-size="10.00">&#45; acceptEvent()</text>
<text text-anchor="start" x="178.5" y="-548.5" font-family="Helvetica,sans-Serif" font-size="10.00">&#45; unobservedEvent()</text>
</a>
</g>
</g>
<!-- Node3&#45;&gt;Node9 -->
<g id="edge10" class="edge">
<title>Node3&#45;&gt;Node9</title>
<path fill="none" stroke="darkgreen" d="M92.72,-865.05C113.73,-840.81 142.72,-807.36 170.49,-775.31"/>
<polygon fill="none" stroke="darkgreen" points="89.82,-863.06 85.91,-872.91 95.11,-867.65 89.82,-863.06"/>
</g>
<!-- Node4 -->
<g id="node4" class="node">
<title>Node4</title>
<g id="a_node4"><a xlink:href="classcore_1_1eventreceiver_1_1_init_accept_event_receiver.html" target="_top" xlink:title=" ">
<polygon fill="white" stroke="black" points="299.5,-856.5 299.5,-946.5 454.5,-946.5 454.5,-856.5 299.5,-856.5"/>
<text text-anchor="start" x="307.5" y="-934.5" font-family="Helvetica,sans-Serif" font-size="10.00">core::eventreceiver</text>
<text text-anchor="middle" x="377" y="-923.5" font-family="Helvetica,sans-Serif" font-size="10.00">::InitAcceptEventReceiver</text>
<polyline fill="none" stroke="black" points="299.5,-916.5 454.5,-916.5 "/>
<text text-anchor="middle" x="377" y="-904.5" font-family="Helvetica,sans-Serif" font-size="10.00"> </text>
<polyline fill="none" stroke="black" points="299.5,-897.5 454.5,-897.5 "/>
<text text-anchor="start" x="307.5" y="-885.5" font-family="Helvetica,sans-Serif" font-size="10.00"># InitAcceptEventReceiver()</text>
<text text-anchor="start" x="307.5" y="-874.5" font-family="Helvetica,sans-Serif" font-size="10.00">&#45; event()</text>
<text text-anchor="start" x="307.5" y="-863.5" font-family="Helvetica,sans-Serif" font-size="10.00">&#45; initAcceptEvent()</text>
</a>
</g>
</g>
<!-- Node4&#45;&gt;Node2 -->
<g id="edge3" class="edge">
<title>Node4&#45;&gt;Node2</title>
<path fill="none" stroke="darkgreen" d="M385.21,-846.22C394.94,-763.92 402.96,-605 342,-490 326.21,-460.22 303.11,-432.1 279.79,-408.15"/>
<polygon fill="none" stroke="darkgreen" points="381.71,-845.99 383.95,-856.35 388.65,-846.85 381.71,-845.99"/>
</g>
<!-- Node4&#45;&gt;Node9 -->
<g id="edge11" class="edge">
<title>Node4&#45;&gt;Node9</title>
<path fill="none" stroke="darkgreen" d="M348.63,-847.3C342.15,-835.16 334.99,-821.74 327.61,-807.9"/>
<polygon fill="none" stroke="darkgreen" points="345.64,-849.14 353.44,-856.32 351.82,-845.85 345.64,-849.14"/>
</g>
<!-- Node5 -->
<g id="node5" class="node">
<title>Node5</title>
<g id="a_node5"><a xlink:href="classcore_1_1_event_receiver.html" target="_top" xlink:title=" ">
<polygon fill="white" stroke="black" points="318,-1376.5 318,-1488.5 432,-1488.5 432,-1376.5 318,-1376.5"/>
<text text-anchor="middle" x="375" y="-1476.5" font-family="Helvetica,sans-Serif" font-size="10.00">core::EventReceiver</text>
<polyline fill="none" stroke="black" points="318,-1469.5 432,-1469.5 "/>
<text text-anchor="start" x="326" y="-1457.5" font-family="Helvetica,sans-Serif" font-size="10.00"># _event</text>
<polyline fill="none" stroke="black" points="318,-1450.5 432,-1450.5 "/>
<text text-anchor="start" x="326" y="-1438.5" font-family="Helvetica,sans-Serif" font-size="10.00">+ EventReceiver()</text>
<text text-anchor="start" x="326" y="-1427.5" font-family="Helvetica,sans-Serif" font-size="10.00">+ ~EventReceiver()</text>
<text text-anchor="start" x="326" y="-1416.5" font-family="Helvetica,sans-Serif" font-size="10.00">+ publish()</text>
<text text-anchor="start" x="326" y="-1405.5" font-family="Helvetica,sans-Serif" font-size="10.00">+ unPublish()</text>
<text text-anchor="start" x="326" y="-1394.5" font-family="Helvetica,sans-Serif" font-size="10.00">+ event()</text>
<text text-anchor="start" x="326" y="-1383.5" font-family="Helvetica,sans-Serif" font-size="10.00">+ getName()</text>
</a>
</g>
</g>
<!-- Node5&#45;&gt;Node4 -->
<g id="edge4" class="edge">
<title>Node5&#45;&gt;Node4</title>
<path fill="none" stroke="midnightblue" d="M375.25,-1366.16C375.66,-1256.95 376.48,-1040.12 376.83,-946.85"/>
<polygon fill="none" stroke="midnightblue" points="371.75,-1366.37 375.21,-1376.38 378.75,-1366.4 371.75,-1366.37"/>
</g>
<!-- Node7 -->
<g id="node7" class="node">
<title>Node7</title>
<g id="a_node7"><a xlink:href="classcore_1_1_descriptor_event_receiver.html" target="_top" xlink:title=" ">
<polygon fill="white" stroke="black" points="136,-995.5 136,-1338.5 300,-1338.5 300,-995.5 136,-995.5"/>
<text text-anchor="middle" x="218" y="-1326.5" font-family="Helvetica,sans-Serif" font-size="10.00">core::DescriptorEventReceiver</text>
<polyline fill="none" stroke="black" points="136,-1319.5 300,-1319.5 "/>
<text text-anchor="start" x="144" y="-1307.5" font-family="Helvetica,sans-Serif" font-size="10.00">&#45; descriptorEventPublisher</text>
<text text-anchor="start" x="144" y="-1296.5" font-family="Helvetica,sans-Serif" font-size="10.00">&#45; observedFd</text>
<text text-anchor="start" x="144" y="-1285.5" font-family="Helvetica,sans-Serif" font-size="10.00">&#45; enabled</text>
<text text-anchor="start" x="144" y="-1274.5" font-family="Helvetica,sans-Serif" font-size="10.00">&#45; suspended</text>
<text text-anchor="start" x="144" y="-1263.5" font-family="Helvetica,sans-Serif" font-size="10.00">&#45; lastTriggered</text>
<text text-anchor="start" x="144" y="-1252.5" font-family="Helvetica,sans-Serif" font-size="10.00">&#45; maxInactivity</text>
<text text-anchor="start" x="144" y="-1241.5" font-family="Helvetica,sans-Serif" font-size="10.00">&#45; initialTimeout</text>
<text text-anchor="start" x="144" y="-1230.5" font-family="Helvetica,sans-Serif" font-size="10.00">&#45; eventCounter</text>
<polyline fill="none" stroke="black" points="136,-1223.5 300,-1223.5 "/>
<text text-anchor="start" x="144" y="-1211.5" font-family="Helvetica,sans-Serif" font-size="10.00">+ getRegisteredFd()</text>
<text text-anchor="start" x="144" y="-1200.5" font-family="Helvetica,sans-Serif" font-size="10.00">+ getTimeout()</text>
<text text-anchor="start" x="144" y="-1189.5" font-family="Helvetica,sans-Serif" font-size="10.00">+ isEnabled()</text>
<text text-anchor="start" x="144" y="-1178.5" font-family="Helvetica,sans-Serif" font-size="10.00">+ isSuspended()</text>
<text text-anchor="start" x="144" y="-1167.5" font-family="Helvetica,sans-Serif" font-size="10.00"># DescriptorEventReceiver()</text>
<text text-anchor="start" x="144" y="-1156.5" font-family="Helvetica,sans-Serif" font-size="10.00"># enable()</text>
<text text-anchor="start" x="144" y="-1145.5" font-family="Helvetica,sans-Serif" font-size="10.00"># disable()</text>
<text text-anchor="start" x="144" y="-1134.5" font-family="Helvetica,sans-Serif" font-size="10.00"># suspend()</text>
<text text-anchor="start" x="144" y="-1123.5" font-family="Helvetica,sans-Serif" font-size="10.00"># resume()</text>
<text text-anchor="start" x="144" y="-1112.5" font-family="Helvetica,sans-Serif" font-size="10.00"># setTimeout()</text>
<text text-anchor="start" x="144" y="-1101.5" font-family="Helvetica,sans-Serif" font-size="10.00"># checkTimeout()</text>
<text text-anchor="start" x="144" y="-1090.5" font-family="Helvetica,sans-Serif" font-size="10.00"># terminate()</text>
<text text-anchor="start" x="144" y="-1079.5" font-family="Helvetica,sans-Serif" font-size="10.00">&#45; DescriptorEventReceiver()</text>
<text text-anchor="start" x="144" y="-1068.5" font-family="Helvetica,sans-Serif" font-size="10.00">&#45; operator=()</text>
<text text-anchor="start" x="144" y="-1057.5" font-family="Helvetica,sans-Serif" font-size="10.00">&#45; event()</text>
<text text-anchor="start" x="144" y="-1046.5" font-family="Helvetica,sans-Serif" font-size="10.00">&#45; triggered()</text>
<text text-anchor="start" x="144" y="-1035.5" font-family="Helvetica,sans-Serif" font-size="10.00">&#45; setEnabled()</text>
<text text-anchor="start" x="144" y="-1024.5" font-family="Helvetica,sans-Serif" font-size="10.00">&#45; setDisabled()</text>
<text text-anchor="start" x="144" y="-1013.5" font-family="Helvetica,sans-Serif" font-size="10.00">&#45; dispatchEvent()</text>
<text text-anchor="start" x="144" y="-1002.5" font-family="Helvetica,sans-Serif" font-size="10.00">&#45; timeoutEvent()</text>
</a>
</g>
</g>
<!-- Node5&#45;&gt;Node7 -->
<g id="edge8" class="edge">
<title>Node5&#45;&gt;Node7</title>
<path fill="none" stroke="midnightblue" d="M336.87,-1367.51C325.65,-1348.67 312.91,-1327.29 300.04,-1305.69"/>
<polygon fill="none" stroke="midnightblue" points="333.96,-1369.46 342.09,-1376.26 339.98,-1365.88 333.96,-1369.46"/>
</g>
<!-- Node6 -->
<g id="node6" class="node">
<title>Node6</title>
<g id="a_node6"><a xlink:href="classcore_1_1eventreceiver_1_1_accept_event_receiver.html" target="_top" xlink:title=" ">
<polygon fill="white" stroke="black" points="142.5,-845.5 142.5,-957.5 281.5,-957.5 281.5,-845.5 142.5,-845.5"/>
<text text-anchor="start" x="150.5" y="-945.5" font-family="Helvetica,sans-Serif" font-size="10.00">core::eventreceiver</text>
<text text-anchor="middle" x="212" y="-934.5" font-family="Helvetica,sans-Serif" font-size="10.00">::AcceptEventReceiver</text>
<polyline fill="none" stroke="black" points="142.5,-927.5 281.5,-927.5 "/>
<text text-anchor="middle" x="212" y="-915.5" font-family="Helvetica,sans-Serif" font-size="10.00"> </text>
<polyline fill="none" stroke="black" points="142.5,-908.5 281.5,-908.5 "/>
<text text-anchor="start" x="150.5" y="-896.5" font-family="Helvetica,sans-Serif" font-size="10.00"># AcceptEventReceiver()</text>
<text text-anchor="start" x="150.5" y="-885.5" font-family="Helvetica,sans-Serif" font-size="10.00">&#45; acceptEvent()</text>
<text text-anchor="start" x="150.5" y="-874.5" font-family="Helvetica,sans-Serif" font-size="10.00">&#45; acceptTimeout()</text>
<text text-anchor="start" x="150.5" y="-863.5" font-family="Helvetica,sans-Serif" font-size="10.00">&#45; dispatchEvent()</text>
<text text-anchor="start" x="150.5" y="-852.5" font-family="Helvetica,sans-Serif" font-size="10.00">&#45; timeoutEvent()</text>
</a>
</g>
</g>
<!-- Node6&#45;&gt;Node2 -->
<g id="edge5" class="edge">
<title>Node6&#45;&gt;Node2</title>
<path fill="none" stroke="darkgreen" d="M171.95,-835.79C167.87,-826.73 164.36,-817.33 162,-808 133.96,-697.17 145.38,-567.38 161.74,-471.66"/>
<polygon fill="none" stroke="darkgreen" points="168.92,-837.57 176.38,-845.08 175.23,-834.55 168.92,-837.57"/>
</g>
<!-- Node6&#45;&gt;Node9 -->
<g id="edge12" class="edge">
<title>Node6&#45;&gt;Node9</title>
<path fill="none" stroke="darkgreen" d="M224.98,-835.61C226.76,-826.7 228.64,-817.29 230.56,-807.69"/>
<polygon fill="none" stroke="darkgreen" points="221.54,-834.97 223.01,-845.46 228.4,-836.34 221.54,-834.97"/>
</g>
<!-- Node7&#45;&gt;Node6 -->
<g id="edge6" class="edge">
<title>Node7&#45;&gt;Node6</title>
<path fill="none" stroke="midnightblue" d="M213.88,-985.2C213.66,-975.54 213.45,-966.29 213.26,-957.7"/>
<polygon fill="none" stroke="midnightblue" points="210.39,-985.48 214.12,-995.4 217.39,-985.32 210.39,-985.48"/>
</g>
<!-- Node8 -->
<g id="node8" class="node">
<title>Node8</title>
<g id="a_node8"><a xlink:href="classcore_1_1_observer.html" target="_top" xlink:title=" ">
<polygon fill="white" stroke="black" points="143.5,-1376.5 143.5,-1488.5 292.5,-1488.5 292.5,-1376.5 143.5,-1376.5"/>
<text text-anchor="middle" x="218" y="-1476.5" font-family="Helvetica,sans-Serif" font-size="10.00">core::Observer</text>
<polyline fill="none" stroke="black" points="143.5,-1469.5 292.5,-1469.5 "/>
<text text-anchor="start" x="151.5" y="-1457.5" font-family="Helvetica,sans-Serif" font-size="10.00">&#45; observationCounter</text>
<polyline fill="none" stroke="black" points="143.5,-1450.5 292.5,-1450.5 "/>
<text text-anchor="start" x="151.5" y="-1438.5" font-family="Helvetica,sans-Serif" font-size="10.00">+ ~Observer()</text>
<text text-anchor="start" x="151.5" y="-1427.5" font-family="Helvetica,sans-Serif" font-size="10.00">+ isObserved()</text>
<text text-anchor="start" x="151.5" y="-1416.5" font-family="Helvetica,sans-Serif" font-size="10.00">+ observed()</text>
<text text-anchor="start" x="151.5" y="-1405.5" font-family="Helvetica,sans-Serif" font-size="10.00">+ unObserved()</text>
<text text-anchor="start" x="151.5" y="-1394.5" font-family="Helvetica,sans-Serif" font-size="10.00">+ getObservationCounter()</text>
<text text-anchor="start" x="151.5" y="-1383.5" font-family="Helvetica,sans-Serif" font-size="10.00">+ unobservedEvent()</text>
</a>
</g>
</g>
<!-- Node8&#45;&gt;Node7 -->
<g id="edge7" class="edge">
<title>Node8&#45;&gt;Node7</title>
<path fill="none" stroke="midnightblue" d="M218,-1366.25C218,-1357.5 218,-1348.22 218,-1338.65"/>
<polygon fill="none" stroke="midnightblue" points="214.5,-1366.26 218,-1376.26 221.5,-1366.26 214.5,-1366.26"/>
</g>
<!-- Node9&#45;&gt;Node2 -->
<g id="edge9" class="edge">
<title>Node9&#45;&gt;Node2</title>
<path fill="none" stroke="orange" d="M230.2,-531.32C226.48,-511.61 222.67,-491.39 218.97,-471.75"/>
<polygon fill="orange" stroke="orange" points="226.78,-532.09 232.07,-541.27 233.66,-530.79 226.78,-532.09"/>
<text text-anchor="start" x="226" y="-515" font-family="Helvetica,sans-Serif" font-size="10.00"> &lt; ServerSocketT, core</text>
<text text-anchor="start" x="226" y="-504" font-family="Helvetica,sans-Serif" font-size="10.00">::socket::stream::tls</text>
<text text-anchor="middle" x="282" y="-493" font-family="Helvetica,sans-Serif" font-size="10.00">::SocketConnection &gt;</text>
</g>
</g>
</svg>
