<?xml version="1.0" encoding="UTF-8" standalone="no"?>
<!DOCTYPE svg PUBLIC "-//W3C//DTD SVG 1.1//EN"
 "http://www.w3.org/Graphics/SVG/1.1/DTD/svg11.dtd">
<!-- Generated by graphviz version 2.43.0 (0)
 -->
<!-- Title: net::l2::stream::legacy::config::ConfigSocketClient Pages: 1 -->
<svg width="411pt" height="240pt"
 viewBox="0.00 0.00 411.00 240.00" xmlns="http://www.w3.org/2000/svg" xmlns:xlink="http://www.w3.org/1999/xlink">
<g id="graph0" class="graph" transform="scale(1 1) rotate(0) translate(4 236)">
<title>net::l2::stream::legacy::config::ConfigSocketClient</title>
<polygon fill="white" stroke="transparent" points="-4,4 -4,-236 407,-236 407,4 -4,4"/>
<!-- Node1 -->
<g id="node1" class="node">
<title>Node1</title>
<g id="a_node1"><a xlink:title=" ">
<polygon fill="#bfbfbf" stroke="black" points="148.5,-0.5 148.5,-30.5 299.5,-30.5 299.5,-0.5 148.5,-0.5"/>
<text text-anchor="start" x="156.5" y="-18.5" font-family="Helvetica,sans-Serif" font-size="10.00">net::l2::stream::legacy</text>
<text text-anchor="middle" x="224" y="-7.5" font-family="Helvetica,sans-Serif" font-size="10.00">::config::ConfigSocketClient</text>
</a>
</g>
</g>
<!-- Node2 -->
<g id="node2" class="node">
<title>Node2</title>
<g id="a_node2"><a xlink:href="classnet_1_1l2_1_1stream_1_1config_1_1_config_socket_client.html" target="_top" xlink:title=" ">
<polygon fill="white" stroke="black" points="87,-67.5 87,-97.5 211,-97.5 211,-67.5 87,-67.5"/>
<text text-anchor="start" x="95" y="-85.5" font-family="Helvetica,sans-Serif" font-size="10.00">net::l2::stream::config</text>
<text text-anchor="middle" x="149" y="-74.5" font-family="Helvetica,sans-Serif" font-size="10.00">::ConfigSocketClient</text>
</a>
</g>
</g>
<!-- Node2&#45;&gt;Node1 -->
<g id="edge1" class="edge">
<title>Node2&#45;&gt;Node1</title>
<path fill="none" stroke="midnightblue" d="M173.12,-60.6C184.44,-50.78 197.64,-39.34 207.76,-30.58"/>
<polygon fill="none" stroke="midnightblue" points="170.54,-58.2 165.27,-67.4 175.12,-63.49 170.54,-58.2"/>
</g>
<!-- Node3 -->
<g id="node3" class="node">
<title>Node3</title>
<g id="a_node3"><a xlink:href="classnet_1_1l2_1_1config_1_1_config_address.html" target="_top" xlink:title=" ">
<polygon fill="white" stroke="black" points="0,-134.5 0,-164.5 160,-164.5 160,-134.5 0,-134.5"/>
<text text-anchor="start" x="8" y="-152.5" font-family="Helvetica,sans-Serif" font-size="10.00">net::l2::config::ConfigAddress</text>
<text text-anchor="middle" x="80" y="-141.5" font-family="Helvetica,sans-Serif" font-size="10.00">&lt; ConfigAddressTypeT &gt;</text>
</a>
</g>
</g>
<!-- Node3&#45;&gt;Node2 -->
<g id="edge2" class="edge">
<title>Node3&#45;&gt;Node2</title>
<path fill="none" stroke="midnightblue" d="M96.41,-127.02C106.03,-117.34 118.13,-106.17 128.38,-97.58"/>
<polygon fill="none" stroke="midnightblue" points="93.72,-124.77 89.29,-134.4 98.76,-129.63 93.72,-124.77"/>
</g>
<!-- Node3&#45;&gt;Node2 -->
<g id="edge4" class="edge">
<title>Node3&#45;&gt;Node2</title>
<path fill="none" stroke="midnightblue" d="M108.54,-127.6C119.66,-117.78 131.58,-106.34 139.73,-97.58"/>
<polygon fill="none" stroke="midnightblue" points="105.94,-125.22 100.65,-134.4 110.51,-130.52 105.94,-125.22"/>
</g>
<!-- Node4 -->
<g id="node4" class="node">
<title>Node4</title>
<g id="a_node4"><a xlink:title=" ">
<polygon fill="white" stroke="#bfbfbf" points="6.5,-201.5 6.5,-231.5 153.5,-231.5 153.5,-201.5 6.5,-201.5"/>
<text text-anchor="start" x="14.5" y="-219.5" font-family="Helvetica,sans-Serif" font-size="10.00">ConfigAddressTypeT</text>
<text text-anchor="middle" x="80" y="-208.5" font-family="Helvetica,sans-Serif" font-size="10.00">&lt; net::l2::SocketAddress &gt;</text>
</a>
</g>
</g>
<!-- Node4&#45;&gt;Node3 -->
<g id="edge3" class="edge">
<title>Node4&#45;&gt;Node3</title>
<path fill="none" stroke="midnightblue" d="M80,-191.11C80,-182.15 80,-172.32 80,-164.58"/>
<polygon fill="none" stroke="midnightblue" points="76.5,-191.4 80,-201.4 83.5,-191.4 76.5,-191.4"/>
</g>
<!-- Node5 -->
<g id="node5" class="node">
<title>Node5</title>
<g id="a_node5"><a xlink:href="classnet_1_1config_1_1_config_connection.html" target="_top" xlink:title=" ">
<polygon fill="white" stroke="black" points="178.5,-140 178.5,-159 339.5,-159 339.5,-140 178.5,-140"/>
<text text-anchor="middle" x="259" y="-147" font-family="Helvetica,sans-Serif" font-size="10.00">net::config::ConfigConnection</text>
</a>
</g>
</g>
<!-- Node5&#45;&gt;Node2 -->
<g id="edge5" class="edge">
<title>Node5&#45;&gt;Node2</title>
<path fill="none" stroke="midnightblue" d="M235.48,-134.6C217.01,-123.69 191.4,-108.55 172.84,-97.59"/>
<polygon fill="none" stroke="midnightblue" points="233.78,-137.66 244.16,-139.73 237.34,-131.63 233.78,-137.66"/>
</g>
<!-- Node6 -->
<g id="node6" class="node">
<title>Node6</title>
<g id="a_node6"><a xlink:href="classnet_1_1config_1_1_config_base.html" target="_top" xlink:title=" ">
<polygon fill="white" stroke="black" points="248,-207 248,-226 378,-226 378,-207 248,-207"/>
<text text-anchor="middle" x="313" y="-214" font-family="Helvetica,sans-Serif" font-size="10.00">net::config::ConfigBase</text>
</a>
</g>
</g>
<!-- Node6&#45;&gt;Node5 -->
<g id="edge6" class="edge">
<title>Node6&#45;&gt;Node5</title>
<path fill="none" stroke="darkgreen" d="M299.1,-198.77C288.57,-186.1 274.54,-169.2 266.17,-159.13"/>
<polygon fill="none" stroke="darkgreen" points="296.63,-201.28 305.72,-206.73 302.02,-196.81 296.63,-201.28"/>
</g>
<!-- Node7 -->
<g id="node7" class="node">
<title>Node7</title>
<g id="a_node7"><a xlink:href="classnet_1_1config_1_1_config_legacy.html" target="_top" xlink:title=" ">
<polygon fill="white" stroke="black" points="263,-73 263,-92 403,-92 403,-73 263,-73"/>
<text text-anchor="middle" x="333" y="-80" font-family="Helvetica,sans-Serif" font-size="10.00">net::config::ConfigLegacy</text>
</a>
</g>
</g>
<!-- Node6&#45;&gt;Node7 -->
<g id="edge8" class="edge">
<title>Node6&#45;&gt;Node7</title>
<path fill="none" stroke="darkgreen" d="M328.17,-199.14C335.71,-189.87 344.05,-177.63 348,-165 356.07,-139.18 344.2,-107.33 337.32,-92.23"/>
<polygon fill="none" stroke="darkgreen" points="325.49,-196.89 321.61,-206.75 330.79,-201.46 325.49,-196.89"/>
</g>
<!-- Node7&#45;&gt;Node1 -->
<g id="edge7" class="edge">
<title>Node7&#45;&gt;Node1</title>
<path fill="none" stroke="midnightblue" d="M309.7,-67.6C291.39,-56.69 266.01,-41.55 247.63,-30.59"/>
<polygon fill="none" stroke="midnightblue" points="307.92,-70.62 318.3,-72.73 311.5,-64.61 307.92,-70.62"/>
</g>
</g>
</svg>
