<?xml version="1.0" encoding="UTF-8" standalone="no"?>
<!DOCTYPE svg PUBLIC "-//W3C//DTD SVG 1.1//EN"
 "http://www.w3.org/Graphics/SVG/1.1/DTD/svg11.dtd">
<!-- Generated by graphviz version 2.43.0 (0)
 -->
<!-- Title: net::rf::stream::legacy::ServerConfig Pages: 1 -->
<svg width="514pt" height="775pt"
 viewBox="0.00 0.00 514.00 775.00" xmlns="http://www.w3.org/2000/svg" xmlns:xlink="http://www.w3.org/1999/xlink">
<g id="graph0" class="graph" transform="scale(1 1) rotate(0) translate(4 771)">
<title>net::rf::stream::legacy::ServerConfig</title>
<polygon fill="white" stroke="transparent" points="-4,4 -4,-771 510,-771 510,4 -4,4"/>
<!-- Node1 -->
<g id="node1" class="node">
<title>Node1</title>
<g id="a_node1"><a xlink:title=" ">
<polygon fill="#bfbfbf" stroke="black" points="217,-0.5 217,-68.5 341,-68.5 341,-0.5 217,-0.5"/>
<text text-anchor="start" x="225" y="-56.5" font-family="Helvetica,sans-Serif" font-size="10.00">net::rf::stream::legacy</text>
<text text-anchor="middle" x="279" y="-45.5" font-family="Helvetica,sans-Serif" font-size="10.00">::ServerConfig</text>
<polyline fill="none" stroke="black" points="217,-38.5 341,-38.5 "/>
<text text-anchor="middle" x="279" y="-26.5" font-family="Helvetica,sans-Serif" font-size="10.00"> </text>
<polyline fill="none" stroke="black" points="217,-19.5 341,-19.5 "/>
<text text-anchor="start" x="225" y="-7.5" font-family="Helvetica,sans-Serif" font-size="10.00">+ ServerConfig()</text>
</a>
</g>
</g>
<!-- Node2 -->
<g id="node2" class="node">
<title>Node2</title>
<g id="a_node2"><a xlink:href="classnet_1_1rf_1_1stream_1_1_server_config.html" target="_top" xlink:title=" ">
<polygon fill="white" stroke="black" points="127.5,-106.5 127.5,-163.5 282.5,-163.5 282.5,-106.5 127.5,-106.5"/>
<text text-anchor="middle" x="205" y="-151.5" font-family="Helvetica,sans-Serif" font-size="10.00">net::rf::stream::ServerConfig</text>
<polyline fill="none" stroke="black" points="127.5,-144.5 282.5,-144.5 "/>
<text text-anchor="middle" x="205" y="-132.5" font-family="Helvetica,sans-Serif" font-size="10.00"> </text>
<polyline fill="none" stroke="black" points="127.5,-125.5 282.5,-125.5 "/>
<text text-anchor="start" x="135.5" y="-113.5" font-family="Helvetica,sans-Serif" font-size="10.00">+ ServerConfig()</text>
</a>
</g>
</g>
<!-- Node2&#45;&gt;Node1 -->
<g id="edge1" class="edge">
<title>Node2&#45;&gt;Node1</title>
<path fill="none" stroke="midnightblue" d="M232,-98.06C239.24,-88.42 247.03,-78.05 254.15,-68.58"/>
<polygon fill="none" stroke="midnightblue" points="229.02,-96.2 225.81,-106.3 234.61,-100.41 229.02,-96.2"/>
</g>
<!-- Node3 -->
<g id="node3" class="node">
<title>Node3</title>
<g id="a_node3"><a xlink:href="classnet_1_1_config_base.html" target="_top" xlink:title=" ">
<polygon fill="white" stroke="black" points="0,-273 0,-363 94,-363 94,-273 0,-273"/>
<text text-anchor="middle" x="47" y="-351" font-family="Helvetica,sans-Serif" font-size="10.00">net::ConfigBase</text>
<polyline fill="none" stroke="black" points="0,-344 94,-344 "/>
<text text-anchor="start" x="8" y="-332" font-family="Helvetica,sans-Serif" font-size="10.00"># baseSc</text>
<text text-anchor="start" x="8" y="-321" font-family="Helvetica,sans-Serif" font-size="10.00">&#45; name</text>
<polyline fill="none" stroke="black" points="0,-314 94,-314 "/>
<text text-anchor="start" x="8" y="-302" font-family="Helvetica,sans-Serif" font-size="10.00">+ ConfigBase()</text>
<text text-anchor="start" x="8" y="-291" font-family="Helvetica,sans-Serif" font-size="10.00">+ getName()</text>
<text text-anchor="start" x="8" y="-280" font-family="Helvetica,sans-Serif" font-size="10.00">+ parse()</text>
</a>
</g>
</g>
<!-- Node3&#45;&gt;Node2 -->
<g id="edge2" class="edge">
<title>Node3&#45;&gt;Node2</title>
<path fill="none" stroke="midnightblue" d="M65.54,-263.34C74.59,-242.31 87.02,-218.97 103,-201 116.04,-186.33 133.16,-173.7 149.65,-163.58"/>
<polygon fill="none" stroke="midnightblue" points="62.21,-262.24 61.62,-272.81 68.68,-264.91 62.21,-262.24"/>
</g>
<!-- Node4 -->
<g id="node4" class="node">
<title>Node4</title>
<g id="a_node4"><a xlink:href="classnet_1_1_config_backlog.html" target="_top" xlink:title=" ">
<polygon fill="white" stroke="black" points="112.5,-262 112.5,-374 221.5,-374 221.5,-262 112.5,-262"/>
<text text-anchor="middle" x="167" y="-362" font-family="Helvetica,sans-Serif" font-size="10.00">net::ConfigBacklog</text>
<polyline fill="none" stroke="black" points="112.5,-355 221.5,-355 "/>
<text text-anchor="start" x="120.5" y="-343" font-family="Helvetica,sans-Serif" font-size="10.00">&#45; backlogOpt</text>
<text text-anchor="start" x="120.5" y="-332" font-family="Helvetica,sans-Serif" font-size="10.00">&#45; initBacklog</text>
<text text-anchor="start" x="120.5" y="-321" font-family="Helvetica,sans-Serif" font-size="10.00">&#45; backlog</text>
<text text-anchor="start" x="120.5" y="-310" font-family="Helvetica,sans-Serif" font-size="10.00">&#45; initialized</text>
<polyline fill="none" stroke="black" points="112.5,-303 221.5,-303 "/>
<text text-anchor="start" x="120.5" y="-291" font-family="Helvetica,sans-Serif" font-size="10.00">+ ConfigBacklog()</text>
<text text-anchor="start" x="120.5" y="-280" font-family="Helvetica,sans-Serif" font-size="10.00">+ getBacklog()</text>
<text text-anchor="start" x="120.5" y="-269" font-family="Helvetica,sans-Serif" font-size="10.00">+ setBacklog()</text>
</a>
</g>
</g>
<!-- Node4&#45;&gt;Node2 -->
<g id="edge3" class="edge">
<title>Node4&#45;&gt;Node2</title>
<path fill="none" stroke="midnightblue" d="M180.72,-251.63C187.08,-221.37 194.28,-187.05 199.18,-163.71"/>
<polygon fill="none" stroke="midnightblue" points="177.24,-251.2 178.61,-261.71 184.09,-252.64 177.24,-251.2"/>
</g>
<!-- Node5 -->
<g id="node5" class="node">
<title>Node5</title>
<g id="a_node5"><a xlink:href="classnet_1_1rf_1_1_config_local.html" target="_top" xlink:title=" ">
<polygon fill="white" stroke="black" points="240,-256.5 240,-379.5 348,-379.5 348,-256.5 240,-256.5"/>
<text text-anchor="middle" x="294" y="-367.5" font-family="Helvetica,sans-Serif" font-size="10.00">net::rf::ConfigLocal</text>
<polyline fill="none" stroke="black" points="240,-360.5 348,-360.5 "/>
<text text-anchor="start" x="248" y="-348.5" font-family="Helvetica,sans-Serif" font-size="10.00"># bindSc</text>
<text text-anchor="start" x="248" y="-337.5" font-family="Helvetica,sans-Serif" font-size="10.00"># bindHostOpt</text>
<text text-anchor="start" x="248" y="-326.5" font-family="Helvetica,sans-Serif" font-size="10.00"># bindChannelOpt</text>
<text text-anchor="start" x="248" y="-315.5" font-family="Helvetica,sans-Serif" font-size="10.00">&#45; bindHost</text>
<text text-anchor="start" x="248" y="-304.5" font-family="Helvetica,sans-Serif" font-size="10.00">&#45; bindChannel</text>
<polyline fill="none" stroke="black" points="240,-297.5 348,-297.5 "/>
<text text-anchor="start" x="248" y="-285.5" font-family="Helvetica,sans-Serif" font-size="10.00">+ ConfigLocal()</text>
<text text-anchor="start" x="248" y="-274.5" font-family="Helvetica,sans-Serif" font-size="10.00"># required()</text>
<text text-anchor="start" x="248" y="-263.5" font-family="Helvetica,sans-Serif" font-size="10.00">&#45; getAddress()</text>
</a>
</g>
</g>
<!-- Node5&#45;&gt;Node2 -->
<g id="edge4" class="edge">
<title>Node5&#45;&gt;Node2</title>
<path fill="none" stroke="midnightblue" d="M259.64,-247.13C245.29,-217.94 229.46,-185.74 218.54,-163.54"/>
<polygon fill="none" stroke="midnightblue" points="256.69,-249.05 264.24,-256.48 262.97,-245.96 256.69,-249.05"/>
</g>
<!-- Node6 -->
<g id="node6" class="node">
<title>Node6</title>
<g id="a_node6"><a xlink:href="classnet_1_1_config_local.html" target="_top" xlink:title=" ">
<polygon fill="white" stroke="black" points="224.5,-472.5 224.5,-595.5 363.5,-595.5 363.5,-472.5 224.5,-472.5"/>
<text text-anchor="start" x="232.5" y="-583.5" font-family="Helvetica,sans-Serif" font-size="10.00">net::ConfigLocal&lt; Socket</text>
<text text-anchor="middle" x="294" y="-572.5" font-family="Helvetica,sans-Serif" font-size="10.00">Address &gt;</text>
<polyline fill="none" stroke="black" points="224.5,-565.5 363.5,-565.5 "/>
<text text-anchor="start" x="232.5" y="-553.5" font-family="Helvetica,sans-Serif" font-size="10.00">&#45; localAddress</text>
<text text-anchor="start" x="232.5" y="-542.5" font-family="Helvetica,sans-Serif" font-size="10.00">&#45; initialized</text>
<polyline fill="none" stroke="black" points="224.5,-535.5 363.5,-535.5 "/>
<text text-anchor="start" x="232.5" y="-523.5" font-family="Helvetica,sans-Serif" font-size="10.00">+ getLocalAddress()</text>
<text text-anchor="start" x="232.5" y="-512.5" font-family="Helvetica,sans-Serif" font-size="10.00">+ setLocalAddress()</text>
<text text-anchor="start" x="232.5" y="-501.5" font-family="Helvetica,sans-Serif" font-size="10.00"># ConfigLocal()</text>
<text text-anchor="start" x="232.5" y="-490.5" font-family="Helvetica,sans-Serif" font-size="10.00"># ~ConfigLocal()</text>
<text text-anchor="start" x="232.5" y="-479.5" font-family="Helvetica,sans-Serif" font-size="10.00">&#45; getAddress()</text>
</a>
</g>
</g>
<!-- Node6&#45;&gt;Node5 -->
<g id="edge5" class="edge">
<title>Node6&#45;&gt;Node5</title>
<path fill="none" stroke="midnightblue" d="M294,-462.18C294,-435.43 294,-405.26 294,-379.53"/>
<polygon fill="none" stroke="midnightblue" points="290.5,-462.25 294,-472.25 297.5,-462.25 290.5,-462.25"/>
</g>
<!-- Node7 -->
<g id="node7" class="node">
<title>Node7</title>
<g id="a_node7"><a xlink:href="classnet_1_1_config_local.html" target="_top" xlink:title=" ">
<polygon fill="white" stroke="black" points="224.5,-643.5 224.5,-766.5 363.5,-766.5 363.5,-643.5 224.5,-643.5"/>
<text text-anchor="start" x="232.5" y="-754.5" font-family="Helvetica,sans-Serif" font-size="10.00">net::ConfigLocal&lt; Socket</text>
<text text-anchor="middle" x="294" y="-743.5" font-family="Helvetica,sans-Serif" font-size="10.00">AddressT &gt;</text>
<polyline fill="none" stroke="black" points="224.5,-736.5 363.5,-736.5 "/>
<text text-anchor="start" x="232.5" y="-724.5" font-family="Helvetica,sans-Serif" font-size="10.00">&#45; localAddress</text>
<text text-anchor="start" x="232.5" y="-713.5" font-family="Helvetica,sans-Serif" font-size="10.00">&#45; initialized</text>
<polyline fill="none" stroke="black" points="224.5,-706.5 363.5,-706.5 "/>
<text text-anchor="start" x="232.5" y="-694.5" font-family="Helvetica,sans-Serif" font-size="10.00">+ getLocalAddress()</text>
<text text-anchor="start" x="232.5" y="-683.5" font-family="Helvetica,sans-Serif" font-size="10.00">+ setLocalAddress()</text>
<text text-anchor="start" x="232.5" y="-672.5" font-family="Helvetica,sans-Serif" font-size="10.00"># ConfigLocal()</text>
<text text-anchor="start" x="232.5" y="-661.5" font-family="Helvetica,sans-Serif" font-size="10.00"># ~ConfigLocal()</text>
<text text-anchor="start" x="232.5" y="-650.5" font-family="Helvetica,sans-Serif" font-size="10.00">&#45; getAddress()</text>
</a>
</g>
</g>
<!-- Node7&#45;&gt;Node6 -->
<g id="edge6" class="edge">
<title>Node7&#45;&gt;Node6</title>
<path fill="none" stroke="orange" d="M294,-633.13C294,-620.68 294,-607.82 294,-595.68"/>
<polygon fill="orange" stroke="orange" points="290.5,-633.46 294,-643.46 297.5,-633.46 290.5,-633.46"/>
<text text-anchor="middle" x="342.5" y="-617" font-family="Helvetica,sans-Serif" font-size="10.00"> &lt; SocketAddress &gt;</text>
</g>
<!-- Node8 -->
<g id="node8" class="node">
<title>Node8</title>
<g id="a_node8"><a xlink:href="classnet_1_1_config_conn.html" target="_top" xlink:title=" ">
<polygon fill="white" stroke="black" points="366,-201.5 366,-434.5 506,-434.5 506,-201.5 366,-201.5"/>
<text text-anchor="middle" x="436" y="-422.5" font-family="Helvetica,sans-Serif" font-size="10.00">net::ConfigConn</text>
<polyline fill="none" stroke="black" points="366,-415.5 506,-415.5 "/>
<text text-anchor="start" x="374" y="-403.5" font-family="Helvetica,sans-Serif" font-size="10.00">&#45; connectionSc</text>
<text text-anchor="start" x="374" y="-392.5" font-family="Helvetica,sans-Serif" font-size="10.00">&#45; readTimeoutOpt</text>
<text text-anchor="start" x="374" y="-381.5" font-family="Helvetica,sans-Serif" font-size="10.00">&#45; writeTimeoutOpt</text>
<text text-anchor="start" x="374" y="-370.5" font-family="Helvetica,sans-Serif" font-size="10.00">&#45; readBlockSizeOpt</text>
<text text-anchor="start" x="374" y="-359.5" font-family="Helvetica,sans-Serif" font-size="10.00">&#45; writeBlockSizeOpt</text>
<text text-anchor="start" x="374" y="-348.5" font-family="Helvetica,sans-Serif" font-size="10.00">&#45; terminateTimeoutOpt</text>
<text text-anchor="start" x="374" y="-337.5" font-family="Helvetica,sans-Serif" font-size="10.00">&#45; name</text>
<text text-anchor="start" x="374" y="-326.5" font-family="Helvetica,sans-Serif" font-size="10.00">&#45; readTimeout</text>
<text text-anchor="start" x="374" y="-315.5" font-family="Helvetica,sans-Serif" font-size="10.00">&#45; writeTimeout</text>
<text text-anchor="start" x="374" y="-304.5" font-family="Helvetica,sans-Serif" font-size="10.00">&#45; readBlockSize</text>
<text text-anchor="start" x="374" y="-293.5" font-family="Helvetica,sans-Serif" font-size="10.00">&#45; writeBlockSize</text>
<text text-anchor="start" x="374" y="-282.5" font-family="Helvetica,sans-Serif" font-size="10.00">&#45; terminateTimeout</text>
<polyline fill="none" stroke="black" points="366,-275.5 506,-275.5 "/>
<text text-anchor="start" x="374" y="-263.5" font-family="Helvetica,sans-Serif" font-size="10.00">+ ConfigConn()</text>
<text text-anchor="start" x="374" y="-252.5" font-family="Helvetica,sans-Serif" font-size="10.00">+ getReadTimeout()</text>
<text text-anchor="start" x="374" y="-241.5" font-family="Helvetica,sans-Serif" font-size="10.00">+ getWriteTimeout()</text>
<text text-anchor="start" x="374" y="-230.5" font-family="Helvetica,sans-Serif" font-size="10.00">+ getReadBlockSize()</text>
<text text-anchor="start" x="374" y="-219.5" font-family="Helvetica,sans-Serif" font-size="10.00">+ getWriteBlockSize()</text>
<text text-anchor="start" x="374" y="-208.5" font-family="Helvetica,sans-Serif" font-size="10.00">+ getTerminateTimeout()</text>
</a>
</g>
</g>
<!-- Node8&#45;&gt;Node2 -->
<g id="edge7" class="edge">
<title>Node8&#45;&gt;Node2</title>
<path fill="none" stroke="midnightblue" d="M358.13,-201.94C357.75,-201.62 357.38,-201.31 357,-201 344.15,-190.42 311.73,-176.09 280.12,-163.57"/>
<polygon fill="none" stroke="midnightblue" points="356.04,-204.77 365.82,-208.83 360.71,-199.55 356.04,-204.77"/>
</g>
<!-- Node9 -->
<g id="node9" class="node">
<title>Node9</title>
<g id="a_node9"><a xlink:href="classnet_1_1_config_legacy.html" target="_top" xlink:title=" ">
<polygon fill="white" stroke="black" points="301,-106.5 301,-163.5 405,-163.5 405,-106.5 301,-106.5"/>
<text text-anchor="middle" x="353" y="-151.5" font-family="Helvetica,sans-Serif" font-size="10.00">net::ConfigLegacy</text>
<polyline fill="none" stroke="black" points="301,-144.5 405,-144.5 "/>
<text text-anchor="middle" x="353" y="-132.5" font-family="Helvetica,sans-Serif" font-size="10.00"> </text>
<polyline fill="none" stroke="black" points="301,-125.5 405,-125.5 "/>
<text text-anchor="start" x="309" y="-113.5" font-family="Helvetica,sans-Serif" font-size="10.00">+ ConfigLegacy()</text>
</a>
</g>
</g>
<!-- Node9&#45;&gt;Node1 -->
<g id="edge8" class="edge">
<title>Node9&#45;&gt;Node1</title>
<path fill="none" stroke="midnightblue" d="M326,-98.06C318.76,-88.42 310.97,-78.05 303.85,-68.58"/>
<polygon fill="none" stroke="midnightblue" points="323.39,-100.41 332.19,-106.3 328.98,-96.2 323.39,-100.41"/>
</g>
</g>
</svg>
