<?xml version="1.0" encoding="UTF-8" standalone="no"?>
<!DOCTYPE svg PUBLIC "-//W3C//DTD SVG 1.1//EN"
 "http://www.w3.org/Graphics/SVG/1.1/DTD/svg11.dtd">
<!-- Generated by graphviz version 2.43.0 (0)
 -->
<!-- Title: core::eventreceiver::InitAcceptEventReceiver Pages: 1 -->
<svg width="563pt" height="262pt"
 viewBox="0.00 0.00 563.00 262.00" xmlns="http://www.w3.org/2000/svg" xmlns:xlink="http://www.w3.org/1999/xlink">
<g id="graph0" class="graph" transform="scale(1 1) rotate(0) translate(4 258)">
<title>core::eventreceiver::InitAcceptEventReceiver</title>
<polygon fill="white" stroke="transparent" points="-4,4 -4,-258 559,-258 559,4 -4,4"/>
<!-- Node1 -->
<g id="node1" class="node">
<title>Node1</title>
<g id="a_node1"><a xlink:title=" ">
<polygon fill="#bfbfbf" stroke="black" points="206.5,-167.5 206.5,-197.5 348.5,-197.5 348.5,-167.5 206.5,-167.5"/>
<text text-anchor="start" x="214.5" y="-185.5" font-family="Helvetica,sans-Serif" font-size="10.00">core::eventreceiver</text>
<text text-anchor="middle" x="277.5" y="-174.5" font-family="Helvetica,sans-Serif" font-size="10.00">::InitAcceptEventReceiver</text>
</a>
</g>
</g>
<!-- Node3 -->
<g id="node3" class="node">
<title>Node3</title>
<g id="a_node3"><a xlink:href="classcore_1_1socket_1_1stream_1_1_socket_acceptor.html" target="_top" xlink:title=" ">
<polygon fill="white" stroke="black" points="0,-78.5 0,-130.5 173,-130.5 173,-78.5 0,-78.5"/>
<text text-anchor="start" x="8" y="-118.5" font-family="Helvetica,sans-Serif" font-size="10.00">core::socket::stream</text>
<text text-anchor="start" x="8" y="-107.5" font-family="Helvetica,sans-Serif" font-size="10.00">::SocketAcceptor&lt; SocketServer</text>
<text text-anchor="start" x="8" y="-96.5" font-family="Helvetica,sans-Serif" font-size="10.00">T, core::socket::stream::tls</text>
<text text-anchor="middle" x="86.5" y="-85.5" font-family="Helvetica,sans-Serif" font-size="10.00">::SocketConnection &gt;</text>
</a>
</g>
</g>
<!-- Node1&#45;&gt;Node3 -->
<g id="edge2" class="edge">
<title>Node1&#45;&gt;Node3</title>
<path fill="none" stroke="darkgreen" d="M232.54,-163.61C207.81,-153.77 176.74,-141.41 149.62,-130.62"/>
<polygon fill="none" stroke="darkgreen" points="231.44,-166.94 242.02,-167.38 234.02,-160.43 231.44,-166.94"/>
</g>
<!-- Node5 -->
<g id="node5" class="node">
<title>Node5</title>
<g id="a_node5"><a xlink:href="classcore_1_1socket_1_1stream_1_1_socket_acceptor.html" target="_top" xlink:title=" ">
<polygon fill="white" stroke="black" points="191,-78.5 191,-130.5 364,-130.5 364,-78.5 191,-78.5"/>
<text text-anchor="start" x="199" y="-118.5" font-family="Helvetica,sans-Serif" font-size="10.00">core::socket::stream</text>
<text text-anchor="start" x="199" y="-107.5" font-family="Helvetica,sans-Serif" font-size="10.00">::SocketAcceptor&lt; SocketServer</text>
<text text-anchor="start" x="199" y="-96.5" font-family="Helvetica,sans-Serif" font-size="10.00">T, core::socket::stream::legacy</text>
<text text-anchor="middle" x="277.5" y="-85.5" font-family="Helvetica,sans-Serif" font-size="10.00">::SocketConnection &gt;</text>
</a>
</g>
</g>
<!-- Node1&#45;&gt;Node5 -->
<g id="edge4" class="edge">
<title>Node1&#45;&gt;Node5</title>
<path fill="none" stroke="darkgreen" d="M277.5,-157.14C277.5,-148.63 277.5,-139.07 277.5,-130.5"/>
<polygon fill="none" stroke="darkgreen" points="274,-157.2 277.5,-167.2 281,-157.21 274,-157.2"/>
</g>
<!-- Node7 -->
<g id="node7" class="node">
<title>Node7</title>
<g id="a_node7"><a xlink:href="classcore_1_1socket_1_1stream_1_1_socket_acceptor.html" target="_top" xlink:title=" ">
<polygon fill="white" stroke="black" points="382,-84 382,-125 555,-125 555,-84 382,-84"/>
<text text-anchor="start" x="390" y="-113" font-family="Helvetica,sans-Serif" font-size="10.00">core::socket::stream</text>
<text text-anchor="start" x="390" y="-102" font-family="Helvetica,sans-Serif" font-size="10.00">::SocketAcceptor&lt; SocketServer</text>
<text text-anchor="middle" x="468.5" y="-91" font-family="Helvetica,sans-Serif" font-size="10.00">T, SocketConnectionT &gt;</text>
</a>
</g>
</g>
<!-- Node1&#45;&gt;Node7 -->
<g id="edge6" class="edge">
<title>Node1&#45;&gt;Node7</title>
<path fill="none" stroke="darkgreen" d="M322.47,-163.61C351.51,-152.05 389.31,-137.01 419.17,-125.13"/>
<polygon fill="none" stroke="darkgreen" points="320.98,-160.43 312.98,-167.38 323.56,-166.94 320.98,-160.43"/>
</g>
<!-- Node2 -->
<g id="node2" class="node">
<title>Node2</title>
<g id="a_node2"><a xlink:href="classcore_1_1_event_receiver.html" target="_top" xlink:title=" ">
<polygon fill="white" stroke="black" points="220.5,-234.5 220.5,-253.5 334.5,-253.5 334.5,-234.5 220.5,-234.5"/>
<text text-anchor="middle" x="277.5" y="-241.5" font-family="Helvetica,sans-Serif" font-size="10.00">core::EventReceiver</text>
</a>
</g>
</g>
<!-- Node2&#45;&gt;Node1 -->
<g id="edge1" class="edge">
<title>Node2&#45;&gt;Node1</title>
<path fill="none" stroke="darkgreen" d="M277.5,-224.23C277.5,-215.59 277.5,-205.5 277.5,-197.52"/>
<polygon fill="none" stroke="darkgreen" points="274,-224.48 277.5,-234.48 281,-224.48 274,-224.48"/>
</g>
<!-- Node4 -->
<g id="node4" class="node">
<title>Node4</title>
<g id="a_node4"><a xlink:href="classcore_1_1socket_1_1stream_1_1tls_1_1_socket_acceptor.html" target="_top" xlink:title=" ">
<polygon fill="white" stroke="black" points="28.5,-0.5 28.5,-41.5 144.5,-41.5 144.5,-0.5 28.5,-0.5"/>
<text text-anchor="start" x="36.5" y="-29.5" font-family="Helvetica,sans-Serif" font-size="10.00">core::socket::stream</text>
<text text-anchor="start" x="36.5" y="-18.5" font-family="Helvetica,sans-Serif" font-size="10.00">::tls::SocketAcceptor</text>
<text text-anchor="middle" x="86.5" y="-7.5" font-family="Helvetica,sans-Serif" font-size="10.00">&lt; SocketServerT &gt;</text>
</a>
</g>
</g>
<!-- Node3&#45;&gt;Node4 -->
<g id="edge3" class="edge">
<title>Node3&#45;&gt;Node4</title>
<path fill="none" stroke="darkgreen" d="M86.5,-68.15C86.5,-59.05 86.5,-49.6 86.5,-41.63"/>
<polygon fill="none" stroke="darkgreen" points="83,-68.16 86.5,-78.16 90,-68.16 83,-68.16"/>
</g>
<!-- Node6 -->
<g id="node6" class="node">
<title>Node6</title>
<g id="a_node6"><a xlink:href="classcore_1_1socket_1_1stream_1_1legacy_1_1_socket_acceptor.html" target="_top" xlink:title=" ">
<polygon fill="white" stroke="black" points="210,-0.5 210,-41.5 345,-41.5 345,-0.5 210,-0.5"/>
<text text-anchor="start" x="218" y="-29.5" font-family="Helvetica,sans-Serif" font-size="10.00">core::socket::stream</text>
<text text-anchor="start" x="218" y="-18.5" font-family="Helvetica,sans-Serif" font-size="10.00">::legacy::SocketAcceptor</text>
<text text-anchor="middle" x="277.5" y="-7.5" font-family="Helvetica,sans-Serif" font-size="10.00">&lt; SocketServerT &gt;</text>
</a>
</g>
</g>
<!-- Node5&#45;&gt;Node6 -->
<g id="edge5" class="edge">
<title>Node5&#45;&gt;Node6</title>
<path fill="none" stroke="darkgreen" d="M277.5,-68.15C277.5,-59.05 277.5,-49.6 277.5,-41.63"/>
<polygon fill="none" stroke="darkgreen" points="274,-68.16 277.5,-78.16 281,-68.16 274,-68.16"/>
</g>
</g>
</svg>
