<?xml version="1.0" encoding="UTF-8" standalone="no"?>
<!DOCTYPE svg PUBLIC "-//W3C//DTD SVG 1.1//EN"
 "http://www.w3.org/Graphics/SVG/1.1/DTD/svg11.dtd">
<!-- Generated by graphviz version 2.43.0 (0)
 -->
<!-- Title: database::mariadb::commands::sync::MariaDBFieldCountCommand Pages: 1 -->
<svg width="1122pt" height="363pt"
 viewBox="0.00 0.00 1122.00 363.00" xmlns="http://www.w3.org/2000/svg" xmlns:xlink="http://www.w3.org/1999/xlink">
<g id="graph0" class="graph" transform="scale(1 1) rotate(0) translate(4 359)">
<title>database::mariadb::commands::sync::MariaDBFieldCountCommand</title>
<polygon fill="white" stroke="transparent" points="-4,4 -4,-359 1118,-359 1118,4 -4,4"/>
<!-- Node1 -->
<g id="node1" class="node">
<title>Node1</title>
<g id="a_node1"><a xlink:title=" ">
<polygon fill="#bfbfbf" stroke="black" points="0,-0.5 0,-41.5 170,-41.5 170,-0.5 0,-0.5"/>
<text text-anchor="start" x="8" y="-29.5" font-family="Helvetica,sans-Serif" font-size="10.00">database::mariadb::</text>
<text text-anchor="start" x="8" y="-18.5" font-family="Helvetica,sans-Serif" font-size="10.00">commands::sync::MariaDBField</text>
<text text-anchor="middle" x="85" y="-7.5" font-family="Helvetica,sans-Serif" font-size="10.00">CountCommand</text>
</a>
</g>
</g>
<!-- Node2 -->
<g id="node2" class="node">
<title>Node2</title>
<g id="a_node2"><a xlink:href="classdatabase_1_1mariadb_1_1_maria_d_b_command_sync.html" target="_top" xlink:title=" ">
<polygon fill="white" stroke="black" points="19,-89.5 19,-119.5 151,-119.5 151,-89.5 19,-89.5"/>
<text text-anchor="start" x="27" y="-107.5" font-family="Helvetica,sans-Serif" font-size="10.00">database::mariadb::</text>
<text text-anchor="middle" x="85" y="-96.5" font-family="Helvetica,sans-Serif" font-size="10.00">MariaDBCommandSync</text>
</a>
</g>
</g>
<!-- Node2&#45;&gt;Node1 -->
<g id="edge1" class="edge">
<title>Node2&#45;&gt;Node1</title>
<path fill="none" stroke="midnightblue" d="M85,-79.07C85,-67.06 85,-52.79 85,-41.53"/>
<polygon fill="none" stroke="midnightblue" points="81.5,-79.3 85,-89.3 88.5,-79.3 81.5,-79.3"/>
</g>
<!-- Node3 -->
<g id="node3" class="node">
<title>Node3</title>
<g id="a_node3"><a xlink:href="classdatabase_1_1mariadb_1_1_maria_d_b_command.html" target="_top" xlink:title=" ">
<polygon fill="white" stroke="black" points="54,-173 54,-203 168,-203 168,-173 54,-173"/>
<text text-anchor="start" x="62" y="-191" font-family="Helvetica,sans-Serif" font-size="10.00">database::mariadb::</text>
<text text-anchor="middle" x="111" y="-180" font-family="Helvetica,sans-Serif" font-size="10.00">MariaDBCommand</text>
</a>
</g>
</g>
<!-- Node3&#45;&gt;Node2 -->
<g id="edge2" class="edge">
<title>Node3&#45;&gt;Node2</title>
<path fill="none" stroke="midnightblue" d="M103.41,-163.2C98.88,-149.02 93.3,-131.52 89.48,-119.53"/>
<polygon fill="none" stroke="midnightblue" points="100.1,-164.34 106.47,-172.8 106.77,-162.21 100.1,-164.34"/>
</g>
<!-- Node5 -->
<g id="node5" class="node">
<title>Node5</title>
<g id="a_node5"><a xlink:href="classdatabase_1_1mariadb_1_1_maria_d_b_connection.html" target="_top" xlink:title=" ">
<polygon fill="white" stroke="black" points="300,-89.5 300,-119.5 414,-119.5 414,-89.5 300,-89.5"/>
<text text-anchor="start" x="308" y="-107.5" font-family="Helvetica,sans-Serif" font-size="10.00">database::mariadb::</text>
<text text-anchor="middle" x="357" y="-96.5" font-family="Helvetica,sans-Serif" font-size="10.00">MariaDBConnection</text>
</a>
</g>
</g>
<!-- Node3&#45;&gt;Node5 -->
<g id="edge25" class="edge">
<title>Node3&#45;&gt;Node5</title>
<path fill="none" stroke="#404040" d="M107.83,-172.64C106.33,-161.7 106.42,-147.04 115,-138 126.81,-125.55 220.5,-115.85 287.76,-110.4"/>
<polygon fill="none" stroke="#404040" points="288.02,-110.38 293.69,-105.92 299.99,-109.43 294.32,-113.89 288.02,-110.38"/>
<text text-anchor="middle" x="161" y="-141" font-family="Helvetica,sans-Serif" font-size="10.00"> &#45;currentCommand</text>
</g>
<!-- Node4 -->
<g id="node4" class="node">
<title>Node4</title>
<g id="a_node4"><a xlink:href="classutils_1_1_timeval.html" target="_top" xlink:title=" ">
<polygon fill="white" stroke="black" points="119.5,-335.5 119.5,-354.5 202.5,-354.5 202.5,-335.5 119.5,-335.5"/>
<text text-anchor="middle" x="161" y="-342.5" font-family="Helvetica,sans-Serif" font-size="10.00">utils::Timeval</text>
</a>
</g>
</g>
<!-- Node4&#45;&gt;Node3 -->
<g id="edge3" class="edge">
<title>Node4&#45;&gt;Node3</title>
<path fill="none" stroke="#404040" d="M158.17,-335.22C150.81,-312.41 130.85,-250.55 119.4,-215.03"/>
<polygon fill="none" stroke="#404040" points="119.28,-214.67 113.63,-210.19 115.6,-203.25 121.25,-207.73 119.28,-214.67"/>
<text text-anchor="middle" x="165" y="-253.5" font-family="Helvetica,sans-Serif" font-size="10.00"> #startTime</text>
</g>
<!-- Node7 -->
<g id="node7" class="node">
<title>Node7</title>
<g id="a_node7"><a xlink:href="classcore_1_1_descriptor_event_receiver.html" target="_top" xlink:title=" ">
<polygon fill="white" stroke="black" points="319,-246.5 319,-265.5 483,-265.5 483,-246.5 319,-246.5"/>
<text text-anchor="middle" x="401" y="-253.5" font-family="Helvetica,sans-Serif" font-size="10.00">core::DescriptorEventReceiver</text>
</a>
</g>
</g>
<!-- Node4&#45;&gt;Node7 -->
<g id="edge11" class="edge">
<title>Node4&#45;&gt;Node7</title>
<path fill="none" stroke="#404040" d="M168.94,-335.4C181.82,-322.02 208.7,-296.49 237,-284 258.58,-274.47 283.1,-268.28 306.49,-264.26"/>
<polygon fill="none" stroke="#404040" points="306.73,-264.22 312.04,-259.33 318.59,-262.35 313.29,-267.23 306.73,-264.22"/>
<text text-anchor="middle" x="274.5" y="-309" font-family="Helvetica,sans-Serif" font-size="10.00"> &#45;initialTimeout</text>
<text text-anchor="middle" x="274.5" y="-298" font-family="Helvetica,sans-Serif" font-size="10.00">&#45;lastTriggered</text>
<text text-anchor="middle" x="274.5" y="-287" font-family="Helvetica,sans-Serif" font-size="10.00">&#45;maxInactivity</text>
</g>
<!-- Node5&#45;&gt;Node3 -->
<g id="edge4" class="edge">
<title>Node5&#45;&gt;Node3</title>
<path fill="none" stroke="#404040" d="M299.98,-116.58C277.71,-121.81 252.23,-128.92 230,-138 220.97,-141.69 219.81,-144.81 211,-149 196.03,-156.12 179.35,-162.89 163.96,-168.7"/>
<polygon fill="none" stroke="#404040" points="163.75,-168.77 159.51,-174.61 152.5,-172.94 156.74,-167.1 163.75,-168.77"/>
<text text-anchor="middle" x="284.5" y="-141" font-family="Helvetica,sans-Serif" font-size="10.00"> #mariaDBConnection</text>
</g>
<!-- Node14 -->
<g id="node14" class="node">
<title>Node14</title>
<g id="a_node14"><a xlink:href="classdatabase_1_1mariadb_1_1_maria_d_b_command_start_event.html" target="_top" xlink:title=" ">
<polygon fill="white" stroke="black" points="210,-6 210,-36 370,-36 370,-6 210,-6"/>
<text text-anchor="start" x="218" y="-24" font-family="Helvetica,sans-Serif" font-size="10.00">database::mariadb::</text>
<text text-anchor="middle" x="290" y="-13" font-family="Helvetica,sans-Serif" font-size="10.00">MariaDBCommandStartEvent</text>
</a>
</g>
</g>
<!-- Node5&#45;&gt;Node14 -->
<g id="edge19" class="edge">
<title>Node5&#45;&gt;Node14</title>
<path fill="none" stroke="#404040" d="M299.99,-100.89C253.6,-97.43 193.38,-89.43 178,-71 164.91,-55.32 177.49,-44.51 198.28,-37.11"/>
<polygon fill="none" stroke="#404040" points="198.35,-37.09 202.9,-31.5 209.81,-33.55 205.26,-39.15 198.35,-37.09"/>
<text text-anchor="middle" x="230.5" y="-63" font-family="Helvetica,sans-Serif" font-size="10.00"> &#45;mariaDBConnection</text>
</g>
<!-- Node15 -->
<g id="node15" class="node">
<title>Node15</title>
<g id="a_node15"><a xlink:href="classdatabase_1_1mariadb_1_1_maria_d_b_client.html" target="_top" xlink:title=" ">
<polygon fill="white" stroke="black" points="680,-6 680,-36 794,-36 794,-6 680,-6"/>
<text text-anchor="start" x="688" y="-24" font-family="Helvetica,sans-Serif" font-size="10.00">database::mariadb::</text>
<text text-anchor="middle" x="737" y="-13" font-family="Helvetica,sans-Serif" font-size="10.00">MariaDBClient</text>
</a>
</g>
</g>
<!-- Node5&#45;&gt;Node15 -->
<g id="edge24" class="edge">
<title>Node5&#45;&gt;Node15</title>
<path fill="none" stroke="#404040" d="M374.44,-89.33C388.7,-78.04 407.95,-63.54 417,-60 461.2,-42.72 587.38,-31.65 667.46,-26.15"/>
<polygon fill="none" stroke="#404040" points="667.92,-26.12 673.64,-21.73 679.89,-25.32 674.17,-29.71 667.92,-26.12"/>
<text text-anchor="middle" x="469.5" y="-63" font-family="Helvetica,sans-Serif" font-size="10.00"> &#45;mariaDBConnection</text>
</g>
<!-- Node6 -->
<g id="node6" class="node">
<title>Node6</title>
<g id="a_node6"><a xlink:href="classcore_1_1eventreceiver_1_1_read_event_receiver.html" target="_top" xlink:title=" ">
<polygon fill="white" stroke="black" points="496,-173 496,-203 614,-203 614,-173 496,-173"/>
<text text-anchor="start" x="504" y="-191" font-family="Helvetica,sans-Serif" font-size="10.00">core::eventreceiver</text>
<text text-anchor="middle" x="555" y="-180" font-family="Helvetica,sans-Serif" font-size="10.00">::ReadEventReceiver</text>
</a>
</g>
</g>
<!-- Node6&#45;&gt;Node5 -->
<g id="edge5" class="edge">
<title>Node6&#45;&gt;Node5</title>
<path fill="none" stroke="#8b1a1a" d="M511.64,-169.15C475.47,-154.26 424.62,-133.34 391.26,-119.6"/>
<polygon fill="none" stroke="#8b1a1a" points="510.38,-172.42 520.96,-172.99 513.05,-165.95 510.38,-172.42"/>
</g>
<!-- Node7&#45;&gt;Node6 -->
<g id="edge6" class="edge">
<title>Node7&#45;&gt;Node6</title>
<path fill="none" stroke="midnightblue" d="M430.55,-242.34C456.77,-231.1 495.04,-214.7 522.2,-203.06"/>
<polygon fill="none" stroke="midnightblue" points="428.95,-239.22 421.13,-246.37 431.7,-245.65 428.95,-239.22"/>
</g>
<!-- Node12 -->
<g id="node12" class="node">
<title>Node12</title>
<g id="a_node12"><a xlink:href="classcore_1_1eventreceiver_1_1_write_event_receiver.html" target="_top" xlink:title=" ">
<polygon fill="white" stroke="black" points="186.5,-173 186.5,-203 305.5,-203 305.5,-173 186.5,-173"/>
<text text-anchor="start" x="194.5" y="-191" font-family="Helvetica,sans-Serif" font-size="10.00">core::eventreceiver</text>
<text text-anchor="middle" x="246" y="-180" font-family="Helvetica,sans-Serif" font-size="10.00">::WriteEventReceiver</text>
</a>
</g>
</g>
<!-- Node7&#45;&gt;Node12 -->
<g id="edge14" class="edge">
<title>Node7&#45;&gt;Node12</title>
<path fill="none" stroke="midnightblue" d="M371.26,-242.34C344.87,-231.1 306.35,-214.7 279.01,-203.06"/>
<polygon fill="none" stroke="midnightblue" points="370.16,-245.67 380.74,-246.37 372.91,-239.23 370.16,-245.67"/>
</g>
<!-- Node13 -->
<g id="node13" class="node">
<title>Node13</title>
<g id="a_node13"><a xlink:href="classcore_1_1eventreceiver_1_1_exceptional_condition_event_receiver.html" target="_top" xlink:title=" ">
<polygon fill="white" stroke="black" points="324,-167.5 324,-208.5 478,-208.5 478,-167.5 324,-167.5"/>
<text text-anchor="start" x="332" y="-196.5" font-family="Helvetica,sans-Serif" font-size="10.00">core::eventreceiver</text>
<text text-anchor="start" x="332" y="-185.5" font-family="Helvetica,sans-Serif" font-size="10.00">::ExceptionalConditionEvent</text>
<text text-anchor="middle" x="401" y="-174.5" font-family="Helvetica,sans-Serif" font-size="10.00">Receiver</text>
</a>
</g>
</g>
<!-- Node7&#45;&gt;Node13 -->
<g id="edge16" class="edge">
<title>Node7&#45;&gt;Node13</title>
<path fill="none" stroke="midnightblue" d="M401,-236.25C401,-227.65 401,-217.45 401,-208.74"/>
<polygon fill="none" stroke="midnightblue" points="397.5,-236.37 401,-246.37 404.5,-236.37 397.5,-236.37"/>
</g>
<!-- Node8 -->
<g id="node8" class="node">
<title>Node8</title>
<g id="a_node8"><a xlink:href="classcore_1_1_observer.html" target="_top" xlink:title=" ">
<polygon fill="white" stroke="black" points="230,-335.5 230,-354.5 318,-354.5 318,-335.5 230,-335.5"/>
<text text-anchor="middle" x="274" y="-342.5" font-family="Helvetica,sans-Serif" font-size="10.00">core::Observer</text>
</a>
</g>
</g>
<!-- Node8&#45;&gt;Node7 -->
<g id="edge7" class="edge">
<title>Node8&#45;&gt;Node7</title>
<path fill="none" stroke="midnightblue" d="M295.24,-329.45C321.87,-311.21 366.67,-280.52 388.41,-265.62"/>
<polygon fill="none" stroke="midnightblue" points="292.91,-326.8 286.64,-335.34 296.87,-332.58 292.91,-326.8"/>
</g>
<!-- Node9 -->
<g id="node9" class="node">
<title>Node9</title>
<g id="a_node9"><a xlink:href="classcore_1_1_event_receiver.html" target="_top" xlink:title=" ">
<polygon fill="white" stroke="black" points="602,-335.5 602,-354.5 716,-354.5 716,-335.5 602,-335.5"/>
<text text-anchor="middle" x="659" y="-342.5" font-family="Helvetica,sans-Serif" font-size="10.00">core::EventReceiver</text>
</a>
</g>
</g>
<!-- Node9&#45;&gt;Node7 -->
<g id="edge8" class="edge">
<title>Node9&#45;&gt;Node7</title>
<path fill="none" stroke="midnightblue" d="M637.66,-329.98C615.78,-316.23 580.33,-295.69 547,-284 523.04,-275.6 495.9,-269.66 471.58,-265.54"/>
<polygon fill="none" stroke="midnightblue" points="635.85,-332.97 646.16,-335.41 639.62,-327.07 635.85,-332.97"/>
</g>
<!-- Node10 -->
<g id="node10" class="node">
<title>Node10</title>
<g id="a_node10"><a xlink:href="classcore_1_1_event.html" target="_top" xlink:title=" ">
<polygon fill="white" stroke="black" points="705.5,-246.5 705.5,-265.5 776.5,-265.5 776.5,-246.5 705.5,-246.5"/>
<text text-anchor="middle" x="741" y="-253.5" font-family="Helvetica,sans-Serif" font-size="10.00">core::Event</text>
</a>
</g>
</g>
<!-- Node9&#45;&gt;Node10 -->
<g id="edge10" class="edge">
<title>Node9&#45;&gt;Node10</title>
<path fill="none" stroke="#404040" d="M658.47,-335.14C658.19,-322.33 659.56,-298.6 672,-284 677.85,-277.13 685.67,-272 693.95,-268.17"/>
<polygon fill="none" stroke="#404040" points="694.19,-268.08 698.33,-262.17 705.37,-263.71 701.24,-269.62 694.19,-268.08"/>
<text text-anchor="middle" x="711" y="-298" font-family="Helvetica,sans-Serif" font-size="10.00"> &#45;eventReceiver</text>
</g>
<!-- Node9&#45;&gt;Node14 -->
<g id="edge18" class="edge">
<title>Node9&#45;&gt;Node14</title>
<path fill="none" stroke="#8b1a1a" d="M653.23,-325.49C648.3,-308.01 642,-280.99 642,-257 642,-257 642,-257 642,-103.5 642,-83.19 643.72,-72.86 628,-60 589.84,-28.78 457.63,-22.12 370.31,-21.26"/>
<polygon fill="none" stroke="#8b1a1a" points="649.99,-326.87 656.19,-335.46 656.7,-324.88 649.99,-326.87"/>
</g>
<!-- Node10&#45;&gt;Node9 -->
<g id="edge9" class="edge">
<title>Node10&#45;&gt;Node9</title>
<path fill="none" stroke="#404040" d="M746.81,-265.68C754.44,-278.25 765.56,-301.69 754,-317 747.32,-325.84 737.96,-331.94 727.7,-336.12"/>
<polygon fill="none" stroke="#404040" points="727.67,-336.13 723.25,-341.82 716.29,-339.93 720.71,-334.24 727.67,-336.13"/>
<text text-anchor="middle" x="780.5" y="-298" font-family="Helvetica,sans-Serif" font-size="10.00"> #_event</text>
</g>
<!-- Node11 -->
<g id="node11" class="node">
<title>Node11</title>
<g id="a_node11"><a xlink:href="classcore_1_1_descriptor_event_publisher.html" target="_top" xlink:title=" ">
<polygon fill="white" stroke="black" points="335.5,-335.5 335.5,-354.5 502.5,-354.5 502.5,-335.5 335.5,-335.5"/>
<text text-anchor="middle" x="419" y="-342.5" font-family="Helvetica,sans-Serif" font-size="10.00">core::DescriptorEventPublisher</text>
</a>
</g>
</g>
<!-- Node11&#45;&gt;Node7 -->
<g id="edge12" class="edge">
<title>Node11&#45;&gt;Node7</title>
<path fill="none" stroke="#404040" d="M417.21,-335.34C414.45,-321.99 409.07,-295.99 405.26,-277.61"/>
<polygon fill="none" stroke="#404040" points="405.22,-277.38 400.08,-272.31 402.78,-265.62 407.92,-270.69 405.22,-277.38"/>
<text text-anchor="middle" x="478.5" y="-298" font-family="Helvetica,sans-Serif" font-size="10.00"> &#45;descriptorEventPublisher</text>
</g>
<!-- Node12&#45;&gt;Node5 -->
<g id="edge13" class="edge">
<title>Node12&#45;&gt;Node5</title>
<path fill="none" stroke="#8b1a1a" d="M302.61,-169.44C320.25,-163.01 336.73,-155.67 343,-149 350.5,-141.02 353.98,-129 355.6,-119.62"/>
<polygon fill="none" stroke="#8b1a1a" points="301.02,-166.29 292.75,-172.92 303.34,-172.9 301.02,-166.29"/>
</g>
<!-- Node13&#45;&gt;Node5 -->
<g id="edge15" class="edge">
<title>Node13&#45;&gt;Node5</title>
<path fill="none" stroke="#8b1a1a" d="M385.44,-158.17C378.39,-145.12 370.38,-130.28 364.66,-119.68"/>
<polygon fill="none" stroke="#8b1a1a" points="382.52,-160.13 390.35,-167.27 388.68,-156.81 382.52,-160.13"/>
</g>
<!-- Node14&#45;&gt;Node5 -->
<g id="edge17" class="edge">
<title>Node14&#45;&gt;Node5</title>
<path fill="none" stroke="#404040" d="M286.56,-36.43C284.91,-46.85 284.51,-60.81 291,-71 293.82,-75.42 297.43,-79.27 301.5,-82.6"/>
<polygon fill="none" stroke="#404040" points="301.76,-82.77 308.97,-82.81 311.71,-89.48 304.5,-89.44 301.76,-82.77"/>
<text text-anchor="middle" x="344.5" y="-63" font-family="Helvetica,sans-Serif" font-size="10.00"> &#45;commandStartEvent</text>
</g>
<!-- Node15&#45;&gt;Node5 -->
<g id="edge20" class="edge">
<title>Node15&#45;&gt;Node5</title>
<path fill="none" stroke="#404040" d="M679.82,-35.9C637.45,-46.05 578.24,-59.92 526,-71 493.23,-77.95 456.75,-85.05 426.09,-90.83"/>
<polygon fill="none" stroke="#404040" points="426.01,-90.85 420.85,-95.88 414.21,-93.06 419.37,-88.02 426.01,-90.85"/>
<text text-anchor="middle" x="612.5" y="-63" font-family="Helvetica,sans-Serif" font-size="10.00"> &#45;mariaDBClient</text>
</g>
<!-- Node16 -->
<g id="node16" class="node">
<title>Node16</title>
<g id="a_node16"><a xlink:href="classdatabase_1_1mariadb_1_1_maria_d_b_client_a_sync_a_p_i.html" target="_top" xlink:title=" ">
<polygon fill="white" stroke="black" points="670.5,-89.5 670.5,-119.5 803.5,-119.5 803.5,-89.5 670.5,-89.5"/>
<text text-anchor="start" x="678.5" y="-107.5" font-family="Helvetica,sans-Serif" font-size="10.00">database::mariadb::</text>
<text text-anchor="middle" x="737" y="-96.5" font-family="Helvetica,sans-Serif" font-size="10.00">MariaDBClientASyncAPI</text>
</a>
</g>
</g>
<!-- Node16&#45;&gt;Node15 -->
<g id="edge21" class="edge">
<title>Node16&#45;&gt;Node15</title>
<path fill="none" stroke="midnightblue" d="M737,-79.28C737,-65.18 737,-47.9 737,-36.03"/>
<polygon fill="none" stroke="midnightblue" points="733.5,-79.3 737,-89.3 740.5,-79.3 733.5,-79.3"/>
</g>
<!-- Node17 -->
<g id="node17" class="node">
<title>Node17</title>
<g id="a_node17"><a xlink:href="classdatabase_1_1mariadb_1_1_maria_d_b_client_sync_a_p_i.html" target="_top" xlink:title=" ">
<polygon fill="white" stroke="black" points="822,-89.5 822,-119.5 948,-119.5 948,-89.5 822,-89.5"/>
<text text-anchor="start" x="830" y="-107.5" font-family="Helvetica,sans-Serif" font-size="10.00">database::mariadb::</text>
<text text-anchor="middle" x="885" y="-96.5" font-family="Helvetica,sans-Serif" font-size="10.00">MariaDBClientSyncAPI</text>
</a>
</g>
</g>
<!-- Node17&#45;&gt;Node15 -->
<g id="edge22" class="edge">
<title>Node17&#45;&gt;Node15</title>
<path fill="none" stroke="midnightblue" d="M850.5,-84.5C823.62,-69.7 786.91,-49.48 762.61,-36.1"/>
<polygon fill="none" stroke="midnightblue" points="849.11,-87.73 859.56,-89.49 852.49,-81.6 849.11,-87.73"/>
</g>
<!-- Node18 -->
<g id="node18" class="node">
<title>Node18</title>
<g id="a_node18"><a xlink:href="structdatabase_1_1mariadb_1_1_maria_d_b_connection_details.html" target="_top" xlink:title=" ">
<polygon fill="white" stroke="black" points="966,-89.5 966,-119.5 1114,-119.5 1114,-89.5 966,-89.5"/>
<text text-anchor="start" x="974" y="-107.5" font-family="Helvetica,sans-Serif" font-size="10.00">database::mariadb::</text>
<text text-anchor="middle" x="1040" y="-96.5" font-family="Helvetica,sans-Serif" font-size="10.00">MariaDBConnectionDetails</text>
</a>
</g>
</g>
<!-- Node18&#45;&gt;Node15 -->
<g id="edge23" class="edge">
<title>Node18&#45;&gt;Node15</title>
<path fill="none" stroke="#404040" d="M987.91,-89.49C936.13,-75.56 856.6,-54.17 801,-39.21"/>
<polygon fill="none" stroke="#404040" points="800.76,-39.15 793.92,-41.45 789.17,-36.03 796,-33.73 800.76,-39.15"/>
<text text-anchor="middle" x="935" y="-63" font-family="Helvetica,sans-Serif" font-size="10.00"> &#45;details</text>
</g>
</g>
</svg>
