<?xml version="1.0" encoding="UTF-8" standalone="no"?>
<!DOCTYPE svg PUBLIC "-//W3C//DTD SVG 1.1//EN"
 "http://www.w3.org/Graphics/SVG/1.1/DTD/svg11.dtd">
<!-- Generated by graphviz version 2.43.0 (0)
 -->
<!-- Title: CLI::OptionBase::configurable Pages: 1 -->
<svg width="807pt" height="317pt"
 viewBox="0.00 0.00 807.00 317.00" xmlns="http://www.w3.org/2000/svg" xmlns:xlink="http://www.w3.org/1999/xlink">
<g id="graph0" class="graph" transform="scale(1 1) rotate(0) translate(4 313)">
<title>CLI::OptionBase::configurable</title>
<polygon fill="white" stroke="transparent" points="-4,4 -4,-313 803,-313 803,4 -4,4"/>
<!-- Node1 -->
<g id="node1" class="node">
<title>Node1</title>
<g id="a_node1"><a xlink:title="Allow in a configuration file.">
<polygon fill="#bfbfbf" stroke="black" points="638,-145 638,-164 799,-164 799,-145 638,-145"/>
<text text-anchor="middle" x="718.5" y="-152" font-family="Helvetica,sans-Serif" font-size="10.00">CLI::OptionBase::configurable</text>
</a>
</g>
</g>
<!-- Node2 -->
<g id="node2" class="node">
<title>Node2</title>
<g id="a_node2"><a xlink:href="classnet_1_1_config.html#ab7489ac26f8e11eed9627f758ce4b1fc" target="_top" xlink:title=" ">
<polygon fill="white" stroke="black" points="497,-202 497,-221 600,-221 600,-202 497,-202"/>
<text text-anchor="middle" x="548.5" y="-209" font-family="Helvetica,sans-Serif" font-size="10.00">net::Config::finish</text>
</a>
</g>
</g>
<!-- Node1&#45;&gt;Node2 -->
<g id="edge1" class="edge">
<title>Node1&#45;&gt;Node2</title>
<path fill="none" stroke="midnightblue" d="M679.8,-167.29C648.86,-177.79 605.73,-192.42 577.71,-201.93"/>
<polygon fill="midnightblue" stroke="midnightblue" points="681.04,-170.57 689.38,-164.04 678.79,-163.94 681.04,-170.57"/>
</g>
<!-- Node3 -->
<g id="node3" class="node">
<title>Node3</title>
<g id="a_node3"><a xlink:href="classnet_1_1in_1_1stream_1_1_server_config.html#ab92f6c8ae4dca6d7631092f14d0d58c8" target="_top" xlink:title=" ">
<polygon fill="white" stroke="black" points="300.5,-278.5 300.5,-308.5 457.5,-308.5 457.5,-278.5 300.5,-278.5"/>
<text text-anchor="start" x="308.5" y="-296.5" font-family="Helvetica,sans-Serif" font-size="10.00">net::in::stream::ServerConfig</text>
<text text-anchor="middle" x="379" y="-285.5" font-family="Helvetica,sans-Serif" font-size="10.00">::ServerConfig</text>
</a>
</g>
</g>
<!-- Node1&#45;&gt;Node3 -->
<g id="edge11" class="edge">
<title>Node1&#45;&gt;Node3</title>
<path fill="none" stroke="midnightblue" d="M702.5,-171.92C682.14,-194.36 643.5,-232.8 602,-252.5 556.85,-273.93 501.61,-284.18 457.53,-289.08"/>
<polygon fill="midnightblue" stroke="midnightblue" points="705.36,-173.98 709.38,-164.18 700.12,-169.33 705.36,-173.98"/>
</g>
<!-- Node4 -->
<g id="node4" class="node">
<title>Node4</title>
<g id="a_node4"><a xlink:href="classnet_1_1in6_1_1stream_1_1_server_config.html#a790b7dbf4dbd57c4bfce71bfa654e936" target="_top" xlink:title=" ">
<polygon fill="white" stroke="black" points="313.5,-229.5 313.5,-259.5 444.5,-259.5 444.5,-229.5 313.5,-229.5"/>
<text text-anchor="start" x="321.5" y="-247.5" font-family="Helvetica,sans-Serif" font-size="10.00">net::in6::stream::Server</text>
<text text-anchor="middle" x="379" y="-236.5" font-family="Helvetica,sans-Serif" font-size="10.00">Config::ServerConfig</text>
</a>
</g>
</g>
<!-- Node1&#45;&gt;Node4 -->
<g id="edge12" class="edge">
<title>Node1&#45;&gt;Node4</title>
<path fill="none" stroke="midnightblue" d="M699.4,-170.82C677.92,-189.07 640.19,-217.74 602,-230.5 551.09,-247.51 490.01,-250.18 444.82,-249.06"/>
<polygon fill="midnightblue" stroke="midnightblue" points="701.8,-173.37 707.05,-164.17 697.21,-168.09 701.8,-173.37"/>
</g>
<!-- Node5 -->
<g id="node5" class="node">
<title>Node5</title>
<g id="a_node5"><a xlink:href="classnet_1_1l2_1_1stream_1_1_server_config.html#ad69499988d8d1e14a7937cbc116959b0" target="_top" xlink:title=" ">
<polygon fill="white" stroke="black" points="300.5,-180.5 300.5,-210.5 457.5,-210.5 457.5,-180.5 300.5,-180.5"/>
<text text-anchor="start" x="308.5" y="-198.5" font-family="Helvetica,sans-Serif" font-size="10.00">net::l2::stream::ServerConfig</text>
<text text-anchor="middle" x="379" y="-187.5" font-family="Helvetica,sans-Serif" font-size="10.00">::ServerConfig</text>
</a>
</g>
</g>
<!-- Node1&#45;&gt;Node5 -->
<g id="edge13" class="edge">
<title>Node1&#45;&gt;Node5</title>
<path fill="none" stroke="midnightblue" d="M629.11,-165.24C575.88,-171.7 508.73,-179.86 457.56,-186.08"/>
<polygon fill="midnightblue" stroke="midnightblue" points="629.72,-168.69 639.22,-164.01 628.87,-161.74 629.72,-168.69"/>
</g>
<!-- Node6 -->
<g id="node6" class="node">
<title>Node6</title>
<g id="a_node6"><a xlink:href="classnet_1_1rf_1_1stream_1_1_server_config.html#acbab343d26e530b5095ed72ccf6b07a6" target="_top" xlink:title=" ">
<polygon fill="white" stroke="black" points="301.5,-131.5 301.5,-161.5 456.5,-161.5 456.5,-131.5 301.5,-131.5"/>
<text text-anchor="start" x="309.5" y="-149.5" font-family="Helvetica,sans-Serif" font-size="10.00">net::rf::stream::ServerConfig</text>
<text text-anchor="middle" x="379" y="-138.5" font-family="Helvetica,sans-Serif" font-size="10.00">::ServerConfig</text>
</a>
</g>
</g>
<!-- Node1&#45;&gt;Node6 -->
<g id="edge14" class="edge">
<title>Node1&#45;&gt;Node6</title>
<path fill="none" stroke="midnightblue" d="M627.81,-152.37C574.49,-151.11 507.56,-149.52 456.7,-148.32"/>
<polygon fill="midnightblue" stroke="midnightblue" points="627.86,-155.88 637.94,-152.61 628.03,-148.88 627.86,-155.88"/>
</g>
<!-- Node7 -->
<g id="node7" class="node">
<title>Node7</title>
<g id="a_node7"><a xlink:href="classnet_1_1un_1_1stream_1_1_server_config.html#ad4737df1c2d4f7a2f83023cb6f6e9212" target="_top" xlink:title=" ">
<polygon fill="white" stroke="black" points="299,-82.5 299,-112.5 459,-112.5 459,-82.5 299,-82.5"/>
<text text-anchor="start" x="307" y="-100.5" font-family="Helvetica,sans-Serif" font-size="10.00">net::un::stream::ServerConfig</text>
<text text-anchor="middle" x="379" y="-89.5" font-family="Helvetica,sans-Serif" font-size="10.00">::ServerConfig</text>
</a>
</g>
</g>
<!-- Node1&#45;&gt;Node7 -->
<g id="edge16" class="edge">
<title>Node1&#45;&gt;Node7</title>
<path fill="none" stroke="midnightblue" d="M651,-143.27C595.9,-133.96 517.46,-120.71 459.13,-110.86"/>
<polygon fill="midnightblue" stroke="midnightblue" points="650.57,-146.75 661.01,-144.96 651.73,-139.84 650.57,-146.75"/>
</g>
<!-- Node8 -->
<g id="node8" class="node">
<title>Node8</title>
<g id="a_node8"><a xlink:href="classutils_1_1_config.html#a274c132d65a1905fd124d6b235faad71" target="_top" xlink:title=" ">
<polygon fill="white" stroke="black" points="500,-50 500,-69 597,-69 597,-50 500,-50"/>
<text text-anchor="middle" x="548.5" y="-57" font-family="Helvetica,sans-Serif" font-size="10.00">utils::Config::init</text>
</a>
</g>
</g>
<!-- Node1&#45;&gt;Node8 -->
<g id="edge7" class="edge">
<title>Node1&#45;&gt;Node8</title>
<path fill="none" stroke="midnightblue" d="M694.88,-139.45C671.94,-124.47 635.19,-101.2 602,-83.5 592.36,-78.36 581.41,-73.25 572.02,-69.07"/>
<polygon fill="midnightblue" stroke="midnightblue" points="692.97,-142.38 703.25,-144.95 696.81,-136.53 692.97,-142.38"/>
</g>
<!-- Node12 -->
<g id="node12" class="node">
<title>Node12</title>
<g id="a_node12"><a xlink:href="classnet_1_1_server_config.html#afe36301a09b84b197b7d212a3edc6bc1" target="_top" xlink:title=" ">
<polygon fill="white" stroke="black" points="495,-0.5 495,-30.5 602,-30.5 602,-0.5 495,-0.5"/>
<text text-anchor="start" x="503" y="-18.5" font-family="Helvetica,sans-Serif" font-size="10.00">net::ServerConfig::</text>
<text text-anchor="middle" x="548.5" y="-7.5" font-family="Helvetica,sans-Serif" font-size="10.00">ServerConfig</text>
</a>
</g>
</g>
<!-- Node1&#45;&gt;Node12 -->
<g id="edge15" class="edge">
<title>Node1&#45;&gt;Node12</title>
<path fill="none" stroke="midnightblue" d="M703.04,-136.91C682.52,-112.79 642.88,-69.17 602,-40.5 596.88,-36.91 591.15,-33.59 585.43,-30.62"/>
<polygon fill="midnightblue" stroke="midnightblue" points="700.59,-139.44 709.7,-144.85 705.95,-134.94 700.59,-139.44"/>
</g>
<!-- Node2&#45;&gt;Node3 -->
<g id="edge2" class="edge">
<title>Node2&#45;&gt;Node3</title>
<path fill="none" stroke="midnightblue" d="M527.04,-227.34C509.71,-240.15 483.8,-257.9 459,-269.5 451.99,-272.78 444.42,-275.74 436.84,-278.38"/>
<polygon fill="midnightblue" stroke="midnightblue" points="529.38,-229.96 535.27,-221.15 525.18,-224.37 529.38,-229.96"/>
</g>
<!-- Node2&#45;&gt;Node4 -->
<g id="edge3" class="edge">
<title>Node2&#45;&gt;Node4</title>
<path fill="none" stroke="midnightblue" d="M488.84,-223.06C474.52,-225.88 459.13,-228.91 444.55,-231.78"/>
<polygon fill="midnightblue" stroke="midnightblue" points="489.92,-226.41 499.05,-221.04 488.56,-219.54 489.92,-226.41"/>
</g>
<!-- Node2&#45;&gt;Node5 -->
<g id="edge4" class="edge">
<title>Node2&#45;&gt;Node5</title>
<path fill="none" stroke="midnightblue" d="M486.75,-205.7C477.33,-204.8 467.48,-203.86 457.74,-202.93"/>
<polygon fill="midnightblue" stroke="midnightblue" points="486.5,-209.19 496.79,-206.66 487.17,-202.22 486.5,-209.19"/>
</g>
<!-- Node2&#45;&gt;Node6 -->
<g id="edge5" class="edge">
<title>Node2&#45;&gt;Node6</title>
<path fill="none" stroke="midnightblue" d="M518.66,-197.42C501.54,-189.33 479.27,-179.26 459,-171.5 450,-168.06 440.3,-164.7 430.88,-161.63"/>
<polygon fill="midnightblue" stroke="midnightblue" points="517.56,-200.78 528.1,-201.93 520.58,-194.46 517.56,-200.78"/>
</g>
<!-- Node2&#45;&gt;Node7 -->
<g id="edge6" class="edge">
<title>Node2&#45;&gt;Node7</title>
<path fill="none" stroke="midnightblue" d="M534.43,-193.98C518.65,-173.97 490.28,-141.57 459,-122.5 452.74,-118.68 445.83,-115.39 438.79,-112.57"/>
<polygon fill="midnightblue" stroke="midnightblue" points="531.71,-196.17 540.58,-201.96 537.25,-191.9 531.71,-196.17"/>
</g>
<!-- Node9 -->
<g id="node9" class="node">
<title>Node9</title>
<g id="a_node9"><a xlink:href="classcore_1_1_event_loop.html#a646626e7bf61e04877f71473b49e90ca" target="_top" xlink:title=" ">
<polygon fill="white" stroke="black" points="321,-44 321,-63 437,-63 437,-44 321,-44"/>
<text text-anchor="middle" x="379" y="-51" font-family="Helvetica,sans-Serif" font-size="10.00">core::EventLoop::init</text>
</a>
</g>
</g>
<!-- Node8&#45;&gt;Node9 -->
<g id="edge8" class="edge">
<title>Node8&#45;&gt;Node9</title>
<path fill="none" stroke="midnightblue" d="M489.62,-57.43C472.65,-56.82 454.11,-56.15 437.18,-55.55"/>
<polygon fill="midnightblue" stroke="midnightblue" points="489.83,-60.94 499.95,-57.8 490.08,-53.94 489.83,-60.94"/>
</g>
<!-- Node10 -->
<g id="node10" class="node">
<title>Node10</title>
<g id="a_node10"><a xlink:href="classcore_1_1_s_node_c.html#a2c8b01c5fc6ecc3036cb48a76f76f3b5" target="_top" xlink:title=" ">
<polygon fill="white" stroke="black" points="159,-44 159,-63 263,-63 263,-44 159,-44"/>
<text text-anchor="middle" x="211" y="-51" font-family="Helvetica,sans-Serif" font-size="10.00">core::SNodeC::init</text>
</a>
</g>
</g>
<!-- Node9&#45;&gt;Node10 -->
<g id="edge9" class="edge">
<title>Node9&#45;&gt;Node10</title>
<path fill="none" stroke="midnightblue" d="M310.6,-53.5C294.75,-53.5 278.11,-53.5 263.12,-53.5"/>
<polygon fill="midnightblue" stroke="midnightblue" points="310.87,-57 320.87,-53.5 310.87,-50 310.87,-57"/>
</g>
<!-- Node11 -->
<g id="node11" class="node">
<title>Node11</title>
<g id="a_node11"><a xlink:href="classexpress_1_1_web_app.html#a0a01439a0cc8dfc86ed14f1094826b7e" target="_top" xlink:title=" ">
<polygon fill="white" stroke="black" points="0,-44 0,-63 123,-63 123,-44 0,-44"/>
<text text-anchor="middle" x="61.5" y="-51" font-family="Helvetica,sans-Serif" font-size="10.00">express::WebApp::init</text>
</a>
</g>
</g>
<!-- Node10&#45;&gt;Node11 -->
<g id="edge10" class="edge">
<title>Node10&#45;&gt;Node11</title>
<path fill="none" stroke="midnightblue" d="M148.7,-53.5C140.28,-53.5 131.63,-53.5 123.22,-53.5"/>
<polygon fill="midnightblue" stroke="midnightblue" points="148.83,-57 158.83,-53.5 148.83,-50 148.83,-57"/>
</g>
</g>
</svg>
