<?xml version="1.0" encoding="UTF-8" standalone="no"?>
<!DOCTYPE svg PUBLIC "-//W3C//DTD SVG 1.1//EN"
 "http://www.w3.org/Graphics/SVG/1.1/DTD/svg11.dtd">
<!-- Generated by graphviz version 2.43.0 (0)
 -->
<!-- Title: net::in::stream::ClientSocket Pages: 1 -->
<svg width="292pt" height="434pt"
 viewBox="0.00 0.00 292.00 434.00" xmlns="http://www.w3.org/2000/svg" xmlns:xlink="http://www.w3.org/1999/xlink">
<g id="graph0" class="graph" transform="scale(1 1) rotate(0) translate(4 430)">
<title>net::in::stream::ClientSocket</title>
<polygon fill="white" stroke="transparent" points="-4,4 -4,-430 288,-430 288,4 -4,4"/>
<!-- Node1 -->
<g id="node1" class="node">
<title>Node1</title>
<g id="a_node1"><a xlink:title=" ">
<polygon fill="#bfbfbf" stroke="black" points="60.5,-0.5 60.5,-19.5 215.5,-19.5 215.5,-0.5 60.5,-0.5"/>
<text text-anchor="middle" x="138" y="-7.5" font-family="Helvetica,sans-Serif" font-size="10.00">net::in::stream::ClientSocket</text>
</a>
</g>
</g>
<!-- Node2 -->
<g id="node2" class="node">
<title>Node2</title>
<g id="a_node2"><a xlink:href="classnet_1_1stream_1_1_client_socket.html" target="_top" xlink:title=" ">
<polygon fill="white" stroke="black" points="63.5,-57.5 63.5,-87.5 212.5,-87.5 212.5,-57.5 63.5,-57.5"/>
<text text-anchor="start" x="71.5" y="-75.5" font-family="Helvetica,sans-Serif" font-size="10.00">net::stream::ClientSocket</text>
<text text-anchor="middle" x="138" y="-64.5" font-family="Helvetica,sans-Serif" font-size="10.00">&lt; net::in::stream::Socket &gt;</text>
</a>
</g>
</g>
<!-- Node2&#45;&gt;Node1 -->
<g id="edge1" class="edge">
<title>Node2&#45;&gt;Node1</title>
<path fill="none" stroke="midnightblue" d="M138,-47.35C138,-37.51 138,-26.78 138,-19.54"/>
<polygon fill="none" stroke="midnightblue" points="134.5,-47.47 138,-57.47 141.5,-47.47 134.5,-47.47"/>
</g>
<!-- Node3 -->
<g id="node3" class="node">
<title>Node3</title>
<g id="a_node3"><a xlink:href="classnet_1_1in_1_1stream_1_1_socket.html" target="_top" xlink:title=" ">
<polygon fill="white" stroke="black" points="0,-152 0,-171 126,-171 126,-152 0,-152"/>
<text text-anchor="middle" x="63" y="-159" font-family="Helvetica,sans-Serif" font-size="10.00">net::in::stream::Socket</text>
</a>
</g>
</g>
<!-- Node3&#45;&gt;Node2 -->
<g id="edge2" class="edge">
<title>Node3&#45;&gt;Node2</title>
<path fill="none" stroke="midnightblue" d="M77.07,-144.18C91.14,-127.85 112.56,-103.02 125.89,-87.55"/>
<polygon fill="none" stroke="midnightblue" points="74.34,-141.98 70.47,-151.84 79.65,-146.55 74.34,-141.98"/>
</g>
<!-- Node4 -->
<g id="node4" class="node">
<title>Node4</title>
<g id="a_node4"><a xlink:href="classnet_1_1in_1_1_socket.html" target="_top" xlink:title=" ">
<polygon fill="white" stroke="black" points="20,-214.5 20,-233.5 106,-233.5 106,-214.5 20,-214.5"/>
<text text-anchor="middle" x="63" y="-221.5" font-family="Helvetica,sans-Serif" font-size="10.00">net::in::Socket</text>
</a>
</g>
</g>
<!-- Node4&#45;&gt;Node3 -->
<g id="edge3" class="edge">
<title>Node4&#45;&gt;Node3</title>
<path fill="none" stroke="midnightblue" d="M63,-204C63,-193 63,-179.68 63,-171.15"/>
<polygon fill="none" stroke="midnightblue" points="59.5,-204.33 63,-214.33 66.5,-204.33 59.5,-204.33"/>
</g>
<!-- Node5 -->
<g id="node5" class="node">
<title>Node5</title>
<g id="a_node5"><a xlink:href="classnet_1_1_socket.html" target="_top" xlink:title=" ">
<polygon fill="white" stroke="black" points="6.5,-271.5 6.5,-301.5 119.5,-301.5 119.5,-271.5 6.5,-271.5"/>
<text text-anchor="start" x="14.5" y="-289.5" font-family="Helvetica,sans-Serif" font-size="10.00">net::Socket&lt; net::in</text>
<text text-anchor="middle" x="63" y="-278.5" font-family="Helvetica,sans-Serif" font-size="10.00">::SocketAddress &gt;</text>
</a>
</g>
</g>
<!-- Node5&#45;&gt;Node4 -->
<g id="edge4" class="edge">
<title>Node5&#45;&gt;Node4</title>
<path fill="none" stroke="midnightblue" d="M63,-261.35C63,-251.51 63,-240.78 63,-233.54"/>
<polygon fill="none" stroke="midnightblue" points="59.5,-261.47 63,-271.47 66.5,-261.47 59.5,-261.47"/>
</g>
<!-- Node6 -->
<g id="node6" class="node">
<title>Node6</title>
<g id="a_node6"><a xlink:href="classcore_1_1_descriptor.html" target="_top" xlink:title=" ">
<polygon fill="white" stroke="black" points="12,-406.5 12,-425.5 106,-425.5 106,-406.5 12,-406.5"/>
<text text-anchor="middle" x="59" y="-413.5" font-family="Helvetica,sans-Serif" font-size="10.00">core::Descriptor</text>
</a>
</g>
</g>
<!-- Node6&#45;&gt;Node5 -->
<g id="edge5" class="edge">
<title>Node6&#45;&gt;Node5</title>
<path fill="none" stroke="midnightblue" d="M59.6,-395.9C60.41,-370.05 61.84,-324.54 62.56,-301.59"/>
<polygon fill="none" stroke="midnightblue" points="56.09,-396.13 59.27,-406.24 63.09,-396.35 56.09,-396.13"/>
</g>
<!-- Node7 -->
<g id="node7" class="node">
<title>Node7</title>
<g id="a_node7"><a xlink:href="classnet_1_1_socket.html" target="_top" xlink:title=" ">
<polygon fill="white" stroke="black" points="75,-349.5 75,-368.5 245,-368.5 245,-349.5 75,-349.5"/>
<text text-anchor="middle" x="160" y="-356.5" font-family="Helvetica,sans-Serif" font-size="10.00">net::Socket&lt; SocketAddressT &gt;</text>
</a>
</g>
</g>
<!-- Node6&#45;&gt;Node7 -->
<g id="edge7" class="edge">
<title>Node6&#45;&gt;Node7</title>
<path fill="none" stroke="midnightblue" d="M83.73,-401.54C102.64,-391.24 128.14,-377.35 144.33,-368.53"/>
<polygon fill="none" stroke="midnightblue" points="81.89,-398.55 74.78,-406.41 85.24,-404.7 81.89,-398.55"/>
</g>
<!-- Node7&#45;&gt;Node5 -->
<g id="edge6" class="edge">
<title>Node7&#45;&gt;Node5</title>
<path fill="none" stroke="orange" d="M140,-343.47C123.11,-331.19 99.08,-313.72 82.37,-301.58"/>
<polygon fill="orange" stroke="orange" points="137.96,-346.31 148.11,-349.36 142.07,-340.64 137.96,-346.31"/>
<text text-anchor="middle" x="188" y="-323" font-family="Helvetica,sans-Serif" font-size="10.00"> &lt; net::in::SocketAddress &gt;</text>
</g>
<!-- Node8 -->
<g id="node8" class="node">
<title>Node8</title>
<g id="a_node8"><a xlink:href="classnet_1_1stream_1_1_client_socket.html" target="_top" xlink:title=" ">
<polygon fill="white" stroke="black" points="144,-146.5 144,-176.5 284,-176.5 284,-146.5 144,-146.5"/>
<text text-anchor="start" x="152" y="-164.5" font-family="Helvetica,sans-Serif" font-size="10.00">net::stream::ClientSocket</text>
<text text-anchor="middle" x="214" y="-153.5" font-family="Helvetica,sans-Serif" font-size="10.00">&lt; SocketT &gt;</text>
</a>
</g>
</g>
<!-- Node8&#45;&gt;Node2 -->
<g id="edge8" class="edge">
<title>Node8&#45;&gt;Node2</title>
<path fill="none" stroke="orange" d="M194.62,-138.32C180.68,-122.36 162.3,-101.31 150.32,-87.6"/>
<polygon fill="orange" stroke="orange" points="192.24,-140.91 201.45,-146.13 197.51,-136.3 192.24,-140.91"/>
<text text-anchor="start" x="186" y="-120" font-family="Helvetica,sans-Serif" font-size="10.00"> &lt; net::in::stream::</text>
<text text-anchor="middle" x="232" y="-109" font-family="Helvetica,sans-Serif" font-size="10.00">Socket &gt;</text>
</g>
<!-- Node9 -->
<g id="node9" class="node">
<title>Node9</title>
<g id="a_node9"><a xlink:title=" ">
<polygon fill="white" stroke="#bfbfbf" points="186.5,-214.5 186.5,-233.5 241.5,-233.5 241.5,-214.5 186.5,-214.5"/>
<text text-anchor="middle" x="214" y="-221.5" font-family="Helvetica,sans-Serif" font-size="10.00">SocketT</text>
</a>
</g>
</g>
<!-- Node9&#45;&gt;Node8 -->
<g id="edge9" class="edge">
<title>Node9&#45;&gt;Node8</title>
<path fill="none" stroke="midnightblue" d="M214,-204.22C214,-195.36 214,-184.96 214,-176.76"/>
<polygon fill="none" stroke="midnightblue" points="210.5,-204.33 214,-214.33 217.5,-204.33 210.5,-204.33"/>
</g>
</g>
</svg>
