<?xml version="1.0" encoding="UTF-8" standalone="no"?>
<!DOCTYPE svg PUBLIC "-//W3C//DTD SVG 1.1//EN"
 "http://www.w3.org/Graphics/SVG/1.1/DTD/svg11.dtd">
<!-- Generated by graphviz version 2.43.0 (0)
 -->
<!-- Title: core::pipe::PipeSource::send Pages: 1 -->
<svg width="753pt" height="176pt"
 viewBox="0.00 0.00 753.00 176.00" xmlns="http://www.w3.org/2000/svg" xmlns:xlink="http://www.w3.org/1999/xlink">
<g id="graph0" class="graph" transform="scale(1 1) rotate(0) translate(4 172)">
<title>core::pipe::PipeSource::send</title>
<polygon fill="white" stroke="transparent" points="-4,4 -4,-172 749,-172 749,4 -4,4"/>
<!-- Node1 -->
<g id="node1" class="node">
<title>Node1</title>
<g id="a_node1"><a xlink:title=" ">
<polygon fill="#bfbfbf" stroke="black" points="0,-88.5 0,-118.5 125,-118.5 125,-88.5 0,-88.5"/>
<text text-anchor="start" x="8" y="-106.5" font-family="Helvetica,sans-Serif" font-size="10.00">core::pipe::PipeSource</text>
<text text-anchor="middle" x="62.5" y="-95.5" font-family="Helvetica,sans-Serif" font-size="10.00">::send</text>
</a>
</g>
</g>
<!-- Node2 -->
<g id="node2" class="node">
<title>Node2</title>
<g id="a_node2"><a xlink:href="classcore_1_1_descriptor_event_receiver.html#ac80fc901f941c059a6ebdb28147b25a2" target="_top" xlink:title=" ">
<polygon fill="white" stroke="black" points="576,-137.5 576,-167.5 740,-167.5 740,-137.5 576,-137.5"/>
<text text-anchor="start" x="584" y="-155.5" font-family="Helvetica,sans-Serif" font-size="10.00">core::DescriptorEventReceiver</text>
<text text-anchor="middle" x="658" y="-144.5" font-family="Helvetica,sans-Serif" font-size="10.00">::isSuspended</text>
</a>
</g>
</g>
<!-- Node1&#45;&gt;Node2 -->
<g id="edge1" class="edge">
<title>Node1&#45;&gt;Node2</title>
<path fill="none" stroke="midnightblue" d="M125.03,-108.72C185.19,-113.82 279.38,-121.76 361,-128.5 429.59,-134.16 507.13,-140.45 565.63,-145.16"/>
<polygon fill="midnightblue" stroke="midnightblue" points="565.71,-148.68 575.96,-145.99 566.27,-141.7 565.71,-148.68"/>
</g>
<!-- Node3 -->
<g id="node3" class="node">
<title>Node3</title>
<g id="a_node3"><a xlink:href="classcore_1_1_descriptor_event_receiver.html#afa983ac6b0ba8f28ce4c0fc16cd914f8" target="_top" xlink:title=" ">
<polygon fill="white" stroke="black" points="161,-66.5 161,-96.5 325,-96.5 325,-66.5 161,-66.5"/>
<text text-anchor="start" x="169" y="-84.5" font-family="Helvetica,sans-Serif" font-size="10.00">core::DescriptorEventReceiver</text>
<text text-anchor="middle" x="243" y="-73.5" font-family="Helvetica,sans-Serif" font-size="10.00">::resume</text>
</a>
</g>
</g>
<!-- Node1&#45;&gt;Node3 -->
<g id="edge2" class="edge">
<title>Node1&#45;&gt;Node3</title>
<path fill="none" stroke="midnightblue" d="M125.18,-95.9C133.44,-94.88 142.04,-93.82 150.67,-92.76"/>
<polygon fill="midnightblue" stroke="midnightblue" points="151.3,-96.2 160.8,-91.51 150.45,-89.26 151.3,-96.2"/>
</g>
<!-- Node4 -->
<g id="node4" class="node">
<title>Node4</title>
<g id="a_node4"><a xlink:href="classutils_1_1_timeval.html#a54b232dc1ffeea007100dcd1caad1987" target="_top" xlink:title=" ">
<polygon fill="white" stroke="black" points="374.5,-50 374.5,-69 521.5,-69 521.5,-50 374.5,-50"/>
<text text-anchor="middle" x="448" y="-57" font-family="Helvetica,sans-Serif" font-size="10.00">utils::Timeval::currentTime</text>
</a>
</g>
</g>
<!-- Node3&#45;&gt;Node4 -->
<g id="edge3" class="edge">
<title>Node3&#45;&gt;Node4</title>
<path fill="none" stroke="midnightblue" d="M325.11,-72.71C337.92,-71.32 351.18,-69.88 364.03,-68.49"/>
<polygon fill="midnightblue" stroke="midnightblue" points="364.67,-71.94 374.23,-67.39 363.91,-64.98 364.67,-71.94"/>
</g>
<!-- Node6 -->
<g id="node6" class="node">
<title>Node6</title>
<g id="a_node6"><a xlink:href="classcore_1_1_descriptor_event_receiver.html#ac5dc7e86ddad09f5bd3eeb0c74f2e7f9" target="_top" xlink:title=" ">
<polygon fill="white" stroke="black" points="366,-0.5 366,-30.5 530,-30.5 530,-0.5 366,-0.5"/>
<text text-anchor="start" x="374" y="-18.5" font-family="Helvetica,sans-Serif" font-size="10.00">core::DescriptorEventReceiver</text>
<text text-anchor="middle" x="448" y="-7.5" font-family="Helvetica,sans-Serif" font-size="10.00">::isEnabled</text>
</a>
</g>
</g>
<!-- Node3&#45;&gt;Node6 -->
<g id="edge5" class="edge">
<title>Node3&#45;&gt;Node6</title>
<path fill="none" stroke="midnightblue" d="M285.24,-66.44C307.57,-58.44 335.69,-48.61 361,-40.5 368.39,-38.13 376.17,-35.74 383.91,-33.42"/>
<polygon fill="midnightblue" stroke="midnightblue" points="385.06,-36.72 393.65,-30.52 383.06,-30.01 385.06,-36.72"/>
</g>
<!-- Node7 -->
<g id="node7" class="node">
<title>Node7</title>
<g id="a_node7"><a xlink:href="classcore_1_1_descriptor_event_dispatcher.html#ab197433bb62044a20c3f6b413592a058" target="_top" xlink:title=" ">
<polygon fill="white" stroke="black" points="361,-88.5 361,-118.5 535,-118.5 535,-88.5 361,-88.5"/>
<text text-anchor="start" x="369" y="-106.5" font-family="Helvetica,sans-Serif" font-size="10.00">core::DescriptorEventDispatcher</text>
<text text-anchor="middle" x="448" y="-95.5" font-family="Helvetica,sans-Serif" font-size="10.00">::resume</text>
</a>
</g>
</g>
<!-- Node3&#45;&gt;Node7 -->
<g id="edge6" class="edge">
<title>Node3&#45;&gt;Node7</title>
<path fill="none" stroke="midnightblue" d="M325.11,-90.29C333.52,-91.2 342.13,-92.13 350.69,-93.06"/>
<polygon fill="midnightblue" stroke="midnightblue" points="350.38,-96.55 360.7,-94.15 351.13,-89.59 350.38,-96.55"/>
</g>
<!-- Node5 -->
<g id="node5" class="node">
<title>Node5</title>
<g id="a_node5"><a xlink:href="namespacecore_1_1system.html#acf9e7364dbf51f07083e05caa50d3b66" target="_top" xlink:title=" ">
<polygon fill="white" stroke="black" points="582,-1 582,-20 734,-20 734,-1 582,-1"/>
<text text-anchor="middle" x="658" y="-8" font-family="Helvetica,sans-Serif" font-size="10.00">core::system::gettimeofday</text>
</a>
</g>
</g>
<!-- Node4&#45;&gt;Node5 -->
<g id="edge4" class="edge">
<title>Node4&#45;&gt;Node5</title>
<path fill="none" stroke="midnightblue" d="M494.19,-49.99C507.38,-47.09 521.8,-43.79 535,-40.5 551.11,-36.49 554.91,-34.6 571,-30.5 581.8,-27.74 593.41,-24.94 604.49,-22.34"/>
<polygon fill="midnightblue" stroke="midnightblue" points="605.54,-25.69 614.48,-20.01 603.95,-18.87 605.54,-25.69"/>
</g>
<!-- Node7&#45;&gt;Node2 -->
<g id="edge8" class="edge">
<title>Node7&#45;&gt;Node2</title>
<path fill="none" stroke="midnightblue" d="M512.82,-118.53C535.18,-123.8 560.47,-129.76 583.56,-135.2"/>
<polygon fill="midnightblue" stroke="midnightblue" points="582.76,-138.61 593.3,-137.49 584.37,-131.79 582.76,-138.61"/>
</g>
<!-- Node8 -->
<g id="node8" class="node">
<title>Node8</title>
<g id="a_node8"><a xlink:href="classcore_1_1_descriptor_event_receiver.html#a445606dc995a71972d83e7683ada144b" target="_top" xlink:title=" ">
<polygon fill="white" stroke="black" points="576,-88.5 576,-118.5 740,-118.5 740,-88.5 576,-88.5"/>
<text text-anchor="start" x="584" y="-106.5" font-family="Helvetica,sans-Serif" font-size="10.00">core::DescriptorEventReceiver</text>
<text text-anchor="middle" x="658" y="-95.5" font-family="Helvetica,sans-Serif" font-size="10.00">::getRegisteredFd</text>
</a>
</g>
</g>
<!-- Node7&#45;&gt;Node8 -->
<g id="edge7" class="edge">
<title>Node7&#45;&gt;Node8</title>
<path fill="none" stroke="midnightblue" d="M535.1,-103.5C545.25,-103.5 555.62,-103.5 565.83,-103.5"/>
<polygon fill="midnightblue" stroke="midnightblue" points="565.97,-107 575.97,-103.5 565.97,-100 565.97,-107"/>
</g>
<!-- Node9 -->
<g id="node9" class="node">
<title>Node9</title>
<g id="a_node9"><a xlink:href="classcore_1_1_descriptor_event_dispatcher.html#a5718bcf9f911526bf408b9f324cedd3c" target="_top" xlink:title=" ">
<polygon fill="white" stroke="black" points="571,-39.5 571,-69.5 745,-69.5 745,-39.5 571,-39.5"/>
<text text-anchor="start" x="579" y="-57.5" font-family="Helvetica,sans-Serif" font-size="10.00">core::DescriptorEventDispatcher</text>
<text text-anchor="middle" x="658" y="-46.5" font-family="Helvetica,sans-Serif" font-size="10.00">::modOn</text>
</a>
</g>
</g>
<!-- Node7&#45;&gt;Node9 -->
<g id="edge9" class="edge">
<title>Node7&#45;&gt;Node9</title>
<path fill="none" stroke="midnightblue" d="M512.82,-88.47C535.18,-83.2 560.47,-77.24 583.56,-71.8"/>
<polygon fill="midnightblue" stroke="midnightblue" points="584.37,-75.21 593.3,-69.51 582.76,-68.39 584.37,-75.21"/>
</g>
</g>
</svg>
