<?xml version="1.0" encoding="UTF-8" standalone="no"?>
<!DOCTYPE svg PUBLIC "-//W3C//DTD SVG 1.1//EN"
 "http://www.w3.org/Graphics/SVG/1.1/DTD/svg11.dtd">
<!-- Generated by graphviz version 2.43.0 (0)
 -->
<!-- Title: core::socket::stream::SocketConnector&lt; SocketClientT, SocketConnectionT &gt; Pages: 1 -->
<svg width="319pt" height="229pt"
 viewBox="0.00 0.00 318.50 229.00" xmlns="http://www.w3.org/2000/svg" xmlns:xlink="http://www.w3.org/1999/xlink">
<g id="graph0" class="graph" transform="scale(1 1) rotate(0) translate(4 225)">
<title>core::socket::stream::SocketConnector&lt; SocketClientT, SocketConnectionT &gt;</title>
<polygon fill="white" stroke="transparent" points="-4,4 -4,-225 314.5,-225 314.5,4 -4,4"/>
<!-- Node1 -->
<g id="node1" class="node">
<title>Node1</title>
<g id="a_node1"><a xlink:title=" ">
<polygon fill="#bfbfbf" stroke="black" points="65.5,-0.5 65.5,-41.5 241.5,-41.5 241.5,-0.5 65.5,-0.5"/>
<text text-anchor="start" x="73.5" y="-29.5" font-family="Helvetica,sans-Serif" font-size="10.00">core::socket::stream</text>
<text text-anchor="start" x="73.5" y="-18.5" font-family="Helvetica,sans-Serif" font-size="10.00">::SocketConnector&lt; SocketClient</text>
<text text-anchor="middle" x="153.5" y="-7.5" font-family="Helvetica,sans-Serif" font-size="10.00">T, SocketConnectionT &gt;</text>
</a>
</g>
</g>
<!-- Node2 -->
<g id="node2" class="node">
<title>Node2</title>
<g id="a_node2"><a xlink:href="classcore_1_1eventreceiver_1_1_init_connect_event_receiver.html" target="_top" xlink:title=" ">
<polygon fill="white" stroke="black" points="0,-78.5 0,-108.5 149,-108.5 149,-78.5 0,-78.5"/>
<text text-anchor="start" x="8" y="-96.5" font-family="Helvetica,sans-Serif" font-size="10.00">core::eventreceiver</text>
<text text-anchor="middle" x="74.5" y="-85.5" font-family="Helvetica,sans-Serif" font-size="10.00">::InitConnectEventReceiver</text>
</a>
</g>
</g>
<!-- Node2&#45;&gt;Node1 -->
<g id="edge1" class="edge">
<title>Node2&#45;&gt;Node1</title>
<path fill="none" stroke="darkgreen" d="M98.17,-71.38C108.76,-61.93 121.17,-50.85 131.55,-41.59"/>
<polygon fill="none" stroke="darkgreen" points="95.62,-68.96 90.49,-78.23 100.28,-74.19 95.62,-68.96"/>
</g>
<!-- Node3 -->
<g id="node3" class="node">
<title>Node3</title>
<g id="a_node3"><a xlink:href="classcore_1_1_event_receiver.html" target="_top" xlink:title=" ">
<polygon fill="white" stroke="black" points="47.5,-201.5 47.5,-220.5 161.5,-220.5 161.5,-201.5 47.5,-201.5"/>
<text text-anchor="middle" x="104.5" y="-208.5" font-family="Helvetica,sans-Serif" font-size="10.00">core::EventReceiver</text>
</a>
</g>
</g>
<!-- Node3&#45;&gt;Node2 -->
<g id="edge2" class="edge">
<title>Node3&#45;&gt;Node2</title>
<path fill="none" stroke="darkgreen" d="M99.66,-191.38C93.66,-168.26 83.54,-129.32 78.15,-108.55"/>
<polygon fill="none" stroke="darkgreen" points="96.34,-192.52 102.25,-201.32 103.12,-190.76 96.34,-192.52"/>
</g>
<!-- Node5 -->
<g id="node5" class="node">
<title>Node5</title>
<g id="a_node5"><a xlink:href="classcore_1_1_descriptor_event_receiver.html" target="_top" xlink:title=" ">
<polygon fill="white" stroke="black" points="146.5,-145.5 146.5,-164.5 310.5,-164.5 310.5,-145.5 146.5,-145.5"/>
<text text-anchor="middle" x="228.5" y="-152.5" font-family="Helvetica,sans-Serif" font-size="10.00">core::DescriptorEventReceiver</text>
</a>
</g>
</g>
<!-- Node3&#45;&gt;Node5 -->
<g id="edge6" class="edge">
<title>Node3&#45;&gt;Node5</title>
<path fill="none" stroke="midnightblue" d="M133.51,-197.37C156.73,-187.26 188.66,-173.35 208.94,-164.52"/>
<polygon fill="none" stroke="midnightblue" points="131.92,-194.24 124.15,-201.44 134.71,-200.66 131.92,-194.24"/>
</g>
<!-- Node4 -->
<g id="node4" class="node">
<title>Node4</title>
<g id="a_node4"><a xlink:href="classcore_1_1eventreceiver_1_1_connect_event_receiver.html" target="_top" xlink:title=" ">
<polygon fill="white" stroke="black" points="167,-78.5 167,-108.5 300,-108.5 300,-78.5 167,-78.5"/>
<text text-anchor="start" x="175" y="-96.5" font-family="Helvetica,sans-Serif" font-size="10.00">core::eventreceiver</text>
<text text-anchor="middle" x="233.5" y="-85.5" font-family="Helvetica,sans-Serif" font-size="10.00">::ConnectEventReceiver</text>
</a>
</g>
</g>
<!-- Node4&#45;&gt;Node1 -->
<g id="edge3" class="edge">
<title>Node4&#45;&gt;Node1</title>
<path fill="none" stroke="darkgreen" d="M209.53,-71.38C198.81,-61.93 186.24,-50.85 175.73,-41.59"/>
<polygon fill="none" stroke="darkgreen" points="207.49,-74.25 217.31,-78.23 212.12,-69 207.49,-74.25"/>
</g>
<!-- Node5&#45;&gt;Node4 -->
<g id="edge4" class="edge">
<title>Node5&#45;&gt;Node4</title>
<path fill="none" stroke="darkgreen" d="M230.08,-135.23C230.8,-126.59 231.65,-116.5 232.32,-108.52"/>
<polygon fill="none" stroke="darkgreen" points="226.57,-135.22 229.22,-145.48 233.54,-135.8 226.57,-135.22"/>
</g>
<!-- Node6 -->
<g id="node6" class="node">
<title>Node6</title>
<g id="a_node6"><a xlink:href="classcore_1_1_observer.html" target="_top" xlink:title=" ">
<polygon fill="white" stroke="black" points="184.5,-201.5 184.5,-220.5 272.5,-220.5 272.5,-201.5 184.5,-201.5"/>
<text text-anchor="middle" x="228.5" y="-208.5" font-family="Helvetica,sans-Serif" font-size="10.00">core::Observer</text>
</a>
</g>
</g>
<!-- Node6&#45;&gt;Node5 -->
<g id="edge5" class="edge">
<title>Node6&#45;&gt;Node5</title>
<path fill="none" stroke="darkgreen" d="M228.5,-190.8C228.5,-181.91 228.5,-171.78 228.5,-164.75"/>
<polygon fill="none" stroke="darkgreen" points="225,-191.08 228.5,-201.08 232,-191.08 225,-191.08"/>
</g>
</g>
</svg>
