<?xml version="1.0" encoding="UTF-8" standalone="no"?>
<!DOCTYPE svg PUBLIC "-//W3C//DTD SVG 1.1//EN"
 "http://www.w3.org/Graphics/SVG/1.1/DTD/svg11.dtd">
<!-- Generated by graphviz version 2.43.0 (0)
 -->
<!-- Title: net::in::config::ConfigAddress&lt; ConfigAddressTypeT &gt; Pages: 1 -->
<svg width="744pt" height="251pt"
 viewBox="0.00 0.00 743.50 251.00" xmlns="http://www.w3.org/2000/svg" xmlns:xlink="http://www.w3.org/1999/xlink">
<g id="graph0" class="graph" transform="scale(1 1) rotate(0) translate(4 247)">
<title>net::in::config::ConfigAddress&lt; ConfigAddressTypeT &gt;</title>
<polygon fill="white" stroke="transparent" points="-4,4 -4,-247 739.5,-247 739.5,4 -4,4"/>
<!-- Node1 -->
<g id="node1" class="node">
<title>Node1</title>
<g id="a_node1"><a xlink:title=" ">
<polygon fill="#bfbfbf" stroke="black" points="221.5,-145.5 221.5,-175.5 381.5,-175.5 381.5,-145.5 221.5,-145.5"/>
<text text-anchor="start" x="229.5" y="-163.5" font-family="Helvetica,sans-Serif" font-size="10.00">net::in::config::ConfigAddress</text>
<text text-anchor="middle" x="301.5" y="-152.5" font-family="Helvetica,sans-Serif" font-size="10.00">&lt; ConfigAddressTypeT &gt;</text>
</a>
</g>
</g>
<!-- Node3 -->
<g id="node3" class="node">
<title>Node3</title>
<g id="a_node3"><a xlink:href="classnet_1_1in_1_1stream_1_1config_1_1_config_socket_client.html" target="_top" xlink:title=" ">
<polygon fill="white" stroke="black" points="203,-67.5 203,-108.5 400,-108.5 400,-67.5 203,-67.5"/>
<text text-anchor="start" x="211" y="-96.5" font-family="Helvetica,sans-Serif" font-size="10.00">net::in::stream::config</text>
<text text-anchor="start" x="211" y="-85.5" font-family="Helvetica,sans-Serif" font-size="10.00">::ConfigSocketClient&lt;</text>
<text text-anchor="middle" x="301.5" y="-74.5" font-family="Helvetica,sans-Serif" font-size="10.00"> net::config::ConfigAddressRemote &gt;</text>
</a>
</g>
</g>
<!-- Node1&#45;&gt;Node3 -->
<g id="edge2" class="edge">
<title>Node1&#45;&gt;Node3</title>
<path fill="none" stroke="midnightblue" d="M301.5,-134.98C301.5,-126.35 301.5,-116.76 301.5,-108.59"/>
<polygon fill="none" stroke="midnightblue" points="298,-135.23 301.5,-145.23 305,-135.23 298,-135.23"/>
</g>
<!-- Node6 -->
<g id="node6" class="node">
<title>Node6</title>
<g id="a_node6"><a xlink:href="classnet_1_1in_1_1stream_1_1config_1_1_config_socket_client.html" target="_top" xlink:title=" ">
<polygon fill="white" stroke="black" points="0,-67.5 0,-108.5 185,-108.5 185,-67.5 0,-67.5"/>
<text text-anchor="start" x="8" y="-96.5" font-family="Helvetica,sans-Serif" font-size="10.00">net::in::stream::config</text>
<text text-anchor="start" x="8" y="-85.5" font-family="Helvetica,sans-Serif" font-size="10.00">::ConfigSocketClient&lt;</text>
<text text-anchor="middle" x="92.5" y="-74.5" font-family="Helvetica,sans-Serif" font-size="10.00"> net::config::ConfigAddressLocal &gt;</text>
</a>
</g>
</g>
<!-- Node1&#45;&gt;Node6 -->
<g id="edge5" class="edge">
<title>Node1&#45;&gt;Node6</title>
<path fill="none" stroke="midnightblue" d="M250.46,-142.28C220.27,-132.1 181.93,-119.17 150.58,-108.59"/>
<polygon fill="none" stroke="midnightblue" points="249.36,-145.61 259.96,-145.49 251.6,-138.97 249.36,-145.61"/>
</g>
<!-- Node7 -->
<g id="node7" class="node">
<title>Node7</title>
<g id="a_node7"><a xlink:href="classnet_1_1in_1_1stream_1_1config_1_1_config_socket_server.html" target="_top" xlink:title=" ">
<polygon fill="white" stroke="black" points="418,-67.5 418,-108.5 603,-108.5 603,-67.5 418,-67.5"/>
<text text-anchor="start" x="426" y="-96.5" font-family="Helvetica,sans-Serif" font-size="10.00">net::in::stream::config</text>
<text text-anchor="start" x="426" y="-85.5" font-family="Helvetica,sans-Serif" font-size="10.00">::ConfigSocketServer&lt;</text>
<text text-anchor="middle" x="510.5" y="-74.5" font-family="Helvetica,sans-Serif" font-size="10.00"> net::config::ConfigAddressLocal &gt;</text>
</a>
</g>
</g>
<!-- Node1&#45;&gt;Node7 -->
<g id="edge8" class="edge">
<title>Node1&#45;&gt;Node7</title>
<path fill="none" stroke="midnightblue" d="M352.54,-142.28C382.73,-132.1 421.07,-119.17 452.42,-108.59"/>
<polygon fill="none" stroke="midnightblue" points="351.4,-138.97 343.04,-145.49 353.64,-145.61 351.4,-138.97"/>
</g>
<!-- Node2 -->
<g id="node2" class="node">
<title>Node2</title>
<g id="a_node2"><a xlink:title=" ">
<polygon fill="white" stroke="#bfbfbf" points="228,-212.5 228,-242.5 375,-242.5 375,-212.5 228,-212.5"/>
<text text-anchor="start" x="236" y="-230.5" font-family="Helvetica,sans-Serif" font-size="10.00">ConfigAddressTypeT</text>
<text text-anchor="middle" x="301.5" y="-219.5" font-family="Helvetica,sans-Serif" font-size="10.00">&lt; net::in::SocketAddress &gt;</text>
</a>
</g>
</g>
<!-- Node2&#45;&gt;Node1 -->
<g id="edge1" class="edge">
<title>Node2&#45;&gt;Node1</title>
<path fill="none" stroke="midnightblue" d="M301.5,-202.11C301.5,-193.15 301.5,-183.32 301.5,-175.58"/>
<polygon fill="none" stroke="midnightblue" points="298,-202.4 301.5,-212.4 305,-202.4 298,-202.4"/>
</g>
<!-- Node4 -->
<g id="node4" class="node">
<title>Node4</title>
<g id="a_node4"><a xlink:href="classnet_1_1in_1_1stream_1_1legacy_1_1config_1_1_config_socket_client.html" target="_top" xlink:title=" ">
<polygon fill="white" stroke="black" points="37,-0.5 37,-30.5 188,-30.5 188,-0.5 37,-0.5"/>
<text text-anchor="start" x="45" y="-18.5" font-family="Helvetica,sans-Serif" font-size="10.00">net::in::stream::legacy</text>
<text text-anchor="middle" x="112.5" y="-7.5" font-family="Helvetica,sans-Serif" font-size="10.00">::config::ConfigSocketClient</text>
</a>
</g>
</g>
<!-- Node3&#45;&gt;Node4 -->
<g id="edge3" class="edge">
<title>Node3&#45;&gt;Node4</title>
<path fill="none" stroke="midnightblue" d="M239.71,-63.95C210.21,-52.95 175.86,-40.13 150.29,-30.6"/>
<polygon fill="none" stroke="midnightblue" points="238.51,-67.24 249.1,-67.46 240.96,-60.68 238.51,-67.24"/>
</g>
<!-- Node5 -->
<g id="node5" class="node">
<title>Node5</title>
<g id="a_node5"><a xlink:href="classnet_1_1in_1_1stream_1_1tls_1_1config_1_1_config_socket_client.html" target="_top" xlink:title=" ">
<polygon fill="white" stroke="black" points="216,-0.5 216,-30.5 367,-30.5 367,-0.5 216,-0.5"/>
<text text-anchor="start" x="224" y="-18.5" font-family="Helvetica,sans-Serif" font-size="10.00">net::in::stream::tls</text>
<text text-anchor="middle" x="291.5" y="-7.5" font-family="Helvetica,sans-Serif" font-size="10.00">::config::ConfigSocketClient</text>
</a>
</g>
</g>
<!-- Node3&#45;&gt;Node5 -->
<g id="edge4" class="edge">
<title>Node3&#45;&gt;Node5</title>
<path fill="none" stroke="midnightblue" d="M297.3,-57.38C296,-48.21 294.63,-38.53 293.54,-30.89"/>
<polygon fill="none" stroke="midnightblue" points="293.84,-57.95 298.71,-67.36 300.78,-56.97 293.84,-57.95"/>
</g>
<!-- Node6&#45;&gt;Node4 -->
<g id="edge6" class="edge">
<title>Node6&#45;&gt;Node4</title>
<path fill="none" stroke="midnightblue" d="M100.82,-57.67C103.44,-48.42 106.23,-38.61 108.42,-30.89"/>
<polygon fill="none" stroke="midnightblue" points="97.43,-56.79 98.07,-67.36 104.17,-58.7 97.43,-56.79"/>
</g>
<!-- Node6&#45;&gt;Node5 -->
<g id="edge7" class="edge">
<title>Node6&#45;&gt;Node5</title>
<path fill="none" stroke="midnightblue" d="M157.15,-64.1C188.31,-53.06 224.67,-40.17 251.71,-30.6"/>
<polygon fill="none" stroke="midnightblue" points="155.93,-60.82 147.67,-67.46 158.26,-67.42 155.93,-60.82"/>
</g>
<!-- Node8 -->
<g id="node8" class="node">
<title>Node8</title>
<g id="a_node8"><a xlink:href="classnet_1_1in_1_1stream_1_1legacy_1_1config_1_1_config_socket_server.html" target="_top" xlink:title=" ">
<polygon fill="white" stroke="black" points="409.5,-0.5 409.5,-30.5 563.5,-30.5 563.5,-0.5 409.5,-0.5"/>
<text text-anchor="start" x="417.5" y="-18.5" font-family="Helvetica,sans-Serif" font-size="10.00">net::in::stream::legacy</text>
<text text-anchor="middle" x="486.5" y="-7.5" font-family="Helvetica,sans-Serif" font-size="10.00">::config::ConfigSocketServer</text>
</a>
</g>
</g>
<!-- Node7&#45;&gt;Node8 -->
<g id="edge9" class="edge">
<title>Node7&#45;&gt;Node8</title>
<path fill="none" stroke="midnightblue" d="M500.52,-57.67C497.37,-48.42 494.03,-38.61 491.4,-30.89"/>
<polygon fill="none" stroke="midnightblue" points="497.28,-59.02 503.81,-67.36 503.91,-56.77 497.28,-59.02"/>
</g>
<!-- Node9 -->
<g id="node9" class="node">
<title>Node9</title>
<g id="a_node9"><a xlink:href="classnet_1_1in_1_1stream_1_1tls_1_1config_1_1_config_socket_server.html" target="_top" xlink:title=" ">
<polygon fill="white" stroke="black" points="581.5,-0.5 581.5,-30.5 735.5,-30.5 735.5,-0.5 581.5,-0.5"/>
<text text-anchor="start" x="589.5" y="-18.5" font-family="Helvetica,sans-Serif" font-size="10.00">net::in::stream::tls</text>
<text text-anchor="middle" x="658.5" y="-7.5" font-family="Helvetica,sans-Serif" font-size="10.00">::config::ConfigSocketServer</text>
</a>
</g>
</g>
<!-- Node7&#45;&gt;Node9 -->
<g id="edge10" class="edge">
<title>Node7&#45;&gt;Node9</title>
<path fill="none" stroke="midnightblue" d="M560.85,-63.02C583.44,-52.25 609.32,-39.93 628.75,-30.67"/>
<polygon fill="none" stroke="midnightblue" points="559.25,-59.9 551.73,-67.36 562.26,-66.22 559.25,-59.9"/>
</g>
</g>
</svg>
