<?xml version="1.0" encoding="UTF-8" standalone="no"?>
<!DOCTYPE svg PUBLIC "-//W3C//DTD SVG 1.1//EN"
 "http://www.w3.org/Graphics/SVG/1.1/DTD/svg11.dtd">
<!-- Generated by graphviz version 2.43.0 (0)
 -->
<!-- Title: net::un::stream::tls::ClientConfig Pages: 1 -->
<svg width="664pt" height="841pt"
 viewBox="0.00 0.00 664.00 841.00" xmlns="http://www.w3.org/2000/svg" xmlns:xlink="http://www.w3.org/1999/xlink">
<g id="graph0" class="graph" transform="scale(1 1) rotate(0) translate(4 837)">
<title>net::un::stream::tls::ClientConfig</title>
<polygon fill="white" stroke="transparent" points="-4,4 -4,-837 660,-837 660,4 -4,4"/>
<!-- Node1 -->
<g id="node1" class="node">
<title>Node1</title>
<g id="a_node1"><a xlink:title=" ">
<polygon fill="#bfbfbf" stroke="black" points="331.5,-0.5 331.5,-68.5 440.5,-68.5 440.5,-0.5 331.5,-0.5"/>
<text text-anchor="start" x="339.5" y="-56.5" font-family="Helvetica,sans-Serif" font-size="10.00">net::un::stream::tls</text>
<text text-anchor="middle" x="386" y="-45.5" font-family="Helvetica,sans-Serif" font-size="10.00">::ClientConfig</text>
<polyline fill="none" stroke="black" points="331.5,-38.5 440.5,-38.5 "/>
<text text-anchor="middle" x="386" y="-26.5" font-family="Helvetica,sans-Serif" font-size="10.00"> </text>
<polyline fill="none" stroke="black" points="331.5,-19.5 440.5,-19.5 "/>
<text text-anchor="start" x="339.5" y="-7.5" font-family="Helvetica,sans-Serif" font-size="10.00">+ ClientConfig()</text>
</a>
</g>
</g>
<!-- Node2 -->
<g id="node2" class="node">
<title>Node2</title>
<g id="a_node2"><a xlink:href="classnet_1_1un_1_1stream_1_1_client_config.html" target="_top" xlink:title=" ">
<polygon fill="white" stroke="black" points="224.5,-139.5 224.5,-196.5 381.5,-196.5 381.5,-139.5 224.5,-139.5"/>
<text text-anchor="middle" x="303" y="-184.5" font-family="Helvetica,sans-Serif" font-size="10.00">net::un::stream::ClientConfig</text>
<polyline fill="none" stroke="black" points="224.5,-177.5 381.5,-177.5 "/>
<text text-anchor="middle" x="303" y="-165.5" font-family="Helvetica,sans-Serif" font-size="10.00"> </text>
<polyline fill="none" stroke="black" points="224.5,-158.5 381.5,-158.5 "/>
<text text-anchor="start" x="232.5" y="-146.5" font-family="Helvetica,sans-Serif" font-size="10.00">+ ClientConfig()</text>
</a>
</g>
</g>
<!-- Node2&#45;&gt;Node1 -->
<g id="edge1" class="edge">
<title>Node2&#45;&gt;Node1</title>
<path fill="none" stroke="midnightblue" d="M325.82,-130.84C338.1,-111.39 353.13,-87.58 365.1,-68.62"/>
<polygon fill="none" stroke="midnightblue" points="322.78,-129.11 320.4,-139.43 328.7,-132.85 322.78,-129.11"/>
</g>
<!-- Node3 -->
<g id="node3" class="node">
<title>Node3</title>
<g id="a_node3"><a xlink:href="classnet_1_1_config_base.html" target="_top" xlink:title=" ">
<polygon fill="white" stroke="black" points="0,-339 0,-429 94,-429 94,-339 0,-339"/>
<text text-anchor="middle" x="47" y="-417" font-family="Helvetica,sans-Serif" font-size="10.00">net::ConfigBase</text>
<polyline fill="none" stroke="black" points="0,-410 94,-410 "/>
<text text-anchor="start" x="8" y="-398" font-family="Helvetica,sans-Serif" font-size="10.00"># baseSc</text>
<text text-anchor="start" x="8" y="-387" font-family="Helvetica,sans-Serif" font-size="10.00">&#45; name</text>
<polyline fill="none" stroke="black" points="0,-380 94,-380 "/>
<text text-anchor="start" x="8" y="-368" font-family="Helvetica,sans-Serif" font-size="10.00">+ ConfigBase()</text>
<text text-anchor="start" x="8" y="-357" font-family="Helvetica,sans-Serif" font-size="10.00">+ getName()</text>
<text text-anchor="start" x="8" y="-346" font-family="Helvetica,sans-Serif" font-size="10.00">+ parse()</text>
</a>
</g>
</g>
<!-- Node3&#45;&gt;Node2 -->
<g id="edge2" class="edge">
<title>Node3&#45;&gt;Node2</title>
<path fill="none" stroke="midnightblue" d="M64.11,-329.47C73.04,-308.02 85.76,-284.34 103,-267 136.53,-233.27 184.01,-209.33 224.3,-193.56"/>
<polygon fill="none" stroke="midnightblue" points="60.84,-328.23 60.39,-338.82 67.34,-330.82 60.84,-328.23"/>
</g>
<!-- Node4 -->
<g id="node4" class="node">
<title>Node4</title>
<g id="a_node4"><a xlink:href="classnet_1_1_config_backlog.html" target="_top" xlink:title=" ">
<polygon fill="white" stroke="black" points="112.5,-328 112.5,-440 221.5,-440 221.5,-328 112.5,-328"/>
<text text-anchor="middle" x="167" y="-428" font-family="Helvetica,sans-Serif" font-size="10.00">net::ConfigBacklog</text>
<polyline fill="none" stroke="black" points="112.5,-421 221.5,-421 "/>
<text text-anchor="start" x="120.5" y="-409" font-family="Helvetica,sans-Serif" font-size="10.00">&#45; backlogOpt</text>
<text text-anchor="start" x="120.5" y="-398" font-family="Helvetica,sans-Serif" font-size="10.00">&#45; initBacklog</text>
<text text-anchor="start" x="120.5" y="-387" font-family="Helvetica,sans-Serif" font-size="10.00">&#45; backlog</text>
<text text-anchor="start" x="120.5" y="-376" font-family="Helvetica,sans-Serif" font-size="10.00">&#45; initialized</text>
<polyline fill="none" stroke="black" points="112.5,-369 221.5,-369 "/>
<text text-anchor="start" x="120.5" y="-357" font-family="Helvetica,sans-Serif" font-size="10.00">+ ConfigBacklog()</text>
<text text-anchor="start" x="120.5" y="-346" font-family="Helvetica,sans-Serif" font-size="10.00">+ getBacklog()</text>
<text text-anchor="start" x="120.5" y="-335" font-family="Helvetica,sans-Serif" font-size="10.00">+ setBacklog()</text>
</a>
</g>
</g>
<!-- Node4&#45;&gt;Node2 -->
<g id="edge3" class="edge">
<title>Node4&#45;&gt;Node2</title>
<path fill="none" stroke="midnightblue" d="M200.37,-319.01C209.84,-301.86 220.45,-283.5 231,-267 246.7,-242.45 266.39,-215.89 281.21,-196.62"/>
<polygon fill="none" stroke="midnightblue" points="197.26,-317.41 195.53,-327.86 203.4,-320.77 197.26,-317.41"/>
</g>
<!-- Node5 -->
<g id="node5" class="node">
<title>Node5</title>
<g id="a_node5"><a xlink:href="classnet_1_1un_1_1_config_remote.html" target="_top" xlink:title=" ">
<polygon fill="white" stroke="black" points="240,-333.5 240,-434.5 366,-434.5 366,-333.5 240,-333.5"/>
<text text-anchor="middle" x="303" y="-422.5" font-family="Helvetica,sans-Serif" font-size="10.00">net::un::ConfigRemote</text>
<polyline fill="none" stroke="black" points="240,-415.5 366,-415.5 "/>
<text text-anchor="start" x="248" y="-403.5" font-family="Helvetica,sans-Serif" font-size="10.00"># connectSc</text>
<text text-anchor="start" x="248" y="-392.5" font-family="Helvetica,sans-Serif" font-size="10.00"># connectSunPathOpt</text>
<text text-anchor="start" x="248" y="-381.5" font-family="Helvetica,sans-Serif" font-size="10.00"># connectSunPath</text>
<polyline fill="none" stroke="black" points="240,-374.5 366,-374.5 "/>
<text text-anchor="start" x="248" y="-362.5" font-family="Helvetica,sans-Serif" font-size="10.00">+ ConfigRemote()</text>
<text text-anchor="start" x="248" y="-351.5" font-family="Helvetica,sans-Serif" font-size="10.00"># getAddress()</text>
<text text-anchor="start" x="248" y="-340.5" font-family="Helvetica,sans-Serif" font-size="10.00"># required()</text>
</a>
</g>
</g>
<!-- Node5&#45;&gt;Node2 -->
<g id="edge4" class="edge">
<title>Node5&#45;&gt;Node2</title>
<path fill="none" stroke="midnightblue" d="M303,-323.12C303,-281.73 303,-228.6 303,-196.76"/>
<polygon fill="none" stroke="midnightblue" points="299.5,-323.37 303,-333.37 306.5,-323.37 299.5,-323.37"/>
</g>
<!-- Node6 -->
<g id="node6" class="node">
<title>Node6</title>
<g id="a_node6"><a xlink:href="classnet_1_1_config_remote.html" target="_top" xlink:title=" ">
<polygon fill="white" stroke="black" points="230,-538.5 230,-661.5 358,-661.5 358,-538.5 230,-538.5"/>
<text text-anchor="start" x="238" y="-649.5" font-family="Helvetica,sans-Serif" font-size="10.00">net::ConfigRemote&lt;</text>
<text text-anchor="middle" x="294" y="-638.5" font-family="Helvetica,sans-Serif" font-size="10.00"> SocketAddress &gt;</text>
<polyline fill="none" stroke="black" points="230,-631.5 358,-631.5 "/>
<text text-anchor="start" x="238" y="-619.5" font-family="Helvetica,sans-Serif" font-size="10.00">&#45; remoteAddress</text>
<text text-anchor="start" x="238" y="-608.5" font-family="Helvetica,sans-Serif" font-size="10.00">&#45; initialized</text>
<polyline fill="none" stroke="black" points="230,-601.5 358,-601.5 "/>
<text text-anchor="start" x="238" y="-589.5" font-family="Helvetica,sans-Serif" font-size="10.00">+ getRemoteAddress()</text>
<text text-anchor="start" x="238" y="-578.5" font-family="Helvetica,sans-Serif" font-size="10.00">+ setRemoteAddress()</text>
<text text-anchor="start" x="238" y="-567.5" font-family="Helvetica,sans-Serif" font-size="10.00"># ConfigRemote()</text>
<text text-anchor="start" x="238" y="-556.5" font-family="Helvetica,sans-Serif" font-size="10.00"># ~ConfigRemote()</text>
<text text-anchor="start" x="238" y="-545.5" font-family="Helvetica,sans-Serif" font-size="10.00">&#45; getAddress()</text>
</a>
</g>
</g>
<!-- Node6&#45;&gt;Node5 -->
<g id="edge5" class="edge">
<title>Node6&#45;&gt;Node5</title>
<path fill="none" stroke="midnightblue" d="M296.98,-528.07C298.27,-497.49 299.74,-462.46 300.91,-434.72"/>
<polygon fill="none" stroke="midnightblue" points="293.48,-528.11 296.55,-538.25 300.47,-528.4 293.48,-528.11"/>
</g>
<!-- Node7 -->
<g id="node7" class="node">
<title>Node7</title>
<g id="a_node7"><a xlink:href="classnet_1_1_config_remote.html" target="_top" xlink:title=" ">
<polygon fill="white" stroke="black" points="230,-709.5 230,-832.5 358,-832.5 358,-709.5 230,-709.5"/>
<text text-anchor="start" x="238" y="-820.5" font-family="Helvetica,sans-Serif" font-size="10.00">net::ConfigRemote&lt;</text>
<text text-anchor="middle" x="294" y="-809.5" font-family="Helvetica,sans-Serif" font-size="10.00"> SocketAddressT &gt;</text>
<polyline fill="none" stroke="black" points="230,-802.5 358,-802.5 "/>
<text text-anchor="start" x="238" y="-790.5" font-family="Helvetica,sans-Serif" font-size="10.00">&#45; remoteAddress</text>
<text text-anchor="start" x="238" y="-779.5" font-family="Helvetica,sans-Serif" font-size="10.00">&#45; initialized</text>
<polyline fill="none" stroke="black" points="230,-772.5 358,-772.5 "/>
<text text-anchor="start" x="238" y="-760.5" font-family="Helvetica,sans-Serif" font-size="10.00">+ getRemoteAddress()</text>
<text text-anchor="start" x="238" y="-749.5" font-family="Helvetica,sans-Serif" font-size="10.00">+ setRemoteAddress()</text>
<text text-anchor="start" x="238" y="-738.5" font-family="Helvetica,sans-Serif" font-size="10.00"># ConfigRemote()</text>
<text text-anchor="start" x="238" y="-727.5" font-family="Helvetica,sans-Serif" font-size="10.00"># ~ConfigRemote()</text>
<text text-anchor="start" x="238" y="-716.5" font-family="Helvetica,sans-Serif" font-size="10.00">&#45; getAddress()</text>
</a>
</g>
</g>
<!-- Node7&#45;&gt;Node6 -->
<g id="edge6" class="edge">
<title>Node7&#45;&gt;Node6</title>
<path fill="none" stroke="orange" d="M294,-699.13C294,-686.68 294,-673.82 294,-661.68"/>
<polygon fill="orange" stroke="orange" points="290.5,-699.46 294,-709.46 297.5,-699.46 290.5,-699.46"/>
<text text-anchor="middle" x="342.5" y="-683" font-family="Helvetica,sans-Serif" font-size="10.00"> &lt; SocketAddress &gt;</text>
</g>
<!-- Node8 -->
<g id="node8" class="node">
<title>Node8</title>
<g id="a_node8"><a xlink:href="classnet_1_1un_1_1_config_local.html" target="_top" xlink:title=" ">
<polygon fill="white" stroke="black" points="384.5,-333.5 384.5,-434.5 497.5,-434.5 497.5,-333.5 384.5,-333.5"/>
<text text-anchor="middle" x="441" y="-422.5" font-family="Helvetica,sans-Serif" font-size="10.00">net::un::ConfigLocal</text>
<polyline fill="none" stroke="black" points="384.5,-415.5 497.5,-415.5 "/>
<text text-anchor="start" x="392.5" y="-403.5" font-family="Helvetica,sans-Serif" font-size="10.00"># bindSc</text>
<text text-anchor="start" x="392.5" y="-392.5" font-family="Helvetica,sans-Serif" font-size="10.00"># bindSunPathOpt</text>
<text text-anchor="start" x="392.5" y="-381.5" font-family="Helvetica,sans-Serif" font-size="10.00"># bindSunPath</text>
<polyline fill="none" stroke="black" points="384.5,-374.5 497.5,-374.5 "/>
<text text-anchor="start" x="392.5" y="-362.5" font-family="Helvetica,sans-Serif" font-size="10.00">+ ConfigLocal()</text>
<text text-anchor="start" x="392.5" y="-351.5" font-family="Helvetica,sans-Serif" font-size="10.00"># getAddress()</text>
<text text-anchor="start" x="392.5" y="-340.5" font-family="Helvetica,sans-Serif" font-size="10.00"># required()</text>
</a>
</g>
</g>
<!-- Node8&#45;&gt;Node2 -->
<g id="edge7" class="edge">
<title>Node8&#45;&gt;Node2</title>
<path fill="none" stroke="midnightblue" d="M409.43,-324.45C398.93,-305.81 386.87,-285.29 375,-267 359.14,-242.56 339.46,-215.99 324.68,-196.69"/>
<polygon fill="none" stroke="midnightblue" points="406.52,-326.41 414.46,-333.43 412.63,-322.99 406.52,-326.41"/>
</g>
<!-- Node9 -->
<g id="node9" class="node">
<title>Node9</title>
<g id="a_node9"><a xlink:href="classnet_1_1_config_local.html" target="_top" xlink:title=" ">
<polygon fill="white" stroke="black" points="376.5,-538.5 376.5,-661.5 515.5,-661.5 515.5,-538.5 376.5,-538.5"/>
<text text-anchor="start" x="384.5" y="-649.5" font-family="Helvetica,sans-Serif" font-size="10.00">net::ConfigLocal&lt; Socket</text>
<text text-anchor="middle" x="446" y="-638.5" font-family="Helvetica,sans-Serif" font-size="10.00">Address &gt;</text>
<polyline fill="none" stroke="black" points="376.5,-631.5 515.5,-631.5 "/>
<text text-anchor="start" x="384.5" y="-619.5" font-family="Helvetica,sans-Serif" font-size="10.00">&#45; localAddress</text>
<text text-anchor="start" x="384.5" y="-608.5" font-family="Helvetica,sans-Serif" font-size="10.00">&#45; initialized</text>
<polyline fill="none" stroke="black" points="376.5,-601.5 515.5,-601.5 "/>
<text text-anchor="start" x="384.5" y="-589.5" font-family="Helvetica,sans-Serif" font-size="10.00">+ getLocalAddress()</text>
<text text-anchor="start" x="384.5" y="-578.5" font-family="Helvetica,sans-Serif" font-size="10.00">+ setLocalAddress()</text>
<text text-anchor="start" x="384.5" y="-567.5" font-family="Helvetica,sans-Serif" font-size="10.00"># ConfigLocal()</text>
<text text-anchor="start" x="384.5" y="-556.5" font-family="Helvetica,sans-Serif" font-size="10.00"># ~ConfigLocal()</text>
<text text-anchor="start" x="384.5" y="-545.5" font-family="Helvetica,sans-Serif" font-size="10.00">&#45; getAddress()</text>
</a>
</g>
</g>
<!-- Node9&#45;&gt;Node8 -->
<g id="edge8" class="edge">
<title>Node9&#45;&gt;Node8</title>
<path fill="none" stroke="midnightblue" d="M444.34,-528.07C443.63,-497.49 442.81,-462.46 442.16,-434.72"/>
<polygon fill="none" stroke="midnightblue" points="440.85,-528.33 444.58,-538.25 447.85,-528.17 440.85,-528.33"/>
</g>
<!-- Node10 -->
<g id="node10" class="node">
<title>Node10</title>
<g id="a_node10"><a xlink:href="classnet_1_1_config_local.html" target="_top" xlink:title=" ">
<polygon fill="white" stroke="black" points="376.5,-709.5 376.5,-832.5 515.5,-832.5 515.5,-709.5 376.5,-709.5"/>
<text text-anchor="start" x="384.5" y="-820.5" font-family="Helvetica,sans-Serif" font-size="10.00">net::ConfigLocal&lt; Socket</text>
<text text-anchor="middle" x="446" y="-809.5" font-family="Helvetica,sans-Serif" font-size="10.00">AddressT &gt;</text>
<polyline fill="none" stroke="black" points="376.5,-802.5 515.5,-802.5 "/>
<text text-anchor="start" x="384.5" y="-790.5" font-family="Helvetica,sans-Serif" font-size="10.00">&#45; localAddress</text>
<text text-anchor="start" x="384.5" y="-779.5" font-family="Helvetica,sans-Serif" font-size="10.00">&#45; initialized</text>
<polyline fill="none" stroke="black" points="376.5,-772.5 515.5,-772.5 "/>
<text text-anchor="start" x="384.5" y="-760.5" font-family="Helvetica,sans-Serif" font-size="10.00">+ getLocalAddress()</text>
<text text-anchor="start" x="384.5" y="-749.5" font-family="Helvetica,sans-Serif" font-size="10.00">+ setLocalAddress()</text>
<text text-anchor="start" x="384.5" y="-738.5" font-family="Helvetica,sans-Serif" font-size="10.00"># ConfigLocal()</text>
<text text-anchor="start" x="384.5" y="-727.5" font-family="Helvetica,sans-Serif" font-size="10.00"># ~ConfigLocal()</text>
<text text-anchor="start" x="384.5" y="-716.5" font-family="Helvetica,sans-Serif" font-size="10.00">&#45; getAddress()</text>
</a>
</g>
</g>
<!-- Node10&#45;&gt;Node9 -->
<g id="edge9" class="edge">
<title>Node10&#45;&gt;Node9</title>
<path fill="none" stroke="orange" d="M446,-699.13C446,-686.68 446,-673.82 446,-661.68"/>
<polygon fill="orange" stroke="orange" points="442.5,-699.46 446,-709.46 449.5,-699.46 442.5,-699.46"/>
<text text-anchor="middle" x="494.5" y="-683" font-family="Helvetica,sans-Serif" font-size="10.00"> &lt; SocketAddress &gt;</text>
</g>
<!-- Node11 -->
<g id="node11" class="node">
<title>Node11</title>
<g id="a_node11"><a xlink:href="classnet_1_1_config_conn.html" target="_top" xlink:title=" ">
<polygon fill="white" stroke="black" points="516,-267.5 516,-500.5 656,-500.5 656,-267.5 516,-267.5"/>
<text text-anchor="middle" x="586" y="-488.5" font-family="Helvetica,sans-Serif" font-size="10.00">net::ConfigConn</text>
<polyline fill="none" stroke="black" points="516,-481.5 656,-481.5 "/>
<text text-anchor="start" x="524" y="-469.5" font-family="Helvetica,sans-Serif" font-size="10.00">&#45; connectionSc</text>
<text text-anchor="start" x="524" y="-458.5" font-family="Helvetica,sans-Serif" font-size="10.00">&#45; readTimeoutOpt</text>
<text text-anchor="start" x="524" y="-447.5" font-family="Helvetica,sans-Serif" font-size="10.00">&#45; writeTimeoutOpt</text>
<text text-anchor="start" x="524" y="-436.5" font-family="Helvetica,sans-Serif" font-size="10.00">&#45; readBlockSizeOpt</text>
<text text-anchor="start" x="524" y="-425.5" font-family="Helvetica,sans-Serif" font-size="10.00">&#45; writeBlockSizeOpt</text>
<text text-anchor="start" x="524" y="-414.5" font-family="Helvetica,sans-Serif" font-size="10.00">&#45; terminateTimeoutOpt</text>
<text text-anchor="start" x="524" y="-403.5" font-family="Helvetica,sans-Serif" font-size="10.00">&#45; name</text>
<text text-anchor="start" x="524" y="-392.5" font-family="Helvetica,sans-Serif" font-size="10.00">&#45; readTimeout</text>
<text text-anchor="start" x="524" y="-381.5" font-family="Helvetica,sans-Serif" font-size="10.00">&#45; writeTimeout</text>
<text text-anchor="start" x="524" y="-370.5" font-family="Helvetica,sans-Serif" font-size="10.00">&#45; readBlockSize</text>
<text text-anchor="start" x="524" y="-359.5" font-family="Helvetica,sans-Serif" font-size="10.00">&#45; writeBlockSize</text>
<text text-anchor="start" x="524" y="-348.5" font-family="Helvetica,sans-Serif" font-size="10.00">&#45; terminateTimeout</text>
<polyline fill="none" stroke="black" points="516,-341.5 656,-341.5 "/>
<text text-anchor="start" x="524" y="-329.5" font-family="Helvetica,sans-Serif" font-size="10.00">+ ConfigConn()</text>
<text text-anchor="start" x="524" y="-318.5" font-family="Helvetica,sans-Serif" font-size="10.00">+ getReadTimeout()</text>
<text text-anchor="start" x="524" y="-307.5" font-family="Helvetica,sans-Serif" font-size="10.00">+ getWriteTimeout()</text>
<text text-anchor="start" x="524" y="-296.5" font-family="Helvetica,sans-Serif" font-size="10.00">+ getReadBlockSize()</text>
<text text-anchor="start" x="524" y="-285.5" font-family="Helvetica,sans-Serif" font-size="10.00">+ getWriteBlockSize()</text>
<text text-anchor="start" x="524" y="-274.5" font-family="Helvetica,sans-Serif" font-size="10.00">+ getTerminateTimeout()</text>
</a>
</g>
</g>
<!-- Node11&#45;&gt;Node2 -->
<g id="edge10" class="edge">
<title>Node11&#45;&gt;Node2</title>
<path fill="none" stroke="midnightblue" d="M507.85,-267.64C507.57,-267.42 507.28,-267.21 507,-267 463.62,-234.65 439.55,-253.9 391,-230 372.49,-220.89 353.48,-208.21 337.9,-196.77"/>
<polygon fill="none" stroke="midnightblue" points="505.9,-270.57 515.85,-274.2 510.34,-265.15 505.9,-270.57"/>
</g>
<!-- Node12 -->
<g id="node12" class="node">
<title>Node12</title>
<g id="a_node12"><a xlink:href="classnet_1_1_config_tls.html" target="_top" xlink:title=" ">
<polygon fill="white" stroke="black" points="400,-106.5 400,-229.5 540,-229.5 540,-106.5 400,-106.5"/>
<text text-anchor="middle" x="470" y="-217.5" font-family="Helvetica,sans-Serif" font-size="10.00">net::ConfigTls</text>
<polyline fill="none" stroke="black" points="400,-210.5 540,-210.5 "/>
<text text-anchor="start" x="408" y="-198.5" font-family="Helvetica,sans-Serif" font-size="10.00">&#45; tlsSc</text>
<text text-anchor="start" x="408" y="-187.5" font-family="Helvetica,sans-Serif" font-size="10.00">&#45; tlsInitTimeoutOpt</text>
<text text-anchor="start" x="408" y="-176.5" font-family="Helvetica,sans-Serif" font-size="10.00">&#45; tlsShutdownTimeoutOpt</text>
<text text-anchor="start" x="408" y="-165.5" font-family="Helvetica,sans-Serif" font-size="10.00">&#45; initTimeout</text>
<text text-anchor="start" x="408" y="-154.5" font-family="Helvetica,sans-Serif" font-size="10.00">&#45; shutdownTimeout</text>
<polyline fill="none" stroke="black" points="400,-147.5 540,-147.5 "/>
<text text-anchor="start" x="408" y="-135.5" font-family="Helvetica,sans-Serif" font-size="10.00">+ ConfigTls()</text>
<text text-anchor="start" x="408" y="-124.5" font-family="Helvetica,sans-Serif" font-size="10.00">+ getInitTimeout()</text>
<text text-anchor="start" x="408" y="-113.5" font-family="Helvetica,sans-Serif" font-size="10.00">+ getShutdownTimeout()</text>
</a>
</g>
</g>
<!-- Node12&#45;&gt;Node1 -->
<g id="edge11" class="edge">
<title>Node12&#45;&gt;Node1</title>
<path fill="none" stroke="midnightblue" d="M425.77,-97.76C419.31,-87.65 412.93,-77.65 407.22,-68.73"/>
<polygon fill="none" stroke="midnightblue" points="422.86,-99.71 431.2,-106.25 428.76,-95.94 422.86,-99.71"/>
</g>
</g>
</svg>
