<?xml version="1.0" encoding="UTF-8" standalone="no"?>
<!DOCTYPE svg PUBLIC "-//W3C//DTD SVG 1.1//EN"
 "http://www.w3.org/Graphics/SVG/1.1/DTD/svg11.dtd">
<!-- Generated by graphviz version 2.43.0 (0)
 -->
<!-- Title: core::EventLoop::init Pages: 1 -->
<svg width="702pt" height="923pt"
 viewBox="0.00 0.00 702.00 922.50" xmlns="http://www.w3.org/2000/svg" xmlns:xlink="http://www.w3.org/1999/xlink">
<g id="graph0" class="graph" transform="scale(1 1) rotate(0) translate(4 918.5)">
<title>core::EventLoop::init</title>
<polygon fill="white" stroke="transparent" points="-4,4 -4,-918.5 698,-918.5 698,4 -4,4"/>
<!-- Node1 -->
<g id="node1" class="node">
<title>Node1</title>
<g id="a_node1"><a xlink:title=" ">
<polygon fill="#bfbfbf" stroke="black" points="0,-431.5 0,-450.5 116,-450.5 116,-431.5 0,-431.5"/>
<text text-anchor="middle" x="58" y="-438.5" font-family="Helvetica,sans-Serif" font-size="10.00">core::EventLoop::init</text>
</a>
</g>
</g>
<!-- Node2 -->
<g id="node2" class="node">
<title>Node2</title>
<g id="a_node2"><a xlink:href="namespacecore.html#ac82d0e7a5fcc66169eb61cb7dd27b814" target="_top" xlink:title=" ">
<polygon fill="white" stroke="black" points="152,-845.5 152,-864.5 310,-864.5 310,-845.5 152,-845.5"/>
<text text-anchor="middle" x="231" y="-852.5" font-family="Helvetica,sans-Serif" font-size="10.00">core::getTickCounterAsString</text>
</a>
</g>
</g>
<!-- Node1&#45;&gt;Node2 -->
<g id="edge1" class="edge">
<title>Node1&#45;&gt;Node2</title>
<path fill="none" stroke="midnightblue" d="M63.06,-450.83C85.28,-504.63 192.31,-763.75 222.22,-836.17"/>
<polygon fill="midnightblue" stroke="midnightblue" points="219,-837.54 226.05,-845.45 225.47,-834.87 219,-837.54"/>
</g>
<!-- Node5 -->
<g id="node5" class="node">
<title>Node5</title>
<g id="a_node5"><a xlink:href="classutils_1_1_config.html#ab333855436d345d6b25766b9a1bd917a" target="_top" xlink:title=" ">
<polygon fill="white" stroke="black" points="182.5,-431.5 182.5,-450.5 279.5,-450.5 279.5,-431.5 182.5,-431.5"/>
<text text-anchor="middle" x="231" y="-438.5" font-family="Helvetica,sans-Serif" font-size="10.00">utils::Config::init</text>
</a>
</g>
</g>
<!-- Node1&#45;&gt;Node5 -->
<g id="edge4" class="edge">
<title>Node1&#45;&gt;Node5</title>
<path fill="none" stroke="midnightblue" d="M116.42,-441C134.42,-441 154.3,-441 172.33,-441"/>
<polygon fill="midnightblue" stroke="midnightblue" points="172.41,-444.5 182.41,-441 172.41,-437.5 172.41,-444.5"/>
</g>
<!-- Node33 -->
<g id="node33" class="node">
<title>Node33</title>
<g id="a_node33"><a xlink:href="classlogger_1_1_logger.html#a545211a93eadc019ebe4301426594a69" target="_top" xlink:title=" ">
<polygon fill="white" stroke="black" points="158.5,-382 158.5,-412 303.5,-412 303.5,-382 158.5,-382"/>
<text text-anchor="start" x="166.5" y="-400" font-family="Helvetica,sans-Serif" font-size="10.00">logger::Logger::setCustom</text>
<text text-anchor="middle" x="231" y="-389" font-family="Helvetica,sans-Serif" font-size="10.00">FormatSpec</text>
</a>
</g>
</g>
<!-- Node1&#45;&gt;Node33 -->
<g id="edge34" class="edge">
<title>Node1&#45;&gt;Node33</title>
<path fill="none" stroke="midnightblue" d="M96.1,-431.45C115.27,-426.52 139.28,-420.34 161.65,-414.59"/>
<polygon fill="midnightblue" stroke="midnightblue" points="162.64,-417.95 171.45,-412.07 160.89,-411.17 162.64,-417.95"/>
</g>
<!-- Node3 -->
<g id="node3" class="node">
<title>Node3</title>
<g id="a_node3"><a xlink:href="classcore_1_1_event_loop.html#aef20810c9fcf4c7b33a5b6dbab1973b9" target="_top" xlink:title=" ">
<polygon fill="white" stroke="black" points="358.5,-884 358.5,-914 494.5,-914 494.5,-884 358.5,-884"/>
<text text-anchor="start" x="366.5" y="-902" font-family="Helvetica,sans-Serif" font-size="10.00">core::EventLoop::getTick</text>
<text text-anchor="middle" x="426.5" y="-891" font-family="Helvetica,sans-Serif" font-size="10.00">Counter</text>
</a>
</g>
</g>
<!-- Node2&#45;&gt;Node3 -->
<g id="edge2" class="edge">
<title>Node2&#45;&gt;Node3</title>
<path fill="none" stroke="midnightblue" d="M273.99,-864.55C295.97,-869.55 323.57,-875.82 349.17,-881.64"/>
<polygon fill="midnightblue" stroke="midnightblue" points="348.72,-885.13 359.25,-883.93 350.27,-878.3 348.72,-885.13"/>
</g>
<!-- Node4 -->
<g id="node4" class="node">
<title>Node4</title>
<g id="a_node4"><a xlink:href="namespace_c_l_i_1_1detail.html#a0e94052d485636fc9f18c21009026577" target="_top" xlink:title="Convert an object to a string (directly forward if this can become a string)">
<polygon fill="white" stroke="black" points="561.5,-826.5 561.5,-845.5 675.5,-845.5 675.5,-826.5 561.5,-826.5"/>
<text text-anchor="middle" x="618.5" y="-833.5" font-family="Helvetica,sans-Serif" font-size="10.00">CLI::detail::to_string</text>
</a>
</g>
</g>
<!-- Node2&#45;&gt;Node4 -->
<g id="edge3" class="edge">
<title>Node2&#45;&gt;Node4</title>
<path fill="none" stroke="midnightblue" d="M310.01,-851.16C380.95,-847.66 484.5,-842.56 551.44,-839.26"/>
<polygon fill="midnightblue" stroke="midnightblue" points="551.64,-842.75 561.45,-838.76 551.29,-835.76 551.64,-842.75"/>
</g>
<!-- Node6 -->
<g id="node6" class="node">
<title>Node6</title>
<g id="a_node6"><a xlink:href="class_c_l_i_1_1_app.html#a8f7500a81c09b8eecc301226e018ddfe" target="_top" xlink:title="Add a flag with no description or variable assignment.">
<polygon fill="white" stroke="black" points="374.5,-769.5 374.5,-788.5 478.5,-788.5 478.5,-769.5 374.5,-769.5"/>
<text text-anchor="middle" x="426.5" y="-776.5" font-family="Helvetica,sans-Serif" font-size="10.00">CLI::App::add_flag</text>
</a>
</g>
</g>
<!-- Node5&#45;&gt;Node6 -->
<g id="edge5" class="edge">
<title>Node5&#45;&gt;Node6</title>
<path fill="none" stroke="midnightblue" d="M232.3,-450.58C234.2,-493.78 247.93,-672.04 346,-760 351.45,-764.89 357.93,-768.57 364.8,-771.35"/>
<polygon fill="midnightblue" stroke="midnightblue" points="363.76,-774.69 374.35,-774.59 366.01,-768.06 363.76,-774.69"/>
</g>
<!-- Node7 -->
<g id="node7" class="node">
<title>Node7</title>
<g id="a_node7"><a xlink:href="class_c_l_i_1_1_app.html#a1f9503a8cdceb4e5b42c9fd4ae6b7b10" target="_top" xlink:title=" ">
<polygon fill="white" stroke="black" points="368.5,-731.5 368.5,-750.5 484.5,-750.5 484.5,-731.5 368.5,-731.5"/>
<text text-anchor="middle" x="426.5" y="-738.5" font-family="Helvetica,sans-Serif" font-size="10.00">CLI::App::add_option</text>
</a>
</g>
</g>
<!-- Node5&#45;&gt;Node7 -->
<g id="edge6" class="edge">
<title>Node5&#45;&gt;Node7</title>
<path fill="none" stroke="midnightblue" d="M232.81,-450.52C236.73,-490.45 257.37,-645.82 346,-722 349.93,-725.38 354.37,-728.19 359.08,-730.51"/>
<polygon fill="midnightblue" stroke="midnightblue" points="357.83,-733.78 368.41,-734.4 360.53,-727.32 357.83,-733.78"/>
</g>
<!-- Node8 -->
<g id="node8" class="node">
<title>Node8</title>
<g id="a_node8"><a xlink:href="class_c_l_i_1_1_app.html#ab79c8db4726b90b6fef32998b56931df" target="_top" xlink:title="ignore extras in config files">
<polygon fill="white" stroke="black" points="364.5,-682 364.5,-712 488.5,-712 488.5,-682 364.5,-682"/>
<text text-anchor="start" x="372.5" y="-700" font-family="Helvetica,sans-Serif" font-size="10.00">CLI::App::allow_config</text>
<text text-anchor="middle" x="426.5" y="-689" font-family="Helvetica,sans-Serif" font-size="10.00">_extras</text>
</a>
</g>
</g>
<!-- Node5&#45;&gt;Node8 -->
<g id="edge7" class="edge">
<title>Node5&#45;&gt;Node8</title>
<path fill="none" stroke="midnightblue" d="M233.9,-450.56C241.35,-485.65 271.97,-608.56 346,-672 348.86,-674.45 351.96,-676.66 355.22,-678.66"/>
<polygon fill="midnightblue" stroke="midnightblue" points="353.71,-681.82 364.18,-683.45 357.01,-675.64 353.71,-681.82"/>
</g>
<!-- Node9 -->
<g id="node9" class="node">
<title>Node9</title>
<g id="a_node9"><a xlink:href="class_c_l_i_1_1_app.html#a4a9c762c56b6ff0f5b3505bcb75d0bbe" target="_top" xlink:title="Remove the error when extras are left over on the command line.">
<polygon fill="white" stroke="black" points="364,-643.5 364,-662.5 489,-662.5 489,-643.5 364,-643.5"/>
<text text-anchor="middle" x="426.5" y="-650.5" font-family="Helvetica,sans-Serif" font-size="10.00">CLI::App::allow_extras</text>
</a>
</g>
</g>
<!-- Node5&#45;&gt;Node9 -->
<g id="edge8" class="edge">
<title>Node5&#45;&gt;Node9</title>
<path fill="none" stroke="midnightblue" d="M234.79,-450.89C244.35,-482.9 279,-584.54 346,-634 348.68,-635.98 351.54,-637.76 354.53,-639.35"/>
<polygon fill="midnightblue" stroke="midnightblue" points="353.24,-642.61 363.78,-643.61 356.16,-636.25 353.24,-642.61"/>
</g>
<!-- Node10 -->
<g id="node10" class="node">
<title>Node10</title>
<g id="a_node10"><a xlink:href="class_c_l_i_1_1_option_base.html#affbb9fb4e20744e377767952507503f0" target="_top" xlink:title="Allow in a configuration file.">
<polygon fill="white" stroke="black" points="346,-605.5 346,-624.5 507,-624.5 507,-605.5 346,-605.5"/>
<text text-anchor="middle" x="426.5" y="-612.5" font-family="Helvetica,sans-Serif" font-size="10.00">CLI::OptionBase::configurable</text>
</a>
</g>
</g>
<!-- Node5&#45;&gt;Node10 -->
<g id="edge9" class="edge">
<title>Node5&#45;&gt;Node10</title>
<path fill="none" stroke="midnightblue" d="M236.23,-450.85C248.65,-478.52 287.82,-557.41 346,-596 349.08,-598.04 352.35,-599.86 355.75,-601.49"/>
<polygon fill="midnightblue" stroke="midnightblue" points="354.41,-604.73 364.99,-605.36 357.12,-598.27 354.41,-604.73"/>
</g>
<!-- Node11 -->
<g id="node11" class="node">
<title>Node11</title>
<g id="a_node11"><a xlink:href="class_c_l_i_1_1_app.html#abb3478595ba469884249b28b3f39b737" target="_top" xlink:title="Specify that the subcommand can be triggered by a config file.">
<polygon fill="white" stroke="black" points="365,-567.5 365,-586.5 488,-586.5 488,-567.5 365,-567.5"/>
<text text-anchor="middle" x="426.5" y="-574.5" font-family="Helvetica,sans-Serif" font-size="10.00">CLI::App::configurable</text>
</a>
</g>
</g>
<!-- Node5&#45;&gt;Node11 -->
<g id="edge10" class="edge">
<title>Node5&#45;&gt;Node11</title>
<path fill="none" stroke="midnightblue" d="M238.43,-450.65C254.01,-473.22 296.18,-529.71 346,-558 349.92,-560.23 354.1,-562.2 358.4,-563.93"/>
<polygon fill="midnightblue" stroke="midnightblue" points="357.39,-567.29 367.98,-567.38 359.76,-560.7 357.39,-567.29"/>
</g>
<!-- Node12 -->
<g id="node12" class="node">
<title>Node12</title>
<g id="a_node12"><a xlink:href="classutils_1_1_daemon.html#a89558caabfc72463184fd408e199554b" target="_top" xlink:title=" ">
<polygon fill="white" stroke="black" points="354,-491.5 354,-510.5 499,-510.5 499,-491.5 354,-491.5"/>
<text text-anchor="middle" x="426.5" y="-498.5" font-family="Helvetica,sans-Serif" font-size="10.00">utils::Daemon::daemonize</text>
</a>
</g>
</g>
<!-- Node5&#45;&gt;Node12 -->
<g id="edge11" class="edge">
<title>Node5&#45;&gt;Node12</title>
<path fill="none" stroke="midnightblue" d="M256.2,-450.59C279.1,-459.45 314.56,-472.62 346,-482 354.21,-484.45 362.97,-486.8 371.56,-488.96"/>
<polygon fill="midnightblue" stroke="midnightblue" points="370.98,-492.42 381.53,-491.41 372.65,-485.63 370.98,-492.42"/>
</g>
<!-- Node15 -->
<g id="node15" class="node">
<title>Node15</title>
<g id="a_node15"><a xlink:href="class_c_l_i_1_1_option.html#a4685cebdb75c6bf8ce0095fd08d8b892" target="_top" xlink:title=" ">
<polygon fill="white" stroke="black" points="361,-807.5 361,-826.5 492,-826.5 492,-807.5 361,-807.5"/>
<text text-anchor="middle" x="426.5" y="-814.5" font-family="Helvetica,sans-Serif" font-size="10.00">CLI::Option::default_val</text>
</a>
</g>
</g>
<!-- Node5&#45;&gt;Node15 -->
<g id="edge14" class="edge">
<title>Node5&#45;&gt;Node15</title>
<path fill="none" stroke="midnightblue" d="M231.89,-450.74C231.92,-497.22 238.46,-698.19 346,-798 347.91,-799.77 349.96,-801.39 352.11,-802.86"/>
<polygon fill="midnightblue" stroke="midnightblue" points="350.46,-805.95 360.88,-807.87 353.92,-799.87 350.46,-805.95"/>
</g>
<!-- Node16 -->
<g id="node16" class="node">
<title>Node16</title>
<g id="a_node16"><a xlink:href="class_c_l_i_1_1_app.html#a5c26c64a49536e623739685f42475fc2" target="_top" xlink:title="Set the description of the app.">
<polygon fill="white" stroke="black" points="368.5,-453.5 368.5,-472.5 484.5,-472.5 484.5,-453.5 368.5,-453.5"/>
<text text-anchor="middle" x="426.5" y="-460.5" font-family="Helvetica,sans-Serif" font-size="10.00">CLI::App::description</text>
</a>
</g>
</g>
<!-- Node5&#45;&gt;Node16 -->
<g id="edge16" class="edge">
<title>Node5&#45;&gt;Node16</title>
<path fill="none" stroke="midnightblue" d="M279.83,-446.44C303.44,-449.12 332.33,-452.41 358.14,-455.34"/>
<polygon fill="midnightblue" stroke="midnightblue" points="357.9,-458.84 368.24,-456.49 358.69,-451.88 357.9,-458.84"/>
</g>
<!-- Node17 -->
<g id="node17" class="node">
<title>Node17</title>
<g id="a_node17"><a xlink:href="class_c_l_i_1_1_option.html#abffc5b37b17b35b72b0489fc022e6e78" target="_top" xlink:title="Disable flag overrides values, e.g. –flag=is not allowed.">
<polygon fill="white" stroke="black" points="371,-404 371,-434 482,-434 482,-404 371,-404"/>
<text text-anchor="start" x="379" y="-422" font-family="Helvetica,sans-Serif" font-size="10.00">CLI::Option::disable</text>
<text text-anchor="middle" x="426.5" y="-411" font-family="Helvetica,sans-Serif" font-size="10.00">_flag_override</text>
</a>
</g>
</g>
<!-- Node5&#45;&gt;Node17 -->
<g id="edge17" class="edge">
<title>Node5&#45;&gt;Node17</title>
<path fill="none" stroke="midnightblue" d="M279.83,-435.56C304.24,-432.79 334.3,-429.37 360.75,-426.36"/>
<polygon fill="midnightblue" stroke="midnightblue" points="361.15,-429.84 370.69,-425.23 360.36,-422.88 361.15,-429.84"/>
</g>
<!-- Node18 -->
<g id="node18" class="node">
<title>Node18</title>
<g id="a_node18"><a xlink:href="class_c_l_i_1_1_option.html#a9597b8271ebc4ad41c2e86f31834a1a3" target="_top" xlink:title="Sets excluded options.">
<polygon fill="white" stroke="black" points="367,-365.5 367,-384.5 486,-384.5 486,-365.5 367,-365.5"/>
<text text-anchor="middle" x="426.5" y="-372.5" font-family="Helvetica,sans-Serif" font-size="10.00">CLI::Option::excludes</text>
</a>
</g>
</g>
<!-- Node5&#45;&gt;Node18 -->
<g id="edge18" class="edge">
<title>Node5&#45;&gt;Node18</title>
<path fill="none" stroke="midnightblue" d="M279.66,-432.63C289.94,-429.94 300.55,-426.46 310,-422 328.08,-413.46 327.95,-403.61 346,-395 352.04,-392.12 358.55,-389.62 365.14,-387.46"/>
<polygon fill="midnightblue" stroke="midnightblue" points="366.26,-390.78 374.82,-384.54 364.24,-384.08 366.26,-390.78"/>
</g>
<!-- Node19 -->
<g id="node19" class="node">
<title>Node19</title>
<g id="a_node19"><a xlink:href="classlogger_1_1_logger.html#ae9110417eeb7d90905d72e0ff6fd9212" target="_top" xlink:title=" ">
<polygon fill="white" stroke="black" points="372.5,-327.5 372.5,-346.5 480.5,-346.5 480.5,-327.5 372.5,-327.5"/>
<text text-anchor="middle" x="426.5" y="-334.5" font-family="Helvetica,sans-Serif" font-size="10.00">logger::Logger::init</text>
</a>
</g>
</g>
<!-- Node5&#45;&gt;Node19 -->
<g id="edge19" class="edge">
<title>Node5&#45;&gt;Node19</title>
<path fill="none" stroke="midnightblue" d="M279.78,-435.93C290.5,-433.09 301.27,-428.71 310,-422 336.49,-401.64 319.46,-376.3 346,-356 351.03,-352.15 356.72,-349.07 362.69,-346.6"/>
<polygon fill="midnightblue" stroke="midnightblue" points="364,-349.85 372.25,-343.2 361.65,-343.25 364,-349.85"/>
</g>
<!-- Node21 -->
<g id="node21" class="node">
<title>Node21</title>
<g id="a_node21"><a xlink:href="classutils_1_1_daemon.html#aaf715f5b5f989773fd7cee261560ff37" target="_top" xlink:title=" ">
<polygon fill="white" stroke="black" points="373.5,-529.5 373.5,-548.5 479.5,-548.5 479.5,-529.5 373.5,-529.5"/>
<text text-anchor="middle" x="426.5" y="-536.5" font-family="Helvetica,sans-Serif" font-size="10.00">utils::Daemon::kill</text>
</a>
</g>
</g>
<!-- Node5&#45;&gt;Node21 -->
<g id="edge21" class="edge">
<title>Node5&#45;&gt;Node21</title>
<path fill="none" stroke="midnightblue" d="M242.8,-450.59C262.11,-467.22 304.45,-501.43 346,-520 351.48,-522.45 357.31,-524.61 363.24,-526.5"/>
<polygon fill="midnightblue" stroke="midnightblue" points="362.68,-529.98 373.26,-529.45 364.65,-523.27 362.68,-529.98"/>
</g>
<!-- Node24 -->
<g id="node24" class="node">
<title>Node24</title>
<g id="a_node24"><a xlink:href="classlogger_1_1_logger.html#a2fe71814296a418393065c3c7299ff41" target="_top" xlink:title=" ">
<polygon fill="white" stroke="black" points="359.5,-289.5 359.5,-308.5 493.5,-308.5 493.5,-289.5 359.5,-289.5"/>
<text text-anchor="middle" x="426.5" y="-296.5" font-family="Helvetica,sans-Serif" font-size="10.00">logger::Logger::logToFile</text>
</a>
</g>
</g>
<!-- Node5&#45;&gt;Node24 -->
<g id="edge25" class="edge">
<title>Node5&#45;&gt;Node24</title>
<path fill="none" stroke="midnightblue" d="M279.81,-437.15C290.77,-434.29 301.65,-429.6 310,-422 346.18,-389.08 309.75,-350.84 346,-318 347.71,-316.45 349.52,-315.02 351.42,-313.71"/>
<polygon fill="midnightblue" stroke="midnightblue" points="353.3,-316.66 360.2,-308.61 349.79,-310.6 353.3,-316.66"/>
</g>
<!-- Node25 -->
<g id="node25" class="node">
<title>Node25</title>
<g id="a_node25"><a xlink:href="class_c_l_i_1_1_app.html#a2aee3915a2e24fc7806e25b9bbc2b37c" target="_top" xlink:title="Get the OptionDefault object, to set option defaults.">
<polygon fill="white" stroke="black" points="357.5,-251.5 357.5,-270.5 495.5,-270.5 495.5,-251.5 357.5,-251.5"/>
<text text-anchor="middle" x="426.5" y="-258.5" font-family="Helvetica,sans-Serif" font-size="10.00">CLI::App::option_defaults</text>
</a>
</g>
</g>
<!-- Node5&#45;&gt;Node25 -->
<g id="edge26" class="edge">
<title>Node5&#45;&gt;Node25</title>
<path fill="none" stroke="midnightblue" d="M279.87,-437.75C290.96,-434.88 301.88,-430.04 310,-422 356.25,-376.18 299.65,-325.72 346,-280 347.44,-278.58 348.97,-277.26 350.56,-276.03"/>
<polygon fill="midnightblue" stroke="midnightblue" points="352.51,-278.94 359.09,-270.63 348.77,-273.03 352.51,-278.94"/>
</g>
<!-- Node26 -->
<g id="node26" class="node">
<title>Node26</title>
<g id="a_node26"><a xlink:href="classutils_1_1_config.html#aa5ea623fdeef48f8a74ae158d3292b11" target="_top" xlink:title=" ">
<polygon fill="white" stroke="black" points="372.5,-213.5 372.5,-232.5 480.5,-232.5 480.5,-213.5 372.5,-213.5"/>
<text text-anchor="middle" x="426.5" y="-220.5" font-family="Helvetica,sans-Serif" font-size="10.00">utils::Config::parse</text>
</a>
</g>
</g>
<!-- Node5&#45;&gt;Node26 -->
<g id="edge27" class="edge">
<title>Node5&#45;&gt;Node26</title>
<path fill="none" stroke="midnightblue" d="M279.75,-438.13C290.98,-435.28 301.99,-430.35 310,-422 366.48,-363.13 289.39,-300.75 346,-242 350.76,-237.06 356.56,-233.3 362.84,-230.47"/>
<polygon fill="midnightblue" stroke="midnightblue" points="364.17,-233.71 372.32,-226.93 361.72,-227.15 364.17,-233.71"/>
</g>
<!-- Node28 -->
<g id="node28" class="node">
<title>Node28</title>
<g id="a_node28"><a xlink:href="classlogger_1_1_logger.html#a9eece213fbcc8ebf67fd69fc73a0dd4b" target="_top" xlink:title=" ">
<polygon fill="white" stroke="black" points="368,-175.5 368,-194.5 485,-194.5 485,-175.5 368,-175.5"/>
<text text-anchor="middle" x="426.5" y="-182.5" font-family="Helvetica,sans-Serif" font-size="10.00">logger::Logger::quiet</text>
</a>
</g>
</g>
<!-- Node5&#45;&gt;Node28 -->
<g id="edge29" class="edge">
<title>Node5&#45;&gt;Node28</title>
<path fill="none" stroke="midnightblue" d="M279.54,-438.42C290.9,-435.58 302.04,-430.58 310,-422 376.78,-350 279.07,-275.86 346,-204 349.6,-200.14 353.82,-197 358.42,-194.45"/>
<polygon fill="midnightblue" stroke="midnightblue" points="360.01,-197.58 367.66,-190.25 357.11,-191.21 360.01,-197.58"/>
</g>
<!-- Node29 -->
<g id="node29" class="node">
<title>Node29</title>
<g id="a_node29"><a xlink:href="class_c_l_i_1_1_app.html#a5775e30426fb3eb1c5f244d4e649601b" target="_top" xlink:title="Set a configuration ini file option, or clear it if no name passed.">
<polygon fill="white" stroke="black" points="370,-137.5 370,-156.5 483,-156.5 483,-137.5 370,-137.5"/>
<text text-anchor="middle" x="426.5" y="-144.5" font-family="Helvetica,sans-Serif" font-size="10.00">CLI::App::set_config</text>
</a>
</g>
</g>
<!-- Node5&#45;&gt;Node29 -->
<g id="edge30" class="edge">
<title>Node5&#45;&gt;Node29</title>
<path fill="none" stroke="midnightblue" d="M279.68,-438.55C291.04,-435.71 302.14,-430.68 310,-422 387.12,-336.83 268.7,-251.01 346,-166 350.1,-161.49 355.06,-157.96 360.47,-155.21"/>
<polygon fill="midnightblue" stroke="midnightblue" points="362.05,-158.34 369.95,-151.27 359.37,-151.88 362.05,-158.34"/>
</g>
<!-- Node30 -->
<g id="node30" class="node">
<title>Node30</title>
<g id="a_node30"><a xlink:href="class_c_l_i_1_1_app.html#a48b15f921a89e4d7c23fc6c79247d2f7" target="_top" xlink:title="Set a help all flag, replaced the existing one if present.">
<polygon fill="white" stroke="black" points="374.5,-88 374.5,-118 478.5,-118 478.5,-88 374.5,-88"/>
<text text-anchor="start" x="382.5" y="-106" font-family="Helvetica,sans-Serif" font-size="10.00">CLI::App::set_help</text>
<text text-anchor="middle" x="426.5" y="-95" font-family="Helvetica,sans-Serif" font-size="10.00">_all_flag</text>
</a>
</g>
</g>
<!-- Node5&#45;&gt;Node30 -->
<g id="edge31" class="edge">
<title>Node5&#45;&gt;Node30</title>
<path fill="none" stroke="midnightblue" d="M279.78,-438.64C291.15,-435.8 302.22,-430.75 310,-422 397.48,-323.63 261.8,-229.19 346,-128 351.08,-121.9 357.62,-117.27 364.78,-113.75"/>
<polygon fill="midnightblue" stroke="midnightblue" points="366.22,-116.94 374.11,-109.87 363.54,-110.48 366.22,-116.94"/>
</g>
<!-- Node31 -->
<g id="node31" class="node">
<title>Node31</title>
<g id="a_node31"><a xlink:href="class_c_l_i_1_1_option_base.html#abd8b4ebfbff744992a543641cad2b278" target="_top" xlink:title="Set the multi option policy to take last.">
<polygon fill="white" stroke="black" points="366,-39 366,-69 487,-69 487,-39 366,-39"/>
<text text-anchor="start" x="374" y="-57" font-family="Helvetica,sans-Serif" font-size="10.00">CLI::OptionBase::take</text>
<text text-anchor="middle" x="426.5" y="-46" font-family="Helvetica,sans-Serif" font-size="10.00">_first</text>
</a>
</g>
</g>
<!-- Node5&#45;&gt;Node31 -->
<g id="edge32" class="edge">
<title>Node5&#45;&gt;Node31</title>
<path fill="none" stroke="midnightblue" d="M279.89,-438.73C291.25,-435.89 302.3,-430.82 310,-422 411.14,-306.23 248.04,-196.47 346,-78 349.16,-74.17 352.92,-70.94 357.04,-68.22"/>
<polygon fill="midnightblue" stroke="midnightblue" points="358.89,-71.19 365.96,-63.3 355.51,-65.06 358.89,-71.19"/>
</g>
<!-- Node32 -->
<g id="node32" class="node">
<title>Node32</title>
<g id="a_node32"><a xlink:href="class_c_l_i_1_1_option.html#addaddebd60f66aaedc13e5fb473db902" target="_top" xlink:title="Set a custom option typestring.">
<polygon fill="white" stroke="black" points="361,-0.5 361,-19.5 492,-19.5 492,-0.5 361,-0.5"/>
<text text-anchor="middle" x="426.5" y="-7.5" font-family="Helvetica,sans-Serif" font-size="10.00">CLI::Option::type_name</text>
</a>
</g>
</g>
<!-- Node5&#45;&gt;Node32 -->
<g id="edge33" class="edge">
<title>Node5&#45;&gt;Node32</title>
<path fill="none" stroke="midnightblue" d="M279.56,-438.9C291.07,-436.08 302.26,-430.97 310,-422 367.27,-355.58 288.58,-95.29 346,-29 347.79,-26.94 349.76,-25.07 351.87,-23.4"/>
<polygon fill="midnightblue" stroke="midnightblue" points="354.1,-26.13 360.65,-17.8 350.33,-20.22 354.1,-26.13"/>
</g>
<!-- Node13 -->
<g id="node13" class="node">
<title>Node13</title>
<g id="a_node13"><a xlink:href="namespacecore_1_1system.html#a2aa41abc7d6ba9da2e5035b74608919a" target="_top" xlink:title=" ">
<polygon fill="white" stroke="black" points="563,-491.5 563,-510.5 674,-510.5 674,-491.5 563,-491.5"/>
<text text-anchor="middle" x="618.5" y="-498.5" font-family="Helvetica,sans-Serif" font-size="10.00">core::system::close</text>
</a>
</g>
</g>
<!-- Node12&#45;&gt;Node13 -->
<g id="edge12" class="edge">
<title>Node12&#45;&gt;Node13</title>
<path fill="none" stroke="midnightblue" d="M499.06,-501C516.74,-501 535.56,-501 552.89,-501"/>
<polygon fill="midnightblue" stroke="midnightblue" points="552.89,-504.5 562.89,-501 552.89,-497.5 552.89,-504.5"/>
</g>
<!-- Node14 -->
<g id="node14" class="node">
<title>Node14</title>
<g id="a_node14"><a xlink:href="namespacecore_1_1system.html#a0e5e3b39e66ee4db8b9bb6065e693d0a" target="_top" xlink:title=" ">
<polygon fill="white" stroke="black" points="561,-453.5 561,-472.5 676,-472.5 676,-453.5 561,-453.5"/>
<text text-anchor="middle" x="618.5" y="-460.5" font-family="Helvetica,sans-Serif" font-size="10.00">core::system::signal</text>
</a>
</g>
</g>
<!-- Node12&#45;&gt;Node14 -->
<g id="edge13" class="edge">
<title>Node12&#45;&gt;Node14</title>
<path fill="none" stroke="midnightblue" d="M475.45,-491.41C501.08,-486.28 532.84,-479.93 559.82,-474.54"/>
<polygon fill="midnightblue" stroke="midnightblue" points="560.78,-477.91 569.9,-472.52 559.41,-471.05 560.78,-477.91"/>
</g>
<!-- Node15&#45;&gt;Node4 -->
<g id="edge15" class="edge">
<title>Node15&#45;&gt;Node4</title>
<path fill="none" stroke="midnightblue" d="M492.09,-823.46C511.15,-825.36 532.03,-827.45 551.2,-829.37"/>
<polygon fill="midnightblue" stroke="midnightblue" points="551.05,-832.87 561.34,-830.38 551.74,-825.91 551.05,-832.87"/>
</g>
<!-- Node20 -->
<g id="node20" class="node">
<title>Node20</title>
<g id="a_node20"><a xlink:href="classlogger_1_1_logger.html#a7d70e6711ec68f00c5c68946fd030ff9" target="_top" xlink:title=" ">
<polygon fill="white" stroke="black" points="543,-327.5 543,-346.5 694,-346.5 694,-327.5 543,-327.5"/>
<text text-anchor="middle" x="618.5" y="-334.5" font-family="Helvetica,sans-Serif" font-size="10.00">logger::Logger::setLogLevel</text>
</a>
</g>
</g>
<!-- Node19&#45;&gt;Node20 -->
<g id="edge20" class="edge">
<title>Node19&#45;&gt;Node20</title>
<path fill="none" stroke="midnightblue" d="M480.68,-337C496.74,-337 514.79,-337 532.39,-337"/>
<polygon fill="midnightblue" stroke="midnightblue" points="532.67,-340.5 542.67,-337 532.67,-333.5 532.67,-340.5"/>
</g>
<!-- Node21&#45;&gt;Node13 -->
<g id="edge22" class="edge">
<title>Node21&#45;&gt;Node13</title>
<path fill="none" stroke="midnightblue" d="M475.45,-529.41C501.08,-524.28 532.84,-517.93 559.82,-512.54"/>
<polygon fill="midnightblue" stroke="midnightblue" points="560.78,-515.91 569.9,-510.52 559.41,-509.05 560.78,-515.91"/>
</g>
<!-- Node22 -->
<g id="node22" class="node">
<title>Node22</title>
<g id="a_node22"><a xlink:href="classutils_1_1_daemon.html#a4e7a6e3a46c5d0f99fc79985e715c7f5" target="_top" xlink:title=" ">
<polygon fill="white" stroke="black" points="546,-567.5 546,-586.5 691,-586.5 691,-567.5 546,-567.5"/>
<text text-anchor="middle" x="618.5" y="-574.5" font-family="Helvetica,sans-Serif" font-size="10.00">utils::Daemon::pidfd_open</text>
</a>
</g>
</g>
<!-- Node21&#45;&gt;Node22 -->
<g id="edge23" class="edge">
<title>Node21&#45;&gt;Node22</title>
<path fill="none" stroke="midnightblue" d="M475.45,-548.59C501.08,-553.72 532.84,-560.07 559.82,-565.46"/>
<polygon fill="midnightblue" stroke="midnightblue" points="559.41,-568.95 569.9,-567.48 560.78,-562.09 559.41,-568.95"/>
</g>
<!-- Node23 -->
<g id="node23" class="node">
<title>Node23</title>
<g id="a_node23"><a xlink:href="namespacecore_1_1system.html#ab33bc3708f662ee03fc101d59ebbea94" target="_top" xlink:title=" ">
<polygon fill="white" stroke="black" points="566.5,-529.5 566.5,-548.5 670.5,-548.5 670.5,-529.5 566.5,-529.5"/>
<text text-anchor="middle" x="618.5" y="-536.5" font-family="Helvetica,sans-Serif" font-size="10.00">core::system::poll</text>
</a>
</g>
</g>
<!-- Node21&#45;&gt;Node23 -->
<g id="edge24" class="edge">
<title>Node21&#45;&gt;Node23</title>
<path fill="none" stroke="midnightblue" d="M479.67,-539C503.42,-539 531.69,-539 556.43,-539"/>
<polygon fill="midnightblue" stroke="midnightblue" points="556.43,-542.5 566.43,-539 556.43,-535.5 556.43,-542.5"/>
</g>
<!-- Node27 -->
<g id="node27" class="node">
<title>Node27</title>
<g id="a_node27"><a xlink:href="class_c_l_i_1_1_app.html#a5ddf139d5fe065289aca7b83d5d045d9" target="_top" xlink:title=" ">
<polygon fill="white" stroke="black" points="574,-213.5 574,-232.5 663,-232.5 663,-213.5 574,-213.5"/>
<text text-anchor="middle" x="618.5" y="-220.5" font-family="Helvetica,sans-Serif" font-size="10.00">CLI::App::parse</text>
</a>
</g>
</g>
<!-- Node26&#45;&gt;Node27 -->
<g id="edge28" class="edge">
<title>Node26&#45;&gt;Node27</title>
<path fill="none" stroke="midnightblue" d="M480.68,-223C506.65,-223 537.84,-223 563.87,-223"/>
<polygon fill="midnightblue" stroke="midnightblue" points="563.94,-226.5 573.94,-223 563.94,-219.5 563.94,-226.5"/>
</g>
</g>
</svg>
