<?xml version="1.0" encoding="UTF-8" standalone="no"?>
<!DOCTYPE svg PUBLIC "-//W3C//DTD SVG 1.1//EN"
 "http://www.w3.org/Graphics/SVG/1.1/DTD/svg11.dtd">
<!-- Generated by graphviz version 2.43.0 (0)
 -->
<!-- Title: core::socket::stream::SocketWriter::doWriteShutdown Pages: 1 -->
<svg width="762pt" height="215pt"
 viewBox="0.00 0.00 762.00 214.50" xmlns="http://www.w3.org/2000/svg" xmlns:xlink="http://www.w3.org/1999/xlink">
<g id="graph0" class="graph" transform="scale(1 1) rotate(0) translate(4 210.5)">
<title>core::socket::stream::SocketWriter::doWriteShutdown</title>
<polygon fill="white" stroke="transparent" points="-4,4 -4,-210.5 758,-210.5 758,4 -4,4"/>
<!-- Node1 -->
<g id="node1" class="node">
<title>Node1</title>
<g id="a_node1"><a xlink:title=" ">
<polygon fill="#bfbfbf" stroke="black" points="577,-110.5 577,-140.5 754,-140.5 754,-110.5 577,-110.5"/>
<text text-anchor="start" x="585" y="-128.5" font-family="Helvetica,sans-Serif" font-size="10.00">core::socket::stream</text>
<text text-anchor="middle" x="665.5" y="-117.5" font-family="Helvetica,sans-Serif" font-size="10.00">::SocketWriter::doWriteShutdown</text>
</a>
</g>
</g>
<!-- Node2 -->
<g id="node2" class="node">
<title>Node2</title>
<g id="a_node2"><a xlink:href="classcore_1_1socket_1_1stream_1_1tls_1_1_socket_connection.html#a9357593ff9cc620f8d212d1ff92e942e" target="_top" xlink:title=" ">
<polygon fill="white" stroke="black" points="408,-165 408,-206 536,-206 536,-165 408,-165"/>
<text text-anchor="start" x="416" y="-194" font-family="Helvetica,sans-Serif" font-size="10.00">core::socket::stream</text>
<text text-anchor="start" x="416" y="-183" font-family="Helvetica,sans-Serif" font-size="10.00">::tls::SocketConnection</text>
<text text-anchor="middle" x="472" y="-172" font-family="Helvetica,sans-Serif" font-size="10.00">::doReadShutdown</text>
</a>
</g>
</g>
<!-- Node1&#45;&gt;Node2 -->
<g id="edge1" class="edge">
<title>Node1&#45;&gt;Node2</title>
<path fill="none" stroke="midnightblue" d="M606.54,-143.66C584.31,-150.62 558.85,-158.6 536.16,-165.71"/>
<polygon fill="midnightblue" stroke="midnightblue" points="607.68,-146.97 616.18,-140.64 605.59,-140.29 607.68,-146.97"/>
</g>
<!-- Node3 -->
<g id="node3" class="node">
<title>Node3</title>
<g id="a_node3"><a xlink:href="classcore_1_1socket_1_1stream_1_1tls_1_1_socket_connection.html#ab5d3bb6c3435c24e7c263d8a39ad55a7" target="_top" xlink:title=" ">
<polygon fill="white" stroke="black" points="408,-105 408,-146 536,-146 536,-105 408,-105"/>
<text text-anchor="start" x="416" y="-134" font-family="Helvetica,sans-Serif" font-size="10.00">core::socket::stream</text>
<text text-anchor="start" x="416" y="-123" font-family="Helvetica,sans-Serif" font-size="10.00">::tls::SocketConnection</text>
<text text-anchor="middle" x="472" y="-112" font-family="Helvetica,sans-Serif" font-size="10.00">::doWriteShutdown</text>
</a>
</g>
</g>
<!-- Node1&#45;&gt;Node3 -->
<g id="edge2" class="edge">
<title>Node1&#45;&gt;Node3</title>
<path fill="none" stroke="midnightblue" d="M566.59,-125.5C556.29,-125.5 546.02,-125.5 536.27,-125.5"/>
<polygon fill="midnightblue" stroke="midnightblue" points="566.88,-129 576.88,-125.5 566.88,-122 566.88,-129"/>
</g>
<!-- Node4 -->
<g id="node4" class="node">
<title>Node4</title>
<g id="a_node4"><a xlink:href="classcore_1_1socket_1_1stream_1_1_socket_writer.html#a9fee72ca1da5a8c610df8b60ff4106dd" target="_top" xlink:title=" ">
<polygon fill="white" stroke="black" points="403,-55.5 403,-85.5 541,-85.5 541,-55.5 403,-55.5"/>
<text text-anchor="start" x="411" y="-73.5" font-family="Helvetica,sans-Serif" font-size="10.00">core::socket::stream</text>
<text text-anchor="middle" x="472" y="-62.5" font-family="Helvetica,sans-Serif" font-size="10.00">::SocketWriter::shutdown</text>
</a>
</g>
</g>
<!-- Node1&#45;&gt;Node4 -->
<g id="edge3" class="edge">
<title>Node1&#45;&gt;Node4</title>
<path fill="none" stroke="midnightblue" d="M602.45,-107.68C577.53,-100.52 549.11,-92.36 525.26,-85.51"/>
<polygon fill="midnightblue" stroke="midnightblue" points="601.59,-111.07 612.17,-110.47 603.53,-104.35 601.59,-111.07"/>
</g>
<!-- Node5 -->
<g id="node5" class="node">
<title>Node5</title>
<g id="a_node5"><a xlink:href="classcore_1_1socket_1_1stream_1_1_socket_writer.html#a7cf7e0d247704957a3d606c9c5143e29" target="_top" xlink:title=" ">
<polygon fill="white" stroke="black" points="221,-110.5 221,-140.5 350,-140.5 350,-110.5 221,-110.5"/>
<text text-anchor="start" x="229" y="-128.5" font-family="Helvetica,sans-Serif" font-size="10.00">core::socket::stream</text>
<text text-anchor="middle" x="285.5" y="-117.5" font-family="Helvetica,sans-Serif" font-size="10.00">::SocketWriter::doWrite</text>
</a>
</g>
</g>
<!-- Node4&#45;&gt;Node5 -->
<g id="edge4" class="edge">
<title>Node4&#45;&gt;Node5</title>
<path fill="none" stroke="midnightblue" d="M410.9,-88.42C386.96,-95.55 359.73,-103.67 336.85,-110.49"/>
<polygon fill="midnightblue" stroke="midnightblue" points="412,-91.74 420.58,-85.53 410,-85.03 412,-91.74"/>
</g>
<!-- Node7 -->
<g id="node7" class="node">
<title>Node7</title>
<g id="a_node7"><a xlink:href="classcore_1_1socket_1_1stream_1_1_socket_connection.html#a645385848a618f16a8492c05ba5dfc5a" target="_top" xlink:title=" ">
<polygon fill="white" stroke="black" points="204,-50 204,-91 367,-91 367,-50 204,-50"/>
<text text-anchor="start" x="212" y="-79" font-family="Helvetica,sans-Serif" font-size="10.00">core::socket::stream</text>
<text text-anchor="start" x="212" y="-68" font-family="Helvetica,sans-Serif" font-size="10.00">::SocketConnection::shutdown</text>
<text text-anchor="middle" x="285.5" y="-57" font-family="Helvetica,sans-Serif" font-size="10.00">Write</text>
</a>
</g>
</g>
<!-- Node4&#45;&gt;Node7 -->
<g id="edge6" class="edge">
<title>Node4&#45;&gt;Node7</title>
<path fill="none" stroke="midnightblue" d="M392.65,-70.5C384.22,-70.5 375.64,-70.5 367.19,-70.5"/>
<polygon fill="midnightblue" stroke="midnightblue" points="392.82,-74 402.82,-70.5 392.82,-67 392.82,-74"/>
</g>
<!-- Node8 -->
<g id="node8" class="node">
<title>Node8</title>
<g id="a_node8"><a xlink:href="classcore_1_1socket_1_1stream_1_1_socket_writer.html#a3ad452718fe51eb997addacda7eb03fb" target="_top" xlink:title=" ">
<polygon fill="white" stroke="black" points="216,-0.5 216,-30.5 355,-30.5 355,-0.5 216,-0.5"/>
<text text-anchor="start" x="224" y="-18.5" font-family="Helvetica,sans-Serif" font-size="10.00">core::socket::stream</text>
<text text-anchor="middle" x="285.5" y="-7.5" font-family="Helvetica,sans-Serif" font-size="10.00">::SocketWriter::terminate</text>
</a>
</g>
</g>
<!-- Node4&#45;&gt;Node8 -->
<g id="edge7" class="edge">
<title>Node4&#45;&gt;Node8</title>
<path fill="none" stroke="midnightblue" d="M410.9,-52.58C386.96,-45.45 359.73,-37.33 336.85,-30.51"/>
<polygon fill="midnightblue" stroke="midnightblue" points="410,-55.97 420.58,-55.47 412,-49.26 410,-55.97"/>
</g>
<!-- Node6 -->
<g id="node6" class="node">
<title>Node6</title>
<g id="a_node6"><a xlink:href="classcore_1_1socket_1_1stream_1_1_socket_connection.html#afecd9701e798eb07a5f2358603d12fa7" target="_top" xlink:title=" ">
<polygon fill="white" stroke="black" points="0,-110.5 0,-140.5 168,-140.5 168,-110.5 0,-110.5"/>
<text text-anchor="start" x="8" y="-128.5" font-family="Helvetica,sans-Serif" font-size="10.00">core::socket::stream</text>
<text text-anchor="middle" x="84" y="-117.5" font-family="Helvetica,sans-Serif" font-size="10.00">::SocketConnection::writeEvent</text>
</a>
</g>
</g>
<!-- Node5&#45;&gt;Node6 -->
<g id="edge5" class="edge">
<title>Node5&#45;&gt;Node6</title>
<path fill="none" stroke="midnightblue" d="M210.44,-125.5C196.65,-125.5 182.15,-125.5 168.11,-125.5"/>
<polygon fill="midnightblue" stroke="midnightblue" points="210.83,-129 220.83,-125.5 210.83,-122 210.83,-129"/>
</g>
</g>
</svg>
