<?xml version="1.0" encoding="UTF-8" standalone="no"?>
<!DOCTYPE svg PUBLIC "-//W3C//DTD SVG 1.1//EN"
 "http://www.w3.org/Graphics/SVG/1.1/DTD/svg11.dtd">
<!-- Generated by graphviz version 2.43.0 (0)
 -->
<!-- Title: web/websocket/client/SocketContextUpgrade.cpp Pages: 1 -->
<svg width="928pt" height="441pt"
 viewBox="0.00 0.00 928.00 441.00" xmlns="http://www.w3.org/2000/svg" xmlns:xlink="http://www.w3.org/1999/xlink">
<g id="graph0" class="graph" transform="scale(1 1) rotate(0) translate(4 437)">
<title>web/websocket/client/SocketContextUpgrade.cpp</title>
<polygon fill="white" stroke="transparent" points="-4,4 -4,-437 924,-437 924,4 -4,4"/>
<!-- Node1 -->
<g id="node1" class="node">
<title>Node1</title>
<g id="a_node1"><a xlink:title=" ">
<polygon fill="#bfbfbf" stroke="black" points="446.5,-402.5 446.5,-432.5 586.5,-432.5 586.5,-402.5 446.5,-402.5"/>
<text text-anchor="start" x="454.5" y="-420.5" font-family="Helvetica,sans-Serif" font-size="10.00">web/websocket/client</text>
<text text-anchor="middle" x="516.5" y="-409.5" font-family="Helvetica,sans-Serif" font-size="10.00">/SocketContextUpgrade.cpp</text>
</a>
</g>
</g>
<!-- Node2 -->
<g id="node2" class="node">
<title>Node2</title>
<g id="a_node2"><a xlink:href="websocket_2client_2_socket_context_upgrade_8h.html" target="_top" xlink:title=" ">
<polygon fill="white" stroke="black" points="264.5,-201.5 264.5,-231.5 394.5,-231.5 394.5,-201.5 264.5,-201.5"/>
<text text-anchor="start" x="272.5" y="-219.5" font-family="Helvetica,sans-Serif" font-size="10.00">web/websocket/client</text>
<text text-anchor="middle" x="329.5" y="-208.5" font-family="Helvetica,sans-Serif" font-size="10.00">/SocketContextUpgrade.h</text>
</a>
</g>
</g>
<!-- Node1&#45;&gt;Node2 -->
<g id="edge1" class="edge">
<title>Node1&#45;&gt;Node2</title>
<path fill="none" stroke="midnightblue" d="M457.45,-402.47C405.9,-386.75 334.2,-355.7 300.5,-299 289.46,-280.42 299.99,-256.97 311.34,-240"/>
<polygon fill="midnightblue" stroke="midnightblue" points="314.25,-241.95 317.24,-231.78 308.56,-237.87 314.25,-241.95"/>
</g>
<!-- Node8 -->
<g id="node8" class="node">
<title>Node8</title>
<g id="a_node8"><a xlink:href="websocket_2client_2_socket_context_upgrade_factory_8h.html" target="_top" xlink:title=" ">
<polygon fill="white" stroke="black" points="310,-268.5 310,-298.5 471,-298.5 471,-268.5 310,-268.5"/>
<text text-anchor="start" x="318" y="-286.5" font-family="Helvetica,sans-Serif" font-size="10.00">web/websocket/client</text>
<text text-anchor="middle" x="390.5" y="-275.5" font-family="Helvetica,sans-Serif" font-size="10.00">/SocketContextUpgradeFactory.h</text>
</a>
</g>
</g>
<!-- Node1&#45;&gt;Node8 -->
<g id="edge7" class="edge">
<title>Node1&#45;&gt;Node8</title>
<path fill="none" stroke="midnightblue" d="M503.02,-402.37C480.94,-379.25 436.96,-333.18 411.01,-305.99"/>
<polygon fill="midnightblue" stroke="midnightblue" points="413.32,-303.34 403.89,-298.52 408.26,-308.17 413.32,-303.34"/>
</g>
<!-- Node12 -->
<g id="node12" class="node">
<title>Node12</title>
<g id="a_node12"><a xlink:href="client_2_sub_protocol_factory_8h.html" target="_top" xlink:title=" ">
<polygon fill="white" stroke="black" points="503,-335.5 503,-365.5 616,-365.5 616,-335.5 503,-335.5"/>
<text text-anchor="start" x="511" y="-353.5" font-family="Helvetica,sans-Serif" font-size="10.00">web/websocket/client</text>
<text text-anchor="middle" x="559.5" y="-342.5" font-family="Helvetica,sans-Serif" font-size="10.00">/SubProtocolFactory.h</text>
</a>
</g>
</g>
<!-- Node1&#45;&gt;Node12 -->
<g id="edge13" class="edge">
<title>Node1&#45;&gt;Node12</title>
<path fill="none" stroke="midnightblue" d="M525.83,-402.4C531.3,-394.13 538.33,-383.51 544.55,-374.1"/>
<polygon fill="midnightblue" stroke="midnightblue" points="547.59,-375.85 550.19,-365.58 541.75,-371.99 547.59,-375.85"/>
</g>
<!-- Node16 -->
<g id="node16" class="node">
<title>Node16</title>
<g id="a_node16"><a xlink:href="client_2_sub_protocol_factory_selector_8h.html" target="_top" xlink:title=" ">
<polygon fill="white" stroke="black" points="706,-335.5 706,-365.5 855,-365.5 855,-335.5 706,-335.5"/>
<text text-anchor="start" x="714" y="-353.5" font-family="Helvetica,sans-Serif" font-size="10.00">web/websocket/client</text>
<text text-anchor="middle" x="780.5" y="-342.5" font-family="Helvetica,sans-Serif" font-size="10.00">/SubProtocolFactorySelector.h</text>
</a>
</g>
</g>
<!-- Node1&#45;&gt;Node16 -->
<g id="edge18" class="edge">
<title>Node1&#45;&gt;Node16</title>
<path fill="none" stroke="midnightblue" d="M573.46,-402.48C614.52,-392.37 670.09,-378.68 713.32,-368.04"/>
<polygon fill="midnightblue" stroke="midnightblue" points="714.31,-371.4 723.19,-365.61 712.64,-364.6 714.31,-371.4"/>
</g>
<!-- Node3 -->
<g id="node3" class="node">
<title>Node3</title>
<g id="a_node3"><a xlink:href="websocket_2_socket_context_upgrade_8h.html" target="_top" xlink:title=" ">
<polygon fill="white" stroke="black" points="192,-134.5 192,-164.5 345,-164.5 345,-134.5 192,-134.5"/>
<text text-anchor="start" x="200" y="-152.5" font-family="Helvetica,sans-Serif" font-size="10.00">web/websocket/SocketContext</text>
<text text-anchor="middle" x="268.5" y="-141.5" font-family="Helvetica,sans-Serif" font-size="10.00">Upgrade.h</text>
</a>
</g>
</g>
<!-- Node2&#45;&gt;Node3 -->
<g id="edge2" class="edge">
<title>Node2&#45;&gt;Node3</title>
<path fill="none" stroke="midnightblue" d="M316.26,-201.4C308.19,-192.79 297.71,-181.63 288.63,-171.94"/>
<polygon fill="midnightblue" stroke="midnightblue" points="291.11,-169.47 281.71,-164.58 286,-174.26 291.11,-169.47"/>
</g>
<!-- Node4 -->
<g id="node4" class="node">
<title>Node4</title>
<g id="a_node4"><a xlink:href="http_2_socket_context_upgrade_8h.html" target="_top" xlink:title=" ">
<polygon fill="white" stroke="black" points="316,-73 316,-92 483,-92 483,-73 316,-73"/>
<text text-anchor="middle" x="399.5" y="-80" font-family="Helvetica,sans-Serif" font-size="10.00">web/http/SocketContextUpgrade.h</text>
</a>
</g>
</g>
<!-- Node3&#45;&gt;Node4 -->
<g id="edge3" class="edge">
<title>Node3&#45;&gt;Node4</title>
<path fill="none" stroke="midnightblue" d="M296.93,-134.4C319.61,-123.14 351.13,-107.5 373.22,-96.54"/>
<polygon fill="midnightblue" stroke="midnightblue" points="374.95,-99.59 382.36,-92.01 371.84,-93.32 374.95,-99.59"/>
</g>
<!-- Node6 -->
<g id="node6" class="node">
<title>Node6</title>
<g id="a_node6"><a xlink:href="_receiver_8h.html" target="_top" xlink:title=" ">
<polygon fill="white" stroke="black" points="163.5,-73 163.5,-92 297.5,-92 297.5,-73 163.5,-73"/>
<text text-anchor="middle" x="230.5" y="-80" font-family="Helvetica,sans-Serif" font-size="10.00">web/websocket/Receiver.h</text>
</a>
</g>
</g>
<!-- Node3&#45;&gt;Node6 -->
<g id="edge5" class="edge">
<title>Node3&#45;&gt;Node6</title>
<path fill="none" stroke="midnightblue" d="M260.25,-134.4C254.51,-124.56 246.8,-111.38 240.67,-100.89"/>
<polygon fill="midnightblue" stroke="midnightblue" points="243.65,-99.06 235.58,-92.19 237.61,-102.59 243.65,-99.06"/>
</g>
<!-- Node7 -->
<g id="node7" class="node">
<title>Node7</title>
<g id="a_node7"><a xlink:href="_transmitter_8h.html" target="_top" xlink:title=" ">
<polygon fill="white" stroke="black" points="0,-73 0,-92 145,-92 145,-73 0,-73"/>
<text text-anchor="middle" x="72.5" y="-80" font-family="Helvetica,sans-Serif" font-size="10.00">web/websocket/Transmitter.h</text>
</a>
</g>
</g>
<!-- Node3&#45;&gt;Node7 -->
<g id="edge6" class="edge">
<title>Node3&#45;&gt;Node7</title>
<path fill="none" stroke="midnightblue" d="M225.97,-134.4C190.67,-122.69 141.04,-106.23 107.88,-95.23"/>
<polygon fill="midnightblue" stroke="midnightblue" points="108.75,-91.83 98.15,-92.01 106.54,-98.48 108.75,-91.83"/>
</g>
<!-- Node5 -->
<g id="node5" class="node">
<title>Node5</title>
<g id="a_node5"><a xlink:href="core_2socket_2stream_2_socket_context_8h.html" target="_top" xlink:title=" ">
<polygon fill="white" stroke="black" points="404,-0.5 404,-30.5 505,-30.5 505,-0.5 404,-0.5"/>
<text text-anchor="start" x="412" y="-18.5" font-family="Helvetica,sans-Serif" font-size="10.00">core/socket/stream</text>
<text text-anchor="middle" x="454.5" y="-7.5" font-family="Helvetica,sans-Serif" font-size="10.00">/SocketContext.h</text>
</a>
</g>
</g>
<!-- Node4&#45;&gt;Node5 -->
<g id="edge4" class="edge">
<title>Node4&#45;&gt;Node5</title>
<path fill="none" stroke="midnightblue" d="M406.92,-72.73C414.35,-63.95 426.09,-50.08 436.04,-38.31"/>
<polygon fill="midnightblue" stroke="midnightblue" points="438.79,-40.48 442.58,-30.59 433.45,-35.96 438.79,-40.48"/>
</g>
<!-- Node8&#45;&gt;Node2 -->
<g id="edge12" class="edge">
<title>Node8&#45;&gt;Node2</title>
<path fill="none" stroke="midnightblue" d="M377.26,-268.4C369.19,-259.79 358.71,-248.63 349.63,-238.94"/>
<polygon fill="midnightblue" stroke="midnightblue" points="352.11,-236.47 342.71,-231.58 347,-241.26 352.11,-236.47"/>
</g>
<!-- Node9 -->
<g id="node9" class="node">
<title>Node9</title>
<g id="a_node9"><a xlink:href="http_2client_2_socket_context_upgrade_factory_8h.html" target="_top" xlink:title=" ">
<polygon fill="white" stroke="black" points="436,-201.5 436,-231.5 585,-231.5 585,-201.5 436,-201.5"/>
<text text-anchor="start" x="444" y="-219.5" font-family="Helvetica,sans-Serif" font-size="10.00">web/http/client/SocketContext</text>
<text text-anchor="middle" x="510.5" y="-208.5" font-family="Helvetica,sans-Serif" font-size="10.00">UpgradeFactory.h</text>
</a>
</g>
</g>
<!-- Node8&#45;&gt;Node9 -->
<g id="edge8" class="edge">
<title>Node8&#45;&gt;Node9</title>
<path fill="none" stroke="midnightblue" d="M416.54,-268.4C433.84,-259.03 456.75,-246.62 475.62,-236.39"/>
<polygon fill="midnightblue" stroke="midnightblue" points="477.39,-239.42 484.51,-231.58 474.05,-233.26 477.39,-239.42"/>
</g>
<!-- Node9&#45;&gt;Node5 -->
<g id="edge9" class="edge">
<title>Node9&#45;&gt;Node5</title>
<path fill="none" stroke="midnightblue" d="M510.99,-201.41C511.45,-174.33 510.1,-113.59 491.5,-67 487.45,-56.86 480.88,-46.89 474.39,-38.53"/>
<polygon fill="midnightblue" stroke="midnightblue" points="477.07,-36.28 468.02,-30.76 471.65,-40.71 477.07,-36.28"/>
</g>
<!-- Node10 -->
<g id="node10" class="node">
<title>Node10</title>
<g id="a_node10"><a xlink:href="http_2_socket_context_upgrade_factory_8h.html" target="_top" xlink:title=" ">
<polygon fill="white" stroke="black" points="538,-134.5 538,-164.5 697,-164.5 697,-134.5 538,-134.5"/>
<text text-anchor="start" x="546" y="-152.5" font-family="Helvetica,sans-Serif" font-size="10.00">web/http/SocketContextUpgrade</text>
<text text-anchor="middle" x="617.5" y="-141.5" font-family="Helvetica,sans-Serif" font-size="10.00">Factory.h</text>
</a>
</g>
</g>
<!-- Node9&#45;&gt;Node10 -->
<g id="edge10" class="edge">
<title>Node9&#45;&gt;Node10</title>
<path fill="none" stroke="midnightblue" d="M533.72,-201.4C548.86,-192.2 568.83,-180.07 585.47,-169.95"/>
<polygon fill="midnightblue" stroke="midnightblue" points="587.6,-172.76 594.33,-164.58 583.96,-166.78 587.6,-172.76"/>
</g>
<!-- Node11 -->
<g id="node11" class="node">
<title>Node11</title>
<g id="a_node11"><a xlink:href="core_2socket_2stream_2_socket_context_factory_8h.html" target="_top" xlink:title=" ">
<polygon fill="white" stroke="black" points="555,-67.5 555,-97.5 680,-97.5 680,-67.5 555,-67.5"/>
<text text-anchor="start" x="563" y="-85.5" font-family="Helvetica,sans-Serif" font-size="10.00">core/socket/stream</text>
<text text-anchor="middle" x="617.5" y="-74.5" font-family="Helvetica,sans-Serif" font-size="10.00">/SocketContextFactory.h</text>
</a>
</g>
</g>
<!-- Node10&#45;&gt;Node11 -->
<g id="edge11" class="edge">
<title>Node10&#45;&gt;Node11</title>
<path fill="none" stroke="midnightblue" d="M617.5,-134.4C617.5,-126.64 617.5,-116.81 617.5,-107.86"/>
<polygon fill="midnightblue" stroke="midnightblue" points="621,-107.58 617.5,-97.58 614,-107.58 621,-107.58"/>
</g>
<!-- Node13 -->
<g id="node13" class="node">
<title>Node13</title>
<g id="a_node13"><a xlink:href="_sub_protocol_factory_8h.html" target="_top" xlink:title=" ">
<polygon fill="white" stroke="black" points="489,-268.5 489,-298.5 630,-298.5 630,-268.5 489,-268.5"/>
<text text-anchor="start" x="497" y="-286.5" font-family="Helvetica,sans-Serif" font-size="10.00">web/websocket/SubProtocol</text>
<text text-anchor="middle" x="559.5" y="-275.5" font-family="Helvetica,sans-Serif" font-size="10.00">Factory.h</text>
</a>
</g>
</g>
<!-- Node12&#45;&gt;Node13 -->
<g id="edge14" class="edge">
<title>Node12&#45;&gt;Node13</title>
<path fill="none" stroke="midnightblue" d="M559.5,-335.4C559.5,-327.64 559.5,-317.81 559.5,-308.86"/>
<polygon fill="midnightblue" stroke="midnightblue" points="563,-308.58 559.5,-298.58 556,-308.58 563,-308.58"/>
</g>
<!-- Node14 -->
<g id="node14" class="node">
<title>Node14</title>
<g id="a_node14"><a xlink:href="client_2_sub_protocol_8h.html" target="_top" xlink:title=" ">
<polygon fill="white" stroke="black" points="648,-268.5 648,-298.5 759,-298.5 759,-268.5 648,-268.5"/>
<text text-anchor="start" x="656" y="-286.5" font-family="Helvetica,sans-Serif" font-size="10.00">web/websocket/client</text>
<text text-anchor="middle" x="703.5" y="-275.5" font-family="Helvetica,sans-Serif" font-size="10.00">/SubProtocol.h</text>
</a>
</g>
</g>
<!-- Node12&#45;&gt;Node14 -->
<g id="edge15" class="edge">
<title>Node12&#45;&gt;Node14</title>
<path fill="none" stroke="midnightblue" d="M590.75,-335.4C611.97,-325.81 640.25,-313.05 663.18,-302.7"/>
<polygon fill="midnightblue" stroke="midnightblue" points="664.64,-305.88 672.32,-298.58 661.76,-299.5 664.64,-305.88"/>
</g>
<!-- Node14&#45;&gt;Node2 -->
<g id="edge17" class="edge">
<title>Node14&#45;&gt;Node2</title>
<path fill="none" stroke="midnightblue" d="M647.87,-269.87C644.71,-269.22 641.57,-268.59 638.5,-268 594.96,-259.59 481.38,-241.39 404.74,-229.29"/>
<polygon fill="midnightblue" stroke="midnightblue" points="405.08,-225.8 394.65,-227.7 403.99,-232.71 405.08,-225.8"/>
</g>
<!-- Node15 -->
<g id="node15" class="node">
<title>Node15</title>
<g id="a_node15"><a xlink:href="_sub_protocol_8h.html" target="_top" xlink:title=" ">
<polygon fill="white" stroke="black" points="626,-207 626,-226 775,-226 775,-207 626,-207"/>
<text text-anchor="middle" x="700.5" y="-214" font-family="Helvetica,sans-Serif" font-size="10.00">web/websocket/SubProtocol.h</text>
</a>
</g>
</g>
<!-- Node14&#45;&gt;Node15 -->
<g id="edge16" class="edge">
<title>Node14&#45;&gt;Node15</title>
<path fill="none" stroke="midnightblue" d="M702.85,-268.4C702.41,-258.96 701.84,-246.45 701.36,-236.19"/>
<polygon fill="midnightblue" stroke="midnightblue" points="704.86,-236.02 700.9,-226.19 697.87,-236.35 704.86,-236.02"/>
</g>
<!-- Node17 -->
<g id="node17" class="node">
<title>Node17</title>
<g id="a_node17"><a xlink:href="_sub_protocol_factory_selector_8h.html" target="_top" xlink:title=" ">
<polygon fill="white" stroke="black" points="779,-268.5 779,-298.5 920,-298.5 920,-268.5 779,-268.5"/>
<text text-anchor="start" x="787" y="-286.5" font-family="Helvetica,sans-Serif" font-size="10.00">web/websocket/SubProtocol</text>
<text text-anchor="middle" x="849.5" y="-275.5" font-family="Helvetica,sans-Serif" font-size="10.00">FactorySelector.h</text>
</a>
</g>
</g>
<!-- Node16&#45;&gt;Node17 -->
<g id="edge19" class="edge">
<title>Node16&#45;&gt;Node17</title>
<path fill="none" stroke="midnightblue" d="M795.47,-335.4C804.69,-326.71 816.69,-315.4 827.04,-305.66"/>
<polygon fill="midnightblue" stroke="midnightblue" points="829.68,-307.98 834.56,-298.58 824.88,-302.89 829.68,-307.98"/>
</g>
<!-- Node18 -->
<g id="node18" class="node">
<title>Node18</title>
<g id="a_node18"><a xlink:href="_dynamic_loader_8h.html" target="_top" xlink:title=" ">
<polygon fill="white" stroke="black" points="793.5,-207 793.5,-226 907.5,-226 907.5,-207 793.5,-207"/>
<text text-anchor="middle" x="850.5" y="-214" font-family="Helvetica,sans-Serif" font-size="10.00">core/DynamicLoader.h</text>
</a>
</g>
</g>
<!-- Node17&#45;&gt;Node18 -->
<g id="edge20" class="edge">
<title>Node17&#45;&gt;Node18</title>
<path fill="none" stroke="midnightblue" d="M849.72,-268.4C849.86,-259.06 850.05,-246.71 850.21,-236.52"/>
<polygon fill="midnightblue" stroke="midnightblue" points="853.71,-236.25 850.37,-226.19 846.71,-236.14 853.71,-236.25"/>
</g>
<!-- Node19 -->
<g id="node19" class="node">
<title>Node19</title>
<g id="a_node19"><a xlink:href="dlfcn_8h.html" target="_top" xlink:title=" ">
<polygon fill="white" stroke="black" points="799,-140 799,-159 902,-159 902,-140 799,-140"/>
<text text-anchor="middle" x="850.5" y="-147" font-family="Helvetica,sans-Serif" font-size="10.00">core/system/dlfcn.h</text>
</a>
</g>
</g>
<!-- Node18&#45;&gt;Node19 -->
<g id="edge21" class="edge">
<title>Node18&#45;&gt;Node19</title>
<path fill="none" stroke="midnightblue" d="M850.5,-206.73C850.5,-197.18 850.5,-181.62 850.5,-169.28"/>
<polygon fill="midnightblue" stroke="midnightblue" points="854,-169.13 850.5,-159.13 847,-169.13 854,-169.13"/>
</g>
</g>
</svg>
