<?xml version="1.0" encoding="UTF-8" standalone="no"?>
<!DOCTYPE svg PUBLIC "-//W3C//DTD SVG 1.1//EN"
 "http://www.w3.org/Graphics/SVG/1.1/DTD/svg11.dtd">
<!-- Generated by graphviz version 2.43.0 (0)
 -->
<!-- Title: core/socket/SocketContext.h Pages: 1 -->
<svg width="3221pt" height="542pt"
 viewBox="0.00 0.00 3220.50 542.00" xmlns="http://www.w3.org/2000/svg" xmlns:xlink="http://www.w3.org/1999/xlink">
<g id="graph0" class="graph" transform="scale(1 1) rotate(0) translate(4 538)">
<title>core/socket/SocketContext.h</title>
<polygon fill="white" stroke="transparent" points="-4,4 -4,-538 3216.5,-538 3216.5,4 -4,4"/>
<!-- Node1 -->
<g id="node1" class="node">
<title>Node1</title>
<g id="a_node1"><a xlink:title=" ">
<polygon fill="#bfbfbf" stroke="black" points="1307.5,-514.5 1307.5,-533.5 1462.5,-533.5 1462.5,-514.5 1307.5,-514.5"/>
<text text-anchor="middle" x="1385" y="-521.5" font-family="Helvetica,sans-Serif" font-size="10.00">core/socket/SocketContext.h</text>
</a>
</g>
</g>
<!-- Node2 -->
<g id="node2" class="node">
<title>Node2</title>
<g id="a_node2"><a xlink:href="_socket_connection_8cpp.html" target="_top" xlink:title=" ">
<polygon fill="white" stroke="black" points="871,-458.5 871,-477.5 1053,-477.5 1053,-458.5 871,-458.5"/>
<text text-anchor="middle" x="962" y="-465.5" font-family="Helvetica,sans-Serif" font-size="10.00">core/socket/SocketConnection.cpp</text>
</a>
</g>
</g>
<!-- Node1&#45;&gt;Node2 -->
<g id="edge1" class="edge">
<title>Node1&#45;&gt;Node2</title>
<path fill="none" stroke="midnightblue" d="M1307.97,-513.17C1228.11,-502.97 1104.54,-487.2 1028.71,-477.52"/>
<polygon fill="midnightblue" stroke="midnightblue" points="1307.61,-516.65 1317.97,-514.44 1308.5,-509.71 1307.61,-516.65"/>
</g>
<!-- Node3 -->
<g id="node3" class="node">
<title>Node3</title>
<g id="a_node3"><a xlink:href="_socket_context_8cpp.html" target="_top" xlink:title=" ">
<polygon fill="white" stroke="black" points="1071,-458.5 1071,-477.5 1237,-477.5 1237,-458.5 1071,-458.5"/>
<text text-anchor="middle" x="1154" y="-465.5" font-family="Helvetica,sans-Serif" font-size="10.00">core/socket/SocketContext.cpp</text>
</a>
</g>
</g>
<!-- Node1&#45;&gt;Node3 -->
<g id="edge2" class="edge">
<title>Node1&#45;&gt;Node3</title>
<path fill="none" stroke="midnightblue" d="M1338.6,-512.15C1294.95,-501.95 1230.49,-486.88 1190.43,-477.52"/>
<polygon fill="midnightblue" stroke="midnightblue" points="1337.86,-515.58 1348.4,-514.44 1339.46,-508.76 1337.86,-515.58"/>
</g>
<!-- Node4 -->
<g id="node4" class="node">
<title>Node4</title>
<g id="a_node4"><a xlink:href="http_2client_2_socket_context_upgrade_factory_8h.html" target="_top" xlink:title=" ">
<polygon fill="white" stroke="black" points="949.5,-391.5 949.5,-421.5 1112.5,-421.5 1112.5,-391.5 949.5,-391.5"/>
<text text-anchor="start" x="957.5" y="-409.5" font-family="Helvetica,sans-Serif" font-size="10.00">web/http/client/SocketContext</text>
<text text-anchor="middle" x="1031" y="-398.5" font-family="Helvetica,sans-Serif" font-size="10.00">UpgradeFactory.h</text>
</a>
</g>
</g>
<!-- Node1&#45;&gt;Node4 -->
<g id="edge3" class="edge">
<title>Node1&#45;&gt;Node4</title>
<path fill="none" stroke="midnightblue" d="M1355.38,-510.41C1335.12,-501.65 1307.75,-489.52 1284,-478 1266.83,-469.67 1263.88,-464.68 1246,-458 1202.99,-441.93 1153.17,-429.84 1112.33,-421.53"/>
<polygon fill="midnightblue" stroke="midnightblue" points="1354.13,-513.68 1364.7,-514.42 1356.9,-507.25 1354.13,-513.68"/>
</g>
<!-- Node12 -->
<g id="node12" class="node">
<title>Node12</title>
<g id="a_node12"><a xlink:href="_parser_8cpp.html" target="_top" xlink:title=" ">
<polygon fill="white" stroke="black" points="1713.5,-458.5 1713.5,-477.5 1826.5,-477.5 1826.5,-458.5 1713.5,-458.5"/>
<text text-anchor="middle" x="1770" y="-465.5" font-family="Helvetica,sans-Serif" font-size="10.00">web/http/Parser.cpp</text>
</a>
</g>
</g>
<!-- Node1&#45;&gt;Node12 -->
<g id="edge12" class="edge">
<title>Node1&#45;&gt;Node12</title>
<path fill="none" stroke="midnightblue" d="M1456.19,-513.01C1530.37,-502.61 1645.1,-486.52 1713.36,-476.94"/>
<polygon fill="midnightblue" stroke="midnightblue" points="1455.42,-509.59 1446,-514.44 1456.39,-516.52 1455.42,-509.59"/>
</g>
<!-- Node13 -->
<g id="node13" class="node">
<title>Node13</title>
<g id="a_node13"><a xlink:href="http_2server_2_socket_context_upgrade_factory_8h.html" target="_top" xlink:title=" ">
<polygon fill="white" stroke="black" points="1490.5,-391.5 1490.5,-421.5 1657.5,-421.5 1657.5,-391.5 1490.5,-391.5"/>
<text text-anchor="start" x="1498.5" y="-409.5" font-family="Helvetica,sans-Serif" font-size="10.00">web/http/server/SocketContext</text>
<text text-anchor="middle" x="1574" y="-398.5" font-family="Helvetica,sans-Serif" font-size="10.00">UpgradeFactory.h</text>
</a>
</g>
</g>
<!-- Node1&#45;&gt;Node13 -->
<g id="edge13" class="edge">
<title>Node1&#45;&gt;Node13</title>
<path fill="none" stroke="midnightblue" d="M1417.78,-510.65C1437.82,-502.52 1463.61,-491.01 1485,-478 1512.62,-461.2 1541.38,-436.99 1558.48,-421.76"/>
<polygon fill="midnightblue" stroke="midnightblue" points="1416.45,-507.41 1408.45,-514.36 1419.04,-513.92 1416.45,-507.41"/>
</g>
<!-- Node20 -->
<g id="node20" class="node">
<title>Node20</title>
<g id="a_node20"><a xlink:href="web_2http_2_socket_context_8h.html" target="_top" xlink:title=" ">
<polygon fill="white" stroke="black" points="2124,-330 2124,-349 2266,-349 2266,-330 2124,-330"/>
<text text-anchor="middle" x="2195" y="-337" font-family="Helvetica,sans-Serif" font-size="10.00">web/http/SocketContext.h</text>
</a>
</g>
</g>
<!-- Node1&#45;&gt;Node20 -->
<g id="edge21" class="edge">
<title>Node1&#45;&gt;Node20</title>
<path fill="none" stroke="midnightblue" d="M1433.08,-512.17C1580.52,-478.95 2024.36,-378.95 2157.1,-349.04"/>
<polygon fill="midnightblue" stroke="midnightblue" points="1431.97,-508.83 1422.98,-514.44 1433.51,-515.66 1431.97,-508.83"/>
</g>
<!-- Node54 -->
<g id="node37" class="node">
<title>Node54</title>
<g id="a_node37"><a xlink:href="http_2_socket_context_upgrade_8h.html" target="_top" xlink:title=" ">
<polygon fill="white" stroke="black" points="1293.5,-458.5 1293.5,-477.5 1476.5,-477.5 1476.5,-458.5 1293.5,-458.5"/>
<text text-anchor="middle" x="1385" y="-465.5" font-family="Helvetica,sans-Serif" font-size="10.00">web/http/SocketContextUpgrade.h</text>
</a>
</g>
</g>
<!-- Node1&#45;&gt;Node54 -->
<g id="edge41" class="edge">
<title>Node1&#45;&gt;Node54</title>
<path fill="none" stroke="midnightblue" d="M1385,-503.8C1385,-494.91 1385,-484.78 1385,-477.75"/>
<polygon fill="midnightblue" stroke="midnightblue" points="1381.5,-504.08 1385,-514.08 1388.5,-504.08 1381.5,-504.08"/>
</g>
<!-- Node5 -->
<g id="node5" class="node">
<title>Node5</title>
<g id="a_node5"><a xlink:href="http_2client_2_socket_context_upgrade_factory_8cpp.html" target="_top" xlink:title=" ">
<polygon fill="white" stroke="black" points="1032.5,-257.5 1032.5,-287.5 1195.5,-287.5 1195.5,-257.5 1032.5,-257.5"/>
<text text-anchor="start" x="1040.5" y="-275.5" font-family="Helvetica,sans-Serif" font-size="10.00">web/http/client/SocketContext</text>
<text text-anchor="middle" x="1114" y="-264.5" font-family="Helvetica,sans-Serif" font-size="10.00">UpgradeFactory.cpp</text>
</a>
</g>
</g>
<!-- Node4&#45;&gt;Node5 -->
<g id="edge4" class="edge">
<title>Node4&#45;&gt;Node5</title>
<path fill="none" stroke="midnightblue" d="M1014.59,-382.45C1004.57,-365.3 995.67,-341.87 1007,-324 1018,-306.65 1036.73,-295.15 1055.48,-287.57"/>
<polygon fill="midnightblue" stroke="midnightblue" points="1011.85,-384.67 1020.15,-391.26 1017.77,-380.93 1011.85,-384.67"/>
</g>
<!-- Node6 -->
<g id="node6" class="node">
<title>Node6</title>
<g id="a_node6"><a xlink:href="client_2_socket_context_upgrade_factory_selector_8h.html" target="_top" xlink:title=" ">
<polygon fill="white" stroke="black" points="1400.5,-324.5 1400.5,-354.5 1563.5,-354.5 1563.5,-324.5 1400.5,-324.5"/>
<text text-anchor="start" x="1408.5" y="-342.5" font-family="Helvetica,sans-Serif" font-size="10.00">web/http/client/SocketContext</text>
<text text-anchor="middle" x="1482" y="-331.5" font-family="Helvetica,sans-Serif" font-size="10.00">UpgradeFactorySelector.h</text>
</a>
</g>
</g>
<!-- Node4&#45;&gt;Node6 -->
<g id="edge5" class="edge">
<title>Node4&#45;&gt;Node6</title>
<path fill="none" stroke="midnightblue" d="M1122.62,-393.13C1195.41,-383.18 1299.79,-368.66 1391,-355 1394.01,-354.55 1397.07,-354.09 1400.16,-353.61"/>
<polygon fill="midnightblue" stroke="midnightblue" points="1121.99,-389.68 1112.56,-394.5 1122.94,-396.62 1121.99,-389.68"/>
</g>
<!-- Node10 -->
<g id="node10" class="node">
<title>Node10</title>
<g id="a_node10"><a xlink:href="websocket_2client_2_socket_context_upgrade_factory_8h.html" target="_top" xlink:title=" ">
<polygon fill="white" stroke="black" points="120.5,-257.5 120.5,-287.5 295.5,-287.5 295.5,-257.5 120.5,-257.5"/>
<text text-anchor="start" x="128.5" y="-275.5" font-family="Helvetica,sans-Serif" font-size="10.00">web/websocket/client</text>
<text text-anchor="middle" x="208" y="-264.5" font-family="Helvetica,sans-Serif" font-size="10.00">/SocketContextUpgradeFactory.h</text>
</a>
</g>
</g>
<!-- Node4&#45;&gt;Node10 -->
<g id="edge10" class="edge">
<title>Node4&#45;&gt;Node10</title>
<path fill="none" stroke="midnightblue" d="M939.2,-394.64C926.71,-393.32 914.05,-392.07 902,-391 778.67,-380.08 464.32,-391.48 346,-355 298.67,-340.41 250.44,-306.71 225.45,-287.52"/>
<polygon fill="midnightblue" stroke="midnightblue" points="938.85,-398.13 949.17,-395.71 939.6,-391.16 938.85,-398.13"/>
</g>
<!-- Node6&#45;&gt;Node5 -->
<g id="edge8" class="edge">
<title>Node6&#45;&gt;Node5</title>
<path fill="none" stroke="midnightblue" d="M1392.64,-322.72C1331.86,-311.98 1252.16,-297.9 1193.57,-287.55"/>
<polygon fill="midnightblue" stroke="midnightblue" points="1392.15,-326.18 1402.6,-324.48 1393.36,-319.29 1392.15,-326.18"/>
</g>
<!-- Node7 -->
<g id="node7" class="node">
<title>Node7</title>
<g id="a_node7"><a xlink:href="web_2http_2client_2_request_8cpp.html" target="_top" xlink:title=" ">
<polygon fill="white" stroke="black" points="1943,-263 1943,-282 2095,-282 2095,-263 1943,-263"/>
<text text-anchor="middle" x="2019" y="-270" font-family="Helvetica,sans-Serif" font-size="10.00">web/http/client/Request.cpp</text>
</a>
</g>
</g>
<!-- Node6&#45;&gt;Node7 -->
<g id="edge6" class="edge">
<title>Node6&#45;&gt;Node7</title>
<path fill="none" stroke="midnightblue" d="M1574.06,-323.92C1734.65,-303.55 1777.49,-309.13 1934,-288 1946.46,-286.32 1959.9,-284.18 1972.33,-282.06"/>
<polygon fill="midnightblue" stroke="midnightblue" points="1573.29,-320.49 1563.82,-325.23 1574.18,-327.43 1573.29,-320.49"/>
</g>
<!-- Node8 -->
<g id="node8" class="node">
<title>Node8</title>
<g id="a_node8"><a xlink:href="web_2http_2client_2_response_8cpp.html" target="_top" xlink:title=" ">
<polygon fill="white" stroke="black" points="1765,-263 1765,-282 1925,-282 1925,-263 1765,-263"/>
<text text-anchor="middle" x="1845" y="-270" font-family="Helvetica,sans-Serif" font-size="10.00">web/http/client/Response.cpp</text>
</a>
</g>
</g>
<!-- Node6&#45;&gt;Node8 -->
<g id="edge7" class="edge">
<title>Node6&#45;&gt;Node8</title>
<path fill="none" stroke="midnightblue" d="M1570.23,-322.7C1641.75,-309.9 1739.8,-292.34 1797.37,-282.03"/>
<polygon fill="midnightblue" stroke="midnightblue" points="1569.55,-319.27 1560.32,-324.48 1570.78,-326.16 1569.55,-319.27"/>
</g>
<!-- Node9 -->
<g id="node9" class="node">
<title>Node9</title>
<g id="a_node9"><a xlink:href="client_2_socket_context_upgrade_factory_selector_8cpp.html" target="_top" xlink:title=" ">
<polygon fill="white" stroke="black" points="1213.5,-257.5 1213.5,-287.5 1376.5,-287.5 1376.5,-257.5 1213.5,-257.5"/>
<text text-anchor="start" x="1221.5" y="-275.5" font-family="Helvetica,sans-Serif" font-size="10.00">web/http/client/SocketContext</text>
<text text-anchor="middle" x="1295" y="-264.5" font-family="Helvetica,sans-Serif" font-size="10.00">UpgradeFactorySelector.cpp</text>
</a>
</g>
</g>
<!-- Node6&#45;&gt;Node9 -->
<g id="edge9" class="edge">
<title>Node6&#45;&gt;Node9</title>
<path fill="none" stroke="midnightblue" d="M1431.92,-321.09C1401.73,-310.6 1363.78,-297.41 1335.5,-287.58"/>
<polygon fill="midnightblue" stroke="midnightblue" points="1430.83,-324.42 1441.42,-324.4 1433.13,-317.81 1430.83,-324.42"/>
</g>
<!-- Node11 -->
<g id="node11" class="node">
<title>Node11</title>
<g id="a_node11"><a xlink:href="websocket_2client_2_socket_context_upgrade_factory_8cpp.html" target="_top" xlink:title=" ">
<polygon fill="white" stroke="black" points="0,-190.5 0,-220.5 186,-220.5 186,-190.5 0,-190.5"/>
<text text-anchor="start" x="8" y="-208.5" font-family="Helvetica,sans-Serif" font-size="10.00">web/websocket/client</text>
<text text-anchor="middle" x="93" y="-197.5" font-family="Helvetica,sans-Serif" font-size="10.00">/SocketContextUpgradeFactory.cpp</text>
</a>
</g>
</g>
<!-- Node10&#45;&gt;Node11 -->
<g id="edge11" class="edge">
<title>Node10&#45;&gt;Node11</title>
<path fill="none" stroke="midnightblue" d="M174.02,-252.3C156.03,-242.12 134.32,-229.85 117.9,-220.58"/>
<polygon fill="midnightblue" stroke="midnightblue" points="172.62,-255.52 183.05,-257.4 176.06,-249.43 172.62,-255.52"/>
</g>
<!-- Node14 -->
<g id="node14" class="node">
<title>Node14</title>
<g id="a_node14"><a xlink:href="http_2server_2_socket_context_upgrade_factory_8cpp.html" target="_top" xlink:title=" ">
<polygon fill="white" stroke="black" points="1579.5,-257.5 1579.5,-287.5 1746.5,-287.5 1746.5,-257.5 1579.5,-257.5"/>
<text text-anchor="start" x="1587.5" y="-275.5" font-family="Helvetica,sans-Serif" font-size="10.00">web/http/server/SocketContext</text>
<text text-anchor="middle" x="1663" y="-264.5" font-family="Helvetica,sans-Serif" font-size="10.00">UpgradeFactory.cpp</text>
</a>
</g>
</g>
<!-- Node13&#45;&gt;Node14 -->
<g id="edge14" class="edge">
<title>Node13&#45;&gt;Node14</title>
<path fill="none" stroke="midnightblue" d="M1667.78,-390.39C1706.66,-382.04 1745.4,-370.23 1757,-355 1765.35,-344.04 1764.07,-335.83 1757,-324 1746.83,-306.99 1728.74,-295.37 1711.12,-287.62"/>
<polygon fill="midnightblue" stroke="midnightblue" points="1666.99,-386.98 1657.91,-392.44 1668.42,-393.83 1666.99,-386.98"/>
</g>
<!-- Node15 -->
<g id="node15" class="node">
<title>Node15</title>
<g id="a_node15"><a xlink:href="server_2_socket_context_upgrade_factory_selector_8h.html" target="_top" xlink:title=" ">
<polygon fill="white" stroke="black" points="1581.5,-324.5 1581.5,-354.5 1748.5,-354.5 1748.5,-324.5 1581.5,-324.5"/>
<text text-anchor="start" x="1589.5" y="-342.5" font-family="Helvetica,sans-Serif" font-size="10.00">web/http/server/SocketContext</text>
<text text-anchor="middle" x="1665" y="-331.5" font-family="Helvetica,sans-Serif" font-size="10.00">UpgradeFactorySelector.h</text>
</a>
</g>
</g>
<!-- Node13&#45;&gt;Node15 -->
<g id="edge15" class="edge">
<title>Node13&#45;&gt;Node15</title>
<path fill="none" stroke="midnightblue" d="M1602.07,-385.45C1616.07,-375.45 1632.66,-363.6 1645.29,-354.58"/>
<polygon fill="midnightblue" stroke="midnightblue" points="1599.85,-382.74 1593.75,-391.4 1603.92,-388.43 1599.85,-382.74"/>
</g>
<!-- Node18 -->
<g id="node18" class="node">
<title>Node18</title>
<g id="a_node18"><a xlink:href="websocket_2server_2_socket_context_upgrade_factory_8h.html" target="_top" xlink:title=" ">
<polygon fill="white" stroke="black" points="839.5,-257.5 839.5,-287.5 1014.5,-287.5 1014.5,-257.5 839.5,-257.5"/>
<text text-anchor="start" x="847.5" y="-275.5" font-family="Helvetica,sans-Serif" font-size="10.00">web/websocket/server</text>
<text text-anchor="middle" x="927" y="-264.5" font-family="Helvetica,sans-Serif" font-size="10.00">/SocketContextUpgradeFactory.h</text>
</a>
</g>
</g>
<!-- Node13&#45;&gt;Node18 -->
<g id="edge19" class="edge">
<title>Node13&#45;&gt;Node18</title>
<path fill="none" stroke="midnightblue" d="M1480.3,-391.1C1360.73,-379.97 1100.08,-398.28 1007,-355 975.18,-340.2 949.12,-306.91 936.06,-287.77"/>
<polygon fill="midnightblue" stroke="midnightblue" points="1480.08,-394.59 1490.39,-392.15 1480.81,-387.63 1480.08,-394.59"/>
</g>
<!-- Node15&#45;&gt;Node14 -->
<g id="edge17" class="edge">
<title>Node15&#45;&gt;Node14</title>
<path fill="none" stroke="midnightblue" d="M1664.25,-314.11C1663.97,-305.15 1663.67,-295.32 1663.43,-287.58"/>
<polygon fill="midnightblue" stroke="midnightblue" points="1660.76,-314.51 1664.57,-324.4 1667.76,-314.29 1660.76,-314.51"/>
</g>
<!-- Node16 -->
<g id="node16" class="node">
<title>Node16</title>
<g id="a_node16"><a xlink:href="web_2http_2server_2_response_8cpp.html" target="_top" xlink:title=" ">
<polygon fill="white" stroke="black" points="2113,-263 2113,-282 2277,-282 2277,-263 2113,-263"/>
<text text-anchor="middle" x="2195" y="-270" font-family="Helvetica,sans-Serif" font-size="10.00">web/http/server/Response.cpp</text>
</a>
</g>
</g>
<!-- Node15&#45;&gt;Node16 -->
<g id="edge16" class="edge">
<title>Node15&#45;&gt;Node16</title>
<path fill="none" stroke="midnightblue" d="M1758.96,-328.89C1847.95,-319.5 1985.26,-304.28 2104,-288 2117,-286.22 2131,-284.09 2144.04,-282.02"/>
<polygon fill="midnightblue" stroke="midnightblue" points="1758.47,-325.42 1748.89,-329.95 1759.2,-332.38 1758.47,-325.42"/>
</g>
<!-- Node17 -->
<g id="node17" class="node">
<title>Node17</title>
<g id="a_node17"><a xlink:href="server_2_socket_context_upgrade_factory_selector_8cpp.html" target="_top" xlink:title=" ">
<polygon fill="white" stroke="black" points="1394.5,-257.5 1394.5,-287.5 1561.5,-287.5 1561.5,-257.5 1394.5,-257.5"/>
<text text-anchor="start" x="1402.5" y="-275.5" font-family="Helvetica,sans-Serif" font-size="10.00">web/http/server/SocketContext</text>
<text text-anchor="middle" x="1478" y="-264.5" font-family="Helvetica,sans-Serif" font-size="10.00">UpgradeFactorySelector.cpp</text>
</a>
</g>
</g>
<!-- Node15&#45;&gt;Node17 -->
<g id="edge18" class="edge">
<title>Node15&#45;&gt;Node17</title>
<path fill="none" stroke="midnightblue" d="M1614.92,-321.09C1584.73,-310.6 1546.78,-297.41 1518.5,-287.58"/>
<polygon fill="midnightblue" stroke="midnightblue" points="1613.83,-324.42 1624.42,-324.4 1616.13,-317.81 1613.83,-324.42"/>
</g>
<!-- Node19 -->
<g id="node19" class="node">
<title>Node19</title>
<g id="a_node19"><a xlink:href="websocket_2server_2_socket_context_upgrade_factory_8cpp.html" target="_top" xlink:title=" ">
<polygon fill="white" stroke="black" points="971,-190.5 971,-220.5 1157,-220.5 1157,-190.5 971,-190.5"/>
<text text-anchor="start" x="979" y="-208.5" font-family="Helvetica,sans-Serif" font-size="10.00">web/websocket/server</text>
<text text-anchor="middle" x="1064" y="-197.5" font-family="Helvetica,sans-Serif" font-size="10.00">/SocketContextUpgradeFactory.cpp</text>
</a>
</g>
</g>
<!-- Node18&#45;&gt;Node19 -->
<g id="edge20" class="edge">
<title>Node18&#45;&gt;Node19</title>
<path fill="none" stroke="midnightblue" d="M966.01,-252.99C987.72,-242.69 1014.33,-230.07 1034.33,-220.58"/>
<polygon fill="midnightblue" stroke="midnightblue" points="964.26,-249.95 956.73,-257.4 967.26,-256.27 964.26,-249.95"/>
</g>
<!-- Node20&#45;&gt;Node7 -->
<g id="edge23" class="edge">
<title>Node20&#45;&gt;Node7</title>
<path fill="none" stroke="midnightblue" d="M2161.89,-326.27C2126.96,-313.37 2072.82,-293.38 2042.19,-282.06"/>
<polygon fill="midnightblue" stroke="midnightblue" points="2161.04,-329.69 2171.63,-329.87 2163.46,-323.12 2161.04,-329.69"/>
</g>
<!-- Node20&#45;&gt;Node8 -->
<g id="edge24" class="edge">
<title>Node20&#45;&gt;Node8</title>
<path fill="none" stroke="midnightblue" d="M2138.66,-328.04C2069.82,-315.25 1954.67,-293.87 1890.94,-282.03"/>
<polygon fill="midnightblue" stroke="midnightblue" points="2138.41,-331.55 2148.88,-329.94 2139.69,-324.67 2138.41,-331.55"/>
</g>
<!-- Node20&#45;&gt;Node16 -->
<g id="edge36" class="edge">
<title>Node20&#45;&gt;Node16</title>
<path fill="none" stroke="midnightblue" d="M2195,-319.54C2195,-307.17 2195,-291.62 2195,-282.13"/>
<polygon fill="midnightblue" stroke="midnightblue" points="2191.5,-319.73 2195,-329.73 2198.5,-319.73 2191.5,-319.73"/>
</g>
<!-- Node21 -->
<g id="node21" class="node">
<title>Node21</title>
<g id="a_node21"><a xlink:href="express_2_response_8cpp.html" target="_top" xlink:title=" ">
<polygon fill="white" stroke="black" points="2488.5,-263 2488.5,-282 2613.5,-282 2613.5,-263 2488.5,-263"/>
<text text-anchor="middle" x="2551" y="-270" font-family="Helvetica,sans-Serif" font-size="10.00">express/Response.cpp</text>
</a>
</g>
</g>
<!-- Node20&#45;&gt;Node21 -->
<g id="edge22" class="edge">
<title>Node20&#45;&gt;Node21</title>
<path fill="none" stroke="midnightblue" d="M2255.58,-328.24C2313.33,-318.34 2402.7,-302.74 2480,-288 2489.76,-286.14 2500.26,-284.04 2510.11,-282.04"/>
<polygon fill="midnightblue" stroke="midnightblue" points="2254.79,-324.82 2245.53,-329.96 2255.97,-331.72 2254.79,-324.82"/>
</g>
<!-- Node22 -->
<g id="node22" class="node">
<title>Node22</title>
<g id="a_node22"><a xlink:href="web_2http_2client_2_socket_context_8h.html" target="_top" xlink:title=" ">
<polygon fill="white" stroke="black" points="2632,-263 2632,-282 2804,-282 2804,-263 2632,-263"/>
<text text-anchor="middle" x="2718" y="-270" font-family="Helvetica,sans-Serif" font-size="10.00">web/http/client/SocketContext.h</text>
</a>
</g>
</g>
<!-- Node20&#45;&gt;Node22 -->
<g id="edge25" class="edge">
<title>Node20&#45;&gt;Node22</title>
<path fill="none" stroke="midnightblue" d="M2276.26,-329.74C2362.43,-320.27 2502.47,-304.3 2623,-288 2636.39,-286.19 2650.82,-284.07 2664.29,-282.02"/>
<polygon fill="midnightblue" stroke="midnightblue" points="2275.84,-326.27 2266.28,-330.84 2276.6,-333.23 2275.84,-326.27"/>
</g>
<!-- Node34 -->
<g id="node33" class="node">
<title>Node34</title>
<g id="a_node33"><a xlink:href="web_2http_2server_2_socket_context_8h.html" target="_top" xlink:title=" ">
<polygon fill="white" stroke="black" points="2295,-263 2295,-282 2471,-282 2471,-263 2295,-263"/>
<text text-anchor="middle" x="2383" y="-270" font-family="Helvetica,sans-Serif" font-size="10.00">web/http/server/SocketContext.h</text>
</a>
</g>
</g>
<!-- Node20&#45;&gt;Node34 -->
<g id="edge37" class="edge">
<title>Node20&#45;&gt;Node34</title>
<path fill="none" stroke="midnightblue" d="M2229.89,-326.44C2267.19,-313.54 2325.37,-293.42 2358.23,-282.06"/>
<polygon fill="midnightblue" stroke="midnightblue" points="2228.27,-323.29 2219.96,-329.87 2230.56,-329.91 2228.27,-323.29"/>
</g>
<!-- Node23 -->
<g id="node23" class="node">
<title>Node23</title>
<g id="a_node23"><a xlink:href="client_2_socket_context_8hpp.html" target="_top" xlink:title=" ">
<polygon fill="white" stroke="black" points="2626,-196 2626,-215 2810,-215 2810,-196 2626,-196"/>
<text text-anchor="middle" x="2718" y="-203" font-family="Helvetica,sans-Serif" font-size="10.00">web/http/client/SocketContext.hpp</text>
</a>
</g>
</g>
<!-- Node22&#45;&gt;Node23 -->
<g id="edge26" class="edge">
<title>Node22&#45;&gt;Node23</title>
<path fill="none" stroke="midnightblue" d="M2718,-252.54C2718,-240.17 2718,-224.62 2718,-215.13"/>
<polygon fill="midnightblue" stroke="midnightblue" points="2714.5,-252.73 2718,-262.73 2721.5,-252.73 2714.5,-252.73"/>
</g>
<!-- Node24 -->
<g id="node24" class="node">
<title>Node24</title>
<g id="a_node24"><a xlink:href="web_2http_2client_2_socket_context_factory_8h.html" target="_top" xlink:title=" ">
<polygon fill="white" stroke="black" points="2636.5,-123.5 2636.5,-153.5 2799.5,-153.5 2799.5,-123.5 2636.5,-123.5"/>
<text text-anchor="start" x="2644.5" y="-141.5" font-family="Helvetica,sans-Serif" font-size="10.00">web/http/client/SocketContext</text>
<text text-anchor="middle" x="2718" y="-130.5" font-family="Helvetica,sans-Serif" font-size="10.00">Factory.h</text>
</a>
</g>
</g>
<!-- Node23&#45;&gt;Node24 -->
<g id="edge27" class="edge">
<title>Node23&#45;&gt;Node24</title>
<path fill="none" stroke="midnightblue" d="M2718,-185.41C2718,-175.22 2718,-162.9 2718,-153.59"/>
<polygon fill="midnightblue" stroke="midnightblue" points="2714.5,-185.73 2718,-195.73 2721.5,-185.73 2714.5,-185.73"/>
</g>
<!-- Node25 -->
<g id="node25" class="node">
<title>Node25</title>
<g id="a_node25"><a xlink:href="client_2_client_8h.html" target="_top" xlink:title=" ">
<polygon fill="white" stroke="red" points="2653,-67.5 2653,-86.5 2783,-86.5 2783,-67.5 2653,-67.5"/>
<text text-anchor="middle" x="2718" y="-74.5" font-family="Helvetica,sans-Serif" font-size="10.00">web/http/client/Client.h</text>
</a>
</g>
</g>
<!-- Node24&#45;&gt;Node25 -->
<g id="edge28" class="edge">
<title>Node24&#45;&gt;Node25</title>
<path fill="none" stroke="midnightblue" d="M2718,-113.29C2718,-103.86 2718,-93.65 2718,-86.66"/>
<polygon fill="midnightblue" stroke="midnightblue" points="2714.5,-113.4 2718,-123.4 2721.5,-113.4 2714.5,-113.4"/>
</g>
<!-- Node26 -->
<g id="node26" class="node">
<title>Node26</title>
<g id="a_node26"><a xlink:href="legacy_2in_2_client_8h.html" target="_top" xlink:title=" ">
<polygon fill="white" stroke="black" points="2283.5,-0.5 2283.5,-30.5 2390.5,-30.5 2390.5,-0.5 2283.5,-0.5"/>
<text text-anchor="start" x="2291.5" y="-18.5" font-family="Helvetica,sans-Serif" font-size="10.00">web/http/legacy/in</text>
<text text-anchor="middle" x="2337" y="-7.5" font-family="Helvetica,sans-Serif" font-size="10.00">/Client.h</text>
</a>
</g>
</g>
<!-- Node25&#45;&gt;Node26 -->
<g id="edge29" class="edge">
<title>Node25&#45;&gt;Node26</title>
<path fill="none" stroke="midnightblue" d="M2642.77,-67.2C2578.15,-59.2 2482.61,-46.32 2400,-31 2396.91,-30.43 2393.74,-29.81 2390.55,-29.15"/>
<polygon fill="midnightblue" stroke="midnightblue" points="2642.52,-70.69 2652.87,-68.44 2643.37,-63.75 2642.52,-70.69"/>
</g>
<!-- Node27 -->
<g id="node27" class="node">
<title>Node27</title>
<g id="a_node27"><a xlink:href="legacy_2in6_2_client_8h.html" target="_top" xlink:title=" ">
<polygon fill="white" stroke="black" points="2408.5,-0.5 2408.5,-30.5 2521.5,-30.5 2521.5,-0.5 2408.5,-0.5"/>
<text text-anchor="start" x="2416.5" y="-18.5" font-family="Helvetica,sans-Serif" font-size="10.00">web/http/legacy/in6</text>
<text text-anchor="middle" x="2465" y="-7.5" font-family="Helvetica,sans-Serif" font-size="10.00">/Client.h</text>
</a>
</g>
</g>
<!-- Node25&#45;&gt;Node27 -->
<g id="edge30" class="edge">
<title>Node25&#45;&gt;Node27</title>
<path fill="none" stroke="midnightblue" d="M2672.01,-65.18C2629.77,-55.25 2567.05,-40.5 2521.72,-29.84"/>
<polygon fill="midnightblue" stroke="midnightblue" points="2671.22,-68.59 2681.75,-67.48 2672.82,-61.78 2671.22,-68.59"/>
</g>
<!-- Node28 -->
<g id="node28" class="node">
<title>Node28</title>
<g id="a_node28"><a xlink:href="legacy_2rf_2_client_8h.html" target="_top" xlink:title=" ">
<polygon fill="white" stroke="black" points="2539.5,-0.5 2539.5,-30.5 2644.5,-30.5 2644.5,-0.5 2539.5,-0.5"/>
<text text-anchor="start" x="2547.5" y="-18.5" font-family="Helvetica,sans-Serif" font-size="10.00">web/http/legacy/rf</text>
<text text-anchor="middle" x="2592" y="-7.5" font-family="Helvetica,sans-Serif" font-size="10.00">/Client.h</text>
</a>
</g>
</g>
<!-- Node25&#45;&gt;Node28 -->
<g id="edge31" class="edge">
<title>Node25&#45;&gt;Node28</title>
<path fill="none" stroke="midnightblue" d="M2690.89,-63.2C2670.53,-53.58 2642.66,-40.42 2621.7,-30.52"/>
<polygon fill="midnightblue" stroke="midnightblue" points="2689.41,-66.37 2699.95,-67.48 2692.4,-60.04 2689.41,-66.37"/>
</g>
<!-- Node29 -->
<g id="node29" class="node">
<title>Node29</title>
<g id="a_node29"><a xlink:href="legacy_2un_2_client_8h.html" target="_top" xlink:title=" ">
<polygon fill="white" stroke="black" points="2663,-0.5 2663,-30.5 2773,-30.5 2773,-0.5 2663,-0.5"/>
<text text-anchor="start" x="2671" y="-18.5" font-family="Helvetica,sans-Serif" font-size="10.00">web/http/legacy/un</text>
<text text-anchor="middle" x="2718" y="-7.5" font-family="Helvetica,sans-Serif" font-size="10.00">/Client.h</text>
</a>
</g>
</g>
<!-- Node25&#45;&gt;Node29 -->
<g id="edge32" class="edge">
<title>Node25&#45;&gt;Node29</title>
<path fill="none" stroke="midnightblue" d="M2718,-57.23C2718,-48.59 2718,-38.5 2718,-30.52"/>
<polygon fill="midnightblue" stroke="midnightblue" points="2714.5,-57.48 2718,-67.48 2721.5,-57.48 2714.5,-57.48"/>
</g>
<!-- Node30 -->
<g id="node30" class="node">
<title>Node30</title>
<g id="a_node30"><a xlink:href="tls_2in_2_client_8h.html" target="_top" xlink:title=" ">
<polygon fill="white" stroke="black" points="2791.5,-6 2791.5,-25 2918.5,-25 2918.5,-6 2791.5,-6"/>
<text text-anchor="middle" x="2855" y="-13" font-family="Helvetica,sans-Serif" font-size="10.00">web/http/tls/in/Client.h</text>
</a>
</g>
</g>
<!-- Node25&#45;&gt;Node30 -->
<g id="edge33" class="edge">
<title>Node25&#45;&gt;Node30</title>
<path fill="none" stroke="midnightblue" d="M2746.83,-63.48C2773.44,-51.92 2812.23,-35.08 2835.41,-25.01"/>
<polygon fill="midnightblue" stroke="midnightblue" points="2745.41,-60.28 2737.63,-67.48 2748.2,-66.7 2745.41,-60.28"/>
</g>
<!-- Node31 -->
<g id="node31" class="node">
<title>Node31</title>
<g id="a_node31"><a xlink:href="tls_2in6_2_client_8h.html" target="_top" xlink:title=" ">
<polygon fill="white" stroke="black" points="2936.5,-6 2936.5,-25 3069.5,-25 3069.5,-6 2936.5,-6"/>
<text text-anchor="middle" x="3003" y="-13" font-family="Helvetica,sans-Serif" font-size="10.00">web/http/tls/in6/Client.h</text>
</a>
</g>
</g>
<!-- Node25&#45;&gt;Node31 -->
<g id="edge34" class="edge">
<title>Node25&#45;&gt;Node31</title>
<path fill="none" stroke="midnightblue" d="M2768.76,-65.4C2824.01,-53.87 2911.27,-35.65 2962.24,-25.01"/>
<polygon fill="midnightblue" stroke="midnightblue" points="2767.91,-62.01 2758.83,-67.48 2769.34,-68.86 2767.91,-62.01"/>
</g>
<!-- Node32 -->
<g id="node32" class="node">
<title>Node32</title>
<g id="a_node32"><a xlink:href="tls_2rf_2_client_8h.html" target="_top" xlink:title=" ">
<polygon fill="white" stroke="black" points="3087.5,-6 3087.5,-25 3212.5,-25 3212.5,-6 3087.5,-6"/>
<text text-anchor="middle" x="3150" y="-13" font-family="Helvetica,sans-Serif" font-size="10.00">web/http/tls/rf/Client.h</text>
</a>
</g>
</g>
<!-- Node25&#45;&gt;Node32 -->
<g id="edge35" class="edge">
<title>Node25&#45;&gt;Node32</title>
<path fill="none" stroke="midnightblue" d="M2793.15,-68.35C2866.35,-60.49 2980.64,-47.15 3079,-31 3089.43,-29.29 3100.66,-27.14 3111.04,-25.02"/>
<polygon fill="midnightblue" stroke="midnightblue" points="2792.68,-64.88 2783.1,-69.42 2793.42,-71.84 2792.68,-64.88"/>
</g>
<!-- Node35 -->
<g id="node34" class="node">
<title>Node35</title>
<g id="a_node34"><a xlink:href="server_2_socket_context_8hpp.html" target="_top" xlink:title=" ">
<polygon fill="white" stroke="black" points="2289,-196 2289,-215 2477,-215 2477,-196 2289,-196"/>
<text text-anchor="middle" x="2383" y="-203" font-family="Helvetica,sans-Serif" font-size="10.00">web/http/server/SocketContext.hpp</text>
</a>
</g>
</g>
<!-- Node34&#45;&gt;Node35 -->
<g id="edge38" class="edge">
<title>Node34&#45;&gt;Node35</title>
<path fill="none" stroke="midnightblue" d="M2383,-252.54C2383,-240.17 2383,-224.62 2383,-215.13"/>
<polygon fill="midnightblue" stroke="midnightblue" points="2379.5,-252.73 2383,-262.73 2386.5,-252.73 2379.5,-252.73"/>
</g>
<!-- Node36 -->
<g id="node35" class="node">
<title>Node36</title>
<g id="a_node35"><a xlink:href="web_2http_2server_2_socket_context_factory_8h.html" target="_top" xlink:title=" ">
<polygon fill="white" stroke="black" points="2299.5,-123.5 2299.5,-153.5 2466.5,-153.5 2466.5,-123.5 2299.5,-123.5"/>
<text text-anchor="start" x="2307.5" y="-141.5" font-family="Helvetica,sans-Serif" font-size="10.00">web/http/server/SocketContext</text>
<text text-anchor="middle" x="2383" y="-130.5" font-family="Helvetica,sans-Serif" font-size="10.00">Factory.h</text>
</a>
</g>
</g>
<!-- Node35&#45;&gt;Node36 -->
<g id="edge39" class="edge">
<title>Node35&#45;&gt;Node36</title>
<path fill="none" stroke="midnightblue" d="M2383,-185.41C2383,-175.22 2383,-162.9 2383,-153.59"/>
<polygon fill="midnightblue" stroke="midnightblue" points="2379.5,-185.73 2383,-195.73 2386.5,-185.73 2379.5,-185.73"/>
</g>
<!-- Node37 -->
<g id="node36" class="node">
<title>Node37</title>
<g id="a_node36"><a xlink:href="server_2_server_8h.html" target="_top" xlink:title=" ">
<polygon fill="white" stroke="red" points="2314.5,-67.5 2314.5,-86.5 2451.5,-86.5 2451.5,-67.5 2314.5,-67.5"/>
<text text-anchor="middle" x="2383" y="-74.5" font-family="Helvetica,sans-Serif" font-size="10.00">web/http/server/Server.h</text>
</a>
</g>
</g>
<!-- Node36&#45;&gt;Node37 -->
<g id="edge40" class="edge">
<title>Node36&#45;&gt;Node37</title>
<path fill="none" stroke="midnightblue" d="M2383,-113.29C2383,-103.86 2383,-93.65 2383,-86.66"/>
<polygon fill="midnightblue" stroke="midnightblue" points="2379.5,-113.4 2383,-123.4 2386.5,-113.4 2379.5,-113.4"/>
</g>
<!-- Node55 -->
<g id="node38" class="node">
<title>Node55</title>
<g id="a_node38"><a xlink:href="_socket_context_upgrade_factory_8hpp.html" target="_top" xlink:title=" ">
<polygon fill="white" stroke="black" points="1016,-324.5 1016,-354.5 1190,-354.5 1190,-324.5 1016,-324.5"/>
<text text-anchor="start" x="1024" y="-342.5" font-family="Helvetica,sans-Serif" font-size="10.00">web/http/SocketContextUpgrade</text>
<text text-anchor="middle" x="1103" y="-331.5" font-family="Helvetica,sans-Serif" font-size="10.00">Factory.hpp</text>
</a>
</g>
</g>
<!-- Node54&#45;&gt;Node55 -->
<g id="edge42" class="edge">
<title>Node54&#45;&gt;Node55</title>
<path fill="none" stroke="midnightblue" d="M1356.44,-454.19C1303.36,-430.38 1189.92,-379.49 1134.62,-354.68"/>
<polygon fill="midnightblue" stroke="midnightblue" points="1355.06,-457.41 1365.62,-458.31 1357.93,-451.02 1355.06,-457.41"/>
</g>
<!-- Node56 -->
<g id="node39" class="node">
<title>Node56</title>
<g id="a_node39"><a xlink:href="_socket_context_upgrade_factory_selector_8h.html" target="_top" xlink:title=" ">
<polygon fill="white" stroke="black" points="1298,-391.5 1298,-421.5 1472,-421.5 1472,-391.5 1298,-391.5"/>
<text text-anchor="start" x="1306" y="-409.5" font-family="Helvetica,sans-Serif" font-size="10.00">web/http/SocketContextUpgrade</text>
<text text-anchor="middle" x="1385" y="-398.5" font-family="Helvetica,sans-Serif" font-size="10.00">FactorySelector.h</text>
</a>
</g>
</g>
<!-- Node54&#45;&gt;Node56 -->
<g id="edge45" class="edge">
<title>Node54&#45;&gt;Node56</title>
<path fill="none" stroke="midnightblue" d="M1385,-448.23C1385,-439.59 1385,-429.5 1385,-421.52"/>
<polygon fill="midnightblue" stroke="midnightblue" points="1381.5,-448.48 1385,-458.48 1388.5,-448.48 1381.5,-448.48"/>
</g>
<!-- Node58 -->
<g id="node41" class="node">
<title>Node58</title>
<g id="a_node41"><a xlink:href="websocket_2_socket_context_upgrade_8h.html" target="_top" xlink:title=" ">
<polygon fill="white" stroke="black" points="728.5,-391.5 728.5,-421.5 893.5,-421.5 893.5,-391.5 728.5,-391.5"/>
<text text-anchor="start" x="736.5" y="-409.5" font-family="Helvetica,sans-Serif" font-size="10.00">web/websocket/SocketContext</text>
<text text-anchor="middle" x="811" y="-398.5" font-family="Helvetica,sans-Serif" font-size="10.00">Upgrade.h</text>
</a>
</g>
</g>
<!-- Node54&#45;&gt;Node58 -->
<g id="edge51" class="edge">
<title>Node54&#45;&gt;Node58</title>
<path fill="none" stroke="midnightblue" d="M1287.79,-457.48C1197.61,-448.58 1059.7,-434.78 940,-422 924.99,-420.4 908.99,-418.64 893.57,-416.92"/>
<polygon fill="midnightblue" stroke="midnightblue" points="1287.7,-460.99 1298,-458.49 1288.39,-454.03 1287.7,-460.99"/>
</g>
<!-- Node55&#45;&gt;Node5 -->
<g id="edge43" class="edge">
<title>Node55&#45;&gt;Node5</title>
<path fill="none" stroke="midnightblue" d="M1107.08,-314.4C1108.61,-305.37 1110.29,-295.41 1111.62,-287.58"/>
<polygon fill="midnightblue" stroke="midnightblue" points="1103.6,-313.95 1105.39,-324.4 1110.51,-315.12 1103.6,-313.95"/>
</g>
<!-- Node55&#45;&gt;Node14 -->
<g id="edge44" class="edge">
<title>Node55&#45;&gt;Node14</title>
<path fill="none" stroke="midnightblue" d="M1200.1,-323.91C1365.1,-303.81 1408.85,-308.36 1570,-288 1573.08,-287.61 1576.22,-287.2 1579.38,-286.77"/>
<polygon fill="midnightblue" stroke="midnightblue" points="1199.59,-320.44 1190.09,-325.14 1200.45,-327.39 1199.59,-320.44"/>
</g>
<!-- Node56&#45;&gt;Node6 -->
<g id="edge46" class="edge">
<title>Node56&#45;&gt;Node6</title>
<path fill="none" stroke="midnightblue" d="M1414.5,-385.73C1429.51,-375.68 1447.4,-363.68 1460.99,-354.58"/>
<polygon fill="midnightblue" stroke="midnightblue" points="1412.41,-382.92 1406.05,-391.4 1416.3,-388.74 1412.41,-382.92"/>
</g>
<!-- Node56&#45;&gt;Node15 -->
<g id="edge47" class="edge">
<title>Node56&#45;&gt;Node15</title>
<path fill="none" stroke="midnightblue" d="M1455.28,-389.19C1501.13,-378.54 1560.39,-364.78 1604.21,-354.61"/>
<polygon fill="midnightblue" stroke="midnightblue" points="1454.36,-385.81 1445.41,-391.48 1455.94,-392.62 1454.36,-385.81"/>
</g>
<!-- Node57 -->
<g id="node40" class="node">
<title>Node57</title>
<g id="a_node40"><a xlink:href="_socket_context_upgrade_factory_selector_8hpp.html" target="_top" xlink:title=" ">
<polygon fill="white" stroke="black" points="1208,-324.5 1208,-354.5 1382,-354.5 1382,-324.5 1208,-324.5"/>
<text text-anchor="start" x="1216" y="-342.5" font-family="Helvetica,sans-Serif" font-size="10.00">web/http/SocketContextUpgrade</text>
<text text-anchor="middle" x="1295" y="-331.5" font-family="Helvetica,sans-Serif" font-size="10.00">FactorySelector.hpp</text>
</a>
</g>
</g>
<!-- Node56&#45;&gt;Node57 -->
<g id="edge48" class="edge">
<title>Node56&#45;&gt;Node57</title>
<path fill="none" stroke="midnightblue" d="M1357.24,-385.45C1343.39,-375.45 1326.98,-363.6 1314.49,-354.58"/>
<polygon fill="midnightblue" stroke="midnightblue" points="1355.32,-388.38 1365.47,-391.4 1359.41,-382.7 1355.32,-388.38"/>
</g>
<!-- Node57&#45;&gt;Node9 -->
<g id="edge49" class="edge">
<title>Node57&#45;&gt;Node9</title>
<path fill="none" stroke="midnightblue" d="M1295,-314.11C1295,-305.15 1295,-295.32 1295,-287.58"/>
<polygon fill="midnightblue" stroke="midnightblue" points="1291.5,-314.4 1295,-324.4 1298.5,-314.4 1291.5,-314.4"/>
</g>
<!-- Node57&#45;&gt;Node17 -->
<g id="edge50" class="edge">
<title>Node57&#45;&gt;Node17</title>
<path fill="none" stroke="midnightblue" d="M1344.4,-320.96C1373.87,-310.48 1410.81,-297.37 1438.37,-287.58"/>
<polygon fill="midnightblue" stroke="midnightblue" points="1342.96,-317.75 1334.71,-324.4 1345.3,-324.35 1342.96,-317.75"/>
</g>
<!-- Node59 -->
<g id="node42" class="node">
<title>Node59</title>
<g id="a_node42"><a xlink:href="websocket_2client_2_socket_context_upgrade_8h.html" target="_top" xlink:title=" ">
<polygon fill="white" stroke="black" points="355,-324.5 355,-354.5 495,-354.5 495,-324.5 355,-324.5"/>
<text text-anchor="start" x="363" y="-342.5" font-family="Helvetica,sans-Serif" font-size="10.00">web/websocket/client</text>
<text text-anchor="middle" x="425" y="-331.5" font-family="Helvetica,sans-Serif" font-size="10.00">/SocketContextUpgrade.h</text>
</a>
</g>
</g>
<!-- Node58&#45;&gt;Node59 -->
<g id="edge52" class="edge">
<title>Node58&#45;&gt;Node59</title>
<path fill="none" stroke="midnightblue" d="M718.24,-389.88C649.62,-378.33 557.6,-362.83 495.07,-352.3"/>
<polygon fill="midnightblue" stroke="midnightblue" points="717.75,-393.35 728.19,-391.56 718.91,-386.44 717.75,-393.35"/>
</g>
<!-- Node63 -->
<g id="node46" class="node">
<title>Node63</title>
<g id="a_node46"><a xlink:href="websocket_2server_2_socket_context_upgrade_8h.html" target="_top" xlink:title=" ">
<polygon fill="white" stroke="black" points="741,-324.5 741,-354.5 881,-354.5 881,-324.5 741,-324.5"/>
<text text-anchor="start" x="749" y="-342.5" font-family="Helvetica,sans-Serif" font-size="10.00">web/websocket/server</text>
<text text-anchor="middle" x="811" y="-331.5" font-family="Helvetica,sans-Serif" font-size="10.00">/SocketContextUpgrade.h</text>
</a>
</g>
</g>
<!-- Node58&#45;&gt;Node63 -->
<g id="edge58" class="edge">
<title>Node58&#45;&gt;Node63</title>
<path fill="none" stroke="midnightblue" d="M811,-381.11C811,-372.15 811,-362.32 811,-354.58"/>
<polygon fill="midnightblue" stroke="midnightblue" points="807.5,-381.4 811,-391.4 814.5,-381.4 807.5,-381.4"/>
</g>
<!-- Node59&#45;&gt;Node10 -->
<g id="edge54" class="edge">
<title>Node59&#45;&gt;Node10</title>
<path fill="none" stroke="midnightblue" d="M368.51,-321.58C333.27,-311.02 288.43,-297.59 255.11,-287.61"/>
<polygon fill="midnightblue" stroke="midnightblue" points="367.6,-324.96 378.18,-324.48 369.61,-318.25 367.6,-324.96"/>
</g>
<!-- Node60 -->
<g id="node43" class="node">
<title>Node60</title>
<g id="a_node43"><a xlink:href="client_2_socket_context_upgrade_8cpp.html" target="_top" xlink:title=" ">
<polygon fill="white" stroke="black" points="344,-190.5 344,-220.5 496,-220.5 496,-190.5 344,-190.5"/>
<text text-anchor="start" x="352" y="-208.5" font-family="Helvetica,sans-Serif" font-size="10.00">web/websocket/client</text>
<text text-anchor="middle" x="420" y="-197.5" font-family="Helvetica,sans-Serif" font-size="10.00">/SocketContextUpgrade.cpp</text>
</a>
</g>
</g>
<!-- Node59&#45;&gt;Node60 -->
<g id="edge53" class="edge">
<title>Node59&#45;&gt;Node60</title>
<path fill="none" stroke="midnightblue" d="M436.35,-315.21C439.85,-306.84 443.25,-297.19 445,-288 447.58,-274.47 448.14,-270.42 445,-257 441.97,-244.05 435.1,-230.6 429.33,-220.85"/>
<polygon fill="midnightblue" stroke="midnightblue" points="433.15,-313.79 432.28,-324.35 439.54,-316.64 433.15,-313.79"/>
</g>
<!-- Node61 -->
<g id="node44" class="node">
<title>Node61</title>
<g id="a_node44"><a xlink:href="client_2_sub_protocol_8h.html" target="_top" xlink:title=" ">
<polygon fill="white" stroke="black" points="314,-257.5 314,-287.5 436,-287.5 436,-257.5 314,-257.5"/>
<text text-anchor="start" x="322" y="-275.5" font-family="Helvetica,sans-Serif" font-size="10.00">web/websocket/client</text>
<text text-anchor="middle" x="375" y="-264.5" font-family="Helvetica,sans-Serif" font-size="10.00">/SubProtocol.h</text>
</a>
</g>
</g>
<!-- Node59&#45;&gt;Node61 -->
<g id="edge55" class="edge">
<title>Node59&#45;&gt;Node61</title>
<path fill="none" stroke="midnightblue" d="M408.04,-316.45C400.69,-306.9 392.31,-296 385.83,-287.58"/>
<polygon fill="midnightblue" stroke="midnightblue" points="405.28,-318.6 414.15,-324.4 410.83,-314.34 405.28,-318.6"/>
</g>
<!-- Node61&#45;&gt;Node60 -->
<g id="edge56" class="edge">
<title>Node61&#45;&gt;Node60</title>
<path fill="none" stroke="midnightblue" d="M390.47,-249.16C397.03,-239.68 404.48,-228.92 410.25,-220.58"/>
<polygon fill="midnightblue" stroke="midnightblue" points="387.58,-247.18 384.76,-257.4 393.33,-251.17 387.58,-247.18"/>
</g>
<!-- Node62 -->
<g id="node45" class="node">
<title>Node62</title>
<g id="a_node45"><a xlink:href="client_2_sub_protocol_8cpp.html" target="_top" xlink:title=" ">
<polygon fill="white" stroke="black" points="204,-190.5 204,-220.5 326,-220.5 326,-190.5 204,-190.5"/>
<text text-anchor="start" x="212" y="-208.5" font-family="Helvetica,sans-Serif" font-size="10.00">web/websocket/client</text>
<text text-anchor="middle" x="265" y="-197.5" font-family="Helvetica,sans-Serif" font-size="10.00">/SubProtocol.cpp</text>
</a>
</g>
</g>
<!-- Node61&#45;&gt;Node62 -->
<g id="edge57" class="edge">
<title>Node61&#45;&gt;Node62</title>
<path fill="none" stroke="midnightblue" d="M342.5,-252.3C325.29,-242.12 304.52,-229.85 288.82,-220.58"/>
<polygon fill="midnightblue" stroke="midnightblue" points="340.74,-255.32 351.13,-257.4 344.3,-249.3 340.74,-255.32"/>
</g>
<!-- Node63&#45;&gt;Node18 -->
<g id="edge60" class="edge">
<title>Node63&#45;&gt;Node18</title>
<path fill="none" stroke="midnightblue" d="M845.27,-319.3C863.42,-309.12 885.32,-296.85 901.88,-287.58"/>
<polygon fill="midnightblue" stroke="midnightblue" points="843.18,-316.45 836.17,-324.4 846.6,-322.56 843.18,-316.45"/>
</g>
<!-- Node64 -->
<g id="node47" class="node">
<title>Node64</title>
<g id="a_node47"><a xlink:href="server_2_socket_context_upgrade_8cpp.html" target="_top" xlink:title=" ">
<polygon fill="white" stroke="black" points="801,-190.5 801,-220.5 953,-220.5 953,-190.5 801,-190.5"/>
<text text-anchor="start" x="809" y="-208.5" font-family="Helvetica,sans-Serif" font-size="10.00">web/websocket/server</text>
<text text-anchor="middle" x="877" y="-197.5" font-family="Helvetica,sans-Serif" font-size="10.00">/SocketContextUpgrade.cpp</text>
</a>
</g>
</g>
<!-- Node63&#45;&gt;Node64 -->
<g id="edge59" class="edge">
<title>Node63&#45;&gt;Node64</title>
<path fill="none" stroke="midnightblue" d="M813.31,-314.32C815.69,-297.47 820.48,-274.88 830,-257 837.43,-243.05 849.69,-230.05 859.83,-220.74"/>
<polygon fill="midnightblue" stroke="midnightblue" points="809.81,-314.12 812.06,-324.47 816.75,-314.97 809.81,-314.12"/>
</g>
<!-- Node65 -->
<g id="node48" class="node">
<title>Node65</title>
<g id="a_node48"><a xlink:href="server_2_sub_protocol_8h.html" target="_top" xlink:title=" ">
<polygon fill="white" stroke="black" points="657.5,-257.5 657.5,-287.5 782.5,-287.5 782.5,-257.5 657.5,-257.5"/>
<text text-anchor="start" x="665.5" y="-275.5" font-family="Helvetica,sans-Serif" font-size="10.00">web/websocket/server</text>
<text text-anchor="middle" x="720" y="-264.5" font-family="Helvetica,sans-Serif" font-size="10.00">/SubProtocol.h</text>
</a>
</g>
</g>
<!-- Node63&#45;&gt;Node65 -->
<g id="edge61" class="edge">
<title>Node63&#45;&gt;Node65</title>
<path fill="none" stroke="midnightblue" d="M782.93,-318.45C768.93,-308.45 752.34,-296.6 739.71,-287.58"/>
<polygon fill="midnightblue" stroke="midnightblue" points="781.08,-321.43 791.25,-324.4 785.15,-315.74 781.08,-321.43"/>
</g>
<!-- Node65&#45;&gt;Node64 -->
<g id="edge63" class="edge">
<title>Node65&#45;&gt;Node64</title>
<path fill="none" stroke="midnightblue" d="M763.37,-253.54C788.49,-243.14 819.66,-230.24 843,-220.58"/>
<polygon fill="midnightblue" stroke="midnightblue" points="761.97,-250.34 754.07,-257.4 764.64,-256.8 761.97,-250.34"/>
</g>
<!-- Node66 -->
<g id="node49" class="node">
<title>Node66</title>
<g id="a_node49"><a xlink:href="_groups_manager_8cpp.html" target="_top" xlink:title=" ">
<polygon fill="white" stroke="black" points="514.5,-190.5 514.5,-220.5 639.5,-220.5 639.5,-190.5 514.5,-190.5"/>
<text text-anchor="start" x="522.5" y="-208.5" font-family="Helvetica,sans-Serif" font-size="10.00">web/websocket/server</text>
<text text-anchor="middle" x="577" y="-197.5" font-family="Helvetica,sans-Serif" font-size="10.00">/GroupsManager.cpp</text>
</a>
</g>
</g>
<!-- Node65&#45;&gt;Node66 -->
<g id="edge62" class="edge">
<title>Node65&#45;&gt;Node66</title>
<path fill="none" stroke="midnightblue" d="M679.59,-253.13C656.87,-242.8 628.94,-230.11 607.97,-220.58"/>
<polygon fill="midnightblue" stroke="midnightblue" points="678.42,-256.44 688.97,-257.4 681.32,-250.07 678.42,-256.44"/>
</g>
<!-- Node67 -->
<g id="node50" class="node">
<title>Node67</title>
<g id="a_node50"><a xlink:href="server_2_sub_protocol_8cpp.html" target="_top" xlink:title=" ">
<polygon fill="white" stroke="black" points="657.5,-190.5 657.5,-220.5 782.5,-220.5 782.5,-190.5 657.5,-190.5"/>
<text text-anchor="start" x="665.5" y="-208.5" font-family="Helvetica,sans-Serif" font-size="10.00">web/websocket/server</text>
<text text-anchor="middle" x="720" y="-197.5" font-family="Helvetica,sans-Serif" font-size="10.00">/SubProtocol.cpp</text>
</a>
</g>
</g>
<!-- Node65&#45;&gt;Node67 -->
<g id="edge64" class="edge">
<title>Node65&#45;&gt;Node67</title>
<path fill="none" stroke="midnightblue" d="M720,-247.11C720,-238.15 720,-228.32 720,-220.58"/>
<polygon fill="midnightblue" stroke="midnightblue" points="716.5,-247.4 720,-257.4 723.5,-247.4 716.5,-247.4"/>
</g>
</g>
</svg>
