<?xml version="1.0" encoding="UTF-8" standalone="no"?>
<!DOCTYPE svg PUBLIC "-//W3C//DTD SVG 1.1//EN"
 "http://www.w3.org/Graphics/SVG/1.1/DTD/svg11.dtd">
<!-- Generated by graphviz version 2.43.0 (0)
 -->
<!-- Title: core/socket/stream/SocketContextFactory.h Pages: 1 -->
<svg width="3218pt" height="441pt"
 viewBox="0.00 0.00 3217.50 441.00" xmlns="http://www.w3.org/2000/svg" xmlns:xlink="http://www.w3.org/1999/xlink">
<g id="graph0" class="graph" transform="scale(1 1) rotate(0) translate(4 437)">
<title>core/socket/stream/SocketContextFactory.h</title>
<polygon fill="white" stroke="transparent" points="-4,4 -4,-437 3213.5,-437 3213.5,4 -4,4"/>
<!-- Node1 -->
<g id="node1" class="node">
<title>Node1</title>
<g id="a_node1"><a xlink:title=" ">
<polygon fill="#bfbfbf" stroke="black" points="953,-402.5 953,-432.5 1078,-432.5 1078,-402.5 953,-402.5"/>
<text text-anchor="start" x="961" y="-420.5" font-family="Helvetica,sans-Serif" font-size="10.00">core/socket/stream</text>
<text text-anchor="middle" x="1015.5" y="-409.5" font-family="Helvetica,sans-Serif" font-size="10.00">/SocketContextFactory.h</text>
</a>
</g>
</g>
<!-- Node2 -->
<g id="node2" class="node">
<title>Node2</title>
<g id="a_node2"><a xlink:href="_socket_connection_8cpp.html" target="_top" xlink:title=" ">
<polygon fill="white" stroke="black" points="711,-335.5 711,-365.5 830,-365.5 830,-335.5 711,-335.5"/>
<text text-anchor="start" x="719" y="-353.5" font-family="Helvetica,sans-Serif" font-size="10.00">core/socket/stream</text>
<text text-anchor="middle" x="770.5" y="-342.5" font-family="Helvetica,sans-Serif" font-size="10.00">/SocketConnection.cpp</text>
</a>
</g>
</g>
<!-- Node1&#45;&gt;Node2 -->
<g id="edge1" class="edge">
<title>Node1&#45;&gt;Node2</title>
<path fill="none" stroke="midnightblue" d="M952.74,-399.85C912.8,-389.25 861.63,-375.68 823.69,-365.61"/>
<polygon fill="midnightblue" stroke="midnightblue" points="952.08,-403.29 962.64,-402.48 953.87,-396.53 952.08,-403.29"/>
</g>
<!-- Node3 -->
<g id="node3" class="node">
<title>Node3</title>
<g id="a_node3"><a xlink:href="_socket_connection_t_8h.html" target="_top" xlink:title=" ">
<polygon fill="white" stroke="black" points="848,-335.5 848,-365.5 961,-365.5 961,-335.5 848,-335.5"/>
<text text-anchor="start" x="856" y="-353.5" font-family="Helvetica,sans-Serif" font-size="10.00">core/socket/stream</text>
<text text-anchor="middle" x="904.5" y="-342.5" font-family="Helvetica,sans-Serif" font-size="10.00">/SocketConnectionT.h</text>
</a>
</g>
</g>
<!-- Node1&#45;&gt;Node3 -->
<g id="edge2" class="edge">
<title>Node1&#45;&gt;Node3</title>
<path fill="none" stroke="midnightblue" d="M982.7,-397.3C965.34,-387.12 944.38,-374.85 928.54,-365.58"/>
<polygon fill="midnightblue" stroke="midnightblue" points="981.02,-400.36 991.41,-402.4 984.55,-394.32 981.02,-400.36"/>
</g>
<!-- Node38 -->
<g id="node25" class="node">
<title>Node38</title>
<g id="a_node25"><a xlink:href="web_2http_2_socket_context_factory_8h.html" target="_top" xlink:title=" ">
<polygon fill="white" stroke="black" points="1024.5,-207 1024.5,-226 1186.5,-226 1186.5,-207 1024.5,-207"/>
<text text-anchor="middle" x="1105.5" y="-214" font-family="Helvetica,sans-Serif" font-size="10.00">web/http/SocketContextFactory.h</text>
</a>
</g>
</g>
<!-- Node1&#45;&gt;Node38 -->
<g id="edge28" class="edge">
<title>Node1&#45;&gt;Node38</title>
<path fill="none" stroke="midnightblue" d="M1026.22,-392.8C1046.21,-348.61 1088.34,-255.44 1101.49,-226.36"/>
<polygon fill="midnightblue" stroke="midnightblue" points="1022.9,-391.63 1021.97,-402.19 1029.28,-394.52 1022.9,-391.63"/>
</g>
<!-- Node43 -->
<g id="node32" class="node">
<title>Node43</title>
<g id="a_node32"><a xlink:href="http_2_socket_context_upgrade_factory_8h.html" target="_top" xlink:title=" ">
<polygon fill="white" stroke="black" points="2119,-335.5 2119,-365.5 2278,-365.5 2278,-335.5 2119,-335.5"/>
<text text-anchor="start" x="2127" y="-353.5" font-family="Helvetica,sans-Serif" font-size="10.00">web/http/SocketContextUpgrade</text>
<text text-anchor="middle" x="2198.5" y="-342.5" font-family="Helvetica,sans-Serif" font-size="10.00">Factory.h</text>
</a>
</g>
</g>
<!-- Node1&#45;&gt;Node43 -->
<g id="edge37" class="edge">
<title>Node1&#45;&gt;Node43</title>
<path fill="none" stroke="midnightblue" d="M1088.55,-412.49C1298.28,-400.96 1901.17,-367.84 2118.88,-355.87"/>
<polygon fill="midnightblue" stroke="midnightblue" points="1088.06,-409.01 1078.27,-413.05 1088.44,-416 1088.06,-409.01"/>
</g>
<!-- Node4 -->
<g id="node4" class="node">
<title>Node4</title>
<g id="a_node4"><a xlink:href="legacy_2_socket_connection_8h.html" target="_top" xlink:title=" ">
<polygon fill="white" stroke="black" points="778.5,-268.5 778.5,-298.5 918.5,-298.5 918.5,-268.5 778.5,-268.5"/>
<text text-anchor="start" x="786.5" y="-286.5" font-family="Helvetica,sans-Serif" font-size="10.00">core/socket/stream</text>
<text text-anchor="middle" x="848.5" y="-275.5" font-family="Helvetica,sans-Serif" font-size="10.00">/legacy/SocketConnection.h</text>
</a>
</g>
</g>
<!-- Node3&#45;&gt;Node4 -->
<g id="edge3" class="edge">
<title>Node3&#45;&gt;Node4</title>
<path fill="none" stroke="midnightblue" d="M885.75,-327.74C877.46,-318.12 867.96,-307.09 860.63,-298.58"/>
<polygon fill="midnightblue" stroke="midnightblue" points="883.17,-330.1 892.35,-335.4 888.47,-325.54 883.17,-330.1"/>
</g>
<!-- Node22 -->
<g id="node20" class="node">
<title>Node22</title>
<g id="a_node20"><a xlink:href="tls_2_socket_connection_8h.html" target="_top" xlink:title=" ">
<polygon fill="white" stroke="black" points="245.5,-268.5 245.5,-298.5 367.5,-298.5 367.5,-268.5 245.5,-268.5"/>
<text text-anchor="start" x="253.5" y="-286.5" font-family="Helvetica,sans-Serif" font-size="10.00">core/socket/stream</text>
<text text-anchor="middle" x="306.5" y="-275.5" font-family="Helvetica,sans-Serif" font-size="10.00">/tls/SocketConnection.h</text>
</a>
</g>
</g>
<!-- Node3&#45;&gt;Node22 -->
<g id="edge23" class="edge">
<title>Node3&#45;&gt;Node22</title>
<path fill="none" stroke="midnightblue" d="M837.74,-335.01C661.7,-307.93 465.32,-293.81 367.84,-287.89"/>
<polygon fill="midnightblue" stroke="midnightblue" points="837.28,-338.48 847.7,-336.56 838.36,-331.57 837.28,-338.48"/>
</g>
<!-- Node5 -->
<g id="node5" class="node">
<title>Node5</title>
<g id="a_node5"><a xlink:href="legacy_2_socket_acceptor_8h.html" target="_top" xlink:title=" ">
<polygon fill="white" stroke="black" points="533.5,-201.5 533.5,-231.5 661.5,-231.5 661.5,-201.5 533.5,-201.5"/>
<text text-anchor="start" x="541.5" y="-219.5" font-family="Helvetica,sans-Serif" font-size="10.00">core/socket/stream</text>
<text text-anchor="middle" x="597.5" y="-208.5" font-family="Helvetica,sans-Serif" font-size="10.00">/legacy/SocketAcceptor.h</text>
</a>
</g>
</g>
<!-- Node4&#45;&gt;Node5 -->
<g id="edge4" class="edge">
<title>Node4&#45;&gt;Node5</title>
<path fill="none" stroke="midnightblue" d="M784.46,-265.92C743.5,-255.31 690.94,-241.7 651.99,-231.61"/>
<polygon fill="midnightblue" stroke="midnightblue" points="783.79,-269.36 794.35,-268.48 785.54,-262.58 783.79,-269.36"/>
</g>
<!-- Node14 -->
<g id="node13" class="node">
<title>Node14</title>
<g id="a_node13"><a xlink:href="legacy_2_socket_connector_8h.html" target="_top" xlink:title=" ">
<polygon fill="white" stroke="black" points="781.5,-201.5 781.5,-231.5 915.5,-231.5 915.5,-201.5 781.5,-201.5"/>
<text text-anchor="start" x="789.5" y="-219.5" font-family="Helvetica,sans-Serif" font-size="10.00">core/socket/stream</text>
<text text-anchor="middle" x="848.5" y="-208.5" font-family="Helvetica,sans-Serif" font-size="10.00">/legacy/SocketConnector.h</text>
</a>
</g>
</g>
<!-- Node4&#45;&gt;Node14 -->
<g id="edge14" class="edge">
<title>Node4&#45;&gt;Node14</title>
<path fill="none" stroke="midnightblue" d="M848.5,-258.11C848.5,-249.15 848.5,-239.32 848.5,-231.58"/>
<polygon fill="midnightblue" stroke="midnightblue" points="845,-258.4 848.5,-268.4 852,-258.4 845,-258.4"/>
</g>
<!-- Node6 -->
<g id="node6" class="node">
<title>Node6</title>
<g id="a_node6"><a xlink:href="core_2socket_2stream_2legacy_2_socket_server_8h.html" target="_top" xlink:title=" ">
<polygon fill="white" stroke="black" points="369.5,-134.5 369.5,-164.5 487.5,-164.5 487.5,-134.5 369.5,-134.5"/>
<text text-anchor="start" x="377.5" y="-152.5" font-family="Helvetica,sans-Serif" font-size="10.00">core/socket/stream</text>
<text text-anchor="middle" x="428.5" y="-141.5" font-family="Helvetica,sans-Serif" font-size="10.00">/legacy/SocketServer.h</text>
</a>
</g>
</g>
<!-- Node5&#45;&gt;Node6 -->
<g id="edge5" class="edge">
<title>Node5&#45;&gt;Node6</title>
<path fill="none" stroke="midnightblue" d="M551.17,-197.68C524.07,-187.26 490.33,-174.28 465.1,-164.58"/>
<polygon fill="midnightblue" stroke="midnightblue" points="550.24,-201.07 560.83,-201.4 552.75,-194.54 550.24,-201.07"/>
</g>
<!-- Node7 -->
<g id="node7" class="node">
<title>Node7</title>
<g id="a_node7"><a xlink:href="net_2in_2stream_2legacy_2_socket_server_8h.html" target="_top" xlink:title=" ">
<polygon fill="white" stroke="black" points="250,-67.5 250,-97.5 355,-97.5 355,-67.5 250,-67.5"/>
<text text-anchor="start" x="258" y="-85.5" font-family="Helvetica,sans-Serif" font-size="10.00">net/in/stream/legacy</text>
<text text-anchor="middle" x="302.5" y="-74.5" font-family="Helvetica,sans-Serif" font-size="10.00">/SocketServer.h</text>
</a>
</g>
</g>
<!-- Node6&#45;&gt;Node7 -->
<g id="edge6" class="edge">
<title>Node6&#45;&gt;Node7</title>
<path fill="none" stroke="midnightblue" d="M392.08,-129.71C372.21,-119.46 348.02,-106.98 329.79,-97.58"/>
<polygon fill="midnightblue" stroke="midnightblue" points="390.67,-132.92 401.16,-134.4 393.88,-126.7 390.67,-132.92"/>
</g>
<!-- Node10 -->
<g id="node9" class="node">
<title>Node10</title>
<g id="a_node9"><a xlink:href="net_2in6_2stream_2legacy_2_socket_server_8h.html" target="_top" xlink:title=" ">
<polygon fill="white" stroke="black" points="373.5,-67.5 373.5,-97.5 483.5,-97.5 483.5,-67.5 373.5,-67.5"/>
<text text-anchor="start" x="381.5" y="-85.5" font-family="Helvetica,sans-Serif" font-size="10.00">net/in6/stream/legacy</text>
<text text-anchor="middle" x="428.5" y="-74.5" font-family="Helvetica,sans-Serif" font-size="10.00">/SocketServer.h</text>
</a>
</g>
</g>
<!-- Node6&#45;&gt;Node10 -->
<g id="edge8" class="edge">
<title>Node6&#45;&gt;Node10</title>
<path fill="none" stroke="midnightblue" d="M428.5,-124.11C428.5,-115.15 428.5,-105.32 428.5,-97.58"/>
<polygon fill="midnightblue" stroke="midnightblue" points="425,-124.4 428.5,-134.4 432,-124.4 425,-124.4"/>
</g>
<!-- Node11 -->
<g id="node10" class="node">
<title>Node11</title>
<g id="a_node10"><a xlink:href="net_2l2_2stream_2legacy_2_socket_server_8h.html" target="_top" xlink:title=" ">
<polygon fill="white" stroke="black" points="0,-67.5 0,-97.5 105,-97.5 105,-67.5 0,-67.5"/>
<text text-anchor="start" x="8" y="-85.5" font-family="Helvetica,sans-Serif" font-size="10.00">net/l2/stream/legacy</text>
<text text-anchor="middle" x="52.5" y="-74.5" font-family="Helvetica,sans-Serif" font-size="10.00">/SocketServer.h</text>
</a>
</g>
</g>
<!-- Node6&#45;&gt;Node11 -->
<g id="edge10" class="edge">
<title>Node6&#45;&gt;Node11</title>
<path fill="none" stroke="midnightblue" d="M359.81,-134.05C359.7,-134.04 359.6,-134.02 359.5,-134 251.15,-114.67 222.62,-118.55 114.5,-98 111.46,-97.42 108.34,-96.8 105.2,-96.14"/>
<polygon fill="midnightblue" stroke="midnightblue" points="358.98,-137.46 369.45,-135.84 360.26,-130.58 358.98,-137.46"/>
</g>
<!-- Node12 -->
<g id="node11" class="node">
<title>Node12</title>
<g id="a_node11"><a xlink:href="net_2rf_2stream_2legacy_2_socket_server_8h.html" target="_top" xlink:title=" ">
<polygon fill="white" stroke="black" points="501.5,-67.5 501.5,-97.5 605.5,-97.5 605.5,-67.5 501.5,-67.5"/>
<text text-anchor="start" x="509.5" y="-85.5" font-family="Helvetica,sans-Serif" font-size="10.00">net/rf/stream/legacy</text>
<text text-anchor="middle" x="553.5" y="-74.5" font-family="Helvetica,sans-Serif" font-size="10.00">/SocketServer.h</text>
</a>
</g>
</g>
<!-- Node6&#45;&gt;Node12 -->
<g id="edge11" class="edge">
<title>Node6&#45;&gt;Node12</title>
<path fill="none" stroke="midnightblue" d="M464.63,-129.71C484.34,-119.46 508.34,-106.98 526.43,-97.58"/>
<polygon fill="midnightblue" stroke="midnightblue" points="462.88,-126.68 455.62,-134.4 466.11,-132.89 462.88,-126.68"/>
</g>
<!-- Node13 -->
<g id="node12" class="node">
<title>Node13</title>
<g id="a_node12"><a xlink:href="net_2un_2stream_2legacy_2_socket_server_8h.html" target="_top" xlink:title=" ">
<polygon fill="white" stroke="black" points="123.5,-67.5 123.5,-97.5 231.5,-97.5 231.5,-67.5 123.5,-67.5"/>
<text text-anchor="start" x="131.5" y="-85.5" font-family="Helvetica,sans-Serif" font-size="10.00">net/un/stream/legacy</text>
<text text-anchor="middle" x="177.5" y="-74.5" font-family="Helvetica,sans-Serif" font-size="10.00">/SocketServer.h</text>
</a>
</g>
</g>
<!-- Node6&#45;&gt;Node13 -->
<g id="edge13" class="edge">
<title>Node6&#45;&gt;Node13</title>
<path fill="none" stroke="midnightblue" d="M364.43,-131.91C323.32,-121.26 270.54,-107.59 231.56,-97.5"/>
<polygon fill="midnightblue" stroke="midnightblue" points="363.79,-135.36 374.35,-134.48 365.54,-128.58 363.79,-135.36"/>
</g>
<!-- Node8 -->
<g id="node8" class="node">
<title>Node8</title>
<g id="a_node8"><a xlink:href="legacy_2_server_8h.html" target="_top" xlink:title=" ">
<polygon fill="white" stroke="red" points="433.5,-0.5 433.5,-30.5 549.5,-30.5 549.5,-0.5 433.5,-0.5"/>
<text text-anchor="start" x="441.5" y="-18.5" font-family="Helvetica,sans-Serif" font-size="10.00">web/http/server/legacy</text>
<text text-anchor="middle" x="491.5" y="-7.5" font-family="Helvetica,sans-Serif" font-size="10.00">/Server.h</text>
</a>
</g>
</g>
<!-- Node7&#45;&gt;Node8 -->
<g id="edge7" class="edge">
<title>Node7&#45;&gt;Node8</title>
<path fill="none" stroke="midnightblue" d="M353.12,-64.09C383.63,-53.6 421.98,-40.41 450.57,-30.58"/>
<polygon fill="midnightblue" stroke="midnightblue" points="351.83,-60.83 343.51,-67.4 354.1,-67.45 351.83,-60.83"/>
</g>
<!-- Node10&#45;&gt;Node8 -->
<g id="edge9" class="edge">
<title>Node10&#45;&gt;Node8</title>
<path fill="none" stroke="midnightblue" d="M449.31,-60.02C458.7,-50.34 469.52,-39.17 477.86,-30.58"/>
<polygon fill="midnightblue" stroke="midnightblue" points="446.62,-57.78 442.17,-67.4 451.64,-62.65 446.62,-57.78"/>
</g>
<!-- Node12&#45;&gt;Node8 -->
<g id="edge12" class="edge">
<title>Node12&#45;&gt;Node8</title>
<path fill="none" stroke="midnightblue" d="M533.02,-60.02C523.78,-50.34 513.13,-39.17 504.93,-30.58"/>
<polygon fill="midnightblue" stroke="midnightblue" points="530.61,-62.58 540.05,-67.4 535.68,-57.74 530.61,-62.58"/>
</g>
<!-- Node15 -->
<g id="node14" class="node">
<title>Node15</title>
<g id="a_node14"><a xlink:href="core_2socket_2stream_2legacy_2_socket_client_8h.html" target="_top" xlink:title=" ">
<polygon fill="white" stroke="red" points="790.5,-134.5 790.5,-164.5 906.5,-164.5 906.5,-134.5 790.5,-134.5"/>
<text text-anchor="start" x="798.5" y="-152.5" font-family="Helvetica,sans-Serif" font-size="10.00">core/socket/stream</text>
<text text-anchor="middle" x="848.5" y="-141.5" font-family="Helvetica,sans-Serif" font-size="10.00">/legacy/SocketClient.h</text>
</a>
</g>
</g>
<!-- Node14&#45;&gt;Node15 -->
<g id="edge15" class="edge">
<title>Node14&#45;&gt;Node15</title>
<path fill="none" stroke="midnightblue" d="M848.5,-191.11C848.5,-182.15 848.5,-172.32 848.5,-164.58"/>
<polygon fill="midnightblue" stroke="midnightblue" points="845,-191.4 848.5,-201.4 852,-191.4 845,-191.4"/>
</g>
<!-- Node16 -->
<g id="node15" class="node">
<title>Node16</title>
<g id="a_node15"><a xlink:href="net_2in_2stream_2legacy_2_socket_client_8h.html" target="_top" xlink:title=" ">
<polygon fill="white" stroke="black" points="624,-67.5 624,-97.5 729,-97.5 729,-67.5 624,-67.5"/>
<text text-anchor="start" x="632" y="-85.5" font-family="Helvetica,sans-Serif" font-size="10.00">net/in/stream/legacy</text>
<text text-anchor="middle" x="676.5" y="-74.5" font-family="Helvetica,sans-Serif" font-size="10.00">/SocketClient.h</text>
</a>
</g>
</g>
<!-- Node15&#45;&gt;Node16 -->
<g id="edge16" class="edge">
<title>Node15&#45;&gt;Node16</title>
<path fill="none" stroke="midnightblue" d="M801.71,-130.82C774.07,-120.37 739.54,-107.32 713.75,-97.58"/>
<polygon fill="midnightblue" stroke="midnightblue" points="800.59,-134.13 811.18,-134.4 803.06,-127.59 800.59,-134.13"/>
</g>
<!-- Node18 -->
<g id="node17" class="node">
<title>Node18</title>
<g id="a_node17"><a xlink:href="net_2in6_2stream_2legacy_2_socket_client_8h.html" target="_top" xlink:title=" ">
<polygon fill="white" stroke="black" points="747.5,-67.5 747.5,-97.5 857.5,-97.5 857.5,-67.5 747.5,-67.5"/>
<text text-anchor="start" x="755.5" y="-85.5" font-family="Helvetica,sans-Serif" font-size="10.00">net/in6/stream/legacy</text>
<text text-anchor="middle" x="802.5" y="-74.5" font-family="Helvetica,sans-Serif" font-size="10.00">/SocketClient.h</text>
</a>
</g>
</g>
<!-- Node15&#45;&gt;Node18 -->
<g id="edge18" class="edge">
<title>Node15&#45;&gt;Node18</title>
<path fill="none" stroke="midnightblue" d="M832.69,-126.16C825.98,-116.68 818.37,-105.92 812.46,-97.58"/>
<polygon fill="midnightblue" stroke="midnightblue" points="829.88,-128.26 838.52,-134.4 835.6,-124.21 829.88,-128.26"/>
</g>
<!-- Node19 -->
<g id="node18" class="node">
<title>Node19</title>
<g id="a_node18"><a xlink:href="net_2l2_2stream_2legacy_2_socket_client_8h.html" target="_top" xlink:title=" ">
<polygon fill="white" stroke="black" points="998,-67.5 998,-97.5 1103,-97.5 1103,-67.5 998,-67.5"/>
<text text-anchor="start" x="1006" y="-85.5" font-family="Helvetica,sans-Serif" font-size="10.00">net/l2/stream/legacy</text>
<text text-anchor="middle" x="1050.5" y="-74.5" font-family="Helvetica,sans-Serif" font-size="10.00">/SocketClient.h</text>
</a>
</g>
</g>
<!-- Node15&#45;&gt;Node19 -->
<g id="edge20" class="edge">
<title>Node15&#45;&gt;Node19</title>
<path fill="none" stroke="midnightblue" d="M902.18,-131.23C934.85,-120.71 976.07,-107.45 1006.75,-97.58"/>
<polygon fill="midnightblue" stroke="midnightblue" points="900.78,-128 892.33,-134.4 902.92,-134.66 900.78,-128"/>
</g>
<!-- Node20 -->
<g id="node19" class="node">
<title>Node20</title>
<g id="a_node19"><a xlink:href="net_2rf_2stream_2legacy_2_socket_client_8h.html" target="_top" xlink:title=" ">
<polygon fill="white" stroke="black" points="875.5,-67.5 875.5,-97.5 979.5,-97.5 979.5,-67.5 875.5,-67.5"/>
<text text-anchor="start" x="883.5" y="-85.5" font-family="Helvetica,sans-Serif" font-size="10.00">net/rf/stream/legacy</text>
<text text-anchor="middle" x="927.5" y="-74.5" font-family="Helvetica,sans-Serif" font-size="10.00">/SocketClient.h</text>
</a>
</g>
</g>
<!-- Node15&#45;&gt;Node20 -->
<g id="edge21" class="edge">
<title>Node15&#45;&gt;Node20</title>
<path fill="none" stroke="midnightblue" d="M873.56,-127.88C885.56,-118.01 899.63,-106.43 910.39,-97.58"/>
<polygon fill="midnightblue" stroke="midnightblue" points="871.14,-125.34 865.64,-134.4 875.59,-130.75 871.14,-125.34"/>
</g>
<!-- Node17 -->
<g id="node16" class="node">
<title>Node17</title>
<g id="a_node16"><a xlink:href="legacy_2_client_8h.html" target="_top" xlink:title=" ">
<polygon fill="white" stroke="black" points="808.5,-0.5 808.5,-30.5 920.5,-30.5 920.5,-0.5 808.5,-0.5"/>
<text text-anchor="start" x="816.5" y="-18.5" font-family="Helvetica,sans-Serif" font-size="10.00">web/http/client/legacy</text>
<text text-anchor="middle" x="864.5" y="-7.5" font-family="Helvetica,sans-Serif" font-size="10.00">/Client.h</text>
</a>
</g>
</g>
<!-- Node16&#45;&gt;Node17 -->
<g id="edge17" class="edge">
<title>Node16&#45;&gt;Node17</title>
<path fill="none" stroke="midnightblue" d="M726.85,-64.09C757.2,-53.6 795.35,-40.41 823.79,-30.58"/>
<polygon fill="midnightblue" stroke="midnightblue" points="725.6,-60.82 717.29,-67.4 727.89,-67.44 725.6,-60.82"/>
</g>
<!-- Node18&#45;&gt;Node17 -->
<g id="edge19" class="edge">
<title>Node18&#45;&gt;Node17</title>
<path fill="none" stroke="midnightblue" d="M822.98,-60.02C832.22,-50.34 842.87,-39.17 851.07,-30.58"/>
<polygon fill="midnightblue" stroke="midnightblue" points="820.32,-57.74 815.95,-67.4 825.39,-62.58 820.32,-57.74"/>
</g>
<!-- Node20&#45;&gt;Node17 -->
<g id="edge22" class="edge">
<title>Node20&#45;&gt;Node17</title>
<path fill="none" stroke="midnightblue" d="M906.69,-60.02C897.3,-50.34 886.48,-39.17 878.14,-30.58"/>
<polygon fill="midnightblue" stroke="midnightblue" points="904.36,-62.65 913.83,-67.4 909.38,-57.78 904.36,-62.65"/>
</g>
<!-- Node23 -->
<g id="node21" class="node">
<title>Node23</title>
<g id="a_node21"><a xlink:href="tls_2_socket_acceptor_8h.html" target="_top" xlink:title=" ">
<polygon fill="white" stroke="black" points="251.5,-201.5 251.5,-231.5 361.5,-231.5 361.5,-201.5 251.5,-201.5"/>
<text text-anchor="start" x="259.5" y="-219.5" font-family="Helvetica,sans-Serif" font-size="10.00">core/socket/stream</text>
<text text-anchor="middle" x="306.5" y="-208.5" font-family="Helvetica,sans-Serif" font-size="10.00">/tls/SocketAcceptor.h</text>
</a>
</g>
</g>
<!-- Node22&#45;&gt;Node23 -->
<g id="edge24" class="edge">
<title>Node22&#45;&gt;Node23</title>
<path fill="none" stroke="midnightblue" d="M306.5,-258.11C306.5,-249.15 306.5,-239.32 306.5,-231.58"/>
<polygon fill="midnightblue" stroke="midnightblue" points="303,-258.4 306.5,-268.4 310,-258.4 303,-258.4"/>
</g>
<!-- Node31 -->
<g id="node23" class="node">
<title>Node31</title>
<g id="a_node23"><a xlink:href="tls_2_socket_connector_8h.html" target="_top" xlink:title=" ">
<polygon fill="white" stroke="black" points="117.5,-201.5 117.5,-231.5 233.5,-231.5 233.5,-201.5 117.5,-201.5"/>
<text text-anchor="start" x="125.5" y="-219.5" font-family="Helvetica,sans-Serif" font-size="10.00">core/socket/stream</text>
<text text-anchor="middle" x="175.5" y="-208.5" font-family="Helvetica,sans-Serif" font-size="10.00">/tls/SocketConnector.h</text>
</a>
</g>
</g>
<!-- Node22&#45;&gt;Node31 -->
<g id="edge26" class="edge">
<title>Node22&#45;&gt;Node31</title>
<path fill="none" stroke="midnightblue" d="M268.92,-263.85C248.21,-253.58 222.91,-241.03 203.87,-231.58"/>
<polygon fill="midnightblue" stroke="midnightblue" points="267.56,-267.09 278.07,-268.4 270.67,-260.82 267.56,-267.09"/>
</g>
<!-- Node24 -->
<g id="node22" class="node">
<title>Node24</title>
<g id="a_node22"><a xlink:href="core_2socket_2stream_2tls_2_socket_server_8h.html" target="_top" xlink:title=" ">
<polygon fill="white" stroke="red" points="250,-134.5 250,-164.5 351,-164.5 351,-134.5 250,-134.5"/>
<text text-anchor="start" x="258" y="-152.5" font-family="Helvetica,sans-Serif" font-size="10.00">core/socket/stream</text>
<text text-anchor="middle" x="300.5" y="-141.5" font-family="Helvetica,sans-Serif" font-size="10.00">/tls/SocketServer.h</text>
</a>
</g>
</g>
<!-- Node23&#45;&gt;Node24 -->
<g id="edge25" class="edge">
<title>Node23&#45;&gt;Node24</title>
<path fill="none" stroke="midnightblue" d="M304.28,-191.4C303.44,-182.37 302.52,-172.41 301.8,-164.58"/>
<polygon fill="midnightblue" stroke="midnightblue" points="300.79,-191.76 305.2,-201.4 307.76,-191.12 300.79,-191.76"/>
</g>
<!-- Node32 -->
<g id="node24" class="node">
<title>Node32</title>
<g id="a_node24"><a xlink:href="core_2socket_2stream_2tls_2_socket_client_8h.html" target="_top" xlink:title=" ">
<polygon fill="white" stroke="red" points="125,-134.5 125,-164.5 226,-164.5 226,-134.5 125,-134.5"/>
<text text-anchor="start" x="133" y="-152.5" font-family="Helvetica,sans-Serif" font-size="10.00">core/socket/stream</text>
<text text-anchor="middle" x="175.5" y="-141.5" font-family="Helvetica,sans-Serif" font-size="10.00">/tls/SocketClient.h</text>
</a>
</g>
</g>
<!-- Node31&#45;&gt;Node32 -->
<g id="edge27" class="edge">
<title>Node31&#45;&gt;Node32</title>
<path fill="none" stroke="midnightblue" d="M175.5,-191.11C175.5,-182.15 175.5,-172.32 175.5,-164.58"/>
<polygon fill="midnightblue" stroke="midnightblue" points="172,-191.4 175.5,-201.4 179,-191.4 172,-191.4"/>
</g>
<!-- Node39 -->
<g id="node26" class="node">
<title>Node39</title>
<g id="a_node26"><a xlink:href="web_2http_2client_2_socket_context_factory_8h.html" target="_top" xlink:title=" ">
<polygon fill="white" stroke="black" points="1200,-134.5 1200,-164.5 1349,-164.5 1349,-134.5 1200,-134.5"/>
<text text-anchor="start" x="1208" y="-152.5" font-family="Helvetica,sans-Serif" font-size="10.00">web/http/client/SocketContext</text>
<text text-anchor="middle" x="1274.5" y="-141.5" font-family="Helvetica,sans-Serif" font-size="10.00">Factory.h</text>
</a>
</g>
</g>
<!-- Node38&#45;&gt;Node39 -->
<g id="edge29" class="edge">
<title>Node38&#45;&gt;Node39</title>
<path fill="none" stroke="midnightblue" d="M1137.47,-203.2C1166.11,-192.19 1208.09,-176.04 1238.03,-164.53"/>
<polygon fill="midnightblue" stroke="midnightblue" points="1136.02,-200.01 1127.94,-206.87 1138.53,-206.55 1136.02,-200.01"/>
</g>
<!-- Node41 -->
<g id="node29" class="node">
<title>Node41</title>
<g id="a_node29"><a xlink:href="web_2http_2server_2_socket_context_factory_8h.html" target="_top" xlink:title=" ">
<polygon fill="white" stroke="black" points="1029.5,-134.5 1029.5,-164.5 1181.5,-164.5 1181.5,-134.5 1029.5,-134.5"/>
<text text-anchor="start" x="1037.5" y="-152.5" font-family="Helvetica,sans-Serif" font-size="10.00">web/http/server/SocketContext</text>
<text text-anchor="middle" x="1105.5" y="-141.5" font-family="Helvetica,sans-Serif" font-size="10.00">Factory.h</text>
</a>
</g>
</g>
<!-- Node38&#45;&gt;Node41 -->
<g id="edge33" class="edge">
<title>Node38&#45;&gt;Node41</title>
<path fill="none" stroke="midnightblue" d="M1105.5,-196.41C1105.5,-186.22 1105.5,-173.9 1105.5,-164.59"/>
<polygon fill="midnightblue" stroke="midnightblue" points="1102,-196.73 1105.5,-206.73 1109,-196.73 1102,-196.73"/>
</g>
<!-- Node40 -->
<g id="node27" class="node">
<title>Node40</title>
<g id="a_node27"><a xlink:href="_client_8h.html" target="_top" xlink:title=" ">
<polygon fill="white" stroke="black" points="1262,-73 1262,-92 1379,-92 1379,-73 1262,-73"/>
<text text-anchor="middle" x="1320.5" y="-80" font-family="Helvetica,sans-Serif" font-size="10.00">web/http/client/Client.h</text>
</a>
</g>
</g>
<!-- Node39&#45;&gt;Node40 -->
<g id="edge30" class="edge">
<title>Node39&#45;&gt;Node40</title>
<path fill="none" stroke="midnightblue" d="M1290.44,-125.97C1298.68,-114.33 1308.26,-100.8 1314.35,-92.19"/>
<polygon fill="midnightblue" stroke="midnightblue" points="1287.4,-124.21 1284.48,-134.4 1293.11,-128.26 1287.4,-124.21"/>
</g>
<!-- Node40&#45;&gt;Node17 -->
<g id="edge31" class="edge">
<title>Node40&#45;&gt;Node17</title>
<path fill="none" stroke="midnightblue" d="M1273.2,-70.9C1266.27,-69.5 1259.21,-68.15 1252.5,-67 1135,-46.86 996.25,-30.6 920.61,-22.37"/>
<polygon fill="midnightblue" stroke="midnightblue" points="1272.69,-74.37 1283.19,-72.98 1274.11,-67.52 1272.69,-74.37"/>
</g>
<!-- Node34 -->
<g id="node28" class="node">
<title>Node34</title>
<g id="a_node28"><a xlink:href="tls_2_client_8h.html" target="_top" xlink:title=" ">
<polygon fill="white" stroke="black" points="1273.5,-0.5 1273.5,-30.5 1367.5,-30.5 1367.5,-0.5 1273.5,-0.5"/>
<text text-anchor="start" x="1281.5" y="-18.5" font-family="Helvetica,sans-Serif" font-size="10.00">web/http/client/tls</text>
<text text-anchor="middle" x="1320.5" y="-7.5" font-family="Helvetica,sans-Serif" font-size="10.00">/Client.h</text>
</a>
</g>
</g>
<!-- Node40&#45;&gt;Node34 -->
<g id="edge32" class="edge">
<title>Node40&#45;&gt;Node34</title>
<path fill="none" stroke="midnightblue" d="M1320.5,-62.41C1320.5,-52.22 1320.5,-39.9 1320.5,-30.59"/>
<polygon fill="midnightblue" stroke="midnightblue" points="1317,-62.73 1320.5,-72.73 1324,-62.73 1317,-62.73"/>
</g>
<!-- Node42 -->
<g id="node30" class="node">
<title>Node42</title>
<g id="a_node30"><a xlink:href="_server_8h.html" target="_top" xlink:title=" ">
<polygon fill="white" stroke="black" points="1121,-73 1121,-92 1244,-92 1244,-73 1121,-73"/>
<text text-anchor="middle" x="1182.5" y="-80" font-family="Helvetica,sans-Serif" font-size="10.00">web/http/server/Server.h</text>
</a>
</g>
</g>
<!-- Node41&#45;&gt;Node42 -->
<g id="edge34" class="edge">
<title>Node41&#45;&gt;Node42</title>
<path fill="none" stroke="midnightblue" d="M1130.17,-127.67C1144.39,-115.67 1161.51,-101.22 1172.2,-92.19"/>
<polygon fill="midnightblue" stroke="midnightblue" points="1127.59,-125.27 1122.21,-134.4 1132.11,-130.62 1127.59,-125.27"/>
</g>
<!-- Node42&#45;&gt;Node8 -->
<g id="edge35" class="edge">
<title>Node42&#45;&gt;Node8</title>
<path fill="none" stroke="midnightblue" d="M1135.23,-71.02C1127.34,-69.51 1119.21,-68.1 1111.5,-67 906.22,-37.79 660.11,-23.99 549.88,-18.91"/>
<polygon fill="midnightblue" stroke="midnightblue" points="1134.57,-74.46 1145.06,-72.98 1135.94,-67.6 1134.57,-74.46"/>
</g>
<!-- Node26 -->
<g id="node31" class="node">
<title>Node26</title>
<g id="a_node31"><a xlink:href="tls_2_server_8h.html" target="_top" xlink:title=" ">
<polygon fill="white" stroke="red" points="1133.5,-0.5 1133.5,-30.5 1231.5,-30.5 1231.5,-0.5 1133.5,-0.5"/>
<text text-anchor="start" x="1141.5" y="-18.5" font-family="Helvetica,sans-Serif" font-size="10.00">web/http/server/tls</text>
<text text-anchor="middle" x="1182.5" y="-7.5" font-family="Helvetica,sans-Serif" font-size="10.00">/Server.h</text>
</a>
</g>
</g>
<!-- Node42&#45;&gt;Node26 -->
<g id="edge36" class="edge">
<title>Node42&#45;&gt;Node26</title>
<path fill="none" stroke="midnightblue" d="M1182.5,-62.41C1182.5,-52.22 1182.5,-39.9 1182.5,-30.59"/>
<polygon fill="midnightblue" stroke="midnightblue" points="1179,-62.73 1182.5,-72.73 1186,-62.73 1179,-62.73"/>
</g>
<!-- Node44 -->
<g id="node33" class="node">
<title>Node44</title>
<g id="a_node33"><a xlink:href="http_2client_2_socket_context_upgrade_factory_8h.html" target="_top" xlink:title=" ">
<polygon fill="white" stroke="black" points="2046,-268.5 2046,-298.5 2195,-298.5 2195,-268.5 2046,-268.5"/>
<text text-anchor="start" x="2054" y="-286.5" font-family="Helvetica,sans-Serif" font-size="10.00">web/http/client/SocketContext</text>
<text text-anchor="middle" x="2120.5" y="-275.5" font-family="Helvetica,sans-Serif" font-size="10.00">UpgradeFactory.h</text>
</a>
</g>
</g>
<!-- Node43&#45;&gt;Node44 -->
<g id="edge38" class="edge">
<title>Node43&#45;&gt;Node44</title>
<path fill="none" stroke="midnightblue" d="M2173.76,-328.88C2161.91,-319.01 2148.02,-307.43 2137.39,-298.58"/>
<polygon fill="midnightblue" stroke="midnightblue" points="2171.65,-331.68 2181.58,-335.4 2176.13,-326.31 2171.65,-331.68"/>
</g>
<!-- Node53 -->
<g id="node42" class="node">
<title>Node53</title>
<g id="a_node42"><a xlink:href="http_2server_2_socket_context_upgrade_factory_8h.html" target="_top" xlink:title=" ">
<polygon fill="white" stroke="black" points="2447.5,-268.5 2447.5,-298.5 2599.5,-298.5 2599.5,-268.5 2447.5,-268.5"/>
<text text-anchor="start" x="2455.5" y="-286.5" font-family="Helvetica,sans-Serif" font-size="10.00">web/http/server/SocketContext</text>
<text text-anchor="middle" x="2523.5" y="-275.5" font-family="Helvetica,sans-Serif" font-size="10.00">UpgradeFactory.h</text>
</a>
</g>
</g>
<!-- Node43&#45;&gt;Node53 -->
<g id="edge48" class="edge">
<title>Node43&#45;&gt;Node53</title>
<path fill="none" stroke="midnightblue" d="M2278.75,-333.45C2332.26,-322.75 2401.91,-308.82 2453.23,-298.55"/>
<polygon fill="midnightblue" stroke="midnightblue" points="2277.74,-330.08 2268.62,-335.48 2279.11,-336.95 2277.74,-330.08"/>
</g>
<!-- Node61 -->
<g id="node50" class="node">
<title>Node61</title>
<g id="a_node50"><a xlink:href="_socket_context_upgrade_factory_8hpp.html" target="_top" xlink:title=" ">
<polygon fill="white" stroke="black" points="2223,-201.5 2223,-231.5 2382,-231.5 2382,-201.5 2223,-201.5"/>
<text text-anchor="start" x="2231" y="-219.5" font-family="Helvetica,sans-Serif" font-size="10.00">web/http/SocketContextUpgrade</text>
<text text-anchor="middle" x="2302.5" y="-208.5" font-family="Helvetica,sans-Serif" font-size="10.00">Factory.hpp</text>
</a>
</g>
</g>
<!-- Node43&#45;&gt;Node61 -->
<g id="edge57" class="edge">
<title>Node43&#45;&gt;Node61</title>
<path fill="none" stroke="midnightblue" d="M2216.08,-327.19C2237.61,-299.86 2273.44,-254.38 2291.45,-231.52"/>
<polygon fill="midnightblue" stroke="midnightblue" points="2213.07,-325.35 2209.63,-335.37 2218.57,-329.68 2213.07,-325.35"/>
</g>
<!-- Node45 -->
<g id="node34" class="node">
<title>Node45</title>
<g id="a_node34"><a xlink:href="http_2client_2_socket_context_upgrade_factory_8cpp.html" target="_top" xlink:title=" ">
<polygon fill="white" stroke="black" points="2204,-134.5 2204,-164.5 2353,-164.5 2353,-134.5 2204,-134.5"/>
<text text-anchor="start" x="2212" y="-152.5" font-family="Helvetica,sans-Serif" font-size="10.00">web/http/client/SocketContext</text>
<text text-anchor="middle" x="2278.5" y="-141.5" font-family="Helvetica,sans-Serif" font-size="10.00">UpgradeFactory.cpp</text>
</a>
</g>
</g>
<!-- Node44&#45;&gt;Node45 -->
<g id="edge39" class="edge">
<title>Node44&#45;&gt;Node45</title>
<path fill="none" stroke="midnightblue" d="M2143.81,-261.76C2162.67,-245.11 2190.04,-221.24 2214.5,-201 2229.66,-188.46 2247.22,-174.65 2260.11,-164.64"/>
<polygon fill="midnightblue" stroke="midnightblue" points="2141.44,-259.18 2136.27,-268.43 2146.08,-264.42 2141.44,-259.18"/>
</g>
<!-- Node46 -->
<g id="node35" class="node">
<title>Node46</title>
<g id="a_node35"><a xlink:href="client_2_socket_context_upgrade_factory_selector_8h.html" target="_top" xlink:title=" ">
<polygon fill="white" stroke="black" points="2019,-201.5 2019,-231.5 2168,-231.5 2168,-201.5 2019,-201.5"/>
<text text-anchor="start" x="2027" y="-219.5" font-family="Helvetica,sans-Serif" font-size="10.00">web/http/client/SocketContext</text>
<text text-anchor="middle" x="2093.5" y="-208.5" font-family="Helvetica,sans-Serif" font-size="10.00">UpgradeFactorySelector.h</text>
</a>
</g>
</g>
<!-- Node44&#45;&gt;Node46 -->
<g id="edge40" class="edge">
<title>Node44&#45;&gt;Node46</title>
<path fill="none" stroke="midnightblue" d="M2110.73,-258.99C2106.92,-249.8 2102.67,-239.58 2099.35,-231.58"/>
<polygon fill="midnightblue" stroke="midnightblue" points="2107.57,-260.5 2114.64,-268.4 2114.04,-257.82 2107.57,-260.5"/>
</g>
<!-- Node50 -->
<g id="node39" class="node">
<title>Node50</title>
<g id="a_node39"><a xlink:href="websocket_2client_2_socket_context_upgrade_factory_8h.html" target="_top" xlink:title=" ">
<polygon fill="white" stroke="black" points="1531,-201.5 1531,-231.5 1692,-231.5 1692,-201.5 1531,-201.5"/>
<text text-anchor="start" x="1539" y="-219.5" font-family="Helvetica,sans-Serif" font-size="10.00">web/websocket/client</text>
<text text-anchor="middle" x="1611.5" y="-208.5" font-family="Helvetica,sans-Serif" font-size="10.00">/SocketContextUpgradeFactory.h</text>
</a>
</g>
</g>
<!-- Node44&#45;&gt;Node50 -->
<g id="edge45" class="edge">
<title>Node44&#45;&gt;Node50</title>
<path fill="none" stroke="midnightblue" d="M2035.74,-271.68C1940.19,-259.47 1785.97,-239.78 1692.15,-227.8"/>
<polygon fill="midnightblue" stroke="midnightblue" points="2035.58,-275.18 2045.94,-272.98 2036.47,-268.24 2035.58,-275.18"/>
</g>
<!-- Node46&#45;&gt;Node45 -->
<g id="edge43" class="edge">
<title>Node46&#45;&gt;Node45</title>
<path fill="none" stroke="midnightblue" d="M2143.44,-197.96C2173.24,-187.48 2210.57,-174.37 2238.44,-164.58"/>
<polygon fill="midnightblue" stroke="midnightblue" points="2141.92,-194.78 2133.64,-201.4 2144.24,-201.38 2141.92,-194.78"/>
</g>
<!-- Node47 -->
<g id="node36" class="node">
<title>Node47</title>
<g id="a_node36"><a xlink:href="web_2http_2client_2_request_8cpp.html" target="_top" xlink:title=" ">
<polygon fill="white" stroke="black" points="2047,-140 2047,-159 2186,-159 2186,-140 2047,-140"/>
<text text-anchor="middle" x="2116.5" y="-147" font-family="Helvetica,sans-Serif" font-size="10.00">web/http/client/Request.cpp</text>
</a>
</g>
</g>
<!-- Node46&#45;&gt;Node47 -->
<g id="edge41" class="edge">
<title>Node46&#45;&gt;Node47</title>
<path fill="none" stroke="midnightblue" d="M2101.84,-191.94C2105.87,-180.54 2110.47,-167.55 2113.42,-159.19"/>
<polygon fill="midnightblue" stroke="midnightblue" points="2098.53,-190.8 2098.49,-201.4 2105.13,-193.14 2098.53,-190.8"/>
</g>
<!-- Node48 -->
<g id="node37" class="node">
<title>Node48</title>
<g id="a_node37"><a xlink:href="web_2http_2client_2_response_8cpp.html" target="_top" xlink:title=" ">
<polygon fill="white" stroke="black" points="1715.5,-140 1715.5,-159 1861.5,-159 1861.5,-140 1715.5,-140"/>
<text text-anchor="middle" x="1788.5" y="-147" font-family="Helvetica,sans-Serif" font-size="10.00">web/http/client/Response.cpp</text>
</a>
</g>
</g>
<!-- Node46&#45;&gt;Node48 -->
<g id="edge42" class="edge">
<title>Node46&#45;&gt;Node48</title>
<path fill="none" stroke="midnightblue" d="M2017.89,-199.39C1957.93,-186.61 1876.5,-169.25 1828.52,-159.03"/>
<polygon fill="midnightblue" stroke="midnightblue" points="2017.19,-202.81 2027.7,-201.48 2018.64,-195.97 2017.19,-202.81"/>
</g>
<!-- Node49 -->
<g id="node38" class="node">
<title>Node49</title>
<g id="a_node38"><a xlink:href="client_2_socket_context_upgrade_factory_selector_8cpp.html" target="_top" xlink:title=" ">
<polygon fill="white" stroke="black" points="1880,-134.5 1880,-164.5 2029,-164.5 2029,-134.5 1880,-134.5"/>
<text text-anchor="start" x="1888" y="-152.5" font-family="Helvetica,sans-Serif" font-size="10.00">web/http/client/SocketContext</text>
<text text-anchor="middle" x="1954.5" y="-141.5" font-family="Helvetica,sans-Serif" font-size="10.00">UpgradeFactorySelector.cpp</text>
</a>
</g>
</g>
<!-- Node46&#45;&gt;Node49 -->
<g id="edge44" class="edge">
<title>Node46&#45;&gt;Node49</title>
<path fill="none" stroke="midnightblue" d="M2054.22,-197.13C2032.13,-186.8 2004.99,-174.11 1984.6,-164.58"/>
<polygon fill="midnightblue" stroke="midnightblue" points="2052.8,-200.33 2063.34,-201.4 2055.76,-193.99 2052.8,-200.33"/>
</g>
<!-- Node51 -->
<g id="node40" class="node">
<title>Node51</title>
<g id="a_node40"><a xlink:href="client_2_socket_context_upgrade_8cpp.html" target="_top" xlink:title=" ">
<polygon fill="white" stroke="black" points="1367.5,-134.5 1367.5,-164.5 1507.5,-164.5 1507.5,-134.5 1367.5,-134.5"/>
<text text-anchor="start" x="1375.5" y="-152.5" font-family="Helvetica,sans-Serif" font-size="10.00">web/websocket/client</text>
<text text-anchor="middle" x="1437.5" y="-141.5" font-family="Helvetica,sans-Serif" font-size="10.00">/SocketContextUpgrade.cpp</text>
</a>
</g>
</g>
<!-- Node50&#45;&gt;Node51 -->
<g id="edge46" class="edge">
<title>Node50&#45;&gt;Node51</title>
<path fill="none" stroke="midnightblue" d="M1564.17,-197.82C1536.2,-187.37 1501.27,-174.32 1475.18,-164.58"/>
<polygon fill="midnightblue" stroke="midnightblue" points="1563.15,-201.18 1573.74,-201.4 1565.6,-194.62 1563.15,-201.18"/>
</g>
<!-- Node52 -->
<g id="node41" class="node">
<title>Node52</title>
<g id="a_node41"><a xlink:href="websocket_2client_2_socket_context_upgrade_factory_8cpp.html" target="_top" xlink:title=" ">
<polygon fill="white" stroke="black" points="1525.5,-134.5 1525.5,-164.5 1697.5,-164.5 1697.5,-134.5 1525.5,-134.5"/>
<text text-anchor="start" x="1533.5" y="-152.5" font-family="Helvetica,sans-Serif" font-size="10.00">web/websocket/client</text>
<text text-anchor="middle" x="1611.5" y="-141.5" font-family="Helvetica,sans-Serif" font-size="10.00">/SocketContextUpgradeFactory.cpp</text>
</a>
</g>
</g>
<!-- Node50&#45;&gt;Node52 -->
<g id="edge47" class="edge">
<title>Node50&#45;&gt;Node52</title>
<path fill="none" stroke="midnightblue" d="M1611.5,-191.11C1611.5,-182.15 1611.5,-172.32 1611.5,-164.58"/>
<polygon fill="midnightblue" stroke="midnightblue" points="1608,-191.4 1611.5,-201.4 1615,-191.4 1608,-191.4"/>
</g>
<!-- Node54 -->
<g id="node43" class="node">
<title>Node54</title>
<g id="a_node43"><a xlink:href="http_2server_2_socket_context_upgrade_factory_8cpp.html" target="_top" xlink:title=" ">
<polygon fill="white" stroke="black" points="2371.5,-134.5 2371.5,-164.5 2523.5,-164.5 2523.5,-134.5 2371.5,-134.5"/>
<text text-anchor="start" x="2379.5" y="-152.5" font-family="Helvetica,sans-Serif" font-size="10.00">web/http/server/SocketContext</text>
<text text-anchor="middle" x="2447.5" y="-141.5" font-family="Helvetica,sans-Serif" font-size="10.00">UpgradeFactory.cpp</text>
</a>
</g>
</g>
<!-- Node53&#45;&gt;Node54 -->
<g id="edge49" class="edge">
<title>Node53&#45;&gt;Node54</title>
<path fill="none" stroke="midnightblue" d="M2510.24,-259.48C2494.47,-232.07 2468.62,-187.19 2455.57,-164.52"/>
<polygon fill="midnightblue" stroke="midnightblue" points="2507.34,-261.45 2515.37,-268.37 2513.41,-257.96 2507.34,-261.45"/>
</g>
<!-- Node55 -->
<g id="node44" class="node">
<title>Node55</title>
<g id="a_node44"><a xlink:href="server_2_socket_context_upgrade_factory_selector_8h.html" target="_top" xlink:title=" ">
<polygon fill="white" stroke="black" points="2508.5,-201.5 2508.5,-231.5 2660.5,-231.5 2660.5,-201.5 2508.5,-201.5"/>
<text text-anchor="start" x="2516.5" y="-219.5" font-family="Helvetica,sans-Serif" font-size="10.00">web/http/server/SocketContext</text>
<text text-anchor="middle" x="2584.5" y="-208.5" font-family="Helvetica,sans-Serif" font-size="10.00">UpgradeFactorySelector.h</text>
</a>
</g>
</g>
<!-- Node53&#45;&gt;Node55 -->
<g id="edge50" class="edge">
<title>Node53&#45;&gt;Node55</title>
<path fill="none" stroke="midnightblue" d="M2543.65,-261.02C2552.74,-251.34 2563.22,-240.17 2571.29,-231.58"/>
<polygon fill="midnightblue" stroke="midnightblue" points="2541.03,-258.71 2536.74,-268.4 2546.13,-263.5 2541.03,-258.71"/>
</g>
<!-- Node58 -->
<g id="node47" class="node">
<title>Node58</title>
<g id="a_node47"><a xlink:href="websocket_2server_2_socket_context_upgrade_factory_8h.html" target="_top" xlink:title=" ">
<polygon fill="white" stroke="black" points="2885,-201.5 2885,-231.5 3046,-231.5 3046,-201.5 2885,-201.5"/>
<text text-anchor="start" x="2893" y="-219.5" font-family="Helvetica,sans-Serif" font-size="10.00">web/websocket/server</text>
<text text-anchor="middle" x="2965.5" y="-208.5" font-family="Helvetica,sans-Serif" font-size="10.00">/SocketContextUpgradeFactory.h</text>
</a>
</g>
</g>
<!-- Node53&#45;&gt;Node58 -->
<g id="edge54" class="edge">
<title>Node53&#45;&gt;Node58</title>
<path fill="none" stroke="midnightblue" d="M2609.74,-269.82C2689.37,-258.11 2806.75,-240.85 2884.63,-229.39"/>
<polygon fill="midnightblue" stroke="midnightblue" points="2609.12,-266.37 2599.73,-271.29 2610.14,-273.3 2609.12,-266.37"/>
</g>
<!-- Node55&#45;&gt;Node54 -->
<g id="edge52" class="edge">
<title>Node55&#45;&gt;Node54</title>
<path fill="none" stroke="midnightblue" d="M2545.49,-196.99C2523.78,-186.69 2497.17,-174.07 2477.17,-164.58"/>
<polygon fill="midnightblue" stroke="midnightblue" points="2544.24,-200.27 2554.77,-201.4 2547.24,-193.95 2544.24,-200.27"/>
</g>
<!-- Node56 -->
<g id="node45" class="node">
<title>Node56</title>
<g id="a_node45"><a xlink:href="web_2http_2server_2_response_8cpp.html" target="_top" xlink:title=" ">
<polygon fill="white" stroke="black" points="2711.5,-140 2711.5,-159 2861.5,-159 2861.5,-140 2711.5,-140"/>
<text text-anchor="middle" x="2786.5" y="-147" font-family="Helvetica,sans-Serif" font-size="10.00">web/http/server/Response.cpp</text>
</a>
</g>
</g>
<!-- Node55&#45;&gt;Node56 -->
<g id="edge51" class="edge">
<title>Node55&#45;&gt;Node56</title>
<path fill="none" stroke="midnightblue" d="M2638.05,-198.27C2677.41,-185.6 2729.21,-168.93 2760.06,-159.01"/>
<polygon fill="midnightblue" stroke="midnightblue" points="2636.78,-195 2628.33,-201.4 2638.92,-201.66 2636.78,-195"/>
</g>
<!-- Node57 -->
<g id="node46" class="node">
<title>Node57</title>
<g id="a_node46"><a xlink:href="server_2_socket_context_upgrade_factory_selector_8cpp.html" target="_top" xlink:title=" ">
<polygon fill="white" stroke="black" points="2541.5,-134.5 2541.5,-164.5 2693.5,-164.5 2693.5,-134.5 2541.5,-134.5"/>
<text text-anchor="start" x="2549.5" y="-152.5" font-family="Helvetica,sans-Serif" font-size="10.00">web/http/server/SocketContext</text>
<text text-anchor="middle" x="2617.5" y="-141.5" font-family="Helvetica,sans-Serif" font-size="10.00">UpgradeFactorySelector.cpp</text>
</a>
</g>
</g>
<!-- Node55&#45;&gt;Node57 -->
<g id="edge53" class="edge">
<title>Node55&#45;&gt;Node57</title>
<path fill="none" stroke="midnightblue" d="M2596.29,-192.28C2600.99,-183.02 2606.25,-172.66 2610.35,-164.58"/>
<polygon fill="midnightblue" stroke="midnightblue" points="2593.07,-190.89 2591.66,-201.4 2599.31,-194.06 2593.07,-190.89"/>
</g>
<!-- Node59 -->
<g id="node48" class="node">
<title>Node59</title>
<g id="a_node48"><a xlink:href="server_2_socket_context_upgrade_8cpp.html" target="_top" xlink:title=" ">
<polygon fill="white" stroke="black" points="3069.5,-134.5 3069.5,-164.5 3209.5,-164.5 3209.5,-134.5 3069.5,-134.5"/>
<text text-anchor="start" x="3077.5" y="-152.5" font-family="Helvetica,sans-Serif" font-size="10.00">web/websocket/server</text>
<text text-anchor="middle" x="3139.5" y="-141.5" font-family="Helvetica,sans-Serif" font-size="10.00">/SocketContextUpgrade.cpp</text>
</a>
</g>
</g>
<!-- Node58&#45;&gt;Node59 -->
<g id="edge55" class="edge">
<title>Node58&#45;&gt;Node59</title>
<path fill="none" stroke="midnightblue" d="M3012.83,-197.82C3040.8,-187.37 3075.73,-174.32 3101.82,-164.58"/>
<polygon fill="midnightblue" stroke="midnightblue" points="3011.4,-194.62 3003.26,-201.4 3013.85,-201.18 3011.4,-194.62"/>
</g>
<!-- Node60 -->
<g id="node49" class="node">
<title>Node60</title>
<g id="a_node49"><a xlink:href="websocket_2server_2_socket_context_upgrade_factory_8cpp.html" target="_top" xlink:title=" ">
<polygon fill="white" stroke="black" points="2879.5,-134.5 2879.5,-164.5 3051.5,-164.5 3051.5,-134.5 2879.5,-134.5"/>
<text text-anchor="start" x="2887.5" y="-152.5" font-family="Helvetica,sans-Serif" font-size="10.00">web/websocket/server</text>
<text text-anchor="middle" x="2965.5" y="-141.5" font-family="Helvetica,sans-Serif" font-size="10.00">/SocketContextUpgradeFactory.cpp</text>
</a>
</g>
</g>
<!-- Node58&#45;&gt;Node60 -->
<g id="edge56" class="edge">
<title>Node58&#45;&gt;Node60</title>
<path fill="none" stroke="midnightblue" d="M2965.5,-191.11C2965.5,-182.15 2965.5,-172.32 2965.5,-164.58"/>
<polygon fill="midnightblue" stroke="midnightblue" points="2962,-191.4 2965.5,-201.4 2969,-191.4 2962,-191.4"/>
</g>
<!-- Node61&#45;&gt;Node45 -->
<g id="edge58" class="edge">
<title>Node61&#45;&gt;Node45</title>
<path fill="none" stroke="midnightblue" d="M2293.82,-191.99C2290.43,-182.8 2286.65,-172.58 2283.7,-164.58"/>
<polygon fill="midnightblue" stroke="midnightblue" points="2290.55,-193.23 2297.29,-201.4 2297.11,-190.8 2290.55,-193.23"/>
</g>
<!-- Node61&#45;&gt;Node54 -->
<g id="edge59" class="edge">
<title>Node61&#45;&gt;Node54</title>
<path fill="none" stroke="midnightblue" d="M2343.17,-197.27C2366.26,-186.92 2394.74,-174.15 2416.1,-164.58"/>
<polygon fill="midnightblue" stroke="midnightblue" points="2341.66,-194.11 2333.96,-201.4 2344.52,-200.5 2341.66,-194.11"/>
</g>
</g>
</svg>
