<?xml version="1.0" encoding="UTF-8" standalone="no"?>
<!DOCTYPE svg PUBLIC "-//W3C//DTD SVG 1.1//EN"
 "http://www.w3.org/Graphics/SVG/1.1/DTD/svg11.dtd">
<!-- Generated by graphviz version 2.43.0 (0)
 -->
<!-- Title: core/system/dlfcn.h Pages: 1 -->
<svg width="1161pt" height="285pt"
 viewBox="0.00 0.00 1160.50 285.00" xmlns="http://www.w3.org/2000/svg" xmlns:xlink="http://www.w3.org/1999/xlink">
<g id="graph0" class="graph" transform="scale(1 1) rotate(0) translate(4 281)">
<title>core/system/dlfcn.h</title>
<polygon fill="white" stroke="transparent" points="-4,4 -4,-281 1156.5,-281 1156.5,4 -4,4"/>
<!-- Node1 -->
<g id="node1" class="node">
<title>Node1</title>
<g id="a_node1"><a xlink:title=" ">
<polygon fill="#bfbfbf" stroke="black" points="351,-257.5 351,-276.5 454,-276.5 454,-257.5 351,-257.5"/>
<text text-anchor="middle" x="402.5" y="-264.5" font-family="Helvetica,sans-Serif" font-size="10.00">core/system/dlfcn.h</text>
</a>
</g>
</g>
<!-- Node2 -->
<g id="node2" class="node">
<title>Node2</title>
<g id="a_node2"><a xlink:href="_dynamic_loader_8h.html" target="_top" xlink:title=" ">
<polygon fill="white" stroke="black" points="213.5,-201.5 213.5,-220.5 327.5,-220.5 327.5,-201.5 213.5,-201.5"/>
<text text-anchor="middle" x="270.5" y="-208.5" font-family="Helvetica,sans-Serif" font-size="10.00">core/DynamicLoader.h</text>
</a>
</g>
</g>
<!-- Node1&#45;&gt;Node2 -->
<g id="edge1" class="edge">
<title>Node1&#45;&gt;Node2</title>
<path fill="none" stroke="midnightblue" d="M372.28,-253.64C347.51,-243.5 313.1,-229.43 291.32,-220.52"/>
<polygon fill="midnightblue" stroke="midnightblue" points="371,-256.9 381.58,-257.44 373.65,-250.42 371,-256.9"/>
</g>
<!-- Node17 -->
<g id="node17" class="node">
<title>Node17</title>
<g id="a_node17"><a xlink:href="dlfcn_8cpp.html" target="_top" xlink:title=" ">
<polygon fill="white" stroke="black" points="346,-201.5 346,-220.5 459,-220.5 459,-201.5 346,-201.5"/>
<text text-anchor="middle" x="402.5" y="-208.5" font-family="Helvetica,sans-Serif" font-size="10.00">core/system/dlfcn.cpp</text>
</a>
</g>
</g>
<!-- Node1&#45;&gt;Node17 -->
<g id="edge16" class="edge">
<title>Node1&#45;&gt;Node17</title>
<path fill="none" stroke="midnightblue" d="M402.5,-246.8C402.5,-237.91 402.5,-227.78 402.5,-220.75"/>
<polygon fill="midnightblue" stroke="midnightblue" points="399,-247.08 402.5,-257.08 406,-247.08 399,-247.08"/>
</g>
<!-- Node18 -->
<g id="node18" class="node">
<title>Node18</title>
<g id="a_node18"><a xlink:href="instrumentation_8cpp.html" target="_top" xlink:title=" ">
<polygon fill="white" stroke="black" points="477,-201.5 477,-220.5 600,-220.5 600,-201.5 477,-201.5"/>
<text text-anchor="middle" x="538.5" y="-208.5" font-family="Helvetica,sans-Serif" font-size="10.00">utils/instrumentation.cpp</text>
</a>
</g>
</g>
<!-- Node1&#45;&gt;Node18 -->
<g id="edge17" class="edge">
<title>Node1&#45;&gt;Node18</title>
<path fill="none" stroke="midnightblue" d="M433.63,-253.64C459.16,-243.5 494.61,-229.43 517.05,-220.52"/>
<polygon fill="midnightblue" stroke="midnightblue" points="432.05,-250.5 424.05,-257.44 434.64,-257.01 432.05,-250.5"/>
</g>
<!-- Node3 -->
<g id="node3" class="node">
<title>Node3</title>
<g id="a_node3"><a xlink:href="_dynamic_loader_8cpp.html" target="_top" xlink:title=" ">
<polygon fill="white" stroke="black" points="0,-140 0,-159 125,-159 125,-140 0,-140"/>
<text text-anchor="middle" x="62.5" y="-147" font-family="Helvetica,sans-Serif" font-size="10.00">core/DynamicLoader.cpp</text>
</a>
</g>
</g>
<!-- Node2&#45;&gt;Node3 -->
<g id="edge2" class="edge">
<title>Node2&#45;&gt;Node3</title>
<path fill="none" stroke="midnightblue" d="M230.91,-198.68C190.5,-187.11 128.67,-169.43 92.25,-159.01"/>
<polygon fill="midnightblue" stroke="midnightblue" points="230.12,-202.09 240.7,-201.48 232.05,-195.36 230.12,-202.09"/>
</g>
<!-- Node4 -->
<g id="node4" class="node">
<title>Node4</title>
<g id="a_node4"><a xlink:href="_event_loop_8cpp.html" target="_top" xlink:title=" ">
<polygon fill="white" stroke="black" points="143.5,-140 143.5,-159 247.5,-159 247.5,-140 143.5,-140"/>
<text text-anchor="middle" x="195.5" y="-147" font-family="Helvetica,sans-Serif" font-size="10.00">core/EventLoop.cpp</text>
</a>
</g>
</g>
<!-- Node2&#45;&gt;Node4 -->
<g id="edge3" class="edge">
<title>Node2&#45;&gt;Node4</title>
<path fill="none" stroke="midnightblue" d="M251.56,-194.97C237.21,-183.59 218.02,-168.37 206.23,-159.01"/>
<polygon fill="midnightblue" stroke="midnightblue" points="249.74,-198 259.75,-201.48 254.1,-192.52 249.74,-198"/>
</g>
<!-- Node5 -->
<g id="node5" class="node">
<title>Node5</title>
<g id="a_node5"><a xlink:href="_socket_context_upgrade_factory_selector_8hpp.html" target="_top" xlink:title=" ">
<polygon fill="white" stroke="black" points="266,-134.5 266,-164.5 425,-164.5 425,-134.5 266,-134.5"/>
<text text-anchor="start" x="274" y="-152.5" font-family="Helvetica,sans-Serif" font-size="10.00">web/http/SocketContextUpgrade</text>
<text text-anchor="middle" x="345.5" y="-141.5" font-family="Helvetica,sans-Serif" font-size="10.00">FactorySelector.hpp</text>
</a>
</g>
</g>
<!-- Node2&#45;&gt;Node5 -->
<g id="edge4" class="edge">
<title>Node2&#45;&gt;Node5</title>
<path fill="none" stroke="midnightblue" d="M289.16,-195.2C300.99,-185.81 316.19,-173.75 327.82,-164.52"/>
<polygon fill="midnightblue" stroke="midnightblue" points="286.9,-192.52 281.25,-201.48 291.26,-198 286.9,-192.52"/>
</g>
<!-- Node8 -->
<g id="node8" class="node">
<title>Node8</title>
<g id="a_node8"><a xlink:href="_sub_protocol_factory_selector_8h.html" target="_top" xlink:title=" ">
<polygon fill="white" stroke="black" points="444,-134.5 444,-164.5 585,-164.5 585,-134.5 444,-134.5"/>
<text text-anchor="start" x="452" y="-152.5" font-family="Helvetica,sans-Serif" font-size="10.00">web/websocket/SubProtocol</text>
<text text-anchor="middle" x="514.5" y="-141.5" font-family="Helvetica,sans-Serif" font-size="10.00">FactorySelector.h</text>
</a>
</g>
</g>
<!-- Node2&#45;&gt;Node8 -->
<g id="edge7" class="edge">
<title>Node2&#45;&gt;Node8</title>
<path fill="none" stroke="midnightblue" d="M315.42,-199.05C355.28,-189.33 413.73,-175.07 456.99,-164.52"/>
<polygon fill="midnightblue" stroke="midnightblue" points="314.35,-195.71 305.46,-201.48 316,-202.51 314.35,-195.71"/>
</g>
<!-- Node6 -->
<g id="node6" class="node">
<title>Node6</title>
<g id="a_node6"><a xlink:href="client_2_socket_context_upgrade_factory_selector_8cpp.html" target="_top" xlink:title=" ">
<polygon fill="white" stroke="black" points="102,-67.5 102,-97.5 251,-97.5 251,-67.5 102,-67.5"/>
<text text-anchor="start" x="110" y="-85.5" font-family="Helvetica,sans-Serif" font-size="10.00">web/http/client/SocketContext</text>
<text text-anchor="middle" x="176.5" y="-74.5" font-family="Helvetica,sans-Serif" font-size="10.00">UpgradeFactorySelector.cpp</text>
</a>
</g>
</g>
<!-- Node5&#45;&gt;Node6 -->
<g id="edge5" class="edge">
<title>Node5&#45;&gt;Node6</title>
<path fill="none" stroke="midnightblue" d="M299.17,-130.68C272.07,-120.26 238.33,-107.28 213.1,-97.58"/>
<polygon fill="midnightblue" stroke="midnightblue" points="298.24,-134.07 308.83,-134.4 300.75,-127.54 298.24,-134.07"/>
</g>
<!-- Node7 -->
<g id="node7" class="node">
<title>Node7</title>
<g id="a_node7"><a xlink:href="server_2_socket_context_upgrade_factory_selector_8cpp.html" target="_top" xlink:title=" ">
<polygon fill="white" stroke="black" points="269.5,-67.5 269.5,-97.5 421.5,-97.5 421.5,-67.5 269.5,-67.5"/>
<text text-anchor="start" x="277.5" y="-85.5" font-family="Helvetica,sans-Serif" font-size="10.00">web/http/server/SocketContext</text>
<text text-anchor="middle" x="345.5" y="-74.5" font-family="Helvetica,sans-Serif" font-size="10.00">UpgradeFactorySelector.cpp</text>
</a>
</g>
</g>
<!-- Node5&#45;&gt;Node7 -->
<g id="edge6" class="edge">
<title>Node5&#45;&gt;Node7</title>
<path fill="none" stroke="midnightblue" d="M345.5,-124.11C345.5,-115.15 345.5,-105.32 345.5,-97.58"/>
<polygon fill="midnightblue" stroke="midnightblue" points="342,-124.4 345.5,-134.4 349,-124.4 342,-124.4"/>
</g>
<!-- Node9 -->
<g id="node9" class="node">
<title>Node9</title>
<g id="a_node9"><a xlink:href="client_2_sub_protocol_factory_selector_8h.html" target="_top" xlink:title=" ">
<polygon fill="white" stroke="black" points="440,-67.5 440,-97.5 589,-97.5 589,-67.5 440,-67.5"/>
<text text-anchor="start" x="448" y="-85.5" font-family="Helvetica,sans-Serif" font-size="10.00">web/websocket/client</text>
<text text-anchor="middle" x="514.5" y="-74.5" font-family="Helvetica,sans-Serif" font-size="10.00">/SubProtocolFactorySelector.h</text>
</a>
</g>
</g>
<!-- Node8&#45;&gt;Node9 -->
<g id="edge8" class="edge">
<title>Node8&#45;&gt;Node9</title>
<path fill="none" stroke="midnightblue" d="M514.5,-124.11C514.5,-115.15 514.5,-105.32 514.5,-97.58"/>
<polygon fill="midnightblue" stroke="midnightblue" points="511,-124.4 514.5,-134.4 518,-124.4 511,-124.4"/>
</g>
<!-- Node13 -->
<g id="node13" class="node">
<title>Node13</title>
<g id="a_node13"><a xlink:href="server_2_sub_protocol_factory_selector_8h.html" target="_top" xlink:title=" ">
<polygon fill="white" stroke="black" points="763,-67.5 763,-97.5 912,-97.5 912,-67.5 763,-67.5"/>
<text text-anchor="start" x="771" y="-85.5" font-family="Helvetica,sans-Serif" font-size="10.00">web/websocket/server</text>
<text text-anchor="middle" x="837.5" y="-74.5" font-family="Helvetica,sans-Serif" font-size="10.00">/SubProtocolFactorySelector.h</text>
</a>
</g>
</g>
<!-- Node8&#45;&gt;Node13 -->
<g id="edge12" class="edge">
<title>Node8&#45;&gt;Node13</title>
<path fill="none" stroke="midnightblue" d="M594.26,-132.45C647.43,-121.75 716.66,-107.82 767.66,-97.55"/>
<polygon fill="midnightblue" stroke="midnightblue" points="593.3,-129.07 584.19,-134.48 594.68,-135.93 593.3,-129.07"/>
</g>
<!-- Node10 -->
<g id="node10" class="node">
<title>Node10</title>
<g id="a_node10"><a xlink:href="client_2_socket_context_upgrade_8cpp.html" target="_top" xlink:title=" ">
<polygon fill="white" stroke="black" points="214.5,-0.5 214.5,-30.5 354.5,-30.5 354.5,-0.5 214.5,-0.5"/>
<text text-anchor="start" x="222.5" y="-18.5" font-family="Helvetica,sans-Serif" font-size="10.00">web/websocket/client</text>
<text text-anchor="middle" x="284.5" y="-7.5" font-family="Helvetica,sans-Serif" font-size="10.00">/SocketContextUpgrade.cpp</text>
</a>
</g>
</g>
<!-- Node9&#45;&gt;Node10 -->
<g id="edge9" class="edge">
<title>Node9&#45;&gt;Node10</title>
<path fill="none" stroke="midnightblue" d="M455.11,-64.71C417.68,-54.14 369.9,-40.63 334.43,-30.61"/>
<polygon fill="midnightblue" stroke="midnightblue" points="454.3,-68.12 464.88,-67.48 456.21,-61.39 454.3,-68.12"/>
</g>
<!-- Node11 -->
<g id="node11" class="node">
<title>Node11</title>
<g id="a_node11"><a xlink:href="client_2_sub_protocol_factory_8cpp.html" target="_top" xlink:title=" ">
<polygon fill="white" stroke="black" points="373,-0.5 373,-30.5 496,-30.5 496,-0.5 373,-0.5"/>
<text text-anchor="start" x="381" y="-18.5" font-family="Helvetica,sans-Serif" font-size="10.00">web/websocket/client</text>
<text text-anchor="middle" x="434.5" y="-7.5" font-family="Helvetica,sans-Serif" font-size="10.00">/SubProtocolFactory.cpp</text>
</a>
</g>
</g>
<!-- Node9&#45;&gt;Node11 -->
<g id="edge10" class="edge">
<title>Node9&#45;&gt;Node11</title>
<path fill="none" stroke="midnightblue" d="M489.13,-60.88C476.97,-51.01 462.72,-39.43 451.82,-30.58"/>
<polygon fill="midnightblue" stroke="midnightblue" points="487.17,-63.81 497.14,-67.4 491.59,-58.37 487.17,-63.81"/>
</g>
<!-- Node12 -->
<g id="node12" class="node">
<title>Node12</title>
<g id="a_node12"><a xlink:href="client_2_sub_protocol_factory_selector_8cpp.html" target="_top" xlink:title=" ">
<polygon fill="white" stroke="black" points="514.5,-0.5 514.5,-30.5 674.5,-30.5 674.5,-0.5 514.5,-0.5"/>
<text text-anchor="start" x="522.5" y="-18.5" font-family="Helvetica,sans-Serif" font-size="10.00">web/websocket/client</text>
<text text-anchor="middle" x="594.5" y="-7.5" font-family="Helvetica,sans-Serif" font-size="10.00">/SubProtocolFactorySelector.cpp</text>
</a>
</g>
</g>
<!-- Node9&#45;&gt;Node12 -->
<g id="edge11" class="edge">
<title>Node9&#45;&gt;Node12</title>
<path fill="none" stroke="midnightblue" d="M539.87,-60.88C552.03,-51.01 566.28,-39.43 577.18,-30.58"/>
<polygon fill="midnightblue" stroke="midnightblue" points="537.41,-58.37 531.86,-67.4 541.83,-63.81 537.41,-58.37"/>
</g>
<!-- Node14 -->
<g id="node14" class="node">
<title>Node14</title>
<g id="a_node14"><a xlink:href="server_2_socket_context_upgrade_8cpp.html" target="_top" xlink:title=" ">
<polygon fill="white" stroke="black" points="692.5,-0.5 692.5,-30.5 832.5,-30.5 832.5,-0.5 692.5,-0.5"/>
<text text-anchor="start" x="700.5" y="-18.5" font-family="Helvetica,sans-Serif" font-size="10.00">web/websocket/server</text>
<text text-anchor="middle" x="762.5" y="-7.5" font-family="Helvetica,sans-Serif" font-size="10.00">/SocketContextUpgrade.cpp</text>
</a>
</g>
</g>
<!-- Node13&#45;&gt;Node14 -->
<g id="edge13" class="edge">
<title>Node13&#45;&gt;Node14</title>
<path fill="none" stroke="midnightblue" d="M813.38,-60.6C802.06,-50.78 788.86,-39.34 778.74,-30.58"/>
<polygon fill="midnightblue" stroke="midnightblue" points="811.38,-63.49 821.23,-67.4 815.96,-58.2 811.38,-63.49"/>
</g>
<!-- Node15 -->
<g id="node15" class="node">
<title>Node15</title>
<g id="a_node15"><a xlink:href="server_2_sub_protocol_factory_8cpp.html" target="_top" xlink:title=" ">
<polygon fill="white" stroke="black" points="851,-0.5 851,-30.5 974,-30.5 974,-0.5 851,-0.5"/>
<text text-anchor="start" x="859" y="-18.5" font-family="Helvetica,sans-Serif" font-size="10.00">web/websocket/server</text>
<text text-anchor="middle" x="912.5" y="-7.5" font-family="Helvetica,sans-Serif" font-size="10.00">/SubProtocolFactory.cpp</text>
</a>
</g>
</g>
<!-- Node13&#45;&gt;Node15 -->
<g id="edge14" class="edge">
<title>Node13&#45;&gt;Node15</title>
<path fill="none" stroke="midnightblue" d="M861.62,-60.6C872.94,-50.78 886.14,-39.34 896.26,-30.58"/>
<polygon fill="midnightblue" stroke="midnightblue" points="859.04,-58.2 853.77,-67.4 863.62,-63.49 859.04,-58.2"/>
</g>
<!-- Node16 -->
<g id="node16" class="node">
<title>Node16</title>
<g id="a_node16"><a xlink:href="server_2_sub_protocol_factory_selector_8cpp.html" target="_top" xlink:title=" ">
<polygon fill="white" stroke="black" points="992.5,-0.5 992.5,-30.5 1152.5,-30.5 1152.5,-0.5 992.5,-0.5"/>
<text text-anchor="start" x="1000.5" y="-18.5" font-family="Helvetica,sans-Serif" font-size="10.00">web/websocket/server</text>
<text text-anchor="middle" x="1072.5" y="-7.5" font-family="Helvetica,sans-Serif" font-size="10.00">/SubProtocolFactorySelector.cpp</text>
</a>
</g>
</g>
<!-- Node13&#45;&gt;Node16 -->
<g id="edge15" class="edge">
<title>Node13&#45;&gt;Node16</title>
<path fill="none" stroke="midnightblue" d="M898.18,-64.71C936.43,-54.14 985.24,-40.63 1021.48,-30.61"/>
<polygon fill="midnightblue" stroke="midnightblue" points="896.91,-61.44 888.2,-67.48 898.77,-68.18 896.91,-61.44"/>
</g>
</g>
</svg>
