<?xml version="1.0" encoding="UTF-8" standalone="no"?>
<!DOCTYPE svg PUBLIC "-//W3C//DTD SVG 1.1//EN"
 "http://www.w3.org/Graphics/SVG/1.1/DTD/svg11.dtd">
<!-- Generated by graphviz version 2.43.0 (0)
 -->
<!-- Title: web/http/SocketContextUpgrade.h Pages: 1 -->
<svg width="356pt" height="162pt"
 viewBox="0.00 0.00 355.50 162.00" xmlns="http://www.w3.org/2000/svg" xmlns:xlink="http://www.w3.org/1999/xlink">
<g id="graph0" class="graph" transform="scale(1 1) rotate(0) translate(4 158)">
<title>web/http/SocketContextUpgrade.h</title>
<polygon fill="white" stroke="transparent" points="-4,4 -4,-158 351.5,-158 351.5,4 -4,4"/>
<!-- Node1 -->
<g id="node1" class="node">
<title>Node1</title>
<g id="a_node1"><a xlink:title=" ">
<polygon fill="#bfbfbf" stroke="black" points="77,-134.5 77,-153.5 260,-153.5 260,-134.5 77,-134.5"/>
<text text-anchor="middle" x="168.5" y="-141.5" font-family="Helvetica,sans-Serif" font-size="10.00">web/http/SocketContextUpgrade.h</text>
</a>
</g>
</g>
<!-- Node2 -->
<g id="node2" class="node">
<title>Node2</title>
<g id="a_node2"><a xlink:href="core_2socket_2_socket_context_8h.html" target="_top" xlink:title=" ">
<polygon fill="white" stroke="black" points="0,-73 0,-92 155,-92 155,-73 0,-73"/>
<text text-anchor="middle" x="77.5" y="-80" font-family="Helvetica,sans-Serif" font-size="10.00">core/socket/SocketContext.h</text>
</a>
</g>
</g>
<!-- Node1&#45;&gt;Node2 -->
<g id="edge1" class="edge">
<title>Node1&#45;&gt;Node2</title>
<path fill="none" stroke="midnightblue" d="M155.46,-134.48C140.73,-124.84 116.53,-109.02 98.99,-97.55"/>
<polygon fill="midnightblue" stroke="midnightblue" points="100.8,-94.55 90.51,-92.01 96.97,-100.41 100.8,-94.55"/>
</g>
<!-- Node3 -->
<g id="node3" class="node">
<title>Node3</title>
<g id="a_node3"><a xlink:href="http_2_socket_context_upgrade_factory_8h.html" target="_top" xlink:title=" ">
<polygon fill="white" stroke="black" points="173.5,-67.5 173.5,-97.5 347.5,-97.5 347.5,-67.5 173.5,-67.5"/>
<text text-anchor="start" x="181.5" y="-85.5" font-family="Helvetica,sans-Serif" font-size="10.00">web/http/SocketContextUpgrade</text>
<text text-anchor="middle" x="260.5" y="-74.5" font-family="Helvetica,sans-Serif" font-size="10.00">Factory.h</text>
</a>
</g>
</g>
<!-- Node1&#45;&gt;Node3 -->
<g id="edge2" class="edge">
<title>Node1&#45;&gt;Node3</title>
<path fill="none" stroke="midnightblue" d="M181.68,-134.48C194.26,-126.34 213.66,-113.79 230.07,-103.18"/>
<polygon fill="midnightblue" stroke="midnightblue" points="232.32,-105.89 238.82,-97.52 228.52,-100.01 232.32,-105.89"/>
</g>
<!-- Node4 -->
<g id="node4" class="node">
<title>Node4</title>
<g id="a_node4"><a xlink:href="core_2socket_2_socket_context_factory_8h.html" target="_top" xlink:title=" ">
<polygon fill="white" stroke="black" points="187.5,-0.5 187.5,-30.5 333.5,-30.5 333.5,-0.5 187.5,-0.5"/>
<text text-anchor="start" x="195.5" y="-18.5" font-family="Helvetica,sans-Serif" font-size="10.00">core/socket/SocketContext</text>
<text text-anchor="middle" x="260.5" y="-7.5" font-family="Helvetica,sans-Serif" font-size="10.00">Factory.h</text>
</a>
</g>
</g>
<!-- Node3&#45;&gt;Node4 -->
<g id="edge3" class="edge">
<title>Node3&#45;&gt;Node4</title>
<path fill="none" stroke="midnightblue" d="M260.5,-67.4C260.5,-59.64 260.5,-49.81 260.5,-40.86"/>
<polygon fill="midnightblue" stroke="midnightblue" points="264,-40.58 260.5,-30.58 257,-40.58 264,-40.58"/>
</g>
</g>
</svg>
