<?xml version="1.0" encoding="UTF-8" standalone="no"?>
<!DOCTYPE svg PUBLIC "-//W3C//DTD SVG 1.1//EN"
 "http://www.w3.org/Graphics/SVG/1.1/DTD/svg11.dtd">
<!-- Generated by graphviz version 2.43.0 (0)
 -->
<!-- Title: net/in/stream/ConfigBind.h Pages: 1 -->
<svg width="929pt" height="341pt"
 viewBox="0.00 0.00 928.50 341.00" xmlns="http://www.w3.org/2000/svg" xmlns:xlink="http://www.w3.org/1999/xlink">
<g id="graph0" class="graph" transform="scale(1 1) rotate(0) translate(4 337)">
<title>net/in/stream/ConfigBind.h</title>
<polygon fill="white" stroke="transparent" points="-4,4 -4,-337 924.5,-337 924.5,4 -4,4"/>
<!-- Node1 -->
<g id="node1" class="node">
<title>Node1</title>
<g id="a_node1"><a xlink:title=" ">
<polygon fill="#bfbfbf" stroke="black" points="412,-313.5 412,-332.5 559,-332.5 559,-313.5 412,-313.5"/>
<text text-anchor="middle" x="485.5" y="-320.5" font-family="Helvetica,sans-Serif" font-size="10.00">net/in/stream/ConfigBind.h</text>
</a>
</g>
</g>
<!-- Node2 -->
<g id="node2" class="node">
<title>Node2</title>
<g id="a_node2"><a xlink:href="in_2stream_2_client_config_8h.html" target="_top" xlink:title=" ">
<polygon fill="white" stroke="black" points="211.5,-257.5 211.5,-276.5 365.5,-276.5 365.5,-257.5 211.5,-257.5"/>
<text text-anchor="middle" x="288.5" y="-264.5" font-family="Helvetica,sans-Serif" font-size="10.00">net/in/stream/ClientConfig.h</text>
</a>
</g>
</g>
<!-- Node1&#45;&gt;Node2 -->
<g id="edge1" class="edge">
<title>Node1&#45;&gt;Node2</title>
<path fill="none" stroke="midnightblue" d="M444.27,-310.7C407.09,-300.51 353.23,-285.74 319.57,-276.52"/>
<polygon fill="midnightblue" stroke="midnightblue" points="443.72,-314.18 454.28,-313.44 445.57,-307.42 443.72,-314.18"/>
</g>
<!-- Node10 -->
<g id="node10" class="node">
<title>Node10</title>
<g id="a_node10"><a xlink:href="in_2stream_2_config_bind_8cpp.html" target="_top" xlink:title=" ">
<polygon fill="white" stroke="black" points="406.5,-257.5 406.5,-276.5 564.5,-276.5 564.5,-257.5 406.5,-257.5"/>
<text text-anchor="middle" x="485.5" y="-264.5" font-family="Helvetica,sans-Serif" font-size="10.00">net/in/stream/ConfigBind.cpp</text>
</a>
</g>
</g>
<!-- Node1&#45;&gt;Node10 -->
<g id="edge9" class="edge">
<title>Node1&#45;&gt;Node10</title>
<path fill="none" stroke="midnightblue" d="M485.5,-302.8C485.5,-293.91 485.5,-283.78 485.5,-276.75"/>
<polygon fill="midnightblue" stroke="midnightblue" points="482,-303.08 485.5,-313.08 489,-303.08 482,-303.08"/>
</g>
<!-- Node11 -->
<g id="node11" class="node">
<title>Node11</title>
<g id="a_node11"><a xlink:href="in_2stream_2_server_config_8h.html" target="_top" xlink:title=" ">
<polygon fill="white" stroke="black" points="595,-257.5 595,-276.5 752,-276.5 752,-257.5 595,-257.5"/>
<text text-anchor="middle" x="673.5" y="-264.5" font-family="Helvetica,sans-Serif" font-size="10.00">net/in/stream/ServerConfig.h</text>
</a>
</g>
</g>
<!-- Node1&#45;&gt;Node11 -->
<g id="edge10" class="edge">
<title>Node1&#45;&gt;Node11</title>
<path fill="none" stroke="midnightblue" d="M525.3,-310.57C560.77,-300.38 611.87,-285.7 643.85,-276.52"/>
<polygon fill="midnightblue" stroke="midnightblue" points="523.93,-307.32 515.29,-313.44 525.87,-314.05 523.93,-307.32"/>
</g>
<!-- Node3 -->
<g id="node3" class="node">
<title>Node3</title>
<g id="a_node3"><a xlink:href="in_2stream_2_client_config_8cpp.html" target="_top" xlink:title=" ">
<polygon fill="white" stroke="black" points="0,-196 0,-215 165,-215 165,-196 0,-196"/>
<text text-anchor="middle" x="82.5" y="-203" font-family="Helvetica,sans-Serif" font-size="10.00">net/in/stream/ClientConfig.cpp</text>
</a>
</g>
</g>
<!-- Node2&#45;&gt;Node3 -->
<g id="edge2" class="edge">
<title>Node2&#45;&gt;Node3</title>
<path fill="none" stroke="midnightblue" d="M249.29,-254.68C209.27,-243.11 148.04,-225.43 111.96,-215.01"/>
<polygon fill="midnightblue" stroke="midnightblue" points="248.41,-258.06 258.99,-257.48 250.35,-251.34 248.41,-258.06"/>
</g>
<!-- Node4 -->
<g id="node4" class="node">
<title>Node4</title>
<g id="a_node4"><a xlink:href="in_2stream_2legacy_2_client_config_8h.html" target="_top" xlink:title=" ">
<polygon fill="white" stroke="black" points="183,-190.5 183,-220.5 300,-220.5 300,-190.5 183,-190.5"/>
<text text-anchor="start" x="191" y="-208.5" font-family="Helvetica,sans-Serif" font-size="10.00">net/in/stream/legacy</text>
<text text-anchor="middle" x="241.5" y="-197.5" font-family="Helvetica,sans-Serif" font-size="10.00">/ClientConfig.h</text>
</a>
</g>
</g>
<!-- Node2&#45;&gt;Node4 -->
<g id="edge3" class="edge">
<title>Node2&#45;&gt;Node4</title>
<path fill="none" stroke="midnightblue" d="M275.49,-249.53C268.29,-240.42 259.44,-229.21 252.58,-220.52"/>
<polygon fill="midnightblue" stroke="midnightblue" points="272.82,-251.8 281.77,-257.48 278.31,-247.46 272.82,-251.8"/>
</g>
<!-- Node7 -->
<g id="node7" class="node">
<title>Node7</title>
<g id="a_node7"><a xlink:href="in_2stream_2tls_2_client_config_8h.html" target="_top" xlink:title=" ">
<polygon fill="white" stroke="black" points="318.5,-190.5 318.5,-220.5 446.5,-220.5 446.5,-190.5 318.5,-190.5"/>
<text text-anchor="start" x="326.5" y="-208.5" font-family="Helvetica,sans-Serif" font-size="10.00">net/in/stream/tls/Client</text>
<text text-anchor="middle" x="382.5" y="-197.5" font-family="Helvetica,sans-Serif" font-size="10.00">Config.h</text>
</a>
</g>
</g>
<!-- Node2&#45;&gt;Node7 -->
<g id="edge6" class="edge">
<title>Node2&#45;&gt;Node7</title>
<path fill="none" stroke="midnightblue" d="M310.6,-252.01C325.6,-242.52 345.34,-230.02 360.35,-220.52"/>
<polygon fill="midnightblue" stroke="midnightblue" points="308.55,-249.17 301.97,-257.48 312.29,-255.08 308.55,-249.17"/>
</g>
<!-- Node5 -->
<g id="node5" class="node">
<title>Node5</title>
<g id="a_node5"><a xlink:href="net_2in_2stream_2legacy_2_socket_client_8h.html" target="_top" xlink:title=" ">
<polygon fill="white" stroke="black" points="181,-123.5 181,-153.5 298,-153.5 298,-123.5 181,-123.5"/>
<text text-anchor="start" x="189" y="-141.5" font-family="Helvetica,sans-Serif" font-size="10.00">net/in/stream/legacy</text>
<text text-anchor="middle" x="239.5" y="-130.5" font-family="Helvetica,sans-Serif" font-size="10.00">/SocketClient.h</text>
</a>
</g>
</g>
<!-- Node4&#45;&gt;Node5 -->
<g id="edge4" class="edge">
<title>Node4&#45;&gt;Node5</title>
<path fill="none" stroke="midnightblue" d="M240.75,-180.11C240.47,-171.15 240.17,-161.32 239.93,-153.58"/>
<polygon fill="midnightblue" stroke="midnightblue" points="237.26,-180.51 241.07,-190.4 244.26,-180.29 237.26,-180.51"/>
</g>
<!-- Node6 -->
<g id="node6" class="node">
<title>Node6</title>
<g id="a_node6"><a xlink:href="legacy_2in_2_client_8h.html" target="_top" xlink:title=" ">
<polygon fill="white" stroke="black" points="186,-56.5 186,-86.5 293,-86.5 293,-56.5 186,-56.5"/>
<text text-anchor="start" x="194" y="-74.5" font-family="Helvetica,sans-Serif" font-size="10.00">web/http/legacy/in</text>
<text text-anchor="middle" x="239.5" y="-63.5" font-family="Helvetica,sans-Serif" font-size="10.00">/Client.h</text>
</a>
</g>
</g>
<!-- Node5&#45;&gt;Node6 -->
<g id="edge5" class="edge">
<title>Node5&#45;&gt;Node6</title>
<path fill="none" stroke="midnightblue" d="M239.5,-113.11C239.5,-104.15 239.5,-94.32 239.5,-86.58"/>
<polygon fill="midnightblue" stroke="midnightblue" points="236,-113.4 239.5,-123.4 243,-113.4 236,-113.4"/>
</g>
<!-- Node8 -->
<g id="node8" class="node">
<title>Node8</title>
<g id="a_node8"><a xlink:href="net_2in_2stream_2tls_2_socket_client_8h.html" target="_top" xlink:title=" ">
<polygon fill="white" stroke="black" points="316.5,-123.5 316.5,-153.5 448.5,-153.5 448.5,-123.5 316.5,-123.5"/>
<text text-anchor="start" x="324.5" y="-141.5" font-family="Helvetica,sans-Serif" font-size="10.00">net/in/stream/tls/Socket</text>
<text text-anchor="middle" x="382.5" y="-130.5" font-family="Helvetica,sans-Serif" font-size="10.00">Client.h</text>
</a>
</g>
</g>
<!-- Node7&#45;&gt;Node8 -->
<g id="edge7" class="edge">
<title>Node7&#45;&gt;Node8</title>
<path fill="none" stroke="midnightblue" d="M382.5,-180.11C382.5,-171.15 382.5,-161.32 382.5,-153.58"/>
<polygon fill="midnightblue" stroke="midnightblue" points="379,-180.4 382.5,-190.4 386,-180.4 379,-180.4"/>
</g>
<!-- Node9 -->
<g id="node9" class="node">
<title>Node9</title>
<g id="a_node9"><a xlink:href="tls_2in_2_client_8h.html" target="_top" xlink:title=" ">
<polygon fill="white" stroke="black" points="319,-62 319,-81 446,-81 446,-62 319,-62"/>
<text text-anchor="middle" x="382.5" y="-69" font-family="Helvetica,sans-Serif" font-size="10.00">web/http/tls/in/Client.h</text>
</a>
</g>
</g>
<!-- Node8&#45;&gt;Node9 -->
<g id="edge8" class="edge">
<title>Node8&#45;&gt;Node9</title>
<path fill="none" stroke="midnightblue" d="M382.5,-113.25C382.5,-102.02 382.5,-89.38 382.5,-81.19"/>
<polygon fill="midnightblue" stroke="midnightblue" points="379,-113.4 382.5,-123.4 386,-113.4 379,-113.4"/>
</g>
<!-- Node12 -->
<g id="node12" class="node">
<title>Node12</title>
<g id="a_node12"><a xlink:href="in_2stream_2legacy_2_server_config_8h.html" target="_top" xlink:title=" ">
<polygon fill="white" stroke="black" points="466,-190.5 466,-220.5 583,-220.5 583,-190.5 466,-190.5"/>
<text text-anchor="start" x="474" y="-208.5" font-family="Helvetica,sans-Serif" font-size="10.00">net/in/stream/legacy</text>
<text text-anchor="middle" x="524.5" y="-197.5" font-family="Helvetica,sans-Serif" font-size="10.00">/ServerConfig.h</text>
</a>
</g>
</g>
<!-- Node11&#45;&gt;Node12 -->
<g id="edge11" class="edge">
<title>Node11&#45;&gt;Node12</title>
<path fill="none" stroke="midnightblue" d="M642.75,-253.72C618.56,-244.06 584.86,-230.6 559.62,-220.52"/>
<polygon fill="midnightblue" stroke="midnightblue" points="641.57,-257.02 652.15,-257.48 644.16,-250.52 641.57,-257.02"/>
</g>
<!-- Node16 -->
<g id="node16" class="node">
<title>Node16</title>
<g id="a_node16"><a xlink:href="in_2stream_2_server_config_8cpp.html" target="_top" xlink:title=" ">
<polygon fill="white" stroke="black" points="601.5,-196 601.5,-215 769.5,-215 769.5,-196 601.5,-196"/>
<text text-anchor="middle" x="685.5" y="-203" font-family="Helvetica,sans-Serif" font-size="10.00">net/in/stream/ServerConfig.cpp</text>
</a>
</g>
</g>
<!-- Node11&#45;&gt;Node16 -->
<g id="edge15" class="edge">
<title>Node11&#45;&gt;Node16</title>
<path fill="none" stroke="midnightblue" d="M677.2,-247.66C679.39,-236.77 682.07,-223.49 683.78,-215.01"/>
<polygon fill="midnightblue" stroke="midnightblue" points="673.77,-246.98 675.22,-257.48 680.63,-248.36 673.77,-246.98"/>
</g>
<!-- Node17 -->
<g id="node17" class="node">
<title>Node17</title>
<g id="a_node17"><a xlink:href="in_2stream_2tls_2_server_config_8h.html" target="_top" xlink:title=" ">
<polygon fill="white" stroke="black" points="788,-190.5 788,-220.5 919,-220.5 919,-190.5 788,-190.5"/>
<text text-anchor="start" x="796" y="-208.5" font-family="Helvetica,sans-Serif" font-size="10.00">net/in/stream/tls/Server</text>
<text text-anchor="middle" x="853.5" y="-197.5" font-family="Helvetica,sans-Serif" font-size="10.00">Config.h</text>
</a>
</g>
</g>
<!-- Node11&#45;&gt;Node17 -->
<g id="edge16" class="edge">
<title>Node11&#45;&gt;Node17</title>
<path fill="none" stroke="midnightblue" d="M709.11,-254.23C738.42,-244.54 780.04,-230.78 811.08,-220.52"/>
<polygon fill="midnightblue" stroke="midnightblue" points="707.69,-251.01 699.29,-257.48 709.88,-257.66 707.69,-251.01"/>
</g>
<!-- Node13 -->
<g id="node13" class="node">
<title>Node13</title>
<g id="a_node13"><a xlink:href="net_2in_2stream_2legacy_2_socket_server_8h.html" target="_top" xlink:title=" ">
<polygon fill="white" stroke="black" points="467,-123.5 467,-153.5 584,-153.5 584,-123.5 467,-123.5"/>
<text text-anchor="start" x="475" y="-141.5" font-family="Helvetica,sans-Serif" font-size="10.00">net/in/stream/legacy</text>
<text text-anchor="middle" x="525.5" y="-130.5" font-family="Helvetica,sans-Serif" font-size="10.00">/SocketServer.h</text>
</a>
</g>
</g>
<!-- Node12&#45;&gt;Node13 -->
<g id="edge12" class="edge">
<title>Node12&#45;&gt;Node13</title>
<path fill="none" stroke="midnightblue" d="M524.88,-180.11C525.01,-171.15 525.16,-161.32 525.28,-153.58"/>
<polygon fill="midnightblue" stroke="midnightblue" points="521.37,-180.34 524.72,-190.4 528.37,-180.45 521.37,-180.34"/>
</g>
<!-- Node14 -->
<g id="node14" class="node">
<title>Node14</title>
<g id="a_node14"><a xlink:href="legacy_2in_2_server_8h.html" target="_top" xlink:title=" ">
<polygon fill="white" stroke="black" points="472,-56.5 472,-86.5 579,-86.5 579,-56.5 472,-56.5"/>
<text text-anchor="start" x="480" y="-74.5" font-family="Helvetica,sans-Serif" font-size="10.00">web/http/legacy/in</text>
<text text-anchor="middle" x="525.5" y="-63.5" font-family="Helvetica,sans-Serif" font-size="10.00">/Server.h</text>
</a>
</g>
</g>
<!-- Node13&#45;&gt;Node14 -->
<g id="edge13" class="edge">
<title>Node13&#45;&gt;Node14</title>
<path fill="none" stroke="midnightblue" d="M525.5,-113.11C525.5,-104.15 525.5,-94.32 525.5,-86.58"/>
<polygon fill="midnightblue" stroke="midnightblue" points="522,-113.4 525.5,-123.4 529,-113.4 522,-113.4"/>
</g>
<!-- Node15 -->
<g id="node15" class="node">
<title>Node15</title>
<g id="a_node15"><a xlink:href="legacy_2in_2_web_app_8h.html" target="_top" xlink:title=" ">
<polygon fill="white" stroke="black" points="448,-0.5 448,-19.5 603,-19.5 603,-0.5 448,-0.5"/>
<text text-anchor="middle" x="525.5" y="-7.5" font-family="Helvetica,sans-Serif" font-size="10.00">express/legacy/in/WebApp.h</text>
</a>
</g>
</g>
<!-- Node14&#45;&gt;Node15 -->
<g id="edge14" class="edge">
<title>Node14&#45;&gt;Node15</title>
<path fill="none" stroke="midnightblue" d="M525.5,-46.29C525.5,-36.86 525.5,-26.65 525.5,-19.66"/>
<polygon fill="midnightblue" stroke="midnightblue" points="522,-46.4 525.5,-56.4 529,-46.4 522,-46.4"/>
</g>
<!-- Node18 -->
<g id="node18" class="node">
<title>Node18</title>
<g id="a_node18"><a xlink:href="net_2in_2stream_2tls_2_socket_server_8h.html" target="_top" xlink:title=" ">
<polygon fill="white" stroke="black" points="787.5,-123.5 787.5,-153.5 919.5,-153.5 919.5,-123.5 787.5,-123.5"/>
<text text-anchor="start" x="795.5" y="-141.5" font-family="Helvetica,sans-Serif" font-size="10.00">net/in/stream/tls/Socket</text>
<text text-anchor="middle" x="853.5" y="-130.5" font-family="Helvetica,sans-Serif" font-size="10.00">Server.h</text>
</a>
</g>
</g>
<!-- Node17&#45;&gt;Node18 -->
<g id="edge17" class="edge">
<title>Node17&#45;&gt;Node18</title>
<path fill="none" stroke="midnightblue" d="M853.5,-180.11C853.5,-171.15 853.5,-161.32 853.5,-153.58"/>
<polygon fill="midnightblue" stroke="midnightblue" points="850,-180.4 853.5,-190.4 857,-180.4 850,-180.4"/>
</g>
<!-- Node19 -->
<g id="node19" class="node">
<title>Node19</title>
<g id="a_node19"><a xlink:href="tls_2in_2_server_8h.html" target="_top" xlink:title=" ">
<polygon fill="white" stroke="black" points="788.5,-62 788.5,-81 918.5,-81 918.5,-62 788.5,-62"/>
<text text-anchor="middle" x="853.5" y="-69" font-family="Helvetica,sans-Serif" font-size="10.00">web/http/tls/in/Server.h</text>
</a>
</g>
</g>
<!-- Node18&#45;&gt;Node19 -->
<g id="edge18" class="edge">
<title>Node18&#45;&gt;Node19</title>
<path fill="none" stroke="midnightblue" d="M853.5,-113.25C853.5,-102.02 853.5,-89.38 853.5,-81.19"/>
<polygon fill="midnightblue" stroke="midnightblue" points="850,-113.4 853.5,-123.4 857,-113.4 850,-113.4"/>
</g>
<!-- Node20 -->
<g id="node20" class="node">
<title>Node20</title>
<g id="a_node20"><a xlink:href="tls_2in_2_web_app_8h.html" target="_top" xlink:title=" ">
<polygon fill="white" stroke="black" points="786.5,-0.5 786.5,-19.5 920.5,-19.5 920.5,-0.5 786.5,-0.5"/>
<text text-anchor="middle" x="853.5" y="-7.5" font-family="Helvetica,sans-Serif" font-size="10.00">express/tls/in/WebApp.h</text>
</a>
</g>
</g>
<!-- Node19&#45;&gt;Node20 -->
<g id="edge19" class="edge">
<title>Node19&#45;&gt;Node20</title>
<path fill="none" stroke="midnightblue" d="M853.5,-51.82C853.5,-41 853.5,-27.9 853.5,-19.51"/>
<polygon fill="midnightblue" stroke="midnightblue" points="850,-51.98 853.5,-61.98 857,-51.98 850,-51.98"/>
</g>
</g>
</svg>
