<?xml version="1.0" encoding="UTF-8" standalone="no"?>
<!DOCTYPE svg PUBLIC "-//W3C//DTD SVG 1.1//EN"
 "http://www.w3.org/Graphics/SVG/1.1/DTD/svg11.dtd">
<!-- Generated by graphviz version 2.43.0 (0)
 -->
<!-- Title: net/in/stream/legacy/ClientConfig.h Pages: 1 -->
<svg width="698pt" height="263pt"
 viewBox="0.00 0.00 697.50 263.00" xmlns="http://www.w3.org/2000/svg" xmlns:xlink="http://www.w3.org/1999/xlink">
<g id="graph0" class="graph" transform="scale(1 1) rotate(0) translate(4 259)">
<title>net/in/stream/legacy/ClientConfig.h</title>
<polygon fill="white" stroke="transparent" points="-4,4 -4,-259 693.5,-259 693.5,4 -4,4"/>
<!-- Node1 -->
<g id="node1" class="node">
<title>Node1</title>
<g id="a_node1"><a xlink:title=" ">
<polygon fill="#bfbfbf" stroke="black" points="169,-224.5 169,-254.5 286,-254.5 286,-224.5 169,-224.5"/>
<text text-anchor="start" x="177" y="-242.5" font-family="Helvetica,sans-Serif" font-size="10.00">net/in/stream/legacy</text>
<text text-anchor="middle" x="227.5" y="-231.5" font-family="Helvetica,sans-Serif" font-size="10.00">/ClientConfig.h</text>
</a>
</g>
</g>
<!-- Node2 -->
<g id="node2" class="node">
<title>Node2</title>
<g id="a_node2"><a xlink:href="_config_legacy_8h.html" target="_top" xlink:title=" ">
<polygon fill="white" stroke="black" points="98,-168.5 98,-187.5 207,-187.5 207,-168.5 98,-168.5"/>
<text text-anchor="middle" x="152.5" y="-175.5" font-family="Helvetica,sans-Serif" font-size="10.00">net/ConfigLegacy.h</text>
</a>
</g>
</g>
<!-- Node1&#45;&gt;Node2 -->
<g id="edge1" class="edge">
<title>Node1&#45;&gt;Node2</title>
<path fill="none" stroke="midnightblue" d="M209.73,-224.4C198.15,-215.22 183.08,-203.26 171.3,-193.92"/>
<polygon fill="midnightblue" stroke="midnightblue" points="173.42,-191.13 163.41,-187.66 169.07,-196.61 173.42,-191.13"/>
</g>
<!-- Node3 -->
<g id="node3" class="node">
<title>Node3</title>
<g id="a_node3"><a xlink:href="in_2stream_2_client_config_8h.html" target="_top" xlink:title=" ">
<polygon fill="white" stroke="black" points="225.5,-168.5 225.5,-187.5 379.5,-187.5 379.5,-168.5 225.5,-168.5"/>
<text text-anchor="middle" x="302.5" y="-175.5" font-family="Helvetica,sans-Serif" font-size="10.00">net/in/stream/ClientConfig.h</text>
</a>
</g>
</g>
<!-- Node1&#45;&gt;Node3 -->
<g id="edge2" class="edge">
<title>Node1&#45;&gt;Node3</title>
<path fill="none" stroke="midnightblue" d="M245.27,-224.4C256.85,-215.22 271.92,-203.26 283.7,-193.92"/>
<polygon fill="midnightblue" stroke="midnightblue" points="285.93,-196.61 291.59,-187.66 281.58,-191.13 285.93,-196.61"/>
</g>
<!-- Node4 -->
<g id="node4" class="node">
<title>Node4</title>
<g id="a_node4"><a xlink:href="_config_backlog_8h.html" target="_top" xlink:title=" ">
<polygon fill="white" stroke="black" points="0,-112.5 0,-131.5 115,-131.5 115,-112.5 0,-112.5"/>
<text text-anchor="middle" x="57.5" y="-119.5" font-family="Helvetica,sans-Serif" font-size="10.00">net/ConfigBacklog.h</text>
</a>
</g>
</g>
<!-- Node3&#45;&gt;Node4 -->
<g id="edge3" class="edge">
<title>Node3&#45;&gt;Node4</title>
<path fill="none" stroke="midnightblue" d="M263.68,-168.44C220.94,-159.02 152.17,-143.87 105.93,-133.68"/>
<polygon fill="midnightblue" stroke="midnightblue" points="106.66,-130.25 96.14,-131.52 105.15,-137.09 106.66,-130.25"/>
</g>
<!-- Node5 -->
<g id="node5" class="node">
<title>Node5</title>
<g id="a_node5"><a xlink:href="_config_base_8h.html" target="_top" xlink:title=" ">
<polygon fill="white" stroke="black" points="133.5,-112.5 133.5,-131.5 233.5,-131.5 233.5,-112.5 133.5,-112.5"/>
<text text-anchor="middle" x="183.5" y="-119.5" font-family="Helvetica,sans-Serif" font-size="10.00">net/ConfigBase.h</text>
</a>
</g>
</g>
<!-- Node3&#45;&gt;Node5 -->
<g id="edge4" class="edge">
<title>Node3&#45;&gt;Node5</title>
<path fill="none" stroke="midnightblue" d="M283.64,-168.44C264.23,-159.64 233.77,-145.81 211.54,-135.72"/>
<polygon fill="midnightblue" stroke="midnightblue" points="212.82,-132.46 202.27,-131.52 209.93,-138.84 212.82,-132.46"/>
</g>
<!-- Node6 -->
<g id="node6" class="node">
<title>Node6</title>
<g id="a_node6"><a xlink:href="_config_conn_8h.html" target="_top" xlink:title=" ">
<polygon fill="white" stroke="black" points="252,-112.5 252,-131.5 353,-131.5 353,-112.5 252,-112.5"/>
<text text-anchor="middle" x="302.5" y="-119.5" font-family="Helvetica,sans-Serif" font-size="10.00">net/ConfigConn.h</text>
</a>
</g>
</g>
<!-- Node3&#45;&gt;Node6 -->
<g id="edge5" class="edge">
<title>Node3&#45;&gt;Node6</title>
<path fill="none" stroke="midnightblue" d="M302.5,-168.08C302.5,-161.01 302.5,-150.86 302.5,-141.99"/>
<polygon fill="midnightblue" stroke="midnightblue" points="306,-141.75 302.5,-131.75 299,-141.75 306,-141.75"/>
</g>
<!-- Node7 -->
<g id="node7" class="node">
<title>Node7</title>
<g id="a_node7"><a xlink:href="in_2_config_local_8h.html" target="_top" xlink:title=" ">
<polygon fill="white" stroke="black" points="371,-112.5 371,-131.5 484,-131.5 484,-112.5 371,-112.5"/>
<text text-anchor="middle" x="427.5" y="-119.5" font-family="Helvetica,sans-Serif" font-size="10.00">net/in/ConfigLocal.h</text>
</a>
</g>
</g>
<!-- Node3&#45;&gt;Node7 -->
<g id="edge6" class="edge">
<title>Node3&#45;&gt;Node7</title>
<path fill="none" stroke="midnightblue" d="M322.31,-168.44C342.79,-159.6 374.98,-145.69 398.36,-135.59"/>
<polygon fill="midnightblue" stroke="midnightblue" points="399.99,-138.7 407.79,-131.52 397.22,-132.27 399.99,-138.7"/>
</g>
<!-- Node11 -->
<g id="node11" class="node">
<title>Node11</title>
<g id="a_node11"><a xlink:href="in_2_config_remote_8h.html" target="_top" xlink:title=" ">
<polygon fill="white" stroke="black" points="502.5,-112.5 502.5,-131.5 628.5,-131.5 628.5,-112.5 502.5,-112.5"/>
<text text-anchor="middle" x="565.5" y="-119.5" font-family="Helvetica,sans-Serif" font-size="10.00">net/in/ConfigRemote.h</text>
</a>
</g>
</g>
<!-- Node3&#45;&gt;Node11 -->
<g id="edge10" class="edge">
<title>Node3&#45;&gt;Node11</title>
<path fill="none" stroke="midnightblue" d="M344.17,-168.44C390.25,-158.98 464.5,-143.74 514.13,-133.55"/>
<polygon fill="midnightblue" stroke="midnightblue" points="514.93,-136.96 524.02,-131.52 513.52,-130.1 514.93,-136.96"/>
</g>
<!-- Node8 -->
<g id="node8" class="node">
<title>Node8</title>
<g id="a_node8"><a xlink:href="_config_local_8h.html" target="_top" xlink:title=" ">
<polygon fill="white" stroke="black" points="310,-56.5 310,-75.5 411,-75.5 411,-56.5 310,-56.5"/>
<text text-anchor="middle" x="360.5" y="-63.5" font-family="Helvetica,sans-Serif" font-size="10.00">net/ConfigLocal.h</text>
</a>
</g>
</g>
<!-- Node7&#45;&gt;Node8 -->
<g id="edge7" class="edge">
<title>Node7&#45;&gt;Node8</title>
<path fill="none" stroke="midnightblue" d="M416.74,-112.32C406.73,-104.26 391.61,-92.08 379.57,-82.37"/>
<polygon fill="midnightblue" stroke="midnightblue" points="381.44,-79.38 371.46,-75.83 377.05,-84.83 381.44,-79.38"/>
</g>
<!-- Node9 -->
<g id="node9" class="node">
<title>Node9</title>
<g id="a_node9"><a xlink:href="net_2in_2_socket_address_8h.html" target="_top" xlink:title=" ">
<polygon fill="white" stroke="black" points="429.5,-56.5 429.5,-75.5 557.5,-75.5 557.5,-56.5 429.5,-56.5"/>
<text text-anchor="middle" x="493.5" y="-63.5" font-family="Helvetica,sans-Serif" font-size="10.00">net/in/SocketAddress.h</text>
</a>
</g>
</g>
<!-- Node7&#45;&gt;Node9 -->
<g id="edge8" class="edge">
<title>Node7&#45;&gt;Node9</title>
<path fill="none" stroke="midnightblue" d="M438.1,-112.32C447.96,-104.26 462.85,-92.08 474.72,-82.37"/>
<polygon fill="midnightblue" stroke="midnightblue" points="477.18,-84.88 482.7,-75.83 472.75,-79.46 477.18,-84.88"/>
</g>
<!-- Node10 -->
<g id="node10" class="node">
<title>Node10</title>
<g id="a_node10"><a xlink:href="core_2socket_2_socket_address_8h.html" target="_top" xlink:title=" ">
<polygon fill="white" stroke="black" points="416,-0.5 416,-19.5 571,-19.5 571,-0.5 416,-0.5"/>
<text text-anchor="middle" x="493.5" y="-7.5" font-family="Helvetica,sans-Serif" font-size="10.00">core/socket/SocketAddress.h</text>
</a>
</g>
</g>
<!-- Node9&#45;&gt;Node10 -->
<g id="edge9" class="edge">
<title>Node9&#45;&gt;Node10</title>
<path fill="none" stroke="midnightblue" d="M493.5,-56.08C493.5,-49.01 493.5,-38.86 493.5,-29.99"/>
<polygon fill="midnightblue" stroke="midnightblue" points="497,-29.75 493.5,-19.75 490,-29.75 497,-29.75"/>
</g>
<!-- Node11&#45;&gt;Node9 -->
<g id="edge12" class="edge">
<title>Node11&#45;&gt;Node9</title>
<path fill="none" stroke="midnightblue" d="M553.93,-112.32C543.08,-104.18 526.62,-91.84 513.62,-82.09"/>
<polygon fill="midnightblue" stroke="midnightblue" points="515.38,-79.03 505.28,-75.83 511.18,-84.63 515.38,-79.03"/>
</g>
<!-- Node12 -->
<g id="node12" class="node">
<title>Node12</title>
<g id="a_node12"><a xlink:href="_config_remote_8h.html" target="_top" xlink:title=" ">
<polygon fill="white" stroke="black" points="575.5,-56.5 575.5,-75.5 689.5,-75.5 689.5,-56.5 575.5,-56.5"/>
<text text-anchor="middle" x="632.5" y="-63.5" font-family="Helvetica,sans-Serif" font-size="10.00">net/ConfigRemote.h</text>
</a>
</g>
</g>
<!-- Node11&#45;&gt;Node12 -->
<g id="edge11" class="edge">
<title>Node11&#45;&gt;Node12</title>
<path fill="none" stroke="midnightblue" d="M576.26,-112.32C586.27,-104.26 601.39,-92.08 613.43,-82.37"/>
<polygon fill="midnightblue" stroke="midnightblue" points="615.95,-84.83 621.54,-75.83 611.56,-79.38 615.95,-84.83"/>
</g>
</g>
</svg>
