<?xml version="1.0" encoding="UTF-8" standalone="no"?>
<!DOCTYPE svg PUBLIC "-//W3C//DTD SVG 1.1//EN"
 "http://www.w3.org/Graphics/SVG/1.1/DTD/svg11.dtd">
<!-- Generated by graphviz version 2.43.0 (0)
 -->
<!-- Title: Graphical Class Hierarchy Pages: 1 -->
<svg width="775pt" height="313pt"
 viewBox="0.00 0.00 775.00 312.50" xmlns="http://www.w3.org/2000/svg" xmlns:xlink="http://www.w3.org/1999/xlink">
<g id="graph0" class="graph" transform="scale(1 1) rotate(0) translate(4 308.5)">
<title>Graphical Class Hierarchy</title>
<polygon fill="white" stroke="transparent" points="-4,4 -4,-308.5 771,-308.5 771,4 -4,4"/>
<!-- Node0 -->
<g id="node1" class="node">
<title>Node0</title>
<g id="a_node1"><a xlink:href="classweb_1_1websocket_1_1_receiver.html" target="_top" xlink:title=" ">
<polygon fill="white" stroke="black" points="209,-230.5 209,-249.5 352,-249.5 352,-230.5 209,-230.5"/>
<text text-anchor="middle" x="280.5" y="-237.5" font-family="Helvetica,sans-Serif" font-size="10.00">web::websocket::Receiver</text>
</a>
</g>
</g>
<!-- Node1 -->
<g id="node2" class="node">
<title>Node1</title>
<g id="a_node2"><a xlink:href="classweb_1_1websocket_1_1_socket_context_upgrade.html" target="_top" xlink:title=" ">
<polygon fill="white" stroke="black" points="417.5,-252 417.5,-304 588.5,-304 588.5,-252 417.5,-252"/>
<text text-anchor="start" x="425.5" y="-292" font-family="Helvetica,sans-Serif" font-size="10.00">web::websocket::SocketContext</text>
<text text-anchor="start" x="425.5" y="-281" font-family="Helvetica,sans-Serif" font-size="10.00">Upgrade&lt; SubProtocol, web</text>
<text text-anchor="start" x="425.5" y="-270" font-family="Helvetica,sans-Serif" font-size="10.00">::http::client::Request, web</text>
<text text-anchor="middle" x="503" y="-259" font-family="Helvetica,sans-Serif" font-size="10.00">::http::client::Response &gt;</text>
</a>
</g>
</g>
<!-- Node0&#45;&gt;Node1 -->
<g id="edge1" class="edge">
<title>Node0&#45;&gt;Node1</title>
<path fill="none" stroke="darkgreen" d="M346.8,-251.25C368.93,-255.07 393.98,-259.38 417.39,-263.42"/>
<polygon fill="darkgreen" stroke="darkgreen" points="347.31,-247.79 336.86,-249.54 346.12,-254.69 347.31,-247.79"/>
</g>
<!-- Node3 -->
<g id="node4" class="node">
<title>Node3</title>
<g id="a_node4"><a xlink:href="classweb_1_1websocket_1_1_socket_context_upgrade.html" target="_top" xlink:title=" ">
<polygon fill="white" stroke="black" points="417.5,-181 417.5,-233 588.5,-233 588.5,-181 417.5,-181"/>
<text text-anchor="start" x="425.5" y="-221" font-family="Helvetica,sans-Serif" font-size="10.00">web::websocket::SocketContext</text>
<text text-anchor="start" x="425.5" y="-210" font-family="Helvetica,sans-Serif" font-size="10.00">Upgrade&lt; SubProtocol, web</text>
<text text-anchor="start" x="425.5" y="-199" font-family="Helvetica,sans-Serif" font-size="10.00">::http::server::Request, web</text>
<text text-anchor="middle" x="503" y="-188" font-family="Helvetica,sans-Serif" font-size="10.00">::http::server::Response &gt;</text>
</a>
</g>
</g>
<!-- Node0&#45;&gt;Node3 -->
<g id="edge3" class="edge">
<title>Node0&#45;&gt;Node3</title>
<path fill="none" stroke="darkgreen" d="M354.93,-229.01C374.9,-226.02 396.69,-222.76 417.23,-219.69"/>
<polygon fill="darkgreen" stroke="darkgreen" points="354.35,-225.56 344.98,-230.5 355.39,-232.48 354.35,-225.56"/>
</g>
<!-- Node5 -->
<g id="node6" class="node">
<title>Node5</title>
<g id="a_node6"><a xlink:href="classweb_1_1websocket_1_1_socket_context_upgrade.html" target="_top" xlink:title=" ">
<polygon fill="white" stroke="black" points="409,-120.5 409,-161.5 597,-161.5 597,-120.5 409,-120.5"/>
<text text-anchor="start" x="417" y="-149.5" font-family="Helvetica,sans-Serif" font-size="10.00">web::websocket::SocketContext</text>
<text text-anchor="start" x="417" y="-138.5" font-family="Helvetica,sans-Serif" font-size="10.00">Upgrade&lt; SubProtocolT, RequestT,</text>
<text text-anchor="middle" x="503" y="-127.5" font-family="Helvetica,sans-Serif" font-size="10.00"> ResponseT &gt;</text>
</a>
</g>
</g>
<!-- Node0&#45;&gt;Node5 -->
<g id="edge5" class="edge">
<title>Node0&#45;&gt;Node5</title>
<path fill="none" stroke="darkgreen" d="M361.57,-227.16C365.55,-225.36 369.39,-223.32 373,-221 395.74,-206.4 387.16,-187.91 409,-172 414.37,-168.09 420.25,-164.66 426.38,-161.64"/>
<polygon fill="darkgreen" stroke="darkgreen" points="360.06,-223.99 352.05,-230.93 362.64,-230.5 360.06,-223.99"/>
</g>
<!-- Node2 -->
<g id="node3" class="node">
<title>Node2</title>
<g id="a_node3"><a xlink:href="classweb_1_1websocket_1_1client_1_1_socket_context_upgrade.html" target="_top" xlink:title=" ">
<polygon fill="white" stroke="black" points="633,-263 633,-293 767,-293 767,-263 633,-263"/>
<text text-anchor="start" x="641" y="-281" font-family="Helvetica,sans-Serif" font-size="10.00">web::websocket::client</text>
<text text-anchor="middle" x="700" y="-270" font-family="Helvetica,sans-Serif" font-size="10.00">::SocketContextUpgrade</text>
</a>
</g>
</g>
<!-- Node1&#45;&gt;Node2 -->
<g id="edge2" class="edge">
<title>Node1&#45;&gt;Node2</title>
<path fill="none" stroke="midnightblue" d="M598.78,-278C610.32,-278 621.9,-278 632.89,-278"/>
<polygon fill="midnightblue" stroke="midnightblue" points="598.68,-274.5 588.68,-278 598.68,-281.5 598.68,-274.5"/>
</g>
<!-- Node4 -->
<g id="node5" class="node">
<title>Node4</title>
<g id="a_node5"><a xlink:href="classweb_1_1websocket_1_1server_1_1_socket_context_upgrade.html" target="_top" xlink:title=" ">
<polygon fill="white" stroke="black" points="633,-192 633,-222 767,-222 767,-192 633,-192"/>
<text text-anchor="start" x="641" y="-210" font-family="Helvetica,sans-Serif" font-size="10.00">web::websocket::server</text>
<text text-anchor="middle" x="700" y="-199" font-family="Helvetica,sans-Serif" font-size="10.00">::SocketContextUpgrade</text>
</a>
</g>
</g>
<!-- Node3&#45;&gt;Node4 -->
<g id="edge4" class="edge">
<title>Node3&#45;&gt;Node4</title>
<path fill="none" stroke="midnightblue" d="M598.78,-207C610.32,-207 621.9,-207 632.89,-207"/>
<polygon fill="midnightblue" stroke="midnightblue" points="598.68,-203.5 588.68,-207 598.68,-210.5 598.68,-203.5"/>
</g>
<!-- Node279 -->
<g id="node7" class="node">
<title>Node279</title>
<g id="a_node7"><a xlink:href="classcore_1_1socket_1_1_socket_context.html" target="_top" xlink:title=" ">
<polygon fill="white" stroke="black" points="0,-123.5 0,-142.5 152,-142.5 152,-123.5 0,-123.5"/>
<text text-anchor="middle" x="76" y="-130.5" font-family="Helvetica,sans-Serif" font-size="10.00">core::socket::SocketContext</text>
</a>
</g>
</g>
<!-- Node280 -->
<g id="node8" class="node">
<title>Node280</title>
<g id="a_node8"><a xlink:href="classweb_1_1http_1_1_socket_context.html" target="_top" xlink:title=" ">
<polygon fill="white" stroke="black" points="211,-71.5 211,-90.5 350,-90.5 350,-71.5 211,-71.5"/>
<text text-anchor="middle" x="280.5" y="-78.5" font-family="Helvetica,sans-Serif" font-size="10.00">web::http::SocketContext</text>
</a>
</g>
</g>
<!-- Node279&#45;&gt;Node280 -->
<g id="edge6" class="edge">
<title>Node279&#45;&gt;Node280</title>
<path fill="none" stroke="midnightblue" d="M123.92,-120.95C159.92,-111.71 208.92,-99.12 242.25,-90.57"/>
<polygon fill="midnightblue" stroke="midnightblue" points="122.96,-117.59 114.14,-123.46 124.7,-124.37 122.96,-117.59"/>
</g>
<!-- Node283 -->
<g id="node11" class="node">
<title>Node283</title>
<g id="a_node11"><a xlink:href="classweb_1_1http_1_1_socket_context_upgrade.html" target="_top" xlink:title=" ">
<polygon fill="white" stroke="black" points="188,-181 188,-211 373,-211 373,-181 188,-181"/>
<text text-anchor="start" x="196" y="-199" font-family="Helvetica,sans-Serif" font-size="10.00">web::http::SocketContext</text>
<text text-anchor="middle" x="280.5" y="-188" font-family="Helvetica,sans-Serif" font-size="10.00">Upgrade&lt; RequestT, ResponseT &gt;</text>
</a>
</g>
</g>
<!-- Node279&#45;&gt;Node283 -->
<g id="edge9" class="edge">
<title>Node279&#45;&gt;Node283</title>
<path fill="none" stroke="midnightblue" d="M112.77,-145.89C134.43,-153.53 162.67,-163.21 188,-171 199.02,-174.39 210.85,-177.79 222.23,-180.95"/>
<polygon fill="midnightblue" stroke="midnightblue" points="113.91,-142.58 103.31,-142.53 111.57,-149.17 113.91,-142.58"/>
</g>
<!-- Node281 -->
<g id="node9" class="node">
<title>Node281</title>
<g id="a_node9"><a xlink:href="classweb_1_1http_1_1client_1_1_socket_context.html" target="_top" xlink:title=" ">
<polygon fill="white" stroke="black" points="429.5,-0.5 429.5,-41.5 576.5,-41.5 576.5,-0.5 429.5,-0.5"/>
<text text-anchor="start" x="437.5" y="-29.5" font-family="Helvetica,sans-Serif" font-size="10.00">web::http::client::</text>
<text text-anchor="start" x="437.5" y="-18.5" font-family="Helvetica,sans-Serif" font-size="10.00">SocketContext&lt; RequestT,</text>
<text text-anchor="middle" x="503" y="-7.5" font-family="Helvetica,sans-Serif" font-size="10.00"> ResponseT &gt;</text>
</a>
</g>
</g>
<!-- Node280&#45;&gt;Node281 -->
<g id="edge7" class="edge">
<title>Node280&#45;&gt;Node281</title>
<path fill="none" stroke="midnightblue" d="M326.46,-68.76C356.03,-60.72 395.39,-50.01 429.35,-40.77"/>
<polygon fill="midnightblue" stroke="midnightblue" points="325.17,-65.49 316.44,-71.49 327.01,-72.24 325.17,-65.49"/>
</g>
<!-- Node282 -->
<g id="node10" class="node">
<title>Node282</title>
<g id="a_node10"><a xlink:href="classweb_1_1http_1_1server_1_1_socket_context.html" target="_top" xlink:title=" ">
<polygon fill="white" stroke="black" points="429.5,-60.5 429.5,-101.5 576.5,-101.5 576.5,-60.5 429.5,-60.5"/>
<text text-anchor="start" x="437.5" y="-89.5" font-family="Helvetica,sans-Serif" font-size="10.00">web::http::server::</text>
<text text-anchor="start" x="437.5" y="-78.5" font-family="Helvetica,sans-Serif" font-size="10.00">SocketContext&lt; RequestT,</text>
<text text-anchor="middle" x="503" y="-67.5" font-family="Helvetica,sans-Serif" font-size="10.00"> ResponseT &gt;</text>
</a>
</g>
</g>
<!-- Node280&#45;&gt;Node282 -->
<g id="edge8" class="edge">
<title>Node280&#45;&gt;Node282</title>
<path fill="none" stroke="midnightblue" d="M360.25,-81C382.75,-81 407.16,-81 429.28,-81"/>
<polygon fill="midnightblue" stroke="midnightblue" points="360.06,-77.5 350.06,-81 360.06,-84.5 360.06,-77.5"/>
</g>
<!-- Node283&#45;&gt;Node1 -->
<g id="edge10" class="edge">
<title>Node283&#45;&gt;Node1</title>
<path fill="none" stroke="midnightblue" d="M355.34,-214.21C361.39,-216.3 367.34,-218.56 373,-221 390.21,-228.43 392.15,-234.77 409,-243 415.36,-246.1 422.06,-249.11 428.84,-251.97"/>
<polygon fill="midnightblue" stroke="midnightblue" points="356.38,-210.87 345.79,-211.09 354.21,-217.52 356.38,-210.87"/>
</g>
<!-- Node283&#45;&gt;Node3 -->
<g id="edge11" class="edge">
<title>Node283&#45;&gt;Node3</title>
<path fill="none" stroke="midnightblue" d="M383.13,-201.07C394.59,-201.64 406.18,-202.22 417.39,-202.78"/>
<polygon fill="midnightblue" stroke="midnightblue" points="383.26,-197.57 373.1,-200.57 382.91,-204.56 383.26,-197.57"/>
</g>
<!-- Node283&#45;&gt;Node5 -->
<g id="edge12" class="edge">
<title>Node283&#45;&gt;Node5</title>
<path fill="none" stroke="midnightblue" d="M351.5,-178.54C373.12,-173.15 397.13,-167.16 419.5,-161.58"/>
<polygon fill="midnightblue" stroke="midnightblue" points="350.61,-175.15 341.75,-180.97 352.3,-181.95 350.61,-175.15"/>
</g>
<!-- Node332 -->
<g id="node12" class="node">
<title>Node332</title>
<g id="a_node12"><a xlink:href="classweb_1_1websocket_1_1_transmitter.html" target="_top" xlink:title=" ">
<polygon fill="white" stroke="black" points="202,-142.5 202,-161.5 359,-161.5 359,-142.5 202,-142.5"/>
<text text-anchor="middle" x="280.5" y="-149.5" font-family="Helvetica,sans-Serif" font-size="10.00">web::websocket::Transmitter</text>
</a>
</g>
</g>
<!-- Node332&#45;&gt;Node1 -->
<g id="edge13" class="edge">
<title>Node332&#45;&gt;Node1</title>
<path fill="none" stroke="darkgreen" d="M363.92,-166.06C367.1,-167.82 370.15,-169.79 373,-172 400.99,-193.65 382.65,-219.39 409,-243 412.6,-246.22 416.52,-249.16 420.65,-251.84"/>
<polygon fill="darkgreen" stroke="darkgreen" points="365.17,-162.77 354.64,-161.61 362.15,-169.09 365.17,-162.77"/>
</g>
<!-- Node332&#45;&gt;Node3 -->
<g id="edge14" class="edge">
<title>Node332&#45;&gt;Node3</title>
<path fill="none" stroke="darkgreen" d="M337.03,-163.67C348.93,-166.3 361.4,-169.16 373,-172 387.43,-175.53 402.7,-179.48 417.5,-183.43"/>
<polygon fill="darkgreen" stroke="darkgreen" points="337.73,-160.24 327.21,-161.52 336.23,-167.08 337.73,-160.24"/>
</g>
<!-- Node332&#45;&gt;Node5 -->
<g id="edge15" class="edge">
<title>Node332&#45;&gt;Node5</title>
<path fill="none" stroke="darkgreen" d="M369.48,-147.61C382.38,-146.97 395.71,-146.3 408.71,-145.65"/>
<polygon fill="darkgreen" stroke="darkgreen" points="369.05,-144.13 359.24,-148.12 369.4,-151.12 369.05,-144.13"/>
</g>
</g>
</svg>
