<?xml version="1.0" encoding="UTF-8" standalone="no"?>
<!DOCTYPE svg PUBLIC "-//W3C//DTD SVG 1.1//EN"
 "http://www.w3.org/Graphics/SVG/1.1/DTD/svg11.dtd">
<!-- Generated by graphviz version 2.43.0 (0)
 -->
<!-- Title: Graphical Class Hierarchy Pages: 1 -->
<svg width="687pt" height="313pt"
 viewBox="0.00 0.00 687.00 312.50" xmlns="http://www.w3.org/2000/svg" xmlns:xlink="http://www.w3.org/1999/xlink">
<g id="graph0" class="graph" transform="scale(1 1) rotate(0) translate(4 308.5)">
<title>Graphical Class Hierarchy</title>
<polygon fill="white" stroke="transparent" points="-4,4 -4,-308.5 683,-308.5 683,4 -4,4"/>
<!-- Node0 -->
<g id="node1" class="node">
<title>Node0</title>
<g id="a_node1"><a xlink:href="classweb_1_1websocket_1_1_receiver.html" target="_top" xlink:title=" ">
<polygon fill="white" stroke="black" points="161,-230.5 161,-249.5 294,-249.5 294,-230.5 161,-230.5"/>
<text text-anchor="middle" x="227.5" y="-237.5" font-family="Helvetica,sans-Serif" font-size="10.00">web::websocket::Receiver</text>
</a>
</g>
</g>
<!-- Node1 -->
<g id="node2" class="node">
<title>Node1</title>
<g id="a_node2"><a xlink:href="classweb_1_1websocket_1_1_socket_context_upgrade.html" target="_top" xlink:title=" ">
<polygon fill="white" stroke="black" points="353.5,-252 353.5,-304 512.5,-304 512.5,-252 353.5,-252"/>
<text text-anchor="start" x="361.5" y="-292" font-family="Helvetica,sans-Serif" font-size="10.00">web::websocket::SocketContext</text>
<text text-anchor="start" x="361.5" y="-281" font-family="Helvetica,sans-Serif" font-size="10.00">Upgrade&lt; SubProtocol, web</text>
<text text-anchor="start" x="361.5" y="-270" font-family="Helvetica,sans-Serif" font-size="10.00">::http::client::Request, web</text>
<text text-anchor="middle" x="433" y="-259" font-family="Helvetica,sans-Serif" font-size="10.00">::http::client::Response &gt;</text>
</a>
</g>
</g>
<!-- Node0&#45;&gt;Node1 -->
<g id="edge1" class="edge">
<title>Node0&#45;&gt;Node1</title>
<path fill="none" stroke="darkgreen" d="M289.49,-251.39C309.49,-255.12 332,-259.33 353.13,-263.27"/>
<polygon fill="darkgreen" stroke="darkgreen" points="290.06,-247.94 279.59,-249.54 288.78,-254.82 290.06,-247.94"/>
</g>
<!-- Node3 -->
<g id="node4" class="node">
<title>Node3</title>
<g id="a_node4"><a xlink:href="classweb_1_1websocket_1_1_socket_context_upgrade.html" target="_top" xlink:title=" ">
<polygon fill="white" stroke="black" points="353.5,-181 353.5,-233 512.5,-233 512.5,-181 353.5,-181"/>
<text text-anchor="start" x="361.5" y="-221" font-family="Helvetica,sans-Serif" font-size="10.00">web::websocket::SocketContext</text>
<text text-anchor="start" x="361.5" y="-210" font-family="Helvetica,sans-Serif" font-size="10.00">Upgrade&lt; SubProtocol, web</text>
<text text-anchor="start" x="361.5" y="-199" font-family="Helvetica,sans-Serif" font-size="10.00">::http::server::Request, web</text>
<text text-anchor="middle" x="433" y="-188" font-family="Helvetica,sans-Serif" font-size="10.00">::http::server::Response &gt;</text>
</a>
</g>
</g>
<!-- Node0&#45;&gt;Node3 -->
<g id="edge3" class="edge">
<title>Node0&#45;&gt;Node3</title>
<path fill="none" stroke="darkgreen" d="M296.97,-228.9C315.08,-225.96 334.78,-222.77 353.39,-219.75"/>
<polygon fill="darkgreen" stroke="darkgreen" points="296.4,-225.44 287.09,-230.5 297.52,-232.35 296.4,-225.44"/>
</g>
<!-- Node5 -->
<g id="node6" class="node">
<title>Node5</title>
<g id="a_node6"><a xlink:href="classweb_1_1websocket_1_1_socket_context_upgrade.html" target="_top" xlink:title=" ">
<polygon fill="white" stroke="black" points="348,-120.5 348,-161.5 518,-161.5 518,-120.5 348,-120.5"/>
<text text-anchor="start" x="356" y="-149.5" font-family="Helvetica,sans-Serif" font-size="10.00">web::websocket::SocketContext</text>
<text text-anchor="start" x="356" y="-138.5" font-family="Helvetica,sans-Serif" font-size="10.00">Upgrade&lt; SubProtocolT, RequestT,</text>
<text text-anchor="middle" x="433" y="-127.5" font-family="Helvetica,sans-Serif" font-size="10.00"> ResponseT &gt;</text>
</a>
</g>
</g>
<!-- Node0&#45;&gt;Node5 -->
<g id="edge5" class="edge">
<title>Node0&#45;&gt;Node5</title>
<path fill="none" stroke="darkgreen" d="M302.19,-226.48C305.6,-224.86 308.9,-223.04 312,-221 334.6,-206.18 326.41,-188.25 348,-172 353.22,-168.07 358.98,-164.6 364.98,-161.54"/>
<polygon fill="darkgreen" stroke="darkgreen" points="300.79,-223.27 292.91,-230.35 303.48,-229.73 300.79,-223.27"/>
</g>
<!-- Node2 -->
<g id="node3" class="node">
<title>Node2</title>
<g id="a_node3"><a xlink:href="classweb_1_1websocket_1_1client_1_1_socket_context_upgrade.html" target="_top" xlink:title=" ">
<polygon fill="white" stroke="black" points="554,-263 554,-293 679,-293 679,-263 554,-263"/>
<text text-anchor="start" x="562" y="-281" font-family="Helvetica,sans-Serif" font-size="10.00">web::websocket::client</text>
<text text-anchor="middle" x="616.5" y="-270" font-family="Helvetica,sans-Serif" font-size="10.00">::SocketContextUpgrade</text>
</a>
</g>
</g>
<!-- Node1&#45;&gt;Node2 -->
<g id="edge2" class="edge">
<title>Node1&#45;&gt;Node2</title>
<path fill="none" stroke="midnightblue" d="M522.63,-278C533.16,-278 543.74,-278 553.78,-278"/>
<polygon fill="midnightblue" stroke="midnightblue" points="522.55,-274.5 512.55,-278 522.55,-281.5 522.55,-274.5"/>
</g>
<!-- Node4 -->
<g id="node5" class="node">
<title>Node4</title>
<g id="a_node5"><a xlink:href="classweb_1_1websocket_1_1server_1_1_socket_context_upgrade.html" target="_top" xlink:title=" ">
<polygon fill="white" stroke="black" points="554,-192 554,-222 679,-222 679,-192 554,-192"/>
<text text-anchor="start" x="562" y="-210" font-family="Helvetica,sans-Serif" font-size="10.00">web::websocket::server</text>
<text text-anchor="middle" x="616.5" y="-199" font-family="Helvetica,sans-Serif" font-size="10.00">::SocketContextUpgrade</text>
</a>
</g>
</g>
<!-- Node3&#45;&gt;Node4 -->
<g id="edge4" class="edge">
<title>Node3&#45;&gt;Node4</title>
<path fill="none" stroke="midnightblue" d="M522.63,-207C533.16,-207 543.74,-207 553.78,-207"/>
<polygon fill="midnightblue" stroke="midnightblue" points="522.55,-203.5 512.55,-207 522.55,-210.5 522.55,-203.5"/>
</g>
<!-- Node180 -->
<g id="node7" class="node">
<title>Node180</title>
<g id="a_node7"><a xlink:href="classcore_1_1socket_1_1stream_1_1_socket_context.html" target="_top" xlink:title=" ">
<polygon fill="white" stroke="black" points="0,-118 0,-148 107,-148 107,-118 0,-118"/>
<text text-anchor="start" x="8" y="-136" font-family="Helvetica,sans-Serif" font-size="10.00">core::socket::stream</text>
<text text-anchor="middle" x="53.5" y="-125" font-family="Helvetica,sans-Serif" font-size="10.00">::SocketContext</text>
</a>
</g>
</g>
<!-- Node181 -->
<g id="node8" class="node">
<title>Node181</title>
<g id="a_node8"><a xlink:href="classweb_1_1http_1_1_socket_context.html" target="_top" xlink:title=" ">
<polygon fill="white" stroke="black" points="163.5,-71.5 163.5,-90.5 291.5,-90.5 291.5,-71.5 163.5,-71.5"/>
<text text-anchor="middle" x="227.5" y="-78.5" font-family="Helvetica,sans-Serif" font-size="10.00">web::http::SocketContext</text>
</a>
</g>
</g>
<!-- Node180&#45;&gt;Node181 -->
<g id="edge6" class="edge">
<title>Node180&#45;&gt;Node181</title>
<path fill="none" stroke="midnightblue" d="M114.08,-114.99C141.29,-106.76 172.42,-97.35 195.01,-90.52"/>
<polygon fill="midnightblue" stroke="midnightblue" points="112.81,-111.72 104.25,-117.96 114.83,-118.42 112.81,-111.72"/>
</g>
<!-- Node184 -->
<g id="node11" class="node">
<title>Node184</title>
<g id="a_node11"><a xlink:href="classweb_1_1http_1_1_socket_context_upgrade.html" target="_top" xlink:title=" ">
<polygon fill="white" stroke="black" points="143,-181 143,-211 312,-211 312,-181 143,-181"/>
<text text-anchor="start" x="151" y="-199" font-family="Helvetica,sans-Serif" font-size="10.00">web::http::SocketContext</text>
<text text-anchor="middle" x="227.5" y="-188" font-family="Helvetica,sans-Serif" font-size="10.00">Upgrade&lt; RequestT, ResponseT &gt;</text>
</a>
</g>
</g>
<!-- Node180&#45;&gt;Node184 -->
<g id="edge9" class="edge">
<title>Node180&#45;&gt;Node184</title>
<path fill="none" stroke="midnightblue" d="M96.59,-152.24C111.15,-158.58 127.66,-165.43 143,-171 152.53,-174.46 162.79,-177.82 172.75,-180.9"/>
<polygon fill="midnightblue" stroke="midnightblue" points="97.9,-148.99 87.34,-148.17 95.08,-155.4 97.9,-148.99"/>
</g>
<!-- Node182 -->
<g id="node9" class="node">
<title>Node182</title>
<g id="a_node9"><a xlink:href="classweb_1_1http_1_1client_1_1_socket_context.html" target="_top" xlink:title=" ">
<polygon fill="white" stroke="black" points="365.5,-0.5 365.5,-41.5 500.5,-41.5 500.5,-0.5 365.5,-0.5"/>
<text text-anchor="start" x="373.5" y="-29.5" font-family="Helvetica,sans-Serif" font-size="10.00">web::http::client::</text>
<text text-anchor="start" x="373.5" y="-18.5" font-family="Helvetica,sans-Serif" font-size="10.00">SocketContext&lt; RequestT,</text>
<text text-anchor="middle" x="433" y="-7.5" font-family="Helvetica,sans-Serif" font-size="10.00"> ResponseT &gt;</text>
</a>
</g>
</g>
<!-- Node181&#45;&gt;Node182 -->
<g id="edge7" class="edge">
<title>Node181&#45;&gt;Node182</title>
<path fill="none" stroke="midnightblue" d="M270.4,-68.65C297.76,-60.58 334.09,-49.87 365.37,-40.64"/>
<polygon fill="midnightblue" stroke="midnightblue" points="269.35,-65.31 260.75,-71.49 271.33,-72.02 269.35,-65.31"/>
</g>
<!-- Node183 -->
<g id="node10" class="node">
<title>Node183</title>
<g id="a_node10"><a xlink:href="classweb_1_1http_1_1server_1_1_socket_context.html" target="_top" xlink:title=" ">
<polygon fill="white" stroke="black" points="365.5,-60.5 365.5,-101.5 500.5,-101.5 500.5,-60.5 365.5,-60.5"/>
<text text-anchor="start" x="373.5" y="-89.5" font-family="Helvetica,sans-Serif" font-size="10.00">web::http::server::</text>
<text text-anchor="start" x="373.5" y="-78.5" font-family="Helvetica,sans-Serif" font-size="10.00">SocketContext&lt; RequestT,</text>
<text text-anchor="middle" x="433" y="-67.5" font-family="Helvetica,sans-Serif" font-size="10.00"> ResponseT &gt;</text>
</a>
</g>
</g>
<!-- Node181&#45;&gt;Node183 -->
<g id="edge8" class="edge">
<title>Node181&#45;&gt;Node183</title>
<path fill="none" stroke="midnightblue" d="M301.79,-81C322.51,-81 344.93,-81 365.24,-81"/>
<polygon fill="midnightblue" stroke="midnightblue" points="301.77,-77.5 291.77,-81 301.77,-84.5 301.77,-77.5"/>
</g>
<!-- Node184&#45;&gt;Node1 -->
<g id="edge10" class="edge">
<title>Node184&#45;&gt;Node1</title>
<path fill="none" stroke="midnightblue" d="M295.41,-214.34C301.09,-216.41 306.69,-218.63 312,-221 329.12,-228.64 331.3,-234.48 348,-243 353.91,-246.01 360.14,-248.98 366.43,-251.84"/>
<polygon fill="midnightblue" stroke="midnightblue" points="296.4,-210.98 285.81,-211.02 294.11,-217.6 296.4,-210.98"/>
</g>
<!-- Node184&#45;&gt;Node3 -->
<g id="edge11" class="edge">
<title>Node184&#45;&gt;Node3</title>
<path fill="none" stroke="midnightblue" d="M322.42,-201.08C332.73,-201.63 343.15,-202.2 353.26,-202.74"/>
<polygon fill="midnightblue" stroke="midnightblue" points="322.33,-197.57 312.15,-200.52 321.95,-204.56 322.33,-197.57"/>
</g>
<!-- Node184&#45;&gt;Node5 -->
<g id="edge12" class="edge">
<title>Node184&#45;&gt;Node5</title>
<path fill="none" stroke="midnightblue" d="M293.91,-178.32C313.65,-172.99 335.49,-167.08 355.86,-161.58"/>
<polygon fill="midnightblue" stroke="midnightblue" points="292.85,-174.98 284.11,-180.97 294.67,-181.74 292.85,-174.98"/>
</g>
<!-- Node235 -->
<g id="node12" class="node">
<title>Node235</title>
<g id="a_node12"><a xlink:href="classweb_1_1websocket_1_1_transmitter.html" target="_top" xlink:title=" ">
<polygon fill="white" stroke="black" points="156,-142.5 156,-161.5 299,-161.5 299,-142.5 156,-142.5"/>
<text text-anchor="middle" x="227.5" y="-149.5" font-family="Helvetica,sans-Serif" font-size="10.00">web::websocket::Transmitter</text>
</a>
</g>
</g>
<!-- Node235&#45;&gt;Node1 -->
<g id="edge13" class="edge">
<title>Node235&#45;&gt;Node1</title>
<path fill="none" stroke="darkgreen" d="M302.63,-165.83C305.93,-167.65 309.08,-169.69 312,-172 339.77,-193.92 322.07,-218.93 348,-243 351.47,-246.22 355.29,-249.17 359.31,-251.87"/>
<polygon fill="darkgreen" stroke="darkgreen" points="304.13,-162.67 293.59,-161.54 301.13,-168.99 304.13,-162.67"/>
</g>
<!-- Node235&#45;&gt;Node3 -->
<g id="edge14" class="edge">
<title>Node235&#45;&gt;Node3</title>
<path fill="none" stroke="darkgreen" d="M280.16,-163.96C290.72,-166.52 301.74,-169.28 312,-172 325.42,-175.56 339.64,-179.53 353.4,-183.48"/>
<polygon fill="darkgreen" stroke="darkgreen" points="280.76,-160.5 270.22,-161.57 279.13,-167.31 280.76,-160.5"/>
</g>
<!-- Node235&#45;&gt;Node5 -->
<g id="edge15" class="edge">
<title>Node235&#45;&gt;Node5</title>
<path fill="none" stroke="darkgreen" d="M309.19,-147.64C321.9,-146.95 335.08,-146.24 347.87,-145.55"/>
<polygon fill="darkgreen" stroke="darkgreen" points="308.9,-144.15 299.1,-148.18 309.28,-151.14 308.9,-144.15"/>
</g>
</g>
</svg>
