<?xml version="1.0" encoding="UTF-8" standalone="no"?>
<!DOCTYPE svg PUBLIC "-//W3C//DTD SVG 1.1//EN"
 "http://www.w3.org/Graphics/SVG/1.1/DTD/svg11.dtd">
<!-- Generated by graphviz version 2.43.0 (0)
 -->
<!-- Title: Graphical Class Hierarchy Pages: 1 -->
<svg width="362pt" height="88pt"
 viewBox="0.00 0.00 362.00 88.00" xmlns="http://www.w3.org/2000/svg" xmlns:xlink="http://www.w3.org/1999/xlink">
<g id="graph0" class="graph" transform="scale(1 1) rotate(0) translate(4 84)">
<title>Graphical Class Hierarchy</title>
<polygon fill="white" stroke="transparent" points="-4,4 -4,-84 358,-84 358,4 -4,4"/>
<!-- Node0 -->
<g id="node1" class="node">
<title>Node0</title>
<g id="a_node1"><a xlink:href="classcore_1_1pipe_1_1_sink.html" target="_top" xlink:title=" ">
<polygon fill="white" stroke="black" points="0,-30 0,-49 85,-49 85,-30 0,-30"/>
<text text-anchor="middle" x="42.5" y="-37" font-family="Helvetica,sans-Serif" font-size="10.00">core::pipe::Sink</text>
</a>
</g>
</g>
<!-- Node1 -->
<g id="node2" class="node">
<title>Node1</title>
<g id="a_node2"><a xlink:href="classweb_1_1http_1_1client_1_1_request.html" target="_top" xlink:title=" ">
<polygon fill="white" stroke="black" points="123,-49.5 123,-79.5 215,-79.5 215,-49.5 123,-49.5"/>
<text text-anchor="start" x="131" y="-67.5" font-family="Helvetica,sans-Serif" font-size="10.00">web::http::client::</text>
<text text-anchor="middle" x="169" y="-56.5" font-family="Helvetica,sans-Serif" font-size="10.00">Request</text>
</a>
</g>
</g>
<!-- Node0&#45;&gt;Node1 -->
<g id="edge1" class="edge">
<title>Node0&#45;&gt;Node1</title>
<path fill="none" stroke="midnightblue" d="M95.37,-49.92C104.43,-51.74 113.8,-53.62 122.67,-55.4"/>
<polygon fill="midnightblue" stroke="midnightblue" points="95.8,-46.43 85.3,-47.89 94.42,-53.29 95.8,-46.43"/>
</g>
<!-- Node2 -->
<g id="node3" class="node">
<title>Node2</title>
<g id="a_node3"><a xlink:href="classweb_1_1http_1_1server_1_1_response.html" target="_top" xlink:title=" ">
<polygon fill="white" stroke="black" points="121,-0.5 121,-30.5 217,-30.5 217,-0.5 121,-0.5"/>
<text text-anchor="start" x="129" y="-18.5" font-family="Helvetica,sans-Serif" font-size="10.00">web::http::server::</text>
<text text-anchor="middle" x="169" y="-7.5" font-family="Helvetica,sans-Serif" font-size="10.00">Response</text>
</a>
</g>
</g>
<!-- Node0&#45;&gt;Node2 -->
<g id="edge2" class="edge">
<title>Node0&#45;&gt;Node2</title>
<path fill="none" stroke="midnightblue" d="M95.16,-29.54C103.71,-27.89 112.52,-26.19 120.94,-24.57"/>
<polygon fill="midnightblue" stroke="midnightblue" points="94.46,-26.11 85.3,-31.44 95.78,-32.99 94.46,-26.11"/>
</g>
<!-- Node3 -->
<g id="node4" class="node">
<title>Node3</title>
<g id="a_node4"><a xlink:href="classexpress_1_1_response.html" target="_top" xlink:title=" ">
<polygon fill="white" stroke="black" points="253,-6 253,-25 354,-25 354,-6 253,-6"/>
<text text-anchor="middle" x="303.5" y="-13" font-family="Helvetica,sans-Serif" font-size="10.00">express::Response</text>
</a>
</g>
</g>
<!-- Node2&#45;&gt;Node3 -->
<g id="edge3" class="edge">
<title>Node2&#45;&gt;Node3</title>
<path fill="none" stroke="midnightblue" d="M227.33,-15.5C235.83,-15.5 244.54,-15.5 252.87,-15.5"/>
<polygon fill="midnightblue" stroke="midnightblue" points="227.09,-12 217.09,-15.5 227.09,-19 227.09,-12"/>
</g>
</g>
</svg>
