<?xml version="1.0" encoding="UTF-8" standalone="no"?>
<!DOCTYPE svg PUBLIC "-//W3C//DTD SVG 1.1//EN"
 "http://www.w3.org/Graphics/SVG/1.1/DTD/svg11.dtd">
<!-- Generated by graphviz version 2.43.0 (0)
 -->
<!-- Title: net/l2/config/ConfigAddress.h Pages: 1 -->
<svg width="1165pt" height="229pt"
 viewBox="0.00 0.00 1165.00 229.00" xmlns="http://www.w3.org/2000/svg" xmlns:xlink="http://www.w3.org/1999/xlink">
<g id="graph0" class="graph" transform="scale(1 1) rotate(0) translate(4 225)">
<title>net/l2/config/ConfigAddress.h</title>
<polygon fill="white" stroke="transparent" points="-4,4 -4,-225 1161,-225 1161,4 -4,4"/>
<!-- Node1 -->
<g id="node1" class="node">
<title>Node1</title>
<g id="a_node1"><a xlink:title=" ">
<polygon fill="#bfbfbf" stroke="black" points="227,-201.5 227,-220.5 387,-220.5 387,-201.5 227,-201.5"/>
<text text-anchor="middle" x="307" y="-208.5" font-family="Helvetica,sans-Serif" font-size="10.00">net/l2/config/ConfigAddress.h</text>
</a>
</g>
</g>
<!-- Node2 -->
<g id="node2" class="node">
<title>Node2</title>
<g id="a_node2"><a xlink:href="l2_2config_2_config_address_8cpp.html" target="_top" xlink:title=" ">
<polygon fill="white" stroke="black" points="57.5,-140 57.5,-159 228.5,-159 228.5,-140 57.5,-140"/>
<text text-anchor="middle" x="143" y="-147" font-family="Helvetica,sans-Serif" font-size="10.00">net/l2/config/ConfigAddress.cpp</text>
</a>
</g>
</g>
<!-- Node1&#45;&gt;Node2 -->
<g id="edge1" class="edge">
<title>Node1&#45;&gt;Node2</title>
<path fill="none" stroke="midnightblue" d="M273.74,-197.93C241.86,-186.37 194.57,-169.21 166.45,-159.01"/>
<polygon fill="midnightblue" stroke="midnightblue" points="272.91,-201.35 283.5,-201.48 275.3,-194.77 272.91,-201.35"/>
</g>
<!-- Node3 -->
<g id="node3" class="node">
<title>Node3</title>
<g id="a_node3"><a xlink:href="l2_2stream_2config_2_config_client_socket_8h.html" target="_top" xlink:title=" ">
<polygon fill="white" stroke="black" points="246.5,-134.5 246.5,-164.5 367.5,-164.5 367.5,-134.5 246.5,-134.5"/>
<text text-anchor="start" x="254.5" y="-152.5" font-family="Helvetica,sans-Serif" font-size="10.00">net/l2/stream/config</text>
<text text-anchor="middle" x="307" y="-141.5" font-family="Helvetica,sans-Serif" font-size="10.00">/ConfigClientSocket.h</text>
</a>
</g>
</g>
<!-- Node1&#45;&gt;Node3 -->
<g id="edge2" class="edge">
<title>Node1&#45;&gt;Node3</title>
<path fill="none" stroke="midnightblue" d="M307,-191.23C307,-182.59 307,-172.5 307,-164.52"/>
<polygon fill="midnightblue" stroke="midnightblue" points="303.5,-191.48 307,-201.48 310.5,-191.48 303.5,-191.48"/>
</g>
<!-- Node11 -->
<g id="node11" class="node">
<title>Node11</title>
<g id="a_node11"><a xlink:href="l2_2stream_2config_2_config_server_socket_8h.html" target="_top" xlink:title=" ">
<polygon fill="white" stroke="black" points="597,-134.5 597,-164.5 721,-164.5 721,-134.5 597,-134.5"/>
<text text-anchor="start" x="605" y="-152.5" font-family="Helvetica,sans-Serif" font-size="10.00">net/l2/stream/config</text>
<text text-anchor="middle" x="659" y="-141.5" font-family="Helvetica,sans-Serif" font-size="10.00">/ConfigServerSocket.h</text>
</a>
</g>
</g>
<!-- Node1&#45;&gt;Node11 -->
<g id="edge10" class="edge">
<title>Node1&#45;&gt;Node11</title>
<path fill="none" stroke="midnightblue" d="M367.38,-199.79C431.42,-188.97 532.07,-171.96 596.79,-161.02"/>
<polygon fill="midnightblue" stroke="midnightblue" points="366.71,-196.36 357.43,-201.48 367.88,-203.26 366.71,-196.36"/>
</g>
<!-- Node4 -->
<g id="node4" class="node">
<title>Node4</title>
<g id="a_node4"><a xlink:href="l2_2stream_2config_2_config_client_socket_8cpp.html" target="_top" xlink:title=" ">
<polygon fill="white" stroke="black" points="0,-67.5 0,-97.5 132,-97.5 132,-67.5 0,-67.5"/>
<text text-anchor="start" x="8" y="-85.5" font-family="Helvetica,sans-Serif" font-size="10.00">net/l2/stream/config</text>
<text text-anchor="middle" x="66" y="-74.5" font-family="Helvetica,sans-Serif" font-size="10.00">/ConfigClientSocket.cpp</text>
</a>
</g>
</g>
<!-- Node3&#45;&gt;Node4 -->
<g id="edge3" class="edge">
<title>Node3&#45;&gt;Node4</title>
<path fill="none" stroke="midnightblue" d="M245.27,-131.85C205.97,-121.25 155.64,-107.68 118.32,-97.61"/>
<polygon fill="midnightblue" stroke="midnightblue" points="244.44,-135.25 255,-134.48 246.26,-128.49 244.44,-135.25"/>
</g>
<!-- Node5 -->
<g id="node5" class="node">
<title>Node5</title>
<g id="a_node5"><a xlink:href="l2_2stream_2legacy_2config_2_config_socket_client_8h.html" target="_top" xlink:title=" ">
<polygon fill="white" stroke="black" points="150,-67.5 150,-97.5 304,-97.5 304,-67.5 150,-67.5"/>
<text text-anchor="start" x="158" y="-85.5" font-family="Helvetica,sans-Serif" font-size="10.00">net/l2/stream/legacy</text>
<text text-anchor="middle" x="227" y="-74.5" font-family="Helvetica,sans-Serif" font-size="10.00">/config/ConfigSocketClient.h</text>
</a>
</g>
</g>
<!-- Node3&#45;&gt;Node5 -->
<g id="edge4" class="edge">
<title>Node3&#45;&gt;Node5</title>
<path fill="none" stroke="midnightblue" d="M281.63,-127.88C269.47,-118.01 255.22,-106.43 244.32,-97.58"/>
<polygon fill="midnightblue" stroke="midnightblue" points="279.67,-130.81 289.64,-134.4 284.09,-125.37 279.67,-130.81"/>
</g>
<!-- Node8 -->
<g id="node8" class="node">
<title>Node8</title>
<g id="a_node8"><a xlink:href="l2_2stream_2tls_2config_2_config_socket_client_8h.html" target="_top" xlink:title=" ">
<polygon fill="white" stroke="black" points="322,-67.5 322,-97.5 452,-97.5 452,-67.5 322,-67.5"/>
<text text-anchor="start" x="330" y="-85.5" font-family="Helvetica,sans-Serif" font-size="10.00">net/l2/stream/tls/config</text>
<text text-anchor="middle" x="387" y="-74.5" font-family="Helvetica,sans-Serif" font-size="10.00">/ConfigSocketClient.h</text>
</a>
</g>
</g>
<!-- Node3&#45;&gt;Node8 -->
<g id="edge7" class="edge">
<title>Node3&#45;&gt;Node8</title>
<path fill="none" stroke="midnightblue" d="M332.37,-127.88C344.53,-118.01 358.78,-106.43 369.68,-97.58"/>
<polygon fill="midnightblue" stroke="midnightblue" points="329.91,-125.37 324.36,-134.4 334.33,-130.81 329.91,-125.37"/>
</g>
<!-- Node6 -->
<g id="node6" class="node">
<title>Node6</title>
<g id="a_node6"><a xlink:href="l2_2stream_2legacy_2_socket_client_8cpp.html" target="_top" xlink:title=" ">
<polygon fill="white" stroke="black" points="33.5,-0.5 33.5,-30.5 150.5,-30.5 150.5,-0.5 33.5,-0.5"/>
<text text-anchor="start" x="41.5" y="-18.5" font-family="Helvetica,sans-Serif" font-size="10.00">net/l2/stream/legacy</text>
<text text-anchor="middle" x="92" y="-7.5" font-family="Helvetica,sans-Serif" font-size="10.00">/SocketClient.cpp</text>
</a>
</g>
</g>
<!-- Node5&#45;&gt;Node6 -->
<g id="edge5" class="edge">
<title>Node5&#45;&gt;Node6</title>
<path fill="none" stroke="midnightblue" d="M188.56,-62.99C167.16,-52.69 140.95,-40.07 121.24,-30.58"/>
<polygon fill="midnightblue" stroke="midnightblue" points="187.18,-66.21 197.71,-67.4 190.22,-59.9 187.18,-66.21"/>
</g>
<!-- Node7 -->
<g id="node7" class="node">
<title>Node7</title>
<g id="a_node7"><a xlink:href="net_2l2_2stream_2legacy_2_socket_client_8h.html" target="_top" xlink:title=" ">
<polygon fill="white" stroke="black" points="168.5,-0.5 168.5,-30.5 285.5,-30.5 285.5,-0.5 168.5,-0.5"/>
<text text-anchor="start" x="176.5" y="-18.5" font-family="Helvetica,sans-Serif" font-size="10.00">net/l2/stream/legacy</text>
<text text-anchor="middle" x="227" y="-7.5" font-family="Helvetica,sans-Serif" font-size="10.00">/SocketClient.h</text>
</a>
</g>
</g>
<!-- Node5&#45;&gt;Node7 -->
<g id="edge6" class="edge">
<title>Node5&#45;&gt;Node7</title>
<path fill="none" stroke="midnightblue" d="M227,-57.11C227,-48.15 227,-38.32 227,-30.58"/>
<polygon fill="midnightblue" stroke="midnightblue" points="223.5,-57.4 227,-67.4 230.5,-57.4 223.5,-57.4"/>
</g>
<!-- Node9 -->
<g id="node9" class="node">
<title>Node9</title>
<g id="a_node9"><a xlink:href="l2_2stream_2tls_2_socket_client_8cpp.html" target="_top" xlink:title=" ">
<polygon fill="white" stroke="black" points="304,-0.5 304,-30.5 436,-30.5 436,-0.5 304,-0.5"/>
<text text-anchor="start" x="312" y="-18.5" font-family="Helvetica,sans-Serif" font-size="10.00">net/l2/stream/tls/Socket</text>
<text text-anchor="middle" x="370" y="-7.5" font-family="Helvetica,sans-Serif" font-size="10.00">Client.cpp</text>
</a>
</g>
</g>
<!-- Node8&#45;&gt;Node9 -->
<g id="edge8" class="edge">
<title>Node8&#45;&gt;Node9</title>
<path fill="none" stroke="midnightblue" d="M380.77,-57.7C378.39,-48.59 375.75,-38.49 373.68,-30.58"/>
<polygon fill="midnightblue" stroke="midnightblue" points="377.39,-58.61 383.31,-67.4 384.17,-56.84 377.39,-58.61"/>
</g>
<!-- Node10 -->
<g id="node10" class="node">
<title>Node10</title>
<g id="a_node10"><a xlink:href="net_2l2_2stream_2tls_2_socket_client_8h.html" target="_top" xlink:title=" ">
<polygon fill="white" stroke="black" points="454,-0.5 454,-30.5 586,-30.5 586,-0.5 454,-0.5"/>
<text text-anchor="start" x="462" y="-18.5" font-family="Helvetica,sans-Serif" font-size="10.00">net/l2/stream/tls/Socket</text>
<text text-anchor="middle" x="520" y="-7.5" font-family="Helvetica,sans-Serif" font-size="10.00">Client.h</text>
</a>
</g>
</g>
<!-- Node8&#45;&gt;Node10 -->
<g id="edge9" class="edge">
<title>Node8&#45;&gt;Node10</title>
<path fill="none" stroke="midnightblue" d="M424.87,-62.99C445.95,-52.69 471.78,-40.07 491.2,-30.58"/>
<polygon fill="midnightblue" stroke="midnightblue" points="423.31,-59.86 415.86,-67.4 426.38,-66.15 423.31,-59.86"/>
</g>
<!-- Node12 -->
<g id="node12" class="node">
<title>Node12</title>
<g id="a_node12"><a xlink:href="l2_2stream_2config_2_config_server_socket_8cpp.html" target="_top" xlink:title=" ">
<polygon fill="white" stroke="black" points="509.5,-67.5 509.5,-97.5 644.5,-97.5 644.5,-67.5 509.5,-67.5"/>
<text text-anchor="start" x="517.5" y="-85.5" font-family="Helvetica,sans-Serif" font-size="10.00">net/l2/stream/config</text>
<text text-anchor="middle" x="577" y="-74.5" font-family="Helvetica,sans-Serif" font-size="10.00">/ConfigServerSocket.cpp</text>
</a>
</g>
</g>
<!-- Node11&#45;&gt;Node12 -->
<g id="edge11" class="edge">
<title>Node11&#45;&gt;Node12</title>
<path fill="none" stroke="midnightblue" d="M633.35,-128.17C620.81,-118.23 606.03,-106.51 594.76,-97.58"/>
<polygon fill="midnightblue" stroke="midnightblue" points="631.2,-130.93 641.21,-134.4 635.54,-125.44 631.2,-130.93"/>
</g>
<!-- Node13 -->
<g id="node13" class="node">
<title>Node13</title>
<g id="a_node13"><a xlink:href="l2_2stream_2legacy_2config_2_config_socket_server_8h.html" target="_top" xlink:title=" ">
<polygon fill="white" stroke="black" points="662.5,-67.5 662.5,-97.5 819.5,-97.5 819.5,-67.5 662.5,-67.5"/>
<text text-anchor="start" x="670.5" y="-85.5" font-family="Helvetica,sans-Serif" font-size="10.00">net/l2/stream/legacy</text>
<text text-anchor="middle" x="741" y="-74.5" font-family="Helvetica,sans-Serif" font-size="10.00">/config/ConfigSocketServer.h</text>
</a>
</g>
</g>
<!-- Node11&#45;&gt;Node13 -->
<g id="edge12" class="edge">
<title>Node11&#45;&gt;Node13</title>
<path fill="none" stroke="midnightblue" d="M684.65,-128.17C697.19,-118.23 711.97,-106.51 723.24,-97.58"/>
<polygon fill="midnightblue" stroke="midnightblue" points="682.46,-125.44 676.79,-134.4 686.8,-130.93 682.46,-125.44"/>
</g>
<!-- Node16 -->
<g id="node16" class="node">
<title>Node16</title>
<g id="a_node16"><a xlink:href="l2_2stream_2tls_2config_2_config_socket_server_8h.html" target="_top" xlink:title=" ">
<polygon fill="white" stroke="black" points="876,-67.5 876,-97.5 1006,-97.5 1006,-67.5 876,-67.5"/>
<text text-anchor="start" x="884" y="-85.5" font-family="Helvetica,sans-Serif" font-size="10.00">net/l2/stream/tls/config</text>
<text text-anchor="middle" x="941" y="-74.5" font-family="Helvetica,sans-Serif" font-size="10.00">/ConfigSocketServer.h</text>
</a>
</g>
</g>
<!-- Node11&#45;&gt;Node16 -->
<g id="edge15" class="edge">
<title>Node11&#45;&gt;Node16</title>
<path fill="none" stroke="midnightblue" d="M729.78,-132.19C775.96,-121.54 835.64,-107.78 879.78,-97.61"/>
<polygon fill="midnightblue" stroke="midnightblue" points="728.8,-128.82 719.84,-134.48 730.37,-135.64 728.8,-128.82"/>
</g>
<!-- Node14 -->
<g id="node14" class="node">
<title>Node14</title>
<g id="a_node14"><a xlink:href="l2_2stream_2legacy_2_socket_server_8cpp.html" target="_top" xlink:title=" ">
<polygon fill="white" stroke="black" points="604.5,-0.5 604.5,-30.5 721.5,-30.5 721.5,-0.5 604.5,-0.5"/>
<text text-anchor="start" x="612.5" y="-18.5" font-family="Helvetica,sans-Serif" font-size="10.00">net/l2/stream/legacy</text>
<text text-anchor="middle" x="663" y="-7.5" font-family="Helvetica,sans-Serif" font-size="10.00">/SocketServer.cpp</text>
</a>
</g>
</g>
<!-- Node13&#45;&gt;Node14 -->
<g id="edge13" class="edge">
<title>Node13&#45;&gt;Node14</title>
<path fill="none" stroke="midnightblue" d="M716.26,-60.88C704.41,-51.01 690.52,-39.43 679.89,-30.58"/>
<polygon fill="midnightblue" stroke="midnightblue" points="714.15,-63.68 724.08,-67.4 718.63,-58.31 714.15,-63.68"/>
</g>
<!-- Node15 -->
<g id="node15" class="node">
<title>Node15</title>
<g id="a_node15"><a xlink:href="net_2l2_2stream_2legacy_2_socket_server_8h.html" target="_top" xlink:title=" ">
<polygon fill="white" stroke="black" points="739.5,-0.5 739.5,-30.5 856.5,-30.5 856.5,-0.5 739.5,-0.5"/>
<text text-anchor="start" x="747.5" y="-18.5" font-family="Helvetica,sans-Serif" font-size="10.00">net/l2/stream/legacy</text>
<text text-anchor="middle" x="798" y="-7.5" font-family="Helvetica,sans-Serif" font-size="10.00">/SocketServer.h</text>
</a>
</g>
</g>
<!-- Node13&#45;&gt;Node15 -->
<g id="edge14" class="edge">
<title>Node13&#45;&gt;Node15</title>
<path fill="none" stroke="midnightblue" d="M760.09,-59.74C768.52,-50.12 778.19,-39.09 785.66,-30.58"/>
<polygon fill="midnightblue" stroke="midnightblue" points="757.33,-57.57 753.37,-67.4 762.59,-62.18 757.33,-57.57"/>
</g>
<!-- Node17 -->
<g id="node17" class="node">
<title>Node17</title>
<g id="a_node17"><a xlink:href="l2_2stream_2tls_2_socket_server_8cpp.html" target="_top" xlink:title=" ">
<polygon fill="white" stroke="black" points="875,-0.5 875,-30.5 1007,-30.5 1007,-0.5 875,-0.5"/>
<text text-anchor="start" x="883" y="-18.5" font-family="Helvetica,sans-Serif" font-size="10.00">net/l2/stream/tls/Socket</text>
<text text-anchor="middle" x="941" y="-7.5" font-family="Helvetica,sans-Serif" font-size="10.00">Server.cpp</text>
</a>
</g>
</g>
<!-- Node16&#45;&gt;Node17 -->
<g id="edge16" class="edge">
<title>Node16&#45;&gt;Node17</title>
<path fill="none" stroke="midnightblue" d="M941,-57.11C941,-48.15 941,-38.32 941,-30.58"/>
<polygon fill="midnightblue" stroke="midnightblue" points="937.5,-57.4 941,-67.4 944.5,-57.4 937.5,-57.4"/>
</g>
<!-- Node18 -->
<g id="node18" class="node">
<title>Node18</title>
<g id="a_node18"><a xlink:href="net_2l2_2stream_2tls_2_socket_server_8h.html" target="_top" xlink:title=" ">
<polygon fill="white" stroke="black" points="1025,-0.5 1025,-30.5 1157,-30.5 1157,-0.5 1025,-0.5"/>
<text text-anchor="start" x="1033" y="-18.5" font-family="Helvetica,sans-Serif" font-size="10.00">net/l2/stream/tls/Socket</text>
<text text-anchor="middle" x="1091" y="-7.5" font-family="Helvetica,sans-Serif" font-size="10.00">Server.h</text>
</a>
</g>
</g>
<!-- Node16&#45;&gt;Node18 -->
<g id="edge17" class="edge">
<title>Node16&#45;&gt;Node18</title>
<path fill="none" stroke="midnightblue" d="M982.75,-63.41C1006.7,-53.03 1036.32,-40.2 1058.52,-30.58"/>
<polygon fill="midnightblue" stroke="midnightblue" points="981.33,-60.21 973.55,-67.4 984.11,-66.63 981.33,-60.21"/>
</g>
</g>
</svg>
