<?xml version="1.0" encoding="UTF-8" standalone="no"?>
<!DOCTYPE svg PUBLIC "-//W3C//DTD SVG 1.1//EN"
 "http://www.w3.org/Graphics/SVG/1.1/DTD/svg11.dtd">
<!-- Generated by graphviz version 2.43.0 (0)
 -->
<!-- Title: web/http/legacy/rf/Client.h Pages: 1 -->
<svg width="2005pt" height="687pt"
 viewBox="0.00 0.00 2005.00 687.00" xmlns="http://www.w3.org/2000/svg" xmlns:xlink="http://www.w3.org/1999/xlink">
<g id="graph0" class="graph" transform="scale(1 1) rotate(0) translate(4 683)">
<title>web/http/legacy/rf/Client.h</title>
<polygon fill="white" stroke="transparent" points="-4,4 -4,-683 2001,-683 2001,4 -4,4"/>
<!-- Node1 -->
<g id="node1" class="node">
<title>Node1</title>
<g id="a_node1"><a xlink:title=" ">
<polygon fill="#bfbfbf" stroke="black" points="835,-648.5 835,-678.5 940,-678.5 940,-648.5 835,-648.5"/>
<text text-anchor="start" x="843" y="-666.5" font-family="Helvetica,sans-Serif" font-size="10.00">web/http/legacy/rf</text>
<text text-anchor="middle" x="887.5" y="-655.5" font-family="Helvetica,sans-Serif" font-size="10.00">/Client.h</text>
</a>
</g>
</g>
<!-- Node2 -->
<g id="node2" class="node">
<title>Node2</title>
<g id="a_node2"><a xlink:href="net_2rf_2stream_2legacy_2_socket_client_8h.html" target="_top" xlink:title=" ">
<polygon fill="white" stroke="black" points="759.5,-581.5 759.5,-611.5 875.5,-611.5 875.5,-581.5 759.5,-581.5"/>
<text text-anchor="start" x="767.5" y="-599.5" font-family="Helvetica,sans-Serif" font-size="10.00">net/rf/stream/legacy</text>
<text text-anchor="middle" x="817.5" y="-588.5" font-family="Helvetica,sans-Serif" font-size="10.00">/SocketClient.h</text>
</a>
</g>
</g>
<!-- Node1&#45;&gt;Node2 -->
<g id="edge1" class="edge">
<title>Node1&#45;&gt;Node2</title>
<path fill="none" stroke="midnightblue" d="M872.31,-648.4C862.95,-639.71 850.78,-628.4 840.29,-618.66"/>
<polygon fill="midnightblue" stroke="midnightblue" points="842.37,-615.82 832.66,-611.58 837.61,-620.95 842.37,-615.82"/>
</g>
<!-- Node37 -->
<g id="node37" class="node">
<title>Node37</title>
<g id="a_node37"><a xlink:href="client_2_client_8h.html" target="_top" xlink:title=" ">
<polygon fill="white" stroke="black" points="1227.5,-587 1227.5,-606 1357.5,-606 1357.5,-587 1227.5,-587"/>
<text text-anchor="middle" x="1292.5" y="-594" font-family="Helvetica,sans-Serif" font-size="10.00">web/http/client/Client.h</text>
</a>
</g>
</g>
<!-- Node1&#45;&gt;Node37 -->
<g id="edge43" class="edge">
<title>Node1&#45;&gt;Node37</title>
<path fill="none" stroke="midnightblue" d="M940.03,-654.07C1014.33,-642.14 1149.92,-620.38 1229.52,-607.61"/>
<polygon fill="midnightblue" stroke="midnightblue" points="1230.1,-611.06 1239.42,-606.02 1228.99,-604.15 1230.1,-611.06"/>
</g>
<!-- Node3 -->
<g id="node3" class="node">
<title>Node3</title>
<g id="a_node3"><a xlink:href="core_2socket_2stream_2legacy_2_socket_client_8h.html" target="_top" xlink:title=" ">
<polygon fill="white" stroke="black" points="313,-514.5 313,-544.5 438,-544.5 438,-514.5 313,-514.5"/>
<text text-anchor="start" x="321" y="-532.5" font-family="Helvetica,sans-Serif" font-size="10.00">core/socket/stream</text>
<text text-anchor="middle" x="375.5" y="-521.5" font-family="Helvetica,sans-Serif" font-size="10.00">/legacy/SocketClient.h</text>
</a>
</g>
</g>
<!-- Node2&#45;&gt;Node3 -->
<g id="edge2" class="edge">
<title>Node2&#45;&gt;Node3</title>
<path fill="none" stroke="midnightblue" d="M759.26,-586.94C679.21,-575.16 535.23,-553.99 448.21,-541.19"/>
<polygon fill="midnightblue" stroke="midnightblue" points="448.55,-537.71 438.15,-539.71 447.53,-544.63 448.55,-537.71"/>
</g>
<!-- Node21 -->
<g id="node21" class="node">
<title>Node21</title>
<g id="a_node21"><a xlink:href="net_2rf_2stream_2_client_socket_8h.html" target="_top" xlink:title=" ">
<polygon fill="white" stroke="black" points="655,-520 655,-539 808,-539 808,-520 655,-520"/>
<text text-anchor="middle" x="731.5" y="-527" font-family="Helvetica,sans-Serif" font-size="10.00">net/rf/stream/ClientSocket.h</text>
</a>
</g>
</g>
<!-- Node2&#45;&gt;Node21 -->
<g id="edge23" class="edge">
<title>Node2&#45;&gt;Node21</title>
<path fill="none" stroke="midnightblue" d="M798.84,-581.4C784.77,-570.76 765.51,-556.2 751.19,-545.38"/>
<polygon fill="midnightblue" stroke="midnightblue" points="753.09,-542.43 743,-539.19 748.87,-548.02 753.09,-542.43"/>
</g>
<!-- Node28 -->
<g id="node28" class="node">
<title>Node28</title>
<g id="a_node28"><a xlink:href="rf_2stream_2legacy_2config_2_config_socket_client_8h.html" target="_top" xlink:title=" ">
<polygon fill="white" stroke="black" points="826.5,-514.5 826.5,-544.5 980.5,-544.5 980.5,-514.5 826.5,-514.5"/>
<text text-anchor="start" x="834.5" y="-532.5" font-family="Helvetica,sans-Serif" font-size="10.00">net/rf/stream/legacy</text>
<text text-anchor="middle" x="903.5" y="-521.5" font-family="Helvetica,sans-Serif" font-size="10.00">/config/ConfigSocketClient.h</text>
</a>
</g>
</g>
<!-- Node2&#45;&gt;Node28 -->
<g id="edge30" class="edge">
<title>Node2&#45;&gt;Node28</title>
<path fill="none" stroke="midnightblue" d="M836.16,-581.4C847.99,-572.45 863.49,-560.74 876.64,-550.8"/>
<polygon fill="midnightblue" stroke="midnightblue" points="879.01,-553.4 884.88,-544.58 874.79,-547.81 879.01,-553.4"/>
</g>
<!-- Node4 -->
<g id="node4" class="node">
<title>Node4</title>
<g id="a_node4"><a xlink:href="core_2socket_2stream_2_socket_client_8h.html" target="_top" xlink:title=" ">
<polygon fill="white" stroke="black" points="174.5,-447.5 174.5,-477.5 284.5,-477.5 284.5,-447.5 174.5,-447.5"/>
<text text-anchor="start" x="182.5" y="-465.5" font-family="Helvetica,sans-Serif" font-size="10.00">core/socket/stream</text>
<text text-anchor="middle" x="229.5" y="-454.5" font-family="Helvetica,sans-Serif" font-size="10.00">/SocketClient.h</text>
</a>
</g>
</g>
<!-- Node3&#45;&gt;Node4 -->
<g id="edge3" class="edge">
<title>Node3&#45;&gt;Node4</title>
<path fill="none" stroke="midnightblue" d="M343.82,-514.4C322.3,-504.81 293.63,-492.05 270.38,-481.7"/>
<polygon fill="midnightblue" stroke="midnightblue" points="271.68,-478.45 261.12,-477.58 268.83,-484.84 271.68,-478.45"/>
</g>
<!-- Node5 -->
<g id="node5" class="node">
<title>Node5</title>
<g id="a_node5"><a xlink:href="legacy_2_socket_connector_8h.html" target="_top" xlink:title=" ">
<polygon fill="white" stroke="black" points="302.5,-447.5 302.5,-477.5 448.5,-477.5 448.5,-447.5 302.5,-447.5"/>
<text text-anchor="start" x="310.5" y="-465.5" font-family="Helvetica,sans-Serif" font-size="10.00">core/socket/stream</text>
<text text-anchor="middle" x="375.5" y="-454.5" font-family="Helvetica,sans-Serif" font-size="10.00">/legacy/SocketConnector.h</text>
</a>
</g>
</g>
<!-- Node3&#45;&gt;Node5 -->
<g id="edge4" class="edge">
<title>Node3&#45;&gt;Node5</title>
<path fill="none" stroke="midnightblue" d="M375.5,-514.4C375.5,-506.64 375.5,-496.81 375.5,-487.86"/>
<polygon fill="midnightblue" stroke="midnightblue" points="379,-487.58 375.5,-477.58 372,-487.58 379,-487.58"/>
</g>
<!-- Node6 -->
<g id="node6" class="node">
<title>Node6</title>
<g id="a_node6"><a xlink:href="_socket_connector_8h.html" target="_top" xlink:title=" ">
<polygon fill="white" stroke="black" points="38.5,-246.5 38.5,-276.5 148.5,-276.5 148.5,-246.5 38.5,-246.5"/>
<text text-anchor="start" x="46.5" y="-264.5" font-family="Helvetica,sans-Serif" font-size="10.00">core/socket/stream</text>
<text text-anchor="middle" x="93.5" y="-253.5" font-family="Helvetica,sans-Serif" font-size="10.00">/SocketConnector.h</text>
</a>
</g>
</g>
<!-- Node5&#45;&gt;Node6 -->
<g id="edge5" class="edge">
<title>Node5&#45;&gt;Node6</title>
<path fill="none" stroke="midnightblue" d="M337.66,-447.4C291.04,-428.74 211.09,-392.49 154.5,-344 134.84,-327.16 117.71,-302.91 106.65,-285.24"/>
<polygon fill="midnightblue" stroke="midnightblue" points="109.63,-283.4 101.44,-276.68 103.65,-287.04 109.63,-283.4"/>
</g>
<!-- Node12 -->
<g id="node12" class="node">
<title>Node12</title>
<g id="a_node12"><a xlink:href="stream_2legacy_2_socket_connection_8h.html" target="_top" xlink:title=" ">
<polygon fill="white" stroke="black" points="300,-380.5 300,-410.5 451,-410.5 451,-380.5 300,-380.5"/>
<text text-anchor="start" x="308" y="-398.5" font-family="Helvetica,sans-Serif" font-size="10.00">core/socket/stream</text>
<text text-anchor="middle" x="375.5" y="-387.5" font-family="Helvetica,sans-Serif" font-size="10.00">/legacy/SocketConnection.h</text>
</a>
</g>
</g>
<!-- Node5&#45;&gt;Node12 -->
<g id="edge12" class="edge">
<title>Node5&#45;&gt;Node12</title>
<path fill="none" stroke="midnightblue" d="M375.5,-447.4C375.5,-439.64 375.5,-429.81 375.5,-420.86"/>
<polygon fill="midnightblue" stroke="midnightblue" points="379,-420.58 375.5,-410.58 372,-420.58 379,-420.58"/>
</g>
<!-- Node7 -->
<g id="node7" class="node">
<title>Node7</title>
<g id="a_node7"><a xlink:href="_connect_event_receiver_8h.html" target="_top" xlink:title=" ">
<polygon fill="white" stroke="black" points="73,-179.5 73,-209.5 212,-209.5 212,-179.5 73,-179.5"/>
<text text-anchor="start" x="81" y="-197.5" font-family="Helvetica,sans-Serif" font-size="10.00">core/eventreceiver</text>
<text text-anchor="middle" x="142.5" y="-186.5" font-family="Helvetica,sans-Serif" font-size="10.00">/ConnectEventReceiver.h</text>
</a>
</g>
</g>
<!-- Node6&#45;&gt;Node7 -->
<g id="edge6" class="edge">
<title>Node6&#45;&gt;Node7</title>
<path fill="none" stroke="midnightblue" d="M104.13,-246.4C110.42,-238.05 118.54,-227.29 125.68,-217.81"/>
<polygon fill="midnightblue" stroke="midnightblue" points="128.66,-219.67 131.89,-209.58 123.07,-215.45 128.66,-219.67"/>
</g>
<!-- Node11 -->
<g id="node11" class="node">
<title>Node11</title>
<g id="a_node11"><a xlink:href="_init_connect_event_receiver_8h.html" target="_top" xlink:title=" ">
<polygon fill="white" stroke="black" points="0,-112.5 0,-142.5 155,-142.5 155,-112.5 0,-112.5"/>
<text text-anchor="start" x="8" y="-130.5" font-family="Helvetica,sans-Serif" font-size="10.00">core/eventreceiver</text>
<text text-anchor="middle" x="77.5" y="-119.5" font-family="Helvetica,sans-Serif" font-size="10.00">/InitConnectEventReceiver.h</text>
</a>
</g>
</g>
<!-- Node6&#45;&gt;Node11 -->
<g id="edge10" class="edge">
<title>Node6&#45;&gt;Node11</title>
<path fill="none" stroke="midnightblue" d="M82.33,-246.43C75.41,-236.79 67.17,-223.37 63.5,-210 58.26,-190.92 62.72,-168.77 67.95,-152.37"/>
<polygon fill="midnightblue" stroke="midnightblue" points="71.4,-153.12 71.41,-142.53 64.8,-150.8 71.4,-153.12"/>
</g>
<!-- Node8 -->
<g id="node8" class="node">
<title>Node8</title>
<g id="a_node8"><a xlink:href="_descriptor_event_receiver_8h.html" target="_top" xlink:title=" ">
<polygon fill="white" stroke="black" points="190.5,-118 190.5,-137 360.5,-137 360.5,-118 190.5,-118"/>
<text text-anchor="middle" x="275.5" y="-125" font-family="Helvetica,sans-Serif" font-size="10.00">core/DescriptorEventReceiver.h</text>
</a>
</g>
</g>
<!-- Node7&#45;&gt;Node8 -->
<g id="edge7" class="edge">
<title>Node7&#45;&gt;Node8</title>
<path fill="none" stroke="midnightblue" d="M171.36,-179.4C194.39,-168.14 226.39,-152.5 248.82,-141.54"/>
<polygon fill="midnightblue" stroke="midnightblue" points="250.65,-144.54 258.09,-137.01 247.57,-138.25 250.65,-144.54"/>
</g>
<!-- Node9 -->
<g id="node9" class="node">
<title>Node9</title>
<g id="a_node9"><a xlink:href="_event_receiver_8h.html" target="_top" xlink:title=" ">
<polygon fill="white" stroke="black" points="107.5,-56.5 107.5,-75.5 227.5,-75.5 227.5,-56.5 107.5,-56.5"/>
<text text-anchor="middle" x="167.5" y="-63.5" font-family="Helvetica,sans-Serif" font-size="10.00">core/EventReceiver.h</text>
</a>
</g>
</g>
<!-- Node8&#45;&gt;Node9 -->
<g id="edge8" class="edge">
<title>Node8&#45;&gt;Node9</title>
<path fill="none" stroke="midnightblue" d="M260.03,-117.98C242.22,-108.17 212.76,-91.93 191.87,-80.42"/>
<polygon fill="midnightblue" stroke="midnightblue" points="193.39,-77.27 182.95,-75.51 190.01,-83.4 193.39,-77.27"/>
</g>
<!-- Node10 -->
<g id="node10" class="node">
<title>Node10</title>
<g id="a_node10"><a xlink:href="_event_8h.html" target="_top" xlink:title=" ">
<polygon fill="white" stroke="black" points="141,-0.5 141,-19.5 194,-19.5 194,-0.5 141,-0.5"/>
<text text-anchor="middle" x="167.5" y="-7.5" font-family="Helvetica,sans-Serif" font-size="10.00">Event.h</text>
</a>
</g>
</g>
<!-- Node9&#45;&gt;Node10 -->
<g id="edge9" class="edge">
<title>Node9&#45;&gt;Node10</title>
<path fill="none" stroke="midnightblue" d="M167.5,-56.08C167.5,-49.01 167.5,-38.86 167.5,-29.99"/>
<polygon fill="midnightblue" stroke="midnightblue" points="171,-29.75 167.5,-19.75 164,-29.75 171,-29.75"/>
</g>
<!-- Node11&#45;&gt;Node9 -->
<g id="edge11" class="edge">
<title>Node11&#45;&gt;Node9</title>
<path fill="none" stroke="midnightblue" d="M98.83,-112.4C112.99,-103.04 131.51,-90.79 145.75,-81.38"/>
<polygon fill="midnightblue" stroke="midnightblue" points="147.99,-84.09 154.4,-75.66 144.13,-78.25 147.99,-84.09"/>
</g>
<!-- Node13 -->
<g id="node13" class="node">
<title>Node13</title>
<g id="a_node13"><a xlink:href="stream_2_socket_connection_8h.html" target="_top" xlink:title=" ">
<polygon fill="white" stroke="black" points="317.5,-313.5 317.5,-343.5 433.5,-343.5 433.5,-313.5 317.5,-313.5"/>
<text text-anchor="start" x="325.5" y="-331.5" font-family="Helvetica,sans-Serif" font-size="10.00">core/socket/stream</text>
<text text-anchor="middle" x="375.5" y="-320.5" font-family="Helvetica,sans-Serif" font-size="10.00">/SocketConnection.h</text>
</a>
</g>
</g>
<!-- Node12&#45;&gt;Node13 -->
<g id="edge13" class="edge">
<title>Node12&#45;&gt;Node13</title>
<path fill="none" stroke="midnightblue" d="M375.5,-380.4C375.5,-372.64 375.5,-362.81 375.5,-353.86"/>
<polygon fill="midnightblue" stroke="midnightblue" points="379,-353.58 375.5,-343.58 372,-353.58 379,-353.58"/>
</g>
<!-- Node15 -->
<g id="node15" class="node">
<title>Node15</title>
<g id="a_node15"><a xlink:href="legacy_2_socket_reader_8h.html" target="_top" xlink:title=" ">
<polygon fill="white" stroke="black" points="452,-313.5 452,-343.5 583,-343.5 583,-313.5 452,-313.5"/>
<text text-anchor="start" x="460" y="-331.5" font-family="Helvetica,sans-Serif" font-size="10.00">core/socket/stream</text>
<text text-anchor="middle" x="517.5" y="-320.5" font-family="Helvetica,sans-Serif" font-size="10.00">/legacy/SocketReader.h</text>
</a>
</g>
</g>
<!-- Node12&#45;&gt;Node15 -->
<g id="edge15" class="edge">
<title>Node12&#45;&gt;Node15</title>
<path fill="none" stroke="midnightblue" d="M406.31,-380.4C427.15,-370.86 454.88,-358.16 477.43,-347.84"/>
<polygon fill="midnightblue" stroke="midnightblue" points="479.11,-350.92 486.75,-343.58 476.2,-344.56 479.11,-350.92"/>
</g>
<!-- Node18 -->
<g id="node18" class="node">
<title>Node18</title>
<g id="a_node18"><a xlink:href="legacy_2_socket_writer_8h.html" target="_top" xlink:title=" ">
<polygon fill="white" stroke="black" points="163.5,-313.5 163.5,-343.5 289.5,-343.5 289.5,-313.5 163.5,-313.5"/>
<text text-anchor="start" x="171.5" y="-331.5" font-family="Helvetica,sans-Serif" font-size="10.00">core/socket/stream</text>
<text text-anchor="middle" x="226.5" y="-320.5" font-family="Helvetica,sans-Serif" font-size="10.00">/legacy/SocketWriter.h</text>
</a>
</g>
</g>
<!-- Node12&#45;&gt;Node18 -->
<g id="edge19" class="edge">
<title>Node12&#45;&gt;Node18</title>
<path fill="none" stroke="midnightblue" d="M343.17,-380.4C321.2,-370.81 291.94,-358.05 268.22,-347.7"/>
<polygon fill="midnightblue" stroke="midnightblue" points="269.33,-344.37 258.77,-343.58 266.53,-350.78 269.33,-344.37"/>
</g>
<!-- Node14 -->
<g id="node14" class="node">
<title>Node14</title>
<g id="a_node14"><a xlink:href="_socket_connection_8h.html" target="_top" xlink:title=" ">
<polygon fill="white" stroke="black" points="295,-252 295,-271 466,-271 466,-252 295,-252"/>
<text text-anchor="middle" x="380.5" y="-259" font-family="Helvetica,sans-Serif" font-size="10.00">core/socket/SocketConnection.h</text>
</a>
</g>
</g>
<!-- Node13&#45;&gt;Node14 -->
<g id="edge14" class="edge">
<title>Node13&#45;&gt;Node14</title>
<path fill="none" stroke="midnightblue" d="M376.58,-313.4C377.31,-303.96 378.27,-291.45 379.06,-281.19"/>
<polygon fill="midnightblue" stroke="midnightblue" points="382.55,-281.43 379.83,-271.19 375.57,-280.9 382.55,-281.43"/>
</g>
<!-- Node16 -->
<g id="node16" class="node">
<title>Node16</title>
<g id="a_node16"><a xlink:href="_socket_reader_8h.html" target="_top" xlink:title=" ">
<polygon fill="white" stroke="black" points="484.5,-246.5 484.5,-276.5 594.5,-276.5 594.5,-246.5 484.5,-246.5"/>
<text text-anchor="start" x="492.5" y="-264.5" font-family="Helvetica,sans-Serif" font-size="10.00">core/socket/stream</text>
<text text-anchor="middle" x="539.5" y="-253.5" font-family="Helvetica,sans-Serif" font-size="10.00">/SocketReader.h</text>
</a>
</g>
</g>
<!-- Node15&#45;&gt;Node16 -->
<g id="edge16" class="edge">
<title>Node15&#45;&gt;Node16</title>
<path fill="none" stroke="midnightblue" d="M522.27,-313.4C524.95,-305.47 528.37,-295.38 531.45,-286.27"/>
<polygon fill="midnightblue" stroke="midnightblue" points="534.84,-287.17 534.74,-276.58 528.21,-284.93 534.84,-287.17"/>
</g>
<!-- Node17 -->
<g id="node17" class="node">
<title>Node17</title>
<g id="a_node17"><a xlink:href="_read_event_receiver_8h.html" target="_top" xlink:title=" ">
<polygon fill="white" stroke="black" points="425.5,-179.5 425.5,-209.5 549.5,-209.5 549.5,-179.5 425.5,-179.5"/>
<text text-anchor="start" x="433.5" y="-197.5" font-family="Helvetica,sans-Serif" font-size="10.00">core/eventreceiver</text>
<text text-anchor="middle" x="487.5" y="-186.5" font-family="Helvetica,sans-Serif" font-size="10.00">/ReadEventReceiver.h</text>
</a>
</g>
</g>
<!-- Node16&#45;&gt;Node17 -->
<g id="edge17" class="edge">
<title>Node16&#45;&gt;Node17</title>
<path fill="none" stroke="midnightblue" d="M528.22,-246.4C521.47,-237.96 512.75,-227.07 505.12,-217.52"/>
<polygon fill="midnightblue" stroke="midnightblue" points="507.74,-215.2 498.76,-209.58 502.28,-219.57 507.74,-215.2"/>
</g>
<!-- Node17&#45;&gt;Node8 -->
<g id="edge18" class="edge">
<title>Node17&#45;&gt;Node8</title>
<path fill="none" stroke="midnightblue" d="M441.76,-179.48C403.26,-167.67 348.89,-151 312.94,-139.98"/>
<polygon fill="midnightblue" stroke="midnightblue" points="313.9,-136.61 303.32,-137.03 311.85,-143.31 313.9,-136.61"/>
</g>
<!-- Node19 -->
<g id="node19" class="node">
<title>Node19</title>
<g id="a_node19"><a xlink:href="_socket_writer_8h.html" target="_top" xlink:title=" ">
<polygon fill="white" stroke="black" points="166.5,-246.5 166.5,-276.5 276.5,-276.5 276.5,-246.5 166.5,-246.5"/>
<text text-anchor="start" x="174.5" y="-264.5" font-family="Helvetica,sans-Serif" font-size="10.00">core/socket/stream</text>
<text text-anchor="middle" x="221.5" y="-253.5" font-family="Helvetica,sans-Serif" font-size="10.00">/SocketWriter.h</text>
</a>
</g>
</g>
<!-- Node18&#45;&gt;Node19 -->
<g id="edge20" class="edge">
<title>Node18&#45;&gt;Node19</title>
<path fill="none" stroke="midnightblue" d="M225.42,-313.4C224.81,-305.56 224.05,-295.6 223.35,-286.57"/>
<polygon fill="midnightblue" stroke="midnightblue" points="226.84,-286.28 222.58,-276.58 219.86,-286.82 226.84,-286.28"/>
</g>
<!-- Node20 -->
<g id="node20" class="node">
<title>Node20</title>
<g id="a_node20"><a xlink:href="_write_event_receiver_8h.html" target="_top" xlink:title=" ">
<polygon fill="white" stroke="black" points="230,-179.5 230,-209.5 355,-209.5 355,-179.5 230,-179.5"/>
<text text-anchor="start" x="238" y="-197.5" font-family="Helvetica,sans-Serif" font-size="10.00">core/eventreceiver</text>
<text text-anchor="middle" x="292.5" y="-186.5" font-family="Helvetica,sans-Serif" font-size="10.00">/WriteEventReceiver.h</text>
</a>
</g>
</g>
<!-- Node19&#45;&gt;Node20 -->
<g id="edge21" class="edge">
<title>Node19&#45;&gt;Node20</title>
<path fill="none" stroke="midnightblue" d="M236.91,-246.4C246.49,-237.62 258.99,-226.18 269.7,-216.37"/>
<polygon fill="midnightblue" stroke="midnightblue" points="272.11,-218.91 277.12,-209.58 267.38,-213.75 272.11,-218.91"/>
</g>
<!-- Node20&#45;&gt;Node8 -->
<g id="edge22" class="edge">
<title>Node20&#45;&gt;Node8</title>
<path fill="none" stroke="midnightblue" d="M288.81,-179.4C286.34,-169.96 283.07,-157.45 280.39,-147.19"/>
<polygon fill="midnightblue" stroke="midnightblue" points="283.69,-145.98 277.77,-137.19 276.92,-147.75 283.69,-145.98"/>
</g>
<!-- Node22 -->
<g id="node22" class="node">
<title>Node22</title>
<g id="a_node22"><a xlink:href="core_2socket_2_client_socket_8h.html" target="_top" xlink:title=" ">
<polygon fill="white" stroke="black" points="511,-453 511,-472 656,-472 656,-453 511,-453"/>
<text text-anchor="middle" x="583.5" y="-460" font-family="Helvetica,sans-Serif" font-size="10.00">core/socket/ClientSocket.h</text>
</a>
</g>
</g>
<!-- Node21&#45;&gt;Node22 -->
<g id="edge24" class="edge">
<title>Node21&#45;&gt;Node22</title>
<path fill="none" stroke="midnightblue" d="M711.85,-519.87C686.41,-508.7 641.9,-489.15 612.55,-476.26"/>
<polygon fill="midnightblue" stroke="midnightblue" points="613.8,-472.98 603.23,-472.17 610.98,-479.39 613.8,-472.98"/>
</g>
<!-- Node23 -->
<g id="node23" class="node">
<title>Node23</title>
<g id="a_node23"><a xlink:href="net_2rf_2stream_2_socket_8h.html" target="_top" xlink:title=" ">
<polygon fill="white" stroke="black" points="674,-453 674,-472 799,-472 799,-453 674,-453"/>
<text text-anchor="middle" x="736.5" y="-460" font-family="Helvetica,sans-Serif" font-size="10.00">net/rf/stream/Socket.h</text>
</a>
</g>
</g>
<!-- Node21&#45;&gt;Node23 -->
<g id="edge25" class="edge">
<title>Node21&#45;&gt;Node23</title>
<path fill="none" stroke="midnightblue" d="M732.17,-519.73C732.91,-510.18 734.11,-494.62 735.06,-482.28"/>
<polygon fill="midnightblue" stroke="midnightblue" points="738.56,-482.37 735.84,-472.13 731.58,-481.83 738.56,-482.37"/>
</g>
<!-- Node24 -->
<g id="node24" class="node">
<title>Node24</title>
<g id="a_node24"><a xlink:href="core_2socket_2_socket_8h.html" target="_top" xlink:title=" ">
<polygon fill="white" stroke="black" points="604.5,-386 604.5,-405 720.5,-405 720.5,-386 604.5,-386"/>
<text text-anchor="middle" x="662.5" y="-393" font-family="Helvetica,sans-Serif" font-size="10.00">core/socket/Socket.h</text>
</a>
</g>
</g>
<!-- Node23&#45;&gt;Node24 -->
<g id="edge26" class="edge">
<title>Node23&#45;&gt;Node24</title>
<path fill="none" stroke="midnightblue" d="M726.52,-452.73C714.65,-442.31 694.61,-424.71 680.12,-411.97"/>
<polygon fill="midnightblue" stroke="midnightblue" points="682.14,-409.1 672.32,-405.13 677.53,-414.36 682.14,-409.1"/>
</g>
<!-- Node26 -->
<g id="node26" class="node">
<title>Node26</title>
<g id="a_node26"><a xlink:href="net_2rf_2_socket_address_8h.html" target="_top" xlink:title=" ">
<polygon fill="white" stroke="black" points="719.5,-319 719.5,-338 845.5,-338 845.5,-319 719.5,-319"/>
<text text-anchor="middle" x="782.5" y="-326" font-family="Helvetica,sans-Serif" font-size="10.00">net/rf/SocketAddress.h</text>
</a>
</g>
</g>
<!-- Node23&#45;&gt;Node26 -->
<g id="edge28" class="edge">
<title>Node23&#45;&gt;Node26</title>
<path fill="none" stroke="midnightblue" d="M739.52,-452.84C746.93,-431.58 766.13,-376.46 776.17,-347.65"/>
<polygon fill="midnightblue" stroke="midnightblue" points="779.54,-348.62 779.53,-338.02 772.93,-346.31 779.54,-348.62"/>
</g>
<!-- Node25 -->
<g id="node25" class="node">
<title>Node25</title>
<g id="a_node25"><a xlink:href="_descriptor_8h.html" target="_top" xlink:title=" ">
<polygon fill="white" stroke="black" points="601.5,-319 601.5,-338 701.5,-338 701.5,-319 601.5,-319"/>
<text text-anchor="middle" x="651.5" y="-326" font-family="Helvetica,sans-Serif" font-size="10.00">core/Descriptor.h</text>
</a>
</g>
</g>
<!-- Node24&#45;&gt;Node25 -->
<g id="edge27" class="edge">
<title>Node24&#45;&gt;Node25</title>
<path fill="none" stroke="midnightblue" d="M661.02,-385.73C659.4,-376.18 656.77,-360.62 654.68,-348.28"/>
<polygon fill="midnightblue" stroke="midnightblue" points="658.08,-347.4 652.96,-338.13 651.18,-348.57 658.08,-347.4"/>
</g>
<!-- Node27 -->
<g id="node27" class="node">
<title>Node27</title>
<g id="a_node27"><a xlink:href="core_2socket_2_socket_address_8h.html" target="_top" xlink:title=" ">
<polygon fill="white" stroke="black" points="705,-252 705,-271 860,-271 860,-252 705,-252"/>
<text text-anchor="middle" x="782.5" y="-259" font-family="Helvetica,sans-Serif" font-size="10.00">core/socket/SocketAddress.h</text>
</a>
</g>
</g>
<!-- Node26&#45;&gt;Node27 -->
<g id="edge29" class="edge">
<title>Node26&#45;&gt;Node27</title>
<path fill="none" stroke="midnightblue" d="M782.5,-318.73C782.5,-309.18 782.5,-293.62 782.5,-281.28"/>
<polygon fill="midnightblue" stroke="midnightblue" points="786,-281.13 782.5,-271.13 779,-281.13 786,-281.13"/>
</g>
<!-- Node29 -->
<g id="node29" class="node">
<title>Node29</title>
<g id="a_node29"><a xlink:href="_config_legacy_8h.html" target="_top" xlink:title=" ">
<polygon fill="white" stroke="black" points="827.5,-453 827.5,-472 969.5,-472 969.5,-453 827.5,-453"/>
<text text-anchor="middle" x="898.5" y="-460" font-family="Helvetica,sans-Serif" font-size="10.00">net/config/ConfigLegacy.h</text>
</a>
</g>
</g>
<!-- Node28&#45;&gt;Node29 -->
<g id="edge31" class="edge">
<title>Node28&#45;&gt;Node29</title>
<path fill="none" stroke="midnightblue" d="M902.42,-514.4C901.69,-504.96 900.73,-492.45 899.94,-482.19"/>
<polygon fill="midnightblue" stroke="midnightblue" points="903.43,-481.9 899.17,-472.19 896.45,-482.43 903.43,-481.9"/>
</g>
<!-- Node31 -->
<g id="node31" class="node">
<title>Node31</title>
<g id="a_node31"><a xlink:href="rf_2stream_2config_2_config_client_socket_8h.html" target="_top" xlink:title=" ">
<polygon fill="white" stroke="black" points="1099,-447.5 1099,-477.5 1220,-477.5 1220,-447.5 1099,-447.5"/>
<text text-anchor="start" x="1107" y="-465.5" font-family="Helvetica,sans-Serif" font-size="10.00">net/rf/stream/config</text>
<text text-anchor="middle" x="1159.5" y="-454.5" font-family="Helvetica,sans-Serif" font-size="10.00">/ConfigClientSocket.h</text>
</a>
</g>
</g>
<!-- Node28&#45;&gt;Node31 -->
<g id="edge33" class="edge">
<title>Node28&#45;&gt;Node31</title>
<path fill="none" stroke="midnightblue" d="M958.73,-514.48C998.47,-504.39 1052.21,-490.74 1094.09,-480.11"/>
<polygon fill="midnightblue" stroke="midnightblue" points="1095.09,-483.46 1103.92,-477.61 1093.37,-476.68 1095.09,-483.46"/>
</g>
<!-- Node30 -->
<g id="node30" class="node">
<title>Node30</title>
<g id="a_node30"><a xlink:href="_config_base_8h.html" target="_top" xlink:title=" ">
<polygon fill="white" stroke="black" points="1093,-252 1093,-271 1226,-271 1226,-252 1093,-252"/>
<text text-anchor="middle" x="1159.5" y="-259" font-family="Helvetica,sans-Serif" font-size="10.00">net/config/ConfigBase.h</text>
</a>
</g>
</g>
<!-- Node29&#45;&gt;Node30 -->
<g id="edge32" class="edge">
<title>Node29&#45;&gt;Node30</title>
<path fill="none" stroke="midnightblue" d="M894.67,-452.79C888.32,-436.89 877.69,-402.69 892.5,-380 934.53,-315.58 1020.66,-286.24 1083.78,-273.03"/>
<polygon fill="midnightblue" stroke="midnightblue" points="1084.58,-276.44 1093.7,-271.05 1083.21,-269.58 1084.58,-276.44"/>
</g>
<!-- Node32 -->
<g id="node32" class="node">
<title>Node32</title>
<g id="a_node32"><a xlink:href="_config_address_local_8h.html" target="_top" xlink:title=" ">
<polygon fill="white" stroke="black" points="1417,-380.5 1417,-410.5 1556,-410.5 1556,-380.5 1417,-380.5"/>
<text text-anchor="start" x="1425" y="-398.5" font-family="Helvetica,sans-Serif" font-size="10.00">net/config/ConfigAddress</text>
<text text-anchor="middle" x="1486.5" y="-387.5" font-family="Helvetica,sans-Serif" font-size="10.00">Local.h</text>
</a>
</g>
</g>
<!-- Node31&#45;&gt;Node32 -->
<g id="edge34" class="edge">
<title>Node31&#45;&gt;Node32</title>
<path fill="none" stroke="midnightblue" d="M1220.24,-449.43C1272.77,-438.98 1349.11,-423.81 1406.59,-412.38"/>
<polygon fill="midnightblue" stroke="midnightblue" points="1407.6,-415.75 1416.73,-410.37 1406.24,-408.89 1407.6,-415.75"/>
</g>
<!-- Node34 -->
<g id="node34" class="node">
<title>Node34</title>
<g id="a_node34"><a xlink:href="_config_address_remote_8h.html" target="_top" xlink:title=" ">
<polygon fill="white" stroke="black" points="1260,-380.5 1260,-410.5 1399,-410.5 1399,-380.5 1260,-380.5"/>
<text text-anchor="start" x="1268" y="-398.5" font-family="Helvetica,sans-Serif" font-size="10.00">net/config/ConfigAddress</text>
<text text-anchor="middle" x="1329.5" y="-387.5" font-family="Helvetica,sans-Serif" font-size="10.00">Remote.h</text>
</a>
</g>
</g>
<!-- Node31&#45;&gt;Node34 -->
<g id="edge37" class="edge">
<title>Node31&#45;&gt;Node34</title>
<path fill="none" stroke="midnightblue" d="M1196.39,-447.4C1221.89,-437.64 1256.02,-424.59 1283.33,-414.15"/>
<polygon fill="midnightblue" stroke="midnightblue" points="1284.59,-417.42 1292.68,-410.58 1282.09,-410.88 1284.59,-417.42"/>
</g>
<!-- Node35 -->
<g id="node35" class="node">
<title>Node35</title>
<g id="a_node35"><a xlink:href="_config_connection_8h.html" target="_top" xlink:title=" ">
<polygon fill="white" stroke="black" points="1077.5,-386 1077.5,-405 1241.5,-405 1241.5,-386 1077.5,-386"/>
<text text-anchor="middle" x="1159.5" y="-393" font-family="Helvetica,sans-Serif" font-size="10.00">net/config/ConfigConnection.h</text>
</a>
</g>
</g>
<!-- Node31&#45;&gt;Node35 -->
<g id="edge39" class="edge">
<title>Node31&#45;&gt;Node35</title>
<path fill="none" stroke="midnightblue" d="M1159.5,-447.4C1159.5,-438.06 1159.5,-425.71 1159.5,-415.52"/>
<polygon fill="midnightblue" stroke="midnightblue" points="1163,-415.19 1159.5,-405.19 1156,-415.19 1163,-415.19"/>
</g>
<!-- Node36 -->
<g id="node36" class="node">
<title>Node36</title>
<g id="a_node36"><a xlink:href="rf_2config_2_config_address_8h.html" target="_top" xlink:title=" ">
<polygon fill="white" stroke="black" points="901.5,-386 901.5,-405 1059.5,-405 1059.5,-386 901.5,-386"/>
<text text-anchor="middle" x="980.5" y="-393" font-family="Helvetica,sans-Serif" font-size="10.00">net/rf/config/ConfigAddress.h</text>
</a>
</g>
</g>
<!-- Node31&#45;&gt;Node36 -->
<g id="edge41" class="edge">
<title>Node31&#45;&gt;Node36</title>
<path fill="none" stroke="midnightblue" d="M1120.66,-447.4C1088.7,-435.79 1043.88,-419.51 1013.6,-408.52"/>
<polygon fill="midnightblue" stroke="midnightblue" points="1014.52,-405.13 1003.93,-405.01 1012.13,-411.71 1014.52,-405.13"/>
</g>
<!-- Node33 -->
<g id="node33" class="node">
<title>Node33</title>
<g id="a_node33"><a xlink:href="config_2_config_address_8h.html" target="_top" xlink:title=" ">
<polygon fill="white" stroke="black" points="1255.5,-319 1255.5,-338 1403.5,-338 1403.5,-319 1255.5,-319"/>
<text text-anchor="middle" x="1329.5" y="-326" font-family="Helvetica,sans-Serif" font-size="10.00">net/config/ConfigAddress.h</text>
</a>
</g>
</g>
<!-- Node32&#45;&gt;Node33 -->
<g id="edge35" class="edge">
<title>Node32&#45;&gt;Node33</title>
<path fill="none" stroke="midnightblue" d="M1452.43,-380.4C1424.76,-368.94 1386.11,-352.94 1359.58,-341.95"/>
<polygon fill="midnightblue" stroke="midnightblue" points="1360.63,-338.6 1350.05,-338.01 1357.95,-345.07 1360.63,-338.6"/>
</g>
<!-- Node33&#45;&gt;Node30 -->
<g id="edge36" class="edge">
<title>Node33&#45;&gt;Node30</title>
<path fill="none" stroke="midnightblue" d="M1306.93,-318.87C1277.25,-307.52 1224.95,-287.52 1191.28,-274.65"/>
<polygon fill="midnightblue" stroke="midnightblue" points="1192.49,-271.37 1181.9,-271.06 1189.99,-277.9 1192.49,-271.37"/>
</g>
<!-- Node34&#45;&gt;Node33 -->
<g id="edge38" class="edge">
<title>Node34&#45;&gt;Node33</title>
<path fill="none" stroke="midnightblue" d="M1329.5,-380.4C1329.5,-371.06 1329.5,-358.71 1329.5,-348.52"/>
<polygon fill="midnightblue" stroke="midnightblue" points="1333,-348.19 1329.5,-338.19 1326,-348.19 1333,-348.19"/>
</g>
<!-- Node35&#45;&gt;Node30 -->
<g id="edge40" class="edge">
<title>Node35&#45;&gt;Node30</title>
<path fill="none" stroke="midnightblue" d="M1159.5,-385.84C1159.5,-364.67 1159.5,-309.95 1159.5,-281.03"/>
<polygon fill="midnightblue" stroke="midnightblue" points="1163,-281.02 1159.5,-271.02 1156,-281.02 1163,-281.02"/>
</g>
<!-- Node36&#45;&gt;Node26 -->
<g id="edge42" class="edge">
<title>Node36&#45;&gt;Node26</title>
<path fill="none" stroke="midnightblue" d="M954.21,-385.87C919.27,-374.4 857.42,-354.09 818.26,-341.24"/>
<polygon fill="midnightblue" stroke="midnightblue" points="819.18,-337.86 808.59,-338.06 817,-344.51 819.18,-337.86"/>
</g>
<!-- Node38 -->
<g id="node38" class="node">
<title>Node38</title>
<g id="a_node38"><a xlink:href="web_2http_2client_2_socket_context_factory_8h.html" target="_top" xlink:title=" ">
<polygon fill="white" stroke="black" points="1555,-514.5 1555,-544.5 1718,-544.5 1718,-514.5 1555,-514.5"/>
<text text-anchor="start" x="1563" y="-532.5" font-family="Helvetica,sans-Serif" font-size="10.00">web/http/client/SocketContext</text>
<text text-anchor="middle" x="1636.5" y="-521.5" font-family="Helvetica,sans-Serif" font-size="10.00">Factory.h</text>
</a>
</g>
</g>
<!-- Node37&#45;&gt;Node38 -->
<g id="edge44" class="edge">
<title>Node37&#45;&gt;Node38</title>
<path fill="none" stroke="midnightblue" d="M1337.83,-586.94C1392.14,-576.67 1484.28,-559.26 1551.89,-546.49"/>
<polygon fill="midnightblue" stroke="midnightblue" points="1552.92,-549.86 1562.09,-544.56 1551.62,-542.98 1552.92,-549.86"/>
</g>
<!-- Node39 -->
<g id="node39" class="node">
<title>Node39</title>
<g id="a_node39"><a xlink:href="web_2http_2_socket_context_factory_8h.html" target="_top" xlink:title=" ">
<polygon fill="white" stroke="black" points="1548.5,-453 1548.5,-472 1724.5,-472 1724.5,-453 1548.5,-453"/>
<text text-anchor="middle" x="1636.5" y="-460" font-family="Helvetica,sans-Serif" font-size="10.00">web/http/SocketContextFactory.h</text>
</a>
</g>
</g>
<!-- Node38&#45;&gt;Node39 -->
<g id="edge45" class="edge">
<title>Node38&#45;&gt;Node39</title>
<path fill="none" stroke="midnightblue" d="M1636.5,-514.4C1636.5,-505.06 1636.5,-492.71 1636.5,-482.52"/>
<polygon fill="midnightblue" stroke="midnightblue" points="1640,-482.19 1636.5,-472.19 1633,-482.19 1640,-482.19"/>
</g>
<!-- Node41 -->
<g id="node41" class="node">
<title>Node41</title>
<g id="a_node41"><a xlink:href="client_2_socket_context_8hpp.html" target="_top" xlink:title=" ">
<polygon fill="white" stroke="black" points="1742.5,-453 1742.5,-472 1926.5,-472 1926.5,-453 1742.5,-453"/>
<text text-anchor="middle" x="1834.5" y="-460" font-family="Helvetica,sans-Serif" font-size="10.00">web/http/client/SocketContext.hpp</text>
</a>
</g>
</g>
<!-- Node38&#45;&gt;Node41 -->
<g id="edge47" class="edge">
<title>Node38&#45;&gt;Node41</title>
<path fill="none" stroke="midnightblue" d="M1679.46,-514.4C1715.13,-502.69 1765.26,-486.23 1798.76,-475.23"/>
<polygon fill="midnightblue" stroke="midnightblue" points="1800.18,-478.45 1808.59,-472.01 1797.99,-471.8 1800.18,-478.45"/>
</g>
<!-- Node40 -->
<g id="node40" class="node">
<title>Node40</title>
<g id="a_node40"><a xlink:href="core_2socket_2_socket_context_factory_8h.html" target="_top" xlink:title=" ">
<polygon fill="white" stroke="black" points="1574.5,-380.5 1574.5,-410.5 1720.5,-410.5 1720.5,-380.5 1574.5,-380.5"/>
<text text-anchor="start" x="1582.5" y="-398.5" font-family="Helvetica,sans-Serif" font-size="10.00">core/socket/SocketContext</text>
<text text-anchor="middle" x="1647.5" y="-387.5" font-family="Helvetica,sans-Serif" font-size="10.00">Factory.h</text>
</a>
</g>
</g>
<!-- Node39&#45;&gt;Node40 -->
<g id="edge46" class="edge">
<title>Node39&#45;&gt;Node40</title>
<path fill="none" stroke="midnightblue" d="M1637.98,-452.73C1639.37,-444.54 1641.51,-431.92 1643.4,-420.71"/>
<polygon fill="midnightblue" stroke="midnightblue" points="1646.9,-421.03 1645.12,-410.59 1640,-419.86 1646.9,-421.03"/>
</g>
<!-- Node42 -->
<g id="node42" class="node">
<title>Node42</title>
<g id="a_node42"><a xlink:href="web_2http_2client_2_socket_context_8h.html" target="_top" xlink:title=" ">
<polygon fill="white" stroke="black" points="1748.5,-386 1748.5,-405 1920.5,-405 1920.5,-386 1748.5,-386"/>
<text text-anchor="middle" x="1834.5" y="-393" font-family="Helvetica,sans-Serif" font-size="10.00">web/http/client/SocketContext.h</text>
</a>
</g>
</g>
<!-- Node41&#45;&gt;Node42 -->
<g id="edge48" class="edge">
<title>Node41&#45;&gt;Node42</title>
<path fill="none" stroke="midnightblue" d="M1834.5,-452.73C1834.5,-443.18 1834.5,-427.62 1834.5,-415.28"/>
<polygon fill="midnightblue" stroke="midnightblue" points="1838,-415.13 1834.5,-405.13 1831,-415.13 1838,-415.13"/>
</g>
<!-- Node43 -->
<g id="node43" class="node">
<title>Node43</title>
<g id="a_node43"><a xlink:href="web_2http_2_socket_context_8h.html" target="_top" xlink:title=" ">
<polygon fill="white" stroke="black" points="1844.5,-319 1844.5,-338 1986.5,-338 1986.5,-319 1844.5,-319"/>
<text text-anchor="middle" x="1915.5" y="-326" font-family="Helvetica,sans-Serif" font-size="10.00">web/http/SocketContext.h</text>
</a>
</g>
</g>
<!-- Node42&#45;&gt;Node43 -->
<g id="edge49" class="edge">
<title>Node42&#45;&gt;Node43</title>
<path fill="none" stroke="midnightblue" d="M1845.42,-385.73C1858.54,-375.21 1880.76,-357.38 1896.66,-344.62"/>
<polygon fill="midnightblue" stroke="midnightblue" points="1899.14,-347.12 1904.75,-338.13 1894.76,-341.66 1899.14,-347.12"/>
</g>
<!-- Node45 -->
<g id="node45" class="node">
<title>Node45</title>
<g id="a_node45"><a xlink:href="_response_parser_8h.html" target="_top" xlink:title=" ">
<polygon fill="white" stroke="black" points="1682.5,-313.5 1682.5,-343.5 1822.5,-343.5 1822.5,-313.5 1682.5,-313.5"/>
<text text-anchor="start" x="1690.5" y="-331.5" font-family="Helvetica,sans-Serif" font-size="10.00">web/http/client/Response</text>
<text text-anchor="middle" x="1752.5" y="-320.5" font-family="Helvetica,sans-Serif" font-size="10.00">Parser.h</text>
</a>
</g>
</g>
<!-- Node42&#45;&gt;Node45 -->
<g id="edge51" class="edge">
<title>Node42&#45;&gt;Node45</title>
<path fill="none" stroke="midnightblue" d="M1823.44,-385.73C1811.93,-376.61 1793.5,-362 1778.31,-349.96"/>
<polygon fill="midnightblue" stroke="midnightblue" points="1780.28,-347.06 1770.27,-343.59 1775.94,-352.54 1780.28,-347.06"/>
</g>
<!-- Node44 -->
<g id="node44" class="node">
<title>Node44</title>
<g id="a_node44"><a xlink:href="core_2socket_2_socket_context_8h.html" target="_top" xlink:title=" ">
<polygon fill="white" stroke="black" points="1842,-252 1842,-271 1997,-271 1997,-252 1842,-252"/>
<text text-anchor="middle" x="1919.5" y="-259" font-family="Helvetica,sans-Serif" font-size="10.00">core/socket/SocketContext.h</text>
</a>
</g>
</g>
<!-- Node43&#45;&gt;Node44 -->
<g id="edge50" class="edge">
<title>Node43&#45;&gt;Node44</title>
<path fill="none" stroke="midnightblue" d="M1916.04,-318.73C1916.63,-309.18 1917.59,-293.62 1918.34,-281.28"/>
<polygon fill="midnightblue" stroke="midnightblue" points="1921.85,-281.32 1918.97,-271.13 1914.86,-280.89 1921.85,-281.32"/>
</g>
<!-- Node46 -->
<g id="node46" class="node">
<title>Node46</title>
<g id="a_node46"><a xlink:href="_cookie_options_8h.html" target="_top" xlink:title=" ">
<polygon fill="white" stroke="black" points="1681,-252 1681,-271 1824,-271 1824,-252 1681,-252"/>
<text text-anchor="middle" x="1752.5" y="-259" font-family="Helvetica,sans-Serif" font-size="10.00">web/http/CookieOptions.h</text>
</a>
</g>
</g>
<!-- Node45&#45;&gt;Node46 -->
<g id="edge52" class="edge">
<title>Node45&#45;&gt;Node46</title>
<path fill="none" stroke="midnightblue" d="M1752.5,-313.4C1752.5,-304.06 1752.5,-291.71 1752.5,-281.52"/>
<polygon fill="midnightblue" stroke="midnightblue" points="1756,-281.19 1752.5,-271.19 1749,-281.19 1756,-281.19"/>
</g>
<!-- Node47 -->
<g id="node47" class="node">
<title>Node47</title>
<g id="a_node47"><a xlink:href="_parser_8h.html" target="_top" xlink:title=" ">
<polygon fill="white" stroke="black" points="1560.5,-252 1560.5,-271 1662.5,-271 1662.5,-252 1560.5,-252"/>
<text text-anchor="middle" x="1611.5" y="-259" font-family="Helvetica,sans-Serif" font-size="10.00">web/http/Parser.h</text>
</a>
</g>
</g>
<!-- Node45&#45;&gt;Node47 -->
<g id="edge53" class="edge">
<title>Node45&#45;&gt;Node47</title>
<path fill="none" stroke="midnightblue" d="M1721.91,-313.4C1697.27,-302.04 1662.95,-286.22 1639.14,-275.24"/>
<polygon fill="midnightblue" stroke="midnightblue" points="1640.5,-272.02 1629.95,-271.01 1637.57,-278.37 1640.5,-272.02"/>
</g>
</g>
</svg>
