<?xml version="1.0" encoding="UTF-8" standalone="no"?>
<!DOCTYPE svg PUBLIC "-//W3C//DTD SVG 1.1//EN"
 "http://www.w3.org/Graphics/SVG/1.1/DTD/svg11.dtd">
<!-- Generated by graphviz version 2.43.0 (0)
 -->
<!-- Title: web/http/legacy/rf/Server.h Pages: 1 -->
<svg width="1470pt" height="553pt"
 viewBox="0.00 0.00 1469.50 553.00" xmlns="http://www.w3.org/2000/svg" xmlns:xlink="http://www.w3.org/1999/xlink">
<g id="graph0" class="graph" transform="scale(1 1) rotate(0) translate(4 549)">
<title>web/http/legacy/rf/Server.h</title>
<polygon fill="white" stroke="transparent" points="-4,4 -4,-549 1465.5,-549 1465.5,4 -4,4"/>
<!-- Node1 -->
<g id="node1" class="node">
<title>Node1</title>
<g id="a_node1"><a xlink:title=" ">
<polygon fill="#bfbfbf" stroke="black" points="697,-514.5 697,-544.5 802,-544.5 802,-514.5 697,-514.5"/>
<text text-anchor="start" x="705" y="-532.5" font-family="Helvetica,sans-Serif" font-size="10.00">web/http/legacy/rf</text>
<text text-anchor="middle" x="749.5" y="-521.5" font-family="Helvetica,sans-Serif" font-size="10.00">/Server.h</text>
</a>
</g>
</g>
<!-- Node2 -->
<g id="node2" class="node">
<title>Node2</title>
<g id="a_node2"><a xlink:href="net_2rf_2stream_2legacy_2_socket_server_8h.html" target="_top" xlink:title=" ">
<polygon fill="white" stroke="black" points="619.5,-447.5 619.5,-477.5 735.5,-477.5 735.5,-447.5 619.5,-447.5"/>
<text text-anchor="start" x="627.5" y="-465.5" font-family="Helvetica,sans-Serif" font-size="10.00">net/rf/stream/legacy</text>
<text text-anchor="middle" x="677.5" y="-454.5" font-family="Helvetica,sans-Serif" font-size="10.00">/SocketServer.h</text>
</a>
</g>
</g>
<!-- Node1&#45;&gt;Node2 -->
<g id="edge1" class="edge">
<title>Node1&#45;&gt;Node2</title>
<path fill="none" stroke="midnightblue" d="M733.88,-514.4C724.16,-505.62 711.49,-494.18 700.62,-484.37"/>
<polygon fill="midnightblue" stroke="midnightblue" points="702.86,-481.68 693.09,-477.58 698.17,-486.88 702.86,-481.68"/>
</g>
<!-- Node27 -->
<g id="node27" class="node">
<title>Node27</title>
<g id="a_node27"><a xlink:href="server_2_server_8h.html" target="_top" xlink:title=" ">
<polygon fill="white" stroke="black" points="935,-453 935,-472 1072,-472 1072,-453 935,-453"/>
<text text-anchor="middle" x="1003.5" y="-460" font-family="Helvetica,sans-Serif" font-size="10.00">web/http/server/Server.h</text>
</a>
</g>
</g>
<!-- Node1&#45;&gt;Node27 -->
<g id="edge28" class="edge">
<title>Node1&#45;&gt;Node27</title>
<path fill="none" stroke="midnightblue" d="M802.13,-515.03C848.91,-503.06 916.47,-485.77 960.19,-474.58"/>
<polygon fill="midnightblue" stroke="midnightblue" points="961.13,-477.96 969.95,-472.09 959.39,-471.17 961.13,-477.96"/>
</g>
<!-- Node3 -->
<g id="node3" class="node">
<title>Node3</title>
<g id="a_node3"><a xlink:href="core_2socket_2stream_2legacy_2_socket_server_8h.html" target="_top" xlink:title=" ">
<polygon fill="white" stroke="black" points="327.5,-380.5 327.5,-410.5 455.5,-410.5 455.5,-380.5 327.5,-380.5"/>
<text text-anchor="start" x="335.5" y="-398.5" font-family="Helvetica,sans-Serif" font-size="10.00">core/socket/stream</text>
<text text-anchor="middle" x="391.5" y="-387.5" font-family="Helvetica,sans-Serif" font-size="10.00">/legacy/SocketServer.h</text>
</a>
</g>
</g>
<!-- Node2&#45;&gt;Node3 -->
<g id="edge2" class="edge">
<title>Node2&#45;&gt;Node3</title>
<path fill="none" stroke="midnightblue" d="M619.28,-448.27C574.05,-437.99 511.11,-423.69 462.86,-412.72"/>
<polygon fill="midnightblue" stroke="midnightblue" points="463.63,-409.3 453.1,-410.5 462.08,-416.13 463.63,-409.3"/>
</g>
<!-- Node20 -->
<g id="node20" class="node">
<title>Node20</title>
<g id="a_node20"><a xlink:href="net_2rf_2stream_2_server_socket_8h.html" target="_top" xlink:title=" ">
<polygon fill="white" stroke="black" points="599.5,-386 599.5,-405 755.5,-405 755.5,-386 599.5,-386"/>
<text text-anchor="middle" x="677.5" y="-393" font-family="Helvetica,sans-Serif" font-size="10.00">net/rf/stream/ServerSocket.h</text>
</a>
</g>
</g>
<!-- Node2&#45;&gt;Node20 -->
<g id="edge21" class="edge">
<title>Node2&#45;&gt;Node20</title>
<path fill="none" stroke="midnightblue" d="M677.5,-447.4C677.5,-438.06 677.5,-425.71 677.5,-415.52"/>
<polygon fill="midnightblue" stroke="midnightblue" points="681,-415.19 677.5,-405.19 674,-415.19 681,-415.19"/>
</g>
<!-- Node4 -->
<g id="node4" class="node">
<title>Node4</title>
<g id="a_node4"><a xlink:href="core_2socket_2stream_2_socket_server_8h.html" target="_top" xlink:title=" ">
<polygon fill="white" stroke="black" points="193.5,-313.5 193.5,-343.5 303.5,-343.5 303.5,-313.5 193.5,-313.5"/>
<text text-anchor="start" x="201.5" y="-331.5" font-family="Helvetica,sans-Serif" font-size="10.00">core/socket/stream</text>
<text text-anchor="middle" x="248.5" y="-320.5" font-family="Helvetica,sans-Serif" font-size="10.00">/SocketServer.h</text>
</a>
</g>
</g>
<!-- Node3&#45;&gt;Node4 -->
<g id="edge3" class="edge">
<title>Node3&#45;&gt;Node4</title>
<path fill="none" stroke="midnightblue" d="M360.47,-380.4C339.48,-370.86 311.56,-358.16 288.85,-347.84"/>
<polygon fill="midnightblue" stroke="midnightblue" points="290.02,-344.53 279.47,-343.58 287.12,-350.9 290.02,-344.53"/>
</g>
<!-- Node5 -->
<g id="node5" class="node">
<title>Node5</title>
<g id="a_node5"><a xlink:href="legacy_2_socket_acceptor_8h.html" target="_top" xlink:title=" ">
<polygon fill="white" stroke="black" points="322,-313.5 322,-343.5 461,-343.5 461,-313.5 322,-313.5"/>
<text text-anchor="start" x="330" y="-331.5" font-family="Helvetica,sans-Serif" font-size="10.00">core/socket/stream</text>
<text text-anchor="middle" x="391.5" y="-320.5" font-family="Helvetica,sans-Serif" font-size="10.00">/legacy/SocketAcceptor.h</text>
</a>
</g>
</g>
<!-- Node3&#45;&gt;Node5 -->
<g id="edge4" class="edge">
<title>Node3&#45;&gt;Node5</title>
<path fill="none" stroke="midnightblue" d="M391.5,-380.4C391.5,-372.64 391.5,-362.81 391.5,-353.86"/>
<polygon fill="midnightblue" stroke="midnightblue" points="395,-353.58 391.5,-343.58 388,-353.58 395,-353.58"/>
</g>
<!-- Node6 -->
<g id="node6" class="node">
<title>Node6</title>
<g id="a_node6"><a xlink:href="_socket_acceptor_8h.html" target="_top" xlink:title=" ">
<polygon fill="white" stroke="black" points="143.5,-246.5 143.5,-276.5 253.5,-276.5 253.5,-246.5 143.5,-246.5"/>
<text text-anchor="start" x="151.5" y="-264.5" font-family="Helvetica,sans-Serif" font-size="10.00">core/socket/stream</text>
<text text-anchor="middle" x="198.5" y="-253.5" font-family="Helvetica,sans-Serif" font-size="10.00">/SocketAcceptor.h</text>
</a>
</g>
</g>
<!-- Node5&#45;&gt;Node6 -->
<g id="edge5" class="edge">
<title>Node5&#45;&gt;Node6</title>
<path fill="none" stroke="midnightblue" d="M349.62,-313.4C320.41,-303.56 281.24,-290.37 250.1,-279.88"/>
<polygon fill="midnightblue" stroke="midnightblue" points="250.89,-276.45 240.3,-276.58 248.66,-283.09 250.89,-276.45"/>
</g>
<!-- Node9 -->
<g id="node9" class="node">
<title>Node9</title>
<g id="a_node9"><a xlink:href="stream_2legacy_2_socket_connection_8h.html" target="_top" xlink:title=" ">
<polygon fill="white" stroke="black" points="316,-246.5 316,-276.5 467,-276.5 467,-246.5 316,-246.5"/>
<text text-anchor="start" x="324" y="-264.5" font-family="Helvetica,sans-Serif" font-size="10.00">core/socket/stream</text>
<text text-anchor="middle" x="391.5" y="-253.5" font-family="Helvetica,sans-Serif" font-size="10.00">/legacy/SocketConnection.h</text>
</a>
</g>
</g>
<!-- Node5&#45;&gt;Node9 -->
<g id="edge8" class="edge">
<title>Node5&#45;&gt;Node9</title>
<path fill="none" stroke="midnightblue" d="M391.5,-313.4C391.5,-305.64 391.5,-295.81 391.5,-286.86"/>
<polygon fill="midnightblue" stroke="midnightblue" points="395,-286.58 391.5,-276.58 388,-286.58 395,-286.58"/>
</g>
<!-- Node7 -->
<g id="node7" class="node">
<title>Node7</title>
<g id="a_node7"><a xlink:href="_accept_event_receiver_8h.html" target="_top" xlink:title=" ">
<polygon fill="white" stroke="black" points="0,-56.5 0,-75.5 153,-75.5 153,-56.5 0,-56.5"/>
<text text-anchor="middle" x="76.5" y="-63.5" font-family="Helvetica,sans-Serif" font-size="10.00">core/AcceptEventReceiver.h</text>
</a>
</g>
</g>
<!-- Node6&#45;&gt;Node7 -->
<g id="edge6" class="edge">
<title>Node6&#45;&gt;Node7</title>
<path fill="none" stroke="midnightblue" d="M189.53,-246.27C167.61,-211.5 111.36,-122.3 87.49,-84.42"/>
<polygon fill="midnightblue" stroke="midnightblue" points="90.2,-82.17 81.91,-75.58 84.28,-85.9 90.2,-82.17"/>
</g>
<!-- Node8 -->
<g id="node8" class="node">
<title>Node8</title>
<g id="a_node8"><a xlink:href="_event_receiver_8h.html" target="_top" xlink:title=" ">
<polygon fill="white" stroke="black" points="184.5,-0.5 184.5,-19.5 304.5,-19.5 304.5,-0.5 184.5,-0.5"/>
<text text-anchor="middle" x="244.5" y="-7.5" font-family="Helvetica,sans-Serif" font-size="10.00">core/EventReceiver.h</text>
</a>
</g>
</g>
<!-- Node7&#45;&gt;Node8 -->
<g id="edge7" class="edge">
<title>Node7&#45;&gt;Node8</title>
<path fill="none" stroke="midnightblue" d="M103.12,-56.44C131.51,-47.32 176.64,-32.81 208.25,-22.65"/>
<polygon fill="midnightblue" stroke="midnightblue" points="209.56,-25.91 218,-19.52 207.41,-19.24 209.56,-25.91"/>
</g>
<!-- Node10 -->
<g id="node10" class="node">
<title>Node10</title>
<g id="a_node10"><a xlink:href="stream_2_socket_connection_8h.html" target="_top" xlink:title=" ">
<polygon fill="white" stroke="black" points="475.5,-179.5 475.5,-209.5 591.5,-209.5 591.5,-179.5 475.5,-179.5"/>
<text text-anchor="start" x="483.5" y="-197.5" font-family="Helvetica,sans-Serif" font-size="10.00">core/socket/stream</text>
<text text-anchor="middle" x="533.5" y="-186.5" font-family="Helvetica,sans-Serif" font-size="10.00">/SocketConnection.h</text>
</a>
</g>
</g>
<!-- Node9&#45;&gt;Node10 -->
<g id="edge9" class="edge">
<title>Node9&#45;&gt;Node10</title>
<path fill="none" stroke="midnightblue" d="M422.31,-246.4C443.15,-236.86 470.88,-224.16 493.43,-213.84"/>
<polygon fill="midnightblue" stroke="midnightblue" points="495.11,-216.92 502.75,-209.58 492.2,-210.56 495.11,-216.92"/>
</g>
<!-- Node14 -->
<g id="node14" class="node">
<title>Node14</title>
<g id="a_node14"><a xlink:href="legacy_2_socket_reader_8h.html" target="_top" xlink:title=" ">
<polygon fill="white" stroke="black" points="326,-179.5 326,-209.5 457,-209.5 457,-179.5 326,-179.5"/>
<text text-anchor="start" x="334" y="-197.5" font-family="Helvetica,sans-Serif" font-size="10.00">core/socket/stream</text>
<text text-anchor="middle" x="391.5" y="-186.5" font-family="Helvetica,sans-Serif" font-size="10.00">/legacy/SocketReader.h</text>
</a>
</g>
</g>
<!-- Node9&#45;&gt;Node14 -->
<g id="edge13" class="edge">
<title>Node9&#45;&gt;Node14</title>
<path fill="none" stroke="midnightblue" d="M391.5,-246.4C391.5,-238.64 391.5,-228.81 391.5,-219.86"/>
<polygon fill="midnightblue" stroke="midnightblue" points="395,-219.58 391.5,-209.58 388,-219.58 395,-219.58"/>
</g>
<!-- Node17 -->
<g id="node17" class="node">
<title>Node17</title>
<g id="a_node17"><a xlink:href="legacy_2_socket_writer_8h.html" target="_top" xlink:title=" ">
<polygon fill="white" stroke="black" points="181.5,-179.5 181.5,-209.5 307.5,-209.5 307.5,-179.5 181.5,-179.5"/>
<text text-anchor="start" x="189.5" y="-197.5" font-family="Helvetica,sans-Serif" font-size="10.00">core/socket/stream</text>
<text text-anchor="middle" x="244.5" y="-186.5" font-family="Helvetica,sans-Serif" font-size="10.00">/legacy/SocketWriter.h</text>
</a>
</g>
</g>
<!-- Node9&#45;&gt;Node17 -->
<g id="edge17" class="edge">
<title>Node9&#45;&gt;Node17</title>
<path fill="none" stroke="midnightblue" d="M359.6,-246.4C337.93,-236.81 309.07,-224.05 285.66,-213.7"/>
<polygon fill="midnightblue" stroke="midnightblue" points="286.9,-210.42 276.33,-209.58 284.06,-216.82 286.9,-210.42"/>
</g>
<!-- Node11 -->
<g id="node11" class="node">
<title>Node11</title>
<g id="a_node11"><a xlink:href="_socket_connection_8h.html" target="_top" xlink:title=" ">
<polygon fill="white" stroke="black" points="465,-118 465,-137 636,-137 636,-118 465,-118"/>
<text text-anchor="middle" x="550.5" y="-125" font-family="Helvetica,sans-Serif" font-size="10.00">core/socket/SocketConnection.h</text>
</a>
</g>
</g>
<!-- Node10&#45;&gt;Node11 -->
<g id="edge10" class="edge">
<title>Node10&#45;&gt;Node11</title>
<path fill="none" stroke="midnightblue" d="M537.19,-179.4C539.66,-169.96 542.93,-157.45 545.61,-147.19"/>
<polygon fill="midnightblue" stroke="midnightblue" points="549.08,-147.75 548.23,-137.19 542.31,-145.98 549.08,-147.75"/>
</g>
<!-- Node12 -->
<g id="node12" class="node">
<title>Node12</title>
<g id="a_node12"><a xlink:href="core_2socket_2_socket_context_8h.html" target="_top" xlink:title=" ">
<polygon fill="white" stroke="black" points="775,-118 775,-137 930,-137 930,-118 775,-118"/>
<text text-anchor="middle" x="852.5" y="-125" font-family="Helvetica,sans-Serif" font-size="10.00">core/socket/SocketContext.h</text>
</a>
</g>
</g>
<!-- Node10&#45;&gt;Node12 -->
<g id="edge11" class="edge">
<title>Node10&#45;&gt;Node12</title>
<path fill="none" stroke="midnightblue" d="M591.59,-180.87C594.6,-180.23 597.59,-179.61 600.5,-179 668.89,-164.75 747.88,-149.04 798.93,-138.99"/>
<polygon fill="midnightblue" stroke="midnightblue" points="799.62,-142.42 808.75,-137.05 798.27,-135.55 799.62,-142.42"/>
</g>
<!-- Node13 -->
<g id="node13" class="node">
<title>Node13</title>
<g id="a_node13"><a xlink:href="core_2socket_2_socket_context_factory_8h.html" target="_top" xlink:title=" ">
<polygon fill="white" stroke="black" points="1268.5,-112.5 1268.5,-142.5 1414.5,-142.5 1414.5,-112.5 1268.5,-112.5"/>
<text text-anchor="start" x="1276.5" y="-130.5" font-family="Helvetica,sans-Serif" font-size="10.00">core/socket/SocketContext</text>
<text text-anchor="middle" x="1341.5" y="-119.5" font-family="Helvetica,sans-Serif" font-size="10.00">Factory.h</text>
</a>
</g>
</g>
<!-- Node10&#45;&gt;Node13 -->
<g id="edge12" class="edge">
<title>Node10&#45;&gt;Node13</title>
<path fill="none" stroke="midnightblue" d="M591.51,-180.37C594.54,-179.87 597.55,-179.4 600.5,-179 869.13,-142.22 939.32,-165.81 1209.5,-143 1225.29,-141.67 1242.12,-140 1258.29,-138.29"/>
<polygon fill="midnightblue" stroke="midnightblue" points="1258.69,-141.76 1268.25,-137.21 1257.93,-134.8 1258.69,-141.76"/>
</g>
<!-- Node15 -->
<g id="node15" class="node">
<title>Node15</title>
<g id="a_node15"><a xlink:href="_socket_reader_8h.html" target="_top" xlink:title=" ">
<polygon fill="white" stroke="black" points="336.5,-112.5 336.5,-142.5 446.5,-142.5 446.5,-112.5 336.5,-112.5"/>
<text text-anchor="start" x="344.5" y="-130.5" font-family="Helvetica,sans-Serif" font-size="10.00">core/socket/stream</text>
<text text-anchor="middle" x="391.5" y="-119.5" font-family="Helvetica,sans-Serif" font-size="10.00">/SocketReader.h</text>
</a>
</g>
</g>
<!-- Node14&#45;&gt;Node15 -->
<g id="edge14" class="edge">
<title>Node14&#45;&gt;Node15</title>
<path fill="none" stroke="midnightblue" d="M391.5,-179.4C391.5,-171.64 391.5,-161.81 391.5,-152.86"/>
<polygon fill="midnightblue" stroke="midnightblue" points="395,-152.58 391.5,-142.58 388,-152.58 395,-152.58"/>
</g>
<!-- Node16 -->
<g id="node16" class="node">
<title>Node16</title>
<g id="a_node16"><a xlink:href="_read_event_receiver_8h.html" target="_top" xlink:title=" ">
<polygon fill="white" stroke="black" points="336,-56.5 336,-75.5 481,-75.5 481,-56.5 336,-56.5"/>
<text text-anchor="middle" x="408.5" y="-63.5" font-family="Helvetica,sans-Serif" font-size="10.00">core/ReadEventReceiver.h</text>
</a>
</g>
</g>
<!-- Node15&#45;&gt;Node16 -->
<g id="edge15" class="edge">
<title>Node15&#45;&gt;Node16</title>
<path fill="none" stroke="midnightblue" d="M395.53,-112.4C397.85,-104.29 400.78,-94.01 403.28,-85.28"/>
<polygon fill="midnightblue" stroke="midnightblue" points="406.64,-86.23 406.03,-75.66 399.91,-84.31 406.64,-86.23"/>
</g>
<!-- Node16&#45;&gt;Node8 -->
<g id="edge16" class="edge">
<title>Node16&#45;&gt;Node8</title>
<path fill="none" stroke="midnightblue" d="M382.51,-56.44C354.8,-47.32 310.75,-32.81 279.88,-22.65"/>
<polygon fill="midnightblue" stroke="midnightblue" points="280.96,-19.32 270.36,-19.52 278.77,-25.97 280.96,-19.32"/>
</g>
<!-- Node18 -->
<g id="node18" class="node">
<title>Node18</title>
<g id="a_node18"><a xlink:href="_socket_writer_8h.html" target="_top" xlink:title=" ">
<polygon fill="white" stroke="black" points="189.5,-112.5 189.5,-142.5 299.5,-142.5 299.5,-112.5 189.5,-112.5"/>
<text text-anchor="start" x="197.5" y="-130.5" font-family="Helvetica,sans-Serif" font-size="10.00">core/socket/stream</text>
<text text-anchor="middle" x="244.5" y="-119.5" font-family="Helvetica,sans-Serif" font-size="10.00">/SocketWriter.h</text>
</a>
</g>
</g>
<!-- Node17&#45;&gt;Node18 -->
<g id="edge18" class="edge">
<title>Node17&#45;&gt;Node18</title>
<path fill="none" stroke="midnightblue" d="M244.5,-179.4C244.5,-171.64 244.5,-161.81 244.5,-152.86"/>
<polygon fill="midnightblue" stroke="midnightblue" points="248,-152.58 244.5,-142.58 241,-152.58 248,-152.58"/>
</g>
<!-- Node19 -->
<g id="node19" class="node">
<title>Node19</title>
<g id="a_node19"><a xlink:href="_write_event_receiver_8h.html" target="_top" xlink:title=" ">
<polygon fill="white" stroke="black" points="171.5,-56.5 171.5,-75.5 317.5,-75.5 317.5,-56.5 171.5,-56.5"/>
<text text-anchor="middle" x="244.5" y="-63.5" font-family="Helvetica,sans-Serif" font-size="10.00">core/WriteEventReceiver.h</text>
</a>
</g>
</g>
<!-- Node18&#45;&gt;Node19 -->
<g id="edge19" class="edge">
<title>Node18&#45;&gt;Node19</title>
<path fill="none" stroke="midnightblue" d="M244.5,-112.4C244.5,-104.47 244.5,-94.46 244.5,-85.86"/>
<polygon fill="midnightblue" stroke="midnightblue" points="248,-85.66 244.5,-75.66 241,-85.66 248,-85.66"/>
</g>
<!-- Node19&#45;&gt;Node8 -->
<g id="edge20" class="edge">
<title>Node19&#45;&gt;Node8</title>
<path fill="none" stroke="midnightblue" d="M244.5,-56.08C244.5,-49.01 244.5,-38.86 244.5,-29.99"/>
<polygon fill="midnightblue" stroke="midnightblue" points="248,-29.75 244.5,-19.75 241,-29.75 248,-29.75"/>
</g>
<!-- Node21 -->
<g id="node21" class="node">
<title>Node21</title>
<g id="a_node21"><a xlink:href="core_2socket_2_server_socket_8h.html" target="_top" xlink:title=" ">
<polygon fill="white" stroke="black" points="526.5,-319 526.5,-338 674.5,-338 674.5,-319 526.5,-319"/>
<text text-anchor="middle" x="600.5" y="-326" font-family="Helvetica,sans-Serif" font-size="10.00">core/socket/ServerSocket.h</text>
</a>
</g>
</g>
<!-- Node20&#45;&gt;Node21 -->
<g id="edge22" class="edge">
<title>Node20&#45;&gt;Node21</title>
<path fill="none" stroke="midnightblue" d="M667.12,-385.73C654.65,-375.21 633.53,-357.38 618.41,-344.62"/>
<polygon fill="midnightblue" stroke="midnightblue" points="620.62,-341.9 610.72,-338.13 616.1,-347.25 620.62,-341.9"/>
</g>
<!-- Node22 -->
<g id="node22" class="node">
<title>Node22</title>
<g id="a_node22"><a xlink:href="net_2rf_2stream_2_socket_8h.html" target="_top" xlink:title=" ">
<polygon fill="white" stroke="black" points="693,-319 693,-338 818,-338 818,-319 693,-319"/>
<text text-anchor="middle" x="755.5" y="-326" font-family="Helvetica,sans-Serif" font-size="10.00">net/rf/stream/Socket.h</text>
</a>
</g>
</g>
<!-- Node20&#45;&gt;Node22 -->
<g id="edge23" class="edge">
<title>Node20&#45;&gt;Node22</title>
<path fill="none" stroke="midnightblue" d="M688.02,-385.73C700.65,-375.21 722.04,-357.38 737.36,-344.62"/>
<polygon fill="midnightblue" stroke="midnightblue" points="739.71,-347.22 745.15,-338.13 735.22,-341.84 739.71,-347.22"/>
</g>
<!-- Node23 -->
<g id="node23" class="node">
<title>Node23</title>
<g id="a_node23"><a xlink:href="core_2socket_2_socket_8h.html" target="_top" xlink:title=" ">
<polygon fill="white" stroke="black" points="602.5,-252 602.5,-271 718.5,-271 718.5,-252 602.5,-252"/>
<text text-anchor="middle" x="660.5" y="-259" font-family="Helvetica,sans-Serif" font-size="10.00">core/socket/Socket.h</text>
</a>
</g>
</g>
<!-- Node22&#45;&gt;Node23 -->
<g id="edge24" class="edge">
<title>Node22&#45;&gt;Node23</title>
<path fill="none" stroke="midnightblue" d="M742.69,-318.73C727.02,-308.01 700.28,-289.72 681.57,-276.91"/>
<polygon fill="midnightblue" stroke="midnightblue" points="683.34,-273.89 673.11,-271.13 679.39,-279.66 683.34,-273.89"/>
</g>
<!-- Node25 -->
<g id="node25" class="node">
<title>Node25</title>
<g id="a_node25"><a xlink:href="net_2rf_2_socket_address_8h.html" target="_top" xlink:title=" ">
<polygon fill="white" stroke="black" points="738.5,-252 738.5,-271 864.5,-271 864.5,-252 738.5,-252"/>
<text text-anchor="middle" x="801.5" y="-259" font-family="Helvetica,sans-Serif" font-size="10.00">net/rf/SocketAddress.h</text>
</a>
</g>
</g>
<!-- Node22&#45;&gt;Node25 -->
<g id="edge26" class="edge">
<title>Node22&#45;&gt;Node25</title>
<path fill="none" stroke="midnightblue" d="M761.7,-318.73C768.81,-308.7 780.61,-292.01 789.52,-279.42"/>
<polygon fill="midnightblue" stroke="midnightblue" points="792.47,-281.31 795.39,-271.13 786.76,-277.27 792.47,-281.31"/>
</g>
<!-- Node24 -->
<g id="node24" class="node">
<title>Node24</title>
<g id="a_node24"><a xlink:href="_descriptor_8h.html" target="_top" xlink:title=" ">
<polygon fill="white" stroke="black" points="609.5,-185 609.5,-204 709.5,-204 709.5,-185 609.5,-185"/>
<text text-anchor="middle" x="659.5" y="-192" font-family="Helvetica,sans-Serif" font-size="10.00">core/Descriptor.h</text>
</a>
</g>
</g>
<!-- Node23&#45;&gt;Node24 -->
<g id="edge25" class="edge">
<title>Node23&#45;&gt;Node24</title>
<path fill="none" stroke="midnightblue" d="M660.37,-251.73C660.22,-242.18 659.98,-226.62 659.79,-214.28"/>
<polygon fill="midnightblue" stroke="midnightblue" points="663.29,-214.07 659.63,-204.13 656.29,-214.18 663.29,-214.07"/>
</g>
<!-- Node26 -->
<g id="node26" class="node">
<title>Node26</title>
<g id="a_node26"><a xlink:href="core_2socket_2_socket_address_8h.html" target="_top" xlink:title=" ">
<polygon fill="white" stroke="black" points="728,-185 728,-204 883,-204 883,-185 728,-185"/>
<text text-anchor="middle" x="805.5" y="-192" font-family="Helvetica,sans-Serif" font-size="10.00">core/socket/SocketAddress.h</text>
</a>
</g>
</g>
<!-- Node25&#45;&gt;Node26 -->
<g id="edge27" class="edge">
<title>Node25&#45;&gt;Node26</title>
<path fill="none" stroke="midnightblue" d="M802.04,-251.73C802.63,-242.18 803.59,-226.62 804.34,-214.28"/>
<polygon fill="midnightblue" stroke="midnightblue" points="807.85,-214.32 804.97,-204.13 800.86,-213.89 807.85,-214.32"/>
</g>
<!-- Node28 -->
<g id="node28" class="node">
<title>Node28</title>
<g id="a_node28"><a xlink:href="web_2http_2server_2_socket_context_factory_8h.html" target="_top" xlink:title=" ">
<polygon fill="white" stroke="black" points="1070,-380.5 1070,-410.5 1237,-410.5 1237,-380.5 1070,-380.5"/>
<text text-anchor="start" x="1078" y="-398.5" font-family="Helvetica,sans-Serif" font-size="10.00">web/http/server/SocketContext</text>
<text text-anchor="middle" x="1153.5" y="-387.5" font-family="Helvetica,sans-Serif" font-size="10.00">Factory.h</text>
</a>
</g>
</g>
<!-- Node27&#45;&gt;Node28 -->
<g id="edge29" class="edge">
<title>Node27&#45;&gt;Node28</title>
<path fill="none" stroke="midnightblue" d="M1023.42,-452.87C1045.83,-443.16 1082.86,-427.11 1111.7,-414.61"/>
<polygon fill="midnightblue" stroke="midnightblue" points="1113.34,-417.72 1121.13,-410.53 1110.56,-411.29 1113.34,-417.72"/>
</g>
<!-- Node29 -->
<g id="node29" class="node">
<title>Node29</title>
<g id="a_node29"><a xlink:href="web_2http_2_socket_context_factory_8h.html" target="_top" xlink:title=" ">
<polygon fill="white" stroke="black" points="1285.5,-319 1285.5,-338 1461.5,-338 1461.5,-319 1285.5,-319"/>
<text text-anchor="middle" x="1373.5" y="-326" font-family="Helvetica,sans-Serif" font-size="10.00">web/http/SocketContextFactory.h</text>
</a>
</g>
</g>
<!-- Node28&#45;&gt;Node29 -->
<g id="edge30" class="edge">
<title>Node28&#45;&gt;Node29</title>
<path fill="none" stroke="midnightblue" d="M1200.97,-380.48C1240.92,-368.67 1297.34,-352 1334.65,-340.98"/>
<polygon fill="midnightblue" stroke="midnightblue" points="1336.04,-344.22 1344.63,-338.03 1334.05,-337.51 1336.04,-344.22"/>
</g>
<!-- Node30 -->
<g id="node30" class="node">
<title>Node30</title>
<g id="a_node30"><a xlink:href="server_2_socket_context_8hpp.html" target="_top" xlink:title=" ">
<polygon fill="white" stroke="black" points="1059.5,-319 1059.5,-338 1247.5,-338 1247.5,-319 1059.5,-319"/>
<text text-anchor="middle" x="1153.5" y="-326" font-family="Helvetica,sans-Serif" font-size="10.00">web/http/server/SocketContext.hpp</text>
</a>
</g>
</g>
<!-- Node28&#45;&gt;Node30 -->
<g id="edge32" class="edge">
<title>Node28&#45;&gt;Node30</title>
<path fill="none" stroke="midnightblue" d="M1153.5,-380.4C1153.5,-371.06 1153.5,-358.71 1153.5,-348.52"/>
<polygon fill="midnightblue" stroke="midnightblue" points="1157,-348.19 1153.5,-338.19 1150,-348.19 1157,-348.19"/>
</g>
<!-- Node29&#45;&gt;Node13 -->
<g id="edge31" class="edge">
<title>Node29&#45;&gt;Node13</title>
<path fill="none" stroke="midnightblue" d="M1373.72,-318.92C1373.97,-308.88 1374.35,-291.73 1374.5,-277 1374.64,-263.22 1376.38,-259.65 1374.5,-246 1369.92,-212.72 1358.35,-175.6 1350.21,-152.15"/>
<polygon fill="midnightblue" stroke="midnightblue" points="1353.5,-150.95 1346.86,-142.7 1346.91,-153.3 1353.5,-150.95"/>
</g>
<!-- Node31 -->
<g id="node31" class="node">
<title>Node31</title>
<g id="a_node31"><a xlink:href="_connection_state_8h.html" target="_top" xlink:title=" ">
<polygon fill="white" stroke="black" points="1077.5,-252 1077.5,-271 1229.5,-271 1229.5,-252 1077.5,-252"/>
<text text-anchor="middle" x="1153.5" y="-259" font-family="Helvetica,sans-Serif" font-size="10.00">web/http/ConnectionState.h</text>
</a>
</g>
</g>
<!-- Node30&#45;&gt;Node31 -->
<g id="edge33" class="edge">
<title>Node30&#45;&gt;Node31</title>
<path fill="none" stroke="midnightblue" d="M1153.5,-318.73C1153.5,-309.18 1153.5,-293.62 1153.5,-281.28"/>
<polygon fill="midnightblue" stroke="midnightblue" points="1157,-281.13 1153.5,-271.13 1150,-281.13 1157,-281.13"/>
</g>
<!-- Node32 -->
<g id="node32" class="node">
<title>Node32</title>
<g id="a_node32"><a xlink:href="http__utils_8h.html" target="_top" xlink:title=" ">
<polygon fill="white" stroke="black" points="1248,-252 1248,-271 1365,-271 1365,-252 1248,-252"/>
<text text-anchor="middle" x="1306.5" y="-259" font-family="Helvetica,sans-Serif" font-size="10.00">web/http/http_utils.h</text>
</a>
</g>
</g>
<!-- Node30&#45;&gt;Node32 -->
<g id="edge34" class="edge">
<title>Node30&#45;&gt;Node32</title>
<path fill="none" stroke="midnightblue" d="M1173.82,-318.87C1200.22,-307.65 1246.53,-287.98 1276.86,-275.09"/>
<polygon fill="midnightblue" stroke="midnightblue" points="1278.26,-278.3 1286.1,-271.17 1275.53,-271.86 1278.26,-278.3"/>
</g>
<!-- Node33 -->
<g id="node33" class="node">
<title>Node33</title>
<g id="a_node33"><a xlink:href="web_2http_2server_2_socket_context_8h.html" target="_top" xlink:title=" ">
<polygon fill="white" stroke="black" points="883.5,-252 883.5,-271 1059.5,-271 1059.5,-252 883.5,-252"/>
<text text-anchor="middle" x="971.5" y="-259" font-family="Helvetica,sans-Serif" font-size="10.00">web/http/server/SocketContext.h</text>
</a>
</g>
</g>
<!-- Node30&#45;&gt;Node33 -->
<g id="edge35" class="edge">
<title>Node30&#45;&gt;Node33</title>
<path fill="none" stroke="midnightblue" d="M1129.33,-318.87C1097.42,-307.47 1041.09,-287.35 1005.06,-274.49"/>
<polygon fill="midnightblue" stroke="midnightblue" points="1006.07,-271.13 995.48,-271.06 1003.72,-277.72 1006.07,-271.13"/>
</g>
<!-- Node34 -->
<g id="node34" class="node">
<title>Node34</title>
<g id="a_node34"><a xlink:href="web_2http_2_socket_context_8h.html" target="_top" xlink:title=" ">
<polygon fill="white" stroke="black" points="901.5,-185 901.5,-204 1043.5,-204 1043.5,-185 901.5,-185"/>
<text text-anchor="middle" x="972.5" y="-192" font-family="Helvetica,sans-Serif" font-size="10.00">web/http/SocketContext.h</text>
</a>
</g>
</g>
<!-- Node33&#45;&gt;Node34 -->
<g id="edge36" class="edge">
<title>Node33&#45;&gt;Node34</title>
<path fill="none" stroke="midnightblue" d="M971.63,-251.73C971.78,-242.18 972.02,-226.62 972.21,-214.28"/>
<polygon fill="midnightblue" stroke="midnightblue" points="975.71,-214.18 972.37,-204.13 968.71,-214.07 975.71,-214.18"/>
</g>
<!-- Node35 -->
<g id="node35" class="node">
<title>Node35</title>
<g id="a_node35"><a xlink:href="_request_parser_8h.html" target="_top" xlink:title=" ">
<polygon fill="white" stroke="black" points="1061.5,-185 1061.5,-204 1237.5,-204 1237.5,-185 1061.5,-185"/>
<text text-anchor="middle" x="1149.5" y="-192" font-family="Helvetica,sans-Serif" font-size="10.00">web/http/server/RequestParser.h</text>
</a>
</g>
</g>
<!-- Node33&#45;&gt;Node35 -->
<g id="edge38" class="edge">
<title>Node33&#45;&gt;Node35</title>
<path fill="none" stroke="midnightblue" d="M995.14,-251.87C1026.21,-240.52 1080.97,-220.52 1116.22,-207.65"/>
<polygon fill="midnightblue" stroke="midnightblue" points="1117.86,-210.78 1126.05,-204.06 1115.45,-204.21 1117.86,-210.78"/>
</g>
<!-- Node34&#45;&gt;Node12 -->
<g id="edge37" class="edge">
<title>Node34&#45;&gt;Node12</title>
<path fill="none" stroke="midnightblue" d="M956.32,-184.73C936.07,-173.77 901.2,-154.88 877.51,-142.05"/>
<polygon fill="midnightblue" stroke="midnightblue" points="878.89,-138.81 868.43,-137.13 875.55,-144.97 878.89,-138.81"/>
</g>
<!-- Node36 -->
<g id="node36" class="node">
<title>Node36</title>
<g id="a_node36"><a xlink:href="_parser_8h.html" target="_top" xlink:title=" ">
<polygon fill="white" stroke="black" points="1098.5,-118 1098.5,-137 1200.5,-137 1200.5,-118 1098.5,-118"/>
<text text-anchor="middle" x="1149.5" y="-125" font-family="Helvetica,sans-Serif" font-size="10.00">web/http/Parser.h</text>
</a>
</g>
</g>
<!-- Node35&#45;&gt;Node36 -->
<g id="edge39" class="edge">
<title>Node35&#45;&gt;Node36</title>
<path fill="none" stroke="midnightblue" d="M1149.5,-184.73C1149.5,-175.18 1149.5,-159.62 1149.5,-147.28"/>
<polygon fill="midnightblue" stroke="midnightblue" points="1153,-147.13 1149.5,-137.13 1146,-147.13 1153,-147.13"/>
</g>
</g>
</svg>
