<?xml version="1.0" encoding="UTF-8" standalone="no"?>
<!DOCTYPE svg PUBLIC "-//W3C//DTD SVG 1.1//EN"
 "http://www.w3.org/Graphics/SVG/1.1/DTD/svg11.dtd">
<!-- Generated by graphviz version 2.43.0 (0)
 -->
<!-- Title: web/http/legacy/rc/Client.h Pages: 1 -->
<svg width="2081pt" height="553pt"
 viewBox="0.00 0.00 2080.50 553.00" xmlns="http://www.w3.org/2000/svg" xmlns:xlink="http://www.w3.org/1999/xlink">
<g id="graph0" class="graph" transform="scale(1 1) rotate(0) translate(4 549)">
<title>web/http/legacy/rc/Client.h</title>
<polygon fill="white" stroke="transparent" points="-4,4 -4,-549 2076.5,-549 2076.5,4 -4,4"/>
<!-- Node1 -->
<g id="node1" class="node">
<title>Node1</title>
<g id="a_node1"><a xlink:title=" ">
<polygon fill="#bfbfbf" stroke="black" points="1107.5,-514.5 1107.5,-544.5 1214.5,-544.5 1214.5,-514.5 1107.5,-514.5"/>
<text text-anchor="start" x="1115.5" y="-532.5" font-family="Helvetica,sans-Serif" font-size="10.00">web/http/legacy/rc</text>
<text text-anchor="middle" x="1161" y="-521.5" font-family="Helvetica,sans-Serif" font-size="10.00">/Client.h</text>
</a>
</g>
</g>
<!-- Node2 -->
<g id="node2" class="node">
<title>Node2</title>
<g id="a_node2"><a xlink:href="net_2rc_2stream_2legacy_2_socket_client_8h.html" target="_top" xlink:title=" ">
<polygon fill="white" stroke="black" points="1031.5,-447.5 1031.5,-477.5 1148.5,-477.5 1148.5,-447.5 1031.5,-447.5"/>
<text text-anchor="start" x="1039.5" y="-465.5" font-family="Helvetica,sans-Serif" font-size="10.00">net/rc/stream/legacy</text>
<text text-anchor="middle" x="1090" y="-454.5" font-family="Helvetica,sans-Serif" font-size="10.00">/SocketClient.h</text>
</a>
</g>
</g>
<!-- Node1&#45;&gt;Node2 -->
<g id="edge1" class="edge">
<title>Node1&#45;&gt;Node2</title>
<path fill="none" stroke="midnightblue" d="M1145.59,-514.4C1136.01,-505.62 1123.51,-494.18 1112.8,-484.37"/>
<polygon fill="midnightblue" stroke="midnightblue" points="1115.12,-481.75 1105.38,-477.58 1110.39,-486.91 1115.12,-481.75"/>
</g>
<!-- Node42 -->
<g id="node40" class="node">
<title>Node42</title>
<g id="a_node40"><a xlink:href="client_2_client_8h.html" target="_top" xlink:title=" ">
<polygon fill="white" stroke="black" points="1404,-453 1404,-472 1534,-472 1534,-453 1404,-453"/>
<text text-anchor="middle" x="1469" y="-460" font-family="Helvetica,sans-Serif" font-size="10.00">web/http/client/Client.h</text>
</a>
</g>
</g>
<!-- Node1&#45;&gt;Node42 -->
<g id="edge45" class="edge">
<title>Node1&#45;&gt;Node42</title>
<path fill="none" stroke="midnightblue" d="M1214.65,-517.18C1272.09,-505.06 1362.51,-485.97 1418.65,-474.13"/>
<polygon fill="midnightblue" stroke="midnightblue" points="1419.65,-477.49 1428.71,-472 1418.21,-470.64 1419.65,-477.49"/>
</g>
<!-- Node3 -->
<g id="node3" class="node">
<title>Node3</title>
<g id="a_node3"><a xlink:href="core_2socket_2stream_2legacy_2_socket_client_8h.html" target="_top" xlink:title=" ">
<polygon fill="white" stroke="black" points="488.5,-380.5 488.5,-410.5 613.5,-410.5 613.5,-380.5 488.5,-380.5"/>
<text text-anchor="start" x="496.5" y="-398.5" font-family="Helvetica,sans-Serif" font-size="10.00">core/socket/stream</text>
<text text-anchor="middle" x="551" y="-387.5" font-family="Helvetica,sans-Serif" font-size="10.00">/legacy/SocketClient.h</text>
</a>
</g>
</g>
<!-- Node2&#45;&gt;Node3 -->
<g id="edge2" class="edge">
<title>Node2&#45;&gt;Node3</title>
<path fill="none" stroke="midnightblue" d="M1031.29,-454.42C932.17,-442.47 731.91,-418.32 623.94,-405.3"/>
<polygon fill="midnightblue" stroke="midnightblue" points="624.13,-401.79 613.78,-404.07 623.29,-408.74 624.13,-401.79"/>
</g>
<!-- Node24 -->
<g id="node22" class="node">
<title>Node24</title>
<g id="a_node22"><a xlink:href="net_2rc_2stream_2_socket_client_8h.html" target="_top" xlink:title=" ">
<polygon fill="white" stroke="black" points="922.5,-386 922.5,-405 1077.5,-405 1077.5,-386 922.5,-386"/>
<text text-anchor="middle" x="1000" y="-393" font-family="Helvetica,sans-Serif" font-size="10.00">net/rc/stream/SocketClient.h</text>
</a>
</g>
</g>
<!-- Node2&#45;&gt;Node24 -->
<g id="edge22" class="edge">
<title>Node2&#45;&gt;Node24</title>
<path fill="none" stroke="midnightblue" d="M1070.47,-447.4C1055.52,-436.6 1034.97,-421.76 1019.92,-410.89"/>
<polygon fill="midnightblue" stroke="midnightblue" points="1021.93,-408.02 1011.78,-405.01 1017.84,-413.7 1021.93,-408.02"/>
</g>
<!-- Node33 -->
<g id="node31" class="node">
<title>Node33</title>
<g id="a_node31"><a xlink:href="rc_2stream_2legacy_2config_2_config_socket_client_8h.html" target="_top" xlink:title=" ">
<polygon fill="white" stroke="black" points="1137,-380.5 1137,-410.5 1291,-410.5 1291,-380.5 1137,-380.5"/>
<text text-anchor="start" x="1145" y="-398.5" font-family="Helvetica,sans-Serif" font-size="10.00">net/rc/stream/legacy</text>
<text text-anchor="middle" x="1214" y="-387.5" font-family="Helvetica,sans-Serif" font-size="10.00">/config/ConfigSocketClient.h</text>
</a>
</g>
</g>
<!-- Node2&#45;&gt;Node33 -->
<g id="edge32" class="edge">
<title>Node2&#45;&gt;Node33</title>
<path fill="none" stroke="midnightblue" d="M1116.91,-447.4C1134.86,-437.98 1158.67,-425.5 1178.22,-415.26"/>
<polygon fill="midnightblue" stroke="midnightblue" points="1179.91,-418.32 1187.15,-410.58 1176.66,-412.12 1179.91,-418.32"/>
</g>
<!-- Node4 -->
<g id="node4" class="node">
<title>Node4</title>
<g id="a_node4"><a xlink:href="core_2socket_2stream_2_socket_client_8h.html" target="_top" xlink:title=" ">
<polygon fill="white" stroke="black" points="350,-313.5 350,-343.5 460,-343.5 460,-313.5 350,-313.5"/>
<text text-anchor="start" x="358" y="-331.5" font-family="Helvetica,sans-Serif" font-size="10.00">core/socket/stream</text>
<text text-anchor="middle" x="405" y="-320.5" font-family="Helvetica,sans-Serif" font-size="10.00">/SocketClient.h</text>
</a>
</g>
</g>
<!-- Node3&#45;&gt;Node4 -->
<g id="edge3" class="edge">
<title>Node3&#45;&gt;Node4</title>
<path fill="none" stroke="midnightblue" d="M519.32,-380.4C497.8,-370.81 469.13,-358.05 445.88,-347.7"/>
<polygon fill="midnightblue" stroke="midnightblue" points="447.18,-344.45 436.62,-343.58 444.33,-350.84 447.18,-344.45"/>
</g>
<!-- Node5 -->
<g id="node5" class="node">
<title>Node5</title>
<g id="a_node5"><a xlink:href="legacy_2_socket_connector_8h.html" target="_top" xlink:title=" ">
<polygon fill="white" stroke="black" points="478,-313.5 478,-343.5 624,-343.5 624,-313.5 478,-313.5"/>
<text text-anchor="start" x="486" y="-331.5" font-family="Helvetica,sans-Serif" font-size="10.00">core/socket/stream</text>
<text text-anchor="middle" x="551" y="-320.5" font-family="Helvetica,sans-Serif" font-size="10.00">/legacy/SocketConnector.h</text>
</a>
</g>
</g>
<!-- Node3&#45;&gt;Node5 -->
<g id="edge4" class="edge">
<title>Node3&#45;&gt;Node5</title>
<path fill="none" stroke="midnightblue" d="M551,-380.4C551,-372.64 551,-362.81 551,-353.86"/>
<polygon fill="midnightblue" stroke="midnightblue" points="554.5,-353.58 551,-343.58 547.5,-353.58 554.5,-353.58"/>
</g>
<!-- Node6 -->
<g id="node6" class="node">
<title>Node6</title>
<g id="a_node6"><a xlink:href="_socket_connector_8h.html" target="_top" xlink:title=" ">
<polygon fill="white" stroke="black" points="496,-246.5 496,-276.5 606,-276.5 606,-246.5 496,-246.5"/>
<text text-anchor="start" x="504" y="-264.5" font-family="Helvetica,sans-Serif" font-size="10.00">core/socket/stream</text>
<text text-anchor="middle" x="551" y="-253.5" font-family="Helvetica,sans-Serif" font-size="10.00">/SocketConnector.h</text>
</a>
</g>
</g>
<!-- Node5&#45;&gt;Node6 -->
<g id="edge5" class="edge">
<title>Node5&#45;&gt;Node6</title>
<path fill="none" stroke="midnightblue" d="M551,-313.4C551,-305.64 551,-295.81 551,-286.86"/>
<polygon fill="midnightblue" stroke="midnightblue" points="554.5,-286.58 551,-276.58 547.5,-286.58 554.5,-286.58"/>
</g>
<!-- Node15 -->
<g id="node15" class="node">
<title>Node15</title>
<g id="a_node15"><a xlink:href="stream_2legacy_2_socket_connection_8h.html" target="_top" xlink:title=" ">
<polygon fill="white" stroke="black" points="214.5,-246.5 214.5,-276.5 365.5,-276.5 365.5,-246.5 214.5,-246.5"/>
<text text-anchor="start" x="222.5" y="-264.5" font-family="Helvetica,sans-Serif" font-size="10.00">core/socket/stream</text>
<text text-anchor="middle" x="290" y="-253.5" font-family="Helvetica,sans-Serif" font-size="10.00">/legacy/SocketConnection.h</text>
</a>
</g>
</g>
<!-- Node5&#45;&gt;Node15 -->
<g id="edge15" class="edge">
<title>Node5&#45;&gt;Node15</title>
<path fill="none" stroke="midnightblue" d="M494.69,-313.48C454.09,-303.37 399.15,-289.68 356.41,-279.04"/>
<polygon fill="midnightblue" stroke="midnightblue" points="357.21,-275.63 346.66,-276.61 355.52,-282.42 357.21,-275.63"/>
</g>
<!-- Node7 -->
<g id="node7" class="node">
<title>Node7</title>
<g id="a_node7"><a xlink:href="_connect_event_receiver_8h.html" target="_top" xlink:title=" ">
<polygon fill="white" stroke="black" points="461.5,-179.5 461.5,-209.5 600.5,-209.5 600.5,-179.5 461.5,-179.5"/>
<text text-anchor="start" x="469.5" y="-197.5" font-family="Helvetica,sans-Serif" font-size="10.00">core/eventreceiver</text>
<text text-anchor="middle" x="531" y="-186.5" font-family="Helvetica,sans-Serif" font-size="10.00">/ConnectEventReceiver.h</text>
</a>
</g>
</g>
<!-- Node6&#45;&gt;Node7 -->
<g id="edge6" class="edge">
<title>Node6&#45;&gt;Node7</title>
<path fill="none" stroke="midnightblue" d="M546.66,-246.4C544.22,-238.47 541.12,-228.38 538.31,-219.27"/>
<polygon fill="midnightblue" stroke="midnightblue" points="541.62,-218.1 535.33,-209.58 534.93,-220.16 541.62,-218.1"/>
</g>
<!-- Node11 -->
<g id="node11" class="node">
<title>Node11</title>
<g id="a_node11"><a xlink:href="_init_connect_event_receiver_8h.html" target="_top" xlink:title=" ">
<polygon fill="white" stroke="black" points="634.5,-112.5 634.5,-142.5 789.5,-142.5 789.5,-112.5 634.5,-112.5"/>
<text text-anchor="start" x="642.5" y="-130.5" font-family="Helvetica,sans-Serif" font-size="10.00">core/eventreceiver</text>
<text text-anchor="middle" x="712" y="-119.5" font-family="Helvetica,sans-Serif" font-size="10.00">/InitConnectEventReceiver.h</text>
</a>
</g>
</g>
<!-- Node6&#45;&gt;Node11 -->
<g id="edge10" class="edge">
<title>Node6&#45;&gt;Node11</title>
<path fill="none" stroke="midnightblue" d="M567.69,-246.21C586.92,-229.81 619.52,-202.19 648,-179 660.36,-168.93 674.24,-157.95 685.9,-148.8"/>
<polygon fill="midnightblue" stroke="midnightblue" points="688.23,-151.42 693.95,-142.5 683.92,-145.91 688.23,-151.42"/>
</g>
<!-- Node12 -->
<g id="node12" class="node">
<title>Node12</title>
<g id="a_node12"><a xlink:href="_socket_connection_factory_8h.html" target="_top" xlink:title=" ">
<polygon fill="white" stroke="black" points="657,-179.5 657,-209.5 807,-209.5 807,-179.5 657,-179.5"/>
<text text-anchor="start" x="665" y="-197.5" font-family="Helvetica,sans-Serif" font-size="10.00">core/socket/stream</text>
<text text-anchor="middle" x="732" y="-186.5" font-family="Helvetica,sans-Serif" font-size="10.00">/SocketConnectionFactory.h</text>
</a>
</g>
</g>
<!-- Node6&#45;&gt;Node12 -->
<g id="edge12" class="edge">
<title>Node6&#45;&gt;Node12</title>
<path fill="none" stroke="midnightblue" d="M590.27,-246.4C617.55,-236.6 654.08,-223.48 683.23,-213.02"/>
<polygon fill="midnightblue" stroke="midnightblue" points="684.57,-216.25 692.8,-209.58 682.21,-209.66 684.57,-216.25"/>
</g>
<!-- Node8 -->
<g id="node8" class="node">
<title>Node8</title>
<g id="a_node8"><a xlink:href="_descriptor_event_receiver_8h.html" target="_top" xlink:title=" ">
<polygon fill="white" stroke="black" points="446,-118 446,-137 616,-137 616,-118 446,-118"/>
<text text-anchor="middle" x="531" y="-125" font-family="Helvetica,sans-Serif" font-size="10.00">core/DescriptorEventReceiver.h</text>
</a>
</g>
</g>
<!-- Node7&#45;&gt;Node8 -->
<g id="edge7" class="edge">
<title>Node7&#45;&gt;Node8</title>
<path fill="none" stroke="midnightblue" d="M531,-179.4C531,-170.06 531,-157.71 531,-147.52"/>
<polygon fill="midnightblue" stroke="midnightblue" points="534.5,-147.19 531,-137.19 527.5,-147.19 534.5,-147.19"/>
</g>
<!-- Node9 -->
<g id="node9" class="node">
<title>Node9</title>
<g id="a_node9"><a xlink:href="_event_receiver_8h.html" target="_top" xlink:title=" ">
<polygon fill="white" stroke="black" points="574,-56.5 574,-75.5 670,-75.5 670,-56.5 574,-56.5"/>
<text text-anchor="middle" x="622" y="-63.5" font-family="Helvetica,sans-Serif" font-size="10.00">EventReceiver.h</text>
</a>
</g>
</g>
<!-- Node8&#45;&gt;Node9 -->
<g id="edge8" class="edge">
<title>Node8&#45;&gt;Node9</title>
<path fill="none" stroke="midnightblue" d="M544.04,-117.98C558.77,-108.34 582.97,-92.52 600.51,-81.05"/>
<polygon fill="midnightblue" stroke="midnightblue" points="602.53,-83.91 608.99,-75.51 598.7,-78.05 602.53,-83.91"/>
</g>
<!-- Node10 -->
<g id="node10" class="node">
<title>Node10</title>
<g id="a_node10"><a xlink:href="_event_8h.html" target="_top" xlink:title=" ">
<polygon fill="white" stroke="black" points="583.5,-0.5 583.5,-19.5 660.5,-19.5 660.5,-0.5 583.5,-0.5"/>
<text text-anchor="middle" x="622" y="-7.5" font-family="Helvetica,sans-Serif" font-size="10.00">core/Event.h</text>
</a>
</g>
</g>
<!-- Node9&#45;&gt;Node10 -->
<g id="edge9" class="edge">
<title>Node9&#45;&gt;Node10</title>
<path fill="none" stroke="midnightblue" d="M622,-56.08C622,-49.01 622,-38.86 622,-29.99"/>
<polygon fill="midnightblue" stroke="midnightblue" points="625.5,-29.75 622,-19.75 618.5,-29.75 625.5,-29.75"/>
</g>
<!-- Node11&#45;&gt;Node9 -->
<g id="edge11" class="edge">
<title>Node11&#45;&gt;Node9</title>
<path fill="none" stroke="midnightblue" d="M690.67,-112.4C676.51,-103.04 657.99,-90.79 643.75,-81.38"/>
<polygon fill="midnightblue" stroke="midnightblue" points="645.37,-78.25 635.1,-75.66 641.51,-84.09 645.37,-78.25"/>
</g>
<!-- Node13 -->
<g id="node13" class="node">
<title>Node13</title>
<g id="a_node13"><a xlink:href="net_2socket_8h.html" target="_top" xlink:title=" ">
<polygon fill="white" stroke="black" points="818.5,-118 818.5,-137 895.5,-137 895.5,-118 818.5,-118"/>
<text text-anchor="middle" x="857" y="-125" font-family="Helvetica,sans-Serif" font-size="10.00">net/Socket.h</text>
</a>
</g>
</g>
<!-- Node12&#45;&gt;Node13 -->
<g id="edge13" class="edge">
<title>Node12&#45;&gt;Node13</title>
<path fill="none" stroke="midnightblue" d="M759.12,-179.4C780.67,-168.19 810.57,-152.64 831.64,-141.69"/>
<polygon fill="midnightblue" stroke="midnightblue" points="833.38,-144.73 840.64,-137.01 830.15,-138.52 833.38,-144.73"/>
</g>
<!-- Node14 -->
<g id="node14" class="node">
<title>Node14</title>
<g id="a_node14"><a xlink:href="_descriptor_8h.html" target="_top" xlink:title=" ">
<polygon fill="white" stroke="black" points="807,-56.5 807,-75.5 907,-75.5 907,-56.5 807,-56.5"/>
<text text-anchor="middle" x="857" y="-63.5" font-family="Helvetica,sans-Serif" font-size="10.00">core/Descriptor.h</text>
</a>
</g>
</g>
<!-- Node13&#45;&gt;Node14 -->
<g id="edge14" class="edge">
<title>Node13&#45;&gt;Node14</title>
<path fill="none" stroke="midnightblue" d="M857,-117.98C857,-109.58 857,-96.48 857,-85.66"/>
<polygon fill="midnightblue" stroke="midnightblue" points="860.5,-85.51 857,-75.51 853.5,-85.51 860.5,-85.51"/>
</g>
<!-- Node16 -->
<g id="node16" class="node">
<title>Node16</title>
<g id="a_node16"><a xlink:href="stream_2_socket_connection_8h.html" target="_top" xlink:title=" ">
<polygon fill="white" stroke="black" points="160,-179.5 160,-209.5 276,-209.5 276,-179.5 160,-179.5"/>
<text text-anchor="start" x="168" y="-197.5" font-family="Helvetica,sans-Serif" font-size="10.00">core/socket/stream</text>
<text text-anchor="middle" x="218" y="-186.5" font-family="Helvetica,sans-Serif" font-size="10.00">/SocketConnection.h</text>
</a>
</g>
</g>
<!-- Node15&#45;&gt;Node16 -->
<g id="edge16" class="edge">
<title>Node15&#45;&gt;Node16</title>
<path fill="none" stroke="midnightblue" d="M274.38,-246.4C264.66,-237.62 251.99,-226.18 241.12,-216.37"/>
<polygon fill="midnightblue" stroke="midnightblue" points="243.36,-213.68 233.59,-209.58 238.67,-218.88 243.36,-213.68"/>
</g>
<!-- Node18 -->
<g id="node18" class="node">
<title>Node18</title>
<g id="a_node18"><a xlink:href="legacy_2_socket_reader_8h.html" target="_top" xlink:title=" ">
<polygon fill="white" stroke="black" points="299.5,-179.5 299.5,-209.5 430.5,-209.5 430.5,-179.5 299.5,-179.5"/>
<text text-anchor="start" x="307.5" y="-197.5" font-family="Helvetica,sans-Serif" font-size="10.00">core/socket/stream</text>
<text text-anchor="middle" x="365" y="-186.5" font-family="Helvetica,sans-Serif" font-size="10.00">/legacy/SocketReader.h</text>
</a>
</g>
</g>
<!-- Node15&#45;&gt;Node18 -->
<g id="edge18" class="edge">
<title>Node15&#45;&gt;Node18</title>
<path fill="none" stroke="midnightblue" d="M306.27,-246.4C316.4,-237.62 329.6,-226.18 340.92,-216.37"/>
<polygon fill="midnightblue" stroke="midnightblue" points="343.49,-218.77 348.76,-209.58 338.91,-213.48 343.49,-218.77"/>
</g>
<!-- Node21 -->
<g id="node20" class="node">
<title>Node21</title>
<g id="a_node20"><a xlink:href="legacy_2_socket_writer_8h.html" target="_top" xlink:title=" ">
<polygon fill="white" stroke="black" points="6,-179.5 6,-209.5 132,-209.5 132,-179.5 6,-179.5"/>
<text text-anchor="start" x="14" y="-197.5" font-family="Helvetica,sans-Serif" font-size="10.00">core/socket/stream</text>
<text text-anchor="middle" x="69" y="-186.5" font-family="Helvetica,sans-Serif" font-size="10.00">/legacy/SocketWriter.h</text>
</a>
</g>
</g>
<!-- Node15&#45;&gt;Node21 -->
<g id="edge20" class="edge">
<title>Node15&#45;&gt;Node21</title>
<path fill="none" stroke="midnightblue" d="M242.32,-246.48C208.45,-236.51 162.79,-223.09 126.84,-212.51"/>
<polygon fill="midnightblue" stroke="midnightblue" points="127.56,-209.07 116.98,-209.61 125.58,-215.79 127.56,-209.07"/>
</g>
<!-- Node17 -->
<g id="node17" class="node">
<title>Node17</title>
<g id="a_node17"><a xlink:href="_socket_connection_8h.html" target="_top" xlink:title=" ">
<polygon fill="white" stroke="black" points="128.5,-118 128.5,-137 299.5,-137 299.5,-118 128.5,-118"/>
<text text-anchor="middle" x="214" y="-125" font-family="Helvetica,sans-Serif" font-size="10.00">core/socket/SocketConnection.h</text>
</a>
</g>
</g>
<!-- Node16&#45;&gt;Node17 -->
<g id="edge17" class="edge">
<title>Node16&#45;&gt;Node17</title>
<path fill="none" stroke="midnightblue" d="M217.13,-179.4C216.55,-169.96 215.78,-157.45 215.15,-147.19"/>
<polygon fill="midnightblue" stroke="midnightblue" points="218.64,-146.96 214.54,-137.19 211.66,-147.39 218.64,-146.96"/>
</g>
<!-- Node19 -->
<g id="node19" class="node">
<title>Node19</title>
<g id="a_node19"><a xlink:href="_socket_reader_8h.html" target="_top" xlink:title=" ">
<polygon fill="white" stroke="red" points="318,-112.5 318,-142.5 428,-142.5 428,-112.5 318,-112.5"/>
<text text-anchor="start" x="326" y="-130.5" font-family="Helvetica,sans-Serif" font-size="10.00">core/socket/stream</text>
<text text-anchor="middle" x="373" y="-119.5" font-family="Helvetica,sans-Serif" font-size="10.00">/SocketReader.h</text>
</a>
</g>
</g>
<!-- Node18&#45;&gt;Node19 -->
<g id="edge19" class="edge">
<title>Node18&#45;&gt;Node19</title>
<path fill="none" stroke="midnightblue" d="M366.74,-179.4C367.7,-171.56 368.93,-161.6 370.04,-152.57"/>
<polygon fill="midnightblue" stroke="midnightblue" points="373.52,-152.93 371.27,-142.58 366.57,-152.07 373.52,-152.93"/>
</g>
<!-- Node22 -->
<g id="node21" class="node">
<title>Node22</title>
<g id="a_node21"><a xlink:href="_socket_writer_8h.html" target="_top" xlink:title=" ">
<polygon fill="white" stroke="red" points="0,-112.5 0,-142.5 110,-142.5 110,-112.5 0,-112.5"/>
<text text-anchor="start" x="8" y="-130.5" font-family="Helvetica,sans-Serif" font-size="10.00">core/socket/stream</text>
<text text-anchor="middle" x="55" y="-119.5" font-family="Helvetica,sans-Serif" font-size="10.00">/SocketWriter.h</text>
</a>
</g>
</g>
<!-- Node21&#45;&gt;Node22 -->
<g id="edge21" class="edge">
<title>Node21&#45;&gt;Node22</title>
<path fill="none" stroke="midnightblue" d="M65.96,-179.4C64.27,-171.56 62.13,-161.6 60.18,-152.57"/>
<polygon fill="midnightblue" stroke="midnightblue" points="63.56,-151.62 58.03,-142.58 56.72,-153.09 63.56,-151.62"/>
</g>
<!-- Node25 -->
<g id="node23" class="node">
<title>Node25</title>
<g id="a_node23"><a xlink:href="rc_2stream_2_client_socket_8h.html" target="_top" xlink:title=" ">
<polygon fill="white" stroke="black" points="755.5,-319 755.5,-338 910.5,-338 910.5,-319 755.5,-319"/>
<text text-anchor="middle" x="833" y="-326" font-family="Helvetica,sans-Serif" font-size="10.00">net/rc/stream/ClientSocket.h</text>
</a>
</g>
</g>
<!-- Node24&#45;&gt;Node25 -->
<g id="edge23" class="edge">
<title>Node24&#45;&gt;Node25</title>
<path fill="none" stroke="midnightblue" d="M977.82,-385.87C948.8,-374.57 897.73,-354.7 864.65,-341.82"/>
<polygon fill="midnightblue" stroke="midnightblue" points="865.59,-338.43 855,-338.06 863.05,-344.95 865.59,-338.43"/>
</g>
<!-- Node31 -->
<g id="node29" class="node">
<title>Node31</title>
<g id="a_node29"><a xlink:href="net_2stream_2_socket_client_8h.html" target="_top" xlink:title=" ">
<polygon fill="white" stroke="black" points="928.5,-319 928.5,-338 1071.5,-338 1071.5,-319 928.5,-319"/>
<text text-anchor="middle" x="1000" y="-326" font-family="Helvetica,sans-Serif" font-size="10.00">net/stream/SocketClient.h</text>
</a>
</g>
</g>
<!-- Node24&#45;&gt;Node31 -->
<g id="edge30" class="edge">
<title>Node24&#45;&gt;Node31</title>
<path fill="none" stroke="midnightblue" d="M1000,-385.73C1000,-376.18 1000,-360.62 1000,-348.28"/>
<polygon fill="midnightblue" stroke="midnightblue" points="1003.5,-348.13 1000,-338.13 996.5,-348.13 1003.5,-348.13"/>
</g>
<!-- Node26 -->
<g id="node24" class="node">
<title>Node26</title>
<g id="a_node24"><a xlink:href="net_2rc_2stream_2socket_8h.html" target="_top" xlink:title=" ">
<polygon fill="white" stroke="black" points="786,-252 786,-271 912,-271 912,-252 786,-252"/>
<text text-anchor="middle" x="849" y="-259" font-family="Helvetica,sans-Serif" font-size="10.00">net/rc/stream/Socket.h</text>
</a>
</g>
</g>
<!-- Node25&#45;&gt;Node26 -->
<g id="edge24" class="edge">
<title>Node25&#45;&gt;Node26</title>
<path fill="none" stroke="midnightblue" d="M835.16,-318.73C837.53,-309.09 841.42,-293.3 844.47,-280.91"/>
<polygon fill="midnightblue" stroke="midnightblue" points="847.88,-281.67 846.88,-271.13 841.09,-280 847.88,-281.67"/>
</g>
<!-- Node30 -->
<g id="node28" class="node">
<title>Node30</title>
<g id="a_node28"><a xlink:href="stream_2_client_socket_8h.html" target="_top" xlink:title=" ">
<polygon fill="white" stroke="black" points="624.5,-252 624.5,-271 767.5,-271 767.5,-252 624.5,-252"/>
<text text-anchor="middle" x="696" y="-259" font-family="Helvetica,sans-Serif" font-size="10.00">net/stream/ClientSocket.h</text>
</a>
</g>
</g>
<!-- Node25&#45;&gt;Node30 -->
<g id="edge29" class="edge">
<title>Node25&#45;&gt;Node30</title>
<path fill="none" stroke="midnightblue" d="M814.81,-318.87C791.47,-307.8 750.77,-288.49 723.61,-275.6"/>
<polygon fill="midnightblue" stroke="midnightblue" points="724.8,-272.29 714.27,-271.17 721.8,-278.62 724.8,-272.29"/>
</g>
<!-- Node27 -->
<g id="node25" class="node">
<title>Node27</title>
<g id="a_node25"><a xlink:href="net_2rc_2socket_8h.html" target="_top" xlink:title=" ">
<polygon fill="white" stroke="black" points="824.5,-185 824.5,-204 913.5,-204 913.5,-185 824.5,-185"/>
<text text-anchor="middle" x="869" y="-192" font-family="Helvetica,sans-Serif" font-size="10.00">net/rc/Socket.h</text>
</a>
</g>
</g>
<!-- Node26&#45;&gt;Node27 -->
<g id="edge25" class="edge">
<title>Node26&#45;&gt;Node27</title>
<path fill="none" stroke="midnightblue" d="M851.7,-251.73C854.67,-242.09 859.52,-226.3 863.34,-213.91"/>
<polygon fill="midnightblue" stroke="midnightblue" points="866.75,-214.71 866.35,-204.13 860.06,-212.66 866.75,-214.71"/>
</g>
<!-- Node27&#45;&gt;Node13 -->
<g id="edge26" class="edge">
<title>Node27&#45;&gt;Node13</title>
<path fill="none" stroke="midnightblue" d="M867.38,-184.73C865.62,-175.18 862.74,-159.62 860.47,-147.28"/>
<polygon fill="midnightblue" stroke="midnightblue" points="863.85,-146.33 858.59,-137.13 856.97,-147.6 863.85,-146.33"/>
</g>
<!-- Node28 -->
<g id="node26" class="node">
<title>Node28</title>
<g id="a_node26"><a xlink:href="rc_2_socket_address_8h.html" target="_top" xlink:title=" ">
<polygon fill="white" stroke="black" points="950,-118 950,-137 1078,-137 1078,-118 950,-118"/>
<text text-anchor="middle" x="1014" y="-125" font-family="Helvetica,sans-Serif" font-size="10.00">net/rc/SocketAddress.h</text>
</a>
</g>
</g>
<!-- Node27&#45;&gt;Node28 -->
<g id="edge27" class="edge">
<title>Node27&#45;&gt;Node28</title>
<path fill="none" stroke="midnightblue" d="M888.25,-184.87C913.17,-173.7 956.79,-154.15 985.53,-141.26"/>
<polygon fill="midnightblue" stroke="midnightblue" points="986.97,-144.45 994.67,-137.17 984.11,-138.06 986.97,-144.45"/>
</g>
<!-- Node29 -->
<g id="node27" class="node">
<title>Node29</title>
<g id="a_node27"><a xlink:href="_socket_address_8h.html" target="_top" xlink:title=" ">
<polygon fill="white" stroke="black" points="956,-56.5 956,-75.5 1072,-75.5 1072,-56.5 956,-56.5"/>
<text text-anchor="middle" x="1014" y="-63.5" font-family="Helvetica,sans-Serif" font-size="10.00">net/SocketAddress.h</text>
</a>
</g>
</g>
<!-- Node28&#45;&gt;Node29 -->
<g id="edge28" class="edge">
<title>Node28&#45;&gt;Node29</title>
<path fill="none" stroke="midnightblue" d="M1014,-117.98C1014,-109.58 1014,-96.48 1014,-85.66"/>
<polygon fill="midnightblue" stroke="midnightblue" points="1017.5,-85.51 1014,-75.51 1010.5,-85.51 1017.5,-85.51"/>
</g>
<!-- Node32 -->
<g id="node30" class="node">
<title>Node32</title>
<g id="a_node30"><a xlink:href="_socket_config_8h.html" target="_top" xlink:title=" ">
<polygon fill="white" stroke="black" points="930,-252 930,-271 1038,-271 1038,-252 930,-252"/>
<text text-anchor="middle" x="984" y="-259" font-family="Helvetica,sans-Serif" font-size="10.00">net/SocketConfig.h</text>
</a>
</g>
</g>
<!-- Node31&#45;&gt;Node32 -->
<g id="edge31" class="edge">
<title>Node31&#45;&gt;Node32</title>
<path fill="none" stroke="midnightblue" d="M997.84,-318.73C995.47,-309.09 991.58,-293.3 988.53,-280.91"/>
<polygon fill="midnightblue" stroke="midnightblue" points="991.91,-280 986.12,-271.13 985.12,-281.67 991.91,-280"/>
</g>
<!-- Node34 -->
<g id="node32" class="node">
<title>Node34</title>
<g id="a_node32"><a xlink:href="_config_legacy_8h.html" target="_top" xlink:title=" ">
<polygon fill="white" stroke="black" points="1343,-319 1343,-338 1485,-338 1485,-319 1343,-319"/>
<text text-anchor="middle" x="1414" y="-326" font-family="Helvetica,sans-Serif" font-size="10.00">net/config/ConfigLegacy.h</text>
</a>
</g>
</g>
<!-- Node33&#45;&gt;Node34 -->
<g id="edge33" class="edge">
<title>Node33&#45;&gt;Node34</title>
<path fill="none" stroke="midnightblue" d="M1257.4,-380.4C1293.42,-368.69 1344.06,-352.23 1377.9,-341.23"/>
<polygon fill="midnightblue" stroke="midnightblue" points="1379.4,-344.43 1387.82,-338.01 1377.23,-337.77 1379.4,-344.43"/>
</g>
<!-- Node36 -->
<g id="node34" class="node">
<title>Node36</title>
<g id="a_node34"><a xlink:href="rc_2stream_2config_2_config_socket_client_8h.html" target="_top" xlink:title=" ">
<polygon fill="white" stroke="black" points="1153.5,-313.5 1153.5,-343.5 1274.5,-343.5 1274.5,-313.5 1153.5,-313.5"/>
<text text-anchor="start" x="1161.5" y="-331.5" font-family="Helvetica,sans-Serif" font-size="10.00">net/rc/stream/config</text>
<text text-anchor="middle" x="1214" y="-320.5" font-family="Helvetica,sans-Serif" font-size="10.00">/ConfigSocketClient.h</text>
</a>
</g>
</g>
<!-- Node33&#45;&gt;Node36 -->
<g id="edge35" class="edge">
<title>Node33&#45;&gt;Node36</title>
<path fill="none" stroke="midnightblue" d="M1214,-380.4C1214,-372.64 1214,-362.81 1214,-353.86"/>
<polygon fill="midnightblue" stroke="midnightblue" points="1217.5,-353.58 1214,-343.58 1210.5,-353.58 1217.5,-353.58"/>
</g>
<!-- Node35 -->
<g id="node33" class="node">
<title>Node35</title>
<g id="a_node33"><a xlink:href="_config_base_8h.html" target="_top" xlink:title=" ">
<polygon fill="white" stroke="black" points="1424.5,-118 1424.5,-137 1557.5,-137 1557.5,-118 1424.5,-118"/>
<text text-anchor="middle" x="1491" y="-125" font-family="Helvetica,sans-Serif" font-size="10.00">net/config/ConfigBase.h</text>
</a>
</g>
</g>
<!-- Node34&#45;&gt;Node35 -->
<g id="edge34" class="edge">
<title>Node34&#45;&gt;Node35</title>
<path fill="none" stroke="midnightblue" d="M1485.25,-325.05C1520.31,-319.79 1559.74,-306.94 1582,-277 1616.58,-230.5 1548.39,-170.4 1511.92,-143.12"/>
<polygon fill="midnightblue" stroke="midnightblue" points="1513.97,-140.29 1503.83,-137.22 1509.84,-145.94 1513.97,-140.29"/>
</g>
<!-- Node37 -->
<g id="node35" class="node">
<title>Node37</title>
<g id="a_node35"><a xlink:href="_config_address_local_8h.html" target="_top" xlink:title=" ">
<polygon fill="white" stroke="black" points="1094.5,-246.5 1094.5,-276.5 1233.5,-276.5 1233.5,-246.5 1094.5,-246.5"/>
<text text-anchor="start" x="1102.5" y="-264.5" font-family="Helvetica,sans-Serif" font-size="10.00">net/config/ConfigAddress</text>
<text text-anchor="middle" x="1164" y="-253.5" font-family="Helvetica,sans-Serif" font-size="10.00">Local.h</text>
</a>
</g>
</g>
<!-- Node36&#45;&gt;Node37 -->
<g id="edge36" class="edge">
<title>Node36&#45;&gt;Node37</title>
<path fill="none" stroke="midnightblue" d="M1203.15,-313.4C1196.66,-304.96 1188.28,-294.07 1180.94,-284.52"/>
<polygon fill="midnightblue" stroke="midnightblue" points="1183.7,-282.37 1174.83,-276.58 1178.15,-286.64 1183.7,-282.37"/>
</g>
<!-- Node39 -->
<g id="node37" class="node">
<title>Node39</title>
<g id="a_node37"><a xlink:href="_config_address_remote_8h.html" target="_top" xlink:title=" ">
<polygon fill="white" stroke="black" points="1251.5,-246.5 1251.5,-276.5 1390.5,-276.5 1390.5,-246.5 1251.5,-246.5"/>
<text text-anchor="start" x="1259.5" y="-264.5" font-family="Helvetica,sans-Serif" font-size="10.00">net/config/ConfigAddress</text>
<text text-anchor="middle" x="1321" y="-253.5" font-family="Helvetica,sans-Serif" font-size="10.00">Remote.h</text>
</a>
</g>
</g>
<!-- Node36&#45;&gt;Node39 -->
<g id="edge39" class="edge">
<title>Node36&#45;&gt;Node39</title>
<path fill="none" stroke="midnightblue" d="M1237.22,-313.4C1252.36,-304.2 1272.33,-292.07 1288.97,-281.95"/>
<polygon fill="midnightblue" stroke="midnightblue" points="1291.1,-284.76 1297.83,-276.58 1287.46,-278.78 1291.1,-284.76"/>
</g>
<!-- Node40 -->
<g id="node38" class="node">
<title>Node40</title>
<g id="a_node38"><a xlink:href="_config_connection_8h.html" target="_top" xlink:title=" ">
<polygon fill="white" stroke="black" points="1409,-252 1409,-271 1573,-271 1573,-252 1409,-252"/>
<text text-anchor="middle" x="1491" y="-259" font-family="Helvetica,sans-Serif" font-size="10.00">net/config/ConfigConnection.h</text>
</a>
</g>
</g>
<!-- Node36&#45;&gt;Node40 -->
<g id="edge41" class="edge">
<title>Node36&#45;&gt;Node40</title>
<path fill="none" stroke="midnightblue" d="M1273.76,-313.48C1325.03,-301.45 1397.85,-284.36 1444.77,-273.35"/>
<polygon fill="midnightblue" stroke="midnightblue" points="1445.72,-276.72 1454.65,-271.03 1444.12,-269.91 1445.72,-276.72"/>
</g>
<!-- Node41 -->
<g id="node39" class="node">
<title>Node41</title>
<g id="a_node39"><a xlink:href="rc_2config_2_config_address_8h.html" target="_top" xlink:title=" ">
<polygon fill="white" stroke="black" points="960,-185 960,-204 1120,-204 1120,-185 960,-185"/>
<text text-anchor="middle" x="1040" y="-192" font-family="Helvetica,sans-Serif" font-size="10.00">net/rc/config/ConfigAddress.h</text>
</a>
</g>
</g>
<!-- Node36&#45;&gt;Node41 -->
<g id="edge43" class="edge">
<title>Node36&#45;&gt;Node41</title>
<path fill="none" stroke="midnightblue" d="M1153.76,-313.44C1130.3,-305.68 1104.44,-294.04 1085,-277 1065.49,-259.9 1052.76,-232.21 1045.97,-213.92"/>
<polygon fill="midnightblue" stroke="midnightblue" points="1049.25,-212.69 1042.66,-204.4 1042.64,-214.99 1049.25,-212.69"/>
</g>
<!-- Node38 -->
<g id="node36" class="node">
<title>Node38</title>
<g id="a_node36"><a xlink:href="config_2_config_address_8h.html" target="_top" xlink:title=" ">
<polygon fill="white" stroke="black" points="1247,-185 1247,-204 1395,-204 1395,-185 1247,-185"/>
<text text-anchor="middle" x="1321" y="-192" font-family="Helvetica,sans-Serif" font-size="10.00">net/config/ConfigAddress.h</text>
</a>
</g>
</g>
<!-- Node37&#45;&gt;Node38 -->
<g id="edge37" class="edge">
<title>Node37&#45;&gt;Node38</title>
<path fill="none" stroke="midnightblue" d="M1198.07,-246.4C1225.74,-234.94 1264.39,-218.94 1290.92,-207.95"/>
<polygon fill="midnightblue" stroke="midnightblue" points="1292.55,-211.07 1300.45,-204.01 1289.87,-204.6 1292.55,-211.07"/>
</g>
<!-- Node38&#45;&gt;Node35 -->
<g id="edge38" class="edge">
<title>Node38&#45;&gt;Node35</title>
<path fill="none" stroke="midnightblue" d="M1343.57,-184.87C1373.25,-173.52 1425.55,-153.52 1459.22,-140.65"/>
<polygon fill="midnightblue" stroke="midnightblue" points="1460.51,-143.9 1468.6,-137.06 1458.01,-137.37 1460.51,-143.9"/>
</g>
<!-- Node39&#45;&gt;Node38 -->
<g id="edge40" class="edge">
<title>Node39&#45;&gt;Node38</title>
<path fill="none" stroke="midnightblue" d="M1321,-246.4C1321,-237.06 1321,-224.71 1321,-214.52"/>
<polygon fill="midnightblue" stroke="midnightblue" points="1324.5,-214.19 1321,-204.19 1317.5,-214.19 1324.5,-214.19"/>
</g>
<!-- Node40&#45;&gt;Node35 -->
<g id="edge42" class="edge">
<title>Node40&#45;&gt;Node35</title>
<path fill="none" stroke="midnightblue" d="M1491,-251.84C1491,-230.67 1491,-175.95 1491,-147.03"/>
<polygon fill="midnightblue" stroke="midnightblue" points="1494.5,-147.02 1491,-137.02 1487.5,-147.02 1494.5,-147.02"/>
</g>
<!-- Node41&#45;&gt;Node28 -->
<g id="edge44" class="edge">
<title>Node41&#45;&gt;Node28</title>
<path fill="none" stroke="midnightblue" d="M1036.49,-184.73C1032.6,-174.99 1026.19,-158.98 1021.21,-146.53"/>
<polygon fill="midnightblue" stroke="midnightblue" points="1024.41,-145.11 1017.45,-137.13 1017.92,-147.71 1024.41,-145.11"/>
</g>
<!-- Node43 -->
<g id="node41" class="node">
<title>Node43</title>
<g id="a_node41"><a xlink:href="web_2http_2client_2_socket_context_factory_8h.html" target="_top" xlink:title=" ">
<polygon fill="white" stroke="black" points="1609.5,-380.5 1609.5,-410.5 1772.5,-410.5 1772.5,-380.5 1609.5,-380.5"/>
<text text-anchor="start" x="1617.5" y="-398.5" font-family="Helvetica,sans-Serif" font-size="10.00">web/http/client/SocketContext</text>
<text text-anchor="middle" x="1691" y="-387.5" font-family="Helvetica,sans-Serif" font-size="10.00">Factory.h</text>
</a>
</g>
</g>
<!-- Node42&#45;&gt;Node43 -->
<g id="edge46" class="edge">
<title>Node42&#45;&gt;Node43</title>
<path fill="none" stroke="midnightblue" d="M1498.48,-452.87C1532.73,-442.84 1590.06,-426.06 1633.27,-413.4"/>
<polygon fill="midnightblue" stroke="midnightblue" points="1634.48,-416.7 1643.09,-410.53 1632.51,-409.98 1634.48,-416.7"/>
</g>
<!-- Node44 -->
<g id="node42" class="node">
<title>Node44</title>
<g id="a_node42"><a xlink:href="web_2http_2_socket_context_factory_8h.html" target="_top" xlink:title=" ">
<polygon fill="white" stroke="black" points="1603,-319 1603,-338 1779,-338 1779,-319 1603,-319"/>
<text text-anchor="middle" x="1691" y="-326" font-family="Helvetica,sans-Serif" font-size="10.00">web/http/SocketContextFactory.h</text>
</a>
</g>
</g>
<!-- Node43&#45;&gt;Node44 -->
<g id="edge47" class="edge">
<title>Node43&#45;&gt;Node44</title>
<path fill="none" stroke="midnightblue" d="M1691,-380.4C1691,-371.06 1691,-358.71 1691,-348.52"/>
<polygon fill="midnightblue" stroke="midnightblue" points="1694.5,-348.19 1691,-338.19 1687.5,-348.19 1694.5,-348.19"/>
</g>
<!-- Node46 -->
<g id="node44" class="node">
<title>Node46</title>
<g id="a_node44"><a xlink:href="client_2_socket_context_8hpp.html" target="_top" xlink:title=" ">
<polygon fill="white" stroke="black" points="1797,-319 1797,-338 1981,-338 1981,-319 1797,-319"/>
<text text-anchor="middle" x="1889" y="-326" font-family="Helvetica,sans-Serif" font-size="10.00">web/http/client/SocketContext.hpp</text>
</a>
</g>
</g>
<!-- Node43&#45;&gt;Node46 -->
<g id="edge49" class="edge">
<title>Node43&#45;&gt;Node46</title>
<path fill="none" stroke="midnightblue" d="M1733.96,-380.4C1769.63,-368.69 1819.76,-352.23 1853.26,-341.23"/>
<polygon fill="midnightblue" stroke="midnightblue" points="1854.68,-344.45 1863.09,-338.01 1852.49,-337.8 1854.68,-344.45"/>
</g>
<!-- Node45 -->
<g id="node43" class="node">
<title>Node45</title>
<g id="a_node43"><a xlink:href="core_2socket_2_socket_context_factory_8h.html" target="_top" xlink:title=" ">
<polygon fill="white" stroke="black" points="1629,-246.5 1629,-276.5 1775,-276.5 1775,-246.5 1629,-246.5"/>
<text text-anchor="start" x="1637" y="-264.5" font-family="Helvetica,sans-Serif" font-size="10.00">core/socket/SocketContext</text>
<text text-anchor="middle" x="1702" y="-253.5" font-family="Helvetica,sans-Serif" font-size="10.00">Factory.h</text>
</a>
</g>
</g>
<!-- Node44&#45;&gt;Node45 -->
<g id="edge48" class="edge">
<title>Node44&#45;&gt;Node45</title>
<path fill="none" stroke="midnightblue" d="M1692.48,-318.73C1693.87,-310.54 1696.01,-297.92 1697.9,-286.71"/>
<polygon fill="midnightblue" stroke="midnightblue" points="1701.4,-287.03 1699.62,-276.59 1694.5,-285.86 1701.4,-287.03"/>
</g>
<!-- Node47 -->
<g id="node45" class="node">
<title>Node47</title>
<g id="a_node45"><a xlink:href="web_2http_2client_2_socket_context_8h.html" target="_top" xlink:title=" ">
<polygon fill="white" stroke="black" points="1803,-252 1803,-271 1975,-271 1975,-252 1803,-252"/>
<text text-anchor="middle" x="1889" y="-259" font-family="Helvetica,sans-Serif" font-size="10.00">web/http/client/SocketContext.h</text>
</a>
</g>
</g>
<!-- Node46&#45;&gt;Node47 -->
<g id="edge50" class="edge">
<title>Node46&#45;&gt;Node47</title>
<path fill="none" stroke="midnightblue" d="M1889,-318.73C1889,-309.18 1889,-293.62 1889,-281.28"/>
<polygon fill="midnightblue" stroke="midnightblue" points="1892.5,-281.13 1889,-271.13 1885.5,-281.13 1892.5,-281.13"/>
</g>
<!-- Node48 -->
<g id="node46" class="node">
<title>Node48</title>
<g id="a_node46"><a xlink:href="web_2http_2_socket_context_8h.html" target="_top" xlink:title=" ">
<polygon fill="white" stroke="black" points="1920,-185 1920,-204 2062,-204 2062,-185 1920,-185"/>
<text text-anchor="middle" x="1991" y="-192" font-family="Helvetica,sans-Serif" font-size="10.00">web/http/SocketContext.h</text>
</a>
</g>
</g>
<!-- Node47&#45;&gt;Node48 -->
<g id="edge51" class="edge">
<title>Node47&#45;&gt;Node48</title>
<path fill="none" stroke="midnightblue" d="M1902.76,-251.73C1919.73,-240.92 1948.81,-222.38 1968.93,-209.57"/>
<polygon fill="midnightblue" stroke="midnightblue" points="1970.91,-212.45 1977.46,-204.13 1967.15,-206.55 1970.91,-212.45"/>
</g>
<!-- Node50 -->
<g id="node48" class="node">
<title>Node50</title>
<g id="a_node48"><a xlink:href="_response_parser_8h.html" target="_top" xlink:title=" ">
<polygon fill="white" stroke="black" points="1758,-179.5 1758,-209.5 1898,-209.5 1898,-179.5 1758,-179.5"/>
<text text-anchor="start" x="1766" y="-197.5" font-family="Helvetica,sans-Serif" font-size="10.00">web/http/client/Response</text>
<text text-anchor="middle" x="1828" y="-186.5" font-family="Helvetica,sans-Serif" font-size="10.00">Parser.h</text>
</a>
</g>
</g>
<!-- Node47&#45;&gt;Node50 -->
<g id="edge53" class="edge">
<title>Node47&#45;&gt;Node50</title>
<path fill="none" stroke="midnightblue" d="M1880.77,-251.73C1872.45,-242.86 1859.26,-228.81 1848.15,-216.97"/>
<polygon fill="midnightblue" stroke="midnightblue" points="1850.62,-214.49 1841.22,-209.59 1845.51,-219.28 1850.62,-214.49"/>
</g>
<!-- Node49 -->
<g id="node47" class="node">
<title>Node49</title>
<g id="a_node47"><a xlink:href="core_2socket_2_socket_context_8h.html" target="_top" xlink:title=" ">
<polygon fill="white" stroke="black" points="1917.5,-118 1917.5,-137 2072.5,-137 2072.5,-118 1917.5,-118"/>
<text text-anchor="middle" x="1995" y="-125" font-family="Helvetica,sans-Serif" font-size="10.00">core/socket/SocketContext.h</text>
</a>
</g>
</g>
<!-- Node48&#45;&gt;Node49 -->
<g id="edge52" class="edge">
<title>Node48&#45;&gt;Node49</title>
<path fill="none" stroke="midnightblue" d="M1991.54,-184.73C1992.13,-175.18 1993.09,-159.62 1993.84,-147.28"/>
<polygon fill="midnightblue" stroke="midnightblue" points="1997.35,-147.32 1994.47,-137.13 1990.36,-146.89 1997.35,-147.32"/>
</g>
<!-- Node51 -->
<g id="node49" class="node">
<title>Node51</title>
<g id="a_node49"><a xlink:href="_cookie_options_8h.html" target="_top" xlink:title=" ">
<polygon fill="white" stroke="black" points="1756.5,-118 1756.5,-137 1899.5,-137 1899.5,-118 1756.5,-118"/>
<text text-anchor="middle" x="1828" y="-125" font-family="Helvetica,sans-Serif" font-size="10.00">web/http/CookieOptions.h</text>
</a>
</g>
</g>
<!-- Node50&#45;&gt;Node51 -->
<g id="edge54" class="edge">
<title>Node50&#45;&gt;Node51</title>
<path fill="none" stroke="midnightblue" d="M1828,-179.4C1828,-170.06 1828,-157.71 1828,-147.52"/>
<polygon fill="midnightblue" stroke="midnightblue" points="1831.5,-147.19 1828,-137.19 1824.5,-147.19 1831.5,-147.19"/>
</g>
<!-- Node52 -->
<g id="node50" class="node">
<title>Node52</title>
<g id="a_node50"><a xlink:href="_parser_8h.html" target="_top" xlink:title=" ">
<polygon fill="white" stroke="black" points="1636,-118 1636,-137 1738,-137 1738,-118 1636,-118"/>
<text text-anchor="middle" x="1687" y="-125" font-family="Helvetica,sans-Serif" font-size="10.00">web/http/Parser.h</text>
</a>
</g>
</g>
<!-- Node50&#45;&gt;Node52 -->
<g id="edge55" class="edge">
<title>Node50&#45;&gt;Node52</title>
<path fill="none" stroke="midnightblue" d="M1797.41,-179.4C1772.77,-168.04 1738.45,-152.22 1714.64,-141.24"/>
<polygon fill="midnightblue" stroke="midnightblue" points="1716,-138.02 1705.45,-137.01 1713.07,-144.37 1716,-138.02"/>
</g>
</g>
</svg>
