<?xml version="1.0" encoding="UTF-8" standalone="no"?>
<!DOCTYPE svg PUBLIC "-//W3C//DTD SVG 1.1//EN"
 "http://www.w3.org/Graphics/SVG/1.1/DTD/svg11.dtd">
<!-- Generated by graphviz version 2.43.0 (0)
 -->
<!-- Title: web/http/legacy/in6/Client.h Pages: 1 -->
<svg width="2021pt" height="687pt"
 viewBox="0.00 0.00 2021.00 687.00" xmlns="http://www.w3.org/2000/svg" xmlns:xlink="http://www.w3.org/1999/xlink">
<g id="graph0" class="graph" transform="scale(1 1) rotate(0) translate(4 683)">
<title>web/http/legacy/in6/Client.h</title>
<polygon fill="white" stroke="transparent" points="-4,4 -4,-683 2017,-683 2017,4 -4,4"/>
<!-- Node1 -->
<g id="node1" class="node">
<title>Node1</title>
<g id="a_node1"><a xlink:title=" ">
<polygon fill="#bfbfbf" stroke="black" points="833,-648.5 833,-678.5 946,-678.5 946,-648.5 833,-648.5"/>
<text text-anchor="start" x="841" y="-666.5" font-family="Helvetica,sans-Serif" font-size="10.00">web/http/legacy/in6</text>
<text text-anchor="middle" x="889.5" y="-655.5" font-family="Helvetica,sans-Serif" font-size="10.00">/Client.h</text>
</a>
</g>
</g>
<!-- Node2 -->
<g id="node2" class="node">
<title>Node2</title>
<g id="a_node2"><a xlink:href="net_2in6_2stream_2legacy_2_socket_client_8h.html" target="_top" xlink:title=" ">
<polygon fill="white" stroke="black" points="756,-581.5 756,-611.5 879,-611.5 879,-581.5 756,-581.5"/>
<text text-anchor="start" x="764" y="-599.5" font-family="Helvetica,sans-Serif" font-size="10.00">net/in6/stream/legacy</text>
<text text-anchor="middle" x="817.5" y="-588.5" font-family="Helvetica,sans-Serif" font-size="10.00">/SocketClient.h</text>
</a>
</g>
</g>
<!-- Node1&#45;&gt;Node2 -->
<g id="edge1" class="edge">
<title>Node1&#45;&gt;Node2</title>
<path fill="none" stroke="midnightblue" d="M873.88,-648.4C864.16,-639.62 851.49,-628.18 840.62,-618.37"/>
<polygon fill="midnightblue" stroke="midnightblue" points="842.86,-615.68 833.09,-611.58 838.17,-620.88 842.86,-615.68"/>
</g>
<!-- Node37 -->
<g id="node37" class="node">
<title>Node37</title>
<g id="a_node37"><a xlink:href="client_2_client_8h.html" target="_top" xlink:title=" ">
<polygon fill="white" stroke="black" points="1225.5,-587 1225.5,-606 1355.5,-606 1355.5,-587 1225.5,-587"/>
<text text-anchor="middle" x="1290.5" y="-594" font-family="Helvetica,sans-Serif" font-size="10.00">web/http/client/Client.h</text>
</a>
</g>
</g>
<!-- Node1&#45;&gt;Node37 -->
<g id="edge43" class="edge">
<title>Node1&#45;&gt;Node37</title>
<path fill="none" stroke="midnightblue" d="M946.1,-653.32C1020.48,-641.27 1150.71,-620.16 1227.94,-607.64"/>
<polygon fill="midnightblue" stroke="midnightblue" points="1228.7,-611.06 1238.01,-606.01 1227.58,-604.15 1228.7,-611.06"/>
</g>
<!-- Node3 -->
<g id="node3" class="node">
<title>Node3</title>
<g id="a_node3"><a xlink:href="core_2socket_2stream_2legacy_2_socket_client_8h.html" target="_top" xlink:title=" ">
<polygon fill="white" stroke="black" points="313,-514.5 313,-544.5 438,-544.5 438,-514.5 313,-514.5"/>
<text text-anchor="start" x="321" y="-532.5" font-family="Helvetica,sans-Serif" font-size="10.00">core/socket/stream</text>
<text text-anchor="middle" x="375.5" y="-521.5" font-family="Helvetica,sans-Serif" font-size="10.00">/legacy/SocketClient.h</text>
</a>
</g>
</g>
<!-- Node2&#45;&gt;Node3 -->
<g id="edge2" class="edge">
<title>Node2&#45;&gt;Node3</title>
<path fill="none" stroke="midnightblue" d="M755.58,-586.39C674.79,-574.51 533.67,-553.76 447.98,-541.16"/>
<polygon fill="midnightblue" stroke="midnightblue" points="448.48,-537.69 438.07,-539.7 447.46,-544.62 448.48,-537.69"/>
</g>
<!-- Node21 -->
<g id="node21" class="node">
<title>Node21</title>
<g id="a_node21"><a xlink:href="in6_2stream_2_client_socket_8h.html" target="_top" xlink:title=" ">
<polygon fill="white" stroke="black" points="649,-520 649,-539 810,-539 810,-520 649,-520"/>
<text text-anchor="middle" x="729.5" y="-527" font-family="Helvetica,sans-Serif" font-size="10.00">net/in6/stream/ClientSocket.h</text>
</a>
</g>
</g>
<!-- Node2&#45;&gt;Node21 -->
<g id="edge23" class="edge">
<title>Node2&#45;&gt;Node21</title>
<path fill="none" stroke="midnightblue" d="M798.41,-581.4C783.92,-570.7 764.07,-556.03 749.39,-545.19"/>
<polygon fill="midnightblue" stroke="midnightblue" points="751.14,-542.13 741.02,-539.01 746.98,-547.76 751.14,-542.13"/>
</g>
<!-- Node28 -->
<g id="node28" class="node">
<title>Node28</title>
<g id="a_node28"><a xlink:href="in6_2stream_2legacy_2config_2_config_socket_client_8h.html" target="_top" xlink:title=" ">
<polygon fill="white" stroke="black" points="828.5,-514.5 828.5,-544.5 982.5,-544.5 982.5,-514.5 828.5,-514.5"/>
<text text-anchor="start" x="836.5" y="-532.5" font-family="Helvetica,sans-Serif" font-size="10.00">net/in6/stream/legacy</text>
<text text-anchor="middle" x="905.5" y="-521.5" font-family="Helvetica,sans-Serif" font-size="10.00">/config/ConfigSocketClient.h</text>
</a>
</g>
</g>
<!-- Node2&#45;&gt;Node28 -->
<g id="edge30" class="edge">
<title>Node2&#45;&gt;Node28</title>
<path fill="none" stroke="midnightblue" d="M836.59,-581.4C848.82,-572.37 864.87,-560.51 878.4,-550.52"/>
<polygon fill="midnightblue" stroke="midnightblue" points="880.48,-553.33 886.44,-544.58 876.32,-547.7 880.48,-553.33"/>
</g>
<!-- Node4 -->
<g id="node4" class="node">
<title>Node4</title>
<g id="a_node4"><a xlink:href="core_2socket_2stream_2_socket_client_8h.html" target="_top" xlink:title=" ">
<polygon fill="white" stroke="black" points="174.5,-447.5 174.5,-477.5 284.5,-477.5 284.5,-447.5 174.5,-447.5"/>
<text text-anchor="start" x="182.5" y="-465.5" font-family="Helvetica,sans-Serif" font-size="10.00">core/socket/stream</text>
<text text-anchor="middle" x="229.5" y="-454.5" font-family="Helvetica,sans-Serif" font-size="10.00">/SocketClient.h</text>
</a>
</g>
</g>
<!-- Node3&#45;&gt;Node4 -->
<g id="edge3" class="edge">
<title>Node3&#45;&gt;Node4</title>
<path fill="none" stroke="midnightblue" d="M343.82,-514.4C322.3,-504.81 293.63,-492.05 270.38,-481.7"/>
<polygon fill="midnightblue" stroke="midnightblue" points="271.68,-478.45 261.12,-477.58 268.83,-484.84 271.68,-478.45"/>
</g>
<!-- Node5 -->
<g id="node5" class="node">
<title>Node5</title>
<g id="a_node5"><a xlink:href="legacy_2_socket_connector_8h.html" target="_top" xlink:title=" ">
<polygon fill="white" stroke="black" points="302.5,-447.5 302.5,-477.5 448.5,-477.5 448.5,-447.5 302.5,-447.5"/>
<text text-anchor="start" x="310.5" y="-465.5" font-family="Helvetica,sans-Serif" font-size="10.00">core/socket/stream</text>
<text text-anchor="middle" x="375.5" y="-454.5" font-family="Helvetica,sans-Serif" font-size="10.00">/legacy/SocketConnector.h</text>
</a>
</g>
</g>
<!-- Node3&#45;&gt;Node5 -->
<g id="edge4" class="edge">
<title>Node3&#45;&gt;Node5</title>
<path fill="none" stroke="midnightblue" d="M375.5,-514.4C375.5,-506.64 375.5,-496.81 375.5,-487.86"/>
<polygon fill="midnightblue" stroke="midnightblue" points="379,-487.58 375.5,-477.58 372,-487.58 379,-487.58"/>
</g>
<!-- Node6 -->
<g id="node6" class="node">
<title>Node6</title>
<g id="a_node6"><a xlink:href="_socket_connector_8h.html" target="_top" xlink:title=" ">
<polygon fill="white" stroke="black" points="38.5,-246.5 38.5,-276.5 148.5,-276.5 148.5,-246.5 38.5,-246.5"/>
<text text-anchor="start" x="46.5" y="-264.5" font-family="Helvetica,sans-Serif" font-size="10.00">core/socket/stream</text>
<text text-anchor="middle" x="93.5" y="-253.5" font-family="Helvetica,sans-Serif" font-size="10.00">/SocketConnector.h</text>
</a>
</g>
</g>
<!-- Node5&#45;&gt;Node6 -->
<g id="edge5" class="edge">
<title>Node5&#45;&gt;Node6</title>
<path fill="none" stroke="midnightblue" d="M337.66,-447.4C291.04,-428.74 211.09,-392.49 154.5,-344 134.84,-327.16 117.71,-302.91 106.65,-285.24"/>
<polygon fill="midnightblue" stroke="midnightblue" points="109.63,-283.4 101.44,-276.68 103.65,-287.04 109.63,-283.4"/>
</g>
<!-- Node12 -->
<g id="node12" class="node">
<title>Node12</title>
<g id="a_node12"><a xlink:href="stream_2legacy_2_socket_connection_8h.html" target="_top" xlink:title=" ">
<polygon fill="white" stroke="black" points="300,-380.5 300,-410.5 451,-410.5 451,-380.5 300,-380.5"/>
<text text-anchor="start" x="308" y="-398.5" font-family="Helvetica,sans-Serif" font-size="10.00">core/socket/stream</text>
<text text-anchor="middle" x="375.5" y="-387.5" font-family="Helvetica,sans-Serif" font-size="10.00">/legacy/SocketConnection.h</text>
</a>
</g>
</g>
<!-- Node5&#45;&gt;Node12 -->
<g id="edge12" class="edge">
<title>Node5&#45;&gt;Node12</title>
<path fill="none" stroke="midnightblue" d="M375.5,-447.4C375.5,-439.64 375.5,-429.81 375.5,-420.86"/>
<polygon fill="midnightblue" stroke="midnightblue" points="379,-420.58 375.5,-410.58 372,-420.58 379,-420.58"/>
</g>
<!-- Node7 -->
<g id="node7" class="node">
<title>Node7</title>
<g id="a_node7"><a xlink:href="_connect_event_receiver_8h.html" target="_top" xlink:title=" ">
<polygon fill="white" stroke="black" points="73,-179.5 73,-209.5 212,-209.5 212,-179.5 73,-179.5"/>
<text text-anchor="start" x="81" y="-197.5" font-family="Helvetica,sans-Serif" font-size="10.00">core/eventreceiver</text>
<text text-anchor="middle" x="142.5" y="-186.5" font-family="Helvetica,sans-Serif" font-size="10.00">/ConnectEventReceiver.h</text>
</a>
</g>
</g>
<!-- Node6&#45;&gt;Node7 -->
<g id="edge6" class="edge">
<title>Node6&#45;&gt;Node7</title>
<path fill="none" stroke="midnightblue" d="M104.13,-246.4C110.42,-238.05 118.54,-227.29 125.68,-217.81"/>
<polygon fill="midnightblue" stroke="midnightblue" points="128.66,-219.67 131.89,-209.58 123.07,-215.45 128.66,-219.67"/>
</g>
<!-- Node11 -->
<g id="node11" class="node">
<title>Node11</title>
<g id="a_node11"><a xlink:href="_init_connect_event_receiver_8h.html" target="_top" xlink:title=" ">
<polygon fill="white" stroke="black" points="0,-112.5 0,-142.5 155,-142.5 155,-112.5 0,-112.5"/>
<text text-anchor="start" x="8" y="-130.5" font-family="Helvetica,sans-Serif" font-size="10.00">core/eventreceiver</text>
<text text-anchor="middle" x="77.5" y="-119.5" font-family="Helvetica,sans-Serif" font-size="10.00">/InitConnectEventReceiver.h</text>
</a>
</g>
</g>
<!-- Node6&#45;&gt;Node11 -->
<g id="edge10" class="edge">
<title>Node6&#45;&gt;Node11</title>
<path fill="none" stroke="midnightblue" d="M82.33,-246.43C75.41,-236.79 67.17,-223.37 63.5,-210 58.26,-190.92 62.72,-168.77 67.95,-152.37"/>
<polygon fill="midnightblue" stroke="midnightblue" points="71.4,-153.12 71.41,-142.53 64.8,-150.8 71.4,-153.12"/>
</g>
<!-- Node8 -->
<g id="node8" class="node">
<title>Node8</title>
<g id="a_node8"><a xlink:href="_descriptor_event_receiver_8h.html" target="_top" xlink:title=" ">
<polygon fill="white" stroke="black" points="190.5,-118 190.5,-137 360.5,-137 360.5,-118 190.5,-118"/>
<text text-anchor="middle" x="275.5" y="-125" font-family="Helvetica,sans-Serif" font-size="10.00">core/DescriptorEventReceiver.h</text>
</a>
</g>
</g>
<!-- Node7&#45;&gt;Node8 -->
<g id="edge7" class="edge">
<title>Node7&#45;&gt;Node8</title>
<path fill="none" stroke="midnightblue" d="M171.36,-179.4C194.39,-168.14 226.39,-152.5 248.82,-141.54"/>
<polygon fill="midnightblue" stroke="midnightblue" points="250.65,-144.54 258.09,-137.01 247.57,-138.25 250.65,-144.54"/>
</g>
<!-- Node9 -->
<g id="node9" class="node">
<title>Node9</title>
<g id="a_node9"><a xlink:href="_event_receiver_8h.html" target="_top" xlink:title=" ">
<polygon fill="white" stroke="black" points="119.5,-56.5 119.5,-75.5 215.5,-75.5 215.5,-56.5 119.5,-56.5"/>
<text text-anchor="middle" x="167.5" y="-63.5" font-family="Helvetica,sans-Serif" font-size="10.00">EventReceiver.h</text>
</a>
</g>
</g>
<!-- Node8&#45;&gt;Node9 -->
<g id="edge8" class="edge">
<title>Node8&#45;&gt;Node9</title>
<path fill="none" stroke="midnightblue" d="M260.03,-117.98C242.22,-108.17 212.76,-91.93 191.87,-80.42"/>
<polygon fill="midnightblue" stroke="midnightblue" points="193.39,-77.27 182.95,-75.51 190.01,-83.4 193.39,-77.27"/>
</g>
<!-- Node10 -->
<g id="node10" class="node">
<title>Node10</title>
<g id="a_node10"><a xlink:href="_event_8h.html" target="_top" xlink:title=" ">
<polygon fill="white" stroke="black" points="141,-0.5 141,-19.5 194,-19.5 194,-0.5 141,-0.5"/>
<text text-anchor="middle" x="167.5" y="-7.5" font-family="Helvetica,sans-Serif" font-size="10.00">Event.h</text>
</a>
</g>
</g>
<!-- Node9&#45;&gt;Node10 -->
<g id="edge9" class="edge">
<title>Node9&#45;&gt;Node10</title>
<path fill="none" stroke="midnightblue" d="M167.5,-56.08C167.5,-49.01 167.5,-38.86 167.5,-29.99"/>
<polygon fill="midnightblue" stroke="midnightblue" points="171,-29.75 167.5,-19.75 164,-29.75 171,-29.75"/>
</g>
<!-- Node11&#45;&gt;Node9 -->
<g id="edge11" class="edge">
<title>Node11&#45;&gt;Node9</title>
<path fill="none" stroke="midnightblue" d="M98.83,-112.4C112.99,-103.04 131.51,-90.79 145.75,-81.38"/>
<polygon fill="midnightblue" stroke="midnightblue" points="147.99,-84.09 154.4,-75.66 144.13,-78.25 147.99,-84.09"/>
</g>
<!-- Node13 -->
<g id="node13" class="node">
<title>Node13</title>
<g id="a_node13"><a xlink:href="stream_2_socket_connection_8h.html" target="_top" xlink:title=" ">
<polygon fill="white" stroke="black" points="317.5,-313.5 317.5,-343.5 433.5,-343.5 433.5,-313.5 317.5,-313.5"/>
<text text-anchor="start" x="325.5" y="-331.5" font-family="Helvetica,sans-Serif" font-size="10.00">core/socket/stream</text>
<text text-anchor="middle" x="375.5" y="-320.5" font-family="Helvetica,sans-Serif" font-size="10.00">/SocketConnection.h</text>
</a>
</g>
</g>
<!-- Node12&#45;&gt;Node13 -->
<g id="edge13" class="edge">
<title>Node12&#45;&gt;Node13</title>
<path fill="none" stroke="midnightblue" d="M375.5,-380.4C375.5,-372.64 375.5,-362.81 375.5,-353.86"/>
<polygon fill="midnightblue" stroke="midnightblue" points="379,-353.58 375.5,-343.58 372,-353.58 379,-353.58"/>
</g>
<!-- Node15 -->
<g id="node15" class="node">
<title>Node15</title>
<g id="a_node15"><a xlink:href="legacy_2_socket_reader_8h.html" target="_top" xlink:title=" ">
<polygon fill="white" stroke="black" points="452,-313.5 452,-343.5 583,-343.5 583,-313.5 452,-313.5"/>
<text text-anchor="start" x="460" y="-331.5" font-family="Helvetica,sans-Serif" font-size="10.00">core/socket/stream</text>
<text text-anchor="middle" x="517.5" y="-320.5" font-family="Helvetica,sans-Serif" font-size="10.00">/legacy/SocketReader.h</text>
</a>
</g>
</g>
<!-- Node12&#45;&gt;Node15 -->
<g id="edge15" class="edge">
<title>Node12&#45;&gt;Node15</title>
<path fill="none" stroke="midnightblue" d="M406.31,-380.4C427.15,-370.86 454.88,-358.16 477.43,-347.84"/>
<polygon fill="midnightblue" stroke="midnightblue" points="479.11,-350.92 486.75,-343.58 476.2,-344.56 479.11,-350.92"/>
</g>
<!-- Node18 -->
<g id="node18" class="node">
<title>Node18</title>
<g id="a_node18"><a xlink:href="legacy_2_socket_writer_8h.html" target="_top" xlink:title=" ">
<polygon fill="white" stroke="black" points="163.5,-313.5 163.5,-343.5 289.5,-343.5 289.5,-313.5 163.5,-313.5"/>
<text text-anchor="start" x="171.5" y="-331.5" font-family="Helvetica,sans-Serif" font-size="10.00">core/socket/stream</text>
<text text-anchor="middle" x="226.5" y="-320.5" font-family="Helvetica,sans-Serif" font-size="10.00">/legacy/SocketWriter.h</text>
</a>
</g>
</g>
<!-- Node12&#45;&gt;Node18 -->
<g id="edge19" class="edge">
<title>Node12&#45;&gt;Node18</title>
<path fill="none" stroke="midnightblue" d="M343.17,-380.4C321.2,-370.81 291.94,-358.05 268.22,-347.7"/>
<polygon fill="midnightblue" stroke="midnightblue" points="269.33,-344.37 258.77,-343.58 266.53,-350.78 269.33,-344.37"/>
</g>
<!-- Node14 -->
<g id="node14" class="node">
<title>Node14</title>
<g id="a_node14"><a xlink:href="_socket_connection_8h.html" target="_top" xlink:title=" ">
<polygon fill="white" stroke="black" points="295,-252 295,-271 466,-271 466,-252 295,-252"/>
<text text-anchor="middle" x="380.5" y="-259" font-family="Helvetica,sans-Serif" font-size="10.00">core/socket/SocketConnection.h</text>
</a>
</g>
</g>
<!-- Node13&#45;&gt;Node14 -->
<g id="edge14" class="edge">
<title>Node13&#45;&gt;Node14</title>
<path fill="none" stroke="midnightblue" d="M376.58,-313.4C377.31,-303.96 378.27,-291.45 379.06,-281.19"/>
<polygon fill="midnightblue" stroke="midnightblue" points="382.55,-281.43 379.83,-271.19 375.57,-280.9 382.55,-281.43"/>
</g>
<!-- Node16 -->
<g id="node16" class="node">
<title>Node16</title>
<g id="a_node16"><a xlink:href="_socket_reader_8h.html" target="_top" xlink:title=" ">
<polygon fill="white" stroke="black" points="484.5,-246.5 484.5,-276.5 594.5,-276.5 594.5,-246.5 484.5,-246.5"/>
<text text-anchor="start" x="492.5" y="-264.5" font-family="Helvetica,sans-Serif" font-size="10.00">core/socket/stream</text>
<text text-anchor="middle" x="539.5" y="-253.5" font-family="Helvetica,sans-Serif" font-size="10.00">/SocketReader.h</text>
</a>
</g>
</g>
<!-- Node15&#45;&gt;Node16 -->
<g id="edge16" class="edge">
<title>Node15&#45;&gt;Node16</title>
<path fill="none" stroke="midnightblue" d="M522.27,-313.4C524.95,-305.47 528.37,-295.38 531.45,-286.27"/>
<polygon fill="midnightblue" stroke="midnightblue" points="534.84,-287.17 534.74,-276.58 528.21,-284.93 534.84,-287.17"/>
</g>
<!-- Node17 -->
<g id="node17" class="node">
<title>Node17</title>
<g id="a_node17"><a xlink:href="_read_event_receiver_8h.html" target="_top" xlink:title=" ">
<polygon fill="white" stroke="black" points="425.5,-179.5 425.5,-209.5 549.5,-209.5 549.5,-179.5 425.5,-179.5"/>
<text text-anchor="start" x="433.5" y="-197.5" font-family="Helvetica,sans-Serif" font-size="10.00">core/eventreceiver</text>
<text text-anchor="middle" x="487.5" y="-186.5" font-family="Helvetica,sans-Serif" font-size="10.00">/ReadEventReceiver.h</text>
</a>
</g>
</g>
<!-- Node16&#45;&gt;Node17 -->
<g id="edge17" class="edge">
<title>Node16&#45;&gt;Node17</title>
<path fill="none" stroke="midnightblue" d="M528.22,-246.4C521.47,-237.96 512.75,-227.07 505.12,-217.52"/>
<polygon fill="midnightblue" stroke="midnightblue" points="507.74,-215.2 498.76,-209.58 502.28,-219.57 507.74,-215.2"/>
</g>
<!-- Node17&#45;&gt;Node8 -->
<g id="edge18" class="edge">
<title>Node17&#45;&gt;Node8</title>
<path fill="none" stroke="midnightblue" d="M441.76,-179.48C403.26,-167.67 348.89,-151 312.94,-139.98"/>
<polygon fill="midnightblue" stroke="midnightblue" points="313.9,-136.61 303.32,-137.03 311.85,-143.31 313.9,-136.61"/>
</g>
<!-- Node19 -->
<g id="node19" class="node">
<title>Node19</title>
<g id="a_node19"><a xlink:href="_socket_writer_8h.html" target="_top" xlink:title=" ">
<polygon fill="white" stroke="black" points="166.5,-246.5 166.5,-276.5 276.5,-276.5 276.5,-246.5 166.5,-246.5"/>
<text text-anchor="start" x="174.5" y="-264.5" font-family="Helvetica,sans-Serif" font-size="10.00">core/socket/stream</text>
<text text-anchor="middle" x="221.5" y="-253.5" font-family="Helvetica,sans-Serif" font-size="10.00">/SocketWriter.h</text>
</a>
</g>
</g>
<!-- Node18&#45;&gt;Node19 -->
<g id="edge20" class="edge">
<title>Node18&#45;&gt;Node19</title>
<path fill="none" stroke="midnightblue" d="M225.42,-313.4C224.81,-305.56 224.05,-295.6 223.35,-286.57"/>
<polygon fill="midnightblue" stroke="midnightblue" points="226.84,-286.28 222.58,-276.58 219.86,-286.82 226.84,-286.28"/>
</g>
<!-- Node20 -->
<g id="node20" class="node">
<title>Node20</title>
<g id="a_node20"><a xlink:href="_write_event_receiver_8h.html" target="_top" xlink:title=" ">
<polygon fill="white" stroke="black" points="230,-179.5 230,-209.5 355,-209.5 355,-179.5 230,-179.5"/>
<text text-anchor="start" x="238" y="-197.5" font-family="Helvetica,sans-Serif" font-size="10.00">core/eventreceiver</text>
<text text-anchor="middle" x="292.5" y="-186.5" font-family="Helvetica,sans-Serif" font-size="10.00">/WriteEventReceiver.h</text>
</a>
</g>
</g>
<!-- Node19&#45;&gt;Node20 -->
<g id="edge21" class="edge">
<title>Node19&#45;&gt;Node20</title>
<path fill="none" stroke="midnightblue" d="M236.91,-246.4C246.49,-237.62 258.99,-226.18 269.7,-216.37"/>
<polygon fill="midnightblue" stroke="midnightblue" points="272.11,-218.91 277.12,-209.58 267.38,-213.75 272.11,-218.91"/>
</g>
<!-- Node20&#45;&gt;Node8 -->
<g id="edge22" class="edge">
<title>Node20&#45;&gt;Node8</title>
<path fill="none" stroke="midnightblue" d="M288.81,-179.4C286.34,-169.96 283.07,-157.45 280.39,-147.19"/>
<polygon fill="midnightblue" stroke="midnightblue" points="283.69,-145.98 277.77,-137.19 276.92,-147.75 283.69,-145.98"/>
</g>
<!-- Node22 -->
<g id="node22" class="node">
<title>Node22</title>
<g id="a_node22"><a xlink:href="_client_socket_8h.html" target="_top" xlink:title=" ">
<polygon fill="white" stroke="black" points="550,-453 550,-472 655,-472 655,-453 550,-453"/>
<text text-anchor="middle" x="602.5" y="-460" font-family="Helvetica,sans-Serif" font-size="10.00">net/ClientSocket.h</text>
</a>
</g>
</g>
<!-- Node21&#45;&gt;Node22 -->
<g id="edge24" class="edge">
<title>Node21&#45;&gt;Node22</title>
<path fill="none" stroke="midnightblue" d="M712.64,-519.87C691.1,-508.84 653.6,-489.66 628.42,-476.77"/>
<polygon fill="midnightblue" stroke="midnightblue" points="629.93,-473.61 619.43,-472.17 626.74,-479.84 629.93,-473.61"/>
</g>
<!-- Node23 -->
<g id="node23" class="node">
<title>Node23</title>
<g id="a_node23"><a xlink:href="net_2in6_2stream_2_socket_8h.html" target="_top" xlink:title=" ">
<polygon fill="white" stroke="black" points="673.5,-453 673.5,-472 805.5,-472 805.5,-453 673.5,-453"/>
<text text-anchor="middle" x="739.5" y="-460" font-family="Helvetica,sans-Serif" font-size="10.00">net/in6/stream/Socket.h</text>
</a>
</g>
</g>
<!-- Node21&#45;&gt;Node23 -->
<g id="edge25" class="edge">
<title>Node21&#45;&gt;Node23</title>
<path fill="none" stroke="midnightblue" d="M730.85,-519.73C732.32,-510.18 734.71,-494.62 736.61,-482.28"/>
<polygon fill="midnightblue" stroke="midnightblue" points="740.11,-482.54 738.17,-472.13 733.19,-481.48 740.11,-482.54"/>
</g>
<!-- Node24 -->
<g id="node24" class="node">
<title>Node24</title>
<g id="a_node24"><a xlink:href="core_2socket_2_socket_8h.html" target="_top" xlink:title=" ">
<polygon fill="white" stroke="black" points="605.5,-386 605.5,-405 721.5,-405 721.5,-386 605.5,-386"/>
<text text-anchor="middle" x="663.5" y="-393" font-family="Helvetica,sans-Serif" font-size="10.00">core/socket/Socket.h</text>
</a>
</g>
</g>
<!-- Node23&#45;&gt;Node24 -->
<g id="edge26" class="edge">
<title>Node23&#45;&gt;Node24</title>
<path fill="none" stroke="midnightblue" d="M729.25,-452.73C717.06,-442.31 696.48,-424.71 681.59,-411.97"/>
<polygon fill="midnightblue" stroke="midnightblue" points="683.46,-408.97 673.59,-405.13 678.91,-414.29 683.46,-408.97"/>
</g>
<!-- Node26 -->
<g id="node26" class="node">
<title>Node26</title>
<g id="a_node26"><a xlink:href="net_2in6_2_socket_address_8h.html" target="_top" xlink:title=" ">
<polygon fill="white" stroke="black" points="719.5,-319 719.5,-338 853.5,-338 853.5,-319 719.5,-319"/>
<text text-anchor="middle" x="786.5" y="-326" font-family="Helvetica,sans-Serif" font-size="10.00">net/in6/SocketAddress.h</text>
</a>
</g>
</g>
<!-- Node23&#45;&gt;Node26 -->
<g id="edge28" class="edge">
<title>Node23&#45;&gt;Node26</title>
<path fill="none" stroke="midnightblue" d="M742.58,-452.84C750.15,-431.58 769.78,-376.46 780.04,-347.65"/>
<polygon fill="midnightblue" stroke="midnightblue" points="783.41,-348.62 783.47,-338.02 776.81,-346.27 783.41,-348.62"/>
</g>
<!-- Node25 -->
<g id="node25" class="node">
<title>Node25</title>
<g id="a_node25"><a xlink:href="_descriptor_8h.html" target="_top" xlink:title=" ">
<polygon fill="white" stroke="black" points="601.5,-319 601.5,-338 701.5,-338 701.5,-319 601.5,-319"/>
<text text-anchor="middle" x="651.5" y="-326" font-family="Helvetica,sans-Serif" font-size="10.00">core/Descriptor.h</text>
</a>
</g>
</g>
<!-- Node24&#45;&gt;Node25 -->
<g id="edge27" class="edge">
<title>Node24&#45;&gt;Node25</title>
<path fill="none" stroke="midnightblue" d="M661.88,-385.73C660.12,-376.18 657.24,-360.62 654.97,-348.28"/>
<polygon fill="midnightblue" stroke="midnightblue" points="658.35,-347.33 653.09,-338.13 651.47,-348.6 658.35,-347.33"/>
</g>
<!-- Node27 -->
<g id="node27" class="node">
<title>Node27</title>
<g id="a_node27"><a xlink:href="core_2socket_2_socket_address_8h.html" target="_top" xlink:title=" ">
<polygon fill="white" stroke="black" points="709,-252 709,-271 864,-271 864,-252 709,-252"/>
<text text-anchor="middle" x="786.5" y="-259" font-family="Helvetica,sans-Serif" font-size="10.00">core/socket/SocketAddress.h</text>
</a>
</g>
</g>
<!-- Node26&#45;&gt;Node27 -->
<g id="edge29" class="edge">
<title>Node26&#45;&gt;Node27</title>
<path fill="none" stroke="midnightblue" d="M786.5,-318.73C786.5,-309.18 786.5,-293.62 786.5,-281.28"/>
<polygon fill="midnightblue" stroke="midnightblue" points="790,-281.13 786.5,-271.13 783,-281.13 790,-281.13"/>
</g>
<!-- Node29 -->
<g id="node29" class="node">
<title>Node29</title>
<g id="a_node29"><a xlink:href="_config_legacy_8h.html" target="_top" xlink:title=" ">
<polygon fill="white" stroke="black" points="829.5,-453 829.5,-472 971.5,-472 971.5,-453 829.5,-453"/>
<text text-anchor="middle" x="900.5" y="-460" font-family="Helvetica,sans-Serif" font-size="10.00">net/config/ConfigLegacy.h</text>
</a>
</g>
</g>
<!-- Node28&#45;&gt;Node29 -->
<g id="edge31" class="edge">
<title>Node28&#45;&gt;Node29</title>
<path fill="none" stroke="midnightblue" d="M904.42,-514.4C903.69,-504.96 902.73,-492.45 901.94,-482.19"/>
<polygon fill="midnightblue" stroke="midnightblue" points="905.43,-481.9 901.17,-472.19 898.45,-482.43 905.43,-481.9"/>
</g>
<!-- Node31 -->
<g id="node31" class="node">
<title>Node31</title>
<g id="a_node31"><a xlink:href="in6_2stream_2config_2_config_client_socket_8h.html" target="_top" xlink:title=" ">
<polygon fill="white" stroke="black" points="1115,-447.5 1115,-477.5 1236,-477.5 1236,-447.5 1115,-447.5"/>
<text text-anchor="start" x="1123" y="-465.5" font-family="Helvetica,sans-Serif" font-size="10.00">net/in6/stream/config</text>
<text text-anchor="middle" x="1175.5" y="-454.5" font-family="Helvetica,sans-Serif" font-size="10.00">/ConfigClientSocket.h</text>
</a>
</g>
</g>
<!-- Node28&#45;&gt;Node31 -->
<g id="edge33" class="edge">
<title>Node28&#45;&gt;Node31</title>
<path fill="none" stroke="midnightblue" d="M963.75,-514.48C1005.84,-504.34 1062.82,-490.63 1107.08,-479.97"/>
<polygon fill="midnightblue" stroke="midnightblue" points="1107.98,-483.35 1116.89,-477.61 1106.34,-476.55 1107.98,-483.35"/>
</g>
<!-- Node30 -->
<g id="node30" class="node">
<title>Node30</title>
<g id="a_node30"><a xlink:href="_config_base_8h.html" target="_top" xlink:title=" ">
<polygon fill="white" stroke="black" points="1109,-252 1109,-271 1242,-271 1242,-252 1109,-252"/>
<text text-anchor="middle" x="1175.5" y="-259" font-family="Helvetica,sans-Serif" font-size="10.00">net/config/ConfigBase.h</text>
</a>
</g>
</g>
<!-- Node29&#45;&gt;Node30 -->
<g id="edge32" class="edge">
<title>Node29&#45;&gt;Node30</title>
<path fill="none" stroke="midnightblue" d="M897.62,-452.77C892.94,-436.82 885.61,-402.55 900.5,-380 944.15,-313.89 1033.46,-284.84 1098.5,-272.17"/>
<polygon fill="midnightblue" stroke="midnightblue" points="1099.52,-275.53 1108.72,-270.27 1098.25,-268.65 1099.52,-275.53"/>
</g>
<!-- Node32 -->
<g id="node32" class="node">
<title>Node32</title>
<g id="a_node32"><a xlink:href="_config_address_local_8h.html" target="_top" xlink:title=" ">
<polygon fill="white" stroke="black" points="1433,-380.5 1433,-410.5 1572,-410.5 1572,-380.5 1433,-380.5"/>
<text text-anchor="start" x="1441" y="-398.5" font-family="Helvetica,sans-Serif" font-size="10.00">net/config/ConfigAddress</text>
<text text-anchor="middle" x="1502.5" y="-387.5" font-family="Helvetica,sans-Serif" font-size="10.00">Local.h</text>
</a>
</g>
</g>
<!-- Node31&#45;&gt;Node32 -->
<g id="edge34" class="edge">
<title>Node31&#45;&gt;Node32</title>
<path fill="none" stroke="midnightblue" d="M1236.24,-449.43C1288.77,-438.98 1365.11,-423.81 1422.59,-412.38"/>
<polygon fill="midnightblue" stroke="midnightblue" points="1423.6,-415.75 1432.73,-410.37 1422.24,-408.89 1423.6,-415.75"/>
</g>
<!-- Node34 -->
<g id="node34" class="node">
<title>Node34</title>
<g id="a_node34"><a xlink:href="_config_address_remote_8h.html" target="_top" xlink:title=" ">
<polygon fill="white" stroke="black" points="1276,-380.5 1276,-410.5 1415,-410.5 1415,-380.5 1276,-380.5"/>
<text text-anchor="start" x="1284" y="-398.5" font-family="Helvetica,sans-Serif" font-size="10.00">net/config/ConfigAddress</text>
<text text-anchor="middle" x="1345.5" y="-387.5" font-family="Helvetica,sans-Serif" font-size="10.00">Remote.h</text>
</a>
</g>
</g>
<!-- Node31&#45;&gt;Node34 -->
<g id="edge37" class="edge">
<title>Node31&#45;&gt;Node34</title>
<path fill="none" stroke="midnightblue" d="M1212.39,-447.4C1237.89,-437.64 1272.02,-424.59 1299.33,-414.15"/>
<polygon fill="midnightblue" stroke="midnightblue" points="1300.59,-417.42 1308.68,-410.58 1298.09,-410.88 1300.59,-417.42"/>
</g>
<!-- Node35 -->
<g id="node35" class="node">
<title>Node35</title>
<g id="a_node35"><a xlink:href="_config_connection_8h.html" target="_top" xlink:title=" ">
<polygon fill="white" stroke="black" points="1093.5,-386 1093.5,-405 1257.5,-405 1257.5,-386 1093.5,-386"/>
<text text-anchor="middle" x="1175.5" y="-393" font-family="Helvetica,sans-Serif" font-size="10.00">net/config/ConfigConnection.h</text>
</a>
</g>
</g>
<!-- Node31&#45;&gt;Node35 -->
<g id="edge39" class="edge">
<title>Node31&#45;&gt;Node35</title>
<path fill="none" stroke="midnightblue" d="M1175.5,-447.4C1175.5,-438.06 1175.5,-425.71 1175.5,-415.52"/>
<polygon fill="midnightblue" stroke="midnightblue" points="1179,-415.19 1175.5,-405.19 1172,-415.19 1179,-415.19"/>
</g>
<!-- Node36 -->
<g id="node36" class="node">
<title>Node36</title>
<g id="a_node36"><a xlink:href="in6_2config_2_config_address_8h.html" target="_top" xlink:title=" ">
<polygon fill="white" stroke="black" points="909.5,-386 909.5,-405 1075.5,-405 1075.5,-386 909.5,-386"/>
<text text-anchor="middle" x="992.5" y="-393" font-family="Helvetica,sans-Serif" font-size="10.00">net/in6/config/ConfigAddress.h</text>
</a>
</g>
</g>
<!-- Node31&#45;&gt;Node36 -->
<g id="edge41" class="edge">
<title>Node31&#45;&gt;Node36</title>
<path fill="none" stroke="midnightblue" d="M1135.79,-447.4C1102.97,-435.74 1056.9,-419.37 1025.94,-408.38"/>
<polygon fill="midnightblue" stroke="midnightblue" points="1027.05,-405.06 1016.45,-405.01 1024.7,-411.65 1027.05,-405.06"/>
</g>
<!-- Node33 -->
<g id="node33" class="node">
<title>Node33</title>
<g id="a_node33"><a xlink:href="config_2_config_address_8h.html" target="_top" xlink:title=" ">
<polygon fill="white" stroke="black" points="1271.5,-319 1271.5,-338 1419.5,-338 1419.5,-319 1271.5,-319"/>
<text text-anchor="middle" x="1345.5" y="-326" font-family="Helvetica,sans-Serif" font-size="10.00">net/config/ConfigAddress.h</text>
</a>
</g>
</g>
<!-- Node32&#45;&gt;Node33 -->
<g id="edge35" class="edge">
<title>Node32&#45;&gt;Node33</title>
<path fill="none" stroke="midnightblue" d="M1468.43,-380.4C1440.76,-368.94 1402.11,-352.94 1375.58,-341.95"/>
<polygon fill="midnightblue" stroke="midnightblue" points="1376.63,-338.6 1366.05,-338.01 1373.95,-345.07 1376.63,-338.6"/>
</g>
<!-- Node33&#45;&gt;Node30 -->
<g id="edge36" class="edge">
<title>Node33&#45;&gt;Node30</title>
<path fill="none" stroke="midnightblue" d="M1322.93,-318.87C1293.25,-307.52 1240.95,-287.52 1207.28,-274.65"/>
<polygon fill="midnightblue" stroke="midnightblue" points="1208.49,-271.37 1197.9,-271.06 1205.99,-277.9 1208.49,-271.37"/>
</g>
<!-- Node34&#45;&gt;Node33 -->
<g id="edge38" class="edge">
<title>Node34&#45;&gt;Node33</title>
<path fill="none" stroke="midnightblue" d="M1345.5,-380.4C1345.5,-371.06 1345.5,-358.71 1345.5,-348.52"/>
<polygon fill="midnightblue" stroke="midnightblue" points="1349,-348.19 1345.5,-338.19 1342,-348.19 1349,-348.19"/>
</g>
<!-- Node35&#45;&gt;Node30 -->
<g id="edge40" class="edge">
<title>Node35&#45;&gt;Node30</title>
<path fill="none" stroke="midnightblue" d="M1175.5,-385.84C1175.5,-364.67 1175.5,-309.95 1175.5,-281.03"/>
<polygon fill="midnightblue" stroke="midnightblue" points="1179,-281.02 1175.5,-271.02 1172,-281.02 1179,-281.02"/>
</g>
<!-- Node36&#45;&gt;Node26 -->
<g id="edge42" class="edge">
<title>Node36&#45;&gt;Node26</title>
<path fill="none" stroke="midnightblue" d="M965.14,-385.87C928.64,-374.35 863.9,-353.92 823.19,-341.08"/>
<polygon fill="midnightblue" stroke="midnightblue" points="824.23,-337.74 813.64,-338.06 822.12,-344.41 824.23,-337.74"/>
</g>
<!-- Node38 -->
<g id="node38" class="node">
<title>Node38</title>
<g id="a_node38"><a xlink:href="web_2http_2client_2_socket_context_factory_8h.html" target="_top" xlink:title=" ">
<polygon fill="white" stroke="black" points="1571,-514.5 1571,-544.5 1734,-544.5 1734,-514.5 1571,-514.5"/>
<text text-anchor="start" x="1579" y="-532.5" font-family="Helvetica,sans-Serif" font-size="10.00">web/http/client/SocketContext</text>
<text text-anchor="middle" x="1652.5" y="-521.5" font-family="Helvetica,sans-Serif" font-size="10.00">Factory.h</text>
</a>
</g>
</g>
<!-- Node37&#45;&gt;Node38 -->
<g id="edge44" class="edge">
<title>Node37&#45;&gt;Node38</title>
<path fill="none" stroke="midnightblue" d="M1338.2,-586.94C1395.59,-576.63 1493.11,-559.12 1564.33,-546.33"/>
<polygon fill="midnightblue" stroke="midnightblue" points="1564.98,-549.77 1574.2,-544.56 1563.74,-542.88 1564.98,-549.77"/>
</g>
<!-- Node39 -->
<g id="node39" class="node">
<title>Node39</title>
<g id="a_node39"><a xlink:href="web_2http_2_socket_context_factory_8h.html" target="_top" xlink:title=" ">
<polygon fill="white" stroke="black" points="1564.5,-453 1564.5,-472 1740.5,-472 1740.5,-453 1564.5,-453"/>
<text text-anchor="middle" x="1652.5" y="-460" font-family="Helvetica,sans-Serif" font-size="10.00">web/http/SocketContextFactory.h</text>
</a>
</g>
</g>
<!-- Node38&#45;&gt;Node39 -->
<g id="edge45" class="edge">
<title>Node38&#45;&gt;Node39</title>
<path fill="none" stroke="midnightblue" d="M1652.5,-514.4C1652.5,-505.06 1652.5,-492.71 1652.5,-482.52"/>
<polygon fill="midnightblue" stroke="midnightblue" points="1656,-482.19 1652.5,-472.19 1649,-482.19 1656,-482.19"/>
</g>
<!-- Node41 -->
<g id="node41" class="node">
<title>Node41</title>
<g id="a_node41"><a xlink:href="client_2_socket_context_8hpp.html" target="_top" xlink:title=" ">
<polygon fill="white" stroke="black" points="1758.5,-453 1758.5,-472 1942.5,-472 1942.5,-453 1758.5,-453"/>
<text text-anchor="middle" x="1850.5" y="-460" font-family="Helvetica,sans-Serif" font-size="10.00">web/http/client/SocketContext.hpp</text>
</a>
</g>
</g>
<!-- Node38&#45;&gt;Node41 -->
<g id="edge47" class="edge">
<title>Node38&#45;&gt;Node41</title>
<path fill="none" stroke="midnightblue" d="M1695.46,-514.4C1731.13,-502.69 1781.26,-486.23 1814.76,-475.23"/>
<polygon fill="midnightblue" stroke="midnightblue" points="1816.18,-478.45 1824.59,-472.01 1813.99,-471.8 1816.18,-478.45"/>
</g>
<!-- Node40 -->
<g id="node40" class="node">
<title>Node40</title>
<g id="a_node40"><a xlink:href="core_2socket_2_socket_context_factory_8h.html" target="_top" xlink:title=" ">
<polygon fill="white" stroke="black" points="1590.5,-380.5 1590.5,-410.5 1736.5,-410.5 1736.5,-380.5 1590.5,-380.5"/>
<text text-anchor="start" x="1598.5" y="-398.5" font-family="Helvetica,sans-Serif" font-size="10.00">core/socket/SocketContext</text>
<text text-anchor="middle" x="1663.5" y="-387.5" font-family="Helvetica,sans-Serif" font-size="10.00">Factory.h</text>
</a>
</g>
</g>
<!-- Node39&#45;&gt;Node40 -->
<g id="edge46" class="edge">
<title>Node39&#45;&gt;Node40</title>
<path fill="none" stroke="midnightblue" d="M1653.98,-452.73C1655.37,-444.54 1657.51,-431.92 1659.4,-420.71"/>
<polygon fill="midnightblue" stroke="midnightblue" points="1662.9,-421.03 1661.12,-410.59 1656,-419.86 1662.9,-421.03"/>
</g>
<!-- Node42 -->
<g id="node42" class="node">
<title>Node42</title>
<g id="a_node42"><a xlink:href="web_2http_2client_2_socket_context_8h.html" target="_top" xlink:title=" ">
<polygon fill="white" stroke="black" points="1764.5,-386 1764.5,-405 1936.5,-405 1936.5,-386 1764.5,-386"/>
<text text-anchor="middle" x="1850.5" y="-393" font-family="Helvetica,sans-Serif" font-size="10.00">web/http/client/SocketContext.h</text>
</a>
</g>
</g>
<!-- Node41&#45;&gt;Node42 -->
<g id="edge48" class="edge">
<title>Node41&#45;&gt;Node42</title>
<path fill="none" stroke="midnightblue" d="M1850.5,-452.73C1850.5,-443.18 1850.5,-427.62 1850.5,-415.28"/>
<polygon fill="midnightblue" stroke="midnightblue" points="1854,-415.13 1850.5,-405.13 1847,-415.13 1854,-415.13"/>
</g>
<!-- Node43 -->
<g id="node43" class="node">
<title>Node43</title>
<g id="a_node43"><a xlink:href="web_2http_2_socket_context_8h.html" target="_top" xlink:title=" ">
<polygon fill="white" stroke="black" points="1860.5,-319 1860.5,-338 2002.5,-338 2002.5,-319 1860.5,-319"/>
<text text-anchor="middle" x="1931.5" y="-326" font-family="Helvetica,sans-Serif" font-size="10.00">web/http/SocketContext.h</text>
</a>
</g>
</g>
<!-- Node42&#45;&gt;Node43 -->
<g id="edge49" class="edge">
<title>Node42&#45;&gt;Node43</title>
<path fill="none" stroke="midnightblue" d="M1861.42,-385.73C1874.54,-375.21 1896.76,-357.38 1912.66,-344.62"/>
<polygon fill="midnightblue" stroke="midnightblue" points="1915.14,-347.12 1920.75,-338.13 1910.76,-341.66 1915.14,-347.12"/>
</g>
<!-- Node45 -->
<g id="node45" class="node">
<title>Node45</title>
<g id="a_node45"><a xlink:href="_response_parser_8h.html" target="_top" xlink:title=" ">
<polygon fill="white" stroke="black" points="1698.5,-313.5 1698.5,-343.5 1838.5,-343.5 1838.5,-313.5 1698.5,-313.5"/>
<text text-anchor="start" x="1706.5" y="-331.5" font-family="Helvetica,sans-Serif" font-size="10.00">web/http/client/Response</text>
<text text-anchor="middle" x="1768.5" y="-320.5" font-family="Helvetica,sans-Serif" font-size="10.00">Parser.h</text>
</a>
</g>
</g>
<!-- Node42&#45;&gt;Node45 -->
<g id="edge51" class="edge">
<title>Node42&#45;&gt;Node45</title>
<path fill="none" stroke="midnightblue" d="M1839.44,-385.73C1827.93,-376.61 1809.5,-362 1794.31,-349.96"/>
<polygon fill="midnightblue" stroke="midnightblue" points="1796.28,-347.06 1786.27,-343.59 1791.94,-352.54 1796.28,-347.06"/>
</g>
<!-- Node44 -->
<g id="node44" class="node">
<title>Node44</title>
<g id="a_node44"><a xlink:href="core_2socket_2_socket_context_8h.html" target="_top" xlink:title=" ">
<polygon fill="white" stroke="black" points="1858,-252 1858,-271 2013,-271 2013,-252 1858,-252"/>
<text text-anchor="middle" x="1935.5" y="-259" font-family="Helvetica,sans-Serif" font-size="10.00">core/socket/SocketContext.h</text>
</a>
</g>
</g>
<!-- Node43&#45;&gt;Node44 -->
<g id="edge50" class="edge">
<title>Node43&#45;&gt;Node44</title>
<path fill="none" stroke="midnightblue" d="M1932.04,-318.73C1932.63,-309.18 1933.59,-293.62 1934.34,-281.28"/>
<polygon fill="midnightblue" stroke="midnightblue" points="1937.85,-281.32 1934.97,-271.13 1930.86,-280.89 1937.85,-281.32"/>
</g>
<!-- Node46 -->
<g id="node46" class="node">
<title>Node46</title>
<g id="a_node46"><a xlink:href="_cookie_options_8h.html" target="_top" xlink:title=" ">
<polygon fill="white" stroke="black" points="1697,-252 1697,-271 1840,-271 1840,-252 1697,-252"/>
<text text-anchor="middle" x="1768.5" y="-259" font-family="Helvetica,sans-Serif" font-size="10.00">web/http/CookieOptions.h</text>
</a>
</g>
</g>
<!-- Node45&#45;&gt;Node46 -->
<g id="edge52" class="edge">
<title>Node45&#45;&gt;Node46</title>
<path fill="none" stroke="midnightblue" d="M1768.5,-313.4C1768.5,-304.06 1768.5,-291.71 1768.5,-281.52"/>
<polygon fill="midnightblue" stroke="midnightblue" points="1772,-281.19 1768.5,-271.19 1765,-281.19 1772,-281.19"/>
</g>
<!-- Node47 -->
<g id="node47" class="node">
<title>Node47</title>
<g id="a_node47"><a xlink:href="_parser_8h.html" target="_top" xlink:title=" ">
<polygon fill="white" stroke="black" points="1576.5,-252 1576.5,-271 1678.5,-271 1678.5,-252 1576.5,-252"/>
<text text-anchor="middle" x="1627.5" y="-259" font-family="Helvetica,sans-Serif" font-size="10.00">web/http/Parser.h</text>
</a>
</g>
</g>
<!-- Node45&#45;&gt;Node47 -->
<g id="edge53" class="edge">
<title>Node45&#45;&gt;Node47</title>
<path fill="none" stroke="midnightblue" d="M1737.91,-313.4C1713.27,-302.04 1678.95,-286.22 1655.14,-275.24"/>
<polygon fill="midnightblue" stroke="midnightblue" points="1656.5,-272.02 1645.95,-271.01 1653.57,-278.37 1656.5,-272.02"/>
</g>
</g>
</svg>
