<?xml version="1.0" encoding="UTF-8" standalone="no"?>
<!DOCTYPE svg PUBLIC "-//W3C//DTD SVG 1.1//EN"
 "http://www.w3.org/Graphics/SVG/1.1/DTD/svg11.dtd">
<!-- Generated by graphviz version 2.43.0 (0)
 -->
<!-- Title: web/http/legacy/un/Client.h Pages: 1 -->
<svg width="1362pt" height="553pt"
 viewBox="0.00 0.00 1362.00 553.00" xmlns="http://www.w3.org/2000/svg" xmlns:xlink="http://www.w3.org/1999/xlink">
<g id="graph0" class="graph" transform="scale(1 1) rotate(0) translate(4 549)">
<title>web/http/legacy/un/Client.h</title>
<polygon fill="white" stroke="transparent" points="-4,4 -4,-549 1358,-549 1358,4 -4,4"/>
<!-- Node1 -->
<g id="node1" class="node">
<title>Node1</title>
<g id="a_node1"><a xlink:title=" ">
<polygon fill="#bfbfbf" stroke="black" points="689,-514.5 689,-544.5 799,-544.5 799,-514.5 689,-514.5"/>
<text text-anchor="start" x="697" y="-532.5" font-family="Helvetica,sans-Serif" font-size="10.00">web/http/legacy/un</text>
<text text-anchor="middle" x="744" y="-521.5" font-family="Helvetica,sans-Serif" font-size="10.00">/Client.h</text>
</a>
</g>
</g>
<!-- Node2 -->
<g id="node2" class="node">
<title>Node2</title>
<g id="a_node2"><a xlink:href="net_2un_2stream_2legacy_2_socket_client_8h.html" target="_top" xlink:title=" ">
<polygon fill="white" stroke="black" points="613,-447.5 613,-477.5 733,-477.5 733,-447.5 613,-447.5"/>
<text text-anchor="start" x="621" y="-465.5" font-family="Helvetica,sans-Serif" font-size="10.00">net/un/stream/legacy</text>
<text text-anchor="middle" x="673" y="-454.5" font-family="Helvetica,sans-Serif" font-size="10.00">/SocketClient.h</text>
</a>
</g>
</g>
<!-- Node1&#45;&gt;Node2 -->
<g id="edge1" class="edge">
<title>Node1&#45;&gt;Node2</title>
<path fill="none" stroke="midnightblue" d="M728.59,-514.4C719.01,-505.62 706.51,-494.18 695.8,-484.37"/>
<polygon fill="midnightblue" stroke="midnightblue" points="698.12,-481.75 688.38,-477.58 693.39,-486.91 698.12,-481.75"/>
</g>
<!-- Node27 -->
<g id="node27" class="node">
<title>Node27</title>
<g id="a_node27"><a xlink:href="client_2_client_8h.html" target="_top" xlink:title=" ">
<polygon fill="white" stroke="black" points="844,-453 844,-472 974,-472 974,-453 844,-453"/>
<text text-anchor="middle" x="909" y="-460" font-family="Helvetica,sans-Serif" font-size="10.00">web/http/client/Client.h</text>
</a>
</g>
</g>
<!-- Node1&#45;&gt;Node27 -->
<g id="edge28" class="edge">
<title>Node1&#45;&gt;Node27</title>
<path fill="none" stroke="midnightblue" d="M779.8,-514.4C809.01,-502.89 849.86,-486.8 877.76,-475.81"/>
<polygon fill="midnightblue" stroke="midnightblue" points="879.38,-478.93 887.41,-472.01 876.82,-472.42 879.38,-478.93"/>
</g>
<!-- Node3 -->
<g id="node3" class="node">
<title>Node3</title>
<g id="a_node3"><a xlink:href="core_2socket_2stream_2legacy_2_socket_client_8h.html" target="_top" xlink:title=" ">
<polygon fill="white" stroke="black" points="335.5,-380.5 335.5,-410.5 460.5,-410.5 460.5,-380.5 335.5,-380.5"/>
<text text-anchor="start" x="343.5" y="-398.5" font-family="Helvetica,sans-Serif" font-size="10.00">core/socket/stream</text>
<text text-anchor="middle" x="398" y="-387.5" font-family="Helvetica,sans-Serif" font-size="10.00">/legacy/SocketClient.h</text>
</a>
</g>
</g>
<!-- Node2&#45;&gt;Node3 -->
<g id="edge2" class="edge">
<title>Node2&#45;&gt;Node3</title>
<path fill="none" stroke="midnightblue" d="M613.67,-447.48C570.8,-437.34 512.76,-423.63 467.69,-412.97"/>
<polygon fill="midnightblue" stroke="midnightblue" points="468.24,-409.51 457.7,-410.61 466.63,-416.32 468.24,-409.51"/>
</g>
<!-- Node20 -->
<g id="node20" class="node">
<title>Node20</title>
<g id="a_node20"><a xlink:href="net_2un_2stream_2_client_socket_8h.html" target="_top" xlink:title=" ">
<polygon fill="white" stroke="black" points="594,-386 594,-405 752,-405 752,-386 594,-386"/>
<text text-anchor="middle" x="673" y="-393" font-family="Helvetica,sans-Serif" font-size="10.00">net/un/stream/ClientSocket.h</text>
</a>
</g>
</g>
<!-- Node2&#45;&gt;Node20 -->
<g id="edge21" class="edge">
<title>Node2&#45;&gt;Node20</title>
<path fill="none" stroke="midnightblue" d="M673,-447.4C673,-438.06 673,-425.71 673,-415.52"/>
<polygon fill="midnightblue" stroke="midnightblue" points="676.5,-415.19 673,-405.19 669.5,-415.19 676.5,-415.19"/>
</g>
<!-- Node4 -->
<g id="node4" class="node">
<title>Node4</title>
<g id="a_node4"><a xlink:href="core_2socket_2stream_2_socket_client_8h.html" target="_top" xlink:title=" ">
<polygon fill="white" stroke="black" points="197,-313.5 197,-343.5 307,-343.5 307,-313.5 197,-313.5"/>
<text text-anchor="start" x="205" y="-331.5" font-family="Helvetica,sans-Serif" font-size="10.00">core/socket/stream</text>
<text text-anchor="middle" x="252" y="-320.5" font-family="Helvetica,sans-Serif" font-size="10.00">/SocketClient.h</text>
</a>
</g>
</g>
<!-- Node3&#45;&gt;Node4 -->
<g id="edge3" class="edge">
<title>Node3&#45;&gt;Node4</title>
<path fill="none" stroke="midnightblue" d="M366.32,-380.4C344.8,-370.81 316.13,-358.05 292.88,-347.7"/>
<polygon fill="midnightblue" stroke="midnightblue" points="294.18,-344.45 283.62,-343.58 291.33,-350.84 294.18,-344.45"/>
</g>
<!-- Node5 -->
<g id="node5" class="node">
<title>Node5</title>
<g id="a_node5"><a xlink:href="legacy_2_socket_connector_8h.html" target="_top" xlink:title=" ">
<polygon fill="white" stroke="black" points="325,-313.5 325,-343.5 471,-343.5 471,-313.5 325,-313.5"/>
<text text-anchor="start" x="333" y="-331.5" font-family="Helvetica,sans-Serif" font-size="10.00">core/socket/stream</text>
<text text-anchor="middle" x="398" y="-320.5" font-family="Helvetica,sans-Serif" font-size="10.00">/legacy/SocketConnector.h</text>
</a>
</g>
</g>
<!-- Node3&#45;&gt;Node5 -->
<g id="edge4" class="edge">
<title>Node3&#45;&gt;Node5</title>
<path fill="none" stroke="midnightblue" d="M398,-380.4C398,-372.64 398,-362.81 398,-353.86"/>
<polygon fill="midnightblue" stroke="midnightblue" points="401.5,-353.58 398,-343.58 394.5,-353.58 401.5,-353.58"/>
</g>
<!-- Node6 -->
<g id="node6" class="node">
<title>Node6</title>
<g id="a_node6"><a xlink:href="_socket_connector_8h.html" target="_top" xlink:title=" ">
<polygon fill="white" stroke="black" points="150,-246.5 150,-276.5 260,-276.5 260,-246.5 150,-246.5"/>
<text text-anchor="start" x="158" y="-264.5" font-family="Helvetica,sans-Serif" font-size="10.00">core/socket/stream</text>
<text text-anchor="middle" x="205" y="-253.5" font-family="Helvetica,sans-Serif" font-size="10.00">/SocketConnector.h</text>
</a>
</g>
</g>
<!-- Node5&#45;&gt;Node6 -->
<g id="edge5" class="edge">
<title>Node5&#45;&gt;Node6</title>
<path fill="none" stroke="midnightblue" d="M356.12,-313.4C326.91,-303.56 287.74,-290.37 256.6,-279.88"/>
<polygon fill="midnightblue" stroke="midnightblue" points="257.39,-276.45 246.8,-276.58 255.16,-283.09 257.39,-276.45"/>
</g>
<!-- Node9 -->
<g id="node9" class="node">
<title>Node9</title>
<g id="a_node9"><a xlink:href="stream_2legacy_2_socket_connection_8h.html" target="_top" xlink:title=" ">
<polygon fill="white" stroke="black" points="322.5,-246.5 322.5,-276.5 473.5,-276.5 473.5,-246.5 322.5,-246.5"/>
<text text-anchor="start" x="330.5" y="-264.5" font-family="Helvetica,sans-Serif" font-size="10.00">core/socket/stream</text>
<text text-anchor="middle" x="398" y="-253.5" font-family="Helvetica,sans-Serif" font-size="10.00">/legacy/SocketConnection.h</text>
</a>
</g>
</g>
<!-- Node5&#45;&gt;Node9 -->
<g id="edge8" class="edge">
<title>Node5&#45;&gt;Node9</title>
<path fill="none" stroke="midnightblue" d="M398,-313.4C398,-305.64 398,-295.81 398,-286.86"/>
<polygon fill="midnightblue" stroke="midnightblue" points="401.5,-286.58 398,-276.58 394.5,-286.58 401.5,-286.58"/>
</g>
<!-- Node7 -->
<g id="node7" class="node">
<title>Node7</title>
<g id="a_node7"><a xlink:href="_connect_event_receiver_8h.html" target="_top" xlink:title=" ">
<polygon fill="white" stroke="black" points="0,-56.5 0,-75.5 160,-75.5 160,-56.5 0,-56.5"/>
<text text-anchor="middle" x="80" y="-63.5" font-family="Helvetica,sans-Serif" font-size="10.00">core/ConnectEventReceiver.h</text>
</a>
</g>
</g>
<!-- Node6&#45;&gt;Node7 -->
<g id="edge6" class="edge">
<title>Node6&#45;&gt;Node7</title>
<path fill="none" stroke="midnightblue" d="M195.81,-246.27C173.35,-211.5 115.72,-122.3 91.26,-84.42"/>
<polygon fill="midnightblue" stroke="midnightblue" points="93.91,-82.08 85.54,-75.58 88.03,-85.88 93.91,-82.08"/>
</g>
<!-- Node8 -->
<g id="node8" class="node">
<title>Node8</title>
<g id="a_node8"><a xlink:href="_event_receiver_8h.html" target="_top" xlink:title=" ">
<polygon fill="white" stroke="black" points="191,-0.5 191,-19.5 311,-19.5 311,-0.5 191,-0.5"/>
<text text-anchor="middle" x="251" y="-7.5" font-family="Helvetica,sans-Serif" font-size="10.00">core/EventReceiver.h</text>
</a>
</g>
</g>
<!-- Node7&#45;&gt;Node8 -->
<g id="edge7" class="edge">
<title>Node7&#45;&gt;Node8</title>
<path fill="none" stroke="midnightblue" d="M107.1,-56.44C135.99,-47.32 181.92,-32.81 214.11,-22.65"/>
<polygon fill="midnightblue" stroke="midnightblue" points="215.55,-25.87 224.03,-19.52 213.44,-19.19 215.55,-25.87"/>
</g>
<!-- Node10 -->
<g id="node10" class="node">
<title>Node10</title>
<g id="a_node10"><a xlink:href="stream_2_socket_connection_8h.html" target="_top" xlink:title=" ">
<polygon fill="white" stroke="black" points="482,-179.5 482,-209.5 598,-209.5 598,-179.5 482,-179.5"/>
<text text-anchor="start" x="490" y="-197.5" font-family="Helvetica,sans-Serif" font-size="10.00">core/socket/stream</text>
<text text-anchor="middle" x="540" y="-186.5" font-family="Helvetica,sans-Serif" font-size="10.00">/SocketConnection.h</text>
</a>
</g>
</g>
<!-- Node9&#45;&gt;Node10 -->
<g id="edge9" class="edge">
<title>Node9&#45;&gt;Node10</title>
<path fill="none" stroke="midnightblue" d="M428.81,-246.4C449.65,-236.86 477.38,-224.16 499.93,-213.84"/>
<polygon fill="midnightblue" stroke="midnightblue" points="501.61,-216.92 509.25,-209.58 498.7,-210.56 501.61,-216.92"/>
</g>
<!-- Node14 -->
<g id="node14" class="node">
<title>Node14</title>
<g id="a_node14"><a xlink:href="legacy_2_socket_reader_8h.html" target="_top" xlink:title=" ">
<polygon fill="white" stroke="black" points="332.5,-179.5 332.5,-209.5 463.5,-209.5 463.5,-179.5 332.5,-179.5"/>
<text text-anchor="start" x="340.5" y="-197.5" font-family="Helvetica,sans-Serif" font-size="10.00">core/socket/stream</text>
<text text-anchor="middle" x="398" y="-186.5" font-family="Helvetica,sans-Serif" font-size="10.00">/legacy/SocketReader.h</text>
</a>
</g>
</g>
<!-- Node9&#45;&gt;Node14 -->
<g id="edge13" class="edge">
<title>Node9&#45;&gt;Node14</title>
<path fill="none" stroke="midnightblue" d="M398,-246.4C398,-238.64 398,-228.81 398,-219.86"/>
<polygon fill="midnightblue" stroke="midnightblue" points="401.5,-219.58 398,-209.58 394.5,-219.58 401.5,-219.58"/>
</g>
<!-- Node17 -->
<g id="node17" class="node">
<title>Node17</title>
<g id="a_node17"><a xlink:href="legacy_2_socket_writer_8h.html" target="_top" xlink:title=" ">
<polygon fill="white" stroke="black" points="188,-179.5 188,-209.5 314,-209.5 314,-179.5 188,-179.5"/>
<text text-anchor="start" x="196" y="-197.5" font-family="Helvetica,sans-Serif" font-size="10.00">core/socket/stream</text>
<text text-anchor="middle" x="251" y="-186.5" font-family="Helvetica,sans-Serif" font-size="10.00">/legacy/SocketWriter.h</text>
</a>
</g>
</g>
<!-- Node9&#45;&gt;Node17 -->
<g id="edge17" class="edge">
<title>Node9&#45;&gt;Node17</title>
<path fill="none" stroke="midnightblue" d="M366.1,-246.4C344.43,-236.81 315.57,-224.05 292.16,-213.7"/>
<polygon fill="midnightblue" stroke="midnightblue" points="293.4,-210.42 282.83,-209.58 290.56,-216.82 293.4,-210.42"/>
</g>
<!-- Node11 -->
<g id="node11" class="node">
<title>Node11</title>
<g id="a_node11"><a xlink:href="_socket_connection_8h.html" target="_top" xlink:title=" ">
<polygon fill="white" stroke="black" points="471.5,-118 471.5,-137 642.5,-137 642.5,-118 471.5,-118"/>
<text text-anchor="middle" x="557" y="-125" font-family="Helvetica,sans-Serif" font-size="10.00">core/socket/SocketConnection.h</text>
</a>
</g>
</g>
<!-- Node10&#45;&gt;Node11 -->
<g id="edge10" class="edge">
<title>Node10&#45;&gt;Node11</title>
<path fill="none" stroke="midnightblue" d="M543.69,-179.4C546.16,-169.96 549.43,-157.45 552.11,-147.19"/>
<polygon fill="midnightblue" stroke="midnightblue" points="555.58,-147.75 554.73,-137.19 548.81,-145.98 555.58,-147.75"/>
</g>
<!-- Node12 -->
<g id="node12" class="node">
<title>Node12</title>
<g id="a_node12"><a xlink:href="core_2socket_2_socket_context_8h.html" target="_top" xlink:title=" ">
<polygon fill="white" stroke="black" points="713.5,-118 713.5,-137 868.5,-137 868.5,-118 713.5,-118"/>
<text text-anchor="middle" x="791" y="-125" font-family="Helvetica,sans-Serif" font-size="10.00">core/socket/SocketContext.h</text>
</a>
</g>
</g>
<!-- Node10&#45;&gt;Node12 -->
<g id="edge11" class="edge">
<title>Node10&#45;&gt;Node12</title>
<path fill="none" stroke="midnightblue" d="M594.15,-179.48C640.32,-167.52 705.77,-150.57 748.3,-139.56"/>
<polygon fill="midnightblue" stroke="midnightblue" points="749.26,-142.92 758.07,-137.03 747.51,-136.15 749.26,-142.92"/>
</g>
<!-- Node13 -->
<g id="node13" class="node">
<title>Node13</title>
<g id="a_node13"><a xlink:href="core_2socket_2_socket_context_factory_8h.html" target="_top" xlink:title=" ">
<polygon fill="white" stroke="black" points="913,-112.5 913,-142.5 1059,-142.5 1059,-112.5 913,-112.5"/>
<text text-anchor="start" x="921" y="-130.5" font-family="Helvetica,sans-Serif" font-size="10.00">core/socket/SocketContext</text>
<text text-anchor="middle" x="986" y="-119.5" font-family="Helvetica,sans-Serif" font-size="10.00">Factory.h</text>
</a>
</g>
</g>
<!-- Node10&#45;&gt;Node13 -->
<g id="edge12" class="edge">
<title>Node10&#45;&gt;Node13</title>
<path fill="none" stroke="midnightblue" d="M598.05,-180.64C601.07,-180.06 604.07,-179.51 607,-179 726.7,-158.13 757.57,-159.08 878,-143 886,-141.93 894.33,-140.82 902.66,-139.7"/>
<polygon fill="midnightblue" stroke="midnightblue" points="903.36,-143.14 912.8,-138.34 902.43,-136.2 903.36,-143.14"/>
</g>
<!-- Node15 -->
<g id="node15" class="node">
<title>Node15</title>
<g id="a_node15"><a xlink:href="_socket_reader_8h.html" target="_top" xlink:title=" ">
<polygon fill="white" stroke="black" points="343,-112.5 343,-142.5 453,-142.5 453,-112.5 343,-112.5"/>
<text text-anchor="start" x="351" y="-130.5" font-family="Helvetica,sans-Serif" font-size="10.00">core/socket/stream</text>
<text text-anchor="middle" x="398" y="-119.5" font-family="Helvetica,sans-Serif" font-size="10.00">/SocketReader.h</text>
</a>
</g>
</g>
<!-- Node14&#45;&gt;Node15 -->
<g id="edge14" class="edge">
<title>Node14&#45;&gt;Node15</title>
<path fill="none" stroke="midnightblue" d="M398,-179.4C398,-171.64 398,-161.81 398,-152.86"/>
<polygon fill="midnightblue" stroke="midnightblue" points="401.5,-152.58 398,-142.58 394.5,-152.58 401.5,-152.58"/>
</g>
<!-- Node16 -->
<g id="node16" class="node">
<title>Node16</title>
<g id="a_node16"><a xlink:href="_read_event_receiver_8h.html" target="_top" xlink:title=" ">
<polygon fill="white" stroke="black" points="342.5,-56.5 342.5,-75.5 487.5,-75.5 487.5,-56.5 342.5,-56.5"/>
<text text-anchor="middle" x="415" y="-63.5" font-family="Helvetica,sans-Serif" font-size="10.00">core/ReadEventReceiver.h</text>
</a>
</g>
</g>
<!-- Node15&#45;&gt;Node16 -->
<g id="edge15" class="edge">
<title>Node15&#45;&gt;Node16</title>
<path fill="none" stroke="midnightblue" d="M402.03,-112.4C404.35,-104.29 407.28,-94.01 409.78,-85.28"/>
<polygon fill="midnightblue" stroke="midnightblue" points="413.14,-86.23 412.53,-75.66 406.41,-84.31 413.14,-86.23"/>
</g>
<!-- Node16&#45;&gt;Node8 -->
<g id="edge16" class="edge">
<title>Node16&#45;&gt;Node8</title>
<path fill="none" stroke="midnightblue" d="M389.01,-56.44C361.3,-47.32 317.25,-32.81 286.38,-22.65"/>
<polygon fill="midnightblue" stroke="midnightblue" points="287.46,-19.32 276.86,-19.52 285.27,-25.97 287.46,-19.32"/>
</g>
<!-- Node18 -->
<g id="node18" class="node">
<title>Node18</title>
<g id="a_node18"><a xlink:href="_socket_writer_8h.html" target="_top" xlink:title=" ">
<polygon fill="white" stroke="black" points="196,-112.5 196,-142.5 306,-142.5 306,-112.5 196,-112.5"/>
<text text-anchor="start" x="204" y="-130.5" font-family="Helvetica,sans-Serif" font-size="10.00">core/socket/stream</text>
<text text-anchor="middle" x="251" y="-119.5" font-family="Helvetica,sans-Serif" font-size="10.00">/SocketWriter.h</text>
</a>
</g>
</g>
<!-- Node17&#45;&gt;Node18 -->
<g id="edge18" class="edge">
<title>Node17&#45;&gt;Node18</title>
<path fill="none" stroke="midnightblue" d="M251,-179.4C251,-171.64 251,-161.81 251,-152.86"/>
<polygon fill="midnightblue" stroke="midnightblue" points="254.5,-152.58 251,-142.58 247.5,-152.58 254.5,-152.58"/>
</g>
<!-- Node19 -->
<g id="node19" class="node">
<title>Node19</title>
<g id="a_node19"><a xlink:href="_write_event_receiver_8h.html" target="_top" xlink:title=" ">
<polygon fill="white" stroke="black" points="178,-56.5 178,-75.5 324,-75.5 324,-56.5 178,-56.5"/>
<text text-anchor="middle" x="251" y="-63.5" font-family="Helvetica,sans-Serif" font-size="10.00">core/WriteEventReceiver.h</text>
</a>
</g>
</g>
<!-- Node18&#45;&gt;Node19 -->
<g id="edge19" class="edge">
<title>Node18&#45;&gt;Node19</title>
<path fill="none" stroke="midnightblue" d="M251,-112.4C251,-104.47 251,-94.46 251,-85.86"/>
<polygon fill="midnightblue" stroke="midnightblue" points="254.5,-85.66 251,-75.66 247.5,-85.66 254.5,-85.66"/>
</g>
<!-- Node19&#45;&gt;Node8 -->
<g id="edge20" class="edge">
<title>Node19&#45;&gt;Node8</title>
<path fill="none" stroke="midnightblue" d="M251,-56.08C251,-49.01 251,-38.86 251,-29.99"/>
<polygon fill="midnightblue" stroke="midnightblue" points="254.5,-29.75 251,-19.75 247.5,-29.75 254.5,-29.75"/>
</g>
<!-- Node21 -->
<g id="node21" class="node">
<title>Node21</title>
<g id="a_node21"><a xlink:href="core_2socket_2_client_socket_8h.html" target="_top" xlink:title=" ">
<polygon fill="white" stroke="black" points="532.5,-319 532.5,-338 677.5,-338 677.5,-319 532.5,-319"/>
<text text-anchor="middle" x="605" y="-326" font-family="Helvetica,sans-Serif" font-size="10.00">core/socket/ClientSocket.h</text>
</a>
</g>
</g>
<!-- Node20&#45;&gt;Node21 -->
<g id="edge22" class="edge">
<title>Node20&#45;&gt;Node21</title>
<path fill="none" stroke="midnightblue" d="M663.83,-385.73C653.02,-375.4 634.85,-358.04 621.56,-345.33"/>
<polygon fill="midnightblue" stroke="midnightblue" points="623.67,-342.51 614.03,-338.13 618.84,-347.57 623.67,-342.51"/>
</g>
<!-- Node22 -->
<g id="node22" class="node">
<title>Node22</title>
<g id="a_node22"><a xlink:href="net_2un_2stream_2_socket_8h.html" target="_top" xlink:title=" ">
<polygon fill="white" stroke="black" points="695.5,-319 695.5,-338 824.5,-338 824.5,-319 695.5,-319"/>
<text text-anchor="middle" x="760" y="-326" font-family="Helvetica,sans-Serif" font-size="10.00">net/un/stream/Socket.h</text>
</a>
</g>
</g>
<!-- Node20&#45;&gt;Node22 -->
<g id="edge23" class="edge">
<title>Node20&#45;&gt;Node22</title>
<path fill="none" stroke="midnightblue" d="M684.73,-385.73C698.95,-375.11 723.13,-357.05 740.24,-344.26"/>
<polygon fill="midnightblue" stroke="midnightblue" points="742.54,-346.92 748.45,-338.13 738.35,-341.31 742.54,-346.92"/>
</g>
<!-- Node23 -->
<g id="node23" class="node">
<title>Node23</title>
<g id="a_node23"><a xlink:href="core_2socket_2_socket_8h.html" target="_top" xlink:title=" ">
<polygon fill="white" stroke="black" points="608,-252 608,-271 724,-271 724,-252 608,-252"/>
<text text-anchor="middle" x="666" y="-259" font-family="Helvetica,sans-Serif" font-size="10.00">core/socket/Socket.h</text>
</a>
</g>
</g>
<!-- Node22&#45;&gt;Node23 -->
<g id="edge24" class="edge">
<title>Node22&#45;&gt;Node23</title>
<path fill="none" stroke="midnightblue" d="M747.32,-318.73C731.82,-308.01 705.36,-289.72 686.84,-276.91"/>
<polygon fill="midnightblue" stroke="midnightblue" points="688.69,-273.94 678.48,-271.13 684.71,-279.69 688.69,-273.94"/>
</g>
<!-- Node25 -->
<g id="node25" class="node">
<title>Node25</title>
<g id="a_node25"><a xlink:href="net_2un_2_socket_address_8h.html" target="_top" xlink:title=" ">
<polygon fill="white" stroke="black" points="742.5,-252 742.5,-271 873.5,-271 873.5,-252 742.5,-252"/>
<text text-anchor="middle" x="808" y="-259" font-family="Helvetica,sans-Serif" font-size="10.00">net/un/SocketAddress.h</text>
</a>
</g>
</g>
<!-- Node22&#45;&gt;Node25 -->
<g id="edge26" class="edge">
<title>Node22&#45;&gt;Node25</title>
<path fill="none" stroke="midnightblue" d="M766.47,-318.73C773.89,-308.7 786.2,-292.01 795.5,-279.42"/>
<polygon fill="midnightblue" stroke="midnightblue" points="798.5,-281.25 801.63,-271.13 792.87,-277.09 798.5,-281.25"/>
</g>
<!-- Node24 -->
<g id="node24" class="node">
<title>Node24</title>
<g id="a_node24"><a xlink:href="_descriptor_8h.html" target="_top" xlink:title=" ">
<polygon fill="white" stroke="black" points="616,-185 616,-204 716,-204 716,-185 616,-185"/>
<text text-anchor="middle" x="666" y="-192" font-family="Helvetica,sans-Serif" font-size="10.00">core/Descriptor.h</text>
</a>
</g>
</g>
<!-- Node23&#45;&gt;Node24 -->
<g id="edge25" class="edge">
<title>Node23&#45;&gt;Node24</title>
<path fill="none" stroke="midnightblue" d="M666,-251.73C666,-242.18 666,-226.62 666,-214.28"/>
<polygon fill="midnightblue" stroke="midnightblue" points="669.5,-214.13 666,-204.13 662.5,-214.13 669.5,-214.13"/>
</g>
<!-- Node26 -->
<g id="node26" class="node">
<title>Node26</title>
<g id="a_node26"><a xlink:href="core_2socket_2_socket_address_8h.html" target="_top" xlink:title=" ">
<polygon fill="white" stroke="black" points="734.5,-185 734.5,-204 889.5,-204 889.5,-185 734.5,-185"/>
<text text-anchor="middle" x="812" y="-192" font-family="Helvetica,sans-Serif" font-size="10.00">core/socket/SocketAddress.h</text>
</a>
</g>
</g>
<!-- Node25&#45;&gt;Node26 -->
<g id="edge27" class="edge">
<title>Node25&#45;&gt;Node26</title>
<path fill="none" stroke="midnightblue" d="M808.54,-251.73C809.13,-242.18 810.09,-226.62 810.84,-214.28"/>
<polygon fill="midnightblue" stroke="midnightblue" points="814.35,-214.32 811.47,-204.13 807.36,-213.89 814.35,-214.32"/>
</g>
<!-- Node28 -->
<g id="node28" class="node">
<title>Node28</title>
<g id="a_node28"><a xlink:href="web_2http_2client_2_socket_context_factory_8h.html" target="_top" xlink:title=" ">
<polygon fill="white" stroke="black" points="896.5,-380.5 896.5,-410.5 1059.5,-410.5 1059.5,-380.5 896.5,-380.5"/>
<text text-anchor="start" x="904.5" y="-398.5" font-family="Helvetica,sans-Serif" font-size="10.00">web/http/client/SocketContext</text>
<text text-anchor="middle" x="978" y="-387.5" font-family="Helvetica,sans-Serif" font-size="10.00">Factory.h</text>
</a>
</g>
</g>
<!-- Node27&#45;&gt;Node28 -->
<g id="edge29" class="edge">
<title>Node27&#45;&gt;Node28</title>
<path fill="none" stroke="midnightblue" d="M918.31,-452.73C927.81,-443.78 942.92,-429.54 955.56,-417.63"/>
<polygon fill="midnightblue" stroke="midnightblue" points="958.16,-419.99 963.04,-410.59 953.37,-414.9 958.16,-419.99"/>
</g>
<!-- Node29 -->
<g id="node29" class="node">
<title>Node29</title>
<g id="a_node29"><a xlink:href="web_2http_2_socket_context_factory_8h.html" target="_top" xlink:title=" ">
<polygon fill="white" stroke="black" points="1082,-252 1082,-271 1258,-271 1258,-252 1082,-252"/>
<text text-anchor="middle" x="1170" y="-259" font-family="Helvetica,sans-Serif" font-size="10.00">web/http/SocketContextFactory.h</text>
</a>
</g>
</g>
<!-- Node28&#45;&gt;Node29 -->
<g id="edge30" class="edge">
<title>Node28&#45;&gt;Node29</title>
<path fill="none" stroke="midnightblue" d="M1011.53,-380.46C1031.81,-371.32 1057.76,-358.44 1079,-344 1108.05,-324.25 1137.6,-295.94 1154.85,-278.41"/>
<polygon fill="midnightblue" stroke="midnightblue" points="1157.41,-280.8 1161.86,-271.19 1152.38,-275.93 1157.41,-280.8"/>
</g>
<!-- Node30 -->
<g id="node30" class="node">
<title>Node30</title>
<g id="a_node30"><a xlink:href="client_2_socket_context_8hpp.html" target="_top" xlink:title=" ">
<polygon fill="white" stroke="black" points="886,-319 886,-338 1070,-338 1070,-319 886,-319"/>
<text text-anchor="middle" x="978" y="-326" font-family="Helvetica,sans-Serif" font-size="10.00">web/http/client/SocketContext.hpp</text>
</a>
</g>
</g>
<!-- Node28&#45;&gt;Node30 -->
<g id="edge32" class="edge">
<title>Node28&#45;&gt;Node30</title>
<path fill="none" stroke="midnightblue" d="M978,-380.4C978,-371.06 978,-358.71 978,-348.52"/>
<polygon fill="midnightblue" stroke="midnightblue" points="981.5,-348.19 978,-338.19 974.5,-348.19 981.5,-348.19"/>
</g>
<!-- Node29&#45;&gt;Node13 -->
<g id="edge31" class="edge">
<title>Node29&#45;&gt;Node13</title>
<path fill="none" stroke="midnightblue" d="M1156.86,-251.86C1142.07,-242.04 1117.45,-225.37 1097,-210 1079.58,-196.9 1076.42,-192.1 1059,-179 1045.06,-168.52 1029.17,-157.43 1015.79,-148.32"/>
<polygon fill="midnightblue" stroke="midnightblue" points="1017.64,-145.35 1007.4,-142.65 1013.72,-151.15 1017.64,-145.35"/>
</g>
<!-- Node31 -->
<g id="node31" class="node">
<title>Node31</title>
<g id="a_node31"><a xlink:href="web_2http_2client_2_socket_context_8h.html" target="_top" xlink:title=" ">
<polygon fill="white" stroke="black" points="892,-252 892,-271 1064,-271 1064,-252 892,-252"/>
<text text-anchor="middle" x="978" y="-259" font-family="Helvetica,sans-Serif" font-size="10.00">web/http/client/SocketContext.h</text>
</a>
</g>
</g>
<!-- Node30&#45;&gt;Node31 -->
<g id="edge33" class="edge">
<title>Node30&#45;&gt;Node31</title>
<path fill="none" stroke="midnightblue" d="M978,-318.73C978,-309.18 978,-293.62 978,-281.28"/>
<polygon fill="midnightblue" stroke="midnightblue" points="981.5,-281.13 978,-271.13 974.5,-281.13 981.5,-281.13"/>
</g>
<!-- Node32 -->
<g id="node32" class="node">
<title>Node32</title>
<g id="a_node32"><a xlink:href="web_2http_2_socket_context_8h.html" target="_top" xlink:title=" ">
<polygon fill="white" stroke="black" points="908,-185 908,-204 1050,-204 1050,-185 908,-185"/>
<text text-anchor="middle" x="979" y="-192" font-family="Helvetica,sans-Serif" font-size="10.00">web/http/SocketContext.h</text>
</a>
</g>
</g>
<!-- Node31&#45;&gt;Node32 -->
<g id="edge34" class="edge">
<title>Node31&#45;&gt;Node32</title>
<path fill="none" stroke="midnightblue" d="M978.13,-251.73C978.28,-242.18 978.52,-226.62 978.71,-214.28"/>
<polygon fill="midnightblue" stroke="midnightblue" points="982.21,-214.18 978.87,-204.13 975.21,-214.07 982.21,-214.18"/>
</g>
<!-- Node33 -->
<g id="node33" class="node">
<title>Node33</title>
<g id="a_node33"><a xlink:href="_response_parser_8h.html" target="_top" xlink:title=" ">
<polygon fill="white" stroke="black" points="1106,-179.5 1106,-209.5 1246,-209.5 1246,-179.5 1106,-179.5"/>
<text text-anchor="start" x="1114" y="-197.5" font-family="Helvetica,sans-Serif" font-size="10.00">web/http/client/Response</text>
<text text-anchor="middle" x="1176" y="-186.5" font-family="Helvetica,sans-Serif" font-size="10.00">Parser.h</text>
</a>
</g>
</g>
<!-- Node31&#45;&gt;Node33 -->
<g id="edge36" class="edge">
<title>Node31&#45;&gt;Node33</title>
<path fill="none" stroke="midnightblue" d="M1004.29,-251.87C1034.52,-241.95 1084.89,-225.41 1123.29,-212.81"/>
<polygon fill="midnightblue" stroke="midnightblue" points="1124.86,-215.97 1133.27,-209.53 1122.68,-209.32 1124.86,-215.97"/>
</g>
<!-- Node32&#45;&gt;Node12 -->
<g id="edge35" class="edge">
<title>Node32&#45;&gt;Node12</title>
<path fill="none" stroke="midnightblue" d="M954.04,-184.87C921.08,-173.47 862.88,-153.35 825.67,-140.49"/>
<polygon fill="midnightblue" stroke="midnightblue" points="826.36,-137.02 815.77,-137.06 824.08,-143.64 826.36,-137.02"/>
</g>
<!-- Node34 -->
<g id="node34" class="node">
<title>Node34</title>
<g id="a_node34"><a xlink:href="_cookie_options_8h.html" target="_top" xlink:title=" ">
<polygon fill="white" stroke="black" points="1090.5,-118 1090.5,-137 1233.5,-137 1233.5,-118 1090.5,-118"/>
<text text-anchor="middle" x="1162" y="-125" font-family="Helvetica,sans-Serif" font-size="10.00">web/http/CookieOptions.h</text>
</a>
</g>
</g>
<!-- Node33&#45;&gt;Node34 -->
<g id="edge37" class="edge">
<title>Node33&#45;&gt;Node34</title>
<path fill="none" stroke="midnightblue" d="M1172.96,-179.4C1170.93,-169.96 1168.24,-157.45 1166.03,-147.19"/>
<polygon fill="midnightblue" stroke="midnightblue" points="1169.4,-146.23 1163.87,-137.19 1162.56,-147.71 1169.4,-146.23"/>
</g>
<!-- Node35 -->
<g id="node35" class="node">
<title>Node35</title>
<g id="a_node35"><a xlink:href="_parser_8h.html" target="_top" xlink:title=" ">
<polygon fill="white" stroke="black" points="1252,-118 1252,-137 1354,-137 1354,-118 1252,-118"/>
<text text-anchor="middle" x="1303" y="-125" font-family="Helvetica,sans-Serif" font-size="10.00">web/http/Parser.h</text>
</a>
</g>
</g>
<!-- Node33&#45;&gt;Node35 -->
<g id="edge38" class="edge">
<title>Node33&#45;&gt;Node35</title>
<path fill="none" stroke="midnightblue" d="M1203.56,-179.4C1225.45,-168.19 1255.83,-152.64 1277.24,-141.69"/>
<polygon fill="midnightblue" stroke="midnightblue" points="1279.07,-144.68 1286.38,-137.01 1275.88,-138.45 1279.07,-144.68"/>
</g>
</g>
</svg>
