<?xml version="1.0" encoding="UTF-8" standalone="no"?>
<!DOCTYPE svg PUBLIC "-//W3C//DTD SVG 1.1//EN"
 "http://www.w3.org/Graphics/SVG/1.1/DTD/svg11.dtd">
<!-- Generated by graphviz version 2.43.0 (0)
 -->
<!-- Title: core::system::open Pages: 1 -->
<svg width="620pt" height="160pt"
 viewBox="0.00 0.00 620.00 159.50" xmlns="http://www.w3.org/2000/svg" xmlns:xlink="http://www.w3.org/1999/xlink">
<g id="graph0" class="graph" transform="scale(1 1) rotate(0) translate(4 155.5)">
<title>core::system::open</title>
<polygon fill="white" stroke="transparent" points="-4,4 -4,-155.5 616,-155.5 616,4 -4,4"/>
<!-- Node1 -->
<g id="node1" class="node">
<title>Node1</title>
<g id="a_node1"><a xlink:title=" ">
<polygon fill="#bfbfbf" stroke="black" points="502,-71.5 502,-90.5 612,-90.5 612,-71.5 502,-71.5"/>
<text text-anchor="middle" x="557" y="-78.5" font-family="Helvetica,sans-Serif" font-size="10.00">core::system::open</text>
</a>
</g>
</g>
<!-- Node2 -->
<g id="node2" class="node">
<title>Node2</title>
<g id="a_node2"><a xlink:href="classcore_1_1file_1_1_file_reader.html#a1283a619871fb6ae3ecaa472afdab866" target="_top" xlink:title=" ">
<polygon fill="white" stroke="black" points="325,-121 325,-151 441,-151 441,-121 325,-121"/>
<text text-anchor="start" x="333" y="-139" font-family="Helvetica,sans-Serif" font-size="10.00">core::file::FileReader</text>
<text text-anchor="middle" x="383" y="-128" font-family="Helvetica,sans-Serif" font-size="10.00">::connect</text>
</a>
</g>
</g>
<!-- Node1&#45;&gt;Node2 -->
<g id="edge1" class="edge">
<title>Node1&#45;&gt;Node2</title>
<path fill="none" stroke="midnightblue" d="M518.47,-93.75C502.35,-99.16 483.28,-105.49 466,-111 455.79,-114.26 444.84,-117.66 434.37,-120.87"/>
<polygon fill="midnightblue" stroke="midnightblue" points="519.73,-97.02 528.09,-90.51 517.49,-90.39 519.73,-97.02"/>
</g>
<!-- Node5 -->
<g id="node5" class="node">
<title>Node5</title>
<g id="a_node5"><a xlink:href="classcore_1_1socket_1_1stream_1_1_socket_acceptor.html#a390b647bcd8aba2ce6e3c9e21f065d89" target="_top" xlink:title=" ">
<polygon fill="white" stroke="black" points="307,-60.5 307,-101.5 459,-101.5 459,-60.5 307,-60.5"/>
<text text-anchor="start" x="315" y="-89.5" font-family="Helvetica,sans-Serif" font-size="10.00">core::socket::stream</text>
<text text-anchor="start" x="315" y="-78.5" font-family="Helvetica,sans-Serif" font-size="10.00">::SocketAcceptor::initAccept</text>
<text text-anchor="middle" x="383" y="-67.5" font-family="Helvetica,sans-Serif" font-size="10.00">Event</text>
</a>
</g>
</g>
<!-- Node1&#45;&gt;Node5 -->
<g id="edge4" class="edge">
<title>Node1&#45;&gt;Node5</title>
<path fill="none" stroke="midnightblue" d="M491.27,-81C480.78,-81 469.84,-81 459.13,-81"/>
<polygon fill="midnightblue" stroke="midnightblue" points="491.58,-84.5 501.58,-81 491.58,-77.5 491.58,-84.5"/>
</g>
<!-- Node6 -->
<g id="node6" class="node">
<title>Node6</title>
<g id="a_node6"><a xlink:href="classcore_1_1socket_1_1stream_1_1_socket_connector.html#ad29519b6ac03ea6049d7ef0476ea244d" target="_top" xlink:title=" ">
<polygon fill="white" stroke="black" points="300,-0.5 300,-41.5 466,-41.5 466,-0.5 300,-0.5"/>
<text text-anchor="start" x="308" y="-29.5" font-family="Helvetica,sans-Serif" font-size="10.00">core::socket::stream</text>
<text text-anchor="start" x="308" y="-18.5" font-family="Helvetica,sans-Serif" font-size="10.00">::SocketConnector::initConnect</text>
<text text-anchor="middle" x="383" y="-7.5" font-family="Helvetica,sans-Serif" font-size="10.00">Event</text>
</a>
</g>
</g>
<!-- Node1&#45;&gt;Node6 -->
<g id="edge5" class="edge">
<title>Node1&#45;&gt;Node6</title>
<path fill="none" stroke="midnightblue" d="M519.04,-68.11C496.84,-60.36 468.08,-50.33 442.82,-41.52"/>
<polygon fill="midnightblue" stroke="midnightblue" points="518.15,-71.5 528.75,-71.49 520.46,-64.89 518.15,-71.5"/>
</g>
<!-- Node3 -->
<g id="node3" class="node">
<title>Node3</title>
<g id="a_node3"><a xlink:href="classexpress_1_1_response.html#aa7a3b9c880c1af5b11e832f84eeda58c" target="_top" xlink:title=" ">
<polygon fill="white" stroke="black" points="150,-121 150,-151 264,-151 264,-121 150,-121"/>
<text text-anchor="start" x="158" y="-139" font-family="Helvetica,sans-Serif" font-size="10.00">express::Response::</text>
<text text-anchor="middle" x="207" y="-128" font-family="Helvetica,sans-Serif" font-size="10.00">sendFile</text>
</a>
</g>
</g>
<!-- Node2&#45;&gt;Node3 -->
<g id="edge2" class="edge">
<title>Node2&#45;&gt;Node3</title>
<path fill="none" stroke="midnightblue" d="M314.37,-136C297.78,-136 280.2,-136 264.21,-136"/>
<polygon fill="midnightblue" stroke="midnightblue" points="314.54,-139.5 324.54,-136 314.54,-132.5 314.54,-139.5"/>
</g>
<!-- Node4 -->
<g id="node4" class="node">
<title>Node4</title>
<g id="a_node4"><a xlink:href="classexpress_1_1_response.html#a9fe9c08eaaf312665cefdd87b0a47f54" target="_top" xlink:title=" ">
<polygon fill="white" stroke="black" points="0,-121 0,-151 114,-151 114,-121 0,-121"/>
<text text-anchor="start" x="8" y="-139" font-family="Helvetica,sans-Serif" font-size="10.00">express::Response::</text>
<text text-anchor="middle" x="57" y="-128" font-family="Helvetica,sans-Serif" font-size="10.00">download</text>
</a>
</g>
</g>
<!-- Node3&#45;&gt;Node4 -->
<g id="edge3" class="edge">
<title>Node3&#45;&gt;Node4</title>
<path fill="none" stroke="midnightblue" d="M139.44,-136C131.02,-136 122.46,-136 114.22,-136"/>
<polygon fill="midnightblue" stroke="midnightblue" points="139.63,-139.5 149.63,-136 139.63,-132.5 139.63,-139.5"/>
</g>
</g>
</svg>
