<?xml version="1.0" encoding="UTF-8" standalone="no"?>
<!DOCTYPE svg PUBLIC "-//W3C//DTD SVG 1.1//EN"
 "http://www.w3.org/Graphics/SVG/1.1/DTD/svg11.dtd">
<!-- Generated by graphviz version 2.43.0 (0)
 -->
<!-- Title: core::system::send Pages: 1 -->
<svg width="544pt" height="173pt"
 viewBox="0.00 0.00 544.00 172.50" xmlns="http://www.w3.org/2000/svg" xmlns:xlink="http://www.w3.org/1999/xlink">
<g id="graph0" class="graph" transform="scale(1 1) rotate(0) translate(4 168.5)">
<title>core::system::send</title>
<polygon fill="white" stroke="transparent" points="-4,4 -4,-168.5 540,-168.5 540,4 -4,4"/>
<!-- Node1 -->
<g id="node1" class="node">
<title>Node1</title>
<g id="a_node1"><a xlink:title=" ">
<polygon fill="#bfbfbf" stroke="black" points="435,-66.5 435,-85.5 536,-85.5 536,-66.5 435,-66.5"/>
<text text-anchor="middle" x="485.5" y="-73.5" font-family="Helvetica,sans-Serif" font-size="10.00">core::system::send</text>
</a>
</g>
</g>
<!-- Node2 -->
<g id="node2" class="node">
<title>Node2</title>
<g id="a_node2"><a xlink:href="classweb_1_1http_1_1server_1_1_response.html#a761cba48efb6eed2fa816750670c03db" target="_top" xlink:title=" ">
<polygon fill="white" stroke="black" points="294.5,-110 294.5,-140 390.5,-140 390.5,-110 294.5,-110"/>
<text text-anchor="start" x="302.5" y="-128" font-family="Helvetica,sans-Serif" font-size="10.00">web::http::server::</text>
<text text-anchor="middle" x="342.5" y="-117" font-family="Helvetica,sans-Serif" font-size="10.00">Response::end</text>
</a>
</g>
</g>
<!-- Node1&#45;&gt;Node2 -->
<g id="edge1" class="edge">
<title>Node1&#45;&gt;Node2</title>
<path fill="none" stroke="midnightblue" d="M447.38,-88.9C428.78,-95.36 406.15,-103.23 386.77,-109.96"/>
<polygon fill="midnightblue" stroke="midnightblue" points="448.68,-92.15 456.98,-85.56 446.38,-85.54 448.68,-92.15"/>
</g>
<!-- Node6 -->
<g id="node6" class="node">
<title>Node6</title>
<g id="a_node6"><a xlink:href="classweb_1_1http_1_1server_1_1_response.html#a5128a20b904071c22a077b040c8ff138" target="_top" xlink:title=" ">
<polygon fill="white" stroke="black" points="294.5,-61 294.5,-91 390.5,-91 390.5,-61 294.5,-61"/>
<text text-anchor="start" x="302.5" y="-79" font-family="Helvetica,sans-Serif" font-size="10.00">web::http::server::</text>
<text text-anchor="middle" x="342.5" y="-68" font-family="Helvetica,sans-Serif" font-size="10.00">Response::send</text>
</a>
</g>
</g>
<!-- Node1&#45;&gt;Node6 -->
<g id="edge5" class="edge">
<title>Node1&#45;&gt;Node6</title>
<path fill="none" stroke="midnightblue" d="M424.58,-76C413.32,-76 401.69,-76 390.87,-76"/>
<polygon fill="midnightblue" stroke="midnightblue" points="424.79,-79.5 434.79,-76 424.79,-72.5 424.79,-79.5"/>
</g>
<!-- Node7 -->
<g id="node7" class="node">
<title>Node7</title>
<g id="a_node7"><a xlink:href="classcore_1_1socket_1_1stream_1_1legacy_1_1_socket_writer.html#a0f24c21e55ac20969ac4b525fc73b668" target="_top" xlink:title=" ">
<polygon fill="white" stroke="black" points="286,-0.5 286,-41.5 399,-41.5 399,-0.5 286,-0.5"/>
<text text-anchor="start" x="294" y="-29.5" font-family="Helvetica,sans-Serif" font-size="10.00">core::socket::stream</text>
<text text-anchor="start" x="294" y="-18.5" font-family="Helvetica,sans-Serif" font-size="10.00">::legacy::SocketWriter</text>
<text text-anchor="middle" x="342.5" y="-7.5" font-family="Helvetica,sans-Serif" font-size="10.00">::write</text>
</a>
</g>
</g>
<!-- Node1&#45;&gt;Node7 -->
<g id="edge6" class="edge">
<title>Node1&#45;&gt;Node7</title>
<path fill="none" stroke="midnightblue" d="M450.31,-62.67C434.04,-56.32 414.23,-48.59 396.1,-41.52"/>
<polygon fill="midnightblue" stroke="midnightblue" points="449.35,-66.05 459.94,-66.42 451.9,-59.52 449.35,-66.05"/>
</g>
<!-- Node3 -->
<g id="node3" class="node">
<title>Node3</title>
<g id="a_node3"><a xlink:href="classexpress_1_1_response.html#a99b449a1fd984b6e263c8eb0fec03009" target="_top" xlink:title=" ">
<polygon fill="white" stroke="black" points="143,-134 143,-164 250,-164 250,-134 143,-134"/>
<text text-anchor="start" x="151" y="-152" font-family="Helvetica,sans-Serif" font-size="10.00">express::Response::</text>
<text text-anchor="middle" x="196.5" y="-141" font-family="Helvetica,sans-Serif" font-size="10.00">redirect</text>
</a>
</g>
</g>
<!-- Node2&#45;&gt;Node3 -->
<g id="edge2" class="edge">
<title>Node2&#45;&gt;Node3</title>
<path fill="none" stroke="midnightblue" d="M284.22,-134.55C273.01,-136.42 261.3,-138.37 250.24,-140.21"/>
<polygon fill="midnightblue" stroke="midnightblue" points="285.06,-137.95 294.35,-132.86 283.91,-131.05 285.06,-137.95"/>
</g>
<!-- Node4 -->
<g id="node4" class="node">
<title>Node4</title>
<g id="a_node4"><a xlink:href="classexpress_1_1_response.html#aa7a3b9c880c1af5b11e832f84eeda58c" target="_top" xlink:title=" ">
<polygon fill="white" stroke="black" points="143,-85 143,-115 250,-115 250,-85 143,-85"/>
<text text-anchor="start" x="151" y="-103" font-family="Helvetica,sans-Serif" font-size="10.00">express::Response::</text>
<text text-anchor="middle" x="196.5" y="-92" font-family="Helvetica,sans-Serif" font-size="10.00">sendFile</text>
</a>
</g>
</g>
<!-- Node2&#45;&gt;Node4 -->
<g id="edge3" class="edge">
<title>Node2&#45;&gt;Node4</title>
<path fill="none" stroke="midnightblue" d="M284.22,-115.06C273.01,-113.11 261.3,-111.08 250.24,-109.16"/>
<polygon fill="midnightblue" stroke="midnightblue" points="283.9,-118.55 294.35,-116.81 285.1,-111.66 283.9,-118.55"/>
</g>
<!-- Node5 -->
<g id="node5" class="node">
<title>Node5</title>
<g id="a_node5"><a xlink:href="classexpress_1_1_response.html#a9fe9c08eaaf312665cefdd87b0a47f54" target="_top" xlink:title=" ">
<polygon fill="white" stroke="black" points="0,-85 0,-115 107,-115 107,-85 0,-85"/>
<text text-anchor="start" x="8" y="-103" font-family="Helvetica,sans-Serif" font-size="10.00">express::Response::</text>
<text text-anchor="middle" x="53.5" y="-92" font-family="Helvetica,sans-Serif" font-size="10.00">download</text>
</a>
</g>
</g>
<!-- Node4&#45;&gt;Node5 -->
<g id="edge4" class="edge">
<title>Node4&#45;&gt;Node5</title>
<path fill="none" stroke="midnightblue" d="M132.95,-100C124.3,-100 115.49,-100 107.05,-100"/>
<polygon fill="midnightblue" stroke="midnightblue" points="133,-103.5 143,-100 133,-96.5 133,-103.5"/>
</g>
</g>
</svg>
