<?xml version="1.0" encoding="UTF-8" standalone="no"?>
<!DOCTYPE svg PUBLIC "-//W3C//DTD SVG 1.1//EN"
 "http://www.w3.org/Graphics/SVG/1.1/DTD/svg11.dtd">
<!-- Generated by graphviz version 2.43.0 (0)
 -->
<!-- Title: core::system::getnameinfo Pages: 1 -->
<svg width="490pt" height="284pt"
 viewBox="0.00 0.00 490.00 284.00" xmlns="http://www.w3.org/2000/svg" xmlns:xlink="http://www.w3.org/1999/xlink">
<g id="graph0" class="graph" transform="scale(1 1) rotate(0) translate(4 280)">
<title>core::system::getnameinfo</title>
<polygon fill="white" stroke="transparent" points="-4,4 -4,-280 486,-280 486,4 -4,4"/>
<!-- Node1 -->
<g id="node1" class="node">
<title>Node1</title>
<g id="a_node1"><a xlink:title=" ">
<polygon fill="#bfbfbf" stroke="black" points="334,-128 334,-147 482,-147 482,-128 334,-128"/>
<text text-anchor="middle" x="408" y="-135" font-family="Helvetica,sans-Serif" font-size="10.00">core::system::getnameinfo</text>
</a>
</g>
</g>
<!-- Node2 -->
<g id="node2" class="node">
<title>Node2</title>
<g id="a_node2"><a xlink:href="classnet_1_1in_1_1_socket_address.html#aeb7a039ba613f84a92a2823cc3b7c04c" target="_top" xlink:title=" ">
<polygon fill="white" stroke="black" points="170,-245.5 170,-275.5 295,-275.5 295,-245.5 170,-245.5"/>
<text text-anchor="start" x="178" y="-263.5" font-family="Helvetica,sans-Serif" font-size="10.00">net::in::SocketAddress</text>
<text text-anchor="middle" x="232.5" y="-252.5" font-family="Helvetica,sans-Serif" font-size="10.00">::address</text>
</a>
</g>
</g>
<!-- Node1&#45;&gt;Node2 -->
<g id="edge1" class="edge">
<title>Node1&#45;&gt;Node2</title>
<path fill="none" stroke="midnightblue" d="M391.94,-154.75C372.24,-176.42 335.76,-213.52 298,-236.5 292.59,-239.79 286.66,-242.75 280.65,-245.37"/>
<polygon fill="midnightblue" stroke="midnightblue" points="394.58,-157.06 398.64,-147.27 389.36,-152.39 394.58,-157.06"/>
</g>
<!-- Node3 -->
<g id="node3" class="node">
<title>Node3</title>
<g id="a_node3"><a xlink:href="classnet_1_1in6_1_1_socket_address.html#abf0ce2c5f4eb965ddfcf06ceb01f76aa" target="_top" xlink:title=" ">
<polygon fill="white" stroke="black" points="167,-196.5 167,-226.5 298,-226.5 298,-196.5 167,-196.5"/>
<text text-anchor="start" x="175" y="-214.5" font-family="Helvetica,sans-Serif" font-size="10.00">net::in6::SocketAddress</text>
<text text-anchor="middle" x="232.5" y="-203.5" font-family="Helvetica,sans-Serif" font-size="10.00">::address</text>
</a>
</g>
</g>
<!-- Node1&#45;&gt;Node3 -->
<g id="edge2" class="edge">
<title>Node1&#45;&gt;Node3</title>
<path fill="none" stroke="midnightblue" d="M378.05,-151.49C356.23,-161.86 325.47,-176.11 298,-187.5 290.72,-190.52 282.9,-193.58 275.31,-196.46"/>
<polygon fill="midnightblue" stroke="midnightblue" points="379.59,-154.63 387.11,-147.16 376.57,-148.31 379.59,-154.63"/>
</g>
<!-- Node4 -->
<g id="node4" class="node">
<title>Node4</title>
<g id="a_node4"><a xlink:href="classnet_1_1in_1_1_socket_address.html#a48d236adf6d0df36035667e6b6f96fb3" target="_top" xlink:title=" ">
<polygon fill="white" stroke="black" points="170,-147.5 170,-177.5 295,-177.5 295,-147.5 170,-147.5"/>
<text text-anchor="start" x="178" y="-165.5" font-family="Helvetica,sans-Serif" font-size="10.00">net::in::SocketAddress</text>
<text text-anchor="middle" x="232.5" y="-154.5" font-family="Helvetica,sans-Serif" font-size="10.00">::host</text>
</a>
</g>
</g>
<!-- Node1&#45;&gt;Node4 -->
<g id="edge3" class="edge">
<title>Node1&#45;&gt;Node4</title>
<path fill="none" stroke="midnightblue" d="M330.94,-148.46C318.97,-150.18 306.72,-151.95 295.12,-153.62"/>
<polygon fill="midnightblue" stroke="midnightblue" points="331.51,-151.91 340.91,-147.02 330.52,-144.98 331.51,-151.91"/>
</g>
<!-- Node6 -->
<g id="node6" class="node">
<title>Node6</title>
<g id="a_node6"><a xlink:href="classnet_1_1in6_1_1_socket_address.html#a0961e5f0aa7d7a118507630c1e1f3d7e" target="_top" xlink:title=" ">
<polygon fill="white" stroke="black" points="167,-98.5 167,-128.5 298,-128.5 298,-98.5 167,-98.5"/>
<text text-anchor="start" x="175" y="-116.5" font-family="Helvetica,sans-Serif" font-size="10.00">net::in6::SocketAddress</text>
<text text-anchor="middle" x="232.5" y="-105.5" font-family="Helvetica,sans-Serif" font-size="10.00">::host</text>
</a>
</g>
</g>
<!-- Node1&#45;&gt;Node6 -->
<g id="edge5" class="edge">
<title>Node1&#45;&gt;Node6</title>
<path fill="none" stroke="midnightblue" d="M327.99,-126.57C317.99,-125.19 307.85,-123.78 298.1,-122.44"/>
<polygon fill="midnightblue" stroke="midnightblue" points="327.54,-130.04 337.93,-127.95 328.5,-123.11 327.54,-130.04"/>
</g>
<!-- Node8 -->
<g id="node8" class="node">
<title>Node8</title>
<g id="a_node8"><a xlink:href="classnet_1_1in_1_1_socket_address.html#a1e27132fd9098736cd12a3590822cecf" target="_top" xlink:title=" ">
<polygon fill="white" stroke="black" points="170,-49.5 170,-79.5 295,-79.5 295,-49.5 170,-49.5"/>
<text text-anchor="start" x="178" y="-67.5" font-family="Helvetica,sans-Serif" font-size="10.00">net::in::SocketAddress</text>
<text text-anchor="middle" x="232.5" y="-56.5" font-family="Helvetica,sans-Serif" font-size="10.00">::serv</text>
</a>
</g>
</g>
<!-- Node1&#45;&gt;Node8 -->
<g id="edge7" class="edge">
<title>Node1&#45;&gt;Node8</title>
<path fill="none" stroke="midnightblue" d="M376.44,-123.6C354.68,-113.81 324.68,-100.54 298,-89.5 290.01,-86.19 281.41,-82.77 273.18,-79.56"/>
<polygon fill="midnightblue" stroke="midnightblue" points="375.26,-126.91 385.82,-127.83 378.14,-120.53 375.26,-126.91"/>
</g>
<!-- Node9 -->
<g id="node9" class="node">
<title>Node9</title>
<g id="a_node9"><a xlink:href="classnet_1_1in6_1_1_socket_address.html#a93b64c7de67cd53676c96b487fece076" target="_top" xlink:title=" ">
<polygon fill="white" stroke="black" points="167,-0.5 167,-30.5 298,-30.5 298,-0.5 167,-0.5"/>
<text text-anchor="start" x="175" y="-18.5" font-family="Helvetica,sans-Serif" font-size="10.00">net::in6::SocketAddress</text>
<text text-anchor="middle" x="232.5" y="-7.5" font-family="Helvetica,sans-Serif" font-size="10.00">::serv</text>
</a>
</g>
</g>
<!-- Node1&#45;&gt;Node9 -->
<g id="edge8" class="edge">
<title>Node1&#45;&gt;Node9</title>
<path fill="none" stroke="midnightblue" d="M391.56,-120.42C371.67,-99.26 335.21,-63.24 298,-40.5 291.95,-36.81 285.27,-33.49 278.56,-30.57"/>
<polygon fill="midnightblue" stroke="midnightblue" points="389.2,-123.03 398.56,-127.99 394.34,-118.27 389.2,-123.03"/>
</g>
<!-- Node5 -->
<g id="node5" class="node">
<title>Node5</title>
<g id="a_node5"><a xlink:href="classnet_1_1in_1_1_socket_address.html#accb215df860073e1869c0202fa7f5f7c" target="_top" xlink:title=" ">
<polygon fill="white" stroke="black" points="3,-147.5 3,-177.5 128,-177.5 128,-147.5 3,-147.5"/>
<text text-anchor="start" x="11" y="-165.5" font-family="Helvetica,sans-Serif" font-size="10.00">net::in::SocketAddress</text>
<text text-anchor="middle" x="65.5" y="-154.5" font-family="Helvetica,sans-Serif" font-size="10.00">::toString</text>
</a>
</g>
</g>
<!-- Node4&#45;&gt;Node5 -->
<g id="edge4" class="edge">
<title>Node4&#45;&gt;Node5</title>
<path fill="none" stroke="midnightblue" d="M159.32,-162.5C148.95,-162.5 138.35,-162.5 128.21,-162.5"/>
<polygon fill="midnightblue" stroke="midnightblue" points="159.59,-166 169.59,-162.5 159.59,-159 159.59,-166"/>
</g>
<!-- Node7 -->
<g id="node7" class="node">
<title>Node7</title>
<g id="a_node7"><a xlink:href="classnet_1_1in6_1_1_socket_address.html#a8e7bfc0c1a2fa355688e5fb186c6205d" target="_top" xlink:title=" ">
<polygon fill="white" stroke="black" points="0,-98.5 0,-128.5 131,-128.5 131,-98.5 0,-98.5"/>
<text text-anchor="start" x="8" y="-116.5" font-family="Helvetica,sans-Serif" font-size="10.00">net::in6::SocketAddress</text>
<text text-anchor="middle" x="65.5" y="-105.5" font-family="Helvetica,sans-Serif" font-size="10.00">::toString</text>
</a>
</g>
</g>
<!-- Node6&#45;&gt;Node7 -->
<g id="edge6" class="edge">
<title>Node6&#45;&gt;Node7</title>
<path fill="none" stroke="midnightblue" d="M156.76,-113.5C148.18,-113.5 139.48,-113.5 131.05,-113.5"/>
<polygon fill="midnightblue" stroke="midnightblue" points="156.76,-117 166.76,-113.5 156.76,-110 156.76,-117"/>
</g>
</g>
</svg>
