<?xml version="1.0" encoding="UTF-8" standalone="no"?>
<!DOCTYPE svg PUBLIC "-//W3C//DTD SVG 1.1//EN"
 "http://www.w3.org/Graphics/SVG/1.1/DTD/svg11.dtd">
<!-- Generated by graphviz version 2.43.0 (0)
 -->
<!-- Title: core::system::bind Pages: 1 -->
<svg width="437pt" height="50pt"
 viewBox="0.00 0.00 437.00 50.00" xmlns="http://www.w3.org/2000/svg" xmlns:xlink="http://www.w3.org/1999/xlink">
<g id="graph0" class="graph" transform="scale(1 1) rotate(0) translate(4 46)">
<title>core::system::bind</title>
<polygon fill="white" stroke="transparent" points="-4,4 -4,-46 433,-46 433,4 -4,4"/>
<!-- Node1 -->
<g id="node1" class="node">
<title>Node1</title>
<g id="a_node1"><a xlink:title=" ">
<polygon fill="#bfbfbf" stroke="black" points="322,-11.5 322,-30.5 429,-30.5 429,-11.5 322,-11.5"/>
<text text-anchor="middle" x="375.5" y="-18.5" font-family="Helvetica,sans-Serif" font-size="10.00">core::system::bind</text>
</a>
</g>
</g>
<!-- Node2 -->
<g id="node2" class="node">
<title>Node2</title>
<g id="a_node2"><a xlink:href="classnet_1_1_socket.html#a764890ada0685828db7a761a27bb8273" target="_top" xlink:title=" ">
<polygon fill="white" stroke="black" points="188,-11.5 188,-30.5 286,-30.5 286,-11.5 188,-11.5"/>
<text text-anchor="middle" x="237" y="-18.5" font-family="Helvetica,sans-Serif" font-size="10.00">net::Socket::bind</text>
</a>
</g>
</g>
<!-- Node1&#45;&gt;Node2 -->
<g id="edge1" class="edge">
<title>Node1&#45;&gt;Node2</title>
<path fill="none" stroke="midnightblue" d="M311.45,-21C302.96,-21 294.35,-21 286.17,-21"/>
<polygon fill="midnightblue" stroke="midnightblue" points="311.73,-24.5 321.73,-21 311.73,-17.5 311.73,-24.5"/>
</g>
<!-- Node3 -->
<g id="node3" class="node">
<title>Node3</title>
<g id="a_node3"><a xlink:href="classcore_1_1socket_1_1stream_1_1_socket_acceptor.html#ae7c6ddf01e46527428cccc00d10d5bd0" target="_top" xlink:title=" ">
<polygon fill="white" stroke="black" points="0,-0.5 0,-41.5 152,-41.5 152,-0.5 0,-0.5"/>
<text text-anchor="start" x="8" y="-29.5" font-family="Helvetica,sans-Serif" font-size="10.00">core::socket::stream</text>
<text text-anchor="start" x="8" y="-18.5" font-family="Helvetica,sans-Serif" font-size="10.00">::SocketAcceptor::initAccept</text>
<text text-anchor="middle" x="76" y="-7.5" font-family="Helvetica,sans-Serif" font-size="10.00">Event</text>
</a>
</g>
</g>
<!-- Node2&#45;&gt;Node3 -->
<g id="edge2" class="edge">
<title>Node2&#45;&gt;Node3</title>
<path fill="none" stroke="midnightblue" d="M177.62,-21C169.37,-21 160.79,-21 152.27,-21"/>
<polygon fill="midnightblue" stroke="midnightblue" points="177.86,-24.5 187.86,-21 177.86,-17.5 177.86,-24.5"/>
</g>
</g>
</svg>
