<?xml version="1.0" encoding="UTF-8" standalone="no"?>
<!DOCTYPE svg PUBLIC "-//W3C//DTD SVG 1.1//EN"
 "http://www.w3.org/Graphics/SVG/1.1/DTD/svg11.dtd">
<!-- Generated by graphviz version 2.43.0 (0)
 -->
<!-- Title: httputils::to_http_date Pages: 1 -->
<svg width="1099pt" height="343pt"
 viewBox="0.00 0.00 1099.00 343.00" xmlns="http://www.w3.org/2000/svg" xmlns:xlink="http://www.w3.org/1999/xlink">
<g id="graph0" class="graph" transform="scale(1 1) rotate(0) translate(4 339)">
<title>httputils::to_http_date</title>
<polygon fill="white" stroke="transparent" points="-4,4 -4,-339 1095,-339 1095,4 -4,4"/>
<!-- Node1 -->
<g id="node1" class="node">
<title>Node1</title>
<g id="a_node1"><a xlink:title=" ">
<polygon fill="#bfbfbf" stroke="black" points="966,-223 966,-242 1091,-242 1091,-223 966,-223"/>
<text text-anchor="middle" x="1028.5" y="-230" font-family="Helvetica,sans-Serif" font-size="10.00">httputils::to_http_date</text>
</a>
</g>
</g>
<!-- Node2 -->
<g id="node2" class="node">
<title>Node2</title>
<g id="a_node2"><a xlink:href="classweb_1_1http_1_1server_1_1_response.html#ae75d88513b5d350cdb9348ebcbf98939" target="_top" xlink:title=" ">
<polygon fill="white" stroke="black" points="802,-266.5 802,-296.5 930,-296.5 930,-266.5 802,-266.5"/>
<text text-anchor="start" x="810" y="-284.5" font-family="Helvetica,sans-Serif" font-size="10.00">web::http::server::</text>
<text text-anchor="middle" x="866" y="-273.5" font-family="Helvetica,sans-Serif" font-size="10.00">Response::clearCookie</text>
</a>
</g>
</g>
<!-- Node1&#45;&gt;Node2 -->
<g id="edge1" class="edge">
<title>Node1&#45;&gt;Node2</title>
<path fill="none" stroke="midnightblue" d="M986.42,-245.04C965.03,-251.57 938.73,-259.6 916.25,-266.46"/>
<polygon fill="midnightblue" stroke="midnightblue" points="987.63,-248.33 996.17,-242.06 985.59,-241.64 987.63,-248.33"/>
</g>
<!-- Node3 -->
<g id="node3" class="node">
<title>Node3</title>
<g id="a_node3"><a xlink:href="classweb_1_1http_1_1client_1_1_request.html#af01f064a43a4ee0026ff35a265e8ada1" target="_top" xlink:title=" ">
<polygon fill="white" stroke="black" points="805.5,-217.5 805.5,-247.5 926.5,-247.5 926.5,-217.5 805.5,-217.5"/>
<text text-anchor="start" x="813.5" y="-235.5" font-family="Helvetica,sans-Serif" font-size="10.00">web::http::client::</text>
<text text-anchor="middle" x="866" y="-224.5" font-family="Helvetica,sans-Serif" font-size="10.00">Request::sendHeader</text>
</a>
</g>
</g>
<!-- Node1&#45;&gt;Node3 -->
<g id="edge2" class="edge">
<title>Node1&#45;&gt;Node3</title>
<path fill="none" stroke="midnightblue" d="M955.81,-232.5C946.04,-232.5 936.1,-232.5 926.58,-232.5"/>
<polygon fill="midnightblue" stroke="midnightblue" points="955.91,-236 965.91,-232.5 955.91,-229 955.91,-236"/>
</g>
<!-- Node11 -->
<g id="node11" class="node">
<title>Node11</title>
<g id="a_node11"><a xlink:href="classweb_1_1http_1_1server_1_1_response.html#a4fae387fd1d11b86260f4572bfebfce2" target="_top" xlink:title=" ">
<polygon fill="white" stroke="black" points="802,-144.5 802,-174.5 930,-174.5 930,-144.5 802,-144.5"/>
<text text-anchor="start" x="810" y="-162.5" font-family="Helvetica,sans-Serif" font-size="10.00">web::http::server::</text>
<text text-anchor="middle" x="866" y="-151.5" font-family="Helvetica,sans-Serif" font-size="10.00">Response::sendHeader</text>
</a>
</g>
</g>
<!-- Node1&#45;&gt;Node11 -->
<g id="edge11" class="edge">
<title>Node1&#45;&gt;Node11</title>
<path fill="none" stroke="midnightblue" d="M997.33,-218.78C969.69,-206.21 928.85,-187.63 900.27,-174.63"/>
<polygon fill="midnightblue" stroke="midnightblue" points="995.97,-222 1006.52,-222.96 998.86,-215.63 995.97,-222"/>
</g>
<!-- Node4 -->
<g id="node4" class="node">
<title>Node4</title>
<g id="a_node4"><a xlink:href="classweb_1_1http_1_1client_1_1_request.html#ad8d5eb2799cd28ea6e1e00b1e2593e6d" target="_top" xlink:title=" ">
<polygon fill="white" stroke="black" points="658,-217.5 658,-247.5 762,-247.5 762,-217.5 658,-217.5"/>
<text text-anchor="start" x="666" y="-235.5" font-family="Helvetica,sans-Serif" font-size="10.00">web::http::client::</text>
<text text-anchor="middle" x="710" y="-224.5" font-family="Helvetica,sans-Serif" font-size="10.00">Request::enqueue</text>
</a>
</g>
</g>
<!-- Node3&#45;&gt;Node4 -->
<g id="edge3" class="edge">
<title>Node3&#45;&gt;Node4</title>
<path fill="none" stroke="midnightblue" d="M795.35,-225.78C784.25,-225.69 772.94,-225.8 762.37,-226.09"/>
<polygon fill="midnightblue" stroke="midnightblue" points="795.42,-229.28 805.46,-225.91 795.51,-222.28 795.42,-229.28"/>
</g>
<!-- Node4&#45;&gt;Node3 -->
<g id="edge10" class="edge">
<title>Node4&#45;&gt;Node3</title>
<path fill="none" stroke="midnightblue" d="M772.59,-239.13C783.43,-239.3 794.68,-239.29 805.46,-239.09"/>
<polygon fill="midnightblue" stroke="midnightblue" points="772.44,-235.62 762.37,-238.91 772.29,-242.62 772.44,-235.62"/>
</g>
<!-- Node5 -->
<g id="node5" class="node">
<title>Node5</title>
<g id="a_node5"><a xlink:href="classweb_1_1http_1_1client_1_1_request.html#a942bd7c41f6064e6ab44a541860f07de" target="_top" xlink:title=" ">
<polygon fill="white" stroke="black" points="510,-304.5 510,-334.5 614,-334.5 614,-304.5 510,-304.5"/>
<text text-anchor="start" x="518" y="-322.5" font-family="Helvetica,sans-Serif" font-size="10.00">web::http::client::</text>
<text text-anchor="middle" x="562" y="-311.5" font-family="Helvetica,sans-Serif" font-size="10.00">Request::enqueue</text>
</a>
</g>
</g>
<!-- Node4&#45;&gt;Node5 -->
<g id="edge4" class="edge">
<title>Node4&#45;&gt;Node5</title>
<path fill="none" stroke="midnightblue" d="M681.36,-253.73C663.78,-266.7 640.21,-283.12 618,-295.5 612.36,-298.64 606.22,-301.67 600.16,-304.46"/>
<polygon fill="midnightblue" stroke="midnightblue" points="683.56,-256.46 689.48,-247.67 679.37,-250.85 683.56,-256.46"/>
</g>
<!-- Node6 -->
<g id="node6" class="node">
<title>Node6</title>
<g id="a_node6"><a xlink:href="classweb_1_1http_1_1client_1_1_request.html#a224a48794f94fc2a9a29266cca1c604e" target="_top" xlink:title=" ">
<polygon fill="white" stroke="black" points="511.5,-255.5 511.5,-285.5 612.5,-285.5 612.5,-255.5 511.5,-255.5"/>
<text text-anchor="start" x="519.5" y="-273.5" font-family="Helvetica,sans-Serif" font-size="10.00">web::http::client::</text>
<text text-anchor="middle" x="562" y="-262.5" font-family="Helvetica,sans-Serif" font-size="10.00">Request::receive</text>
</a>
</g>
</g>
<!-- Node4&#45;&gt;Node6 -->
<g id="edge5" class="edge">
<title>Node4&#45;&gt;Node6</title>
<path fill="none" stroke="midnightblue" d="M648.17,-248.33C636.39,-251.4 624.18,-254.58 612.8,-257.54"/>
<polygon fill="midnightblue" stroke="midnightblue" points="649.14,-251.7 657.94,-245.79 647.38,-244.92 649.14,-251.7"/>
</g>
<!-- Node7 -->
<g id="node7" class="node">
<title>Node7</title>
<g id="a_node7"><a xlink:href="classweb_1_1http_1_1client_1_1_request.html#a30015053640f679106d122dc66ae6758" target="_top" xlink:title=" ">
<polygon fill="white" stroke="black" points="511.5,-206.5 511.5,-236.5 612.5,-236.5 612.5,-206.5 511.5,-206.5"/>
<text text-anchor="start" x="519.5" y="-224.5" font-family="Helvetica,sans-Serif" font-size="10.00">web::http::client::</text>
<text text-anchor="middle" x="562" y="-213.5" font-family="Helvetica,sans-Serif" font-size="10.00">Request::send</text>
</a>
</g>
</g>
<!-- Node4&#45;&gt;Node7 -->
<g id="edge6" class="edge">
<title>Node4&#45;&gt;Node7</title>
<path fill="none" stroke="midnightblue" d="M647.82,-227.89C636.15,-227.01 624.07,-226.1 612.8,-225.25"/>
<polygon fill="midnightblue" stroke="midnightblue" points="647.7,-231.39 657.94,-228.65 648.23,-224.41 647.7,-231.39"/>
</g>
<!-- Node8 -->
<g id="node8" class="node">
<title>Node8</title>
<g id="a_node8"><a xlink:href="classweb_1_1http_1_1client_1_1_request.html#a404be530def9c2fde1690e1253018909" target="_top" xlink:title=" ">
<polygon fill="white" stroke="black" points="362.5,-255.5 362.5,-285.5 463.5,-285.5 463.5,-255.5 362.5,-255.5"/>
<text text-anchor="start" x="370.5" y="-273.5" font-family="Helvetica,sans-Serif" font-size="10.00">web::http::client::</text>
<text text-anchor="middle" x="413" y="-262.5" font-family="Helvetica,sans-Serif" font-size="10.00">Request::send</text>
</a>
</g>
</g>
<!-- Node7&#45;&gt;Node8 -->
<g id="edge7" class="edge">
<title>Node7&#45;&gt;Node8</title>
<path fill="none" stroke="midnightblue" d="M505.78,-239.91C490.4,-245.03 473.88,-250.54 459.15,-255.45"/>
<polygon fill="midnightblue" stroke="midnightblue" points="507.32,-243.08 515.7,-236.6 505.1,-236.44 507.32,-243.08"/>
</g>
<!-- Node9 -->
<g id="node9" class="node">
<title>Node9</title>
<g id="a_node9"><a xlink:href="classweb_1_1http_1_1client_1_1_request.html#a6472d642f595b7434bf8377b343f893f" target="_top" xlink:title=" ">
<polygon fill="white" stroke="black" points="362.5,-206.5 362.5,-236.5 463.5,-236.5 463.5,-206.5 362.5,-206.5"/>
<text text-anchor="start" x="370.5" y="-224.5" font-family="Helvetica,sans-Serif" font-size="10.00">web::http::client::</text>
<text text-anchor="middle" x="413" y="-213.5" font-family="Helvetica,sans-Serif" font-size="10.00">Request::start</text>
</a>
</g>
</g>
<!-- Node7&#45;&gt;Node9 -->
<g id="edge8" class="edge">
<title>Node7&#45;&gt;Node9</title>
<path fill="none" stroke="midnightblue" d="M500.99,-221.5C488.6,-221.5 475.69,-221.5 463.72,-221.5"/>
<polygon fill="midnightblue" stroke="midnightblue" points="501.23,-225 511.23,-221.5 501.23,-218 501.23,-225"/>
</g>
<!-- Node10 -->
<g id="node10" class="node">
<title>Node10</title>
<g id="a_node10"><a xlink:href="classweb_1_1http_1_1client_1_1_request.html#ade3f2c0c18eb527560f212631a627a0d" target="_top" xlink:title=" ">
<polygon fill="white" stroke="black" points="184,-208.5 184,-238.5 286,-238.5 286,-208.5 184,-208.5"/>
<text text-anchor="start" x="192" y="-226.5" font-family="Helvetica,sans-Serif" font-size="10.00">web::http::client::</text>
<text text-anchor="middle" x="235" y="-215.5" font-family="Helvetica,sans-Serif" font-size="10.00">Request::upgrade</text>
</a>
</g>
</g>
<!-- Node9&#45;&gt;Node10 -->
<g id="edge9" class="edge">
<title>Node9&#45;&gt;Node10</title>
<path fill="none" stroke="midnightblue" d="M351.76,-222.18C330.37,-222.43 306.54,-222.7 286.09,-222.93"/>
<polygon fill="midnightblue" stroke="midnightblue" points="352.08,-225.68 362.04,-222.07 352,-218.68 352.08,-225.68"/>
</g>
<!-- Node12 -->
<g id="node12" class="node">
<title>Node12</title>
<g id="a_node12"><a xlink:href="classweb_1_1http_1_1server_1_1_response.html#a6bdff1ff4fb13a952df7bfefd0b87667" target="_top" xlink:title=" ">
<polygon fill="white" stroke="black" points="654,-144.5 654,-174.5 766,-174.5 766,-144.5 654,-144.5"/>
<text text-anchor="start" x="662" y="-162.5" font-family="Helvetica,sans-Serif" font-size="10.00">web::http::server::</text>
<text text-anchor="middle" x="710" y="-151.5" font-family="Helvetica,sans-Serif" font-size="10.00">Response::enqueue</text>
</a>
</g>
</g>
<!-- Node11&#45;&gt;Node12 -->
<g id="edge12" class="edge">
<title>Node11&#45;&gt;Node12</title>
<path fill="none" stroke="midnightblue" d="M791.88,-152.76C783.29,-152.72 774.63,-152.8 766.34,-152.99"/>
<polygon fill="midnightblue" stroke="midnightblue" points="791.89,-156.26 801.92,-152.85 791.95,-149.26 791.89,-156.26"/>
</g>
<!-- Node12&#45;&gt;Node11 -->
<g id="edge24" class="edge">
<title>Node12&#45;&gt;Node11</title>
<path fill="none" stroke="midnightblue" d="M776.49,-166.18C784.92,-166.28 793.53,-166.27 801.92,-166.15"/>
<polygon fill="midnightblue" stroke="midnightblue" points="776.4,-162.68 766.34,-166.01 776.28,-169.68 776.4,-162.68"/>
</g>
<!-- Node13 -->
<g id="node13" class="node">
<title>Node13</title>
<g id="a_node13"><a xlink:href="classweb_1_1http_1_1server_1_1_response.html#a9c5834911394dedb7faed2e52ceb7a1d" target="_top" xlink:title=" ">
<polygon fill="white" stroke="black" points="506,-156.5 506,-186.5 618,-186.5 618,-156.5 506,-156.5"/>
<text text-anchor="start" x="514" y="-174.5" font-family="Helvetica,sans-Serif" font-size="10.00">web::http::server::</text>
<text text-anchor="middle" x="562" y="-163.5" font-family="Helvetica,sans-Serif" font-size="10.00">Response::enqueue</text>
</a>
</g>
</g>
<!-- Node12&#45;&gt;Node13 -->
<g id="edge13" class="edge">
<title>Node12&#45;&gt;Node13</title>
<path fill="none" stroke="midnightblue" d="M643.59,-164.88C635.14,-165.57 626.54,-166.28 618.27,-166.96"/>
<polygon fill="midnightblue" stroke="midnightblue" points="644.12,-168.34 653.8,-164.04 643.55,-161.37 644.12,-168.34"/>
</g>
<!-- Node14 -->
<g id="node14" class="node">
<title>Node14</title>
<g id="a_node14"><a xlink:href="classweb_1_1http_1_1server_1_1_response.html#a6693a2431a465a948bca9ba1593a1f20" target="_top" xlink:title=" ">
<polygon fill="white" stroke="black" points="509,-107.5 509,-137.5 615,-137.5 615,-107.5 509,-107.5"/>
<text text-anchor="start" x="517" y="-125.5" font-family="Helvetica,sans-Serif" font-size="10.00">web::http::server::</text>
<text text-anchor="middle" x="562" y="-114.5" font-family="Helvetica,sans-Serif" font-size="10.00">Response::receive</text>
</a>
</g>
</g>
<!-- Node12&#45;&gt;Node14 -->
<g id="edge14" class="edge">
<title>Node12&#45;&gt;Node14</title>
<path fill="none" stroke="midnightblue" d="M643.94,-143.01C634.38,-140.59 624.64,-138.12 615.38,-135.77"/>
<polygon fill="midnightblue" stroke="midnightblue" points="643.25,-146.45 653.8,-145.51 644.97,-139.66 643.25,-146.45"/>
</g>
<!-- Node15 -->
<g id="node15" class="node">
<title>Node15</title>
<g id="a_node15"><a xlink:href="classweb_1_1http_1_1server_1_1_response.html#ad13e93ee083ee9e780a4478a86fdefec" target="_top" xlink:title=" ">
<polygon fill="white" stroke="black" points="509.5,-55.5 509.5,-85.5 614.5,-85.5 614.5,-55.5 509.5,-55.5"/>
<text text-anchor="start" x="517.5" y="-73.5" font-family="Helvetica,sans-Serif" font-size="10.00">web::http::server::</text>
<text text-anchor="middle" x="562" y="-62.5" font-family="Helvetica,sans-Serif" font-size="10.00">Response::send</text>
</a>
</g>
</g>
<!-- Node12&#45;&gt;Node15 -->
<g id="edge15" class="edge">
<title>Node12&#45;&gt;Node15</title>
<path fill="none" stroke="midnightblue" d="M679.49,-138.41C661.95,-126.21 639.09,-110.88 618,-98.5 610.42,-94.05 602.06,-89.58 594.18,-85.56"/>
<polygon fill="midnightblue" stroke="midnightblue" points="677.93,-141.59 688.13,-144.47 681.95,-135.86 677.93,-141.59"/>
</g>
<!-- Node16 -->
<g id="node16" class="node">
<title>Node16</title>
<g id="a_node16"><a xlink:href="classweb_1_1http_1_1server_1_1_response.html#a761cba48efb6eed2fa816750670c03db" target="_top" xlink:title=" ">
<polygon fill="white" stroke="black" points="360.5,-98.5 360.5,-128.5 465.5,-128.5 465.5,-98.5 360.5,-98.5"/>
<text text-anchor="start" x="368.5" y="-116.5" font-family="Helvetica,sans-Serif" font-size="10.00">web::http::server::</text>
<text text-anchor="middle" x="413" y="-105.5" font-family="Helvetica,sans-Serif" font-size="10.00">Response::end</text>
</a>
</g>
</g>
<!-- Node15&#45;&gt;Node16 -->
<g id="edge16" class="edge">
<title>Node15&#45;&gt;Node16</title>
<path fill="none" stroke="midnightblue" d="M499.75,-88.42C488.4,-91.74 476.66,-95.17 465.63,-98.4"/>
<polygon fill="midnightblue" stroke="midnightblue" points="500.97,-91.71 509.59,-85.54 499.01,-84.99 500.97,-91.71"/>
</g>
<!-- Node22 -->
<g id="node22" class="node">
<title>Node22</title>
<g id="a_node22"><a xlink:href="classweb_1_1http_1_1server_1_1_response.html#a5128a20b904071c22a077b040c8ff138" target="_top" xlink:title=" ">
<polygon fill="white" stroke="black" points="360.5,-49.5 360.5,-79.5 465.5,-79.5 465.5,-49.5 360.5,-49.5"/>
<text text-anchor="start" x="368.5" y="-67.5" font-family="Helvetica,sans-Serif" font-size="10.00">web::http::server::</text>
<text text-anchor="middle" x="413" y="-56.5" font-family="Helvetica,sans-Serif" font-size="10.00">Response::send</text>
</a>
</g>
</g>
<!-- Node15&#45;&gt;Node22 -->
<g id="edge22" class="edge">
<title>Node15&#45;&gt;Node22</title>
<path fill="none" stroke="midnightblue" d="M499.13,-67.97C488.05,-67.52 476.61,-67.06 465.85,-66.62"/>
<polygon fill="midnightblue" stroke="midnightblue" points="499.04,-71.47 509.17,-68.38 499.32,-64.48 499.04,-71.47"/>
</g>
<!-- Node23 -->
<g id="node23" class="node">
<title>Node23</title>
<g id="a_node23"><a xlink:href="classexpress_1_1_response.html#a9049ec68cf5f6cb6d04c403267158d09" target="_top" xlink:title=" ">
<polygon fill="white" stroke="black" points="356,-0.5 356,-30.5 470,-30.5 470,-0.5 356,-0.5"/>
<text text-anchor="start" x="364" y="-18.5" font-family="Helvetica,sans-Serif" font-size="10.00">express::Response::</text>
<text text-anchor="middle" x="413" y="-7.5" font-family="Helvetica,sans-Serif" font-size="10.00">sendStatus</text>
</a>
</g>
</g>
<!-- Node15&#45;&gt;Node23 -->
<g id="edge23" class="edge">
<title>Node15&#45;&gt;Node23</title>
<path fill="none" stroke="midnightblue" d="M511.33,-51.92C492.7,-44.94 471.78,-37.12 454.12,-30.51"/>
<polygon fill="midnightblue" stroke="midnightblue" points="510.24,-55.24 520.83,-55.47 512.69,-48.69 510.24,-55.24"/>
</g>
<!-- Node17 -->
<g id="node17" class="node">
<title>Node17</title>
<g id="a_node17"><a xlink:href="classweb_1_1websocket_1_1server_1_1_socket_context_upgrade_factory.html#a90730a21bf9ea2415499a5287bda028c" target="_top" xlink:title=" ">
<polygon fill="white" stroke="black" points="150,-148 150,-189 320,-189 320,-148 150,-148"/>
<text text-anchor="start" x="158" y="-177" font-family="Helvetica,sans-Serif" font-size="10.00">web::websocket::server</text>
<text text-anchor="start" x="158" y="-166" font-family="Helvetica,sans-Serif" font-size="10.00">::SocketContextUpgradeFactory</text>
<text text-anchor="middle" x="235" y="-155" font-family="Helvetica,sans-Serif" font-size="10.00">::create</text>
</a>
</g>
</g>
<!-- Node16&#45;&gt;Node17 -->
<g id="edge17" class="edge">
<title>Node16&#45;&gt;Node17</title>
<path fill="none" stroke="midnightblue" d="M354.25,-131.55C337.49,-136.78 319.07,-142.54 301.85,-147.92"/>
<polygon fill="midnightblue" stroke="midnightblue" points="355.41,-134.85 363.91,-128.53 353.32,-128.17 355.41,-134.85"/>
</g>
<!-- Node18 -->
<g id="node18" class="node">
<title>Node18</title>
<g id="a_node18"><a xlink:href="classexpress_1_1_response.html#a99b449a1fd984b6e263c8eb0fec03009" target="_top" xlink:title=" ">
<polygon fill="white" stroke="black" points="178,-98.5 178,-128.5 292,-128.5 292,-98.5 178,-98.5"/>
<text text-anchor="start" x="186" y="-116.5" font-family="Helvetica,sans-Serif" font-size="10.00">express::Response::</text>
<text text-anchor="middle" x="235" y="-105.5" font-family="Helvetica,sans-Serif" font-size="10.00">redirect</text>
</a>
</g>
</g>
<!-- Node16&#45;&gt;Node18 -->
<g id="edge18" class="edge">
<title>Node16&#45;&gt;Node18</title>
<path fill="none" stroke="midnightblue" d="M349.89,-113.5C331.06,-113.5 310.5,-113.5 292.09,-113.5"/>
<polygon fill="midnightblue" stroke="midnightblue" points="350.15,-117 360.15,-113.5 350.15,-110 350.15,-117"/>
</g>
<!-- Node19 -->
<g id="node19" class="node">
<title>Node19</title>
<g id="a_node19"><a xlink:href="classexpress_1_1_response.html#aa7a3b9c880c1af5b11e832f84eeda58c" target="_top" xlink:title=" ">
<polygon fill="white" stroke="black" points="178,-49.5 178,-79.5 292,-79.5 292,-49.5 178,-49.5"/>
<text text-anchor="start" x="186" y="-67.5" font-family="Helvetica,sans-Serif" font-size="10.00">express::Response::</text>
<text text-anchor="middle" x="235" y="-56.5" font-family="Helvetica,sans-Serif" font-size="10.00">sendFile</text>
</a>
</g>
</g>
<!-- Node16&#45;&gt;Node19 -->
<g id="edge19" class="edge">
<title>Node16&#45;&gt;Node19</title>
<path fill="none" stroke="midnightblue" d="M350.35,-96.34C330.66,-90.85 309.03,-84.83 289.93,-79.51"/>
<polygon fill="midnightblue" stroke="midnightblue" points="349.57,-99.75 360.15,-99.06 351.45,-93.01 349.57,-99.75"/>
</g>
<!-- Node21 -->
<g id="node21" class="node">
<title>Node21</title>
<g id="a_node21"><a xlink:href="classweb_1_1http_1_1server_1_1_response.html#afa792224c8bdb8edcb75514297931ece" target="_top" xlink:title=" ">
<polygon fill="white" stroke="black" points="180,-0.5 180,-30.5 290,-30.5 290,-0.5 180,-0.5"/>
<text text-anchor="start" x="188" y="-18.5" font-family="Helvetica,sans-Serif" font-size="10.00">web::http::server::</text>
<text text-anchor="middle" x="235" y="-7.5" font-family="Helvetica,sans-Serif" font-size="10.00">Response::upgrade</text>
</a>
</g>
</g>
<!-- Node16&#45;&gt;Node21 -->
<g id="edge21" class="edge">
<title>Node16&#45;&gt;Node21</title>
<path fill="none" stroke="midnightblue" d="M360.96,-93.11C359.24,-91.96 357.58,-90.76 356,-89.5 334.84,-72.7 342.1,-56.05 320,-40.5 311.17,-34.28 300.77,-29.59 290.36,-26.06"/>
<polygon fill="midnightblue" stroke="midnightblue" points="359.53,-96.33 369.91,-98.43 363.1,-90.31 359.53,-96.33"/>
</g>
<!-- Node20 -->
<g id="node20" class="node">
<title>Node20</title>
<g id="a_node20"><a xlink:href="classexpress_1_1_response.html#a9fe9c08eaaf312665cefdd87b0a47f54" target="_top" xlink:title=" ">
<polygon fill="white" stroke="black" points="0,-49.5 0,-79.5 114,-79.5 114,-49.5 0,-49.5"/>
<text text-anchor="start" x="8" y="-67.5" font-family="Helvetica,sans-Serif" font-size="10.00">express::Response::</text>
<text text-anchor="middle" x="57" y="-56.5" font-family="Helvetica,sans-Serif" font-size="10.00">download</text>
</a>
</g>
</g>
<!-- Node19&#45;&gt;Node20 -->
<g id="edge20" class="edge">
<title>Node19&#45;&gt;Node20</title>
<path fill="none" stroke="midnightblue" d="M167.64,-64.5C150.05,-64.5 131.23,-64.5 114.24,-64.5"/>
<polygon fill="midnightblue" stroke="midnightblue" points="167.83,-68 177.83,-64.5 167.83,-61 167.83,-68"/>
</g>
</g>
</svg>
