<?xml version="1.0" encoding="UTF-8" standalone="no"?>
<!DOCTYPE svg PUBLIC "-//W3C//DTD SVG 1.1//EN"
 "http://www.w3.org/Graphics/SVG/1.1/DTD/svg11.dtd">
<!-- Generated by graphviz version 2.43.0 (0)
 -->
<!-- Title: core::system::listen Pages: 1 -->
<svg width="318pt" height="443pt"
 viewBox="0.00 0.00 318.00 443.00" xmlns="http://www.w3.org/2000/svg" xmlns:xlink="http://www.w3.org/1999/xlink">
<g id="graph0" class="graph" transform="scale(1 1) rotate(0) translate(4 439)">
<title>core::system::listen</title>
<polygon fill="white" stroke="transparent" points="-4,4 -4,-439 314,-439 314,4 -4,4"/>
<!-- Node1 -->
<g id="node1" class="node">
<title>Node1</title>
<g id="a_node1"><a xlink:title=" ">
<polygon fill="#bfbfbf" stroke="black" points="197,-202 197,-221 310,-221 310,-202 197,-202"/>
<text text-anchor="middle" x="253.5" y="-209" font-family="Helvetica,sans-Serif" font-size="10.00">core::system::listen</text>
</a>
</g>
</g>
<!-- Node2 -->
<g id="node2" class="node">
<title>Node2</title>
<g id="a_node2"><a xlink:href="classnet_1_1stream_1_1_socket_server.html#a924b875c6645daefb0f623c02799a944" target="_top" xlink:title=" ">
<polygon fill="white" stroke="black" points="9,-404.5 9,-434.5 152,-434.5 152,-404.5 9,-404.5"/>
<text text-anchor="start" x="17" y="-422.5" font-family="Helvetica,sans-Serif" font-size="10.00">net::stream::SocketServer</text>
<text text-anchor="middle" x="80.5" y="-411.5" font-family="Helvetica,sans-Serif" font-size="10.00">::listen</text>
</a>
</g>
</g>
<!-- Node1&#45;&gt;Node2 -->
<g id="edge1" class="edge">
<title>Node1&#45;&gt;Node2</title>
<path fill="none" stroke="midnightblue" d="M248.17,-231.36C238.91,-269.03 213.62,-351.07 161,-395.5 156.92,-398.94 152.37,-401.89 147.55,-404.42"/>
<polygon fill="midnightblue" stroke="midnightblue" points="251.68,-231.71 250.54,-221.18 244.86,-230.13 251.68,-231.71"/>
</g>
<!-- Node3 -->
<g id="node3" class="node">
<title>Node3</title>
<g id="a_node3"><a xlink:href="classweb_1_1http_1_1server_1_1_server.html#a6001a441205fd1747d9faf22f5df2bfa" target="_top" xlink:title=" ">
<polygon fill="white" stroke="black" points="28,-355.5 28,-385.5 133,-385.5 133,-355.5 28,-355.5"/>
<text text-anchor="start" x="36" y="-373.5" font-family="Helvetica,sans-Serif" font-size="10.00">web::http::server::</text>
<text text-anchor="middle" x="80.5" y="-362.5" font-family="Helvetica,sans-Serif" font-size="10.00">Server::listen</text>
</a>
</g>
</g>
<!-- Node1&#45;&gt;Node3 -->
<g id="edge2" class="edge">
<title>Node1&#45;&gt;Node3</title>
<path fill="none" stroke="midnightblue" d="M244.43,-230.68C231.24,-259.77 202.31,-314.86 161,-345.5 152.75,-351.62 142.96,-356.27 133.12,-359.79"/>
<polygon fill="midnightblue" stroke="midnightblue" points="247.76,-231.8 248.58,-221.24 241.35,-228.99 247.76,-231.8"/>
</g>
<!-- Node4 -->
<g id="node4" class="node">
<title>Node4</title>
<g id="a_node4"><a xlink:href="classcore_1_1socket_1_1stream_1_1tls_1_1_socket_acceptor.html#a8d1e1a2b028a8cf5214adcee44c3e738" target="_top" xlink:title=" ">
<polygon fill="white" stroke="black" points="22.5,-295 22.5,-336 138.5,-336 138.5,-295 22.5,-295"/>
<text text-anchor="start" x="30.5" y="-324" font-family="Helvetica,sans-Serif" font-size="10.00">core::socket::stream</text>
<text text-anchor="start" x="30.5" y="-313" font-family="Helvetica,sans-Serif" font-size="10.00">::tls::SocketAcceptor</text>
<text text-anchor="middle" x="80.5" y="-302" font-family="Helvetica,sans-Serif" font-size="10.00">::listen</text>
</a>
</g>
</g>
<!-- Node1&#45;&gt;Node4 -->
<g id="edge3" class="edge">
<title>Node1&#45;&gt;Node4</title>
<path fill="none" stroke="midnightblue" d="M235.18,-228.37C217.65,-244.72 189.18,-269.35 161,-285.5 153.96,-289.53 146.28,-293.22 138.55,-296.52"/>
<polygon fill="midnightblue" stroke="midnightblue" points="238.01,-230.5 242.86,-221.08 233.19,-225.43 238.01,-230.5"/>
</g>
<!-- Node5 -->
<g id="node5" class="node">
<title>Node5</title>
<g id="a_node5"><a xlink:href="classnet_1_1l2_1_1stream_1_1_socket_server.html#a01506ae56bde1460aa09667f53ac56bf" target="_top" xlink:title=" ">
<polygon fill="white" stroke="black" points="1.5,-245.5 1.5,-275.5 159.5,-275.5 159.5,-245.5 1.5,-245.5"/>
<text text-anchor="start" x="9.5" y="-263.5" font-family="Helvetica,sans-Serif" font-size="10.00">net::l2::stream::SocketServer</text>
<text text-anchor="middle" x="80.5" y="-252.5" font-family="Helvetica,sans-Serif" font-size="10.00">::listen</text>
</a>
</g>
</g>
<!-- Node1&#45;&gt;Node5 -->
<g id="edge4" class="edge">
<title>Node1&#45;&gt;Node5</title>
<path fill="none" stroke="midnightblue" d="M209.35,-223.87C186.45,-230.43 158.13,-238.54 133.98,-245.46"/>
<polygon fill="midnightblue" stroke="midnightblue" points="210.47,-227.18 219.12,-221.06 208.55,-220.45 210.47,-227.18"/>
</g>
<!-- Node6 -->
<g id="node6" class="node">
<title>Node6</title>
<g id="a_node6"><a xlink:href="classnet_1_1un_1_1stream_1_1_socket_server.html#a704d10a3bd06d1a30d355a9213adf66f" target="_top" xlink:title=" ">
<polygon fill="white" stroke="black" points="0,-196.5 0,-226.5 161,-226.5 161,-196.5 0,-196.5"/>
<text text-anchor="start" x="8" y="-214.5" font-family="Helvetica,sans-Serif" font-size="10.00">net::un::stream::SocketServer</text>
<text text-anchor="middle" x="80.5" y="-203.5" font-family="Helvetica,sans-Serif" font-size="10.00">::listen</text>
</a>
</g>
</g>
<!-- Node1&#45;&gt;Node6 -->
<g id="edge5" class="edge">
<title>Node1&#45;&gt;Node6</title>
<path fill="none" stroke="midnightblue" d="M186.91,-211.5C178.52,-211.5 169.86,-211.5 161.27,-211.5"/>
<polygon fill="midnightblue" stroke="midnightblue" points="186.98,-215 196.98,-211.5 186.98,-208 186.98,-215"/>
</g>
<!-- Node7 -->
<g id="node7" class="node">
<title>Node7</title>
<g id="a_node7"><a xlink:href="classnet_1_1stream_1_1_server_socket.html#aed63cb6b736be2003d1e69b6e00a3f46" target="_top" xlink:title=" ">
<polygon fill="white" stroke="black" points="9,-147.5 9,-177.5 152,-177.5 152,-147.5 9,-147.5"/>
<text text-anchor="start" x="17" y="-165.5" font-family="Helvetica,sans-Serif" font-size="10.00">net::stream::ServerSocket</text>
<text text-anchor="middle" x="80.5" y="-154.5" font-family="Helvetica,sans-Serif" font-size="10.00">::listen</text>
</a>
</g>
</g>
<!-- Node1&#45;&gt;Node7 -->
<g id="edge6" class="edge">
<title>Node1&#45;&gt;Node7</title>
<path fill="none" stroke="midnightblue" d="M209.35,-199.13C186.45,-192.57 158.13,-184.46 133.98,-177.54"/>
<polygon fill="midnightblue" stroke="midnightblue" points="208.55,-202.55 219.12,-201.94 210.47,-195.82 208.55,-202.55"/>
</g>
<!-- Node8 -->
<g id="node8" class="node">
<title>Node8</title>
<g id="a_node8"><a xlink:href="classnet_1_1in_1_1stream_1_1_socket_server.html#ad558b4233b8aeaf04581f9a2c36a2059" target="_top" xlink:title=" ">
<polygon fill="white" stroke="black" points="1.5,-98.5 1.5,-128.5 159.5,-128.5 159.5,-98.5 1.5,-98.5"/>
<text text-anchor="start" x="9.5" y="-116.5" font-family="Helvetica,sans-Serif" font-size="10.00">net::in::stream::SocketServer</text>
<text text-anchor="middle" x="80.5" y="-105.5" font-family="Helvetica,sans-Serif" font-size="10.00">::listen</text>
</a>
</g>
</g>
<!-- Node1&#45;&gt;Node8 -->
<g id="edge7" class="edge">
<title>Node1&#45;&gt;Node8</title>
<path fill="none" stroke="midnightblue" d="M235.04,-194.27C217.6,-177.89 189.37,-153.6 161,-138.5 153.98,-134.76 146.3,-131.48 138.58,-128.62"/>
<polygon fill="midnightblue" stroke="midnightblue" points="233.05,-197.2 242.69,-201.59 237.89,-192.15 233.05,-197.2"/>
</g>
<!-- Node9 -->
<g id="node9" class="node">
<title>Node9</title>
<g id="a_node9"><a xlink:href="classnet_1_1in6_1_1stream_1_1_socket_server.html#a3f7e9de3177b93401a56675deb6f9072" target="_top" xlink:title=" ">
<polygon fill="white" stroke="black" points="14.5,-49.5 14.5,-79.5 146.5,-79.5 146.5,-49.5 14.5,-49.5"/>
<text text-anchor="start" x="22.5" y="-67.5" font-family="Helvetica,sans-Serif" font-size="10.00">net::in6::stream::Socket</text>
<text text-anchor="middle" x="80.5" y="-56.5" font-family="Helvetica,sans-Serif" font-size="10.00">Server::listen</text>
</a>
</g>
</g>
<!-- Node1&#45;&gt;Node9 -->
<g id="edge8" class="edge">
<title>Node1&#45;&gt;Node9</title>
<path fill="none" stroke="midnightblue" d="M243.38,-192.91C229.33,-166.17 199.9,-117.03 161,-89.5 155.57,-85.65 149.52,-82.38 143.26,-79.61"/>
<polygon fill="midnightblue" stroke="midnightblue" points="240.34,-194.65 248,-201.97 246.58,-191.47 240.34,-194.65"/>
</g>
<!-- Node10 -->
<g id="node10" class="node">
<title>Node10</title>
<g id="a_node10"><a xlink:href="classnet_1_1rc_1_1stream_1_1_socket_server.html#a445540237a280facbfd3e539845fab2b" target="_top" xlink:title=" ">
<polygon fill="white" stroke="black" points="1.5,-0.5 1.5,-30.5 159.5,-30.5 159.5,-0.5 1.5,-0.5"/>
<text text-anchor="start" x="9.5" y="-18.5" font-family="Helvetica,sans-Serif" font-size="10.00">net::rc::stream::SocketServer</text>
<text text-anchor="middle" x="80.5" y="-7.5" font-family="Helvetica,sans-Serif" font-size="10.00">::listen</text>
</a>
</g>
</g>
<!-- Node1&#45;&gt;Node10 -->
<g id="edge9" class="edge">
<title>Node1&#45;&gt;Node10</title>
<path fill="none" stroke="midnightblue" d="M247.28,-191.62C236.91,-156.05 210.36,-81.41 161,-40.5 156.32,-36.62 151.04,-33.34 145.47,-30.57"/>
<polygon fill="midnightblue" stroke="midnightblue" points="244.03,-193.01 250.08,-201.71 250.77,-191.14 244.03,-193.01"/>
</g>
</g>
</svg>
