<?xml version="1.0" encoding="UTF-8" standalone="no"?>
<!DOCTYPE svg PUBLIC "-//W3C//DTD SVG 1.1//EN"
 "http://www.w3.org/Graphics/SVG/1.1/DTD/svg11.dtd">
<!-- Generated by graphviz version 2.43.0 (0)
 -->
<!-- Title: CLI::detail::check_path Pages: 1 -->
<svg width="491pt" height="296pt"
 viewBox="0.00 0.00 491.00 296.00" xmlns="http://www.w3.org/2000/svg" xmlns:xlink="http://www.w3.org/1999/xlink">
<g id="graph0" class="graph" transform="scale(1 1) rotate(0) translate(4 292)">
<title>CLI::detail::check_path</title>
<polygon fill="white" stroke="transparent" points="-4,4 -4,-292 487,-292 487,4 -4,4"/>
<!-- Node1 -->
<g id="node1" class="node">
<title>Node1</title>
<g id="a_node1"><a xlink:title="get the type of the path from a file name">
<polygon fill="#bfbfbf" stroke="black" points="356,-140 356,-159 483,-159 483,-140 356,-140"/>
<text text-anchor="middle" x="419.5" y="-147" font-family="Helvetica,sans-Serif" font-size="10.00">CLI::detail::check_path</text>
</a>
</g>
</g>
<!-- Node2 -->
<g id="node2" class="node">
<title>Node2</title>
<g id="a_node2"><a xlink:href="class_c_l_i_1_1_app.html#a7a15e5743d4a8eccac57955ed5a6a3b6" target="_top" xlink:title="Read and process a configuration file (main app only)">
<polygon fill="white" stroke="black" points="170,-257.5 170,-287.5 275,-287.5 275,-257.5 170,-257.5"/>
<text text-anchor="start" x="178" y="-275.5" font-family="Helvetica,sans-Serif" font-size="10.00">CLI::App::_process</text>
<text text-anchor="middle" x="222.5" y="-264.5" font-family="Helvetica,sans-Serif" font-size="10.00">_config_file</text>
</a>
</g>
</g>
<!-- Node1&#45;&gt;Node2 -->
<g id="edge1" class="edge">
<title>Node1&#45;&gt;Node2</title>
<path fill="none" stroke="midnightblue" d="M405.7,-167.39C388.7,-189.81 356.52,-227.79 320,-248.5 306.33,-256.25 290.19,-261.52 275.06,-265.1"/>
<polygon fill="midnightblue" stroke="midnightblue" points="408.7,-169.22 411.84,-159.1 403.08,-165.05 408.7,-169.22"/>
</g>
<!-- Node3 -->
<g id="node3" class="node">
<title>Node3</title>
<g id="a_node3"><a xlink:href="class_c_l_i_1_1detail_1_1_existing_directory_validator.html#a75f836841c9a0b7f2eaccb32f25d59f4" target="_top" xlink:title=" ">
<polygon fill="white" stroke="black" points="125,-208.5 125,-238.5 320,-238.5 320,-208.5 125,-208.5"/>
<text text-anchor="start" x="133" y="-226.5" font-family="Helvetica,sans-Serif" font-size="10.00">CLI::detail::ExistingDirectory</text>
<text text-anchor="middle" x="222.5" y="-215.5" font-family="Helvetica,sans-Serif" font-size="10.00">Validator::ExistingDirectoryValidator</text>
</a>
</g>
</g>
<!-- Node1&#45;&gt;Node3 -->
<g id="edge2" class="edge">
<title>Node1&#45;&gt;Node3</title>
<path fill="none" stroke="midnightblue" d="M393.45,-164.21C373.95,-175.16 345.94,-189.83 320,-199.5 311.1,-202.82 301.57,-205.81 292.1,-208.48"/>
<polygon fill="midnightblue" stroke="midnightblue" points="395.33,-167.17 402.29,-159.17 391.87,-161.09 395.33,-167.17"/>
</g>
<!-- Node4 -->
<g id="node4" class="node">
<title>Node4</title>
<g id="a_node4"><a xlink:href="class_c_l_i_1_1detail_1_1_existing_file_validator.html#a93a39cd927968e7868fc2c145f2793e3" target="_top" xlink:title=" ">
<polygon fill="white" stroke="black" points="139,-159.5 139,-189.5 306,-189.5 306,-159.5 139,-159.5"/>
<text text-anchor="start" x="147" y="-177.5" font-family="Helvetica,sans-Serif" font-size="10.00">CLI::detail::ExistingFile</text>
<text text-anchor="middle" x="222.5" y="-166.5" font-family="Helvetica,sans-Serif" font-size="10.00">Validator::ExistingFileValidator</text>
</a>
</g>
</g>
<!-- Node1&#45;&gt;Node4 -->
<g id="edge3" class="edge">
<title>Node1&#45;&gt;Node4</title>
<path fill="none" stroke="midnightblue" d="M345.82,-158.82C332.93,-160.47 319.43,-162.2 306.29,-163.89"/>
<polygon fill="midnightblue" stroke="midnightblue" points="346.52,-162.26 356,-157.51 345.63,-155.31 346.52,-162.26"/>
</g>
<!-- Node5 -->
<g id="node5" class="node">
<title>Node5</title>
<g id="a_node5"><a xlink:href="class_c_l_i_1_1detail_1_1_existing_path_validator.html#ae0e2b8aca632fce3e902fcf99e2b8ad4" target="_top" xlink:title=" ">
<polygon fill="white" stroke="black" points="136.5,-110.5 136.5,-140.5 308.5,-140.5 308.5,-110.5 136.5,-110.5"/>
<text text-anchor="start" x="144.5" y="-128.5" font-family="Helvetica,sans-Serif" font-size="10.00">CLI::detail::ExistingPath</text>
<text text-anchor="middle" x="222.5" y="-117.5" font-family="Helvetica,sans-Serif" font-size="10.00">Validator::ExistingPathValidator</text>
</a>
</g>
</g>
<!-- Node1&#45;&gt;Node5 -->
<g id="edge4" class="edge">
<title>Node1&#45;&gt;Node5</title>
<path fill="none" stroke="midnightblue" d="M345.96,-140.57C333.84,-139.08 321.16,-137.52 308.76,-135.99"/>
<polygon fill="midnightblue" stroke="midnightblue" points="345.64,-144.06 356,-141.81 346.5,-137.11 345.64,-144.06"/>
</g>
<!-- Node6 -->
<g id="node6" class="node">
<title>Node6</title>
<g id="a_node6"><a xlink:href="class_c_l_i_1_1detail_1_1_nonexistent_path_validator.html#a1708ec7b5892f369b64be668870df677" target="_top" xlink:title=" ">
<polygon fill="white" stroke="black" points="137.5,-50 137.5,-91 307.5,-91 307.5,-50 137.5,-50"/>
<text text-anchor="start" x="145.5" y="-79" font-family="Helvetica,sans-Serif" font-size="10.00">CLI::detail::Nonexistent</text>
<text text-anchor="start" x="145.5" y="-68" font-family="Helvetica,sans-Serif" font-size="10.00">PathValidator::NonexistentPath</text>
<text text-anchor="middle" x="222.5" y="-57" font-family="Helvetica,sans-Serif" font-size="10.00">Validator</text>
</a>
</g>
</g>
<!-- Node1&#45;&gt;Node6 -->
<g id="edge5" class="edge">
<title>Node1&#45;&gt;Node6</title>
<path fill="none" stroke="midnightblue" d="M391.77,-135.19C372.22,-125.04 344.88,-111.5 320,-101.5 310.94,-97.86 301.27,-94.34 291.68,-91.06"/>
<polygon fill="midnightblue" stroke="midnightblue" points="390.21,-138.32 400.7,-139.87 393.46,-132.12 390.21,-138.32"/>
</g>
<!-- Node7 -->
<g id="node7" class="node">
<title>Node7</title>
<g id="a_node7"><a xlink:href="namespace_c_l_i_1_1detail.html#a33c9893591d9e9d3d4c9d7282d50b9d2" target="_top" xlink:title=" ">
<polygon fill="white" stroke="black" points="174.5,-0.5 174.5,-30.5 270.5,-30.5 270.5,-0.5 174.5,-0.5"/>
<text text-anchor="start" x="182.5" y="-18.5" font-family="Helvetica,sans-Serif" font-size="10.00">CLI::detail::split</text>
<text text-anchor="middle" x="222.5" y="-7.5" font-family="Helvetica,sans-Serif" font-size="10.00">_program_name</text>
</a>
</g>
</g>
<!-- Node1&#45;&gt;Node7 -->
<g id="edge6" class="edge">
<title>Node1&#45;&gt;Node7</title>
<path fill="none" stroke="midnightblue" d="M407.06,-131.27C390.76,-106.83 358.52,-63.84 320,-40.5 305.2,-31.53 287.24,-25.76 270.84,-22.05"/>
<polygon fill="midnightblue" stroke="midnightblue" points="404.3,-133.45 412.69,-139.93 410.17,-129.64 404.3,-133.45"/>
</g>
<!-- Node8 -->
<g id="node8" class="node">
<title>Node8</title>
<g id="a_node8"><a xlink:href="class_c_l_i_1_1_app.html#a187f08c5326d89319802162e33faff4e" target="_top" xlink:title=" ">
<polygon fill="white" stroke="black" points="0,-6 0,-25 89,-25 89,-6 0,-6"/>
<text text-anchor="middle" x="44.5" y="-13" font-family="Helvetica,sans-Serif" font-size="10.00">CLI::App::parse</text>
</a>
</g>
</g>
<!-- Node7&#45;&gt;Node8 -->
<g id="edge7" class="edge">
<title>Node7&#45;&gt;Node8</title>
<path fill="none" stroke="midnightblue" d="M164.14,-15.5C139.77,-15.5 111.82,-15.5 89.17,-15.5"/>
<polygon fill="midnightblue" stroke="midnightblue" points="164.34,-19 174.34,-15.5 164.34,-12 164.34,-19"/>
</g>
</g>
</svg>
