<?xml version="1.0" encoding="UTF-8" standalone="no"?>
<!DOCTYPE svg PUBLIC "-//W3C//DTD SVG 1.1//EN"
 "http://www.w3.org/Graphics/SVG/1.1/DTD/svg11.dtd">
<!-- Generated by graphviz version 2.43.0 (0)
 -->
<!-- Title: core::system::close Pages: 1 -->
<svg width="906pt" height="362pt"
 viewBox="0.00 0.00 906.00 362.00" xmlns="http://www.w3.org/2000/svg" xmlns:xlink="http://www.w3.org/1999/xlink">
<g id="graph0" class="graph" transform="scale(1 1) rotate(0) translate(4 358)">
<title>core::system::close</title>
<polygon fill="white" stroke="transparent" points="-4,4 -4,-358 902,-358 902,4 -4,4"/>
<!-- Node1 -->
<g id="node1" class="node">
<title>Node1</title>
<g id="a_node1"><a xlink:title=" ">
<polygon fill="#bfbfbf" stroke="black" points="787,-187 787,-206 898,-206 898,-187 787,-187"/>
<text text-anchor="middle" x="842.5" y="-194" font-family="Helvetica,sans-Serif" font-size="10.00">core::system::close</text>
</a>
</g>
</g>
<!-- Node2 -->
<g id="node2" class="node">
<title>Node2</title>
<g id="a_node2"><a xlink:href="classcore_1_1socket_1_1stream_1_1_socket_acceptor.html#a92a9a841058ce7414423ceb3f348e43e" target="_top" xlink:title=" ">
<polygon fill="white" stroke="black" points="587,-323.5 587,-353.5 751,-353.5 751,-323.5 587,-323.5"/>
<text text-anchor="start" x="595" y="-341.5" font-family="Helvetica,sans-Serif" font-size="10.00">core::socket::stream</text>
<text text-anchor="middle" x="669" y="-330.5" font-family="Helvetica,sans-Serif" font-size="10.00">::SocketAcceptor::acceptEvent</text>
</a>
</g>
</g>
<!-- Node1&#45;&gt;Node2 -->
<g id="edge1" class="edge">
<title>Node1&#45;&gt;Node2</title>
<path fill="none" stroke="midnightblue" d="M831.75,-215.46C817.47,-241.36 788.46,-287.55 751,-313.5 745.44,-317.36 739.26,-320.63 732.86,-323.41"/>
<polygon fill="midnightblue" stroke="midnightblue" points="835.01,-216.78 836.64,-206.31 828.84,-213.48 835.01,-216.78"/>
</g>
<!-- Node3 -->
<g id="node3" class="node">
<title>Node3</title>
<g id="a_node3"><a xlink:href="classcore_1_1_descriptor.html#a098be4cee708449c8ae045f06cf17c29" target="_top" xlink:title=" ">
<polygon fill="white" stroke="black" points="606.5,-285 606.5,-304 731.5,-304 731.5,-285 606.5,-285"/>
<text text-anchor="middle" x="669" y="-292" font-family="Helvetica,sans-Serif" font-size="10.00">core::Descriptor::close</text>
</a>
</g>
</g>
<!-- Node1&#45;&gt;Node3 -->
<g id="edge2" class="edge">
<title>Node1&#45;&gt;Node3</title>
<path fill="none" stroke="midnightblue" d="M826.6,-213.76C809.98,-231.89 781.41,-259.9 751,-275.5 743.42,-279.39 735.03,-282.5 726.61,-284.97"/>
<polygon fill="midnightblue" stroke="midnightblue" points="829.3,-215.99 833.35,-206.2 824.08,-211.32 829.3,-215.99"/>
</g>
<!-- Node5 -->
<g id="node5" class="node">
<title>Node5</title>
<g id="a_node5"><a xlink:href="classutils_1_1_daemon.html#a89558caabfc72463184fd408e199554b" target="_top" xlink:title=" ">
<polygon fill="white" stroke="black" points="596.5,-247 596.5,-266 741.5,-266 741.5,-247 596.5,-247"/>
<text text-anchor="middle" x="669" y="-254" font-family="Helvetica,sans-Serif" font-size="10.00">utils::Daemon::daemonize</text>
</a>
</g>
</g>
<!-- Node1&#45;&gt;Node5 -->
<g id="edge4" class="edge">
<title>Node1&#45;&gt;Node5</title>
<path fill="none" stroke="midnightblue" d="M814.07,-210.62C796.41,-219.28 772.77,-230.09 751,-237.5 740.33,-241.13 728.65,-244.31 717.55,-246.98"/>
<polygon fill="midnightblue" stroke="midnightblue" points="815.82,-213.66 823.21,-206.07 812.7,-207.39 815.82,-213.66"/>
</g>
<!-- Node10 -->
<g id="node10" class="node">
<title>Node10</title>
<g id="a_node10"><a xlink:href="classutils_1_1_daemon.html#aaf715f5b5f989773fd7cee261560ff37" target="_top" xlink:title=" ">
<polygon fill="white" stroke="black" points="616,-209 616,-228 722,-228 722,-209 616,-209"/>
<text text-anchor="middle" x="669" y="-216" font-family="Helvetica,sans-Serif" font-size="10.00">utils::Daemon::kill</text>
</a>
</g>
</g>
<!-- Node1&#45;&gt;Node10 -->
<g id="edge9" class="edge">
<title>Node1&#45;&gt;Node10</title>
<path fill="none" stroke="midnightblue" d="M776.64,-204.82C758.64,-207.13 739.34,-209.61 722.17,-211.81"/>
<polygon fill="midnightblue" stroke="midnightblue" points="777.29,-208.27 786.76,-203.52 776.4,-201.32 777.29,-208.27"/>
</g>
<!-- Node11 -->
<g id="node11" class="node">
<title>Node11</title>
<g id="a_node11"><a xlink:href="classweb_1_1http_1_1server_1_1_socket_context.html#a6b88d296c560158f634c5b7b60e6cb75" target="_top" xlink:title=" ">
<polygon fill="white" stroke="black" points="587.5,-159.5 587.5,-189.5 750.5,-189.5 750.5,-159.5 587.5,-159.5"/>
<text text-anchor="start" x="595.5" y="-177.5" font-family="Helvetica,sans-Serif" font-size="10.00">web::http::server::</text>
<text text-anchor="middle" x="669" y="-166.5" font-family="Helvetica,sans-Serif" font-size="10.00">SocketContext::requestParsed</text>
</a>
</g>
</g>
<!-- Node1&#45;&gt;Node11 -->
<g id="edge11" class="edge">
<title>Node1&#45;&gt;Node11</title>
<path fill="none" stroke="midnightblue" d="M776.63,-188.18C768.18,-187.09 759.45,-185.97 750.78,-184.86"/>
<polygon fill="midnightblue" stroke="midnightblue" points="776.4,-191.68 786.76,-189.48 777.29,-184.73 776.4,-191.68"/>
</g>
<!-- Node12 -->
<g id="node12" class="node">
<title>Node12</title>
<g id="a_node12"><a xlink:href="classcore_1_1socket_1_1stream_1_1_socket_connection.html#a645385848a618f16a8492c05ba5dfc5a" target="_top" xlink:title=" ">
<polygon fill="white" stroke="black" points="587.5,-99 587.5,-140 750.5,-140 750.5,-99 587.5,-99"/>
<text text-anchor="start" x="595.5" y="-128" font-family="Helvetica,sans-Serif" font-size="10.00">core::socket::stream</text>
<text text-anchor="start" x="595.5" y="-117" font-family="Helvetica,sans-Serif" font-size="10.00">::SocketConnection::shutdown</text>
<text text-anchor="middle" x="669" y="-106" font-family="Helvetica,sans-Serif" font-size="10.00">Write</text>
</a>
</g>
</g>
<!-- Node1&#45;&gt;Node12 -->
<g id="edge12" class="edge">
<title>Node1&#45;&gt;Node12</title>
<path fill="none" stroke="midnightblue" d="M815.27,-181.77C797.43,-172.03 773.13,-159.3 751,-149.5 743.73,-146.28 736,-143.11 728.31,-140.1"/>
<polygon fill="midnightblue" stroke="midnightblue" points="814.02,-185.08 824.46,-186.84 817.39,-178.95 814.02,-185.08"/>
</g>
<!-- Node13 -->
<g id="node13" class="node">
<title>Node13</title>
<g id="a_node13"><a xlink:href="classcore_1_1pipe_1_1_pipe_sink.html#a7e372a89be8593bf92a71134620a67df" target="_top" xlink:title=" ">
<polygon fill="white" stroke="black" points="612.5,-49.5 612.5,-79.5 725.5,-79.5 725.5,-49.5 612.5,-49.5"/>
<text text-anchor="start" x="620.5" y="-67.5" font-family="Helvetica,sans-Serif" font-size="10.00">core::pipe::PipeSink</text>
<text text-anchor="middle" x="669" y="-56.5" font-family="Helvetica,sans-Serif" font-size="10.00">::~PipeSink</text>
</a>
</g>
</g>
<!-- Node1&#45;&gt;Node13 -->
<g id="edge13" class="edge">
<title>Node1&#45;&gt;Node13</title>
<path fill="none" stroke="midnightblue" d="M830.7,-178.15C815.74,-154.31 786.5,-112.96 751,-89.5 743.27,-84.39 734.43,-80.28 725.51,-76.99"/>
<polygon fill="midnightblue" stroke="midnightblue" points="827.85,-180.21 836.05,-186.92 833.82,-176.56 827.85,-180.21"/>
</g>
<!-- Node14 -->
<g id="node14" class="node">
<title>Node14</title>
<g id="a_node14"><a xlink:href="classcore_1_1pipe_1_1_pipe_source.html#abea2fa6ba7415c44f28a9ec6bc10865b" target="_top" xlink:title=" ">
<polygon fill="white" stroke="black" points="606.5,-0.5 606.5,-30.5 731.5,-30.5 731.5,-0.5 606.5,-0.5"/>
<text text-anchor="start" x="614.5" y="-18.5" font-family="Helvetica,sans-Serif" font-size="10.00">core::pipe::PipeSource</text>
<text text-anchor="middle" x="669" y="-7.5" font-family="Helvetica,sans-Serif" font-size="10.00">::~PipeSource</text>
</a>
</g>
</g>
<!-- Node1&#45;&gt;Node14 -->
<g id="edge14" class="edge">
<title>Node1&#45;&gt;Node14</title>
<path fill="none" stroke="midnightblue" d="M835.52,-176.79C824.41,-143.47 797.38,-76.09 751,-39.5 745.24,-34.96 738.64,-31.27 731.75,-28.29"/>
<polygon fill="midnightblue" stroke="midnightblue" points="832.31,-178.23 838.69,-186.69 838.98,-176.09 832.31,-178.23"/>
</g>
<!-- Node4 -->
<g id="node4" class="node">
<title>Node4</title>
<g id="a_node4"><a xlink:href="classcore_1_1_descriptor.html#a212cfe5a0a307e83dcdc2daad0342fb1" target="_top" xlink:title=" ">
<polygon fill="white" stroke="black" points="451,-279.5 451,-309.5 551,-309.5 551,-279.5 451,-279.5"/>
<text text-anchor="start" x="459" y="-297.5" font-family="Helvetica,sans-Serif" font-size="10.00">core::Descriptor::</text>
<text text-anchor="middle" x="501" y="-286.5" font-family="Helvetica,sans-Serif" font-size="10.00">~Descriptor</text>
</a>
</g>
</g>
<!-- Node3&#45;&gt;Node4 -->
<g id="edge3" class="edge">
<title>Node3&#45;&gt;Node4</title>
<path fill="none" stroke="midnightblue" d="M595.85,-294.5C580.76,-294.5 565.18,-294.5 551.16,-294.5"/>
<polygon fill="midnightblue" stroke="midnightblue" points="596.19,-298 606.19,-294.5 596.19,-291 596.19,-298"/>
</g>
<!-- Node6 -->
<g id="node6" class="node">
<title>Node6</title>
<g id="a_node6"><a xlink:href="classutils_1_1_config.html#ab333855436d345d6b25766b9a1bd917a" target="_top" xlink:title=" ">
<polygon fill="white" stroke="black" points="452.5,-225 452.5,-244 549.5,-244 549.5,-225 452.5,-225"/>
<text text-anchor="middle" x="501" y="-232" font-family="Helvetica,sans-Serif" font-size="10.00">utils::Config::init</text>
</a>
</g>
</g>
<!-- Node5&#45;&gt;Node6 -->
<g id="edge5" class="edge">
<title>Node5&#45;&gt;Node6</title>
<path fill="none" stroke="midnightblue" d="M586.12,-245.65C573.58,-243.99 561,-242.32 549.53,-240.8"/>
<polygon fill="midnightblue" stroke="midnightblue" points="585.78,-249.13 596.16,-246.98 586.7,-242.19 585.78,-249.13"/>
</g>
<!-- Node7 -->
<g id="node7" class="node">
<title>Node7</title>
<g id="a_node7"><a xlink:href="classcore_1_1_event_loop.html#a646626e7bf61e04877f71473b49e90ca" target="_top" xlink:title=" ">
<polygon fill="white" stroke="black" points="299,-225 299,-244 415,-244 415,-225 299,-225"/>
<text text-anchor="middle" x="357" y="-232" font-family="Helvetica,sans-Serif" font-size="10.00">core::EventLoop::init</text>
</a>
</g>
</g>
<!-- Node6&#45;&gt;Node7 -->
<g id="edge6" class="edge">
<title>Node6&#45;&gt;Node7</title>
<path fill="none" stroke="midnightblue" d="M442.06,-234.5C433.18,-234.5 424.02,-234.5 415.15,-234.5"/>
<polygon fill="midnightblue" stroke="midnightblue" points="442.32,-238 452.32,-234.5 442.32,-231 442.32,-238"/>
</g>
<!-- Node8 -->
<g id="node8" class="node">
<title>Node8</title>
<g id="a_node8"><a xlink:href="classcore_1_1_s_node_c.html#a2c8b01c5fc6ecc3036cb48a76f76f3b5" target="_top" xlink:title=" ">
<polygon fill="white" stroke="black" points="159,-225 159,-244 263,-244 263,-225 159,-225"/>
<text text-anchor="middle" x="211" y="-232" font-family="Helvetica,sans-Serif" font-size="10.00">core::SNodeC::init</text>
</a>
</g>
</g>
<!-- Node7&#45;&gt;Node8 -->
<g id="edge7" class="edge">
<title>Node7&#45;&gt;Node8</title>
<path fill="none" stroke="midnightblue" d="M288.65,-234.5C280.05,-234.5 271.36,-234.5 263.07,-234.5"/>
<polygon fill="midnightblue" stroke="midnightblue" points="288.67,-238 298.67,-234.5 288.67,-231 288.67,-238"/>
</g>
<!-- Node9 -->
<g id="node9" class="node">
<title>Node9</title>
<g id="a_node9"><a xlink:href="classexpress_1_1_web_app.html#a0a01439a0cc8dfc86ed14f1094826b7e" target="_top" xlink:title=" ">
<polygon fill="white" stroke="black" points="0,-225 0,-244 123,-244 123,-225 0,-225"/>
<text text-anchor="middle" x="61.5" y="-232" font-family="Helvetica,sans-Serif" font-size="10.00">express::WebApp::init</text>
</a>
</g>
</g>
<!-- Node8&#45;&gt;Node9 -->
<g id="edge8" class="edge">
<title>Node8&#45;&gt;Node9</title>
<path fill="none" stroke="midnightblue" d="M148.7,-234.5C140.28,-234.5 131.63,-234.5 123.22,-234.5"/>
<polygon fill="midnightblue" stroke="midnightblue" points="148.83,-238 158.83,-234.5 148.83,-231 148.83,-238"/>
</g>
<!-- Node10&#45;&gt;Node6 -->
<g id="edge10" class="edge">
<title>Node10&#45;&gt;Node6</title>
<path fill="none" stroke="midnightblue" d="M605.79,-224.5C587.21,-226.29 567.14,-228.22 549.65,-229.91"/>
<polygon fill="midnightblue" stroke="midnightblue" points="606.31,-227.96 615.93,-223.52 605.64,-220.99 606.31,-227.96"/>
</g>
</g>
</svg>
