<?xml version="1.0" encoding="UTF-8" standalone="no"?>
<!DOCTYPE svg PUBLIC "-//W3C//DTD SVG 1.1//EN"
 "http://www.w3.org/Graphics/SVG/1.1/DTD/svg11.dtd">
<!-- Generated by graphviz version 2.43.0 (0)
 -->
<!-- Title: core::system::poll Pages: 1 -->
<svg width="885pt" height="78pt"
 viewBox="0.00 0.00 885.00 77.50" xmlns="http://www.w3.org/2000/svg" xmlns:xlink="http://www.w3.org/1999/xlink">
<g id="graph0" class="graph" transform="scale(1 1) rotate(0) translate(4 73.5)">
<title>core::system::poll</title>
<polygon fill="white" stroke="transparent" points="-4,4 -4,-73.5 881,-73.5 881,4 -4,4"/>
<!-- Node1 -->
<g id="node1" class="node">
<title>Node1</title>
<g id="a_node1"><a xlink:title=" ">
<polygon fill="#bfbfbf" stroke="black" points="773,-22.5 773,-41.5 877,-41.5 877,-22.5 773,-22.5"/>
<text text-anchor="middle" x="825" y="-29.5" font-family="Helvetica,sans-Serif" font-size="10.00">core::system::poll</text>
</a>
</g>
</g>
<!-- Node2 -->
<g id="node2" class="node">
<title>Node2</title>
<g id="a_node2"><a xlink:href="classcore_1_1poll_1_1_event_multiplexer.html#ae8b3e268037a3a9acc462306f4c5f223" target="_top" xlink:title=" ">
<polygon fill="white" stroke="black" points="585,-39 585,-69 736,-69 736,-39 585,-39"/>
<text text-anchor="start" x="593" y="-57" font-family="Helvetica,sans-Serif" font-size="10.00">core::poll::EventMultiplexer</text>
<text text-anchor="middle" x="660.5" y="-46" font-family="Helvetica,sans-Serif" font-size="10.00">::multiplex</text>
</a>
</g>
</g>
<!-- Node1&#45;&gt;Node2 -->
<g id="edge1" class="edge">
<title>Node1&#45;&gt;Node2</title>
<path fill="none" stroke="midnightblue" d="M762.58,-40.32C753.91,-41.49 744.92,-42.71 736.03,-43.91"/>
<polygon fill="midnightblue" stroke="midnightblue" points="763.14,-43.77 772.58,-38.96 762.2,-36.83 763.14,-43.77"/>
</g>
<!-- Node3 -->
<g id="node3" class="node">
<title>Node3</title>
<g id="a_node3"><a xlink:href="classutils_1_1_daemon.html#ada36c7a73176494c1aae0d468263eb52" target="_top" xlink:title=" ">
<polygon fill="white" stroke="black" points="584,-0.5 584,-19.5 737,-19.5 737,-0.5 584,-0.5"/>
<text text-anchor="middle" x="660.5" y="-7.5" font-family="Helvetica,sans-Serif" font-size="10.00">utils::Daemon::stopDaemon</text>
</a>
</g>
</g>
<!-- Node1&#45;&gt;Node3 -->
<g id="edge2" class="edge">
<title>Node1&#45;&gt;Node3</title>
<path fill="none" stroke="midnightblue" d="M762.38,-23.66C752.42,-22.31 742.04,-20.9 731.89,-19.53"/>
<polygon fill="midnightblue" stroke="midnightblue" points="762.2,-27.17 772.58,-25.04 763.14,-20.23 762.2,-27.17"/>
</g>
<!-- Node4 -->
<g id="node4" class="node">
<title>Node4</title>
<g id="a_node4"><a xlink:href="classutils_1_1_config.html#ab333855436d345d6b25766b9a1bd917a" target="_top" xlink:title=" ">
<polygon fill="white" stroke="black" points="451,-0.5 451,-19.5 548,-19.5 548,-0.5 451,-0.5"/>
<text text-anchor="middle" x="499.5" y="-7.5" font-family="Helvetica,sans-Serif" font-size="10.00">utils::Config::init</text>
</a>
</g>
</g>
<!-- Node3&#45;&gt;Node4 -->
<g id="edge3" class="edge">
<title>Node3&#45;&gt;Node4</title>
<path fill="none" stroke="midnightblue" d="M573.47,-10C564.74,-10 556.13,-10 548.04,-10"/>
<polygon fill="midnightblue" stroke="midnightblue" points="573.73,-13.5 583.73,-10 573.73,-6.5 573.73,-13.5"/>
</g>
<!-- Node5 -->
<g id="node5" class="node">
<title>Node5</title>
<g id="a_node5"><a xlink:href="classcore_1_1_event_loop.html#a646626e7bf61e04877f71473b49e90ca" target="_top" xlink:title=" ">
<polygon fill="white" stroke="black" points="299,-0.5 299,-19.5 415,-19.5 415,-0.5 299,-0.5"/>
<text text-anchor="middle" x="357" y="-7.5" font-family="Helvetica,sans-Serif" font-size="10.00">core::EventLoop::init</text>
</a>
</g>
</g>
<!-- Node4&#45;&gt;Node5 -->
<g id="edge4" class="edge">
<title>Node4&#45;&gt;Node5</title>
<path fill="none" stroke="midnightblue" d="M440.8,-10C432.36,-10 423.68,-10 415.25,-10"/>
<polygon fill="midnightblue" stroke="midnightblue" points="440.93,-13.5 450.93,-10 440.93,-6.5 440.93,-13.5"/>
</g>
<!-- Node6 -->
<g id="node6" class="node">
<title>Node6</title>
<g id="a_node6"><a xlink:href="classcore_1_1_s_node_c.html#a2c8b01c5fc6ecc3036cb48a76f76f3b5" target="_top" xlink:title=" ">
<polygon fill="white" stroke="black" points="159,-0.5 159,-19.5 263,-19.5 263,-0.5 159,-0.5"/>
<text text-anchor="middle" x="211" y="-7.5" font-family="Helvetica,sans-Serif" font-size="10.00">core::SNodeC::init</text>
</a>
</g>
</g>
<!-- Node5&#45;&gt;Node6 -->
<g id="edge5" class="edge">
<title>Node5&#45;&gt;Node6</title>
<path fill="none" stroke="midnightblue" d="M288.65,-10C280.05,-10 271.36,-10 263.07,-10"/>
<polygon fill="midnightblue" stroke="midnightblue" points="288.67,-13.5 298.67,-10 288.67,-6.5 288.67,-13.5"/>
</g>
<!-- Node7 -->
<g id="node7" class="node">
<title>Node7</title>
<g id="a_node7"><a xlink:href="classexpress_1_1_web_app.html#a0a01439a0cc8dfc86ed14f1094826b7e" target="_top" xlink:title=" ">
<polygon fill="white" stroke="black" points="0,-0.5 0,-19.5 123,-19.5 123,-0.5 0,-0.5"/>
<text text-anchor="middle" x="61.5" y="-7.5" font-family="Helvetica,sans-Serif" font-size="10.00">express::WebApp::init</text>
</a>
</g>
</g>
<!-- Node6&#45;&gt;Node7 -->
<g id="edge6" class="edge">
<title>Node6&#45;&gt;Node7</title>
<path fill="none" stroke="midnightblue" d="M148.7,-10C140.28,-10 131.63,-10 123.22,-10"/>
<polygon fill="midnightblue" stroke="midnightblue" points="148.83,-13.5 158.83,-10 148.83,-6.5 148.83,-13.5"/>
</g>
</g>
</svg>
