<?xml version="1.0" encoding="UTF-8" standalone="no"?>
<!DOCTYPE svg PUBLIC "-//W3C//DTD SVG 1.1//EN"
 "http://www.w3.org/Graphics/SVG/1.1/DTD/svg11.dtd">
<!-- Generated by graphviz version 2.43.0 (0)
 -->
<!-- Title: CLI::detail::join Pages: 1 -->
<svg width="631pt" height="565pt"
 viewBox="0.00 0.00 631.00 564.50" xmlns="http://www.w3.org/2000/svg" xmlns:xlink="http://www.w3.org/1999/xlink">
<g id="graph0" class="graph" transform="scale(1 1) rotate(0) translate(4 560.5)">
<title>CLI::detail::join</title>
<polygon fill="white" stroke="transparent" points="-4,4 -4,-560.5 627,-560.5 627,4 -4,4"/>
<!-- Node1 -->
<g id="node1" class="node">
<title>Node1</title>
<g id="a_node1"><a xlink:title="Simple function to join a string.">
<polygon fill="#bfbfbf" stroke="black" points="534,-194.5 534,-213.5 623,-213.5 623,-194.5 534,-194.5"/>
<text text-anchor="middle" x="578.5" y="-201.5" font-family="Helvetica,sans-Serif" font-size="10.00">CLI::detail::join</text>
</a>
</g>
</g>
<!-- Node2 -->
<g id="node2" class="node">
<title>Node2</title>
<g id="a_node2"><a xlink:href="class_c_l_i_1_1_app.html#a4e0c00ce18bbfca1ae890a653bbd2b93" target="_top" xlink:title="Verify required options and cross requirements. Subcommands too (only if selected).">
<polygon fill="white" stroke="black" points="186.5,-526 186.5,-556 291.5,-556 291.5,-526 186.5,-526"/>
<text text-anchor="start" x="194.5" y="-544" font-family="Helvetica,sans-Serif" font-size="10.00">CLI::App::_process</text>
<text text-anchor="middle" x="239" y="-533" font-family="Helvetica,sans-Serif" font-size="10.00">_requirements</text>
</a>
</g>
</g>
<!-- Node1&#45;&gt;Node2 -->
<g id="edge1" class="edge">
<title>Node1&#45;&gt;Node2</title>
<path fill="none" stroke="midnightblue" d="M574.14,-223.57C566.61,-262.41 545.22,-350.39 498,-407 443.76,-472.02 349.82,-509.36 291.5,-527.39"/>
<polygon fill="midnightblue" stroke="midnightblue" points="577.61,-224.04 575.97,-213.58 570.72,-222.78 577.61,-224.04"/>
</g>
<!-- Node3 -->
<g id="node3" class="node">
<title>Node3</title>
<g id="a_node3"><a xlink:href="class_c_l_i_1_1_option.html#a644abf536eba340929c3b9bad73d0d11" target="_top" xlink:title=" ">
<polygon fill="white" stroke="black" points="370,-233 370,-263 484,-263 484,-233 370,-233"/>
<text text-anchor="start" x="378" y="-251" font-family="Helvetica,sans-Serif" font-size="10.00">CLI::Option::_reduce</text>
<text text-anchor="middle" x="427" y="-240" font-family="Helvetica,sans-Serif" font-size="10.00">_results</text>
</a>
</g>
</g>
<!-- Node1&#45;&gt;Node3 -->
<g id="edge2" class="edge">
<title>Node1&#45;&gt;Node3</title>
<path fill="none" stroke="midnightblue" d="M535.18,-216.46C517.76,-221.58 497.43,-227.56 479.19,-232.93"/>
<polygon fill="midnightblue" stroke="midnightblue" points="536.46,-219.73 545.06,-213.55 534.48,-213.01 536.46,-219.73"/>
</g>
<!-- Node4 -->
<g id="node4" class="node">
<title>Node4</title>
<g id="a_node4"><a xlink:href="class_c_l_i_1_1_checked_transformer.html#af11e8936b4c0707ff94338908622e111" target="_top" xlink:title=" ">
<polygon fill="white" stroke="black" points="170,-214 170,-244 308,-244 308,-214 170,-214"/>
<text text-anchor="start" x="178" y="-232" font-family="Helvetica,sans-Serif" font-size="10.00">CLI::CheckedTransformer</text>
<text text-anchor="middle" x="239" y="-221" font-family="Helvetica,sans-Serif" font-size="10.00">::CheckedTransformer</text>
</a>
</g>
</g>
<!-- Node1&#45;&gt;Node4 -->
<g id="edge3" class="edge">
<title>Node1&#45;&gt;Node4</title>
<path fill="none" stroke="midnightblue" d="M523.59,-207.99C465.15,-212.32 371.74,-219.24 308.23,-223.95"/>
<polygon fill="midnightblue" stroke="midnightblue" points="524.01,-211.47 533.72,-207.24 523.49,-204.49 524.01,-211.47"/>
</g>
<!-- Node5 -->
<g id="node5" class="node">
<title>Node5</title>
<g id="a_node5"><a xlink:href="struct_c_l_i_1_1_config_item.html#af76892225a187445bced0d220ae9e52b" target="_top" xlink:title="The list of parents and name joined by &quot;.&quot;.">
<polygon fill="white" stroke="black" points="356.5,-107.5 356.5,-126.5 497.5,-126.5 497.5,-107.5 356.5,-107.5"/>
<text text-anchor="middle" x="427" y="-114.5" font-family="Helvetica,sans-Serif" font-size="10.00">CLI::ConfigItem::fullname</text>
</a>
</g>
</g>
<!-- Node1&#45;&gt;Node5 -->
<g id="edge4" class="edge">
<title>Node1&#45;&gt;Node5</title>
<path fill="none" stroke="midnightblue" d="M558.03,-188.21C542.41,-176 519.59,-159.18 498,-147 483.95,-139.08 467.39,-131.89 453.91,-126.54"/>
<polygon fill="midnightblue" stroke="midnightblue" points="555.91,-190.99 565.92,-194.46 560.26,-185.51 555.91,-190.99"/>
</g>
<!-- Node8 -->
<g id="node8" class="node">
<title>Node8</title>
<g id="a_node8"><a xlink:href="namespace_c_l_i_1_1detail.html#a320e031a5eb12297a140d2d6fc73362a" target="_top" xlink:title="Generate a string representation of a map.">
<polygon fill="white" stroke="black" points="356,-156.5 356,-175.5 498,-175.5 498,-156.5 356,-156.5"/>
<text text-anchor="middle" x="427" y="-163.5" font-family="Helvetica,sans-Serif" font-size="10.00">CLI::detail::generate_map</text>
</a>
</g>
</g>
<!-- Node1&#45;&gt;Node8 -->
<g id="edge7" class="edge">
<title>Node1&#45;&gt;Node8</title>
<path fill="none" stroke="midnightblue" d="M529.85,-191.89C509.03,-186.6 484.96,-180.48 465.45,-175.52"/>
<polygon fill="midnightblue" stroke="midnightblue" points="529.22,-195.34 539.77,-194.41 530.95,-188.56 529.22,-195.34"/>
</g>
<!-- Node11 -->
<g id="node11" class="node">
<title>Node11</title>
<g id="a_node11"><a xlink:href="namespace_c_l_i_1_1detail.html#a75f66945cfe53b556e4c311f9a88a155" target="_top" xlink:title="Generate a string representation of a set.">
<polygon fill="white" stroke="black" points="359.5,-69.5 359.5,-88.5 494.5,-88.5 494.5,-69.5 359.5,-69.5"/>
<text text-anchor="middle" x="427" y="-76.5" font-family="Helvetica,sans-Serif" font-size="10.00">CLI::detail::generate_set</text>
</a>
</g>
</g>
<!-- Node1&#45;&gt;Node11 -->
<g id="edge11" class="edge">
<title>Node1&#45;&gt;Node11</title>
<path fill="none" stroke="midnightblue" d="M568.48,-185.31C555.98,-161.43 531.15,-120.49 498,-98 492.27,-94.11 485.77,-91.02 479.1,-88.55"/>
<polygon fill="midnightblue" stroke="midnightblue" points="565.43,-187.05 573.07,-194.4 571.68,-183.89 565.43,-187.05"/>
</g>
<!-- Node13 -->
<g id="node13" class="node">
<title>Node13</title>
<g id="a_node13"><a xlink:href="class_c_l_i_1_1_option.html#ab84751fbf9037efaed5b64fed17fe57f" target="_top" xlink:title="Gets a comma separated list of names. Will include / prefer the positional name if positional is true...">
<polygon fill="white" stroke="black" points="364.5,-378.5 364.5,-397.5 489.5,-397.5 489.5,-378.5 364.5,-378.5"/>
<text text-anchor="middle" x="427" y="-385.5" font-family="Helvetica,sans-Serif" font-size="10.00">CLI::Option::get_name</text>
</a>
</g>
</g>
<!-- Node1&#45;&gt;Node13 -->
<g id="edge13" class="edge">
<title>Node1&#45;&gt;Node13</title>
<path fill="none" stroke="midnightblue" d="M564.02,-221.79C548.39,-242.29 521.74,-276.9 498,-306 476.35,-332.54 449.88,-363.04 436.55,-378.27"/>
<polygon fill="midnightblue" stroke="midnightblue" points="566.92,-223.75 570.19,-213.67 561.35,-219.52 566.92,-223.75"/>
</g>
<!-- Node21 -->
<g id="node21" class="node">
<title>Node21</title>
<g id="a_node21"><a xlink:href="namespace_c_l_i_1_1_failure_message.html#ab2a36cd7fb3b91628be43f31647f3c38" target="_top" xlink:title="Printout a clean, simple message on error (the default in CLI11 1.5+)">
<polygon fill="white" stroke="black" points="182,-263 182,-293 296,-293 296,-263 182,-263"/>
<text text-anchor="start" x="190" y="-281" font-family="Helvetica,sans-Serif" font-size="10.00">CLI::FailureMessage</text>
<text text-anchor="middle" x="239" y="-270" font-family="Helvetica,sans-Serif" font-size="10.00">::simple</text>
</a>
</g>
</g>
<!-- Node1&#45;&gt;Node21 -->
<g id="edge24" class="edge">
<title>Node1&#45;&gt;Node21</title>
<path fill="none" stroke="midnightblue" d="M563.66,-221.64C549.29,-238.41 525.16,-262.56 498,-273 432.25,-298.28 349.92,-294.39 296.2,-287.63"/>
<polygon fill="midnightblue" stroke="midnightblue" points="566.58,-223.6 570.24,-213.66 561.18,-219.15 566.58,-223.6"/>
</g>
<!-- Node22 -->
<g id="node22" class="node">
<title>Node22</title>
<g id="a_node22"><a xlink:href="class_c_l_i_1_1_formatter.html#a3aac4a7ce4ca139704e632915892024c" target="_top" xlink:title="This displays the usage line.">
<polygon fill="white" stroke="black" points="367.5,-20 367.5,-50 486.5,-50 486.5,-20 367.5,-20"/>
<text text-anchor="start" x="375.5" y="-38" font-family="Helvetica,sans-Serif" font-size="10.00">CLI::Formatter::make</text>
<text text-anchor="middle" x="427" y="-27" font-family="Helvetica,sans-Serif" font-size="10.00">_usage</text>
</a>
</g>
</g>
<!-- Node1&#45;&gt;Node22 -->
<g id="edge23" class="edge">
<title>Node1&#45;&gt;Node22</title>
<path fill="none" stroke="midnightblue" d="M571.73,-184.49C561.68,-153.77 538.11,-94.1 498,-60 493.48,-56.15 488.32,-52.88 482.9,-50.11"/>
<polygon fill="midnightblue" stroke="midnightblue" points="568.5,-185.9 574.83,-194.4 575.18,-183.81 568.5,-185.9"/>
</g>
<!-- Node6 -->
<g id="node6" class="node">
<title>Node6</title>
<g id="a_node6"><a xlink:href="class_c_l_i_1_1_app.html#a1f7a70f4bc4c375a7de10073a5de709d" target="_top" xlink:title="Fill in a single config option.">
<polygon fill="white" stroke="black" points="174.5,-77 174.5,-107 303.5,-107 303.5,-77 174.5,-77"/>
<text text-anchor="start" x="182.5" y="-95" font-family="Helvetica,sans-Serif" font-size="10.00">CLI::App::_parse_single</text>
<text text-anchor="middle" x="239" y="-84" font-family="Helvetica,sans-Serif" font-size="10.00">_config</text>
</a>
</g>
</g>
<!-- Node5&#45;&gt;Node6 -->
<g id="edge5" class="edge">
<title>Node5&#45;&gt;Node6</title>
<path fill="none" stroke="midnightblue" d="M346.21,-106.27C331.97,-104.36 317.31,-102.39 303.61,-100.55"/>
<polygon fill="midnightblue" stroke="midnightblue" points="346.1,-109.79 356.48,-107.66 347.03,-102.85 346.1,-109.79"/>
</g>
<!-- Node7 -->
<g id="node7" class="node">
<title>Node7</title>
<g id="a_node7"><a xlink:href="class_c_l_i_1_1_config.html#affac2102274c1a09c0e08b2c9410b57f" target="_top" xlink:title="Get a flag value.">
<polygon fill="white" stroke="black" points="184.5,-38.5 184.5,-57.5 293.5,-57.5 293.5,-38.5 184.5,-38.5"/>
<text text-anchor="middle" x="239" y="-45.5" font-family="Helvetica,sans-Serif" font-size="10.00">CLI::Config::to_flag</text>
</a>
</g>
</g>
<!-- Node5&#45;&gt;Node7 -->
<g id="edge6" class="edge">
<title>Node5&#45;&gt;Node7</title>
<path fill="none" stroke="midnightblue" d="M370.22,-104.24C365.3,-102.41 360.49,-100.34 356,-98 337.53,-88.38 338.57,-77.43 320,-68 311.45,-63.66 301.89,-60.22 292.44,-57.51"/>
<polygon fill="midnightblue" stroke="midnightblue" points="369.15,-107.58 379.74,-107.48 371.4,-100.95 369.15,-107.58"/>
</g>
<!-- Node8&#45;&gt;Node4 -->
<g id="edge9" class="edge">
<title>Node8&#45;&gt;Node4</title>
<path fill="none" stroke="midnightblue" d="M387.37,-178.75C377.13,-182.26 366.1,-186.17 356,-190 339.79,-196.15 336.32,-199.17 320,-205 311.4,-208.07 302.18,-211.09 293.18,-213.89"/>
<polygon fill="midnightblue" stroke="midnightblue" points="388.56,-182.04 396.9,-175.51 386.31,-175.41 388.56,-182.04"/>
</g>
<!-- Node9 -->
<g id="node9" class="node">
<title>Node9</title>
<g id="a_node9"><a xlink:href="class_c_l_i_1_1_as_number_with_unit.html#af5d2fc29cd92c1821e653a97f91b00cb" target="_top" xlink:title=" ">
<polygon fill="white" stroke="black" points="173.5,-165 173.5,-195 304.5,-195 304.5,-165 173.5,-165"/>
<text text-anchor="start" x="181.5" y="-183" font-family="Helvetica,sans-Serif" font-size="10.00">CLI::AsNumberWithUnit</text>
<text text-anchor="middle" x="239" y="-172" font-family="Helvetica,sans-Serif" font-size="10.00">::AsNumberWithUnit</text>
</a>
</g>
</g>
<!-- Node8&#45;&gt;Node9 -->
<g id="edge8" class="edge">
<title>Node8&#45;&gt;Node9</title>
<path fill="none" stroke="midnightblue" d="M345.61,-172.05C331.96,-173.08 317.95,-174.13 304.78,-175.12"/>
<polygon fill="midnightblue" stroke="midnightblue" points="346.24,-175.51 355.95,-171.27 345.71,-168.53 346.24,-175.51"/>
</g>
<!-- Node10 -->
<g id="node10" class="node">
<title>Node10</title>
<g id="a_node10"><a xlink:href="class_c_l_i_1_1_transformer.html#aef311ee89c54f64e3e78651bd2db826c" target="_top" xlink:title=" ">
<polygon fill="white" stroke="black" points="158,-126.5 158,-145.5 320,-145.5 320,-126.5 158,-126.5"/>
<text text-anchor="middle" x="239" y="-133.5" font-family="Helvetica,sans-Serif" font-size="10.00">CLI::Transformer::Transformer</text>
</a>
</g>
</g>
<!-- Node8&#45;&gt;Node10 -->
<g id="edge10" class="edge">
<title>Node8&#45;&gt;Node10</title>
<path fill="none" stroke="midnightblue" d="M356.8,-154.84C337.78,-151.77 317.34,-148.47 298.95,-145.51"/>
<polygon fill="midnightblue" stroke="midnightblue" points="356.46,-158.33 366.89,-156.47 357.58,-151.42 356.46,-158.33"/>
</g>
<!-- Node12 -->
<g id="node12" class="node">
<title>Node12</title>
<g id="a_node12"><a xlink:href="class_c_l_i_1_1_is_member.html#a778da19fa2481912c7fcfe6b3c8b453a" target="_top" xlink:title=" ">
<polygon fill="white" stroke="black" points="168.5,-0.5 168.5,-19.5 309.5,-19.5 309.5,-0.5 168.5,-0.5"/>
<text text-anchor="middle" x="239" y="-7.5" font-family="Helvetica,sans-Serif" font-size="10.00">CLI::IsMember::IsMember</text>
</a>
</g>
</g>
<!-- Node11&#45;&gt;Node12 -->
<g id="edge12" class="edge">
<title>Node11&#45;&gt;Node12</title>
<path fill="none" stroke="midnightblue" d="M372.39,-66.21C366.72,-64.12 361.15,-61.73 356,-59 337.59,-49.26 338.63,-38.32 320,-29 312.34,-25.17 303.88,-22.09 295.41,-19.62"/>
<polygon fill="midnightblue" stroke="midnightblue" points="371.37,-69.56 381.96,-69.45 373.61,-62.93 371.37,-69.56"/>
</g>
<!-- Node13&#45;&gt;Node2 -->
<g id="edge16" class="edge">
<title>Node13&#45;&gt;Node2</title>
<path fill="none" stroke="midnightblue" d="M412.3,-405.82C386.37,-439.37 331.69,-509.22 320,-517 311.43,-522.7 301.46,-527.09 291.52,-530.45"/>
<polygon fill="midnightblue" stroke="midnightblue" points="415.17,-407.83 418.51,-397.77 409.63,-403.55 415.17,-407.83"/>
</g>
<!-- Node14 -->
<g id="node14" class="node">
<title>Node14</title>
<g id="a_node14"><a xlink:href="class_c_l_i_1_1_app.html#addba2c303be83c18abb0adaa7442ae07" target="_top" xlink:title="Internal function for adding a flag.">
<polygon fill="white" stroke="black" points="184,-477 184,-507 294,-507 294,-477 184,-477"/>
<text text-anchor="start" x="192" y="-495" font-family="Helvetica,sans-Serif" font-size="10.00">CLI::App::_add_flag</text>
<text text-anchor="middle" x="239" y="-484" font-family="Helvetica,sans-Serif" font-size="10.00">_internal</text>
</a>
</g>
</g>
<!-- Node13&#45;&gt;Node14 -->
<g id="edge14" class="edge">
<title>Node13&#45;&gt;Node14</title>
<path fill="none" stroke="midnightblue" d="M407.95,-404.49C387.81,-422.12 353.63,-449.84 320,-467 311.96,-471.1 303.13,-474.68 294.35,-477.75"/>
<polygon fill="midnightblue" stroke="midnightblue" points="410.53,-406.87 415.67,-397.61 405.88,-401.64 410.53,-406.87"/>
</g>
<!-- Node15 -->
<g id="node15" class="node">
<title>Node15</title>
<g id="a_node15"><a xlink:href="class_c_l_i_1_1_app.html#aaabfb31d7fb10ee7465716b948b376dc" target="_top" xlink:title="function that could be used by subclasses of App to shift options around into subcommands">
<polygon fill="white" stroke="black" points="173.5,-438.5 173.5,-457.5 304.5,-457.5 304.5,-438.5 173.5,-438.5"/>
<text text-anchor="middle" x="239" y="-445.5" font-family="Helvetica,sans-Serif" font-size="10.00">CLI::App::_move_option</text>
</a>
</g>
</g>
<!-- Node13&#45;&gt;Node15 -->
<g id="edge15" class="edge">
<title>Node13&#45;&gt;Node15</title>
<path fill="none" stroke="midnightblue" d="M394.64,-401.42C373.75,-410.04 345.54,-421.07 320,-429 308.82,-432.47 296.6,-435.67 285.14,-438.41"/>
<polygon fill="midnightblue" stroke="midnightblue" points="396.09,-404.61 403.98,-397.53 393.4,-398.15 396.09,-404.61"/>
</g>
<!-- Node16 -->
<g id="node16" class="node">
<title>Node16</title>
<g id="a_node16"><a xlink:href="namespace_c_l_i.html#a6cb6f8bfff8c49385fb24f6f23a23c21" target="_top" xlink:title="Helper function to mark an option as deprecated.">
<polygon fill="white" stroke="black" points="178,-400.5 178,-419.5 300,-419.5 300,-400.5 178,-400.5"/>
<text text-anchor="middle" x="239" y="-407.5" font-family="Helvetica,sans-Serif" font-size="10.00">CLI::deprecate_option</text>
</a>
</g>
</g>
<!-- Node13&#45;&gt;Node16 -->
<g id="edge17" class="edge">
<title>Node13&#45;&gt;Node16</title>
<path fill="none" stroke="midnightblue" d="M354.01,-396.52C336.24,-398.62 317.39,-400.85 300.24,-402.87"/>
<polygon fill="midnightblue" stroke="midnightblue" points="354.8,-399.95 364.32,-395.3 353.98,-392.99 354.8,-399.95"/>
</g>
<!-- Node18 -->
<g id="node18" class="node">
<title>Node18</title>
<g id="a_node18"><a xlink:href="class_c_l_i_1_1_formatter.html#ad29eb726bf961560f0c6419fd74332d0" target="_top" xlink:title="This is the name part of an option, Default: left column.">
<polygon fill="white" stroke="black" points="179.5,-351 179.5,-381 298.5,-381 298.5,-351 179.5,-351"/>
<text text-anchor="start" x="187.5" y="-369" font-family="Helvetica,sans-Serif" font-size="10.00">CLI::Formatter::make</text>
<text text-anchor="middle" x="239" y="-358" font-family="Helvetica,sans-Serif" font-size="10.00">_option_name</text>
</a>
</g>
</g>
<!-- Node13&#45;&gt;Node18 -->
<g id="edge19" class="edge">
<title>Node13&#45;&gt;Node18</title>
<path fill="none" stroke="midnightblue" d="M354.25,-379.51C335.87,-377.34 316.31,-375.03 298.67,-372.94"/>
<polygon fill="midnightblue" stroke="midnightblue" points="353.98,-383.01 364.32,-380.7 354.8,-376.05 353.98,-383.01"/>
</g>
<!-- Node19 -->
<g id="node19" class="node">
<title>Node19</title>
<g id="a_node19"><a xlink:href="namespace_c_l_i.html#a36cfe4a6a80bf143735c0b80960bc252" target="_top" xlink:title="Helper function to mark an option as retired.">
<polygon fill="white" stroke="black" points="189,-312.5 189,-331.5 289,-331.5 289,-312.5 189,-312.5"/>
<text text-anchor="middle" x="239" y="-319.5" font-family="Helvetica,sans-Serif" font-size="10.00">CLI::retire_option</text>
</a>
</g>
</g>
<!-- Node13&#45;&gt;Node19 -->
<g id="edge20" class="edge">
<title>Node13&#45;&gt;Node19</title>
<path fill="none" stroke="midnightblue" d="M397.42,-374.07C376.37,-364.19 346.85,-351.11 320,-342 308.34,-338.04 295.49,-334.49 283.56,-331.51"/>
<polygon fill="midnightblue" stroke="midnightblue" points="395.92,-377.23 406.46,-378.36 398.92,-370.91 395.92,-377.23"/>
</g>
<!-- Node13&#45;&gt;Node21 -->
<g id="edge22" class="edge">
<title>Node13&#45;&gt;Node21</title>
<path fill="none" stroke="midnightblue" d="M409.39,-371.33C389.64,-352.37 354.95,-321.61 320,-303 312.55,-299.03 304.37,-295.58 296.17,-292.61"/>
<polygon fill="midnightblue" stroke="midnightblue" points="407.06,-373.95 416.66,-378.44 411.95,-368.95 407.06,-373.95"/>
</g>
<!-- Node17 -->
<g id="node17" class="node">
<title>Node17</title>
<g id="a_node17"><a xlink:href="namespace_c_l_i.html#ad6d89b5d1aba2ebdca5f94534d658cab" target="_top" xlink:title="Helper function to mark an option as deprecated.">
<polygon fill="white" stroke="black" points="0,-400.5 0,-419.5 122,-419.5 122,-400.5 0,-400.5"/>
<text text-anchor="middle" x="61" y="-407.5" font-family="Helvetica,sans-Serif" font-size="10.00">CLI::deprecate_option</text>
</a>
</g>
</g>
<!-- Node16&#45;&gt;Node17 -->
<g id="edge18" class="edge">
<title>Node16&#45;&gt;Node17</title>
<path fill="none" stroke="midnightblue" d="M167.62,-410C152.55,-410 136.75,-410 122.1,-410"/>
<polygon fill="midnightblue" stroke="midnightblue" points="167.92,-413.5 177.92,-410 167.92,-406.5 167.92,-413.5"/>
</g>
<!-- Node20 -->
<g id="node20" class="node">
<title>Node20</title>
<g id="a_node20"><a xlink:href="namespace_c_l_i.html#a52390f850f663cf38a27e134c1a39b61" target="_top" xlink:title="Helper function to mark an option as retired.">
<polygon fill="white" stroke="black" points="11,-312.5 11,-331.5 111,-331.5 111,-312.5 11,-312.5"/>
<text text-anchor="middle" x="61" y="-319.5" font-family="Helvetica,sans-Serif" font-size="10.00">CLI::retire_option</text>
</a>
</g>
</g>
<!-- Node19&#45;&gt;Node20 -->
<g id="edge21" class="edge">
<title>Node19&#45;&gt;Node20</title>
<path fill="none" stroke="midnightblue" d="M178.75,-322C156.75,-322 132.06,-322 111.07,-322"/>
<polygon fill="midnightblue" stroke="midnightblue" points="178.97,-325.5 188.97,-322 178.97,-318.5 178.97,-325.5"/>
</g>
</g>
</svg>
