<?xml version="1.0" encoding="UTF-8" standalone="no"?>
<!DOCTYPE svg PUBLIC "-//W3C//DTD SVG 1.1//EN"
 "http://www.w3.org/Graphics/SVG/1.1/DTD/svg11.dtd">
<!-- Generated by graphviz version 2.43.0 (0)
 -->
<!-- Title: core::system::signal Pages: 1 -->
<svg width="594pt" height="66pt"
 viewBox="0.00 0.00 594.00 66.00" xmlns="http://www.w3.org/2000/svg" xmlns:xlink="http://www.w3.org/1999/xlink">
<g id="graph0" class="graph" transform="scale(1 1) rotate(0) translate(4 62)">
<title>core::system::signal</title>
<polygon fill="white" stroke="transparent" points="-4,4 -4,-62 590,-62 590,4 -4,4"/>
<!-- Node1 -->
<g id="node1" class="node">
<title>Node1</title>
<g id="a_node1"><a xlink:title=" ">
<polygon fill="#bfbfbf" stroke="black" points="471,-19.5 471,-38.5 586,-38.5 586,-19.5 471,-19.5"/>
<text text-anchor="middle" x="528.5" y="-26.5" font-family="Helvetica,sans-Serif" font-size="10.00">core::system::signal</text>
</a>
</g>
</g>
<!-- Node2 -->
<g id="node2" class="node">
<title>Node2</title>
<g id="a_node2"><a xlink:href="classcore_1_1_event_loop.html#aaa2c3856fed808d00542d573c2b3a737" target="_top" xlink:title=" ">
<polygon fill="white" stroke="black" points="312,-38.5 312,-57.5 435,-57.5 435,-38.5 312,-38.5"/>
<text text-anchor="middle" x="373.5" y="-45.5" font-family="Helvetica,sans-Serif" font-size="10.00">core::EventLoop::start</text>
</a>
</g>
</g>
<!-- Node1&#45;&gt;Node2 -->
<g id="edge1" class="edge">
<title>Node1&#45;&gt;Node2</title>
<path fill="none" stroke="midnightblue" d="M460.99,-37.26C452.41,-38.33 443.65,-39.41 435.17,-40.47"/>
<polygon fill="midnightblue" stroke="midnightblue" points="461.47,-40.73 470.96,-36.02 460.61,-33.78 461.47,-40.73"/>
</g>
<!-- Node5 -->
<g id="node5" class="node">
<title>Node5</title>
<g id="a_node5"><a xlink:href="classcore_1_1_event_loop.html#a811fbdf8265440db286c44f08c644235" target="_top" xlink:title=" ">
<polygon fill="white" stroke="black" points="314,-0.5 314,-19.5 433,-19.5 433,-0.5 314,-0.5"/>
<text text-anchor="middle" x="373.5" y="-7.5" font-family="Helvetica,sans-Serif" font-size="10.00">core::EventLoop::tick</text>
</a>
</g>
</g>
<!-- Node1&#45;&gt;Node5 -->
<g id="edge4" class="edge">
<title>Node1&#45;&gt;Node5</title>
<path fill="none" stroke="midnightblue" d="M461,-20.74C451.71,-19.59 442.23,-18.41 433.11,-17.28"/>
<polygon fill="midnightblue" stroke="midnightblue" points="460.61,-24.22 470.96,-21.98 461.47,-17.27 460.61,-24.22"/>
</g>
<!-- Node3 -->
<g id="node3" class="node">
<title>Node3</title>
<g id="a_node3"><a xlink:href="classcore_1_1_s_node_c.html#ac3d0dcb6c216ae72d9bbb77fe080e461" target="_top" xlink:title=" ">
<polygon fill="white" stroke="black" points="166,-38.5 166,-57.5 276,-57.5 276,-38.5 166,-38.5"/>
<text text-anchor="middle" x="221" y="-45.5" font-family="Helvetica,sans-Serif" font-size="10.00">core::SNodeC::start</text>
</a>
</g>
</g>
<!-- Node2&#45;&gt;Node3 -->
<g id="edge2" class="edge">
<title>Node2&#45;&gt;Node3</title>
<path fill="none" stroke="midnightblue" d="M301.72,-48C293.15,-48 284.5,-48 276.21,-48"/>
<polygon fill="midnightblue" stroke="midnightblue" points="301.72,-51.5 311.72,-48 301.72,-44.5 301.72,-51.5"/>
</g>
<!-- Node4 -->
<g id="node4" class="node">
<title>Node4</title>
<g id="a_node4"><a xlink:href="classexpress_1_1_web_app.html#a54e6910c9466c61d0b217490b7d9bb5a" target="_top" xlink:title=" ">
<polygon fill="white" stroke="black" points="0,-38.5 0,-57.5 130,-57.5 130,-38.5 0,-38.5"/>
<text text-anchor="middle" x="65" y="-45.5" font-family="Helvetica,sans-Serif" font-size="10.00">express::WebApp::start</text>
</a>
</g>
</g>
<!-- Node3&#45;&gt;Node4 -->
<g id="edge3" class="edge">
<title>Node3&#45;&gt;Node4</title>
<path fill="none" stroke="midnightblue" d="M155.56,-48C147.13,-48 138.5,-48 130.08,-48"/>
<polygon fill="midnightblue" stroke="midnightblue" points="155.71,-51.5 165.71,-48 155.71,-44.5 155.71,-51.5"/>
</g>
<!-- Node6 -->
<g id="node6" class="node">
<title>Node6</title>
<g id="a_node6"><a xlink:href="classcore_1_1_s_node_c.html#a57b40bb139f23e6a9fc2704d2415e636" target="_top" xlink:title=" ">
<polygon fill="white" stroke="black" points="168,-0.5 168,-19.5 274,-19.5 274,-0.5 168,-0.5"/>
<text text-anchor="middle" x="221" y="-7.5" font-family="Helvetica,sans-Serif" font-size="10.00">core::SNodeC::tick</text>
</a>
</g>
</g>
<!-- Node5&#45;&gt;Node6 -->
<g id="edge5" class="edge">
<title>Node5&#45;&gt;Node6</title>
<path fill="none" stroke="midnightblue" d="M303.68,-10C293.82,-10 283.81,-10 274.33,-10"/>
<polygon fill="midnightblue" stroke="midnightblue" points="303.88,-13.5 313.88,-10 303.88,-6.5 303.88,-13.5"/>
</g>
<!-- Node7 -->
<g id="node7" class="node">
<title>Node7</title>
<g id="a_node7"><a xlink:href="classexpress_1_1_web_app.html#a42de99299b0f344789e201aee12b3fd7" target="_top" xlink:title=" ">
<polygon fill="white" stroke="black" points="2.5,-0.5 2.5,-19.5 127.5,-19.5 127.5,-0.5 2.5,-0.5"/>
<text text-anchor="middle" x="65" y="-7.5" font-family="Helvetica,sans-Serif" font-size="10.00">express::WebApp::tick</text>
</a>
</g>
</g>
<!-- Node6&#45;&gt;Node7 -->
<g id="edge6" class="edge">
<title>Node6&#45;&gt;Node7</title>
<path fill="none" stroke="midnightblue" d="M157.69,-10C147.79,-10 137.55,-10 127.67,-10"/>
<polygon fill="midnightblue" stroke="midnightblue" points="157.86,-13.5 167.86,-10 157.86,-6.5 157.86,-13.5"/>
</g>
</g>
</svg>
