<?xml version="1.0" encoding="UTF-8" standalone="no"?>
<!DOCTYPE svg PUBLIC "-//W3C//DTD SVG 1.1//EN"
 "http://www.w3.org/Graphics/SVG/1.1/DTD/svg11.dtd">
<!-- Generated by graphviz version 2.43.0 (0)
 -->
<!-- Title: net/in6/stream/tls/SocketServer.h Pages: 1 -->
<svg width="1348pt" height="486pt"
 viewBox="0.00 0.00 1347.50 486.00" xmlns="http://www.w3.org/2000/svg" xmlns:xlink="http://www.w3.org/1999/xlink">
<g id="graph0" class="graph" transform="scale(1 1) rotate(0) translate(4 482)">
<title>net/in6/stream/tls/SocketServer.h</title>
<polygon fill="white" stroke="transparent" points="-4,4 -4,-482 1343.5,-482 1343.5,4 -4,4"/>
<!-- Node1 -->
<g id="node1" class="node">
<title>Node1</title>
<g id="a_node1"><a xlink:title=" ">
<polygon fill="#bfbfbf" stroke="black" points="881.5,-447.5 881.5,-477.5 973.5,-477.5 973.5,-447.5 881.5,-447.5"/>
<text text-anchor="start" x="889.5" y="-465.5" font-family="Helvetica,sans-Serif" font-size="10.00">net/in6/stream/tls</text>
<text text-anchor="middle" x="927.5" y="-454.5" font-family="Helvetica,sans-Serif" font-size="10.00">/SocketServer.h</text>
</a>
</g>
</g>
<!-- Node2 -->
<g id="node2" class="node">
<title>Node2</title>
<g id="a_node2"><a xlink:href="core_2socket_2stream_2tls_2_socket_server_8h.html" target="_top" xlink:title=" ">
<polygon fill="white" stroke="black" points="753,-380.5 753,-410.5 854,-410.5 854,-380.5 753,-380.5"/>
<text text-anchor="start" x="761" y="-398.5" font-family="Helvetica,sans-Serif" font-size="10.00">core/socket/stream</text>
<text text-anchor="middle" x="803.5" y="-387.5" font-family="Helvetica,sans-Serif" font-size="10.00">/tls/SocketServer.h</text>
</a>
</g>
</g>
<!-- Node1&#45;&gt;Node2 -->
<g id="edge1" class="edge">
<title>Node1&#45;&gt;Node2</title>
<path fill="none" stroke="midnightblue" d="M900.59,-447.4C882.64,-437.98 858.83,-425.5 839.28,-415.26"/>
<polygon fill="midnightblue" stroke="midnightblue" points="840.84,-412.12 830.35,-410.58 837.59,-418.32 840.84,-412.12"/>
</g>
<!-- Node23 -->
<g id="node23" class="node">
<title>Node23</title>
<g id="a_node23"><a xlink:href="net_2in6_2stream_2_server_socket_8h.html" target="_top" xlink:title=" ">
<polygon fill="white" stroke="black" points="966,-386 966,-405 1115,-405 1115,-386 966,-386"/>
<text text-anchor="middle" x="1040.5" y="-393" font-family="Helvetica,sans-Serif" font-size="10.00">net/in6/stream/ServerSocket.h</text>
</a>
</g>
</g>
<!-- Node1&#45;&gt;Node23 -->
<g id="edge29" class="edge">
<title>Node1&#45;&gt;Node23</title>
<path fill="none" stroke="midnightblue" d="M952.02,-447.4C971.23,-436.34 997.8,-421.06 1016.8,-410.13"/>
<polygon fill="midnightblue" stroke="midnightblue" points="1018.79,-413.03 1025.71,-405.01 1015.3,-406.96 1018.79,-413.03"/>
</g>
<!-- Node3 -->
<g id="node3" class="node">
<title>Node3</title>
<g id="a_node3"><a xlink:href="core_2socket_2stream_2_socket_server_8h.html" target="_top" xlink:title=" ">
<polygon fill="white" stroke="black" points="629,-313.5 629,-343.5 730,-343.5 730,-313.5 629,-313.5"/>
<text text-anchor="start" x="637" y="-331.5" font-family="Helvetica,sans-Serif" font-size="10.00">core/socket/stream</text>
<text text-anchor="middle" x="679.5" y="-320.5" font-family="Helvetica,sans-Serif" font-size="10.00">/SocketServer.h</text>
</a>
</g>
</g>
<!-- Node2&#45;&gt;Node3 -->
<g id="edge2" class="edge">
<title>Node2&#45;&gt;Node3</title>
<path fill="none" stroke="midnightblue" d="M776.59,-380.4C758.64,-370.98 734.83,-358.5 715.28,-348.26"/>
<polygon fill="midnightblue" stroke="midnightblue" points="716.84,-345.12 706.35,-343.58 713.59,-351.32 716.84,-345.12"/>
</g>
<!-- Node4 -->
<g id="node4" class="node">
<title>Node4</title>
<g id="a_node4"><a xlink:href="tls_2_socket_acceptor_8h.html" target="_top" xlink:title=" ">
<polygon fill="white" stroke="black" points="748.5,-313.5 748.5,-343.5 858.5,-343.5 858.5,-313.5 748.5,-313.5"/>
<text text-anchor="start" x="756.5" y="-331.5" font-family="Helvetica,sans-Serif" font-size="10.00">core/socket/stream</text>
<text text-anchor="middle" x="803.5" y="-320.5" font-family="Helvetica,sans-Serif" font-size="10.00">/tls/SocketAcceptor.h</text>
</a>
</g>
</g>
<!-- Node2&#45;&gt;Node4 -->
<g id="edge3" class="edge">
<title>Node2&#45;&gt;Node4</title>
<path fill="none" stroke="midnightblue" d="M803.5,-380.4C803.5,-372.64 803.5,-362.81 803.5,-353.86"/>
<polygon fill="midnightblue" stroke="midnightblue" points="807,-353.58 803.5,-343.58 800,-353.58 807,-353.58"/>
</g>
<!-- Node5 -->
<g id="node5" class="node">
<title>Node5</title>
<g id="a_node5"><a xlink:href="_socket_acceptor_8h.html" target="_top" xlink:title=" ">
<polygon fill="white" stroke="black" points="815,-246.5 815,-276.5 916,-276.5 916,-246.5 815,-246.5"/>
<text text-anchor="start" x="823" y="-264.5" font-family="Helvetica,sans-Serif" font-size="10.00">core/socket/stream</text>
<text text-anchor="middle" x="865.5" y="-253.5" font-family="Helvetica,sans-Serif" font-size="10.00">/SocketAcceptor.h</text>
</a>
</g>
</g>
<!-- Node4&#45;&gt;Node5 -->
<g id="edge4" class="edge">
<title>Node4&#45;&gt;Node5</title>
<path fill="none" stroke="midnightblue" d="M816.95,-313.4C825.16,-304.79 835.81,-293.63 845.05,-283.94"/>
<polygon fill="midnightblue" stroke="midnightblue" points="847.7,-286.23 852.07,-276.58 842.64,-281.4 847.7,-286.23"/>
</g>
<!-- Node10 -->
<g id="node10" class="node">
<title>Node10</title>
<g id="a_node10"><a xlink:href="tls_2_socket_connection_8h.html" target="_top" xlink:title=" ">
<polygon fill="white" stroke="black" points="557.5,-246.5 557.5,-276.5 679.5,-276.5 679.5,-246.5 557.5,-246.5"/>
<text text-anchor="start" x="565.5" y="-264.5" font-family="Helvetica,sans-Serif" font-size="10.00">core/socket/stream</text>
<text text-anchor="middle" x="618.5" y="-253.5" font-family="Helvetica,sans-Serif" font-size="10.00">/tls/SocketConnection.h</text>
</a>
</g>
</g>
<!-- Node4&#45;&gt;Node10 -->
<g id="edge9" class="edge">
<title>Node4&#45;&gt;Node10</title>
<path fill="none" stroke="midnightblue" d="M763.36,-313.4C735.48,-303.6 698.14,-290.48 668.35,-280.02"/>
<polygon fill="midnightblue" stroke="midnightblue" points="669.16,-276.59 658.56,-276.58 666.84,-283.19 669.16,-276.59"/>
</g>
<!-- Node20 -->
<g id="node20" class="node">
<title>Node20</title>
<g id="a_node20"><a xlink:href="ssl__utils_8h.html" target="_top" xlink:title=" ">
<polygon fill="white" stroke="black" points="754,-112.5 754,-142.5 855,-142.5 855,-112.5 754,-112.5"/>
<text text-anchor="start" x="762" y="-130.5" font-family="Helvetica,sans-Serif" font-size="10.00">core/socket/stream</text>
<text text-anchor="middle" x="804.5" y="-119.5" font-family="Helvetica,sans-Serif" font-size="10.00">/tls/ssl_utils.h</text>
</a>
</g>
</g>
<!-- Node4&#45;&gt;Node20 -->
<g id="edge28" class="edge">
<title>Node4&#45;&gt;Node20</title>
<path fill="none" stroke="midnightblue" d="M798.07,-313.47C788.57,-286.98 770.89,-227.9 781.5,-179 783.53,-169.66 787.44,-159.98 791.46,-151.62"/>
<polygon fill="midnightblue" stroke="midnightblue" points="794.68,-153.01 796.14,-142.52 788.46,-149.81 794.68,-153.01"/>
</g>
<!-- Node6 -->
<g id="node6" class="node">
<title>Node6</title>
<g id="a_node6"><a xlink:href="_accept_event_receiver_8h.html" target="_top" xlink:title=" ">
<polygon fill="white" stroke="black" points="813,-56.5 813,-75.5 954,-75.5 954,-56.5 813,-56.5"/>
<text text-anchor="middle" x="883.5" y="-63.5" font-family="Helvetica,sans-Serif" font-size="10.00">core/AcceptEventReceiver.h</text>
</a>
</g>
</g>
<!-- Node5&#45;&gt;Node6 -->
<g id="edge5" class="edge">
<title>Node5&#45;&gt;Node6</title>
<path fill="none" stroke="midnightblue" d="M881.91,-246.4C891.38,-237.14 902.38,-224.16 907.5,-210 923.13,-166.76 904.24,-112.42 892.13,-84.84"/>
<polygon fill="midnightblue" stroke="midnightblue" points="895.26,-83.28 887.91,-75.65 888.9,-86.2 895.26,-83.28"/>
</g>
<!-- Node8 -->
<g id="node8" class="node">
<title>Node8</title>
<g id="a_node8"><a xlink:href="core_2system_2_socket_8h.html" target="_top" xlink:title=" ">
<polygon fill="white" stroke="black" points="955,-185 955,-204 1066,-204 1066,-185 955,-185"/>
<text text-anchor="middle" x="1010.5" y="-192" font-family="Helvetica,sans-Serif" font-size="10.00">core/system/socket.h</text>
</a>
</g>
</g>
<!-- Node5&#45;&gt;Node8 -->
<g id="edge7" class="edge">
<title>Node5&#45;&gt;Node8</title>
<path fill="none" stroke="midnightblue" d="M896.96,-246.4C922.4,-234.99 957.9,-219.08 982.4,-208.1"/>
<polygon fill="midnightblue" stroke="midnightblue" points="983.83,-211.29 991.52,-204.01 980.97,-204.9 983.83,-211.29"/>
</g>
<!-- Node9 -->
<g id="node9" class="node">
<title>Node9</title>
<g id="a_node9"><a xlink:href="unistd_8h.html" target="_top" xlink:title=" ">
<polygon fill="white" stroke="black" points="790.5,-185 790.5,-204 898.5,-204 898.5,-185 790.5,-185"/>
<text text-anchor="middle" x="844.5" y="-192" font-family="Helvetica,sans-Serif" font-size="10.00">core/system/unistd.h</text>
</a>
</g>
</g>
<!-- Node5&#45;&gt;Node9 -->
<g id="edge8" class="edge">
<title>Node5&#45;&gt;Node9</title>
<path fill="none" stroke="midnightblue" d="M860.94,-246.4C857.86,-236.86 853.77,-224.18 850.43,-213.86"/>
<polygon fill="midnightblue" stroke="midnightblue" points="853.71,-212.63 847.31,-204.19 847.05,-214.79 853.71,-212.63"/>
</g>
<!-- Node7 -->
<g id="node7" class="node">
<title>Node7</title>
<g id="a_node7"><a xlink:href="_event_receiver_8h.html" target="_top" xlink:title=" ">
<polygon fill="white" stroke="black" points="630.5,-0.5 630.5,-19.5 740.5,-19.5 740.5,-0.5 630.5,-0.5"/>
<text text-anchor="middle" x="685.5" y="-7.5" font-family="Helvetica,sans-Serif" font-size="10.00">core/EventReceiver.h</text>
</a>
</g>
</g>
<!-- Node6&#45;&gt;Node7 -->
<g id="edge6" class="edge">
<title>Node6&#45;&gt;Node7</title>
<path fill="none" stroke="midnightblue" d="M852.13,-56.44C818.24,-47.2 764.1,-32.44 726.78,-22.26"/>
<polygon fill="midnightblue" stroke="midnightblue" points="727.3,-18.77 716.73,-19.52 725.45,-25.52 727.3,-18.77"/>
</g>
<!-- Node11 -->
<g id="node11" class="node">
<title>Node11</title>
<g id="a_node11"><a xlink:href="_socket_connection_t_8h.html" target="_top" xlink:title=" ">
<polygon fill="white" stroke="black" points="203,-179.5 203,-209.5 316,-209.5 316,-179.5 203,-179.5"/>
<text text-anchor="start" x="211" y="-197.5" font-family="Helvetica,sans-Serif" font-size="10.00">core/socket/stream</text>
<text text-anchor="middle" x="259.5" y="-186.5" font-family="Helvetica,sans-Serif" font-size="10.00">/SocketConnectionT.h</text>
</a>
</g>
</g>
<!-- Node10&#45;&gt;Node11 -->
<g id="edge10" class="edge">
<title>Node10&#45;&gt;Node11</title>
<path fill="none" stroke="midnightblue" d="M557.19,-249.4C492.91,-237.76 392.2,-219.53 326.02,-207.54"/>
<polygon fill="midnightblue" stroke="midnightblue" points="326.58,-204.09 316.12,-205.75 325.33,-210.98 326.58,-204.09"/>
</g>
<!-- Node15 -->
<g id="node15" class="node">
<title>Node15</title>
<g id="a_node15"><a xlink:href="tls_2_socket_reader_8h.html" target="_top" xlink:title=" ">
<polygon fill="white" stroke="black" points="631,-179.5 631,-209.5 734,-209.5 734,-179.5 631,-179.5"/>
<text text-anchor="start" x="639" y="-197.5" font-family="Helvetica,sans-Serif" font-size="10.00">core/socket/stream</text>
<text text-anchor="middle" x="682.5" y="-186.5" font-family="Helvetica,sans-Serif" font-size="10.00">/tls/SocketReader.h</text>
</a>
</g>
</g>
<!-- Node10&#45;&gt;Node15 -->
<g id="edge14" class="edge">
<title>Node10&#45;&gt;Node15</title>
<path fill="none" stroke="midnightblue" d="M632.39,-246.4C640.86,-237.79 651.85,-226.63 661.39,-216.94"/>
<polygon fill="midnightblue" stroke="midnightblue" points="664.12,-219.16 668.64,-209.58 659.13,-214.25 664.12,-219.16"/>
</g>
<!-- Node21 -->
<g id="node21" class="node">
<title>Node21</title>
<g id="a_node21"><a xlink:href="tls_2_socket_writer_8h.html" target="_top" xlink:title=" ">
<polygon fill="white" stroke="black" points="512,-179.5 512,-209.5 613,-209.5 613,-179.5 512,-179.5"/>
<text text-anchor="start" x="520" y="-197.5" font-family="Helvetica,sans-Serif" font-size="10.00">core/socket/stream</text>
<text text-anchor="middle" x="562.5" y="-186.5" font-family="Helvetica,sans-Serif" font-size="10.00">/tls/SocketWriter.h</text>
</a>
</g>
</g>
<!-- Node10&#45;&gt;Node21 -->
<g id="edge23" class="edge">
<title>Node10&#45;&gt;Node21</title>
<path fill="none" stroke="midnightblue" d="M606.35,-246.4C599.01,-237.88 589.51,-226.85 581.22,-217.23"/>
<polygon fill="midnightblue" stroke="midnightblue" points="583.81,-214.87 574.63,-209.58 578.5,-219.44 583.81,-214.87"/>
</g>
<!-- Node12 -->
<g id="node12" class="node">
<title>Node12</title>
<g id="a_node12"><a xlink:href="_socket_connection_8h.html" target="_top" xlink:title=" ">
<polygon fill="white" stroke="black" points="143.5,-112.5 143.5,-142.5 251.5,-142.5 251.5,-112.5 143.5,-112.5"/>
<text text-anchor="start" x="151.5" y="-130.5" font-family="Helvetica,sans-Serif" font-size="10.00">core/socket/stream</text>
<text text-anchor="middle" x="197.5" y="-119.5" font-family="Helvetica,sans-Serif" font-size="10.00">/SocketConnection.h</text>
</a>
</g>
</g>
<!-- Node11&#45;&gt;Node12 -->
<g id="edge11" class="edge">
<title>Node11&#45;&gt;Node12</title>
<path fill="none" stroke="midnightblue" d="M246.05,-179.4C237.84,-170.79 227.19,-159.63 217.95,-149.94"/>
<polygon fill="midnightblue" stroke="midnightblue" points="220.36,-147.4 210.93,-142.58 215.3,-152.23 220.36,-147.4"/>
</g>
<!-- Node13 -->
<g id="node13" class="node">
<title>Node13</title>
<g id="a_node13"><a xlink:href="core_2socket_2stream_2_socket_context_8h.html" target="_top" xlink:title=" ">
<polygon fill="white" stroke="black" points="270,-112.5 270,-142.5 371,-142.5 371,-112.5 270,-112.5"/>
<text text-anchor="start" x="278" y="-130.5" font-family="Helvetica,sans-Serif" font-size="10.00">core/socket/stream</text>
<text text-anchor="middle" x="320.5" y="-119.5" font-family="Helvetica,sans-Serif" font-size="10.00">/SocketContext.h</text>
</a>
</g>
</g>
<!-- Node11&#45;&gt;Node13 -->
<g id="edge12" class="edge">
<title>Node11&#45;&gt;Node13</title>
<path fill="none" stroke="midnightblue" d="M272.74,-179.4C280.81,-170.79 291.29,-159.63 300.37,-149.94"/>
<polygon fill="midnightblue" stroke="midnightblue" points="303,-152.26 307.29,-142.58 297.89,-147.47 303,-152.26"/>
</g>
<!-- Node14 -->
<g id="node14" class="node">
<title>Node14</title>
<g id="a_node14"><a xlink:href="core_2socket_2stream_2_socket_context_factory_8h.html" target="_top" xlink:title=" ">
<polygon fill="white" stroke="black" points="0,-112.5 0,-142.5 125,-142.5 125,-112.5 0,-112.5"/>
<text text-anchor="start" x="8" y="-130.5" font-family="Helvetica,sans-Serif" font-size="10.00">core/socket/stream</text>
<text text-anchor="middle" x="62.5" y="-119.5" font-family="Helvetica,sans-Serif" font-size="10.00">/SocketContextFactory.h</text>
</a>
</g>
</g>
<!-- Node11&#45;&gt;Node14 -->
<g id="edge13" class="edge">
<title>Node11&#45;&gt;Node14</title>
<path fill="none" stroke="midnightblue" d="M216.75,-179.4C186.81,-169.52 146.61,-156.25 114.76,-145.74"/>
<polygon fill="midnightblue" stroke="midnightblue" points="115.76,-142.39 105.16,-142.58 113.56,-149.03 115.76,-142.39"/>
</g>
<!-- Node16 -->
<g id="node16" class="node">
<title>Node16</title>
<g id="a_node16"><a xlink:href="_socket_reader_8h.html" target="_top" xlink:title=" ">
<polygon fill="white" stroke="black" points="635,-112.5 635,-142.5 736,-142.5 736,-112.5 635,-112.5"/>
<text text-anchor="start" x="643" y="-130.5" font-family="Helvetica,sans-Serif" font-size="10.00">core/socket/stream</text>
<text text-anchor="middle" x="685.5" y="-119.5" font-family="Helvetica,sans-Serif" font-size="10.00">/SocketReader.h</text>
</a>
</g>
</g>
<!-- Node15&#45;&gt;Node16 -->
<g id="edge15" class="edge">
<title>Node15&#45;&gt;Node16</title>
<path fill="none" stroke="midnightblue" d="M683.15,-179.4C683.51,-171.64 683.96,-161.81 684.38,-152.86"/>
<polygon fill="midnightblue" stroke="midnightblue" points="687.89,-152.73 684.85,-142.58 680.89,-152.4 687.89,-152.73"/>
</g>
<!-- Node18 -->
<g id="node18" class="node">
<title>Node18</title>
<g id="a_node18"><a xlink:href="_t_l_s_handshake_8h.html" target="_top" xlink:title=" ">
<polygon fill="white" stroke="black" points="508,-112.5 508,-142.5 617,-142.5 617,-112.5 508,-112.5"/>
<text text-anchor="start" x="516" y="-130.5" font-family="Helvetica,sans-Serif" font-size="10.00">core/socket/stream</text>
<text text-anchor="middle" x="562.5" y="-119.5" font-family="Helvetica,sans-Serif" font-size="10.00">/tls/TLSHandshake.h</text>
</a>
</g>
</g>
<!-- Node15&#45;&gt;Node18 -->
<g id="edge18" class="edge">
<title>Node15&#45;&gt;Node18</title>
<path fill="none" stroke="midnightblue" d="M656.46,-179.4C639.16,-170.03 616.25,-157.62 597.38,-147.39"/>
<polygon fill="midnightblue" stroke="midnightblue" points="598.95,-144.26 588.49,-142.58 595.61,-150.42 598.95,-144.26"/>
</g>
<!-- Node15&#45;&gt;Node20 -->
<g id="edge22" class="edge">
<title>Node15&#45;&gt;Node20</title>
<path fill="none" stroke="midnightblue" d="M708.97,-179.4C726.56,-170.03 749.85,-157.62 769.04,-147.39"/>
<polygon fill="midnightblue" stroke="midnightblue" points="770.9,-150.37 778.08,-142.58 767.61,-144.19 770.9,-150.37"/>
</g>
<!-- Node17 -->
<g id="node17" class="node">
<title>Node17</title>
<g id="a_node17"><a xlink:href="_read_event_receiver_8h.html" target="_top" xlink:title=" ">
<polygon fill="white" stroke="black" points="618.5,-56.5 618.5,-75.5 752.5,-75.5 752.5,-56.5 618.5,-56.5"/>
<text text-anchor="middle" x="685.5" y="-63.5" font-family="Helvetica,sans-Serif" font-size="10.00">core/ReadEventReceiver.h</text>
</a>
</g>
</g>
<!-- Node16&#45;&gt;Node17 -->
<g id="edge16" class="edge">
<title>Node16&#45;&gt;Node17</title>
<path fill="none" stroke="midnightblue" d="M685.5,-112.4C685.5,-104.47 685.5,-94.46 685.5,-85.86"/>
<polygon fill="midnightblue" stroke="midnightblue" points="689,-85.66 685.5,-75.66 682,-85.66 689,-85.66"/>
</g>
<!-- Node17&#45;&gt;Node7 -->
<g id="edge17" class="edge">
<title>Node17&#45;&gt;Node7</title>
<path fill="none" stroke="midnightblue" d="M685.5,-56.08C685.5,-49.01 685.5,-38.86 685.5,-29.99"/>
<polygon fill="midnightblue" stroke="midnightblue" points="689,-29.75 685.5,-19.75 682,-29.75 689,-29.75"/>
</g>
<!-- Node18&#45;&gt;Node17 -->
<g id="edge19" class="edge">
<title>Node18&#45;&gt;Node17</title>
<path fill="none" stroke="midnightblue" d="M591.65,-112.4C611.92,-102.59 638.74,-89.62 658.52,-80.05"/>
<polygon fill="midnightblue" stroke="midnightblue" points="660.12,-83.16 667.6,-75.66 657.08,-76.86 660.12,-83.16"/>
</g>
<!-- Node19 -->
<g id="node19" class="node">
<title>Node19</title>
<g id="a_node19"><a xlink:href="_write_event_receiver_8h.html" target="_top" xlink:title=" ">
<polygon fill="white" stroke="black" points="467,-56.5 467,-75.5 600,-75.5 600,-56.5 467,-56.5"/>
<text text-anchor="middle" x="533.5" y="-63.5" font-family="Helvetica,sans-Serif" font-size="10.00">core/WriteEventReceiver.h</text>
</a>
</g>
</g>
<!-- Node18&#45;&gt;Node19 -->
<g id="edge20" class="edge">
<title>Node18&#45;&gt;Node19</title>
<path fill="none" stroke="midnightblue" d="M555.63,-112.4C551.59,-104.11 546.44,-93.55 542.13,-84.71"/>
<polygon fill="midnightblue" stroke="midnightblue" points="545.25,-83.11 537.72,-75.66 538.95,-86.18 545.25,-83.11"/>
</g>
<!-- Node19&#45;&gt;Node7 -->
<g id="edge21" class="edge">
<title>Node19&#45;&gt;Node7</title>
<path fill="none" stroke="midnightblue" d="M557.58,-56.44C583.04,-47.4 623.39,-33.06 651.96,-22.92"/>
<polygon fill="midnightblue" stroke="midnightblue" points="653.28,-26.16 661.53,-19.52 650.93,-19.57 653.28,-26.16"/>
</g>
<!-- Node21&#45;&gt;Node18 -->
<g id="edge26" class="edge">
<title>Node21&#45;&gt;Node18</title>
<path fill="none" stroke="midnightblue" d="M562.5,-179.4C562.5,-171.64 562.5,-161.81 562.5,-152.86"/>
<polygon fill="midnightblue" stroke="midnightblue" points="566,-152.58 562.5,-142.58 559,-152.58 566,-152.58"/>
</g>
<!-- Node21&#45;&gt;Node20 -->
<g id="edge27" class="edge">
<title>Node21&#45;&gt;Node20</title>
<path fill="none" stroke="midnightblue" d="M613.23,-179.87C651.39,-169.63 703.81,-155.54 744.13,-144.72"/>
<polygon fill="midnightblue" stroke="midnightblue" points="745.09,-148.08 753.84,-142.11 743.27,-141.32 745.09,-148.08"/>
</g>
<!-- Node22 -->
<g id="node22" class="node">
<title>Node22</title>
<g id="a_node22"><a xlink:href="_socket_writer_8h.html" target="_top" xlink:title=" ">
<polygon fill="white" stroke="black" points="389,-112.5 389,-142.5 490,-142.5 490,-112.5 389,-112.5"/>
<text text-anchor="start" x="397" y="-130.5" font-family="Helvetica,sans-Serif" font-size="10.00">core/socket/stream</text>
<text text-anchor="middle" x="439.5" y="-119.5" font-family="Helvetica,sans-Serif" font-size="10.00">/SocketWriter.h</text>
</a>
</g>
</g>
<!-- Node21&#45;&gt;Node22 -->
<g id="edge24" class="edge">
<title>Node21&#45;&gt;Node22</title>
<path fill="none" stroke="midnightblue" d="M535.81,-179.4C518,-169.98 494.38,-157.5 474.99,-147.26"/>
<polygon fill="midnightblue" stroke="midnightblue" points="476.61,-144.15 466.14,-142.58 473.34,-150.34 476.61,-144.15"/>
</g>
<!-- Node22&#45;&gt;Node19 -->
<g id="edge25" class="edge">
<title>Node22&#45;&gt;Node19</title>
<path fill="none" stroke="midnightblue" d="M461.78,-112.4C476.7,-102.95 496.28,-90.56 511.21,-81.11"/>
<polygon fill="midnightblue" stroke="midnightblue" points="513.24,-83.96 519.82,-75.66 509.5,-78.05 513.24,-83.96"/>
</g>
<!-- Node24 -->
<g id="node24" class="node">
<title>Node24</title>
<g id="a_node24"><a xlink:href="core_2socket_2_server_socket_8h.html" target="_top" xlink:title=" ">
<polygon fill="white" stroke="black" points="1119.5,-319 1119.5,-338 1257.5,-338 1257.5,-319 1119.5,-319"/>
<text text-anchor="middle" x="1188.5" y="-326" font-family="Helvetica,sans-Serif" font-size="10.00">core/socket/ServerSocket.h</text>
</a>
</g>
</g>
<!-- Node23&#45;&gt;Node24 -->
<g id="edge30" class="edge">
<title>Node23&#45;&gt;Node24</title>
<path fill="none" stroke="midnightblue" d="M1060.15,-385.87C1085.59,-374.7 1130.1,-355.15 1159.45,-342.26"/>
<polygon fill="midnightblue" stroke="midnightblue" points="1161.02,-345.39 1168.77,-338.17 1158.2,-338.98 1161.02,-345.39"/>
</g>
<!-- Node25 -->
<g id="node25" class="node">
<title>Node25</title>
<g id="a_node25"><a xlink:href="net_2in6_2stream_2_socket_8h.html" target="_top" xlink:title=" ">
<polygon fill="white" stroke="black" points="980,-319 980,-338 1101,-338 1101,-319 980,-319"/>
<text text-anchor="middle" x="1040.5" y="-326" font-family="Helvetica,sans-Serif" font-size="10.00">net/in6/stream/Socket.h</text>
</a>
</g>
</g>
<!-- Node23&#45;&gt;Node25 -->
<g id="edge31" class="edge">
<title>Node23&#45;&gt;Node25</title>
<path fill="none" stroke="midnightblue" d="M1040.5,-385.73C1040.5,-376.18 1040.5,-360.62 1040.5,-348.28"/>
<polygon fill="midnightblue" stroke="midnightblue" points="1044,-348.13 1040.5,-338.13 1037,-348.13 1044,-348.13"/>
</g>
<!-- Node26 -->
<g id="node26" class="node">
<title>Node26</title>
<g id="a_node26"><a xlink:href="core_2socket_2_socket_8h.html" target="_top" xlink:title=" ">
<polygon fill="white" stroke="black" points="985.5,-252 985.5,-271 1095.5,-271 1095.5,-252 985.5,-252"/>
<text text-anchor="middle" x="1040.5" y="-259" font-family="Helvetica,sans-Serif" font-size="10.00">core/socket/Socket.h</text>
</a>
</g>
</g>
<!-- Node25&#45;&gt;Node26 -->
<g id="edge32" class="edge">
<title>Node25&#45;&gt;Node26</title>
<path fill="none" stroke="midnightblue" d="M1040.5,-318.73C1040.5,-309.18 1040.5,-293.62 1040.5,-281.28"/>
<polygon fill="midnightblue" stroke="midnightblue" points="1044,-281.13 1040.5,-271.13 1037,-281.13 1044,-281.13"/>
</g>
<!-- Node28 -->
<g id="node28" class="node">
<title>Node28</title>
<g id="a_node28"><a xlink:href="net_2in6_2_socket_address_8h.html" target="_top" xlink:title=" ">
<polygon fill="white" stroke="black" points="1173.5,-252 1173.5,-271 1297.5,-271 1297.5,-252 1173.5,-252"/>
<text text-anchor="middle" x="1235.5" y="-259" font-family="Helvetica,sans-Serif" font-size="10.00">net/in6/SocketAddress.h</text>
</a>
</g>
</g>
<!-- Node25&#45;&gt;Node28 -->
<g id="edge35" class="edge">
<title>Node25&#45;&gt;Node28</title>
<path fill="none" stroke="midnightblue" d="M1066.39,-318.87C1100.73,-307.42 1161.46,-287.18 1200.03,-274.32"/>
<polygon fill="midnightblue" stroke="midnightblue" points="1201.43,-277.55 1209.81,-271.06 1199.22,-270.91 1201.43,-277.55"/>
</g>
<!-- Node26&#45;&gt;Node8 -->
<g id="edge34" class="edge">
<title>Node26&#45;&gt;Node8</title>
<path fill="none" stroke="midnightblue" d="M1036.45,-251.73C1031.96,-241.99 1024.57,-225.98 1018.82,-213.53"/>
<polygon fill="midnightblue" stroke="midnightblue" points="1021.85,-211.74 1014.48,-204.13 1015.49,-214.67 1021.85,-211.74"/>
</g>
<!-- Node27 -->
<g id="node27" class="node">
<title>Node27</title>
<g id="a_node27"><a xlink:href="_descriptor_8h.html" target="_top" xlink:title=" ">
<polygon fill="white" stroke="black" points="1084,-185 1084,-204 1175,-204 1175,-185 1084,-185"/>
<text text-anchor="middle" x="1129.5" y="-192" font-family="Helvetica,sans-Serif" font-size="10.00">core/Descriptor.h</text>
</a>
</g>
</g>
<!-- Node26&#45;&gt;Node27 -->
<g id="edge33" class="edge">
<title>Node26&#45;&gt;Node27</title>
<path fill="none" stroke="midnightblue" d="M1052.5,-251.73C1067.05,-241.11 1091.78,-223.05 1109.28,-210.26"/>
<polygon fill="midnightblue" stroke="midnightblue" points="1111.68,-212.85 1117.69,-204.13 1107.55,-207.2 1111.68,-212.85"/>
</g>
<!-- Node29 -->
<g id="node29" class="node">
<title>Node29</title>
<g id="a_node29"><a xlink:href="core_2socket_2_socket_address_8h.html" target="_top" xlink:title=" ">
<polygon fill="white" stroke="black" points="1193.5,-185 1193.5,-204 1339.5,-204 1339.5,-185 1193.5,-185"/>
<text text-anchor="middle" x="1266.5" y="-192" font-family="Helvetica,sans-Serif" font-size="10.00">core/socket/SocketAddress.h</text>
</a>
</g>
</g>
<!-- Node28&#45;&gt;Node29 -->
<g id="edge36" class="edge">
<title>Node28&#45;&gt;Node29</title>
<path fill="none" stroke="midnightblue" d="M1239.68,-251.73C1244.38,-241.89 1252.12,-225.66 1258.08,-213.16"/>
<polygon fill="midnightblue" stroke="midnightblue" points="1261.24,-214.66 1262.39,-204.13 1254.92,-211.65 1261.24,-214.66"/>
</g>
</g>
</svg>
