<?xml version="1.0" encoding="UTF-8" standalone="no"?>
<!DOCTYPE svg PUBLIC "-//W3C//DTD SVG 1.1//EN"
 "http://www.w3.org/Graphics/SVG/1.1/DTD/svg11.dtd">
<!-- Generated by graphviz version 2.43.0 (0)
 -->
<!-- Title: net/in6/stream/tls/SocketClient.h Pages: 1 -->
<svg width="1677pt" height="620pt"
 viewBox="0.00 0.00 1676.50 620.00" xmlns="http://www.w3.org/2000/svg" xmlns:xlink="http://www.w3.org/1999/xlink">
<g id="graph0" class="graph" transform="scale(1 1) rotate(0) translate(4 616)">
<title>net/in6/stream/tls/SocketClient.h</title>
<polygon fill="white" stroke="transparent" points="-4,4 -4,-616 1672.5,-616 1672.5,4 -4,4"/>
<!-- Node1 -->
<g id="node1" class="node">
<title>Node1</title>
<g id="a_node1"><a xlink:title=" ">
<polygon fill="#bfbfbf" stroke="black" points="830.5,-581.5 830.5,-611.5 933.5,-611.5 933.5,-581.5 830.5,-581.5"/>
<text text-anchor="start" x="838.5" y="-599.5" font-family="Helvetica,sans-Serif" font-size="10.00">net/in6/stream/tls</text>
<text text-anchor="middle" x="882" y="-588.5" font-family="Helvetica,sans-Serif" font-size="10.00">/SocketClient.h</text>
</a>
</g>
</g>
<!-- Node2 -->
<g id="node2" class="node">
<title>Node2</title>
<g id="a_node2"><a xlink:href="core_2socket_2stream_2tls_2_socket_client_8h.html" target="_top" xlink:title=" ">
<polygon fill="white" stroke="black" points="595,-514.5 595,-544.5 705,-544.5 705,-514.5 595,-514.5"/>
<text text-anchor="start" x="603" y="-532.5" font-family="Helvetica,sans-Serif" font-size="10.00">core/socket/stream</text>
<text text-anchor="middle" x="650" y="-521.5" font-family="Helvetica,sans-Serif" font-size="10.00">/tls/SocketClient.h</text>
</a>
</g>
</g>
<!-- Node1&#45;&gt;Node2 -->
<g id="edge1" class="edge">
<title>Node1&#45;&gt;Node2</title>
<path fill="none" stroke="midnightblue" d="M831.95,-581.48C796.24,-571.47 748.05,-557.97 710.24,-547.38"/>
<polygon fill="midnightblue" stroke="midnightblue" points="710.94,-543.94 700.37,-544.61 709.05,-550.68 710.94,-543.94"/>
</g>
<!-- Node22 -->
<g id="node22" class="node">
<title>Node22</title>
<g id="a_node22"><a xlink:href="net_2in6_2stream_2_client_socket_8h.html" target="_top" xlink:title=" ">
<polygon fill="white" stroke="black" points="801.5,-520 801.5,-539 962.5,-539 962.5,-520 801.5,-520"/>
<text text-anchor="middle" x="882" y="-527" font-family="Helvetica,sans-Serif" font-size="10.00">net/in6/stream/ClientSocket.h</text>
</a>
</g>
</g>
<!-- Node1&#45;&gt;Node22 -->
<g id="edge29" class="edge">
<title>Node1&#45;&gt;Node22</title>
<path fill="none" stroke="midnightblue" d="M882,-581.4C882,-572.06 882,-559.71 882,-549.52"/>
<polygon fill="midnightblue" stroke="midnightblue" points="885.5,-549.19 882,-539.19 878.5,-549.19 885.5,-549.19"/>
</g>
<!-- Node29 -->
<g id="node29" class="node">
<title>Node29</title>
<g id="a_node29"><a xlink:href="in6_2stream_2tls_2config_2_config_socket_client_8h.html" target="_top" xlink:title=" ">
<polygon fill="white" stroke="black" points="1248,-514.5 1248,-544.5 1402,-544.5 1402,-514.5 1248,-514.5"/>
<text text-anchor="start" x="1256" y="-532.5" font-family="Helvetica,sans-Serif" font-size="10.00">net/in6/stream/tls</text>
<text text-anchor="middle" x="1325" y="-521.5" font-family="Helvetica,sans-Serif" font-size="10.00">/config/ConfigSocketClient.h</text>
</a>
</g>
</g>
<!-- Node1&#45;&gt;Node29 -->
<g id="edge36" class="edge">
<title>Node1&#45;&gt;Node29</title>
<path fill="none" stroke="midnightblue" d="M933.68,-587.92C1008.26,-576.97 1147.03,-556.61 1237.68,-543.31"/>
<polygon fill="midnightblue" stroke="midnightblue" points="1238.28,-546.76 1247.66,-541.85 1237.26,-539.84 1238.28,-546.76"/>
</g>
<!-- Node3 -->
<g id="node3" class="node">
<title>Node3</title>
<g id="a_node3"><a xlink:href="core_2socket_2stream_2_socket_client_8h.html" target="_top" xlink:title=" ">
<polygon fill="white" stroke="black" points="459,-447.5 459,-477.5 569,-477.5 569,-447.5 459,-447.5"/>
<text text-anchor="start" x="467" y="-465.5" font-family="Helvetica,sans-Serif" font-size="10.00">core/socket/stream</text>
<text text-anchor="middle" x="514" y="-454.5" font-family="Helvetica,sans-Serif" font-size="10.00">/SocketClient.h</text>
</a>
</g>
</g>
<!-- Node2&#45;&gt;Node3 -->
<g id="edge2" class="edge">
<title>Node2&#45;&gt;Node3</title>
<path fill="none" stroke="midnightblue" d="M620.49,-514.4C600.62,-504.9 574.21,-492.28 552.66,-481.98"/>
<polygon fill="midnightblue" stroke="midnightblue" points="553.98,-478.73 543.45,-477.58 550.97,-485.05 553.98,-478.73"/>
</g>
<!-- Node4 -->
<g id="node4" class="node">
<title>Node4</title>
<g id="a_node4"><a xlink:href="tls_2_socket_connector_8h.html" target="_top" xlink:title=" ">
<polygon fill="white" stroke="black" points="587.5,-447.5 587.5,-477.5 712.5,-477.5 712.5,-447.5 587.5,-447.5"/>
<text text-anchor="start" x="595.5" y="-465.5" font-family="Helvetica,sans-Serif" font-size="10.00">core/socket/stream</text>
<text text-anchor="middle" x="650" y="-454.5" font-family="Helvetica,sans-Serif" font-size="10.00">/tls/SocketConnector.h</text>
</a>
</g>
</g>
<!-- Node2&#45;&gt;Node4 -->
<g id="edge3" class="edge">
<title>Node2&#45;&gt;Node4</title>
<path fill="none" stroke="midnightblue" d="M650,-514.4C650,-506.64 650,-496.81 650,-487.86"/>
<polygon fill="midnightblue" stroke="midnightblue" points="653.5,-487.58 650,-477.58 646.5,-487.58 653.5,-487.58"/>
</g>
<!-- Node5 -->
<g id="node5" class="node">
<title>Node5</title>
<g id="a_node5"><a xlink:href="_socket_connector_8h.html" target="_top" xlink:title=" ">
<polygon fill="white" stroke="black" points="708,-246.5 708,-276.5 818,-276.5 818,-246.5 708,-246.5"/>
<text text-anchor="start" x="716" y="-264.5" font-family="Helvetica,sans-Serif" font-size="10.00">core/socket/stream</text>
<text text-anchor="middle" x="763" y="-253.5" font-family="Helvetica,sans-Serif" font-size="10.00">/SocketConnector.h</text>
</a>
</g>
</g>
<!-- Node4&#45;&gt;Node5 -->
<g id="edge4" class="edge">
<title>Node4&#45;&gt;Node5</title>
<path fill="none" stroke="midnightblue" d="M658.13,-447.19C677.47,-413.12 726.38,-326.99 749.93,-285.52"/>
<polygon fill="midnightblue" stroke="midnightblue" points="753.05,-287.11 754.95,-276.68 746.97,-283.65 753.05,-287.11"/>
</g>
<!-- Node11 -->
<g id="node11" class="node">
<title>Node11</title>
<g id="a_node11"><a xlink:href="stream_2tls_2_socket_connection_8h.html" target="_top" xlink:title=" ">
<polygon fill="white" stroke="black" points="379.5,-380.5 379.5,-410.5 510.5,-410.5 510.5,-380.5 379.5,-380.5"/>
<text text-anchor="start" x="387.5" y="-398.5" font-family="Helvetica,sans-Serif" font-size="10.00">core/socket/stream</text>
<text text-anchor="middle" x="445" y="-387.5" font-family="Helvetica,sans-Serif" font-size="10.00">/tls/SocketConnection.h</text>
</a>
</g>
</g>
<!-- Node4&#45;&gt;Node11 -->
<g id="edge11" class="edge">
<title>Node4&#45;&gt;Node11</title>
<path fill="none" stroke="midnightblue" d="M605.77,-447.48C574.49,-437.56 532.36,-424.2 499.08,-413.65"/>
<polygon fill="midnightblue" stroke="midnightblue" points="500.09,-410.3 489.5,-410.61 497.98,-416.97 500.09,-410.3"/>
</g>
<!-- Node6 -->
<g id="node6" class="node">
<title>Node6</title>
<g id="a_node6"><a xlink:href="_connect_event_receiver_8h.html" target="_top" xlink:title=" ">
<polygon fill="white" stroke="black" points="545.5,-179.5 545.5,-209.5 684.5,-209.5 684.5,-179.5 545.5,-179.5"/>
<text text-anchor="start" x="553.5" y="-197.5" font-family="Helvetica,sans-Serif" font-size="10.00">core/eventreceiver</text>
<text text-anchor="middle" x="615" y="-186.5" font-family="Helvetica,sans-Serif" font-size="10.00">/ConnectEventReceiver.h</text>
</a>
</g>
</g>
<!-- Node5&#45;&gt;Node6 -->
<g id="edge5" class="edge">
<title>Node5&#45;&gt;Node6</title>
<path fill="none" stroke="midnightblue" d="M730.89,-246.4C709.07,-236.81 680.01,-224.05 656.44,-213.7"/>
<polygon fill="midnightblue" stroke="midnightblue" points="657.61,-210.39 647.05,-209.58 654.8,-216.8 657.61,-210.39"/>
</g>
<!-- Node10 -->
<g id="node10" class="node">
<title>Node10</title>
<g id="a_node10"><a xlink:href="_init_connect_event_receiver_8h.html" target="_top" xlink:title=" ">
<polygon fill="white" stroke="black" points="568.5,-112.5 568.5,-142.5 723.5,-142.5 723.5,-112.5 568.5,-112.5"/>
<text text-anchor="start" x="576.5" y="-130.5" font-family="Helvetica,sans-Serif" font-size="10.00">core/eventreceiver</text>
<text text-anchor="middle" x="646" y="-119.5" font-family="Helvetica,sans-Serif" font-size="10.00">/InitConnectEventReceiver.h</text>
</a>
</g>
</g>
<!-- Node5&#45;&gt;Node10 -->
<g id="edge9" class="edge">
<title>Node5&#45;&gt;Node10</title>
<path fill="none" stroke="midnightblue" d="M751.03,-246.22C737.22,-229.83 713.76,-202.22 693,-179 684.36,-169.33 674.62,-158.81 666.25,-149.88"/>
<polygon fill="midnightblue" stroke="midnightblue" points="668.72,-147.4 659.32,-142.51 663.62,-152.19 668.72,-147.4"/>
</g>
<!-- Node7 -->
<g id="node7" class="node">
<title>Node7</title>
<g id="a_node7"><a xlink:href="_descriptor_event_receiver_8h.html" target="_top" xlink:title=" ">
<polygon fill="white" stroke="black" points="363,-118 363,-137 533,-137 533,-118 363,-118"/>
<text text-anchor="middle" x="448" y="-125" font-family="Helvetica,sans-Serif" font-size="10.00">core/DescriptorEventReceiver.h</text>
</a>
</g>
</g>
<!-- Node6&#45;&gt;Node7 -->
<g id="edge6" class="edge">
<title>Node6&#45;&gt;Node7</title>
<path fill="none" stroke="midnightblue" d="M578.76,-179.4C549.07,-167.84 507.49,-151.66 479.25,-140.66"/>
<polygon fill="midnightblue" stroke="midnightblue" points="480.44,-137.37 469.86,-137.01 477.91,-143.9 480.44,-137.37"/>
</g>
<!-- Node8 -->
<g id="node8" class="node">
<title>Node8</title>
<g id="a_node8"><a xlink:href="_event_receiver_8h.html" target="_top" xlink:title=" ">
<polygon fill="white" stroke="black" points="478,-56.5 478,-75.5 598,-75.5 598,-56.5 478,-56.5"/>
<text text-anchor="middle" x="538" y="-63.5" font-family="Helvetica,sans-Serif" font-size="10.00">core/EventReceiver.h</text>
</a>
</g>
</g>
<!-- Node7&#45;&gt;Node8 -->
<g id="edge7" class="edge">
<title>Node7&#45;&gt;Node8</title>
<path fill="none" stroke="midnightblue" d="M460.89,-117.98C475.46,-108.34 499.4,-92.52 516.75,-81.05"/>
<polygon fill="midnightblue" stroke="midnightblue" points="518.72,-83.94 525.13,-75.51 514.86,-78.1 518.72,-83.94"/>
</g>
<!-- Node9 -->
<g id="node9" class="node">
<title>Node9</title>
<g id="a_node9"><a xlink:href="_event_8h.html" target="_top" xlink:title=" ">
<polygon fill="white" stroke="black" points="511.5,-0.5 511.5,-19.5 564.5,-19.5 564.5,-0.5 511.5,-0.5"/>
<text text-anchor="middle" x="538" y="-7.5" font-family="Helvetica,sans-Serif" font-size="10.00">Event.h</text>
</a>
</g>
</g>
<!-- Node8&#45;&gt;Node9 -->
<g id="edge8" class="edge">
<title>Node8&#45;&gt;Node9</title>
<path fill="none" stroke="midnightblue" d="M538,-56.08C538,-49.01 538,-38.86 538,-29.99"/>
<polygon fill="midnightblue" stroke="midnightblue" points="541.5,-29.75 538,-19.75 534.5,-29.75 541.5,-29.75"/>
</g>
<!-- Node10&#45;&gt;Node8 -->
<g id="edge10" class="edge">
<title>Node10&#45;&gt;Node8</title>
<path fill="none" stroke="midnightblue" d="M620.41,-112.4C602.93,-102.77 579.91,-90.09 562.64,-80.58"/>
<polygon fill="midnightblue" stroke="midnightblue" points="564.16,-77.42 553.71,-75.66 560.78,-83.55 564.16,-77.42"/>
</g>
<!-- Node12 -->
<g id="node12" class="node">
<title>Node12</title>
<g id="a_node12"><a xlink:href="stream_2_socket_connection_8h.html" target="_top" xlink:title=" ">
<polygon fill="white" stroke="black" points="532,-313.5 532,-343.5 648,-343.5 648,-313.5 532,-313.5"/>
<text text-anchor="start" x="540" y="-331.5" font-family="Helvetica,sans-Serif" font-size="10.00">core/socket/stream</text>
<text text-anchor="middle" x="590" y="-320.5" font-family="Helvetica,sans-Serif" font-size="10.00">/SocketConnection.h</text>
</a>
</g>
</g>
<!-- Node11&#45;&gt;Node12 -->
<g id="edge12" class="edge">
<title>Node11&#45;&gt;Node12</title>
<path fill="none" stroke="midnightblue" d="M476.46,-380.4C497.84,-370.81 526.31,-358.05 549.4,-347.7"/>
<polygon fill="midnightblue" stroke="midnightblue" points="550.91,-350.86 558.6,-343.58 548.04,-344.47 550.91,-350.86"/>
</g>
<!-- Node14 -->
<g id="node14" class="node">
<title>Node14</title>
<g id="a_node14"><a xlink:href="tls_2_socket_reader_8h.html" target="_top" xlink:title=" ">
<polygon fill="white" stroke="black" points="390,-313.5 390,-343.5 500,-343.5 500,-313.5 390,-313.5"/>
<text text-anchor="start" x="398" y="-331.5" font-family="Helvetica,sans-Serif" font-size="10.00">core/socket/stream</text>
<text text-anchor="middle" x="445" y="-320.5" font-family="Helvetica,sans-Serif" font-size="10.00">/tls/SocketReader.h</text>
</a>
</g>
</g>
<!-- Node11&#45;&gt;Node14 -->
<g id="edge14" class="edge">
<title>Node11&#45;&gt;Node14</title>
<path fill="none" stroke="midnightblue" d="M445,-380.4C445,-372.64 445,-362.81 445,-353.86"/>
<polygon fill="midnightblue" stroke="midnightblue" points="448.5,-353.58 445,-343.58 441.5,-353.58 448.5,-353.58"/>
</g>
<!-- Node19 -->
<g id="node19" class="node">
<title>Node19</title>
<g id="a_node19"><a xlink:href="tls_2_socket_writer_8h.html" target="_top" xlink:title=" ">
<polygon fill="white" stroke="black" points="224,-313.5 224,-343.5 334,-343.5 334,-313.5 224,-313.5"/>
<text text-anchor="start" x="232" y="-331.5" font-family="Helvetica,sans-Serif" font-size="10.00">core/socket/stream</text>
<text text-anchor="middle" x="279" y="-320.5" font-family="Helvetica,sans-Serif" font-size="10.00">/tls/SocketWriter.h</text>
</a>
</g>
</g>
<!-- Node11&#45;&gt;Node19 -->
<g id="edge22" class="edge">
<title>Node11&#45;&gt;Node19</title>
<path fill="none" stroke="midnightblue" d="M408.98,-380.4C384.18,-370.69 351.04,-357.71 324.43,-347.29"/>
<polygon fill="midnightblue" stroke="midnightblue" points="325.54,-343.96 314.95,-343.58 322.98,-350.48 325.54,-343.96"/>
</g>
<!-- Node21 -->
<g id="node21" class="node">
<title>Node21</title>
<g id="a_node21"><a xlink:href="_t_l_s_shutdown_8h.html" target="_top" xlink:title=" ">
<polygon fill="white" stroke="black" points="128,-246.5 128,-276.5 238,-276.5 238,-246.5 128,-246.5"/>
<text text-anchor="start" x="136" y="-264.5" font-family="Helvetica,sans-Serif" font-size="10.00">core/socket/stream</text>
<text text-anchor="middle" x="183" y="-253.5" font-family="Helvetica,sans-Serif" font-size="10.00">/tls/TLSShutdown.h</text>
</a>
</g>
</g>
<!-- Node11&#45;&gt;Node21 -->
<g id="edge26" class="edge">
<title>Node11&#45;&gt;Node21</title>
<path fill="none" stroke="midnightblue" d="M427.01,-380.43C414.15,-370.34 396.46,-356.4 381,-344 364,-330.36 362.18,-323.35 343,-313 325.65,-303.63 281.89,-290.05 244.52,-279.33"/>
<polygon fill="midnightblue" stroke="midnightblue" points="245.25,-275.9 234.67,-276.53 243.33,-282.63 245.25,-275.9"/>
</g>
<!-- Node13 -->
<g id="node13" class="node">
<title>Node13</title>
<g id="a_node13"><a xlink:href="_socket_connection_8h.html" target="_top" xlink:title=" ">
<polygon fill="white" stroke="black" points="518.5,-252 518.5,-271 689.5,-271 689.5,-252 518.5,-252"/>
<text text-anchor="middle" x="604" y="-259" font-family="Helvetica,sans-Serif" font-size="10.00">core/socket/SocketConnection.h</text>
</a>
</g>
</g>
<!-- Node12&#45;&gt;Node13 -->
<g id="edge13" class="edge">
<title>Node12&#45;&gt;Node13</title>
<path fill="none" stroke="midnightblue" d="M593.04,-313.4C595.07,-303.96 597.76,-291.45 599.97,-281.19"/>
<polygon fill="midnightblue" stroke="midnightblue" points="603.44,-281.71 602.13,-271.19 596.6,-280.23 603.44,-281.71"/>
</g>
<!-- Node15 -->
<g id="node15" class="node">
<title>Node15</title>
<g id="a_node15"><a xlink:href="_socket_reader_8h.html" target="_top" xlink:title=" ">
<polygon fill="white" stroke="black" points="390,-246.5 390,-276.5 500,-276.5 500,-246.5 390,-246.5"/>
<text text-anchor="start" x="398" y="-264.5" font-family="Helvetica,sans-Serif" font-size="10.00">core/socket/stream</text>
<text text-anchor="middle" x="445" y="-253.5" font-family="Helvetica,sans-Serif" font-size="10.00">/SocketReader.h</text>
</a>
</g>
</g>
<!-- Node14&#45;&gt;Node15 -->
<g id="edge15" class="edge">
<title>Node14&#45;&gt;Node15</title>
<path fill="none" stroke="midnightblue" d="M445,-313.4C445,-305.64 445,-295.81 445,-286.86"/>
<polygon fill="midnightblue" stroke="midnightblue" points="448.5,-286.58 445,-276.58 441.5,-286.58 448.5,-286.58"/>
</g>
<!-- Node17 -->
<g id="node17" class="node">
<title>Node17</title>
<g id="a_node17"><a xlink:href="_t_l_s_handshake_8h.html" target="_top" xlink:title=" ">
<polygon fill="white" stroke="black" points="256.5,-246.5 256.5,-276.5 371.5,-276.5 371.5,-246.5 256.5,-246.5"/>
<text text-anchor="start" x="264.5" y="-264.5" font-family="Helvetica,sans-Serif" font-size="10.00">core/socket/stream</text>
<text text-anchor="middle" x="314" y="-253.5" font-family="Helvetica,sans-Serif" font-size="10.00">/tls/TLSHandshake.h</text>
</a>
</g>
</g>
<!-- Node14&#45;&gt;Node17 -->
<g id="edge18" class="edge">
<title>Node14&#45;&gt;Node17</title>
<path fill="none" stroke="midnightblue" d="M416.57,-313.4C397.52,-303.94 372.22,-291.39 351.52,-281.12"/>
<polygon fill="midnightblue" stroke="midnightblue" points="352.88,-277.89 342.37,-276.58 349.77,-284.16 352.88,-277.89"/>
</g>
<!-- Node16 -->
<g id="node16" class="node">
<title>Node16</title>
<g id="a_node16"><a xlink:href="_read_event_receiver_8h.html" target="_top" xlink:title=" ">
<polygon fill="white" stroke="black" points="353,-179.5 353,-209.5 477,-209.5 477,-179.5 353,-179.5"/>
<text text-anchor="start" x="361" y="-197.5" font-family="Helvetica,sans-Serif" font-size="10.00">core/eventreceiver</text>
<text text-anchor="middle" x="415" y="-186.5" font-family="Helvetica,sans-Serif" font-size="10.00">/ReadEventReceiver.h</text>
</a>
</g>
</g>
<!-- Node15&#45;&gt;Node16 -->
<g id="edge16" class="edge">
<title>Node15&#45;&gt;Node16</title>
<path fill="none" stroke="midnightblue" d="M438.49,-246.4C434.76,-238.3 429.97,-227.94 425.7,-218.69"/>
<polygon fill="midnightblue" stroke="midnightblue" points="428.87,-217.19 421.5,-209.58 422.51,-220.12 428.87,-217.19"/>
</g>
<!-- Node16&#45;&gt;Node7 -->
<g id="edge17" class="edge">
<title>Node16&#45;&gt;Node7</title>
<path fill="none" stroke="midnightblue" d="M422.16,-179.4C427.1,-169.66 433.71,-156.65 439.01,-146.21"/>
<polygon fill="midnightblue" stroke="midnightblue" points="442.18,-147.7 443.59,-137.19 435.94,-144.53 442.18,-147.7"/>
</g>
<!-- Node17&#45;&gt;Node16 -->
<g id="edge19" class="edge">
<title>Node17&#45;&gt;Node16</title>
<path fill="none" stroke="midnightblue" d="M335.92,-246.4C350.08,-237.28 368.71,-225.29 384.33,-215.24"/>
<polygon fill="midnightblue" stroke="midnightblue" points="386.61,-217.93 393.13,-209.58 382.82,-212.05 386.61,-217.93"/>
</g>
<!-- Node18 -->
<g id="node18" class="node">
<title>Node18</title>
<g id="a_node18"><a xlink:href="_write_event_receiver_8h.html" target="_top" xlink:title=" ">
<polygon fill="white" stroke="black" points="179.5,-179.5 179.5,-209.5 304.5,-209.5 304.5,-179.5 179.5,-179.5"/>
<text text-anchor="start" x="187.5" y="-197.5" font-family="Helvetica,sans-Serif" font-size="10.00">core/eventreceiver</text>
<text text-anchor="middle" x="242" y="-186.5" font-family="Helvetica,sans-Serif" font-size="10.00">/WriteEventReceiver.h</text>
</a>
</g>
</g>
<!-- Node17&#45;&gt;Node18 -->
<g id="edge20" class="edge">
<title>Node17&#45;&gt;Node18</title>
<path fill="none" stroke="midnightblue" d="M298.38,-246.4C288.66,-237.62 275.99,-226.18 265.12,-216.37"/>
<polygon fill="midnightblue" stroke="midnightblue" points="267.36,-213.68 257.59,-209.58 262.67,-218.88 267.36,-213.68"/>
</g>
<!-- Node18&#45;&gt;Node7 -->
<g id="edge21" class="edge">
<title>Node18&#45;&gt;Node7</title>
<path fill="none" stroke="midnightblue" d="M286.45,-179.48C323.69,-167.72 376.24,-151.14 411.17,-140.12"/>
<polygon fill="midnightblue" stroke="midnightblue" points="412.49,-143.38 420.97,-137.03 410.38,-136.7 412.49,-143.38"/>
</g>
<!-- Node19&#45;&gt;Node17 -->
<g id="edge25" class="edge">
<title>Node19&#45;&gt;Node17</title>
<path fill="none" stroke="midnightblue" d="M286.59,-313.4C291,-305.22 296.65,-294.73 301.67,-285.39"/>
<polygon fill="midnightblue" stroke="midnightblue" points="304.76,-287.04 306.42,-276.58 298.6,-283.72 304.76,-287.04"/>
</g>
<!-- Node20 -->
<g id="node20" class="node">
<title>Node20</title>
<g id="a_node20"><a xlink:href="_socket_writer_8h.html" target="_top" xlink:title=" ">
<polygon fill="white" stroke="black" points="0,-246.5 0,-276.5 110,-276.5 110,-246.5 0,-246.5"/>
<text text-anchor="start" x="8" y="-264.5" font-family="Helvetica,sans-Serif" font-size="10.00">core/socket/stream</text>
<text text-anchor="middle" x="55" y="-253.5" font-family="Helvetica,sans-Serif" font-size="10.00">/SocketWriter.h</text>
</a>
</g>
</g>
<!-- Node19&#45;&gt;Node20 -->
<g id="edge23" class="edge">
<title>Node19&#45;&gt;Node20</title>
<path fill="none" stroke="midnightblue" d="M230.67,-313.48C196.34,-303.51 150.07,-290.09 113.63,-279.51"/>
<polygon fill="midnightblue" stroke="midnightblue" points="114.21,-276.04 103.63,-276.61 112.26,-282.76 114.21,-276.04"/>
</g>
<!-- Node20&#45;&gt;Node18 -->
<g id="edge24" class="edge">
<title>Node20&#45;&gt;Node18</title>
<path fill="none" stroke="midnightblue" d="M95.58,-246.4C123.88,-236.56 161.83,-223.37 192,-212.88"/>
<polygon fill="midnightblue" stroke="midnightblue" points="193.21,-216.17 201.5,-209.58 190.91,-209.55 193.21,-216.17"/>
</g>
<!-- Node21&#45;&gt;Node16 -->
<g id="edge27" class="edge">
<title>Node21&#45;&gt;Node16</title>
<path fill="none" stroke="midnightblue" d="M233.05,-246.48C268.76,-236.47 316.95,-222.97 354.76,-212.38"/>
<polygon fill="midnightblue" stroke="midnightblue" points="355.95,-215.68 364.63,-209.61 354.06,-208.94 355.95,-215.68"/>
</g>
<!-- Node21&#45;&gt;Node18 -->
<g id="edge28" class="edge">
<title>Node21&#45;&gt;Node18</title>
<path fill="none" stroke="midnightblue" d="M195.8,-246.4C203.53,-237.88 213.55,-226.85 222.27,-217.23"/>
<polygon fill="midnightblue" stroke="midnightblue" points="225.09,-219.33 229.22,-209.58 219.91,-214.63 225.09,-219.33"/>
</g>
<!-- Node23 -->
<g id="node23" class="node">
<title>Node23</title>
<g id="a_node23"><a xlink:href="core_2socket_2_client_socket_8h.html" target="_top" xlink:title=" ">
<polygon fill="white" stroke="black" points="730.5,-453 730.5,-472 875.5,-472 875.5,-453 730.5,-453"/>
<text text-anchor="middle" x="803" y="-460" font-family="Helvetica,sans-Serif" font-size="10.00">core/socket/ClientSocket.h</text>
</a>
</g>
</g>
<!-- Node22&#45;&gt;Node23 -->
<g id="edge30" class="edge">
<title>Node22&#45;&gt;Node23</title>
<path fill="none" stroke="midnightblue" d="M871.35,-519.73C858.55,-509.21 836.88,-491.38 821.37,-478.62"/>
<polygon fill="midnightblue" stroke="midnightblue" points="823.43,-475.78 813.49,-472.13 818.98,-481.18 823.43,-475.78"/>
</g>
<!-- Node24 -->
<g id="node24" class="node">
<title>Node24</title>
<g id="a_node24"><a xlink:href="net_2in6_2stream_2_socket_8h.html" target="_top" xlink:title=" ">
<polygon fill="white" stroke="black" points="894,-453 894,-472 1026,-472 1026,-453 894,-453"/>
<text text-anchor="middle" x="960" y="-460" font-family="Helvetica,sans-Serif" font-size="10.00">net/in6/stream/Socket.h</text>
</a>
</g>
</g>
<!-- Node22&#45;&gt;Node24 -->
<g id="edge31" class="edge">
<title>Node22&#45;&gt;Node24</title>
<path fill="none" stroke="midnightblue" d="M892.52,-519.73C905.15,-509.21 926.54,-491.38 941.86,-478.62"/>
<polygon fill="midnightblue" stroke="midnightblue" points="944.21,-481.22 949.65,-472.13 939.72,-475.84 944.21,-481.22"/>
</g>
<!-- Node25 -->
<g id="node25" class="node">
<title>Node25</title>
<g id="a_node25"><a xlink:href="core_2socket_2_socket_8h.html" target="_top" xlink:title=" ">
<polygon fill="white" stroke="black" points="816,-386 816,-405 932,-405 932,-386 816,-386"/>
<text text-anchor="middle" x="874" y="-393" font-family="Helvetica,sans-Serif" font-size="10.00">core/socket/Socket.h</text>
</a>
</g>
</g>
<!-- Node24&#45;&gt;Node25 -->
<g id="edge32" class="edge">
<title>Node24&#45;&gt;Node25</title>
<path fill="none" stroke="midnightblue" d="M948.4,-452.73C934.35,-442.11 910.45,-424.05 893.53,-411.26"/>
<polygon fill="midnightblue" stroke="midnightblue" points="895.5,-408.36 885.41,-405.13 891.28,-413.95 895.5,-408.36"/>
</g>
<!-- Node27 -->
<g id="node27" class="node">
<title>Node27</title>
<g id="a_node27"><a xlink:href="net_2in6_2_socket_address_8h.html" target="_top" xlink:title=" ">
<polygon fill="white" stroke="black" points="973,-319 973,-338 1107,-338 1107,-319 973,-319"/>
<text text-anchor="middle" x="1040" y="-326" font-family="Helvetica,sans-Serif" font-size="10.00">net/in6/SocketAddress.h</text>
</a>
</g>
</g>
<!-- Node24&#45;&gt;Node27 -->
<g id="edge34" class="edge">
<title>Node24&#45;&gt;Node27</title>
<path fill="none" stroke="midnightblue" d="M960.23,-452.97C961.01,-437.35 964.4,-403.6 979,-380 988.23,-365.09 1003.41,-352.5 1016.31,-343.62"/>
<polygon fill="midnightblue" stroke="midnightblue" points="1018.33,-346.48 1024.78,-338.08 1014.5,-340.62 1018.33,-346.48"/>
</g>
<!-- Node26 -->
<g id="node26" class="node">
<title>Node26</title>
<g id="a_node26"><a xlink:href="_descriptor_8h.html" target="_top" xlink:title=" ">
<polygon fill="white" stroke="black" points="824,-319 824,-338 924,-338 924,-319 824,-319"/>
<text text-anchor="middle" x="874" y="-326" font-family="Helvetica,sans-Serif" font-size="10.00">core/Descriptor.h</text>
</a>
</g>
</g>
<!-- Node25&#45;&gt;Node26 -->
<g id="edge33" class="edge">
<title>Node25&#45;&gt;Node26</title>
<path fill="none" stroke="midnightblue" d="M874,-385.73C874,-376.18 874,-360.62 874,-348.28"/>
<polygon fill="midnightblue" stroke="midnightblue" points="877.5,-348.13 874,-338.13 870.5,-348.13 877.5,-348.13"/>
</g>
<!-- Node28 -->
<g id="node28" class="node">
<title>Node28</title>
<g id="a_node28"><a xlink:href="core_2socket_2_socket_address_8h.html" target="_top" xlink:title=" ">
<polygon fill="white" stroke="black" points="962.5,-252 962.5,-271 1117.5,-271 1117.5,-252 962.5,-252"/>
<text text-anchor="middle" x="1040" y="-259" font-family="Helvetica,sans-Serif" font-size="10.00">core/socket/SocketAddress.h</text>
</a>
</g>
</g>
<!-- Node27&#45;&gt;Node28 -->
<g id="edge35" class="edge">
<title>Node27&#45;&gt;Node28</title>
<path fill="none" stroke="midnightblue" d="M1040,-318.73C1040,-309.18 1040,-293.62 1040,-281.28"/>
<polygon fill="midnightblue" stroke="midnightblue" points="1043.5,-281.13 1040,-271.13 1036.5,-281.13 1043.5,-281.13"/>
</g>
<!-- Node30 -->
<g id="node30" class="node">
<title>Node30</title>
<g id="a_node30"><a xlink:href="_config_tls_8h.html" target="_top" xlink:title=" ">
<polygon fill="white" stroke="black" points="1545.5,-453 1545.5,-472 1668.5,-472 1668.5,-453 1545.5,-453"/>
<text text-anchor="middle" x="1607" y="-460" font-family="Helvetica,sans-Serif" font-size="10.00">net/config/ConfigTls.h</text>
</a>
</g>
</g>
<!-- Node29&#45;&gt;Node30 -->
<g id="edge37" class="edge">
<title>Node29&#45;&gt;Node30</title>
<path fill="none" stroke="midnightblue" d="M1385.84,-514.48C1438.14,-502.42 1512.48,-485.29 1560.23,-474.28"/>
<polygon fill="midnightblue" stroke="midnightblue" points="1561.04,-477.69 1570,-472.03 1559.47,-470.86 1561.04,-477.69"/>
</g>
<!-- Node32 -->
<g id="node32" class="node">
<title>Node32</title>
<g id="a_node32"><a xlink:href="in6_2stream_2config_2_config_client_socket_8h.html" target="_top" xlink:title=" ">
<polygon fill="white" stroke="black" points="1264.5,-447.5 1264.5,-477.5 1385.5,-477.5 1385.5,-447.5 1264.5,-447.5"/>
<text text-anchor="start" x="1272.5" y="-465.5" font-family="Helvetica,sans-Serif" font-size="10.00">net/in6/stream/config</text>
<text text-anchor="middle" x="1325" y="-454.5" font-family="Helvetica,sans-Serif" font-size="10.00">/ConfigClientSocket.h</text>
</a>
</g>
</g>
<!-- Node29&#45;&gt;Node32 -->
<g id="edge39" class="edge">
<title>Node29&#45;&gt;Node32</title>
<path fill="none" stroke="midnightblue" d="M1325,-514.4C1325,-506.64 1325,-496.81 1325,-487.86"/>
<polygon fill="midnightblue" stroke="midnightblue" points="1328.5,-487.58 1325,-477.58 1321.5,-487.58 1328.5,-487.58"/>
</g>
<!-- Node31 -->
<g id="node31" class="node">
<title>Node31</title>
<g id="a_node31"><a xlink:href="_config_base_8h.html" target="_top" xlink:title=" ">
<polygon fill="white" stroke="black" points="1455.5,-252 1455.5,-271 1588.5,-271 1588.5,-252 1455.5,-252"/>
<text text-anchor="middle" x="1522" y="-259" font-family="Helvetica,sans-Serif" font-size="10.00">net/config/ConfigBase.h</text>
</a>
</g>
</g>
<!-- Node30&#45;&gt;Node31 -->
<g id="edge38" class="edge">
<title>Node30&#45;&gt;Node31</title>
<path fill="none" stroke="midnightblue" d="M1621.37,-452.75C1634.22,-443.99 1652.19,-429.22 1660,-411 1665.43,-398.34 1664.64,-392.97 1660,-380 1641.73,-328.95 1585.54,-293.39 1550.75,-275.6"/>
<polygon fill="midnightblue" stroke="midnightblue" points="1552.07,-272.35 1541.55,-271.05 1548.97,-278.62 1552.07,-272.35"/>
</g>
<!-- Node33 -->
<g id="node33" class="node">
<title>Node33</title>
<g id="a_node33"><a xlink:href="_config_address_local_8h.html" target="_top" xlink:title=" ">
<polygon fill="white" stroke="black" points="1511.5,-380.5 1511.5,-410.5 1650.5,-410.5 1650.5,-380.5 1511.5,-380.5"/>
<text text-anchor="start" x="1519.5" y="-398.5" font-family="Helvetica,sans-Serif" font-size="10.00">net/config/ConfigAddress</text>
<text text-anchor="middle" x="1581" y="-387.5" font-family="Helvetica,sans-Serif" font-size="10.00">Local.h</text>
</a>
</g>
</g>
<!-- Node32&#45;&gt;Node33 -->
<g id="edge40" class="edge">
<title>Node32&#45;&gt;Node33</title>
<path fill="none" stroke="midnightblue" d="M1380.23,-447.48C1419.97,-437.39 1473.71,-423.74 1515.59,-413.11"/>
<polygon fill="midnightblue" stroke="midnightblue" points="1516.59,-416.46 1525.42,-410.61 1514.87,-409.68 1516.59,-416.46"/>
</g>
<!-- Node35 -->
<g id="node35" class="node">
<title>Node35</title>
<g id="a_node35"><a xlink:href="_config_address_remote_8h.html" target="_top" xlink:title=" ">
<polygon fill="white" stroke="black" points="1354.5,-380.5 1354.5,-410.5 1493.5,-410.5 1493.5,-380.5 1354.5,-380.5"/>
<text text-anchor="start" x="1362.5" y="-398.5" font-family="Helvetica,sans-Serif" font-size="10.00">net/config/ConfigAddress</text>
<text text-anchor="middle" x="1424" y="-387.5" font-family="Helvetica,sans-Serif" font-size="10.00">Remote.h</text>
</a>
</g>
</g>
<!-- Node32&#45;&gt;Node35 -->
<g id="edge43" class="edge">
<title>Node32&#45;&gt;Node35</title>
<path fill="none" stroke="midnightblue" d="M1346.48,-447.4C1360.36,-438.28 1378.63,-426.29 1393.94,-416.24"/>
<polygon fill="midnightblue" stroke="midnightblue" points="1396.12,-418.99 1402.56,-410.58 1392.28,-413.14 1396.12,-418.99"/>
</g>
<!-- Node36 -->
<g id="node36" class="node">
<title>Node36</title>
<g id="a_node36"><a xlink:href="_config_connection_8h.html" target="_top" xlink:title=" ">
<polygon fill="white" stroke="black" points="1172,-386 1172,-405 1336,-405 1336,-386 1172,-386"/>
<text text-anchor="middle" x="1254" y="-393" font-family="Helvetica,sans-Serif" font-size="10.00">net/config/ConfigConnection.h</text>
</a>
</g>
</g>
<!-- Node32&#45;&gt;Node36 -->
<g id="edge45" class="edge">
<title>Node32&#45;&gt;Node36</title>
<path fill="none" stroke="midnightblue" d="M1309.59,-447.4C1298.19,-436.96 1282.67,-422.75 1270.93,-412"/>
<polygon fill="midnightblue" stroke="midnightblue" points="1273.24,-409.37 1263.5,-405.19 1268.51,-414.53 1273.24,-409.37"/>
</g>
<!-- Node37 -->
<g id="node37" class="node">
<title>Node37</title>
<g id="a_node37"><a xlink:href="in6_2config_2_config_address_8h.html" target="_top" xlink:title=" ">
<polygon fill="white" stroke="black" points="988,-386 988,-405 1154,-405 1154,-386 988,-386"/>
<text text-anchor="middle" x="1071" y="-393" font-family="Helvetica,sans-Serif" font-size="10.00">net/in6/config/ConfigAddress.h</text>
</a>
</g>
</g>
<!-- Node32&#45;&gt;Node37 -->
<g id="edge47" class="edge">
<title>Node32&#45;&gt;Node37</title>
<path fill="none" stroke="midnightblue" d="M1270.2,-447.48C1223.48,-435.52 1157.25,-418.57 1114.21,-407.56"/>
<polygon fill="midnightblue" stroke="midnightblue" points="1114.88,-404.12 1104.33,-405.03 1113.15,-410.9 1114.88,-404.12"/>
</g>
<!-- Node34 -->
<g id="node34" class="node">
<title>Node34</title>
<g id="a_node34"><a xlink:href="config_2_config_address_8h.html" target="_top" xlink:title=" ">
<polygon fill="white" stroke="black" points="1448,-319 1448,-338 1596,-338 1596,-319 1448,-319"/>
<text text-anchor="middle" x="1522" y="-326" font-family="Helvetica,sans-Serif" font-size="10.00">net/config/ConfigAddress.h</text>
</a>
</g>
</g>
<!-- Node33&#45;&gt;Node34 -->
<g id="edge41" class="edge">
<title>Node33&#45;&gt;Node34</title>
<path fill="none" stroke="midnightblue" d="M1568.2,-380.4C1558.91,-370.16 1546.32,-356.3 1536.63,-345.62"/>
<polygon fill="midnightblue" stroke="midnightblue" points="1539.2,-343.25 1529.89,-338.19 1534.02,-347.95 1539.2,-343.25"/>
</g>
<!-- Node34&#45;&gt;Node31 -->
<g id="edge42" class="edge">
<title>Node34&#45;&gt;Node31</title>
<path fill="none" stroke="midnightblue" d="M1522,-318.73C1522,-309.18 1522,-293.62 1522,-281.28"/>
<polygon fill="midnightblue" stroke="midnightblue" points="1525.5,-281.13 1522,-271.13 1518.5,-281.13 1525.5,-281.13"/>
</g>
<!-- Node35&#45;&gt;Node34 -->
<g id="edge44" class="edge">
<title>Node35&#45;&gt;Node34</title>
<path fill="none" stroke="midnightblue" d="M1445.26,-380.4C1461.7,-369.5 1484.34,-354.48 1500.77,-343.58"/>
<polygon fill="midnightblue" stroke="midnightblue" points="1502.78,-346.45 1509.17,-338.01 1498.91,-340.62 1502.78,-346.45"/>
</g>
<!-- Node36&#45;&gt;Node31 -->
<g id="edge46" class="edge">
<title>Node36&#45;&gt;Node31</title>
<path fill="none" stroke="midnightblue" d="M1271.58,-385.84C1317.5,-363.22 1441.23,-302.28 1495.67,-275.47"/>
<polygon fill="midnightblue" stroke="midnightblue" points="1497.28,-278.58 1504.7,-271.02 1494.18,-272.3 1497.28,-278.58"/>
</g>
<!-- Node37&#45;&gt;Node27 -->
<g id="edge48" class="edge">
<title>Node37&#45;&gt;Node27</title>
<path fill="none" stroke="midnightblue" d="M1066.82,-385.73C1062.12,-375.89 1054.38,-359.66 1048.42,-347.16"/>
<polygon fill="midnightblue" stroke="midnightblue" points="1051.58,-345.65 1044.11,-338.13 1045.26,-348.66 1051.58,-345.65"/>
</g>
</g>
</svg>
