<?xml version="1.0" encoding="UTF-8" standalone="no"?>
<!DOCTYPE svg PUBLIC "-//W3C//DTD SVG 1.1//EN"
 "http://www.w3.org/Graphics/SVG/1.1/DTD/svg11.dtd">
<!-- Generated by graphviz version 2.43.0 (0)
 -->
<!-- Title: net/un/Socket.cpp Pages: 1 -->
<svg width="263pt" height="252pt"
 viewBox="0.00 0.00 262.50 252.00" xmlns="http://www.w3.org/2000/svg" xmlns:xlink="http://www.w3.org/1999/xlink">
<g id="graph0" class="graph" transform="scale(1 1) rotate(0) translate(4 248)">
<title>net/un/Socket.cpp</title>
<polygon fill="white" stroke="transparent" points="-4,4 -4,-248 258.5,-248 258.5,4 -4,4"/>
<!-- Node1 -->
<g id="node1" class="node">
<title>Node1</title>
<g id="a_node1"><a xlink:title=" ">
<polygon fill="#bfbfbf" stroke="black" points="66.5,-224.5 66.5,-243.5 169.5,-243.5 169.5,-224.5 66.5,-224.5"/>
<text text-anchor="middle" x="118" y="-231.5" font-family="Helvetica,sans-Serif" font-size="10.00">net/un/Socket.cpp</text>
</a>
</g>
</g>
<!-- Node2 -->
<g id="node2" class="node">
<title>Node2</title>
<g id="a_node2"><a xlink:href="net_2un_2_socket_8h.html" target="_top" xlink:title=" ">
<polygon fill="white" stroke="black" points="127,-168.5 127,-187.5 219,-187.5 219,-168.5 127,-168.5"/>
<text text-anchor="middle" x="173" y="-175.5" font-family="Helvetica,sans-Serif" font-size="10.00">net/un/Socket.h</text>
</a>
</g>
</g>
<!-- Node1&#45;&gt;Node2 -->
<g id="edge1" class="edge">
<title>Node1&#45;&gt;Node2</title>
<path fill="none" stroke="midnightblue" d="M127.08,-224.08C135.17,-216.14 147.2,-204.34 156.91,-194.8"/>
<polygon fill="midnightblue" stroke="midnightblue" points="159.4,-197.25 164.09,-187.75 154.5,-192.26 159.4,-197.25"/>
</g>
<!-- Node8 -->
<g id="node8" class="node">
<title>Node8</title>
<g id="a_node8"><a xlink:href="_socket_8hpp.html" target="_top" xlink:title=" ">
<polygon fill="white" stroke="black" points="19.5,-168.5 19.5,-187.5 108.5,-187.5 108.5,-168.5 19.5,-168.5"/>
<text text-anchor="middle" x="64" y="-175.5" font-family="Helvetica,sans-Serif" font-size="10.00">net/Socket.hpp</text>
</a>
</g>
</g>
<!-- Node1&#45;&gt;Node8 -->
<g id="edge7" class="edge">
<title>Node1&#45;&gt;Node8</title>
<path fill="none" stroke="midnightblue" d="M109.08,-224.08C101.22,-216.22 89.57,-204.57 80.08,-195.08"/>
<polygon fill="midnightblue" stroke="midnightblue" points="82.3,-192.35 72.75,-187.75 77.35,-197.3 82.3,-192.35"/>
</g>
<!-- Node3 -->
<g id="node3" class="node">
<title>Node3</title>
<g id="a_node3"><a xlink:href="net_2_socket_8h.html" target="_top" xlink:title=" ">
<polygon fill="white" stroke="black" points="25.5,-112.5 25.5,-131.5 102.5,-131.5 102.5,-112.5 25.5,-112.5"/>
<text text-anchor="middle" x="64" y="-119.5" font-family="Helvetica,sans-Serif" font-size="10.00">net/Socket.h</text>
</a>
</g>
</g>
<!-- Node2&#45;&gt;Node3 -->
<g id="edge2" class="edge">
<title>Node2&#45;&gt;Node3</title>
<path fill="none" stroke="midnightblue" d="M155.49,-168.32C137.93,-159.62 110.67,-146.12 90.47,-136.11"/>
<polygon fill="midnightblue" stroke="midnightblue" points="91.98,-132.96 81.47,-131.65 88.88,-139.23 91.98,-132.96"/>
</g>
<!-- Node6 -->
<g id="node6" class="node">
<title>Node6</title>
<g id="a_node6"><a xlink:href="un_2_socket_address_8h.html" target="_top" xlink:title=" ">
<polygon fill="white" stroke="black" points="123.5,-112.5 123.5,-131.5 254.5,-131.5 254.5,-112.5 123.5,-112.5"/>
<text text-anchor="middle" x="189" y="-119.5" font-family="Helvetica,sans-Serif" font-size="10.00">net/un/SocketAddress.h</text>
</a>
</g>
</g>
<!-- Node2&#45;&gt;Node6 -->
<g id="edge5" class="edge">
<title>Node2&#45;&gt;Node6</title>
<path fill="none" stroke="midnightblue" d="M175.64,-168.08C177.79,-160.85 180.88,-150.41 183.55,-141.4"/>
<polygon fill="midnightblue" stroke="midnightblue" points="186.92,-142.33 186.41,-131.75 180.21,-140.34 186.92,-142.33"/>
</g>
<!-- Node4 -->
<g id="node4" class="node">
<title>Node4</title>
<g id="a_node4"><a xlink:href="core_2socket_2_socket_8h.html" target="_top" xlink:title=" ">
<polygon fill="white" stroke="black" points="0,-56.5 0,-75.5 116,-75.5 116,-56.5 0,-56.5"/>
<text text-anchor="middle" x="58" y="-63.5" font-family="Helvetica,sans-Serif" font-size="10.00">core/socket/Socket.h</text>
</a>
</g>
</g>
<!-- Node3&#45;&gt;Node4 -->
<g id="edge3" class="edge">
<title>Node3&#45;&gt;Node4</title>
<path fill="none" stroke="midnightblue" d="M63.01,-112.08C62.21,-104.93 61.07,-94.64 60.08,-85.69"/>
<polygon fill="midnightblue" stroke="midnightblue" points="63.56,-85.3 58.97,-75.75 56.6,-86.08 63.56,-85.3"/>
</g>
<!-- Node5 -->
<g id="node5" class="node">
<title>Node5</title>
<g id="a_node5"><a xlink:href="_descriptor_8h.html" target="_top" xlink:title=" ">
<polygon fill="white" stroke="black" points="8,-0.5 8,-19.5 108,-19.5 108,-0.5 8,-0.5"/>
<text text-anchor="middle" x="58" y="-7.5" font-family="Helvetica,sans-Serif" font-size="10.00">core/Descriptor.h</text>
</a>
</g>
</g>
<!-- Node4&#45;&gt;Node5 -->
<g id="edge4" class="edge">
<title>Node4&#45;&gt;Node5</title>
<path fill="none" stroke="midnightblue" d="M58,-56.08C58,-49.01 58,-38.86 58,-29.99"/>
<polygon fill="midnightblue" stroke="midnightblue" points="61.5,-29.75 58,-19.75 54.5,-29.75 61.5,-29.75"/>
</g>
<!-- Node7 -->
<g id="node7" class="node">
<title>Node7</title>
<g id="a_node7"><a xlink:href="_socket_address_8h.html" target="_top" xlink:title=" ">
<polygon fill="white" stroke="black" points="134,-56.5 134,-75.5 250,-75.5 250,-56.5 134,-56.5"/>
<text text-anchor="middle" x="192" y="-63.5" font-family="Helvetica,sans-Serif" font-size="10.00">net/SocketAddress.h</text>
</a>
</g>
</g>
<!-- Node6&#45;&gt;Node7 -->
<g id="edge6" class="edge">
<title>Node6&#45;&gt;Node7</title>
<path fill="none" stroke="midnightblue" d="M189.5,-112.08C189.89,-105.01 190.45,-94.86 190.95,-85.99"/>
<polygon fill="midnightblue" stroke="midnightblue" points="194.45,-85.93 191.51,-75.75 187.46,-85.54 194.45,-85.93"/>
</g>
<!-- Node8&#45;&gt;Node3 -->
<g id="edge8" class="edge">
<title>Node8&#45;&gt;Node3</title>
<path fill="none" stroke="midnightblue" d="M64,-168.08C64,-161.01 64,-150.86 64,-141.99"/>
<polygon fill="midnightblue" stroke="midnightblue" points="67.5,-141.75 64,-131.75 60.5,-141.75 67.5,-141.75"/>
</g>
</g>
</svg>
