<?xml version="1.0" encoding="UTF-8" standalone="no"?>
<!DOCTYPE svg PUBLIC "-//W3C//DTD SVG 1.1//EN"
 "http://www.w3.org/Graphics/SVG/1.1/DTD/svg11.dtd">
<!-- Generated by graphviz version 2.43.0 (0)
 -->
<!-- Title: net/rf/stream/legacy/SocketServer.h Pages: 1 -->
<svg width="161pt" height="162pt"
 viewBox="0.00 0.00 161.00 162.00" xmlns="http://www.w3.org/2000/svg" xmlns:xlink="http://www.w3.org/1999/xlink">
<g id="graph0" class="graph" transform="scale(1 1) rotate(0) translate(4 158)">
<title>net/rf/stream/legacy/SocketServer.h</title>
<polygon fill="white" stroke="transparent" points="-4,4 -4,-158 157,-158 157,4 -4,4"/>
<!-- Node1 -->
<g id="node1" class="node">
<title>Node1</title>
<g id="a_node1"><a xlink:title=" ">
<polygon fill="#bfbfbf" stroke="black" points="18.5,-123.5 18.5,-153.5 134.5,-153.5 134.5,-123.5 18.5,-123.5"/>
<text text-anchor="start" x="26.5" y="-141.5" font-family="Helvetica,sans-Serif" font-size="10.00">net/rf/stream/legacy</text>
<text text-anchor="middle" x="76.5" y="-130.5" font-family="Helvetica,sans-Serif" font-size="10.00">/SocketServer.h</text>
</a>
</g>
</g>
<!-- Node2 -->
<g id="node2" class="node">
<title>Node2</title>
<g id="a_node2"><a xlink:href="legacy_2rf_2_server_8h.html" target="_top" xlink:title=" ">
<polygon fill="white" stroke="black" points="24,-56.5 24,-86.5 129,-86.5 129,-56.5 24,-56.5"/>
<text text-anchor="start" x="32" y="-74.5" font-family="Helvetica,sans-Serif" font-size="10.00">web/http/legacy/rf</text>
<text text-anchor="middle" x="76.5" y="-63.5" font-family="Helvetica,sans-Serif" font-size="10.00">/Server.h</text>
</a>
</g>
</g>
<!-- Node1&#45;&gt;Node2 -->
<g id="edge1" class="edge">
<title>Node1&#45;&gt;Node2</title>
<path fill="none" stroke="midnightblue" d="M76.5,-113.11C76.5,-104.15 76.5,-94.32 76.5,-86.58"/>
<polygon fill="midnightblue" stroke="midnightblue" points="73,-113.4 76.5,-123.4 80,-113.4 73,-113.4"/>
</g>
<!-- Node3 -->
<g id="node3" class="node">
<title>Node3</title>
<g id="a_node3"><a xlink:href="legacy_2rf_2_web_app_8h.html" target="_top" xlink:title=" ">
<polygon fill="white" stroke="black" points="0,-0.5 0,-19.5 153,-19.5 153,-0.5 0,-0.5"/>
<text text-anchor="middle" x="76.5" y="-7.5" font-family="Helvetica,sans-Serif" font-size="10.00">express/legacy/rf/WebApp.h</text>
</a>
</g>
</g>
<!-- Node2&#45;&gt;Node3 -->
<g id="edge2" class="edge">
<title>Node2&#45;&gt;Node3</title>
<path fill="none" stroke="midnightblue" d="M76.5,-46.29C76.5,-36.86 76.5,-26.65 76.5,-19.66"/>
<polygon fill="midnightblue" stroke="midnightblue" points="73,-46.4 76.5,-56.4 80,-46.4 73,-46.4"/>
</g>
</g>
</svg>
