<?xml version="1.0" encoding="UTF-8" standalone="no"?>
<!DOCTYPE svg PUBLIC "-//W3C//DTD SVG 1.1//EN"
 "http://www.w3.org/Graphics/SVG/1.1/DTD/svg11.dtd">
<!-- Generated by graphviz version 2.43.0 (0)
 -->
<!-- Title: net/in6/stream/tls/SocketClient.h Pages: 1 -->
<svg width="1533pt" height="598pt"
 viewBox="0.00 0.00 1533.00 598.00" xmlns="http://www.w3.org/2000/svg" xmlns:xlink="http://www.w3.org/1999/xlink">
<g id="graph0" class="graph" transform="scale(1 1) rotate(0) translate(4 594)">
<title>net/in6/stream/tls/SocketClient.h</title>
<polygon fill="white" stroke="transparent" points="-4,4 -4,-594 1529,-594 1529,4 -4,4"/>
<!-- Node1 -->
<g id="node1" class="node">
<title>Node1</title>
<g id="a_node1"><a xlink:title=" ">
<polygon fill="#bfbfbf" stroke="black" points="726.5,-559.5 726.5,-589.5 829.5,-589.5 829.5,-559.5 726.5,-559.5"/>
<text text-anchor="start" x="734.5" y="-577.5" font-family="Helvetica,sans-Serif" font-size="10.00">net/in6/stream/tls</text>
<text text-anchor="middle" x="778" y="-566.5" font-family="Helvetica,sans-Serif" font-size="10.00">/SocketClient.h</text>
</a>
</g>
</g>
<!-- Node2 -->
<g id="node2" class="node">
<title>Node2</title>
<g id="a_node2"><a xlink:href="core_2socket_2stream_2tls_2_socket_client_8h.html" target="_top" xlink:title=" ">
<polygon fill="white" stroke="black" points="491,-492.5 491,-522.5 601,-522.5 601,-492.5 491,-492.5"/>
<text text-anchor="start" x="499" y="-510.5" font-family="Helvetica,sans-Serif" font-size="10.00">core/socket/stream</text>
<text text-anchor="middle" x="546" y="-499.5" font-family="Helvetica,sans-Serif" font-size="10.00">/tls/SocketClient.h</text>
</a>
</g>
</g>
<!-- Node1&#45;&gt;Node2 -->
<g id="edge1" class="edge">
<title>Node1&#45;&gt;Node2</title>
<path fill="none" stroke="midnightblue" d="M727.95,-559.48C692.24,-549.47 644.05,-535.97 606.24,-525.38"/>
<polygon fill="midnightblue" stroke="midnightblue" points="606.94,-521.94 596.37,-522.61 605.05,-528.68 606.94,-521.94"/>
</g>
<!-- Node22 -->
<g id="node22" class="node">
<title>Node22</title>
<g id="a_node22"><a xlink:href="net_2in6_2stream_2_client_socket_8h.html" target="_top" xlink:title=" ">
<polygon fill="white" stroke="black" points="697.5,-498 697.5,-517 858.5,-517 858.5,-498 697.5,-498"/>
<text text-anchor="middle" x="778" y="-505" font-family="Helvetica,sans-Serif" font-size="10.00">net/in6/stream/ClientSocket.h</text>
</a>
</g>
</g>
<!-- Node1&#45;&gt;Node22 -->
<g id="edge29" class="edge">
<title>Node1&#45;&gt;Node22</title>
<path fill="none" stroke="midnightblue" d="M778,-559.4C778,-550.06 778,-537.71 778,-527.52"/>
<polygon fill="midnightblue" stroke="midnightblue" points="781.5,-527.19 778,-517.19 774.5,-527.19 781.5,-527.19"/>
</g>
<!-- Node29 -->
<g id="node29" class="node">
<title>Node29</title>
<g id="a_node29"><a xlink:href="in6_2stream_2tls_2_client_config_8h.html" target="_top" xlink:title=" ">
<polygon fill="white" stroke="black" points="1090.5,-492.5 1090.5,-522.5 1193.5,-522.5 1193.5,-492.5 1090.5,-492.5"/>
<text text-anchor="start" x="1098.5" y="-510.5" font-family="Helvetica,sans-Serif" font-size="10.00">net/in6/stream/tls</text>
<text text-anchor="middle" x="1142" y="-499.5" font-family="Helvetica,sans-Serif" font-size="10.00">/ClientConfig.h</text>
</a>
</g>
</g>
<!-- Node1&#45;&gt;Node29 -->
<g id="edge36" class="edge">
<title>Node1&#45;&gt;Node29</title>
<path fill="none" stroke="midnightblue" d="M829.77,-564.26C895.8,-552.46 1009.88,-532.09 1080.34,-519.51"/>
<polygon fill="midnightblue" stroke="midnightblue" points="1081.18,-522.92 1090.41,-517.71 1079.95,-516.02 1081.18,-522.92"/>
</g>
<!-- Node3 -->
<g id="node3" class="node">
<title>Node3</title>
<g id="a_node3"><a xlink:href="core_2socket_2stream_2_socket_client_8h.html" target="_top" xlink:title=" ">
<polygon fill="white" stroke="black" points="355,-425.5 355,-455.5 465,-455.5 465,-425.5 355,-425.5"/>
<text text-anchor="start" x="363" y="-443.5" font-family="Helvetica,sans-Serif" font-size="10.00">core/socket/stream</text>
<text text-anchor="middle" x="410" y="-432.5" font-family="Helvetica,sans-Serif" font-size="10.00">/SocketClient.h</text>
</a>
</g>
</g>
<!-- Node2&#45;&gt;Node3 -->
<g id="edge2" class="edge">
<title>Node2&#45;&gt;Node3</title>
<path fill="none" stroke="midnightblue" d="M516.49,-492.4C496.62,-482.9 470.21,-470.28 448.66,-459.98"/>
<polygon fill="midnightblue" stroke="midnightblue" points="449.98,-456.73 439.45,-455.58 446.97,-463.05 449.98,-456.73"/>
</g>
<!-- Node4 -->
<g id="node4" class="node">
<title>Node4</title>
<g id="a_node4"><a xlink:href="tls_2_socket_connector_8h.html" target="_top" xlink:title=" ">
<polygon fill="white" stroke="black" points="483.5,-425.5 483.5,-455.5 608.5,-455.5 608.5,-425.5 483.5,-425.5"/>
<text text-anchor="start" x="491.5" y="-443.5" font-family="Helvetica,sans-Serif" font-size="10.00">core/socket/stream</text>
<text text-anchor="middle" x="546" y="-432.5" font-family="Helvetica,sans-Serif" font-size="10.00">/tls/SocketConnector.h</text>
</a>
</g>
</g>
<!-- Node2&#45;&gt;Node4 -->
<g id="edge3" class="edge">
<title>Node2&#45;&gt;Node4</title>
<path fill="none" stroke="midnightblue" d="M546,-492.4C546,-484.64 546,-474.81 546,-465.86"/>
<polygon fill="midnightblue" stroke="midnightblue" points="549.5,-465.58 546,-455.58 542.5,-465.58 549.5,-465.58"/>
</g>
<!-- Node5 -->
<g id="node5" class="node">
<title>Node5</title>
<g id="a_node5"><a xlink:href="_socket_connector_8h.html" target="_top" xlink:title=" ">
<polygon fill="white" stroke="black" points="708,-224.5 708,-254.5 818,-254.5 818,-224.5 708,-224.5"/>
<text text-anchor="start" x="716" y="-242.5" font-family="Helvetica,sans-Serif" font-size="10.00">core/socket/stream</text>
<text text-anchor="middle" x="763" y="-231.5" font-family="Helvetica,sans-Serif" font-size="10.00">/SocketConnector.h</text>
</a>
</g>
</g>
<!-- Node4&#45;&gt;Node5 -->
<g id="edge4" class="edge">
<title>Node4&#45;&gt;Node5</title>
<path fill="none" stroke="midnightblue" d="M561.61,-425.19C599.38,-390.55 695.86,-302.07 740.15,-261.46"/>
<polygon fill="midnightblue" stroke="midnightblue" points="742.53,-264.02 747.54,-254.68 737.8,-258.86 742.53,-264.02"/>
</g>
<!-- Node11 -->
<g id="node11" class="node">
<title>Node11</title>
<g id="a_node11"><a xlink:href="stream_2tls_2_socket_connection_8h.html" target="_top" xlink:title=" ">
<polygon fill="white" stroke="black" points="369.5,-358.5 369.5,-388.5 500.5,-388.5 500.5,-358.5 369.5,-358.5"/>
<text text-anchor="start" x="377.5" y="-376.5" font-family="Helvetica,sans-Serif" font-size="10.00">core/socket/stream</text>
<text text-anchor="middle" x="435" y="-365.5" font-family="Helvetica,sans-Serif" font-size="10.00">/tls/SocketConnection.h</text>
</a>
</g>
</g>
<!-- Node4&#45;&gt;Node11 -->
<g id="edge11" class="edge">
<title>Node4&#45;&gt;Node11</title>
<path fill="none" stroke="midnightblue" d="M521.91,-425.4C506.06,-416.11 485.11,-403.84 467.74,-393.67"/>
<polygon fill="midnightblue" stroke="midnightblue" points="469.44,-390.61 459.04,-388.58 465.9,-396.65 469.44,-390.61"/>
</g>
<!-- Node6 -->
<g id="node6" class="node">
<title>Node6</title>
<g id="a_node6"><a xlink:href="_connect_event_receiver_8h.html" target="_top" xlink:title=" ">
<polygon fill="white" stroke="black" points="543,-168.5 543,-187.5 703,-187.5 703,-168.5 543,-168.5"/>
<text text-anchor="middle" x="623" y="-175.5" font-family="Helvetica,sans-Serif" font-size="10.00">core/ConnectEventReceiver.h</text>
</a>
</g>
</g>
<!-- Node5&#45;&gt;Node6 -->
<g id="edge5" class="edge">
<title>Node5&#45;&gt;Node6</title>
<path fill="none" stroke="midnightblue" d="M729.82,-224.4C706.44,-214.46 675.39,-201.26 652.79,-191.66"/>
<polygon fill="midnightblue" stroke="midnightblue" points="653.94,-188.35 643.37,-187.66 651.21,-194.79 653.94,-188.35"/>
</g>
<!-- Node10 -->
<g id="node10" class="node">
<title>Node10</title>
<g id="a_node10"><a xlink:href="_init_connect_event_receiver_8h.html" target="_top" xlink:title=" ">
<polygon fill="white" stroke="black" points="590,-112.5 590,-131.5 766,-131.5 766,-112.5 590,-112.5"/>
<text text-anchor="middle" x="678" y="-119.5" font-family="Helvetica,sans-Serif" font-size="10.00">core/InitConnectEventReceiver.h</text>
</a>
</g>
</g>
<!-- Node5&#45;&gt;Node10 -->
<g id="edge9" class="edge">
<title>Node5&#45;&gt;Node10</title>
<path fill="none" stroke="midnightblue" d="M752.93,-224.39C742.7,-210.12 726.37,-187.44 712,-168 705,-158.53 697.08,-148.03 690.64,-139.56"/>
<polygon fill="midnightblue" stroke="midnightblue" points="693.41,-137.42 684.57,-131.59 687.84,-141.66 693.41,-137.42"/>
</g>
<!-- Node7 -->
<g id="node7" class="node">
<title>Node7</title>
<g id="a_node7"><a xlink:href="_descriptor_event_receiver_8h.html" target="_top" xlink:title=" ">
<polygon fill="white" stroke="black" points="380,-112.5 380,-131.5 550,-131.5 550,-112.5 380,-112.5"/>
<text text-anchor="middle" x="465" y="-119.5" font-family="Helvetica,sans-Serif" font-size="10.00">core/DescriptorEventReceiver.h</text>
</a>
</g>
</g>
<!-- Node6&#45;&gt;Node7 -->
<g id="edge6" class="edge">
<title>Node6&#45;&gt;Node7</title>
<path fill="none" stroke="midnightblue" d="M597.96,-168.44C571.38,-159.36 529.19,-144.94 499.48,-134.78"/>
<polygon fill="midnightblue" stroke="midnightblue" points="500.51,-131.44 489.92,-131.52 498.25,-138.06 500.51,-131.44"/>
</g>
<!-- Node8 -->
<g id="node8" class="node">
<title>Node8</title>
<g id="a_node8"><a xlink:href="_event_receiver_8h.html" target="_top" xlink:title=" ">
<polygon fill="white" stroke="black" points="500,-56.5 500,-75.5 620,-75.5 620,-56.5 500,-56.5"/>
<text text-anchor="middle" x="560" y="-63.5" font-family="Helvetica,sans-Serif" font-size="10.00">core/EventReceiver.h</text>
</a>
</g>
</g>
<!-- Node7&#45;&gt;Node8 -->
<g id="edge7" class="edge">
<title>Node7&#45;&gt;Node8</title>
<path fill="none" stroke="midnightblue" d="M480.26,-112.32C495.22,-103.82 518.25,-90.73 535.73,-80.8"/>
<polygon fill="midnightblue" stroke="midnightblue" points="537.81,-83.64 544.77,-75.65 534.35,-77.55 537.81,-83.64"/>
</g>
<!-- Node9 -->
<g id="node9" class="node">
<title>Node9</title>
<g id="a_node9"><a xlink:href="_event_8h.html" target="_top" xlink:title=" ">
<polygon fill="white" stroke="black" points="521.5,-0.5 521.5,-19.5 598.5,-19.5 598.5,-0.5 521.5,-0.5"/>
<text text-anchor="middle" x="560" y="-7.5" font-family="Helvetica,sans-Serif" font-size="10.00">core/Event.h</text>
</a>
</g>
</g>
<!-- Node8&#45;&gt;Node9 -->
<g id="edge8" class="edge">
<title>Node8&#45;&gt;Node9</title>
<path fill="none" stroke="midnightblue" d="M560,-56.08C560,-49.01 560,-38.86 560,-29.99"/>
<polygon fill="midnightblue" stroke="midnightblue" points="563.5,-29.75 560,-19.75 556.5,-29.75 563.5,-29.75"/>
</g>
<!-- Node10&#45;&gt;Node8 -->
<g id="edge10" class="edge">
<title>Node10&#45;&gt;Node8</title>
<path fill="none" stroke="midnightblue" d="M659.3,-112.44C640.06,-103.64 609.85,-89.81 587.8,-79.72"/>
<polygon fill="midnightblue" stroke="midnightblue" points="589.16,-76.5 578.61,-75.52 586.25,-82.86 589.16,-76.5"/>
</g>
<!-- Node12 -->
<g id="node12" class="node">
<title>Node12</title>
<g id="a_node12"><a xlink:href="stream_2_socket_connection_8h.html" target="_top" xlink:title=" ">
<polygon fill="white" stroke="black" points="517,-291.5 517,-321.5 633,-321.5 633,-291.5 517,-291.5"/>
<text text-anchor="start" x="525" y="-309.5" font-family="Helvetica,sans-Serif" font-size="10.00">core/socket/stream</text>
<text text-anchor="middle" x="575" y="-298.5" font-family="Helvetica,sans-Serif" font-size="10.00">/SocketConnection.h</text>
</a>
</g>
</g>
<!-- Node11&#45;&gt;Node12 -->
<g id="edge12" class="edge">
<title>Node11&#45;&gt;Node12</title>
<path fill="none" stroke="midnightblue" d="M465.38,-358.4C485.93,-348.86 513.26,-336.16 535.5,-325.84"/>
<polygon fill="midnightblue" stroke="midnightblue" points="537.09,-328.96 544.68,-321.58 534.14,-322.61 537.09,-328.96"/>
</g>
<!-- Node14 -->
<g id="node14" class="node">
<title>Node14</title>
<g id="a_node14"><a xlink:href="tls_2_socket_reader_8h.html" target="_top" xlink:title=" ">
<polygon fill="white" stroke="black" points="380,-291.5 380,-321.5 490,-321.5 490,-291.5 380,-291.5"/>
<text text-anchor="start" x="388" y="-309.5" font-family="Helvetica,sans-Serif" font-size="10.00">core/socket/stream</text>
<text text-anchor="middle" x="435" y="-298.5" font-family="Helvetica,sans-Serif" font-size="10.00">/tls/SocketReader.h</text>
</a>
</g>
</g>
<!-- Node11&#45;&gt;Node14 -->
<g id="edge14" class="edge">
<title>Node11&#45;&gt;Node14</title>
<path fill="none" stroke="midnightblue" d="M435,-358.4C435,-350.64 435,-340.81 435,-331.86"/>
<polygon fill="midnightblue" stroke="midnightblue" points="438.5,-331.58 435,-321.58 431.5,-331.58 438.5,-331.58"/>
</g>
<!-- Node19 -->
<g id="node19" class="node">
<title>Node19</title>
<g id="a_node19"><a xlink:href="tls_2_socket_writer_8h.html" target="_top" xlink:title=" ">
<polygon fill="white" stroke="black" points="131,-291.5 131,-321.5 241,-321.5 241,-291.5 131,-291.5"/>
<text text-anchor="start" x="139" y="-309.5" font-family="Helvetica,sans-Serif" font-size="10.00">core/socket/stream</text>
<text text-anchor="middle" x="186" y="-298.5" font-family="Helvetica,sans-Serif" font-size="10.00">/tls/SocketWriter.h</text>
</a>
</g>
</g>
<!-- Node11&#45;&gt;Node19 -->
<g id="edge22" class="edge">
<title>Node11&#45;&gt;Node19</title>
<path fill="none" stroke="midnightblue" d="M381.28,-358.48C342.71,-348.41 290.58,-334.8 249.88,-324.17"/>
<polygon fill="midnightblue" stroke="midnightblue" points="250.62,-320.75 240.06,-321.61 248.85,-327.52 250.62,-320.75"/>
</g>
<!-- Node21 -->
<g id="node21" class="node">
<title>Node21</title>
<g id="a_node21"><a xlink:href="_t_l_s_shutdown_8h.html" target="_top" xlink:title=" ">
<polygon fill="white" stroke="black" points="262,-224.5 262,-254.5 372,-254.5 372,-224.5 262,-224.5"/>
<text text-anchor="start" x="270" y="-242.5" font-family="Helvetica,sans-Serif" font-size="10.00">core/socket/stream</text>
<text text-anchor="middle" x="317" y="-231.5" font-family="Helvetica,sans-Serif" font-size="10.00">/tls/TLSShutdown.h</text>
</a>
</g>
</g>
<!-- Node11&#45;&gt;Node21 -->
<g id="edge26" class="edge">
<title>Node11&#45;&gt;Node21</title>
<path fill="none" stroke="midnightblue" d="M413.7,-358.32C400.52,-348.94 383.75,-335.85 371,-322 354.51,-304.09 339.55,-280.66 329.58,-263.52"/>
<polygon fill="midnightblue" stroke="midnightblue" points="332.56,-261.69 324.57,-254.73 326.47,-265.15 332.56,-261.69"/>
</g>
<!-- Node13 -->
<g id="node13" class="node">
<title>Node13</title>
<g id="a_node13"><a xlink:href="_socket_connection_8h.html" target="_top" xlink:title=" ">
<polygon fill="white" stroke="black" points="518.5,-230 518.5,-249 689.5,-249 689.5,-230 518.5,-230"/>
<text text-anchor="middle" x="604" y="-237" font-family="Helvetica,sans-Serif" font-size="10.00">core/socket/SocketConnection.h</text>
</a>
</g>
</g>
<!-- Node12&#45;&gt;Node13 -->
<g id="edge13" class="edge">
<title>Node12&#45;&gt;Node13</title>
<path fill="none" stroke="midnightblue" d="M581.29,-291.4C585.59,-281.76 591.32,-268.91 595.95,-258.54"/>
<polygon fill="midnightblue" stroke="midnightblue" points="599.24,-259.75 600.12,-249.19 592.85,-256.9 599.24,-259.75"/>
</g>
<!-- Node15 -->
<g id="node15" class="node">
<title>Node15</title>
<g id="a_node15"><a xlink:href="_socket_reader_8h.html" target="_top" xlink:title=" ">
<polygon fill="white" stroke="black" points="390,-224.5 390,-254.5 500,-254.5 500,-224.5 390,-224.5"/>
<text text-anchor="start" x="398" y="-242.5" font-family="Helvetica,sans-Serif" font-size="10.00">core/socket/stream</text>
<text text-anchor="middle" x="445" y="-231.5" font-family="Helvetica,sans-Serif" font-size="10.00">/SocketReader.h</text>
</a>
</g>
</g>
<!-- Node14&#45;&gt;Node15 -->
<g id="edge15" class="edge">
<title>Node14&#45;&gt;Node15</title>
<path fill="none" stroke="midnightblue" d="M437.17,-291.4C438.38,-283.56 439.91,-273.6 441.3,-264.57"/>
<polygon fill="midnightblue" stroke="midnightblue" points="444.77,-264.99 442.83,-254.58 437.85,-263.93 444.77,-264.99"/>
</g>
<!-- Node17 -->
<g id="node17" class="node">
<title>Node17</title>
<g id="a_node17"><a xlink:href="_t_l_s_handshake_8h.html" target="_top" xlink:title=" ">
<polygon fill="white" stroke="black" points="128.5,-224.5 128.5,-254.5 243.5,-254.5 243.5,-224.5 128.5,-224.5"/>
<text text-anchor="start" x="136.5" y="-242.5" font-family="Helvetica,sans-Serif" font-size="10.00">core/socket/stream</text>
<text text-anchor="middle" x="186" y="-231.5" font-family="Helvetica,sans-Serif" font-size="10.00">/tls/TLSHandshake.h</text>
</a>
</g>
</g>
<!-- Node14&#45;&gt;Node17 -->
<g id="edge18" class="edge">
<title>Node14&#45;&gt;Node17</title>
<path fill="none" stroke="midnightblue" d="M381.28,-291.48C342.71,-281.41 290.58,-267.8 249.88,-257.17"/>
<polygon fill="midnightblue" stroke="midnightblue" points="250.62,-253.75 240.06,-254.61 248.85,-260.52 250.62,-253.75"/>
</g>
<!-- Node16 -->
<g id="node16" class="node">
<title>Node16</title>
<g id="a_node16"><a xlink:href="_read_event_receiver_8h.html" target="_top" xlink:title=" ">
<polygon fill="white" stroke="black" points="348.5,-168.5 348.5,-187.5 493.5,-187.5 493.5,-168.5 348.5,-168.5"/>
<text text-anchor="middle" x="421" y="-175.5" font-family="Helvetica,sans-Serif" font-size="10.00">core/ReadEventReceiver.h</text>
</a>
</g>
</g>
<!-- Node15&#45;&gt;Node16 -->
<g id="edge16" class="edge">
<title>Node15&#45;&gt;Node16</title>
<path fill="none" stroke="midnightblue" d="M439.31,-224.4C436,-216.2 431.8,-205.78 428.26,-196.99"/>
<polygon fill="midnightblue" stroke="midnightblue" points="431.48,-195.62 424.49,-187.66 424.99,-198.24 431.48,-195.62"/>
</g>
<!-- Node16&#45;&gt;Node7 -->
<g id="edge17" class="edge">
<title>Node16&#45;&gt;Node7</title>
<path fill="none" stroke="midnightblue" d="M428.27,-168.08C434.54,-160.38 443.79,-149.03 451.43,-139.65"/>
<polygon fill="midnightblue" stroke="midnightblue" points="454.27,-141.71 457.87,-131.75 448.84,-137.29 454.27,-141.71"/>
</g>
<!-- Node17&#45;&gt;Node16 -->
<g id="edge19" class="edge">
<title>Node17&#45;&gt;Node16</title>
<path fill="none" stroke="midnightblue" d="M241.39,-224.47C283,-213.94 339.18,-199.72 377.56,-190"/>
<polygon fill="midnightblue" stroke="midnightblue" points="378.57,-193.35 387.4,-187.51 376.85,-186.57 378.57,-193.35"/>
</g>
<!-- Node18 -->
<g id="node18" class="node">
<title>Node18</title>
<g id="a_node18"><a xlink:href="_write_event_receiver_8h.html" target="_top" xlink:title=" ">
<polygon fill="white" stroke="black" points="160,-168.5 160,-187.5 306,-187.5 306,-168.5 160,-168.5"/>
<text text-anchor="middle" x="233" y="-175.5" font-family="Helvetica,sans-Serif" font-size="10.00">core/WriteEventReceiver.h</text>
</a>
</g>
</g>
<!-- Node17&#45;&gt;Node18 -->
<g id="edge20" class="edge">
<title>Node17&#45;&gt;Node18</title>
<path fill="none" stroke="midnightblue" d="M197.14,-224.4C203.97,-215.75 212.74,-204.64 219.91,-195.58"/>
<polygon fill="midnightblue" stroke="midnightblue" points="222.71,-197.67 226.16,-187.66 217.22,-193.34 222.71,-197.67"/>
</g>
<!-- Node18&#45;&gt;Node7 -->
<g id="edge21" class="edge">
<title>Node18&#45;&gt;Node7</title>
<path fill="none" stroke="midnightblue" d="M269.76,-168.44C310.06,-159.06 374.81,-143.99 418.58,-133.8"/>
<polygon fill="midnightblue" stroke="midnightblue" points="419.46,-137.19 428.41,-131.52 417.88,-130.37 419.46,-137.19"/>
</g>
<!-- Node19&#45;&gt;Node17 -->
<g id="edge25" class="edge">
<title>Node19&#45;&gt;Node17</title>
<path fill="none" stroke="midnightblue" d="M186,-291.4C186,-283.64 186,-273.81 186,-264.86"/>
<polygon fill="midnightblue" stroke="midnightblue" points="189.5,-264.58 186,-254.58 182.5,-264.58 189.5,-264.58"/>
</g>
<!-- Node20 -->
<g id="node20" class="node">
<title>Node20</title>
<g id="a_node20"><a xlink:href="_socket_writer_8h.html" target="_top" xlink:title=" ">
<polygon fill="white" stroke="black" points="0,-224.5 0,-254.5 110,-254.5 110,-224.5 0,-224.5"/>
<text text-anchor="start" x="8" y="-242.5" font-family="Helvetica,sans-Serif" font-size="10.00">core/socket/stream</text>
<text text-anchor="middle" x="55" y="-231.5" font-family="Helvetica,sans-Serif" font-size="10.00">/SocketWriter.h</text>
</a>
</g>
</g>
<!-- Node19&#45;&gt;Node20 -->
<g id="edge23" class="edge">
<title>Node19&#45;&gt;Node20</title>
<path fill="none" stroke="midnightblue" d="M157.57,-291.4C138.52,-281.94 113.22,-269.39 92.52,-259.12"/>
<polygon fill="midnightblue" stroke="midnightblue" points="93.88,-255.89 83.37,-254.58 90.77,-262.16 93.88,-255.89"/>
</g>
<!-- Node20&#45;&gt;Node18 -->
<g id="edge24" class="edge">
<title>Node20&#45;&gt;Node18</title>
<path fill="none" stroke="midnightblue" d="M97.18,-224.4C127.81,-214.16 168.77,-200.47 197.67,-190.81"/>
<polygon fill="midnightblue" stroke="midnightblue" points="198.98,-194.06 207.36,-187.57 196.77,-187.42 198.98,-194.06"/>
</g>
<!-- Node21&#45;&gt;Node16 -->
<g id="edge27" class="edge">
<title>Node21&#45;&gt;Node16</title>
<path fill="none" stroke="midnightblue" d="M341.65,-224.4C358.32,-214.86 380.23,-202.32 396.81,-192.84"/>
<polygon fill="midnightblue" stroke="midnightblue" points="398.93,-195.66 405.87,-187.66 395.45,-189.59 398.93,-195.66"/>
</g>
<!-- Node21&#45;&gt;Node18 -->
<g id="edge28" class="edge">
<title>Node21&#45;&gt;Node18</title>
<path fill="none" stroke="midnightblue" d="M297.09,-224.4C284.01,-215.13 266.92,-203.03 253.68,-193.65"/>
<polygon fill="midnightblue" stroke="midnightblue" points="255.41,-190.58 245.22,-187.66 251.36,-196.29 255.41,-190.58"/>
</g>
<!-- Node23 -->
<g id="node23" class="node">
<title>Node23</title>
<g id="a_node23"><a xlink:href="core_2socket_2_client_socket_8h.html" target="_top" xlink:title=" ">
<polygon fill="white" stroke="black" points="626.5,-431 626.5,-450 771.5,-450 771.5,-431 626.5,-431"/>
<text text-anchor="middle" x="699" y="-438" font-family="Helvetica,sans-Serif" font-size="10.00">core/socket/ClientSocket.h</text>
</a>
</g>
</g>
<!-- Node22&#45;&gt;Node23 -->
<g id="edge30" class="edge">
<title>Node22&#45;&gt;Node23</title>
<path fill="none" stroke="midnightblue" d="M767.35,-497.73C754.55,-487.21 732.88,-469.38 717.37,-456.62"/>
<polygon fill="midnightblue" stroke="midnightblue" points="719.43,-453.78 709.49,-450.13 714.98,-459.18 719.43,-453.78"/>
</g>
<!-- Node24 -->
<g id="node24" class="node">
<title>Node24</title>
<g id="a_node24"><a xlink:href="net_2in6_2stream_2_socket_8h.html" target="_top" xlink:title=" ">
<polygon fill="white" stroke="black" points="790,-431 790,-450 922,-450 922,-431 790,-431"/>
<text text-anchor="middle" x="856" y="-438" font-family="Helvetica,sans-Serif" font-size="10.00">net/in6/stream/Socket.h</text>
</a>
</g>
</g>
<!-- Node22&#45;&gt;Node24 -->
<g id="edge31" class="edge">
<title>Node22&#45;&gt;Node24</title>
<path fill="none" stroke="midnightblue" d="M788.52,-497.73C801.15,-487.21 822.54,-469.38 837.86,-456.62"/>
<polygon fill="midnightblue" stroke="midnightblue" points="840.21,-459.22 845.65,-450.13 835.72,-453.84 840.21,-459.22"/>
</g>
<!-- Node25 -->
<g id="node25" class="node">
<title>Node25</title>
<g id="a_node25"><a xlink:href="core_2socket_2_socket_8h.html" target="_top" xlink:title=" ">
<polygon fill="white" stroke="black" points="712,-364 712,-383 828,-383 828,-364 712,-364"/>
<text text-anchor="middle" x="770" y="-371" font-family="Helvetica,sans-Serif" font-size="10.00">core/socket/Socket.h</text>
</a>
</g>
</g>
<!-- Node24&#45;&gt;Node25 -->
<g id="edge32" class="edge">
<title>Node24&#45;&gt;Node25</title>
<path fill="none" stroke="midnightblue" d="M844.4,-430.73C830.35,-420.11 806.45,-402.05 789.53,-389.26"/>
<polygon fill="midnightblue" stroke="midnightblue" points="791.5,-386.36 781.41,-383.13 787.28,-391.95 791.5,-386.36"/>
</g>
<!-- Node27 -->
<g id="node27" class="node">
<title>Node27</title>
<g id="a_node27"><a xlink:href="net_2in6_2_socket_address_8h.html" target="_top" xlink:title=" ">
<polygon fill="white" stroke="black" points="867,-297 867,-316 1001,-316 1001,-297 867,-297"/>
<text text-anchor="middle" x="934" y="-304" font-family="Helvetica,sans-Serif" font-size="10.00">net/in6/SocketAddress.h</text>
</a>
</g>
</g>
<!-- Node24&#45;&gt;Node27 -->
<g id="edge34" class="edge">
<title>Node24&#45;&gt;Node27</title>
<path fill="none" stroke="midnightblue" d="M856.27,-430.99C857.11,-415.41 860.59,-381.72 875,-358 883.9,-343.35 898.51,-330.8 910.97,-321.87"/>
<polygon fill="midnightblue" stroke="midnightblue" points="913.25,-324.55 919.54,-316.03 909.31,-318.76 913.25,-324.55"/>
</g>
<!-- Node26 -->
<g id="node26" class="node">
<title>Node26</title>
<g id="a_node26"><a xlink:href="_descriptor_8h.html" target="_top" xlink:title=" ">
<polygon fill="white" stroke="black" points="720,-297 720,-316 820,-316 820,-297 720,-297"/>
<text text-anchor="middle" x="770" y="-304" font-family="Helvetica,sans-Serif" font-size="10.00">core/Descriptor.h</text>
</a>
</g>
</g>
<!-- Node25&#45;&gt;Node26 -->
<g id="edge33" class="edge">
<title>Node25&#45;&gt;Node26</title>
<path fill="none" stroke="midnightblue" d="M770,-363.73C770,-354.18 770,-338.62 770,-326.28"/>
<polygon fill="midnightblue" stroke="midnightblue" points="773.5,-326.13 770,-316.13 766.5,-326.13 773.5,-326.13"/>
</g>
<!-- Node28 -->
<g id="node28" class="node">
<title>Node28</title>
<g id="a_node28"><a xlink:href="core_2socket_2_socket_address_8h.html" target="_top" xlink:title=" ">
<polygon fill="white" stroke="black" points="856.5,-230 856.5,-249 1011.5,-249 1011.5,-230 856.5,-230"/>
<text text-anchor="middle" x="934" y="-237" font-family="Helvetica,sans-Serif" font-size="10.00">core/socket/SocketAddress.h</text>
</a>
</g>
</g>
<!-- Node27&#45;&gt;Node28 -->
<g id="edge35" class="edge">
<title>Node27&#45;&gt;Node28</title>
<path fill="none" stroke="midnightblue" d="M934,-296.73C934,-287.18 934,-271.62 934,-259.28"/>
<polygon fill="midnightblue" stroke="midnightblue" points="937.5,-259.13 934,-249.13 930.5,-259.13 937.5,-259.13"/>
</g>
<!-- Node30 -->
<g id="node30" class="node">
<title>Node30</title>
<g id="a_node30"><a xlink:href="_config_tls_8h.html" target="_top" xlink:title=" ">
<polygon fill="white" stroke="black" points="1240,-431 1240,-450 1330,-450 1330,-431 1240,-431"/>
<text text-anchor="middle" x="1285" y="-438" font-family="Helvetica,sans-Serif" font-size="10.00">net/ConfigTls.h</text>
</a>
</g>
</g>
<!-- Node29&#45;&gt;Node30 -->
<g id="edge37" class="edge">
<title>Node29&#45;&gt;Node30</title>
<path fill="none" stroke="midnightblue" d="M1173.03,-492.4C1198.01,-481.04 1232.82,-465.22 1256.96,-454.24"/>
<polygon fill="midnightblue" stroke="midnightblue" points="1258.63,-457.33 1266.28,-450.01 1255.73,-450.96 1258.63,-457.33"/>
</g>
<!-- Node31 -->
<g id="node31" class="node">
<title>Node31</title>
<g id="a_node31"><a xlink:href="in6_2stream_2_client_config_8h.html" target="_top" xlink:title=" ">
<polygon fill="white" stroke="black" points="1062,-431 1062,-450 1222,-450 1222,-431 1062,-431"/>
<text text-anchor="middle" x="1142" y="-438" font-family="Helvetica,sans-Serif" font-size="10.00">net/in6/stream/ClientConfig.h</text>
</a>
</g>
</g>
<!-- Node29&#45;&gt;Node31 -->
<g id="edge38" class="edge">
<title>Node29&#45;&gt;Node31</title>
<path fill="none" stroke="midnightblue" d="M1142,-492.4C1142,-483.06 1142,-470.71 1142,-460.52"/>
<polygon fill="midnightblue" stroke="midnightblue" points="1145.5,-460.19 1142,-450.19 1138.5,-460.19 1145.5,-460.19"/>
</g>
<!-- Node32 -->
<g id="node32" class="node">
<title>Node32</title>
<g id="a_node32"><a xlink:href="_config_backlog_8h.html" target="_top" xlink:title=" ">
<polygon fill="white" stroke="black" points="1021.5,-364 1021.5,-383 1136.5,-383 1136.5,-364 1021.5,-364"/>
<text text-anchor="middle" x="1079" y="-371" font-family="Helvetica,sans-Serif" font-size="10.00">net/ConfigBacklog.h</text>
</a>
</g>
</g>
<!-- Node31&#45;&gt;Node32 -->
<g id="edge39" class="edge">
<title>Node31&#45;&gt;Node32</title>
<path fill="none" stroke="midnightblue" d="M1133.5,-430.73C1123.49,-420.4 1106.66,-403.04 1094.34,-390.33"/>
<polygon fill="midnightblue" stroke="midnightblue" points="1096.83,-387.87 1087.36,-383.13 1091.81,-392.74 1096.83,-387.87"/>
</g>
<!-- Node33 -->
<g id="node33" class="node">
<title>Node33</title>
<g id="a_node33"><a xlink:href="_config_base_8h.html" target="_top" xlink:title=" ">
<polygon fill="white" stroke="black" points="1155,-364 1155,-383 1255,-383 1255,-364 1155,-364"/>
<text text-anchor="middle" x="1205" y="-371" font-family="Helvetica,sans-Serif" font-size="10.00">net/ConfigBase.h</text>
</a>
</g>
</g>
<!-- Node31&#45;&gt;Node33 -->
<g id="edge40" class="edge">
<title>Node31&#45;&gt;Node33</title>
<path fill="none" stroke="midnightblue" d="M1150.5,-430.73C1160.51,-420.4 1177.34,-403.04 1189.66,-390.33"/>
<polygon fill="midnightblue" stroke="midnightblue" points="1192.19,-392.74 1196.64,-383.13 1187.17,-387.87 1192.19,-392.74"/>
</g>
<!-- Node34 -->
<g id="node34" class="node">
<title>Node34</title>
<g id="a_node34"><a xlink:href="_config_conn_8h.html" target="_top" xlink:title=" ">
<polygon fill="white" stroke="black" points="1273.5,-364 1273.5,-383 1374.5,-383 1374.5,-364 1273.5,-364"/>
<text text-anchor="middle" x="1324" y="-371" font-family="Helvetica,sans-Serif" font-size="10.00">net/ConfigConn.h</text>
</a>
</g>
</g>
<!-- Node31&#45;&gt;Node34 -->
<g id="edge41" class="edge">
<title>Node31&#45;&gt;Node34</title>
<path fill="none" stroke="midnightblue" d="M1166.17,-430.87C1198.08,-419.47 1254.41,-399.35 1290.44,-386.49"/>
<polygon fill="midnightblue" stroke="midnightblue" points="1291.78,-389.72 1300.02,-383.06 1289.43,-383.13 1291.78,-389.72"/>
</g>
<!-- Node35 -->
<g id="node35" class="node">
<title>Node35</title>
<g id="a_node35"><a xlink:href="in6_2_config_local_8h.html" target="_top" xlink:title=" ">
<polygon fill="white" stroke="black" points="884.5,-364 884.5,-383 1003.5,-383 1003.5,-364 884.5,-364"/>
<text text-anchor="middle" x="944" y="-371" font-family="Helvetica,sans-Serif" font-size="10.00">net/in6/ConfigLocal.h</text>
</a>
</g>
</g>
<!-- Node31&#45;&gt;Node35 -->
<g id="edge42" class="edge">
<title>Node31&#45;&gt;Node35</title>
<path fill="none" stroke="midnightblue" d="M1115.71,-430.87C1080.77,-419.4 1018.92,-399.09 979.76,-386.24"/>
<polygon fill="midnightblue" stroke="midnightblue" points="980.68,-382.86 970.09,-383.06 978.5,-389.51 980.68,-382.86"/>
</g>
<!-- Node37 -->
<g id="node37" class="node">
<title>Node37</title>
<g id="a_node37"><a xlink:href="in6_2_config_remote_8h.html" target="_top" xlink:title=" ">
<polygon fill="white" stroke="black" points="1393,-364 1393,-383 1525,-383 1525,-364 1393,-364"/>
<text text-anchor="middle" x="1459" y="-371" font-family="Helvetica,sans-Serif" font-size="10.00">net/in6/ConfigRemote.h</text>
</a>
</g>
</g>
<!-- Node31&#45;&gt;Node37 -->
<g id="edge45" class="edge">
<title>Node31&#45;&gt;Node37</title>
<path fill="none" stroke="midnightblue" d="M1183.77,-430.94C1241.34,-419.13 1345.02,-397.87 1407.38,-385.09"/>
<polygon fill="midnightblue" stroke="midnightblue" points="1408.3,-388.47 1417.39,-383.03 1406.89,-381.61 1408.3,-388.47"/>
</g>
<!-- Node35&#45;&gt;Node27 -->
<g id="edge44" class="edge">
<title>Node35&#45;&gt;Node27</title>
<path fill="none" stroke="midnightblue" d="M942.65,-363.73C941.18,-354.18 938.79,-338.62 936.89,-326.28"/>
<polygon fill="midnightblue" stroke="midnightblue" points="940.31,-325.48 935.33,-316.13 933.39,-326.54 940.31,-325.48"/>
</g>
<!-- Node36 -->
<g id="node36" class="node">
<title>Node36</title>
<g id="a_node36"><a xlink:href="_config_local_8h.html" target="_top" xlink:title=" ">
<polygon fill="white" stroke="black" points="1019.5,-297 1019.5,-316 1120.5,-316 1120.5,-297 1019.5,-297"/>
<text text-anchor="middle" x="1070" y="-304" font-family="Helvetica,sans-Serif" font-size="10.00">net/ConfigLocal.h</text>
</a>
</g>
</g>
<!-- Node35&#45;&gt;Node36 -->
<g id="edge43" class="edge">
<title>Node35&#45;&gt;Node36</title>
<path fill="none" stroke="midnightblue" d="M960.73,-363.87C982.1,-352.84 1019.3,-333.66 1044.28,-320.77"/>
<polygon fill="midnightblue" stroke="midnightblue" points="1045.92,-323.86 1053.2,-316.17 1042.71,-317.64 1045.92,-323.86"/>
</g>
<!-- Node37&#45;&gt;Node27 -->
<g id="edge47" class="edge">
<title>Node37&#45;&gt;Node27</title>
<path fill="none" stroke="midnightblue" d="M1418.64,-363.97C1407.46,-361.8 1395.29,-359.63 1384,-358 1218.73,-334.12 1175.3,-345.67 1010,-322 1001.87,-320.84 993.29,-319.4 984.93,-317.89"/>
<polygon fill="midnightblue" stroke="midnightblue" points="985.38,-314.41 974.9,-316.02 984.09,-321.29 985.38,-314.41"/>
</g>
<!-- Node38 -->
<g id="node38" class="node">
<title>Node38</title>
<g id="a_node38"><a xlink:href="_config_remote_8h.html" target="_top" xlink:title=" ">
<polygon fill="white" stroke="black" points="1402,-297 1402,-316 1516,-316 1516,-297 1402,-297"/>
<text text-anchor="middle" x="1459" y="-304" font-family="Helvetica,sans-Serif" font-size="10.00">net/ConfigRemote.h</text>
</a>
</g>
</g>
<!-- Node37&#45;&gt;Node38 -->
<g id="edge46" class="edge">
<title>Node37&#45;&gt;Node38</title>
<path fill="none" stroke="midnightblue" d="M1459,-363.73C1459,-354.18 1459,-338.62 1459,-326.28"/>
<polygon fill="midnightblue" stroke="midnightblue" points="1462.5,-326.13 1459,-316.13 1455.5,-326.13 1462.5,-326.13"/>
</g>
</g>
</svg>
