<?xml version="1.0" encoding="UTF-8" standalone="no"?>
<!DOCTYPE svg PUBLIC "-//W3C//DTD SVG 1.1//EN"
 "http://www.w3.org/Graphics/SVG/1.1/DTD/svg11.dtd">
<!-- Generated by graphviz version 2.43.0 (0)
 -->
<!-- Title: net/in6/stream/legacy/SocketClient.h Pages: 1 -->
<svg width="1702pt" height="620pt"
 viewBox="0.00 0.00 1702.00 620.00" xmlns="http://www.w3.org/2000/svg" xmlns:xlink="http://www.w3.org/1999/xlink">
<g id="graph0" class="graph" transform="scale(1 1) rotate(0) translate(4 616)">
<title>net/in6/stream/legacy/SocketClient.h</title>
<polygon fill="white" stroke="transparent" points="-4,4 -4,-616 1698,-616 1698,4 -4,4"/>
<!-- Node1 -->
<g id="node1" class="node">
<title>Node1</title>
<g id="a_node1"><a xlink:title=" ">
<polygon fill="#bfbfbf" stroke="black" points="813,-581.5 813,-611.5 936,-611.5 936,-581.5 813,-581.5"/>
<text text-anchor="start" x="821" y="-599.5" font-family="Helvetica,sans-Serif" font-size="10.00">net/in6/stream/legacy</text>
<text text-anchor="middle" x="874.5" y="-588.5" font-family="Helvetica,sans-Serif" font-size="10.00">/SocketClient.h</text>
</a>
</g>
</g>
<!-- Node2 -->
<g id="node2" class="node">
<title>Node2</title>
<g id="a_node2"><a xlink:href="core_2socket_2stream_2legacy_2_socket_client_8h.html" target="_top" xlink:title=" ">
<polygon fill="white" stroke="black" points="527,-514.5 527,-544.5 652,-544.5 652,-514.5 527,-514.5"/>
<text text-anchor="start" x="535" y="-532.5" font-family="Helvetica,sans-Serif" font-size="10.00">core/socket/stream</text>
<text text-anchor="middle" x="589.5" y="-521.5" font-family="Helvetica,sans-Serif" font-size="10.00">/legacy/SocketClient.h</text>
</a>
</g>
</g>
<!-- Node1&#45;&gt;Node2 -->
<g id="edge1" class="edge">
<title>Node1&#45;&gt;Node2</title>
<path fill="none" stroke="midnightblue" d="M813.01,-581.48C768.4,-571.3 707.93,-557.51 661.14,-546.84"/>
<polygon fill="midnightblue" stroke="midnightblue" points="661.9,-543.42 651.37,-544.61 660.34,-550.25 661.9,-543.42"/>
</g>
<!-- Node23 -->
<g id="node23" class="node">
<title>Node23</title>
<g id="a_node23"><a xlink:href="net_2in6_2stream_2_socket_client_8h.html" target="_top" xlink:title=" ">
<polygon fill="white" stroke="black" points="794,-520 794,-539 955,-539 955,-520 794,-520"/>
<text text-anchor="middle" x="874.5" y="-527" font-family="Helvetica,sans-Serif" font-size="10.00">net/in6/stream/SocketClient.h</text>
</a>
</g>
</g>
<!-- Node1&#45;&gt;Node23 -->
<g id="edge25" class="edge">
<title>Node1&#45;&gt;Node23</title>
<path fill="none" stroke="midnightblue" d="M874.5,-581.4C874.5,-572.06 874.5,-559.71 874.5,-549.52"/>
<polygon fill="midnightblue" stroke="midnightblue" points="878,-549.19 874.5,-539.19 871,-549.19 878,-549.19"/>
</g>
<!-- Node32 -->
<g id="node32" class="node">
<title>Node32</title>
<g id="a_node32"><a xlink:href="in6_2stream_2legacy_2config_2_config_socket_client_8h.html" target="_top" xlink:title=" ">
<polygon fill="white" stroke="black" points="1051.5,-514.5 1051.5,-544.5 1205.5,-544.5 1205.5,-514.5 1051.5,-514.5"/>
<text text-anchor="start" x="1059.5" y="-532.5" font-family="Helvetica,sans-Serif" font-size="10.00">net/in6/stream/legacy</text>
<text text-anchor="middle" x="1128.5" y="-521.5" font-family="Helvetica,sans-Serif" font-size="10.00">/config/ConfigSocketClient.h</text>
</a>
</g>
</g>
<!-- Node1&#45;&gt;Node32 -->
<g id="edge35" class="edge">
<title>Node1&#45;&gt;Node32</title>
<path fill="none" stroke="midnightblue" d="M929.3,-581.48C968.73,-571.39 1022.05,-557.74 1063.6,-547.11"/>
<polygon fill="midnightblue" stroke="midnightblue" points="1064.54,-550.48 1073.36,-544.61 1062.8,-543.7 1064.54,-550.48"/>
</g>
<!-- Node3 -->
<g id="node3" class="node">
<title>Node3</title>
<g id="a_node3"><a xlink:href="core_2socket_2stream_2_socket_client_8h.html" target="_top" xlink:title=" ">
<polygon fill="white" stroke="black" points="388.5,-447.5 388.5,-477.5 498.5,-477.5 498.5,-447.5 388.5,-447.5"/>
<text text-anchor="start" x="396.5" y="-465.5" font-family="Helvetica,sans-Serif" font-size="10.00">core/socket/stream</text>
<text text-anchor="middle" x="443.5" y="-454.5" font-family="Helvetica,sans-Serif" font-size="10.00">/SocketClient.h</text>
</a>
</g>
</g>
<!-- Node2&#45;&gt;Node3 -->
<g id="edge2" class="edge">
<title>Node2&#45;&gt;Node3</title>
<path fill="none" stroke="midnightblue" d="M557.82,-514.4C536.3,-504.81 507.63,-492.05 484.38,-481.7"/>
<polygon fill="midnightblue" stroke="midnightblue" points="485.68,-478.45 475.12,-477.58 482.83,-484.84 485.68,-478.45"/>
</g>
<!-- Node4 -->
<g id="node4" class="node">
<title>Node4</title>
<g id="a_node4"><a xlink:href="legacy_2_socket_connector_8h.html" target="_top" xlink:title=" ">
<polygon fill="white" stroke="black" points="516.5,-447.5 516.5,-477.5 662.5,-477.5 662.5,-447.5 516.5,-447.5"/>
<text text-anchor="start" x="524.5" y="-465.5" font-family="Helvetica,sans-Serif" font-size="10.00">core/socket/stream</text>
<text text-anchor="middle" x="589.5" y="-454.5" font-family="Helvetica,sans-Serif" font-size="10.00">/legacy/SocketConnector.h</text>
</a>
</g>
</g>
<!-- Node2&#45;&gt;Node4 -->
<g id="edge3" class="edge">
<title>Node2&#45;&gt;Node4</title>
<path fill="none" stroke="midnightblue" d="M589.5,-514.4C589.5,-506.64 589.5,-496.81 589.5,-487.86"/>
<polygon fill="midnightblue" stroke="midnightblue" points="593,-487.58 589.5,-477.58 586,-487.58 593,-487.58"/>
</g>
<!-- Node5 -->
<g id="node5" class="node">
<title>Node5</title>
<g id="a_node5"><a xlink:href="_socket_connector_8h.html" target="_top" xlink:title=" ">
<polygon fill="white" stroke="black" points="534.5,-380.5 534.5,-410.5 644.5,-410.5 644.5,-380.5 534.5,-380.5"/>
<text text-anchor="start" x="542.5" y="-398.5" font-family="Helvetica,sans-Serif" font-size="10.00">core/socket/stream</text>
<text text-anchor="middle" x="589.5" y="-387.5" font-family="Helvetica,sans-Serif" font-size="10.00">/SocketConnector.h</text>
</a>
</g>
</g>
<!-- Node4&#45;&gt;Node5 -->
<g id="edge4" class="edge">
<title>Node4&#45;&gt;Node5</title>
<path fill="none" stroke="midnightblue" d="M589.5,-447.4C589.5,-439.64 589.5,-429.81 589.5,-420.86"/>
<polygon fill="midnightblue" stroke="midnightblue" points="593,-420.58 589.5,-410.58 586,-420.58 593,-420.58"/>
</g>
<!-- Node14 -->
<g id="node14" class="node">
<title>Node14</title>
<g id="a_node14"><a xlink:href="stream_2legacy_2_socket_connection_8h.html" target="_top" xlink:title=" ">
<polygon fill="white" stroke="black" points="293,-380.5 293,-410.5 444,-410.5 444,-380.5 293,-380.5"/>
<text text-anchor="start" x="301" y="-398.5" font-family="Helvetica,sans-Serif" font-size="10.00">core/socket/stream</text>
<text text-anchor="middle" x="368.5" y="-387.5" font-family="Helvetica,sans-Serif" font-size="10.00">/legacy/SocketConnection.h</text>
</a>
</g>
</g>
<!-- Node4&#45;&gt;Node14 -->
<g id="edge14" class="edge">
<title>Node4&#45;&gt;Node14</title>
<path fill="none" stroke="midnightblue" d="M541.82,-447.48C507.95,-437.51 462.29,-424.09 426.34,-413.51"/>
<polygon fill="midnightblue" stroke="midnightblue" points="427.06,-410.07 416.48,-410.61 425.08,-416.79 427.06,-410.07"/>
</g>
<!-- Node6 -->
<g id="node6" class="node">
<title>Node6</title>
<g id="a_node6"><a xlink:href="_connect_event_receiver_8h.html" target="_top" xlink:title=" ">
<polygon fill="white" stroke="black" points="468,-179.5 468,-209.5 607,-209.5 607,-179.5 468,-179.5"/>
<text text-anchor="start" x="476" y="-197.5" font-family="Helvetica,sans-Serif" font-size="10.00">core/eventreceiver</text>
<text text-anchor="middle" x="537.5" y="-186.5" font-family="Helvetica,sans-Serif" font-size="10.00">/ConnectEventReceiver.h</text>
</a>
</g>
</g>
<!-- Node5&#45;&gt;Node6 -->
<g id="edge5" class="edge">
<title>Node5&#45;&gt;Node6</title>
<path fill="none" stroke="midnightblue" d="M585.76,-380.19C576.93,-346.41 554.73,-261.44 543.79,-219.57"/>
<polygon fill="midnightblue" stroke="midnightblue" points="547.12,-218.47 541.21,-209.68 540.35,-220.24 547.12,-218.47"/>
</g>
<!-- Node10 -->
<g id="node10" class="node">
<title>Node10</title>
<g id="a_node10"><a xlink:href="_init_connect_event_receiver_8h.html" target="_top" xlink:title=" ">
<polygon fill="white" stroke="black" points="541,-112.5 541,-142.5 696,-142.5 696,-112.5 541,-112.5"/>
<text text-anchor="start" x="549" y="-130.5" font-family="Helvetica,sans-Serif" font-size="10.00">core/eventreceiver</text>
<text text-anchor="middle" x="618.5" y="-119.5" font-family="Helvetica,sans-Serif" font-size="10.00">/InitConnectEventReceiver.h</text>
</a>
</g>
</g>
<!-- Node5&#45;&gt;Node10 -->
<g id="edge9" class="edge">
<title>Node5&#45;&gt;Node10</title>
<path fill="none" stroke="midnightblue" d="M592.03,-380.2C597.38,-349.28 609.85,-273.8 615.5,-210 617.2,-190.86 617.94,-169.12 618.26,-152.9"/>
<polygon fill="midnightblue" stroke="midnightblue" points="621.76,-152.72 618.42,-142.66 614.76,-152.61 621.76,-152.72"/>
</g>
<!-- Node11 -->
<g id="node11" class="node">
<title>Node11</title>
<g id="a_node11"><a xlink:href="_socket_connection_factory_8h.html" target="_top" xlink:title=" ">
<polygon fill="white" stroke="black" points="663.5,-313.5 663.5,-343.5 813.5,-343.5 813.5,-313.5 663.5,-313.5"/>
<text text-anchor="start" x="671.5" y="-331.5" font-family="Helvetica,sans-Serif" font-size="10.00">core/socket/stream</text>
<text text-anchor="middle" x="738.5" y="-320.5" font-family="Helvetica,sans-Serif" font-size="10.00">/SocketConnectionFactory.h</text>
</a>
</g>
</g>
<!-- Node5&#45;&gt;Node11 -->
<g id="edge11" class="edge">
<title>Node5&#45;&gt;Node11</title>
<path fill="none" stroke="midnightblue" d="M621.83,-380.4C643.8,-370.81 673.06,-358.05 696.78,-347.7"/>
<polygon fill="midnightblue" stroke="midnightblue" points="698.47,-350.78 706.23,-343.58 695.67,-344.37 698.47,-350.78"/>
</g>
<!-- Node7 -->
<g id="node7" class="node">
<title>Node7</title>
<g id="a_node7"><a xlink:href="_descriptor_event_receiver_8h.html" target="_top" xlink:title=" ">
<polygon fill="white" stroke="black" points="335.5,-118 335.5,-137 505.5,-137 505.5,-118 335.5,-118"/>
<text text-anchor="middle" x="420.5" y="-125" font-family="Helvetica,sans-Serif" font-size="10.00">core/DescriptorEventReceiver.h</text>
</a>
</g>
</g>
<!-- Node6&#45;&gt;Node7 -->
<g id="edge6" class="edge">
<title>Node6&#45;&gt;Node7</title>
<path fill="none" stroke="midnightblue" d="M512.11,-179.4C492.13,-168.29 464.46,-152.92 444.77,-141.98"/>
<polygon fill="midnightblue" stroke="midnightblue" points="446.25,-138.8 435.81,-137.01 442.85,-144.92 446.25,-138.8"/>
</g>
<!-- Node8 -->
<g id="node8" class="node">
<title>Node8</title>
<g id="a_node8"><a xlink:href="_event_receiver_8h.html" target="_top" xlink:title=" ">
<polygon fill="white" stroke="black" points="462.5,-56.5 462.5,-75.5 558.5,-75.5 558.5,-56.5 462.5,-56.5"/>
<text text-anchor="middle" x="510.5" y="-63.5" font-family="Helvetica,sans-Serif" font-size="10.00">EventReceiver.h</text>
</a>
</g>
</g>
<!-- Node7&#45;&gt;Node8 -->
<g id="edge7" class="edge">
<title>Node7&#45;&gt;Node8</title>
<path fill="none" stroke="midnightblue" d="M433.39,-117.98C447.96,-108.34 471.9,-92.52 489.25,-81.05"/>
<polygon fill="midnightblue" stroke="midnightblue" points="491.22,-83.94 497.63,-75.51 487.36,-78.1 491.22,-83.94"/>
</g>
<!-- Node9 -->
<g id="node9" class="node">
<title>Node9</title>
<g id="a_node9"><a xlink:href="_event_8h.html" target="_top" xlink:title=" ">
<polygon fill="white" stroke="black" points="472,-0.5 472,-19.5 549,-19.5 549,-0.5 472,-0.5"/>
<text text-anchor="middle" x="510.5" y="-7.5" font-family="Helvetica,sans-Serif" font-size="10.00">core/Event.h</text>
</a>
</g>
</g>
<!-- Node8&#45;&gt;Node9 -->
<g id="edge8" class="edge">
<title>Node8&#45;&gt;Node9</title>
<path fill="none" stroke="midnightblue" d="M510.5,-56.08C510.5,-49.01 510.5,-38.86 510.5,-29.99"/>
<polygon fill="midnightblue" stroke="midnightblue" points="514,-29.75 510.5,-19.75 507,-29.75 514,-29.75"/>
</g>
<!-- Node10&#45;&gt;Node8 -->
<g id="edge10" class="edge">
<title>Node10&#45;&gt;Node8</title>
<path fill="none" stroke="midnightblue" d="M592.91,-112.4C575.43,-102.77 552.41,-90.09 535.14,-80.58"/>
<polygon fill="midnightblue" stroke="midnightblue" points="536.66,-77.42 526.21,-75.66 533.28,-83.55 536.66,-77.42"/>
</g>
<!-- Node12 -->
<g id="node12" class="node">
<title>Node12</title>
<g id="a_node12"><a xlink:href="net_2socket_8h.html" target="_top" xlink:title=" ">
<polygon fill="white" stroke="black" points="707,-252 707,-271 784,-271 784,-252 707,-252"/>
<text text-anchor="middle" x="745.5" y="-259" font-family="Helvetica,sans-Serif" font-size="10.00">net/Socket.h</text>
</a>
</g>
</g>
<!-- Node11&#45;&gt;Node12 -->
<g id="edge12" class="edge">
<title>Node11&#45;&gt;Node12</title>
<path fill="none" stroke="midnightblue" d="M740.02,-313.4C741.03,-303.96 742.38,-291.45 743.49,-281.19"/>
<polygon fill="midnightblue" stroke="midnightblue" points="746.97,-281.51 744.56,-271.19 740.01,-280.76 746.97,-281.51"/>
</g>
<!-- Node13 -->
<g id="node13" class="node">
<title>Node13</title>
<g id="a_node13"><a xlink:href="_descriptor_8h.html" target="_top" xlink:title=" ">
<polygon fill="white" stroke="black" points="695.5,-185 695.5,-204 795.5,-204 795.5,-185 695.5,-185"/>
<text text-anchor="middle" x="745.5" y="-192" font-family="Helvetica,sans-Serif" font-size="10.00">core/Descriptor.h</text>
</a>
</g>
</g>
<!-- Node12&#45;&gt;Node13 -->
<g id="edge13" class="edge">
<title>Node12&#45;&gt;Node13</title>
<path fill="none" stroke="midnightblue" d="M745.5,-251.73C745.5,-242.18 745.5,-226.62 745.5,-214.28"/>
<polygon fill="midnightblue" stroke="midnightblue" points="749,-214.13 745.5,-204.13 742,-214.13 749,-214.13"/>
</g>
<!-- Node15 -->
<g id="node15" class="node">
<title>Node15</title>
<g id="a_node15"><a xlink:href="stream_2_socket_connection_8h.html" target="_top" xlink:title=" ">
<polygon fill="white" stroke="black" points="35.5,-313.5 35.5,-343.5 151.5,-343.5 151.5,-313.5 35.5,-313.5"/>
<text text-anchor="start" x="43.5" y="-331.5" font-family="Helvetica,sans-Serif" font-size="10.00">core/socket/stream</text>
<text text-anchor="middle" x="93.5" y="-320.5" font-family="Helvetica,sans-Serif" font-size="10.00">/SocketConnection.h</text>
</a>
</g>
</g>
<!-- Node14&#45;&gt;Node15 -->
<g id="edge15" class="edge">
<title>Node14&#45;&gt;Node15</title>
<path fill="none" stroke="midnightblue" d="M309.17,-380.48C265.77,-370.22 206.82,-356.29 161.52,-345.58"/>
<polygon fill="midnightblue" stroke="midnightblue" points="162.32,-342.17 151.78,-343.28 160.71,-348.98 162.32,-342.17"/>
</g>
<!-- Node17 -->
<g id="node17" class="node">
<title>Node17</title>
<g id="a_node17"><a xlink:href="legacy_2_socket_reader_8h.html" target="_top" xlink:title=" ">
<polygon fill="white" stroke="black" points="178,-313.5 178,-343.5 309,-343.5 309,-313.5 178,-313.5"/>
<text text-anchor="start" x="186" y="-331.5" font-family="Helvetica,sans-Serif" font-size="10.00">core/socket/stream</text>
<text text-anchor="middle" x="243.5" y="-320.5" font-family="Helvetica,sans-Serif" font-size="10.00">/legacy/SocketReader.h</text>
</a>
</g>
</g>
<!-- Node14&#45;&gt;Node17 -->
<g id="edge17" class="edge">
<title>Node14&#45;&gt;Node17</title>
<path fill="none" stroke="midnightblue" d="M341.38,-380.4C323.28,-370.98 299.27,-358.5 279.57,-348.26"/>
<polygon fill="midnightblue" stroke="midnightblue" points="281.06,-345.08 270.57,-343.58 277.83,-351.3 281.06,-345.08"/>
</g>
<!-- Node20 -->
<g id="node20" class="node">
<title>Node20</title>
<g id="a_node20"><a xlink:href="legacy_2_socket_writer_8h.html" target="_top" xlink:title=" ">
<polygon fill="white" stroke="black" points="327.5,-313.5 327.5,-343.5 453.5,-343.5 453.5,-313.5 327.5,-313.5"/>
<text text-anchor="start" x="335.5" y="-331.5" font-family="Helvetica,sans-Serif" font-size="10.00">core/socket/stream</text>
<text text-anchor="middle" x="390.5" y="-320.5" font-family="Helvetica,sans-Serif" font-size="10.00">/legacy/SocketWriter.h</text>
</a>
</g>
</g>
<!-- Node14&#45;&gt;Node20 -->
<g id="edge21" class="edge">
<title>Node14&#45;&gt;Node20</title>
<path fill="none" stroke="midnightblue" d="M373.27,-380.4C375.95,-372.47 379.37,-362.38 382.45,-353.27"/>
<polygon fill="midnightblue" stroke="midnightblue" points="385.84,-354.17 385.74,-343.58 379.21,-351.93 385.84,-354.17"/>
</g>
<!-- Node16 -->
<g id="node16" class="node">
<title>Node16</title>
<g id="a_node16"><a xlink:href="_socket_connection_8h.html" target="_top" xlink:title=" ">
<polygon fill="white" stroke="black" points="0,-252 0,-271 171,-271 171,-252 0,-252"/>
<text text-anchor="middle" x="85.5" y="-259" font-family="Helvetica,sans-Serif" font-size="10.00">core/socket/SocketConnection.h</text>
</a>
</g>
</g>
<!-- Node15&#45;&gt;Node16 -->
<g id="edge16" class="edge">
<title>Node15&#45;&gt;Node16</title>
<path fill="none" stroke="midnightblue" d="M91.76,-313.4C90.6,-303.96 89.06,-291.45 87.8,-281.19"/>
<polygon fill="midnightblue" stroke="midnightblue" points="91.27,-280.69 86.57,-271.19 84.32,-281.55 91.27,-280.69"/>
</g>
<!-- Node18 -->
<g id="node18" class="node">
<title>Node18</title>
<g id="a_node18"><a xlink:href="_socket_reader_8h.html" target="_top" xlink:title=" ">
<polygon fill="white" stroke="black" points="189.5,-246.5 189.5,-276.5 299.5,-276.5 299.5,-246.5 189.5,-246.5"/>
<text text-anchor="start" x="197.5" y="-264.5" font-family="Helvetica,sans-Serif" font-size="10.00">core/socket/stream</text>
<text text-anchor="middle" x="244.5" y="-253.5" font-family="Helvetica,sans-Serif" font-size="10.00">/SocketReader.h</text>
</a>
</g>
</g>
<!-- Node17&#45;&gt;Node18 -->
<g id="edge18" class="edge">
<title>Node17&#45;&gt;Node18</title>
<path fill="none" stroke="midnightblue" d="M243.72,-313.4C243.84,-305.64 243.99,-295.81 244.13,-286.86"/>
<polygon fill="midnightblue" stroke="midnightblue" points="247.63,-286.63 244.28,-276.58 240.63,-286.52 247.63,-286.63"/>
</g>
<!-- Node19 -->
<g id="node19" class="node">
<title>Node19</title>
<g id="a_node19"><a xlink:href="_read_event_receiver_8h.html" target="_top" xlink:title=" ">
<polygon fill="white" stroke="black" points="182.5,-179.5 182.5,-209.5 306.5,-209.5 306.5,-179.5 182.5,-179.5"/>
<text text-anchor="start" x="190.5" y="-197.5" font-family="Helvetica,sans-Serif" font-size="10.00">core/eventreceiver</text>
<text text-anchor="middle" x="244.5" y="-186.5" font-family="Helvetica,sans-Serif" font-size="10.00">/ReadEventReceiver.h</text>
</a>
</g>
</g>
<!-- Node18&#45;&gt;Node19 -->
<g id="edge19" class="edge">
<title>Node18&#45;&gt;Node19</title>
<path fill="none" stroke="midnightblue" d="M244.5,-246.4C244.5,-238.64 244.5,-228.81 244.5,-219.86"/>
<polygon fill="midnightblue" stroke="midnightblue" points="248,-219.58 244.5,-209.58 241,-219.58 248,-219.58"/>
</g>
<!-- Node19&#45;&gt;Node7 -->
<g id="edge20" class="edge">
<title>Node19&#45;&gt;Node7</title>
<path fill="none" stroke="midnightblue" d="M282.69,-179.4C314.12,-167.79 358.18,-151.51 387.96,-140.52"/>
<polygon fill="midnightblue" stroke="midnightblue" points="389.3,-143.75 397.47,-137.01 386.87,-137.19 389.3,-143.75"/>
</g>
<!-- Node21 -->
<g id="node21" class="node">
<title>Node21</title>
<g id="a_node21"><a xlink:href="_socket_writer_8h.html" target="_top" xlink:title=" ">
<polygon fill="white" stroke="black" points="334.5,-246.5 334.5,-276.5 444.5,-276.5 444.5,-246.5 334.5,-246.5"/>
<text text-anchor="start" x="342.5" y="-264.5" font-family="Helvetica,sans-Serif" font-size="10.00">core/socket/stream</text>
<text text-anchor="middle" x="389.5" y="-253.5" font-family="Helvetica,sans-Serif" font-size="10.00">/SocketWriter.h</text>
</a>
</g>
</g>
<!-- Node20&#45;&gt;Node21 -->
<g id="edge22" class="edge">
<title>Node20&#45;&gt;Node21</title>
<path fill="none" stroke="midnightblue" d="M390.28,-313.4C390.16,-305.64 390.01,-295.81 389.87,-286.86"/>
<polygon fill="midnightblue" stroke="midnightblue" points="393.37,-286.52 389.72,-276.58 386.37,-286.63 393.37,-286.52"/>
</g>
<!-- Node22 -->
<g id="node22" class="node">
<title>Node22</title>
<g id="a_node22"><a xlink:href="_write_event_receiver_8h.html" target="_top" xlink:title=" ">
<polygon fill="white" stroke="black" points="325,-179.5 325,-209.5 450,-209.5 450,-179.5 325,-179.5"/>
<text text-anchor="start" x="333" y="-197.5" font-family="Helvetica,sans-Serif" font-size="10.00">core/eventreceiver</text>
<text text-anchor="middle" x="387.5" y="-186.5" font-family="Helvetica,sans-Serif" font-size="10.00">/WriteEventReceiver.h</text>
</a>
</g>
</g>
<!-- Node21&#45;&gt;Node22 -->
<g id="edge23" class="edge">
<title>Node21&#45;&gt;Node22</title>
<path fill="none" stroke="midnightblue" d="M389.07,-246.4C388.83,-238.64 388.52,-228.81 388.25,-219.86"/>
<polygon fill="midnightblue" stroke="midnightblue" points="391.74,-219.46 387.93,-209.58 384.74,-219.68 391.74,-219.46"/>
</g>
<!-- Node22&#45;&gt;Node7 -->
<g id="edge24" class="edge">
<title>Node22&#45;&gt;Node7</title>
<path fill="none" stroke="midnightblue" d="M394.66,-179.4C399.6,-169.66 406.21,-156.65 411.51,-146.21"/>
<polygon fill="midnightblue" stroke="midnightblue" points="414.68,-147.7 416.09,-137.19 408.44,-144.53 414.68,-147.7"/>
</g>
<!-- Node24 -->
<g id="node24" class="node">
<title>Node24</title>
<g id="a_node24"><a xlink:href="in6_2stream_2_client_socket_8h.html" target="_top" xlink:title=" ">
<polygon fill="white" stroke="black" points="717,-453 717,-472 878,-472 878,-453 717,-453"/>
<text text-anchor="middle" x="797.5" y="-460" font-family="Helvetica,sans-Serif" font-size="10.00">net/in6/stream/ClientSocket.h</text>
</a>
</g>
</g>
<!-- Node23&#45;&gt;Node24 -->
<g id="edge26" class="edge">
<title>Node23&#45;&gt;Node24</title>
<path fill="none" stroke="midnightblue" d="M864.12,-519.73C851.65,-509.21 830.53,-491.38 815.41,-478.62"/>
<polygon fill="midnightblue" stroke="midnightblue" points="817.62,-475.9 807.72,-472.13 813.1,-481.25 817.62,-475.9"/>
</g>
<!-- Node30 -->
<g id="node30" class="node">
<title>Node30</title>
<g id="a_node30"><a xlink:href="net_2stream_2_socket_client_8h.html" target="_top" xlink:title=" ">
<polygon fill="white" stroke="black" points="896,-453 896,-472 1039,-472 1039,-453 896,-453"/>
<text text-anchor="middle" x="967.5" y="-460" font-family="Helvetica,sans-Serif" font-size="10.00">net/stream/SocketClient.h</text>
</a>
</g>
</g>
<!-- Node23&#45;&gt;Node30 -->
<g id="edge33" class="edge">
<title>Node23&#45;&gt;Node30</title>
<path fill="none" stroke="midnightblue" d="M887.04,-519.73C902.38,-509.01 928.56,-490.72 946.88,-477.91"/>
<polygon fill="midnightblue" stroke="midnightblue" points="948.96,-480.72 955.16,-472.13 944.95,-474.99 948.96,-480.72"/>
</g>
<!-- Node25 -->
<g id="node25" class="node">
<title>Node25</title>
<g id="a_node25"><a xlink:href="net_2in6_2stream_2socket_8h.html" target="_top" xlink:title=" ">
<polygon fill="white" stroke="black" points="662.5,-386 662.5,-405 794.5,-405 794.5,-386 662.5,-386"/>
<text text-anchor="middle" x="728.5" y="-393" font-family="Helvetica,sans-Serif" font-size="10.00">net/in6/stream/Socket.h</text>
</a>
</g>
</g>
<!-- Node24&#45;&gt;Node25 -->
<g id="edge27" class="edge">
<title>Node24&#45;&gt;Node25</title>
<path fill="none" stroke="midnightblue" d="M788.19,-452.73C777.23,-442.4 758.79,-425.04 745.31,-412.33"/>
<polygon fill="midnightblue" stroke="midnightblue" points="747.34,-409.44 737.66,-405.13 742.54,-414.53 747.34,-409.44"/>
</g>
<!-- Node29 -->
<g id="node29" class="node">
<title>Node29</title>
<g id="a_node29"><a xlink:href="stream_2_client_socket_8h.html" target="_top" xlink:title=" ">
<polygon fill="white" stroke="black" points="813,-386 813,-405 956,-405 956,-386 813,-386"/>
<text text-anchor="middle" x="884.5" y="-393" font-family="Helvetica,sans-Serif" font-size="10.00">net/stream/ClientSocket.h</text>
</a>
</g>
</g>
<!-- Node24&#45;&gt;Node29 -->
<g id="edge32" class="edge">
<title>Node24&#45;&gt;Node29</title>
<path fill="none" stroke="midnightblue" d="M809.23,-452.73C823.45,-442.11 847.63,-424.05 864.74,-411.26"/>
<polygon fill="midnightblue" stroke="midnightblue" points="867.04,-413.92 872.95,-405.13 862.85,-408.31 867.04,-413.92"/>
</g>
<!-- Node26 -->
<g id="node26" class="node">
<title>Node26</title>
<g id="a_node26"><a xlink:href="net_2in6_2socket_8h.html" target="_top" xlink:title=" ">
<polygon fill="white" stroke="black" points="832,-319 832,-338 927,-338 927,-319 832,-319"/>
<text text-anchor="middle" x="879.5" y="-326" font-family="Helvetica,sans-Serif" font-size="10.00">net/in6/Socket.h</text>
</a>
</g>
</g>
<!-- Node25&#45;&gt;Node26 -->
<g id="edge28" class="edge">
<title>Node25&#45;&gt;Node26</title>
<path fill="none" stroke="midnightblue" d="M748.55,-385.87C774.5,-374.7 819.92,-355.15 849.86,-342.26"/>
<polygon fill="midnightblue" stroke="midnightblue" points="851.56,-345.34 859.37,-338.17 848.8,-338.91 851.56,-345.34"/>
</g>
<!-- Node26&#45;&gt;Node12 -->
<g id="edge29" class="edge">
<title>Node26&#45;&gt;Node12</title>
<path fill="none" stroke="midnightblue" d="M861.71,-318.87C838.88,-307.8 799.07,-288.49 772.5,-275.6"/>
<polygon fill="midnightblue" stroke="midnightblue" points="773.89,-272.38 763.37,-271.17 770.84,-278.68 773.89,-272.38"/>
</g>
<!-- Node27 -->
<g id="node27" class="node">
<title>Node27</title>
<g id="a_node27"><a xlink:href="in6_2_socket_address_8h.html" target="_top" xlink:title=" ">
<polygon fill="white" stroke="black" points="962.5,-252 962.5,-271 1096.5,-271 1096.5,-252 962.5,-252"/>
<text text-anchor="middle" x="1029.5" y="-259" font-family="Helvetica,sans-Serif" font-size="10.00">net/in6/SocketAddress.h</text>
</a>
</g>
</g>
<!-- Node26&#45;&gt;Node27 -->
<g id="edge30" class="edge">
<title>Node26&#45;&gt;Node27</title>
<path fill="none" stroke="midnightblue" d="M899.42,-318.87C925.19,-307.7 970.32,-288.15 1000.05,-275.26"/>
<polygon fill="midnightblue" stroke="midnightblue" points="1001.71,-278.35 1009.5,-271.17 998.93,-271.93 1001.71,-278.35"/>
</g>
<!-- Node28 -->
<g id="node28" class="node">
<title>Node28</title>
<g id="a_node28"><a xlink:href="_socket_address_8h.html" target="_top" xlink:title=" ">
<polygon fill="white" stroke="black" points="971.5,-185 971.5,-204 1087.5,-204 1087.5,-185 971.5,-185"/>
<text text-anchor="middle" x="1029.5" y="-192" font-family="Helvetica,sans-Serif" font-size="10.00">net/SocketAddress.h</text>
</a>
</g>
</g>
<!-- Node27&#45;&gt;Node28 -->
<g id="edge31" class="edge">
<title>Node27&#45;&gt;Node28</title>
<path fill="none" stroke="midnightblue" d="M1029.5,-251.73C1029.5,-242.18 1029.5,-226.62 1029.5,-214.28"/>
<polygon fill="midnightblue" stroke="midnightblue" points="1033,-214.13 1029.5,-204.13 1026,-214.13 1033,-214.13"/>
</g>
<!-- Node31 -->
<g id="node31" class="node">
<title>Node31</title>
<g id="a_node31"><a xlink:href="_socket_config_8h.html" target="_top" xlink:title=" ">
<polygon fill="white" stroke="black" points="974.5,-386 974.5,-405 1082.5,-405 1082.5,-386 974.5,-386"/>
<text text-anchor="middle" x="1028.5" y="-393" font-family="Helvetica,sans-Serif" font-size="10.00">net/SocketConfig.h</text>
</a>
</g>
</g>
<!-- Node30&#45;&gt;Node31 -->
<g id="edge34" class="edge">
<title>Node30&#45;&gt;Node31</title>
<path fill="none" stroke="midnightblue" d="M975.73,-452.73C985.33,-442.5 1001.41,-425.36 1013.3,-412.69"/>
<polygon fill="midnightblue" stroke="midnightblue" points="1016.11,-414.81 1020.4,-405.13 1011.01,-410.02 1016.11,-414.81"/>
</g>
<!-- Node33 -->
<g id="node33" class="node">
<title>Node33</title>
<g id="a_node33"><a xlink:href="_config_legacy_8h.html" target="_top" xlink:title=" ">
<polygon fill="white" stroke="black" points="1057.5,-453 1057.5,-472 1199.5,-472 1199.5,-453 1057.5,-453"/>
<text text-anchor="middle" x="1128.5" y="-460" font-family="Helvetica,sans-Serif" font-size="10.00">net/config/ConfigLegacy.h</text>
</a>
</g>
</g>
<!-- Node32&#45;&gt;Node33 -->
<g id="edge36" class="edge">
<title>Node32&#45;&gt;Node33</title>
<path fill="none" stroke="midnightblue" d="M1128.5,-514.4C1128.5,-505.06 1128.5,-492.71 1128.5,-482.52"/>
<polygon fill="midnightblue" stroke="midnightblue" points="1132,-482.19 1128.5,-472.19 1125,-482.19 1132,-482.19"/>
</g>
<!-- Node35 -->
<g id="node35" class="node">
<title>Node35</title>
<g id="a_node35"><a xlink:href="in6_2stream_2config_2_config_socket_client_8h.html" target="_top" xlink:title=" ">
<polygon fill="white" stroke="black" points="1237,-447.5 1237,-477.5 1358,-477.5 1358,-447.5 1237,-447.5"/>
<text text-anchor="start" x="1245" y="-465.5" font-family="Helvetica,sans-Serif" font-size="10.00">net/in6/stream/config</text>
<text text-anchor="middle" x="1297.5" y="-454.5" font-family="Helvetica,sans-Serif" font-size="10.00">/ConfigSocketClient.h</text>
</a>
</g>
</g>
<!-- Node32&#45;&gt;Node35 -->
<g id="edge38" class="edge">
<title>Node32&#45;&gt;Node35</title>
<path fill="none" stroke="midnightblue" d="M1165.17,-514.4C1190.42,-504.69 1224.16,-491.71 1251.25,-481.29"/>
<polygon fill="midnightblue" stroke="midnightblue" points="1252.82,-484.43 1260.9,-477.58 1250.31,-477.9 1252.82,-484.43"/>
</g>
<!-- Node34 -->
<g id="node34" class="node">
<title>Node34</title>
<g id="a_node34"><a xlink:href="_config_base_8h.html" target="_top" xlink:title=" ">
<polygon fill="white" stroke="black" points="1266,-252 1266,-271 1399,-271 1399,-252 1266,-252"/>
<text text-anchor="middle" x="1332.5" y="-259" font-family="Helvetica,sans-Serif" font-size="10.00">net/config/ConfigBase.h</text>
</a>
</g>
</g>
<!-- Node33&#45;&gt;Node34 -->
<g id="edge37" class="edge">
<title>Node33&#45;&gt;Node34</title>
<path fill="none" stroke="midnightblue" d="M1125.34,-452.96C1116.79,-428.22 1096.01,-355.54 1129.5,-313 1145.32,-292.9 1205.19,-279.63 1255.85,-271.76"/>
<polygon fill="midnightblue" stroke="midnightblue" points="1256.47,-275.21 1265.84,-270.26 1255.43,-268.28 1256.47,-275.21"/>
</g>
<!-- Node36 -->
<g id="node36" class="node">
<title>Node36</title>
<g id="a_node36"><a xlink:href="_config_address_local_8h.html" target="_top" xlink:title=" ">
<polygon fill="white" stroke="black" points="1398,-380.5 1398,-410.5 1537,-410.5 1537,-380.5 1398,-380.5"/>
<text text-anchor="start" x="1406" y="-398.5" font-family="Helvetica,sans-Serif" font-size="10.00">net/config/ConfigAddress</text>
<text text-anchor="middle" x="1467.5" y="-387.5" font-family="Helvetica,sans-Serif" font-size="10.00">Local.h</text>
</a>
</g>
</g>
<!-- Node35&#45;&gt;Node36 -->
<g id="edge39" class="edge">
<title>Node35&#45;&gt;Node36</title>
<path fill="none" stroke="midnightblue" d="M1334.39,-447.4C1359.89,-437.64 1394.02,-424.59 1421.33,-414.15"/>
<polygon fill="midnightblue" stroke="midnightblue" points="1422.59,-417.42 1430.68,-410.58 1420.09,-410.88 1422.59,-417.42"/>
</g>
<!-- Node38 -->
<g id="node38" class="node">
<title>Node38</title>
<g id="a_node38"><a xlink:href="_config_address_remote_8h.html" target="_top" xlink:title=" ">
<polygon fill="white" stroke="black" points="1555,-380.5 1555,-410.5 1694,-410.5 1694,-380.5 1555,-380.5"/>
<text text-anchor="start" x="1563" y="-398.5" font-family="Helvetica,sans-Serif" font-size="10.00">net/config/ConfigAddress</text>
<text text-anchor="middle" x="1624.5" y="-387.5" font-family="Helvetica,sans-Serif" font-size="10.00">Remote.h</text>
</a>
</g>
</g>
<!-- Node35&#45;&gt;Node38 -->
<g id="edge42" class="edge">
<title>Node35&#45;&gt;Node38</title>
<path fill="none" stroke="midnightblue" d="M1358.24,-449.43C1410.77,-438.98 1487.11,-423.81 1544.59,-412.38"/>
<polygon fill="midnightblue" stroke="midnightblue" points="1545.6,-415.75 1554.73,-410.37 1544.24,-408.89 1545.6,-415.75"/>
</g>
<!-- Node39 -->
<g id="node39" class="node">
<title>Node39</title>
<g id="a_node39"><a xlink:href="_config_connection_8h.html" target="_top" xlink:title=" ">
<polygon fill="white" stroke="black" points="1215.5,-386 1215.5,-405 1379.5,-405 1379.5,-386 1215.5,-386"/>
<text text-anchor="middle" x="1297.5" y="-393" font-family="Helvetica,sans-Serif" font-size="10.00">net/config/ConfigConnection.h</text>
</a>
</g>
</g>
<!-- Node35&#45;&gt;Node39 -->
<g id="edge44" class="edge">
<title>Node35&#45;&gt;Node39</title>
<path fill="none" stroke="midnightblue" d="M1297.5,-447.4C1297.5,-438.06 1297.5,-425.71 1297.5,-415.52"/>
<polygon fill="midnightblue" stroke="midnightblue" points="1301,-415.19 1297.5,-405.19 1294,-415.19 1301,-415.19"/>
</g>
<!-- Node40 -->
<g id="node40" class="node">
<title>Node40</title>
<g id="a_node40"><a xlink:href="in6_2config_2_config_address_8h.html" target="_top" xlink:title=" ">
<polygon fill="white" stroke="black" points="1138.5,-319 1138.5,-338 1304.5,-338 1304.5,-319 1138.5,-319"/>
<text text-anchor="middle" x="1221.5" y="-326" font-family="Helvetica,sans-Serif" font-size="10.00">net/in6/config/ConfigAddress.h</text>
</a>
</g>
</g>
<!-- Node35&#45;&gt;Node40 -->
<g id="edge46" class="edge">
<title>Node35&#45;&gt;Node40</title>
<path fill="none" stroke="midnightblue" d="M1251.83,-447.46C1234.47,-439.65 1216.49,-427.97 1206.5,-411 1194.85,-391.2 1203.56,-364.4 1211.78,-347.03"/>
<polygon fill="midnightblue" stroke="midnightblue" points="1214.95,-348.51 1216.39,-338.01 1208.72,-345.32 1214.95,-348.51"/>
</g>
<!-- Node37 -->
<g id="node37" class="node">
<title>Node37</title>
<g id="a_node37"><a xlink:href="config_2_config_address_8h.html" target="_top" xlink:title=" ">
<polygon fill="white" stroke="black" points="1393.5,-319 1393.5,-338 1541.5,-338 1541.5,-319 1393.5,-319"/>
<text text-anchor="middle" x="1467.5" y="-326" font-family="Helvetica,sans-Serif" font-size="10.00">net/config/ConfigAddress.h</text>
</a>
</g>
</g>
<!-- Node36&#45;&gt;Node37 -->
<g id="edge40" class="edge">
<title>Node36&#45;&gt;Node37</title>
<path fill="none" stroke="midnightblue" d="M1467.5,-380.4C1467.5,-371.06 1467.5,-358.71 1467.5,-348.52"/>
<polygon fill="midnightblue" stroke="midnightblue" points="1471,-348.19 1467.5,-338.19 1464,-348.19 1471,-348.19"/>
</g>
<!-- Node37&#45;&gt;Node34 -->
<g id="edge41" class="edge">
<title>Node37&#45;&gt;Node34</title>
<path fill="none" stroke="midnightblue" d="M1449.57,-318.87C1426.58,-307.8 1386.47,-288.49 1359.7,-275.6"/>
<polygon fill="midnightblue" stroke="midnightblue" points="1361.03,-272.35 1350.5,-271.17 1357.99,-278.66 1361.03,-272.35"/>
</g>
<!-- Node38&#45;&gt;Node37 -->
<g id="edge43" class="edge">
<title>Node38&#45;&gt;Node37</title>
<path fill="none" stroke="midnightblue" d="M1590.43,-380.4C1562.76,-368.94 1524.11,-352.94 1497.58,-341.95"/>
<polygon fill="midnightblue" stroke="midnightblue" points="1498.63,-338.6 1488.05,-338.01 1495.95,-345.07 1498.63,-338.6"/>
</g>
<!-- Node39&#45;&gt;Node34 -->
<g id="edge45" class="edge">
<title>Node39&#45;&gt;Node34</title>
<path fill="none" stroke="midnightblue" d="M1300.42,-385.98C1303.8,-375.99 1309.41,-358.9 1313.5,-344 1319.38,-322.6 1325,-297.72 1328.59,-281.13"/>
<polygon fill="midnightblue" stroke="midnightblue" points="1332.06,-281.63 1330.72,-271.12 1325.21,-280.17 1332.06,-281.63"/>
</g>
<!-- Node40&#45;&gt;Node27 -->
<g id="edge47" class="edge">
<title>Node40&#45;&gt;Node27</title>
<path fill="none" stroke="midnightblue" d="M1196,-318.87C1162.2,-307.42 1102.4,-287.18 1064.42,-274.32"/>
<polygon fill="midnightblue" stroke="midnightblue" points="1065.39,-270.96 1054.8,-271.06 1063.15,-277.59 1065.39,-270.96"/>
</g>
</g>
</svg>
