<?xml version="1.0" encoding="UTF-8" standalone="no"?>
<!DOCTYPE svg PUBLIC "-//W3C//DTD SVG 1.1//EN"
 "http://www.w3.org/Graphics/SVG/1.1/DTD/svg11.dtd">
<!-- Generated by graphviz version 2.43.0 (0)
 -->
<!-- Title: net/in/stream/ServerSocket.h Pages: 1 -->
<svg width="620pt" height="196pt"
 viewBox="0.00 0.00 619.50 196.00" xmlns="http://www.w3.org/2000/svg" xmlns:xlink="http://www.w3.org/1999/xlink">
<g id="graph0" class="graph" transform="scale(1 1) rotate(0) translate(4 192)">
<title>net/in/stream/ServerSocket.h</title>
<polygon fill="white" stroke="transparent" points="-4,4 -4,-192 615.5,-192 615.5,4 -4,4"/>
<!-- Node1 -->
<g id="node1" class="node">
<title>Node1</title>
<g id="a_node1"><a xlink:title=" ">
<polygon fill="#bfbfbf" stroke="black" points="166,-168.5 166,-187.5 324,-187.5 324,-168.5 166,-168.5"/>
<text text-anchor="middle" x="245" y="-175.5" font-family="Helvetica,sans-Serif" font-size="10.00">net/in/stream/ServerSocket.h</text>
</a>
</g>
</g>
<!-- Node2 -->
<g id="node2" class="node">
<title>Node2</title>
<g id="a_node2"><a xlink:href="core_2socket_2_server_socket_8h.html" target="_top" xlink:title=" ">
<polygon fill="white" stroke="black" points="0,-112.5 0,-131.5 148,-131.5 148,-112.5 0,-112.5"/>
<text text-anchor="middle" x="74" y="-119.5" font-family="Helvetica,sans-Serif" font-size="10.00">core/socket/ServerSocket.h</text>
</a>
</g>
</g>
<!-- Node1&#45;&gt;Node2 -->
<g id="edge1" class="edge">
<title>Node1&#45;&gt;Node2</title>
<path fill="none" stroke="midnightblue" d="M217.9,-168.44C189.01,-159.32 143.08,-144.81 110.89,-134.65"/>
<polygon fill="midnightblue" stroke="midnightblue" points="111.56,-131.19 100.97,-131.52 109.45,-137.87 111.56,-131.19"/>
</g>
<!-- Node3 -->
<g id="node3" class="node">
<title>Node3</title>
<g id="a_node3"><a xlink:href="in_2stream_2_server_config_8h.html" target="_top" xlink:title=" ">
<polygon fill="white" stroke="black" points="166.5,-112.5 166.5,-131.5 323.5,-131.5 323.5,-112.5 166.5,-112.5"/>
<text text-anchor="middle" x="245" y="-119.5" font-family="Helvetica,sans-Serif" font-size="10.00">net/in/stream/ServerConfig.h</text>
</a>
</g>
</g>
<!-- Node1&#45;&gt;Node3 -->
<g id="edge2" class="edge">
<title>Node1&#45;&gt;Node3</title>
<path fill="none" stroke="midnightblue" d="M245,-168.08C245,-161.01 245,-150.86 245,-141.99"/>
<polygon fill="midnightblue" stroke="midnightblue" points="248.5,-141.75 245,-131.75 241.5,-141.75 248.5,-141.75"/>
</g>
<!-- Node6 -->
<g id="node6" class="node">
<title>Node6</title>
<g id="a_node6"><a xlink:href="net_2in_2stream_2_socket_8h.html" target="_top" xlink:title=" ">
<polygon fill="white" stroke="black" points="342,-112.5 342,-131.5 468,-131.5 468,-112.5 342,-112.5"/>
<text text-anchor="middle" x="405" y="-119.5" font-family="Helvetica,sans-Serif" font-size="10.00">net/in/stream/Socket.h</text>
</a>
</g>
</g>
<!-- Node1&#45;&gt;Node6 -->
<g id="edge5" class="edge">
<title>Node1&#45;&gt;Node6</title>
<path fill="none" stroke="midnightblue" d="M270.35,-168.44C297.27,-159.36 340,-144.94 370.09,-134.78"/>
<polygon fill="midnightblue" stroke="midnightblue" points="371.41,-138.03 379.77,-131.52 369.17,-131.4 371.41,-138.03"/>
</g>
<!-- Node4 -->
<g id="node4" class="node">
<title>Node4</title>
<g id="a_node4"><a xlink:href="_server_config_8h.html" target="_top" xlink:title=" ">
<polygon fill="white" stroke="black" points="191.5,-56.5 191.5,-75.5 298.5,-75.5 298.5,-56.5 191.5,-56.5"/>
<text text-anchor="middle" x="245" y="-63.5" font-family="Helvetica,sans-Serif" font-size="10.00">net/ServerConfig.h</text>
</a>
</g>
</g>
<!-- Node3&#45;&gt;Node4 -->
<g id="edge3" class="edge">
<title>Node3&#45;&gt;Node4</title>
<path fill="none" stroke="midnightblue" d="M245,-112.08C245,-105.01 245,-94.86 245,-85.99"/>
<polygon fill="midnightblue" stroke="midnightblue" points="248.5,-85.75 245,-75.75 241.5,-85.75 248.5,-85.75"/>
</g>
<!-- Node5 -->
<g id="node5" class="node">
<title>Node5</title>
<g id="a_node5"><a xlink:href="net_2_config_8h.html" target="_top" xlink:title=" ">
<polygon fill="white" stroke="black" points="207,-0.5 207,-19.5 283,-19.5 283,-0.5 207,-0.5"/>
<text text-anchor="middle" x="245" y="-7.5" font-family="Helvetica,sans-Serif" font-size="10.00">net/Config.h</text>
</a>
</g>
</g>
<!-- Node4&#45;&gt;Node5 -->
<g id="edge4" class="edge">
<title>Node4&#45;&gt;Node5</title>
<path fill="none" stroke="midnightblue" d="M245,-56.08C245,-49.01 245,-38.86 245,-29.99"/>
<polygon fill="midnightblue" stroke="midnightblue" points="248.5,-29.75 245,-19.75 241.5,-29.75 248.5,-29.75"/>
</g>
<!-- Node7 -->
<g id="node7" class="node">
<title>Node7</title>
<g id="a_node7"><a xlink:href="core_2socket_2_socket_8h.html" target="_top" xlink:title=" ">
<polygon fill="white" stroke="black" points="332,-56.5 332,-75.5 448,-75.5 448,-56.5 332,-56.5"/>
<text text-anchor="middle" x="390" y="-63.5" font-family="Helvetica,sans-Serif" font-size="10.00">core/socket/Socket.h</text>
</a>
</g>
</g>
<!-- Node6&#45;&gt;Node7 -->
<g id="edge6" class="edge">
<title>Node6&#45;&gt;Node7</title>
<path fill="none" stroke="midnightblue" d="M402.52,-112.08C400.51,-104.85 397.61,-94.41 395.11,-85.4"/>
<polygon fill="midnightblue" stroke="midnightblue" points="398.48,-84.45 392.43,-75.75 391.74,-86.32 398.48,-84.45"/>
</g>
<!-- Node9 -->
<g id="node9" class="node">
<title>Node9</title>
<g id="a_node9"><a xlink:href="net_2in_2_socket_address_8h.html" target="_top" xlink:title=" ">
<polygon fill="white" stroke="black" points="469,-56.5 469,-75.5 597,-75.5 597,-56.5 469,-56.5"/>
<text text-anchor="middle" x="533" y="-63.5" font-family="Helvetica,sans-Serif" font-size="10.00">net/in/SocketAddress.h</text>
</a>
</g>
</g>
<!-- Node6&#45;&gt;Node9 -->
<g id="edge8" class="edge">
<title>Node6&#45;&gt;Node9</title>
<path fill="none" stroke="midnightblue" d="M425.28,-112.44C446.35,-103.56 479.52,-89.56 503.49,-79.45"/>
<polygon fill="midnightblue" stroke="midnightblue" points="504.96,-82.63 512.81,-75.52 502.24,-76.18 504.96,-82.63"/>
</g>
<!-- Node8 -->
<g id="node8" class="node">
<title>Node8</title>
<g id="a_node8"><a xlink:href="_descriptor_8h.html" target="_top" xlink:title=" ">
<polygon fill="white" stroke="black" points="338,-0.5 338,-19.5 438,-19.5 438,-0.5 338,-0.5"/>
<text text-anchor="middle" x="388" y="-7.5" font-family="Helvetica,sans-Serif" font-size="10.00">core/Descriptor.h</text>
</a>
</g>
</g>
<!-- Node7&#45;&gt;Node8 -->
<g id="edge7" class="edge">
<title>Node7&#45;&gt;Node8</title>
<path fill="none" stroke="midnightblue" d="M389.67,-56.08C389.41,-49.01 389.03,-38.86 388.7,-29.99"/>
<polygon fill="midnightblue" stroke="midnightblue" points="392.19,-29.61 388.32,-19.75 385.2,-29.87 392.19,-29.61"/>
</g>
<!-- Node10 -->
<g id="node10" class="node">
<title>Node10</title>
<g id="a_node10"><a xlink:href="core_2socket_2_socket_address_8h.html" target="_top" xlink:title=" ">
<polygon fill="white" stroke="black" points="456.5,-0.5 456.5,-19.5 611.5,-19.5 611.5,-0.5 456.5,-0.5"/>
<text text-anchor="middle" x="534" y="-7.5" font-family="Helvetica,sans-Serif" font-size="10.00">core/socket/SocketAddress.h</text>
</a>
</g>
</g>
<!-- Node9&#45;&gt;Node10 -->
<g id="edge9" class="edge">
<title>Node9&#45;&gt;Node10</title>
<path fill="none" stroke="midnightblue" d="M533.17,-56.08C533.3,-49.01 533.48,-38.86 533.65,-29.99"/>
<polygon fill="midnightblue" stroke="midnightblue" points="537.15,-29.81 533.84,-19.75 530.15,-29.68 537.15,-29.81"/>
</g>
</g>
</svg>
