<?xml version="1.0" encoding="UTF-8" standalone="no"?>
<!DOCTYPE svg PUBLIC "-//W3C//DTD SVG 1.1//EN"
 "http://www.w3.org/Graphics/SVG/1.1/DTD/svg11.dtd">
<!-- Generated by graphviz version 2.43.0 (0)
 -->
<!-- Title: net/rf/stream/tls/config/ConfigSocketClient.h Pages: 1 -->
<svg width="139pt" height="162pt"
 viewBox="0.00 0.00 139.00 162.00" xmlns="http://www.w3.org/2000/svg" xmlns:xlink="http://www.w3.org/1999/xlink">
<g id="graph0" class="graph" transform="scale(1 1) rotate(0) translate(4 158)">
<title>net/rf/stream/tls/config/ConfigSocketClient.h</title>
<polygon fill="white" stroke="transparent" points="-4,4 -4,-158 135,-158 135,4 -4,4"/>
<!-- Node1 -->
<g id="node1" class="node">
<title>Node1</title>
<g id="a_node1"><a xlink:title=" ">
<polygon fill="#bfbfbf" stroke="black" points="1.5,-123.5 1.5,-153.5 129.5,-153.5 129.5,-123.5 1.5,-123.5"/>
<text text-anchor="start" x="9.5" y="-141.5" font-family="Helvetica,sans-Serif" font-size="10.00">net/rf/stream/tls/config</text>
<text text-anchor="middle" x="65.5" y="-130.5" font-family="Helvetica,sans-Serif" font-size="10.00">/ConfigSocketClient.h</text>
</a>
</g>
</g>
<!-- Node2 -->
<g id="node2" class="node">
<title>Node2</title>
<g id="a_node2"><a xlink:href="net_2rf_2stream_2tls_2_socket_client_8h.html" target="_top" xlink:title=" ">
<polygon fill="white" stroke="black" points="0,-56.5 0,-86.5 131,-86.5 131,-56.5 0,-56.5"/>
<text text-anchor="start" x="8" y="-74.5" font-family="Helvetica,sans-Serif" font-size="10.00">net/rf/stream/tls/Socket</text>
<text text-anchor="middle" x="65.5" y="-63.5" font-family="Helvetica,sans-Serif" font-size="10.00">Client.h</text>
</a>
</g>
</g>
<!-- Node1&#45;&gt;Node2 -->
<g id="edge1" class="edge">
<title>Node1&#45;&gt;Node2</title>
<path fill="none" stroke="midnightblue" d="M65.5,-113.11C65.5,-104.15 65.5,-94.32 65.5,-86.58"/>
<polygon fill="midnightblue" stroke="midnightblue" points="62,-113.4 65.5,-123.4 69,-113.4 62,-113.4"/>
</g>
<!-- Node3 -->
<g id="node3" class="node">
<title>Node3</title>
<g id="a_node3"><a xlink:href="tls_2rf_2_client_8h.html" target="_top" xlink:title=" ">
<polygon fill="white" stroke="black" points="3,-0.5 3,-19.5 128,-19.5 128,-0.5 3,-0.5"/>
<text text-anchor="middle" x="65.5" y="-7.5" font-family="Helvetica,sans-Serif" font-size="10.00">web/http/tls/rf/Client.h</text>
</a>
</g>
</g>
<!-- Node2&#45;&gt;Node3 -->
<g id="edge2" class="edge">
<title>Node2&#45;&gt;Node3</title>
<path fill="none" stroke="midnightblue" d="M65.5,-46.29C65.5,-36.86 65.5,-26.65 65.5,-19.66"/>
<polygon fill="midnightblue" stroke="midnightblue" points="62,-46.4 65.5,-56.4 69,-46.4 62,-46.4"/>
</g>
</g>
</svg>
