<?xml version="1.0" encoding="UTF-8" standalone="no"?>
<!DOCTYPE svg PUBLIC "-//W3C//DTD SVG 1.1//EN"
 "http://www.w3.org/Graphics/SVG/1.1/DTD/svg11.dtd">
<!-- Generated by graphviz version 2.43.0 (0)
 -->
<!-- Title: net/rf/stream/ServerSocket.cpp Pages: 1 -->
<svg width="736pt" height="308pt"
 viewBox="0.00 0.00 735.50 308.00" xmlns="http://www.w3.org/2000/svg" xmlns:xlink="http://www.w3.org/1999/xlink">
<g id="graph0" class="graph" transform="scale(1 1) rotate(0) translate(4 304)">
<title>net/rf/stream/ServerSocket.cpp</title>
<polygon fill="white" stroke="transparent" points="-4,4 -4,-304 731.5,-304 731.5,4 -4,4"/>
<!-- Node1 -->
<g id="node1" class="node">
<title>Node1</title>
<g id="a_node1"><a xlink:title=" ">
<polygon fill="#bfbfbf" stroke="black" points="258,-280.5 258,-299.5 425,-299.5 425,-280.5 258,-280.5"/>
<text text-anchor="middle" x="341.5" y="-287.5" font-family="Helvetica,sans-Serif" font-size="10.00">net/rf/stream/ServerSocket.cpp</text>
</a>
</g>
</g>
<!-- Node2 -->
<g id="node2" class="node">
<title>Node2</title>
<g id="a_node2"><a xlink:href="net_2rf_2stream_2_server_socket_8h.html" target="_top" xlink:title=" ">
<polygon fill="white" stroke="black" points="263.5,-224.5 263.5,-243.5 419.5,-243.5 419.5,-224.5 263.5,-224.5"/>
<text text-anchor="middle" x="341.5" y="-231.5" font-family="Helvetica,sans-Serif" font-size="10.00">net/rf/stream/ServerSocket.h</text>
</a>
</g>
</g>
<!-- Node1&#45;&gt;Node2 -->
<g id="edge1" class="edge">
<title>Node1&#45;&gt;Node2</title>
<path fill="none" stroke="midnightblue" d="M341.5,-280.08C341.5,-273.01 341.5,-262.86 341.5,-253.99"/>
<polygon fill="midnightblue" stroke="midnightblue" points="345,-253.75 341.5,-243.75 338,-253.75 345,-253.75"/>
</g>
<!-- Node3 -->
<g id="node3" class="node">
<title>Node3</title>
<g id="a_node3"><a xlink:href="core_2socket_2_server_socket_8h.html" target="_top" xlink:title=" ">
<polygon fill="white" stroke="black" points="97.5,-168.5 97.5,-187.5 245.5,-187.5 245.5,-168.5 97.5,-168.5"/>
<text text-anchor="middle" x="171.5" y="-175.5" font-family="Helvetica,sans-Serif" font-size="10.00">core/socket/ServerSocket.h</text>
</a>
</g>
</g>
<!-- Node2&#45;&gt;Node3 -->
<g id="edge2" class="edge">
<title>Node2&#45;&gt;Node3</title>
<path fill="none" stroke="midnightblue" d="M314.56,-224.44C285.84,-215.32 240.17,-200.81 208.18,-190.65"/>
<polygon fill="midnightblue" stroke="midnightblue" points="208.9,-187.21 198.31,-187.52 206.78,-193.88 208.9,-187.21"/>
</g>
<!-- Node4 -->
<g id="node4" class="node">
<title>Node4</title>
<g id="a_node4"><a xlink:href="rf_2stream_2_server_config_8h.html" target="_top" xlink:title=" ">
<polygon fill="white" stroke="black" points="264,-168.5 264,-187.5 419,-187.5 419,-168.5 264,-168.5"/>
<text text-anchor="middle" x="341.5" y="-175.5" font-family="Helvetica,sans-Serif" font-size="10.00">net/rf/stream/ServerConfig.h</text>
</a>
</g>
</g>
<!-- Node2&#45;&gt;Node4 -->
<g id="edge3" class="edge">
<title>Node2&#45;&gt;Node4</title>
<path fill="none" stroke="midnightblue" d="M341.5,-224.08C341.5,-217.01 341.5,-206.86 341.5,-197.99"/>
<polygon fill="midnightblue" stroke="midnightblue" points="345,-197.75 341.5,-187.75 338,-197.75 345,-197.75"/>
</g>
<!-- Node11 -->
<g id="node11" class="node">
<title>Node11</title>
<g id="a_node11"><a xlink:href="net_2rf_2stream_2_socket_8h.html" target="_top" xlink:title=" ">
<polygon fill="white" stroke="black" points="521,-168.5 521,-187.5 646,-187.5 646,-168.5 521,-168.5"/>
<text text-anchor="middle" x="583.5" y="-175.5" font-family="Helvetica,sans-Serif" font-size="10.00">net/rf/stream/Socket.h</text>
</a>
</g>
</g>
<!-- Node2&#45;&gt;Node11 -->
<g id="edge11" class="edge">
<title>Node2&#45;&gt;Node11</title>
<path fill="none" stroke="midnightblue" d="M379.85,-224.44C421.97,-215.04 489.71,-199.93 535.37,-189.74"/>
<polygon fill="midnightblue" stroke="midnightblue" points="536.34,-193.11 545.33,-187.52 534.81,-186.28 536.34,-193.11"/>
</g>
<!-- Node5 -->
<g id="node5" class="node">
<title>Node5</title>
<g id="a_node5"><a xlink:href="_config_backlog_8h.html" target="_top" xlink:title=" ">
<polygon fill="white" stroke="black" points="0,-112.5 0,-131.5 115,-131.5 115,-112.5 0,-112.5"/>
<text text-anchor="middle" x="57.5" y="-119.5" font-family="Helvetica,sans-Serif" font-size="10.00">net/ConfigBacklog.h</text>
</a>
</g>
</g>
<!-- Node4&#45;&gt;Node5 -->
<g id="edge4" class="edge">
<title>Node4&#45;&gt;Node5</title>
<path fill="none" stroke="midnightblue" d="M296.5,-168.44C246.54,-158.94 165.9,-143.61 112.3,-133.42"/>
<polygon fill="midnightblue" stroke="midnightblue" points="112.77,-129.95 102.29,-131.52 111.46,-136.82 112.77,-129.95"/>
</g>
<!-- Node6 -->
<g id="node6" class="node">
<title>Node6</title>
<g id="a_node6"><a xlink:href="_config_base_8h.html" target="_top" xlink:title=" ">
<polygon fill="white" stroke="black" points="133.5,-112.5 133.5,-131.5 233.5,-131.5 233.5,-112.5 133.5,-112.5"/>
<text text-anchor="middle" x="183.5" y="-119.5" font-family="Helvetica,sans-Serif" font-size="10.00">net/ConfigBase.h</text>
</a>
</g>
</g>
<!-- Node4&#45;&gt;Node6 -->
<g id="edge5" class="edge">
<title>Node4&#45;&gt;Node6</title>
<path fill="none" stroke="midnightblue" d="M316.46,-168.44C289.88,-159.36 247.69,-144.94 217.98,-134.78"/>
<polygon fill="midnightblue" stroke="midnightblue" points="219.01,-131.44 208.42,-131.52 216.75,-138.06 219.01,-131.44"/>
</g>
<!-- Node7 -->
<g id="node7" class="node">
<title>Node7</title>
<g id="a_node7"><a xlink:href="_config_conn_8h.html" target="_top" xlink:title=" ">
<polygon fill="white" stroke="black" points="252,-112.5 252,-131.5 353,-131.5 353,-112.5 252,-112.5"/>
<text text-anchor="middle" x="302.5" y="-119.5" font-family="Helvetica,sans-Serif" font-size="10.00">net/ConfigConn.h</text>
</a>
</g>
</g>
<!-- Node4&#45;&gt;Node7 -->
<g id="edge6" class="edge">
<title>Node4&#45;&gt;Node7</title>
<path fill="none" stroke="midnightblue" d="M335.06,-168.08C329.55,-160.46 321.47,-149.26 314.74,-139.94"/>
<polygon fill="midnightblue" stroke="midnightblue" points="317.51,-137.81 308.82,-131.75 311.84,-141.91 317.51,-137.81"/>
</g>
<!-- Node8 -->
<g id="node8" class="node">
<title>Node8</title>
<g id="a_node8"><a xlink:href="net_2rf_2_socket_address_8h.html" target="_top" xlink:title=" ">
<polygon fill="white" stroke="black" points="419.5,-56.5 419.5,-75.5 545.5,-75.5 545.5,-56.5 419.5,-56.5"/>
<text text-anchor="middle" x="482.5" y="-63.5" font-family="Helvetica,sans-Serif" font-size="10.00">net/rf/SocketAddress.h</text>
</a>
</g>
</g>
<!-- Node4&#45;&gt;Node8 -->
<g id="edge7" class="edge">
<title>Node4&#45;&gt;Node8</title>
<path fill="none" stroke="midnightblue" d="M347.98,-168.15C358.09,-154.78 378.72,-129.18 400.5,-112 416.81,-99.14 437.29,-87.9 453.7,-79.86"/>
<polygon fill="midnightblue" stroke="midnightblue" points="455.31,-82.98 462.83,-75.52 452.3,-76.66 455.31,-82.98"/>
</g>
<!-- Node10 -->
<g id="node10" class="node">
<title>Node10</title>
<g id="a_node10"><a xlink:href="rf_2stream_2_config_bind_8h.html" target="_top" xlink:title=" ">
<polygon fill="white" stroke="black" points="409.5,-112.5 409.5,-131.5 555.5,-131.5 555.5,-112.5 409.5,-112.5"/>
<text text-anchor="middle" x="482.5" y="-119.5" font-family="Helvetica,sans-Serif" font-size="10.00">net/rf/stream/ConfigBind.h</text>
</a>
</g>
</g>
<!-- Node4&#45;&gt;Node10 -->
<g id="edge9" class="edge">
<title>Node4&#45;&gt;Node10</title>
<path fill="none" stroke="midnightblue" d="M363.84,-168.44C387.25,-159.48 424.24,-145.31 450.69,-135.18"/>
<polygon fill="midnightblue" stroke="midnightblue" points="452.18,-138.36 460.26,-131.52 449.67,-131.82 452.18,-138.36"/>
</g>
<!-- Node9 -->
<g id="node9" class="node">
<title>Node9</title>
<g id="a_node9"><a xlink:href="core_2socket_2_socket_address_8h.html" target="_top" xlink:title=" ">
<polygon fill="white" stroke="black" points="405,-0.5 405,-19.5 560,-19.5 560,-0.5 405,-0.5"/>
<text text-anchor="middle" x="482.5" y="-7.5" font-family="Helvetica,sans-Serif" font-size="10.00">core/socket/SocketAddress.h</text>
</a>
</g>
</g>
<!-- Node8&#45;&gt;Node9 -->
<g id="edge8" class="edge">
<title>Node8&#45;&gt;Node9</title>
<path fill="none" stroke="midnightblue" d="M482.5,-56.08C482.5,-49.01 482.5,-38.86 482.5,-29.99"/>
<polygon fill="midnightblue" stroke="midnightblue" points="486,-29.75 482.5,-19.75 479,-29.75 486,-29.75"/>
</g>
<!-- Node10&#45;&gt;Node8 -->
<g id="edge10" class="edge">
<title>Node10&#45;&gt;Node8</title>
<path fill="none" stroke="midnightblue" d="M482.5,-112.08C482.5,-105.01 482.5,-94.86 482.5,-85.99"/>
<polygon fill="midnightblue" stroke="midnightblue" points="486,-85.75 482.5,-75.75 479,-85.75 486,-85.75"/>
</g>
<!-- Node11&#45;&gt;Node8 -->
<g id="edge14" class="edge">
<title>Node11&#45;&gt;Node8</title>
<path fill="none" stroke="midnightblue" d="M583.05,-168.47C581.93,-155.07 578.05,-128.87 564.5,-112 552.8,-97.43 535.04,-86.86 519.04,-79.64"/>
<polygon fill="midnightblue" stroke="midnightblue" points="519.95,-76.23 509.37,-75.58 517.23,-82.68 519.95,-76.23"/>
</g>
<!-- Node12 -->
<g id="node12" class="node">
<title>Node12</title>
<g id="a_node12"><a xlink:href="core_2socket_2_socket_8h.html" target="_top" xlink:title=" ">
<polygon fill="white" stroke="black" points="611.5,-112.5 611.5,-131.5 727.5,-131.5 727.5,-112.5 611.5,-112.5"/>
<text text-anchor="middle" x="669.5" y="-119.5" font-family="Helvetica,sans-Serif" font-size="10.00">core/socket/Socket.h</text>
</a>
</g>
</g>
<!-- Node11&#45;&gt;Node12 -->
<g id="edge12" class="edge">
<title>Node11&#45;&gt;Node12</title>
<path fill="none" stroke="midnightblue" d="M597.32,-168.32C610.73,-159.9 631.32,-146.97 647.09,-137.07"/>
<polygon fill="midnightblue" stroke="midnightblue" points="649.11,-139.94 655.72,-131.65 645.39,-134.01 649.11,-139.94"/>
</g>
<!-- Node13 -->
<g id="node13" class="node">
<title>Node13</title>
<g id="a_node13"><a xlink:href="_descriptor_8h.html" target="_top" xlink:title=" ">
<polygon fill="white" stroke="black" points="619.5,-56.5 619.5,-75.5 719.5,-75.5 719.5,-56.5 619.5,-56.5"/>
<text text-anchor="middle" x="669.5" y="-63.5" font-family="Helvetica,sans-Serif" font-size="10.00">core/Descriptor.h</text>
</a>
</g>
</g>
<!-- Node12&#45;&gt;Node13 -->
<g id="edge13" class="edge">
<title>Node12&#45;&gt;Node13</title>
<path fill="none" stroke="midnightblue" d="M669.5,-112.08C669.5,-105.01 669.5,-94.86 669.5,-85.99"/>
<polygon fill="midnightblue" stroke="midnightblue" points="673,-85.75 669.5,-75.75 666,-85.75 673,-85.75"/>
</g>
</g>
</svg>
