<?xml version="1.0" encoding="UTF-8" standalone="no"?>
<!DOCTYPE svg PUBLIC "-//W3C//DTD SVG 1.1//EN"
 "http://www.w3.org/Graphics/SVG/1.1/DTD/svg11.dtd">
<!-- Generated by graphviz version 2.43.0 (0)
 -->
<!-- Title: net/rf/ConfigRemote.h Pages: 1 -->
<svg width="456pt" height="285pt"
 viewBox="0.00 0.00 455.50 285.00" xmlns="http://www.w3.org/2000/svg" xmlns:xlink="http://www.w3.org/1999/xlink">
<g id="graph0" class="graph" transform="scale(1 1) rotate(0) translate(4 281)">
<title>net/rf/ConfigRemote.h</title>
<polygon fill="white" stroke="transparent" points="-4,4 -4,-281 451.5,-281 451.5,4 -4,4"/>
<!-- Node1 -->
<g id="node1" class="node">
<title>Node1</title>
<g id="a_node1"><a xlink:title=" ">
<polygon fill="#bfbfbf" stroke="black" points="96.5,-257.5 96.5,-276.5 221.5,-276.5 221.5,-257.5 96.5,-257.5"/>
<text text-anchor="middle" x="159" y="-264.5" font-family="Helvetica,sans-Serif" font-size="10.00">net/rf/ConfigRemote.h</text>
</a>
</g>
</g>
<!-- Node2 -->
<g id="node2" class="node">
<title>Node2</title>
<g id="a_node2"><a xlink:href="rf_2_config_remote_8cpp.html" target="_top" xlink:title=" ">
<polygon fill="white" stroke="black" points="10,-201.5 10,-220.5 146,-220.5 146,-201.5 10,-201.5"/>
<text text-anchor="middle" x="78" y="-208.5" font-family="Helvetica,sans-Serif" font-size="10.00">net/rf/ConfigRemote.cpp</text>
</a>
</g>
</g>
<!-- Node1&#45;&gt;Node2 -->
<g id="edge1" class="edge">
<title>Node1&#45;&gt;Node2</title>
<path fill="none" stroke="midnightblue" d="M137.43,-251.62C122.64,-241.76 103.49,-228.99 90.98,-220.65"/>
<polygon fill="midnightblue" stroke="midnightblue" points="135.72,-254.69 145.99,-257.32 139.61,-248.86 135.72,-254.69"/>
</g>
<!-- Node3 -->
<g id="node3" class="node">
<title>Node3</title>
<g id="a_node3"><a xlink:href="rf_2stream_2_client_config_8h.html" target="_top" xlink:title=" ">
<polygon fill="white" stroke="black" points="164,-201.5 164,-220.5 316,-220.5 316,-201.5 164,-201.5"/>
<text text-anchor="middle" x="240" y="-208.5" font-family="Helvetica,sans-Serif" font-size="10.00">net/rf/stream/ClientConfig.h</text>
</a>
</g>
</g>
<!-- Node1&#45;&gt;Node3 -->
<g id="edge2" class="edge">
<title>Node1&#45;&gt;Node3</title>
<path fill="none" stroke="midnightblue" d="M180.57,-251.62C195.36,-241.76 214.51,-228.99 227.02,-220.65"/>
<polygon fill="midnightblue" stroke="midnightblue" points="178.39,-248.86 172.01,-257.32 182.28,-254.69 178.39,-248.86"/>
</g>
<!-- Node4 -->
<g id="node4" class="node">
<title>Node4</title>
<g id="a_node4"><a xlink:href="rf_2stream_2_client_config_8cpp.html" target="_top" xlink:title=" ">
<polygon fill="white" stroke="black" points="0,-140 0,-159 164,-159 164,-140 0,-140"/>
<text text-anchor="middle" x="82" y="-147" font-family="Helvetica,sans-Serif" font-size="10.00">net/rf/stream/ClientConfig.cpp</text>
</a>
</g>
</g>
<!-- Node3&#45;&gt;Node4 -->
<g id="edge3" class="edge">
<title>Node3&#45;&gt;Node4</title>
<path fill="none" stroke="midnightblue" d="M207.96,-197.93C177.25,-186.37 131.68,-169.21 104.6,-159.01"/>
<polygon fill="midnightblue" stroke="midnightblue" points="206.77,-201.23 217.36,-201.48 209.24,-194.68 206.77,-201.23"/>
</g>
<!-- Node5 -->
<g id="node5" class="node">
<title>Node5</title>
<g id="a_node5"><a xlink:href="rf_2stream_2legacy_2_client_config_8h.html" target="_top" xlink:title=" ">
<polygon fill="white" stroke="black" points="182,-134.5 182,-164.5 298,-164.5 298,-134.5 182,-134.5"/>
<text text-anchor="start" x="190" y="-152.5" font-family="Helvetica,sans-Serif" font-size="10.00">net/rf/stream/legacy</text>
<text text-anchor="middle" x="240" y="-141.5" font-family="Helvetica,sans-Serif" font-size="10.00">/ClientConfig.h</text>
</a>
</g>
</g>
<!-- Node3&#45;&gt;Node5 -->
<g id="edge4" class="edge">
<title>Node3&#45;&gt;Node5</title>
<path fill="none" stroke="midnightblue" d="M240,-191.23C240,-182.59 240,-172.5 240,-164.52"/>
<polygon fill="midnightblue" stroke="midnightblue" points="236.5,-191.48 240,-201.48 243.5,-191.48 236.5,-191.48"/>
</g>
<!-- Node8 -->
<g id="node8" class="node">
<title>Node8</title>
<g id="a_node8"><a xlink:href="rf_2stream_2tls_2_client_config_8h.html" target="_top" xlink:title=" ">
<polygon fill="white" stroke="black" points="317.5,-134.5 317.5,-164.5 444.5,-164.5 444.5,-134.5 317.5,-134.5"/>
<text text-anchor="start" x="325.5" y="-152.5" font-family="Helvetica,sans-Serif" font-size="10.00">net/rf/stream/tls/Client</text>
<text text-anchor="middle" x="381" y="-141.5" font-family="Helvetica,sans-Serif" font-size="10.00">Config.h</text>
</a>
</g>
</g>
<!-- Node3&#45;&gt;Node8 -->
<g id="edge7" class="edge">
<title>Node3&#45;&gt;Node8</title>
<path fill="none" stroke="midnightblue" d="M269.72,-197.46C292.55,-187.82 324.1,-174.51 347.77,-164.52"/>
<polygon fill="midnightblue" stroke="midnightblue" points="268.05,-194.36 260.2,-201.48 270.78,-200.81 268.05,-194.36"/>
</g>
<!-- Node6 -->
<g id="node6" class="node">
<title>Node6</title>
<g id="a_node6"><a xlink:href="net_2rf_2stream_2legacy_2_socket_client_8h.html" target="_top" xlink:title=" ">
<polygon fill="white" stroke="black" points="182,-67.5 182,-97.5 298,-97.5 298,-67.5 182,-67.5"/>
<text text-anchor="start" x="190" y="-85.5" font-family="Helvetica,sans-Serif" font-size="10.00">net/rf/stream/legacy</text>
<text text-anchor="middle" x="240" y="-74.5" font-family="Helvetica,sans-Serif" font-size="10.00">/SocketClient.h</text>
</a>
</g>
</g>
<!-- Node5&#45;&gt;Node6 -->
<g id="edge5" class="edge">
<title>Node5&#45;&gt;Node6</title>
<path fill="none" stroke="midnightblue" d="M240,-124.11C240,-115.15 240,-105.32 240,-97.58"/>
<polygon fill="midnightblue" stroke="midnightblue" points="236.5,-124.4 240,-134.4 243.5,-124.4 236.5,-124.4"/>
</g>
<!-- Node7 -->
<g id="node7" class="node">
<title>Node7</title>
<g id="a_node7"><a xlink:href="legacy_2rf_2_client_8h.html" target="_top" xlink:title=" ">
<polygon fill="white" stroke="black" points="187.5,-0.5 187.5,-30.5 292.5,-30.5 292.5,-0.5 187.5,-0.5"/>
<text text-anchor="start" x="195.5" y="-18.5" font-family="Helvetica,sans-Serif" font-size="10.00">web/http/legacy/rf</text>
<text text-anchor="middle" x="240" y="-7.5" font-family="Helvetica,sans-Serif" font-size="10.00">/Client.h</text>
</a>
</g>
</g>
<!-- Node6&#45;&gt;Node7 -->
<g id="edge6" class="edge">
<title>Node6&#45;&gt;Node7</title>
<path fill="none" stroke="midnightblue" d="M240,-57.11C240,-48.15 240,-38.32 240,-30.58"/>
<polygon fill="midnightblue" stroke="midnightblue" points="236.5,-57.4 240,-67.4 243.5,-57.4 236.5,-57.4"/>
</g>
<!-- Node9 -->
<g id="node9" class="node">
<title>Node9</title>
<g id="a_node9"><a xlink:href="net_2rf_2stream_2tls_2_socket_client_8h.html" target="_top" xlink:title=" ">
<polygon fill="white" stroke="black" points="316.5,-67.5 316.5,-97.5 447.5,-97.5 447.5,-67.5 316.5,-67.5"/>
<text text-anchor="start" x="324.5" y="-85.5" font-family="Helvetica,sans-Serif" font-size="10.00">net/rf/stream/tls/Socket</text>
<text text-anchor="middle" x="382" y="-74.5" font-family="Helvetica,sans-Serif" font-size="10.00">Client.h</text>
</a>
</g>
</g>
<!-- Node8&#45;&gt;Node9 -->
<g id="edge8" class="edge">
<title>Node8&#45;&gt;Node9</title>
<path fill="none" stroke="midnightblue" d="M381.38,-124.11C381.51,-115.15 381.66,-105.32 381.78,-97.58"/>
<polygon fill="midnightblue" stroke="midnightblue" points="377.87,-124.34 381.22,-134.4 384.87,-124.45 377.87,-124.34"/>
</g>
<!-- Node10 -->
<g id="node10" class="node">
<title>Node10</title>
<g id="a_node10"><a xlink:href="tls_2rf_2_client_8h.html" target="_top" xlink:title=" ">
<polygon fill="white" stroke="black" points="319.5,-6 319.5,-25 444.5,-25 444.5,-6 319.5,-6"/>
<text text-anchor="middle" x="382" y="-13" font-family="Helvetica,sans-Serif" font-size="10.00">web/http/tls/rf/Client.h</text>
</a>
</g>
</g>
<!-- Node9&#45;&gt;Node10 -->
<g id="edge9" class="edge">
<title>Node9&#45;&gt;Node10</title>
<path fill="none" stroke="midnightblue" d="M382,-57.25C382,-46.02 382,-33.38 382,-25.19"/>
<polygon fill="midnightblue" stroke="midnightblue" points="378.5,-57.4 382,-67.4 385.5,-57.4 378.5,-57.4"/>
</g>
</g>
</svg>
