<?xml version="1.0" encoding="UTF-8" standalone="no"?>
<!DOCTYPE svg PUBLIC "-//W3C//DTD SVG 1.1//EN"
 "http://www.w3.org/Graphics/SVG/1.1/DTD/svg11.dtd">
<!-- Generated by graphviz version 2.43.0 (0)
 -->
<!-- Title: net/rf/stream/ClientSocket.h Pages: 1 -->
<svg width="343pt" height="196pt"
 viewBox="0.00 0.00 343.00 196.00" xmlns="http://www.w3.org/2000/svg" xmlns:xlink="http://www.w3.org/1999/xlink">
<g id="graph0" class="graph" transform="scale(1 1) rotate(0) translate(4 192)">
<title>net/rf/stream/ClientSocket.h</title>
<polygon fill="white" stroke="transparent" points="-4,4 -4,-192 339,-192 339,4 -4,4"/>
<!-- Node1 -->
<g id="node1" class="node">
<title>Node1</title>
<g id="a_node1"><a xlink:title=" ">
<polygon fill="#bfbfbf" stroke="black" points="42,-168.5 42,-187.5 195,-187.5 195,-168.5 42,-168.5"/>
<text text-anchor="middle" x="118.5" y="-175.5" font-family="Helvetica,sans-Serif" font-size="10.00">net/rf/stream/ClientSocket.h</text>
</a>
</g>
</g>
<!-- Node2 -->
<g id="node2" class="node">
<title>Node2</title>
<g id="a_node2"><a xlink:href="_client_socket_8h.html" target="_top" xlink:title=" ">
<polygon fill="white" stroke="black" points="0,-112.5 0,-131.5 105,-131.5 105,-112.5 0,-112.5"/>
<text text-anchor="middle" x="52.5" y="-119.5" font-family="Helvetica,sans-Serif" font-size="10.00">net/ClientSocket.h</text>
</a>
</g>
</g>
<!-- Node1&#45;&gt;Node2 -->
<g id="edge1" class="edge">
<title>Node1&#45;&gt;Node2</title>
<path fill="none" stroke="midnightblue" d="M107.9,-168.32C98.04,-160.26 83.15,-148.08 71.28,-138.37"/>
<polygon fill="midnightblue" stroke="midnightblue" points="73.25,-135.46 63.3,-131.83 68.82,-140.88 73.25,-135.46"/>
</g>
<!-- Node3 -->
<g id="node3" class="node">
<title>Node3</title>
<g id="a_node3"><a xlink:href="net_2rf_2stream_2_socket_8h.html" target="_top" xlink:title=" ">
<polygon fill="white" stroke="black" points="123,-112.5 123,-131.5 248,-131.5 248,-112.5 123,-112.5"/>
<text text-anchor="middle" x="185.5" y="-119.5" font-family="Helvetica,sans-Serif" font-size="10.00">net/rf/stream/Socket.h</text>
</a>
</g>
</g>
<!-- Node1&#45;&gt;Node3 -->
<g id="edge2" class="edge">
<title>Node1&#45;&gt;Node3</title>
<path fill="none" stroke="midnightblue" d="M129.26,-168.32C139.27,-160.26 154.39,-148.08 166.43,-138.37"/>
<polygon fill="midnightblue" stroke="midnightblue" points="168.95,-140.83 174.54,-131.83 164.56,-135.38 168.95,-140.83"/>
</g>
<!-- Node4 -->
<g id="node4" class="node">
<title>Node4</title>
<g id="a_node4"><a xlink:href="core_2socket_2_socket_8h.html" target="_top" xlink:title=" ">
<polygon fill="white" stroke="black" points="56.5,-56.5 56.5,-75.5 172.5,-75.5 172.5,-56.5 56.5,-56.5"/>
<text text-anchor="middle" x="114.5" y="-63.5" font-family="Helvetica,sans-Serif" font-size="10.00">core/socket/Socket.h</text>
</a>
</g>
</g>
<!-- Node3&#45;&gt;Node4 -->
<g id="edge3" class="edge">
<title>Node3&#45;&gt;Node4</title>
<path fill="none" stroke="midnightblue" d="M174.09,-112.32C163.39,-104.18 147.16,-91.84 134.34,-82.09"/>
<polygon fill="midnightblue" stroke="midnightblue" points="136.19,-79.1 126.11,-75.83 131.96,-84.67 136.19,-79.1"/>
</g>
<!-- Node6 -->
<g id="node6" class="node">
<title>Node6</title>
<g id="a_node6"><a xlink:href="net_2rf_2_socket_address_8h.html" target="_top" xlink:title=" ">
<polygon fill="white" stroke="black" points="192.5,-56.5 192.5,-75.5 318.5,-75.5 318.5,-56.5 192.5,-56.5"/>
<text text-anchor="middle" x="255.5" y="-63.5" font-family="Helvetica,sans-Serif" font-size="10.00">net/rf/SocketAddress.h</text>
</a>
</g>
</g>
<!-- Node3&#45;&gt;Node6 -->
<g id="edge5" class="edge">
<title>Node3&#45;&gt;Node6</title>
<path fill="none" stroke="midnightblue" d="M196.75,-112.32C207.3,-104.18 223.3,-91.84 235.94,-82.09"/>
<polygon fill="midnightblue" stroke="midnightblue" points="238.27,-84.71 244.05,-75.83 233.99,-79.17 238.27,-84.71"/>
</g>
<!-- Node5 -->
<g id="node5" class="node">
<title>Node5</title>
<g id="a_node5"><a xlink:href="_descriptor_8h.html" target="_top" xlink:title=" ">
<polygon fill="white" stroke="black" points="61.5,-0.5 61.5,-19.5 161.5,-19.5 161.5,-0.5 61.5,-0.5"/>
<text text-anchor="middle" x="111.5" y="-7.5" font-family="Helvetica,sans-Serif" font-size="10.00">core/Descriptor.h</text>
</a>
</g>
</g>
<!-- Node4&#45;&gt;Node5 -->
<g id="edge4" class="edge">
<title>Node4&#45;&gt;Node5</title>
<path fill="none" stroke="midnightblue" d="M114,-56.08C113.61,-49.01 113.05,-38.86 112.55,-29.99"/>
<polygon fill="midnightblue" stroke="midnightblue" points="116.04,-29.54 111.99,-19.75 109.05,-29.93 116.04,-29.54"/>
</g>
<!-- Node7 -->
<g id="node7" class="node">
<title>Node7</title>
<g id="a_node7"><a xlink:href="core_2socket_2_socket_address_8h.html" target="_top" xlink:title=" ">
<polygon fill="white" stroke="black" points="180,-0.5 180,-19.5 335,-19.5 335,-0.5 180,-0.5"/>
<text text-anchor="middle" x="257.5" y="-7.5" font-family="Helvetica,sans-Serif" font-size="10.00">core/socket/SocketAddress.h</text>
</a>
</g>
</g>
<!-- Node6&#45;&gt;Node7 -->
<g id="edge6" class="edge">
<title>Node6&#45;&gt;Node7</title>
<path fill="none" stroke="midnightblue" d="M255.83,-56.08C256.09,-49.01 256.47,-38.86 256.8,-29.99"/>
<polygon fill="midnightblue" stroke="midnightblue" points="260.3,-29.87 257.18,-19.75 253.31,-29.61 260.3,-29.87"/>
</g>
</g>
</svg>
