<?xml version="1.0" encoding="UTF-8" standalone="no"?>
<!DOCTYPE svg PUBLIC "-//W3C//DTD SVG 1.1//EN"
 "http://www.w3.org/Graphics/SVG/1.1/DTD/svg11.dtd">
<!-- Generated by graphviz version 2.43.0 (0)
 -->
<!-- Title: core/system/select.h Pages: 1 -->
<svg width="1171pt" height="207pt"
 viewBox="0.00 0.00 1170.50 207.00" xmlns="http://www.w3.org/2000/svg" xmlns:xlink="http://www.w3.org/1999/xlink">
<g id="graph0" class="graph" transform="scale(1 1) rotate(0) translate(4 203)">
<title>core/system/select.h</title>
<polygon fill="white" stroke="transparent" points="-4,4 -4,-203 1166.5,-203 1166.5,4 -4,4"/>
<!-- Node1 -->
<g id="node1" class="node">
<title>Node1</title>
<g id="a_node1"><a xlink:title=" ">
<polygon fill="#bfbfbf" stroke="black" points="961,-179.5 961,-198.5 1069,-198.5 1069,-179.5 961,-179.5"/>
<text text-anchor="middle" x="1015" y="-186.5" font-family="Helvetica,sans-Serif" font-size="10.00">core/system/select.h</text>
</a>
</g>
</g>
<!-- Node2 -->
<g id="node2" class="node">
<title>Node2</title>
<g id="a_node2"><a xlink:href="_event_dispatcher_8h.html" target="_top" xlink:title=" ">
<polygon fill="white" stroke="black" points="709.5,-123.5 709.5,-142.5 828.5,-142.5 828.5,-123.5 709.5,-123.5"/>
<text text-anchor="middle" x="769" y="-130.5" font-family="Helvetica,sans-Serif" font-size="10.00">core/EventDispatcher.h</text>
</a>
</g>
</g>
<!-- Node1&#45;&gt;Node2 -->
<g id="edge1" class="edge">
<title>Node1&#45;&gt;Node2</title>
<path fill="none" stroke="midnightblue" d="M966.17,-177.28C919.68,-167.08 850.64,-151.92 807.8,-142.52"/>
<polygon fill="midnightblue" stroke="midnightblue" points="965.5,-180.72 976.02,-179.44 967,-173.88 965.5,-180.72"/>
</g>
<!-- Node7 -->
<g id="node7" class="node">
<title>Node7</title>
<g id="a_node7"><a xlink:href="_event_loop_8cpp.html" target="_top" xlink:title=" ">
<polygon fill="white" stroke="black" points="1058,-6 1058,-25 1162,-25 1162,-6 1058,-6"/>
<text text-anchor="middle" x="1110" y="-13" font-family="Helvetica,sans-Serif" font-size="10.00">core/EventLoop.cpp</text>
</a>
</g>
</g>
<!-- Node1&#45;&gt;Node7 -->
<g id="edge13" class="edge">
<title>Node1&#45;&gt;Node7</title>
<path fill="none" stroke="midnightblue" d="M1018.7,-169.36C1021.76,-156.02 1026.78,-137.87 1034,-123 1053.25,-83.36 1086.97,-42.64 1102.17,-25.24"/>
<polygon fill="midnightblue" stroke="midnightblue" points="1015.25,-168.74 1016.59,-179.25 1022.1,-170.2 1015.25,-168.74"/>
</g>
<!-- Node14 -->
<g id="node14" class="node">
<title>Node14</title>
<g id="a_node14"><a xlink:href="select_8cpp.html" target="_top" xlink:title=" ">
<polygon fill="white" stroke="black" points="1043.5,-123.5 1043.5,-142.5 1162.5,-142.5 1162.5,-123.5 1043.5,-123.5"/>
<text text-anchor="middle" x="1103" y="-130.5" font-family="Helvetica,sans-Serif" font-size="10.00">core/system/select.cpp</text>
</a>
</g>
</g>
<!-- Node1&#45;&gt;Node14 -->
<g id="edge14" class="edge">
<title>Node1&#45;&gt;Node14</title>
<path fill="none" stroke="midnightblue" d="M1037.98,-173.9C1054.11,-164 1075.18,-151.07 1088.9,-142.65"/>
<polygon fill="midnightblue" stroke="midnightblue" points="1035.83,-171.11 1029.14,-179.32 1039.49,-177.08 1035.83,-171.11"/>
</g>
<!-- Node3 -->
<g id="node3" class="node">
<title>Node3</title>
<g id="a_node3"><a xlink:href="_event_dispatcher_8cpp.html" target="_top" xlink:title=" ">
<polygon fill="white" stroke="black" points="512.5,-67.5 512.5,-86.5 641.5,-86.5 641.5,-67.5 512.5,-67.5"/>
<text text-anchor="middle" x="577" y="-74.5" font-family="Helvetica,sans-Serif" font-size="10.00">core/EventDispatcher.cpp</text>
</a>
</g>
</g>
<!-- Node2&#45;&gt;Node3 -->
<g id="edge2" class="edge">
<title>Node2&#45;&gt;Node3</title>
<path fill="none" stroke="midnightblue" d="M728.82,-120.7C692.58,-110.51 640.09,-95.74 607.28,-86.52"/>
<polygon fill="midnightblue" stroke="midnightblue" points="728,-124.11 738.58,-123.44 729.9,-117.37 728,-124.11"/>
</g>
<!-- Node4 -->
<g id="node4" class="node">
<title>Node4</title>
<g id="a_node4"><a xlink:href="_event_loop_8h.html" target="_top" xlink:title=" ">
<polygon fill="white" stroke="black" points="659.5,-67.5 659.5,-86.5 752.5,-86.5 752.5,-67.5 659.5,-67.5"/>
<text text-anchor="middle" x="706" y="-74.5" font-family="Helvetica,sans-Serif" font-size="10.00">core/EventLoop.h</text>
</a>
</g>
</g>
<!-- Node2&#45;&gt;Node4 -->
<g id="edge3" class="edge">
<title>Node2&#45;&gt;Node4</title>
<path fill="none" stroke="midnightblue" d="M750.96,-116.54C739.73,-106.91 725.68,-94.87 716.31,-86.83"/>
<polygon fill="midnightblue" stroke="midnightblue" points="749.01,-119.47 758.88,-123.32 753.56,-114.16 749.01,-119.47"/>
</g>
<!-- Node13 -->
<g id="node13" class="node">
<title>Node13</title>
<g id="a_node13"><a xlink:href="_event_receiver_8cpp.html" target="_top" xlink:title=" ">
<polygon fill="white" stroke="black" points="770.5,-67.5 770.5,-86.5 891.5,-86.5 891.5,-67.5 770.5,-67.5"/>
<text text-anchor="middle" x="831" y="-74.5" font-family="Helvetica,sans-Serif" font-size="10.00">core/EventReceiver.cpp</text>
</a>
</g>
</g>
<!-- Node2&#45;&gt;Node13 -->
<g id="edge12" class="edge">
<title>Node2&#45;&gt;Node13</title>
<path fill="none" stroke="midnightblue" d="M786.75,-116.54C797.81,-106.91 811.63,-94.87 820.86,-86.83"/>
<polygon fill="midnightblue" stroke="midnightblue" points="784.2,-114.12 778.96,-123.32 788.8,-119.4 784.2,-114.12"/>
</g>
<!-- Node5 -->
<g id="node5" class="node">
<title>Node5</title>
<g id="a_node5"><a xlink:href="_accept_event_receiver_8cpp.html" target="_top" xlink:title=" ">
<polygon fill="white" stroke="black" points="0,-6 0,-25 152,-25 152,-6 0,-6"/>
<text text-anchor="middle" x="76" y="-13" font-family="Helvetica,sans-Serif" font-size="10.00">core/AcceptEventReceiver.cpp</text>
</a>
</g>
</g>
<!-- Node4&#45;&gt;Node5 -->
<g id="edge4" class="edge">
<title>Node4&#45;&gt;Node5</title>
<path fill="none" stroke="midnightblue" d="M649.16,-67.01C431.81,-42.15 374.05,-56.95 161,-31 148.07,-29.43 134.11,-27.25 121.32,-25.06"/>
<polygon fill="midnightblue" stroke="midnightblue" points="648.95,-70.51 659.29,-68.19 649.76,-63.56 648.95,-70.51"/>
</g>
<!-- Node6 -->
<g id="node6" class="node">
<title>Node6</title>
<g id="a_node6"><a xlink:href="_connect_event_receiver_8cpp.html" target="_top" xlink:title=" ">
<polygon fill="white" stroke="black" points="170,-6 170,-25 328,-25 328,-6 170,-6"/>
<text text-anchor="middle" x="249" y="-13" font-family="Helvetica,sans-Serif" font-size="10.00">core/ConnectEventReceiver.cpp</text>
</a>
</g>
</g>
<!-- Node4&#45;&gt;Node6 -->
<g id="edge5" class="edge">
<title>Node4&#45;&gt;Node6</title>
<path fill="none" stroke="midnightblue" d="M649.05,-66.93C509.56,-47.99 472.43,-49.93 337,-31 324.43,-29.24 310.88,-27.12 298.27,-25.05"/>
<polygon fill="midnightblue" stroke="midnightblue" points="648.89,-70.44 659.27,-68.33 649.84,-63.5 648.89,-70.44"/>
</g>
<!-- Node4&#45;&gt;Node7 -->
<g id="edge6" class="edge">
<title>Node4&#45;&gt;Node7</title>
<path fill="none" stroke="midnightblue" d="M762.91,-66.77C889.98,-48.86 924.67,-53.09 1048,-31 1057.25,-29.34 1067.19,-27.19 1076.35,-25.05"/>
<polygon fill="midnightblue" stroke="midnightblue" points="762.19,-63.34 752.79,-68.22 763.18,-70.27 762.19,-63.34"/>
</g>
<!-- Node8 -->
<g id="node8" class="node">
<title>Node8</title>
<g id="a_node8"><a xlink:href="_exceptional_condition_event_receiver_8cpp.html" target="_top" xlink:title=" ">
<polygon fill="white" stroke="black" points="346.5,-0.5 346.5,-30.5 477.5,-30.5 477.5,-0.5 346.5,-0.5"/>
<text text-anchor="start" x="354.5" y="-18.5" font-family="Helvetica,sans-Serif" font-size="10.00">core/ExceptionalCondition</text>
<text text-anchor="middle" x="412" y="-7.5" font-family="Helvetica,sans-Serif" font-size="10.00">EventReceiver.cpp</text>
</a>
</g>
</g>
<!-- Node4&#45;&gt;Node8 -->
<g id="edge7" class="edge">
<title>Node4&#45;&gt;Node8</title>
<path fill="none" stroke="midnightblue" d="M653.77,-65.43C604.6,-55.48 530.77,-40.54 477.64,-29.78"/>
<polygon fill="midnightblue" stroke="midnightblue" points="653.38,-68.92 663.88,-67.48 654.77,-62.06 653.38,-68.92"/>
</g>
<!-- Node9 -->
<g id="node9" class="node">
<title>Node9</title>
<g id="a_node9"><a xlink:href="_read_event_receiver_8cpp.html" target="_top" xlink:title=" ">
<polygon fill="white" stroke="black" points="496,-6 496,-25 640,-25 640,-6 496,-6"/>
<text text-anchor="middle" x="568" y="-13" font-family="Helvetica,sans-Serif" font-size="10.00">core/ReadEventReceiver.cpp</text>
</a>
</g>
</g>
<!-- Node4&#45;&gt;Node9 -->
<g id="edge8" class="edge">
<title>Node4&#45;&gt;Node9</title>
<path fill="none" stroke="midnightblue" d="M676.96,-63.48C650.16,-51.92 611.08,-35.08 587.74,-25.01"/>
<polygon fill="midnightblue" stroke="midnightblue" points="675.66,-66.73 686.23,-67.48 678.43,-60.3 675.66,-66.73"/>
</g>
<!-- Node10 -->
<g id="node10" class="node">
<title>Node10</title>
<g id="a_node10"><a xlink:href="_s_node_c_8cpp.html" target="_top" xlink:title=" ">
<polygon fill="white" stroke="black" points="658.5,-6 658.5,-25 753.5,-25 753.5,-6 658.5,-6"/>
<text text-anchor="middle" x="706" y="-13" font-family="Helvetica,sans-Serif" font-size="10.00">core/SNodeC.cpp</text>
</a>
</g>
</g>
<!-- Node4&#45;&gt;Node10 -->
<g id="edge9" class="edge">
<title>Node4&#45;&gt;Node10</title>
<path fill="none" stroke="midnightblue" d="M706,-57.32C706,-46.5 706,-33.4 706,-25.01"/>
<polygon fill="midnightblue" stroke="midnightblue" points="702.5,-57.48 706,-67.48 709.5,-57.48 702.5,-57.48"/>
</g>
<!-- Node11 -->
<g id="node11" class="node">
<title>Node11</title>
<g id="a_node11"><a xlink:href="_timer_8cpp.html" target="_top" xlink:title=" ">
<polygon fill="white" stroke="black" points="772,-6 772,-25 878,-25 878,-6 772,-6"/>
<text text-anchor="middle" x="825" y="-13" font-family="Helvetica,sans-Serif" font-size="10.00">core/timer/Timer.cpp</text>
</a>
</g>
</g>
<!-- Node4&#45;&gt;Node11 -->
<g id="edge10" class="edge">
<title>Node4&#45;&gt;Node11</title>
<path fill="none" stroke="midnightblue" d="M732.27,-62.87C755.33,-51.33 788.2,-34.9 807.98,-25.01"/>
<polygon fill="midnightblue" stroke="midnightblue" points="730.43,-59.87 723.05,-67.48 733.56,-66.13 730.43,-59.87"/>
</g>
<!-- Node12 -->
<g id="node12" class="node">
<title>Node12</title>
<g id="a_node12"><a xlink:href="_write_event_receiver_8cpp.html" target="_top" xlink:title=" ">
<polygon fill="white" stroke="black" points="896.5,-6 896.5,-25 1039.5,-25 1039.5,-6 896.5,-6"/>
<text text-anchor="middle" x="968" y="-13" font-family="Helvetica,sans-Serif" font-size="10.00">core/WriteEventReceiver.cpp</text>
</a>
</g>
</g>
<!-- Node4&#45;&gt;Node12 -->
<g id="edge11" class="edge">
<title>Node4&#45;&gt;Node12</title>
<path fill="none" stroke="midnightblue" d="M753.3,-65.26C804.12,-53.72 883.87,-35.61 930.53,-25.01"/>
<polygon fill="midnightblue" stroke="midnightblue" points="752.51,-61.85 743.54,-67.48 754.07,-68.67 752.51,-61.85"/>
</g>
</g>
</svg>
