<?xml version="1.0" encoding="UTF-8" standalone="no"?>
<!DOCTYPE svg PUBLIC "-//W3C//DTD SVG 1.1//EN"
 "http://www.w3.org/Graphics/SVG/1.1/DTD/svg11.dtd">
<!-- Generated by graphviz version 2.43.0 (0)
 -->
<!-- Title: core/select/DescriptorEventDispatcher.cpp Pages: 1 -->
<svg width="312pt" height="162pt"
 viewBox="0.00 0.00 312.00 162.00" xmlns="http://www.w3.org/2000/svg" xmlns:xlink="http://www.w3.org/1999/xlink">
<g id="graph0" class="graph" transform="scale(1 1) rotate(0) translate(4 158)">
<title>core/select/DescriptorEventDispatcher.cpp</title>
<polygon fill="white" stroke="transparent" points="-4,4 -4,-158 308,-158 308,4 -4,4"/>
<!-- Node1 -->
<g id="node1" class="node">
<title>Node1</title>
<g id="a_node1"><a xlink:title=" ">
<polygon fill="#bfbfbf" stroke="black" points="91.5,-123.5 91.5,-153.5 242.5,-153.5 242.5,-123.5 91.5,-123.5"/>
<text text-anchor="start" x="99.5" y="-141.5" font-family="Helvetica,sans-Serif" font-size="10.00">core/select/DescriptorEvent</text>
<text text-anchor="middle" x="167" y="-130.5" font-family="Helvetica,sans-Serif" font-size="10.00">Dispatcher.cpp</text>
</a>
</g>
</g>
<!-- Node2 -->
<g id="node2" class="node">
<title>Node2</title>
<g id="a_node2"><a xlink:href="select_2_descriptor_event_dispatcher_8h.html" target="_top" xlink:title=" ">
<polygon fill="white" stroke="black" points="14.5,-56.5 14.5,-86.5 165.5,-86.5 165.5,-56.5 14.5,-56.5"/>
<text text-anchor="start" x="22.5" y="-74.5" font-family="Helvetica,sans-Serif" font-size="10.00">core/select/DescriptorEvent</text>
<text text-anchor="middle" x="90" y="-63.5" font-family="Helvetica,sans-Serif" font-size="10.00">Dispatcher.h</text>
</a>
</g>
</g>
<!-- Node1&#45;&gt;Node2 -->
<g id="edge1" class="edge">
<title>Node1&#45;&gt;Node2</title>
<path fill="none" stroke="midnightblue" d="M150.29,-123.4C139.8,-114.54 126.08,-102.96 114.39,-93.09"/>
<polygon fill="midnightblue" stroke="midnightblue" points="116.57,-90.35 106.68,-86.58 112.06,-95.7 116.57,-90.35"/>
</g>
<!-- Node4 -->
<g id="node4" class="node">
<title>Node4</title>
<g id="a_node4"><a xlink:href="_event_receiver_8h.html" target="_top" xlink:title=" ">
<polygon fill="white" stroke="black" points="184,-62 184,-81 304,-81 304,-62 184,-62"/>
<text text-anchor="middle" x="244" y="-69" font-family="Helvetica,sans-Serif" font-size="10.00">core/EventReceiver.h</text>
</a>
</g>
</g>
<!-- Node1&#45;&gt;Node4 -->
<g id="edge3" class="edge">
<title>Node1&#45;&gt;Node4</title>
<path fill="none" stroke="midnightblue" d="M183.71,-123.4C196.19,-112.86 213.23,-98.48 226.01,-87.69"/>
<polygon fill="midnightblue" stroke="midnightblue" points="228.32,-90.32 233.7,-81.19 223.8,-84.97 228.32,-90.32"/>
</g>
<!-- Node3 -->
<g id="node3" class="node">
<title>Node3</title>
<g id="a_node3"><a xlink:href="_descriptor_event_dispatcher_8h.html" target="_top" xlink:title=" ">
<polygon fill="white" stroke="black" points="0,-0.5 0,-19.5 180,-19.5 180,-0.5 0,-0.5"/>
<text text-anchor="middle" x="90" y="-7.5" font-family="Helvetica,sans-Serif" font-size="10.00">core/DescriptorEventDispatcher.h</text>
</a>
</g>
</g>
<!-- Node2&#45;&gt;Node3 -->
<g id="edge2" class="edge">
<title>Node2&#45;&gt;Node3</title>
<path fill="none" stroke="midnightblue" d="M90,-56.4C90,-48.47 90,-38.46 90,-29.86"/>
<polygon fill="midnightblue" stroke="midnightblue" points="93.5,-29.66 90,-19.66 86.5,-29.66 93.5,-29.66"/>
</g>
</g>
</svg>
