<?xml version="1.0" encoding="UTF-8" standalone="no"?>
<!DOCTYPE svg PUBLIC "-//W3C//DTD SVG 1.1//EN"
 "http://www.w3.org/Graphics/SVG/1.1/DTD/svg11.dtd">
<!-- Generated by graphviz version 2.43.0 (0)
 -->
<!-- Title: core/socket/stream/tls/SocketConnection.h Pages: 1 -->
<svg width="698pt" height="397pt"
 viewBox="0.00 0.00 697.50 397.00" xmlns="http://www.w3.org/2000/svg" xmlns:xlink="http://www.w3.org/1999/xlink">
<g id="graph0" class="graph" transform="scale(1 1) rotate(0) translate(4 393)">
<title>core/socket/stream/tls/SocketConnection.h</title>
<polygon fill="white" stroke="transparent" points="-4,4 -4,-393 693.5,-393 693.5,4 -4,4"/>
<!-- Node1 -->
<g id="node1" class="node">
<title>Node1</title>
<g id="a_node1"><a xlink:title=" ">
<polygon fill="#bfbfbf" stroke="black" points="265,-358.5 265,-388.5 396,-388.5 396,-358.5 265,-358.5"/>
<text text-anchor="start" x="273" y="-376.5" font-family="Helvetica,sans-Serif" font-size="10.00">core/socket/stream</text>
<text text-anchor="middle" x="330.5" y="-365.5" font-family="Helvetica,sans-Serif" font-size="10.00">/tls/SocketConnection.h</text>
</a>
</g>
</g>
<!-- Node2 -->
<g id="node2" class="node">
<title>Node2</title>
<g id="a_node2"><a xlink:href="stream_2_socket_connection_8h.html" target="_top" xlink:title=" ">
<polygon fill="white" stroke="black" points="64.5,-291.5 64.5,-321.5 180.5,-321.5 180.5,-291.5 64.5,-291.5"/>
<text text-anchor="start" x="72.5" y="-309.5" font-family="Helvetica,sans-Serif" font-size="10.00">core/socket/stream</text>
<text text-anchor="middle" x="122.5" y="-298.5" font-family="Helvetica,sans-Serif" font-size="10.00">/SocketConnection.h</text>
</a>
</g>
</g>
<!-- Node1&#45;&gt;Node2 -->
<g id="edge1" class="edge">
<title>Node1&#45;&gt;Node2</title>
<path fill="none" stroke="midnightblue" d="M285.62,-358.48C253.88,-348.56 211.14,-335.2 177.37,-324.65"/>
<polygon fill="midnightblue" stroke="midnightblue" points="178.24,-321.25 167.65,-321.61 176.16,-327.93 178.24,-321.25"/>
</g>
<!-- Node4 -->
<g id="node4" class="node">
<title>Node4</title>
<g id="a_node4"><a xlink:href="tls_2_socket_reader_8h.html" target="_top" xlink:title=" ">
<polygon fill="white" stroke="black" points="234.5,-291.5 234.5,-321.5 344.5,-321.5 344.5,-291.5 234.5,-291.5"/>
<text text-anchor="start" x="242.5" y="-309.5" font-family="Helvetica,sans-Serif" font-size="10.00">core/socket/stream</text>
<text text-anchor="middle" x="289.5" y="-298.5" font-family="Helvetica,sans-Serif" font-size="10.00">/tls/SocketReader.h</text>
</a>
</g>
</g>
<!-- Node1&#45;&gt;Node4 -->
<g id="edge3" class="edge">
<title>Node1&#45;&gt;Node4</title>
<path fill="none" stroke="midnightblue" d="M321.6,-358.4C316.39,-350.13 309.69,-339.51 303.76,-330.1"/>
<polygon fill="midnightblue" stroke="midnightblue" points="306.67,-328.17 298.38,-321.58 300.75,-331.9 306.67,-328.17"/>
</g>
<!-- Node12 -->
<g id="node12" class="node">
<title>Node12</title>
<g id="a_node12"><a xlink:href="tls_2_socket_writer_8h.html" target="_top" xlink:title=" ">
<polygon fill="white" stroke="black" points="448.5,-291.5 448.5,-321.5 558.5,-321.5 558.5,-291.5 448.5,-291.5"/>
<text text-anchor="start" x="456.5" y="-309.5" font-family="Helvetica,sans-Serif" font-size="10.00">core/socket/stream</text>
<text text-anchor="middle" x="503.5" y="-298.5" font-family="Helvetica,sans-Serif" font-size="10.00">/tls/SocketWriter.h</text>
</a>
</g>
</g>
<!-- Node1&#45;&gt;Node12 -->
<g id="edge13" class="edge">
<title>Node1&#45;&gt;Node12</title>
<path fill="none" stroke="midnightblue" d="M368.04,-358.4C394,-348.64 428.72,-335.59 456.52,-325.15"/>
<polygon fill="midnightblue" stroke="midnightblue" points="457.9,-328.37 466.03,-321.58 455.44,-321.82 457.9,-328.37"/>
</g>
<!-- Node14 -->
<g id="node14" class="node">
<title>Node14</title>
<g id="a_node14"><a xlink:href="_t_l_s_shutdown_8h.html" target="_top" xlink:title=" ">
<polygon fill="white" stroke="black" points="317.5,-224.5 317.5,-254.5 427.5,-254.5 427.5,-224.5 317.5,-224.5"/>
<text text-anchor="start" x="325.5" y="-242.5" font-family="Helvetica,sans-Serif" font-size="10.00">core/socket/stream</text>
<text text-anchor="middle" x="372.5" y="-231.5" font-family="Helvetica,sans-Serif" font-size="10.00">/tls/TLSShutdown.h</text>
</a>
</g>
</g>
<!-- Node1&#45;&gt;Node14 -->
<g id="edge17" class="edge">
<title>Node1&#45;&gt;Node14</title>
<path fill="none" stroke="midnightblue" d="M337.92,-358.22C342.87,-348.28 349.21,-334.59 353.5,-322 359.95,-303.05 364.97,-280.88 368.22,-264.45"/>
<polygon fill="midnightblue" stroke="midnightblue" points="371.66,-265.06 370.1,-254.58 364.79,-263.75 371.66,-265.06"/>
</g>
<!-- Node3 -->
<g id="node3" class="node">
<title>Node3</title>
<g id="a_node3"><a xlink:href="_socket_connection_8h.html" target="_top" xlink:title=" ">
<polygon fill="white" stroke="black" points="0,-230 0,-249 171,-249 171,-230 0,-230"/>
<text text-anchor="middle" x="85.5" y="-237" font-family="Helvetica,sans-Serif" font-size="10.00">core/socket/SocketConnection.h</text>
</a>
</g>
</g>
<!-- Node2&#45;&gt;Node3 -->
<g id="edge2" class="edge">
<title>Node2&#45;&gt;Node3</title>
<path fill="none" stroke="midnightblue" d="M114.47,-291.4C108.87,-281.56 101.37,-268.38 95.4,-257.89"/>
<polygon fill="midnightblue" stroke="midnightblue" points="98.44,-256.15 90.45,-249.19 92.35,-259.62 98.44,-256.15"/>
</g>
<!-- Node5 -->
<g id="node5" class="node">
<title>Node5</title>
<g id="a_node5"><a xlink:href="_socket_reader_8h.html" target="_top" xlink:title=" ">
<polygon fill="white" stroke="black" points="189.5,-224.5 189.5,-254.5 299.5,-254.5 299.5,-224.5 189.5,-224.5"/>
<text text-anchor="start" x="197.5" y="-242.5" font-family="Helvetica,sans-Serif" font-size="10.00">core/socket/stream</text>
<text text-anchor="middle" x="244.5" y="-231.5" font-family="Helvetica,sans-Serif" font-size="10.00">/SocketReader.h</text>
</a>
</g>
</g>
<!-- Node4&#45;&gt;Node5 -->
<g id="edge4" class="edge">
<title>Node4&#45;&gt;Node5</title>
<path fill="none" stroke="midnightblue" d="M279.74,-291.4C273.96,-283.05 266.51,-272.29 259.95,-262.81"/>
<polygon fill="midnightblue" stroke="midnightblue" points="262.82,-260.81 254.25,-254.58 257.06,-264.79 262.82,-260.81"/>
</g>
<!-- Node10 -->
<g id="node10" class="node">
<title>Node10</title>
<g id="a_node10"><a xlink:href="_t_l_s_handshake_8h.html" target="_top" xlink:title=" ">
<polygon fill="white" stroke="black" points="446,-224.5 446,-254.5 561,-254.5 561,-224.5 446,-224.5"/>
<text text-anchor="start" x="454" y="-242.5" font-family="Helvetica,sans-Serif" font-size="10.00">core/socket/stream</text>
<text text-anchor="middle" x="503.5" y="-231.5" font-family="Helvetica,sans-Serif" font-size="10.00">/tls/TLSHandshake.h</text>
</a>
</g>
</g>
<!-- Node4&#45;&gt;Node10 -->
<g id="edge9" class="edge">
<title>Node4&#45;&gt;Node10</title>
<path fill="none" stroke="midnightblue" d="M335.67,-291.48C368.33,-281.56 412.3,-268.2 447.04,-257.65"/>
<polygon fill="midnightblue" stroke="midnightblue" points="448.49,-260.87 457.04,-254.61 446.46,-254.17 448.49,-260.87"/>
</g>
<!-- Node6 -->
<g id="node6" class="node">
<title>Node6</title>
<g id="a_node6"><a xlink:href="_read_event_receiver_8h.html" target="_top" xlink:title=" ">
<polygon fill="white" stroke="black" points="283,-168.5 283,-187.5 428,-187.5 428,-168.5 283,-168.5"/>
<text text-anchor="middle" x="355.5" y="-175.5" font-family="Helvetica,sans-Serif" font-size="10.00">core/ReadEventReceiver.h</text>
</a>
</g>
</g>
<!-- Node5&#45;&gt;Node6 -->
<g id="edge5" class="edge">
<title>Node5&#45;&gt;Node6</title>
<path fill="none" stroke="midnightblue" d="M270.81,-224.4C288.76,-214.77 312.42,-202.09 330.17,-192.58"/>
<polygon fill="midnightblue" stroke="midnightblue" points="332.19,-195.47 339.35,-187.66 328.88,-189.3 332.19,-195.47"/>
</g>
<!-- Node7 -->
<g id="node7" class="node">
<title>Node7</title>
<g id="a_node7"><a xlink:href="_descriptor_event_receiver_8h.html" target="_top" xlink:title=" ">
<polygon fill="white" stroke="black" points="352.5,-112.5 352.5,-131.5 522.5,-131.5 522.5,-112.5 352.5,-112.5"/>
<text text-anchor="middle" x="437.5" y="-119.5" font-family="Helvetica,sans-Serif" font-size="10.00">core/DescriptorEventReceiver.h</text>
</a>
</g>
</g>
<!-- Node6&#45;&gt;Node7 -->
<g id="edge6" class="edge">
<title>Node6&#45;&gt;Node7</title>
<path fill="none" stroke="midnightblue" d="M368.67,-168.32C381.35,-159.98 400.73,-147.21 415.71,-137.35"/>
<polygon fill="midnightblue" stroke="midnightblue" points="417.93,-140.08 424.36,-131.65 414.08,-134.23 417.93,-140.08"/>
</g>
<!-- Node8 -->
<g id="node8" class="node">
<title>Node8</title>
<g id="a_node8"><a xlink:href="_event_receiver_8h.html" target="_top" xlink:title=" ">
<polygon fill="white" stroke="black" points="377.5,-56.5 377.5,-75.5 497.5,-75.5 497.5,-56.5 377.5,-56.5"/>
<text text-anchor="middle" x="437.5" y="-63.5" font-family="Helvetica,sans-Serif" font-size="10.00">core/EventReceiver.h</text>
</a>
</g>
</g>
<!-- Node7&#45;&gt;Node8 -->
<g id="edge7" class="edge">
<title>Node7&#45;&gt;Node8</title>
<path fill="none" stroke="midnightblue" d="M437.5,-112.08C437.5,-105.01 437.5,-94.86 437.5,-85.99"/>
<polygon fill="midnightblue" stroke="midnightblue" points="441,-85.75 437.5,-75.75 434,-85.75 441,-85.75"/>
</g>
<!-- Node9 -->
<g id="node9" class="node">
<title>Node9</title>
<g id="a_node9"><a xlink:href="_event_8h.html" target="_top" xlink:title=" ">
<polygon fill="white" stroke="black" points="399,-0.5 399,-19.5 476,-19.5 476,-0.5 399,-0.5"/>
<text text-anchor="middle" x="437.5" y="-7.5" font-family="Helvetica,sans-Serif" font-size="10.00">core/Event.h</text>
</a>
</g>
</g>
<!-- Node8&#45;&gt;Node9 -->
<g id="edge8" class="edge">
<title>Node8&#45;&gt;Node9</title>
<path fill="none" stroke="midnightblue" d="M437.5,-56.08C437.5,-49.01 437.5,-38.86 437.5,-29.99"/>
<polygon fill="midnightblue" stroke="midnightblue" points="441,-29.75 437.5,-19.75 434,-29.75 441,-29.75"/>
</g>
<!-- Node10&#45;&gt;Node6 -->
<g id="edge10" class="edge">
<title>Node10&#45;&gt;Node6</title>
<path fill="none" stroke="midnightblue" d="M468.43,-224.4C443.48,-214.37 410.29,-201.03 386.36,-191.4"/>
<polygon fill="midnightblue" stroke="midnightblue" points="387.62,-188.14 377.04,-187.66 385.01,-194.64 387.62,-188.14"/>
</g>
<!-- Node11 -->
<g id="node11" class="node">
<title>Node11</title>
<g id="a_node11"><a xlink:href="_write_event_receiver_8h.html" target="_top" xlink:title=" ">
<polygon fill="white" stroke="black" points="446.5,-168.5 446.5,-187.5 592.5,-187.5 592.5,-168.5 446.5,-168.5"/>
<text text-anchor="middle" x="519.5" y="-175.5" font-family="Helvetica,sans-Serif" font-size="10.00">core/WriteEventReceiver.h</text>
</a>
</g>
</g>
<!-- Node10&#45;&gt;Node11 -->
<g id="edge11" class="edge">
<title>Node10&#45;&gt;Node11</title>
<path fill="none" stroke="midnightblue" d="M507.29,-224.4C509.45,-216.38 512.18,-206.23 514.51,-197.57"/>
<polygon fill="midnightblue" stroke="midnightblue" points="517.95,-198.22 517.17,-187.66 511.2,-196.41 517.95,-198.22"/>
</g>
<!-- Node11&#45;&gt;Node7 -->
<g id="edge12" class="edge">
<title>Node11&#45;&gt;Node7</title>
<path fill="none" stroke="midnightblue" d="M506.33,-168.32C493.65,-159.98 474.27,-147.21 459.29,-137.35"/>
<polygon fill="midnightblue" stroke="midnightblue" points="460.92,-134.23 450.64,-131.65 457.07,-140.08 460.92,-134.23"/>
</g>
<!-- Node12&#45;&gt;Node10 -->
<g id="edge16" class="edge">
<title>Node12&#45;&gt;Node10</title>
<path fill="none" stroke="midnightblue" d="M503.5,-291.4C503.5,-283.64 503.5,-273.81 503.5,-264.86"/>
<polygon fill="midnightblue" stroke="midnightblue" points="507,-264.58 503.5,-254.58 500,-264.58 507,-264.58"/>
</g>
<!-- Node13 -->
<g id="node13" class="node">
<title>Node13</title>
<g id="a_node13"><a xlink:href="_socket_writer_8h.html" target="_top" xlink:title=" ">
<polygon fill="white" stroke="black" points="579.5,-224.5 579.5,-254.5 689.5,-254.5 689.5,-224.5 579.5,-224.5"/>
<text text-anchor="start" x="587.5" y="-242.5" font-family="Helvetica,sans-Serif" font-size="10.00">core/socket/stream</text>
<text text-anchor="middle" x="634.5" y="-231.5" font-family="Helvetica,sans-Serif" font-size="10.00">/SocketWriter.h</text>
</a>
</g>
</g>
<!-- Node12&#45;&gt;Node13 -->
<g id="edge14" class="edge">
<title>Node12&#45;&gt;Node13</title>
<path fill="none" stroke="midnightblue" d="M531.93,-291.4C550.98,-281.94 576.28,-269.39 596.98,-259.12"/>
<polygon fill="midnightblue" stroke="midnightblue" points="598.73,-262.16 606.13,-254.58 595.62,-255.89 598.73,-262.16"/>
</g>
<!-- Node13&#45;&gt;Node11 -->
<g id="edge15" class="edge">
<title>Node13&#45;&gt;Node11</title>
<path fill="none" stroke="midnightblue" d="M607.25,-224.4C588.47,-214.68 563.67,-201.86 545.23,-192.31"/>
<polygon fill="midnightblue" stroke="midnightblue" points="546.72,-189.14 536.23,-187.66 543.51,-195.36 546.72,-189.14"/>
</g>
<!-- Node14&#45;&gt;Node6 -->
<g id="edge18" class="edge">
<title>Node14&#45;&gt;Node6</title>
<path fill="none" stroke="midnightblue" d="M368.47,-224.4C366.15,-216.29 363.22,-206.01 360.72,-197.28"/>
<polygon fill="midnightblue" stroke="midnightblue" points="364.09,-196.31 357.97,-187.66 357.36,-198.23 364.09,-196.31"/>
</g>
<!-- Node14&#45;&gt;Node11 -->
<g id="edge19" class="edge">
<title>Node14&#45;&gt;Node11</title>
<path fill="none" stroke="midnightblue" d="M407.34,-224.4C432,-214.42 464.79,-201.15 488.53,-191.53"/>
<polygon fill="midnightblue" stroke="midnightblue" points="490.15,-194.65 498.11,-187.66 487.53,-188.17 490.15,-194.65"/>
</g>
</g>
</svg>
