<?xml version="1.0" encoding="UTF-8" standalone="no"?>
<!DOCTYPE svg PUBLIC "-//W3C//DTD SVG 1.1//EN"
 "http://www.w3.org/Graphics/SVG/1.1/DTD/svg11.dtd">
<!-- Generated by graphviz version 2.43.0 (0)
 -->
<!-- Title: core/socket/stream/legacy/SocketConnection.h Pages: 1 -->
<svg width="459pt" height="408pt"
 viewBox="0.00 0.00 458.50 408.00" xmlns="http://www.w3.org/2000/svg" xmlns:xlink="http://www.w3.org/1999/xlink">
<g id="graph0" class="graph" transform="scale(1 1) rotate(0) translate(4 404)">
<title>core/socket/stream/legacy/SocketConnection.h</title>
<polygon fill="white" stroke="transparent" points="-4,4 -4,-404 454.5,-404 454.5,4 -4,4"/>
<!-- Node1 -->
<g id="node1" class="node">
<title>Node1</title>
<g id="a_node1"><a xlink:title=" ">
<polygon fill="#bfbfbf" stroke="black" points="165,-369.5 165,-399.5 316,-399.5 316,-369.5 165,-369.5"/>
<text text-anchor="start" x="173" y="-387.5" font-family="Helvetica,sans-Serif" font-size="10.00">core/socket/stream</text>
<text text-anchor="middle" x="240.5" y="-376.5" font-family="Helvetica,sans-Serif" font-size="10.00">/legacy/SocketConnection.h</text>
</a>
</g>
</g>
<!-- Node2 -->
<g id="node2" class="node">
<title>Node2</title>
<g id="a_node2"><a xlink:href="stream_2_socket_connection_8h.html" target="_top" xlink:title=" ">
<polygon fill="white" stroke="black" points="34.5,-302.5 34.5,-332.5 150.5,-332.5 150.5,-302.5 34.5,-302.5"/>
<text text-anchor="start" x="42.5" y="-320.5" font-family="Helvetica,sans-Serif" font-size="10.00">core/socket/stream</text>
<text text-anchor="middle" x="92.5" y="-309.5" font-family="Helvetica,sans-Serif" font-size="10.00">/SocketConnection.h</text>
</a>
</g>
</g>
<!-- Node1&#45;&gt;Node2 -->
<g id="edge1" class="edge">
<title>Node1&#45;&gt;Node2</title>
<path fill="none" stroke="midnightblue" d="M208.39,-369.4C186.57,-359.81 157.51,-347.05 133.94,-336.7"/>
<polygon fill="midnightblue" stroke="midnightblue" points="135.11,-333.39 124.55,-332.58 132.3,-339.8 135.11,-333.39"/>
</g>
<!-- Node4 -->
<g id="node4" class="node">
<title>Node4</title>
<g id="a_node4"><a xlink:href="legacy_2_socket_reader_8h.html" target="_top" xlink:title=" ">
<polygon fill="white" stroke="black" points="175,-302.5 175,-332.5 306,-332.5 306,-302.5 175,-302.5"/>
<text text-anchor="start" x="183" y="-320.5" font-family="Helvetica,sans-Serif" font-size="10.00">core/socket/stream</text>
<text text-anchor="middle" x="240.5" y="-309.5" font-family="Helvetica,sans-Serif" font-size="10.00">/legacy/SocketReader.h</text>
</a>
</g>
</g>
<!-- Node1&#45;&gt;Node4 -->
<g id="edge3" class="edge">
<title>Node1&#45;&gt;Node4</title>
<path fill="none" stroke="midnightblue" d="M240.5,-369.4C240.5,-361.64 240.5,-351.81 240.5,-342.86"/>
<polygon fill="midnightblue" stroke="midnightblue" points="244,-342.58 240.5,-332.58 237,-342.58 244,-342.58"/>
</g>
<!-- Node10 -->
<g id="node10" class="node">
<title>Node10</title>
<g id="a_node10"><a xlink:href="legacy_2_socket_writer_8h.html" target="_top" xlink:title=" ">
<polygon fill="white" stroke="black" points="324.5,-302.5 324.5,-332.5 450.5,-332.5 450.5,-302.5 324.5,-302.5"/>
<text text-anchor="start" x="332.5" y="-320.5" font-family="Helvetica,sans-Serif" font-size="10.00">core/socket/stream</text>
<text text-anchor="middle" x="387.5" y="-309.5" font-family="Helvetica,sans-Serif" font-size="10.00">/legacy/SocketWriter.h</text>
</a>
</g>
</g>
<!-- Node1&#45;&gt;Node10 -->
<g id="edge9" class="edge">
<title>Node1&#45;&gt;Node10</title>
<path fill="none" stroke="midnightblue" d="M272.4,-369.4C294.07,-359.81 322.93,-347.05 346.34,-336.7"/>
<polygon fill="midnightblue" stroke="midnightblue" points="347.94,-339.82 355.67,-332.58 345.1,-333.42 347.94,-339.82"/>
</g>
<!-- Node3 -->
<g id="node3" class="node">
<title>Node3</title>
<g id="a_node3"><a xlink:href="_socket_connection_8h.html" target="_top" xlink:title=" ">
<polygon fill="white" stroke="black" points="0,-241 0,-260 171,-260 171,-241 0,-241"/>
<text text-anchor="middle" x="85.5" y="-248" font-family="Helvetica,sans-Serif" font-size="10.00">core/socket/SocketConnection.h</text>
</a>
</g>
</g>
<!-- Node2&#45;&gt;Node3 -->
<g id="edge2" class="edge">
<title>Node2&#45;&gt;Node3</title>
<path fill="none" stroke="midnightblue" d="M90.98,-302.4C89.97,-292.96 88.62,-280.45 87.51,-270.19"/>
<polygon fill="midnightblue" stroke="midnightblue" points="90.99,-269.76 86.44,-260.19 84.03,-270.51 90.99,-269.76"/>
</g>
<!-- Node5 -->
<g id="node5" class="node">
<title>Node5</title>
<g id="a_node5"><a xlink:href="_socket_reader_8h.html" target="_top" xlink:title=" ">
<polygon fill="white" stroke="black" points="189.5,-235.5 189.5,-265.5 299.5,-265.5 299.5,-235.5 189.5,-235.5"/>
<text text-anchor="start" x="197.5" y="-253.5" font-family="Helvetica,sans-Serif" font-size="10.00">core/socket/stream</text>
<text text-anchor="middle" x="244.5" y="-242.5" font-family="Helvetica,sans-Serif" font-size="10.00">/SocketReader.h</text>
</a>
</g>
</g>
<!-- Node4&#45;&gt;Node5 -->
<g id="edge4" class="edge">
<title>Node4&#45;&gt;Node5</title>
<path fill="none" stroke="midnightblue" d="M241.37,-302.4C241.85,-294.56 242.46,-284.6 243.02,-275.57"/>
<polygon fill="midnightblue" stroke="midnightblue" points="246.51,-275.77 243.63,-265.58 239.53,-275.34 246.51,-275.77"/>
</g>
<!-- Node6 -->
<g id="node6" class="node">
<title>Node6</title>
<g id="a_node6"><a xlink:href="_read_event_receiver_8h.html" target="_top" xlink:title=" ">
<polygon fill="white" stroke="black" points="182.5,-168.5 182.5,-198.5 306.5,-198.5 306.5,-168.5 182.5,-168.5"/>
<text text-anchor="start" x="190.5" y="-186.5" font-family="Helvetica,sans-Serif" font-size="10.00">core/eventreceiver</text>
<text text-anchor="middle" x="244.5" y="-175.5" font-family="Helvetica,sans-Serif" font-size="10.00">/ReadEventReceiver.h</text>
</a>
</g>
</g>
<!-- Node5&#45;&gt;Node6 -->
<g id="edge5" class="edge">
<title>Node5&#45;&gt;Node6</title>
<path fill="none" stroke="midnightblue" d="M244.5,-235.4C244.5,-227.64 244.5,-217.81 244.5,-208.86"/>
<polygon fill="midnightblue" stroke="midnightblue" points="248,-208.58 244.5,-198.58 241,-208.58 248,-208.58"/>
</g>
<!-- Node7 -->
<g id="node7" class="node">
<title>Node7</title>
<g id="a_node7"><a xlink:href="_descriptor_event_receiver_8h.html" target="_top" xlink:title=" ">
<polygon fill="white" stroke="black" points="230.5,-112.5 230.5,-131.5 400.5,-131.5 400.5,-112.5 230.5,-112.5"/>
<text text-anchor="middle" x="315.5" y="-119.5" font-family="Helvetica,sans-Serif" font-size="10.00">core/DescriptorEventReceiver.h</text>
</a>
</g>
</g>
<!-- Node6&#45;&gt;Node7 -->
<g id="edge6" class="edge">
<title>Node6&#45;&gt;Node7</title>
<path fill="none" stroke="midnightblue" d="M261.33,-168.4C272.17,-159.31 286.28,-147.49 297.37,-138.19"/>
<polygon fill="midnightblue" stroke="midnightblue" points="299.75,-140.76 305.17,-131.66 295.26,-135.4 299.75,-140.76"/>
</g>
<!-- Node8 -->
<g id="node8" class="node">
<title>Node8</title>
<g id="a_node8"><a xlink:href="_event_receiver_8h.html" target="_top" xlink:title=" ">
<polygon fill="white" stroke="black" points="267.5,-56.5 267.5,-75.5 363.5,-75.5 363.5,-56.5 267.5,-56.5"/>
<text text-anchor="middle" x="315.5" y="-63.5" font-family="Helvetica,sans-Serif" font-size="10.00">EventReceiver.h</text>
</a>
</g>
</g>
<!-- Node7&#45;&gt;Node8 -->
<g id="edge7" class="edge">
<title>Node7&#45;&gt;Node8</title>
<path fill="none" stroke="midnightblue" d="M315.5,-112.08C315.5,-105.01 315.5,-94.86 315.5,-85.99"/>
<polygon fill="midnightblue" stroke="midnightblue" points="319,-85.75 315.5,-75.75 312,-85.75 319,-85.75"/>
</g>
<!-- Node9 -->
<g id="node9" class="node">
<title>Node9</title>
<g id="a_node9"><a xlink:href="_event_8h.html" target="_top" xlink:title=" ">
<polygon fill="white" stroke="black" points="289,-0.5 289,-19.5 342,-19.5 342,-0.5 289,-0.5"/>
<text text-anchor="middle" x="315.5" y="-7.5" font-family="Helvetica,sans-Serif" font-size="10.00">Event.h</text>
</a>
</g>
</g>
<!-- Node8&#45;&gt;Node9 -->
<g id="edge8" class="edge">
<title>Node8&#45;&gt;Node9</title>
<path fill="none" stroke="midnightblue" d="M315.5,-56.08C315.5,-49.01 315.5,-38.86 315.5,-29.99"/>
<polygon fill="midnightblue" stroke="midnightblue" points="319,-29.75 315.5,-19.75 312,-29.75 319,-29.75"/>
</g>
<!-- Node11 -->
<g id="node11" class="node">
<title>Node11</title>
<g id="a_node11"><a xlink:href="_socket_writer_8h.html" target="_top" xlink:title=" ">
<polygon fill="white" stroke="black" points="332.5,-235.5 332.5,-265.5 442.5,-265.5 442.5,-235.5 332.5,-235.5"/>
<text text-anchor="start" x="340.5" y="-253.5" font-family="Helvetica,sans-Serif" font-size="10.00">core/socket/stream</text>
<text text-anchor="middle" x="387.5" y="-242.5" font-family="Helvetica,sans-Serif" font-size="10.00">/SocketWriter.h</text>
</a>
</g>
</g>
<!-- Node10&#45;&gt;Node11 -->
<g id="edge10" class="edge">
<title>Node10&#45;&gt;Node11</title>
<path fill="none" stroke="midnightblue" d="M387.5,-302.4C387.5,-294.64 387.5,-284.81 387.5,-275.86"/>
<polygon fill="midnightblue" stroke="midnightblue" points="391,-275.58 387.5,-265.58 384,-275.58 391,-275.58"/>
</g>
<!-- Node12 -->
<g id="node12" class="node">
<title>Node12</title>
<g id="a_node12"><a xlink:href="_write_event_receiver_8h.html" target="_top" xlink:title=" ">
<polygon fill="white" stroke="black" points="325,-168.5 325,-198.5 450,-198.5 450,-168.5 325,-168.5"/>
<text text-anchor="start" x="333" y="-186.5" font-family="Helvetica,sans-Serif" font-size="10.00">core/eventreceiver</text>
<text text-anchor="middle" x="387.5" y="-175.5" font-family="Helvetica,sans-Serif" font-size="10.00">/WriteEventReceiver.h</text>
</a>
</g>
</g>
<!-- Node11&#45;&gt;Node12 -->
<g id="edge11" class="edge">
<title>Node11&#45;&gt;Node12</title>
<path fill="none" stroke="midnightblue" d="M387.5,-235.4C387.5,-227.64 387.5,-217.81 387.5,-208.86"/>
<polygon fill="midnightblue" stroke="midnightblue" points="391,-208.58 387.5,-198.58 384,-208.58 391,-208.58"/>
</g>
<!-- Node12&#45;&gt;Node7 -->
<g id="edge12" class="edge">
<title>Node12&#45;&gt;Node7</title>
<path fill="none" stroke="midnightblue" d="M370.44,-168.4C359.44,-159.31 345.13,-147.49 333.88,-138.19"/>
<polygon fill="midnightblue" stroke="midnightblue" points="335.91,-135.33 325.98,-131.66 331.46,-140.73 335.91,-135.33"/>
</g>
</g>
</svg>
