<?xml version="1.0" encoding="UTF-8" standalone="no"?>
<!DOCTYPE svg PUBLIC "-//W3C//DTD SVG 1.1//EN"
 "http://www.w3.org/Graphics/SVG/1.1/DTD/svg11.dtd">
<!-- Generated by graphviz version 2.43.0 (0)
 -->
<!-- Title: core/timer/Timer.cpp Pages: 1 -->
<svg width="608pt" height="263pt"
 viewBox="0.00 0.00 607.50 263.00" xmlns="http://www.w3.org/2000/svg" xmlns:xlink="http://www.w3.org/1999/xlink">
<g id="graph0" class="graph" transform="scale(1 1) rotate(0) translate(4 259)">
<title>core/timer/Timer.cpp</title>
<polygon fill="white" stroke="transparent" points="-4,4 -4,-259 603.5,-259 603.5,4 -4,4"/>
<!-- Node1 -->
<g id="node1" class="node">
<title>Node1</title>
<g id="a_node1"><a xlink:title=" ">
<polygon fill="#bfbfbf" stroke="black" points="217.5,-235.5 217.5,-254.5 335.5,-254.5 335.5,-235.5 217.5,-235.5"/>
<text text-anchor="middle" x="276.5" y="-242.5" font-family="Helvetica,sans-Serif" font-size="10.00">core/timer/Timer.cpp</text>
</a>
</g>
</g>
<!-- Node2 -->
<g id="node2" class="node">
<title>Node2</title>
<g id="a_node2"><a xlink:href="timer_2_timer_8h.html" target="_top" xlink:title=" ">
<polygon fill="white" stroke="black" points="0,-174 0,-193 107,-193 107,-174 0,-174"/>
<text text-anchor="middle" x="53.5" y="-181" font-family="Helvetica,sans-Serif" font-size="10.00">core/timer/Timer.h</text>
</a>
</g>
</g>
<!-- Node1&#45;&gt;Node2 -->
<g id="edge1" class="edge">
<title>Node1&#45;&gt;Node2</title>
<path fill="none" stroke="midnightblue" d="M244.55,-235.48C205.3,-225 138.62,-207.21 95.33,-195.66"/>
<polygon fill="midnightblue" stroke="midnightblue" points="95.96,-192.21 85.39,-193.01 94.15,-198.97 95.96,-192.21"/>
</g>
<!-- Node4 -->
<g id="node4" class="node">
<title>Node4</title>
<g id="a_node4"><a xlink:href="_interval_timer_8h.html" target="_top" xlink:title=" ">
<polygon fill="white" stroke="black" points="125.5,-174 125.5,-193 269.5,-193 269.5,-174 125.5,-174"/>
<text text-anchor="middle" x="197.5" y="-181" font-family="Helvetica,sans-Serif" font-size="10.00">core/timer/IntervalTimer.h</text>
</a>
</g>
</g>
<!-- Node1&#45;&gt;Node4 -->
<g id="edge3" class="edge">
<title>Node1&#45;&gt;Node4</title>
<path fill="none" stroke="midnightblue" d="M265.18,-235.48C252.63,-226.02 232.15,-210.6 217,-199.19"/>
<polygon fill="midnightblue" stroke="midnightblue" points="218.89,-196.23 208.8,-193.01 214.68,-201.82 218.89,-196.23"/>
</g>
<!-- Node8 -->
<g id="node8" class="node">
<title>Node8</title>
<g id="a_node8"><a xlink:href="_interval_timer_stopable_8h.html" target="_top" xlink:title=" ">
<polygon fill="white" stroke="black" points="288,-168.5 288,-198.5 423,-198.5 423,-168.5 288,-168.5"/>
<text text-anchor="start" x="296" y="-186.5" font-family="Helvetica,sans-Serif" font-size="10.00">core/timer/IntervalTimer</text>
<text text-anchor="middle" x="355.5" y="-175.5" font-family="Helvetica,sans-Serif" font-size="10.00">Stopable.h</text>
</a>
</g>
</g>
<!-- Node1&#45;&gt;Node8 -->
<g id="edge7" class="edge">
<title>Node1&#45;&gt;Node8</title>
<path fill="none" stroke="midnightblue" d="M287.82,-235.48C298.42,-227.49 314.67,-215.25 328.59,-204.77"/>
<polygon fill="midnightblue" stroke="midnightblue" points="331,-207.33 336.88,-198.52 326.79,-201.74 331,-207.33"/>
</g>
<!-- Node9 -->
<g id="node9" class="node">
<title>Node9</title>
<g id="a_node9"><a xlink:href="_singleshot_timer_8h.html" target="_top" xlink:title=" ">
<polygon fill="white" stroke="black" points="441.5,-174 441.5,-193 599.5,-193 599.5,-174 441.5,-174"/>
<text text-anchor="middle" x="520.5" y="-181" font-family="Helvetica,sans-Serif" font-size="10.00">core/timer/SingleshotTimer.h</text>
</a>
</g>
</g>
<!-- Node1&#45;&gt;Node9 -->
<g id="edge9" class="edge">
<title>Node1&#45;&gt;Node9</title>
<path fill="none" stroke="midnightblue" d="M311.46,-235.48C354.67,-224.94 428.29,-206.99 475.63,-195.44"/>
<polygon fill="midnightblue" stroke="midnightblue" points="476.72,-198.78 485.61,-193.01 475.06,-191.98 476.72,-198.78"/>
</g>
<!-- Node3 -->
<g id="node3" class="node">
<title>Node3</title>
<g id="a_node3"><a xlink:href="_timer_8h.html" target="_top" xlink:title=" ">
<polygon fill="white" stroke="black" points="15,-112.5 15,-131.5 92,-131.5 92,-112.5 15,-112.5"/>
<text text-anchor="middle" x="53.5" y="-119.5" font-family="Helvetica,sans-Serif" font-size="10.00">core/Timer.h</text>
</a>
</g>
</g>
<!-- Node2&#45;&gt;Node3 -->
<g id="edge2" class="edge">
<title>Node2&#45;&gt;Node3</title>
<path fill="none" stroke="midnightblue" d="M53.5,-173.98C53.5,-165.58 53.5,-152.48 53.5,-141.66"/>
<polygon fill="midnightblue" stroke="midnightblue" points="57,-141.51 53.5,-131.51 50,-141.51 57,-141.51"/>
</g>
<!-- Node5 -->
<g id="node5" class="node">
<title>Node5</title>
<g id="a_node5"><a xlink:href="_timer_event_receiver_8h.html" target="_top" xlink:title=" ">
<polygon fill="white" stroke="black" points="281.5,-112.5 281.5,-131.5 429.5,-131.5 429.5,-112.5 281.5,-112.5"/>
<text text-anchor="middle" x="355.5" y="-119.5" font-family="Helvetica,sans-Serif" font-size="10.00">core/TimerEventReceiver.h</text>
</a>
</g>
</g>
<!-- Node4&#45;&gt;Node5 -->
<g id="edge4" class="edge">
<title>Node4&#45;&gt;Node5</title>
<path fill="none" stroke="midnightblue" d="M220.14,-173.98C247.24,-163.77 292.81,-146.61 323.5,-135.05"/>
<polygon fill="midnightblue" stroke="midnightblue" points="324.78,-138.31 332.9,-131.51 322.31,-131.76 324.78,-138.31"/>
</g>
<!-- Node6 -->
<g id="node6" class="node">
<title>Node6</title>
<g id="a_node6"><a xlink:href="_event_receiver_8h.html" target="_top" xlink:title=" ">
<polygon fill="white" stroke="black" points="307.5,-56.5 307.5,-75.5 403.5,-75.5 403.5,-56.5 307.5,-56.5"/>
<text text-anchor="middle" x="355.5" y="-63.5" font-family="Helvetica,sans-Serif" font-size="10.00">EventReceiver.h</text>
</a>
</g>
</g>
<!-- Node5&#45;&gt;Node6 -->
<g id="edge5" class="edge">
<title>Node5&#45;&gt;Node6</title>
<path fill="none" stroke="midnightblue" d="M355.5,-112.08C355.5,-105.01 355.5,-94.86 355.5,-85.99"/>
<polygon fill="midnightblue" stroke="midnightblue" points="359,-85.75 355.5,-75.75 352,-85.75 359,-85.75"/>
</g>
<!-- Node7 -->
<g id="node7" class="node">
<title>Node7</title>
<g id="a_node7"><a xlink:href="_event_8h.html" target="_top" xlink:title=" ">
<polygon fill="white" stroke="black" points="329,-0.5 329,-19.5 382,-19.5 382,-0.5 329,-0.5"/>
<text text-anchor="middle" x="355.5" y="-7.5" font-family="Helvetica,sans-Serif" font-size="10.00">Event.h</text>
</a>
</g>
</g>
<!-- Node6&#45;&gt;Node7 -->
<g id="edge6" class="edge">
<title>Node6&#45;&gt;Node7</title>
<path fill="none" stroke="midnightblue" d="M355.5,-56.08C355.5,-49.01 355.5,-38.86 355.5,-29.99"/>
<polygon fill="midnightblue" stroke="midnightblue" points="359,-29.75 355.5,-19.75 352,-29.75 359,-29.75"/>
</g>
<!-- Node8&#45;&gt;Node5 -->
<g id="edge8" class="edge">
<title>Node8&#45;&gt;Node5</title>
<path fill="none" stroke="midnightblue" d="M355.5,-168.4C355.5,-160.47 355.5,-150.46 355.5,-141.86"/>
<polygon fill="midnightblue" stroke="midnightblue" points="359,-141.66 355.5,-131.66 352,-141.66 359,-141.66"/>
</g>
<!-- Node9&#45;&gt;Node5 -->
<g id="edge10" class="edge">
<title>Node9&#45;&gt;Node5</title>
<path fill="none" stroke="midnightblue" d="M496.86,-173.98C468.56,-163.77 420.97,-146.61 388.91,-135.05"/>
<polygon fill="midnightblue" stroke="midnightblue" points="389.69,-131.61 379.1,-131.51 387.32,-138.19 389.69,-131.61"/>
</g>
</g>
</svg>
