<?xml version="1.0" encoding="UTF-8" standalone="no"?>
<!DOCTYPE svg PUBLIC "-//W3C//DTD SVG 1.1//EN"
 "http://www.w3.org/Graphics/SVG/1.1/DTD/svg11.dtd">
<!-- Generated by graphviz version 2.43.0 (0)
 -->
<!-- Title: web/http/tls/in6/Server.h Pages: 1 -->
<svg width="2210pt" height="542pt"
 viewBox="0.00 0.00 2210.00 542.00" xmlns="http://www.w3.org/2000/svg" xmlns:xlink="http://www.w3.org/1999/xlink">
<g id="graph0" class="graph" transform="scale(1 1) rotate(0) translate(4 538)">
<title>web/http/tls/in6/Server.h</title>
<polygon fill="white" stroke="transparent" points="-4,4 -4,-538 2206,-538 2206,4 -4,4"/>
<!-- Node1 -->
<g id="node1" class="node">
<title>Node1</title>
<g id="a_node1"><a xlink:title=" ">
<polygon fill="#bfbfbf" stroke="black" points="1127.5,-514.5 1127.5,-533.5 1263.5,-533.5 1263.5,-514.5 1127.5,-514.5"/>
<text text-anchor="middle" x="1195.5" y="-521.5" font-family="Helvetica,sans-Serif" font-size="10.00">web/http/tls/in6/Server.h</text>
</a>
</g>
</g>
<!-- Node2 -->
<g id="node2" class="node">
<title>Node2</title>
<g id="a_node2"><a xlink:href="net_2in6_2stream_2tls_2_socket_server_8h.html" target="_top" xlink:title=" ">
<polygon fill="white" stroke="black" points="1075,-447.5 1075,-477.5 1178,-477.5 1178,-447.5 1075,-447.5"/>
<text text-anchor="start" x="1083" y="-465.5" font-family="Helvetica,sans-Serif" font-size="10.00">net/in6/stream/tls</text>
<text text-anchor="middle" x="1126.5" y="-454.5" font-family="Helvetica,sans-Serif" font-size="10.00">/SocketServer.h</text>
</a>
</g>
</g>
<!-- Node1&#45;&gt;Node2 -->
<g id="edge1" class="edge">
<title>Node1&#45;&gt;Node2</title>
<path fill="none" stroke="midnightblue" d="M1185.61,-514.48C1176.44,-506.57 1162.43,-494.48 1150.35,-484.07"/>
<polygon fill="midnightblue" stroke="midnightblue" points="1152.62,-481.4 1142.76,-477.52 1148.05,-486.7 1152.62,-481.4"/>
</g>
<!-- Node34 -->
<g id="node34" class="node">
<title>Node34</title>
<g id="a_node34"><a xlink:href="server_2_server_8h.html" target="_top" xlink:title=" ">
<polygon fill="white" stroke="black" points="1327,-453 1327,-472 1464,-472 1464,-453 1327,-453"/>
<text text-anchor="middle" x="1395.5" y="-460" font-family="Helvetica,sans-Serif" font-size="10.00">web/http/server/Server.h</text>
</a>
</g>
</g>
<!-- Node1&#45;&gt;Node34 -->
<g id="edge42" class="edge">
<title>Node1&#45;&gt;Node34</title>
<path fill="none" stroke="midnightblue" d="M1224.16,-514.48C1259.06,-504.09 1318.15,-486.51 1357,-474.95"/>
<polygon fill="midnightblue" stroke="midnightblue" points="1358.31,-478.22 1366.9,-472.01 1356.32,-471.51 1358.31,-478.22"/>
</g>
<!-- Node3 -->
<g id="node3" class="node">
<title>Node3</title>
<g id="a_node3"><a xlink:href="core_2socket_2stream_2tls_2_socket_server_8h.html" target="_top" xlink:title=" ">
<polygon fill="white" stroke="black" points="635.5,-380.5 635.5,-410.5 745.5,-410.5 745.5,-380.5 635.5,-380.5"/>
<text text-anchor="start" x="643.5" y="-398.5" font-family="Helvetica,sans-Serif" font-size="10.00">core/socket/stream</text>
<text text-anchor="middle" x="690.5" y="-387.5" font-family="Helvetica,sans-Serif" font-size="10.00">/tls/SocketServer.h</text>
</a>
</g>
</g>
<!-- Node2&#45;&gt;Node3 -->
<g id="edge2" class="edge">
<title>Node2&#45;&gt;Node3</title>
<path fill="none" stroke="midnightblue" d="M1074.77,-453.79C995.14,-441.92 842.64,-419.18 755.61,-406.21"/>
<polygon fill="midnightblue" stroke="midnightblue" points="755.99,-402.73 745.59,-404.71 754.96,-409.65 755.99,-402.73"/>
</g>
<!-- Node20 -->
<g id="node20" class="node">
<title>Node20</title>
<g id="a_node20"><a xlink:href="net_2in6_2stream_2_server_socket_8h.html" target="_top" xlink:title=" ">
<polygon fill="white" stroke="black" points="957.5,-386 957.5,-405 1121.5,-405 1121.5,-386 957.5,-386"/>
<text text-anchor="middle" x="1039.5" y="-393" font-family="Helvetica,sans-Serif" font-size="10.00">net/in6/stream/ServerSocket.h</text>
</a>
</g>
</g>
<!-- Node2&#45;&gt;Node20 -->
<g id="edge26" class="edge">
<title>Node2&#45;&gt;Node20</title>
<path fill="none" stroke="midnightblue" d="M1107.62,-447.4C1093.39,-436.76 1073.9,-422.2 1059.42,-411.38"/>
<polygon fill="midnightblue" stroke="midnightblue" points="1061.24,-408.38 1051.14,-405.19 1057.05,-413.98 1061.24,-408.38"/>
</g>
<!-- Node32 -->
<g id="node32" class="node">
<title>Node32</title>
<g id="a_node32"><a xlink:href="in6_2stream_2tls_2_server_config_8h.html" target="_top" xlink:title=" ">
<polygon fill="white" stroke="black" points="1151,-380.5 1151,-410.5 1254,-410.5 1254,-380.5 1151,-380.5"/>
<text text-anchor="start" x="1159" y="-398.5" font-family="Helvetica,sans-Serif" font-size="10.00">net/in6/stream/tls</text>
<text text-anchor="middle" x="1202.5" y="-387.5" font-family="Helvetica,sans-Serif" font-size="10.00">/ServerConfig.h</text>
</a>
</g>
</g>
<!-- Node2&#45;&gt;Node32 -->
<g id="edge39" class="edge">
<title>Node2&#45;&gt;Node32</title>
<path fill="none" stroke="midnightblue" d="M1142.99,-447.4C1153.35,-438.54 1166.88,-426.96 1178.43,-417.09"/>
<polygon fill="midnightblue" stroke="midnightblue" points="1180.72,-419.74 1186.04,-410.58 1176.17,-414.42 1180.72,-419.74"/>
</g>
<!-- Node4 -->
<g id="node4" class="node">
<title>Node4</title>
<g id="a_node4"><a xlink:href="core_2socket_2stream_2_socket_server_8h.html" target="_top" xlink:title=" ">
<polygon fill="white" stroke="black" points="502.5,-313.5 502.5,-343.5 612.5,-343.5 612.5,-313.5 502.5,-313.5"/>
<text text-anchor="start" x="510.5" y="-331.5" font-family="Helvetica,sans-Serif" font-size="10.00">core/socket/stream</text>
<text text-anchor="middle" x="557.5" y="-320.5" font-family="Helvetica,sans-Serif" font-size="10.00">/SocketServer.h</text>
</a>
</g>
</g>
<!-- Node3&#45;&gt;Node4 -->
<g id="edge3" class="edge">
<title>Node3&#45;&gt;Node4</title>
<path fill="none" stroke="midnightblue" d="M661.64,-380.4C642.21,-370.9 616.38,-358.28 595.31,-347.98"/>
<polygon fill="midnightblue" stroke="midnightblue" points="596.82,-344.82 586.3,-343.58 593.75,-351.11 596.82,-344.82"/>
</g>
<!-- Node5 -->
<g id="node5" class="node">
<title>Node5</title>
<g id="a_node5"><a xlink:href="tls_2_socket_acceptor_8h.html" target="_top" xlink:title=" ">
<polygon fill="white" stroke="black" points="631,-313.5 631,-343.5 750,-343.5 750,-313.5 631,-313.5"/>
<text text-anchor="start" x="639" y="-331.5" font-family="Helvetica,sans-Serif" font-size="10.00">core/socket/stream</text>
<text text-anchor="middle" x="690.5" y="-320.5" font-family="Helvetica,sans-Serif" font-size="10.00">/tls/SocketAcceptor.h</text>
</a>
</g>
</g>
<!-- Node3&#45;&gt;Node5 -->
<g id="edge4" class="edge">
<title>Node3&#45;&gt;Node5</title>
<path fill="none" stroke="midnightblue" d="M690.5,-380.4C690.5,-372.64 690.5,-362.81 690.5,-353.86"/>
<polygon fill="midnightblue" stroke="midnightblue" points="694,-353.58 690.5,-343.58 687,-353.58 694,-353.58"/>
</g>
<!-- Node6 -->
<g id="node6" class="node">
<title>Node6</title>
<g id="a_node6"><a xlink:href="_socket_acceptor_8h.html" target="_top" xlink:title=" ">
<polygon fill="white" stroke="black" points="635.5,-246.5 635.5,-276.5 745.5,-276.5 745.5,-246.5 635.5,-246.5"/>
<text text-anchor="start" x="643.5" y="-264.5" font-family="Helvetica,sans-Serif" font-size="10.00">core/socket/stream</text>
<text text-anchor="middle" x="690.5" y="-253.5" font-family="Helvetica,sans-Serif" font-size="10.00">/SocketAcceptor.h</text>
</a>
</g>
</g>
<!-- Node5&#45;&gt;Node6 -->
<g id="edge5" class="edge">
<title>Node5&#45;&gt;Node6</title>
<path fill="none" stroke="midnightblue" d="M690.5,-313.4C690.5,-305.64 690.5,-295.81 690.5,-286.86"/>
<polygon fill="midnightblue" stroke="midnightblue" points="694,-286.58 690.5,-276.58 687,-286.58 694,-286.58"/>
</g>
<!-- Node9 -->
<g id="node9" class="node">
<title>Node9</title>
<g id="a_node9"><a xlink:href="stream_2tls_2_socket_connection_8h.html" target="_top" xlink:title=" ">
<polygon fill="white" stroke="black" points="417,-246.5 417,-276.5 548,-276.5 548,-246.5 417,-246.5"/>
<text text-anchor="start" x="425" y="-264.5" font-family="Helvetica,sans-Serif" font-size="10.00">core/socket/stream</text>
<text text-anchor="middle" x="482.5" y="-253.5" font-family="Helvetica,sans-Serif" font-size="10.00">/tls/SocketConnection.h</text>
</a>
</g>
</g>
<!-- Node5&#45;&gt;Node9 -->
<g id="edge8" class="edge">
<title>Node5&#45;&gt;Node9</title>
<path fill="none" stroke="midnightblue" d="M645.62,-313.48C613.88,-303.56 571.14,-290.2 537.37,-279.65"/>
<polygon fill="midnightblue" stroke="midnightblue" points="538.24,-276.25 527.65,-276.61 536.16,-282.93 538.24,-276.25"/>
</g>
<!-- Node7 -->
<g id="node7" class="node">
<title>Node7</title>
<g id="a_node7"><a xlink:href="_accept_event_receiver_8h.html" target="_top" xlink:title=" ">
<polygon fill="white" stroke="black" points="635,-56.5 635,-75.5 788,-75.5 788,-56.5 635,-56.5"/>
<text text-anchor="middle" x="711.5" y="-63.5" font-family="Helvetica,sans-Serif" font-size="10.00">core/AcceptEventReceiver.h</text>
</a>
</g>
</g>
<!-- Node6&#45;&gt;Node7 -->
<g id="edge6" class="edge">
<title>Node6&#45;&gt;Node7</title>
<path fill="none" stroke="midnightblue" d="M692.04,-246.27C695.77,-211.94 705.25,-124.57 709.45,-85.9"/>
<polygon fill="midnightblue" stroke="midnightblue" points="712.97,-85.9 710.57,-75.58 706.01,-85.14 712.97,-85.9"/>
</g>
<!-- Node8 -->
<g id="node8" class="node">
<title>Node8</title>
<g id="a_node8"><a xlink:href="_event_receiver_8h.html" target="_top" xlink:title=" ">
<polygon fill="white" stroke="black" points="479.5,-0.5 479.5,-19.5 599.5,-19.5 599.5,-0.5 479.5,-0.5"/>
<text text-anchor="middle" x="539.5" y="-7.5" font-family="Helvetica,sans-Serif" font-size="10.00">core/EventReceiver.h</text>
</a>
</g>
</g>
<!-- Node7&#45;&gt;Node8 -->
<g id="edge7" class="edge">
<title>Node7&#45;&gt;Node8</title>
<path fill="none" stroke="midnightblue" d="M684.25,-56.44C655.06,-47.28 608.58,-32.69 576.19,-22.52"/>
<polygon fill="midnightblue" stroke="midnightblue" points="577.22,-19.17 566.63,-19.52 575.12,-25.85 577.22,-19.17"/>
</g>
<!-- Node10 -->
<g id="node10" class="node">
<title>Node10</title>
<g id="a_node10"><a xlink:href="stream_2_socket_connection_8h.html" target="_top" xlink:title=" ">
<polygon fill="white" stroke="black" points="107.5,-179.5 107.5,-209.5 223.5,-209.5 223.5,-179.5 107.5,-179.5"/>
<text text-anchor="start" x="115.5" y="-197.5" font-family="Helvetica,sans-Serif" font-size="10.00">core/socket/stream</text>
<text text-anchor="middle" x="165.5" y="-186.5" font-family="Helvetica,sans-Serif" font-size="10.00">/SocketConnection.h</text>
</a>
</g>
</g>
<!-- Node9&#45;&gt;Node10 -->
<g id="edge9" class="edge">
<title>Node9&#45;&gt;Node10</title>
<path fill="none" stroke="midnightblue" d="M416.82,-247.03C363.21,-236.04 287.73,-220.56 233.5,-209.44"/>
<polygon fill="midnightblue" stroke="midnightblue" points="234.14,-206 223.64,-207.42 232.73,-212.86 234.14,-206"/>
</g>
<!-- Node12 -->
<g id="node12" class="node">
<title>Node12</title>
<g id="a_node12"><a xlink:href="tls_2_socket_reader_8h.html" target="_top" xlink:title=" ">
<polygon fill="white" stroke="black" points="510.5,-179.5 510.5,-209.5 620.5,-209.5 620.5,-179.5 510.5,-179.5"/>
<text text-anchor="start" x="518.5" y="-197.5" font-family="Helvetica,sans-Serif" font-size="10.00">core/socket/stream</text>
<text text-anchor="middle" x="565.5" y="-186.5" font-family="Helvetica,sans-Serif" font-size="10.00">/tls/SocketReader.h</text>
</a>
</g>
</g>
<!-- Node9&#45;&gt;Node12 -->
<g id="edge11" class="edge">
<title>Node9&#45;&gt;Node12</title>
<path fill="none" stroke="midnightblue" d="M500.51,-246.4C511.93,-237.45 526.89,-225.74 539.58,-215.8"/>
<polygon fill="midnightblue" stroke="midnightblue" points="541.81,-218.5 547.53,-209.58 537.49,-212.99 541.81,-218.5"/>
</g>
<!-- Node17 -->
<g id="node17" class="node">
<title>Node17</title>
<g id="a_node17"><a xlink:href="tls_2_socket_writer_8h.html" target="_top" xlink:title=" ">
<polygon fill="white" stroke="black" points="320.5,-179.5 320.5,-209.5 430.5,-209.5 430.5,-179.5 320.5,-179.5"/>
<text text-anchor="start" x="328.5" y="-197.5" font-family="Helvetica,sans-Serif" font-size="10.00">core/socket/stream</text>
<text text-anchor="middle" x="375.5" y="-186.5" font-family="Helvetica,sans-Serif" font-size="10.00">/tls/SocketWriter.h</text>
</a>
</g>
</g>
<!-- Node9&#45;&gt;Node17 -->
<g id="edge19" class="edge">
<title>Node9&#45;&gt;Node17</title>
<path fill="none" stroke="midnightblue" d="M459.28,-246.4C444.14,-237.2 424.17,-225.07 407.53,-214.95"/>
<polygon fill="midnightblue" stroke="midnightblue" points="409.04,-211.78 398.67,-209.58 405.4,-217.76 409.04,-211.78"/>
</g>
<!-- Node19 -->
<g id="node19" class="node">
<title>Node19</title>
<g id="a_node19"><a xlink:href="_t_l_s_shutdown_8h.html" target="_top" xlink:title=" ">
<polygon fill="white" stroke="black" points="451.5,-112.5 451.5,-142.5 561.5,-142.5 561.5,-112.5 451.5,-112.5"/>
<text text-anchor="start" x="459.5" y="-130.5" font-family="Helvetica,sans-Serif" font-size="10.00">core/socket/stream</text>
<text text-anchor="middle" x="506.5" y="-119.5" font-family="Helvetica,sans-Serif" font-size="10.00">/tls/TLSShutdown.h</text>
</a>
</g>
</g>
<!-- Node9&#45;&gt;Node19 -->
<g id="edge23" class="edge">
<title>Node9&#45;&gt;Node19</title>
<path fill="none" stroke="midnightblue" d="M485.07,-246.37C489.15,-223.94 497.15,-179.92 502.14,-152.49"/>
<polygon fill="midnightblue" stroke="midnightblue" points="505.6,-152.99 503.95,-142.52 498.72,-151.74 505.6,-152.99"/>
</g>
<!-- Node11 -->
<g id="node11" class="node">
<title>Node11</title>
<g id="a_node11"><a xlink:href="_socket_connection_8h.html" target="_top" xlink:title=" ">
<polygon fill="white" stroke="black" points="0,-118 0,-137 171,-137 171,-118 0,-118"/>
<text text-anchor="middle" x="85.5" y="-125" font-family="Helvetica,sans-Serif" font-size="10.00">core/socket/SocketConnection.h</text>
</a>
</g>
</g>
<!-- Node10&#45;&gt;Node11 -->
<g id="edge10" class="edge">
<title>Node10&#45;&gt;Node11</title>
<path fill="none" stroke="midnightblue" d="M148.14,-179.4C135.17,-168.86 117.47,-154.48 104.19,-143.69"/>
<polygon fill="midnightblue" stroke="midnightblue" points="106.17,-140.78 96.2,-137.19 101.76,-146.22 106.17,-140.78"/>
</g>
<!-- Node13 -->
<g id="node13" class="node">
<title>Node13</title>
<g id="a_node13"><a xlink:href="_socket_reader_8h.html" target="_top" xlink:title=" ">
<polygon fill="white" stroke="black" points="579.5,-112.5 579.5,-142.5 689.5,-142.5 689.5,-112.5 579.5,-112.5"/>
<text text-anchor="start" x="587.5" y="-130.5" font-family="Helvetica,sans-Serif" font-size="10.00">core/socket/stream</text>
<text text-anchor="middle" x="634.5" y="-119.5" font-family="Helvetica,sans-Serif" font-size="10.00">/SocketReader.h</text>
</a>
</g>
</g>
<!-- Node12&#45;&gt;Node13 -->
<g id="edge12" class="edge">
<title>Node12&#45;&gt;Node13</title>
<path fill="none" stroke="midnightblue" d="M580.47,-179.4C589.69,-170.71 601.69,-159.4 612.04,-149.66"/>
<polygon fill="midnightblue" stroke="midnightblue" points="614.68,-151.98 619.56,-142.58 609.88,-146.89 614.68,-151.98"/>
</g>
<!-- Node15 -->
<g id="node15" class="node">
<title>Node15</title>
<g id="a_node15"><a xlink:href="_t_l_s_handshake_8h.html" target="_top" xlink:title=" ">
<polygon fill="white" stroke="black" points="318,-112.5 318,-142.5 433,-142.5 433,-112.5 318,-112.5"/>
<text text-anchor="start" x="326" y="-130.5" font-family="Helvetica,sans-Serif" font-size="10.00">core/socket/stream</text>
<text text-anchor="middle" x="375.5" y="-119.5" font-family="Helvetica,sans-Serif" font-size="10.00">/tls/TLSHandshake.h</text>
</a>
</g>
</g>
<!-- Node12&#45;&gt;Node15 -->
<g id="edge15" class="edge">
<title>Node12&#45;&gt;Node15</title>
<path fill="none" stroke="midnightblue" d="M524.27,-179.4C495.52,-169.56 456.96,-156.37 426.3,-145.88"/>
<polygon fill="midnightblue" stroke="midnightblue" points="427.24,-142.5 416.65,-142.58 424.98,-149.13 427.24,-142.5"/>
</g>
<!-- Node14 -->
<g id="node14" class="node">
<title>Node14</title>
<g id="a_node14"><a xlink:href="_read_event_receiver_8h.html" target="_top" xlink:title=" ">
<polygon fill="white" stroke="black" points="467,-56.5 467,-75.5 612,-75.5 612,-56.5 467,-56.5"/>
<text text-anchor="middle" x="539.5" y="-63.5" font-family="Helvetica,sans-Serif" font-size="10.00">core/ReadEventReceiver.h</text>
</a>
</g>
</g>
<!-- Node13&#45;&gt;Node14 -->
<g id="edge13" class="edge">
<title>Node13&#45;&gt;Node14</title>
<path fill="none" stroke="midnightblue" d="M611.99,-112.4C596.9,-102.95 577.11,-90.56 562.03,-81.11"/>
<polygon fill="midnightblue" stroke="midnightblue" points="563.66,-78 553.32,-75.66 559.94,-83.93 563.66,-78"/>
</g>
<!-- Node14&#45;&gt;Node8 -->
<g id="edge14" class="edge">
<title>Node14&#45;&gt;Node8</title>
<path fill="none" stroke="midnightblue" d="M539.5,-56.08C539.5,-49.01 539.5,-38.86 539.5,-29.99"/>
<polygon fill="midnightblue" stroke="midnightblue" points="543,-29.75 539.5,-19.75 536,-29.75 543,-29.75"/>
</g>
<!-- Node15&#45;&gt;Node14 -->
<g id="edge16" class="edge">
<title>Node15&#45;&gt;Node14</title>
<path fill="none" stroke="midnightblue" d="M414.37,-112.4C442.25,-102.28 479.44,-88.79 506.01,-79.15"/>
<polygon fill="midnightblue" stroke="midnightblue" points="507.43,-82.36 515.64,-75.66 505.04,-75.78 507.43,-82.36"/>
</g>
<!-- Node16 -->
<g id="node16" class="node">
<title>Node16</title>
<g id="a_node16"><a xlink:href="_write_event_receiver_8h.html" target="_top" xlink:title=" ">
<polygon fill="white" stroke="black" points="302.5,-56.5 302.5,-75.5 448.5,-75.5 448.5,-56.5 302.5,-56.5"/>
<text text-anchor="middle" x="375.5" y="-63.5" font-family="Helvetica,sans-Serif" font-size="10.00">core/WriteEventReceiver.h</text>
</a>
</g>
</g>
<!-- Node15&#45;&gt;Node16 -->
<g id="edge17" class="edge">
<title>Node15&#45;&gt;Node16</title>
<path fill="none" stroke="midnightblue" d="M375.5,-112.4C375.5,-104.47 375.5,-94.46 375.5,-85.86"/>
<polygon fill="midnightblue" stroke="midnightblue" points="379,-85.66 375.5,-75.66 372,-85.66 379,-85.66"/>
</g>
<!-- Node16&#45;&gt;Node8 -->
<g id="edge18" class="edge">
<title>Node16&#45;&gt;Node8</title>
<path fill="none" stroke="midnightblue" d="M401.49,-56.44C429.2,-47.32 473.25,-32.81 504.12,-22.65"/>
<polygon fill="midnightblue" stroke="midnightblue" points="505.23,-25.97 513.64,-19.52 503.04,-19.32 505.23,-25.97"/>
</g>
<!-- Node17&#45;&gt;Node15 -->
<g id="edge22" class="edge">
<title>Node17&#45;&gt;Node15</title>
<path fill="none" stroke="midnightblue" d="M375.5,-179.4C375.5,-171.64 375.5,-161.81 375.5,-152.86"/>
<polygon fill="midnightblue" stroke="midnightblue" points="379,-152.58 375.5,-142.58 372,-152.58 379,-152.58"/>
</g>
<!-- Node18 -->
<g id="node18" class="node">
<title>Node18</title>
<g id="a_node18"><a xlink:href="_socket_writer_8h.html" target="_top" xlink:title=" ">
<polygon fill="white" stroke="black" points="189.5,-112.5 189.5,-142.5 299.5,-142.5 299.5,-112.5 189.5,-112.5"/>
<text text-anchor="start" x="197.5" y="-130.5" font-family="Helvetica,sans-Serif" font-size="10.00">core/socket/stream</text>
<text text-anchor="middle" x="244.5" y="-119.5" font-family="Helvetica,sans-Serif" font-size="10.00">/SocketWriter.h</text>
</a>
</g>
</g>
<!-- Node17&#45;&gt;Node18 -->
<g id="edge20" class="edge">
<title>Node17&#45;&gt;Node18</title>
<path fill="none" stroke="midnightblue" d="M347.07,-179.4C328.02,-169.94 302.72,-157.39 282.02,-147.12"/>
<polygon fill="midnightblue" stroke="midnightblue" points="283.38,-143.89 272.87,-142.58 280.27,-150.16 283.38,-143.89"/>
</g>
<!-- Node18&#45;&gt;Node16 -->
<g id="edge21" class="edge">
<title>Node18&#45;&gt;Node16</title>
<path fill="none" stroke="midnightblue" d="M275.55,-112.4C297.23,-102.55 325.96,-89.5 347.05,-79.92"/>
<polygon fill="midnightblue" stroke="midnightblue" points="348.78,-82.98 356.44,-75.66 345.89,-76.61 348.78,-82.98"/>
</g>
<!-- Node19&#45;&gt;Node14 -->
<g id="edge24" class="edge">
<title>Node19&#45;&gt;Node14</title>
<path fill="none" stroke="midnightblue" d="M514.32,-112.4C518.97,-104.02 524.9,-93.33 529.84,-84.42"/>
<polygon fill="midnightblue" stroke="midnightblue" points="532.91,-86.1 534.7,-75.66 526.79,-82.71 532.91,-86.1"/>
</g>
<!-- Node19&#45;&gt;Node16 -->
<g id="edge25" class="edge">
<title>Node19&#45;&gt;Node16</title>
<path fill="none" stroke="midnightblue" d="M475.45,-112.4C453.77,-102.55 425.04,-89.5 403.95,-79.92"/>
<polygon fill="midnightblue" stroke="midnightblue" points="405.11,-76.61 394.56,-75.66 402.22,-82.98 405.11,-76.61"/>
</g>
<!-- Node21 -->
<g id="node21" class="node">
<title>Node21</title>
<g id="a_node21"><a xlink:href="core_2socket_2_server_socket_8h.html" target="_top" xlink:title=" ">
<polygon fill="white" stroke="black" points="954.5,-319 954.5,-338 1102.5,-338 1102.5,-319 954.5,-319"/>
<text text-anchor="middle" x="1028.5" y="-326" font-family="Helvetica,sans-Serif" font-size="10.00">core/socket/ServerSocket.h</text>
</a>
</g>
</g>
<!-- Node20&#45;&gt;Node21 -->
<g id="edge27" class="edge">
<title>Node20&#45;&gt;Node21</title>
<path fill="none" stroke="midnightblue" d="M1038.02,-385.73C1036.4,-376.18 1033.77,-360.62 1031.68,-348.28"/>
<polygon fill="midnightblue" stroke="midnightblue" points="1035.08,-347.4 1029.96,-338.13 1028.18,-348.57 1035.08,-347.4"/>
</g>
<!-- Node22 -->
<g id="node22" class="node">
<title>Node22</title>
<g id="a_node22"><a xlink:href="in6_2stream_2_server_config_8h.html" target="_top" xlink:title=" ">
<polygon fill="white" stroke="black" points="1121,-319 1121,-338 1284,-338 1284,-319 1121,-319"/>
<text text-anchor="middle" x="1202.5" y="-326" font-family="Helvetica,sans-Serif" font-size="10.00">net/in6/stream/ServerConfig.h</text>
</a>
</g>
</g>
<!-- Node20&#45;&gt;Node22 -->
<g id="edge28" class="edge">
<title>Node20&#45;&gt;Node22</title>
<path fill="none" stroke="midnightblue" d="M1061.15,-385.87C1089.48,-374.57 1139.32,-354.7 1171.61,-341.82"/>
<polygon fill="midnightblue" stroke="midnightblue" points="1173.03,-345.02 1181.02,-338.06 1170.44,-338.52 1173.03,-345.02"/>
</g>
<!-- Node29 -->
<g id="node29" class="node">
<title>Node29</title>
<g id="a_node29"><a xlink:href="net_2in6_2stream_2_socket_8h.html" target="_top" xlink:title=" ">
<polygon fill="white" stroke="black" points="804.5,-319 804.5,-338 936.5,-338 936.5,-319 804.5,-319"/>
<text text-anchor="middle" x="870.5" y="-326" font-family="Helvetica,sans-Serif" font-size="10.00">net/in6/stream/Socket.h</text>
</a>
</g>
</g>
<!-- Node20&#45;&gt;Node29 -->
<g id="edge35" class="edge">
<title>Node20&#45;&gt;Node29</title>
<path fill="none" stroke="midnightblue" d="M1017.06,-385.87C987.68,-374.57 936.01,-354.7 902.53,-341.82"/>
<polygon fill="midnightblue" stroke="midnightblue" points="903.36,-338.39 892.77,-338.06 900.84,-344.92 903.36,-338.39"/>
</g>
<!-- Node23 -->
<g id="node23" class="node">
<title>Node23</title>
<g id="a_node23"><a xlink:href="_config_backlog_8h.html" target="_top" xlink:title=" ">
<polygon fill="white" stroke="black" points="936,-252 936,-271 1051,-271 1051,-252 936,-252"/>
<text text-anchor="middle" x="993.5" y="-259" font-family="Helvetica,sans-Serif" font-size="10.00">net/ConfigBacklog.h</text>
</a>
</g>
</g>
<!-- Node22&#45;&gt;Node23 -->
<g id="edge29" class="edge">
<title>Node22&#45;&gt;Node23</title>
<path fill="none" stroke="midnightblue" d="M1174.75,-318.87C1137.71,-307.35 1072.03,-286.92 1030.72,-274.08"/>
<polygon fill="midnightblue" stroke="midnightblue" points="1031.62,-270.69 1021.04,-271.06 1029.54,-277.38 1031.62,-270.69"/>
</g>
<!-- Node24 -->
<g id="node24" class="node">
<title>Node24</title>
<g id="a_node24"><a xlink:href="_config_base_8h.html" target="_top" xlink:title=" ">
<polygon fill="white" stroke="black" points="1069.5,-252 1069.5,-271 1169.5,-271 1169.5,-252 1069.5,-252"/>
<text text-anchor="middle" x="1119.5" y="-259" font-family="Helvetica,sans-Serif" font-size="10.00">net/ConfigBase.h</text>
</a>
</g>
</g>
<!-- Node22&#45;&gt;Node24 -->
<g id="edge30" class="edge">
<title>Node22&#45;&gt;Node24</title>
<path fill="none" stroke="midnightblue" d="M1191.31,-318.73C1177.87,-308.21 1155.1,-290.38 1138.8,-277.62"/>
<polygon fill="midnightblue" stroke="midnightblue" points="1140.55,-274.54 1130.52,-271.13 1136.23,-280.05 1140.55,-274.54"/>
</g>
<!-- Node25 -->
<g id="node25" class="node">
<title>Node25</title>
<g id="a_node25"><a xlink:href="_config_conn_8h.html" target="_top" xlink:title=" ">
<polygon fill="white" stroke="black" points="1188,-252 1188,-271 1289,-271 1289,-252 1188,-252"/>
<text text-anchor="middle" x="1238.5" y="-259" font-family="Helvetica,sans-Serif" font-size="10.00">net/ConfigConn.h</text>
</a>
</g>
</g>
<!-- Node22&#45;&gt;Node25 -->
<g id="edge31" class="edge">
<title>Node22&#45;&gt;Node25</title>
<path fill="none" stroke="midnightblue" d="M1207.36,-318.73C1212.81,-308.89 1221.8,-292.66 1228.72,-280.16"/>
<polygon fill="midnightblue" stroke="midnightblue" points="1231.94,-281.57 1233.72,-271.13 1225.81,-278.18 1231.94,-281.57"/>
</g>
<!-- Node26 -->
<g id="node26" class="node">
<title>Node26</title>
<g id="a_node26"><a xlink:href="in6_2stream_2_config_bind_8h.html" target="_top" xlink:title=" ">
<polygon fill="white" stroke="black" points="1307,-252 1307,-271 1460,-271 1460,-252 1307,-252"/>
<text text-anchor="middle" x="1383.5" y="-259" font-family="Helvetica,sans-Serif" font-size="10.00">net/in6/stream/ConfigBind.h</text>
</a>
</g>
</g>
<!-- Node22&#45;&gt;Node26 -->
<g id="edge32" class="edge">
<title>Node22&#45;&gt;Node26</title>
<path fill="none" stroke="midnightblue" d="M1226.54,-318.87C1258.27,-307.47 1314.29,-287.35 1350.12,-274.49"/>
<polygon fill="midnightblue" stroke="midnightblue" points="1351.42,-277.74 1359.65,-271.06 1349.06,-271.15 1351.42,-277.74"/>
</g>
<!-- Node27 -->
<g id="node27" class="node">
<title>Node27</title>
<g id="a_node27"><a xlink:href="net_2in6_2_socket_address_8h.html" target="_top" xlink:title=" ">
<polygon fill="white" stroke="black" points="1103.5,-185 1103.5,-204 1237.5,-204 1237.5,-185 1103.5,-185"/>
<text text-anchor="middle" x="1170.5" y="-192" font-family="Helvetica,sans-Serif" font-size="10.00">net/in6/SocketAddress.h</text>
</a>
</g>
</g>
<!-- Node26&#45;&gt;Node27 -->
<g id="edge33" class="edge">
<title>Node26&#45;&gt;Node27</title>
<path fill="none" stroke="midnightblue" d="M1355.22,-251.87C1317.39,-240.33 1250.25,-219.84 1208.17,-207"/>
<polygon fill="midnightblue" stroke="midnightblue" points="1209.15,-203.63 1198.56,-204.06 1207.11,-210.33 1209.15,-203.63"/>
</g>
<!-- Node28 -->
<g id="node28" class="node">
<title>Node28</title>
<g id="a_node28"><a xlink:href="core_2socket_2_socket_address_8h.html" target="_top" xlink:title=" ">
<polygon fill="white" stroke="black" points="1093,-118 1093,-137 1248,-137 1248,-118 1093,-118"/>
<text text-anchor="middle" x="1170.5" y="-125" font-family="Helvetica,sans-Serif" font-size="10.00">core/socket/SocketAddress.h</text>
</a>
</g>
</g>
<!-- Node27&#45;&gt;Node28 -->
<g id="edge34" class="edge">
<title>Node27&#45;&gt;Node28</title>
<path fill="none" stroke="midnightblue" d="M1170.5,-184.73C1170.5,-175.18 1170.5,-159.62 1170.5,-147.28"/>
<polygon fill="midnightblue" stroke="midnightblue" points="1174,-147.13 1170.5,-137.13 1167,-147.13 1174,-147.13"/>
</g>
<!-- Node29&#45;&gt;Node27 -->
<g id="edge38" class="edge">
<title>Node29&#45;&gt;Node27</title>
<path fill="none" stroke="midnightblue" d="M873.77,-318.98C880.72,-302.12 898.62,-264.53 926.5,-246 975.9,-213.18 1042.38,-201.03 1093.47,-196.82"/>
<polygon fill="midnightblue" stroke="midnightblue" points="1093.76,-200.31 1103.47,-196.08 1093.24,-193.33 1093.76,-200.31"/>
</g>
<!-- Node30 -->
<g id="node30" class="node">
<title>Node30</title>
<g id="a_node30"><a xlink:href="core_2socket_2_socket_8h.html" target="_top" xlink:title=" ">
<polygon fill="white" stroke="black" points="763.5,-252 763.5,-271 879.5,-271 879.5,-252 763.5,-252"/>
<text text-anchor="middle" x="821.5" y="-259" font-family="Helvetica,sans-Serif" font-size="10.00">core/socket/Socket.h</text>
</a>
</g>
</g>
<!-- Node29&#45;&gt;Node30 -->
<g id="edge36" class="edge">
<title>Node29&#45;&gt;Node30</title>
<path fill="none" stroke="midnightblue" d="M863.89,-318.73C856.32,-308.7 843.75,-292.01 834.26,-279.42"/>
<polygon fill="midnightblue" stroke="midnightblue" points="836.82,-277.01 828,-271.13 831.23,-281.22 836.82,-277.01"/>
</g>
<!-- Node31 -->
<g id="node31" class="node">
<title>Node31</title>
<g id="a_node31"><a xlink:href="_descriptor_8h.html" target="_top" xlink:title=" ">
<polygon fill="white" stroke="black" points="771.5,-185 771.5,-204 871.5,-204 871.5,-185 771.5,-185"/>
<text text-anchor="middle" x="821.5" y="-192" font-family="Helvetica,sans-Serif" font-size="10.00">core/Descriptor.h</text>
</a>
</g>
</g>
<!-- Node30&#45;&gt;Node31 -->
<g id="edge37" class="edge">
<title>Node30&#45;&gt;Node31</title>
<path fill="none" stroke="midnightblue" d="M821.5,-251.73C821.5,-242.18 821.5,-226.62 821.5,-214.28"/>
<polygon fill="midnightblue" stroke="midnightblue" points="825,-214.13 821.5,-204.13 818,-214.13 825,-214.13"/>
</g>
<!-- Node32&#45;&gt;Node22 -->
<g id="edge41" class="edge">
<title>Node32&#45;&gt;Node22</title>
<path fill="none" stroke="midnightblue" d="M1202.5,-380.4C1202.5,-371.06 1202.5,-358.71 1202.5,-348.52"/>
<polygon fill="midnightblue" stroke="midnightblue" points="1206,-348.19 1202.5,-338.19 1199,-348.19 1206,-348.19"/>
</g>
<!-- Node33 -->
<g id="node33" class="node">
<title>Node33</title>
<g id="a_node33"><a xlink:href="_config_tls_8h.html" target="_top" xlink:title=" ">
<polygon fill="white" stroke="black" points="1302.5,-319 1302.5,-338 1392.5,-338 1392.5,-319 1302.5,-319"/>
<text text-anchor="middle" x="1347.5" y="-326" font-family="Helvetica,sans-Serif" font-size="10.00">net/ConfigTls.h</text>
</a>
</g>
</g>
<!-- Node32&#45;&gt;Node33 -->
<g id="edge40" class="edge">
<title>Node32&#45;&gt;Node33</title>
<path fill="none" stroke="midnightblue" d="M1233.96,-380.4C1259.4,-368.99 1294.9,-353.08 1319.4,-342.1"/>
<polygon fill="midnightblue" stroke="midnightblue" points="1320.83,-345.29 1328.52,-338.01 1317.97,-338.9 1320.83,-345.29"/>
</g>
<!-- Node35 -->
<g id="node35" class="node">
<title>Node35</title>
<g id="a_node35"><a xlink:href="web_2http_2server_2_socket_context_factory_8h.html" target="_top" xlink:title=" ">
<polygon fill="white" stroke="black" points="1468,-380.5 1468,-410.5 1635,-410.5 1635,-380.5 1468,-380.5"/>
<text text-anchor="start" x="1476" y="-398.5" font-family="Helvetica,sans-Serif" font-size="10.00">web/http/server/SocketContext</text>
<text text-anchor="middle" x="1551.5" y="-387.5" font-family="Helvetica,sans-Serif" font-size="10.00">Factory.h</text>
</a>
</g>
</g>
<!-- Node34&#45;&gt;Node35 -->
<g id="edge43" class="edge">
<title>Node34&#45;&gt;Node35</title>
<path fill="none" stroke="midnightblue" d="M1416.22,-452.87C1439.62,-443.12 1478.37,-426.97 1508.42,-414.45"/>
<polygon fill="midnightblue" stroke="midnightblue" points="1509.95,-417.61 1517.83,-410.53 1507.26,-411.14 1509.95,-417.61"/>
</g>
<!-- Node36 -->
<g id="node36" class="node">
<title>Node36</title>
<g id="a_node36"><a xlink:href="web_2http_2_socket_context_factory_8h.html" target="_top" xlink:title=" ">
<polygon fill="white" stroke="black" points="1463.5,-319 1463.5,-338 1639.5,-338 1639.5,-319 1463.5,-319"/>
<text text-anchor="middle" x="1551.5" y="-326" font-family="Helvetica,sans-Serif" font-size="10.00">web/http/SocketContextFactory.h</text>
</a>
</g>
</g>
<!-- Node35&#45;&gt;Node36 -->
<g id="edge44" class="edge">
<title>Node35&#45;&gt;Node36</title>
<path fill="none" stroke="midnightblue" d="M1551.5,-380.4C1551.5,-371.06 1551.5,-358.71 1551.5,-348.52"/>
<polygon fill="midnightblue" stroke="midnightblue" points="1555,-348.19 1551.5,-338.19 1548,-348.19 1555,-348.19"/>
</g>
<!-- Node38 -->
<g id="node38" class="node">
<title>Node38</title>
<g id="a_node38"><a xlink:href="server_2_socket_context_8hpp.html" target="_top" xlink:title=" ">
<polygon fill="white" stroke="black" points="1717.5,-319 1717.5,-338 1905.5,-338 1905.5,-319 1717.5,-319"/>
<text text-anchor="middle" x="1811.5" y="-326" font-family="Helvetica,sans-Serif" font-size="10.00">web/http/server/SocketContext.hpp</text>
</a>
</g>
</g>
<!-- Node35&#45;&gt;Node38 -->
<g id="edge46" class="edge">
<title>Node35&#45;&gt;Node38</title>
<path fill="none" stroke="midnightblue" d="M1607.6,-380.48C1655.52,-368.5 1723.5,-351.5 1767.55,-340.49"/>
<polygon fill="midnightblue" stroke="midnightblue" points="1768.53,-343.85 1777.39,-338.03 1766.84,-337.06 1768.53,-343.85"/>
</g>
<!-- Node37 -->
<g id="node37" class="node">
<title>Node37</title>
<g id="a_node37"><a xlink:href="core_2socket_2_socket_context_factory_8h.html" target="_top" xlink:title=" ">
<polygon fill="white" stroke="black" points="1478.5,-246.5 1478.5,-276.5 1624.5,-276.5 1624.5,-246.5 1478.5,-246.5"/>
<text text-anchor="start" x="1486.5" y="-264.5" font-family="Helvetica,sans-Serif" font-size="10.00">core/socket/SocketContext</text>
<text text-anchor="middle" x="1551.5" y="-253.5" font-family="Helvetica,sans-Serif" font-size="10.00">Factory.h</text>
</a>
</g>
</g>
<!-- Node36&#45;&gt;Node37 -->
<g id="edge45" class="edge">
<title>Node36&#45;&gt;Node37</title>
<path fill="none" stroke="midnightblue" d="M1551.5,-318.73C1551.5,-310.54 1551.5,-297.92 1551.5,-286.71"/>
<polygon fill="midnightblue" stroke="midnightblue" points="1555,-286.59 1551.5,-276.59 1548,-286.59 1555,-286.59"/>
</g>
<!-- Node39 -->
<g id="node39" class="node">
<title>Node39</title>
<g id="a_node39"><a xlink:href="_connection_state_8h.html" target="_top" xlink:title=" ">
<polygon fill="white" stroke="black" points="1642.5,-252 1642.5,-271 1794.5,-271 1794.5,-252 1642.5,-252"/>
<text text-anchor="middle" x="1718.5" y="-259" font-family="Helvetica,sans-Serif" font-size="10.00">web/http/ConnectionState.h</text>
</a>
</g>
</g>
<!-- Node38&#45;&gt;Node39 -->
<g id="edge47" class="edge">
<title>Node38&#45;&gt;Node39</title>
<path fill="none" stroke="midnightblue" d="M1798.96,-318.73C1783.62,-308.01 1757.44,-289.72 1739.12,-276.91"/>
<polygon fill="midnightblue" stroke="midnightblue" points="1741.05,-273.99 1730.84,-271.13 1737.04,-279.72 1741.05,-273.99"/>
</g>
<!-- Node40 -->
<g id="node40" class="node">
<title>Node40</title>
<g id="a_node40"><a xlink:href="http__utils_8h.html" target="_top" xlink:title=" ">
<polygon fill="white" stroke="black" points="1813,-252 1813,-271 1930,-271 1930,-252 1813,-252"/>
<text text-anchor="middle" x="1871.5" y="-259" font-family="Helvetica,sans-Serif" font-size="10.00">web/http/http_utils.h</text>
</a>
</g>
</g>
<!-- Node38&#45;&gt;Node40 -->
<g id="edge48" class="edge">
<title>Node38&#45;&gt;Node40</title>
<path fill="none" stroke="midnightblue" d="M1819.59,-318.73C1829.04,-308.5 1844.86,-291.36 1856.55,-278.69"/>
<polygon fill="midnightblue" stroke="midnightblue" points="1859.33,-280.85 1863.54,-271.13 1854.18,-276.1 1859.33,-280.85"/>
</g>
<!-- Node41 -->
<g id="node41" class="node">
<title>Node41</title>
<g id="a_node41"><a xlink:href="web_2http_2server_2_socket_context_8h.html" target="_top" xlink:title=" ">
<polygon fill="white" stroke="black" points="1948.5,-252 1948.5,-271 2124.5,-271 2124.5,-252 1948.5,-252"/>
<text text-anchor="middle" x="2036.5" y="-259" font-family="Helvetica,sans-Serif" font-size="10.00">web/http/server/SocketContext.h</text>
</a>
</g>
</g>
<!-- Node38&#45;&gt;Node41 -->
<g id="edge49" class="edge">
<title>Node38&#45;&gt;Node41</title>
<path fill="none" stroke="midnightblue" d="M1841.38,-318.87C1881.41,-307.3 1952.56,-286.75 1996.99,-273.91"/>
<polygon fill="midnightblue" stroke="midnightblue" points="1998.22,-277.2 2006.86,-271.06 1996.28,-270.48 1998.22,-277.2"/>
</g>
<!-- Node42 -->
<g id="node42" class="node">
<title>Node42</title>
<g id="a_node42"><a xlink:href="web_2http_2_socket_context_8h.html" target="_top" xlink:title=" ">
<polygon fill="white" stroke="black" points="2053.5,-185 2053.5,-204 2195.5,-204 2195.5,-185 2053.5,-185"/>
<text text-anchor="middle" x="2124.5" y="-192" font-family="Helvetica,sans-Serif" font-size="10.00">web/http/SocketContext.h</text>
</a>
</g>
</g>
<!-- Node41&#45;&gt;Node42 -->
<g id="edge50" class="edge">
<title>Node41&#45;&gt;Node42</title>
<path fill="none" stroke="midnightblue" d="M2048.37,-251.73C2062.75,-241.11 2087.2,-223.05 2104.51,-210.26"/>
<polygon fill="midnightblue" stroke="midnightblue" points="2106.86,-212.88 2112.82,-204.13 2102.7,-207.25 2106.86,-212.88"/>
</g>
<!-- Node44 -->
<g id="node44" class="node">
<title>Node44</title>
<g id="a_node44"><a xlink:href="_request_parser_8h.html" target="_top" xlink:title=" ">
<polygon fill="white" stroke="black" points="1859.5,-185 1859.5,-204 2035.5,-204 2035.5,-185 1859.5,-185"/>
<text text-anchor="middle" x="1947.5" y="-192" font-family="Helvetica,sans-Serif" font-size="10.00">web/http/server/RequestParser.h</text>
</a>
</g>
</g>
<!-- Node41&#45;&gt;Node44 -->
<g id="edge52" class="edge">
<title>Node41&#45;&gt;Node44</title>
<path fill="none" stroke="midnightblue" d="M2024.5,-251.73C2009.95,-241.11 1985.22,-223.05 1967.72,-210.26"/>
<polygon fill="midnightblue" stroke="midnightblue" points="1969.45,-207.2 1959.31,-204.13 1965.32,-212.85 1969.45,-207.2"/>
</g>
<!-- Node43 -->
<g id="node43" class="node">
<title>Node43</title>
<g id="a_node43"><a xlink:href="core_2socket_2_socket_context_8h.html" target="_top" xlink:title=" ">
<polygon fill="white" stroke="black" points="2047,-118 2047,-137 2202,-137 2202,-118 2047,-118"/>
<text text-anchor="middle" x="2124.5" y="-125" font-family="Helvetica,sans-Serif" font-size="10.00">core/socket/SocketContext.h</text>
</a>
</g>
</g>
<!-- Node42&#45;&gt;Node43 -->
<g id="edge51" class="edge">
<title>Node42&#45;&gt;Node43</title>
<path fill="none" stroke="midnightblue" d="M2124.5,-184.73C2124.5,-175.18 2124.5,-159.62 2124.5,-147.28"/>
<polygon fill="midnightblue" stroke="midnightblue" points="2128,-147.13 2124.5,-137.13 2121,-147.13 2128,-147.13"/>
</g>
<!-- Node45 -->
<g id="node45" class="node">
<title>Node45</title>
<g id="a_node45"><a xlink:href="_parser_8h.html" target="_top" xlink:title=" ">
<polygon fill="white" stroke="black" points="1896.5,-118 1896.5,-137 1998.5,-137 1998.5,-118 1896.5,-118"/>
<text text-anchor="middle" x="1947.5" y="-125" font-family="Helvetica,sans-Serif" font-size="10.00">web/http/Parser.h</text>
</a>
</g>
</g>
<!-- Node44&#45;&gt;Node45 -->
<g id="edge53" class="edge">
<title>Node44&#45;&gt;Node45</title>
<path fill="none" stroke="midnightblue" d="M1947.5,-184.73C1947.5,-175.18 1947.5,-159.62 1947.5,-147.28"/>
<polygon fill="midnightblue" stroke="midnightblue" points="1951,-147.13 1947.5,-137.13 1944,-147.13 1951,-147.13"/>
</g>
</g>
</svg>
