<?xml version="1.0" encoding="UTF-8" standalone="no"?>
<!DOCTYPE svg PUBLIC "-//W3C//DTD SVG 1.1//EN"
 "http://www.w3.org/Graphics/SVG/1.1/DTD/svg11.dtd">
<!-- Generated by graphviz version 2.43.0 (0)
 -->
<!-- Title: web/http/tls/un/Server.h Pages: 1 -->
<svg width="2490pt" height="486pt"
 viewBox="0.00 0.00 2489.50 486.00" xmlns="http://www.w3.org/2000/svg" xmlns:xlink="http://www.w3.org/1999/xlink">
<g id="graph0" class="graph" transform="scale(1 1) rotate(0) translate(4 482)">
<title>web/http/tls/un/Server.h</title>
<polygon fill="white" stroke="transparent" points="-4,4 -4,-482 2485.5,-482 2485.5,4 -4,4"/>
<!-- Node1 -->
<g id="node1" class="node">
<title>Node1</title>
<g id="a_node1"><a xlink:title=" ">
<polygon fill="#bfbfbf" stroke="black" points="1176,-458.5 1176,-477.5 1309,-477.5 1309,-458.5 1176,-458.5"/>
<text text-anchor="middle" x="1242.5" y="-465.5" font-family="Helvetica,sans-Serif" font-size="10.00">web/http/tls/un/Server.h</text>
</a>
</g>
</g>
<!-- Node2 -->
<g id="node2" class="node">
<title>Node2</title>
<g id="a_node2"><a xlink:href="net_2un_2stream_2tls_2_socket_server_8h.html" target="_top" xlink:title=" ">
<polygon fill="white" stroke="black" points="1098,-391.5 1098,-421.5 1233,-421.5 1233,-391.5 1098,-391.5"/>
<text text-anchor="start" x="1106" y="-409.5" font-family="Helvetica,sans-Serif" font-size="10.00">net/un/stream/tls/Socket</text>
<text text-anchor="middle" x="1165.5" y="-398.5" font-family="Helvetica,sans-Serif" font-size="10.00">Server.h</text>
</a>
</g>
</g>
<!-- Node1&#45;&gt;Node2 -->
<g id="edge1" class="edge">
<title>Node1&#45;&gt;Node2</title>
<path fill="none" stroke="midnightblue" d="M1231.47,-458.48C1221.14,-450.49 1205.3,-438.25 1191.73,-427.77"/>
<polygon fill="midnightblue" stroke="midnightblue" points="1193.7,-424.87 1183.65,-421.52 1189.42,-430.41 1193.7,-424.87"/>
</g>
<!-- Node46 -->
<g id="node40" class="node">
<title>Node46</title>
<g id="a_node40"><a xlink:href="server_2_server_8h.html" target="_top" xlink:title=" ">
<polygon fill="white" stroke="black" points="1441,-397 1441,-416 1578,-416 1578,-397 1441,-397"/>
<text text-anchor="middle" x="1509.5" y="-404" font-family="Helvetica,sans-Serif" font-size="10.00">web/http/server/Server.h</text>
</a>
</g>
</g>
<!-- Node1&#45;&gt;Node46 -->
<g id="edge49" class="edge">
<title>Node1&#45;&gt;Node46</title>
<path fill="none" stroke="midnightblue" d="M1280.75,-458.48C1328.34,-447.87 1409.61,-429.76 1461.38,-418.22"/>
<polygon fill="midnightblue" stroke="midnightblue" points="1462.32,-421.6 1471.32,-416.01 1460.79,-414.77 1462.32,-421.6"/>
</g>
<!-- Node3 -->
<g id="node3" class="node">
<title>Node3</title>
<g id="a_node3"><a xlink:href="core_2socket_2stream_2tls_2_socket_server_8h.html" target="_top" xlink:title=" ">
<polygon fill="white" stroke="black" points="1033.5,-324.5 1033.5,-354.5 1143.5,-354.5 1143.5,-324.5 1033.5,-324.5"/>
<text text-anchor="start" x="1041.5" y="-342.5" font-family="Helvetica,sans-Serif" font-size="10.00">core/socket/stream</text>
<text text-anchor="middle" x="1088.5" y="-331.5" font-family="Helvetica,sans-Serif" font-size="10.00">/tls/SocketServer.h</text>
</a>
</g>
</g>
<!-- Node2&#45;&gt;Node3 -->
<g id="edge2" class="edge">
<title>Node2&#45;&gt;Node3</title>
<path fill="none" stroke="midnightblue" d="M1148.79,-391.4C1138.3,-382.54 1124.58,-370.96 1112.89,-361.09"/>
<polygon fill="midnightblue" stroke="midnightblue" points="1115.07,-358.35 1105.18,-354.58 1110.56,-363.7 1115.07,-358.35"/>
</g>
<!-- Node32 -->
<g id="node26" class="node">
<title>Node32</title>
<g id="a_node26"><a xlink:href="net_2un_2stream_2_socket_server_8h.html" target="_top" xlink:title=" ">
<polygon fill="white" stroke="black" points="1162,-330 1162,-349 1323,-349 1323,-330 1162,-330"/>
<text text-anchor="middle" x="1242.5" y="-337" font-family="Helvetica,sans-Serif" font-size="10.00">net/un/stream/SocketServer.h</text>
</a>
</g>
</g>
<!-- Node2&#45;&gt;Node32 -->
<g id="edge28" class="edge">
<title>Node2&#45;&gt;Node32</title>
<path fill="none" stroke="midnightblue" d="M1182.21,-391.4C1194.69,-380.86 1211.73,-366.48 1224.51,-355.69"/>
<polygon fill="midnightblue" stroke="midnightblue" points="1226.82,-358.32 1232.2,-349.19 1222.3,-352.97 1226.82,-358.32"/>
</g>
<!-- Node38 -->
<g id="node32" class="node">
<title>Node38</title>
<g id="a_node32"><a xlink:href="un_2stream_2tls_2config_2_config_socket_server_8h.html" target="_top" xlink:title=" ">
<polygon fill="white" stroke="black" points="252,-324.5 252,-354.5 385,-354.5 385,-324.5 252,-324.5"/>
<text text-anchor="start" x="260" y="-342.5" font-family="Helvetica,sans-Serif" font-size="10.00">net/un/stream/tls/config</text>
<text text-anchor="middle" x="318.5" y="-331.5" font-family="Helvetica,sans-Serif" font-size="10.00">/ConfigSocketServer.h</text>
</a>
</g>
</g>
<!-- Node2&#45;&gt;Node38 -->
<g id="edge35" class="edge">
<title>Node2&#45;&gt;Node38</title>
<path fill="none" stroke="midnightblue" d="M1097.97,-400.32C942.31,-388.37 559.08,-358.96 395.03,-346.37"/>
<polygon fill="midnightblue" stroke="midnightblue" points="395.26,-342.88 385.02,-345.6 394.72,-349.86 395.26,-342.88"/>
</g>
<!-- Node4 -->
<g id="node4" class="node">
<title>Node4</title>
<g id="a_node4"><a xlink:href="core_2socket_2stream_2_socket_server_8h.html" target="_top" xlink:title=" ">
<polygon fill="white" stroke="black" points="901.5,-257.5 901.5,-287.5 1011.5,-287.5 1011.5,-257.5 901.5,-257.5"/>
<text text-anchor="start" x="909.5" y="-275.5" font-family="Helvetica,sans-Serif" font-size="10.00">core/socket/stream</text>
<text text-anchor="middle" x="956.5" y="-264.5" font-family="Helvetica,sans-Serif" font-size="10.00">/SocketServer.h</text>
</a>
</g>
</g>
<!-- Node3&#45;&gt;Node4 -->
<g id="edge3" class="edge">
<title>Node3&#45;&gt;Node4</title>
<path fill="none" stroke="midnightblue" d="M1059.86,-324.4C1040.66,-314.94 1015.17,-302.39 994.31,-292.12"/>
<polygon fill="midnightblue" stroke="midnightblue" points="995.6,-288.85 985.09,-287.58 992.51,-295.13 995.6,-288.85"/>
</g>
<!-- Node5 -->
<g id="node5" class="node">
<title>Node5</title>
<g id="a_node5"><a xlink:href="tls_2_socket_acceptor_8h.html" target="_top" xlink:title=" ">
<polygon fill="white" stroke="black" points="1030,-257.5 1030,-287.5 1149,-287.5 1149,-257.5 1030,-257.5"/>
<text text-anchor="start" x="1038" y="-275.5" font-family="Helvetica,sans-Serif" font-size="10.00">core/socket/stream</text>
<text text-anchor="middle" x="1089.5" y="-264.5" font-family="Helvetica,sans-Serif" font-size="10.00">/tls/SocketAcceptor.h</text>
</a>
</g>
</g>
<!-- Node3&#45;&gt;Node5 -->
<g id="edge4" class="edge">
<title>Node3&#45;&gt;Node5</title>
<path fill="none" stroke="midnightblue" d="M1088.72,-324.4C1088.84,-316.64 1088.99,-306.81 1089.13,-297.86"/>
<polygon fill="midnightblue" stroke="midnightblue" points="1092.63,-297.63 1089.28,-287.58 1085.63,-297.52 1092.63,-297.63"/>
</g>
<!-- Node6 -->
<g id="node6" class="node">
<title>Node6</title>
<g id="a_node6"><a xlink:href="_socket_acceptor_8h.html" target="_top" xlink:title=" ">
<polygon fill="white" stroke="black" points="1047.5,-190.5 1047.5,-220.5 1157.5,-220.5 1157.5,-190.5 1047.5,-190.5"/>
<text text-anchor="start" x="1055.5" y="-208.5" font-family="Helvetica,sans-Serif" font-size="10.00">core/socket/stream</text>
<text text-anchor="middle" x="1102.5" y="-197.5" font-family="Helvetica,sans-Serif" font-size="10.00">/SocketAcceptor.h</text>
</a>
</g>
</g>
<!-- Node5&#45;&gt;Node6 -->
<g id="edge5" class="edge">
<title>Node5&#45;&gt;Node6</title>
<path fill="none" stroke="midnightblue" d="M1092.32,-257.4C1093.89,-249.56 1095.88,-239.6 1097.69,-230.57"/>
<polygon fill="midnightblue" stroke="midnightblue" points="1101.16,-231.07 1099.68,-220.58 1094.29,-229.7 1101.16,-231.07"/>
</g>
<!-- Node21 -->
<g id="node18" class="node">
<title>Node21</title>
<g id="a_node18"><a xlink:href="stream_2tls_2_socket_connection_8h.html" target="_top" xlink:title=" ">
<polygon fill="white" stroke="black" points="801,-190.5 801,-220.5 932,-220.5 932,-190.5 801,-190.5"/>
<text text-anchor="start" x="809" y="-208.5" font-family="Helvetica,sans-Serif" font-size="10.00">core/socket/stream</text>
<text text-anchor="middle" x="866.5" y="-197.5" font-family="Helvetica,sans-Serif" font-size="10.00">/tls/SocketConnection.h</text>
</a>
</g>
</g>
<!-- Node5&#45;&gt;Node21 -->
<g id="edge19" class="edge">
<title>Node5&#45;&gt;Node21</title>
<path fill="none" stroke="midnightblue" d="M1041.39,-257.48C1007.21,-247.51 961.14,-234.09 924.87,-223.51"/>
<polygon fill="midnightblue" stroke="midnightblue" points="925.49,-220.05 914.91,-220.61 923.53,-226.77 925.49,-220.05"/>
</g>
<!-- Node7 -->
<g id="node7" class="node">
<title>Node7</title>
<g id="a_node7"><a xlink:href="_accept_event_receiver_8h.html" target="_top" xlink:title=" ">
<polygon fill="white" stroke="black" points="1111.5,-123.5 1111.5,-153.5 1243.5,-153.5 1243.5,-123.5 1111.5,-123.5"/>
<text text-anchor="start" x="1119.5" y="-141.5" font-family="Helvetica,sans-Serif" font-size="10.00">core/eventreceiver</text>
<text text-anchor="middle" x="1177.5" y="-130.5" font-family="Helvetica,sans-Serif" font-size="10.00">/AcceptEventReceiver.h</text>
</a>
</g>
</g>
<!-- Node6&#45;&gt;Node7 -->
<g id="edge6" class="edge">
<title>Node6&#45;&gt;Node7</title>
<path fill="none" stroke="midnightblue" d="M1118.77,-190.4C1128.9,-181.62 1142.1,-170.18 1153.42,-160.37"/>
<polygon fill="midnightblue" stroke="midnightblue" points="1155.99,-162.77 1161.26,-153.58 1151.41,-157.48 1155.99,-162.77"/>
</g>
<!-- Node11 -->
<g id="node10" class="node">
<title>Node11</title>
<g id="a_node10"><a xlink:href="_init_accept_event_receiver_8h.html" target="_top" xlink:title=" ">
<polygon fill="white" stroke="black" points="1007.5,-56.5 1007.5,-86.5 1155.5,-86.5 1155.5,-56.5 1007.5,-56.5"/>
<text text-anchor="start" x="1015.5" y="-74.5" font-family="Helvetica,sans-Serif" font-size="10.00">core/eventreceiver</text>
<text text-anchor="middle" x="1081.5" y="-63.5" font-family="Helvetica,sans-Serif" font-size="10.00">/InitAcceptEventReceiver.h</text>
</a>
</g>
</g>
<!-- Node6&#45;&gt;Node11 -->
<g id="edge9" class="edge">
<title>Node6&#45;&gt;Node11</title>
<path fill="none" stroke="midnightblue" d="M1100.25,-190.37C1096.68,-167.94 1089.68,-123.92 1085.32,-96.49"/>
<polygon fill="midnightblue" stroke="midnightblue" points="1088.76,-95.85 1083.73,-86.52 1081.85,-96.95 1088.76,-95.85"/>
</g>
<!-- Node12 -->
<g id="node11" class="node">
<title>Node12</title>
<g id="a_node11"><a xlink:href="_socket_connection_factory_8h.html" target="_top" xlink:title=" ">
<polygon fill="white" stroke="black" points="1471.5,-56.5 1471.5,-86.5 1621.5,-86.5 1621.5,-56.5 1471.5,-56.5"/>
<text text-anchor="start" x="1479.5" y="-74.5" font-family="Helvetica,sans-Serif" font-size="10.00">core/socket/stream</text>
<text text-anchor="middle" x="1546.5" y="-63.5" font-family="Helvetica,sans-Serif" font-size="10.00">/SocketConnectionFactory.h</text>
</a>
</g>
</g>
<!-- Node6&#45;&gt;Node12 -->
<g id="edge11" class="edge">
<title>Node6&#45;&gt;Node12</title>
<path fill="none" stroke="midnightblue" d="M1157.68,-193.81C1164.68,-192.5 1171.76,-191.2 1178.5,-190 1275.18,-172.8 1303.62,-185.89 1396.5,-154 1440.96,-138.74 1487.9,-111.11 1517.19,-92.29"/>
<polygon fill="midnightblue" stroke="midnightblue" points="1519.21,-95.15 1525.69,-86.76 1515.4,-89.28 1519.21,-95.15"/>
</g>
<!-- Node15 -->
<g id="node13" class="node">
<title>Node15</title>
<g id="a_node13"><a xlink:href="_config_cluster_8h.html" target="_top" xlink:title=" ">
<polygon fill="white" stroke="black" points="394,-129 394,-148 537,-148 537,-129 394,-129"/>
<text text-anchor="middle" x="465.5" y="-136" font-family="Helvetica,sans-Serif" font-size="10.00">net/config/ConfigCluster.h</text>
</a>
</g>
</g>
<!-- Node6&#45;&gt;Node15 -->
<g id="edge13" class="edge">
<title>Node6&#45;&gt;Node15</title>
<path fill="none" stroke="midnightblue" d="M1047.32,-199.55C909.22,-187.16 558.83,-155.66 546.5,-154 537.65,-152.81 528.3,-151.34 519.21,-149.79"/>
<polygon fill="midnightblue" stroke="midnightblue" points="519.56,-146.3 509.11,-148.02 518.36,-153.19 519.56,-146.3"/>
</g>
<!-- Node17 -->
<g id="node15" class="node">
<title>Node17</title>
<g id="a_node15"><a xlink:href="net_2un_2dgram_2socket_8h.html" target="_top" xlink:title=" ">
<polygon fill="white" stroke="black" points="1261.5,-129 1261.5,-148 1387.5,-148 1387.5,-129 1261.5,-129"/>
<text text-anchor="middle" x="1324.5" y="-136" font-family="Helvetica,sans-Serif" font-size="10.00">net/un/dgram/Socket.h</text>
</a>
</g>
</g>
<!-- Node6&#45;&gt;Node17 -->
<g id="edge15" class="edge">
<title>Node6&#45;&gt;Node17</title>
<path fill="none" stroke="midnightblue" d="M1150.4,-190.48C1190.71,-178.67 1247.65,-162 1285.3,-150.98"/>
<polygon fill="midnightblue" stroke="midnightblue" points="1286.76,-154.2 1295.37,-148.03 1284.79,-147.48 1286.76,-154.2"/>
</g>
<!-- Node8 -->
<g id="node8" class="node">
<title>Node8</title>
<g id="a_node8"><a xlink:href="_descriptor_event_receiver_8h.html" target="_top" xlink:title=" ">
<polygon fill="white" stroke="black" points="1173.5,-62 1173.5,-81 1343.5,-81 1343.5,-62 1173.5,-62"/>
<text text-anchor="middle" x="1258.5" y="-69" font-family="Helvetica,sans-Serif" font-size="10.00">core/DescriptorEventReceiver.h</text>
</a>
</g>
</g>
<!-- Node7&#45;&gt;Node8 -->
<g id="edge7" class="edge">
<title>Node7&#45;&gt;Node8</title>
<path fill="none" stroke="midnightblue" d="M1195.08,-123.4C1208.21,-112.86 1226.13,-98.48 1239.57,-87.69"/>
<polygon fill="midnightblue" stroke="midnightblue" points="1242.06,-90.18 1247.67,-81.19 1237.68,-84.72 1242.06,-90.18"/>
</g>
<!-- Node9 -->
<g id="node9" class="node">
<title>Node9</title>
<g id="a_node9"><a xlink:href="_event_receiver_8h.html" target="_top" xlink:title=" ">
<polygon fill="white" stroke="red" points="1120.5,-0.5 1120.5,-19.5 1216.5,-19.5 1216.5,-0.5 1120.5,-0.5"/>
<text text-anchor="middle" x="1168.5" y="-7.5" font-family="Helvetica,sans-Serif" font-size="10.00">EventReceiver.h</text>
</a>
</g>
</g>
<!-- Node8&#45;&gt;Node9 -->
<g id="edge8" class="edge">
<title>Node8&#45;&gt;Node9</title>
<path fill="none" stroke="midnightblue" d="M1245.61,-61.98C1231.04,-52.34 1207.1,-36.52 1189.75,-25.05"/>
<polygon fill="midnightblue" stroke="midnightblue" points="1191.64,-22.1 1181.37,-19.51 1187.78,-27.94 1191.64,-22.1"/>
</g>
<!-- Node11&#45;&gt;Node9 -->
<g id="edge10" class="edge">
<title>Node11&#45;&gt;Node9</title>
<path fill="none" stroke="midnightblue" d="M1102.12,-56.4C1115.8,-47.04 1133.71,-34.79 1147.48,-25.38"/>
<polygon fill="midnightblue" stroke="midnightblue" points="1149.56,-28.19 1155.84,-19.66 1145.61,-22.41 1149.56,-28.19"/>
</g>
<!-- Node13 -->
<g id="node12" class="node">
<title>Node13</title>
<g id="a_node12"><a xlink:href="net_2socket_8h.html" target="_top" xlink:title=" ">
<polygon fill="white" stroke="red" points="1438,-0.5 1438,-19.5 1515,-19.5 1515,-0.5 1438,-0.5"/>
<text text-anchor="middle" x="1476.5" y="-7.5" font-family="Helvetica,sans-Serif" font-size="10.00">net/Socket.h</text>
</a>
</g>
</g>
<!-- Node12&#45;&gt;Node13 -->
<g id="edge12" class="edge">
<title>Node12&#45;&gt;Node13</title>
<path fill="none" stroke="midnightblue" d="M1529.91,-56.4C1519.21,-47.31 1505.31,-35.49 1494.37,-26.19"/>
<polygon fill="midnightblue" stroke="midnightblue" points="1496.57,-23.47 1486.69,-19.66 1492.04,-28.8 1496.57,-23.47"/>
</g>
<!-- Node16 -->
<g id="node14" class="node">
<title>Node16</title>
<g id="a_node14"><a xlink:href="_config_base_8h.html" target="_top" xlink:title=" ">
<polygon fill="white" stroke="black" points="197,-62 197,-81 330,-81 330,-62 197,-62"/>
<text text-anchor="middle" x="263.5" y="-69" font-family="Helvetica,sans-Serif" font-size="10.00">net/config/ConfigBase.h</text>
</a>
</g>
</g>
<!-- Node15&#45;&gt;Node16 -->
<g id="edge14" class="edge">
<title>Node15&#45;&gt;Node16</title>
<path fill="none" stroke="midnightblue" d="M438.68,-128.87C402.96,-117.38 339.66,-97.01 299.73,-84.16"/>
<polygon fill="midnightblue" stroke="midnightblue" points="300.7,-80.8 290.11,-81.06 298.56,-87.46 300.7,-80.8"/>
</g>
<!-- Node18 -->
<g id="node16" class="node">
<title>Node18</title>
<g id="a_node16"><a xlink:href="net_2un_2socket_8h.html" target="_top" xlink:title=" ">
<polygon fill="white" stroke="black" points="1361.5,-62 1361.5,-81 1453.5,-81 1453.5,-62 1361.5,-62"/>
<text text-anchor="middle" x="1407.5" y="-69" font-family="Helvetica,sans-Serif" font-size="10.00">net/un/Socket.h</text>
</a>
</g>
</g>
<!-- Node17&#45;&gt;Node18 -->
<g id="edge16" class="edge">
<title>Node17&#45;&gt;Node18</title>
<path fill="none" stroke="midnightblue" d="M1335.69,-128.73C1349.13,-118.21 1371.9,-100.38 1388.2,-87.62"/>
<polygon fill="midnightblue" stroke="midnightblue" points="1390.77,-90.05 1396.48,-81.13 1386.45,-84.54 1390.77,-90.05"/>
</g>
<!-- Node18&#45;&gt;Node13 -->
<g id="edge17" class="edge">
<title>Node18&#45;&gt;Node13</title>
<path fill="none" stroke="midnightblue" d="M1417.39,-61.98C1428.15,-52.7 1445.57,-37.67 1458.72,-26.33"/>
<polygon fill="midnightblue" stroke="midnightblue" points="1461.34,-28.69 1466.63,-19.51 1456.77,-23.39 1461.34,-28.69"/>
</g>
<!-- Node19 -->
<g id="node17" class="node">
<title>Node19</title>
<g id="a_node17"><a xlink:href="un_2_socket_address_8h.html" target="_top" xlink:title=" ">
<polygon fill="white" stroke="red" points="1271,-0.5 1271,-19.5 1402,-19.5 1402,-0.5 1271,-0.5"/>
<text text-anchor="middle" x="1336.5" y="-7.5" font-family="Helvetica,sans-Serif" font-size="10.00">net/un/SocketAddress.h</text>
</a>
</g>
</g>
<!-- Node18&#45;&gt;Node19 -->
<g id="edge18" class="edge">
<title>Node18&#45;&gt;Node19</title>
<path fill="none" stroke="midnightblue" d="M1397.33,-61.98C1386.15,-52.61 1367.98,-37.38 1354.41,-26.01"/>
<polygon fill="midnightblue" stroke="midnightblue" points="1356.57,-23.25 1346.65,-19.51 1352.07,-28.61 1356.57,-23.25"/>
</g>
<!-- Node22 -->
<g id="node19" class="node">
<title>Node22</title>
<g id="a_node19"><a xlink:href="stream_2_socket_connection_8h.html" target="_top" xlink:title=" ">
<polygon fill="white" stroke="black" points="939.5,-123.5 939.5,-153.5 1055.5,-153.5 1055.5,-123.5 939.5,-123.5"/>
<text text-anchor="start" x="947.5" y="-141.5" font-family="Helvetica,sans-Serif" font-size="10.00">core/socket/stream</text>
<text text-anchor="middle" x="997.5" y="-130.5" font-family="Helvetica,sans-Serif" font-size="10.00">/SocketConnection.h</text>
</a>
</g>
</g>
<!-- Node21&#45;&gt;Node22 -->
<g id="edge20" class="edge">
<title>Node21&#45;&gt;Node22</title>
<path fill="none" stroke="midnightblue" d="M894.93,-190.4C913.98,-180.94 939.28,-168.39 959.98,-158.12"/>
<polygon fill="midnightblue" stroke="midnightblue" points="961.73,-161.16 969.13,-153.58 958.62,-154.89 961.73,-161.16"/>
</g>
<!-- Node24 -->
<g id="node21" class="node">
<title>Node24</title>
<g id="a_node21"><a xlink:href="tls_2_socket_reader_8h.html" target="_top" xlink:title=" ">
<polygon fill="white" stroke="black" points="811.5,-123.5 811.5,-153.5 921.5,-153.5 921.5,-123.5 811.5,-123.5"/>
<text text-anchor="start" x="819.5" y="-141.5" font-family="Helvetica,sans-Serif" font-size="10.00">core/socket/stream</text>
<text text-anchor="middle" x="866.5" y="-130.5" font-family="Helvetica,sans-Serif" font-size="10.00">/tls/SocketReader.h</text>
</a>
</g>
</g>
<!-- Node21&#45;&gt;Node24 -->
<g id="edge22" class="edge">
<title>Node21&#45;&gt;Node24</title>
<path fill="none" stroke="midnightblue" d="M866.5,-190.4C866.5,-182.64 866.5,-172.81 866.5,-163.86"/>
<polygon fill="midnightblue" stroke="midnightblue" points="870,-163.58 866.5,-153.58 863,-163.58 870,-163.58"/>
</g>
<!-- Node29 -->
<g id="node24" class="node">
<title>Node29</title>
<g id="a_node24"><a xlink:href="tls_2_socket_writer_8h.html" target="_top" xlink:title=" ">
<polygon fill="white" stroke="red" points="555.5,-123.5 555.5,-153.5 665.5,-153.5 665.5,-123.5 555.5,-123.5"/>
<text text-anchor="start" x="563.5" y="-141.5" font-family="Helvetica,sans-Serif" font-size="10.00">core/socket/stream</text>
<text text-anchor="middle" x="610.5" y="-130.5" font-family="Helvetica,sans-Serif" font-size="10.00">/tls/SocketWriter.h</text>
</a>
</g>
</g>
<!-- Node21&#45;&gt;Node29 -->
<g id="edge25" class="edge">
<title>Node21&#45;&gt;Node29</title>
<path fill="none" stroke="midnightblue" d="M811.27,-190.48C771.4,-180.35 717.42,-166.65 675.48,-156"/>
<polygon fill="midnightblue" stroke="midnightblue" points="676.19,-152.57 665.63,-153.5 674.47,-159.35 676.19,-152.57"/>
</g>
<!-- Node31 -->
<g id="node25" class="node">
<title>Node31</title>
<g id="a_node25"><a xlink:href="_t_l_s_shutdown_8h.html" target="_top" xlink:title=" ">
<polygon fill="white" stroke="red" points="683.5,-123.5 683.5,-153.5 793.5,-153.5 793.5,-123.5 683.5,-123.5"/>
<text text-anchor="start" x="691.5" y="-141.5" font-family="Helvetica,sans-Serif" font-size="10.00">core/socket/stream</text>
<text text-anchor="middle" x="738.5" y="-130.5" font-family="Helvetica,sans-Serif" font-size="10.00">/tls/TLSShutdown.h</text>
</a>
</g>
</g>
<!-- Node21&#45;&gt;Node31 -->
<g id="edge27" class="edge">
<title>Node21&#45;&gt;Node31</title>
<path fill="none" stroke="midnightblue" d="M838.73,-190.4C820.11,-180.94 795.39,-168.39 775.16,-158.12"/>
<polygon fill="midnightblue" stroke="midnightblue" points="776.72,-154.98 766.22,-153.58 773.55,-161.23 776.72,-154.98"/>
</g>
<!-- Node23 -->
<g id="node20" class="node">
<title>Node23</title>
<g id="a_node20"><a xlink:href="_socket_connection_8h.html" target="_top" xlink:title=" ">
<polygon fill="white" stroke="black" points="818,-62 818,-81 989,-81 989,-62 818,-62"/>
<text text-anchor="middle" x="903.5" y="-69" font-family="Helvetica,sans-Serif" font-size="10.00">core/socket/SocketConnection.h</text>
</a>
</g>
</g>
<!-- Node22&#45;&gt;Node23 -->
<g id="edge21" class="edge">
<title>Node22&#45;&gt;Node23</title>
<path fill="none" stroke="midnightblue" d="M977.1,-123.4C961.49,-112.6 940.02,-97.76 924.31,-86.89"/>
<polygon fill="midnightblue" stroke="midnightblue" points="926.02,-83.82 915.8,-81.01 922.04,-89.57 926.02,-83.82"/>
</g>
<!-- Node25 -->
<g id="node22" class="node">
<title>Node25</title>
<g id="a_node22"><a xlink:href="_socket_reader_8h.html" target="_top" xlink:title=" ">
<polygon fill="white" stroke="red" points="689.5,-56.5 689.5,-86.5 799.5,-86.5 799.5,-56.5 689.5,-56.5"/>
<text text-anchor="start" x="697.5" y="-74.5" font-family="Helvetica,sans-Serif" font-size="10.00">core/socket/stream</text>
<text text-anchor="middle" x="744.5" y="-63.5" font-family="Helvetica,sans-Serif" font-size="10.00">/SocketReader.h</text>
</a>
</g>
</g>
<!-- Node24&#45;&gt;Node25 -->
<g id="edge23" class="edge">
<title>Node24&#45;&gt;Node25</title>
<path fill="none" stroke="midnightblue" d="M840.03,-123.4C822.44,-114.03 799.15,-101.62 779.96,-91.39"/>
<polygon fill="midnightblue" stroke="midnightblue" points="781.39,-88.19 770.92,-86.58 778.1,-94.37 781.39,-88.19"/>
</g>
<!-- Node27 -->
<g id="node23" class="node">
<title>Node27</title>
<g id="a_node23"><a xlink:href="_t_l_s_handshake_8h.html" target="_top" xlink:title=" ">
<polygon fill="white" stroke="red" points="554,-56.5 554,-86.5 669,-86.5 669,-56.5 554,-56.5"/>
<text text-anchor="start" x="562" y="-74.5" font-family="Helvetica,sans-Serif" font-size="10.00">core/socket/stream</text>
<text text-anchor="middle" x="611.5" y="-63.5" font-family="Helvetica,sans-Serif" font-size="10.00">/tls/TLSHandshake.h</text>
</a>
</g>
</g>
<!-- Node24&#45;&gt;Node27 -->
<g id="edge24" class="edge">
<title>Node24&#45;&gt;Node27</title>
<path fill="none" stroke="midnightblue" d="M811.48,-123.48C771.9,-113.39 718.37,-99.74 676.65,-89.11"/>
<polygon fill="midnightblue" stroke="midnightblue" points="677.41,-85.69 666.86,-86.61 675.68,-92.47 677.41,-85.69"/>
</g>
<!-- Node29&#45;&gt;Node27 -->
<g id="edge26" class="edge">
<title>Node29&#45;&gt;Node27</title>
<path fill="none" stroke="midnightblue" d="M610.72,-123.4C610.84,-115.64 610.99,-105.81 611.13,-96.86"/>
<polygon fill="midnightblue" stroke="midnightblue" points="614.63,-96.63 611.28,-86.58 607.63,-96.52 614.63,-96.63"/>
</g>
<!-- Node33 -->
<g id="node27" class="node">
<title>Node33</title>
<g id="a_node27"><a xlink:href="net_2stream_2_socket_server_8h.html" target="_top" xlink:title=" ">
<polygon fill="white" stroke="black" points="1168.5,-263 1168.5,-282 1314.5,-282 1314.5,-263 1168.5,-263"/>
<text text-anchor="middle" x="1241.5" y="-270" font-family="Helvetica,sans-Serif" font-size="10.00">net/stream/SocketServer.h</text>
</a>
</g>
</g>
<!-- Node32&#45;&gt;Node33 -->
<g id="edge29" class="edge">
<title>Node32&#45;&gt;Node33</title>
<path fill="none" stroke="midnightblue" d="M1242.37,-329.73C1242.22,-320.18 1241.98,-304.62 1241.79,-292.28"/>
<polygon fill="midnightblue" stroke="midnightblue" points="1245.29,-292.07 1241.63,-282.13 1238.29,-292.18 1245.29,-292.07"/>
</g>
<!-- Node35 -->
<g id="node29" class="node">
<title>Node35</title>
<g id="a_node29"><a xlink:href="un_2stream_2_server_socket_8h.html" target="_top" xlink:title=" ">
<polygon fill="white" stroke="black" points="1333,-263 1333,-282 1494,-282 1494,-263 1333,-263"/>
<text text-anchor="middle" x="1413.5" y="-270" font-family="Helvetica,sans-Serif" font-size="10.00">net/un/stream/ServerSocket.h</text>
</a>
</g>
</g>
<!-- Node32&#45;&gt;Node35 -->
<g id="edge31" class="edge">
<title>Node32&#45;&gt;Node35</title>
<path fill="none" stroke="midnightblue" d="M1265.21,-329.87C1295.06,-318.52 1347.67,-298.52 1381.53,-285.65"/>
<polygon fill="midnightblue" stroke="midnightblue" points="1382.87,-288.89 1390.97,-282.06 1380.38,-282.35 1382.87,-288.89"/>
</g>
<!-- Node34 -->
<g id="node28" class="node">
<title>Node34</title>
<g id="a_node28"><a xlink:href="_socket_config_8h.html" target="_top" xlink:title=" ">
<polygon fill="white" stroke="black" points="1187.5,-196 1187.5,-215 1295.5,-215 1295.5,-196 1187.5,-196"/>
<text text-anchor="middle" x="1241.5" y="-203" font-family="Helvetica,sans-Serif" font-size="10.00">net/SocketConfig.h</text>
</a>
</g>
</g>
<!-- Node33&#45;&gt;Node34 -->
<g id="edge30" class="edge">
<title>Node33&#45;&gt;Node34</title>
<path fill="none" stroke="midnightblue" d="M1241.5,-262.73C1241.5,-253.18 1241.5,-237.62 1241.5,-225.28"/>
<polygon fill="midnightblue" stroke="midnightblue" points="1245,-225.13 1241.5,-215.13 1238,-225.13 1245,-225.13"/>
</g>
<!-- Node36 -->
<g id="node30" class="node">
<title>Node36</title>
<g id="a_node30"><a xlink:href="stream_2_server_socket_8h.html" target="_top" xlink:title=" ">
<polygon fill="white" stroke="black" points="1478.5,-196 1478.5,-215 1624.5,-215 1624.5,-196 1478.5,-196"/>
<text text-anchor="middle" x="1551.5" y="-203" font-family="Helvetica,sans-Serif" font-size="10.00">net/stream/ServerSocket.h</text>
</a>
</g>
</g>
<!-- Node35&#45;&gt;Node36 -->
<g id="edge32" class="edge">
<title>Node35&#45;&gt;Node36</title>
<path fill="none" stroke="midnightblue" d="M1431.83,-262.87C1455.44,-251.75 1496.69,-232.32 1524.05,-219.43"/>
<polygon fill="midnightblue" stroke="midnightblue" points="1525.54,-222.59 1533.1,-215.17 1522.56,-216.26 1525.54,-222.59"/>
</g>
<!-- Node37 -->
<g id="node31" class="node">
<title>Node37</title>
<g id="a_node31"><a xlink:href="net_2un_2stream_2socket_8h.html" target="_top" xlink:title=" ">
<polygon fill="white" stroke="black" points="1331,-196 1331,-215 1460,-215 1460,-196 1331,-196"/>
<text text-anchor="middle" x="1395.5" y="-203" font-family="Helvetica,sans-Serif" font-size="10.00">net/un/stream/Socket.h</text>
</a>
</g>
</g>
<!-- Node35&#45;&gt;Node37 -->
<g id="edge33" class="edge">
<title>Node35&#45;&gt;Node37</title>
<path fill="none" stroke="midnightblue" d="M1411.07,-262.73C1408.4,-253.09 1404.03,-237.3 1400.6,-224.91"/>
<polygon fill="midnightblue" stroke="midnightblue" points="1403.93,-223.83 1397.89,-215.13 1397.18,-225.7 1403.93,-223.83"/>
</g>
<!-- Node37&#45;&gt;Node18 -->
<g id="edge34" class="edge">
<title>Node37&#45;&gt;Node18</title>
<path fill="none" stroke="midnightblue" d="M1396.29,-195.84C1398.21,-174.67 1403.19,-119.95 1405.82,-91.03"/>
<polygon fill="midnightblue" stroke="midnightblue" points="1409.31,-91.3 1406.73,-81.02 1402.33,-90.66 1409.31,-91.3"/>
</g>
<!-- Node39 -->
<g id="node33" class="node">
<title>Node39</title>
<g id="a_node33"><a xlink:href="_config_tls_8h.html" target="_top" xlink:title=" ">
<polygon fill="white" stroke="black" points="40,-263 40,-282 163,-282 163,-263 40,-263"/>
<text text-anchor="middle" x="101.5" y="-270" font-family="Helvetica,sans-Serif" font-size="10.00">net/config/ConfigTls.h</text>
</a>
</g>
</g>
<!-- Node38&#45;&gt;Node39 -->
<g id="edge36" class="edge">
<title>Node38&#45;&gt;Node39</title>
<path fill="none" stroke="midnightblue" d="M271.68,-324.48C232.28,-312.67 176.62,-296 139.82,-284.98"/>
<polygon fill="midnightblue" stroke="midnightblue" points="140.56,-281.55 129.97,-282.03 138.55,-288.25 140.56,-281.55"/>
</g>
<!-- Node40 -->
<g id="node34" class="node">
<title>Node40</title>
<g id="a_node34"><a xlink:href="un_2stream_2config_2_config_socket_server_8h.html" target="_top" xlink:title=" ">
<polygon fill="white" stroke="black" points="256.5,-257.5 256.5,-287.5 380.5,-287.5 380.5,-257.5 256.5,-257.5"/>
<text text-anchor="start" x="264.5" y="-275.5" font-family="Helvetica,sans-Serif" font-size="10.00">net/un/stream/config</text>
<text text-anchor="middle" x="318.5" y="-264.5" font-family="Helvetica,sans-Serif" font-size="10.00">/ConfigSocketServer.h</text>
</a>
</g>
</g>
<!-- Node38&#45;&gt;Node40 -->
<g id="edge38" class="edge">
<title>Node38&#45;&gt;Node40</title>
<path fill="none" stroke="midnightblue" d="M318.5,-324.4C318.5,-316.64 318.5,-306.81 318.5,-297.86"/>
<polygon fill="midnightblue" stroke="midnightblue" points="322,-297.58 318.5,-287.58 315,-297.58 322,-297.58"/>
</g>
<!-- Node39&#45;&gt;Node16 -->
<g id="edge37" class="edge">
<title>Node39&#45;&gt;Node16</title>
<path fill="none" stroke="midnightblue" d="M95.93,-262.53C87.09,-247.07 71.98,-214.68 83.5,-190 110.07,-133.1 179.48,-100.23 223.93,-84.39"/>
<polygon fill="midnightblue" stroke="midnightblue" points="225.24,-87.64 233.56,-81.09 222.97,-81.02 225.24,-87.64"/>
</g>
<!-- Node40&#45;&gt;Node15 -->
<g id="edge42" class="edge">
<title>Node40&#45;&gt;Node15</title>
<path fill="none" stroke="midnightblue" d="M380.77,-268.32C449.82,-263.34 554.79,-250.95 579.5,-221 605.21,-189.84 549.6,-164.81 507.34,-151.07"/>
<polygon fill="midnightblue" stroke="midnightblue" points="508.35,-147.72 497.76,-148.07 506.25,-154.4 508.35,-147.72"/>
</g>
<!-- Node41 -->
<g id="node35" class="node">
<title>Node41</title>
<g id="a_node35"><a xlink:href="_config_address_local_8h.html" target="_top" xlink:title=" ">
<polygon fill="white" stroke="black" points="249,-190.5 249,-220.5 388,-220.5 388,-190.5 249,-190.5"/>
<text text-anchor="start" x="257" y="-208.5" font-family="Helvetica,sans-Serif" font-size="10.00">net/config/ConfigAddress</text>
<text text-anchor="middle" x="318.5" y="-197.5" font-family="Helvetica,sans-Serif" font-size="10.00">Local.h</text>
</a>
</g>
</g>
<!-- Node40&#45;&gt;Node41 -->
<g id="edge39" class="edge">
<title>Node40&#45;&gt;Node41</title>
<path fill="none" stroke="midnightblue" d="M318.5,-257.4C318.5,-249.64 318.5,-239.81 318.5,-230.86"/>
<polygon fill="midnightblue" stroke="midnightblue" points="322,-230.58 318.5,-220.58 315,-230.58 322,-230.58"/>
</g>
<!-- Node43 -->
<g id="node37" class="node">
<title>Node43</title>
<g id="a_node37"><a xlink:href="_config_connection_8h.html" target="_top" xlink:title=" ">
<polygon fill="white" stroke="black" points="406.5,-196 406.5,-215 570.5,-215 570.5,-196 406.5,-196"/>
<text text-anchor="middle" x="488.5" y="-203" font-family="Helvetica,sans-Serif" font-size="10.00">net/config/ConfigConnection.h</text>
</a>
</g>
</g>
<!-- Node40&#45;&gt;Node43 -->
<g id="edge43" class="edge">
<title>Node40&#45;&gt;Node43</title>
<path fill="none" stroke="midnightblue" d="M355.39,-257.4C385.61,-245.84 427.94,-229.66 456.69,-218.66"/>
<polygon fill="midnightblue" stroke="midnightblue" points="458.16,-221.85 466.25,-215.01 455.66,-215.31 458.16,-221.85"/>
</g>
<!-- Node44 -->
<g id="node38" class="node">
<title>Node44</title>
<g id="a_node38"><a xlink:href="_config_listen_8h.html" target="_top" xlink:title=" ">
<polygon fill="white" stroke="black" points="92.5,-196 92.5,-215 230.5,-215 230.5,-196 92.5,-196"/>
<text text-anchor="middle" x="161.5" y="-203" font-family="Helvetica,sans-Serif" font-size="10.00">net/config/ConfigListen.h</text>
</a>
</g>
</g>
<!-- Node40&#45;&gt;Node44 -->
<g id="edge45" class="edge">
<title>Node40&#45;&gt;Node44</title>
<path fill="none" stroke="midnightblue" d="M284.43,-257.4C256.76,-245.94 218.11,-229.94 191.58,-218.95"/>
<polygon fill="midnightblue" stroke="midnightblue" points="192.63,-215.6 182.05,-215.01 189.95,-222.07 192.63,-215.6"/>
</g>
<!-- Node45 -->
<g id="node39" class="node">
<title>Node45</title>
<g id="a_node39"><a xlink:href="un_2config_2_config_address_8h.html" target="_top" xlink:title=" ">
<polygon fill="white" stroke="black" points="0,-62 0,-81 163,-81 163,-62 0,-62"/>
<text text-anchor="middle" x="81.5" y="-69" font-family="Helvetica,sans-Serif" font-size="10.00">net/un/config/ConfigAddress.h</text>
</a>
</g>
</g>
<!-- Node40&#45;&gt;Node45 -->
<g id="edge47" class="edge">
<title>Node40&#45;&gt;Node45</title>
<path fill="none" stroke="midnightblue" d="M256.24,-266.74C194.16,-260.55 105.02,-247.27 83.5,-221 52.94,-183.69 65.97,-121.64 75.2,-90.9"/>
<polygon fill="midnightblue" stroke="midnightblue" points="78.63,-91.69 78.35,-81.1 71.96,-89.56 78.63,-91.69"/>
</g>
<!-- Node42 -->
<g id="node36" class="node">
<title>Node42</title>
<g id="a_node36"><a xlink:href="config_2_config_address_8h.html" target="_top" xlink:title=" ">
<polygon fill="white" stroke="black" points="189.5,-129 189.5,-148 337.5,-148 337.5,-129 189.5,-129"/>
<text text-anchor="middle" x="263.5" y="-136" font-family="Helvetica,sans-Serif" font-size="10.00">net/config/ConfigAddress.h</text>
</a>
</g>
</g>
<!-- Node41&#45;&gt;Node42 -->
<g id="edge40" class="edge">
<title>Node41&#45;&gt;Node42</title>
<path fill="none" stroke="midnightblue" d="M306.57,-190.4C297.99,-180.26 286.4,-166.57 277.41,-155.94"/>
<polygon fill="midnightblue" stroke="midnightblue" points="279.99,-153.57 270.86,-148.19 274.64,-158.09 279.99,-153.57"/>
</g>
<!-- Node42&#45;&gt;Node16 -->
<g id="edge41" class="edge">
<title>Node42&#45;&gt;Node16</title>
<path fill="none" stroke="midnightblue" d="M263.5,-128.73C263.5,-119.18 263.5,-103.62 263.5,-91.28"/>
<polygon fill="midnightblue" stroke="midnightblue" points="267,-91.13 263.5,-81.13 260,-91.13 267,-91.13"/>
</g>
<!-- Node43&#45;&gt;Node16 -->
<g id="edge44" class="edge">
<title>Node43&#45;&gt;Node16</title>
<path fill="none" stroke="midnightblue" d="M467.42,-195.98C445.85,-186.88 411.74,-171.39 384.5,-154 366.13,-142.27 364.3,-135.58 346.5,-123 327.33,-109.44 304.46,-95.7 287.59,-85.98"/>
<polygon fill="midnightblue" stroke="midnightblue" points="289.31,-82.93 278.89,-81.02 285.85,-89.01 289.31,-82.93"/>
</g>
<!-- Node44&#45;&gt;Node16 -->
<g id="edge46" class="edge">
<title>Node44&#45;&gt;Node16</title>
<path fill="none" stroke="midnightblue" d="M161.41,-195.75C161.66,-179.78 164.23,-145.48 180.5,-123 192.85,-105.94 212.9,-93.51 230.2,-85.25"/>
<polygon fill="midnightblue" stroke="midnightblue" points="231.78,-88.38 239.46,-81.08 228.91,-81.99 231.78,-88.38"/>
</g>
<!-- Node45&#45;&gt;Node19 -->
<g id="edge48" class="edge">
<title>Node45&#45;&gt;Node19</title>
<path fill="none" stroke="midnightblue" d="M135.85,-61.99C152.4,-59.69 170.66,-57.44 187.5,-56 647.43,-16.67 764.66,-46.66 1225.5,-20 1236.85,-19.34 1248.83,-18.51 1260.57,-17.63"/>
<polygon fill="midnightblue" stroke="midnightblue" points="1261.1,-21.1 1270.8,-16.83 1260.56,-14.12 1261.1,-21.1"/>
</g>
<!-- Node47 -->
<g id="node41" class="node">
<title>Node47</title>
<g id="a_node41"><a xlink:href="web_2http_2server_2_socket_context_factory_8h.html" target="_top" xlink:title=" ">
<polygon fill="white" stroke="black" points="1632,-324.5 1632,-354.5 1799,-354.5 1799,-324.5 1632,-324.5"/>
<text text-anchor="start" x="1640" y="-342.5" font-family="Helvetica,sans-Serif" font-size="10.00">web/http/server/SocketContext</text>
<text text-anchor="middle" x="1715.5" y="-331.5" font-family="Helvetica,sans-Serif" font-size="10.00">Factory.h</text>
</a>
</g>
</g>
<!-- Node46&#45;&gt;Node47 -->
<g id="edge50" class="edge">
<title>Node46&#45;&gt;Node47</title>
<path fill="none" stroke="midnightblue" d="M1536.86,-396.87C1568.5,-386.88 1621.38,-370.2 1661.42,-357.56"/>
<polygon fill="midnightblue" stroke="midnightblue" points="1662.56,-360.88 1671.04,-354.53 1660.45,-354.2 1662.56,-360.88"/>
</g>
<!-- Node48 -->
<g id="node42" class="node">
<title>Node48</title>
<g id="a_node42"><a xlink:href="web_2http_2_socket_context_factory_8h.html" target="_top" xlink:title=" ">
<polygon fill="white" stroke="black" points="1627.5,-263 1627.5,-282 1803.5,-282 1803.5,-263 1627.5,-263"/>
<text text-anchor="middle" x="1715.5" y="-270" font-family="Helvetica,sans-Serif" font-size="10.00">web/http/SocketContextFactory.h</text>
</a>
</g>
</g>
<!-- Node47&#45;&gt;Node48 -->
<g id="edge51" class="edge">
<title>Node47&#45;&gt;Node48</title>
<path fill="none" stroke="midnightblue" d="M1715.5,-324.4C1715.5,-315.06 1715.5,-302.71 1715.5,-292.52"/>
<polygon fill="midnightblue" stroke="midnightblue" points="1719,-292.19 1715.5,-282.19 1712,-292.19 1719,-292.19"/>
</g>
<!-- Node50 -->
<g id="node44" class="node">
<title>Node50</title>
<g id="a_node44"><a xlink:href="server_2_socket_context_8hpp.html" target="_top" xlink:title=" ">
<polygon fill="white" stroke="black" points="1881.5,-263 1881.5,-282 2069.5,-282 2069.5,-263 1881.5,-263"/>
<text text-anchor="middle" x="1975.5" y="-270" font-family="Helvetica,sans-Serif" font-size="10.00">web/http/server/SocketContext.hpp</text>
</a>
</g>
</g>
<!-- Node47&#45;&gt;Node50 -->
<g id="edge53" class="edge">
<title>Node47&#45;&gt;Node50</title>
<path fill="none" stroke="midnightblue" d="M1771.6,-324.48C1819.52,-312.5 1887.5,-295.5 1931.55,-284.49"/>
<polygon fill="midnightblue" stroke="midnightblue" points="1932.53,-287.85 1941.39,-282.03 1930.84,-281.06 1932.53,-287.85"/>
</g>
<!-- Node49 -->
<g id="node43" class="node">
<title>Node49</title>
<g id="a_node43"><a xlink:href="core_2socket_2_socket_context_factory_8h.html" target="_top" xlink:title=" ">
<polygon fill="white" stroke="black" points="1642.5,-190.5 1642.5,-220.5 1788.5,-220.5 1788.5,-190.5 1642.5,-190.5"/>
<text text-anchor="start" x="1650.5" y="-208.5" font-family="Helvetica,sans-Serif" font-size="10.00">core/socket/SocketContext</text>
<text text-anchor="middle" x="1715.5" y="-197.5" font-family="Helvetica,sans-Serif" font-size="10.00">Factory.h</text>
</a>
</g>
</g>
<!-- Node48&#45;&gt;Node49 -->
<g id="edge52" class="edge">
<title>Node48&#45;&gt;Node49</title>
<path fill="none" stroke="midnightblue" d="M1715.5,-262.73C1715.5,-254.54 1715.5,-241.92 1715.5,-230.71"/>
<polygon fill="midnightblue" stroke="midnightblue" points="1719,-230.59 1715.5,-220.59 1712,-230.59 1719,-230.59"/>
</g>
<!-- Node51 -->
<g id="node45" class="node">
<title>Node51</title>
<g id="a_node45"><a xlink:href="_connection_state_8h.html" target="_top" xlink:title=" ">
<polygon fill="white" stroke="black" points="1806.5,-196 1806.5,-215 1958.5,-215 1958.5,-196 1806.5,-196"/>
<text text-anchor="middle" x="1882.5" y="-203" font-family="Helvetica,sans-Serif" font-size="10.00">web/http/ConnectionState.h</text>
</a>
</g>
</g>
<!-- Node50&#45;&gt;Node51 -->
<g id="edge54" class="edge">
<title>Node50&#45;&gt;Node51</title>
<path fill="none" stroke="midnightblue" d="M1962.96,-262.73C1947.62,-252.01 1921.44,-233.72 1903.12,-220.91"/>
<polygon fill="midnightblue" stroke="midnightblue" points="1905.05,-217.99 1894.84,-215.13 1901.04,-223.72 1905.05,-217.99"/>
</g>
<!-- Node52 -->
<g id="node46" class="node">
<title>Node52</title>
<g id="a_node46"><a xlink:href="http__utils_8h.html" target="_top" xlink:title=" ">
<polygon fill="white" stroke="black" points="1977,-196 1977,-215 2094,-215 2094,-196 1977,-196"/>
<text text-anchor="middle" x="2035.5" y="-203" font-family="Helvetica,sans-Serif" font-size="10.00">web/http/http_utils.h</text>
</a>
</g>
</g>
<!-- Node50&#45;&gt;Node52 -->
<g id="edge55" class="edge">
<title>Node50&#45;&gt;Node52</title>
<path fill="none" stroke="midnightblue" d="M1983.59,-262.73C1993.04,-252.5 2008.86,-235.36 2020.55,-222.69"/>
<polygon fill="midnightblue" stroke="midnightblue" points="2023.33,-224.85 2027.54,-215.13 2018.18,-220.1 2023.33,-224.85"/>
</g>
<!-- Node53 -->
<g id="node47" class="node">
<title>Node53</title>
<g id="a_node47"><a xlink:href="web_2http_2server_2_socket_context_8h.html" target="_top" xlink:title=" ">
<polygon fill="white" stroke="black" points="2112.5,-196 2112.5,-215 2288.5,-215 2288.5,-196 2112.5,-196"/>
<text text-anchor="middle" x="2200.5" y="-203" font-family="Helvetica,sans-Serif" font-size="10.00">web/http/server/SocketContext.h</text>
</a>
</g>
</g>
<!-- Node50&#45;&gt;Node53 -->
<g id="edge56" class="edge">
<title>Node50&#45;&gt;Node53</title>
<path fill="none" stroke="midnightblue" d="M2005.38,-262.87C2045.41,-251.3 2116.56,-230.75 2160.99,-217.91"/>
<polygon fill="midnightblue" stroke="midnightblue" points="2162.22,-221.2 2170.86,-215.06 2160.28,-214.48 2162.22,-221.2"/>
</g>
<!-- Node54 -->
<g id="node48" class="node">
<title>Node54</title>
<g id="a_node48"><a xlink:href="web_2http_2_socket_context_8h.html" target="_top" xlink:title=" ">
<polygon fill="white" stroke="red" points="1953.5,-129 1953.5,-148 2095.5,-148 2095.5,-129 1953.5,-129"/>
<text text-anchor="middle" x="2024.5" y="-136" font-family="Helvetica,sans-Serif" font-size="10.00">web/http/SocketContext.h</text>
</a>
</g>
</g>
<!-- Node53&#45;&gt;Node54 -->
<g id="edge57" class="edge">
<title>Node53&#45;&gt;Node54</title>
<path fill="none" stroke="midnightblue" d="M2177.13,-195.87C2146.41,-184.52 2092.26,-164.52 2057.4,-151.65"/>
<polygon fill="midnightblue" stroke="midnightblue" points="2058.28,-148.24 2047.69,-148.06 2055.86,-154.81 2058.28,-148.24"/>
</g>
<!-- Node56 -->
<g id="node49" class="node">
<title>Node56</title>
<g id="a_node49"><a xlink:href="_request_context_base_8h.html" target="_top" xlink:title=" ">
<polygon fill="white" stroke="black" points="2113.5,-123.5 2113.5,-153.5 2287.5,-153.5 2287.5,-123.5 2113.5,-123.5"/>
<text text-anchor="start" x="2121.5" y="-141.5" font-family="Helvetica,sans-Serif" font-size="10.00">web/http/server/RequestContext</text>
<text text-anchor="middle" x="2200.5" y="-130.5" font-family="Helvetica,sans-Serif" font-size="10.00">Base.h</text>
</a>
</g>
</g>
<!-- Node53&#45;&gt;Node56 -->
<g id="edge58" class="edge">
<title>Node53&#45;&gt;Node56</title>
<path fill="none" stroke="midnightblue" d="M2200.5,-195.73C2200.5,-187.54 2200.5,-174.92 2200.5,-163.71"/>
<polygon fill="midnightblue" stroke="midnightblue" points="2204,-163.59 2200.5,-153.59 2197,-163.59 2204,-163.59"/>
</g>
<!-- Node57 -->
<g id="node50" class="node">
<title>Node57</title>
<g id="a_node50"><a xlink:href="_request_parser_8h.html" target="_top" xlink:title=" ">
<polygon fill="white" stroke="red" points="2305.5,-129 2305.5,-148 2481.5,-148 2481.5,-129 2305.5,-129"/>
<text text-anchor="middle" x="2393.5" y="-136" font-family="Helvetica,sans-Serif" font-size="10.00">web/http/server/RequestParser.h</text>
</a>
</g>
</g>
<!-- Node53&#45;&gt;Node57 -->
<g id="edge59" class="edge">
<title>Node53&#45;&gt;Node57</title>
<path fill="none" stroke="midnightblue" d="M2226.13,-195.87C2260.11,-184.42 2320.22,-164.18 2358.4,-151.32"/>
<polygon fill="midnightblue" stroke="midnightblue" points="2359.71,-154.57 2368.07,-148.06 2357.48,-147.94 2359.71,-154.57"/>
</g>
</g>
</svg>
