<?xml version="1.0" encoding="UTF-8" standalone="no"?>
<!DOCTYPE svg PUBLIC "-//W3C//DTD SVG 1.1//EN"
 "http://www.w3.org/Graphics/SVG/1.1/DTD/svg11.dtd">
<!-- Generated by graphviz version 2.43.0 (0)
 -->
<!-- Title: web/http/tls/in/Server.h Pages: 1 -->
<svg width="2192pt" height="654pt"
 viewBox="0.00 0.00 2191.50 654.00" xmlns="http://www.w3.org/2000/svg" xmlns:xlink="http://www.w3.org/1999/xlink">
<g id="graph0" class="graph" transform="scale(1 1) rotate(0) translate(4 650)">
<title>web/http/tls/in/Server.h</title>
<polygon fill="white" stroke="transparent" points="-4,4 -4,-650 2187.5,-650 2187.5,4 -4,4"/>
<!-- Node1 -->
<g id="node1" class="node">
<title>Node1</title>
<g id="a_node1"><a xlink:title=" ">
<polygon fill="#bfbfbf" stroke="black" points="1037.5,-626.5 1037.5,-645.5 1167.5,-645.5 1167.5,-626.5 1037.5,-626.5"/>
<text text-anchor="middle" x="1102.5" y="-633.5" font-family="Helvetica,sans-Serif" font-size="10.00">web/http/tls/in/Server.h</text>
</a>
</g>
</g>
<!-- Node2 -->
<g id="node2" class="node">
<title>Node2</title>
<g id="a_node2"><a xlink:href="net_2in_2stream_2tls_2_socket_server_8h.html" target="_top" xlink:title=" ">
<polygon fill="white" stroke="black" points="960.5,-559.5 960.5,-589.5 1092.5,-589.5 1092.5,-559.5 960.5,-559.5"/>
<text text-anchor="start" x="968.5" y="-577.5" font-family="Helvetica,sans-Serif" font-size="10.00">net/in/stream/tls/Socket</text>
<text text-anchor="middle" x="1026.5" y="-566.5" font-family="Helvetica,sans-Serif" font-size="10.00">Server.h</text>
</a>
</g>
</g>
<!-- Node1&#45;&gt;Node2 -->
<g id="edge1" class="edge">
<title>Node1&#45;&gt;Node2</title>
<path fill="none" stroke="midnightblue" d="M1091.61,-626.48C1081.41,-618.49 1065.78,-606.25 1052.39,-595.77"/>
<polygon fill="midnightblue" stroke="midnightblue" points="1054.44,-592.93 1044.41,-589.52 1050.13,-598.44 1054.44,-592.93"/>
</g>
<!-- Node38 -->
<g id="node38" class="node">
<title>Node38</title>
<g id="a_node38"><a xlink:href="server_2_server_8h.html" target="_top" xlink:title=" ">
<polygon fill="white" stroke="black" points="1269,-565 1269,-584 1406,-584 1406,-565 1269,-565"/>
<text text-anchor="middle" x="1337.5" y="-572" font-family="Helvetica,sans-Serif" font-size="10.00">web/http/server/Server.h</text>
</a>
</g>
</g>
<!-- Node1&#45;&gt;Node38 -->
<g id="edge46" class="edge">
<title>Node1&#45;&gt;Node38</title>
<path fill="none" stroke="midnightblue" d="M1136.17,-626.48C1177.7,-615.96 1248.39,-598.06 1294,-586.51"/>
<polygon fill="midnightblue" stroke="midnightblue" points="1295.06,-589.86 1303.89,-584.01 1293.34,-583.07 1295.06,-589.86"/>
</g>
<!-- Node3 -->
<g id="node3" class="node">
<title>Node3</title>
<g id="a_node3"><a xlink:href="core_2socket_2stream_2tls_2_socket_server_8h.html" target="_top" xlink:title=" ">
<polygon fill="white" stroke="black" points="583.5,-492.5 583.5,-522.5 693.5,-522.5 693.5,-492.5 583.5,-492.5"/>
<text text-anchor="start" x="591.5" y="-510.5" font-family="Helvetica,sans-Serif" font-size="10.00">core/socket/stream</text>
<text text-anchor="middle" x="638.5" y="-499.5" font-family="Helvetica,sans-Serif" font-size="10.00">/tls/SocketServer.h</text>
</a>
</g>
</g>
<!-- Node2&#45;&gt;Node3 -->
<g id="edge2" class="edge">
<title>Node2&#45;&gt;Node3</title>
<path fill="none" stroke="midnightblue" d="M960.24,-562.4C888.55,-550.39 774.97,-531.36 703.7,-519.42"/>
<polygon fill="midnightblue" stroke="midnightblue" points="703.94,-515.91 693.5,-517.71 702.79,-522.82 703.94,-515.91"/>
</g>
<!-- Node23 -->
<g id="node23" class="node">
<title>Node23</title>
<g id="a_node23"><a xlink:href="net_2in_2stream_2_server_socket_8h.html" target="_top" xlink:title=" ">
<polygon fill="white" stroke="black" points="866.5,-498 866.5,-517 1024.5,-517 1024.5,-498 866.5,-498"/>
<text text-anchor="middle" x="945.5" y="-505" font-family="Helvetica,sans-Serif" font-size="10.00">net/in/stream/ServerSocket.h</text>
</a>
</g>
</g>
<!-- Node2&#45;&gt;Node23 -->
<g id="edge30" class="edge">
<title>Node2&#45;&gt;Node23</title>
<path fill="none" stroke="midnightblue" d="M1008.92,-559.4C995.79,-548.86 977.87,-534.48 964.43,-523.69"/>
<polygon fill="midnightblue" stroke="midnightblue" points="966.32,-520.72 956.33,-517.19 961.94,-526.18 966.32,-520.72"/>
</g>
<!-- Node30 -->
<g id="node30" class="node">
<title>Node30</title>
<g id="a_node30"><a xlink:href="in_2stream_2tls_2_server_config_8h.html" target="_top" xlink:title=" ">
<polygon fill="white" stroke="black" points="1070,-492.5 1070,-522.5 1201,-522.5 1201,-492.5 1070,-492.5"/>
<text text-anchor="start" x="1078" y="-510.5" font-family="Helvetica,sans-Serif" font-size="10.00">net/in/stream/tls/Server</text>
<text text-anchor="middle" x="1135.5" y="-499.5" font-family="Helvetica,sans-Serif" font-size="10.00">Config.h</text>
</a>
</g>
</g>
<!-- Node2&#45;&gt;Node30 -->
<g id="edge37" class="edge">
<title>Node2&#45;&gt;Node30</title>
<path fill="none" stroke="midnightblue" d="M1050.15,-559.4C1065.58,-550.2 1085.92,-538.07 1102.88,-527.95"/>
<polygon fill="midnightblue" stroke="midnightblue" points="1105.1,-530.7 1111.89,-522.58 1101.51,-524.69 1105.1,-530.7"/>
</g>
<!-- Node4 -->
<g id="node4" class="node">
<title>Node4</title>
<g id="a_node4"><a xlink:href="core_2socket_2stream_2_socket_server_8h.html" target="_top" xlink:title=" ">
<polygon fill="white" stroke="black" points="450.5,-425.5 450.5,-455.5 560.5,-455.5 560.5,-425.5 450.5,-425.5"/>
<text text-anchor="start" x="458.5" y="-443.5" font-family="Helvetica,sans-Serif" font-size="10.00">core/socket/stream</text>
<text text-anchor="middle" x="505.5" y="-432.5" font-family="Helvetica,sans-Serif" font-size="10.00">/SocketServer.h</text>
</a>
</g>
</g>
<!-- Node3&#45;&gt;Node4 -->
<g id="edge3" class="edge">
<title>Node3&#45;&gt;Node4</title>
<path fill="none" stroke="midnightblue" d="M609.64,-492.4C590.21,-482.9 564.38,-470.28 543.31,-459.98"/>
<polygon fill="midnightblue" stroke="midnightblue" points="544.82,-456.82 534.3,-455.58 541.75,-463.11 544.82,-456.82"/>
</g>
<!-- Node5 -->
<g id="node5" class="node">
<title>Node5</title>
<g id="a_node5"><a xlink:href="tls_2_socket_acceptor_8h.html" target="_top" xlink:title=" ">
<polygon fill="white" stroke="black" points="579,-425.5 579,-455.5 698,-455.5 698,-425.5 579,-425.5"/>
<text text-anchor="start" x="587" y="-443.5" font-family="Helvetica,sans-Serif" font-size="10.00">core/socket/stream</text>
<text text-anchor="middle" x="638.5" y="-432.5" font-family="Helvetica,sans-Serif" font-size="10.00">/tls/SocketAcceptor.h</text>
</a>
</g>
</g>
<!-- Node3&#45;&gt;Node5 -->
<g id="edge4" class="edge">
<title>Node3&#45;&gt;Node5</title>
<path fill="none" stroke="midnightblue" d="M638.5,-492.4C638.5,-484.64 638.5,-474.81 638.5,-465.86"/>
<polygon fill="midnightblue" stroke="midnightblue" points="642,-465.58 638.5,-455.58 635,-465.58 642,-465.58"/>
</g>
<!-- Node6 -->
<g id="node6" class="node">
<title>Node6</title>
<g id="a_node6"><a xlink:href="_socket_acceptor_8h.html" target="_top" xlink:title=" ">
<polygon fill="white" stroke="black" points="707.5,-224.5 707.5,-254.5 817.5,-254.5 817.5,-224.5 707.5,-224.5"/>
<text text-anchor="start" x="715.5" y="-242.5" font-family="Helvetica,sans-Serif" font-size="10.00">core/socket/stream</text>
<text text-anchor="middle" x="762.5" y="-231.5" font-family="Helvetica,sans-Serif" font-size="10.00">/SocketAcceptor.h</text>
</a>
</g>
</g>
<!-- Node5&#45;&gt;Node6 -->
<g id="edge5" class="edge">
<title>Node5&#45;&gt;Node6</title>
<path fill="none" stroke="midnightblue" d="M647.42,-425.19C668.69,-391.05 722.54,-304.63 748.32,-263.25"/>
<polygon fill="midnightblue" stroke="midnightblue" points="751.35,-265.02 753.66,-254.68 745.4,-261.32 751.35,-265.02"/>
</g>
<!-- Node12 -->
<g id="node12" class="node">
<title>Node12</title>
<g id="a_node12"><a xlink:href="stream_2tls_2_socket_connection_8h.html" target="_top" xlink:title=" ">
<polygon fill="white" stroke="black" points="417,-358.5 417,-388.5 548,-388.5 548,-358.5 417,-358.5"/>
<text text-anchor="start" x="425" y="-376.5" font-family="Helvetica,sans-Serif" font-size="10.00">core/socket/stream</text>
<text text-anchor="middle" x="482.5" y="-365.5" font-family="Helvetica,sans-Serif" font-size="10.00">/tls/SocketConnection.h</text>
</a>
</g>
</g>
<!-- Node5&#45;&gt;Node12 -->
<g id="edge12" class="edge">
<title>Node5&#45;&gt;Node12</title>
<path fill="none" stroke="midnightblue" d="M604.65,-425.4C581.45,-415.73 550.47,-402.82 525.52,-392.43"/>
<polygon fill="midnightblue" stroke="midnightblue" points="526.86,-389.19 516.28,-388.58 524.17,-395.65 526.86,-389.19"/>
</g>
<!-- Node7 -->
<g id="node7" class="node">
<title>Node7</title>
<g id="a_node7"><a xlink:href="_accept_event_receiver_8h.html" target="_top" xlink:title=" ">
<polygon fill="white" stroke="black" points="613,-168.5 613,-187.5 766,-187.5 766,-168.5 613,-168.5"/>
<text text-anchor="middle" x="689.5" y="-175.5" font-family="Helvetica,sans-Serif" font-size="10.00">core/AcceptEventReceiver.h</text>
</a>
</g>
</g>
<!-- Node6&#45;&gt;Node7 -->
<g id="edge6" class="edge">
<title>Node6&#45;&gt;Node7</title>
<path fill="none" stroke="midnightblue" d="M745.2,-224.4C734.05,-215.31 719.55,-203.49 708.14,-194.19"/>
<polygon fill="midnightblue" stroke="midnightblue" points="710.08,-191.26 700.12,-187.66 705.66,-196.69 710.08,-191.26"/>
</g>
<!-- Node11 -->
<g id="node11" class="node">
<title>Node11</title>
<g id="a_node11"><a xlink:href="_init_accept_event_receiver_8h.html" target="_top" xlink:title=" ">
<polygon fill="white" stroke="black" points="689,-112.5 689,-131.5 858,-131.5 858,-112.5 689,-112.5"/>
<text text-anchor="middle" x="773.5" y="-119.5" font-family="Helvetica,sans-Serif" font-size="10.00">core/InitAcceptEventReceiver.h</text>
</a>
</g>
</g>
<!-- Node6&#45;&gt;Node11 -->
<g id="edge10" class="edge">
<title>Node6&#45;&gt;Node11</title>
<path fill="none" stroke="midnightblue" d="M766.88,-224.08C769.68,-214.06 773.05,-200.35 774.5,-188 775.53,-179.17 774.6,-176.89 774.5,-168 774.4,-159.4 774.21,-149.87 774.01,-141.8"/>
<polygon fill="midnightblue" stroke="midnightblue" points="777.51,-141.53 773.75,-131.63 770.51,-141.71 777.51,-141.53"/>
</g>
<!-- Node8 -->
<g id="node8" class="node">
<title>Node8</title>
<g id="a_node8"><a xlink:href="_descriptor_event_receiver_8h.html" target="_top" xlink:title=" ">
<polygon fill="white" stroke="black" points="479.5,-112.5 479.5,-131.5 649.5,-131.5 649.5,-112.5 479.5,-112.5"/>
<text text-anchor="middle" x="564.5" y="-119.5" font-family="Helvetica,sans-Serif" font-size="10.00">core/DescriptorEventReceiver.h</text>
</a>
</g>
</g>
<!-- Node7&#45;&gt;Node8 -->
<g id="edge7" class="edge">
<title>Node7&#45;&gt;Node8</title>
<path fill="none" stroke="midnightblue" d="M669.69,-168.44C649.21,-159.6 617.02,-145.69 593.64,-135.59"/>
<polygon fill="midnightblue" stroke="midnightblue" points="594.78,-132.27 584.21,-131.52 592.01,-138.7 594.78,-132.27"/>
</g>
<!-- Node9 -->
<g id="node9" class="node">
<title>Node9</title>
<g id="a_node9"><a xlink:href="_event_receiver_8h.html" target="_top" xlink:title=" ">
<polygon fill="white" stroke="black" points="598.5,-56.5 598.5,-75.5 718.5,-75.5 718.5,-56.5 598.5,-56.5"/>
<text text-anchor="middle" x="658.5" y="-63.5" font-family="Helvetica,sans-Serif" font-size="10.00">core/EventReceiver.h</text>
</a>
</g>
</g>
<!-- Node8&#45;&gt;Node9 -->
<g id="edge8" class="edge">
<title>Node8&#45;&gt;Node9</title>
<path fill="none" stroke="midnightblue" d="M579.6,-112.32C594.4,-103.82 617.19,-90.73 634.48,-80.8"/>
<polygon fill="midnightblue" stroke="midnightblue" points="636.51,-83.67 643.43,-75.65 633.02,-77.6 636.51,-83.67"/>
</g>
<!-- Node10 -->
<g id="node10" class="node">
<title>Node10</title>
<g id="a_node10"><a xlink:href="_event_8h.html" target="_top" xlink:title=" ">
<polygon fill="white" stroke="black" points="620,-0.5 620,-19.5 697,-19.5 697,-0.5 620,-0.5"/>
<text text-anchor="middle" x="658.5" y="-7.5" font-family="Helvetica,sans-Serif" font-size="10.00">core/Event.h</text>
</a>
</g>
</g>
<!-- Node9&#45;&gt;Node10 -->
<g id="edge9" class="edge">
<title>Node9&#45;&gt;Node10</title>
<path fill="none" stroke="midnightblue" d="M658.5,-56.08C658.5,-49.01 658.5,-38.86 658.5,-29.99"/>
<polygon fill="midnightblue" stroke="midnightblue" points="662,-29.75 658.5,-19.75 655,-29.75 662,-29.75"/>
</g>
<!-- Node11&#45;&gt;Node9 -->
<g id="edge11" class="edge">
<title>Node11&#45;&gt;Node9</title>
<path fill="none" stroke="midnightblue" d="M755.28,-112.44C736.6,-103.68 707.34,-89.94 685.88,-79.86"/>
<polygon fill="midnightblue" stroke="midnightblue" points="687.18,-76.6 676.64,-75.52 684.2,-82.93 687.18,-76.6"/>
</g>
<!-- Node13 -->
<g id="node13" class="node">
<title>Node13</title>
<g id="a_node13"><a xlink:href="stream_2_socket_connection_8h.html" target="_top" xlink:title=" ">
<polygon fill="white" stroke="black" points="107.5,-291.5 107.5,-321.5 223.5,-321.5 223.5,-291.5 107.5,-291.5"/>
<text text-anchor="start" x="115.5" y="-309.5" font-family="Helvetica,sans-Serif" font-size="10.00">core/socket/stream</text>
<text text-anchor="middle" x="165.5" y="-298.5" font-family="Helvetica,sans-Serif" font-size="10.00">/SocketConnection.h</text>
</a>
</g>
</g>
<!-- Node12&#45;&gt;Node13 -->
<g id="edge13" class="edge">
<title>Node12&#45;&gt;Node13</title>
<path fill="none" stroke="midnightblue" d="M416.82,-359.03C363.21,-348.04 287.73,-332.56 233.5,-321.44"/>
<polygon fill="midnightblue" stroke="midnightblue" points="234.14,-318 223.64,-319.42 232.73,-324.86 234.14,-318"/>
</g>
<!-- Node15 -->
<g id="node15" class="node">
<title>Node15</title>
<g id="a_node15"><a xlink:href="tls_2_socket_reader_8h.html" target="_top" xlink:title=" ">
<polygon fill="white" stroke="black" points="510.5,-291.5 510.5,-321.5 620.5,-321.5 620.5,-291.5 510.5,-291.5"/>
<text text-anchor="start" x="518.5" y="-309.5" font-family="Helvetica,sans-Serif" font-size="10.00">core/socket/stream</text>
<text text-anchor="middle" x="565.5" y="-298.5" font-family="Helvetica,sans-Serif" font-size="10.00">/tls/SocketReader.h</text>
</a>
</g>
</g>
<!-- Node12&#45;&gt;Node15 -->
<g id="edge15" class="edge">
<title>Node12&#45;&gt;Node15</title>
<path fill="none" stroke="midnightblue" d="M500.51,-358.4C511.93,-349.45 526.89,-337.74 539.58,-327.8"/>
<polygon fill="midnightblue" stroke="midnightblue" points="541.81,-330.5 547.53,-321.58 537.49,-324.99 541.81,-330.5"/>
</g>
<!-- Node20 -->
<g id="node20" class="node">
<title>Node20</title>
<g id="a_node20"><a xlink:href="tls_2_socket_writer_8h.html" target="_top" xlink:title=" ">
<polygon fill="white" stroke="black" points="320.5,-291.5 320.5,-321.5 430.5,-321.5 430.5,-291.5 320.5,-291.5"/>
<text text-anchor="start" x="328.5" y="-309.5" font-family="Helvetica,sans-Serif" font-size="10.00">core/socket/stream</text>
<text text-anchor="middle" x="375.5" y="-298.5" font-family="Helvetica,sans-Serif" font-size="10.00">/tls/SocketWriter.h</text>
</a>
</g>
</g>
<!-- Node12&#45;&gt;Node20 -->
<g id="edge23" class="edge">
<title>Node12&#45;&gt;Node20</title>
<path fill="none" stroke="midnightblue" d="M459.28,-358.4C444.14,-349.2 424.17,-337.07 407.53,-326.95"/>
<polygon fill="midnightblue" stroke="midnightblue" points="409.04,-323.78 398.67,-321.58 405.4,-329.76 409.04,-323.78"/>
</g>
<!-- Node22 -->
<g id="node22" class="node">
<title>Node22</title>
<g id="a_node22"><a xlink:href="_t_l_s_shutdown_8h.html" target="_top" xlink:title=" ">
<polygon fill="white" stroke="black" points="451.5,-224.5 451.5,-254.5 561.5,-254.5 561.5,-224.5 451.5,-224.5"/>
<text text-anchor="start" x="459.5" y="-242.5" font-family="Helvetica,sans-Serif" font-size="10.00">core/socket/stream</text>
<text text-anchor="middle" x="506.5" y="-231.5" font-family="Helvetica,sans-Serif" font-size="10.00">/tls/TLSShutdown.h</text>
</a>
</g>
</g>
<!-- Node12&#45;&gt;Node22 -->
<g id="edge27" class="edge">
<title>Node12&#45;&gt;Node22</title>
<path fill="none" stroke="midnightblue" d="M485.07,-358.37C489.15,-335.94 497.15,-291.92 502.14,-264.49"/>
<polygon fill="midnightblue" stroke="midnightblue" points="505.6,-264.99 503.95,-254.52 498.72,-263.74 505.6,-264.99"/>
</g>
<!-- Node14 -->
<g id="node14" class="node">
<title>Node14</title>
<g id="a_node14"><a xlink:href="_socket_connection_8h.html" target="_top" xlink:title=" ">
<polygon fill="white" stroke="black" points="0,-230 0,-249 171,-249 171,-230 0,-230"/>
<text text-anchor="middle" x="85.5" y="-237" font-family="Helvetica,sans-Serif" font-size="10.00">core/socket/SocketConnection.h</text>
</a>
</g>
</g>
<!-- Node13&#45;&gt;Node14 -->
<g id="edge14" class="edge">
<title>Node13&#45;&gt;Node14</title>
<path fill="none" stroke="midnightblue" d="M148.14,-291.4C135.17,-280.86 117.47,-266.48 104.19,-255.69"/>
<polygon fill="midnightblue" stroke="midnightblue" points="106.17,-252.78 96.2,-249.19 101.76,-258.22 106.17,-252.78"/>
</g>
<!-- Node16 -->
<g id="node16" class="node">
<title>Node16</title>
<g id="a_node16"><a xlink:href="_socket_reader_8h.html" target="_top" xlink:title=" ">
<polygon fill="white" stroke="black" points="579.5,-224.5 579.5,-254.5 689.5,-254.5 689.5,-224.5 579.5,-224.5"/>
<text text-anchor="start" x="587.5" y="-242.5" font-family="Helvetica,sans-Serif" font-size="10.00">core/socket/stream</text>
<text text-anchor="middle" x="634.5" y="-231.5" font-family="Helvetica,sans-Serif" font-size="10.00">/SocketReader.h</text>
</a>
</g>
</g>
<!-- Node15&#45;&gt;Node16 -->
<g id="edge16" class="edge">
<title>Node15&#45;&gt;Node16</title>
<path fill="none" stroke="midnightblue" d="M580.47,-291.4C589.69,-282.71 601.69,-271.4 612.04,-261.66"/>
<polygon fill="midnightblue" stroke="midnightblue" points="614.68,-263.98 619.56,-254.58 609.88,-258.89 614.68,-263.98"/>
</g>
<!-- Node18 -->
<g id="node18" class="node">
<title>Node18</title>
<g id="a_node18"><a xlink:href="_t_l_s_handshake_8h.html" target="_top" xlink:title=" ">
<polygon fill="white" stroke="black" points="318,-224.5 318,-254.5 433,-254.5 433,-224.5 318,-224.5"/>
<text text-anchor="start" x="326" y="-242.5" font-family="Helvetica,sans-Serif" font-size="10.00">core/socket/stream</text>
<text text-anchor="middle" x="375.5" y="-231.5" font-family="Helvetica,sans-Serif" font-size="10.00">/tls/TLSHandshake.h</text>
</a>
</g>
</g>
<!-- Node15&#45;&gt;Node18 -->
<g id="edge19" class="edge">
<title>Node15&#45;&gt;Node18</title>
<path fill="none" stroke="midnightblue" d="M524.27,-291.4C495.52,-281.56 456.96,-268.37 426.3,-257.88"/>
<polygon fill="midnightblue" stroke="midnightblue" points="427.24,-254.5 416.65,-254.58 424.98,-261.13 427.24,-254.5"/>
</g>
<!-- Node17 -->
<g id="node17" class="node">
<title>Node17</title>
<g id="a_node17"><a xlink:href="_read_event_receiver_8h.html" target="_top" xlink:title=" ">
<polygon fill="white" stroke="black" points="450,-168.5 450,-187.5 595,-187.5 595,-168.5 450,-168.5"/>
<text text-anchor="middle" x="522.5" y="-175.5" font-family="Helvetica,sans-Serif" font-size="10.00">core/ReadEventReceiver.h</text>
</a>
</g>
</g>
<!-- Node16&#45;&gt;Node17 -->
<g id="edge17" class="edge">
<title>Node16&#45;&gt;Node17</title>
<path fill="none" stroke="midnightblue" d="M607.96,-224.4C589.84,-214.77 565.96,-202.09 548.06,-192.58"/>
<polygon fill="midnightblue" stroke="midnightblue" points="549.27,-189.26 538.8,-187.66 545.99,-195.44 549.27,-189.26"/>
</g>
<!-- Node17&#45;&gt;Node8 -->
<g id="edge18" class="edge">
<title>Node17&#45;&gt;Node8</title>
<path fill="none" stroke="midnightblue" d="M529.44,-168.08C535.43,-160.38 544.25,-149.03 551.55,-139.65"/>
<polygon fill="midnightblue" stroke="midnightblue" points="554.32,-141.79 557.69,-131.75 548.79,-137.5 554.32,-141.79"/>
</g>
<!-- Node18&#45;&gt;Node17 -->
<g id="edge20" class="edge">
<title>Node18&#45;&gt;Node17</title>
<path fill="none" stroke="midnightblue" d="M410.34,-224.4C435,-214.42 467.79,-201.15 491.53,-191.53"/>
<polygon fill="midnightblue" stroke="midnightblue" points="493.15,-194.65 501.11,-187.66 490.53,-188.17 493.15,-194.65"/>
</g>
<!-- Node19 -->
<g id="node19" class="node">
<title>Node19</title>
<g id="a_node19"><a xlink:href="_write_event_receiver_8h.html" target="_top" xlink:title=" ">
<polygon fill="white" stroke="black" points="285.5,-168.5 285.5,-187.5 431.5,-187.5 431.5,-168.5 285.5,-168.5"/>
<text text-anchor="middle" x="358.5" y="-175.5" font-family="Helvetica,sans-Serif" font-size="10.00">core/WriteEventReceiver.h</text>
</a>
</g>
</g>
<!-- Node18&#45;&gt;Node19 -->
<g id="edge21" class="edge">
<title>Node18&#45;&gt;Node19</title>
<path fill="none" stroke="midnightblue" d="M371.47,-224.4C369.15,-216.29 366.22,-206.01 363.72,-197.28"/>
<polygon fill="midnightblue" stroke="midnightblue" points="367.09,-196.31 360.97,-187.66 360.36,-198.23 367.09,-196.31"/>
</g>
<!-- Node19&#45;&gt;Node8 -->
<g id="edge22" class="edge">
<title>Node19&#45;&gt;Node8</title>
<path fill="none" stroke="midnightblue" d="M391.14,-168.44C426.55,-159.16 483.21,-144.31 522.05,-134.13"/>
<polygon fill="midnightblue" stroke="midnightblue" points="523.23,-137.44 532.01,-131.52 521.45,-130.67 523.23,-137.44"/>
</g>
<!-- Node20&#45;&gt;Node18 -->
<g id="edge26" class="edge">
<title>Node20&#45;&gt;Node18</title>
<path fill="none" stroke="midnightblue" d="M375.5,-291.4C375.5,-283.64 375.5,-273.81 375.5,-264.86"/>
<polygon fill="midnightblue" stroke="midnightblue" points="379,-264.58 375.5,-254.58 372,-264.58 379,-264.58"/>
</g>
<!-- Node21 -->
<g id="node21" class="node">
<title>Node21</title>
<g id="a_node21"><a xlink:href="_socket_writer_8h.html" target="_top" xlink:title=" ">
<polygon fill="white" stroke="black" points="189.5,-224.5 189.5,-254.5 299.5,-254.5 299.5,-224.5 189.5,-224.5"/>
<text text-anchor="start" x="197.5" y="-242.5" font-family="Helvetica,sans-Serif" font-size="10.00">core/socket/stream</text>
<text text-anchor="middle" x="244.5" y="-231.5" font-family="Helvetica,sans-Serif" font-size="10.00">/SocketWriter.h</text>
</a>
</g>
</g>
<!-- Node20&#45;&gt;Node21 -->
<g id="edge24" class="edge">
<title>Node20&#45;&gt;Node21</title>
<path fill="none" stroke="midnightblue" d="M347.07,-291.4C328.02,-281.94 302.72,-269.39 282.02,-259.12"/>
<polygon fill="midnightblue" stroke="midnightblue" points="283.38,-255.89 272.87,-254.58 280.27,-262.16 283.38,-255.89"/>
</g>
<!-- Node21&#45;&gt;Node19 -->
<g id="edge25" class="edge">
<title>Node21&#45;&gt;Node19</title>
<path fill="none" stroke="midnightblue" d="M271.52,-224.4C290.13,-214.68 314.71,-201.86 332.99,-192.31"/>
<polygon fill="midnightblue" stroke="midnightblue" points="334.67,-195.39 341.91,-187.66 331.43,-189.18 334.67,-195.39"/>
</g>
<!-- Node22&#45;&gt;Node17 -->
<g id="edge28" class="edge">
<title>Node22&#45;&gt;Node17</title>
<path fill="none" stroke="midnightblue" d="M510.29,-224.4C512.45,-216.38 515.18,-206.23 517.51,-197.57"/>
<polygon fill="midnightblue" stroke="midnightblue" points="520.95,-198.22 520.17,-187.66 514.2,-196.41 520.95,-198.22"/>
</g>
<!-- Node22&#45;&gt;Node19 -->
<g id="edge29" class="edge">
<title>Node22&#45;&gt;Node19</title>
<path fill="none" stroke="midnightblue" d="M471.43,-224.4C446.48,-214.37 413.29,-201.03 389.36,-191.4"/>
<polygon fill="midnightblue" stroke="midnightblue" points="390.62,-188.14 380.04,-187.66 388.01,-194.64 390.62,-188.14"/>
</g>
<!-- Node24 -->
<g id="node24" class="node">
<title>Node24</title>
<g id="a_node24"><a xlink:href="core_2socket_2_server_socket_8h.html" target="_top" xlink:title=" ">
<polygon fill="white" stroke="black" points="716.5,-431 716.5,-450 864.5,-450 864.5,-431 716.5,-431"/>
<text text-anchor="middle" x="790.5" y="-438" font-family="Helvetica,sans-Serif" font-size="10.00">core/socket/ServerSocket.h</text>
</a>
</g>
</g>
<!-- Node23&#45;&gt;Node24 -->
<g id="edge31" class="edge">
<title>Node23&#45;&gt;Node24</title>
<path fill="none" stroke="midnightblue" d="M924.92,-497.87C898.17,-486.65 851.25,-466.98 820.53,-454.09"/>
<polygon fill="midnightblue" stroke="midnightblue" points="821.74,-450.81 811.17,-450.17 819.04,-457.26 821.74,-450.81"/>
</g>
<!-- Node25 -->
<g id="node25" class="node">
<title>Node25</title>
<g id="a_node25"><a xlink:href="net_2in_2stream_2_socket_8h.html" target="_top" xlink:title=" ">
<polygon fill="white" stroke="black" points="882.5,-431 882.5,-450 1008.5,-450 1008.5,-431 882.5,-431"/>
<text text-anchor="middle" x="945.5" y="-438" font-family="Helvetica,sans-Serif" font-size="10.00">net/in/stream/Socket.h</text>
</a>
</g>
</g>
<!-- Node23&#45;&gt;Node25 -->
<g id="edge32" class="edge">
<title>Node23&#45;&gt;Node25</title>
<path fill="none" stroke="midnightblue" d="M945.5,-497.73C945.5,-488.18 945.5,-472.62 945.5,-460.28"/>
<polygon fill="midnightblue" stroke="midnightblue" points="949,-460.13 945.5,-450.13 942,-460.13 949,-460.13"/>
</g>
<!-- Node26 -->
<g id="node26" class="node">
<title>Node26</title>
<g id="a_node26"><a xlink:href="core_2socket_2_socket_8h.html" target="_top" xlink:title=" ">
<polygon fill="white" stroke="black" points="769.5,-364 769.5,-383 885.5,-383 885.5,-364 769.5,-364"/>
<text text-anchor="middle" x="827.5" y="-371" font-family="Helvetica,sans-Serif" font-size="10.00">core/socket/Socket.h</text>
</a>
</g>
</g>
<!-- Node25&#45;&gt;Node26 -->
<g id="edge33" class="edge">
<title>Node25&#45;&gt;Node26</title>
<path fill="none" stroke="midnightblue" d="M929.59,-430.73C909.68,-419.77 875.39,-400.88 852.1,-388.05"/>
<polygon fill="midnightblue" stroke="midnightblue" points="853.61,-384.89 843.16,-383.13 850.23,-391.02 853.61,-384.89"/>
</g>
<!-- Node28 -->
<g id="node28" class="node">
<title>Node28</title>
<g id="a_node28"><a xlink:href="net_2in_2_socket_address_8h.html" target="_top" xlink:title=" ">
<polygon fill="white" stroke="black" points="875.5,-297 875.5,-316 1003.5,-316 1003.5,-297 875.5,-297"/>
<text text-anchor="middle" x="939.5" y="-304" font-family="Helvetica,sans-Serif" font-size="10.00">net/in/SocketAddress.h</text>
</a>
</g>
</g>
<!-- Node25&#45;&gt;Node28 -->
<g id="edge35" class="edge">
<title>Node25&#45;&gt;Node28</title>
<path fill="none" stroke="midnightblue" d="M943.73,-430.97C941.75,-420.97 938.67,-403.87 937.5,-389 935.8,-367.45 936.84,-342.6 937.96,-326.06"/>
<polygon fill="midnightblue" stroke="midnightblue" points="941.45,-326.32 938.71,-316.08 934.47,-325.79 941.45,-326.32"/>
</g>
<!-- Node27 -->
<g id="node27" class="node">
<title>Node27</title>
<g id="a_node27"><a xlink:href="_descriptor_8h.html" target="_top" xlink:title=" ">
<polygon fill="white" stroke="black" points="757.5,-297 757.5,-316 857.5,-316 857.5,-297 757.5,-297"/>
<text text-anchor="middle" x="807.5" y="-304" font-family="Helvetica,sans-Serif" font-size="10.00">core/Descriptor.h</text>
</a>
</g>
</g>
<!-- Node26&#45;&gt;Node27 -->
<g id="edge34" class="edge">
<title>Node26&#45;&gt;Node27</title>
<path fill="none" stroke="midnightblue" d="M824.8,-363.73C821.83,-354.09 816.98,-338.3 813.16,-325.91"/>
<polygon fill="midnightblue" stroke="midnightblue" points="816.44,-324.66 810.15,-316.13 809.75,-326.71 816.44,-324.66"/>
</g>
<!-- Node29 -->
<g id="node29" class="node">
<title>Node29</title>
<g id="a_node29"><a xlink:href="core_2socket_2_socket_address_8h.html" target="_top" xlink:title=" ">
<polygon fill="white" stroke="black" points="862,-230 862,-249 1017,-249 1017,-230 862,-230"/>
<text text-anchor="middle" x="939.5" y="-237" font-family="Helvetica,sans-Serif" font-size="10.00">core/socket/SocketAddress.h</text>
</a>
</g>
</g>
<!-- Node28&#45;&gt;Node29 -->
<g id="edge36" class="edge">
<title>Node28&#45;&gt;Node29</title>
<path fill="none" stroke="midnightblue" d="M939.5,-296.73C939.5,-287.18 939.5,-271.62 939.5,-259.28"/>
<polygon fill="midnightblue" stroke="midnightblue" points="943,-259.13 939.5,-249.13 936,-259.13 943,-259.13"/>
</g>
<!-- Node31 -->
<g id="node31" class="node">
<title>Node31</title>
<g id="a_node31"><a xlink:href="_config_tls_8h.html" target="_top" xlink:title=" ">
<polygon fill="white" stroke="black" points="1232.5,-431 1232.5,-450 1322.5,-450 1322.5,-431 1232.5,-431"/>
<text text-anchor="middle" x="1277.5" y="-438" font-family="Helvetica,sans-Serif" font-size="10.00">net/ConfigTls.h</text>
</a>
</g>
</g>
<!-- Node30&#45;&gt;Node31 -->
<g id="edge38" class="edge">
<title>Node30&#45;&gt;Node31</title>
<path fill="none" stroke="midnightblue" d="M1166.31,-492.4C1191.12,-481.04 1225.68,-465.22 1249.66,-454.24"/>
<polygon fill="midnightblue" stroke="midnightblue" points="1251.28,-457.35 1258.92,-450.01 1248.37,-450.99 1251.28,-457.35"/>
</g>
<!-- Node32 -->
<g id="node32" class="node">
<title>Node32</title>
<g id="a_node32"><a xlink:href="in_2stream_2_server_config_8h.html" target="_top" xlink:title=" ">
<polygon fill="white" stroke="black" points="1057,-431 1057,-450 1214,-450 1214,-431 1057,-431"/>
<text text-anchor="middle" x="1135.5" y="-438" font-family="Helvetica,sans-Serif" font-size="10.00">net/in/stream/ServerConfig.h</text>
</a>
</g>
</g>
<!-- Node30&#45;&gt;Node32 -->
<g id="edge39" class="edge">
<title>Node30&#45;&gt;Node32</title>
<path fill="none" stroke="midnightblue" d="M1135.5,-492.4C1135.5,-483.06 1135.5,-470.71 1135.5,-460.52"/>
<polygon fill="midnightblue" stroke="midnightblue" points="1139,-460.19 1135.5,-450.19 1132,-460.19 1139,-460.19"/>
</g>
<!-- Node33 -->
<g id="node33" class="node">
<title>Node33</title>
<g id="a_node33"><a xlink:href="_config_backlog_8h.html" target="_top" xlink:title=" ">
<polygon fill="white" stroke="black" points="1078,-364 1078,-383 1193,-383 1193,-364 1078,-364"/>
<text text-anchor="middle" x="1135.5" y="-371" font-family="Helvetica,sans-Serif" font-size="10.00">net/ConfigBacklog.h</text>
</a>
</g>
</g>
<!-- Node32&#45;&gt;Node33 -->
<g id="edge40" class="edge">
<title>Node32&#45;&gt;Node33</title>
<path fill="none" stroke="midnightblue" d="M1135.5,-430.73C1135.5,-421.18 1135.5,-405.62 1135.5,-393.28"/>
<polygon fill="midnightblue" stroke="midnightblue" points="1139,-393.13 1135.5,-383.13 1132,-393.13 1139,-393.13"/>
</g>
<!-- Node34 -->
<g id="node34" class="node">
<title>Node34</title>
<g id="a_node34"><a xlink:href="_config_base_8h.html" target="_top" xlink:title=" ">
<polygon fill="white" stroke="black" points="1211.5,-364 1211.5,-383 1311.5,-383 1311.5,-364 1211.5,-364"/>
<text text-anchor="middle" x="1261.5" y="-371" font-family="Helvetica,sans-Serif" font-size="10.00">net/ConfigBase.h</text>
</a>
</g>
</g>
<!-- Node32&#45;&gt;Node34 -->
<g id="edge41" class="edge">
<title>Node32&#45;&gt;Node34</title>
<path fill="none" stroke="midnightblue" d="M1152.23,-430.87C1173.6,-419.84 1210.8,-400.66 1235.78,-387.77"/>
<polygon fill="midnightblue" stroke="midnightblue" points="1237.42,-390.86 1244.7,-383.17 1234.21,-384.64 1237.42,-390.86"/>
</g>
<!-- Node35 -->
<g id="node35" class="node">
<title>Node35</title>
<g id="a_node35"><a xlink:href="_config_conn_8h.html" target="_top" xlink:title=" ">
<polygon fill="white" stroke="black" points="1330,-364 1330,-383 1431,-383 1431,-364 1330,-364"/>
<text text-anchor="middle" x="1380.5" y="-371" font-family="Helvetica,sans-Serif" font-size="10.00">net/ConfigConn.h</text>
</a>
</g>
</g>
<!-- Node32&#45;&gt;Node35 -->
<g id="edge42" class="edge">
<title>Node32&#45;&gt;Node35</title>
<path fill="none" stroke="midnightblue" d="M1167.78,-430.94C1211.57,-419.32 1289.88,-398.54 1338.29,-385.7"/>
<polygon fill="midnightblue" stroke="midnightblue" points="1339.38,-389.03 1348.15,-383.08 1337.58,-382.26 1339.38,-389.03"/>
</g>
<!-- Node36 -->
<g id="node36" class="node">
<title>Node36</title>
<g id="a_node36"><a xlink:href="in_2_config_local_8h.html" target="_top" xlink:title=" ">
<polygon fill="white" stroke="black" points="947,-364 947,-383 1060,-383 1060,-364 947,-364"/>
<text text-anchor="middle" x="1003.5" y="-371" font-family="Helvetica,sans-Serif" font-size="10.00">net/in/ConfigLocal.h</text>
</a>
</g>
</g>
<!-- Node32&#45;&gt;Node36 -->
<g id="edge43" class="edge">
<title>Node32&#45;&gt;Node36</title>
<path fill="none" stroke="midnightblue" d="M1117.97,-430.87C1095.49,-419.8 1056.27,-400.49 1030.1,-387.6"/>
<polygon fill="midnightblue" stroke="midnightblue" points="1031.62,-384.44 1021.1,-383.17 1028.53,-390.72 1031.62,-384.44"/>
</g>
<!-- Node36&#45;&gt;Node28 -->
<g id="edge45" class="edge">
<title>Node36&#45;&gt;Node28</title>
<path fill="none" stroke="midnightblue" d="M994.87,-363.73C984.7,-353.4 967.6,-336.04 955.09,-323.33"/>
<polygon fill="midnightblue" stroke="midnightblue" points="957.5,-320.8 947.99,-316.13 952.52,-325.71 957.5,-320.8"/>
</g>
<!-- Node37 -->
<g id="node37" class="node">
<title>Node37</title>
<g id="a_node37"><a xlink:href="_config_local_8h.html" target="_top" xlink:title=" ">
<polygon fill="white" stroke="black" points="1022,-297 1022,-316 1123,-316 1123,-297 1022,-297"/>
<text text-anchor="middle" x="1072.5" y="-304" font-family="Helvetica,sans-Serif" font-size="10.00">net/ConfigLocal.h</text>
</a>
</g>
</g>
<!-- Node36&#45;&gt;Node37 -->
<g id="edge44" class="edge">
<title>Node36&#45;&gt;Node37</title>
<path fill="none" stroke="midnightblue" d="M1012.81,-363.73C1023.77,-353.4 1042.21,-336.04 1055.69,-323.33"/>
<polygon fill="midnightblue" stroke="midnightblue" points="1058.46,-325.53 1063.34,-316.13 1053.66,-320.44 1058.46,-325.53"/>
</g>
<!-- Node39 -->
<g id="node39" class="node">
<title>Node39</title>
<g id="a_node39"><a xlink:href="web_2http_2server_2_socket_context_factory_8h.html" target="_top" xlink:title=" ">
<polygon fill="white" stroke="black" points="1439,-492.5 1439,-522.5 1606,-522.5 1606,-492.5 1439,-492.5"/>
<text text-anchor="start" x="1447" y="-510.5" font-family="Helvetica,sans-Serif" font-size="10.00">web/http/server/SocketContext</text>
<text text-anchor="middle" x="1522.5" y="-499.5" font-family="Helvetica,sans-Serif" font-size="10.00">Factory.h</text>
</a>
</g>
</g>
<!-- Node38&#45;&gt;Node39 -->
<g id="edge47" class="edge">
<title>Node38&#45;&gt;Node39</title>
<path fill="none" stroke="midnightblue" d="M1362.07,-564.87C1390.19,-554.99 1436.98,-538.55 1472.79,-525.97"/>
<polygon fill="midnightblue" stroke="midnightblue" points="1474.3,-529.15 1482.57,-522.53 1471.98,-522.54 1474.3,-529.15"/>
</g>
<!-- Node40 -->
<g id="node40" class="node">
<title>Node40</title>
<g id="a_node40"><a xlink:href="web_2http_2_socket_context_factory_8h.html" target="_top" xlink:title=" ">
<polygon fill="white" stroke="black" points="1434.5,-431 1434.5,-450 1610.5,-450 1610.5,-431 1434.5,-431"/>
<text text-anchor="middle" x="1522.5" y="-438" font-family="Helvetica,sans-Serif" font-size="10.00">web/http/SocketContextFactory.h</text>
</a>
</g>
</g>
<!-- Node39&#45;&gt;Node40 -->
<g id="edge48" class="edge">
<title>Node39&#45;&gt;Node40</title>
<path fill="none" stroke="midnightblue" d="M1522.5,-492.4C1522.5,-483.06 1522.5,-470.71 1522.5,-460.52"/>
<polygon fill="midnightblue" stroke="midnightblue" points="1526,-460.19 1522.5,-450.19 1519,-460.19 1526,-460.19"/>
</g>
<!-- Node42 -->
<g id="node42" class="node">
<title>Node42</title>
<g id="a_node42"><a xlink:href="server_2_socket_context_8hpp.html" target="_top" xlink:title=" ">
<polygon fill="white" stroke="black" points="1688.5,-431 1688.5,-450 1876.5,-450 1876.5,-431 1688.5,-431"/>
<text text-anchor="middle" x="1782.5" y="-438" font-family="Helvetica,sans-Serif" font-size="10.00">web/http/server/SocketContext.hpp</text>
</a>
</g>
</g>
<!-- Node39&#45;&gt;Node42 -->
<g id="edge50" class="edge">
<title>Node39&#45;&gt;Node42</title>
<path fill="none" stroke="midnightblue" d="M1578.6,-492.48C1626.52,-480.5 1694.5,-463.5 1738.55,-452.49"/>
<polygon fill="midnightblue" stroke="midnightblue" points="1739.53,-455.85 1748.39,-450.03 1737.84,-449.06 1739.53,-455.85"/>
</g>
<!-- Node41 -->
<g id="node41" class="node">
<title>Node41</title>
<g id="a_node41"><a xlink:href="core_2socket_2_socket_context_factory_8h.html" target="_top" xlink:title=" ">
<polygon fill="white" stroke="black" points="1449.5,-358.5 1449.5,-388.5 1595.5,-388.5 1595.5,-358.5 1449.5,-358.5"/>
<text text-anchor="start" x="1457.5" y="-376.5" font-family="Helvetica,sans-Serif" font-size="10.00">core/socket/SocketContext</text>
<text text-anchor="middle" x="1522.5" y="-365.5" font-family="Helvetica,sans-Serif" font-size="10.00">Factory.h</text>
</a>
</g>
</g>
<!-- Node40&#45;&gt;Node41 -->
<g id="edge49" class="edge">
<title>Node40&#45;&gt;Node41</title>
<path fill="none" stroke="midnightblue" d="M1522.5,-430.73C1522.5,-422.54 1522.5,-409.92 1522.5,-398.71"/>
<polygon fill="midnightblue" stroke="midnightblue" points="1526,-398.59 1522.5,-388.59 1519,-398.59 1526,-398.59"/>
</g>
<!-- Node43 -->
<g id="node43" class="node">
<title>Node43</title>
<g id="a_node43"><a xlink:href="_connection_state_8h.html" target="_top" xlink:title=" ">
<polygon fill="white" stroke="black" points="1613.5,-364 1613.5,-383 1765.5,-383 1765.5,-364 1613.5,-364"/>
<text text-anchor="middle" x="1689.5" y="-371" font-family="Helvetica,sans-Serif" font-size="10.00">web/http/ConnectionState.h</text>
</a>
</g>
</g>
<!-- Node42&#45;&gt;Node43 -->
<g id="edge51" class="edge">
<title>Node42&#45;&gt;Node43</title>
<path fill="none" stroke="midnightblue" d="M1769.96,-430.73C1754.62,-420.01 1728.44,-401.72 1710.12,-388.91"/>
<polygon fill="midnightblue" stroke="midnightblue" points="1712.05,-385.99 1701.84,-383.13 1708.04,-391.72 1712.05,-385.99"/>
</g>
<!-- Node44 -->
<g id="node44" class="node">
<title>Node44</title>
<g id="a_node44"><a xlink:href="http__utils_8h.html" target="_top" xlink:title=" ">
<polygon fill="white" stroke="black" points="1784,-364 1784,-383 1901,-383 1901,-364 1784,-364"/>
<text text-anchor="middle" x="1842.5" y="-371" font-family="Helvetica,sans-Serif" font-size="10.00">web/http/http_utils.h</text>
</a>
</g>
</g>
<!-- Node42&#45;&gt;Node44 -->
<g id="edge52" class="edge">
<title>Node42&#45;&gt;Node44</title>
<path fill="none" stroke="midnightblue" d="M1790.59,-430.73C1800.04,-420.5 1815.86,-403.36 1827.55,-390.69"/>
<polygon fill="midnightblue" stroke="midnightblue" points="1830.33,-392.85 1834.54,-383.13 1825.18,-388.1 1830.33,-392.85"/>
</g>
<!-- Node45 -->
<g id="node45" class="node">
<title>Node45</title>
<g id="a_node45"><a xlink:href="web_2http_2server_2_socket_context_8h.html" target="_top" xlink:title=" ">
<polygon fill="white" stroke="black" points="1919.5,-364 1919.5,-383 2095.5,-383 2095.5,-364 1919.5,-364"/>
<text text-anchor="middle" x="2007.5" y="-371" font-family="Helvetica,sans-Serif" font-size="10.00">web/http/server/SocketContext.h</text>
</a>
</g>
</g>
<!-- Node42&#45;&gt;Node45 -->
<g id="edge53" class="edge">
<title>Node42&#45;&gt;Node45</title>
<path fill="none" stroke="midnightblue" d="M1812.38,-430.87C1852.41,-419.3 1923.56,-398.75 1967.99,-385.91"/>
<polygon fill="midnightblue" stroke="midnightblue" points="1969.22,-389.2 1977.86,-383.06 1967.28,-382.48 1969.22,-389.2"/>
</g>
<!-- Node46 -->
<g id="node46" class="node">
<title>Node46</title>
<g id="a_node46"><a xlink:href="web_2http_2_socket_context_8h.html" target="_top" xlink:title=" ">
<polygon fill="white" stroke="black" points="1847.5,-297 1847.5,-316 1989.5,-316 1989.5,-297 1847.5,-297"/>
<text text-anchor="middle" x="1918.5" y="-304" font-family="Helvetica,sans-Serif" font-size="10.00">web/http/SocketContext.h</text>
</a>
</g>
</g>
<!-- Node45&#45;&gt;Node46 -->
<g id="edge54" class="edge">
<title>Node45&#45;&gt;Node46</title>
<path fill="none" stroke="midnightblue" d="M1995.5,-363.73C1980.95,-353.11 1956.22,-335.05 1938.72,-322.26"/>
<polygon fill="midnightblue" stroke="midnightblue" points="1940.45,-319.2 1930.31,-316.13 1936.32,-324.85 1940.45,-319.2"/>
</g>
<!-- Node48 -->
<g id="node48" class="node">
<title>Node48</title>
<g id="a_node48"><a xlink:href="_request_parser_8h.html" target="_top" xlink:title=" ">
<polygon fill="white" stroke="black" points="2007.5,-297 2007.5,-316 2183.5,-316 2183.5,-297 2007.5,-297"/>
<text text-anchor="middle" x="2095.5" y="-304" font-family="Helvetica,sans-Serif" font-size="10.00">web/http/server/RequestParser.h</text>
</a>
</g>
</g>
<!-- Node45&#45;&gt;Node48 -->
<g id="edge56" class="edge">
<title>Node45&#45;&gt;Node48</title>
<path fill="none" stroke="midnightblue" d="M2019.37,-363.73C2033.75,-353.11 2058.2,-335.05 2075.51,-322.26"/>
<polygon fill="midnightblue" stroke="midnightblue" points="2077.86,-324.88 2083.82,-316.13 2073.7,-319.25 2077.86,-324.88"/>
</g>
<!-- Node47 -->
<g id="node47" class="node">
<title>Node47</title>
<g id="a_node47"><a xlink:href="core_2socket_2_socket_context_8h.html" target="_top" xlink:title=" ">
<polygon fill="white" stroke="black" points="1841,-230 1841,-249 1996,-249 1996,-230 1841,-230"/>
<text text-anchor="middle" x="1918.5" y="-237" font-family="Helvetica,sans-Serif" font-size="10.00">core/socket/SocketContext.h</text>
</a>
</g>
</g>
<!-- Node46&#45;&gt;Node47 -->
<g id="edge55" class="edge">
<title>Node46&#45;&gt;Node47</title>
<path fill="none" stroke="midnightblue" d="M1918.5,-296.73C1918.5,-287.18 1918.5,-271.62 1918.5,-259.28"/>
<polygon fill="midnightblue" stroke="midnightblue" points="1922,-259.13 1918.5,-249.13 1915,-259.13 1922,-259.13"/>
</g>
<!-- Node49 -->
<g id="node49" class="node">
<title>Node49</title>
<g id="a_node49"><a xlink:href="_parser_8h.html" target="_top" xlink:title=" ">
<polygon fill="white" stroke="black" points="2044.5,-230 2044.5,-249 2146.5,-249 2146.5,-230 2044.5,-230"/>
<text text-anchor="middle" x="2095.5" y="-237" font-family="Helvetica,sans-Serif" font-size="10.00">web/http/Parser.h</text>
</a>
</g>
</g>
<!-- Node48&#45;&gt;Node49 -->
<g id="edge57" class="edge">
<title>Node48&#45;&gt;Node49</title>
<path fill="none" stroke="midnightblue" d="M2095.5,-296.73C2095.5,-287.18 2095.5,-271.62 2095.5,-259.28"/>
<polygon fill="midnightblue" stroke="midnightblue" points="2099,-259.13 2095.5,-249.13 2092,-259.13 2099,-259.13"/>
</g>
</g>
</svg>
