<?xml version="1.0" encoding="UTF-8" standalone="no"?>
<!DOCTYPE svg PUBLIC "-//W3C//DTD SVG 1.1//EN"
 "http://www.w3.org/Graphics/SVG/1.1/DTD/svg11.dtd">
<!-- Generated by graphviz version 2.43.0 (0)
 -->
<!-- Title: core/socket/stream/tls/SocketWriter.h Pages: 1 -->
<svg width="1457pt" height="419pt"
 viewBox="0.00 0.00 1456.50 419.00" xmlns="http://www.w3.org/2000/svg" xmlns:xlink="http://www.w3.org/1999/xlink">
<g id="graph0" class="graph" transform="scale(1 1) rotate(0) translate(4 415)">
<title>core/socket/stream/tls/SocketWriter.h</title>
<polygon fill="white" stroke="transparent" points="-4,4 -4,-415 1452.5,-415 1452.5,4 -4,4"/>
<!-- Node1 -->
<g id="node1" class="node">
<title>Node1</title>
<g id="a_node1"><a xlink:title=" ">
<polygon fill="#bfbfbf" stroke="black" points="586,-380.5 586,-410.5 696,-410.5 696,-380.5 586,-380.5"/>
<text text-anchor="start" x="594" y="-398.5" font-family="Helvetica,sans-Serif" font-size="10.00">core/socket/stream</text>
<text text-anchor="middle" x="641" y="-387.5" font-family="Helvetica,sans-Serif" font-size="10.00">/tls/SocketWriter.h</text>
</a>
</g>
</g>
<!-- Node2 -->
<g id="node2" class="node">
<title>Node2</title>
<g id="a_node2"><a xlink:href="stream_2tls_2_socket_connection_8h.html" target="_top" xlink:title=" ">
<polygon fill="white" stroke="black" points="575.5,-313.5 575.5,-343.5 706.5,-343.5 706.5,-313.5 575.5,-313.5"/>
<text text-anchor="start" x="583.5" y="-331.5" font-family="Helvetica,sans-Serif" font-size="10.00">core/socket/stream</text>
<text text-anchor="middle" x="641" y="-320.5" font-family="Helvetica,sans-Serif" font-size="10.00">/tls/SocketConnection.h</text>
</a>
</g>
</g>
<!-- Node1&#45;&gt;Node2 -->
<g id="edge1" class="edge">
<title>Node1&#45;&gt;Node2</title>
<path fill="none" stroke="midnightblue" d="M641,-370.11C641,-361.15 641,-351.32 641,-343.58"/>
<polygon fill="midnightblue" stroke="midnightblue" points="637.5,-370.4 641,-380.4 644.5,-370.4 637.5,-370.4"/>
</g>
<!-- Node3 -->
<g id="node3" class="node">
<title>Node3</title>
<g id="a_node3"><a xlink:href="tls_2_socket_acceptor_8h.html" target="_top" xlink:title=" ">
<polygon fill="white" stroke="black" points="511.5,-246.5 511.5,-276.5 630.5,-276.5 630.5,-246.5 511.5,-246.5"/>
<text text-anchor="start" x="519.5" y="-264.5" font-family="Helvetica,sans-Serif" font-size="10.00">core/socket/stream</text>
<text text-anchor="middle" x="571" y="-253.5" font-family="Helvetica,sans-Serif" font-size="10.00">/tls/SocketAcceptor.h</text>
</a>
</g>
</g>
<!-- Node2&#45;&gt;Node3 -->
<g id="edge2" class="edge">
<title>Node2&#45;&gt;Node3</title>
<path fill="none" stroke="midnightblue" d="M618.18,-306.31C607.68,-296.56 595.51,-285.26 586.16,-276.58"/>
<polygon fill="midnightblue" stroke="midnightblue" points="616.1,-309.16 625.81,-313.4 620.86,-304.03 616.1,-309.16"/>
</g>
<!-- Node18 -->
<g id="node18" class="node">
<title>Node18</title>
<g id="a_node18"><a xlink:href="tls_2_socket_connector_8h.html" target="_top" xlink:title=" ">
<polygon fill="white" stroke="black" points="873.5,-246.5 873.5,-276.5 998.5,-276.5 998.5,-246.5 873.5,-246.5"/>
<text text-anchor="start" x="881.5" y="-264.5" font-family="Helvetica,sans-Serif" font-size="10.00">core/socket/stream</text>
<text text-anchor="middle" x="936" y="-253.5" font-family="Helvetica,sans-Serif" font-size="10.00">/tls/SocketConnector.h</text>
</a>
</g>
</g>
<!-- Node2&#45;&gt;Node18 -->
<g id="edge17" class="edge">
<title>Node2&#45;&gt;Node18</title>
<path fill="none" stroke="midnightblue" d="M714.54,-311.3C763.45,-300.52 827.01,-286.52 873.48,-276.28"/>
<polygon fill="midnightblue" stroke="midnightblue" points="713.66,-307.91 704.65,-313.48 715.17,-314.74 713.66,-307.91"/>
</g>
<!-- Node4 -->
<g id="node4" class="node">
<title>Node4</title>
<g id="a_node4"><a xlink:href="core_2socket_2stream_2tls_2_socket_server_8h.html" target="_top" xlink:title=" ">
<polygon fill="white" stroke="black" points="373,-179.5 373,-209.5 483,-209.5 483,-179.5 373,-179.5"/>
<text text-anchor="start" x="381" y="-197.5" font-family="Helvetica,sans-Serif" font-size="10.00">core/socket/stream</text>
<text text-anchor="middle" x="428" y="-186.5" font-family="Helvetica,sans-Serif" font-size="10.00">/tls/SocketServer.h</text>
</a>
</g>
</g>
<!-- Node3&#45;&gt;Node4 -->
<g id="edge3" class="edge">
<title>Node3&#45;&gt;Node4</title>
<path fill="none" stroke="midnightblue" d="M530.59,-242.13C507.87,-231.8 479.94,-219.11 458.97,-209.58"/>
<polygon fill="midnightblue" stroke="midnightblue" points="529.42,-245.44 539.97,-246.4 532.32,-239.07 529.42,-245.44"/>
</g>
<!-- Node5 -->
<g id="node5" class="node">
<title>Node5</title>
<g id="a_node5"><a xlink:href="net_2in_2stream_2tls_2_socket_server_8h.html" target="_top" xlink:title=" ">
<polygon fill="white" stroke="black" points="11,-112.5 11,-142.5 143,-142.5 143,-112.5 11,-112.5"/>
<text text-anchor="start" x="19" y="-130.5" font-family="Helvetica,sans-Serif" font-size="10.00">net/in/stream/tls/Socket</text>
<text text-anchor="middle" x="77" y="-119.5" font-family="Helvetica,sans-Serif" font-size="10.00">Server.h</text>
</a>
</g>
</g>
<!-- Node4&#45;&gt;Node5 -->
<g id="edge4" class="edge">
<title>Node4&#45;&gt;Node5</title>
<path fill="none" stroke="midnightblue" d="M362.62,-181.39C300.05,-169.81 206.15,-152.42 143.28,-140.77"/>
<polygon fill="midnightblue" stroke="midnightblue" points="362.3,-184.89 372.77,-183.27 363.57,-178.01 362.3,-184.89"/>
</g>
<!-- Node8 -->
<g id="node8" class="node">
<title>Node8</title>
<g id="a_node8"><a xlink:href="net_2in6_2stream_2tls_2_socket_server_8h.html" target="_top" xlink:title=" ">
<polygon fill="white" stroke="black" points="165.5,-112.5 165.5,-142.5 268.5,-142.5 268.5,-112.5 165.5,-112.5"/>
<text text-anchor="start" x="173.5" y="-130.5" font-family="Helvetica,sans-Serif" font-size="10.00">net/in6/stream/tls</text>
<text text-anchor="middle" x="217" y="-119.5" font-family="Helvetica,sans-Serif" font-size="10.00">/SocketServer.h</text>
</a>
</g>
</g>
<!-- Node4&#45;&gt;Node8 -->
<g id="edge7" class="edge">
<title>Node4&#45;&gt;Node8</title>
<path fill="none" stroke="midnightblue" d="M372.63,-176.44C338.43,-165.91 295.07,-152.55 262.81,-142.61"/>
<polygon fill="midnightblue" stroke="midnightblue" points="371.89,-179.88 382.48,-179.48 373.95,-173.19 371.89,-179.88"/>
</g>
<!-- Node11 -->
<g id="node11" class="node">
<title>Node11</title>
<g id="a_node11"><a xlink:href="net_2l2_2stream_2tls_2_socket_server_8h.html" target="_top" xlink:title=" ">
<polygon fill="white" stroke="black" points="287,-112.5 287,-142.5 419,-142.5 419,-112.5 287,-112.5"/>
<text text-anchor="start" x="295" y="-130.5" font-family="Helvetica,sans-Serif" font-size="10.00">net/l2/stream/tls/Socket</text>
<text text-anchor="middle" x="353" y="-119.5" font-family="Helvetica,sans-Serif" font-size="10.00">Server.h</text>
</a>
</g>
</g>
<!-- Node4&#45;&gt;Node11 -->
<g id="edge10" class="edge">
<title>Node4&#45;&gt;Node11</title>
<path fill="none" stroke="midnightblue" d="M403.88,-172.6C392.56,-162.78 379.36,-151.34 369.24,-142.58"/>
<polygon fill="midnightblue" stroke="midnightblue" points="401.88,-175.49 411.73,-179.4 406.46,-170.2 401.88,-175.49"/>
</g>
<!-- Node12 -->
<g id="node12" class="node">
<title>Node12</title>
<g id="a_node12"><a xlink:href="net_2rc_2stream_2tls_2_socket_server_8h.html" target="_top" xlink:title=" ">
<polygon fill="white" stroke="black" points="437,-112.5 437,-142.5 569,-142.5 569,-112.5 437,-112.5"/>
<text text-anchor="start" x="445" y="-130.5" font-family="Helvetica,sans-Serif" font-size="10.00">net/rc/stream/tls/Socket</text>
<text text-anchor="middle" x="503" y="-119.5" font-family="Helvetica,sans-Serif" font-size="10.00">Server.h</text>
</a>
</g>
</g>
<!-- Node4&#45;&gt;Node12 -->
<g id="edge11" class="edge">
<title>Node4&#45;&gt;Node12</title>
<path fill="none" stroke="midnightblue" d="M452.12,-172.6C463.44,-162.78 476.64,-151.34 486.76,-142.58"/>
<polygon fill="midnightblue" stroke="midnightblue" points="449.54,-170.2 444.27,-179.4 454.12,-175.49 449.54,-170.2"/>
</g>
<!-- Node15 -->
<g id="node15" class="node">
<title>Node15</title>
<g id="a_node15"><a xlink:href="net_2un_2stream_2tls_2_socket_server_8h.html" target="_top" xlink:title=" ">
<polygon fill="white" stroke="black" points="587.5,-112.5 587.5,-142.5 722.5,-142.5 722.5,-112.5 587.5,-112.5"/>
<text text-anchor="start" x="595.5" y="-130.5" font-family="Helvetica,sans-Serif" font-size="10.00">net/un/stream/tls/Socket</text>
<text text-anchor="middle" x="655" y="-119.5" font-family="Helvetica,sans-Serif" font-size="10.00">Server.h</text>
</a>
</g>
</g>
<!-- Node4&#45;&gt;Node15 -->
<g id="edge14" class="edge">
<title>Node4&#45;&gt;Node15</title>
<path fill="none" stroke="midnightblue" d="M486.62,-176.71C523.56,-166.14 570.71,-152.63 605.72,-142.61"/>
<polygon fill="midnightblue" stroke="midnightblue" points="485.63,-173.36 476.98,-179.48 487.55,-180.09 485.63,-173.36"/>
</g>
<!-- Node6 -->
<g id="node6" class="node">
<title>Node6</title>
<g id="a_node6"><a xlink:href="tls_2in_2_server_8h.html" target="_top" xlink:title=" ">
<polygon fill="white" stroke="black" points="4,-56.5 4,-75.5 134,-75.5 134,-56.5 4,-56.5"/>
<text text-anchor="middle" x="69" y="-63.5" font-family="Helvetica,sans-Serif" font-size="10.00">web/http/tls/in/Server.h</text>
</a>
</g>
</g>
<!-- Node5&#45;&gt;Node6 -->
<g id="edge5" class="edge">
<title>Node5&#45;&gt;Node6</title>
<path fill="none" stroke="midnightblue" d="M73.74,-102.29C72.48,-92.86 71.1,-82.65 70.16,-75.66"/>
<polygon fill="midnightblue" stroke="midnightblue" points="70.3,-102.95 75.1,-112.4 77.24,-102.02 70.3,-102.95"/>
</g>
<!-- Node7 -->
<g id="node7" class="node">
<title>Node7</title>
<g id="a_node7"><a xlink:href="tls_2in_2_web_app_8h.html" target="_top" xlink:title=" ">
<polygon fill="white" stroke="black" points="0,-0.5 0,-19.5 134,-19.5 134,-0.5 0,-0.5"/>
<text text-anchor="middle" x="67" y="-7.5" font-family="Helvetica,sans-Serif" font-size="10.00">express/tls/in/WebApp.h</text>
</a>
</g>
</g>
<!-- Node6&#45;&gt;Node7 -->
<g id="edge6" class="edge">
<title>Node6&#45;&gt;Node7</title>
<path fill="none" stroke="midnightblue" d="M68.29,-45.8C67.96,-36.91 67.58,-26.78 67.32,-19.75"/>
<polygon fill="midnightblue" stroke="midnightblue" points="64.8,-46.22 68.67,-56.08 71.8,-45.96 64.8,-46.22"/>
</g>
<!-- Node9 -->
<g id="node9" class="node">
<title>Node9</title>
<g id="a_node9"><a xlink:href="tls_2in6_2_server_8h.html" target="_top" xlink:title=" ">
<polygon fill="white" stroke="black" points="153,-56.5 153,-75.5 289,-75.5 289,-56.5 153,-56.5"/>
<text text-anchor="middle" x="221" y="-63.5" font-family="Helvetica,sans-Serif" font-size="10.00">web/http/tls/in6/Server.h</text>
</a>
</g>
</g>
<!-- Node8&#45;&gt;Node9 -->
<g id="edge8" class="edge">
<title>Node8&#45;&gt;Node9</title>
<path fill="none" stroke="midnightblue" d="M218.63,-102.29C219.26,-92.86 219.95,-82.65 220.42,-75.66"/>
<polygon fill="midnightblue" stroke="midnightblue" points="215.13,-102.19 217.95,-112.4 222.11,-102.66 215.13,-102.19"/>
</g>
<!-- Node10 -->
<g id="node10" class="node">
<title>Node10</title>
<g id="a_node10"><a xlink:href="tls_2in6_2_web_app_8h.html" target="_top" xlink:title=" ">
<polygon fill="white" stroke="black" points="152,-0.5 152,-19.5 292,-19.5 292,-0.5 152,-0.5"/>
<text text-anchor="middle" x="222" y="-7.5" font-family="Helvetica,sans-Serif" font-size="10.00">express/tls/in6/WebApp.h</text>
</a>
</g>
</g>
<!-- Node9&#45;&gt;Node10 -->
<g id="edge9" class="edge">
<title>Node9&#45;&gt;Node10</title>
<path fill="none" stroke="midnightblue" d="M221.36,-45.8C221.52,-36.91 221.71,-26.78 221.84,-19.75"/>
<polygon fill="midnightblue" stroke="midnightblue" points="217.85,-46.02 221.17,-56.08 224.85,-46.15 217.85,-46.02"/>
</g>
<!-- Node13 -->
<g id="node13" class="node">
<title>Node13</title>
<g id="a_node13"><a xlink:href="tls_2rc_2_server_8h.html" target="_top" xlink:title=" ">
<polygon fill="white" stroke="black" points="437,-56.5 437,-75.5 567,-75.5 567,-56.5 437,-56.5"/>
<text text-anchor="middle" x="502" y="-63.5" font-family="Helvetica,sans-Serif" font-size="10.00">web/http/tls/rc/Server.h</text>
</a>
</g>
</g>
<!-- Node12&#45;&gt;Node13 -->
<g id="edge12" class="edge">
<title>Node12&#45;&gt;Node13</title>
<path fill="none" stroke="midnightblue" d="M502.59,-102.29C502.43,-92.86 502.26,-82.65 502.15,-75.66"/>
<polygon fill="midnightblue" stroke="midnightblue" points="499.1,-102.46 502.76,-112.4 506.09,-102.34 499.1,-102.46"/>
</g>
<!-- Node14 -->
<g id="node14" class="node">
<title>Node14</title>
<g id="a_node14"><a xlink:href="tls_2rc_2_web_app_8h.html" target="_top" xlink:title=" ">
<polygon fill="white" stroke="black" points="435,-0.5 435,-19.5 569,-19.5 569,-0.5 435,-0.5"/>
<text text-anchor="middle" x="502" y="-7.5" font-family="Helvetica,sans-Serif" font-size="10.00">express/tls/rc/WebApp.h</text>
</a>
</g>
</g>
<!-- Node13&#45;&gt;Node14 -->
<g id="edge13" class="edge">
<title>Node13&#45;&gt;Node14</title>
<path fill="none" stroke="midnightblue" d="M502,-45.8C502,-36.91 502,-26.78 502,-19.75"/>
<polygon fill="midnightblue" stroke="midnightblue" points="498.5,-46.08 502,-56.08 505.5,-46.08 498.5,-46.08"/>
</g>
<!-- Node16 -->
<g id="node16" class="node">
<title>Node16</title>
<g id="a_node16"><a xlink:href="tls_2un_2_server_8h.html" target="_top" xlink:title=" ">
<polygon fill="white" stroke="black" points="588.5,-56.5 588.5,-75.5 721.5,-75.5 721.5,-56.5 588.5,-56.5"/>
<text text-anchor="middle" x="655" y="-63.5" font-family="Helvetica,sans-Serif" font-size="10.00">web/http/tls/un/Server.h</text>
</a>
</g>
</g>
<!-- Node15&#45;&gt;Node16 -->
<g id="edge15" class="edge">
<title>Node15&#45;&gt;Node16</title>
<path fill="none" stroke="midnightblue" d="M655,-102.29C655,-92.86 655,-82.65 655,-75.66"/>
<polygon fill="midnightblue" stroke="midnightblue" points="651.5,-102.4 655,-112.4 658.5,-102.4 651.5,-102.4"/>
</g>
<!-- Node17 -->
<g id="node17" class="node">
<title>Node17</title>
<g id="a_node17"><a xlink:href="tls_2un_2_web_app_8h.html" target="_top" xlink:title=" ">
<polygon fill="white" stroke="black" points="587.5,-0.5 587.5,-19.5 724.5,-19.5 724.5,-0.5 587.5,-0.5"/>
<text text-anchor="middle" x="656" y="-7.5" font-family="Helvetica,sans-Serif" font-size="10.00">express/tls/un/WebApp.h</text>
</a>
</g>
</g>
<!-- Node16&#45;&gt;Node17 -->
<g id="edge16" class="edge">
<title>Node16&#45;&gt;Node17</title>
<path fill="none" stroke="midnightblue" d="M655.36,-45.8C655.52,-36.91 655.71,-26.78 655.84,-19.75"/>
<polygon fill="midnightblue" stroke="midnightblue" points="651.85,-46.02 655.17,-56.08 658.85,-46.15 651.85,-46.02"/>
</g>
<!-- Node19 -->
<g id="node19" class="node">
<title>Node19</title>
<g id="a_node19"><a xlink:href="core_2socket_2stream_2tls_2_socket_client_8h.html" target="_top" xlink:title=" ">
<polygon fill="white" stroke="black" points="956,-179.5 956,-209.5 1066,-209.5 1066,-179.5 956,-179.5"/>
<text text-anchor="start" x="964" y="-197.5" font-family="Helvetica,sans-Serif" font-size="10.00">core/socket/stream</text>
<text text-anchor="middle" x="1011" y="-186.5" font-family="Helvetica,sans-Serif" font-size="10.00">/tls/SocketClient.h</text>
</a>
</g>
</g>
<!-- Node18&#45;&gt;Node19 -->
<g id="edge18" class="edge">
<title>Node18&#45;&gt;Node19</title>
<path fill="none" stroke="midnightblue" d="M960.12,-239.6C971.44,-229.78 984.64,-218.34 994.76,-209.58"/>
<polygon fill="midnightblue" stroke="midnightblue" points="957.54,-237.2 952.27,-246.4 962.12,-242.49 957.54,-237.2"/>
</g>
<!-- Node20 -->
<g id="node20" class="node">
<title>Node20</title>
<g id="a_node20"><a xlink:href="net_2in_2stream_2tls_2_socket_client_8h.html" target="_top" xlink:title=" ">
<polygon fill="white" stroke="black" points="741,-112.5 741,-142.5 873,-142.5 873,-112.5 741,-112.5"/>
<text text-anchor="start" x="749" y="-130.5" font-family="Helvetica,sans-Serif" font-size="10.00">net/in/stream/tls/Socket</text>
<text text-anchor="middle" x="807" y="-119.5" font-family="Helvetica,sans-Serif" font-size="10.00">Client.h</text>
</a>
</g>
</g>
<!-- Node19&#45;&gt;Node20 -->
<g id="edge19" class="edge">
<title>Node19&#45;&gt;Node20</title>
<path fill="none" stroke="midnightblue" d="M957.04,-176.31C924.04,-165.79 882.34,-152.51 851.29,-142.61"/>
<polygon fill="midnightblue" stroke="midnightblue" points="956.4,-179.77 966.99,-179.48 958.52,-173.11 956.4,-179.77"/>
</g>
<!-- Node22 -->
<g id="node22" class="node">
<title>Node22</title>
<g id="a_node22"><a xlink:href="net_2in6_2stream_2tls_2_socket_client_8h.html" target="_top" xlink:title=" ">
<polygon fill="white" stroke="black" points="891.5,-112.5 891.5,-142.5 994.5,-142.5 994.5,-112.5 891.5,-112.5"/>
<text text-anchor="start" x="899.5" y="-130.5" font-family="Helvetica,sans-Serif" font-size="10.00">net/in6/stream/tls</text>
<text text-anchor="middle" x="943" y="-119.5" font-family="Helvetica,sans-Serif" font-size="10.00">/SocketClient.h</text>
</a>
</g>
</g>
<!-- Node19&#45;&gt;Node22 -->
<g id="edge21" class="edge">
<title>Node19&#45;&gt;Node22</title>
<path fill="none" stroke="midnightblue" d="M988.83,-172.31C978.63,-162.56 966.81,-151.26 957.73,-142.58"/>
<polygon fill="midnightblue" stroke="midnightblue" points="986.6,-175.02 996.25,-179.4 991.43,-169.96 986.6,-175.02"/>
</g>
<!-- Node24 -->
<g id="node24" class="node">
<title>Node24</title>
<g id="a_node24"><a xlink:href="net_2l2_2stream_2tls_2_socket_client_8h.html" target="_top" xlink:title=" ">
<polygon fill="white" stroke="black" points="1013,-112.5 1013,-142.5 1145,-142.5 1145,-112.5 1013,-112.5"/>
<text text-anchor="start" x="1021" y="-130.5" font-family="Helvetica,sans-Serif" font-size="10.00">net/l2/stream/tls/Socket</text>
<text text-anchor="middle" x="1079" y="-119.5" font-family="Helvetica,sans-Serif" font-size="10.00">Client.h</text>
</a>
</g>
</g>
<!-- Node19&#45;&gt;Node24 -->
<g id="edge23" class="edge">
<title>Node19&#45;&gt;Node24</title>
<path fill="none" stroke="midnightblue" d="M1033.17,-172.31C1043.37,-162.56 1055.19,-151.26 1064.27,-142.58"/>
<polygon fill="midnightblue" stroke="midnightblue" points="1030.57,-169.96 1025.75,-179.4 1035.4,-175.02 1030.57,-169.96"/>
</g>
<!-- Node25 -->
<g id="node25" class="node">
<title>Node25</title>
<g id="a_node25"><a xlink:href="net_2rc_2stream_2tls_2_socket_client_8h.html" target="_top" xlink:title=" ">
<polygon fill="white" stroke="black" points="1163,-112.5 1163,-142.5 1295,-142.5 1295,-112.5 1163,-112.5"/>
<text text-anchor="start" x="1171" y="-130.5" font-family="Helvetica,sans-Serif" font-size="10.00">net/rc/stream/tls/Socket</text>
<text text-anchor="middle" x="1229" y="-119.5" font-family="Helvetica,sans-Serif" font-size="10.00">Client.h</text>
</a>
</g>
</g>
<!-- Node19&#45;&gt;Node25 -->
<g id="edge24" class="edge">
<title>Node19&#45;&gt;Node25</title>
<path fill="none" stroke="midnightblue" d="M1067.75,-176.58C1103.16,-166.02 1148.2,-152.59 1181.67,-142.61"/>
<polygon fill="midnightblue" stroke="midnightblue" points="1066.62,-173.26 1058.03,-179.48 1068.62,-179.97 1066.62,-173.26"/>
</g>
<!-- Node27 -->
<g id="node27" class="node">
<title>Node27</title>
<g id="a_node27"><a xlink:href="net_2un_2stream_2tls_2_socket_client_8h.html" target="_top" xlink:title=" ">
<polygon fill="white" stroke="black" points="1313.5,-112.5 1313.5,-142.5 1448.5,-142.5 1448.5,-112.5 1313.5,-112.5"/>
<text text-anchor="start" x="1321.5" y="-130.5" font-family="Helvetica,sans-Serif" font-size="10.00">net/un/stream/tls/Socket</text>
<text text-anchor="middle" x="1381" y="-119.5" font-family="Helvetica,sans-Serif" font-size="10.00">Client.h</text>
</a>
</g>
</g>
<!-- Node19&#45;&gt;Node27 -->
<g id="edge26" class="edge">
<title>Node19&#45;&gt;Node27</title>
<path fill="none" stroke="midnightblue" d="M1076.12,-182.57C1135.53,-172.53 1225.73,-157.11 1304,-143 1307.08,-142.44 1310.23,-141.87 1313.4,-141.29"/>
<polygon fill="midnightblue" stroke="midnightblue" points="1075.4,-179.14 1066.13,-184.26 1076.57,-186.05 1075.4,-179.14"/>
</g>
<!-- Node21 -->
<g id="node21" class="node">
<title>Node21</title>
<g id="a_node21"><a xlink:href="tls_2in_2_client_8h.html" target="_top" xlink:title=" ">
<polygon fill="white" stroke="black" points="741.5,-56.5 741.5,-75.5 868.5,-75.5 868.5,-56.5 741.5,-56.5"/>
<text text-anchor="middle" x="805" y="-63.5" font-family="Helvetica,sans-Serif" font-size="10.00">web/http/tls/in/Client.h</text>
</a>
</g>
</g>
<!-- Node20&#45;&gt;Node21 -->
<g id="edge20" class="edge">
<title>Node20&#45;&gt;Node21</title>
<path fill="none" stroke="midnightblue" d="M806.19,-102.29C805.87,-92.86 805.53,-82.65 805.29,-75.66"/>
<polygon fill="midnightblue" stroke="midnightblue" points="802.69,-102.52 806.53,-112.4 809.69,-102.29 802.69,-102.52"/>
</g>
<!-- Node23 -->
<g id="node23" class="node">
<title>Node23</title>
<g id="a_node23"><a xlink:href="tls_2in6_2_client_8h.html" target="_top" xlink:title=" ">
<polygon fill="white" stroke="black" points="886.5,-56.5 886.5,-75.5 1019.5,-75.5 1019.5,-56.5 886.5,-56.5"/>
<text text-anchor="middle" x="953" y="-63.5" font-family="Helvetica,sans-Serif" font-size="10.00">web/http/tls/in6/Client.h</text>
</a>
</g>
</g>
<!-- Node22&#45;&gt;Node23 -->
<g id="edge22" class="edge">
<title>Node22&#45;&gt;Node23</title>
<path fill="none" stroke="midnightblue" d="M947.07,-102.29C948.65,-92.86 950.37,-82.65 951.54,-75.66"/>
<polygon fill="midnightblue" stroke="midnightblue" points="943.58,-101.96 945.37,-112.4 950.48,-103.12 943.58,-101.96"/>
</g>
<!-- Node26 -->
<g id="node26" class="node">
<title>Node26</title>
<g id="a_node26"><a xlink:href="tls_2rc_2_client_8h.html" target="_top" xlink:title=" ">
<polygon fill="white" stroke="black" points="1165.5,-56.5 1165.5,-75.5 1292.5,-75.5 1292.5,-56.5 1165.5,-56.5"/>
<text text-anchor="middle" x="1229" y="-63.5" font-family="Helvetica,sans-Serif" font-size="10.00">web/http/tls/rc/Client.h</text>
</a>
</g>
</g>
<!-- Node25&#45;&gt;Node26 -->
<g id="edge25" class="edge">
<title>Node25&#45;&gt;Node26</title>
<path fill="none" stroke="midnightblue" d="M1229,-102.29C1229,-92.86 1229,-82.65 1229,-75.66"/>
<polygon fill="midnightblue" stroke="midnightblue" points="1225.5,-102.4 1229,-112.4 1232.5,-102.4 1225.5,-102.4"/>
</g>
<!-- Node28 -->
<g id="node28" class="node">
<title>Node28</title>
<g id="a_node28"><a xlink:href="tls_2un_2_client_8h.html" target="_top" xlink:title=" ">
<polygon fill="white" stroke="black" points="1316,-56.5 1316,-75.5 1446,-75.5 1446,-56.5 1316,-56.5"/>
<text text-anchor="middle" x="1381" y="-63.5" font-family="Helvetica,sans-Serif" font-size="10.00">web/http/tls/un/Client.h</text>
</a>
</g>
</g>
<!-- Node27&#45;&gt;Node28 -->
<g id="edge27" class="edge">
<title>Node27&#45;&gt;Node28</title>
<path fill="none" stroke="midnightblue" d="M1381,-102.29C1381,-92.86 1381,-82.65 1381,-75.66"/>
<polygon fill="midnightblue" stroke="midnightblue" points="1377.5,-102.4 1381,-112.4 1384.5,-102.4 1377.5,-102.4"/>
</g>
</g>
</svg>
