<?xml version="1.0" encoding="UTF-8" standalone="no"?>
<!DOCTYPE svg PUBLIC "-//W3C//DTD SVG 1.1//EN"
 "http://www.w3.org/Graphics/SVG/1.1/DTD/svg11.dtd">
<!-- Generated by graphviz version 2.43.0 (0)
 -->
<!-- Title: web/http/tls/un/Client.h Pages: 1 -->
<svg width="2301pt" height="676pt"
 viewBox="0.00 0.00 2301.00 676.00" xmlns="http://www.w3.org/2000/svg" xmlns:xlink="http://www.w3.org/1999/xlink">
<g id="graph0" class="graph" transform="scale(1 1) rotate(0) translate(4 672)">
<title>web/http/tls/un/Client.h</title>
<polygon fill="white" stroke="transparent" points="-4,4 -4,-672 2297,-672 2297,4 -4,4"/>
<!-- Node1 -->
<g id="node1" class="node">
<title>Node1</title>
<g id="a_node1"><a xlink:title=" ">
<polygon fill="#bfbfbf" stroke="black" points="1029.5,-648.5 1029.5,-667.5 1159.5,-667.5 1159.5,-648.5 1029.5,-648.5"/>
<text text-anchor="middle" x="1094.5" y="-655.5" font-family="Helvetica,sans-Serif" font-size="10.00">web/http/tls/un/Client.h</text>
</a>
</g>
</g>
<!-- Node2 -->
<g id="node2" class="node">
<title>Node2</title>
<g id="a_node2"><a xlink:href="net_2un_2stream_2tls_2_socket_client_8h.html" target="_top" xlink:title=" ">
<polygon fill="white" stroke="black" points="952,-581.5 952,-611.5 1087,-611.5 1087,-581.5 952,-581.5"/>
<text text-anchor="start" x="960" y="-599.5" font-family="Helvetica,sans-Serif" font-size="10.00">net/un/stream/tls/Socket</text>
<text text-anchor="middle" x="1019.5" y="-588.5" font-family="Helvetica,sans-Serif" font-size="10.00">Client.h</text>
</a>
</g>
</g>
<!-- Node1&#45;&gt;Node2 -->
<g id="edge1" class="edge">
<title>Node1&#45;&gt;Node2</title>
<path fill="none" stroke="midnightblue" d="M1083.75,-648.48C1073.69,-640.49 1058.27,-628.25 1045.05,-617.77"/>
<polygon fill="midnightblue" stroke="midnightblue" points="1047.19,-615 1037.18,-611.52 1042.83,-620.48 1047.19,-615"/>
</g>
<!-- Node39 -->
<g id="node39" class="node">
<title>Node39</title>
<g id="a_node39"><a xlink:href="client_2_client_8h.html" target="_top" xlink:title=" ">
<polygon fill="white" stroke="black" points="1419.5,-587 1419.5,-606 1549.5,-606 1549.5,-587 1419.5,-587"/>
<text text-anchor="middle" x="1484.5" y="-594" font-family="Helvetica,sans-Serif" font-size="10.00">web/http/client/Client.h</text>
</a>
</g>
</g>
<!-- Node1&#45;&gt;Node39 -->
<g id="edge50" class="edge">
<title>Node1&#45;&gt;Node39</title>
<path fill="none" stroke="midnightblue" d="M1150.38,-648.48C1221.19,-637.67 1343.06,-619.08 1418.41,-607.58"/>
<polygon fill="midnightblue" stroke="midnightblue" points="1419.37,-610.98 1428.73,-606.01 1418.31,-604.06 1419.37,-610.98"/>
</g>
<!-- Node3 -->
<g id="node3" class="node">
<title>Node3</title>
<g id="a_node3"><a xlink:href="core_2socket_2stream_2tls_2_socket_client_8h.html" target="_top" xlink:title=" ">
<polygon fill="white" stroke="black" points="624.5,-514.5 624.5,-544.5 734.5,-544.5 734.5,-514.5 624.5,-514.5"/>
<text text-anchor="start" x="632.5" y="-532.5" font-family="Helvetica,sans-Serif" font-size="10.00">core/socket/stream</text>
<text text-anchor="middle" x="679.5" y="-521.5" font-family="Helvetica,sans-Serif" font-size="10.00">/tls/SocketClient.h</text>
</a>
</g>
</g>
<!-- Node2&#45;&gt;Node3 -->
<g id="edge2" class="edge">
<title>Node2&#45;&gt;Node3</title>
<path fill="none" stroke="midnightblue" d="M951.92,-582.58C891.69,-571.07 804.11,-554.32 744.64,-542.95"/>
<polygon fill="midnightblue" stroke="midnightblue" points="745.09,-539.48 734.61,-541.04 743.77,-546.35 745.09,-539.48"/>
</g>
<!-- Node23 -->
<g id="node23" class="node">
<title>Node23</title>
<g id="a_node23"><a xlink:href="un_2stream_2_client_socket_8h.html" target="_top" xlink:title=" ">
<polygon fill="white" stroke="black" points="858.5,-520 858.5,-539 1016.5,-539 1016.5,-520 858.5,-520"/>
<text text-anchor="middle" x="937.5" y="-527" font-family="Helvetica,sans-Serif" font-size="10.00">net/un/stream/ClientSocket.h</text>
</a>
</g>
</g>
<!-- Node2&#45;&gt;Node23 -->
<g id="edge30" class="edge">
<title>Node2&#45;&gt;Node23</title>
<path fill="none" stroke="midnightblue" d="M1001.71,-581.4C988.42,-570.86 970.27,-556.48 956.66,-545.69"/>
<polygon fill="midnightblue" stroke="midnightblue" points="958.48,-542.66 948.47,-539.19 954.13,-548.15 958.48,-542.66"/>
</g>
<!-- Node30 -->
<g id="node30" class="node">
<title>Node30</title>
<g id="a_node30"><a xlink:href="un_2stream_2tls_2config_2_config_socket_client_8h.html" target="_top" xlink:title=" ">
<polygon fill="white" stroke="black" points="1035,-514.5 1035,-544.5 1168,-544.5 1168,-514.5 1035,-514.5"/>
<text text-anchor="start" x="1043" y="-532.5" font-family="Helvetica,sans-Serif" font-size="10.00">net/un/stream/tls/config</text>
<text text-anchor="middle" x="1101.5" y="-521.5" font-family="Helvetica,sans-Serif" font-size="10.00">/ConfigSocketClient.h</text>
</a>
</g>
</g>
<!-- Node2&#45;&gt;Node30 -->
<g id="edge37" class="edge">
<title>Node2&#45;&gt;Node30</title>
<path fill="none" stroke="midnightblue" d="M1037.29,-581.4C1048.58,-572.45 1063.35,-560.74 1075.89,-550.8"/>
<polygon fill="midnightblue" stroke="midnightblue" points="1078.08,-553.53 1083.74,-544.58 1073.73,-548.05 1078.08,-553.53"/>
</g>
<!-- Node4 -->
<g id="node4" class="node">
<title>Node4</title>
<g id="a_node4"><a xlink:href="core_2socket_2stream_2_socket_client_8h.html" target="_top" xlink:title=" ">
<polygon fill="white" stroke="black" points="488.5,-447.5 488.5,-477.5 598.5,-477.5 598.5,-447.5 488.5,-447.5"/>
<text text-anchor="start" x="496.5" y="-465.5" font-family="Helvetica,sans-Serif" font-size="10.00">core/socket/stream</text>
<text text-anchor="middle" x="543.5" y="-454.5" font-family="Helvetica,sans-Serif" font-size="10.00">/SocketClient.h</text>
</a>
</g>
</g>
<!-- Node3&#45;&gt;Node4 -->
<g id="edge3" class="edge">
<title>Node3&#45;&gt;Node4</title>
<path fill="none" stroke="midnightblue" d="M649.99,-514.4C630.12,-504.9 603.71,-492.28 582.16,-481.98"/>
<polygon fill="midnightblue" stroke="midnightblue" points="583.48,-478.73 572.95,-477.58 580.47,-485.05 583.48,-478.73"/>
</g>
<!-- Node5 -->
<g id="node5" class="node">
<title>Node5</title>
<g id="a_node5"><a xlink:href="tls_2_socket_connector_8h.html" target="_top" xlink:title=" ">
<polygon fill="white" stroke="black" points="617,-447.5 617,-477.5 742,-477.5 742,-447.5 617,-447.5"/>
<text text-anchor="start" x="625" y="-465.5" font-family="Helvetica,sans-Serif" font-size="10.00">core/socket/stream</text>
<text text-anchor="middle" x="679.5" y="-454.5" font-family="Helvetica,sans-Serif" font-size="10.00">/tls/SocketConnector.h</text>
</a>
</g>
</g>
<!-- Node3&#45;&gt;Node5 -->
<g id="edge4" class="edge">
<title>Node3&#45;&gt;Node5</title>
<path fill="none" stroke="midnightblue" d="M679.5,-514.4C679.5,-506.64 679.5,-496.81 679.5,-487.86"/>
<polygon fill="midnightblue" stroke="midnightblue" points="683,-487.58 679.5,-477.58 676,-487.58 683,-487.58"/>
</g>
<!-- Node6 -->
<g id="node6" class="node">
<title>Node6</title>
<g id="a_node6"><a xlink:href="_socket_connector_8h.html" target="_top" xlink:title=" ">
<polygon fill="white" stroke="black" points="707.5,-246.5 707.5,-276.5 817.5,-276.5 817.5,-246.5 707.5,-246.5"/>
<text text-anchor="start" x="715.5" y="-264.5" font-family="Helvetica,sans-Serif" font-size="10.00">core/socket/stream</text>
<text text-anchor="middle" x="762.5" y="-253.5" font-family="Helvetica,sans-Serif" font-size="10.00">/SocketConnector.h</text>
</a>
</g>
</g>
<!-- Node5&#45;&gt;Node6 -->
<g id="edge5" class="edge">
<title>Node5&#45;&gt;Node6</title>
<path fill="none" stroke="midnightblue" d="M685.47,-447.19C699.62,-413.27 735.3,-327.72 752.68,-286.04"/>
<polygon fill="midnightblue" stroke="midnightblue" points="755.97,-287.26 756.58,-276.68 749.51,-284.56 755.97,-287.26"/>
</g>
<!-- Node12 -->
<g id="node12" class="node">
<title>Node12</title>
<g id="a_node12"><a xlink:href="stream_2tls_2_socket_connection_8h.html" target="_top" xlink:title=" ">
<polygon fill="white" stroke="black" points="331,-380.5 331,-410.5 462,-410.5 462,-380.5 331,-380.5"/>
<text text-anchor="start" x="339" y="-398.5" font-family="Helvetica,sans-Serif" font-size="10.00">core/socket/stream</text>
<text text-anchor="middle" x="396.5" y="-387.5" font-family="Helvetica,sans-Serif" font-size="10.00">/tls/SocketConnection.h</text>
</a>
</g>
</g>
<!-- Node5&#45;&gt;Node12 -->
<g id="edge12" class="edge">
<title>Node5&#45;&gt;Node12</title>
<path fill="none" stroke="midnightblue" d="M618.44,-447.48C574.24,-437.32 514.35,-423.57 467.93,-412.91"/>
<polygon fill="midnightblue" stroke="midnightblue" points="468.47,-409.44 457.94,-410.61 466.9,-416.26 468.47,-409.44"/>
</g>
<!-- Node7 -->
<g id="node7" class="node">
<title>Node7</title>
<g id="a_node7"><a xlink:href="_connect_event_receiver_8h.html" target="_top" xlink:title=" ">
<polygon fill="white" stroke="black" points="595,-179.5 595,-209.5 734,-209.5 734,-179.5 595,-179.5"/>
<text text-anchor="start" x="603" y="-197.5" font-family="Helvetica,sans-Serif" font-size="10.00">core/eventreceiver</text>
<text text-anchor="middle" x="664.5" y="-186.5" font-family="Helvetica,sans-Serif" font-size="10.00">/ConnectEventReceiver.h</text>
</a>
</g>
</g>
<!-- Node6&#45;&gt;Node7 -->
<g id="edge6" class="edge">
<title>Node6&#45;&gt;Node7</title>
<path fill="none" stroke="midnightblue" d="M741.24,-246.4C727.49,-237.28 709.41,-225.29 694.26,-215.24"/>
<polygon fill="midnightblue" stroke="midnightblue" points="695.99,-212.19 685.72,-209.58 692.12,-218.02 695.99,-212.19"/>
</g>
<!-- Node11 -->
<g id="node11" class="node">
<title>Node11</title>
<g id="a_node11"><a xlink:href="_init_connect_event_receiver_8h.html" target="_top" xlink:title=" ">
<polygon fill="white" stroke="black" points="668,-112.5 668,-142.5 823,-142.5 823,-112.5 668,-112.5"/>
<text text-anchor="start" x="676" y="-130.5" font-family="Helvetica,sans-Serif" font-size="10.00">core/eventreceiver</text>
<text text-anchor="middle" x="745.5" y="-119.5" font-family="Helvetica,sans-Serif" font-size="10.00">/InitConnectEventReceiver.h</text>
</a>
</g>
</g>
<!-- Node6&#45;&gt;Node11 -->
<g id="edge10" class="edge">
<title>Node6&#45;&gt;Node11</title>
<path fill="none" stroke="midnightblue" d="M760.68,-246.37C757.79,-223.94 752.12,-179.92 748.59,-152.49"/>
<polygon fill="midnightblue" stroke="midnightblue" points="752.05,-152 747.31,-142.52 745.11,-152.89 752.05,-152"/>
</g>
<!-- Node8 -->
<g id="node8" class="node">
<title>Node8</title>
<g id="a_node8"><a xlink:href="_descriptor_event_receiver_8h.html" target="_top" xlink:title=" ">
<polygon fill="white" stroke="black" points="462.5,-118 462.5,-137 632.5,-137 632.5,-118 462.5,-118"/>
<text text-anchor="middle" x="547.5" y="-125" font-family="Helvetica,sans-Serif" font-size="10.00">core/DescriptorEventReceiver.h</text>
</a>
</g>
</g>
<!-- Node7&#45;&gt;Node8 -->
<g id="edge7" class="edge">
<title>Node7&#45;&gt;Node8</title>
<path fill="none" stroke="midnightblue" d="M639.11,-179.4C619.13,-168.29 591.46,-152.92 571.77,-141.98"/>
<polygon fill="midnightblue" stroke="midnightblue" points="573.25,-138.8 562.81,-137.01 569.85,-144.92 573.25,-138.8"/>
</g>
<!-- Node9 -->
<g id="node9" class="node">
<title>Node9</title>
<g id="a_node9"><a xlink:href="_event_receiver_8h.html" target="_top" xlink:title=" ">
<polygon fill="white" stroke="black" points="589.5,-56.5 589.5,-75.5 685.5,-75.5 685.5,-56.5 589.5,-56.5"/>
<text text-anchor="middle" x="637.5" y="-63.5" font-family="Helvetica,sans-Serif" font-size="10.00">EventReceiver.h</text>
</a>
</g>
</g>
<!-- Node8&#45;&gt;Node9 -->
<g id="edge8" class="edge">
<title>Node8&#45;&gt;Node9</title>
<path fill="none" stroke="midnightblue" d="M560.39,-117.98C574.96,-108.34 598.9,-92.52 616.25,-81.05"/>
<polygon fill="midnightblue" stroke="midnightblue" points="618.22,-83.94 624.63,-75.51 614.36,-78.1 618.22,-83.94"/>
</g>
<!-- Node10 -->
<g id="node10" class="node">
<title>Node10</title>
<g id="a_node10"><a xlink:href="_event_8h.html" target="_top" xlink:title=" ">
<polygon fill="white" stroke="black" points="599,-0.5 599,-19.5 676,-19.5 676,-0.5 599,-0.5"/>
<text text-anchor="middle" x="637.5" y="-7.5" font-family="Helvetica,sans-Serif" font-size="10.00">core/Event.h</text>
</a>
</g>
</g>
<!-- Node9&#45;&gt;Node10 -->
<g id="edge9" class="edge">
<title>Node9&#45;&gt;Node10</title>
<path fill="none" stroke="midnightblue" d="M637.5,-56.08C637.5,-49.01 637.5,-38.86 637.5,-29.99"/>
<polygon fill="midnightblue" stroke="midnightblue" points="641,-29.75 637.5,-19.75 634,-29.75 641,-29.75"/>
</g>
<!-- Node11&#45;&gt;Node9 -->
<g id="edge11" class="edge">
<title>Node11&#45;&gt;Node9</title>
<path fill="none" stroke="midnightblue" d="M719.91,-112.4C702.43,-102.77 679.41,-90.09 662.14,-80.58"/>
<polygon fill="midnightblue" stroke="midnightblue" points="663.66,-77.42 653.21,-75.66 660.28,-83.55 663.66,-77.42"/>
</g>
<!-- Node13 -->
<g id="node13" class="node">
<title>Node13</title>
<g id="a_node13"><a xlink:href="stream_2_socket_connection_8h.html" target="_top" xlink:title=" ">
<polygon fill="white" stroke="black" points="88.5,-313.5 88.5,-343.5 204.5,-343.5 204.5,-313.5 88.5,-313.5"/>
<text text-anchor="start" x="96.5" y="-331.5" font-family="Helvetica,sans-Serif" font-size="10.00">core/socket/stream</text>
<text text-anchor="middle" x="146.5" y="-320.5" font-family="Helvetica,sans-Serif" font-size="10.00">/SocketConnection.h</text>
</a>
</g>
</g>
<!-- Node12&#45;&gt;Node13 -->
<g id="edge13" class="edge">
<title>Node12&#45;&gt;Node13</title>
<path fill="none" stroke="midnightblue" d="M342.56,-380.48C303.84,-370.41 251.5,-356.8 210.63,-346.17"/>
<polygon fill="midnightblue" stroke="midnightblue" points="211.33,-342.74 200.77,-343.61 209.57,-349.51 211.33,-342.74"/>
</g>
<!-- Node15 -->
<g id="node15" class="node">
<title>Node15</title>
<g id="a_node15"><a xlink:href="tls_2_socket_reader_8h.html" target="_top" xlink:title=" ">
<polygon fill="white" stroke="black" points="448.5,-313.5 448.5,-343.5 558.5,-343.5 558.5,-313.5 448.5,-313.5"/>
<text text-anchor="start" x="456.5" y="-331.5" font-family="Helvetica,sans-Serif" font-size="10.00">core/socket/stream</text>
<text text-anchor="middle" x="503.5" y="-320.5" font-family="Helvetica,sans-Serif" font-size="10.00">/tls/SocketReader.h</text>
</a>
</g>
</g>
<!-- Node12&#45;&gt;Node15 -->
<g id="edge15" class="edge">
<title>Node12&#45;&gt;Node15</title>
<path fill="none" stroke="midnightblue" d="M419.72,-380.4C434.86,-371.2 454.83,-359.07 471.47,-348.95"/>
<polygon fill="midnightblue" stroke="midnightblue" points="473.6,-351.76 480.33,-343.58 469.96,-345.78 473.6,-351.76"/>
</g>
<!-- Node20 -->
<g id="node20" class="node">
<title>Node20</title>
<g id="a_node20"><a xlink:href="tls_2_socket_writer_8h.html" target="_top" xlink:title=" ">
<polygon fill="white" stroke="black" points="258.5,-313.5 258.5,-343.5 368.5,-343.5 368.5,-313.5 258.5,-313.5"/>
<text text-anchor="start" x="266.5" y="-331.5" font-family="Helvetica,sans-Serif" font-size="10.00">core/socket/stream</text>
<text text-anchor="middle" x="313.5" y="-320.5" font-family="Helvetica,sans-Serif" font-size="10.00">/tls/SocketWriter.h</text>
</a>
</g>
</g>
<!-- Node12&#45;&gt;Node20 -->
<g id="edge23" class="edge">
<title>Node12&#45;&gt;Node20</title>
<path fill="none" stroke="midnightblue" d="M378.49,-380.4C367.07,-371.45 352.11,-359.74 339.42,-349.8"/>
<polygon fill="midnightblue" stroke="midnightblue" points="341.51,-346.99 331.47,-343.58 337.19,-352.5 341.51,-346.99"/>
</g>
<!-- Node22 -->
<g id="node22" class="node">
<title>Node22</title>
<g id="a_node22"><a xlink:href="_t_l_s_shutdown_8h.html" target="_top" xlink:title=" ">
<polygon fill="white" stroke="black" points="317.5,-246.5 317.5,-276.5 427.5,-276.5 427.5,-246.5 317.5,-246.5"/>
<text text-anchor="start" x="325.5" y="-264.5" font-family="Helvetica,sans-Serif" font-size="10.00">core/socket/stream</text>
<text text-anchor="middle" x="372.5" y="-253.5" font-family="Helvetica,sans-Serif" font-size="10.00">/tls/TLSShutdown.h</text>
</a>
</g>
</g>
<!-- Node12&#45;&gt;Node22 -->
<g id="edge27" class="edge">
<title>Node12&#45;&gt;Node22</title>
<path fill="none" stroke="midnightblue" d="M393.93,-380.37C389.85,-357.94 381.85,-313.92 376.86,-286.49"/>
<polygon fill="midnightblue" stroke="midnightblue" points="380.28,-285.74 375.05,-276.52 373.4,-286.99 380.28,-285.74"/>
</g>
<!-- Node14 -->
<g id="node14" class="node">
<title>Node14</title>
<g id="a_node14"><a xlink:href="_socket_connection_8h.html" target="_top" xlink:title=" ">
<polygon fill="white" stroke="black" points="0,-252 0,-271 171,-271 171,-252 0,-252"/>
<text text-anchor="middle" x="85.5" y="-259" font-family="Helvetica,sans-Serif" font-size="10.00">core/socket/SocketConnection.h</text>
</a>
</g>
</g>
<!-- Node13&#45;&gt;Node14 -->
<g id="edge14" class="edge">
<title>Node13&#45;&gt;Node14</title>
<path fill="none" stroke="midnightblue" d="M133.26,-313.4C123.66,-303.16 110.65,-289.3 100.63,-278.62"/>
<polygon fill="midnightblue" stroke="midnightblue" points="103.05,-276.09 93.66,-271.19 97.95,-280.88 103.05,-276.09"/>
</g>
<!-- Node16 -->
<g id="node16" class="node">
<title>Node16</title>
<g id="a_node16"><a xlink:href="_socket_reader_8h.html" target="_top" xlink:title=" ">
<polygon fill="white" stroke="black" points="579.5,-246.5 579.5,-276.5 689.5,-276.5 689.5,-246.5 579.5,-246.5"/>
<text text-anchor="start" x="587.5" y="-264.5" font-family="Helvetica,sans-Serif" font-size="10.00">core/socket/stream</text>
<text text-anchor="middle" x="634.5" y="-253.5" font-family="Helvetica,sans-Serif" font-size="10.00">/SocketReader.h</text>
</a>
</g>
</g>
<!-- Node15&#45;&gt;Node16 -->
<g id="edge16" class="edge">
<title>Node15&#45;&gt;Node16</title>
<path fill="none" stroke="midnightblue" d="M531.93,-313.4C550.98,-303.94 576.28,-291.39 596.98,-281.12"/>
<polygon fill="midnightblue" stroke="midnightblue" points="598.73,-284.16 606.13,-276.58 595.62,-277.89 598.73,-284.16"/>
</g>
<!-- Node18 -->
<g id="node18" class="node">
<title>Node18</title>
<g id="a_node18"><a xlink:href="_t_l_s_handshake_8h.html" target="_top" xlink:title=" ">
<polygon fill="white" stroke="black" points="446,-246.5 446,-276.5 561,-276.5 561,-246.5 446,-246.5"/>
<text text-anchor="start" x="454" y="-264.5" font-family="Helvetica,sans-Serif" font-size="10.00">core/socket/stream</text>
<text text-anchor="middle" x="503.5" y="-253.5" font-family="Helvetica,sans-Serif" font-size="10.00">/tls/TLSHandshake.h</text>
</a>
</g>
</g>
<!-- Node15&#45;&gt;Node18 -->
<g id="edge19" class="edge">
<title>Node15&#45;&gt;Node18</title>
<path fill="none" stroke="midnightblue" d="M503.5,-313.4C503.5,-305.64 503.5,-295.81 503.5,-286.86"/>
<polygon fill="midnightblue" stroke="midnightblue" points="507,-286.58 503.5,-276.58 500,-286.58 507,-286.58"/>
</g>
<!-- Node17 -->
<g id="node17" class="node">
<title>Node17</title>
<g id="a_node17"><a xlink:href="_read_event_receiver_8h.html" target="_top" xlink:title=" ">
<polygon fill="white" stroke="black" points="452.5,-179.5 452.5,-209.5 576.5,-209.5 576.5,-179.5 452.5,-179.5"/>
<text text-anchor="start" x="460.5" y="-197.5" font-family="Helvetica,sans-Serif" font-size="10.00">core/eventreceiver</text>
<text text-anchor="middle" x="514.5" y="-186.5" font-family="Helvetica,sans-Serif" font-size="10.00">/ReadEventReceiver.h</text>
</a>
</g>
</g>
<!-- Node16&#45;&gt;Node17 -->
<g id="edge17" class="edge">
<title>Node16&#45;&gt;Node17</title>
<path fill="none" stroke="midnightblue" d="M608.46,-246.4C591.16,-237.03 568.25,-224.62 549.38,-214.39"/>
<polygon fill="midnightblue" stroke="midnightblue" points="550.95,-211.26 540.49,-209.58 547.61,-217.42 550.95,-211.26"/>
</g>
<!-- Node17&#45;&gt;Node8 -->
<g id="edge18" class="edge">
<title>Node17&#45;&gt;Node8</title>
<path fill="none" stroke="midnightblue" d="M521.66,-179.4C526.6,-169.66 533.21,-156.65 538.51,-146.21"/>
<polygon fill="midnightblue" stroke="midnightblue" points="541.68,-147.7 543.09,-137.19 535.44,-144.53 541.68,-147.7"/>
</g>
<!-- Node18&#45;&gt;Node17 -->
<g id="edge20" class="edge">
<title>Node18&#45;&gt;Node17</title>
<path fill="none" stroke="midnightblue" d="M505.89,-246.4C507.21,-238.56 508.9,-228.6 510.43,-219.57"/>
<polygon fill="midnightblue" stroke="midnightblue" points="513.9,-220.02 512.12,-209.58 507,-218.85 513.9,-220.02"/>
</g>
<!-- Node19 -->
<g id="node19" class="node">
<title>Node19</title>
<g id="a_node19"><a xlink:href="_write_event_receiver_8h.html" target="_top" xlink:title=" ">
<polygon fill="white" stroke="black" points="309,-179.5 309,-209.5 434,-209.5 434,-179.5 309,-179.5"/>
<text text-anchor="start" x="317" y="-197.5" font-family="Helvetica,sans-Serif" font-size="10.00">core/eventreceiver</text>
<text text-anchor="middle" x="371.5" y="-186.5" font-family="Helvetica,sans-Serif" font-size="10.00">/WriteEventReceiver.h</text>
</a>
</g>
</g>
<!-- Node18&#45;&gt;Node19 -->
<g id="edge21" class="edge">
<title>Node18&#45;&gt;Node19</title>
<path fill="none" stroke="midnightblue" d="M474.86,-246.4C455.66,-236.94 430.17,-224.39 409.31,-214.12"/>
<polygon fill="midnightblue" stroke="midnightblue" points="410.6,-210.85 400.09,-209.58 407.51,-217.13 410.6,-210.85"/>
</g>
<!-- Node19&#45;&gt;Node8 -->
<g id="edge22" class="edge">
<title>Node19&#45;&gt;Node8</title>
<path fill="none" stroke="midnightblue" d="M409.69,-179.4C441.12,-167.79 485.18,-151.51 514.96,-140.52"/>
<polygon fill="midnightblue" stroke="midnightblue" points="516.3,-143.75 524.47,-137.01 513.87,-137.19 516.3,-143.75"/>
</g>
<!-- Node20&#45;&gt;Node18 -->
<g id="edge26" class="edge">
<title>Node20&#45;&gt;Node18</title>
<path fill="none" stroke="midnightblue" d="M354.73,-313.4C383.48,-303.56 422.04,-290.37 452.7,-279.88"/>
<polygon fill="midnightblue" stroke="midnightblue" points="454.02,-283.13 462.35,-276.58 451.76,-276.5 454.02,-283.13"/>
</g>
<!-- Node21 -->
<g id="node21" class="node">
<title>Node21</title>
<g id="a_node21"><a xlink:href="_socket_writer_8h.html" target="_top" xlink:title=" ">
<polygon fill="white" stroke="black" points="189.5,-246.5 189.5,-276.5 299.5,-276.5 299.5,-246.5 189.5,-246.5"/>
<text text-anchor="start" x="197.5" y="-264.5" font-family="Helvetica,sans-Serif" font-size="10.00">core/socket/stream</text>
<text text-anchor="middle" x="244.5" y="-253.5" font-family="Helvetica,sans-Serif" font-size="10.00">/SocketWriter.h</text>
</a>
</g>
</g>
<!-- Node20&#45;&gt;Node21 -->
<g id="edge24" class="edge">
<title>Node20&#45;&gt;Node21</title>
<path fill="none" stroke="midnightblue" d="M298.53,-313.4C289.31,-304.71 277.31,-293.4 266.96,-283.66"/>
<polygon fill="midnightblue" stroke="midnightblue" points="269.12,-280.89 259.44,-276.58 264.32,-285.98 269.12,-280.89"/>
</g>
<!-- Node21&#45;&gt;Node19 -->
<g id="edge25" class="edge">
<title>Node21&#45;&gt;Node19</title>
<path fill="none" stroke="midnightblue" d="M272.06,-246.4C290.45,-236.98 314.83,-224.5 334.85,-214.26"/>
<polygon fill="midnightblue" stroke="midnightblue" points="336.69,-217.25 344,-209.58 333.5,-211.02 336.69,-217.25"/>
</g>
<!-- Node22&#45;&gt;Node17 -->
<g id="edge28" class="edge">
<title>Node22&#45;&gt;Node17</title>
<path fill="none" stroke="midnightblue" d="M403.31,-246.4C424.15,-236.86 451.88,-224.16 474.43,-213.84"/>
<polygon fill="midnightblue" stroke="midnightblue" points="476.11,-216.92 483.75,-209.58 473.2,-210.56 476.11,-216.92"/>
</g>
<!-- Node22&#45;&gt;Node19 -->
<g id="edge29" class="edge">
<title>Node22&#45;&gt;Node19</title>
<path fill="none" stroke="midnightblue" d="M372.28,-246.4C372.16,-238.64 372.01,-228.81 371.87,-219.86"/>
<polygon fill="midnightblue" stroke="midnightblue" points="375.37,-219.52 371.72,-209.58 368.37,-219.63 375.37,-219.52"/>
</g>
<!-- Node24 -->
<g id="node24" class="node">
<title>Node24</title>
<g id="a_node24"><a xlink:href="_client_socket_8h.html" target="_top" xlink:title=" ">
<polygon fill="white" stroke="black" points="760,-453 760,-472 865,-472 865,-453 760,-453"/>
<text text-anchor="middle" x="812.5" y="-460" font-family="Helvetica,sans-Serif" font-size="10.00">net/ClientSocket.h</text>
</a>
</g>
</g>
<!-- Node23&#45;&gt;Node24 -->
<g id="edge31" class="edge">
<title>Node23&#45;&gt;Node24</title>
<path fill="none" stroke="midnightblue" d="M920.9,-519.87C899.79,-508.89 863.12,-489.82 838.34,-476.94"/>
<polygon fill="midnightblue" stroke="midnightblue" points="839.65,-473.68 829.17,-472.17 836.43,-479.89 839.65,-473.68"/>
</g>
<!-- Node25 -->
<g id="node25" class="node">
<title>Node25</title>
<g id="a_node25"><a xlink:href="net_2un_2stream_2socket_8h.html" target="_top" xlink:title=" ">
<polygon fill="white" stroke="black" points="883,-453 883,-472 1012,-472 1012,-453 883,-453"/>
<text text-anchor="middle" x="947.5" y="-460" font-family="Helvetica,sans-Serif" font-size="10.00">net/un/stream/Socket.h</text>
</a>
</g>
</g>
<!-- Node23&#45;&gt;Node25 -->
<g id="edge32" class="edge">
<title>Node23&#45;&gt;Node25</title>
<path fill="none" stroke="midnightblue" d="M938.85,-519.73C940.32,-510.18 942.71,-494.62 944.61,-482.28"/>
<polygon fill="midnightblue" stroke="midnightblue" points="948.11,-482.54 946.17,-472.13 941.19,-481.48 948.11,-482.54"/>
</g>
<!-- Node26 -->
<g id="node26" class="node">
<title>Node26</title>
<g id="a_node26"><a xlink:href="net_2socket_8h.html" target="_top" xlink:title=" ">
<polygon fill="white" stroke="black" points="808,-386 808,-405 885,-405 885,-386 808,-386"/>
<text text-anchor="middle" x="846.5" y="-393" font-family="Helvetica,sans-Serif" font-size="10.00">net/Socket.h</text>
</a>
</g>
</g>
<!-- Node25&#45;&gt;Node26 -->
<g id="edge33" class="edge">
<title>Node25&#45;&gt;Node26</title>
<path fill="none" stroke="midnightblue" d="M933.88,-452.73C917.07,-441.92 888.27,-423.38 868.36,-410.57"/>
<polygon fill="midnightblue" stroke="midnightblue" points="870.21,-407.6 859.91,-405.13 866.42,-413.48 870.21,-407.6"/>
</g>
<!-- Node28 -->
<g id="node28" class="node">
<title>Node28</title>
<g id="a_node28"><a xlink:href="un_2_socket_address_8h.html" target="_top" xlink:title=" ">
<polygon fill="white" stroke="black" points="882,-319 882,-338 1013,-338 1013,-319 882,-319"/>
<text text-anchor="middle" x="947.5" y="-326" font-family="Helvetica,sans-Serif" font-size="10.00">net/un/SocketAddress.h</text>
</a>
</g>
</g>
<!-- Node25&#45;&gt;Node28 -->
<g id="edge35" class="edge">
<title>Node25&#45;&gt;Node28</title>
<path fill="none" stroke="midnightblue" d="M947.5,-452.84C947.5,-431.67 947.5,-376.95 947.5,-348.03"/>
<polygon fill="midnightblue" stroke="midnightblue" points="951,-348.02 947.5,-338.02 944,-348.02 951,-348.02"/>
</g>
<!-- Node27 -->
<g id="node27" class="node">
<title>Node27</title>
<g id="a_node27"><a xlink:href="_descriptor_8h.html" target="_top" xlink:title=" ">
<polygon fill="white" stroke="black" points="763.5,-319 763.5,-338 863.5,-338 863.5,-319 763.5,-319"/>
<text text-anchor="middle" x="813.5" y="-326" font-family="Helvetica,sans-Serif" font-size="10.00">core/Descriptor.h</text>
</a>
</g>
</g>
<!-- Node26&#45;&gt;Node27 -->
<g id="edge34" class="edge">
<title>Node26&#45;&gt;Node27</title>
<path fill="none" stroke="midnightblue" d="M842.05,-385.73C837.05,-375.89 828.81,-359.66 822.47,-347.16"/>
<polygon fill="midnightblue" stroke="midnightblue" points="825.53,-345.46 817.88,-338.13 819.29,-348.63 825.53,-345.46"/>
</g>
<!-- Node29 -->
<g id="node29" class="node">
<title>Node29</title>
<g id="a_node29"><a xlink:href="_socket_address_8h.html" target="_top" xlink:title=" ">
<polygon fill="white" stroke="black" points="889.5,-252 889.5,-271 1005.5,-271 1005.5,-252 889.5,-252"/>
<text text-anchor="middle" x="947.5" y="-259" font-family="Helvetica,sans-Serif" font-size="10.00">net/SocketAddress.h</text>
</a>
</g>
</g>
<!-- Node28&#45;&gt;Node29 -->
<g id="edge36" class="edge">
<title>Node28&#45;&gt;Node29</title>
<path fill="none" stroke="midnightblue" d="M947.5,-318.73C947.5,-309.18 947.5,-293.62 947.5,-281.28"/>
<polygon fill="midnightblue" stroke="midnightblue" points="951,-281.13 947.5,-271.13 944,-281.13 951,-281.13"/>
</g>
<!-- Node31 -->
<g id="node31" class="node">
<title>Node31</title>
<g id="a_node31"><a xlink:href="_config_tls_8h.html" target="_top" xlink:title=" ">
<polygon fill="white" stroke="black" points="1035,-453 1035,-472 1158,-472 1158,-453 1035,-453"/>
<text text-anchor="middle" x="1096.5" y="-460" font-family="Helvetica,sans-Serif" font-size="10.00">net/config/ConfigTls.h</text>
</a>
</g>
</g>
<!-- Node30&#45;&gt;Node31 -->
<g id="edge38" class="edge">
<title>Node30&#45;&gt;Node31</title>
<path fill="none" stroke="midnightblue" d="M1100.42,-514.4C1099.69,-504.96 1098.73,-492.45 1097.94,-482.19"/>
<polygon fill="midnightblue" stroke="midnightblue" points="1101.43,-481.9 1097.17,-472.19 1094.45,-482.43 1101.43,-481.9"/>
</g>
<!-- Node33 -->
<g id="node33" class="node">
<title>Node33</title>
<g id="a_node33"><a xlink:href="un_2stream_2config_2_config_client_socket_8h.html" target="_top" xlink:title=" ">
<polygon fill="white" stroke="black" points="1260,-447.5 1260,-477.5 1381,-477.5 1381,-447.5 1260,-447.5"/>
<text text-anchor="start" x="1268" y="-465.5" font-family="Helvetica,sans-Serif" font-size="10.00">net/un/stream/config</text>
<text text-anchor="middle" x="1320.5" y="-454.5" font-family="Helvetica,sans-Serif" font-size="10.00">/ConfigClientSocket.h</text>
</a>
</g>
</g>
<!-- Node30&#45;&gt;Node33 -->
<g id="edge40" class="edge">
<title>Node30&#45;&gt;Node33</title>
<path fill="none" stroke="midnightblue" d="M1148.75,-514.48C1182.31,-504.51 1227.56,-491.09 1263.18,-480.51"/>
<polygon fill="midnightblue" stroke="midnightblue" points="1264.37,-483.81 1272.96,-477.61 1262.37,-477.1 1264.37,-483.81"/>
</g>
<!-- Node32 -->
<g id="node32" class="node">
<title>Node32</title>
<g id="a_node32"><a xlink:href="_config_base_8h.html" target="_top" xlink:title=" ">
<polygon fill="white" stroke="black" points="1333,-252 1333,-271 1466,-271 1466,-252 1333,-252"/>
<text text-anchor="middle" x="1399.5" y="-259" font-family="Helvetica,sans-Serif" font-size="10.00">net/config/ConfigBase.h</text>
</a>
</g>
</g>
<!-- Node31&#45;&gt;Node32 -->
<g id="edge39" class="edge">
<title>Node31&#45;&gt;Node32</title>
<path fill="none" stroke="midnightblue" d="M1087.16,-452.82C1071.54,-437.24 1043.46,-403.94 1060.5,-380 1119.82,-296.66 1242.54,-271.89 1322.91,-264.84"/>
<polygon fill="midnightblue" stroke="midnightblue" points="1323.29,-268.32 1332.98,-264.03 1322.73,-261.35 1323.29,-268.32"/>
</g>
<!-- Node34 -->
<g id="node34" class="node">
<title>Node34</title>
<g id="a_node34"><a xlink:href="_config_address_local_8h.html" target="_top" xlink:title=" ">
<polygon fill="white" stroke="black" points="1408,-380.5 1408,-410.5 1547,-410.5 1547,-380.5 1408,-380.5"/>
<text text-anchor="start" x="1416" y="-398.5" font-family="Helvetica,sans-Serif" font-size="10.00">net/config/ConfigAddress</text>
<text text-anchor="middle" x="1477.5" y="-387.5" font-family="Helvetica,sans-Serif" font-size="10.00">Local.h</text>
</a>
</g>
</g>
<!-- Node33&#45;&gt;Node34 -->
<g id="edge41" class="edge">
<title>Node33&#45;&gt;Node34</title>
<path fill="none" stroke="midnightblue" d="M1354.57,-447.4C1377.92,-437.73 1409.09,-424.82 1434.2,-414.43"/>
<polygon fill="midnightblue" stroke="midnightblue" points="1435.6,-417.64 1443.5,-410.58 1432.92,-411.17 1435.6,-417.64"/>
</g>
<!-- Node36 -->
<g id="node36" class="node">
<title>Node36</title>
<g id="a_node36"><a xlink:href="_config_address_remote_8h.html" target="_top" xlink:title=" ">
<polygon fill="white" stroke="black" points="1251,-380.5 1251,-410.5 1390,-410.5 1390,-380.5 1251,-380.5"/>
<text text-anchor="start" x="1259" y="-398.5" font-family="Helvetica,sans-Serif" font-size="10.00">net/config/ConfigAddress</text>
<text text-anchor="middle" x="1320.5" y="-387.5" font-family="Helvetica,sans-Serif" font-size="10.00">Remote.h</text>
</a>
</g>
</g>
<!-- Node33&#45;&gt;Node36 -->
<g id="edge44" class="edge">
<title>Node33&#45;&gt;Node36</title>
<path fill="none" stroke="midnightblue" d="M1320.5,-447.4C1320.5,-439.64 1320.5,-429.81 1320.5,-420.86"/>
<polygon fill="midnightblue" stroke="midnightblue" points="1324,-420.58 1320.5,-410.58 1317,-420.58 1324,-420.58"/>
</g>
<!-- Node37 -->
<g id="node37" class="node">
<title>Node37</title>
<g id="a_node37"><a xlink:href="_config_connection_8h.html" target="_top" xlink:title=" ">
<polygon fill="white" stroke="black" points="1565.5,-386 1565.5,-405 1729.5,-405 1729.5,-386 1565.5,-386"/>
<text text-anchor="middle" x="1647.5" y="-393" font-family="Helvetica,sans-Serif" font-size="10.00">net/config/ConfigConnection.h</text>
</a>
</g>
</g>
<!-- Node33&#45;&gt;Node37 -->
<g id="edge46" class="edge">
<title>Node33&#45;&gt;Node37</title>
<path fill="none" stroke="midnightblue" d="M1381.24,-449.43C1442.4,-437.27 1535.81,-418.7 1594.18,-407.1"/>
<polygon fill="midnightblue" stroke="midnightblue" points="1595.18,-410.47 1604.3,-405.09 1593.81,-403.6 1595.18,-410.47"/>
</g>
<!-- Node38 -->
<g id="node38" class="node">
<title>Node38</title>
<g id="a_node38"><a xlink:href="un_2config_2_config_address_8h.html" target="_top" xlink:title=" ">
<polygon fill="white" stroke="black" points="1070,-386 1070,-405 1233,-405 1233,-386 1070,-386"/>
<text text-anchor="middle" x="1151.5" y="-393" font-family="Helvetica,sans-Serif" font-size="10.00">net/un/config/ConfigAddress.h</text>
</a>
</g>
</g>
<!-- Node33&#45;&gt;Node38 -->
<g id="edge48" class="edge">
<title>Node33&#45;&gt;Node38</title>
<path fill="none" stroke="midnightblue" d="M1283.83,-447.4C1253.78,-435.84 1211.71,-419.66 1183.12,-408.66"/>
<polygon fill="midnightblue" stroke="midnightblue" points="1184.21,-405.33 1173.62,-405.01 1181.7,-411.86 1184.21,-405.33"/>
</g>
<!-- Node35 -->
<g id="node35" class="node">
<title>Node35</title>
<g id="a_node35"><a xlink:href="config_2_config_address_8h.html" target="_top" xlink:title=" ">
<polygon fill="white" stroke="black" points="1325.5,-319 1325.5,-338 1473.5,-338 1473.5,-319 1325.5,-319"/>
<text text-anchor="middle" x="1399.5" y="-326" font-family="Helvetica,sans-Serif" font-size="10.00">net/config/ConfigAddress.h</text>
</a>
</g>
</g>
<!-- Node34&#45;&gt;Node35 -->
<g id="edge42" class="edge">
<title>Node34&#45;&gt;Node35</title>
<path fill="none" stroke="midnightblue" d="M1460.58,-380.4C1447.93,-369.86 1430.67,-355.48 1417.73,-344.69"/>
<polygon fill="midnightblue" stroke="midnightblue" points="1419.86,-341.91 1409.93,-338.19 1415.38,-347.29 1419.86,-341.91"/>
</g>
<!-- Node35&#45;&gt;Node32 -->
<g id="edge43" class="edge">
<title>Node35&#45;&gt;Node32</title>
<path fill="none" stroke="midnightblue" d="M1399.5,-318.73C1399.5,-309.18 1399.5,-293.62 1399.5,-281.28"/>
<polygon fill="midnightblue" stroke="midnightblue" points="1403,-281.13 1399.5,-271.13 1396,-281.13 1403,-281.13"/>
</g>
<!-- Node36&#45;&gt;Node35 -->
<g id="edge45" class="edge">
<title>Node36&#45;&gt;Node35</title>
<path fill="none" stroke="midnightblue" d="M1337.64,-380.4C1350.45,-369.86 1367.93,-355.48 1381.04,-344.69"/>
<polygon fill="midnightblue" stroke="midnightblue" points="1383.43,-347.25 1388.93,-338.19 1378.99,-341.85 1383.43,-347.25"/>
</g>
<!-- Node37&#45;&gt;Node32 -->
<g id="edge47" class="edge">
<title>Node37&#45;&gt;Node32</title>
<path fill="none" stroke="midnightblue" d="M1631.23,-385.84C1588.91,-363.32 1475.19,-302.79 1424.49,-275.8"/>
<polygon fill="midnightblue" stroke="midnightblue" points="1425.98,-272.63 1415.51,-271.02 1422.69,-278.81 1425.98,-272.63"/>
</g>
<!-- Node38&#45;&gt;Node28 -->
<g id="edge49" class="edge">
<title>Node38&#45;&gt;Node28</title>
<path fill="none" stroke="midnightblue" d="M1124.41,-385.87C1088.34,-374.38 1024.42,-354.01 984.09,-341.16"/>
<polygon fill="midnightblue" stroke="midnightblue" points="984.97,-337.76 974.38,-338.06 982.84,-344.43 984.97,-337.76"/>
</g>
<!-- Node40 -->
<g id="node40" class="node">
<title>Node40</title>
<g id="a_node40"><a xlink:href="web_2http_2client_2_socket_context_factory_8h.html" target="_top" xlink:title=" ">
<polygon fill="white" stroke="black" points="1728,-514.5 1728,-544.5 1891,-544.5 1891,-514.5 1728,-514.5"/>
<text text-anchor="start" x="1736" y="-532.5" font-family="Helvetica,sans-Serif" font-size="10.00">web/http/client/SocketContext</text>
<text text-anchor="middle" x="1809.5" y="-521.5" font-family="Helvetica,sans-Serif" font-size="10.00">Factory.h</text>
</a>
</g>
</g>
<!-- Node39&#45;&gt;Node40 -->
<g id="edge51" class="edge">
<title>Node39&#45;&gt;Node40</title>
<path fill="none" stroke="midnightblue" d="M1527.32,-586.94C1578.53,-576.69 1665.33,-559.33 1729.16,-546.57"/>
<polygon fill="midnightblue" stroke="midnightblue" points="1730.08,-549.95 1739.2,-544.56 1728.71,-543.09 1730.08,-549.95"/>
</g>
<!-- Node41 -->
<g id="node41" class="node">
<title>Node41</title>
<g id="a_node41"><a xlink:href="web_2http_2_socket_context_factory_8h.html" target="_top" xlink:title=" ">
<polygon fill="white" stroke="black" points="1721.5,-453 1721.5,-472 1897.5,-472 1897.5,-453 1721.5,-453"/>
<text text-anchor="middle" x="1809.5" y="-460" font-family="Helvetica,sans-Serif" font-size="10.00">web/http/SocketContextFactory.h</text>
</a>
</g>
</g>
<!-- Node40&#45;&gt;Node41 -->
<g id="edge52" class="edge">
<title>Node40&#45;&gt;Node41</title>
<path fill="none" stroke="midnightblue" d="M1809.5,-514.4C1809.5,-505.06 1809.5,-492.71 1809.5,-482.52"/>
<polygon fill="midnightblue" stroke="midnightblue" points="1813,-482.19 1809.5,-472.19 1806,-482.19 1813,-482.19"/>
</g>
<!-- Node43 -->
<g id="node43" class="node">
<title>Node43</title>
<g id="a_node43"><a xlink:href="client_2_socket_context_8hpp.html" target="_top" xlink:title=" ">
<polygon fill="white" stroke="black" points="1915.5,-453 1915.5,-472 2099.5,-472 2099.5,-453 1915.5,-453"/>
<text text-anchor="middle" x="2007.5" y="-460" font-family="Helvetica,sans-Serif" font-size="10.00">web/http/client/SocketContext.hpp</text>
</a>
</g>
</g>
<!-- Node40&#45;&gt;Node43 -->
<g id="edge54" class="edge">
<title>Node40&#45;&gt;Node43</title>
<path fill="none" stroke="midnightblue" d="M1852.46,-514.4C1888.13,-502.69 1938.26,-486.23 1971.76,-475.23"/>
<polygon fill="midnightblue" stroke="midnightblue" points="1973.18,-478.45 1981.59,-472.01 1970.99,-471.8 1973.18,-478.45"/>
</g>
<!-- Node42 -->
<g id="node42" class="node">
<title>Node42</title>
<g id="a_node42"><a xlink:href="core_2socket_2_socket_context_factory_8h.html" target="_top" xlink:title=" ">
<polygon fill="white" stroke="black" points="1747.5,-380.5 1747.5,-410.5 1893.5,-410.5 1893.5,-380.5 1747.5,-380.5"/>
<text text-anchor="start" x="1755.5" y="-398.5" font-family="Helvetica,sans-Serif" font-size="10.00">core/socket/SocketContext</text>
<text text-anchor="middle" x="1820.5" y="-387.5" font-family="Helvetica,sans-Serif" font-size="10.00">Factory.h</text>
</a>
</g>
</g>
<!-- Node41&#45;&gt;Node42 -->
<g id="edge53" class="edge">
<title>Node41&#45;&gt;Node42</title>
<path fill="none" stroke="midnightblue" d="M1810.98,-452.73C1812.37,-444.54 1814.51,-431.92 1816.4,-420.71"/>
<polygon fill="midnightblue" stroke="midnightblue" points="1819.9,-421.03 1818.12,-410.59 1813,-419.86 1819.9,-421.03"/>
</g>
<!-- Node44 -->
<g id="node44" class="node">
<title>Node44</title>
<g id="a_node44"><a xlink:href="web_2http_2client_2_socket_context_8h.html" target="_top" xlink:title=" ">
<polygon fill="white" stroke="black" points="1921.5,-386 1921.5,-405 2093.5,-405 2093.5,-386 1921.5,-386"/>
<text text-anchor="middle" x="2007.5" y="-393" font-family="Helvetica,sans-Serif" font-size="10.00">web/http/client/SocketContext.h</text>
</a>
</g>
</g>
<!-- Node43&#45;&gt;Node44 -->
<g id="edge55" class="edge">
<title>Node43&#45;&gt;Node44</title>
<path fill="none" stroke="midnightblue" d="M2007.5,-452.73C2007.5,-443.18 2007.5,-427.62 2007.5,-415.28"/>
<polygon fill="midnightblue" stroke="midnightblue" points="2011,-415.13 2007.5,-405.13 2004,-415.13 2011,-415.13"/>
</g>
<!-- Node45 -->
<g id="node45" class="node">
<title>Node45</title>
<g id="a_node45"><a xlink:href="web_2http_2_socket_context_8h.html" target="_top" xlink:title=" ">
<polygon fill="white" stroke="black" points="1856.5,-319 1856.5,-338 1998.5,-338 1998.5,-319 1856.5,-319"/>
<text text-anchor="middle" x="1927.5" y="-326" font-family="Helvetica,sans-Serif" font-size="10.00">web/http/SocketContext.h</text>
</a>
</g>
</g>
<!-- Node44&#45;&gt;Node45 -->
<g id="edge56" class="edge">
<title>Node44&#45;&gt;Node45</title>
<path fill="none" stroke="midnightblue" d="M1996.71,-385.73C1983.76,-375.21 1961.81,-357.38 1946.11,-344.62"/>
<polygon fill="midnightblue" stroke="midnightblue" points="1948.09,-341.72 1938.12,-338.13 1943.67,-347.15 1948.09,-341.72"/>
</g>
<!-- Node47 -->
<g id="node47" class="node">
<title>Node47</title>
<g id="a_node47"><a xlink:href="_response_parser_8h.html" target="_top" xlink:title=" ">
<polygon fill="white" stroke="black" points="2016.5,-313.5 2016.5,-343.5 2156.5,-343.5 2156.5,-313.5 2016.5,-313.5"/>
<text text-anchor="start" x="2024.5" y="-331.5" font-family="Helvetica,sans-Serif" font-size="10.00">web/http/client/Response</text>
<text text-anchor="middle" x="2086.5" y="-320.5" font-family="Helvetica,sans-Serif" font-size="10.00">Parser.h</text>
</a>
</g>
</g>
<!-- Node44&#45;&gt;Node47 -->
<g id="edge58" class="edge">
<title>Node44&#45;&gt;Node47</title>
<path fill="none" stroke="midnightblue" d="M2018.15,-385.73C2029.24,-376.61 2047,-362 2061.63,-349.96"/>
<polygon fill="midnightblue" stroke="midnightblue" points="2063.88,-352.65 2069.38,-343.59 2059.43,-347.24 2063.88,-352.65"/>
</g>
<!-- Node46 -->
<g id="node46" class="node">
<title>Node46</title>
<g id="a_node46"><a xlink:href="core_2socket_2_socket_context_8h.html" target="_top" xlink:title=" ">
<polygon fill="white" stroke="black" points="1850,-252 1850,-271 2005,-271 2005,-252 1850,-252"/>
<text text-anchor="middle" x="1927.5" y="-259" font-family="Helvetica,sans-Serif" font-size="10.00">core/socket/SocketContext.h</text>
</a>
</g>
</g>
<!-- Node45&#45;&gt;Node46 -->
<g id="edge57" class="edge">
<title>Node45&#45;&gt;Node46</title>
<path fill="none" stroke="midnightblue" d="M1927.5,-318.73C1927.5,-309.18 1927.5,-293.62 1927.5,-281.28"/>
<polygon fill="midnightblue" stroke="midnightblue" points="1931,-281.13 1927.5,-271.13 1924,-281.13 1931,-281.13"/>
</g>
<!-- Node48 -->
<g id="node48" class="node">
<title>Node48</title>
<g id="a_node48"><a xlink:href="_cookie_options_8h.html" target="_top" xlink:title=" ">
<polygon fill="white" stroke="black" points="2150,-252 2150,-271 2293,-271 2293,-252 2150,-252"/>
<text text-anchor="middle" x="2221.5" y="-259" font-family="Helvetica,sans-Serif" font-size="10.00">web/http/CookieOptions.h</text>
</a>
</g>
</g>
<!-- Node47&#45;&gt;Node48 -->
<g id="edge59" class="edge">
<title>Node47&#45;&gt;Node48</title>
<path fill="none" stroke="midnightblue" d="M2115.79,-313.4C2139.27,-302.09 2171.94,-286.36 2194.73,-275.39"/>
<polygon fill="midnightblue" stroke="midnightblue" points="2196.34,-278.5 2203.83,-271.01 2193.3,-272.19 2196.34,-278.5"/>
</g>
<!-- Node49 -->
<g id="node49" class="node">
<title>Node49</title>
<g id="a_node49"><a xlink:href="_parser_8h.html" target="_top" xlink:title=" ">
<polygon fill="white" stroke="black" points="2029.5,-252 2029.5,-271 2131.5,-271 2131.5,-252 2029.5,-252"/>
<text text-anchor="middle" x="2080.5" y="-259" font-family="Helvetica,sans-Serif" font-size="10.00">web/http/Parser.h</text>
</a>
</g>
</g>
<!-- Node47&#45;&gt;Node49 -->
<g id="edge60" class="edge">
<title>Node47&#45;&gt;Node49</title>
<path fill="none" stroke="midnightblue" d="M2085.2,-313.4C2084.33,-303.96 2083.17,-291.45 2082.23,-281.19"/>
<polygon fill="midnightblue" stroke="midnightblue" points="2085.71,-280.83 2081.3,-271.19 2078.74,-281.47 2085.71,-280.83"/>
</g>
</g>
</svg>
