<?xml version="1.0" encoding="UTF-8" standalone="no"?>
<!DOCTYPE svg PUBLIC "-//W3C//DTD SVG 1.1//EN"
 "http://www.w3.org/Graphics/SVG/1.1/DTD/svg11.dtd">
<!-- Generated by graphviz version 2.43.0 (0)
 -->
<!-- Title: core/socket/stream/tls/SocketReader.h Pages: 1 -->
<svg width="318pt" height="218pt"
 viewBox="0.00 0.00 317.50 218.00" xmlns="http://www.w3.org/2000/svg" xmlns:xlink="http://www.w3.org/1999/xlink">
<g id="graph0" class="graph" transform="scale(1 1) rotate(0) translate(4 214)">
<title>core/socket/stream/tls/SocketReader.h</title>
<polygon fill="white" stroke="transparent" points="-4,4 -4,-214 313.5,-214 313.5,4 -4,4"/>
<!-- Node1 -->
<g id="node1" class="node">
<title>Node1</title>
<g id="a_node1"><a xlink:title=" ">
<polygon fill="#bfbfbf" stroke="black" points="82.5,-179.5 82.5,-209.5 192.5,-209.5 192.5,-179.5 82.5,-179.5"/>
<text text-anchor="start" x="90.5" y="-197.5" font-family="Helvetica,sans-Serif" font-size="10.00">core/socket/stream</text>
<text text-anchor="middle" x="137.5" y="-186.5" font-family="Helvetica,sans-Serif" font-size="10.00">/tls/SocketReader.h</text>
</a>
</g>
</g>
<!-- Node2 -->
<g id="node2" class="node">
<title>Node2</title>
<g id="a_node2"><a xlink:href="_socket_reader_8h.html" target="_top" xlink:title=" ">
<polygon fill="white" stroke="black" points="17.5,-112.5 17.5,-142.5 127.5,-142.5 127.5,-112.5 17.5,-112.5"/>
<text text-anchor="start" x="25.5" y="-130.5" font-family="Helvetica,sans-Serif" font-size="10.00">core/socket/stream</text>
<text text-anchor="middle" x="72.5" y="-119.5" font-family="Helvetica,sans-Serif" font-size="10.00">/SocketReader.h</text>
</a>
</g>
</g>
<!-- Node1&#45;&gt;Node2 -->
<g id="edge1" class="edge">
<title>Node1&#45;&gt;Node2</title>
<path fill="none" stroke="midnightblue" d="M123.4,-179.4C114.71,-170.71 103.4,-159.4 93.66,-149.66"/>
<polygon fill="midnightblue" stroke="midnightblue" points="96.12,-147.17 86.58,-142.58 91.17,-152.12 96.12,-147.17"/>
</g>
<!-- Node5 -->
<g id="node5" class="node">
<title>Node5</title>
<g id="a_node5"><a xlink:href="_t_l_s_handshake_8h.html" target="_top" xlink:title=" ">
<polygon fill="white" stroke="black" points="146,-112.5 146,-142.5 261,-142.5 261,-112.5 146,-112.5"/>
<text text-anchor="start" x="154" y="-130.5" font-family="Helvetica,sans-Serif" font-size="10.00">core/socket/stream</text>
<text text-anchor="middle" x="203.5" y="-119.5" font-family="Helvetica,sans-Serif" font-size="10.00">/tls/TLSHandshake.h</text>
</a>
</g>
</g>
<!-- Node1&#45;&gt;Node5 -->
<g id="edge4" class="edge">
<title>Node1&#45;&gt;Node5</title>
<path fill="none" stroke="midnightblue" d="M151.82,-179.4C160.64,-170.71 172.12,-159.4 182.02,-149.66"/>
<polygon fill="midnightblue" stroke="midnightblue" points="184.54,-152.09 189.21,-142.58 179.63,-147.1 184.54,-152.09"/>
</g>
<!-- Node3 -->
<g id="node3" class="node">
<title>Node3</title>
<g id="a_node3"><a xlink:href="_read_event_receiver_8h.html" target="_top" xlink:title=" ">
<polygon fill="white" stroke="black" points="0,-56.5 0,-75.5 145,-75.5 145,-56.5 0,-56.5"/>
<text text-anchor="middle" x="72.5" y="-63.5" font-family="Helvetica,sans-Serif" font-size="10.00">core/ReadEventReceiver.h</text>
</a>
</g>
</g>
<!-- Node2&#45;&gt;Node3 -->
<g id="edge2" class="edge">
<title>Node2&#45;&gt;Node3</title>
<path fill="none" stroke="midnightblue" d="M72.5,-112.4C72.5,-104.47 72.5,-94.46 72.5,-85.86"/>
<polygon fill="midnightblue" stroke="midnightblue" points="76,-85.66 72.5,-75.66 69,-85.66 76,-85.66"/>
</g>
<!-- Node4 -->
<g id="node4" class="node">
<title>Node4</title>
<g id="a_node4"><a xlink:href="_event_receiver_8h.html" target="_top" xlink:title=" ">
<polygon fill="white" stroke="black" points="94.5,-0.5 94.5,-19.5 214.5,-19.5 214.5,-0.5 94.5,-0.5"/>
<text text-anchor="middle" x="154.5" y="-7.5" font-family="Helvetica,sans-Serif" font-size="10.00">core/EventReceiver.h</text>
</a>
</g>
</g>
<!-- Node3&#45;&gt;Node4 -->
<g id="edge3" class="edge">
<title>Node3&#45;&gt;Node4</title>
<path fill="none" stroke="midnightblue" d="M85.67,-56.32C98.35,-47.98 117.73,-35.21 132.71,-25.35"/>
<polygon fill="midnightblue" stroke="midnightblue" points="134.93,-28.08 141.36,-19.65 131.08,-22.23 134.93,-28.08"/>
</g>
<!-- Node5&#45;&gt;Node3 -->
<g id="edge5" class="edge">
<title>Node5&#45;&gt;Node3</title>
<path fill="none" stroke="midnightblue" d="M172.45,-112.4C150.77,-102.55 122.04,-89.5 100.95,-79.92"/>
<polygon fill="midnightblue" stroke="midnightblue" points="102.11,-76.61 91.56,-75.66 99.22,-82.98 102.11,-76.61"/>
</g>
<!-- Node6 -->
<g id="node6" class="node">
<title>Node6</title>
<g id="a_node6"><a xlink:href="_write_event_receiver_8h.html" target="_top" xlink:title=" ">
<polygon fill="white" stroke="black" points="163.5,-56.5 163.5,-75.5 309.5,-75.5 309.5,-56.5 163.5,-56.5"/>
<text text-anchor="middle" x="236.5" y="-63.5" font-family="Helvetica,sans-Serif" font-size="10.00">core/WriteEventReceiver.h</text>
</a>
</g>
</g>
<!-- Node5&#45;&gt;Node6 -->
<g id="edge6" class="edge">
<title>Node5&#45;&gt;Node6</title>
<path fill="none" stroke="midnightblue" d="M211.32,-112.4C215.97,-104.02 221.9,-93.33 226.84,-84.42"/>
<polygon fill="midnightblue" stroke="midnightblue" points="229.91,-86.1 231.7,-75.66 223.79,-82.71 229.91,-86.1"/>
</g>
<!-- Node6&#45;&gt;Node4 -->
<g id="edge7" class="edge">
<title>Node6&#45;&gt;Node4</title>
<path fill="none" stroke="midnightblue" d="M223.33,-56.32C210.65,-47.98 191.27,-35.21 176.29,-25.35"/>
<polygon fill="midnightblue" stroke="midnightblue" points="177.92,-22.23 167.64,-19.65 174.07,-28.08 177.92,-22.23"/>
</g>
</g>
</svg>
