<?xml version="1.0" encoding="UTF-8" standalone="no"?>
<!DOCTYPE svg PUBLIC "-//W3C//DTD SVG 1.1//EN"
 "http://www.w3.org/Graphics/SVG/1.1/DTD/svg11.dtd">
<!-- Generated by graphviz version 2.43.0 (0)
 -->
<!-- Title: web/http/tls/in/Server.h Pages: 1 -->
<svg width="1586pt" height="542pt"
 viewBox="0.00 0.00 1586.00 542.00" xmlns="http://www.w3.org/2000/svg" xmlns:xlink="http://www.w3.org/1999/xlink">
<g id="graph0" class="graph" transform="scale(1 1) rotate(0) translate(4 538)">
<title>web/http/tls/in/Server.h</title>
<polygon fill="white" stroke="transparent" points="-4,4 -4,-538 1582,-538 1582,4 -4,4"/>
<!-- Node1 -->
<g id="node1" class="node">
<title>Node1</title>
<g id="a_node1"><a xlink:title=" ">
<polygon fill="#bfbfbf" stroke="black" points="479,-514.5 479,-533.5 609,-533.5 609,-514.5 479,-514.5"/>
<text text-anchor="middle" x="544" y="-521.5" font-family="Helvetica,sans-Serif" font-size="10.00">web/http/tls/in/Server.h</text>
</a>
</g>
</g>
<!-- Node2 -->
<g id="node2" class="node">
<title>Node2</title>
<g id="a_node2"><a xlink:href="net_2in_2stream_2tls_2_socket_server_8h.html" target="_top" xlink:title=" ">
<polygon fill="white" stroke="black" points="402,-447.5 402,-477.5 534,-477.5 534,-447.5 402,-447.5"/>
<text text-anchor="start" x="410" y="-465.5" font-family="Helvetica,sans-Serif" font-size="10.00">net/in/stream/tls/Socket</text>
<text text-anchor="middle" x="468" y="-454.5" font-family="Helvetica,sans-Serif" font-size="10.00">Server.h</text>
</a>
</g>
</g>
<!-- Node1&#45;&gt;Node2 -->
<g id="edge1" class="edge">
<title>Node1&#45;&gt;Node2</title>
<path fill="none" stroke="midnightblue" d="M533.11,-514.48C522.91,-506.49 507.28,-494.25 493.89,-483.77"/>
<polygon fill="midnightblue" stroke="midnightblue" points="495.94,-480.93 485.91,-477.52 491.63,-486.44 495.94,-480.93"/>
</g>
<!-- Node29 -->
<g id="node29" class="node">
<title>Node29</title>
<g id="a_node29"><a xlink:href="server_2_server_8h.html" target="_top" xlink:title=" ">
<polygon fill="white" stroke="black" points="786.5,-453 786.5,-472 923.5,-472 923.5,-453 786.5,-453"/>
<text text-anchor="middle" x="855" y="-460" font-family="Helvetica,sans-Serif" font-size="10.00">web/http/server/Server.h</text>
</a>
</g>
</g>
<!-- Node1&#45;&gt;Node29 -->
<g id="edge35" class="edge">
<title>Node1&#45;&gt;Node29</title>
<path fill="none" stroke="midnightblue" d="M588.56,-514.48C644.45,-503.78 740.23,-485.46 800.44,-473.94"/>
<polygon fill="midnightblue" stroke="midnightblue" points="801.36,-477.33 810.52,-472.01 800.04,-470.45 801.36,-477.33"/>
</g>
<!-- Node3 -->
<g id="node3" class="node">
<title>Node3</title>
<g id="a_node3"><a xlink:href="core_2socket_2stream_2tls_2_socket_server_8h.html" target="_top" xlink:title=" ">
<polygon fill="white" stroke="black" points="413,-380.5 413,-410.5 523,-410.5 523,-380.5 413,-380.5"/>
<text text-anchor="start" x="421" y="-398.5" font-family="Helvetica,sans-Serif" font-size="10.00">core/socket/stream</text>
<text text-anchor="middle" x="468" y="-387.5" font-family="Helvetica,sans-Serif" font-size="10.00">/tls/SocketServer.h</text>
</a>
</g>
</g>
<!-- Node2&#45;&gt;Node3 -->
<g id="edge2" class="edge">
<title>Node2&#45;&gt;Node3</title>
<path fill="none" stroke="midnightblue" d="M468,-447.4C468,-439.64 468,-429.81 468,-420.86"/>
<polygon fill="midnightblue" stroke="midnightblue" points="471.5,-420.58 468,-410.58 464.5,-420.58 471.5,-420.58"/>
</g>
<!-- Node22 -->
<g id="node22" class="node">
<title>Node22</title>
<g id="a_node22"><a xlink:href="net_2in_2stream_2_server_socket_8h.html" target="_top" xlink:title=" ">
<polygon fill="white" stroke="black" points="150,-386 150,-405 308,-405 308,-386 150,-386"/>
<text text-anchor="middle" x="229" y="-393" font-family="Helvetica,sans-Serif" font-size="10.00">net/in/stream/ServerSocket.h</text>
</a>
</g>
</g>
<!-- Node2&#45;&gt;Node22 -->
<g id="edge28" class="edge">
<title>Node2&#45;&gt;Node22</title>
<path fill="none" stroke="midnightblue" d="M416.43,-447.48C372.66,-435.57 310.68,-418.72 270.17,-407.7"/>
<polygon fill="midnightblue" stroke="midnightblue" points="270.93,-404.28 260.36,-405.03 269.09,-411.03 270.93,-404.28"/>
</g>
<!-- Node4 -->
<g id="node4" class="node">
<title>Node4</title>
<g id="a_node4"><a xlink:href="core_2socket_2stream_2_socket_server_8h.html" target="_top" xlink:title=" ">
<polygon fill="white" stroke="black" points="347,-313.5 347,-343.5 457,-343.5 457,-313.5 347,-313.5"/>
<text text-anchor="start" x="355" y="-331.5" font-family="Helvetica,sans-Serif" font-size="10.00">core/socket/stream</text>
<text text-anchor="middle" x="402" y="-320.5" font-family="Helvetica,sans-Serif" font-size="10.00">/SocketServer.h</text>
</a>
</g>
</g>
<!-- Node3&#45;&gt;Node4 -->
<g id="edge3" class="edge">
<title>Node3&#45;&gt;Node4</title>
<path fill="none" stroke="midnightblue" d="M453.68,-380.4C444.86,-371.71 433.38,-360.4 423.48,-350.66"/>
<polygon fill="midnightblue" stroke="midnightblue" points="425.87,-348.1 416.29,-343.58 420.96,-353.09 425.87,-348.1"/>
</g>
<!-- Node5 -->
<g id="node5" class="node">
<title>Node5</title>
<g id="a_node5"><a xlink:href="tls_2_socket_acceptor_8h.html" target="_top" xlink:title=" ">
<polygon fill="white" stroke="black" points="475.5,-313.5 475.5,-343.5 594.5,-343.5 594.5,-313.5 475.5,-313.5"/>
<text text-anchor="start" x="483.5" y="-331.5" font-family="Helvetica,sans-Serif" font-size="10.00">core/socket/stream</text>
<text text-anchor="middle" x="535" y="-320.5" font-family="Helvetica,sans-Serif" font-size="10.00">/tls/SocketAcceptor.h</text>
</a>
</g>
</g>
<!-- Node3&#45;&gt;Node5 -->
<g id="edge4" class="edge">
<title>Node3&#45;&gt;Node5</title>
<path fill="none" stroke="midnightblue" d="M482.54,-380.4C491.49,-371.71 503.14,-360.4 513.19,-350.66"/>
<polygon fill="midnightblue" stroke="midnightblue" points="515.75,-353.05 520.49,-343.58 510.88,-348.03 515.75,-353.05"/>
</g>
<!-- Node6 -->
<g id="node6" class="node">
<title>Node6</title>
<g id="a_node6"><a xlink:href="_socket_acceptor_8h.html" target="_top" xlink:title=" ">
<polygon fill="white" stroke="black" points="334,-246.5 334,-276.5 444,-276.5 444,-246.5 334,-246.5"/>
<text text-anchor="start" x="342" y="-264.5" font-family="Helvetica,sans-Serif" font-size="10.00">core/socket/stream</text>
<text text-anchor="middle" x="389" y="-253.5" font-family="Helvetica,sans-Serif" font-size="10.00">/SocketAcceptor.h</text>
</a>
</g>
</g>
<!-- Node5&#45;&gt;Node6 -->
<g id="edge5" class="edge">
<title>Node5&#45;&gt;Node6</title>
<path fill="none" stroke="midnightblue" d="M503.32,-313.4C481.8,-303.81 453.13,-291.05 429.88,-280.7"/>
<polygon fill="midnightblue" stroke="midnightblue" points="431.18,-277.45 420.62,-276.58 428.33,-283.84 431.18,-277.45"/>
</g>
<!-- Node9 -->
<g id="node9" class="node">
<title>Node9</title>
<g id="a_node9"><a xlink:href="stream_2tls_2_socket_connection_8h.html" target="_top" xlink:title=" ">
<polygon fill="white" stroke="black" points="506.5,-246.5 506.5,-276.5 637.5,-276.5 637.5,-246.5 506.5,-246.5"/>
<text text-anchor="start" x="514.5" y="-264.5" font-family="Helvetica,sans-Serif" font-size="10.00">core/socket/stream</text>
<text text-anchor="middle" x="572" y="-253.5" font-family="Helvetica,sans-Serif" font-size="10.00">/tls/SocketConnection.h</text>
</a>
</g>
</g>
<!-- Node5&#45;&gt;Node9 -->
<g id="edge8" class="edge">
<title>Node5&#45;&gt;Node9</title>
<path fill="none" stroke="midnightblue" d="M543.03,-313.4C547.68,-305.22 553.66,-294.73 558.97,-285.39"/>
<polygon fill="midnightblue" stroke="midnightblue" points="562.08,-287 563.99,-276.58 556,-283.54 562.08,-287"/>
</g>
<!-- Node7 -->
<g id="node7" class="node">
<title>Node7</title>
<g id="a_node7"><a xlink:href="_accept_event_receiver_8h.html" target="_top" xlink:title=" ">
<polygon fill="white" stroke="black" points="264.5,-56.5 264.5,-75.5 417.5,-75.5 417.5,-56.5 264.5,-56.5"/>
<text text-anchor="middle" x="341" y="-63.5" font-family="Helvetica,sans-Serif" font-size="10.00">core/AcceptEventReceiver.h</text>
</a>
</g>
</g>
<!-- Node6&#45;&gt;Node7 -->
<g id="edge6" class="edge">
<title>Node6&#45;&gt;Node7</title>
<path fill="none" stroke="midnightblue" d="M384.13,-246.18C376.78,-224.2 362.81,-180.72 354,-143 349.49,-123.68 345.84,-101.25 343.57,-85.8"/>
<polygon fill="midnightblue" stroke="midnightblue" points="346.98,-84.91 342.11,-75.5 340.05,-85.89 346.98,-84.91"/>
</g>
<!-- Node8 -->
<g id="node8" class="node">
<title>Node8</title>
<g id="a_node8"><a xlink:href="_event_receiver_8h.html" target="_top" xlink:title=" ">
<polygon fill="white" stroke="black" points="453,-0.5 453,-19.5 573,-19.5 573,-0.5 453,-0.5"/>
<text text-anchor="middle" x="513" y="-7.5" font-family="Helvetica,sans-Serif" font-size="10.00">core/EventReceiver.h</text>
</a>
</g>
</g>
<!-- Node7&#45;&gt;Node8 -->
<g id="edge7" class="edge">
<title>Node7&#45;&gt;Node8</title>
<path fill="none" stroke="midnightblue" d="M368.25,-56.44C397.44,-47.28 443.92,-32.69 476.31,-22.52"/>
<polygon fill="midnightblue" stroke="midnightblue" points="477.38,-25.85 485.87,-19.52 475.28,-19.17 477.38,-25.85"/>
</g>
<!-- Node10 -->
<g id="node10" class="node">
<title>Node10</title>
<g id="a_node10"><a xlink:href="stream_2_socket_connection_8h.html" target="_top" xlink:title=" ">
<polygon fill="white" stroke="black" points="913,-179.5 913,-209.5 1029,-209.5 1029,-179.5 913,-179.5"/>
<text text-anchor="start" x="921" y="-197.5" font-family="Helvetica,sans-Serif" font-size="10.00">core/socket/stream</text>
<text text-anchor="middle" x="971" y="-186.5" font-family="Helvetica,sans-Serif" font-size="10.00">/SocketConnection.h</text>
</a>
</g>
</g>
<!-- Node9&#45;&gt;Node10 -->
<g id="edge9" class="edge">
<title>Node9&#45;&gt;Node10</title>
<path fill="none" stroke="midnightblue" d="M637.89,-249.77C711.03,-237.85 828.52,-218.71 902.65,-206.64"/>
<polygon fill="midnightblue" stroke="midnightblue" points="903.5,-210.04 912.81,-204.98 902.38,-203.13 903.5,-210.04"/>
</g>
<!-- Node14 -->
<g id="node14" class="node">
<title>Node14</title>
<g id="a_node14"><a xlink:href="tls_2_socket_reader_8h.html" target="_top" xlink:title=" ">
<polygon fill="white" stroke="black" points="434,-179.5 434,-209.5 544,-209.5 544,-179.5 434,-179.5"/>
<text text-anchor="start" x="442" y="-197.5" font-family="Helvetica,sans-Serif" font-size="10.00">core/socket/stream</text>
<text text-anchor="middle" x="489" y="-186.5" font-family="Helvetica,sans-Serif" font-size="10.00">/tls/SocketReader.h</text>
</a>
</g>
</g>
<!-- Node9&#45;&gt;Node14 -->
<g id="edge13" class="edge">
<title>Node9&#45;&gt;Node14</title>
<path fill="none" stroke="midnightblue" d="M553.99,-246.4C542.57,-237.45 527.61,-225.74 514.92,-215.8"/>
<polygon fill="midnightblue" stroke="midnightblue" points="517.01,-212.99 506.97,-209.58 512.69,-218.5 517.01,-212.99"/>
</g>
<!-- Node19 -->
<g id="node19" class="node">
<title>Node19</title>
<g id="a_node19"><a xlink:href="tls_2_socket_writer_8h.html" target="_top" xlink:title=" ">
<polygon fill="white" stroke="black" points="622,-179.5 622,-209.5 732,-209.5 732,-179.5 622,-179.5"/>
<text text-anchor="start" x="630" y="-197.5" font-family="Helvetica,sans-Serif" font-size="10.00">core/socket/stream</text>
<text text-anchor="middle" x="677" y="-186.5" font-family="Helvetica,sans-Serif" font-size="10.00">/tls/SocketWriter.h</text>
</a>
</g>
</g>
<!-- Node9&#45;&gt;Node19 -->
<g id="edge21" class="edge">
<title>Node9&#45;&gt;Node19</title>
<path fill="none" stroke="midnightblue" d="M594.78,-246.4C609.64,-237.2 629.24,-225.07 645.57,-214.95"/>
<polygon fill="midnightblue" stroke="midnightblue" points="647.6,-217.82 654.26,-209.58 643.92,-211.86 647.6,-217.82"/>
</g>
<!-- Node21 -->
<g id="node21" class="node">
<title>Node21</title>
<g id="a_node21"><a xlink:href="_t_l_s_shutdown_8h.html" target="_top" xlink:title=" ">
<polygon fill="white" stroke="black" points="491,-112.5 491,-142.5 601,-142.5 601,-112.5 491,-112.5"/>
<text text-anchor="start" x="499" y="-130.5" font-family="Helvetica,sans-Serif" font-size="10.00">core/socket/stream</text>
<text text-anchor="middle" x="546" y="-119.5" font-family="Helvetica,sans-Serif" font-size="10.00">/tls/TLSShutdown.h</text>
</a>
</g>
</g>
<!-- Node9&#45;&gt;Node21 -->
<g id="edge25" class="edge">
<title>Node9&#45;&gt;Node21</title>
<path fill="none" stroke="midnightblue" d="M569.22,-246.37C564.8,-223.94 556.13,-179.92 550.72,-152.49"/>
<polygon fill="midnightblue" stroke="midnightblue" points="554.13,-151.66 548.76,-142.52 547.26,-153.01 554.13,-151.66"/>
</g>
<!-- Node11 -->
<g id="node11" class="node">
<title>Node11</title>
<g id="a_node11"><a xlink:href="_socket_connection_8h.html" target="_top" xlink:title=" ">
<polygon fill="white" stroke="black" points="881.5,-118 881.5,-137 1052.5,-137 1052.5,-118 881.5,-118"/>
<text text-anchor="middle" x="967" y="-125" font-family="Helvetica,sans-Serif" font-size="10.00">core/socket/SocketConnection.h</text>
</a>
</g>
</g>
<!-- Node10&#45;&gt;Node11 -->
<g id="edge10" class="edge">
<title>Node10&#45;&gt;Node11</title>
<path fill="none" stroke="midnightblue" d="M970.13,-179.4C969.55,-169.96 968.78,-157.45 968.15,-147.19"/>
<polygon fill="midnightblue" stroke="midnightblue" points="971.64,-146.96 967.54,-137.19 964.66,-147.39 971.64,-146.96"/>
</g>
<!-- Node12 -->
<g id="node12" class="node">
<title>Node12</title>
<g id="a_node12"><a xlink:href="core_2socket_2_socket_context_8h.html" target="_top" xlink:title=" ">
<polygon fill="white" stroke="black" points="1235.5,-118 1235.5,-137 1390.5,-137 1390.5,-118 1235.5,-118"/>
<text text-anchor="middle" x="1313" y="-125" font-family="Helvetica,sans-Serif" font-size="10.00">core/socket/SocketContext.h</text>
</a>
</g>
</g>
<!-- Node10&#45;&gt;Node12 -->
<g id="edge11" class="edge">
<title>Node10&#45;&gt;Node12</title>
<path fill="none" stroke="midnightblue" d="M1029.02,-182.47C1093.01,-170.31 1195.22,-150.88 1257.99,-138.96"/>
<polygon fill="midnightblue" stroke="midnightblue" points="1258.92,-142.34 1268.09,-137.03 1257.62,-135.46 1258.92,-142.34"/>
</g>
<!-- Node13 -->
<g id="node13" class="node">
<title>Node13</title>
<g id="a_node13"><a xlink:href="core_2socket_2_socket_context_factory_8h.html" target="_top" xlink:title=" ">
<polygon fill="white" stroke="black" points="1071,-112.5 1071,-142.5 1217,-142.5 1217,-112.5 1071,-112.5"/>
<text text-anchor="start" x="1079" y="-130.5" font-family="Helvetica,sans-Serif" font-size="10.00">core/socket/SocketContext</text>
<text text-anchor="middle" x="1144" y="-119.5" font-family="Helvetica,sans-Serif" font-size="10.00">Factory.h</text>
</a>
</g>
</g>
<!-- Node10&#45;&gt;Node13 -->
<g id="edge12" class="edge">
<title>Node10&#45;&gt;Node13</title>
<path fill="none" stroke="midnightblue" d="M1008.54,-179.4C1034.5,-169.64 1069.22,-156.59 1097.02,-146.15"/>
<polygon fill="midnightblue" stroke="midnightblue" points="1098.4,-149.37 1106.53,-142.58 1095.94,-142.82 1098.4,-149.37"/>
</g>
<!-- Node15 -->
<g id="node15" class="node">
<title>Node15</title>
<g id="a_node15"><a xlink:href="_socket_reader_8h.html" target="_top" xlink:title=" ">
<polygon fill="white" stroke="black" points="363,-112.5 363,-142.5 473,-142.5 473,-112.5 363,-112.5"/>
<text text-anchor="start" x="371" y="-130.5" font-family="Helvetica,sans-Serif" font-size="10.00">core/socket/stream</text>
<text text-anchor="middle" x="418" y="-119.5" font-family="Helvetica,sans-Serif" font-size="10.00">/SocketReader.h</text>
</a>
</g>
</g>
<!-- Node14&#45;&gt;Node15 -->
<g id="edge14" class="edge">
<title>Node14&#45;&gt;Node15</title>
<path fill="none" stroke="midnightblue" d="M473.59,-179.4C464.01,-170.62 451.51,-159.18 440.8,-149.37"/>
<polygon fill="midnightblue" stroke="midnightblue" points="443.12,-146.75 433.38,-142.58 438.39,-151.91 443.12,-146.75"/>
</g>
<!-- Node17 -->
<g id="node17" class="node">
<title>Node17</title>
<g id="a_node17"><a xlink:href="_t_l_s_handshake_8h.html" target="_top" xlink:title=" ">
<polygon fill="white" stroke="black" points="619.5,-112.5 619.5,-142.5 734.5,-142.5 734.5,-112.5 619.5,-112.5"/>
<text text-anchor="start" x="627.5" y="-130.5" font-family="Helvetica,sans-Serif" font-size="10.00">core/socket/stream</text>
<text text-anchor="middle" x="677" y="-119.5" font-family="Helvetica,sans-Serif" font-size="10.00">/tls/TLSHandshake.h</text>
</a>
</g>
</g>
<!-- Node14&#45;&gt;Node17 -->
<g id="edge17" class="edge">
<title>Node14&#45;&gt;Node17</title>
<path fill="none" stroke="midnightblue" d="M529.79,-179.4C558.25,-169.56 596.4,-156.37 626.73,-145.88"/>
<polygon fill="midnightblue" stroke="midnightblue" points="627.98,-149.15 636.29,-142.58 625.69,-142.54 627.98,-149.15"/>
</g>
<!-- Node16 -->
<g id="node16" class="node">
<title>Node16</title>
<g id="a_node16"><a xlink:href="_read_event_receiver_8h.html" target="_top" xlink:title=" ">
<polygon fill="white" stroke="black" points="440.5,-56.5 440.5,-75.5 585.5,-75.5 585.5,-56.5 440.5,-56.5"/>
<text text-anchor="middle" x="513" y="-63.5" font-family="Helvetica,sans-Serif" font-size="10.00">core/ReadEventReceiver.h</text>
</a>
</g>
</g>
<!-- Node15&#45;&gt;Node16 -->
<g id="edge15" class="edge">
<title>Node15&#45;&gt;Node16</title>
<path fill="none" stroke="midnightblue" d="M440.51,-112.4C455.6,-102.95 475.39,-90.56 490.47,-81.11"/>
<polygon fill="midnightblue" stroke="midnightblue" points="492.56,-83.93 499.18,-75.66 488.84,-78 492.56,-83.93"/>
</g>
<!-- Node16&#45;&gt;Node8 -->
<g id="edge16" class="edge">
<title>Node16&#45;&gt;Node8</title>
<path fill="none" stroke="midnightblue" d="M513,-56.08C513,-49.01 513,-38.86 513,-29.99"/>
<polygon fill="midnightblue" stroke="midnightblue" points="516.5,-29.75 513,-19.75 509.5,-29.75 516.5,-29.75"/>
</g>
<!-- Node17&#45;&gt;Node16 -->
<g id="edge18" class="edge">
<title>Node17&#45;&gt;Node16</title>
<path fill="none" stroke="midnightblue" d="M638.13,-112.4C610.25,-102.28 573.06,-88.79 546.49,-79.15"/>
<polygon fill="midnightblue" stroke="midnightblue" points="547.46,-75.78 536.86,-75.66 545.07,-82.36 547.46,-75.78"/>
</g>
<!-- Node18 -->
<g id="node18" class="node">
<title>Node18</title>
<g id="a_node18"><a xlink:href="_write_event_receiver_8h.html" target="_top" xlink:title=" ">
<polygon fill="white" stroke="black" points="604,-56.5 604,-75.5 750,-75.5 750,-56.5 604,-56.5"/>
<text text-anchor="middle" x="677" y="-63.5" font-family="Helvetica,sans-Serif" font-size="10.00">core/WriteEventReceiver.h</text>
</a>
</g>
</g>
<!-- Node17&#45;&gt;Node18 -->
<g id="edge19" class="edge">
<title>Node17&#45;&gt;Node18</title>
<path fill="none" stroke="midnightblue" d="M677,-112.4C677,-104.47 677,-94.46 677,-85.86"/>
<polygon fill="midnightblue" stroke="midnightblue" points="680.5,-85.66 677,-75.66 673.5,-85.66 680.5,-85.66"/>
</g>
<!-- Node18&#45;&gt;Node8 -->
<g id="edge20" class="edge">
<title>Node18&#45;&gt;Node8</title>
<path fill="none" stroke="midnightblue" d="M651.01,-56.44C623.3,-47.32 579.25,-32.81 548.38,-22.65"/>
<polygon fill="midnightblue" stroke="midnightblue" points="549.46,-19.32 538.86,-19.52 547.27,-25.97 549.46,-19.32"/>
</g>
<!-- Node19&#45;&gt;Node17 -->
<g id="edge24" class="edge">
<title>Node19&#45;&gt;Node17</title>
<path fill="none" stroke="midnightblue" d="M677,-179.4C677,-171.64 677,-161.81 677,-152.86"/>
<polygon fill="midnightblue" stroke="midnightblue" points="680.5,-152.58 677,-142.58 673.5,-152.58 680.5,-152.58"/>
</g>
<!-- Node20 -->
<g id="node20" class="node">
<title>Node20</title>
<g id="a_node20"><a xlink:href="_socket_writer_8h.html" target="_top" xlink:title=" ">
<polygon fill="white" stroke="black" points="753,-112.5 753,-142.5 863,-142.5 863,-112.5 753,-112.5"/>
<text text-anchor="start" x="761" y="-130.5" font-family="Helvetica,sans-Serif" font-size="10.00">core/socket/stream</text>
<text text-anchor="middle" x="808" y="-119.5" font-family="Helvetica,sans-Serif" font-size="10.00">/SocketWriter.h</text>
</a>
</g>
</g>
<!-- Node19&#45;&gt;Node20 -->
<g id="edge22" class="edge">
<title>Node19&#45;&gt;Node20</title>
<path fill="none" stroke="midnightblue" d="M705.43,-179.4C724.48,-169.94 749.78,-157.39 770.48,-147.12"/>
<polygon fill="midnightblue" stroke="midnightblue" points="772.23,-150.16 779.63,-142.58 769.12,-143.89 772.23,-150.16"/>
</g>
<!-- Node20&#45;&gt;Node18 -->
<g id="edge23" class="edge">
<title>Node20&#45;&gt;Node18</title>
<path fill="none" stroke="midnightblue" d="M776.95,-112.4C755.27,-102.55 726.54,-89.5 705.45,-79.92"/>
<polygon fill="midnightblue" stroke="midnightblue" points="706.61,-76.61 696.06,-75.66 703.72,-82.98 706.61,-76.61"/>
</g>
<!-- Node21&#45;&gt;Node16 -->
<g id="edge26" class="edge">
<title>Node21&#45;&gt;Node16</title>
<path fill="none" stroke="midnightblue" d="M538.18,-112.4C533.53,-104.02 527.6,-93.33 522.66,-84.42"/>
<polygon fill="midnightblue" stroke="midnightblue" points="525.71,-82.71 517.8,-75.66 519.59,-86.1 525.71,-82.71"/>
</g>
<!-- Node21&#45;&gt;Node18 -->
<g id="edge27" class="edge">
<title>Node21&#45;&gt;Node18</title>
<path fill="none" stroke="midnightblue" d="M577.05,-112.4C598.73,-102.55 627.46,-89.5 648.55,-79.92"/>
<polygon fill="midnightblue" stroke="midnightblue" points="650.28,-82.98 657.94,-75.66 647.39,-76.61 650.28,-82.98"/>
</g>
<!-- Node23 -->
<g id="node23" class="node">
<title>Node23</title>
<g id="a_node23"><a xlink:href="core_2socket_2_server_socket_8h.html" target="_top" xlink:title=" ">
<polygon fill="white" stroke="black" points="0,-319 0,-338 148,-338 148,-319 0,-319"/>
<text text-anchor="middle" x="74" y="-326" font-family="Helvetica,sans-Serif" font-size="10.00">core/socket/ServerSocket.h</text>
</a>
</g>
</g>
<!-- Node22&#45;&gt;Node23 -->
<g id="edge29" class="edge">
<title>Node22&#45;&gt;Node23</title>
<path fill="none" stroke="midnightblue" d="M208.42,-385.87C181.67,-374.65 134.75,-354.98 104.03,-342.09"/>
<polygon fill="midnightblue" stroke="midnightblue" points="105.24,-338.81 94.67,-338.17 102.54,-345.26 105.24,-338.81"/>
</g>
<!-- Node24 -->
<g id="node24" class="node">
<title>Node24</title>
<g id="a_node24"><a xlink:href="net_2in_2stream_2_socket_8h.html" target="_top" xlink:title=" ">
<polygon fill="white" stroke="black" points="166,-319 166,-338 292,-338 292,-319 166,-319"/>
<text text-anchor="middle" x="229" y="-326" font-family="Helvetica,sans-Serif" font-size="10.00">net/in/stream/Socket.h</text>
</a>
</g>
</g>
<!-- Node22&#45;&gt;Node24 -->
<g id="edge30" class="edge">
<title>Node22&#45;&gt;Node24</title>
<path fill="none" stroke="midnightblue" d="M229,-385.73C229,-376.18 229,-360.62 229,-348.28"/>
<polygon fill="midnightblue" stroke="midnightblue" points="232.5,-348.13 229,-338.13 225.5,-348.13 232.5,-348.13"/>
</g>
<!-- Node25 -->
<g id="node25" class="node">
<title>Node25</title>
<g id="a_node25"><a xlink:href="core_2socket_2_socket_8h.html" target="_top" xlink:title=" ">
<polygon fill="white" stroke="black" points="28,-252 28,-271 144,-271 144,-252 28,-252"/>
<text text-anchor="middle" x="86" y="-259" font-family="Helvetica,sans-Serif" font-size="10.00">core/socket/Socket.h</text>
</a>
</g>
</g>
<!-- Node24&#45;&gt;Node25 -->
<g id="edge31" class="edge">
<title>Node24&#45;&gt;Node25</title>
<path fill="none" stroke="midnightblue" d="M210.01,-318.87C185.54,-307.75 142.8,-288.32 114.44,-275.43"/>
<polygon fill="midnightblue" stroke="midnightblue" points="115.62,-272.12 105.07,-271.17 112.72,-278.49 115.62,-272.12"/>
</g>
<!-- Node27 -->
<g id="node27" class="node">
<title>Node27</title>
<g id="a_node27"><a xlink:href="net_2in_2_socket_address_8h.html" target="_top" xlink:title=" ">
<polygon fill="white" stroke="black" points="165,-252 165,-271 293,-271 293,-252 165,-252"/>
<text text-anchor="middle" x="229" y="-259" font-family="Helvetica,sans-Serif" font-size="10.00">net/in/SocketAddress.h</text>
</a>
</g>
</g>
<!-- Node24&#45;&gt;Node27 -->
<g id="edge33" class="edge">
<title>Node24&#45;&gt;Node27</title>
<path fill="none" stroke="midnightblue" d="M229,-318.73C229,-309.18 229,-293.62 229,-281.28"/>
<polygon fill="midnightblue" stroke="midnightblue" points="232.5,-281.13 229,-271.13 225.5,-281.13 232.5,-281.13"/>
</g>
<!-- Node26 -->
<g id="node26" class="node">
<title>Node26</title>
<g id="a_node26"><a xlink:href="_descriptor_8h.html" target="_top" xlink:title=" ">
<polygon fill="white" stroke="black" points="33,-185 33,-204 133,-204 133,-185 33,-185"/>
<text text-anchor="middle" x="83" y="-192" font-family="Helvetica,sans-Serif" font-size="10.00">core/Descriptor.h</text>
</a>
</g>
</g>
<!-- Node25&#45;&gt;Node26 -->
<g id="edge32" class="edge">
<title>Node25&#45;&gt;Node26</title>
<path fill="none" stroke="midnightblue" d="M85.6,-251.73C85.15,-242.18 84.44,-226.62 83.87,-214.28"/>
<polygon fill="midnightblue" stroke="midnightblue" points="87.36,-213.96 83.4,-204.13 80.36,-214.28 87.36,-213.96"/>
</g>
<!-- Node28 -->
<g id="node28" class="node">
<title>Node28</title>
<g id="a_node28"><a xlink:href="core_2socket_2_socket_address_8h.html" target="_top" xlink:title=" ">
<polygon fill="white" stroke="black" points="151.5,-185 151.5,-204 306.5,-204 306.5,-185 151.5,-185"/>
<text text-anchor="middle" x="229" y="-192" font-family="Helvetica,sans-Serif" font-size="10.00">core/socket/SocketAddress.h</text>
</a>
</g>
</g>
<!-- Node27&#45;&gt;Node28 -->
<g id="edge34" class="edge">
<title>Node27&#45;&gt;Node28</title>
<path fill="none" stroke="midnightblue" d="M229,-251.73C229,-242.18 229,-226.62 229,-214.28"/>
<polygon fill="midnightblue" stroke="midnightblue" points="232.5,-214.13 229,-204.13 225.5,-214.13 232.5,-214.13"/>
</g>
<!-- Node30 -->
<g id="node30" class="node">
<title>Node30</title>
<g id="a_node30"><a xlink:href="web_2http_2server_2_socket_context_factory_8h.html" target="_top" xlink:title=" ">
<polygon fill="white" stroke="black" points="980.5,-380.5 980.5,-410.5 1147.5,-410.5 1147.5,-380.5 980.5,-380.5"/>
<text text-anchor="start" x="988.5" y="-398.5" font-family="Helvetica,sans-Serif" font-size="10.00">web/http/server/SocketContext</text>
<text text-anchor="middle" x="1064" y="-387.5" font-family="Helvetica,sans-Serif" font-size="10.00">Factory.h</text>
</a>
</g>
</g>
<!-- Node29&#45;&gt;Node30 -->
<g id="edge36" class="edge">
<title>Node29&#45;&gt;Node30</title>
<path fill="none" stroke="midnightblue" d="M882.75,-452.87C914.86,-442.88 968.51,-426.2 1009.13,-413.56"/>
<polygon fill="midnightblue" stroke="midnightblue" points="1010.38,-416.84 1018.89,-410.53 1008.31,-410.16 1010.38,-416.84"/>
</g>
<!-- Node31 -->
<g id="node31" class="node">
<title>Node31</title>
<g id="a_node31"><a xlink:href="web_2http_2_socket_context_factory_8h.html" target="_top" xlink:title=" ">
<polygon fill="white" stroke="black" points="976,-319 976,-338 1152,-338 1152,-319 976,-319"/>
<text text-anchor="middle" x="1064" y="-326" font-family="Helvetica,sans-Serif" font-size="10.00">web/http/SocketContextFactory.h</text>
</a>
</g>
</g>
<!-- Node30&#45;&gt;Node31 -->
<g id="edge37" class="edge">
<title>Node30&#45;&gt;Node31</title>
<path fill="none" stroke="midnightblue" d="M1064,-380.4C1064,-371.06 1064,-358.71 1064,-348.52"/>
<polygon fill="midnightblue" stroke="midnightblue" points="1067.5,-348.19 1064,-338.19 1060.5,-348.19 1067.5,-348.19"/>
</g>
<!-- Node32 -->
<g id="node32" class="node">
<title>Node32</title>
<g id="a_node32"><a xlink:href="server_2_socket_context_8hpp.html" target="_top" xlink:title=" ">
<polygon fill="white" stroke="black" points="1199,-319 1199,-338 1387,-338 1387,-319 1199,-319"/>
<text text-anchor="middle" x="1293" y="-326" font-family="Helvetica,sans-Serif" font-size="10.00">web/http/server/SocketContext.hpp</text>
</a>
</g>
</g>
<!-- Node30&#45;&gt;Node32 -->
<g id="edge39" class="edge">
<title>Node30&#45;&gt;Node32</title>
<path fill="none" stroke="midnightblue" d="M1113.41,-380.48C1155.17,-368.62 1214.23,-351.86 1253.06,-340.84"/>
<polygon fill="midnightblue" stroke="midnightblue" points="1254.29,-344.13 1262.95,-338.03 1252.38,-337.39 1254.29,-344.13"/>
</g>
<!-- Node31&#45;&gt;Node13 -->
<g id="edge38" class="edge">
<title>Node31&#45;&gt;Node13</title>
<path fill="none" stroke="midnightblue" d="M1065.31,-318.73C1067.72,-303.56 1073.53,-271.62 1083,-246 1095.67,-211.7 1116.15,-174.66 1129.84,-151.52"/>
<polygon fill="midnightblue" stroke="midnightblue" points="1132.93,-153.17 1135.07,-142.8 1126.93,-149.57 1132.93,-153.17"/>
</g>
<!-- Node33 -->
<g id="node33" class="node">
<title>Node33</title>
<g id="a_node33"><a xlink:href="_connection_state_8h.html" target="_top" xlink:title=" ">
<polygon fill="white" stroke="black" points="1092,-252 1092,-271 1244,-271 1244,-252 1092,-252"/>
<text text-anchor="middle" x="1168" y="-259" font-family="Helvetica,sans-Serif" font-size="10.00">web/http/ConnectionState.h</text>
</a>
</g>
</g>
<!-- Node32&#45;&gt;Node33 -->
<g id="edge40" class="edge">
<title>Node32&#45;&gt;Node33</title>
<path fill="none" stroke="midnightblue" d="M1276.4,-318.87C1255.29,-307.89 1218.62,-288.82 1193.84,-275.94"/>
<polygon fill="midnightblue" stroke="midnightblue" points="1195.15,-272.68 1184.67,-271.17 1191.93,-278.89 1195.15,-272.68"/>
</g>
<!-- Node34 -->
<g id="node34" class="node">
<title>Node34</title>
<g id="a_node34"><a xlink:href="http__utils_8h.html" target="_top" xlink:title=" ">
<polygon fill="white" stroke="black" points="1262.5,-252 1262.5,-271 1379.5,-271 1379.5,-252 1262.5,-252"/>
<text text-anchor="middle" x="1321" y="-259" font-family="Helvetica,sans-Serif" font-size="10.00">web/http/http_utils.h</text>
</a>
</g>
</g>
<!-- Node32&#45;&gt;Node34 -->
<g id="edge41" class="edge">
<title>Node32&#45;&gt;Node34</title>
<path fill="none" stroke="midnightblue" d="M1296.78,-318.73C1300.97,-308.99 1307.87,-292.98 1313.23,-280.53"/>
<polygon fill="midnightblue" stroke="midnightblue" points="1316.54,-281.7 1317.28,-271.13 1310.11,-278.93 1316.54,-281.7"/>
</g>
<!-- Node35 -->
<g id="node35" class="node">
<title>Node35</title>
<g id="a_node35"><a xlink:href="web_2http_2server_2_socket_context_8h.html" target="_top" xlink:title=" ">
<polygon fill="white" stroke="black" points="1398,-252 1398,-271 1574,-271 1574,-252 1398,-252"/>
<text text-anchor="middle" x="1486" y="-259" font-family="Helvetica,sans-Serif" font-size="10.00">web/http/server/SocketContext.h</text>
</a>
</g>
</g>
<!-- Node32&#45;&gt;Node35 -->
<g id="edge42" class="edge">
<title>Node32&#45;&gt;Node35</title>
<path fill="none" stroke="midnightblue" d="M1318.63,-318.87C1352.61,-307.42 1412.72,-287.18 1450.9,-274.32"/>
<polygon fill="midnightblue" stroke="midnightblue" points="1452.21,-277.57 1460.57,-271.06 1449.98,-270.94 1452.21,-277.57"/>
</g>
<!-- Node36 -->
<g id="node36" class="node">
<title>Node36</title>
<g id="a_node36"><a xlink:href="web_2http_2_socket_context_8h.html" target="_top" xlink:title=" ">
<polygon fill="white" stroke="black" points="1242,-185 1242,-204 1384,-204 1384,-185 1242,-185"/>
<text text-anchor="middle" x="1313" y="-192" font-family="Helvetica,sans-Serif" font-size="10.00">web/http/SocketContext.h</text>
</a>
</g>
</g>
<!-- Node35&#45;&gt;Node36 -->
<g id="edge43" class="edge">
<title>Node35&#45;&gt;Node36</title>
<path fill="none" stroke="midnightblue" d="M1463.03,-251.87C1432.83,-240.52 1379.6,-220.52 1345.34,-207.65"/>
<polygon fill="midnightblue" stroke="midnightblue" points="1346.38,-204.3 1335.79,-204.06 1343.92,-210.86 1346.38,-204.3"/>
</g>
<!-- Node37 -->
<g id="node37" class="node">
<title>Node37</title>
<g id="a_node37"><a xlink:href="_request_parser_8h.html" target="_top" xlink:title=" ">
<polygon fill="white" stroke="black" points="1402,-185 1402,-204 1578,-204 1578,-185 1402,-185"/>
<text text-anchor="middle" x="1490" y="-192" font-family="Helvetica,sans-Serif" font-size="10.00">web/http/server/RequestParser.h</text>
</a>
</g>
</g>
<!-- Node35&#45;&gt;Node37 -->
<g id="edge45" class="edge">
<title>Node35&#45;&gt;Node37</title>
<path fill="none" stroke="midnightblue" d="M1486.54,-251.73C1487.13,-242.18 1488.09,-226.62 1488.84,-214.28"/>
<polygon fill="midnightblue" stroke="midnightblue" points="1492.35,-214.32 1489.47,-204.13 1485.36,-213.89 1492.35,-214.32"/>
</g>
<!-- Node36&#45;&gt;Node12 -->
<g id="edge44" class="edge">
<title>Node36&#45;&gt;Node12</title>
<path fill="none" stroke="midnightblue" d="M1313,-184.73C1313,-175.18 1313,-159.62 1313,-147.28"/>
<polygon fill="midnightblue" stroke="midnightblue" points="1316.5,-147.13 1313,-137.13 1309.5,-147.13 1316.5,-147.13"/>
</g>
<!-- Node38 -->
<g id="node38" class="node">
<title>Node38</title>
<g id="a_node38"><a xlink:href="_parser_8h.html" target="_top" xlink:title=" ">
<polygon fill="white" stroke="black" points="1439,-118 1439,-137 1541,-137 1541,-118 1439,-118"/>
<text text-anchor="middle" x="1490" y="-125" font-family="Helvetica,sans-Serif" font-size="10.00">web/http/Parser.h</text>
</a>
</g>
</g>
<!-- Node37&#45;&gt;Node38 -->
<g id="edge46" class="edge">
<title>Node37&#45;&gt;Node38</title>
<path fill="none" stroke="midnightblue" d="M1490,-184.73C1490,-175.18 1490,-159.62 1490,-147.28"/>
<polygon fill="midnightblue" stroke="midnightblue" points="1493.5,-147.13 1490,-137.13 1486.5,-147.13 1493.5,-147.13"/>
</g>
</g>
</svg>
