<?xml version="1.0" encoding="UTF-8" standalone="no"?>
<!DOCTYPE svg PUBLIC "-//W3C//DTD SVG 1.1//EN"
 "http://www.w3.org/Graphics/SVG/1.1/DTD/svg11.dtd">
<!-- Generated by graphviz version 2.43.0 (0)
 -->
<!-- Title: web/http/tls/rf/Client.h Pages: 1 -->
<svg width="1997pt" height="654pt"
 viewBox="0.00 0.00 1997.00 654.00" xmlns="http://www.w3.org/2000/svg" xmlns:xlink="http://www.w3.org/1999/xlink">
<g id="graph0" class="graph" transform="scale(1 1) rotate(0) translate(4 650)">
<title>web/http/tls/rf/Client.h</title>
<polygon fill="white" stroke="transparent" points="-4,4 -4,-650 1993,-650 1993,4 -4,4"/>
<!-- Node1 -->
<g id="node1" class="node">
<title>Node1</title>
<g id="a_node1"><a xlink:title=" ">
<polygon fill="#bfbfbf" stroke="black" points="1163,-626.5 1163,-645.5 1288,-645.5 1288,-626.5 1163,-626.5"/>
<text text-anchor="middle" x="1225.5" y="-633.5" font-family="Helvetica,sans-Serif" font-size="10.00">web/http/tls/rf/Client.h</text>
</a>
</g>
</g>
<!-- Node2 -->
<g id="node2" class="node">
<title>Node2</title>
<g id="a_node2"><a xlink:href="net_2rf_2stream_2tls_2_socket_client_8h.html" target="_top" xlink:title=" ">
<polygon fill="white" stroke="black" points="1086,-559.5 1086,-589.5 1217,-589.5 1217,-559.5 1086,-559.5"/>
<text text-anchor="start" x="1094" y="-577.5" font-family="Helvetica,sans-Serif" font-size="10.00">net/rf/stream/tls/Socket</text>
<text text-anchor="middle" x="1151.5" y="-566.5" font-family="Helvetica,sans-Serif" font-size="10.00">Client.h</text>
</a>
</g>
</g>
<!-- Node1&#45;&gt;Node2 -->
<g id="edge1" class="edge">
<title>Node1&#45;&gt;Node2</title>
<path fill="none" stroke="midnightblue" d="M1214.9,-626.48C1205.06,-618.57 1190.04,-606.48 1177.08,-596.07"/>
<polygon fill="midnightblue" stroke="midnightblue" points="1178.93,-593.06 1168.94,-589.52 1174.54,-598.52 1178.93,-593.06"/>
</g>
<!-- Node40 -->
<g id="node40" class="node">
<title>Node40</title>
<g id="a_node40"><a xlink:href="client_2_client_8h.html" target="_top" xlink:title=" ">
<polygon fill="white" stroke="black" points="1405.5,-565 1405.5,-584 1535.5,-584 1535.5,-565 1405.5,-565"/>
<text text-anchor="middle" x="1470.5" y="-572" font-family="Helvetica,sans-Serif" font-size="10.00">web/http/client/Client.h</text>
</a>
</g>
</g>
<!-- Node1&#45;&gt;Node40 -->
<g id="edge49" class="edge">
<title>Node1&#45;&gt;Node40</title>
<path fill="none" stroke="midnightblue" d="M1260.6,-626.48C1303.99,-615.94 1377.91,-597.99 1425.45,-586.44"/>
<polygon fill="midnightblue" stroke="midnightblue" points="1426.57,-589.77 1435.46,-584.01 1424.92,-582.97 1426.57,-589.77"/>
</g>
<!-- Node3 -->
<g id="node3" class="node">
<title>Node3</title>
<g id="a_node3"><a xlink:href="core_2socket_2stream_2tls_2_socket_client_8h.html" target="_top" xlink:title=" ">
<polygon fill="white" stroke="black" points="673.5,-492.5 673.5,-522.5 783.5,-522.5 783.5,-492.5 673.5,-492.5"/>
<text text-anchor="start" x="681.5" y="-510.5" font-family="Helvetica,sans-Serif" font-size="10.00">core/socket/stream</text>
<text text-anchor="middle" x="728.5" y="-499.5" font-family="Helvetica,sans-Serif" font-size="10.00">/tls/SocketClient.h</text>
</a>
</g>
</g>
<!-- Node2&#45;&gt;Node3 -->
<g id="edge2" class="edge">
<title>Node2&#45;&gt;Node3</title>
<path fill="none" stroke="midnightblue" d="M1085.87,-563.42C1006.47,-551.21 873.61,-530.8 794.19,-518.59"/>
<polygon fill="midnightblue" stroke="midnightblue" points="794.24,-515.06 783.82,-517 793.17,-521.98 794.24,-515.06"/>
</g>
<!-- Node23 -->
<g id="node23" class="node">
<title>Node23</title>
<g id="a_node23"><a xlink:href="net_2rf_2stream_2_client_socket_8h.html" target="_top" xlink:title=" ">
<polygon fill="white" stroke="black" points="984,-498 984,-517 1137,-517 1137,-498 984,-498"/>
<text text-anchor="middle" x="1060.5" y="-505" font-family="Helvetica,sans-Serif" font-size="10.00">net/rf/stream/ClientSocket.h</text>
</a>
</g>
</g>
<!-- Node2&#45;&gt;Node23 -->
<g id="edge30" class="edge">
<title>Node2&#45;&gt;Node23</title>
<path fill="none" stroke="midnightblue" d="M1131.75,-559.4C1116.64,-548.6 1095.86,-533.76 1080.64,-522.89"/>
<polygon fill="midnightblue" stroke="midnightblue" points="1082.58,-519.97 1072.41,-517.01 1078.51,-525.67 1082.58,-519.97"/>
</g>
<!-- Node30 -->
<g id="node30" class="node">
<title>Node30</title>
<g id="a_node30"><a xlink:href="rf_2stream_2tls_2_client_config_8h.html" target="_top" xlink:title=" ">
<polygon fill="white" stroke="black" points="1168,-492.5 1168,-522.5 1295,-522.5 1295,-492.5 1168,-492.5"/>
<text text-anchor="start" x="1176" y="-510.5" font-family="Helvetica,sans-Serif" font-size="10.00">net/rf/stream/tls/Client</text>
<text text-anchor="middle" x="1231.5" y="-499.5" font-family="Helvetica,sans-Serif" font-size="10.00">Config.h</text>
</a>
</g>
</g>
<!-- Node2&#45;&gt;Node30 -->
<g id="edge37" class="edge">
<title>Node2&#45;&gt;Node30</title>
<path fill="none" stroke="midnightblue" d="M1168.86,-559.4C1179.76,-550.54 1194.01,-538.96 1206.16,-529.09"/>
<polygon fill="midnightblue" stroke="midnightblue" points="1208.62,-531.6 1214.18,-522.58 1204.21,-526.17 1208.62,-531.6"/>
</g>
<!-- Node4 -->
<g id="node4" class="node">
<title>Node4</title>
<g id="a_node4"><a xlink:href="core_2socket_2stream_2_socket_client_8h.html" target="_top" xlink:title=" ">
<polygon fill="white" stroke="black" points="537.5,-425.5 537.5,-455.5 647.5,-455.5 647.5,-425.5 537.5,-425.5"/>
<text text-anchor="start" x="545.5" y="-443.5" font-family="Helvetica,sans-Serif" font-size="10.00">core/socket/stream</text>
<text text-anchor="middle" x="592.5" y="-432.5" font-family="Helvetica,sans-Serif" font-size="10.00">/SocketClient.h</text>
</a>
</g>
</g>
<!-- Node3&#45;&gt;Node4 -->
<g id="edge3" class="edge">
<title>Node3&#45;&gt;Node4</title>
<path fill="none" stroke="midnightblue" d="M698.99,-492.4C679.12,-482.9 652.71,-470.28 631.16,-459.98"/>
<polygon fill="midnightblue" stroke="midnightblue" points="632.48,-456.73 621.95,-455.58 629.47,-463.05 632.48,-456.73"/>
</g>
<!-- Node5 -->
<g id="node5" class="node">
<title>Node5</title>
<g id="a_node5"><a xlink:href="tls_2_socket_connector_8h.html" target="_top" xlink:title=" ">
<polygon fill="white" stroke="black" points="666,-425.5 666,-455.5 791,-455.5 791,-425.5 666,-425.5"/>
<text text-anchor="start" x="674" y="-443.5" font-family="Helvetica,sans-Serif" font-size="10.00">core/socket/stream</text>
<text text-anchor="middle" x="728.5" y="-432.5" font-family="Helvetica,sans-Serif" font-size="10.00">/tls/SocketConnector.h</text>
</a>
</g>
</g>
<!-- Node3&#45;&gt;Node5 -->
<g id="edge4" class="edge">
<title>Node3&#45;&gt;Node5</title>
<path fill="none" stroke="midnightblue" d="M728.5,-492.4C728.5,-484.64 728.5,-474.81 728.5,-465.86"/>
<polygon fill="midnightblue" stroke="midnightblue" points="732,-465.58 728.5,-455.58 725,-465.58 732,-465.58"/>
</g>
<!-- Node6 -->
<g id="node6" class="node">
<title>Node6</title>
<g id="a_node6"><a xlink:href="_socket_connector_8h.html" target="_top" xlink:title=" ">
<polygon fill="white" stroke="black" points="707.5,-224.5 707.5,-254.5 817.5,-254.5 817.5,-224.5 707.5,-224.5"/>
<text text-anchor="start" x="715.5" y="-242.5" font-family="Helvetica,sans-Serif" font-size="10.00">core/socket/stream</text>
<text text-anchor="middle" x="762.5" y="-231.5" font-family="Helvetica,sans-Serif" font-size="10.00">/SocketConnector.h</text>
</a>
</g>
</g>
<!-- Node5&#45;&gt;Node6 -->
<g id="edge5" class="edge">
<title>Node5&#45;&gt;Node6</title>
<path fill="none" stroke="midnightblue" d="M730.95,-425.19C736.72,-391.41 751.23,-306.44 758.39,-264.57"/>
<polygon fill="midnightblue" stroke="midnightblue" points="761.84,-265.13 760.08,-254.68 754.94,-263.95 761.84,-265.13"/>
</g>
<!-- Node12 -->
<g id="node12" class="node">
<title>Node12</title>
<g id="a_node12"><a xlink:href="stream_2tls_2_socket_connection_8h.html" target="_top" xlink:title=" ">
<polygon fill="white" stroke="black" points="308,-358.5 308,-388.5 439,-388.5 439,-358.5 308,-358.5"/>
<text text-anchor="start" x="316" y="-376.5" font-family="Helvetica,sans-Serif" font-size="10.00">core/socket/stream</text>
<text text-anchor="middle" x="373.5" y="-365.5" font-family="Helvetica,sans-Serif" font-size="10.00">/tls/SocketConnection.h</text>
</a>
</g>
</g>
<!-- Node5&#45;&gt;Node12 -->
<g id="edge12" class="edge">
<title>Node5&#45;&gt;Node12</title>
<path fill="none" stroke="midnightblue" d="M665.69,-426.77C662.58,-426.16 659.51,-425.57 656.5,-425 586.31,-411.67 506.12,-397.46 449.07,-387.52"/>
<polygon fill="midnightblue" stroke="midnightblue" points="449.5,-384.04 439.05,-385.77 448.3,-390.94 449.5,-384.04"/>
</g>
<!-- Node7 -->
<g id="node7" class="node">
<title>Node7</title>
<g id="a_node7"><a xlink:href="_connect_event_receiver_8h.html" target="_top" xlink:title=" ">
<polygon fill="white" stroke="black" points="610.5,-168.5 610.5,-187.5 770.5,-187.5 770.5,-168.5 610.5,-168.5"/>
<text text-anchor="middle" x="690.5" y="-175.5" font-family="Helvetica,sans-Serif" font-size="10.00">core/ConnectEventReceiver.h</text>
</a>
</g>
</g>
<!-- Node6&#45;&gt;Node7 -->
<g id="edge6" class="edge">
<title>Node6&#45;&gt;Node7</title>
<path fill="none" stroke="midnightblue" d="M745.44,-224.4C734.44,-215.31 720.13,-203.49 708.88,-194.19"/>
<polygon fill="midnightblue" stroke="midnightblue" points="710.91,-191.33 700.98,-187.66 706.46,-196.73 710.91,-191.33"/>
</g>
<!-- Node11 -->
<g id="node11" class="node">
<title>Node11</title>
<g id="a_node11"><a xlink:href="_init_connect_event_receiver_8h.html" target="_top" xlink:title=" ">
<polygon fill="white" stroke="black" points="688.5,-112.5 688.5,-131.5 864.5,-131.5 864.5,-112.5 688.5,-112.5"/>
<text text-anchor="middle" x="776.5" y="-119.5" font-family="Helvetica,sans-Serif" font-size="10.00">core/InitConnectEventReceiver.h</text>
</a>
</g>
</g>
<!-- Node6&#45;&gt;Node11 -->
<g id="edge10" class="edge">
<title>Node6&#45;&gt;Node11</title>
<path fill="none" stroke="midnightblue" d="M768.69,-224.23C772.66,-214.29 777.44,-200.6 779.5,-188 782.01,-172.65 780.96,-155.01 779.44,-141.99"/>
<polygon fill="midnightblue" stroke="midnightblue" points="782.89,-141.34 778.07,-131.9 775.95,-142.28 782.89,-141.34"/>
</g>
<!-- Node8 -->
<g id="node8" class="node">
<title>Node8</title>
<g id="a_node8"><a xlink:href="_descriptor_event_receiver_8h.html" target="_top" xlink:title=" ">
<polygon fill="white" stroke="black" points="478.5,-112.5 478.5,-131.5 648.5,-131.5 648.5,-112.5 478.5,-112.5"/>
<text text-anchor="middle" x="563.5" y="-119.5" font-family="Helvetica,sans-Serif" font-size="10.00">core/DescriptorEventReceiver.h</text>
</a>
</g>
</g>
<!-- Node7&#45;&gt;Node8 -->
<g id="edge7" class="edge">
<title>Node7&#45;&gt;Node8</title>
<path fill="none" stroke="midnightblue" d="M670.38,-168.44C649.48,-159.56 616.57,-145.56 592.78,-135.45"/>
<polygon fill="midnightblue" stroke="midnightblue" points="594.1,-132.21 583.53,-131.52 591.36,-138.65 594.1,-132.21"/>
</g>
<!-- Node9 -->
<g id="node9" class="node">
<title>Node9</title>
<g id="a_node9"><a xlink:href="_event_receiver_8h.html" target="_top" xlink:title=" ">
<polygon fill="white" stroke="black" points="598.5,-56.5 598.5,-75.5 718.5,-75.5 718.5,-56.5 598.5,-56.5"/>
<text text-anchor="middle" x="658.5" y="-63.5" font-family="Helvetica,sans-Serif" font-size="10.00">core/EventReceiver.h</text>
</a>
</g>
</g>
<!-- Node8&#45;&gt;Node9 -->
<g id="edge8" class="edge">
<title>Node8&#45;&gt;Node9</title>
<path fill="none" stroke="midnightblue" d="M578.76,-112.32C593.72,-103.82 616.75,-90.73 634.23,-80.8"/>
<polygon fill="midnightblue" stroke="midnightblue" points="636.31,-83.64 643.27,-75.65 632.85,-77.55 636.31,-83.64"/>
</g>
<!-- Node10 -->
<g id="node10" class="node">
<title>Node10</title>
<g id="a_node10"><a xlink:href="_event_8h.html" target="_top" xlink:title=" ">
<polygon fill="white" stroke="black" points="620,-0.5 620,-19.5 697,-19.5 697,-0.5 620,-0.5"/>
<text text-anchor="middle" x="658.5" y="-7.5" font-family="Helvetica,sans-Serif" font-size="10.00">core/Event.h</text>
</a>
</g>
</g>
<!-- Node9&#45;&gt;Node10 -->
<g id="edge9" class="edge">
<title>Node9&#45;&gt;Node10</title>
<path fill="none" stroke="midnightblue" d="M658.5,-56.08C658.5,-49.01 658.5,-38.86 658.5,-29.99"/>
<polygon fill="midnightblue" stroke="midnightblue" points="662,-29.75 658.5,-19.75 655,-29.75 662,-29.75"/>
</g>
<!-- Node11&#45;&gt;Node9 -->
<g id="edge11" class="edge">
<title>Node11&#45;&gt;Node9</title>
<path fill="none" stroke="midnightblue" d="M757.8,-112.44C738.56,-103.64 708.35,-89.81 686.3,-79.72"/>
<polygon fill="midnightblue" stroke="midnightblue" points="687.66,-76.5 677.11,-75.52 684.75,-82.86 687.66,-76.5"/>
</g>
<!-- Node13 -->
<g id="node13" class="node">
<title>Node13</title>
<g id="a_node13"><a xlink:href="stream_2_socket_connection_8h.html" target="_top" xlink:title=" ">
<polygon fill="white" stroke="black" points="87.5,-291.5 87.5,-321.5 203.5,-321.5 203.5,-291.5 87.5,-291.5"/>
<text text-anchor="start" x="95.5" y="-309.5" font-family="Helvetica,sans-Serif" font-size="10.00">core/socket/stream</text>
<text text-anchor="middle" x="145.5" y="-298.5" font-family="Helvetica,sans-Serif" font-size="10.00">/SocketConnection.h</text>
</a>
</g>
</g>
<!-- Node12&#45;&gt;Node13 -->
<g id="edge13" class="edge">
<title>Node12&#45;&gt;Node13</title>
<path fill="none" stroke="midnightblue" d="M324.31,-358.48C289.22,-348.47 241.86,-334.97 204.7,-324.38"/>
<polygon fill="midnightblue" stroke="midnightblue" points="205.57,-320.99 195,-321.61 203.65,-327.72 205.57,-320.99"/>
</g>
<!-- Node15 -->
<g id="node15" class="node">
<title>Node15</title>
<g id="a_node15"><a xlink:href="tls_2_socket_reader_8h.html" target="_top" xlink:title=" ">
<polygon fill="white" stroke="black" points="318.5,-291.5 318.5,-321.5 428.5,-321.5 428.5,-291.5 318.5,-291.5"/>
<text text-anchor="start" x="326.5" y="-309.5" font-family="Helvetica,sans-Serif" font-size="10.00">core/socket/stream</text>
<text text-anchor="middle" x="373.5" y="-298.5" font-family="Helvetica,sans-Serif" font-size="10.00">/tls/SocketReader.h</text>
</a>
</g>
</g>
<!-- Node12&#45;&gt;Node15 -->
<g id="edge15" class="edge">
<title>Node12&#45;&gt;Node15</title>
<path fill="none" stroke="midnightblue" d="M373.5,-358.4C373.5,-350.64 373.5,-340.81 373.5,-331.86"/>
<polygon fill="midnightblue" stroke="midnightblue" points="377,-331.58 373.5,-321.58 370,-331.58 377,-331.58"/>
</g>
<!-- Node20 -->
<g id="node20" class="node">
<title>Node20</title>
<g id="a_node20"><a xlink:href="tls_2_socket_writer_8h.html" target="_top" xlink:title=" ">
<polygon fill="white" stroke="black" points="448.5,-291.5 448.5,-321.5 558.5,-321.5 558.5,-291.5 448.5,-291.5"/>
<text text-anchor="start" x="456.5" y="-309.5" font-family="Helvetica,sans-Serif" font-size="10.00">core/socket/stream</text>
<text text-anchor="middle" x="503.5" y="-298.5" font-family="Helvetica,sans-Serif" font-size="10.00">/tls/SocketWriter.h</text>
</a>
</g>
</g>
<!-- Node12&#45;&gt;Node20 -->
<g id="edge23" class="edge">
<title>Node12&#45;&gt;Node20</title>
<path fill="none" stroke="midnightblue" d="M401.71,-358.4C420.62,-348.94 445.72,-336.39 466.27,-326.12"/>
<polygon fill="midnightblue" stroke="midnightblue" points="467.97,-329.18 475.35,-321.58 464.84,-322.92 467.97,-329.18"/>
</g>
<!-- Node22 -->
<g id="node22" class="node">
<title>Node22</title>
<g id="a_node22"><a xlink:href="_t_l_s_shutdown_8h.html" target="_top" xlink:title=" ">
<polygon fill="white" stroke="black" points="189.5,-224.5 189.5,-254.5 299.5,-254.5 299.5,-224.5 189.5,-224.5"/>
<text text-anchor="start" x="197.5" y="-242.5" font-family="Helvetica,sans-Serif" font-size="10.00">core/socket/stream</text>
<text text-anchor="middle" x="244.5" y="-231.5" font-family="Helvetica,sans-Serif" font-size="10.00">/tls/TLSShutdown.h</text>
</a>
</g>
</g>
<!-- Node12&#45;&gt;Node22 -->
<g id="edge27" class="edge">
<title>Node12&#45;&gt;Node22</title>
<path fill="none" stroke="midnightblue" d="M353.2,-358.35C340.1,-348.78 323.05,-335.48 309.5,-322 290.93,-303.52 272.57,-279.88 260.13,-262.82"/>
<polygon fill="midnightblue" stroke="midnightblue" points="262.87,-260.64 254.19,-254.57 257.19,-264.73 262.87,-260.64"/>
</g>
<!-- Node14 -->
<g id="node14" class="node">
<title>Node14</title>
<g id="a_node14"><a xlink:href="_socket_connection_8h.html" target="_top" xlink:title=" ">
<polygon fill="white" stroke="black" points="0,-230 0,-249 171,-249 171,-230 0,-230"/>
<text text-anchor="middle" x="85.5" y="-237" font-family="Helvetica,sans-Serif" font-size="10.00">core/socket/SocketConnection.h</text>
</a>
</g>
</g>
<!-- Node13&#45;&gt;Node14 -->
<g id="edge14" class="edge">
<title>Node13&#45;&gt;Node14</title>
<path fill="none" stroke="midnightblue" d="M132.48,-291.4C123.03,-281.16 110.23,-267.3 100.38,-256.62"/>
<polygon fill="midnightblue" stroke="midnightblue" points="102.88,-254.17 93.53,-249.19 97.74,-258.92 102.88,-254.17"/>
</g>
<!-- Node16 -->
<g id="node16" class="node">
<title>Node16</title>
<g id="a_node16"><a xlink:href="_socket_reader_8h.html" target="_top" xlink:title=" ">
<polygon fill="white" stroke="black" points="317.5,-224.5 317.5,-254.5 427.5,-254.5 427.5,-224.5 317.5,-224.5"/>
<text text-anchor="start" x="325.5" y="-242.5" font-family="Helvetica,sans-Serif" font-size="10.00">core/socket/stream</text>
<text text-anchor="middle" x="372.5" y="-231.5" font-family="Helvetica,sans-Serif" font-size="10.00">/SocketReader.h</text>
</a>
</g>
</g>
<!-- Node15&#45;&gt;Node16 -->
<g id="edge16" class="edge">
<title>Node15&#45;&gt;Node16</title>
<path fill="none" stroke="midnightblue" d="M373.28,-291.4C373.16,-283.64 373.01,-273.81 372.87,-264.86"/>
<polygon fill="midnightblue" stroke="midnightblue" points="376.37,-264.52 372.72,-254.58 369.37,-264.63 376.37,-264.52"/>
</g>
<!-- Node18 -->
<g id="node18" class="node">
<title>Node18</title>
<g id="a_node18"><a xlink:href="_t_l_s_handshake_8h.html" target="_top" xlink:title=" ">
<polygon fill="white" stroke="black" points="446,-224.5 446,-254.5 561,-254.5 561,-224.5 446,-224.5"/>
<text text-anchor="start" x="454" y="-242.5" font-family="Helvetica,sans-Serif" font-size="10.00">core/socket/stream</text>
<text text-anchor="middle" x="503.5" y="-231.5" font-family="Helvetica,sans-Serif" font-size="10.00">/tls/TLSHandshake.h</text>
</a>
</g>
</g>
<!-- Node15&#45;&gt;Node18 -->
<g id="edge19" class="edge">
<title>Node15&#45;&gt;Node18</title>
<path fill="none" stroke="midnightblue" d="M401.71,-291.4C420.62,-281.94 445.72,-269.39 466.27,-259.12"/>
<polygon fill="midnightblue" stroke="midnightblue" points="467.97,-262.18 475.35,-254.58 464.84,-255.92 467.97,-262.18"/>
</g>
<!-- Node17 -->
<g id="node17" class="node">
<title>Node17</title>
<g id="a_node17"><a xlink:href="_read_event_receiver_8h.html" target="_top" xlink:title=" ">
<polygon fill="white" stroke="black" points="283,-168.5 283,-187.5 428,-187.5 428,-168.5 283,-168.5"/>
<text text-anchor="middle" x="355.5" y="-175.5" font-family="Helvetica,sans-Serif" font-size="10.00">core/ReadEventReceiver.h</text>
</a>
</g>
</g>
<!-- Node16&#45;&gt;Node17 -->
<g id="edge17" class="edge">
<title>Node16&#45;&gt;Node17</title>
<path fill="none" stroke="midnightblue" d="M368.47,-224.4C366.15,-216.29 363.22,-206.01 360.72,-197.28"/>
<polygon fill="midnightblue" stroke="midnightblue" points="364.09,-196.31 357.97,-187.66 357.36,-198.23 364.09,-196.31"/>
</g>
<!-- Node17&#45;&gt;Node8 -->
<g id="edge18" class="edge">
<title>Node17&#45;&gt;Node8</title>
<path fill="none" stroke="midnightblue" d="M388.46,-168.44C424.29,-159.14 481.66,-144.25 520.89,-134.06"/>
<polygon fill="midnightblue" stroke="midnightblue" points="521.9,-137.42 530.7,-131.52 520.14,-130.64 521.9,-137.42"/>
</g>
<!-- Node18&#45;&gt;Node17 -->
<g id="edge20" class="edge">
<title>Node18&#45;&gt;Node17</title>
<path fill="none" stroke="midnightblue" d="M468.43,-224.4C443.48,-214.37 410.29,-201.03 386.36,-191.4"/>
<polygon fill="midnightblue" stroke="midnightblue" points="387.62,-188.14 377.04,-187.66 385.01,-194.64 387.62,-188.14"/>
</g>
<!-- Node19 -->
<g id="node19" class="node">
<title>Node19</title>
<g id="a_node19"><a xlink:href="_write_event_receiver_8h.html" target="_top" xlink:title=" ">
<polygon fill="white" stroke="black" points="446.5,-168.5 446.5,-187.5 592.5,-187.5 592.5,-168.5 446.5,-168.5"/>
<text text-anchor="middle" x="519.5" y="-175.5" font-family="Helvetica,sans-Serif" font-size="10.00">core/WriteEventReceiver.h</text>
</a>
</g>
</g>
<!-- Node18&#45;&gt;Node19 -->
<g id="edge21" class="edge">
<title>Node18&#45;&gt;Node19</title>
<path fill="none" stroke="midnightblue" d="M507.29,-224.4C509.45,-216.38 512.18,-206.23 514.51,-197.57"/>
<polygon fill="midnightblue" stroke="midnightblue" points="517.95,-198.22 517.17,-187.66 511.2,-196.41 517.95,-198.22"/>
</g>
<!-- Node19&#45;&gt;Node8 -->
<g id="edge22" class="edge">
<title>Node19&#45;&gt;Node8</title>
<path fill="none" stroke="midnightblue" d="M526.77,-168.08C533.04,-160.38 542.29,-149.03 549.93,-139.65"/>
<polygon fill="midnightblue" stroke="midnightblue" points="552.77,-141.71 556.37,-131.75 547.34,-137.29 552.77,-141.71"/>
</g>
<!-- Node20&#45;&gt;Node18 -->
<g id="edge26" class="edge">
<title>Node20&#45;&gt;Node18</title>
<path fill="none" stroke="midnightblue" d="M503.5,-291.4C503.5,-283.64 503.5,-273.81 503.5,-264.86"/>
<polygon fill="midnightblue" stroke="midnightblue" points="507,-264.58 503.5,-254.58 500,-264.58 507,-264.58"/>
</g>
<!-- Node21 -->
<g id="node21" class="node">
<title>Node21</title>
<g id="a_node21"><a xlink:href="_socket_writer_8h.html" target="_top" xlink:title=" ">
<polygon fill="white" stroke="black" points="579.5,-224.5 579.5,-254.5 689.5,-254.5 689.5,-224.5 579.5,-224.5"/>
<text text-anchor="start" x="587.5" y="-242.5" font-family="Helvetica,sans-Serif" font-size="10.00">core/socket/stream</text>
<text text-anchor="middle" x="634.5" y="-231.5" font-family="Helvetica,sans-Serif" font-size="10.00">/SocketWriter.h</text>
</a>
</g>
</g>
<!-- Node20&#45;&gt;Node21 -->
<g id="edge24" class="edge">
<title>Node20&#45;&gt;Node21</title>
<path fill="none" stroke="midnightblue" d="M531.93,-291.4C550.98,-281.94 576.28,-269.39 596.98,-259.12"/>
<polygon fill="midnightblue" stroke="midnightblue" points="598.73,-262.16 606.13,-254.58 595.62,-255.89 598.73,-262.16"/>
</g>
<!-- Node21&#45;&gt;Node19 -->
<g id="edge25" class="edge">
<title>Node21&#45;&gt;Node19</title>
<path fill="none" stroke="midnightblue" d="M607.25,-224.4C588.47,-214.68 563.67,-201.86 545.23,-192.31"/>
<polygon fill="midnightblue" stroke="midnightblue" points="546.72,-189.14 536.23,-187.66 543.51,-195.36 546.72,-189.14"/>
</g>
<!-- Node22&#45;&gt;Node17 -->
<g id="edge28" class="edge">
<title>Node22&#45;&gt;Node17</title>
<path fill="none" stroke="midnightblue" d="M270.81,-224.4C288.76,-214.77 312.42,-202.09 330.17,-192.58"/>
<polygon fill="midnightblue" stroke="midnightblue" points="332.19,-195.47 339.35,-187.66 328.88,-189.3 332.19,-195.47"/>
</g>
<!-- Node22&#45;&gt;Node19 -->
<g id="edge29" class="edge">
<title>Node22&#45;&gt;Node19</title>
<path fill="none" stroke="midnightblue" d="M299.65,-225.96C302.64,-225.29 305.61,-224.64 308.5,-224 363.19,-211.97 425.97,-198.64 468.74,-189.64"/>
<polygon fill="midnightblue" stroke="midnightblue" points="469.56,-193.04 478.62,-187.56 468.12,-186.19 469.56,-193.04"/>
</g>
<!-- Node24 -->
<g id="node24" class="node">
<title>Node24</title>
<g id="a_node24"><a xlink:href="core_2socket_2_client_socket_8h.html" target="_top" xlink:title=" ">
<polygon fill="white" stroke="black" points="988,-431 988,-450 1133,-450 1133,-431 988,-431"/>
<text text-anchor="middle" x="1060.5" y="-438" font-family="Helvetica,sans-Serif" font-size="10.00">core/socket/ClientSocket.h</text>
</a>
</g>
</g>
<!-- Node23&#45;&gt;Node24 -->
<g id="edge31" class="edge">
<title>Node23&#45;&gt;Node24</title>
<path fill="none" stroke="midnightblue" d="M1060.5,-497.73C1060.5,-488.18 1060.5,-472.62 1060.5,-460.28"/>
<polygon fill="midnightblue" stroke="midnightblue" points="1064,-460.13 1060.5,-450.13 1057,-460.13 1064,-460.13"/>
</g>
<!-- Node25 -->
<g id="node25" class="node">
<title>Node25</title>
<g id="a_node25"><a xlink:href="net_2rf_2stream_2_socket_8h.html" target="_top" xlink:title=" ">
<polygon fill="white" stroke="black" points="838,-431 838,-450 963,-450 963,-431 838,-431"/>
<text text-anchor="middle" x="900.5" y="-438" font-family="Helvetica,sans-Serif" font-size="10.00">net/rf/stream/Socket.h</text>
</a>
</g>
</g>
<!-- Node23&#45;&gt;Node25 -->
<g id="edge32" class="edge">
<title>Node23&#45;&gt;Node25</title>
<path fill="none" stroke="midnightblue" d="M1039.25,-497.87C1011.56,-486.62 962.94,-466.87 931.23,-453.99"/>
<polygon fill="midnightblue" stroke="midnightblue" points="932.16,-450.58 921.58,-450.06 929.53,-457.07 932.16,-450.58"/>
</g>
<!-- Node26 -->
<g id="node26" class="node">
<title>Node26</title>
<g id="a_node26"><a xlink:href="core_2socket_2_socket_8h.html" target="_top" xlink:title=" ">
<polygon fill="white" stroke="black" points="756.5,-364 756.5,-383 872.5,-383 872.5,-364 756.5,-364"/>
<text text-anchor="middle" x="814.5" y="-371" font-family="Helvetica,sans-Serif" font-size="10.00">core/socket/Socket.h</text>
</a>
</g>
</g>
<!-- Node25&#45;&gt;Node26 -->
<g id="edge33" class="edge">
<title>Node25&#45;&gt;Node26</title>
<path fill="none" stroke="midnightblue" d="M888.9,-430.73C874.85,-420.11 850.95,-402.05 834.03,-389.26"/>
<polygon fill="midnightblue" stroke="midnightblue" points="836,-386.36 825.91,-383.13 831.78,-391.95 836,-386.36"/>
</g>
<!-- Node28 -->
<g id="node28" class="node">
<title>Node28</title>
<g id="a_node28"><a xlink:href="net_2rf_2_socket_address_8h.html" target="_top" xlink:title=" ">
<polygon fill="white" stroke="black" points="902.5,-297 902.5,-316 1028.5,-316 1028.5,-297 902.5,-297"/>
<text text-anchor="middle" x="965.5" y="-304" font-family="Helvetica,sans-Serif" font-size="10.00">net/rf/SocketAddress.h</text>
</a>
</g>
</g>
<!-- Node25&#45;&gt;Node28 -->
<g id="edge35" class="edge">
<title>Node25&#45;&gt;Node28</title>
<path fill="none" stroke="midnightblue" d="M901.08,-430.91C902.41,-415.49 906.66,-382.43 919.5,-358 926.48,-344.71 937.8,-332.22 947.47,-322.99"/>
<polygon fill="midnightblue" stroke="midnightblue" points="950.04,-325.38 955.06,-316.05 945.32,-320.21 950.04,-325.38"/>
</g>
<!-- Node27 -->
<g id="node27" class="node">
<title>Node27</title>
<g id="a_node27"><a xlink:href="_descriptor_8h.html" target="_top" xlink:title=" ">
<polygon fill="white" stroke="black" points="764.5,-297 764.5,-316 864.5,-316 864.5,-297 764.5,-297"/>
<text text-anchor="middle" x="814.5" y="-304" font-family="Helvetica,sans-Serif" font-size="10.00">core/Descriptor.h</text>
</a>
</g>
</g>
<!-- Node26&#45;&gt;Node27 -->
<g id="edge34" class="edge">
<title>Node26&#45;&gt;Node27</title>
<path fill="none" stroke="midnightblue" d="M814.5,-363.73C814.5,-354.18 814.5,-338.62 814.5,-326.28"/>
<polygon fill="midnightblue" stroke="midnightblue" points="818,-326.13 814.5,-316.13 811,-326.13 818,-326.13"/>
</g>
<!-- Node29 -->
<g id="node29" class="node">
<title>Node29</title>
<g id="a_node29"><a xlink:href="core_2socket_2_socket_address_8h.html" target="_top" xlink:title=" ">
<polygon fill="white" stroke="black" points="888,-230 888,-249 1043,-249 1043,-230 888,-230"/>
<text text-anchor="middle" x="965.5" y="-237" font-family="Helvetica,sans-Serif" font-size="10.00">core/socket/SocketAddress.h</text>
</a>
</g>
</g>
<!-- Node28&#45;&gt;Node29 -->
<g id="edge36" class="edge">
<title>Node28&#45;&gt;Node29</title>
<path fill="none" stroke="midnightblue" d="M965.5,-296.73C965.5,-287.18 965.5,-271.62 965.5,-259.28"/>
<polygon fill="midnightblue" stroke="midnightblue" points="969,-259.13 965.5,-249.13 962,-259.13 969,-259.13"/>
</g>
<!-- Node31 -->
<g id="node31" class="node">
<title>Node31</title>
<g id="a_node31"><a xlink:href="_config_tls_8h.html" target="_top" xlink:title=" ">
<polygon fill="white" stroke="black" points="1325.5,-431 1325.5,-450 1415.5,-450 1415.5,-431 1325.5,-431"/>
<text text-anchor="middle" x="1370.5" y="-438" font-family="Helvetica,sans-Serif" font-size="10.00">net/ConfigTls.h</text>
</a>
</g>
</g>
<!-- Node30&#45;&gt;Node31 -->
<g id="edge38" class="edge">
<title>Node30&#45;&gt;Node31</title>
<path fill="none" stroke="midnightblue" d="M1261.66,-492.4C1285.94,-481.04 1319.78,-465.22 1343.25,-454.24"/>
<polygon fill="midnightblue" stroke="midnightblue" points="1344.73,-457.41 1352.31,-450.01 1341.77,-451.07 1344.73,-457.41"/>
</g>
<!-- Node32 -->
<g id="node32" class="node">
<title>Node32</title>
<g id="a_node32"><a xlink:href="rf_2stream_2_client_config_8h.html" target="_top" xlink:title=" ">
<polygon fill="white" stroke="black" points="1155.5,-431 1155.5,-450 1307.5,-450 1307.5,-431 1155.5,-431"/>
<text text-anchor="middle" x="1231.5" y="-438" font-family="Helvetica,sans-Serif" font-size="10.00">net/rf/stream/ClientConfig.h</text>
</a>
</g>
</g>
<!-- Node30&#45;&gt;Node32 -->
<g id="edge39" class="edge">
<title>Node30&#45;&gt;Node32</title>
<path fill="none" stroke="midnightblue" d="M1231.5,-492.4C1231.5,-483.06 1231.5,-470.71 1231.5,-460.52"/>
<polygon fill="midnightblue" stroke="midnightblue" points="1235,-460.19 1231.5,-450.19 1228,-460.19 1235,-460.19"/>
</g>
<!-- Node33 -->
<g id="node33" class="node">
<title>Node33</title>
<g id="a_node33"><a xlink:href="_config_backlog_8h.html" target="_top" xlink:title=" ">
<polygon fill="white" stroke="black" points="1178,-364 1178,-383 1293,-383 1293,-364 1178,-364"/>
<text text-anchor="middle" x="1235.5" y="-371" font-family="Helvetica,sans-Serif" font-size="10.00">net/ConfigBacklog.h</text>
</a>
</g>
</g>
<!-- Node32&#45;&gt;Node33 -->
<g id="edge40" class="edge">
<title>Node32&#45;&gt;Node33</title>
<path fill="none" stroke="midnightblue" d="M1232.04,-430.73C1232.63,-421.18 1233.59,-405.62 1234.34,-393.28"/>
<polygon fill="midnightblue" stroke="midnightblue" points="1237.85,-393.32 1234.97,-383.13 1230.86,-392.89 1237.85,-393.32"/>
</g>
<!-- Node34 -->
<g id="node34" class="node">
<title>Node34</title>
<g id="a_node34"><a xlink:href="_config_base_8h.html" target="_top" xlink:title=" ">
<polygon fill="white" stroke="black" points="1454.5,-364 1454.5,-383 1554.5,-383 1554.5,-364 1454.5,-364"/>
<text text-anchor="middle" x="1504.5" y="-371" font-family="Helvetica,sans-Serif" font-size="10.00">net/ConfigBase.h</text>
</a>
</g>
</g>
<!-- Node32&#45;&gt;Node34 -->
<g id="edge41" class="edge">
<title>Node32&#45;&gt;Node34</title>
<path fill="none" stroke="midnightblue" d="M1267.69,-430.97C1310.08,-420.97 1382.41,-403.86 1444.5,-389 1449.26,-387.86 1454.24,-386.66 1459.2,-385.47"/>
<polygon fill="midnightblue" stroke="midnightblue" points="1460.39,-388.78 1469.29,-383.04 1458.75,-381.98 1460.39,-388.78"/>
</g>
<!-- Node35 -->
<g id="node35" class="node">
<title>Node35</title>
<g id="a_node35"><a xlink:href="_config_conn_8h.html" target="_top" xlink:title=" ">
<polygon fill="white" stroke="black" points="1059,-364 1059,-383 1160,-383 1160,-364 1059,-364"/>
<text text-anchor="middle" x="1109.5" y="-371" font-family="Helvetica,sans-Serif" font-size="10.00">net/ConfigConn.h</text>
</a>
</g>
</g>
<!-- Node32&#45;&gt;Node35 -->
<g id="edge42" class="edge">
<title>Node32&#45;&gt;Node35</title>
<path fill="none" stroke="midnightblue" d="M1215.3,-430.87C1194.7,-419.89 1158.91,-400.82 1134.72,-387.94"/>
<polygon fill="midnightblue" stroke="midnightblue" points="1136.24,-384.78 1125.77,-383.17 1132.95,-390.96 1136.24,-384.78"/>
</g>
<!-- Node36 -->
<g id="node36" class="node">
<title>Node36</title>
<g id="a_node36"><a xlink:href="rf_2_config_local_8h.html" target="_top" xlink:title=" ">
<polygon fill="white" stroke="black" points="928.5,-364 928.5,-383 1040.5,-383 1040.5,-364 928.5,-364"/>
<text text-anchor="middle" x="984.5" y="-371" font-family="Helvetica,sans-Serif" font-size="10.00">net/rf/ConfigLocal.h</text>
</a>
</g>
</g>
<!-- Node32&#45;&gt;Node36 -->
<g id="edge43" class="edge">
<title>Node32&#45;&gt;Node36</title>
<path fill="none" stroke="midnightblue" d="M1198.96,-430.94C1154.81,-419.32 1075.86,-398.54 1027.05,-385.7"/>
<polygon fill="midnightblue" stroke="midnightblue" points="1027.68,-382.24 1017.12,-383.08 1025.9,-389.01 1027.68,-382.24"/>
</g>
<!-- Node38 -->
<g id="node38" class="node">
<title>Node38</title>
<g id="a_node38"><a xlink:href="rf_2_config_remote_8h.html" target="_top" xlink:title=" ">
<polygon fill="white" stroke="black" points="1311,-364 1311,-383 1436,-383 1436,-364 1311,-364"/>
<text text-anchor="middle" x="1373.5" y="-371" font-family="Helvetica,sans-Serif" font-size="10.00">net/rf/ConfigRemote.h</text>
</a>
</g>
</g>
<!-- Node32&#45;&gt;Node38 -->
<g id="edge46" class="edge">
<title>Node32&#45;&gt;Node38</title>
<path fill="none" stroke="midnightblue" d="M1250.36,-430.87C1274.65,-419.75 1317.1,-400.32 1345.26,-387.43"/>
<polygon fill="midnightblue" stroke="midnightblue" points="1346.93,-390.51 1354.57,-383.17 1344.02,-384.15 1346.93,-390.51"/>
</g>
<!-- Node36&#45;&gt;Node28 -->
<g id="edge45" class="edge">
<title>Node36&#45;&gt;Node28</title>
<path fill="none" stroke="midnightblue" d="M981.94,-363.73C979.12,-354.09 974.5,-338.3 970.88,-325.91"/>
<polygon fill="midnightblue" stroke="midnightblue" points="974.19,-324.74 968.02,-316.13 967.47,-326.71 974.19,-324.74"/>
</g>
<!-- Node37 -->
<g id="node37" class="node">
<title>Node37</title>
<g id="a_node37"><a xlink:href="_config_local_8h.html" target="_top" xlink:title=" ">
<polygon fill="white" stroke="black" points="1047,-297 1047,-316 1148,-316 1148,-297 1047,-297"/>
<text text-anchor="middle" x="1097.5" y="-304" font-family="Helvetica,sans-Serif" font-size="10.00">net/ConfigLocal.h</text>
</a>
</g>
</g>
<!-- Node36&#45;&gt;Node37 -->
<g id="edge44" class="edge">
<title>Node36&#45;&gt;Node37</title>
<path fill="none" stroke="midnightblue" d="M999.74,-363.73C1018.72,-352.82 1051.35,-334.05 1073.65,-321.22"/>
<polygon fill="midnightblue" stroke="midnightblue" points="1075.58,-324.15 1082.5,-316.13 1072.09,-318.08 1075.58,-324.15"/>
</g>
<!-- Node38&#45;&gt;Node28 -->
<g id="edge48" class="edge">
<title>Node38&#45;&gt;Node28</title>
<path fill="none" stroke="midnightblue" d="M1333.6,-364C1323.17,-361.9 1311.94,-359.76 1301.5,-358 1184.73,-338.3 1154.27,-341.7 1037.5,-322 1030.33,-320.79 1022.77,-319.4 1015.36,-317.97"/>
<polygon fill="midnightblue" stroke="midnightblue" points="1015.89,-314.5 1005.4,-316 1014.54,-321.37 1015.89,-314.5"/>
</g>
<!-- Node39 -->
<g id="node39" class="node">
<title>Node39</title>
<g id="a_node39"><a xlink:href="_config_remote_8h.html" target="_top" xlink:title=" ">
<polygon fill="white" stroke="black" points="1316.5,-297 1316.5,-316 1430.5,-316 1430.5,-297 1316.5,-297"/>
<text text-anchor="middle" x="1373.5" y="-304" font-family="Helvetica,sans-Serif" font-size="10.00">net/ConfigRemote.h</text>
</a>
</g>
</g>
<!-- Node38&#45;&gt;Node39 -->
<g id="edge47" class="edge">
<title>Node38&#45;&gt;Node39</title>
<path fill="none" stroke="midnightblue" d="M1373.5,-363.73C1373.5,-354.18 1373.5,-338.62 1373.5,-326.28"/>
<polygon fill="midnightblue" stroke="midnightblue" points="1377,-326.13 1373.5,-316.13 1370,-326.13 1377,-326.13"/>
</g>
<!-- Node41 -->
<g id="node41" class="node">
<title>Node41</title>
<g id="a_node41"><a xlink:href="web_2http_2client_2_socket_context_factory_8h.html" target="_top" xlink:title=" ">
<polygon fill="white" stroke="black" points="1553,-492.5 1553,-522.5 1716,-522.5 1716,-492.5 1553,-492.5"/>
<text text-anchor="start" x="1561" y="-510.5" font-family="Helvetica,sans-Serif" font-size="10.00">web/http/client/SocketContext</text>
<text text-anchor="middle" x="1634.5" y="-499.5" font-family="Helvetica,sans-Serif" font-size="10.00">Factory.h</text>
</a>
</g>
</g>
<!-- Node40&#45;&gt;Node41 -->
<g id="edge50" class="edge">
<title>Node40&#45;&gt;Node41</title>
<path fill="none" stroke="midnightblue" d="M1492.28,-564.87C1516.99,-555.07 1557.98,-538.83 1589.62,-526.29"/>
<polygon fill="midnightblue" stroke="midnightblue" points="1591.1,-529.47 1599.11,-522.53 1588.52,-522.96 1591.1,-529.47"/>
</g>
<!-- Node42 -->
<g id="node42" class="node">
<title>Node42</title>
<g id="a_node42"><a xlink:href="web_2http_2_socket_context_factory_8h.html" target="_top" xlink:title=" ">
<polygon fill="white" stroke="black" points="1546.5,-431 1546.5,-450 1722.5,-450 1722.5,-431 1546.5,-431"/>
<text text-anchor="middle" x="1634.5" y="-438" font-family="Helvetica,sans-Serif" font-size="10.00">web/http/SocketContextFactory.h</text>
</a>
</g>
</g>
<!-- Node41&#45;&gt;Node42 -->
<g id="edge51" class="edge">
<title>Node41&#45;&gt;Node42</title>
<path fill="none" stroke="midnightblue" d="M1634.5,-492.4C1634.5,-483.06 1634.5,-470.71 1634.5,-460.52"/>
<polygon fill="midnightblue" stroke="midnightblue" points="1638,-460.19 1634.5,-450.19 1631,-460.19 1638,-460.19"/>
</g>
<!-- Node44 -->
<g id="node44" class="node">
<title>Node44</title>
<g id="a_node44"><a xlink:href="client_2_socket_context_8hpp.html" target="_top" xlink:title=" ">
<polygon fill="white" stroke="black" points="1740.5,-431 1740.5,-450 1924.5,-450 1924.5,-431 1740.5,-431"/>
<text text-anchor="middle" x="1832.5" y="-438" font-family="Helvetica,sans-Serif" font-size="10.00">web/http/client/SocketContext.hpp</text>
</a>
</g>
</g>
<!-- Node41&#45;&gt;Node44 -->
<g id="edge53" class="edge">
<title>Node41&#45;&gt;Node44</title>
<path fill="none" stroke="midnightblue" d="M1677.46,-492.4C1713.13,-480.69 1763.26,-464.23 1796.76,-453.23"/>
<polygon fill="midnightblue" stroke="midnightblue" points="1798.18,-456.45 1806.59,-450.01 1795.99,-449.8 1798.18,-456.45"/>
</g>
<!-- Node43 -->
<g id="node43" class="node">
<title>Node43</title>
<g id="a_node43"><a xlink:href="core_2socket_2_socket_context_factory_8h.html" target="_top" xlink:title=" ">
<polygon fill="white" stroke="black" points="1572.5,-358.5 1572.5,-388.5 1718.5,-388.5 1718.5,-358.5 1572.5,-358.5"/>
<text text-anchor="start" x="1580.5" y="-376.5" font-family="Helvetica,sans-Serif" font-size="10.00">core/socket/SocketContext</text>
<text text-anchor="middle" x="1645.5" y="-365.5" font-family="Helvetica,sans-Serif" font-size="10.00">Factory.h</text>
</a>
</g>
</g>
<!-- Node42&#45;&gt;Node43 -->
<g id="edge52" class="edge">
<title>Node42&#45;&gt;Node43</title>
<path fill="none" stroke="midnightblue" d="M1635.98,-430.73C1637.37,-422.54 1639.51,-409.92 1641.4,-398.71"/>
<polygon fill="midnightblue" stroke="midnightblue" points="1644.9,-399.03 1643.12,-388.59 1638,-397.86 1644.9,-399.03"/>
</g>
<!-- Node45 -->
<g id="node45" class="node">
<title>Node45</title>
<g id="a_node45"><a xlink:href="web_2http_2client_2_socket_context_8h.html" target="_top" xlink:title=" ">
<polygon fill="white" stroke="black" points="1746.5,-364 1746.5,-383 1918.5,-383 1918.5,-364 1746.5,-364"/>
<text text-anchor="middle" x="1832.5" y="-371" font-family="Helvetica,sans-Serif" font-size="10.00">web/http/client/SocketContext.h</text>
</a>
</g>
</g>
<!-- Node44&#45;&gt;Node45 -->
<g id="edge54" class="edge">
<title>Node44&#45;&gt;Node45</title>
<path fill="none" stroke="midnightblue" d="M1832.5,-430.73C1832.5,-421.18 1832.5,-405.62 1832.5,-393.28"/>
<polygon fill="midnightblue" stroke="midnightblue" points="1836,-393.13 1832.5,-383.13 1829,-393.13 1836,-393.13"/>
</g>
<!-- Node46 -->
<g id="node46" class="node">
<title>Node46</title>
<g id="a_node46"><a xlink:href="web_2http_2_socket_context_8h.html" target="_top" xlink:title=" ">
<polygon fill="white" stroke="black" points="1840.5,-297 1840.5,-316 1982.5,-316 1982.5,-297 1840.5,-297"/>
<text text-anchor="middle" x="1911.5" y="-304" font-family="Helvetica,sans-Serif" font-size="10.00">web/http/SocketContext.h</text>
</a>
</g>
</g>
<!-- Node45&#45;&gt;Node46 -->
<g id="edge55" class="edge">
<title>Node45&#45;&gt;Node46</title>
<path fill="none" stroke="midnightblue" d="M1843.15,-363.73C1855.95,-353.21 1877.62,-335.38 1893.13,-322.62"/>
<polygon fill="midnightblue" stroke="midnightblue" points="1895.52,-325.18 1901.01,-316.13 1891.07,-319.78 1895.52,-325.18"/>
</g>
<!-- Node48 -->
<g id="node48" class="node">
<title>Node48</title>
<g id="a_node48"><a xlink:href="_response_parser_8h.html" target="_top" xlink:title=" ">
<polygon fill="white" stroke="black" points="1682.5,-291.5 1682.5,-321.5 1822.5,-321.5 1822.5,-291.5 1682.5,-291.5"/>
<text text-anchor="start" x="1690.5" y="-309.5" font-family="Helvetica,sans-Serif" font-size="10.00">web/http/client/Response</text>
<text text-anchor="middle" x="1752.5" y="-298.5" font-family="Helvetica,sans-Serif" font-size="10.00">Parser.h</text>
</a>
</g>
</g>
<!-- Node45&#45;&gt;Node48 -->
<g id="edge57" class="edge">
<title>Node45&#45;&gt;Node48</title>
<path fill="none" stroke="midnightblue" d="M1821.71,-363.73C1810.48,-354.61 1792.5,-340 1777.69,-327.96"/>
<polygon fill="midnightblue" stroke="midnightblue" points="1779.81,-325.18 1769.84,-321.59 1775.39,-330.61 1779.81,-325.18"/>
</g>
<!-- Node47 -->
<g id="node47" class="node">
<title>Node47</title>
<g id="a_node47"><a xlink:href="core_2socket_2_socket_context_8h.html" target="_top" xlink:title=" ">
<polygon fill="white" stroke="black" points="1834,-230 1834,-249 1989,-249 1989,-230 1834,-230"/>
<text text-anchor="middle" x="1911.5" y="-237" font-family="Helvetica,sans-Serif" font-size="10.00">core/socket/SocketContext.h</text>
</a>
</g>
</g>
<!-- Node46&#45;&gt;Node47 -->
<g id="edge56" class="edge">
<title>Node46&#45;&gt;Node47</title>
<path fill="none" stroke="midnightblue" d="M1911.5,-296.73C1911.5,-287.18 1911.5,-271.62 1911.5,-259.28"/>
<polygon fill="midnightblue" stroke="midnightblue" points="1915,-259.13 1911.5,-249.13 1908,-259.13 1915,-259.13"/>
</g>
<!-- Node49 -->
<g id="node49" class="node">
<title>Node49</title>
<g id="a_node49"><a xlink:href="_cookie_options_8h.html" target="_top" xlink:title=" ">
<polygon fill="white" stroke="black" points="1546,-230 1546,-249 1689,-249 1689,-230 1546,-230"/>
<text text-anchor="middle" x="1617.5" y="-237" font-family="Helvetica,sans-Serif" font-size="10.00">web/http/CookieOptions.h</text>
</a>
</g>
</g>
<!-- Node48&#45;&gt;Node49 -->
<g id="edge58" class="edge">
<title>Node48&#45;&gt;Node49</title>
<path fill="none" stroke="midnightblue" d="M1723.21,-291.4C1699.73,-280.09 1667.06,-264.36 1644.27,-253.39"/>
<polygon fill="midnightblue" stroke="midnightblue" points="1645.7,-250.19 1635.17,-249.01 1642.66,-256.5 1645.7,-250.19"/>
</g>
<!-- Node50 -->
<g id="node50" class="node">
<title>Node50</title>
<g id="a_node50"><a xlink:href="_parser_8h.html" target="_top" xlink:title=" ">
<polygon fill="white" stroke="black" points="1707.5,-230 1707.5,-249 1809.5,-249 1809.5,-230 1707.5,-230"/>
<text text-anchor="middle" x="1758.5" y="-237" font-family="Helvetica,sans-Serif" font-size="10.00">web/http/Parser.h</text>
</a>
</g>
</g>
<!-- Node48&#45;&gt;Node50 -->
<g id="edge59" class="edge">
<title>Node48&#45;&gt;Node50</title>
<path fill="none" stroke="midnightblue" d="M1753.8,-291.4C1754.67,-281.96 1755.83,-269.45 1756.77,-259.19"/>
<polygon fill="midnightblue" stroke="midnightblue" points="1760.26,-259.47 1757.7,-249.19 1753.29,-258.83 1760.26,-259.47"/>
</g>
</g>
</svg>
