<?xml version="1.0" encoding="UTF-8" standalone="no"?>
<!DOCTYPE svg PUBLIC "-//W3C//DTD SVG 1.1//EN"
 "http://www.w3.org/Graphics/SVG/1.1/DTD/svg11.dtd">
<!-- Generated by graphviz version 2.43.0 (0)
 -->
<!-- Title: web/http/tls/in/Client.h Pages: 1 -->
<svg width="2079pt" height="542pt"
 viewBox="0.00 0.00 2079.00 542.00" xmlns="http://www.w3.org/2000/svg" xmlns:xlink="http://www.w3.org/1999/xlink">
<g id="graph0" class="graph" transform="scale(1 1) rotate(0) translate(4 538)">
<title>web/http/tls/in/Client.h</title>
<polygon fill="white" stroke="transparent" points="-4,4 -4,-538 2075,-538 2075,4 -4,4"/>
<!-- Node1 -->
<g id="node1" class="node">
<title>Node1</title>
<g id="a_node1"><a xlink:title=" ">
<polygon fill="#bfbfbf" stroke="black" points="1204,-514.5 1204,-533.5 1331,-533.5 1331,-514.5 1204,-514.5"/>
<text text-anchor="middle" x="1267.5" y="-521.5" font-family="Helvetica,sans-Serif" font-size="10.00">web/http/tls/in/Client.h</text>
</a>
</g>
</g>
<!-- Node2 -->
<g id="node2" class="node">
<title>Node2</title>
<g id="a_node2"><a xlink:href="net_2in_2stream_2tls_2_socket_client_8h.html" target="_top" xlink:title=" ">
<polygon fill="white" stroke="black" points="1127.5,-447.5 1127.5,-477.5 1259.5,-477.5 1259.5,-447.5 1127.5,-447.5"/>
<text text-anchor="start" x="1135.5" y="-465.5" font-family="Helvetica,sans-Serif" font-size="10.00">net/in/stream/tls/Socket</text>
<text text-anchor="middle" x="1193.5" y="-454.5" font-family="Helvetica,sans-Serif" font-size="10.00">Client.h</text>
</a>
</g>
</g>
<!-- Node1&#45;&gt;Node2 -->
<g id="edge1" class="edge">
<title>Node1&#45;&gt;Node2</title>
<path fill="none" stroke="midnightblue" d="M1256.9,-514.48C1247.06,-506.57 1232.04,-494.48 1219.08,-484.07"/>
<polygon fill="midnightblue" stroke="midnightblue" points="1220.93,-481.06 1210.94,-477.52 1216.54,-486.52 1220.93,-481.06"/>
</g>
<!-- Node35 -->
<g id="node35" class="node">
<title>Node35</title>
<g id="a_node35"><a xlink:href="client_2_client_8h.html" target="_top" xlink:title=" ">
<polygon fill="white" stroke="black" points="1476.5,-453 1476.5,-472 1606.5,-472 1606.5,-453 1476.5,-453"/>
<text text-anchor="middle" x="1541.5" y="-460" font-family="Helvetica,sans-Serif" font-size="10.00">web/http/client/Client.h</text>
</a>
</g>
</g>
<!-- Node1&#45;&gt;Node35 -->
<g id="edge43" class="edge">
<title>Node1&#45;&gt;Node35</title>
<path fill="none" stroke="midnightblue" d="M1306.76,-514.48C1355.69,-503.85 1439.34,-485.68 1492.45,-474.15"/>
<polygon fill="midnightblue" stroke="midnightblue" points="1493.29,-477.55 1502.32,-472.01 1491.8,-470.71 1493.29,-477.55"/>
</g>
<!-- Node3 -->
<g id="node3" class="node">
<title>Node3</title>
<g id="a_node3"><a xlink:href="core_2socket_2stream_2tls_2_socket_client_8h.html" target="_top" xlink:title=" ">
<polygon fill="white" stroke="black" points="635.5,-380.5 635.5,-410.5 745.5,-410.5 745.5,-380.5 635.5,-380.5"/>
<text text-anchor="start" x="643.5" y="-398.5" font-family="Helvetica,sans-Serif" font-size="10.00">core/socket/stream</text>
<text text-anchor="middle" x="690.5" y="-387.5" font-family="Helvetica,sans-Serif" font-size="10.00">/tls/SocketClient.h</text>
</a>
</g>
</g>
<!-- Node2&#45;&gt;Node3 -->
<g id="edge2" class="edge">
<title>Node2&#45;&gt;Node3</title>
<path fill="none" stroke="midnightblue" d="M1127.48,-452.97C1030.92,-440.49 852.21,-417.4 755.96,-404.96"/>
<polygon fill="midnightblue" stroke="midnightblue" points="756.14,-401.45 745.78,-403.64 755.24,-408.4 756.14,-401.45"/>
</g>
<!-- Node20 -->
<g id="node20" class="node">
<title>Node20</title>
<g id="a_node20"><a xlink:href="net_2in_2stream_2_client_socket_8h.html" target="_top" xlink:title=" ">
<polygon fill="white" stroke="black" points="1008,-386 1008,-405 1163,-405 1163,-386 1008,-386"/>
<text text-anchor="middle" x="1085.5" y="-393" font-family="Helvetica,sans-Serif" font-size="10.00">net/in/stream/ClientSocket.h</text>
</a>
</g>
</g>
<!-- Node2&#45;&gt;Node20 -->
<g id="edge26" class="edge">
<title>Node2&#45;&gt;Node20</title>
<path fill="none" stroke="midnightblue" d="M1170.07,-447.4C1151.79,-436.39 1126.54,-421.2 1108.4,-410.28"/>
<polygon fill="midnightblue" stroke="midnightblue" points="1110.01,-407.16 1099.63,-405.01 1106.4,-413.16 1110.01,-407.16"/>
</g>
<!-- Node27 -->
<g id="node27" class="node">
<title>Node27</title>
<g id="a_node27"><a xlink:href="in_2stream_2tls_2_client_config_8h.html" target="_top" xlink:title=" ">
<polygon fill="white" stroke="black" points="1201.5,-380.5 1201.5,-410.5 1329.5,-410.5 1329.5,-380.5 1201.5,-380.5"/>
<text text-anchor="start" x="1209.5" y="-398.5" font-family="Helvetica,sans-Serif" font-size="10.00">net/in/stream/tls/Client</text>
<text text-anchor="middle" x="1265.5" y="-387.5" font-family="Helvetica,sans-Serif" font-size="10.00">Config.h</text>
</a>
</g>
</g>
<!-- Node2&#45;&gt;Node27 -->
<g id="edge33" class="edge">
<title>Node2&#45;&gt;Node27</title>
<path fill="none" stroke="midnightblue" d="M1209.12,-447.4C1218.84,-438.62 1231.51,-427.18 1242.38,-417.37"/>
<polygon fill="midnightblue" stroke="midnightblue" points="1244.83,-419.88 1249.91,-410.58 1240.14,-414.68 1244.83,-419.88"/>
</g>
<!-- Node4 -->
<g id="node4" class="node">
<title>Node4</title>
<g id="a_node4"><a xlink:href="core_2socket_2stream_2_socket_client_8h.html" target="_top" xlink:title=" ">
<polygon fill="white" stroke="black" points="499.5,-313.5 499.5,-343.5 609.5,-343.5 609.5,-313.5 499.5,-313.5"/>
<text text-anchor="start" x="507.5" y="-331.5" font-family="Helvetica,sans-Serif" font-size="10.00">core/socket/stream</text>
<text text-anchor="middle" x="554.5" y="-320.5" font-family="Helvetica,sans-Serif" font-size="10.00">/SocketClient.h</text>
</a>
</g>
</g>
<!-- Node3&#45;&gt;Node4 -->
<g id="edge3" class="edge">
<title>Node3&#45;&gt;Node4</title>
<path fill="none" stroke="midnightblue" d="M660.99,-380.4C641.12,-370.9 614.71,-358.28 593.16,-347.98"/>
<polygon fill="midnightblue" stroke="midnightblue" points="594.48,-344.73 583.95,-343.58 591.47,-351.05 594.48,-344.73"/>
</g>
<!-- Node5 -->
<g id="node5" class="node">
<title>Node5</title>
<g id="a_node5"><a xlink:href="tls_2_socket_connector_8h.html" target="_top" xlink:title=" ">
<polygon fill="white" stroke="black" points="628,-313.5 628,-343.5 753,-343.5 753,-313.5 628,-313.5"/>
<text text-anchor="start" x="636" y="-331.5" font-family="Helvetica,sans-Serif" font-size="10.00">core/socket/stream</text>
<text text-anchor="middle" x="690.5" y="-320.5" font-family="Helvetica,sans-Serif" font-size="10.00">/tls/SocketConnector.h</text>
</a>
</g>
</g>
<!-- Node3&#45;&gt;Node5 -->
<g id="edge4" class="edge">
<title>Node3&#45;&gt;Node5</title>
<path fill="none" stroke="midnightblue" d="M690.5,-380.4C690.5,-372.64 690.5,-362.81 690.5,-353.86"/>
<polygon fill="midnightblue" stroke="midnightblue" points="694,-353.58 690.5,-343.58 687,-353.58 694,-353.58"/>
</g>
<!-- Node6 -->
<g id="node6" class="node">
<title>Node6</title>
<g id="a_node6"><a xlink:href="_socket_connector_8h.html" target="_top" xlink:title=" ">
<polygon fill="white" stroke="black" points="635.5,-246.5 635.5,-276.5 745.5,-276.5 745.5,-246.5 635.5,-246.5"/>
<text text-anchor="start" x="643.5" y="-264.5" font-family="Helvetica,sans-Serif" font-size="10.00">core/socket/stream</text>
<text text-anchor="middle" x="690.5" y="-253.5" font-family="Helvetica,sans-Serif" font-size="10.00">/SocketConnector.h</text>
</a>
</g>
</g>
<!-- Node5&#45;&gt;Node6 -->
<g id="edge5" class="edge">
<title>Node5&#45;&gt;Node6</title>
<path fill="none" stroke="midnightblue" d="M690.5,-313.4C690.5,-305.64 690.5,-295.81 690.5,-286.86"/>
<polygon fill="midnightblue" stroke="midnightblue" points="694,-286.58 690.5,-276.58 687,-286.58 694,-286.58"/>
</g>
<!-- Node9 -->
<g id="node9" class="node">
<title>Node9</title>
<g id="a_node9"><a xlink:href="stream_2tls_2_socket_connection_8h.html" target="_top" xlink:title=" ">
<polygon fill="white" stroke="black" points="417,-246.5 417,-276.5 548,-276.5 548,-246.5 417,-246.5"/>
<text text-anchor="start" x="425" y="-264.5" font-family="Helvetica,sans-Serif" font-size="10.00">core/socket/stream</text>
<text text-anchor="middle" x="482.5" y="-253.5" font-family="Helvetica,sans-Serif" font-size="10.00">/tls/SocketConnection.h</text>
</a>
</g>
</g>
<!-- Node5&#45;&gt;Node9 -->
<g id="edge8" class="edge">
<title>Node5&#45;&gt;Node9</title>
<path fill="none" stroke="midnightblue" d="M645.62,-313.48C613.88,-303.56 571.14,-290.2 537.37,-279.65"/>
<polygon fill="midnightblue" stroke="midnightblue" points="538.24,-276.25 527.65,-276.61 536.16,-282.93 538.24,-276.25"/>
</g>
<!-- Node7 -->
<g id="node7" class="node">
<title>Node7</title>
<g id="a_node7"><a xlink:href="_connect_event_receiver_8h.html" target="_top" xlink:title=" ">
<polygon fill="white" stroke="black" points="633.5,-56.5 633.5,-75.5 793.5,-75.5 793.5,-56.5 633.5,-56.5"/>
<text text-anchor="middle" x="713.5" y="-63.5" font-family="Helvetica,sans-Serif" font-size="10.00">core/ConnectEventReceiver.h</text>
</a>
</g>
</g>
<!-- Node6&#45;&gt;Node7 -->
<g id="edge6" class="edge">
<title>Node6&#45;&gt;Node7</title>
<path fill="none" stroke="midnightblue" d="M692.19,-246.27C696.27,-211.94 706.66,-124.57 711.25,-85.9"/>
<polygon fill="midnightblue" stroke="midnightblue" points="714.78,-85.92 712.48,-75.58 707.82,-85.09 714.78,-85.92"/>
</g>
<!-- Node8 -->
<g id="node8" class="node">
<title>Node8</title>
<g id="a_node8"><a xlink:href="_event_receiver_8h.html" target="_top" xlink:title=" ">
<polygon fill="white" stroke="black" points="479.5,-0.5 479.5,-19.5 599.5,-19.5 599.5,-0.5 479.5,-0.5"/>
<text text-anchor="middle" x="539.5" y="-7.5" font-family="Helvetica,sans-Serif" font-size="10.00">core/EventReceiver.h</text>
</a>
</g>
</g>
<!-- Node7&#45;&gt;Node8 -->
<g id="edge7" class="edge">
<title>Node7&#45;&gt;Node8</title>
<path fill="none" stroke="midnightblue" d="M685.93,-56.44C656.4,-47.28 609.38,-32.69 576.62,-22.52"/>
<polygon fill="midnightblue" stroke="midnightblue" points="577.53,-19.14 566.94,-19.52 575.46,-25.82 577.53,-19.14"/>
</g>
<!-- Node10 -->
<g id="node10" class="node">
<title>Node10</title>
<g id="a_node10"><a xlink:href="stream_2_socket_connection_8h.html" target="_top" xlink:title=" ">
<polygon fill="white" stroke="black" points="107.5,-179.5 107.5,-209.5 223.5,-209.5 223.5,-179.5 107.5,-179.5"/>
<text text-anchor="start" x="115.5" y="-197.5" font-family="Helvetica,sans-Serif" font-size="10.00">core/socket/stream</text>
<text text-anchor="middle" x="165.5" y="-186.5" font-family="Helvetica,sans-Serif" font-size="10.00">/SocketConnection.h</text>
</a>
</g>
</g>
<!-- Node9&#45;&gt;Node10 -->
<g id="edge9" class="edge">
<title>Node9&#45;&gt;Node10</title>
<path fill="none" stroke="midnightblue" d="M416.82,-247.03C363.21,-236.04 287.73,-220.56 233.5,-209.44"/>
<polygon fill="midnightblue" stroke="midnightblue" points="234.14,-206 223.64,-207.42 232.73,-212.86 234.14,-206"/>
</g>
<!-- Node12 -->
<g id="node12" class="node">
<title>Node12</title>
<g id="a_node12"><a xlink:href="tls_2_socket_reader_8h.html" target="_top" xlink:title=" ">
<polygon fill="white" stroke="black" points="320.5,-179.5 320.5,-209.5 430.5,-209.5 430.5,-179.5 320.5,-179.5"/>
<text text-anchor="start" x="328.5" y="-197.5" font-family="Helvetica,sans-Serif" font-size="10.00">core/socket/stream</text>
<text text-anchor="middle" x="375.5" y="-186.5" font-family="Helvetica,sans-Serif" font-size="10.00">/tls/SocketReader.h</text>
</a>
</g>
</g>
<!-- Node9&#45;&gt;Node12 -->
<g id="edge11" class="edge">
<title>Node9&#45;&gt;Node12</title>
<path fill="none" stroke="midnightblue" d="M459.28,-246.4C444.14,-237.2 424.17,-225.07 407.53,-214.95"/>
<polygon fill="midnightblue" stroke="midnightblue" points="409.04,-211.78 398.67,-209.58 405.4,-217.76 409.04,-211.78"/>
</g>
<!-- Node17 -->
<g id="node17" class="node">
<title>Node17</title>
<g id="a_node17"><a xlink:href="tls_2_socket_writer_8h.html" target="_top" xlink:title=" ">
<polygon fill="white" stroke="black" points="510.5,-179.5 510.5,-209.5 620.5,-209.5 620.5,-179.5 510.5,-179.5"/>
<text text-anchor="start" x="518.5" y="-197.5" font-family="Helvetica,sans-Serif" font-size="10.00">core/socket/stream</text>
<text text-anchor="middle" x="565.5" y="-186.5" font-family="Helvetica,sans-Serif" font-size="10.00">/tls/SocketWriter.h</text>
</a>
</g>
</g>
<!-- Node9&#45;&gt;Node17 -->
<g id="edge19" class="edge">
<title>Node9&#45;&gt;Node17</title>
<path fill="none" stroke="midnightblue" d="M500.51,-246.4C511.93,-237.45 526.89,-225.74 539.58,-215.8"/>
<polygon fill="midnightblue" stroke="midnightblue" points="541.81,-218.5 547.53,-209.58 537.49,-212.99 541.81,-218.5"/>
</g>
<!-- Node19 -->
<g id="node19" class="node">
<title>Node19</title>
<g id="a_node19"><a xlink:href="_t_l_s_shutdown_8h.html" target="_top" xlink:title=" ">
<polygon fill="white" stroke="black" points="451.5,-112.5 451.5,-142.5 561.5,-142.5 561.5,-112.5 451.5,-112.5"/>
<text text-anchor="start" x="459.5" y="-130.5" font-family="Helvetica,sans-Serif" font-size="10.00">core/socket/stream</text>
<text text-anchor="middle" x="506.5" y="-119.5" font-family="Helvetica,sans-Serif" font-size="10.00">/tls/TLSShutdown.h</text>
</a>
</g>
</g>
<!-- Node9&#45;&gt;Node19 -->
<g id="edge23" class="edge">
<title>Node9&#45;&gt;Node19</title>
<path fill="none" stroke="midnightblue" d="M485.07,-246.37C489.15,-223.94 497.15,-179.92 502.14,-152.49"/>
<polygon fill="midnightblue" stroke="midnightblue" points="505.6,-152.99 503.95,-142.52 498.72,-151.74 505.6,-152.99"/>
</g>
<!-- Node11 -->
<g id="node11" class="node">
<title>Node11</title>
<g id="a_node11"><a xlink:href="_socket_connection_8h.html" target="_top" xlink:title=" ">
<polygon fill="white" stroke="black" points="0,-118 0,-137 171,-137 171,-118 0,-118"/>
<text text-anchor="middle" x="85.5" y="-125" font-family="Helvetica,sans-Serif" font-size="10.00">core/socket/SocketConnection.h</text>
</a>
</g>
</g>
<!-- Node10&#45;&gt;Node11 -->
<g id="edge10" class="edge">
<title>Node10&#45;&gt;Node11</title>
<path fill="none" stroke="midnightblue" d="M148.14,-179.4C135.17,-168.86 117.47,-154.48 104.19,-143.69"/>
<polygon fill="midnightblue" stroke="midnightblue" points="106.17,-140.78 96.2,-137.19 101.76,-146.22 106.17,-140.78"/>
</g>
<!-- Node13 -->
<g id="node13" class="node">
<title>Node13</title>
<g id="a_node13"><a xlink:href="_socket_reader_8h.html" target="_top" xlink:title=" ">
<polygon fill="white" stroke="black" points="189.5,-112.5 189.5,-142.5 299.5,-142.5 299.5,-112.5 189.5,-112.5"/>
<text text-anchor="start" x="197.5" y="-130.5" font-family="Helvetica,sans-Serif" font-size="10.00">core/socket/stream</text>
<text text-anchor="middle" x="244.5" y="-119.5" font-family="Helvetica,sans-Serif" font-size="10.00">/SocketReader.h</text>
</a>
</g>
</g>
<!-- Node12&#45;&gt;Node13 -->
<g id="edge12" class="edge">
<title>Node12&#45;&gt;Node13</title>
<path fill="none" stroke="midnightblue" d="M347.07,-179.4C328.02,-169.94 302.72,-157.39 282.02,-147.12"/>
<polygon fill="midnightblue" stroke="midnightblue" points="283.38,-143.89 272.87,-142.58 280.27,-150.16 283.38,-143.89"/>
</g>
<!-- Node15 -->
<g id="node15" class="node">
<title>Node15</title>
<g id="a_node15"><a xlink:href="_t_l_s_handshake_8h.html" target="_top" xlink:title=" ">
<polygon fill="white" stroke="black" points="318,-112.5 318,-142.5 433,-142.5 433,-112.5 318,-112.5"/>
<text text-anchor="start" x="326" y="-130.5" font-family="Helvetica,sans-Serif" font-size="10.00">core/socket/stream</text>
<text text-anchor="middle" x="375.5" y="-119.5" font-family="Helvetica,sans-Serif" font-size="10.00">/tls/TLSHandshake.h</text>
</a>
</g>
</g>
<!-- Node12&#45;&gt;Node15 -->
<g id="edge15" class="edge">
<title>Node12&#45;&gt;Node15</title>
<path fill="none" stroke="midnightblue" d="M375.5,-179.4C375.5,-171.64 375.5,-161.81 375.5,-152.86"/>
<polygon fill="midnightblue" stroke="midnightblue" points="379,-152.58 375.5,-142.58 372,-152.58 379,-152.58"/>
</g>
<!-- Node14 -->
<g id="node14" class="node">
<title>Node14</title>
<g id="a_node14"><a xlink:href="_read_event_receiver_8h.html" target="_top" xlink:title=" ">
<polygon fill="white" stroke="black" points="303,-56.5 303,-75.5 448,-75.5 448,-56.5 303,-56.5"/>
<text text-anchor="middle" x="375.5" y="-63.5" font-family="Helvetica,sans-Serif" font-size="10.00">core/ReadEventReceiver.h</text>
</a>
</g>
</g>
<!-- Node13&#45;&gt;Node14 -->
<g id="edge13" class="edge">
<title>Node13&#45;&gt;Node14</title>
<path fill="none" stroke="midnightblue" d="M275.55,-112.4C297.23,-102.55 325.96,-89.5 347.05,-79.92"/>
<polygon fill="midnightblue" stroke="midnightblue" points="348.78,-82.98 356.44,-75.66 345.89,-76.61 348.78,-82.98"/>
</g>
<!-- Node14&#45;&gt;Node8 -->
<g id="edge14" class="edge">
<title>Node14&#45;&gt;Node8</title>
<path fill="none" stroke="midnightblue" d="M401.49,-56.44C429.2,-47.32 473.25,-32.81 504.12,-22.65"/>
<polygon fill="midnightblue" stroke="midnightblue" points="505.23,-25.97 513.64,-19.52 503.04,-19.32 505.23,-25.97"/>
</g>
<!-- Node15&#45;&gt;Node14 -->
<g id="edge16" class="edge">
<title>Node15&#45;&gt;Node14</title>
<path fill="none" stroke="midnightblue" d="M375.5,-112.4C375.5,-104.47 375.5,-94.46 375.5,-85.86"/>
<polygon fill="midnightblue" stroke="midnightblue" points="379,-85.66 375.5,-75.66 372,-85.66 379,-85.66"/>
</g>
<!-- Node16 -->
<g id="node16" class="node">
<title>Node16</title>
<g id="a_node16"><a xlink:href="_write_event_receiver_8h.html" target="_top" xlink:title=" ">
<polygon fill="white" stroke="black" points="466.5,-56.5 466.5,-75.5 612.5,-75.5 612.5,-56.5 466.5,-56.5"/>
<text text-anchor="middle" x="539.5" y="-63.5" font-family="Helvetica,sans-Serif" font-size="10.00">core/WriteEventReceiver.h</text>
</a>
</g>
</g>
<!-- Node15&#45;&gt;Node16 -->
<g id="edge17" class="edge">
<title>Node15&#45;&gt;Node16</title>
<path fill="none" stroke="midnightblue" d="M414.37,-112.4C442.25,-102.28 479.44,-88.79 506.01,-79.15"/>
<polygon fill="midnightblue" stroke="midnightblue" points="507.43,-82.36 515.64,-75.66 505.04,-75.78 507.43,-82.36"/>
</g>
<!-- Node16&#45;&gt;Node8 -->
<g id="edge18" class="edge">
<title>Node16&#45;&gt;Node8</title>
<path fill="none" stroke="midnightblue" d="M539.5,-56.08C539.5,-49.01 539.5,-38.86 539.5,-29.99"/>
<polygon fill="midnightblue" stroke="midnightblue" points="543,-29.75 539.5,-19.75 536,-29.75 543,-29.75"/>
</g>
<!-- Node17&#45;&gt;Node15 -->
<g id="edge22" class="edge">
<title>Node17&#45;&gt;Node15</title>
<path fill="none" stroke="midnightblue" d="M524.27,-179.4C495.52,-169.56 456.96,-156.37 426.3,-145.88"/>
<polygon fill="midnightblue" stroke="midnightblue" points="427.24,-142.5 416.65,-142.58 424.98,-149.13 427.24,-142.5"/>
</g>
<!-- Node18 -->
<g id="node18" class="node">
<title>Node18</title>
<g id="a_node18"><a xlink:href="_socket_writer_8h.html" target="_top" xlink:title=" ">
<polygon fill="white" stroke="black" points="579.5,-112.5 579.5,-142.5 689.5,-142.5 689.5,-112.5 579.5,-112.5"/>
<text text-anchor="start" x="587.5" y="-130.5" font-family="Helvetica,sans-Serif" font-size="10.00">core/socket/stream</text>
<text text-anchor="middle" x="634.5" y="-119.5" font-family="Helvetica,sans-Serif" font-size="10.00">/SocketWriter.h</text>
</a>
</g>
</g>
<!-- Node17&#45;&gt;Node18 -->
<g id="edge20" class="edge">
<title>Node17&#45;&gt;Node18</title>
<path fill="none" stroke="midnightblue" d="M580.47,-179.4C589.69,-170.71 601.69,-159.4 612.04,-149.66"/>
<polygon fill="midnightblue" stroke="midnightblue" points="614.68,-151.98 619.56,-142.58 609.88,-146.89 614.68,-151.98"/>
</g>
<!-- Node18&#45;&gt;Node16 -->
<g id="edge21" class="edge">
<title>Node18&#45;&gt;Node16</title>
<path fill="none" stroke="midnightblue" d="M611.99,-112.4C596.9,-102.95 577.11,-90.56 562.03,-81.11"/>
<polygon fill="midnightblue" stroke="midnightblue" points="563.66,-78 553.32,-75.66 559.94,-83.93 563.66,-78"/>
</g>
<!-- Node19&#45;&gt;Node14 -->
<g id="edge24" class="edge">
<title>Node19&#45;&gt;Node14</title>
<path fill="none" stroke="midnightblue" d="M475.45,-112.4C453.77,-102.55 425.04,-89.5 403.95,-79.92"/>
<polygon fill="midnightblue" stroke="midnightblue" points="405.11,-76.61 394.56,-75.66 402.22,-82.98 405.11,-76.61"/>
</g>
<!-- Node19&#45;&gt;Node16 -->
<g id="edge25" class="edge">
<title>Node19&#45;&gt;Node16</title>
<path fill="none" stroke="midnightblue" d="M514.32,-112.4C518.97,-104.02 524.9,-93.33 529.84,-84.42"/>
<polygon fill="midnightblue" stroke="midnightblue" points="532.91,-86.1 534.7,-75.66 526.79,-82.71 532.91,-86.1"/>
</g>
<!-- Node21 -->
<g id="node21" class="node">
<title>Node21</title>
<g id="a_node21"><a xlink:href="core_2socket_2_client_socket_8h.html" target="_top" xlink:title=" ">
<polygon fill="white" stroke="black" points="1013,-319 1013,-338 1158,-338 1158,-319 1013,-319"/>
<text text-anchor="middle" x="1085.5" y="-326" font-family="Helvetica,sans-Serif" font-size="10.00">core/socket/ClientSocket.h</text>
</a>
</g>
</g>
<!-- Node20&#45;&gt;Node21 -->
<g id="edge27" class="edge">
<title>Node20&#45;&gt;Node21</title>
<path fill="none" stroke="midnightblue" d="M1085.5,-385.73C1085.5,-376.18 1085.5,-360.62 1085.5,-348.28"/>
<polygon fill="midnightblue" stroke="midnightblue" points="1089,-348.13 1085.5,-338.13 1082,-348.13 1089,-348.13"/>
</g>
<!-- Node22 -->
<g id="node22" class="node">
<title>Node22</title>
<g id="a_node22"><a xlink:href="net_2in_2stream_2_socket_8h.html" target="_top" xlink:title=" ">
<polygon fill="white" stroke="black" points="844.5,-319 844.5,-338 970.5,-338 970.5,-319 844.5,-319"/>
<text text-anchor="middle" x="907.5" y="-326" font-family="Helvetica,sans-Serif" font-size="10.00">net/in/stream/Socket.h</text>
</a>
</g>
</g>
<!-- Node20&#45;&gt;Node22 -->
<g id="edge28" class="edge">
<title>Node20&#45;&gt;Node22</title>
<path fill="none" stroke="midnightblue" d="M1061.86,-385.87C1030.79,-374.52 976.03,-354.52 940.78,-341.65"/>
<polygon fill="midnightblue" stroke="midnightblue" points="941.55,-338.21 930.95,-338.06 939.14,-344.78 941.55,-338.21"/>
</g>
<!-- Node23 -->
<g id="node23" class="node">
<title>Node23</title>
<g id="a_node23"><a xlink:href="core_2socket_2_socket_8h.html" target="_top" xlink:title=" ">
<polygon fill="white" stroke="black" points="763.5,-252 763.5,-271 879.5,-271 879.5,-252 763.5,-252"/>
<text text-anchor="middle" x="821.5" y="-259" font-family="Helvetica,sans-Serif" font-size="10.00">core/socket/Socket.h</text>
</a>
</g>
</g>
<!-- Node22&#45;&gt;Node23 -->
<g id="edge29" class="edge">
<title>Node22&#45;&gt;Node23</title>
<path fill="none" stroke="midnightblue" d="M895.9,-318.73C881.85,-308.11 857.95,-290.05 841.03,-277.26"/>
<polygon fill="midnightblue" stroke="midnightblue" points="843,-274.36 832.91,-271.13 838.78,-279.95 843,-274.36"/>
</g>
<!-- Node25 -->
<g id="node25" class="node">
<title>Node25</title>
<g id="a_node25"><a xlink:href="net_2in_2_socket_address_8h.html" target="_top" xlink:title=" ">
<polygon fill="white" stroke="black" points="945.5,-185 945.5,-204 1073.5,-204 1073.5,-185 945.5,-185"/>
<text text-anchor="middle" x="1009.5" y="-192" font-family="Helvetica,sans-Serif" font-size="10.00">net/in/SocketAddress.h</text>
</a>
</g>
</g>
<!-- Node22&#45;&gt;Node25 -->
<g id="edge31" class="edge">
<title>Node22&#45;&gt;Node25</title>
<path fill="none" stroke="midnightblue" d="M907.41,-318.75C907.66,-302.78 910.23,-268.48 926.5,-246 938.85,-228.94 958.9,-216.51 976.2,-208.25"/>
<polygon fill="midnightblue" stroke="midnightblue" points="977.78,-211.38 985.46,-204.08 974.91,-204.99 977.78,-211.38"/>
</g>
<!-- Node24 -->
<g id="node24" class="node">
<title>Node24</title>
<g id="a_node24"><a xlink:href="_descriptor_8h.html" target="_top" xlink:title=" ">
<polygon fill="white" stroke="black" points="771.5,-185 771.5,-204 871.5,-204 871.5,-185 771.5,-185"/>
<text text-anchor="middle" x="821.5" y="-192" font-family="Helvetica,sans-Serif" font-size="10.00">core/Descriptor.h</text>
</a>
</g>
</g>
<!-- Node23&#45;&gt;Node24 -->
<g id="edge30" class="edge">
<title>Node23&#45;&gt;Node24</title>
<path fill="none" stroke="midnightblue" d="M821.5,-251.73C821.5,-242.18 821.5,-226.62 821.5,-214.28"/>
<polygon fill="midnightblue" stroke="midnightblue" points="825,-214.13 821.5,-204.13 818,-214.13 825,-214.13"/>
</g>
<!-- Node26 -->
<g id="node26" class="node">
<title>Node26</title>
<g id="a_node26"><a xlink:href="core_2socket_2_socket_address_8h.html" target="_top" xlink:title=" ">
<polygon fill="white" stroke="black" points="932,-118 932,-137 1087,-137 1087,-118 932,-118"/>
<text text-anchor="middle" x="1009.5" y="-125" font-family="Helvetica,sans-Serif" font-size="10.00">core/socket/SocketAddress.h</text>
</a>
</g>
</g>
<!-- Node25&#45;&gt;Node26 -->
<g id="edge32" class="edge">
<title>Node25&#45;&gt;Node26</title>
<path fill="none" stroke="midnightblue" d="M1009.5,-184.73C1009.5,-175.18 1009.5,-159.62 1009.5,-147.28"/>
<polygon fill="midnightblue" stroke="midnightblue" points="1013,-147.13 1009.5,-137.13 1006,-147.13 1013,-147.13"/>
</g>
<!-- Node28 -->
<g id="node28" class="node">
<title>Node28</title>
<g id="a_node28"><a xlink:href="_config_tls_8h.html" target="_top" xlink:title=" ">
<polygon fill="white" stroke="black" points="1360.5,-319 1360.5,-338 1450.5,-338 1450.5,-319 1360.5,-319"/>
<text text-anchor="middle" x="1405.5" y="-326" font-family="Helvetica,sans-Serif" font-size="10.00">net/ConfigTls.h</text>
</a>
</g>
</g>
<!-- Node27&#45;&gt;Node28 -->
<g id="edge34" class="edge">
<title>Node27&#45;&gt;Node28</title>
<path fill="none" stroke="midnightblue" d="M1295.88,-380.4C1320.33,-369.04 1354.41,-353.22 1378.05,-342.24"/>
<polygon fill="midnightblue" stroke="midnightblue" points="1379.58,-345.39 1387.18,-338.01 1376.63,-339.04 1379.58,-345.39"/>
</g>
<!-- Node29 -->
<g id="node29" class="node">
<title>Node29</title>
<g id="a_node29"><a xlink:href="in_2stream_2_client_config_8h.html" target="_top" xlink:title=" ">
<polygon fill="white" stroke="black" points="1188.5,-319 1188.5,-338 1342.5,-338 1342.5,-319 1188.5,-319"/>
<text text-anchor="middle" x="1265.5" y="-326" font-family="Helvetica,sans-Serif" font-size="10.00">net/in/stream/ClientConfig.h</text>
</a>
</g>
</g>
<!-- Node27&#45;&gt;Node29 -->
<g id="edge35" class="edge">
<title>Node27&#45;&gt;Node29</title>
<path fill="none" stroke="midnightblue" d="M1265.5,-380.4C1265.5,-371.06 1265.5,-358.71 1265.5,-348.52"/>
<polygon fill="midnightblue" stroke="midnightblue" points="1269,-348.19 1265.5,-338.19 1262,-348.19 1269,-348.19"/>
</g>
<!-- Node30 -->
<g id="node30" class="node">
<title>Node30</title>
<g id="a_node30"><a xlink:href="_config_backlog_8h.html" target="_top" xlink:title=" ">
<polygon fill="white" stroke="black" points="1220,-252 1220,-271 1335,-271 1335,-252 1220,-252"/>
<text text-anchor="middle" x="1277.5" y="-259" font-family="Helvetica,sans-Serif" font-size="10.00">net/ConfigBacklog.h</text>
</a>
</g>
</g>
<!-- Node29&#45;&gt;Node30 -->
<g id="edge36" class="edge">
<title>Node29&#45;&gt;Node30</title>
<path fill="none" stroke="midnightblue" d="M1267.12,-318.73C1268.88,-309.18 1271.76,-293.62 1274.03,-281.28"/>
<polygon fill="midnightblue" stroke="midnightblue" points="1277.53,-281.6 1275.91,-271.13 1270.65,-280.33 1277.53,-281.6"/>
</g>
<!-- Node31 -->
<g id="node31" class="node">
<title>Node31</title>
<g id="a_node31"><a xlink:href="_config_base_8h.html" target="_top" xlink:title=" ">
<polygon fill="white" stroke="black" points="1536.5,-252 1536.5,-271 1636.5,-271 1636.5,-252 1536.5,-252"/>
<text text-anchor="middle" x="1586.5" y="-259" font-family="Helvetica,sans-Serif" font-size="10.00">net/ConfigBase.h</text>
</a>
</g>
</g>
<!-- Node29&#45;&gt;Node31 -->
<g id="edge37" class="edge">
<title>Node29&#45;&gt;Node31</title>
<path fill="none" stroke="midnightblue" d="M1313.26,-318.94C1365.7,-309.38 1452.31,-293.13 1526.5,-277 1531.61,-275.89 1536.94,-274.68 1542.24,-273.44"/>
<polygon fill="midnightblue" stroke="midnightblue" points="1543.37,-276.77 1552.29,-271.05 1541.76,-269.96 1543.37,-276.77"/>
</g>
<!-- Node32 -->
<g id="node32" class="node">
<title>Node32</title>
<g id="a_node32"><a xlink:href="_config_conn_8h.html" target="_top" xlink:title=" ">
<polygon fill="white" stroke="black" points="1101,-252 1101,-271 1202,-271 1202,-252 1101,-252"/>
<text text-anchor="middle" x="1151.5" y="-259" font-family="Helvetica,sans-Serif" font-size="10.00">net/ConfigConn.h</text>
</a>
</g>
</g>
<!-- Node29&#45;&gt;Node32 -->
<g id="edge38" class="edge">
<title>Node29&#45;&gt;Node32</title>
<path fill="none" stroke="midnightblue" d="M1250.13,-318.73C1230.98,-307.82 1198.06,-289.05 1175.56,-276.22"/>
<polygon fill="midnightblue" stroke="midnightblue" points="1177.05,-273.04 1166.63,-271.13 1173.58,-279.12 1177.05,-273.04"/>
</g>
<!-- Node33 -->
<g id="node33" class="node">
<title>Node33</title>
<g id="a_node33"><a xlink:href="in_2stream_2_config_bind_8h.html" target="_top" xlink:title=" ">
<polygon fill="white" stroke="black" points="936,-252 936,-271 1083,-271 1083,-252 936,-252"/>
<text text-anchor="middle" x="1009.5" y="-259" font-family="Helvetica,sans-Serif" font-size="10.00">net/in/stream/ConfigBind.h</text>
</a>
</g>
</g>
<!-- Node29&#45;&gt;Node33 -->
<g id="edge39" class="edge">
<title>Node29&#45;&gt;Node33</title>
<path fill="none" stroke="midnightblue" d="M1231.77,-318.94C1185.91,-307.29 1103.84,-286.45 1053.28,-273.62"/>
<polygon fill="midnightblue" stroke="midnightblue" points="1053.86,-270.15 1043.31,-271.08 1052.14,-276.94 1053.86,-270.15"/>
</g>
<!-- Node34 -->
<g id="node34" class="node">
<title>Node34</title>
<g id="a_node34"><a xlink:href="in_2stream_2_config_connect_8h.html" target="_top" xlink:title=" ">
<polygon fill="white" stroke="black" points="1353,-252 1353,-271 1518,-271 1518,-252 1353,-252"/>
<text text-anchor="middle" x="1435.5" y="-259" font-family="Helvetica,sans-Serif" font-size="10.00">net/in/stream/ConfigConnect.h</text>
</a>
</g>
</g>
<!-- Node29&#45;&gt;Node34 -->
<g id="edge41" class="edge">
<title>Node29&#45;&gt;Node34</title>
<path fill="none" stroke="midnightblue" d="M1288.07,-318.87C1317.75,-307.52 1370.05,-287.52 1403.72,-274.65"/>
<polygon fill="midnightblue" stroke="midnightblue" points="1405.01,-277.9 1413.1,-271.06 1402.51,-271.37 1405.01,-277.9"/>
</g>
<!-- Node33&#45;&gt;Node25 -->
<g id="edge40" class="edge">
<title>Node33&#45;&gt;Node25</title>
<path fill="none" stroke="midnightblue" d="M1009.5,-251.73C1009.5,-242.18 1009.5,-226.62 1009.5,-214.28"/>
<polygon fill="midnightblue" stroke="midnightblue" points="1013,-214.13 1009.5,-204.13 1006,-214.13 1013,-214.13"/>
</g>
<!-- Node34&#45;&gt;Node25 -->
<g id="edge42" class="edge">
<title>Node34&#45;&gt;Node25</title>
<path fill="none" stroke="midnightblue" d="M1381.51,-251.93C1369.03,-249.97 1355.8,-247.9 1343.5,-246 1251.02,-231.72 1144.07,-215.62 1076.62,-205.52"/>
<polygon fill="midnightblue" stroke="midnightblue" points="1076.96,-202.03 1066.55,-204.01 1075.92,-208.96 1076.96,-202.03"/>
</g>
<!-- Node36 -->
<g id="node36" class="node">
<title>Node36</title>
<g id="a_node36"><a xlink:href="web_2http_2client_2_socket_context_factory_8h.html" target="_top" xlink:title=" ">
<polygon fill="white" stroke="black" points="1635,-380.5 1635,-410.5 1798,-410.5 1798,-380.5 1635,-380.5"/>
<text text-anchor="start" x="1643" y="-398.5" font-family="Helvetica,sans-Serif" font-size="10.00">web/http/client/SocketContext</text>
<text text-anchor="middle" x="1716.5" y="-387.5" font-family="Helvetica,sans-Serif" font-size="10.00">Factory.h</text>
</a>
</g>
</g>
<!-- Node35&#45;&gt;Node36 -->
<g id="edge44" class="edge">
<title>Node35&#45;&gt;Node36</title>
<path fill="none" stroke="midnightblue" d="M1564.74,-452.87C1591.23,-443.03 1635.22,-426.69 1669.04,-414.13"/>
<polygon fill="midnightblue" stroke="midnightblue" points="1670.58,-417.29 1678.73,-410.53 1668.14,-410.73 1670.58,-417.29"/>
</g>
<!-- Node37 -->
<g id="node37" class="node">
<title>Node37</title>
<g id="a_node37"><a xlink:href="web_2http_2_socket_context_factory_8h.html" target="_top" xlink:title=" ">
<polygon fill="white" stroke="black" points="1628.5,-319 1628.5,-338 1804.5,-338 1804.5,-319 1628.5,-319"/>
<text text-anchor="middle" x="1716.5" y="-326" font-family="Helvetica,sans-Serif" font-size="10.00">web/http/SocketContextFactory.h</text>
</a>
</g>
</g>
<!-- Node36&#45;&gt;Node37 -->
<g id="edge45" class="edge">
<title>Node36&#45;&gt;Node37</title>
<path fill="none" stroke="midnightblue" d="M1716.5,-380.4C1716.5,-371.06 1716.5,-358.71 1716.5,-348.52"/>
<polygon fill="midnightblue" stroke="midnightblue" points="1720,-348.19 1716.5,-338.19 1713,-348.19 1720,-348.19"/>
</g>
<!-- Node39 -->
<g id="node39" class="node">
<title>Node39</title>
<g id="a_node39"><a xlink:href="client_2_socket_context_8hpp.html" target="_top" xlink:title=" ">
<polygon fill="white" stroke="black" points="1822.5,-319 1822.5,-338 2006.5,-338 2006.5,-319 1822.5,-319"/>
<text text-anchor="middle" x="1914.5" y="-326" font-family="Helvetica,sans-Serif" font-size="10.00">web/http/client/SocketContext.hpp</text>
</a>
</g>
</g>
<!-- Node36&#45;&gt;Node39 -->
<g id="edge47" class="edge">
<title>Node36&#45;&gt;Node39</title>
<path fill="none" stroke="midnightblue" d="M1759.46,-380.4C1795.13,-368.69 1845.26,-352.23 1878.76,-341.23"/>
<polygon fill="midnightblue" stroke="midnightblue" points="1880.18,-344.45 1888.59,-338.01 1877.99,-337.8 1880.18,-344.45"/>
</g>
<!-- Node38 -->
<g id="node38" class="node">
<title>Node38</title>
<g id="a_node38"><a xlink:href="core_2socket_2_socket_context_factory_8h.html" target="_top" xlink:title=" ">
<polygon fill="white" stroke="black" points="1654.5,-246.5 1654.5,-276.5 1800.5,-276.5 1800.5,-246.5 1654.5,-246.5"/>
<text text-anchor="start" x="1662.5" y="-264.5" font-family="Helvetica,sans-Serif" font-size="10.00">core/socket/SocketContext</text>
<text text-anchor="middle" x="1727.5" y="-253.5" font-family="Helvetica,sans-Serif" font-size="10.00">Factory.h</text>
</a>
</g>
</g>
<!-- Node37&#45;&gt;Node38 -->
<g id="edge46" class="edge">
<title>Node37&#45;&gt;Node38</title>
<path fill="none" stroke="midnightblue" d="M1717.98,-318.73C1719.37,-310.54 1721.51,-297.92 1723.4,-286.71"/>
<polygon fill="midnightblue" stroke="midnightblue" points="1726.9,-287.03 1725.12,-276.59 1720,-285.86 1726.9,-287.03"/>
</g>
<!-- Node40 -->
<g id="node40" class="node">
<title>Node40</title>
<g id="a_node40"><a xlink:href="web_2http_2client_2_socket_context_8h.html" target="_top" xlink:title=" ">
<polygon fill="white" stroke="black" points="1828.5,-252 1828.5,-271 2000.5,-271 2000.5,-252 1828.5,-252"/>
<text text-anchor="middle" x="1914.5" y="-259" font-family="Helvetica,sans-Serif" font-size="10.00">web/http/client/SocketContext.h</text>
</a>
</g>
</g>
<!-- Node39&#45;&gt;Node40 -->
<g id="edge48" class="edge">
<title>Node39&#45;&gt;Node40</title>
<path fill="none" stroke="midnightblue" d="M1914.5,-318.73C1914.5,-309.18 1914.5,-293.62 1914.5,-281.28"/>
<polygon fill="midnightblue" stroke="midnightblue" points="1918,-281.13 1914.5,-271.13 1911,-281.13 1918,-281.13"/>
</g>
<!-- Node41 -->
<g id="node41" class="node">
<title>Node41</title>
<g id="a_node41"><a xlink:href="web_2http_2_socket_context_8h.html" target="_top" xlink:title=" ">
<polygon fill="white" stroke="black" points="1922.5,-185 1922.5,-204 2064.5,-204 2064.5,-185 1922.5,-185"/>
<text text-anchor="middle" x="1993.5" y="-192" font-family="Helvetica,sans-Serif" font-size="10.00">web/http/SocketContext.h</text>
</a>
</g>
</g>
<!-- Node40&#45;&gt;Node41 -->
<g id="edge49" class="edge">
<title>Node40&#45;&gt;Node41</title>
<path fill="none" stroke="midnightblue" d="M1925.15,-251.73C1937.95,-241.21 1959.62,-223.38 1975.13,-210.62"/>
<polygon fill="midnightblue" stroke="midnightblue" points="1977.52,-213.18 1983.01,-204.13 1973.07,-207.78 1977.52,-213.18"/>
</g>
<!-- Node43 -->
<g id="node43" class="node">
<title>Node43</title>
<g id="a_node43"><a xlink:href="_response_parser_8h.html" target="_top" xlink:title=" ">
<polygon fill="white" stroke="black" points="1764.5,-179.5 1764.5,-209.5 1904.5,-209.5 1904.5,-179.5 1764.5,-179.5"/>
<text text-anchor="start" x="1772.5" y="-197.5" font-family="Helvetica,sans-Serif" font-size="10.00">web/http/client/Response</text>
<text text-anchor="middle" x="1834.5" y="-186.5" font-family="Helvetica,sans-Serif" font-size="10.00">Parser.h</text>
</a>
</g>
</g>
<!-- Node40&#45;&gt;Node43 -->
<g id="edge51" class="edge">
<title>Node40&#45;&gt;Node43</title>
<path fill="none" stroke="midnightblue" d="M1903.71,-251.73C1892.48,-242.61 1874.5,-228 1859.69,-215.96"/>
<polygon fill="midnightblue" stroke="midnightblue" points="1861.81,-213.18 1851.84,-209.59 1857.39,-218.61 1861.81,-213.18"/>
</g>
<!-- Node42 -->
<g id="node42" class="node">
<title>Node42</title>
<g id="a_node42"><a xlink:href="core_2socket_2_socket_context_8h.html" target="_top" xlink:title=" ">
<polygon fill="white" stroke="black" points="1916,-118 1916,-137 2071,-137 2071,-118 1916,-118"/>
<text text-anchor="middle" x="1993.5" y="-125" font-family="Helvetica,sans-Serif" font-size="10.00">core/socket/SocketContext.h</text>
</a>
</g>
</g>
<!-- Node41&#45;&gt;Node42 -->
<g id="edge50" class="edge">
<title>Node41&#45;&gt;Node42</title>
<path fill="none" stroke="midnightblue" d="M1993.5,-184.73C1993.5,-175.18 1993.5,-159.62 1993.5,-147.28"/>
<polygon fill="midnightblue" stroke="midnightblue" points="1997,-147.13 1993.5,-137.13 1990,-147.13 1997,-147.13"/>
</g>
<!-- Node44 -->
<g id="node44" class="node">
<title>Node44</title>
<g id="a_node44"><a xlink:href="_cookie_options_8h.html" target="_top" xlink:title=" ">
<polygon fill="white" stroke="black" points="1628,-118 1628,-137 1771,-137 1771,-118 1628,-118"/>
<text text-anchor="middle" x="1699.5" y="-125" font-family="Helvetica,sans-Serif" font-size="10.00">web/http/CookieOptions.h</text>
</a>
</g>
</g>
<!-- Node43&#45;&gt;Node44 -->
<g id="edge52" class="edge">
<title>Node43&#45;&gt;Node44</title>
<path fill="none" stroke="midnightblue" d="M1805.21,-179.4C1781.73,-168.09 1749.06,-152.36 1726.27,-141.39"/>
<polygon fill="midnightblue" stroke="midnightblue" points="1727.7,-138.19 1717.17,-137.01 1724.66,-144.5 1727.7,-138.19"/>
</g>
<!-- Node45 -->
<g id="node45" class="node">
<title>Node45</title>
<g id="a_node45"><a xlink:href="_parser_8h.html" target="_top" xlink:title=" ">
<polygon fill="white" stroke="black" points="1789.5,-118 1789.5,-137 1891.5,-137 1891.5,-118 1789.5,-118"/>
<text text-anchor="middle" x="1840.5" y="-125" font-family="Helvetica,sans-Serif" font-size="10.00">web/http/Parser.h</text>
</a>
</g>
</g>
<!-- Node43&#45;&gt;Node45 -->
<g id="edge53" class="edge">
<title>Node43&#45;&gt;Node45</title>
<path fill="none" stroke="midnightblue" d="M1835.8,-179.4C1836.67,-169.96 1837.83,-157.45 1838.77,-147.19"/>
<polygon fill="midnightblue" stroke="midnightblue" points="1842.26,-147.47 1839.7,-137.19 1835.29,-146.83 1842.26,-147.47"/>
</g>
</g>
</svg>
