<?xml version="1.0" encoding="UTF-8" standalone="no"?>
<!DOCTYPE svg PUBLIC "-//W3C//DTD SVG 1.1//EN"
 "http://www.w3.org/Graphics/SVG/1.1/DTD/svg11.dtd">
<!-- Generated by graphviz version 2.43.0 (0)
 -->
<!-- Title: express/tls/un/WebApp.h Pages: 1 -->
<svg width="2840pt" height="475pt"
 viewBox="0.00 0.00 2839.50 475.00" xmlns="http://www.w3.org/2000/svg" xmlns:xlink="http://www.w3.org/1999/xlink">
<g id="graph0" class="graph" transform="scale(1 1) rotate(0) translate(4 471)">
<title>express/tls/un/WebApp.h</title>
<polygon fill="white" stroke="transparent" points="-4,4 -4,-471 2835.5,-471 2835.5,4 -4,4"/>
<!-- Node1 -->
<g id="node1" class="node">
<title>Node1</title>
<g id="a_node1"><a xlink:title=" ">
<polygon fill="#bfbfbf" stroke="black" points="660,-447.5 660,-466.5 797,-466.5 797,-447.5 660,-447.5"/>
<text text-anchor="middle" x="728.5" y="-454.5" font-family="Helvetica,sans-Serif" font-size="10.00">express/tls/un/WebApp.h</text>
</a>
</g>
</g>
<!-- Node2 -->
<g id="node2" class="node">
<title>Node2</title>
<g id="a_node2"><a xlink:href="_web_app_t_8h.html" target="_top" xlink:title=" ">
<polygon fill="white" stroke="black" points="405.5,-330 405.5,-349 517.5,-349 517.5,-330 405.5,-330"/>
<text text-anchor="middle" x="461.5" y="-337" font-family="Helvetica,sans-Serif" font-size="10.00">express/WebAppT.h</text>
</a>
</g>
</g>
<!-- Node1&#45;&gt;Node2 -->
<g id="edge1" class="edge">
<title>Node1&#45;&gt;Node2</title>
<path fill="none" stroke="midnightblue" d="M708.43,-447.32C661.74,-427.12 545.62,-376.89 490.91,-353.22"/>
<polygon fill="midnightblue" stroke="midnightblue" points="492,-349.88 481.44,-349.12 489.23,-356.31 492,-349.88"/>
</g>
<!-- Node14 -->
<g id="node14" class="node">
<title>Node14</title>
<g id="a_node14"><a xlink:href="tls_2un_2_server_8h.html" target="_top" xlink:title=" ">
<polygon fill="white" stroke="black" points="752,-391.5 752,-410.5 885,-410.5 885,-391.5 752,-391.5"/>
<text text-anchor="middle" x="818.5" y="-398.5" font-family="Helvetica,sans-Serif" font-size="10.00">web/http/tls/un/Server.h</text>
</a>
</g>
</g>
<!-- Node1&#45;&gt;Node14 -->
<g id="edge14" class="edge">
<title>Node1&#45;&gt;Node14</title>
<path fill="none" stroke="midnightblue" d="M742.96,-447.32C757,-438.9 778.55,-425.97 795.04,-416.07"/>
<polygon fill="midnightblue" stroke="midnightblue" points="797.3,-418.8 804.08,-410.65 793.7,-412.8 797.3,-418.8"/>
</g>
<!-- Node3 -->
<g id="node3" class="node">
<title>Node3</title>
<g id="a_node3"><a xlink:href="express_2_request_8h.html" target="_top" xlink:title=" ">
<polygon fill="white" stroke="black" points="478,-263 478,-282 585,-282 585,-263 478,-263"/>
<text text-anchor="middle" x="531.5" y="-270" font-family="Helvetica,sans-Serif" font-size="10.00">express/Request.h</text>
</a>
</g>
</g>
<!-- Node2&#45;&gt;Node3 -->
<g id="edge2" class="edge">
<title>Node2&#45;&gt;Node3</title>
<path fill="none" stroke="midnightblue" d="M470.94,-329.73C482.17,-319.31 501.12,-301.71 514.84,-288.97"/>
<polygon fill="midnightblue" stroke="midnightblue" points="517.26,-291.5 522.21,-282.13 512.5,-286.37 517.26,-291.5"/>
</g>
<!-- Node7 -->
<g id="node7" class="node">
<title>Node7</title>
<g id="a_node7"><a xlink:href="express_2_response_8h.html" target="_top" xlink:title=" ">
<polygon fill="white" stroke="black" points="146.5,-263 146.5,-282 260.5,-282 260.5,-263 146.5,-263"/>
<text text-anchor="middle" x="203.5" y="-270" font-family="Helvetica,sans-Serif" font-size="10.00">express/Response.h</text>
</a>
</g>
</g>
<!-- Node2&#45;&gt;Node7 -->
<g id="edge6" class="edge">
<title>Node2&#45;&gt;Node7</title>
<path fill="none" stroke="midnightblue" d="M427.51,-329.94C381.2,-318.27 298.23,-297.37 247.31,-284.54"/>
<polygon fill="midnightblue" stroke="midnightblue" points="248.12,-281.13 237.57,-282.08 246.41,-287.92 248.12,-281.13"/>
</g>
<!-- Node11 -->
<g id="node11" class="node">
<title>Node11</title>
<g id="a_node11"><a xlink:href="_web_app_8h.html" target="_top" xlink:title=" ">
<polygon fill="white" stroke="black" points="345,-263 345,-282 452,-282 452,-263 345,-263"/>
<text text-anchor="middle" x="398.5" y="-270" font-family="Helvetica,sans-Serif" font-size="10.00">express/WebApp.h</text>
</a>
</g>
</g>
<!-- Node2&#45;&gt;Node11 -->
<g id="edge11" class="edge">
<title>Node2&#45;&gt;Node11</title>
<path fill="none" stroke="midnightblue" d="M453,-329.73C442.99,-319.4 426.16,-302.04 413.84,-289.33"/>
<polygon fill="midnightblue" stroke="midnightblue" points="416.33,-286.87 406.86,-282.13 411.31,-291.74 416.33,-286.87"/>
</g>
<!-- Node4 -->
<g id="node4" class="node">
<title>Node4</title>
<g id="a_node4"><a xlink:href="web_2http_2server_2_request_8h.html" target="_top" xlink:title=" ">
<polygon fill="white" stroke="black" points="467,-196 467,-215 612,-215 612,-196 467,-196"/>
<text text-anchor="middle" x="539.5" y="-203" font-family="Helvetica,sans-Serif" font-size="10.00">web/http/server/Request.h</text>
</a>
</g>
</g>
<!-- Node3&#45;&gt;Node4 -->
<g id="edge3" class="edge">
<title>Node3&#45;&gt;Node4</title>
<path fill="none" stroke="midnightblue" d="M532.58,-262.73C533.75,-253.18 535.67,-237.62 537.19,-225.28"/>
<polygon fill="midnightblue" stroke="midnightblue" points="540.69,-225.48 538.44,-215.13 533.74,-224.62 540.69,-225.48"/>
</g>
<!-- Node5 -->
<g id="node5" class="node">
<title>Node5</title>
<g id="a_node5"><a xlink:href="_attribute_injector_8h.html" target="_top" xlink:title=" ">
<polygon fill="white" stroke="black" points="319,-129 319,-148 448,-148 448,-129 319,-129"/>
<text text-anchor="middle" x="383.5" y="-136" font-family="Helvetica,sans-Serif" font-size="10.00">utils/AttributeInjector.h</text>
</a>
</g>
</g>
<!-- Node4&#45;&gt;Node5 -->
<g id="edge4" class="edge">
<title>Node4&#45;&gt;Node5</title>
<path fill="none" stroke="midnightblue" d="M518.78,-195.87C491.86,-184.65 444.64,-164.98 413.72,-152.09"/>
<polygon fill="midnightblue" stroke="midnightblue" points="414.88,-148.78 404.3,-148.17 412.19,-155.24 414.88,-148.78"/>
</g>
<!-- Node6 -->
<g id="node6" class="node">
<title>Node6</title>
<g id="a_node6"><a xlink:href="_connection_state_8h.html" target="_top" xlink:title=" ">
<polygon fill="white" stroke="black" points="466.5,-129 466.5,-148 618.5,-148 618.5,-129 466.5,-129"/>
<text text-anchor="middle" x="542.5" y="-136" font-family="Helvetica,sans-Serif" font-size="10.00">web/http/ConnectionState.h</text>
</a>
</g>
</g>
<!-- Node4&#45;&gt;Node6 -->
<g id="edge5" class="edge">
<title>Node4&#45;&gt;Node6</title>
<path fill="none" stroke="midnightblue" d="M539.9,-195.73C540.35,-186.18 541.06,-170.62 541.63,-158.28"/>
<polygon fill="midnightblue" stroke="midnightblue" points="545.14,-158.28 542.1,-148.13 538.14,-157.96 545.14,-158.28"/>
</g>
<!-- Node8 -->
<g id="node8" class="node">
<title>Node8</title>
<g id="a_node8"><a xlink:href="web_2http_2server_2_response_8h.html" target="_top" xlink:title=" ">
<polygon fill="white" stroke="black" points="60.5,-196 60.5,-215 212.5,-215 212.5,-196 60.5,-196"/>
<text text-anchor="middle" x="136.5" y="-203" font-family="Helvetica,sans-Serif" font-size="10.00">web/http/server/Response.h</text>
</a>
</g>
</g>
<!-- Node7&#45;&gt;Node8 -->
<g id="edge7" class="edge">
<title>Node7&#45;&gt;Node8</title>
<path fill="none" stroke="midnightblue" d="M194.46,-262.73C183.82,-252.4 165.92,-235.04 152.82,-222.33"/>
<polygon fill="midnightblue" stroke="midnightblue" points="155.01,-219.58 145.39,-215.13 150.13,-224.6 155.01,-219.58"/>
</g>
<!-- Node8&#45;&gt;Node6 -->
<g id="edge9" class="edge">
<title>Node8&#45;&gt;Node6</title>
<path fill="none" stroke="midnightblue" d="M185.47,-196C197.26,-193.99 209.82,-191.89 221.5,-190 326.24,-173.08 352.76,-170.92 457.5,-154 465.89,-152.64 474.74,-151.18 483.44,-149.71"/>
<polygon fill="midnightblue" stroke="midnightblue" points="484.26,-153.12 493.53,-148 483.09,-146.22 484.26,-153.12"/>
</g>
<!-- Node9 -->
<g id="node9" class="node">
<title>Node9</title>
<g id="a_node9"><a xlink:href="_sink_8h.html" target="_top" xlink:title=" ">
<polygon fill="white" stroke="black" points="0,-129 0,-148 95,-148 95,-129 0,-129"/>
<text text-anchor="middle" x="47.5" y="-136" font-family="Helvetica,sans-Serif" font-size="10.00">core/pipe/Sink.h</text>
</a>
</g>
</g>
<!-- Node8&#45;&gt;Node9 -->
<g id="edge8" class="edge">
<title>Node8&#45;&gt;Node9</title>
<path fill="none" stroke="midnightblue" d="M124.5,-195.73C109.95,-185.11 85.22,-167.05 67.72,-154.26"/>
<polygon fill="midnightblue" stroke="midnightblue" points="69.45,-151.2 59.31,-148.13 65.32,-156.85 69.45,-151.2"/>
</g>
<!-- Node10 -->
<g id="node10" class="node">
<title>Node10</title>
<g id="a_node10"><a xlink:href="_cookie_options_8h.html" target="_top" xlink:title=" ">
<polygon fill="white" stroke="black" points="113,-129 113,-148 256,-148 256,-129 113,-129"/>
<text text-anchor="middle" x="184.5" y="-136" font-family="Helvetica,sans-Serif" font-size="10.00">web/http/CookieOptions.h</text>
</a>
</g>
</g>
<!-- Node8&#45;&gt;Node10 -->
<g id="edge10" class="edge">
<title>Node8&#45;&gt;Node10</title>
<path fill="none" stroke="midnightblue" d="M142.97,-195.73C150.39,-185.7 162.7,-169.01 172,-156.42"/>
<polygon fill="midnightblue" stroke="midnightblue" points="175,-158.25 178.13,-148.13 169.37,-154.09 175,-158.25"/>
</g>
<!-- Node12 -->
<g id="node12" class="node">
<title>Node12</title>
<g id="a_node12"><a xlink:href="_tick_status_8h.html" target="_top" xlink:title=" ">
<polygon fill="white" stroke="black" points="348.5,-196 348.5,-215 448.5,-215 448.5,-196 348.5,-196"/>
<text text-anchor="middle" x="398.5" y="-203" font-family="Helvetica,sans-Serif" font-size="10.00">core/TickStatus.h</text>
</a>
</g>
</g>
<!-- Node11&#45;&gt;Node12 -->
<g id="edge12" class="edge">
<title>Node11&#45;&gt;Node12</title>
<path fill="none" stroke="midnightblue" d="M398.5,-262.73C398.5,-253.18 398.5,-237.62 398.5,-225.28"/>
<polygon fill="midnightblue" stroke="midnightblue" points="402,-225.13 398.5,-215.13 395,-225.13 402,-225.13"/>
</g>
<!-- Node13 -->
<g id="node13" class="node">
<title>Node13</title>
<g id="a_node13"><a xlink:href="_router_8h.html" target="_top" xlink:title=" ">
<polygon fill="white" stroke="black" points="231,-196 231,-215 330,-215 330,-196 231,-196"/>
<text text-anchor="middle" x="280.5" y="-203" font-family="Helvetica,sans-Serif" font-size="10.00">express/Router.h</text>
</a>
</g>
</g>
<!-- Node11&#45;&gt;Node13 -->
<g id="edge13" class="edge">
<title>Node11&#45;&gt;Node13</title>
<path fill="none" stroke="midnightblue" d="M382.59,-262.73C362.68,-251.77 328.39,-232.88 305.1,-220.05"/>
<polygon fill="midnightblue" stroke="midnightblue" points="306.61,-216.89 296.16,-215.13 303.23,-223.02 306.61,-216.89"/>
</g>
<!-- Node15 -->
<g id="node15" class="node">
<title>Node15</title>
<g id="a_node15"><a xlink:href="net_2un_2stream_2tls_2_socket_server_8h.html" target="_top" xlink:title=" ">
<polygon fill="white" stroke="black" points="1350,-324.5 1350,-354.5 1485,-354.5 1485,-324.5 1350,-324.5"/>
<text text-anchor="start" x="1358" y="-342.5" font-family="Helvetica,sans-Serif" font-size="10.00">net/un/stream/tls/Socket</text>
<text text-anchor="middle" x="1417.5" y="-331.5" font-family="Helvetica,sans-Serif" font-size="10.00">Server.h</text>
</a>
</g>
</g>
<!-- Node14&#45;&gt;Node15 -->
<g id="edge15" class="edge">
<title>Node14&#45;&gt;Node15</title>
<path fill="none" stroke="midnightblue" d="M885.18,-393.38C996.89,-382.28 1221.25,-359.99 1339.87,-348.21"/>
<polygon fill="midnightblue" stroke="midnightblue" points="1340.36,-351.68 1349.97,-347.21 1339.67,-344.71 1340.36,-351.68"/>
</g>
<!-- Node52 -->
<g id="node43" class="node">
<title>Node52</title>
<g id="a_node43"><a xlink:href="server_2_server_8h.html" target="_top" xlink:title=" ">
<polygon fill="white" stroke="black" points="750,-330 750,-349 887,-349 887,-330 750,-330"/>
<text text-anchor="middle" x="818.5" y="-337" font-family="Helvetica,sans-Serif" font-size="10.00">web/http/server/Server.h</text>
</a>
</g>
</g>
<!-- Node14&#45;&gt;Node52 -->
<g id="edge47" class="edge">
<title>Node14&#45;&gt;Node52</title>
<path fill="none" stroke="midnightblue" d="M818.5,-391.48C818.5,-383.08 818.5,-369.98 818.5,-359.16"/>
<polygon fill="midnightblue" stroke="midnightblue" points="822,-359.01 818.5,-349.01 815,-359.01 822,-359.01"/>
</g>
<!-- Node16 -->
<g id="node16" class="node">
<title>Node16</title>
<g id="a_node16"><a xlink:href="core_2socket_2stream_2tls_2_socket_server_8h.html" target="_top" xlink:title=" ">
<polygon fill="white" stroke="black" points="1887.5,-257.5 1887.5,-287.5 1997.5,-287.5 1997.5,-257.5 1887.5,-257.5"/>
<text text-anchor="start" x="1895.5" y="-275.5" font-family="Helvetica,sans-Serif" font-size="10.00">core/socket/stream</text>
<text text-anchor="middle" x="1942.5" y="-264.5" font-family="Helvetica,sans-Serif" font-size="10.00">/tls/SocketServer.h</text>
</a>
</g>
</g>
<!-- Node15&#45;&gt;Node16 -->
<g id="edge16" class="edge">
<title>Node15&#45;&gt;Node16</title>
<path fill="none" stroke="midnightblue" d="M1485.06,-330.14C1586.54,-317.57 1777.05,-293.98 1877.19,-281.59"/>
<polygon fill="midnightblue" stroke="midnightblue" points="1877.69,-285.05 1887.18,-280.35 1876.83,-278.1 1877.69,-285.05"/>
</g>
<!-- Node36 -->
<g id="node27" class="node">
<title>Node36</title>
<g id="a_node27"><a xlink:href="net_2un_2stream_2_server_socket_8h.html" target="_top" xlink:title=" ">
<polygon fill="white" stroke="black" points="1200,-263 1200,-282 1361,-282 1361,-263 1200,-263"/>
<text text-anchor="middle" x="1280.5" y="-270" font-family="Helvetica,sans-Serif" font-size="10.00">net/un/stream/ServerSocket.h</text>
</a>
</g>
</g>
<!-- Node15&#45;&gt;Node36 -->
<g id="edge27" class="edge">
<title>Node15&#45;&gt;Node36</title>
<path fill="none" stroke="midnightblue" d="M1387.77,-324.4C1363.95,-313.09 1330.79,-297.36 1307.67,-286.39"/>
<polygon fill="midnightblue" stroke="midnightblue" points="1308.97,-283.13 1298.43,-282.01 1305.96,-289.46 1308.97,-283.13"/>
</g>
<!-- Node43 -->
<g id="node34" class="node">
<title>Node43</title>
<g id="a_node34"><a xlink:href="un_2stream_2tls_2config_2_config_socket_server_8h.html" target="_top" xlink:title=" ">
<polygon fill="white" stroke="black" points="1512,-257.5 1512,-287.5 1645,-287.5 1645,-257.5 1512,-257.5"/>
<text text-anchor="start" x="1520" y="-275.5" font-family="Helvetica,sans-Serif" font-size="10.00">net/un/stream/tls/config</text>
<text text-anchor="middle" x="1578.5" y="-264.5" font-family="Helvetica,sans-Serif" font-size="10.00">/ConfigSocketServer.h</text>
</a>
</g>
</g>
<!-- Node15&#45;&gt;Node43 -->
<g id="edge34" class="edge">
<title>Node15&#45;&gt;Node43</title>
<path fill="none" stroke="midnightblue" d="M1452.43,-324.4C1476.38,-314.73 1508.35,-301.82 1534.1,-291.43"/>
<polygon fill="midnightblue" stroke="midnightblue" points="1535.67,-294.57 1543.63,-287.58 1533.05,-288.07 1535.67,-294.57"/>
</g>
<!-- Node17 -->
<g id="node17" class="node">
<title>Node17</title>
<g id="a_node17"><a xlink:href="core_2socket_2stream_2_socket_server_8h.html" target="_top" xlink:title=" ">
<polygon fill="white" stroke="black" points="1887.5,-190.5 1887.5,-220.5 1997.5,-220.5 1997.5,-190.5 1887.5,-190.5"/>
<text text-anchor="start" x="1895.5" y="-208.5" font-family="Helvetica,sans-Serif" font-size="10.00">core/socket/stream</text>
<text text-anchor="middle" x="1942.5" y="-197.5" font-family="Helvetica,sans-Serif" font-size="10.00">/SocketServer.h</text>
</a>
</g>
</g>
<!-- Node16&#45;&gt;Node17 -->
<g id="edge17" class="edge">
<title>Node16&#45;&gt;Node17</title>
<path fill="none" stroke="midnightblue" d="M1942.5,-257.4C1942.5,-249.64 1942.5,-239.81 1942.5,-230.86"/>
<polygon fill="midnightblue" stroke="midnightblue" points="1946,-230.58 1942.5,-220.58 1939,-230.58 1946,-230.58"/>
</g>
<!-- Node18 -->
<g id="node18" class="node">
<title>Node18</title>
<g id="a_node18"><a xlink:href="tls_2_socket_acceptor_8h.html" target="_top" xlink:title=" ">
<polygon fill="white" stroke="black" points="2109,-190.5 2109,-220.5 2228,-220.5 2228,-190.5 2109,-190.5"/>
<text text-anchor="start" x="2117" y="-208.5" font-family="Helvetica,sans-Serif" font-size="10.00">core/socket/stream</text>
<text text-anchor="middle" x="2168.5" y="-197.5" font-family="Helvetica,sans-Serif" font-size="10.00">/tls/SocketAcceptor.h</text>
</a>
</g>
</g>
<!-- Node16&#45;&gt;Node18 -->
<g id="edge18" class="edge">
<title>Node16&#45;&gt;Node18</title>
<path fill="none" stroke="midnightblue" d="M1991.26,-257.48C2026.04,-247.47 2072.98,-233.97 2109.82,-223.38"/>
<polygon fill="midnightblue" stroke="midnightblue" points="2110.79,-226.74 2119.44,-220.61 2108.86,-220.01 2110.79,-226.74"/>
</g>
<!-- Node19 -->
<g id="node19" class="node">
<title>Node19</title>
<g id="a_node19"><a xlink:href="_socket_acceptor_8h.html" target="_top" xlink:title=" ">
<polygon fill="white" stroke="black" points="2113.5,-123.5 2113.5,-153.5 2223.5,-153.5 2223.5,-123.5 2113.5,-123.5"/>
<text text-anchor="start" x="2121.5" y="-141.5" font-family="Helvetica,sans-Serif" font-size="10.00">core/socket/stream</text>
<text text-anchor="middle" x="2168.5" y="-130.5" font-family="Helvetica,sans-Serif" font-size="10.00">/SocketAcceptor.h</text>
</a>
</g>
</g>
<!-- Node18&#45;&gt;Node19 -->
<g id="edge19" class="edge">
<title>Node18&#45;&gt;Node19</title>
<path fill="none" stroke="midnightblue" d="M2168.5,-190.4C2168.5,-182.64 2168.5,-172.81 2168.5,-163.86"/>
<polygon fill="midnightblue" stroke="midnightblue" points="2172,-163.58 2168.5,-153.58 2165,-163.58 2172,-163.58"/>
</g>
<!-- Node25 -->
<g id="node22" class="node">
<title>Node25</title>
<g id="a_node22"><a xlink:href="stream_2tls_2_socket_connection_8h.html" target="_top" xlink:title=" ">
<polygon fill="white" stroke="black" points="2449,-123.5 2449,-153.5 2580,-153.5 2580,-123.5 2449,-123.5"/>
<text text-anchor="start" x="2457" y="-141.5" font-family="Helvetica,sans-Serif" font-size="10.00">core/socket/stream</text>
<text text-anchor="middle" x="2514.5" y="-130.5" font-family="Helvetica,sans-Serif" font-size="10.00">/tls/SocketConnection.h</text>
</a>
</g>
</g>
<!-- Node18&#45;&gt;Node25 -->
<g id="edge22" class="edge">
<title>Node18&#45;&gt;Node25</title>
<path fill="none" stroke="midnightblue" d="M2228.37,-193.25C2286.76,-182.28 2375.75,-165.57 2438.97,-153.69"/>
<polygon fill="midnightblue" stroke="midnightblue" points="2439.7,-157.11 2448.88,-151.83 2438.41,-150.23 2439.7,-157.11"/>
</g>
<!-- Node20 -->
<g id="node20" class="node">
<title>Node20</title>
<g id="a_node20"><a xlink:href="_accept_event_receiver_8h.html" target="_top" xlink:title=" ">
<polygon fill="white" stroke="red" points="2181.5,-56.5 2181.5,-86.5 2313.5,-86.5 2313.5,-56.5 2181.5,-56.5"/>
<text text-anchor="start" x="2189.5" y="-74.5" font-family="Helvetica,sans-Serif" font-size="10.00">core/eventreceiver</text>
<text text-anchor="middle" x="2247.5" y="-63.5" font-family="Helvetica,sans-Serif" font-size="10.00">/AcceptEventReceiver.h</text>
</a>
</g>
</g>
<!-- Node19&#45;&gt;Node20 -->
<g id="edge20" class="edge">
<title>Node19&#45;&gt;Node20</title>
<path fill="none" stroke="midnightblue" d="M2185.64,-123.4C2196.41,-114.54 2210.48,-102.96 2222.48,-93.09"/>
<polygon fill="midnightblue" stroke="midnightblue" points="2224.89,-95.63 2230.39,-86.58 2220.45,-90.23 2224.89,-95.63"/>
</g>
<!-- Node24 -->
<g id="node21" class="node">
<title>Node24</title>
<g id="a_node21"><a xlink:href="_init_accept_event_receiver_8h.html" target="_top" xlink:title=" ">
<polygon fill="white" stroke="red" points="2015.5,-56.5 2015.5,-86.5 2163.5,-86.5 2163.5,-56.5 2015.5,-56.5"/>
<text text-anchor="start" x="2023.5" y="-74.5" font-family="Helvetica,sans-Serif" font-size="10.00">core/eventreceiver</text>
<text text-anchor="middle" x="2089.5" y="-63.5" font-family="Helvetica,sans-Serif" font-size="10.00">/InitAcceptEventReceiver.h</text>
</a>
</g>
</g>
<!-- Node19&#45;&gt;Node24 -->
<g id="edge21" class="edge">
<title>Node19&#45;&gt;Node24</title>
<path fill="none" stroke="midnightblue" d="M2151.36,-123.4C2140.59,-114.54 2126.52,-102.96 2114.52,-93.09"/>
<polygon fill="midnightblue" stroke="midnightblue" points="2116.55,-90.23 2106.61,-86.58 2112.11,-95.63 2116.55,-90.23"/>
</g>
<!-- Node26 -->
<g id="node23" class="node">
<title>Node26</title>
<g id="a_node23"><a xlink:href="stream_2_socket_connection_8h.html" target="_top" xlink:title=" ">
<polygon fill="white" stroke="red" points="2715.5,-56.5 2715.5,-86.5 2831.5,-86.5 2831.5,-56.5 2715.5,-56.5"/>
<text text-anchor="start" x="2723.5" y="-74.5" font-family="Helvetica,sans-Serif" font-size="10.00">core/socket/stream</text>
<text text-anchor="middle" x="2773.5" y="-63.5" font-family="Helvetica,sans-Serif" font-size="10.00">/SocketConnection.h</text>
</a>
</g>
</g>
<!-- Node25&#45;&gt;Node26 -->
<g id="edge23" class="edge">
<title>Node25&#45;&gt;Node26</title>
<path fill="none" stroke="midnightblue" d="M2570.38,-123.48C2610.58,-113.39 2664.95,-99.74 2707.33,-89.11"/>
<polygon fill="midnightblue" stroke="midnightblue" points="2708.43,-92.44 2717.27,-86.61 2706.72,-85.65 2708.43,-92.44"/>
</g>
<!-- Node28 -->
<g id="node24" class="node">
<title>Node28</title>
<g id="a_node24"><a xlink:href="tls_2_socket_reader_8h.html" target="_top" xlink:title=" ">
<polygon fill="white" stroke="red" points="2331.5,-56.5 2331.5,-86.5 2441.5,-86.5 2441.5,-56.5 2331.5,-56.5"/>
<text text-anchor="start" x="2339.5" y="-74.5" font-family="Helvetica,sans-Serif" font-size="10.00">core/socket/stream</text>
<text text-anchor="middle" x="2386.5" y="-63.5" font-family="Helvetica,sans-Serif" font-size="10.00">/tls/SocketReader.h</text>
</a>
</g>
</g>
<!-- Node25&#45;&gt;Node28 -->
<g id="edge24" class="edge">
<title>Node25&#45;&gt;Node28</title>
<path fill="none" stroke="midnightblue" d="M2486.73,-123.4C2468.11,-113.94 2443.39,-101.39 2423.16,-91.12"/>
<polygon fill="midnightblue" stroke="midnightblue" points="2424.72,-87.98 2414.22,-86.58 2421.55,-94.23 2424.72,-87.98"/>
</g>
<!-- Node33 -->
<g id="node25" class="node">
<title>Node33</title>
<g id="a_node25"><a xlink:href="tls_2_socket_writer_8h.html" target="_top" xlink:title=" ">
<polygon fill="white" stroke="red" points="2459.5,-56.5 2459.5,-86.5 2569.5,-86.5 2569.5,-56.5 2459.5,-56.5"/>
<text text-anchor="start" x="2467.5" y="-74.5" font-family="Helvetica,sans-Serif" font-size="10.00">core/socket/stream</text>
<text text-anchor="middle" x="2514.5" y="-63.5" font-family="Helvetica,sans-Serif" font-size="10.00">/tls/SocketWriter.h</text>
</a>
</g>
</g>
<!-- Node25&#45;&gt;Node33 -->
<g id="edge25" class="edge">
<title>Node25&#45;&gt;Node33</title>
<path fill="none" stroke="midnightblue" d="M2514.5,-123.4C2514.5,-115.64 2514.5,-105.81 2514.5,-96.86"/>
<polygon fill="midnightblue" stroke="midnightblue" points="2518,-96.58 2514.5,-86.58 2511,-96.58 2518,-96.58"/>
</g>
<!-- Node35 -->
<g id="node26" class="node">
<title>Node35</title>
<g id="a_node26"><a xlink:href="_t_l_s_shutdown_8h.html" target="_top" xlink:title=" ">
<polygon fill="white" stroke="red" points="2587.5,-56.5 2587.5,-86.5 2697.5,-86.5 2697.5,-56.5 2587.5,-56.5"/>
<text text-anchor="start" x="2595.5" y="-74.5" font-family="Helvetica,sans-Serif" font-size="10.00">core/socket/stream</text>
<text text-anchor="middle" x="2642.5" y="-63.5" font-family="Helvetica,sans-Serif" font-size="10.00">/tls/TLSShutdown.h</text>
</a>
</g>
</g>
<!-- Node25&#45;&gt;Node35 -->
<g id="edge26" class="edge">
<title>Node25&#45;&gt;Node35</title>
<path fill="none" stroke="midnightblue" d="M2542.27,-123.4C2560.89,-113.94 2585.61,-101.39 2605.84,-91.12"/>
<polygon fill="midnightblue" stroke="midnightblue" points="2607.45,-94.23 2614.78,-86.58 2604.28,-87.98 2607.45,-94.23"/>
</g>
<!-- Node37 -->
<g id="node28" class="node">
<title>Node37</title>
<g id="a_node28"><a xlink:href="core_2socket_2_server_socket_8h.html" target="_top" xlink:title=" ">
<polygon fill="white" stroke="black" points="1049.5,-196 1049.5,-215 1197.5,-215 1197.5,-196 1049.5,-196"/>
<text text-anchor="middle" x="1123.5" y="-203" font-family="Helvetica,sans-Serif" font-size="10.00">core/socket/ServerSocket.h</text>
</a>
</g>
</g>
<!-- Node36&#45;&gt;Node37 -->
<g id="edge28" class="edge">
<title>Node36&#45;&gt;Node37</title>
<path fill="none" stroke="midnightblue" d="M1259.65,-262.87C1232.56,-251.65 1185.04,-231.98 1153.92,-219.09"/>
<polygon fill="midnightblue" stroke="midnightblue" points="1155.01,-215.76 1144.43,-215.17 1152.34,-222.23 1155.01,-215.76"/>
</g>
<!-- Node38 -->
<g id="node29" class="node">
<title>Node38</title>
<g id="a_node29"><a xlink:href="net_2un_2stream_2_socket_8h.html" target="_top" xlink:title=" ">
<polygon fill="white" stroke="black" points="1216,-196 1216,-215 1345,-215 1345,-196 1216,-196"/>
<text text-anchor="middle" x="1280.5" y="-203" font-family="Helvetica,sans-Serif" font-size="10.00">net/un/stream/Socket.h</text>
</a>
</g>
</g>
<!-- Node36&#45;&gt;Node38 -->
<g id="edge29" class="edge">
<title>Node36&#45;&gt;Node38</title>
<path fill="none" stroke="midnightblue" d="M1280.5,-262.73C1280.5,-253.18 1280.5,-237.62 1280.5,-225.28"/>
<polygon fill="midnightblue" stroke="midnightblue" points="1284,-225.13 1280.5,-215.13 1277,-225.13 1284,-225.13"/>
</g>
<!-- Node39 -->
<g id="node30" class="node">
<title>Node39</title>
<g id="a_node30"><a xlink:href="core_2socket_2_socket_8h.html" target="_top" xlink:title=" ">
<polygon fill="white" stroke="black" points="1136.5,-129 1136.5,-148 1252.5,-148 1252.5,-129 1136.5,-129"/>
<text text-anchor="middle" x="1194.5" y="-136" font-family="Helvetica,sans-Serif" font-size="10.00">core/socket/Socket.h</text>
</a>
</g>
</g>
<!-- Node38&#45;&gt;Node39 -->
<g id="edge30" class="edge">
<title>Node38&#45;&gt;Node39</title>
<path fill="none" stroke="midnightblue" d="M1268.9,-195.73C1254.85,-185.11 1230.95,-167.05 1214.03,-154.26"/>
<polygon fill="midnightblue" stroke="midnightblue" points="1216,-151.36 1205.91,-148.13 1211.78,-156.95 1216,-151.36"/>
</g>
<!-- Node41 -->
<g id="node32" class="node">
<title>Node41</title>
<g id="a_node32"><a xlink:href="net_2un_2_socket_address_8h.html" target="_top" xlink:title=" ">
<polygon fill="white" stroke="black" points="1210,-62 1210,-81 1341,-81 1341,-62 1210,-62"/>
<text text-anchor="middle" x="1275.5" y="-69" font-family="Helvetica,sans-Serif" font-size="10.00">net/un/SocketAddress.h</text>
</a>
</g>
</g>
<!-- Node38&#45;&gt;Node41 -->
<g id="edge32" class="edge">
<title>Node38&#45;&gt;Node41</title>
<path fill="none" stroke="midnightblue" d="M1280.17,-195.84C1279.37,-174.67 1277.3,-119.95 1276.2,-91.03"/>
<polygon fill="midnightblue" stroke="midnightblue" points="1279.7,-90.88 1275.82,-81.02 1272.7,-91.15 1279.7,-90.88"/>
</g>
<!-- Node40 -->
<g id="node31" class="node">
<title>Node40</title>
<g id="a_node31"><a xlink:href="_descriptor_8h.html" target="_top" xlink:title=" ">
<polygon fill="white" stroke="black" points="1091.5,-62 1091.5,-81 1191.5,-81 1191.5,-62 1091.5,-62"/>
<text text-anchor="middle" x="1141.5" y="-69" font-family="Helvetica,sans-Serif" font-size="10.00">core/Descriptor.h</text>
</a>
</g>
</g>
<!-- Node39&#45;&gt;Node40 -->
<g id="edge31" class="edge">
<title>Node39&#45;&gt;Node40</title>
<path fill="none" stroke="midnightblue" d="M1187.35,-128.73C1179.09,-118.6 1165.3,-101.69 1155,-89.06"/>
<polygon fill="midnightblue" stroke="midnightblue" points="1157.57,-86.67 1148.53,-81.13 1152.14,-91.09 1157.57,-86.67"/>
</g>
<!-- Node42 -->
<g id="node33" class="node">
<title>Node42</title>
<g id="a_node33"><a xlink:href="core_2socket_2_socket_address_8h.html" target="_top" xlink:title=" ">
<polygon fill="white" stroke="black" points="1198,-0.5 1198,-19.5 1353,-19.5 1353,-0.5 1198,-0.5"/>
<text text-anchor="middle" x="1275.5" y="-7.5" font-family="Helvetica,sans-Serif" font-size="10.00">core/socket/SocketAddress.h</text>
</a>
</g>
</g>
<!-- Node41&#45;&gt;Node42 -->
<g id="edge33" class="edge">
<title>Node41&#45;&gt;Node42</title>
<path fill="none" stroke="midnightblue" d="M1275.5,-61.98C1275.5,-53.58 1275.5,-40.48 1275.5,-29.66"/>
<polygon fill="midnightblue" stroke="midnightblue" points="1279,-29.51 1275.5,-19.51 1272,-29.51 1279,-29.51"/>
</g>
<!-- Node44 -->
<g id="node35" class="node">
<title>Node44</title>
<g id="a_node35"><a xlink:href="_config_tls_8h.html" target="_top" xlink:title=" ">
<polygon fill="white" stroke="black" points="1874,-62 1874,-81 1997,-81 1997,-62 1874,-62"/>
<text text-anchor="middle" x="1935.5" y="-69" font-family="Helvetica,sans-Serif" font-size="10.00">net/config/ConfigTls.h</text>
</a>
</g>
</g>
<!-- Node43&#45;&gt;Node44 -->
<g id="edge35" class="edge">
<title>Node43&#45;&gt;Node44</title>
<path fill="none" stroke="midnightblue" d="M1610.11,-257.37C1656.04,-236.48 1743.51,-195.35 1814.5,-154 1851.37,-132.53 1892.12,-104.02 1915.67,-87.03"/>
<polygon fill="midnightblue" stroke="midnightblue" points="1917.77,-89.83 1923.81,-81.13 1913.66,-84.17 1917.77,-89.83"/>
</g>
<!-- Node46 -->
<g id="node37" class="node">
<title>Node46</title>
<g id="a_node37"><a xlink:href="un_2stream_2config_2_config_server_socket_8h.html" target="_top" xlink:title=" ">
<polygon fill="white" stroke="black" points="1516.5,-190.5 1516.5,-220.5 1640.5,-220.5 1640.5,-190.5 1516.5,-190.5"/>
<text text-anchor="start" x="1524.5" y="-208.5" font-family="Helvetica,sans-Serif" font-size="10.00">net/un/stream/config</text>
<text text-anchor="middle" x="1578.5" y="-197.5" font-family="Helvetica,sans-Serif" font-size="10.00">/ConfigServerSocket.h</text>
</a>
</g>
</g>
<!-- Node43&#45;&gt;Node46 -->
<g id="edge37" class="edge">
<title>Node43&#45;&gt;Node46</title>
<path fill="none" stroke="midnightblue" d="M1578.5,-257.4C1578.5,-249.64 1578.5,-239.81 1578.5,-230.86"/>
<polygon fill="midnightblue" stroke="midnightblue" points="1582,-230.58 1578.5,-220.58 1575,-230.58 1582,-230.58"/>
</g>
<!-- Node45 -->
<g id="node36" class="node">
<title>Node45</title>
<g id="a_node36"><a xlink:href="_config_base_8h.html" target="_top" xlink:title=" ">
<polygon fill="white" stroke="black" points="1628,-0.5 1628,-19.5 1761,-19.5 1761,-0.5 1628,-0.5"/>
<text text-anchor="middle" x="1694.5" y="-7.5" font-family="Helvetica,sans-Serif" font-size="10.00">net/config/ConfigBase.h</text>
</a>
</g>
</g>
<!-- Node44&#45;&gt;Node45 -->
<g id="edge36" class="edge">
<title>Node44&#45;&gt;Node45</title>
<path fill="none" stroke="midnightblue" d="M1900.97,-61.98C1858.29,-51.44 1785.58,-33.49 1738.82,-21.94"/>
<polygon fill="midnightblue" stroke="midnightblue" points="1739.51,-18.51 1728.97,-19.51 1737.83,-25.3 1739.51,-18.51"/>
</g>
<!-- Node47 -->
<g id="node38" class="node">
<title>Node47</title>
<g id="a_node38"><a xlink:href="_config_address_local_8h.html" target="_top" xlink:title=" ">
<polygon fill="white" stroke="black" points="1666,-123.5 1666,-153.5 1805,-153.5 1805,-123.5 1666,-123.5"/>
<text text-anchor="start" x="1674" y="-141.5" font-family="Helvetica,sans-Serif" font-size="10.00">net/config/ConfigAddress</text>
<text text-anchor="middle" x="1735.5" y="-130.5" font-family="Helvetica,sans-Serif" font-size="10.00">Local.h</text>
</a>
</g>
</g>
<!-- Node46&#45;&gt;Node47 -->
<g id="edge38" class="edge">
<title>Node46&#45;&gt;Node47</title>
<path fill="none" stroke="midnightblue" d="M1612.57,-190.4C1635.92,-180.73 1667.09,-167.82 1692.2,-157.43"/>
<polygon fill="midnightblue" stroke="midnightblue" points="1693.6,-160.64 1701.5,-153.58 1690.92,-154.17 1693.6,-160.64"/>
</g>
<!-- Node49 -->
<g id="node40" class="node">
<title>Node49</title>
<g id="a_node40"><a xlink:href="_config_backlog_8h.html" target="_top" xlink:title=" ">
<polygon fill="white" stroke="black" points="1359.5,-62 1359.5,-81 1507.5,-81 1507.5,-62 1359.5,-62"/>
<text text-anchor="middle" x="1433.5" y="-69" font-family="Helvetica,sans-Serif" font-size="10.00">net/config/ConfigBacklog.h</text>
</a>
</g>
</g>
<!-- Node46&#45;&gt;Node49 -->
<g id="edge41" class="edge">
<title>Node46&#45;&gt;Node49</title>
<path fill="none" stroke="midnightblue" d="M1570.59,-190.49C1560.28,-173.11 1540.9,-143.29 1518.5,-123 1501.54,-107.64 1479.2,-94.58 1461.67,-85.59"/>
<polygon fill="midnightblue" stroke="midnightblue" points="1463.01,-82.35 1452.5,-81.03 1459.89,-88.62 1463.01,-82.35"/>
</g>
<!-- Node50 -->
<g id="node41" class="node">
<title>Node50</title>
<g id="a_node41"><a xlink:href="_config_connection_8h.html" target="_top" xlink:title=" ">
<polygon fill="white" stroke="black" points="1525.5,-62 1525.5,-81 1689.5,-81 1689.5,-62 1525.5,-62"/>
<text text-anchor="middle" x="1607.5" y="-69" font-family="Helvetica,sans-Serif" font-size="10.00">net/config/ConfigConnection.h</text>
</a>
</g>
</g>
<!-- Node46&#45;&gt;Node50 -->
<g id="edge43" class="edge">
<title>Node46&#45;&gt;Node50</title>
<path fill="none" stroke="midnightblue" d="M1581.6,-190.37C1586.87,-166.4 1597.56,-117.75 1603.42,-91.06"/>
<polygon fill="midnightblue" stroke="midnightblue" points="1606.88,-91.62 1605.61,-81.1 1600.05,-90.11 1606.88,-91.62"/>
</g>
<!-- Node51 -->
<g id="node42" class="node">
<title>Node51</title>
<g id="a_node42"><a xlink:href="un_2config_2_config_address_8h.html" target="_top" xlink:title=" ">
<polygon fill="white" stroke="black" points="1346,-129 1346,-148 1509,-148 1509,-129 1346,-129"/>
<text text-anchor="middle" x="1427.5" y="-136" font-family="Helvetica,sans-Serif" font-size="10.00">net/un/config/ConfigAddress.h</text>
</a>
</g>
</g>
<!-- Node46&#45;&gt;Node51 -->
<g id="edge45" class="edge">
<title>Node46&#45;&gt;Node51</title>
<path fill="none" stroke="midnightblue" d="M1545.74,-190.4C1519.24,-178.99 1482.28,-163.08 1456.77,-152.1"/>
<polygon fill="midnightblue" stroke="midnightblue" points="1457.83,-148.75 1447.26,-148.01 1455.06,-155.18 1457.83,-148.75"/>
</g>
<!-- Node48 -->
<g id="node39" class="node">
<title>Node48</title>
<g id="a_node39"><a xlink:href="config_2_config_address_8h.html" target="_top" xlink:title=" ">
<polygon fill="white" stroke="black" points="1707.5,-62 1707.5,-81 1855.5,-81 1855.5,-62 1707.5,-62"/>
<text text-anchor="middle" x="1781.5" y="-69" font-family="Helvetica,sans-Serif" font-size="10.00">net/config/ConfigAddress.h</text>
</a>
</g>
</g>
<!-- Node47&#45;&gt;Node48 -->
<g id="edge39" class="edge">
<title>Node47&#45;&gt;Node48</title>
<path fill="none" stroke="midnightblue" d="M1745.48,-123.4C1752.51,-113.46 1761.96,-100.11 1769.42,-89.57"/>
<polygon fill="midnightblue" stroke="midnightblue" points="1772.43,-91.38 1775.35,-81.19 1766.71,-87.34 1772.43,-91.38"/>
</g>
<!-- Node48&#45;&gt;Node45 -->
<g id="edge40" class="edge">
<title>Node48&#45;&gt;Node45</title>
<path fill="none" stroke="midnightblue" d="M1769.04,-61.98C1755.08,-52.43 1732.24,-36.81 1715.51,-25.37"/>
<polygon fill="midnightblue" stroke="midnightblue" points="1717.17,-22.27 1706.94,-19.51 1713.22,-28.04 1717.17,-22.27"/>
</g>
<!-- Node49&#45;&gt;Node45 -->
<g id="edge42" class="edge">
<title>Node49&#45;&gt;Node45</title>
<path fill="none" stroke="midnightblue" d="M1470.89,-61.98C1517.31,-51.39 1596.52,-33.34 1647.14,-21.8"/>
<polygon fill="midnightblue" stroke="midnightblue" points="1648.2,-25.14 1657.17,-19.51 1646.65,-18.32 1648.2,-25.14"/>
</g>
<!-- Node50&#45;&gt;Node45 -->
<g id="edge44" class="edge">
<title>Node50&#45;&gt;Node45</title>
<path fill="none" stroke="midnightblue" d="M1619.96,-61.98C1633.92,-52.43 1656.76,-36.81 1673.49,-25.37"/>
<polygon fill="midnightblue" stroke="midnightblue" points="1675.78,-28.04 1682.06,-19.51 1671.83,-22.27 1675.78,-28.04"/>
</g>
<!-- Node51&#45;&gt;Node41 -->
<g id="edge46" class="edge">
<title>Node51&#45;&gt;Node41</title>
<path fill="none" stroke="midnightblue" d="M1407.32,-128.87C1381.2,-117.7 1335.47,-98.15 1305.34,-85.26"/>
<polygon fill="midnightblue" stroke="midnightblue" points="1306.34,-81.88 1295.77,-81.17 1303.59,-88.32 1306.34,-81.88"/>
</g>
<!-- Node53 -->
<g id="node44" class="node">
<title>Node53</title>
<g id="a_node44"><a xlink:href="web_2http_2server_2_socket_context_factory_8h.html" target="_top" xlink:title=" ">
<polygon fill="white" stroke="black" points="735,-257.5 735,-287.5 902,-287.5 902,-257.5 735,-257.5"/>
<text text-anchor="start" x="743" y="-275.5" font-family="Helvetica,sans-Serif" font-size="10.00">web/http/server/SocketContext</text>
<text text-anchor="middle" x="818.5" y="-264.5" font-family="Helvetica,sans-Serif" font-size="10.00">Factory.h</text>
</a>
</g>
</g>
<!-- Node52&#45;&gt;Node53 -->
<g id="edge48" class="edge">
<title>Node52&#45;&gt;Node53</title>
<path fill="none" stroke="midnightblue" d="M818.5,-329.73C818.5,-321.54 818.5,-308.92 818.5,-297.71"/>
<polygon fill="midnightblue" stroke="midnightblue" points="822,-297.59 818.5,-287.59 815,-297.59 822,-297.59"/>
</g>
<!-- Node54 -->
<g id="node45" class="node">
<title>Node54</title>
<g id="a_node45"><a xlink:href="web_2http_2_socket_context_factory_8h.html" target="_top" xlink:title=" ">
<polygon fill="white" stroke="black" points="630.5,-196 630.5,-215 806.5,-215 806.5,-196 630.5,-196"/>
<text text-anchor="middle" x="718.5" y="-203" font-family="Helvetica,sans-Serif" font-size="10.00">web/http/SocketContextFactory.h</text>
</a>
</g>
</g>
<!-- Node53&#45;&gt;Node54 -->
<g id="edge49" class="edge">
<title>Node53&#45;&gt;Node54</title>
<path fill="none" stroke="midnightblue" d="M796.8,-257.4C780.03,-246.5 756.93,-231.48 740.17,-220.58"/>
<polygon fill="midnightblue" stroke="midnightblue" points="741.88,-217.52 731.59,-215.01 738.06,-223.39 741.88,-217.52"/>
</g>
<!-- Node56 -->
<g id="node47" class="node">
<title>Node56</title>
<g id="a_node47"><a xlink:href="server_2_socket_context_8hpp.html" target="_top" xlink:title=" ">
<polygon fill="white" stroke="black" points="824.5,-196 824.5,-215 1012.5,-215 1012.5,-196 824.5,-196"/>
<text text-anchor="middle" x="918.5" y="-203" font-family="Helvetica,sans-Serif" font-size="10.00">web/http/server/SocketContext.hpp</text>
</a>
</g>
</g>
<!-- Node53&#45;&gt;Node56 -->
<g id="edge51" class="edge">
<title>Node53&#45;&gt;Node56</title>
<path fill="none" stroke="midnightblue" d="M840.2,-257.4C856.97,-246.5 880.07,-231.48 896.83,-220.58"/>
<polygon fill="midnightblue" stroke="midnightblue" points="898.94,-223.39 905.41,-215.01 895.12,-217.52 898.94,-223.39"/>
</g>
<!-- Node55 -->
<g id="node46" class="node">
<title>Node55</title>
<g id="a_node46"><a xlink:href="core_2socket_2_socket_context_factory_8h.html" target="_top" xlink:title=" ">
<polygon fill="white" stroke="black" points="642.5,-123.5 642.5,-153.5 788.5,-153.5 788.5,-123.5 642.5,-123.5"/>
<text text-anchor="start" x="650.5" y="-141.5" font-family="Helvetica,sans-Serif" font-size="10.00">core/socket/SocketContext</text>
<text text-anchor="middle" x="715.5" y="-130.5" font-family="Helvetica,sans-Serif" font-size="10.00">Factory.h</text>
</a>
</g>
</g>
<!-- Node54&#45;&gt;Node55 -->
<g id="edge50" class="edge">
<title>Node54&#45;&gt;Node55</title>
<path fill="none" stroke="midnightblue" d="M718.1,-195.73C717.72,-187.54 717.13,-174.92 716.62,-163.71"/>
<polygon fill="midnightblue" stroke="midnightblue" points="720.11,-163.42 716.15,-153.59 713.12,-163.74 720.11,-163.42"/>
</g>
<!-- Node56&#45;&gt;Node6 -->
<g id="edge52" class="edge">
<title>Node56&#45;&gt;Node6</title>
<path fill="none" stroke="midnightblue" d="M868.96,-195.94C800.11,-184.03 675.66,-162.52 601.91,-149.77"/>
<polygon fill="midnightblue" stroke="midnightblue" points="602.3,-146.29 591.85,-148.03 601.11,-153.18 602.3,-146.29"/>
</g>
<!-- Node57 -->
<g id="node48" class="node">
<title>Node57</title>
<g id="a_node48"><a xlink:href="http__utils_8h.html" target="_top" xlink:title=" ">
<polygon fill="white" stroke="black" points="1001,-129 1001,-148 1118,-148 1118,-129 1001,-129"/>
<text text-anchor="middle" x="1059.5" y="-136" font-family="Helvetica,sans-Serif" font-size="10.00">web/http/http_utils.h</text>
</a>
</g>
</g>
<!-- Node56&#45;&gt;Node57 -->
<g id="edge53" class="edge">
<title>Node56&#45;&gt;Node57</title>
<path fill="none" stroke="midnightblue" d="M937.22,-195.87C961.35,-184.75 1003.5,-165.32 1031.45,-152.43"/>
<polygon fill="midnightblue" stroke="midnightblue" points="1033.08,-155.53 1040.7,-148.17 1030.15,-149.18 1033.08,-155.53"/>
</g>
<!-- Node58 -->
<g id="node49" class="node">
<title>Node58</title>
<g id="a_node49"><a xlink:href="web_2http_2server_2_socket_context_8h.html" target="_top" xlink:title=" ">
<polygon fill="white" stroke="red" points="806.5,-129 806.5,-148 982.5,-148 982.5,-129 806.5,-129"/>
<text text-anchor="middle" x="894.5" y="-136" font-family="Helvetica,sans-Serif" font-size="10.00">web/http/server/SocketContext.h</text>
</a>
</g>
</g>
<!-- Node56&#45;&gt;Node58 -->
<g id="edge54" class="edge">
<title>Node56&#45;&gt;Node58</title>
<path fill="none" stroke="midnightblue" d="M915.26,-195.73C911.66,-185.99 905.75,-169.98 901.16,-157.53"/>
<polygon fill="midnightblue" stroke="midnightblue" points="904.43,-156.3 897.69,-148.13 897.87,-158.72 904.43,-156.3"/>
</g>
<!-- Node59 -->
<g id="node50" class="node">
<title>Node59</title>
<g id="a_node50"><a xlink:href="web_2http_2_socket_context_8h.html" target="_top" xlink:title=" ">
<polygon fill="white" stroke="red" points="823.5,-62 823.5,-81 965.5,-81 965.5,-62 823.5,-62"/>
<text text-anchor="middle" x="894.5" y="-69" font-family="Helvetica,sans-Serif" font-size="10.00">web/http/SocketContext.h</text>
</a>
</g>
</g>
<!-- Node58&#45;&gt;Node59 -->
<g id="edge55" class="edge">
<title>Node58&#45;&gt;Node59</title>
<path fill="none" stroke="midnightblue" d="M894.5,-128.73C894.5,-119.18 894.5,-103.62 894.5,-91.28"/>
<polygon fill="midnightblue" stroke="midnightblue" points="898,-91.13 894.5,-81.13 891,-91.13 898,-91.13"/>
</g>
</g>
</svg>
