<?xml version="1.0" encoding="UTF-8" standalone="no"?>
<!DOCTYPE svg PUBLIC "-//W3C//DTD SVG 1.1//EN"
 "http://www.w3.org/Graphics/SVG/1.1/DTD/svg11.dtd">
<!-- Generated by graphviz version 2.43.0 (0)
 -->
<!-- Title: express/tls/un/WebApp.h Pages: 1 -->
<svg width="1954pt" height="598pt"
 viewBox="0.00 0.00 1953.50 598.00" xmlns="http://www.w3.org/2000/svg" xmlns:xlink="http://www.w3.org/1999/xlink">
<g id="graph0" class="graph" transform="scale(1 1) rotate(0) translate(4 594)">
<title>express/tls/un/WebApp.h</title>
<polygon fill="white" stroke="transparent" points="-4,4 -4,-594 1949.5,-594 1949.5,4 -4,4"/>
<!-- Node1 -->
<g id="node1" class="node">
<title>Node1</title>
<g id="a_node1"><a xlink:title=" ">
<polygon fill="#bfbfbf" stroke="black" points="543,-570.5 543,-589.5 680,-589.5 680,-570.5 543,-570.5"/>
<text text-anchor="middle" x="611.5" y="-577.5" font-family="Helvetica,sans-Serif" font-size="10.00">express/tls/un/WebApp.h</text>
</a>
</g>
</g>
<!-- Node2 -->
<g id="node2" class="node">
<title>Node2</title>
<g id="a_node2"><a xlink:href="_web_app_t_8h.html" target="_top" xlink:title=" ">
<polygon fill="white" stroke="black" points="332.5,-453 332.5,-472 444.5,-472 444.5,-453 332.5,-453"/>
<text text-anchor="middle" x="388.5" y="-460" font-family="Helvetica,sans-Serif" font-size="10.00">express/WebAppT.h</text>
</a>
</g>
</g>
<!-- Node1&#45;&gt;Node2 -->
<g id="edge1" class="edge">
<title>Node1&#45;&gt;Node2</title>
<path fill="none" stroke="midnightblue" d="M594.74,-570.32C556.06,-550.29 460.37,-500.72 414.21,-476.82"/>
<polygon fill="midnightblue" stroke="midnightblue" points="415.64,-473.62 405.15,-472.12 412.42,-479.83 415.64,-473.62"/>
</g>
<!-- Node14 -->
<g id="node14" class="node">
<title>Node14</title>
<g id="a_node14"><a xlink:href="tls_2un_2_server_8h.html" target="_top" xlink:title=" ">
<polygon fill="white" stroke="black" points="643,-514.5 643,-533.5 776,-533.5 776,-514.5 643,-514.5"/>
<text text-anchor="middle" x="709.5" y="-521.5" font-family="Helvetica,sans-Serif" font-size="10.00">web/http/tls/un/Server.h</text>
</a>
</g>
</g>
<!-- Node1&#45;&gt;Node14 -->
<g id="edge14" class="edge">
<title>Node1&#45;&gt;Node14</title>
<path fill="none" stroke="midnightblue" d="M627.25,-570.32C642.82,-561.74 666.88,-548.49 684.96,-538.52"/>
<polygon fill="midnightblue" stroke="midnightblue" points="686.72,-541.55 693.79,-533.65 683.35,-535.42 686.72,-541.55"/>
</g>
<!-- Node3 -->
<g id="node3" class="node">
<title>Node3</title>
<g id="a_node3"><a xlink:href="express_2_request_8h.html" target="_top" xlink:title=" ">
<polygon fill="white" stroke="black" points="108,-386 108,-405 215,-405 215,-386 108,-386"/>
<text text-anchor="middle" x="161.5" y="-393" font-family="Helvetica,sans-Serif" font-size="10.00">express/Request.h</text>
</a>
</g>
</g>
<!-- Node2&#45;&gt;Node3 -->
<g id="edge2" class="edge">
<title>Node2&#45;&gt;Node3</title>
<path fill="none" stroke="midnightblue" d="M358.36,-452.87C317.88,-441.28 245.88,-420.66 201.08,-407.83"/>
<polygon fill="midnightblue" stroke="midnightblue" points="201.98,-404.45 191.41,-405.06 200.06,-411.18 201.98,-404.45"/>
</g>
<!-- Node7 -->
<g id="node7" class="node">
<title>Node7</title>
<g id="a_node7"><a xlink:href="express_2_response_8h.html" target="_top" xlink:title=" ">
<polygon fill="white" stroke="black" points="259.5,-386 259.5,-405 373.5,-405 373.5,-386 259.5,-386"/>
<text text-anchor="middle" x="316.5" y="-393" font-family="Helvetica,sans-Serif" font-size="10.00">express/Response.h</text>
</a>
</g>
</g>
<!-- Node2&#45;&gt;Node7 -->
<g id="edge6" class="edge">
<title>Node2&#45;&gt;Node7</title>
<path fill="none" stroke="midnightblue" d="M378.79,-452.73C367.24,-442.31 347.75,-424.71 333.64,-411.97"/>
<polygon fill="midnightblue" stroke="midnightblue" points="335.82,-409.23 326.06,-405.13 331.13,-414.43 335.82,-409.23"/>
</g>
<!-- Node11 -->
<g id="node11" class="node">
<title>Node11</title>
<g id="a_node11"><a xlink:href="_web_app_8h.html" target="_top" xlink:title=" ">
<polygon fill="white" stroke="black" points="399,-386 399,-405 506,-405 506,-386 399,-386"/>
<text text-anchor="middle" x="452.5" y="-393" font-family="Helvetica,sans-Serif" font-size="10.00">express/WebApp.h</text>
</a>
</g>
</g>
<!-- Node2&#45;&gt;Node11 -->
<g id="edge11" class="edge">
<title>Node2&#45;&gt;Node11</title>
<path fill="none" stroke="midnightblue" d="M397.13,-452.73C407.3,-442.4 424.4,-425.04 436.91,-412.33"/>
<polygon fill="midnightblue" stroke="midnightblue" points="439.48,-414.71 444.01,-405.13 434.5,-409.8 439.48,-414.71"/>
</g>
<!-- Node4 -->
<g id="node4" class="node">
<title>Node4</title>
<g id="a_node4"><a xlink:href="web_2http_2server_2_request_8h.html" target="_top" xlink:title=" ">
<polygon fill="white" stroke="black" points="69,-319 69,-338 214,-338 214,-319 69,-319"/>
<text text-anchor="middle" x="141.5" y="-326" font-family="Helvetica,sans-Serif" font-size="10.00">web/http/server/Request.h</text>
</a>
</g>
</g>
<!-- Node3&#45;&gt;Node4 -->
<g id="edge3" class="edge">
<title>Node3&#45;&gt;Node4</title>
<path fill="none" stroke="midnightblue" d="M158.8,-385.73C155.83,-376.09 150.98,-360.3 147.16,-347.91"/>
<polygon fill="midnightblue" stroke="midnightblue" points="150.44,-346.66 144.15,-338.13 143.75,-348.71 150.44,-346.66"/>
</g>
<!-- Node5 -->
<g id="node5" class="node">
<title>Node5</title>
<g id="a_node5"><a xlink:href="_attribute_injector_8h.html" target="_top" xlink:title=" ">
<polygon fill="white" stroke="black" points="0,-252 0,-271 129,-271 129,-252 0,-252"/>
<text text-anchor="middle" x="64.5" y="-259" font-family="Helvetica,sans-Serif" font-size="10.00">utils/AttributeInjector.h</text>
</a>
</g>
</g>
<!-- Node4&#45;&gt;Node5 -->
<g id="edge4" class="edge">
<title>Node4&#45;&gt;Node5</title>
<path fill="none" stroke="midnightblue" d="M131.12,-318.73C118.65,-308.21 97.53,-290.38 82.41,-277.62"/>
<polygon fill="midnightblue" stroke="midnightblue" points="84.62,-274.9 74.72,-271.13 80.1,-280.25 84.62,-274.9"/>
</g>
<!-- Node6 -->
<g id="node6" class="node">
<title>Node6</title>
<g id="a_node6"><a xlink:href="_connection_state_8h.html" target="_top" xlink:title=" ">
<polygon fill="white" stroke="black" points="421.5,-252 421.5,-271 573.5,-271 573.5,-252 421.5,-252"/>
<text text-anchor="middle" x="497.5" y="-259" font-family="Helvetica,sans-Serif" font-size="10.00">web/http/ConnectionState.h</text>
</a>
</g>
</g>
<!-- Node4&#45;&gt;Node6 -->
<g id="edge5" class="edge">
<title>Node4&#45;&gt;Node6</title>
<path fill="none" stroke="midnightblue" d="M188.41,-318.94C253.46,-307.06 370.94,-285.61 440.82,-272.85"/>
<polygon fill="midnightblue" stroke="midnightblue" points="441.56,-276.27 450.77,-271.03 440.31,-269.38 441.56,-276.27"/>
</g>
<!-- Node8 -->
<g id="node8" class="node">
<title>Node8</title>
<g id="a_node8"><a xlink:href="web_2http_2server_2_response_8h.html" target="_top" xlink:title=" ">
<polygon fill="white" stroke="black" points="232.5,-319 232.5,-338 384.5,-338 384.5,-319 232.5,-319"/>
<text text-anchor="middle" x="308.5" y="-326" font-family="Helvetica,sans-Serif" font-size="10.00">web/http/server/Response.h</text>
</a>
</g>
</g>
<!-- Node7&#45;&gt;Node8 -->
<g id="edge7" class="edge">
<title>Node7&#45;&gt;Node8</title>
<path fill="none" stroke="midnightblue" d="M315.42,-385.73C314.25,-376.18 312.33,-360.62 310.81,-348.28"/>
<polygon fill="midnightblue" stroke="midnightblue" points="314.26,-347.62 309.56,-338.13 307.31,-348.48 314.26,-347.62"/>
</g>
<!-- Node8&#45;&gt;Node6 -->
<g id="edge9" class="edge">
<title>Node8&#45;&gt;Node6</title>
<path fill="none" stroke="midnightblue" d="M333.6,-318.87C366.87,-307.42 425.74,-287.18 463.12,-274.32"/>
<polygon fill="midnightblue" stroke="midnightblue" points="464.28,-277.63 472.6,-271.06 462,-271.01 464.28,-277.63"/>
</g>
<!-- Node9 -->
<g id="node9" class="node">
<title>Node9</title>
<g id="a_node9"><a xlink:href="_sink_8h.html" target="_top" xlink:title=" ">
<polygon fill="white" stroke="black" points="308,-252 308,-271 403,-271 403,-252 308,-252"/>
<text text-anchor="middle" x="355.5" y="-259" font-family="Helvetica,sans-Serif" font-size="10.00">core/pipe/Sink.h</text>
</a>
</g>
</g>
<!-- Node8&#45;&gt;Node9 -->
<g id="edge8" class="edge">
<title>Node8&#45;&gt;Node9</title>
<path fill="none" stroke="midnightblue" d="M314.84,-318.73C322.1,-308.7 334.16,-292.01 343.26,-279.42"/>
<polygon fill="midnightblue" stroke="midnightblue" points="346.24,-281.28 349.26,-271.13 340.57,-277.18 346.24,-281.28"/>
</g>
<!-- Node10 -->
<g id="node10" class="node">
<title>Node10</title>
<g id="a_node10"><a xlink:href="_cookie_options_8h.html" target="_top" xlink:title=" ">
<polygon fill="white" stroke="black" points="147,-252 147,-271 290,-271 290,-252 147,-252"/>
<text text-anchor="middle" x="218.5" y="-259" font-family="Helvetica,sans-Serif" font-size="10.00">web/http/CookieOptions.h</text>
</a>
</g>
</g>
<!-- Node8&#45;&gt;Node10 -->
<g id="edge10" class="edge">
<title>Node8&#45;&gt;Node10</title>
<path fill="none" stroke="midnightblue" d="M296.36,-318.73C281.65,-308.11 256.64,-290.05 238.94,-277.26"/>
<polygon fill="midnightblue" stroke="midnightblue" points="240.6,-274.14 230.45,-271.13 236.5,-279.82 240.6,-274.14"/>
</g>
<!-- Node12 -->
<g id="node12" class="node">
<title>Node12</title>
<g id="a_node12"><a xlink:href="_tick_status_8h.html" target="_top" xlink:title=" ">
<polygon fill="white" stroke="black" points="402.5,-319 402.5,-338 502.5,-338 502.5,-319 402.5,-319"/>
<text text-anchor="middle" x="452.5" y="-326" font-family="Helvetica,sans-Serif" font-size="10.00">core/TickStatus.h</text>
</a>
</g>
</g>
<!-- Node11&#45;&gt;Node12 -->
<g id="edge12" class="edge">
<title>Node11&#45;&gt;Node12</title>
<path fill="none" stroke="midnightblue" d="M452.5,-385.73C452.5,-376.18 452.5,-360.62 452.5,-348.28"/>
<polygon fill="midnightblue" stroke="midnightblue" points="456,-348.13 452.5,-338.13 449,-348.13 456,-348.13"/>
</g>
<!-- Node13 -->
<g id="node13" class="node">
<title>Node13</title>
<g id="a_node13"><a xlink:href="_router_8h.html" target="_top" xlink:title=" ">
<polygon fill="white" stroke="black" points="521,-319 521,-338 620,-338 620,-319 521,-319"/>
<text text-anchor="middle" x="570.5" y="-326" font-family="Helvetica,sans-Serif" font-size="10.00">express/Router.h</text>
</a>
</g>
</g>
<!-- Node11&#45;&gt;Node13 -->
<g id="edge13" class="edge">
<title>Node11&#45;&gt;Node13</title>
<path fill="none" stroke="midnightblue" d="M468.41,-385.73C488.32,-374.77 522.61,-355.88 545.9,-343.05"/>
<polygon fill="midnightblue" stroke="midnightblue" points="547.77,-346.02 554.84,-338.13 544.39,-339.89 547.77,-346.02"/>
</g>
<!-- Node15 -->
<g id="node15" class="node">
<title>Node15</title>
<g id="a_node15"><a xlink:href="net_2un_2stream_2tls_2_socket_server_8h.html" target="_top" xlink:title=" ">
<polygon fill="white" stroke="black" points="1211,-447.5 1211,-477.5 1346,-477.5 1346,-447.5 1211,-447.5"/>
<text text-anchor="start" x="1219" y="-465.5" font-family="Helvetica,sans-Serif" font-size="10.00">net/un/stream/tls/Socket</text>
<text text-anchor="middle" x="1278.5" y="-454.5" font-family="Helvetica,sans-Serif" font-size="10.00">Server.h</text>
</a>
</g>
</g>
<!-- Node14&#45;&gt;Node15 -->
<g id="edge15" class="edge">
<title>Node14&#45;&gt;Node15</title>
<path fill="none" stroke="midnightblue" d="M776.16,-516.03C882.03,-504.96 1088.08,-483.41 1200.59,-471.65"/>
<polygon fill="midnightblue" stroke="midnightblue" points="1201.27,-475.1 1210.85,-470.57 1200.54,-468.13 1201.27,-475.1"/>
</g>
<!-- Node42 -->
<g id="node42" class="node">
<title>Node42</title>
<g id="a_node42"><a xlink:href="server_2_server_8h.html" target="_top" xlink:title=" ">
<polygon fill="white" stroke="black" points="641,-453 641,-472 778,-472 778,-453 641,-453"/>
<text text-anchor="middle" x="709.5" y="-460" font-family="Helvetica,sans-Serif" font-size="10.00">web/http/server/Server.h</text>
</a>
</g>
</g>
<!-- Node14&#45;&gt;Node42 -->
<g id="edge49" class="edge">
<title>Node14&#45;&gt;Node42</title>
<path fill="none" stroke="midnightblue" d="M709.5,-514.48C709.5,-506.08 709.5,-492.98 709.5,-482.16"/>
<polygon fill="midnightblue" stroke="midnightblue" points="713,-482.01 709.5,-472.01 706,-482.01 713,-482.01"/>
</g>
<!-- Node16 -->
<g id="node16" class="node">
<title>Node16</title>
<g id="a_node16"><a xlink:href="core_2socket_2stream_2tls_2_socket_server_8h.html" target="_top" xlink:title=" ">
<polygon fill="white" stroke="black" points="1223.5,-380.5 1223.5,-410.5 1333.5,-410.5 1333.5,-380.5 1223.5,-380.5"/>
<text text-anchor="start" x="1231.5" y="-398.5" font-family="Helvetica,sans-Serif" font-size="10.00">core/socket/stream</text>
<text text-anchor="middle" x="1278.5" y="-387.5" font-family="Helvetica,sans-Serif" font-size="10.00">/tls/SocketServer.h</text>
</a>
</g>
</g>
<!-- Node15&#45;&gt;Node16 -->
<g id="edge16" class="edge">
<title>Node15&#45;&gt;Node16</title>
<path fill="none" stroke="midnightblue" d="M1278.5,-447.4C1278.5,-439.64 1278.5,-429.81 1278.5,-420.86"/>
<polygon fill="midnightblue" stroke="midnightblue" points="1282,-420.58 1278.5,-410.58 1275,-420.58 1282,-420.58"/>
</g>
<!-- Node35 -->
<g id="node35" class="node">
<title>Node35</title>
<g id="a_node35"><a xlink:href="net_2un_2stream_2_server_socket_8h.html" target="_top" xlink:title=" ">
<polygon fill="white" stroke="black" points="1488,-386 1488,-405 1649,-405 1649,-386 1488,-386"/>
<text text-anchor="middle" x="1568.5" y="-393" font-family="Helvetica,sans-Serif" font-size="10.00">net/un/stream/ServerSocket.h</text>
</a>
</g>
</g>
<!-- Node15&#45;&gt;Node35 -->
<g id="edge42" class="edge">
<title>Node15&#45;&gt;Node35</title>
<path fill="none" stroke="midnightblue" d="M1341.07,-447.48C1394.85,-435.42 1471.3,-418.29 1520.4,-407.28"/>
<polygon fill="midnightblue" stroke="midnightblue" points="1521.46,-410.63 1530.45,-405.03 1519.93,-403.8 1521.46,-410.63"/>
</g>
<!-- Node17 -->
<g id="node17" class="node">
<title>Node17</title>
<g id="a_node17"><a xlink:href="core_2socket_2stream_2_socket_server_8h.html" target="_top" xlink:title=" ">
<polygon fill="white" stroke="black" points="1157.5,-313.5 1157.5,-343.5 1267.5,-343.5 1267.5,-313.5 1157.5,-313.5"/>
<text text-anchor="start" x="1165.5" y="-331.5" font-family="Helvetica,sans-Serif" font-size="10.00">core/socket/stream</text>
<text text-anchor="middle" x="1212.5" y="-320.5" font-family="Helvetica,sans-Serif" font-size="10.00">/SocketServer.h</text>
</a>
</g>
</g>
<!-- Node16&#45;&gt;Node17 -->
<g id="edge17" class="edge">
<title>Node16&#45;&gt;Node17</title>
<path fill="none" stroke="midnightblue" d="M1264.18,-380.4C1255.36,-371.71 1243.88,-360.4 1233.98,-350.66"/>
<polygon fill="midnightblue" stroke="midnightblue" points="1236.37,-348.1 1226.79,-343.58 1231.46,-353.09 1236.37,-348.1"/>
</g>
<!-- Node18 -->
<g id="node18" class="node">
<title>Node18</title>
<g id="a_node18"><a xlink:href="tls_2_socket_acceptor_8h.html" target="_top" xlink:title=" ">
<polygon fill="white" stroke="black" points="1286,-313.5 1286,-343.5 1405,-343.5 1405,-313.5 1286,-313.5"/>
<text text-anchor="start" x="1294" y="-331.5" font-family="Helvetica,sans-Serif" font-size="10.00">core/socket/stream</text>
<text text-anchor="middle" x="1345.5" y="-320.5" font-family="Helvetica,sans-Serif" font-size="10.00">/tls/SocketAcceptor.h</text>
</a>
</g>
</g>
<!-- Node16&#45;&gt;Node18 -->
<g id="edge18" class="edge">
<title>Node16&#45;&gt;Node18</title>
<path fill="none" stroke="midnightblue" d="M1293.04,-380.4C1301.99,-371.71 1313.64,-360.4 1323.69,-350.66"/>
<polygon fill="midnightblue" stroke="midnightblue" points="1326.25,-353.05 1330.99,-343.58 1321.38,-348.03 1326.25,-353.05"/>
</g>
<!-- Node19 -->
<g id="node19" class="node">
<title>Node19</title>
<g id="a_node19"><a xlink:href="_socket_acceptor_8h.html" target="_top" xlink:title=" ">
<polygon fill="white" stroke="black" points="1463.5,-246.5 1463.5,-276.5 1573.5,-276.5 1573.5,-246.5 1463.5,-246.5"/>
<text text-anchor="start" x="1471.5" y="-264.5" font-family="Helvetica,sans-Serif" font-size="10.00">core/socket/stream</text>
<text text-anchor="middle" x="1518.5" y="-253.5" font-family="Helvetica,sans-Serif" font-size="10.00">/SocketAcceptor.h</text>
</a>
</g>
</g>
<!-- Node18&#45;&gt;Node19 -->
<g id="edge19" class="edge">
<title>Node18&#45;&gt;Node19</title>
<path fill="none" stroke="midnightblue" d="M1383.04,-313.4C1409,-303.64 1443.72,-290.59 1471.52,-280.15"/>
<polygon fill="midnightblue" stroke="midnightblue" points="1472.9,-283.37 1481.03,-276.58 1470.44,-276.82 1472.9,-283.37"/>
</g>
<!-- Node22 -->
<g id="node22" class="node">
<title>Node22</title>
<g id="a_node22"><a xlink:href="stream_2tls_2_socket_connection_8h.html" target="_top" xlink:title=" ">
<polygon fill="white" stroke="black" points="1245,-246.5 1245,-276.5 1376,-276.5 1376,-246.5 1245,-246.5"/>
<text text-anchor="start" x="1253" y="-264.5" font-family="Helvetica,sans-Serif" font-size="10.00">core/socket/stream</text>
<text text-anchor="middle" x="1310.5" y="-253.5" font-family="Helvetica,sans-Serif" font-size="10.00">/tls/SocketConnection.h</text>
</a>
</g>
</g>
<!-- Node18&#45;&gt;Node22 -->
<g id="edge22" class="edge">
<title>Node18&#45;&gt;Node22</title>
<path fill="none" stroke="midnightblue" d="M1337.91,-313.4C1333.5,-305.22 1327.85,-294.73 1322.83,-285.39"/>
<polygon fill="midnightblue" stroke="midnightblue" points="1325.9,-283.72 1318.08,-276.58 1319.74,-287.04 1325.9,-283.72"/>
</g>
<!-- Node20 -->
<g id="node20" class="node">
<title>Node20</title>
<g id="a_node20"><a xlink:href="_accept_event_receiver_8h.html" target="_top" xlink:title=" ">
<polygon fill="white" stroke="black" points="1554,-56.5 1554,-75.5 1707,-75.5 1707,-56.5 1554,-56.5"/>
<text text-anchor="middle" x="1630.5" y="-63.5" font-family="Helvetica,sans-Serif" font-size="10.00">core/AcceptEventReceiver.h</text>
</a>
</g>
</g>
<!-- Node19&#45;&gt;Node20 -->
<g id="edge20" class="edge">
<title>Node19&#45;&gt;Node20</title>
<path fill="none" stroke="midnightblue" d="M1535.15,-246.49C1558.02,-226.21 1598.59,-186.32 1618.5,-143 1626.85,-124.83 1629.54,-101.93 1630.33,-86.04"/>
<polygon fill="midnightblue" stroke="midnightblue" points="1633.83,-85.97 1630.63,-75.88 1626.84,-85.77 1633.83,-85.97"/>
</g>
<!-- Node21 -->
<g id="node21" class="node">
<title>Node21</title>
<g id="a_node21"><a xlink:href="_event_receiver_8h.html" target="_top" xlink:title=" ">
<polygon fill="white" stroke="black" points="1396.5,-0.5 1396.5,-19.5 1516.5,-19.5 1516.5,-0.5 1396.5,-0.5"/>
<text text-anchor="middle" x="1456.5" y="-7.5" font-family="Helvetica,sans-Serif" font-size="10.00">core/EventReceiver.h</text>
</a>
</g>
</g>
<!-- Node20&#45;&gt;Node21 -->
<g id="edge21" class="edge">
<title>Node20&#45;&gt;Node21</title>
<path fill="none" stroke="midnightblue" d="M1602.93,-56.44C1573.4,-47.28 1526.38,-32.69 1493.62,-22.52"/>
<polygon fill="midnightblue" stroke="midnightblue" points="1494.53,-19.14 1483.94,-19.52 1492.46,-25.82 1494.53,-19.14"/>
</g>
<!-- Node23 -->
<g id="node23" class="node">
<title>Node23</title>
<g id="a_node23"><a xlink:href="stream_2_socket_connection_8h.html" target="_top" xlink:title=" ">
<polygon fill="white" stroke="black" points="946.5,-179.5 946.5,-209.5 1062.5,-209.5 1062.5,-179.5 946.5,-179.5"/>
<text text-anchor="start" x="954.5" y="-197.5" font-family="Helvetica,sans-Serif" font-size="10.00">core/socket/stream</text>
<text text-anchor="middle" x="1004.5" y="-186.5" font-family="Helvetica,sans-Serif" font-size="10.00">/SocketConnection.h</text>
</a>
</g>
</g>
<!-- Node22&#45;&gt;Node23 -->
<g id="edge23" class="edge">
<title>Node22&#45;&gt;Node23</title>
<path fill="none" stroke="midnightblue" d="M1244.86,-246.56C1194.07,-235.77 1123.96,-220.88 1072.57,-209.96"/>
<polygon fill="midnightblue" stroke="midnightblue" points="1073.06,-206.49 1062.55,-207.83 1071.61,-213.33 1073.06,-206.49"/>
</g>
<!-- Node27 -->
<g id="node27" class="node">
<title>Node27</title>
<g id="a_node27"><a xlink:href="tls_2_socket_reader_8h.html" target="_top" xlink:title=" ">
<polygon fill="white" stroke="black" points="1172.5,-179.5 1172.5,-209.5 1282.5,-209.5 1282.5,-179.5 1172.5,-179.5"/>
<text text-anchor="start" x="1180.5" y="-197.5" font-family="Helvetica,sans-Serif" font-size="10.00">core/socket/stream</text>
<text text-anchor="middle" x="1227.5" y="-186.5" font-family="Helvetica,sans-Serif" font-size="10.00">/tls/SocketReader.h</text>
</a>
</g>
</g>
<!-- Node22&#45;&gt;Node27 -->
<g id="edge27" class="edge">
<title>Node22&#45;&gt;Node27</title>
<path fill="none" stroke="midnightblue" d="M1292.49,-246.4C1281.07,-237.45 1266.11,-225.74 1253.42,-215.8"/>
<polygon fill="midnightblue" stroke="midnightblue" points="1255.51,-212.99 1245.47,-209.58 1251.19,-218.5 1255.51,-212.99"/>
</g>
<!-- Node32 -->
<g id="node32" class="node">
<title>Node32</title>
<g id="a_node32"><a xlink:href="tls_2_socket_writer_8h.html" target="_top" xlink:title=" ">
<polygon fill="white" stroke="black" points="1368.5,-179.5 1368.5,-209.5 1478.5,-209.5 1478.5,-179.5 1368.5,-179.5"/>
<text text-anchor="start" x="1376.5" y="-197.5" font-family="Helvetica,sans-Serif" font-size="10.00">core/socket/stream</text>
<text text-anchor="middle" x="1423.5" y="-186.5" font-family="Helvetica,sans-Serif" font-size="10.00">/tls/SocketWriter.h</text>
</a>
</g>
</g>
<!-- Node22&#45;&gt;Node32 -->
<g id="edge35" class="edge">
<title>Node22&#45;&gt;Node32</title>
<path fill="none" stroke="midnightblue" d="M1335.02,-246.4C1351.16,-237.11 1372.49,-224.84 1390.17,-214.67"/>
<polygon fill="midnightblue" stroke="midnightblue" points="1392.11,-217.6 1399.03,-209.58 1388.62,-211.53 1392.11,-217.6"/>
</g>
<!-- Node34 -->
<g id="node34" class="node">
<title>Node34</title>
<g id="a_node34"><a xlink:href="_t_l_s_shutdown_8h.html" target="_top" xlink:title=" ">
<polygon fill="white" stroke="black" points="1237.5,-112.5 1237.5,-142.5 1347.5,-142.5 1347.5,-112.5 1237.5,-112.5"/>
<text text-anchor="start" x="1245.5" y="-130.5" font-family="Helvetica,sans-Serif" font-size="10.00">core/socket/stream</text>
<text text-anchor="middle" x="1292.5" y="-119.5" font-family="Helvetica,sans-Serif" font-size="10.00">/tls/TLSShutdown.h</text>
</a>
</g>
</g>
<!-- Node22&#45;&gt;Node34 -->
<g id="edge39" class="edge">
<title>Node22&#45;&gt;Node34</title>
<path fill="none" stroke="midnightblue" d="M1308.57,-246.37C1305.52,-223.94 1299.51,-179.92 1295.77,-152.49"/>
<polygon fill="midnightblue" stroke="midnightblue" points="1299.23,-151.96 1294.41,-142.52 1292.3,-152.91 1299.23,-151.96"/>
</g>
<!-- Node24 -->
<g id="node24" class="node">
<title>Node24</title>
<g id="a_node24"><a xlink:href="_socket_connection_8h.html" target="_top" xlink:title=" ">
<polygon fill="white" stroke="black" points="920,-118 920,-137 1091,-137 1091,-118 920,-118"/>
<text text-anchor="middle" x="1005.5" y="-125" font-family="Helvetica,sans-Serif" font-size="10.00">core/socket/SocketConnection.h</text>
</a>
</g>
</g>
<!-- Node23&#45;&gt;Node24 -->
<g id="edge24" class="edge">
<title>Node23&#45;&gt;Node24</title>
<path fill="none" stroke="midnightblue" d="M1004.72,-179.4C1004.86,-170.06 1005.05,-157.71 1005.21,-147.52"/>
<polygon fill="midnightblue" stroke="midnightblue" points="1008.71,-147.25 1005.37,-137.19 1001.71,-147.14 1008.71,-147.25"/>
</g>
<!-- Node25 -->
<g id="node25" class="node">
<title>Node25</title>
<g id="a_node25"><a xlink:href="core_2socket_2_socket_context_8h.html" target="_top" xlink:title=" ">
<polygon fill="white" stroke="black" points="747,-118 747,-137 902,-137 902,-118 747,-118"/>
<text text-anchor="middle" x="824.5" y="-125" font-family="Helvetica,sans-Serif" font-size="10.00">core/socket/SocketContext.h</text>
</a>
</g>
</g>
<!-- Node23&#45;&gt;Node25 -->
<g id="edge25" class="edge">
<title>Node23&#45;&gt;Node25</title>
<path fill="none" stroke="midnightblue" d="M965.44,-179.4C933.3,-167.79 888.23,-151.51 857.78,-140.52"/>
<polygon fill="midnightblue" stroke="midnightblue" points="858.65,-137.11 848.06,-137.01 856.27,-143.7 858.65,-137.11"/>
</g>
<!-- Node26 -->
<g id="node26" class="node">
<title>Node26</title>
<g id="a_node26"><a xlink:href="core_2socket_2_socket_context_factory_8h.html" target="_top" xlink:title=" ">
<polygon fill="white" stroke="black" points="438.5,-112.5 438.5,-142.5 584.5,-142.5 584.5,-112.5 438.5,-112.5"/>
<text text-anchor="start" x="446.5" y="-130.5" font-family="Helvetica,sans-Serif" font-size="10.00">core/socket/SocketContext</text>
<text text-anchor="middle" x="511.5" y="-119.5" font-family="Helvetica,sans-Serif" font-size="10.00">Factory.h</text>
</a>
</g>
</g>
<!-- Node23&#45;&gt;Node26 -->
<g id="edge26" class="edge">
<title>Node23&#45;&gt;Node26</title>
<path fill="none" stroke="midnightblue" d="M946.22,-180.85C942.6,-180.19 939,-179.57 935.5,-179 795.08,-156.35 758.64,-160.64 617.5,-143 610.13,-142.08 602.48,-141.09 594.81,-140.08"/>
<polygon fill="midnightblue" stroke="midnightblue" points="595.12,-136.59 584.74,-138.75 594.2,-143.53 595.12,-136.59"/>
</g>
<!-- Node28 -->
<g id="node28" class="node">
<title>Node28</title>
<g id="a_node28"><a xlink:href="_socket_reader_8h.html" target="_top" xlink:title=" ">
<polygon fill="white" stroke="black" points="1109.5,-112.5 1109.5,-142.5 1219.5,-142.5 1219.5,-112.5 1109.5,-112.5"/>
<text text-anchor="start" x="1117.5" y="-130.5" font-family="Helvetica,sans-Serif" font-size="10.00">core/socket/stream</text>
<text text-anchor="middle" x="1164.5" y="-119.5" font-family="Helvetica,sans-Serif" font-size="10.00">/SocketReader.h</text>
</a>
</g>
</g>
<!-- Node27&#45;&gt;Node28 -->
<g id="edge28" class="edge">
<title>Node27&#45;&gt;Node28</title>
<path fill="none" stroke="midnightblue" d="M1213.83,-179.4C1205.49,-170.79 1194.67,-159.63 1185.28,-149.94"/>
<polygon fill="midnightblue" stroke="midnightblue" points="1187.62,-147.32 1178.14,-142.58 1182.59,-152.19 1187.62,-147.32"/>
</g>
<!-- Node30 -->
<g id="node30" class="node">
<title>Node30</title>
<g id="a_node30"><a xlink:href="_t_l_s_handshake_8h.html" target="_top" xlink:title=" ">
<polygon fill="white" stroke="black" points="1366,-112.5 1366,-142.5 1481,-142.5 1481,-112.5 1366,-112.5"/>
<text text-anchor="start" x="1374" y="-130.5" font-family="Helvetica,sans-Serif" font-size="10.00">core/socket/stream</text>
<text text-anchor="middle" x="1423.5" y="-119.5" font-family="Helvetica,sans-Serif" font-size="10.00">/tls/TLSHandshake.h</text>
</a>
</g>
</g>
<!-- Node27&#45;&gt;Node30 -->
<g id="edge31" class="edge">
<title>Node27&#45;&gt;Node30</title>
<path fill="none" stroke="midnightblue" d="M1270.03,-179.4C1299.82,-169.52 1339.82,-156.25 1371.51,-145.74"/>
<polygon fill="midnightblue" stroke="midnightblue" points="1372.66,-149.05 1381.05,-142.58 1370.46,-142.4 1372.66,-149.05"/>
</g>
<!-- Node29 -->
<g id="node29" class="node">
<title>Node29</title>
<g id="a_node29"><a xlink:href="_read_event_receiver_8h.html" target="_top" xlink:title=" ">
<polygon fill="white" stroke="black" points="1220,-56.5 1220,-75.5 1365,-75.5 1365,-56.5 1220,-56.5"/>
<text text-anchor="middle" x="1292.5" y="-63.5" font-family="Helvetica,sans-Serif" font-size="10.00">core/ReadEventReceiver.h</text>
</a>
</g>
</g>
<!-- Node28&#45;&gt;Node29 -->
<g id="edge29" class="edge">
<title>Node28&#45;&gt;Node29</title>
<path fill="none" stroke="midnightblue" d="M1194.83,-112.4C1216.02,-102.55 1244.09,-89.5 1264.7,-79.92"/>
<polygon fill="midnightblue" stroke="midnightblue" points="1266.28,-83.05 1273.87,-75.66 1263.33,-76.7 1266.28,-83.05"/>
</g>
<!-- Node29&#45;&gt;Node21 -->
<g id="edge30" class="edge">
<title>Node29&#45;&gt;Node21</title>
<path fill="none" stroke="midnightblue" d="M1318.49,-56.44C1346.2,-47.32 1390.25,-32.81 1421.12,-22.65"/>
<polygon fill="midnightblue" stroke="midnightblue" points="1422.23,-25.97 1430.64,-19.52 1420.04,-19.32 1422.23,-25.97"/>
</g>
<!-- Node30&#45;&gt;Node29 -->
<g id="edge32" class="edge">
<title>Node30&#45;&gt;Node29</title>
<path fill="none" stroke="midnightblue" d="M1392.45,-112.4C1370.77,-102.55 1342.04,-89.5 1320.95,-79.92"/>
<polygon fill="midnightblue" stroke="midnightblue" points="1322.11,-76.61 1311.56,-75.66 1319.22,-82.98 1322.11,-76.61"/>
</g>
<!-- Node31 -->
<g id="node31" class="node">
<title>Node31</title>
<g id="a_node31"><a xlink:href="_write_event_receiver_8h.html" target="_top" xlink:title=" ">
<polygon fill="white" stroke="black" points="1383.5,-56.5 1383.5,-75.5 1529.5,-75.5 1529.5,-56.5 1383.5,-56.5"/>
<text text-anchor="middle" x="1456.5" y="-63.5" font-family="Helvetica,sans-Serif" font-size="10.00">core/WriteEventReceiver.h</text>
</a>
</g>
</g>
<!-- Node30&#45;&gt;Node31 -->
<g id="edge33" class="edge">
<title>Node30&#45;&gt;Node31</title>
<path fill="none" stroke="midnightblue" d="M1431.32,-112.4C1435.97,-104.02 1441.9,-93.33 1446.84,-84.42"/>
<polygon fill="midnightblue" stroke="midnightblue" points="1449.91,-86.1 1451.7,-75.66 1443.79,-82.71 1449.91,-86.1"/>
</g>
<!-- Node31&#45;&gt;Node21 -->
<g id="edge34" class="edge">
<title>Node31&#45;&gt;Node21</title>
<path fill="none" stroke="midnightblue" d="M1456.5,-56.08C1456.5,-49.01 1456.5,-38.86 1456.5,-29.99"/>
<polygon fill="midnightblue" stroke="midnightblue" points="1460,-29.75 1456.5,-19.75 1453,-29.75 1460,-29.75"/>
</g>
<!-- Node32&#45;&gt;Node30 -->
<g id="edge38" class="edge">
<title>Node32&#45;&gt;Node30</title>
<path fill="none" stroke="midnightblue" d="M1423.5,-179.4C1423.5,-171.64 1423.5,-161.81 1423.5,-152.86"/>
<polygon fill="midnightblue" stroke="midnightblue" points="1427,-152.58 1423.5,-142.58 1420,-152.58 1427,-152.58"/>
</g>
<!-- Node33 -->
<g id="node33" class="node">
<title>Node33</title>
<g id="a_node33"><a xlink:href="_socket_writer_8h.html" target="_top" xlink:title=" ">
<polygon fill="white" stroke="black" points="1499.5,-112.5 1499.5,-142.5 1609.5,-142.5 1609.5,-112.5 1499.5,-112.5"/>
<text text-anchor="start" x="1507.5" y="-130.5" font-family="Helvetica,sans-Serif" font-size="10.00">core/socket/stream</text>
<text text-anchor="middle" x="1554.5" y="-119.5" font-family="Helvetica,sans-Serif" font-size="10.00">/SocketWriter.h</text>
</a>
</g>
</g>
<!-- Node32&#45;&gt;Node33 -->
<g id="edge36" class="edge">
<title>Node32&#45;&gt;Node33</title>
<path fill="none" stroke="midnightblue" d="M1451.93,-179.4C1470.98,-169.94 1496.28,-157.39 1516.98,-147.12"/>
<polygon fill="midnightblue" stroke="midnightblue" points="1518.73,-150.16 1526.13,-142.58 1515.62,-143.89 1518.73,-150.16"/>
</g>
<!-- Node33&#45;&gt;Node31 -->
<g id="edge37" class="edge">
<title>Node33&#45;&gt;Node31</title>
<path fill="none" stroke="midnightblue" d="M1531.28,-112.4C1515.71,-102.95 1495.3,-90.56 1479.74,-81.11"/>
<polygon fill="midnightblue" stroke="midnightblue" points="1481.12,-77.86 1470.76,-75.66 1477.49,-83.84 1481.12,-77.86"/>
</g>
<!-- Node34&#45;&gt;Node29 -->
<g id="edge40" class="edge">
<title>Node34&#45;&gt;Node29</title>
<path fill="none" stroke="midnightblue" d="M1292.5,-112.4C1292.5,-104.47 1292.5,-94.46 1292.5,-85.86"/>
<polygon fill="midnightblue" stroke="midnightblue" points="1296,-85.66 1292.5,-75.66 1289,-85.66 1296,-85.66"/>
</g>
<!-- Node34&#45;&gt;Node31 -->
<g id="edge41" class="edge">
<title>Node34&#45;&gt;Node31</title>
<path fill="none" stroke="midnightblue" d="M1331.37,-112.4C1359.25,-102.28 1396.44,-88.79 1423.01,-79.15"/>
<polygon fill="midnightblue" stroke="midnightblue" points="1424.43,-82.36 1432.64,-75.66 1422.04,-75.78 1424.43,-82.36"/>
</g>
<!-- Node36 -->
<g id="node36" class="node">
<title>Node36</title>
<g id="a_node36"><a xlink:href="core_2socket_2_server_socket_8h.html" target="_top" xlink:title=" ">
<polygon fill="white" stroke="black" points="1494.5,-319 1494.5,-338 1642.5,-338 1642.5,-319 1494.5,-319"/>
<text text-anchor="middle" x="1568.5" y="-326" font-family="Helvetica,sans-Serif" font-size="10.00">core/socket/ServerSocket.h</text>
</a>
</g>
</g>
<!-- Node35&#45;&gt;Node36 -->
<g id="edge43" class="edge">
<title>Node35&#45;&gt;Node36</title>
<path fill="none" stroke="midnightblue" d="M1568.5,-385.73C1568.5,-376.18 1568.5,-360.62 1568.5,-348.28"/>
<polygon fill="midnightblue" stroke="midnightblue" points="1572,-348.13 1568.5,-338.13 1565,-348.13 1572,-348.13"/>
</g>
<!-- Node37 -->
<g id="node37" class="node">
<title>Node37</title>
<g id="a_node37"><a xlink:href="net_2un_2stream_2_socket_8h.html" target="_top" xlink:title=" ">
<polygon fill="white" stroke="black" points="1679,-319 1679,-338 1808,-338 1808,-319 1679,-319"/>
<text text-anchor="middle" x="1743.5" y="-326" font-family="Helvetica,sans-Serif" font-size="10.00">net/un/stream/Socket.h</text>
</a>
</g>
</g>
<!-- Node35&#45;&gt;Node37 -->
<g id="edge44" class="edge">
<title>Node35&#45;&gt;Node37</title>
<path fill="none" stroke="midnightblue" d="M1591.74,-385.87C1622.29,-374.52 1676.13,-354.52 1710.78,-341.65"/>
<polygon fill="midnightblue" stroke="midnightblue" points="1712.29,-344.83 1720.44,-338.06 1709.85,-338.26 1712.29,-344.83"/>
</g>
<!-- Node38 -->
<g id="node38" class="node">
<title>Node38</title>
<g id="a_node38"><a xlink:href="core_2socket_2_socket_8h.html" target="_top" xlink:title=" ">
<polygon fill="white" stroke="black" points="1829.5,-252 1829.5,-271 1945.5,-271 1945.5,-252 1829.5,-252"/>
<text text-anchor="middle" x="1887.5" y="-259" font-family="Helvetica,sans-Serif" font-size="10.00">core/socket/Socket.h</text>
</a>
</g>
</g>
<!-- Node37&#45;&gt;Node38 -->
<g id="edge45" class="edge">
<title>Node37&#45;&gt;Node38</title>
<path fill="none" stroke="midnightblue" d="M1762.62,-318.87C1787.26,-307.75 1830.31,-288.32 1858.86,-275.43"/>
<polygon fill="midnightblue" stroke="midnightblue" points="1860.62,-278.47 1868.3,-271.17 1857.74,-272.09 1860.62,-278.47"/>
</g>
<!-- Node40 -->
<g id="node40" class="node">
<title>Node40</title>
<g id="a_node40"><a xlink:href="net_2un_2_socket_address_8h.html" target="_top" xlink:title=" ">
<polygon fill="white" stroke="black" points="1678,-252 1678,-271 1809,-271 1809,-252 1678,-252"/>
<text text-anchor="middle" x="1743.5" y="-259" font-family="Helvetica,sans-Serif" font-size="10.00">net/un/SocketAddress.h</text>
</a>
</g>
</g>
<!-- Node37&#45;&gt;Node40 -->
<g id="edge47" class="edge">
<title>Node37&#45;&gt;Node40</title>
<path fill="none" stroke="midnightblue" d="M1743.5,-318.73C1743.5,-309.18 1743.5,-293.62 1743.5,-281.28"/>
<polygon fill="midnightblue" stroke="midnightblue" points="1747,-281.13 1743.5,-271.13 1740,-281.13 1747,-281.13"/>
</g>
<!-- Node39 -->
<g id="node39" class="node">
<title>Node39</title>
<g id="a_node39"><a xlink:href="_descriptor_8h.html" target="_top" xlink:title=" ">
<polygon fill="white" stroke="black" points="1839.5,-185 1839.5,-204 1939.5,-204 1939.5,-185 1839.5,-185"/>
<text text-anchor="middle" x="1889.5" y="-192" font-family="Helvetica,sans-Serif" font-size="10.00">core/Descriptor.h</text>
</a>
</g>
</g>
<!-- Node38&#45;&gt;Node39 -->
<g id="edge46" class="edge">
<title>Node38&#45;&gt;Node39</title>
<path fill="none" stroke="midnightblue" d="M1887.77,-251.73C1888.06,-242.18 1888.54,-226.62 1888.92,-214.28"/>
<polygon fill="midnightblue" stroke="midnightblue" points="1892.43,-214.23 1889.23,-204.13 1885.43,-214.01 1892.43,-214.23"/>
</g>
<!-- Node41 -->
<g id="node41" class="node">
<title>Node41</title>
<g id="a_node41"><a xlink:href="core_2socket_2_socket_address_8h.html" target="_top" xlink:title=" ">
<polygon fill="white" stroke="black" points="1666,-185 1666,-204 1821,-204 1821,-185 1666,-185"/>
<text text-anchor="middle" x="1743.5" y="-192" font-family="Helvetica,sans-Serif" font-size="10.00">core/socket/SocketAddress.h</text>
</a>
</g>
</g>
<!-- Node40&#45;&gt;Node41 -->
<g id="edge48" class="edge">
<title>Node40&#45;&gt;Node41</title>
<path fill="none" stroke="midnightblue" d="M1743.5,-251.73C1743.5,-242.18 1743.5,-226.62 1743.5,-214.28"/>
<polygon fill="midnightblue" stroke="midnightblue" points="1747,-214.13 1743.5,-204.13 1740,-214.13 1747,-214.13"/>
</g>
<!-- Node43 -->
<g id="node43" class="node">
<title>Node43</title>
<g id="a_node43"><a xlink:href="web_2http_2server_2_socket_context_factory_8h.html" target="_top" xlink:title=" ">
<polygon fill="white" stroke="black" points="626,-380.5 626,-410.5 793,-410.5 793,-380.5 626,-380.5"/>
<text text-anchor="start" x="634" y="-398.5" font-family="Helvetica,sans-Serif" font-size="10.00">web/http/server/SocketContext</text>
<text text-anchor="middle" x="709.5" y="-387.5" font-family="Helvetica,sans-Serif" font-size="10.00">Factory.h</text>
</a>
</g>
</g>
<!-- Node42&#45;&gt;Node43 -->
<g id="edge50" class="edge">
<title>Node42&#45;&gt;Node43</title>
<path fill="none" stroke="midnightblue" d="M709.5,-452.73C709.5,-444.54 709.5,-431.92 709.5,-420.71"/>
<polygon fill="midnightblue" stroke="midnightblue" points="713,-420.59 709.5,-410.59 706,-420.59 713,-420.59"/>
</g>
<!-- Node44 -->
<g id="node44" class="node">
<title>Node44</title>
<g id="a_node44"><a xlink:href="web_2http_2_socket_context_factory_8h.html" target="_top" xlink:title=" ">
<polygon fill="white" stroke="black" points="396.5,-185 396.5,-204 572.5,-204 572.5,-185 396.5,-185"/>
<text text-anchor="middle" x="484.5" y="-192" font-family="Helvetica,sans-Serif" font-size="10.00">web/http/SocketContextFactory.h</text>
</a>
</g>
</g>
<!-- Node43&#45;&gt;Node44 -->
<g id="edge51" class="edge">
<title>Node43&#45;&gt;Node44</title>
<path fill="none" stroke="midnightblue" d="M697.64,-380.34C667.41,-344.27 589.35,-251.42 582.5,-246 562.38,-230.07 536.46,-216.98 516.33,-208.12"/>
<polygon fill="midnightblue" stroke="midnightblue" points="517.53,-204.83 506.96,-204.11 514.78,-211.26 517.53,-204.83"/>
</g>
<!-- Node45 -->
<g id="node45" class="node">
<title>Node45</title>
<g id="a_node45"><a xlink:href="server_2_socket_context_8hpp.html" target="_top" xlink:title=" ">
<polygon fill="white" stroke="black" points="676.5,-319 676.5,-338 864.5,-338 864.5,-319 676.5,-319"/>
<text text-anchor="middle" x="770.5" y="-326" font-family="Helvetica,sans-Serif" font-size="10.00">web/http/server/SocketContext.hpp</text>
</a>
</g>
</g>
<!-- Node43&#45;&gt;Node45 -->
<g id="edge53" class="edge">
<title>Node43&#45;&gt;Node45</title>
<path fill="none" stroke="midnightblue" d="M722.74,-380.4C732.34,-370.16 745.35,-356.3 755.37,-345.62"/>
<polygon fill="midnightblue" stroke="midnightblue" points="758.05,-347.88 762.34,-338.19 752.95,-343.09 758.05,-347.88"/>
</g>
<!-- Node44&#45;&gt;Node26 -->
<g id="edge52" class="edge">
<title>Node44&#45;&gt;Node26</title>
<path fill="none" stroke="midnightblue" d="M488.14,-184.73C491.61,-176.37 497,-163.4 501.73,-152.02"/>
<polygon fill="midnightblue" stroke="midnightblue" points="505.04,-153.17 505.65,-142.59 498.58,-150.48 505.04,-153.17"/>
</g>
<!-- Node45&#45;&gt;Node6 -->
<g id="edge54" class="edge">
<title>Node45&#45;&gt;Node6</title>
<path fill="none" stroke="midnightblue" d="M734.53,-318.94C685.43,-307.24 597.37,-286.28 543.52,-273.46"/>
<polygon fill="midnightblue" stroke="midnightblue" points="544.09,-269.99 533.55,-271.08 542.47,-276.8 544.09,-269.99"/>
</g>
<!-- Node46 -->
<g id="node46" class="node">
<title>Node46</title>
<g id="a_node46"><a xlink:href="http__utils_8h.html" target="_top" xlink:title=" ">
<polygon fill="white" stroke="black" points="874,-252 874,-271 991,-271 991,-252 874,-252"/>
<text text-anchor="middle" x="932.5" y="-259" font-family="Helvetica,sans-Serif" font-size="10.00">web/http/http_utils.h</text>
</a>
</g>
</g>
<!-- Node45&#45;&gt;Node46 -->
<g id="edge55" class="edge">
<title>Node45&#45;&gt;Node46</title>
<path fill="none" stroke="midnightblue" d="M792.01,-318.87C820.17,-307.57 869.7,-287.7 901.8,-274.82"/>
<polygon fill="midnightblue" stroke="midnightblue" points="903.18,-278.04 911.16,-271.06 900.57,-271.54 903.18,-278.04"/>
</g>
<!-- Node47 -->
<g id="node47" class="node">
<title>Node47</title>
<g id="a_node47"><a xlink:href="web_2http_2server_2_socket_context_8h.html" target="_top" xlink:title=" ">
<polygon fill="white" stroke="black" points="679.5,-252 679.5,-271 855.5,-271 855.5,-252 679.5,-252"/>
<text text-anchor="middle" x="767.5" y="-259" font-family="Helvetica,sans-Serif" font-size="10.00">web/http/server/SocketContext.h</text>
</a>
</g>
</g>
<!-- Node45&#45;&gt;Node47 -->
<g id="edge56" class="edge">
<title>Node45&#45;&gt;Node47</title>
<path fill="none" stroke="midnightblue" d="M770.1,-318.73C769.65,-309.18 768.94,-293.62 768.37,-281.28"/>
<polygon fill="midnightblue" stroke="midnightblue" points="771.86,-280.96 767.9,-271.13 764.86,-281.28 771.86,-280.96"/>
</g>
<!-- Node48 -->
<g id="node48" class="node">
<title>Node48</title>
<g id="a_node48"><a xlink:href="web_2http_2_socket_context_8h.html" target="_top" xlink:title=" ">
<polygon fill="white" stroke="black" points="784.5,-185 784.5,-204 926.5,-204 926.5,-185 784.5,-185"/>
<text text-anchor="middle" x="855.5" y="-192" font-family="Helvetica,sans-Serif" font-size="10.00">web/http/SocketContext.h</text>
</a>
</g>
</g>
<!-- Node47&#45;&gt;Node48 -->
<g id="edge57" class="edge">
<title>Node47&#45;&gt;Node48</title>
<path fill="none" stroke="midnightblue" d="M779.37,-251.73C793.75,-241.11 818.2,-223.05 835.51,-210.26"/>
<polygon fill="midnightblue" stroke="midnightblue" points="837.86,-212.88 843.82,-204.13 833.7,-207.25 837.86,-212.88"/>
</g>
<!-- Node49 -->
<g id="node49" class="node">
<title>Node49</title>
<g id="a_node49"><a xlink:href="_request_parser_8h.html" target="_top" xlink:title=" ">
<polygon fill="white" stroke="black" points="590.5,-185 590.5,-204 766.5,-204 766.5,-185 590.5,-185"/>
<text text-anchor="middle" x="678.5" y="-192" font-family="Helvetica,sans-Serif" font-size="10.00">web/http/server/RequestParser.h</text>
</a>
</g>
</g>
<!-- Node47&#45;&gt;Node49 -->
<g id="edge59" class="edge">
<title>Node47&#45;&gt;Node49</title>
<path fill="none" stroke="midnightblue" d="M755.5,-251.73C740.95,-241.11 716.22,-223.05 698.72,-210.26"/>
<polygon fill="midnightblue" stroke="midnightblue" points="700.45,-207.2 690.31,-204.13 696.32,-212.85 700.45,-207.2"/>
</g>
<!-- Node48&#45;&gt;Node25 -->
<g id="edge58" class="edge">
<title>Node48&#45;&gt;Node25</title>
<path fill="none" stroke="midnightblue" d="M851.32,-184.73C846.62,-174.89 838.88,-158.66 832.92,-146.16"/>
<polygon fill="midnightblue" stroke="midnightblue" points="836.08,-144.65 828.61,-137.13 829.76,-147.66 836.08,-144.65"/>
</g>
<!-- Node50 -->
<g id="node50" class="node">
<title>Node50</title>
<g id="a_node50"><a xlink:href="_parser_8h.html" target="_top" xlink:title=" ">
<polygon fill="white" stroke="black" points="626.5,-118 626.5,-137 728.5,-137 728.5,-118 626.5,-118"/>
<text text-anchor="middle" x="677.5" y="-125" font-family="Helvetica,sans-Serif" font-size="10.00">web/http/Parser.h</text>
</a>
</g>
</g>
<!-- Node49&#45;&gt;Node50 -->
<g id="edge60" class="edge">
<title>Node49&#45;&gt;Node50</title>
<path fill="none" stroke="midnightblue" d="M678.37,-184.73C678.22,-175.18 677.98,-159.62 677.79,-147.28"/>
<polygon fill="midnightblue" stroke="midnightblue" points="681.29,-147.07 677.63,-137.13 674.29,-147.18 681.29,-147.07"/>
</g>
</g>
</svg>
