<?xml version="1.0" encoding="UTF-8" standalone="no"?>
<!DOCTYPE svg PUBLIC "-//W3C//DTD SVG 1.1//EN"
 "http://www.w3.org/Graphics/SVG/1.1/DTD/svg11.dtd">
<!-- Generated by graphviz version 2.43.0 (0)
 -->
<!-- Title: web/http/client/tls/Client.h Pages: 1 -->
<svg width="1878pt" height="553pt"
 viewBox="0.00 0.00 1877.50 553.00" xmlns="http://www.w3.org/2000/svg" xmlns:xlink="http://www.w3.org/1999/xlink">
<g id="graph0" class="graph" transform="scale(1 1) rotate(0) translate(4 549)">
<title>web/http/client/tls/Client.h</title>
<polygon fill="white" stroke="transparent" points="-4,4 -4,-549 1873.5,-549 1873.5,4 -4,4"/>
<!-- Node1 -->
<g id="node1" class="node">
<title>Node1</title>
<g id="a_node1"><a xlink:title=" ">
<polygon fill="#bfbfbf" stroke="black" points="471,-514.5 471,-544.5 565,-544.5 565,-514.5 471,-514.5"/>
<text text-anchor="start" x="479" y="-532.5" font-family="Helvetica,sans-Serif" font-size="10.00">web/http/client/tls</text>
<text text-anchor="middle" x="518" y="-521.5" font-family="Helvetica,sans-Serif" font-size="10.00">/Client.h</text>
</a>
</g>
</g>
<!-- Node2 -->
<g id="node2" class="node">
<title>Node2</title>
<g id="a_node2"><a xlink:href="bluetooth_2rfcomm_2tls_2_socket_client_8h.html" target="_top" xlink:title=" ">
<polygon fill="white" stroke="black" points="381,-447.5 381,-477.5 515,-477.5 515,-447.5 381,-447.5"/>
<text text-anchor="start" x="389" y="-465.5" font-family="Helvetica,sans-Serif" font-size="10.00">net/socket/bluetooth</text>
<text text-anchor="middle" x="448" y="-454.5" font-family="Helvetica,sans-Serif" font-size="10.00">/rfcomm/tls/SocketClient.h</text>
</a>
</g>
</g>
<!-- Node1&#45;&gt;Node2 -->
<g id="edge1" class="edge">
<title>Node1&#45;&gt;Node2</title>
<path fill="none" stroke="midnightblue" d="M502.81,-514.4C493.45,-505.71 481.28,-494.4 470.79,-484.66"/>
<polygon fill="midnightblue" stroke="midnightblue" points="472.87,-481.82 463.16,-477.58 468.11,-486.95 472.87,-481.82"/>
</g>
<!-- Node28 -->
<g id="node28" class="node">
<title>Node28</title>
<g id="a_node28"><a xlink:href="ip_2tcp_2ipv4_2tls_2_socket_client_8h.html" target="_top" xlink:title=" ">
<polygon fill="white" stroke="black" points="196,-447.5 196,-477.5 306,-477.5 306,-447.5 196,-447.5"/>
<text text-anchor="start" x="204" y="-465.5" font-family="Helvetica,sans-Serif" font-size="10.00">net/socket/ip/tcp/ipv4</text>
<text text-anchor="middle" x="251" y="-454.5" font-family="Helvetica,sans-Serif" font-size="10.00">/tls/SocketClient.h</text>
</a>
</g>
</g>
<!-- Node1&#45;&gt;Node28 -->
<g id="edge34" class="edge">
<title>Node1&#45;&gt;Node28</title>
<path fill="none" stroke="midnightblue" d="M470.88,-517.03C427.97,-506.58 364.2,-491.06 316.37,-479.41"/>
<polygon fill="midnightblue" stroke="midnightblue" points="316.96,-475.96 306.42,-476.99 315.31,-482.76 316.96,-475.96"/>
</g>
<!-- Node33 -->
<g id="node33" class="node">
<title>Node33</title>
<g id="a_node33"><a xlink:href="ip_2tcp_2ipv6_2tls_2_socket_client_8h.html" target="_top" xlink:title=" ">
<polygon fill="white" stroke="black" points="533,-447.5 533,-477.5 643,-477.5 643,-447.5 533,-447.5"/>
<text text-anchor="start" x="541" y="-465.5" font-family="Helvetica,sans-Serif" font-size="10.00">net/socket/ip/tcp/ipv6</text>
<text text-anchor="middle" x="588" y="-454.5" font-family="Helvetica,sans-Serif" font-size="10.00">/tls/SocketClient.h</text>
</a>
</g>
</g>
<!-- Node1&#45;&gt;Node33 -->
<g id="edge43" class="edge">
<title>Node1&#45;&gt;Node33</title>
<path fill="none" stroke="midnightblue" d="M533.19,-514.4C542.55,-505.71 554.72,-494.4 565.21,-484.66"/>
<polygon fill="midnightblue" stroke="midnightblue" points="567.89,-486.95 572.84,-477.58 563.13,-481.82 567.89,-486.95"/>
</g>
<!-- Node37 -->
<g id="node37" class="node">
<title>Node37</title>
<g id="a_node37"><a xlink:href="_client_8h.html" target="_top" xlink:title=" ">
<polygon fill="white" stroke="black" points="1323.5,-386 1323.5,-405 1440.5,-405 1440.5,-386 1323.5,-386"/>
<text text-anchor="middle" x="1382" y="-393" font-family="Helvetica,sans-Serif" font-size="10.00">web/http/client/Client.h</text>
</a>
</g>
</g>
<!-- Node1&#45;&gt;Node37 -->
<g id="edge52" class="edge">
<title>Node1&#45;&gt;Node37</title>
<path fill="none" stroke="midnightblue" d="M565.07,-521.31C709.83,-499.19 1148.8,-432.13 1316.19,-406.55"/>
<polygon fill="midnightblue" stroke="midnightblue" points="1316.75,-410.01 1326.11,-405.04 1315.69,-403.09 1316.75,-410.01"/>
</g>
<!-- Node3 -->
<g id="node3" class="node">
<title>Node3</title>
<g id="a_node3"><a xlink:href="bluetooth_2rfcomm_2_socket_client_8h.html" target="_top" xlink:title=" ">
<polygon fill="white" stroke="black" points="267,-380.5 267,-410.5 387,-410.5 387,-380.5 267,-380.5"/>
<text text-anchor="start" x="275" y="-398.5" font-family="Helvetica,sans-Serif" font-size="10.00">net/socket/bluetooth</text>
<text text-anchor="middle" x="327" y="-387.5" font-family="Helvetica,sans-Serif" font-size="10.00">/rfcomm/SocketClient.h</text>
</a>
</g>
</g>
<!-- Node2&#45;&gt;Node3 -->
<g id="edge2" class="edge">
<title>Node2&#45;&gt;Node3</title>
<path fill="none" stroke="midnightblue" d="M421.74,-447.4C404.3,-438.03 381.2,-425.62 362.17,-415.39"/>
<polygon fill="midnightblue" stroke="midnightblue" points="363.67,-412.23 353.2,-410.58 360.36,-418.39 363.67,-412.23"/>
</g>
<!-- Node9 -->
<g id="node9" class="node">
<title>Node9</title>
<g id="a_node9"><a xlink:href="stream_2tls_2_socket_client_8h.html" target="_top" xlink:title=" ">
<polygon fill="white" stroke="black" points="533.5,-380.5 533.5,-410.5 642.5,-410.5 642.5,-380.5 533.5,-380.5"/>
<text text-anchor="start" x="541.5" y="-398.5" font-family="Helvetica,sans-Serif" font-size="10.00">net/socket/stream/tls</text>
<text text-anchor="middle" x="588" y="-387.5" font-family="Helvetica,sans-Serif" font-size="10.00">/SocketClient.h</text>
</a>
</g>
</g>
<!-- Node2&#45;&gt;Node9 -->
<g id="edge8" class="edge">
<title>Node2&#45;&gt;Node9</title>
<path fill="none" stroke="midnightblue" d="M478.38,-447.4C498.93,-437.86 526.26,-425.16 548.5,-414.84"/>
<polygon fill="midnightblue" stroke="midnightblue" points="550.09,-417.96 557.68,-410.58 547.14,-411.61 550.09,-417.96"/>
</g>
<!-- Node4 -->
<g id="node4" class="node">
<title>Node4</title>
<g id="a_node4"><a xlink:href="socket_2bluetooth_2rfcomm_2_socket_8h.html" target="_top" xlink:title=" ">
<polygon fill="white" stroke="black" points="278.5,-313.5 278.5,-343.5 383.5,-343.5 383.5,-313.5 278.5,-313.5"/>
<text text-anchor="start" x="286.5" y="-331.5" font-family="Helvetica,sans-Serif" font-size="10.00">net/socket/bluetooth</text>
<text text-anchor="middle" x="331" y="-320.5" font-family="Helvetica,sans-Serif" font-size="10.00">/rfcomm/Socket.h</text>
</a>
</g>
</g>
<!-- Node3&#45;&gt;Node4 -->
<g id="edge3" class="edge">
<title>Node3&#45;&gt;Node4</title>
<path fill="none" stroke="midnightblue" d="M327.87,-380.4C328.35,-372.56 328.96,-362.6 329.52,-353.57"/>
<polygon fill="midnightblue" stroke="midnightblue" points="333.01,-353.77 330.13,-343.58 326.03,-353.34 333.01,-353.77"/>
</g>
<!-- Node5 -->
<g id="node5" class="node">
<title>Node5</title>
<g id="a_node5"><a xlink:href="socket_2_socket_8h.html" target="_top" xlink:title=" ">
<polygon fill="white" stroke="black" points="288,-252 288,-271 392,-271 392,-252 288,-252"/>
<text text-anchor="middle" x="340" y="-259" font-family="Helvetica,sans-Serif" font-size="10.00">net/socket/Socket.h</text>
</a>
</g>
</g>
<!-- Node4&#45;&gt;Node5 -->
<g id="edge4" class="edge">
<title>Node4&#45;&gt;Node5</title>
<path fill="none" stroke="midnightblue" d="M332.95,-313.4C334.26,-303.96 335.99,-291.45 337.41,-281.19"/>
<polygon fill="midnightblue" stroke="midnightblue" points="340.89,-281.58 338.8,-271.19 333.96,-280.62 340.89,-281.58"/>
</g>
<!-- Node7 -->
<g id="node7" class="node">
<title>Node7</title>
<g id="a_node7"><a xlink:href="_rf_comm_address_8h.html" target="_top" xlink:title=" ">
<polygon fill="white" stroke="black" points="128.5,-246.5 128.5,-276.5 269.5,-276.5 269.5,-246.5 128.5,-246.5"/>
<text text-anchor="start" x="136.5" y="-264.5" font-family="Helvetica,sans-Serif" font-size="10.00">net/socket/bluetooth</text>
<text text-anchor="middle" x="199" y="-253.5" font-family="Helvetica,sans-Serif" font-size="10.00">/address/RfCommAddress.h</text>
</a>
</g>
</g>
<!-- Node4&#45;&gt;Node7 -->
<g id="edge6" class="edge">
<title>Node4&#45;&gt;Node7</title>
<path fill="none" stroke="midnightblue" d="M302.36,-313.4C283.16,-303.94 257.67,-291.39 236.81,-281.12"/>
<polygon fill="midnightblue" stroke="midnightblue" points="238.1,-277.85 227.59,-276.58 235.01,-284.13 238.1,-277.85"/>
</g>
<!-- Node6 -->
<g id="node6" class="node">
<title>Node6</title>
<g id="a_node6"><a xlink:href="_descriptor_8h.html" target="_top" xlink:title=" ">
<polygon fill="white" stroke="black" points="297,-185 297,-204 383,-204 383,-185 297,-185"/>
<text text-anchor="middle" x="340" y="-192" font-family="Helvetica,sans-Serif" font-size="10.00">net/Descriptor.h</text>
</a>
</g>
</g>
<!-- Node5&#45;&gt;Node6 -->
<g id="edge5" class="edge">
<title>Node5&#45;&gt;Node6</title>
<path fill="none" stroke="midnightblue" d="M340,-251.73C340,-242.18 340,-226.62 340,-214.28"/>
<polygon fill="midnightblue" stroke="midnightblue" points="343.5,-214.13 340,-204.13 336.5,-214.13 343.5,-214.13"/>
</g>
<!-- Node8 -->
<g id="node8" class="node">
<title>Node8</title>
<g id="a_node8"><a xlink:href="_socket_address_8h.html" target="_top" xlink:title=" ">
<polygon fill="white" stroke="black" points="129,-185 129,-204 269,-204 269,-185 129,-185"/>
<text text-anchor="middle" x="199" y="-192" font-family="Helvetica,sans-Serif" font-size="10.00">net/socket/SocketAddress.h</text>
</a>
</g>
</g>
<!-- Node7&#45;&gt;Node8 -->
<g id="edge7" class="edge">
<title>Node7&#45;&gt;Node8</title>
<path fill="none" stroke="midnightblue" d="M199,-246.4C199,-237.06 199,-224.71 199,-214.52"/>
<polygon fill="midnightblue" stroke="midnightblue" points="202.5,-214.19 199,-204.19 195.5,-214.19 202.5,-214.19"/>
</g>
<!-- Node10 -->
<g id="node10" class="node">
<title>Node10</title>
<g id="a_node10"><a xlink:href="stream_2_socket_client_8h.html" target="_top" xlink:title=" ">
<polygon fill="white" stroke="black" points="530.5,-313.5 530.5,-343.5 659.5,-343.5 659.5,-313.5 530.5,-313.5"/>
<text text-anchor="start" x="538.5" y="-331.5" font-family="Helvetica,sans-Serif" font-size="10.00">net/socket/stream/Socket</text>
<text text-anchor="middle" x="595" y="-320.5" font-family="Helvetica,sans-Serif" font-size="10.00">Client.h</text>
</a>
</g>
</g>
<!-- Node9&#45;&gt;Node10 -->
<g id="edge9" class="edge">
<title>Node9&#45;&gt;Node10</title>
<path fill="none" stroke="midnightblue" d="M589.52,-380.4C590.36,-372.56 591.44,-362.6 592.41,-353.57"/>
<polygon fill="midnightblue" stroke="midnightblue" points="595.89,-353.89 593.48,-343.58 588.93,-353.14 595.89,-353.89"/>
</g>
<!-- Node11 -->
<g id="node11" class="node">
<title>Node11</title>
<g id="a_node11"><a xlink:href="tls_2_socket_connector_8h.html" target="_top" xlink:title=" ">
<polygon fill="white" stroke="black" points="677.5,-313.5 677.5,-343.5 786.5,-343.5 786.5,-313.5 677.5,-313.5"/>
<text text-anchor="start" x="685.5" y="-331.5" font-family="Helvetica,sans-Serif" font-size="10.00">net/socket/stream/tls</text>
<text text-anchor="middle" x="732" y="-320.5" font-family="Helvetica,sans-Serif" font-size="10.00">/SocketConnector.h</text>
</a>
</g>
</g>
<!-- Node9&#45;&gt;Node11 -->
<g id="edge10" class="edge">
<title>Node9&#45;&gt;Node11</title>
<path fill="none" stroke="midnightblue" d="M619.25,-380.4C640.47,-370.81 668.75,-358.05 691.68,-347.7"/>
<polygon fill="midnightblue" stroke="midnightblue" points="693.14,-350.88 700.82,-343.58 690.26,-344.5 693.14,-350.88"/>
</g>
<!-- Node12 -->
<g id="node12" class="node">
<title>Node12</title>
<g id="a_node12"><a xlink:href="_socket_connector_8h.html" target="_top" xlink:title=" ">
<polygon fill="white" stroke="black" points="556.5,-246.5 556.5,-276.5 685.5,-276.5 685.5,-246.5 556.5,-246.5"/>
<text text-anchor="start" x="564.5" y="-264.5" font-family="Helvetica,sans-Serif" font-size="10.00">net/socket/stream/Socket</text>
<text text-anchor="middle" x="621" y="-253.5" font-family="Helvetica,sans-Serif" font-size="10.00">Connector.h</text>
</a>
</g>
</g>
<!-- Node11&#45;&gt;Node12 -->
<g id="edge11" class="edge">
<title>Node11&#45;&gt;Node12</title>
<path fill="none" stroke="midnightblue" d="M707.91,-313.4C692.06,-304.11 671.11,-291.84 653.74,-281.67"/>
<polygon fill="midnightblue" stroke="midnightblue" points="655.44,-278.61 645.04,-276.58 651.9,-284.65 655.44,-278.61"/>
</g>
<!-- Node15 -->
<g id="node15" class="node">
<title>Node15</title>
<g id="a_node15"><a xlink:href="tls_2_socket_connection_8h.html" target="_top" xlink:title=" ">
<polygon fill="white" stroke="black" points="844.5,-246.5 844.5,-276.5 953.5,-276.5 953.5,-246.5 844.5,-246.5"/>
<text text-anchor="start" x="852.5" y="-264.5" font-family="Helvetica,sans-Serif" font-size="10.00">net/socket/stream/tls</text>
<text text-anchor="middle" x="899" y="-253.5" font-family="Helvetica,sans-Serif" font-size="10.00">/SocketConnection.h</text>
</a>
</g>
</g>
<!-- Node11&#45;&gt;Node15 -->
<g id="edge14" class="edge">
<title>Node11&#45;&gt;Node15</title>
<path fill="none" stroke="midnightblue" d="M768.24,-313.4C793.18,-303.69 826.53,-290.71 853.3,-280.29"/>
<polygon fill="midnightblue" stroke="midnightblue" points="854.78,-283.47 862.83,-276.58 852.25,-276.94 854.78,-283.47"/>
</g>
<!-- Node25 -->
<g id="node25" class="node">
<title>Node25</title>
<g id="a_node25"><a xlink:href="ssl__utils_8h.html" target="_top" xlink:title=" ">
<polygon fill="white" stroke="black" points="638.5,-112.5 638.5,-142.5 747.5,-142.5 747.5,-112.5 638.5,-112.5"/>
<text text-anchor="start" x="646.5" y="-130.5" font-family="Helvetica,sans-Serif" font-size="10.00">net/socket/stream/tls</text>
<text text-anchor="middle" x="693" y="-119.5" font-family="Helvetica,sans-Serif" font-size="10.00">/ssl_utils.h</text>
</a>
</g>
</g>
<!-- Node11&#45;&gt;Node25 -->
<g id="edge33" class="edge">
<title>Node11&#45;&gt;Node25</title>
<path fill="none" stroke="midnightblue" d="M729.2,-313.19C722.58,-279.41 705.92,-194.44 697.72,-152.57"/>
<polygon fill="midnightblue" stroke="midnightblue" points="701.14,-151.82 695.78,-142.68 694.27,-153.17 701.14,-151.82"/>
</g>
<!-- Node13 -->
<g id="node13" class="node">
<title>Node13</title>
<g id="a_node13"><a xlink:href="_connect_event_receiver_8h.html" target="_top" xlink:title=" ">
<polygon fill="white" stroke="black" points="573,-56.5 573,-75.5 715,-75.5 715,-56.5 573,-56.5"/>
<text text-anchor="middle" x="644" y="-63.5" font-family="Helvetica,sans-Serif" font-size="10.00">net/ConnectEventReceiver.h</text>
</a>
</g>
</g>
<!-- Node12&#45;&gt;Node13 -->
<g id="edge12" class="edge">
<title>Node12&#45;&gt;Node13</title>
<path fill="none" stroke="midnightblue" d="M620.73,-246.44C620.47,-219.92 621.07,-160.78 630,-112 631.64,-103.05 634.5,-93.38 637.21,-85.3"/>
<polygon fill="midnightblue" stroke="midnightblue" points="640.53,-86.4 640.56,-75.81 633.93,-84.07 640.53,-86.4"/>
</g>
<!-- Node14 -->
<g id="node14" class="node">
<title>Node14</title>
<g id="a_node14"><a xlink:href="_event_receiver_8h.html" target="_top" xlink:title=" ">
<polygon fill="white" stroke="black" points="777.5,-0.5 777.5,-19.5 882.5,-19.5 882.5,-0.5 777.5,-0.5"/>
<text text-anchor="middle" x="830" y="-7.5" font-family="Helvetica,sans-Serif" font-size="10.00">net/EventReceiver.h</text>
</a>
</g>
</g>
<!-- Node13&#45;&gt;Node14 -->
<g id="edge13" class="edge">
<title>Node13&#45;&gt;Node14</title>
<path fill="none" stroke="midnightblue" d="M673.47,-56.44C705.17,-47.24 755.73,-32.56 790.77,-22.39"/>
<polygon fill="midnightblue" stroke="midnightblue" points="792.04,-25.67 800.67,-19.52 790.09,-18.94 792.04,-25.67"/>
</g>
<!-- Node16 -->
<g id="node16" class="node">
<title>Node16</title>
<g id="a_node16"><a xlink:href="_socket_connection_t_8h.html" target="_top" xlink:title=" ">
<polygon fill="white" stroke="black" points="1209.5,-179.5 1209.5,-209.5 1338.5,-209.5 1338.5,-179.5 1209.5,-179.5"/>
<text text-anchor="start" x="1217.5" y="-197.5" font-family="Helvetica,sans-Serif" font-size="10.00">net/socket/stream/Socket</text>
<text text-anchor="middle" x="1274" y="-186.5" font-family="Helvetica,sans-Serif" font-size="10.00">ConnectionT.h</text>
</a>
</g>
</g>
<!-- Node15&#45;&gt;Node16 -->
<g id="edge15" class="edge">
<title>Node15&#45;&gt;Node16</title>
<path fill="none" stroke="midnightblue" d="M953.53,-251.05C1018.33,-239.82 1126.78,-221.02 1199.34,-208.44"/>
<polygon fill="midnightblue" stroke="midnightblue" points="1200.08,-211.87 1209.33,-206.71 1198.88,-204.97 1200.08,-211.87"/>
</g>
<!-- Node20 -->
<g id="node20" class="node">
<title>Node20</title>
<g id="a_node20"><a xlink:href="tls_2_socket_reader_8h.html" target="_top" xlink:title=" ">
<polygon fill="white" stroke="black" points="910.5,-179.5 910.5,-209.5 1019.5,-209.5 1019.5,-179.5 910.5,-179.5"/>
<text text-anchor="start" x="918.5" y="-197.5" font-family="Helvetica,sans-Serif" font-size="10.00">net/socket/stream/tls</text>
<text text-anchor="middle" x="965" y="-186.5" font-family="Helvetica,sans-Serif" font-size="10.00">/SocketReader.h</text>
</a>
</g>
</g>
<!-- Node15&#45;&gt;Node20 -->
<g id="edge19" class="edge">
<title>Node15&#45;&gt;Node20</title>
<path fill="none" stroke="midnightblue" d="M913.32,-246.4C922.14,-237.71 933.62,-226.4 943.52,-216.66"/>
<polygon fill="midnightblue" stroke="midnightblue" points="946.04,-219.09 950.71,-209.58 941.13,-214.1 946.04,-219.09"/>
</g>
<!-- Node26 -->
<g id="node26" class="node">
<title>Node26</title>
<g id="a_node26"><a xlink:href="tls_2_socket_writer_8h.html" target="_top" xlink:title=" ">
<polygon fill="white" stroke="black" points="778.5,-179.5 778.5,-209.5 887.5,-209.5 887.5,-179.5 778.5,-179.5"/>
<text text-anchor="start" x="786.5" y="-197.5" font-family="Helvetica,sans-Serif" font-size="10.00">net/socket/stream/tls</text>
<text text-anchor="middle" x="833" y="-186.5" font-family="Helvetica,sans-Serif" font-size="10.00">/SocketWriter.h</text>
</a>
</g>
</g>
<!-- Node15&#45;&gt;Node26 -->
<g id="edge28" class="edge">
<title>Node15&#45;&gt;Node26</title>
<path fill="none" stroke="midnightblue" d="M884.68,-246.4C875.86,-237.71 864.38,-226.4 854.48,-216.66"/>
<polygon fill="midnightblue" stroke="midnightblue" points="856.87,-214.1 847.29,-209.58 851.96,-219.09 856.87,-214.1"/>
</g>
<!-- Node17 -->
<g id="node17" class="node">
<title>Node17</title>
<g id="a_node17"><a xlink:href="_socket_connection_8h.html" target="_top" xlink:title=" ">
<polygon fill="white" stroke="black" points="1186.5,-112.5 1186.5,-142.5 1315.5,-142.5 1315.5,-112.5 1186.5,-112.5"/>
<text text-anchor="start" x="1194.5" y="-130.5" font-family="Helvetica,sans-Serif" font-size="10.00">net/socket/stream/Socket</text>
<text text-anchor="middle" x="1251" y="-119.5" font-family="Helvetica,sans-Serif" font-size="10.00">Connection.h</text>
</a>
</g>
</g>
<!-- Node16&#45;&gt;Node17 -->
<g id="edge16" class="edge">
<title>Node16&#45;&gt;Node17</title>
<path fill="none" stroke="midnightblue" d="M1269.01,-179.4C1266.21,-171.47 1262.63,-161.38 1259.41,-152.27"/>
<polygon fill="midnightblue" stroke="midnightblue" points="1262.62,-150.84 1255.98,-142.58 1256.02,-153.17 1262.62,-150.84"/>
</g>
<!-- Node18 -->
<g id="node18" class="node">
<title>Node18</title>
<g id="a_node18"><a xlink:href="net_2socket_2stream_2_socket_context_8h.html" target="_top" xlink:title=" ">
<polygon fill="white" stroke="black" points="1480.5,-112.5 1480.5,-142.5 1609.5,-142.5 1609.5,-112.5 1480.5,-112.5"/>
<text text-anchor="start" x="1488.5" y="-130.5" font-family="Helvetica,sans-Serif" font-size="10.00">net/socket/stream/Socket</text>
<text text-anchor="middle" x="1545" y="-119.5" font-family="Helvetica,sans-Serif" font-size="10.00">Context.h</text>
</a>
</g>
</g>
<!-- Node16&#45;&gt;Node18 -->
<g id="edge17" class="edge">
<title>Node16&#45;&gt;Node18</title>
<path fill="none" stroke="midnightblue" d="M1332.47,-179.48C1374.71,-169.34 1431.9,-155.63 1476.32,-144.97"/>
<polygon fill="midnightblue" stroke="midnightblue" points="1477.26,-148.35 1486.17,-142.61 1475.63,-141.54 1477.26,-148.35"/>
</g>
<!-- Node19 -->
<g id="node19" class="node">
<title>Node19</title>
<g id="a_node19"><a xlink:href="net_2socket_2stream_2_socket_context_factory_8h.html" target="_top" xlink:title=" ">
<polygon fill="white" stroke="black" points="1333.5,-112.5 1333.5,-142.5 1462.5,-142.5 1462.5,-112.5 1333.5,-112.5"/>
<text text-anchor="start" x="1341.5" y="-130.5" font-family="Helvetica,sans-Serif" font-size="10.00">net/socket/stream/Socket</text>
<text text-anchor="middle" x="1398" y="-119.5" font-family="Helvetica,sans-Serif" font-size="10.00">ContextFactory.h</text>
</a>
</g>
</g>
<!-- Node16&#45;&gt;Node19 -->
<g id="edge18" class="edge">
<title>Node16&#45;&gt;Node19</title>
<path fill="none" stroke="midnightblue" d="M1300.91,-179.4C1318.86,-169.98 1342.67,-157.5 1362.22,-147.26"/>
<polygon fill="midnightblue" stroke="midnightblue" points="1363.91,-150.32 1371.15,-142.58 1360.66,-144.12 1363.91,-150.32"/>
</g>
<!-- Node21 -->
<g id="node21" class="node">
<title>Node21</title>
<g id="a_node21"><a xlink:href="_socket_reader_8h.html" target="_top" xlink:title=" ">
<polygon fill="white" stroke="black" points="1039.5,-112.5 1039.5,-142.5 1168.5,-142.5 1168.5,-112.5 1039.5,-112.5"/>
<text text-anchor="start" x="1047.5" y="-130.5" font-family="Helvetica,sans-Serif" font-size="10.00">net/socket/stream/Socket</text>
<text text-anchor="middle" x="1104" y="-119.5" font-family="Helvetica,sans-Serif" font-size="10.00">Reader.h</text>
</a>
</g>
</g>
<!-- Node20&#45;&gt;Node21 -->
<g id="edge20" class="edge">
<title>Node20&#45;&gt;Node21</title>
<path fill="none" stroke="midnightblue" d="M995.16,-179.4C1015.56,-169.86 1042.7,-157.16 1064.78,-146.84"/>
<polygon fill="midnightblue" stroke="midnightblue" points="1066.32,-149.98 1073.9,-142.58 1063.36,-143.64 1066.32,-149.98"/>
</g>
<!-- Node23 -->
<g id="node23" class="node">
<title>Node23</title>
<g id="a_node23"><a xlink:href="_t_l_s_handshake_8h.html" target="_top" xlink:title=" ">
<polygon fill="white" stroke="black" points="912.5,-112.5 912.5,-142.5 1021.5,-142.5 1021.5,-112.5 912.5,-112.5"/>
<text text-anchor="start" x="920.5" y="-130.5" font-family="Helvetica,sans-Serif" font-size="10.00">net/socket/stream/tls</text>
<text text-anchor="middle" x="967" y="-119.5" font-family="Helvetica,sans-Serif" font-size="10.00">/TLSHandshake.h</text>
</a>
</g>
</g>
<!-- Node20&#45;&gt;Node23 -->
<g id="edge23" class="edge">
<title>Node20&#45;&gt;Node23</title>
<path fill="none" stroke="midnightblue" d="M965.43,-179.4C965.67,-171.64 965.98,-161.81 966.25,-152.86"/>
<polygon fill="midnightblue" stroke="midnightblue" points="969.76,-152.68 966.57,-142.58 962.76,-152.46 969.76,-152.68"/>
</g>
<!-- Node20&#45;&gt;Node25 -->
<g id="edge27" class="edge">
<title>Node20&#45;&gt;Node25</title>
<path fill="none" stroke="midnightblue" d="M910.28,-180.42C866.2,-169.89 804.13,-155.06 757.6,-143.94"/>
<polygon fill="midnightblue" stroke="midnightblue" points="758.17,-140.47 747.63,-141.55 756.54,-147.28 758.17,-140.47"/>
</g>
<!-- Node22 -->
<g id="node22" class="node">
<title>Node22</title>
<g id="a_node22"><a xlink:href="_read_event_receiver_8h.html" target="_top" xlink:title=" ">
<polygon fill="white" stroke="black" points="912,-56.5 912,-75.5 1040,-75.5 1040,-56.5 912,-56.5"/>
<text text-anchor="middle" x="976" y="-63.5" font-family="Helvetica,sans-Serif" font-size="10.00">net/ReadEventReceiver.h</text>
</a>
</g>
</g>
<!-- Node21&#45;&gt;Node22 -->
<g id="edge21" class="edge">
<title>Node21&#45;&gt;Node22</title>
<path fill="none" stroke="midnightblue" d="M1073.67,-112.4C1052.48,-102.55 1024.41,-89.5 1003.8,-79.92"/>
<polygon fill="midnightblue" stroke="midnightblue" points="1005.17,-76.7 994.63,-75.66 1002.22,-83.05 1005.17,-76.7"/>
</g>
<!-- Node22&#45;&gt;Node14 -->
<g id="edge22" class="edge">
<title>Node22&#45;&gt;Node14</title>
<path fill="none" stroke="midnightblue" d="M952.87,-56.44C928.52,-47.44 889.99,-33.19 862.58,-23.05"/>
<polygon fill="midnightblue" stroke="midnightblue" points="863.62,-19.7 853.03,-19.52 861.19,-26.27 863.62,-19.7"/>
</g>
<!-- Node23&#45;&gt;Node22 -->
<g id="edge24" class="edge">
<title>Node23&#45;&gt;Node22</title>
<path fill="none" stroke="midnightblue" d="M969.13,-112.4C970.35,-104.38 971.88,-94.23 973.19,-85.57"/>
<polygon fill="midnightblue" stroke="midnightblue" points="976.66,-86.07 974.69,-75.66 969.73,-85.02 976.66,-86.07"/>
</g>
<!-- Node24 -->
<g id="node24" class="node">
<title>Node24</title>
<g id="a_node24"><a xlink:href="_write_event_receiver_8h.html" target="_top" xlink:title=" ">
<polygon fill="white" stroke="black" points="766,-56.5 766,-75.5 894,-75.5 894,-56.5 766,-56.5"/>
<text text-anchor="middle" x="830" y="-63.5" font-family="Helvetica,sans-Serif" font-size="10.00">net/WriteEventReceiver.h</text>
</a>
</g>
</g>
<!-- Node23&#45;&gt;Node24 -->
<g id="edge25" class="edge">
<title>Node23&#45;&gt;Node24</title>
<path fill="none" stroke="midnightblue" d="M934.53,-112.4C911.65,-102.46 881.27,-89.26 859.16,-79.66"/>
<polygon fill="midnightblue" stroke="midnightblue" points="860.5,-76.43 849.93,-75.66 857.71,-82.85 860.5,-76.43"/>
</g>
<!-- Node24&#45;&gt;Node14 -->
<g id="edge26" class="edge">
<title>Node24&#45;&gt;Node14</title>
<path fill="none" stroke="midnightblue" d="M830,-56.08C830,-49.01 830,-38.86 830,-29.99"/>
<polygon fill="midnightblue" stroke="midnightblue" points="833.5,-29.75 830,-19.75 826.5,-29.75 833.5,-29.75"/>
</g>
<!-- Node26&#45;&gt;Node23 -->
<g id="edge31" class="edge">
<title>Node26&#45;&gt;Node23</title>
<path fill="none" stroke="midnightblue" d="M862.08,-179.4C881.65,-169.9 907.68,-157.28 928.91,-146.98"/>
<polygon fill="midnightblue" stroke="midnightblue" points="930.51,-150.09 937.98,-142.58 927.46,-143.79 930.51,-150.09"/>
</g>
<!-- Node26&#45;&gt;Node25 -->
<g id="edge32" class="edge">
<title>Node26&#45;&gt;Node25</title>
<path fill="none" stroke="midnightblue" d="M802.62,-179.4C782.07,-169.86 754.74,-157.16 732.5,-146.84"/>
<polygon fill="midnightblue" stroke="midnightblue" points="733.86,-143.61 723.32,-142.58 730.91,-149.96 733.86,-143.61"/>
</g>
<!-- Node27 -->
<g id="node27" class="node">
<title>Node27</title>
<g id="a_node27"><a xlink:href="_socket_writer_8h.html" target="_top" xlink:title=" ">
<polygon fill="white" stroke="black" points="765.5,-112.5 765.5,-142.5 894.5,-142.5 894.5,-112.5 765.5,-112.5"/>
<text text-anchor="start" x="773.5" y="-130.5" font-family="Helvetica,sans-Serif" font-size="10.00">net/socket/stream/Socket</text>
<text text-anchor="middle" x="830" y="-119.5" font-family="Helvetica,sans-Serif" font-size="10.00">Writer.h</text>
</a>
</g>
</g>
<!-- Node26&#45;&gt;Node27 -->
<g id="edge29" class="edge">
<title>Node26&#45;&gt;Node27</title>
<path fill="none" stroke="midnightblue" d="M832.35,-179.4C831.99,-171.64 831.54,-161.81 831.12,-152.86"/>
<polygon fill="midnightblue" stroke="midnightblue" points="834.61,-152.4 830.65,-142.58 827.61,-152.73 834.61,-152.4"/>
</g>
<!-- Node27&#45;&gt;Node24 -->
<g id="edge30" class="edge">
<title>Node27&#45;&gt;Node24</title>
<path fill="none" stroke="midnightblue" d="M830,-112.4C830,-104.47 830,-94.46 830,-85.86"/>
<polygon fill="midnightblue" stroke="midnightblue" points="833.5,-85.66 830,-75.66 826.5,-85.66 833.5,-85.66"/>
</g>
<!-- Node28&#45;&gt;Node9 -->
<g id="edge42" class="edge">
<title>Node28&#45;&gt;Node9</title>
<path fill="none" stroke="midnightblue" d="M306.03,-451.99C359.1,-442.66 441.92,-427.71 523.3,-411.1"/>
<polygon fill="midnightblue" stroke="midnightblue" points="524.13,-414.5 533.22,-409.06 522.72,-407.64 524.13,-414.5"/>
</g>
<!-- Node29 -->
<g id="node29" class="node">
<title>Node29</title>
<g id="a_node29"><a xlink:href="socket_2ip_2tcp_2ipv4_2_socket_8h.html" target="_top" xlink:title=" ">
<polygon fill="white" stroke="black" points="9,-313.5 9,-343.5 119,-343.5 119,-313.5 9,-313.5"/>
<text text-anchor="start" x="17" y="-331.5" font-family="Helvetica,sans-Serif" font-size="10.00">net/socket/ip/tcp/ipv4</text>
<text text-anchor="middle" x="64" y="-320.5" font-family="Helvetica,sans-Serif" font-size="10.00">/Socket.h</text>
</a>
</g>
</g>
<!-- Node28&#45;&gt;Node29 -->
<g id="edge35" class="edge">
<title>Node28&#45;&gt;Node29</title>
<path fill="none" stroke="midnightblue" d="M202.46,-447.44C179.12,-439.19 151.59,-427.17 130,-411 108.53,-394.92 89.91,-370.36 77.98,-352.4"/>
<polygon fill="midnightblue" stroke="midnightblue" points="80.72,-350.2 72.36,-343.69 74.84,-353.99 80.72,-350.2"/>
</g>
<!-- Node31 -->
<g id="node31" class="node">
<title>Node31</title>
<g id="a_node31"><a xlink:href="ip_2tcp_2ipv4_2_socket_client_8h.html" target="_top" xlink:title=" ">
<polygon fill="white" stroke="black" points="139,-380.5 139,-410.5 249,-410.5 249,-380.5 139,-380.5"/>
<text text-anchor="start" x="147" y="-398.5" font-family="Helvetica,sans-Serif" font-size="10.00">net/socket/ip/tcp/ipv4</text>
<text text-anchor="middle" x="194" y="-387.5" font-family="Helvetica,sans-Serif" font-size="10.00">/SocketClient.h</text>
</a>
</g>
</g>
<!-- Node28&#45;&gt;Node31 -->
<g id="edge39" class="edge">
<title>Node28&#45;&gt;Node31</title>
<path fill="none" stroke="midnightblue" d="M238.63,-447.4C231.16,-438.88 221.49,-427.85 213.06,-418.23"/>
<polygon fill="midnightblue" stroke="midnightblue" points="215.57,-415.79 206.34,-410.58 210.31,-420.4 215.57,-415.79"/>
</g>
<!-- Node29&#45;&gt;Node5 -->
<g id="edge36" class="edge">
<title>Node29&#45;&gt;Node5</title>
<path fill="none" stroke="midnightblue" d="M119.24,-314.57C162.68,-304.39 224.71,-289.83 279,-277 283.97,-275.83 289.17,-274.59 294.34,-273.37"/>
<polygon fill="midnightblue" stroke="midnightblue" points="295.28,-276.74 304.2,-271.03 293.66,-269.93 295.28,-276.74"/>
</g>
<!-- Node30 -->
<g id="node30" class="node">
<title>Node30</title>
<g id="a_node30"><a xlink:href="ipv4_2_inet_address_8h.html" target="_top" xlink:title=" ">
<polygon fill="white" stroke="black" points="0,-246.5 0,-276.5 110,-276.5 110,-246.5 0,-246.5"/>
<text text-anchor="start" x="8" y="-264.5" font-family="Helvetica,sans-Serif" font-size="10.00">net/socket/ip/address</text>
<text text-anchor="middle" x="55" y="-253.5" font-family="Helvetica,sans-Serif" font-size="10.00">/ipv4/InetAddress.h</text>
</a>
</g>
</g>
<!-- Node29&#45;&gt;Node30 -->
<g id="edge37" class="edge">
<title>Node29&#45;&gt;Node30</title>
<path fill="none" stroke="midnightblue" d="M62.05,-313.4C60.96,-305.56 59.58,-295.6 58.33,-286.57"/>
<polygon fill="midnightblue" stroke="midnightblue" points="61.79,-286 56.95,-276.58 54.85,-286.96 61.79,-286"/>
</g>
<!-- Node30&#45;&gt;Node8 -->
<g id="edge38" class="edge">
<title>Node30&#45;&gt;Node8</title>
<path fill="none" stroke="midnightblue" d="M86.25,-246.4C111.4,-235.04 146.45,-219.22 170.77,-208.24"/>
<polygon fill="midnightblue" stroke="midnightblue" points="172.48,-211.31 180.15,-204.01 169.6,-204.93 172.48,-211.31"/>
</g>
<!-- Node31&#45;&gt;Node29 -->
<g id="edge41" class="edge">
<title>Node31&#45;&gt;Node29</title>
<path fill="none" stroke="midnightblue" d="M165.79,-380.4C146.88,-370.94 121.78,-358.39 101.23,-348.12"/>
<polygon fill="midnightblue" stroke="midnightblue" points="102.66,-344.92 92.15,-343.58 99.53,-351.18 102.66,-344.92"/>
</g>
<!-- Node32 -->
<g id="node32" class="node">
<title>Node32</title>
<g id="a_node32"><a xlink:href="ip_2tcp_2_socket_client_8h.html" target="_top" xlink:title=" ">
<polygon fill="white" stroke="black" points="137.5,-313.5 137.5,-343.5 260.5,-343.5 260.5,-313.5 137.5,-313.5"/>
<text text-anchor="start" x="145.5" y="-331.5" font-family="Helvetica,sans-Serif" font-size="10.00">net/socket/ip/tcp/Socket</text>
<text text-anchor="middle" x="199" y="-320.5" font-family="Helvetica,sans-Serif" font-size="10.00">Client.h</text>
</a>
</g>
</g>
<!-- Node31&#45;&gt;Node32 -->
<g id="edge40" class="edge">
<title>Node31&#45;&gt;Node32</title>
<path fill="none" stroke="midnightblue" d="M195.08,-380.4C195.69,-372.56 196.45,-362.6 197.15,-353.57"/>
<polygon fill="midnightblue" stroke="midnightblue" points="200.64,-353.82 197.92,-343.58 193.66,-353.28 200.64,-353.82"/>
</g>
<!-- Node33&#45;&gt;Node9 -->
<g id="edge51" class="edge">
<title>Node33&#45;&gt;Node9</title>
<path fill="none" stroke="midnightblue" d="M588,-447.4C588,-439.64 588,-429.81 588,-420.86"/>
<polygon fill="midnightblue" stroke="midnightblue" points="591.5,-420.58 588,-410.58 584.5,-420.58 591.5,-420.58"/>
</g>
<!-- Node34 -->
<g id="node34" class="node">
<title>Node34</title>
<g id="a_node34"><a xlink:href="socket_2ip_2tcp_2ipv6_2_socket_8h.html" target="_top" xlink:title=" ">
<polygon fill="white" stroke="black" points="402,-313.5 402,-343.5 512,-343.5 512,-313.5 402,-313.5"/>
<text text-anchor="start" x="410" y="-331.5" font-family="Helvetica,sans-Serif" font-size="10.00">net/socket/ip/tcp/ipv6</text>
<text text-anchor="middle" x="457" y="-320.5" font-family="Helvetica,sans-Serif" font-size="10.00">/Socket.h</text>
</a>
</g>
</g>
<!-- Node33&#45;&gt;Node34 -->
<g id="edge44" class="edge">
<title>Node33&#45;&gt;Node34</title>
<path fill="none" stroke="midnightblue" d="M612.5,-447.41C637.55,-431.2 670.39,-403.76 652,-380 647.86,-374.65 577.37,-357.29 522.32,-344.41"/>
<polygon fill="midnightblue" stroke="midnightblue" points="522.77,-340.92 512.24,-342.06 521.18,-347.74 522.77,-340.92"/>
</g>
<!-- Node36 -->
<g id="node36" class="node">
<title>Node36</title>
<g id="a_node36"><a xlink:href="ip_2tcp_2ipv6_2_socket_client_8h.html" target="_top" xlink:title=" ">
<polygon fill="white" stroke="black" points="405,-380.5 405,-410.5 515,-410.5 515,-380.5 405,-380.5"/>
<text text-anchor="start" x="413" y="-398.5" font-family="Helvetica,sans-Serif" font-size="10.00">net/socket/ip/tcp/ipv6</text>
<text text-anchor="middle" x="460" y="-387.5" font-family="Helvetica,sans-Serif" font-size="10.00">/SocketClient.h</text>
</a>
</g>
</g>
<!-- Node33&#45;&gt;Node36 -->
<g id="edge48" class="edge">
<title>Node33&#45;&gt;Node36</title>
<path fill="none" stroke="midnightblue" d="M560.23,-447.4C541.61,-437.94 516.89,-425.39 496.66,-415.12"/>
<polygon fill="midnightblue" stroke="midnightblue" points="498.22,-411.98 487.72,-410.58 495.05,-418.23 498.22,-411.98"/>
</g>
<!-- Node34&#45;&gt;Node5 -->
<g id="edge45" class="edge">
<title>Node34&#45;&gt;Node5</title>
<path fill="none" stroke="midnightblue" d="M431.61,-313.4C411.63,-302.29 383.96,-286.92 364.27,-275.98"/>
<polygon fill="midnightblue" stroke="midnightblue" points="365.75,-272.8 355.31,-271.01 362.35,-278.92 365.75,-272.8"/>
</g>
<!-- Node35 -->
<g id="node35" class="node">
<title>Node35</title>
<g id="a_node35"><a xlink:href="ipv6_2_inet_address_8h.html" target="_top" xlink:title=" ">
<polygon fill="white" stroke="black" points="410,-246.5 410,-276.5 520,-276.5 520,-246.5 410,-246.5"/>
<text text-anchor="start" x="418" y="-264.5" font-family="Helvetica,sans-Serif" font-size="10.00">net/socket/ip/address</text>
<text text-anchor="middle" x="465" y="-253.5" font-family="Helvetica,sans-Serif" font-size="10.00">/ipv6/InetAddress.h</text>
</a>
</g>
</g>
<!-- Node34&#45;&gt;Node35 -->
<g id="edge46" class="edge">
<title>Node34&#45;&gt;Node35</title>
<path fill="none" stroke="midnightblue" d="M458.74,-313.4C459.7,-305.56 460.93,-295.6 462.04,-286.57"/>
<polygon fill="midnightblue" stroke="midnightblue" points="465.52,-286.93 463.27,-276.58 458.57,-286.07 465.52,-286.93"/>
</g>
<!-- Node35&#45;&gt;Node8 -->
<g id="edge47" class="edge">
<title>Node35&#45;&gt;Node8</title>
<path fill="none" stroke="midnightblue" d="M409.88,-247.03C360.79,-235.04 289.84,-217.7 244.07,-206.51"/>
<polygon fill="midnightblue" stroke="midnightblue" points="244.68,-203.06 234.14,-204.09 243.02,-209.86 244.68,-203.06"/>
</g>
<!-- Node36&#45;&gt;Node32 -->
<g id="edge49" class="edge">
<title>Node36&#45;&gt;Node32</title>
<path fill="none" stroke="midnightblue" d="M404.97,-380.79C364.17,-370.64 308.39,-356.74 265.17,-345.98"/>
<polygon fill="midnightblue" stroke="midnightblue" points="265.86,-342.54 255.31,-343.52 264.17,-349.34 265.86,-342.54"/>
</g>
<!-- Node36&#45;&gt;Node34 -->
<g id="edge50" class="edge">
<title>Node36&#45;&gt;Node34</title>
<path fill="none" stroke="midnightblue" d="M459.35,-380.4C458.99,-372.64 458.54,-362.81 458.12,-353.86"/>
<polygon fill="midnightblue" stroke="midnightblue" points="461.61,-353.4 457.65,-343.58 454.61,-353.73 461.61,-353.4"/>
</g>
<!-- Node38 -->
<g id="node38" class="node">
<title>Node38</title>
<g id="a_node38"><a xlink:href="client_2_socket_context_8hpp.html" target="_top" xlink:title=" ">
<polygon fill="white" stroke="black" points="1475.5,-319 1475.5,-338 1642.5,-338 1642.5,-319 1475.5,-319"/>
<text text-anchor="middle" x="1559" y="-326" font-family="Helvetica,sans-Serif" font-size="10.00">web/http/client/SocketContext.hpp</text>
</a>
</g>
</g>
<!-- Node37&#45;&gt;Node38 -->
<g id="edge53" class="edge">
<title>Node37&#45;&gt;Node38</title>
<path fill="none" stroke="midnightblue" d="M1405.5,-385.87C1436.4,-374.52 1490.86,-354.52 1525.91,-341.65"/>
<polygon fill="midnightblue" stroke="midnightblue" points="1527.5,-344.8 1535.68,-338.06 1525.09,-338.23 1527.5,-344.8"/>
</g>
<!-- Node44 -->
<g id="node44" class="node">
<title>Node44</title>
<g id="a_node44"><a xlink:href="web_2http_2client_2_socket_context_factory_8h.html" target="_top" xlink:title=" ">
<polygon fill="white" stroke="black" points="1307.5,-313.5 1307.5,-343.5 1456.5,-343.5 1456.5,-313.5 1307.5,-313.5"/>
<text text-anchor="start" x="1315.5" y="-331.5" font-family="Helvetica,sans-Serif" font-size="10.00">web/http/client/SocketContext</text>
<text text-anchor="middle" x="1382" y="-320.5" font-family="Helvetica,sans-Serif" font-size="10.00">Factory.h</text>
</a>
</g>
</g>
<!-- Node37&#45;&gt;Node44 -->
<g id="edge60" class="edge">
<title>Node37&#45;&gt;Node44</title>
<path fill="none" stroke="midnightblue" d="M1382,-385.73C1382,-377.54 1382,-364.92 1382,-353.71"/>
<polygon fill="midnightblue" stroke="midnightblue" points="1385.5,-353.59 1382,-343.59 1378.5,-353.59 1385.5,-353.59"/>
</g>
<!-- Node39 -->
<g id="node39" class="node">
<title>Node39</title>
<g id="a_node39"><a xlink:href="web_2http_2client_2_socket_context_8h.html" target="_top" xlink:title=" ">
<polygon fill="white" stroke="black" points="1481.5,-252 1481.5,-271 1638.5,-271 1638.5,-252 1481.5,-252"/>
<text text-anchor="middle" x="1560" y="-259" font-family="Helvetica,sans-Serif" font-size="10.00">web/http/client/SocketContext.h</text>
</a>
</g>
</g>
<!-- Node38&#45;&gt;Node39 -->
<g id="edge54" class="edge">
<title>Node38&#45;&gt;Node39</title>
<path fill="none" stroke="midnightblue" d="M1559.13,-318.73C1559.28,-309.18 1559.52,-293.62 1559.71,-281.28"/>
<polygon fill="midnightblue" stroke="midnightblue" points="1563.21,-281.18 1559.87,-271.13 1556.21,-281.07 1563.21,-281.18"/>
</g>
<!-- Node40 -->
<g id="node40" class="node">
<title>Node40</title>
<g id="a_node40"><a xlink:href="web_2http_2_socket_context_8h.html" target="_top" xlink:title=" ">
<polygon fill="white" stroke="black" points="1479.5,-185 1479.5,-204 1610.5,-204 1610.5,-185 1479.5,-185"/>
<text text-anchor="middle" x="1545" y="-192" font-family="Helvetica,sans-Serif" font-size="10.00">web/http/SocketContext.h</text>
</a>
</g>
</g>
<!-- Node39&#45;&gt;Node40 -->
<g id="edge55" class="edge">
<title>Node39&#45;&gt;Node40</title>
<path fill="none" stroke="midnightblue" d="M1557.98,-251.73C1555.75,-242.09 1552.11,-226.3 1549.25,-213.91"/>
<polygon fill="midnightblue" stroke="midnightblue" points="1552.65,-213.08 1546.99,-204.13 1545.83,-214.66 1552.65,-213.08"/>
</g>
<!-- Node41 -->
<g id="node41" class="node">
<title>Node41</title>
<g id="a_node41"><a xlink:href="_response_parser_8h.html" target="_top" xlink:title=" ">
<polygon fill="white" stroke="black" points="1629,-179.5 1629,-209.5 1757,-209.5 1757,-179.5 1629,-179.5"/>
<text text-anchor="start" x="1637" y="-197.5" font-family="Helvetica,sans-Serif" font-size="10.00">web/http/client/Response</text>
<text text-anchor="middle" x="1693" y="-186.5" font-family="Helvetica,sans-Serif" font-size="10.00">Parser.h</text>
</a>
</g>
</g>
<!-- Node39&#45;&gt;Node41 -->
<g id="edge57" class="edge">
<title>Node39&#45;&gt;Node41</title>
<path fill="none" stroke="midnightblue" d="M1577.66,-251.87C1597.36,-242.24 1629.8,-226.39 1655.27,-213.94"/>
<polygon fill="midnightblue" stroke="midnightblue" points="1656.85,-217.06 1664.3,-209.53 1653.78,-210.77 1656.85,-217.06"/>
</g>
<!-- Node40&#45;&gt;Node18 -->
<g id="edge56" class="edge">
<title>Node40&#45;&gt;Node18</title>
<path fill="none" stroke="midnightblue" d="M1545,-184.73C1545,-176.54 1545,-163.92 1545,-152.71"/>
<polygon fill="midnightblue" stroke="midnightblue" points="1548.5,-152.59 1545,-142.59 1541.5,-152.59 1548.5,-152.59"/>
</g>
<!-- Node42 -->
<g id="node42" class="node">
<title>Node42</title>
<g id="a_node42"><a xlink:href="_cookie_options_8h.html" target="_top" xlink:title=" ">
<polygon fill="white" stroke="black" points="1628,-118 1628,-137 1758,-137 1758,-118 1628,-118"/>
<text text-anchor="middle" x="1693" y="-125" font-family="Helvetica,sans-Serif" font-size="10.00">web/http/CookieOptions.h</text>
</a>
</g>
</g>
<!-- Node41&#45;&gt;Node42 -->
<g id="edge58" class="edge">
<title>Node41&#45;&gt;Node42</title>
<path fill="none" stroke="midnightblue" d="M1693,-179.4C1693,-170.06 1693,-157.71 1693,-147.52"/>
<polygon fill="midnightblue" stroke="midnightblue" points="1696.5,-147.19 1693,-137.19 1689.5,-147.19 1696.5,-147.19"/>
</g>
<!-- Node43 -->
<g id="node43" class="node">
<title>Node43</title>
<g id="a_node43"><a xlink:href="_parser_8h.html" target="_top" xlink:title=" ">
<polygon fill="white" stroke="black" points="1776.5,-118 1776.5,-137 1869.5,-137 1869.5,-118 1776.5,-118"/>
<text text-anchor="middle" x="1823" y="-125" font-family="Helvetica,sans-Serif" font-size="10.00">web/http/Parser.h</text>
</a>
</g>
</g>
<!-- Node41&#45;&gt;Node43 -->
<g id="edge59" class="edge">
<title>Node41&#45;&gt;Node43</title>
<path fill="none" stroke="midnightblue" d="M1721.21,-179.4C1743.72,-168.14 1775,-152.5 1796.92,-141.54"/>
<polygon fill="midnightblue" stroke="midnightblue" points="1798.61,-144.61 1805.99,-137.01 1795.48,-138.35 1798.61,-144.61"/>
</g>
<!-- Node44&#45;&gt;Node39 -->
<g id="edge63" class="edge">
<title>Node44&#45;&gt;Node39</title>
<path fill="none" stroke="midnightblue" d="M1420.62,-313.4C1452.41,-301.79 1496.98,-285.51 1527.09,-274.52"/>
<polygon fill="midnightblue" stroke="midnightblue" points="1528.51,-277.72 1536.7,-271.01 1526.11,-271.15 1528.51,-277.72"/>
</g>
<!-- Node45 -->
<g id="node45" class="node">
<title>Node45</title>
<g id="a_node45"><a xlink:href="web_2http_2_socket_context_factory_8h.html" target="_top" xlink:title=" ">
<polygon fill="white" stroke="black" points="1301,-252 1301,-271 1463,-271 1463,-252 1301,-252"/>
<text text-anchor="middle" x="1382" y="-259" font-family="Helvetica,sans-Serif" font-size="10.00">web/http/SocketContextFactory.h</text>
</a>
</g>
</g>
<!-- Node44&#45;&gt;Node45 -->
<g id="edge61" class="edge">
<title>Node44&#45;&gt;Node45</title>
<path fill="none" stroke="midnightblue" d="M1382,-313.4C1382,-304.06 1382,-291.71 1382,-281.52"/>
<polygon fill="midnightblue" stroke="midnightblue" points="1385.5,-281.19 1382,-271.19 1378.5,-281.19 1385.5,-281.19"/>
</g>
<!-- Node45&#45;&gt;Node19 -->
<g id="edge62" class="edge">
<title>Node45&#45;&gt;Node19</title>
<path fill="none" stroke="midnightblue" d="M1383.05,-251.84C1385.45,-232.02 1391.42,-182.77 1395.05,-152.84"/>
<polygon fill="midnightblue" stroke="midnightblue" points="1398.54,-153.13 1396.27,-142.78 1391.59,-152.29 1398.54,-153.13"/>
</g>
</g>
</svg>
