<?xml version="1.0" encoding="UTF-8" standalone="no"?>
<!DOCTYPE svg PUBLIC "-//W3C//DTD SVG 1.1//EN"
 "http://www.w3.org/Graphics/SVG/1.1/DTD/svg11.dtd">
<!-- Generated by graphviz version 2.43.0 (0)
 -->
<!-- Title: web/http/tls/in6/Client.h Pages: 1 -->
<svg width="2091pt" height="542pt"
 viewBox="0.00 0.00 2091.00 542.00" xmlns="http://www.w3.org/2000/svg" xmlns:xlink="http://www.w3.org/1999/xlink">
<g id="graph0" class="graph" transform="scale(1 1) rotate(0) translate(4 538)">
<title>web/http/tls/in6/Client.h</title>
<polygon fill="white" stroke="transparent" points="-4,4 -4,-538 2087,-538 2087,4 -4,4"/>
<!-- Node1 -->
<g id="node1" class="node">
<title>Node1</title>
<g id="a_node1"><a xlink:title=" ">
<polygon fill="#bfbfbf" stroke="black" points="1198,-514.5 1198,-533.5 1331,-533.5 1331,-514.5 1198,-514.5"/>
<text text-anchor="middle" x="1264.5" y="-521.5" font-family="Helvetica,sans-Serif" font-size="10.00">web/http/tls/in6/Client.h</text>
</a>
</g>
</g>
<!-- Node2 -->
<g id="node2" class="node">
<title>Node2</title>
<g id="a_node2"><a xlink:href="net_2in6_2stream_2tls_2_socket_client_8h.html" target="_top" xlink:title=" ">
<polygon fill="white" stroke="black" points="1146,-447.5 1146,-477.5 1249,-477.5 1249,-447.5 1146,-447.5"/>
<text text-anchor="start" x="1154" y="-465.5" font-family="Helvetica,sans-Serif" font-size="10.00">net/in6/stream/tls</text>
<text text-anchor="middle" x="1197.5" y="-454.5" font-family="Helvetica,sans-Serif" font-size="10.00">/SocketClient.h</text>
</a>
</g>
</g>
<!-- Node1&#45;&gt;Node2 -->
<g id="edge1" class="edge">
<title>Node1&#45;&gt;Node2</title>
<path fill="none" stroke="midnightblue" d="M1254.9,-514.48C1246.08,-506.64 1232.65,-494.71 1221,-484.37"/>
<polygon fill="midnightblue" stroke="midnightblue" points="1223.09,-481.55 1213.29,-477.52 1218.44,-486.78 1223.09,-481.55"/>
</g>
<!-- Node35 -->
<g id="node35" class="node">
<title>Node35</title>
<g id="a_node35"><a xlink:href="client_2_client_8h.html" target="_top" xlink:title=" ">
<polygon fill="white" stroke="black" points="1477.5,-453 1477.5,-472 1607.5,-472 1607.5,-453 1477.5,-453"/>
<text text-anchor="middle" x="1542.5" y="-460" font-family="Helvetica,sans-Serif" font-size="10.00">web/http/client/Client.h</text>
</a>
</g>
</g>
<!-- Node1&#45;&gt;Node35 -->
<g id="edge43" class="edge">
<title>Node1&#45;&gt;Node35</title>
<path fill="none" stroke="midnightblue" d="M1304.33,-514.48C1353.98,-503.85 1438.85,-485.68 1492.73,-474.15"/>
<polygon fill="midnightblue" stroke="midnightblue" points="1493.7,-477.52 1502.74,-472.01 1492.23,-470.68 1493.7,-477.52"/>
</g>
<!-- Node3 -->
<g id="node3" class="node">
<title>Node3</title>
<g id="a_node3"><a xlink:href="core_2socket_2stream_2tls_2_socket_client_8h.html" target="_top" xlink:title=" ">
<polygon fill="white" stroke="black" points="635.5,-380.5 635.5,-410.5 745.5,-410.5 745.5,-380.5 635.5,-380.5"/>
<text text-anchor="start" x="643.5" y="-398.5" font-family="Helvetica,sans-Serif" font-size="10.00">core/socket/stream</text>
<text text-anchor="middle" x="690.5" y="-387.5" font-family="Helvetica,sans-Serif" font-size="10.00">/tls/SocketClient.h</text>
</a>
</g>
</g>
<!-- Node2&#45;&gt;Node3 -->
<g id="edge2" class="edge">
<title>Node2&#45;&gt;Node3</title>
<path fill="none" stroke="midnightblue" d="M1145.62,-454.85C1052.66,-442.93 857.89,-417.96 755.92,-404.89"/>
<polygon fill="midnightblue" stroke="midnightblue" points="756.12,-401.38 745.75,-403.58 755.23,-408.33 756.12,-401.38"/>
</g>
<!-- Node20 -->
<g id="node20" class="node">
<title>Node20</title>
<g id="a_node20"><a xlink:href="net_2in6_2stream_2_client_socket_8h.html" target="_top" xlink:title=" ">
<polygon fill="white" stroke="black" points="1008,-386 1008,-405 1169,-405 1169,-386 1008,-386"/>
<text text-anchor="middle" x="1088.5" y="-393" font-family="Helvetica,sans-Serif" font-size="10.00">net/in6/stream/ClientSocket.h</text>
</a>
</g>
</g>
<!-- Node2&#45;&gt;Node20 -->
<g id="edge26" class="edge">
<title>Node2&#45;&gt;Node20</title>
<path fill="none" stroke="midnightblue" d="M1173.85,-447.4C1155.32,-436.34 1129.69,-421.06 1111.36,-410.13"/>
<polygon fill="midnightblue" stroke="midnightblue" points="1113.15,-407.12 1102.77,-405.01 1109.56,-413.13 1113.15,-407.12"/>
</g>
<!-- Node27 -->
<g id="node27" class="node">
<title>Node27</title>
<g id="a_node27"><a xlink:href="in6_2stream_2tls_2_client_config_8h.html" target="_top" xlink:title=" ">
<polygon fill="white" stroke="black" points="1220,-380.5 1220,-410.5 1323,-410.5 1323,-380.5 1220,-380.5"/>
<text text-anchor="start" x="1228" y="-398.5" font-family="Helvetica,sans-Serif" font-size="10.00">net/in6/stream/tls</text>
<text text-anchor="middle" x="1271.5" y="-387.5" font-family="Helvetica,sans-Serif" font-size="10.00">/ClientConfig.h</text>
</a>
</g>
</g>
<!-- Node2&#45;&gt;Node27 -->
<g id="edge33" class="edge">
<title>Node2&#45;&gt;Node27</title>
<path fill="none" stroke="midnightblue" d="M1213.56,-447.4C1223.54,-438.62 1236.57,-427.18 1247.74,-417.37"/>
<polygon fill="midnightblue" stroke="midnightblue" points="1250.27,-419.81 1255.47,-410.58 1245.65,-414.55 1250.27,-419.81"/>
</g>
<!-- Node4 -->
<g id="node4" class="node">
<title>Node4</title>
<g id="a_node4"><a xlink:href="core_2socket_2stream_2_socket_client_8h.html" target="_top" xlink:title=" ">
<polygon fill="white" stroke="black" points="499.5,-313.5 499.5,-343.5 609.5,-343.5 609.5,-313.5 499.5,-313.5"/>
<text text-anchor="start" x="507.5" y="-331.5" font-family="Helvetica,sans-Serif" font-size="10.00">core/socket/stream</text>
<text text-anchor="middle" x="554.5" y="-320.5" font-family="Helvetica,sans-Serif" font-size="10.00">/SocketClient.h</text>
</a>
</g>
</g>
<!-- Node3&#45;&gt;Node4 -->
<g id="edge3" class="edge">
<title>Node3&#45;&gt;Node4</title>
<path fill="none" stroke="midnightblue" d="M660.99,-380.4C641.12,-370.9 614.71,-358.28 593.16,-347.98"/>
<polygon fill="midnightblue" stroke="midnightblue" points="594.48,-344.73 583.95,-343.58 591.47,-351.05 594.48,-344.73"/>
</g>
<!-- Node5 -->
<g id="node5" class="node">
<title>Node5</title>
<g id="a_node5"><a xlink:href="tls_2_socket_connector_8h.html" target="_top" xlink:title=" ">
<polygon fill="white" stroke="black" points="628,-313.5 628,-343.5 753,-343.5 753,-313.5 628,-313.5"/>
<text text-anchor="start" x="636" y="-331.5" font-family="Helvetica,sans-Serif" font-size="10.00">core/socket/stream</text>
<text text-anchor="middle" x="690.5" y="-320.5" font-family="Helvetica,sans-Serif" font-size="10.00">/tls/SocketConnector.h</text>
</a>
</g>
</g>
<!-- Node3&#45;&gt;Node5 -->
<g id="edge4" class="edge">
<title>Node3&#45;&gt;Node5</title>
<path fill="none" stroke="midnightblue" d="M690.5,-380.4C690.5,-372.64 690.5,-362.81 690.5,-353.86"/>
<polygon fill="midnightblue" stroke="midnightblue" points="694,-353.58 690.5,-343.58 687,-353.58 694,-353.58"/>
</g>
<!-- Node6 -->
<g id="node6" class="node">
<title>Node6</title>
<g id="a_node6"><a xlink:href="_socket_connector_8h.html" target="_top" xlink:title=" ">
<polygon fill="white" stroke="black" points="635.5,-246.5 635.5,-276.5 745.5,-276.5 745.5,-246.5 635.5,-246.5"/>
<text text-anchor="start" x="643.5" y="-264.5" font-family="Helvetica,sans-Serif" font-size="10.00">core/socket/stream</text>
<text text-anchor="middle" x="690.5" y="-253.5" font-family="Helvetica,sans-Serif" font-size="10.00">/SocketConnector.h</text>
</a>
</g>
</g>
<!-- Node5&#45;&gt;Node6 -->
<g id="edge5" class="edge">
<title>Node5&#45;&gt;Node6</title>
<path fill="none" stroke="midnightblue" d="M690.5,-313.4C690.5,-305.64 690.5,-295.81 690.5,-286.86"/>
<polygon fill="midnightblue" stroke="midnightblue" points="694,-286.58 690.5,-276.58 687,-286.58 694,-286.58"/>
</g>
<!-- Node9 -->
<g id="node9" class="node">
<title>Node9</title>
<g id="a_node9"><a xlink:href="stream_2tls_2_socket_connection_8h.html" target="_top" xlink:title=" ">
<polygon fill="white" stroke="black" points="417,-246.5 417,-276.5 548,-276.5 548,-246.5 417,-246.5"/>
<text text-anchor="start" x="425" y="-264.5" font-family="Helvetica,sans-Serif" font-size="10.00">core/socket/stream</text>
<text text-anchor="middle" x="482.5" y="-253.5" font-family="Helvetica,sans-Serif" font-size="10.00">/tls/SocketConnection.h</text>
</a>
</g>
</g>
<!-- Node5&#45;&gt;Node9 -->
<g id="edge8" class="edge">
<title>Node5&#45;&gt;Node9</title>
<path fill="none" stroke="midnightblue" d="M645.62,-313.48C613.88,-303.56 571.14,-290.2 537.37,-279.65"/>
<polygon fill="midnightblue" stroke="midnightblue" points="538.24,-276.25 527.65,-276.61 536.16,-282.93 538.24,-276.25"/>
</g>
<!-- Node7 -->
<g id="node7" class="node">
<title>Node7</title>
<g id="a_node7"><a xlink:href="_connect_event_receiver_8h.html" target="_top" xlink:title=" ">
<polygon fill="white" stroke="black" points="633.5,-56.5 633.5,-75.5 793.5,-75.5 793.5,-56.5 633.5,-56.5"/>
<text text-anchor="middle" x="713.5" y="-63.5" font-family="Helvetica,sans-Serif" font-size="10.00">core/ConnectEventReceiver.h</text>
</a>
</g>
</g>
<!-- Node6&#45;&gt;Node7 -->
<g id="edge6" class="edge">
<title>Node6&#45;&gt;Node7</title>
<path fill="none" stroke="midnightblue" d="M692.19,-246.27C696.27,-211.94 706.66,-124.57 711.25,-85.9"/>
<polygon fill="midnightblue" stroke="midnightblue" points="714.78,-85.92 712.48,-75.58 707.82,-85.09 714.78,-85.92"/>
</g>
<!-- Node8 -->
<g id="node8" class="node">
<title>Node8</title>
<g id="a_node8"><a xlink:href="_event_receiver_8h.html" target="_top" xlink:title=" ">
<polygon fill="white" stroke="black" points="479.5,-0.5 479.5,-19.5 599.5,-19.5 599.5,-0.5 479.5,-0.5"/>
<text text-anchor="middle" x="539.5" y="-7.5" font-family="Helvetica,sans-Serif" font-size="10.00">core/EventReceiver.h</text>
</a>
</g>
</g>
<!-- Node7&#45;&gt;Node8 -->
<g id="edge7" class="edge">
<title>Node7&#45;&gt;Node8</title>
<path fill="none" stroke="midnightblue" d="M685.93,-56.44C656.4,-47.28 609.38,-32.69 576.62,-22.52"/>
<polygon fill="midnightblue" stroke="midnightblue" points="577.53,-19.14 566.94,-19.52 575.46,-25.82 577.53,-19.14"/>
</g>
<!-- Node10 -->
<g id="node10" class="node">
<title>Node10</title>
<g id="a_node10"><a xlink:href="stream_2_socket_connection_8h.html" target="_top" xlink:title=" ">
<polygon fill="white" stroke="black" points="107.5,-179.5 107.5,-209.5 223.5,-209.5 223.5,-179.5 107.5,-179.5"/>
<text text-anchor="start" x="115.5" y="-197.5" font-family="Helvetica,sans-Serif" font-size="10.00">core/socket/stream</text>
<text text-anchor="middle" x="165.5" y="-186.5" font-family="Helvetica,sans-Serif" font-size="10.00">/SocketConnection.h</text>
</a>
</g>
</g>
<!-- Node9&#45;&gt;Node10 -->
<g id="edge9" class="edge">
<title>Node9&#45;&gt;Node10</title>
<path fill="none" stroke="midnightblue" d="M416.82,-247.03C363.21,-236.04 287.73,-220.56 233.5,-209.44"/>
<polygon fill="midnightblue" stroke="midnightblue" points="234.14,-206 223.64,-207.42 232.73,-212.86 234.14,-206"/>
</g>
<!-- Node12 -->
<g id="node12" class="node">
<title>Node12</title>
<g id="a_node12"><a xlink:href="tls_2_socket_reader_8h.html" target="_top" xlink:title=" ">
<polygon fill="white" stroke="black" points="320.5,-179.5 320.5,-209.5 430.5,-209.5 430.5,-179.5 320.5,-179.5"/>
<text text-anchor="start" x="328.5" y="-197.5" font-family="Helvetica,sans-Serif" font-size="10.00">core/socket/stream</text>
<text text-anchor="middle" x="375.5" y="-186.5" font-family="Helvetica,sans-Serif" font-size="10.00">/tls/SocketReader.h</text>
</a>
</g>
</g>
<!-- Node9&#45;&gt;Node12 -->
<g id="edge11" class="edge">
<title>Node9&#45;&gt;Node12</title>
<path fill="none" stroke="midnightblue" d="M459.28,-246.4C444.14,-237.2 424.17,-225.07 407.53,-214.95"/>
<polygon fill="midnightblue" stroke="midnightblue" points="409.04,-211.78 398.67,-209.58 405.4,-217.76 409.04,-211.78"/>
</g>
<!-- Node17 -->
<g id="node17" class="node">
<title>Node17</title>
<g id="a_node17"><a xlink:href="tls_2_socket_writer_8h.html" target="_top" xlink:title=" ">
<polygon fill="white" stroke="black" points="510.5,-179.5 510.5,-209.5 620.5,-209.5 620.5,-179.5 510.5,-179.5"/>
<text text-anchor="start" x="518.5" y="-197.5" font-family="Helvetica,sans-Serif" font-size="10.00">core/socket/stream</text>
<text text-anchor="middle" x="565.5" y="-186.5" font-family="Helvetica,sans-Serif" font-size="10.00">/tls/SocketWriter.h</text>
</a>
</g>
</g>
<!-- Node9&#45;&gt;Node17 -->
<g id="edge19" class="edge">
<title>Node9&#45;&gt;Node17</title>
<path fill="none" stroke="midnightblue" d="M500.51,-246.4C511.93,-237.45 526.89,-225.74 539.58,-215.8"/>
<polygon fill="midnightblue" stroke="midnightblue" points="541.81,-218.5 547.53,-209.58 537.49,-212.99 541.81,-218.5"/>
</g>
<!-- Node19 -->
<g id="node19" class="node">
<title>Node19</title>
<g id="a_node19"><a xlink:href="_t_l_s_shutdown_8h.html" target="_top" xlink:title=" ">
<polygon fill="white" stroke="black" points="451.5,-112.5 451.5,-142.5 561.5,-142.5 561.5,-112.5 451.5,-112.5"/>
<text text-anchor="start" x="459.5" y="-130.5" font-family="Helvetica,sans-Serif" font-size="10.00">core/socket/stream</text>
<text text-anchor="middle" x="506.5" y="-119.5" font-family="Helvetica,sans-Serif" font-size="10.00">/tls/TLSShutdown.h</text>
</a>
</g>
</g>
<!-- Node9&#45;&gt;Node19 -->
<g id="edge23" class="edge">
<title>Node9&#45;&gt;Node19</title>
<path fill="none" stroke="midnightblue" d="M485.07,-246.37C489.15,-223.94 497.15,-179.92 502.14,-152.49"/>
<polygon fill="midnightblue" stroke="midnightblue" points="505.6,-152.99 503.95,-142.52 498.72,-151.74 505.6,-152.99"/>
</g>
<!-- Node11 -->
<g id="node11" class="node">
<title>Node11</title>
<g id="a_node11"><a xlink:href="_socket_connection_8h.html" target="_top" xlink:title=" ">
<polygon fill="white" stroke="black" points="0,-118 0,-137 171,-137 171,-118 0,-118"/>
<text text-anchor="middle" x="85.5" y="-125" font-family="Helvetica,sans-Serif" font-size="10.00">core/socket/SocketConnection.h</text>
</a>
</g>
</g>
<!-- Node10&#45;&gt;Node11 -->
<g id="edge10" class="edge">
<title>Node10&#45;&gt;Node11</title>
<path fill="none" stroke="midnightblue" d="M148.14,-179.4C135.17,-168.86 117.47,-154.48 104.19,-143.69"/>
<polygon fill="midnightblue" stroke="midnightblue" points="106.17,-140.78 96.2,-137.19 101.76,-146.22 106.17,-140.78"/>
</g>
<!-- Node13 -->
<g id="node13" class="node">
<title>Node13</title>
<g id="a_node13"><a xlink:href="_socket_reader_8h.html" target="_top" xlink:title=" ">
<polygon fill="white" stroke="black" points="189.5,-112.5 189.5,-142.5 299.5,-142.5 299.5,-112.5 189.5,-112.5"/>
<text text-anchor="start" x="197.5" y="-130.5" font-family="Helvetica,sans-Serif" font-size="10.00">core/socket/stream</text>
<text text-anchor="middle" x="244.5" y="-119.5" font-family="Helvetica,sans-Serif" font-size="10.00">/SocketReader.h</text>
</a>
</g>
</g>
<!-- Node12&#45;&gt;Node13 -->
<g id="edge12" class="edge">
<title>Node12&#45;&gt;Node13</title>
<path fill="none" stroke="midnightblue" d="M347.07,-179.4C328.02,-169.94 302.72,-157.39 282.02,-147.12"/>
<polygon fill="midnightblue" stroke="midnightblue" points="283.38,-143.89 272.87,-142.58 280.27,-150.16 283.38,-143.89"/>
</g>
<!-- Node15 -->
<g id="node15" class="node">
<title>Node15</title>
<g id="a_node15"><a xlink:href="_t_l_s_handshake_8h.html" target="_top" xlink:title=" ">
<polygon fill="white" stroke="black" points="318,-112.5 318,-142.5 433,-142.5 433,-112.5 318,-112.5"/>
<text text-anchor="start" x="326" y="-130.5" font-family="Helvetica,sans-Serif" font-size="10.00">core/socket/stream</text>
<text text-anchor="middle" x="375.5" y="-119.5" font-family="Helvetica,sans-Serif" font-size="10.00">/tls/TLSHandshake.h</text>
</a>
</g>
</g>
<!-- Node12&#45;&gt;Node15 -->
<g id="edge15" class="edge">
<title>Node12&#45;&gt;Node15</title>
<path fill="none" stroke="midnightblue" d="M375.5,-179.4C375.5,-171.64 375.5,-161.81 375.5,-152.86"/>
<polygon fill="midnightblue" stroke="midnightblue" points="379,-152.58 375.5,-142.58 372,-152.58 379,-152.58"/>
</g>
<!-- Node14 -->
<g id="node14" class="node">
<title>Node14</title>
<g id="a_node14"><a xlink:href="_read_event_receiver_8h.html" target="_top" xlink:title=" ">
<polygon fill="white" stroke="black" points="303,-56.5 303,-75.5 448,-75.5 448,-56.5 303,-56.5"/>
<text text-anchor="middle" x="375.5" y="-63.5" font-family="Helvetica,sans-Serif" font-size="10.00">core/ReadEventReceiver.h</text>
</a>
</g>
</g>
<!-- Node13&#45;&gt;Node14 -->
<g id="edge13" class="edge">
<title>Node13&#45;&gt;Node14</title>
<path fill="none" stroke="midnightblue" d="M275.55,-112.4C297.23,-102.55 325.96,-89.5 347.05,-79.92"/>
<polygon fill="midnightblue" stroke="midnightblue" points="348.78,-82.98 356.44,-75.66 345.89,-76.61 348.78,-82.98"/>
</g>
<!-- Node14&#45;&gt;Node8 -->
<g id="edge14" class="edge">
<title>Node14&#45;&gt;Node8</title>
<path fill="none" stroke="midnightblue" d="M401.49,-56.44C429.2,-47.32 473.25,-32.81 504.12,-22.65"/>
<polygon fill="midnightblue" stroke="midnightblue" points="505.23,-25.97 513.64,-19.52 503.04,-19.32 505.23,-25.97"/>
</g>
<!-- Node15&#45;&gt;Node14 -->
<g id="edge16" class="edge">
<title>Node15&#45;&gt;Node14</title>
<path fill="none" stroke="midnightblue" d="M375.5,-112.4C375.5,-104.47 375.5,-94.46 375.5,-85.86"/>
<polygon fill="midnightblue" stroke="midnightblue" points="379,-85.66 375.5,-75.66 372,-85.66 379,-85.66"/>
</g>
<!-- Node16 -->
<g id="node16" class="node">
<title>Node16</title>
<g id="a_node16"><a xlink:href="_write_event_receiver_8h.html" target="_top" xlink:title=" ">
<polygon fill="white" stroke="black" points="466.5,-56.5 466.5,-75.5 612.5,-75.5 612.5,-56.5 466.5,-56.5"/>
<text text-anchor="middle" x="539.5" y="-63.5" font-family="Helvetica,sans-Serif" font-size="10.00">core/WriteEventReceiver.h</text>
</a>
</g>
</g>
<!-- Node15&#45;&gt;Node16 -->
<g id="edge17" class="edge">
<title>Node15&#45;&gt;Node16</title>
<path fill="none" stroke="midnightblue" d="M414.37,-112.4C442.25,-102.28 479.44,-88.79 506.01,-79.15"/>
<polygon fill="midnightblue" stroke="midnightblue" points="507.43,-82.36 515.64,-75.66 505.04,-75.78 507.43,-82.36"/>
</g>
<!-- Node16&#45;&gt;Node8 -->
<g id="edge18" class="edge">
<title>Node16&#45;&gt;Node8</title>
<path fill="none" stroke="midnightblue" d="M539.5,-56.08C539.5,-49.01 539.5,-38.86 539.5,-29.99"/>
<polygon fill="midnightblue" stroke="midnightblue" points="543,-29.75 539.5,-19.75 536,-29.75 543,-29.75"/>
</g>
<!-- Node17&#45;&gt;Node15 -->
<g id="edge22" class="edge">
<title>Node17&#45;&gt;Node15</title>
<path fill="none" stroke="midnightblue" d="M524.27,-179.4C495.52,-169.56 456.96,-156.37 426.3,-145.88"/>
<polygon fill="midnightblue" stroke="midnightblue" points="427.24,-142.5 416.65,-142.58 424.98,-149.13 427.24,-142.5"/>
</g>
<!-- Node18 -->
<g id="node18" class="node">
<title>Node18</title>
<g id="a_node18"><a xlink:href="_socket_writer_8h.html" target="_top" xlink:title=" ">
<polygon fill="white" stroke="black" points="579.5,-112.5 579.5,-142.5 689.5,-142.5 689.5,-112.5 579.5,-112.5"/>
<text text-anchor="start" x="587.5" y="-130.5" font-family="Helvetica,sans-Serif" font-size="10.00">core/socket/stream</text>
<text text-anchor="middle" x="634.5" y="-119.5" font-family="Helvetica,sans-Serif" font-size="10.00">/SocketWriter.h</text>
</a>
</g>
</g>
<!-- Node17&#45;&gt;Node18 -->
<g id="edge20" class="edge">
<title>Node17&#45;&gt;Node18</title>
<path fill="none" stroke="midnightblue" d="M580.47,-179.4C589.69,-170.71 601.69,-159.4 612.04,-149.66"/>
<polygon fill="midnightblue" stroke="midnightblue" points="614.68,-151.98 619.56,-142.58 609.88,-146.89 614.68,-151.98"/>
</g>
<!-- Node18&#45;&gt;Node16 -->
<g id="edge21" class="edge">
<title>Node18&#45;&gt;Node16</title>
<path fill="none" stroke="midnightblue" d="M611.99,-112.4C596.9,-102.95 577.11,-90.56 562.03,-81.11"/>
<polygon fill="midnightblue" stroke="midnightblue" points="563.66,-78 553.32,-75.66 559.94,-83.93 563.66,-78"/>
</g>
<!-- Node19&#45;&gt;Node14 -->
<g id="edge24" class="edge">
<title>Node19&#45;&gt;Node14</title>
<path fill="none" stroke="midnightblue" d="M475.45,-112.4C453.77,-102.55 425.04,-89.5 403.95,-79.92"/>
<polygon fill="midnightblue" stroke="midnightblue" points="405.11,-76.61 394.56,-75.66 402.22,-82.98 405.11,-76.61"/>
</g>
<!-- Node19&#45;&gt;Node16 -->
<g id="edge25" class="edge">
<title>Node19&#45;&gt;Node16</title>
<path fill="none" stroke="midnightblue" d="M514.32,-112.4C518.97,-104.02 524.9,-93.33 529.84,-84.42"/>
<polygon fill="midnightblue" stroke="midnightblue" points="532.91,-86.1 534.7,-75.66 526.79,-82.71 532.91,-86.1"/>
</g>
<!-- Node21 -->
<g id="node21" class="node">
<title>Node21</title>
<g id="a_node21"><a xlink:href="core_2socket_2_client_socket_8h.html" target="_top" xlink:title=" ">
<polygon fill="white" stroke="black" points="1016,-319 1016,-338 1161,-338 1161,-319 1016,-319"/>
<text text-anchor="middle" x="1088.5" y="-326" font-family="Helvetica,sans-Serif" font-size="10.00">core/socket/ClientSocket.h</text>
</a>
</g>
</g>
<!-- Node20&#45;&gt;Node21 -->
<g id="edge27" class="edge">
<title>Node20&#45;&gt;Node21</title>
<path fill="none" stroke="midnightblue" d="M1088.5,-385.73C1088.5,-376.18 1088.5,-360.62 1088.5,-348.28"/>
<polygon fill="midnightblue" stroke="midnightblue" points="1092,-348.13 1088.5,-338.13 1085,-348.13 1092,-348.13"/>
</g>
<!-- Node22 -->
<g id="node22" class="node">
<title>Node22</title>
<g id="a_node22"><a xlink:href="net_2in6_2stream_2_socket_8h.html" target="_top" xlink:title=" ">
<polygon fill="white" stroke="black" points="841.5,-319 841.5,-338 973.5,-338 973.5,-319 841.5,-319"/>
<text text-anchor="middle" x="907.5" y="-326" font-family="Helvetica,sans-Serif" font-size="10.00">net/in6/stream/Socket.h</text>
</a>
</g>
</g>
<!-- Node20&#45;&gt;Node22 -->
<g id="edge28" class="edge">
<title>Node20&#45;&gt;Node22</title>
<path fill="none" stroke="midnightblue" d="M1064.46,-385.87C1032.73,-374.47 976.71,-354.35 940.88,-341.49"/>
<polygon fill="midnightblue" stroke="midnightblue" points="941.94,-338.15 931.35,-338.06 939.58,-344.74 941.94,-338.15"/>
</g>
<!-- Node23 -->
<g id="node23" class="node">
<title>Node23</title>
<g id="a_node23"><a xlink:href="core_2socket_2_socket_8h.html" target="_top" xlink:title=" ">
<polygon fill="white" stroke="black" points="763.5,-252 763.5,-271 879.5,-271 879.5,-252 763.5,-252"/>
<text text-anchor="middle" x="821.5" y="-259" font-family="Helvetica,sans-Serif" font-size="10.00">core/socket/Socket.h</text>
</a>
</g>
</g>
<!-- Node22&#45;&gt;Node23 -->
<g id="edge29" class="edge">
<title>Node22&#45;&gt;Node23</title>
<path fill="none" stroke="midnightblue" d="M895.9,-318.73C881.85,-308.11 857.95,-290.05 841.03,-277.26"/>
<polygon fill="midnightblue" stroke="midnightblue" points="843,-274.36 832.91,-271.13 838.78,-279.95 843,-274.36"/>
</g>
<!-- Node25 -->
<g id="node25" class="node">
<title>Node25</title>
<g id="a_node25"><a xlink:href="net_2in6_2_socket_address_8h.html" target="_top" xlink:title=" ">
<polygon fill="white" stroke="black" points="945.5,-185 945.5,-204 1079.5,-204 1079.5,-185 945.5,-185"/>
<text text-anchor="middle" x="1012.5" y="-192" font-family="Helvetica,sans-Serif" font-size="10.00">net/in6/SocketAddress.h</text>
</a>
</g>
</g>
<!-- Node22&#45;&gt;Node25 -->
<g id="edge31" class="edge">
<title>Node22&#45;&gt;Node25</title>
<path fill="none" stroke="midnightblue" d="M907.37,-318.98C907.55,-303.08 909.97,-268.47 926.5,-246 939.23,-228.7 959.81,-216.31 977.65,-208.13"/>
<polygon fill="midnightblue" stroke="midnightblue" points="979.41,-211.19 987.21,-204.02 976.64,-204.76 979.41,-211.19"/>
</g>
<!-- Node24 -->
<g id="node24" class="node">
<title>Node24</title>
<g id="a_node24"><a xlink:href="_descriptor_8h.html" target="_top" xlink:title=" ">
<polygon fill="white" stroke="black" points="771.5,-185 771.5,-204 871.5,-204 871.5,-185 771.5,-185"/>
<text text-anchor="middle" x="821.5" y="-192" font-family="Helvetica,sans-Serif" font-size="10.00">core/Descriptor.h</text>
</a>
</g>
</g>
<!-- Node23&#45;&gt;Node24 -->
<g id="edge30" class="edge">
<title>Node23&#45;&gt;Node24</title>
<path fill="none" stroke="midnightblue" d="M821.5,-251.73C821.5,-242.18 821.5,-226.62 821.5,-214.28"/>
<polygon fill="midnightblue" stroke="midnightblue" points="825,-214.13 821.5,-204.13 818,-214.13 825,-214.13"/>
</g>
<!-- Node26 -->
<g id="node26" class="node">
<title>Node26</title>
<g id="a_node26"><a xlink:href="core_2socket_2_socket_address_8h.html" target="_top" xlink:title=" ">
<polygon fill="white" stroke="black" points="935,-118 935,-137 1090,-137 1090,-118 935,-118"/>
<text text-anchor="middle" x="1012.5" y="-125" font-family="Helvetica,sans-Serif" font-size="10.00">core/socket/SocketAddress.h</text>
</a>
</g>
</g>
<!-- Node25&#45;&gt;Node26 -->
<g id="edge32" class="edge">
<title>Node25&#45;&gt;Node26</title>
<path fill="none" stroke="midnightblue" d="M1012.5,-184.73C1012.5,-175.18 1012.5,-159.62 1012.5,-147.28"/>
<polygon fill="midnightblue" stroke="midnightblue" points="1016,-147.13 1012.5,-137.13 1009,-147.13 1016,-147.13"/>
</g>
<!-- Node28 -->
<g id="node28" class="node">
<title>Node28</title>
<g id="a_node28"><a xlink:href="_config_tls_8h.html" target="_top" xlink:title=" ">
<polygon fill="white" stroke="black" points="1369.5,-319 1369.5,-338 1459.5,-338 1459.5,-319 1369.5,-319"/>
<text text-anchor="middle" x="1414.5" y="-326" font-family="Helvetica,sans-Serif" font-size="10.00">net/ConfigTls.h</text>
</a>
</g>
</g>
<!-- Node27&#45;&gt;Node28 -->
<g id="edge34" class="edge">
<title>Node27&#45;&gt;Node28</title>
<path fill="none" stroke="midnightblue" d="M1302.53,-380.4C1327.51,-369.04 1362.32,-353.22 1386.46,-342.24"/>
<polygon fill="midnightblue" stroke="midnightblue" points="1388.13,-345.33 1395.78,-338.01 1385.23,-338.96 1388.13,-345.33"/>
</g>
<!-- Node29 -->
<g id="node29" class="node">
<title>Node29</title>
<g id="a_node29"><a xlink:href="in6_2stream_2_client_config_8h.html" target="_top" xlink:title=" ">
<polygon fill="white" stroke="black" points="1191.5,-319 1191.5,-338 1351.5,-338 1351.5,-319 1191.5,-319"/>
<text text-anchor="middle" x="1271.5" y="-326" font-family="Helvetica,sans-Serif" font-size="10.00">net/in6/stream/ClientConfig.h</text>
</a>
</g>
</g>
<!-- Node27&#45;&gt;Node29 -->
<g id="edge35" class="edge">
<title>Node27&#45;&gt;Node29</title>
<path fill="none" stroke="midnightblue" d="M1271.5,-380.4C1271.5,-371.06 1271.5,-358.71 1271.5,-348.52"/>
<polygon fill="midnightblue" stroke="midnightblue" points="1275,-348.19 1271.5,-338.19 1268,-348.19 1275,-348.19"/>
</g>
<!-- Node30 -->
<g id="node30" class="node">
<title>Node30</title>
<g id="a_node30"><a xlink:href="_config_backlog_8h.html" target="_top" xlink:title=" ">
<polygon fill="white" stroke="black" points="1226,-252 1226,-271 1341,-271 1341,-252 1226,-252"/>
<text text-anchor="middle" x="1283.5" y="-259" font-family="Helvetica,sans-Serif" font-size="10.00">net/ConfigBacklog.h</text>
</a>
</g>
</g>
<!-- Node29&#45;&gt;Node30 -->
<g id="edge36" class="edge">
<title>Node29&#45;&gt;Node30</title>
<path fill="none" stroke="midnightblue" d="M1273.12,-318.73C1274.88,-309.18 1277.76,-293.62 1280.03,-281.28"/>
<polygon fill="midnightblue" stroke="midnightblue" points="1283.53,-281.6 1281.91,-271.13 1276.65,-280.33 1283.53,-281.6"/>
</g>
<!-- Node31 -->
<g id="node31" class="node">
<title>Node31</title>
<g id="a_node31"><a xlink:href="_config_base_8h.html" target="_top" xlink:title=" ">
<polygon fill="white" stroke="black" points="1548.5,-252 1548.5,-271 1648.5,-271 1648.5,-252 1548.5,-252"/>
<text text-anchor="middle" x="1598.5" y="-259" font-family="Helvetica,sans-Serif" font-size="10.00">net/ConfigBase.h</text>
</a>
</g>
</g>
<!-- Node29&#45;&gt;Node31 -->
<g id="edge37" class="edge">
<title>Node29&#45;&gt;Node31</title>
<path fill="none" stroke="midnightblue" d="M1320.86,-318.93C1374.56,-309.43 1462.86,-293.28 1538.5,-277 1543.8,-275.86 1549.36,-274.6 1554.85,-273.32"/>
<polygon fill="midnightblue" stroke="midnightblue" points="1555.69,-276.72 1564.62,-271 1554.08,-269.91 1555.69,-276.72"/>
</g>
<!-- Node32 -->
<g id="node32" class="node">
<title>Node32</title>
<g id="a_node32"><a xlink:href="_config_conn_8h.html" target="_top" xlink:title=" ">
<polygon fill="white" stroke="black" points="1107,-252 1107,-271 1208,-271 1208,-252 1107,-252"/>
<text text-anchor="middle" x="1157.5" y="-259" font-family="Helvetica,sans-Serif" font-size="10.00">net/ConfigConn.h</text>
</a>
</g>
</g>
<!-- Node29&#45;&gt;Node32 -->
<g id="edge38" class="edge">
<title>Node29&#45;&gt;Node32</title>
<path fill="none" stroke="midnightblue" d="M1256.13,-318.73C1236.98,-307.82 1204.06,-289.05 1181.56,-276.22"/>
<polygon fill="midnightblue" stroke="midnightblue" points="1183.05,-273.04 1172.63,-271.13 1179.58,-279.12 1183.05,-273.04"/>
</g>
<!-- Node33 -->
<g id="node33" class="node">
<title>Node33</title>
<g id="a_node33"><a xlink:href="in6_2stream_2_config_bind_8h.html" target="_top" xlink:title=" ">
<polygon fill="white" stroke="black" points="936,-252 936,-271 1089,-271 1089,-252 936,-252"/>
<text text-anchor="middle" x="1012.5" y="-259" font-family="Helvetica,sans-Serif" font-size="10.00">net/in6/stream/ConfigBind.h</text>
</a>
</g>
</g>
<!-- Node29&#45;&gt;Node33 -->
<g id="edge39" class="edge">
<title>Node29&#45;&gt;Node33</title>
<path fill="none" stroke="midnightblue" d="M1237.37,-318.94C1190.89,-307.27 1107.6,-286.37 1056.48,-273.54"/>
<polygon fill="midnightblue" stroke="midnightblue" points="1057.25,-270.12 1046.7,-271.08 1055.55,-276.91 1057.25,-270.12"/>
</g>
<!-- Node34 -->
<g id="node34" class="node">
<title>Node34</title>
<g id="a_node34"><a xlink:href="in6_2stream_2_config_connect_8h.html" target="_top" xlink:title=" ">
<polygon fill="white" stroke="black" points="1359,-252 1359,-271 1530,-271 1530,-252 1359,-252"/>
<text text-anchor="middle" x="1444.5" y="-259" font-family="Helvetica,sans-Serif" font-size="10.00">net/in6/stream/ConfigConnect.h</text>
</a>
</g>
</g>
<!-- Node29&#45;&gt;Node34 -->
<g id="edge41" class="edge">
<title>Node29&#45;&gt;Node34</title>
<path fill="none" stroke="midnightblue" d="M1294.47,-318.87C1324.67,-307.52 1377.9,-287.52 1412.16,-274.65"/>
<polygon fill="midnightblue" stroke="midnightblue" points="1413.58,-277.86 1421.71,-271.06 1411.12,-271.3 1413.58,-277.86"/>
</g>
<!-- Node33&#45;&gt;Node25 -->
<g id="edge40" class="edge">
<title>Node33&#45;&gt;Node25</title>
<path fill="none" stroke="midnightblue" d="M1012.5,-251.73C1012.5,-242.18 1012.5,-226.62 1012.5,-214.28"/>
<polygon fill="midnightblue" stroke="midnightblue" points="1016,-214.13 1012.5,-204.13 1009,-214.13 1016,-214.13"/>
</g>
<!-- Node34&#45;&gt;Node25 -->
<g id="edge42" class="edge">
<title>Node34&#45;&gt;Node25</title>
<path fill="none" stroke="midnightblue" d="M1388.74,-251.96C1375.86,-250 1362.2,-247.92 1349.5,-246 1256.03,-231.86 1147.94,-215.7 1079.9,-205.55"/>
<polygon fill="midnightblue" stroke="midnightblue" points="1080.16,-202.04 1069.75,-204.03 1079.12,-208.97 1080.16,-202.04"/>
</g>
<!-- Node36 -->
<g id="node36" class="node">
<title>Node36</title>
<g id="a_node36"><a xlink:href="web_2http_2client_2_socket_context_factory_8h.html" target="_top" xlink:title=" ">
<polygon fill="white" stroke="black" points="1647,-380.5 1647,-410.5 1810,-410.5 1810,-380.5 1647,-380.5"/>
<text text-anchor="start" x="1655" y="-398.5" font-family="Helvetica,sans-Serif" font-size="10.00">web/http/client/SocketContext</text>
<text text-anchor="middle" x="1728.5" y="-387.5" font-family="Helvetica,sans-Serif" font-size="10.00">Factory.h</text>
</a>
</g>
</g>
<!-- Node35&#45;&gt;Node36 -->
<g id="edge44" class="edge">
<title>Node35&#45;&gt;Node36</title>
<path fill="none" stroke="midnightblue" d="M1567.2,-452.87C1595.47,-442.99 1642.51,-426.55 1678.52,-413.97"/>
<polygon fill="midnightblue" stroke="midnightblue" points="1680.07,-417.13 1688.36,-410.53 1677.76,-410.52 1680.07,-417.13"/>
</g>
<!-- Node37 -->
<g id="node37" class="node">
<title>Node37</title>
<g id="a_node37"><a xlink:href="web_2http_2_socket_context_factory_8h.html" target="_top" xlink:title=" ">
<polygon fill="white" stroke="black" points="1640.5,-319 1640.5,-338 1816.5,-338 1816.5,-319 1640.5,-319"/>
<text text-anchor="middle" x="1728.5" y="-326" font-family="Helvetica,sans-Serif" font-size="10.00">web/http/SocketContextFactory.h</text>
</a>
</g>
</g>
<!-- Node36&#45;&gt;Node37 -->
<g id="edge45" class="edge">
<title>Node36&#45;&gt;Node37</title>
<path fill="none" stroke="midnightblue" d="M1728.5,-380.4C1728.5,-371.06 1728.5,-358.71 1728.5,-348.52"/>
<polygon fill="midnightblue" stroke="midnightblue" points="1732,-348.19 1728.5,-338.19 1725,-348.19 1732,-348.19"/>
</g>
<!-- Node39 -->
<g id="node39" class="node">
<title>Node39</title>
<g id="a_node39"><a xlink:href="client_2_socket_context_8hpp.html" target="_top" xlink:title=" ">
<polygon fill="white" stroke="black" points="1834.5,-319 1834.5,-338 2018.5,-338 2018.5,-319 1834.5,-319"/>
<text text-anchor="middle" x="1926.5" y="-326" font-family="Helvetica,sans-Serif" font-size="10.00">web/http/client/SocketContext.hpp</text>
</a>
</g>
</g>
<!-- Node36&#45;&gt;Node39 -->
<g id="edge47" class="edge">
<title>Node36&#45;&gt;Node39</title>
<path fill="none" stroke="midnightblue" d="M1771.46,-380.4C1807.13,-368.69 1857.26,-352.23 1890.76,-341.23"/>
<polygon fill="midnightblue" stroke="midnightblue" points="1892.18,-344.45 1900.59,-338.01 1889.99,-337.8 1892.18,-344.45"/>
</g>
<!-- Node38 -->
<g id="node38" class="node">
<title>Node38</title>
<g id="a_node38"><a xlink:href="core_2socket_2_socket_context_factory_8h.html" target="_top" xlink:title=" ">
<polygon fill="white" stroke="black" points="1666.5,-246.5 1666.5,-276.5 1812.5,-276.5 1812.5,-246.5 1666.5,-246.5"/>
<text text-anchor="start" x="1674.5" y="-264.5" font-family="Helvetica,sans-Serif" font-size="10.00">core/socket/SocketContext</text>
<text text-anchor="middle" x="1739.5" y="-253.5" font-family="Helvetica,sans-Serif" font-size="10.00">Factory.h</text>
</a>
</g>
</g>
<!-- Node37&#45;&gt;Node38 -->
<g id="edge46" class="edge">
<title>Node37&#45;&gt;Node38</title>
<path fill="none" stroke="midnightblue" d="M1729.98,-318.73C1731.37,-310.54 1733.51,-297.92 1735.4,-286.71"/>
<polygon fill="midnightblue" stroke="midnightblue" points="1738.9,-287.03 1737.12,-276.59 1732,-285.86 1738.9,-287.03"/>
</g>
<!-- Node40 -->
<g id="node40" class="node">
<title>Node40</title>
<g id="a_node40"><a xlink:href="web_2http_2client_2_socket_context_8h.html" target="_top" xlink:title=" ">
<polygon fill="white" stroke="black" points="1840.5,-252 1840.5,-271 2012.5,-271 2012.5,-252 1840.5,-252"/>
<text text-anchor="middle" x="1926.5" y="-259" font-family="Helvetica,sans-Serif" font-size="10.00">web/http/client/SocketContext.h</text>
</a>
</g>
</g>
<!-- Node39&#45;&gt;Node40 -->
<g id="edge48" class="edge">
<title>Node39&#45;&gt;Node40</title>
<path fill="none" stroke="midnightblue" d="M1926.5,-318.73C1926.5,-309.18 1926.5,-293.62 1926.5,-281.28"/>
<polygon fill="midnightblue" stroke="midnightblue" points="1930,-281.13 1926.5,-271.13 1923,-281.13 1930,-281.13"/>
</g>
<!-- Node41 -->
<g id="node41" class="node">
<title>Node41</title>
<g id="a_node41"><a xlink:href="web_2http_2_socket_context_8h.html" target="_top" xlink:title=" ">
<polygon fill="white" stroke="black" points="1934.5,-185 1934.5,-204 2076.5,-204 2076.5,-185 1934.5,-185"/>
<text text-anchor="middle" x="2005.5" y="-192" font-family="Helvetica,sans-Serif" font-size="10.00">web/http/SocketContext.h</text>
</a>
</g>
</g>
<!-- Node40&#45;&gt;Node41 -->
<g id="edge49" class="edge">
<title>Node40&#45;&gt;Node41</title>
<path fill="none" stroke="midnightblue" d="M1937.15,-251.73C1949.95,-241.21 1971.62,-223.38 1987.13,-210.62"/>
<polygon fill="midnightblue" stroke="midnightblue" points="1989.52,-213.18 1995.01,-204.13 1985.07,-207.78 1989.52,-213.18"/>
</g>
<!-- Node43 -->
<g id="node43" class="node">
<title>Node43</title>
<g id="a_node43"><a xlink:href="_response_parser_8h.html" target="_top" xlink:title=" ">
<polygon fill="white" stroke="black" points="1776.5,-179.5 1776.5,-209.5 1916.5,-209.5 1916.5,-179.5 1776.5,-179.5"/>
<text text-anchor="start" x="1784.5" y="-197.5" font-family="Helvetica,sans-Serif" font-size="10.00">web/http/client/Response</text>
<text text-anchor="middle" x="1846.5" y="-186.5" font-family="Helvetica,sans-Serif" font-size="10.00">Parser.h</text>
</a>
</g>
</g>
<!-- Node40&#45;&gt;Node43 -->
<g id="edge51" class="edge">
<title>Node40&#45;&gt;Node43</title>
<path fill="none" stroke="midnightblue" d="M1915.71,-251.73C1904.48,-242.61 1886.5,-228 1871.69,-215.96"/>
<polygon fill="midnightblue" stroke="midnightblue" points="1873.81,-213.18 1863.84,-209.59 1869.39,-218.61 1873.81,-213.18"/>
</g>
<!-- Node42 -->
<g id="node42" class="node">
<title>Node42</title>
<g id="a_node42"><a xlink:href="core_2socket_2_socket_context_8h.html" target="_top" xlink:title=" ">
<polygon fill="white" stroke="black" points="1928,-118 1928,-137 2083,-137 2083,-118 1928,-118"/>
<text text-anchor="middle" x="2005.5" y="-125" font-family="Helvetica,sans-Serif" font-size="10.00">core/socket/SocketContext.h</text>
</a>
</g>
</g>
<!-- Node41&#45;&gt;Node42 -->
<g id="edge50" class="edge">
<title>Node41&#45;&gt;Node42</title>
<path fill="none" stroke="midnightblue" d="M2005.5,-184.73C2005.5,-175.18 2005.5,-159.62 2005.5,-147.28"/>
<polygon fill="midnightblue" stroke="midnightblue" points="2009,-147.13 2005.5,-137.13 2002,-147.13 2009,-147.13"/>
</g>
<!-- Node44 -->
<g id="node44" class="node">
<title>Node44</title>
<g id="a_node44"><a xlink:href="_cookie_options_8h.html" target="_top" xlink:title=" ">
<polygon fill="white" stroke="black" points="1640,-118 1640,-137 1783,-137 1783,-118 1640,-118"/>
<text text-anchor="middle" x="1711.5" y="-125" font-family="Helvetica,sans-Serif" font-size="10.00">web/http/CookieOptions.h</text>
</a>
</g>
</g>
<!-- Node43&#45;&gt;Node44 -->
<g id="edge52" class="edge">
<title>Node43&#45;&gt;Node44</title>
<path fill="none" stroke="midnightblue" d="M1817.21,-179.4C1793.73,-168.09 1761.06,-152.36 1738.27,-141.39"/>
<polygon fill="midnightblue" stroke="midnightblue" points="1739.7,-138.19 1729.17,-137.01 1736.66,-144.5 1739.7,-138.19"/>
</g>
<!-- Node45 -->
<g id="node45" class="node">
<title>Node45</title>
<g id="a_node45"><a xlink:href="_parser_8h.html" target="_top" xlink:title=" ">
<polygon fill="white" stroke="black" points="1801.5,-118 1801.5,-137 1903.5,-137 1903.5,-118 1801.5,-118"/>
<text text-anchor="middle" x="1852.5" y="-125" font-family="Helvetica,sans-Serif" font-size="10.00">web/http/Parser.h</text>
</a>
</g>
</g>
<!-- Node43&#45;&gt;Node45 -->
<g id="edge53" class="edge">
<title>Node43&#45;&gt;Node45</title>
<path fill="none" stroke="midnightblue" d="M1847.8,-179.4C1848.67,-169.96 1849.83,-157.45 1850.77,-147.19"/>
<polygon fill="midnightblue" stroke="midnightblue" points="1854.26,-147.47 1851.7,-137.19 1847.29,-146.83 1854.26,-147.47"/>
</g>
</g>
</svg>
