<?xml version="1.0" encoding="UTF-8" standalone="no"?>
<!DOCTYPE svg PUBLIC "-//W3C//DTD SVG 1.1//EN"
 "http://www.w3.org/Graphics/SVG/1.1/DTD/svg11.dtd">
<!-- Generated by graphviz version 2.43.0 (0)
 -->
<!-- Title: net/un/stream/tls/SocketServer.cpp Pages: 1 -->
<svg width="2121pt" height="687pt"
 viewBox="0.00 0.00 2120.50 687.00" xmlns="http://www.w3.org/2000/svg" xmlns:xlink="http://www.w3.org/1999/xlink">
<g id="graph0" class="graph" transform="scale(1 1) rotate(0) translate(4 683)">
<title>net/un/stream/tls/SocketServer.cpp</title>
<polygon fill="white" stroke="transparent" points="-4,4 -4,-683 2116.5,-683 2116.5,4 -4,4"/>
<!-- Node1 -->
<g id="node1" class="node">
<title>Node1</title>
<g id="a_node1"><a xlink:title=" ">
<polygon fill="#bfbfbf" stroke="black" points="1499,-648.5 1499,-678.5 1634,-678.5 1634,-648.5 1499,-648.5"/>
<text text-anchor="start" x="1507" y="-666.5" font-family="Helvetica,sans-Serif" font-size="10.00">net/un/stream/tls/Socket</text>
<text text-anchor="middle" x="1566.5" y="-655.5" font-family="Helvetica,sans-Serif" font-size="10.00">Server.cpp</text>
</a>
</g>
</g>
<!-- Node2 -->
<g id="node2" class="node">
<title>Node2</title>
<g id="a_node2"><a xlink:href="net_2un_2stream_2tls_2_socket_server_8h.html" target="_top" xlink:title=" ">
<polygon fill="white" stroke="black" points="1413,-581.5 1413,-611.5 1548,-611.5 1548,-581.5 1413,-581.5"/>
<text text-anchor="start" x="1421" y="-599.5" font-family="Helvetica,sans-Serif" font-size="10.00">net/un/stream/tls/Socket</text>
<text text-anchor="middle" x="1480.5" y="-588.5" font-family="Helvetica,sans-Serif" font-size="10.00">Server.h</text>
</a>
</g>
</g>
<!-- Node1&#45;&gt;Node2 -->
<g id="edge1" class="edge">
<title>Node1&#45;&gt;Node2</title>
<path fill="none" stroke="midnightblue" d="M1547.84,-648.4C1536.01,-639.45 1520.51,-627.74 1507.36,-617.8"/>
<polygon fill="midnightblue" stroke="midnightblue" points="1509.21,-614.81 1499.12,-611.58 1504.99,-620.4 1509.21,-614.81"/>
</g>
<!-- Node47 -->
<g id="node47" class="node">
<title>Node47</title>
<g id="a_node47"><a xlink:href="un_2stream_2_socket_server_8hpp.html" target="_top" xlink:title=" ">
<polygon fill="white" stroke="black" points="1640,-587 1640,-606 1813,-606 1813,-587 1640,-587"/>
<text text-anchor="middle" x="1726.5" y="-594" font-family="Helvetica,sans-Serif" font-size="10.00">net/un/stream/SocketServer.hpp</text>
</a>
</g>
</g>
<!-- Node1&#45;&gt;Node47 -->
<g id="edge61" class="edge">
<title>Node1&#45;&gt;Node47</title>
<path fill="none" stroke="midnightblue" d="M1601.22,-648.4C1629.54,-636.89 1669.15,-620.8 1696.21,-609.81"/>
<polygon fill="midnightblue" stroke="midnightblue" points="1697.61,-613.01 1705.56,-606.01 1694.98,-606.53 1697.61,-613.01"/>
</g>
<!-- Node3 -->
<g id="node3" class="node">
<title>Node3</title>
<g id="a_node3"><a xlink:href="core_2socket_2stream_2tls_2_socket_server_8h.html" target="_top" xlink:title=" ">
<polygon fill="white" stroke="black" points="973.5,-514.5 973.5,-544.5 1083.5,-544.5 1083.5,-514.5 973.5,-514.5"/>
<text text-anchor="start" x="981.5" y="-532.5" font-family="Helvetica,sans-Serif" font-size="10.00">core/socket/stream</text>
<text text-anchor="middle" x="1028.5" y="-521.5" font-family="Helvetica,sans-Serif" font-size="10.00">/tls/SocketServer.h</text>
</a>
</g>
</g>
<!-- Node2&#45;&gt;Node3 -->
<g id="edge2" class="edge">
<title>Node2&#45;&gt;Node3</title>
<path fill="none" stroke="midnightblue" d="M1412.83,-585.77C1326.69,-573.38 1178.87,-552.12 1093.85,-539.9"/>
<polygon fill="midnightblue" stroke="midnightblue" points="1094.2,-536.41 1083.8,-538.45 1093.2,-543.34 1094.2,-536.41"/>
</g>
<!-- Node33 -->
<g id="node33" class="node">
<title>Node33</title>
<g id="a_node33"><a xlink:href="net_2un_2stream_2_socket_server_8h.html" target="_top" xlink:title=" ">
<polygon fill="white" stroke="black" points="1646,-520 1646,-539 1807,-539 1807,-520 1646,-520"/>
<text text-anchor="middle" x="1726.5" y="-527" font-family="Helvetica,sans-Serif" font-size="10.00">net/un/stream/SocketServer.h</text>
</a>
</g>
</g>
<!-- Node2&#45;&gt;Node33 -->
<g id="edge40" class="edge">
<title>Node2&#45;&gt;Node33</title>
<path fill="none" stroke="midnightblue" d="M1533.58,-581.48C1578.72,-569.55 1642.69,-552.64 1684.39,-541.63"/>
<polygon fill="midnightblue" stroke="midnightblue" points="1685.45,-544.97 1694.22,-539.03 1683.66,-538.2 1685.45,-544.97"/>
</g>
<!-- Node39 -->
<g id="node39" class="node">
<title>Node39</title>
<g id="a_node39"><a xlink:href="un_2stream_2tls_2config_2_config_socket_server_8h.html" target="_top" xlink:title=" ">
<polygon fill="white" stroke="black" points="1321,-514.5 1321,-544.5 1454,-544.5 1454,-514.5 1321,-514.5"/>
<text text-anchor="start" x="1329" y="-532.5" font-family="Helvetica,sans-Serif" font-size="10.00">net/un/stream/tls/config</text>
<text text-anchor="middle" x="1387.5" y="-521.5" font-family="Helvetica,sans-Serif" font-size="10.00">/ConfigSocketServer.h</text>
</a>
</g>
</g>
<!-- Node2&#45;&gt;Node39 -->
<g id="edge47" class="edge">
<title>Node2&#45;&gt;Node39</title>
<path fill="none" stroke="midnightblue" d="M1460.32,-581.4C1447.4,-572.37 1430.44,-560.51 1416.14,-550.52"/>
<polygon fill="midnightblue" stroke="midnightblue" points="1417.84,-547.44 1407.64,-544.58 1413.83,-553.17 1417.84,-547.44"/>
</g>
<!-- Node4 -->
<g id="node4" class="node">
<title>Node4</title>
<g id="a_node4"><a xlink:href="core_2socket_2stream_2_socket_server_8h.html" target="_top" xlink:title=" ">
<polygon fill="white" stroke="black" points="973.5,-447.5 973.5,-477.5 1083.5,-477.5 1083.5,-447.5 973.5,-447.5"/>
<text text-anchor="start" x="981.5" y="-465.5" font-family="Helvetica,sans-Serif" font-size="10.00">core/socket/stream</text>
<text text-anchor="middle" x="1028.5" y="-454.5" font-family="Helvetica,sans-Serif" font-size="10.00">/SocketServer.h</text>
</a>
</g>
</g>
<!-- Node3&#45;&gt;Node4 -->
<g id="edge3" class="edge">
<title>Node3&#45;&gt;Node4</title>
<path fill="none" stroke="midnightblue" d="M1028.5,-514.4C1028.5,-506.64 1028.5,-496.81 1028.5,-487.86"/>
<polygon fill="midnightblue" stroke="midnightblue" points="1032,-487.58 1028.5,-477.58 1025,-487.58 1032,-487.58"/>
</g>
<!-- Node5 -->
<g id="node5" class="node">
<title>Node5</title>
<g id="a_node5"><a xlink:href="tls_2_socket_acceptor_8h.html" target="_top" xlink:title=" ">
<polygon fill="white" stroke="black" points="799,-447.5 799,-477.5 918,-477.5 918,-447.5 799,-447.5"/>
<text text-anchor="start" x="807" y="-465.5" font-family="Helvetica,sans-Serif" font-size="10.00">core/socket/stream</text>
<text text-anchor="middle" x="858.5" y="-454.5" font-family="Helvetica,sans-Serif" font-size="10.00">/tls/SocketAcceptor.h</text>
</a>
</g>
</g>
<!-- Node3&#45;&gt;Node5 -->
<g id="edge4" class="edge">
<title>Node3&#45;&gt;Node5</title>
<path fill="none" stroke="midnightblue" d="M991.61,-514.4C966.11,-504.64 931.98,-491.59 904.67,-481.15"/>
<polygon fill="midnightblue" stroke="midnightblue" points="905.91,-477.88 895.32,-477.58 903.41,-484.42 905.91,-477.88"/>
</g>
<!-- Node6 -->
<g id="node6" class="node">
<title>Node6</title>
<g id="a_node6"><a xlink:href="_socket_acceptor_8h.html" target="_top" xlink:title=" ">
<polygon fill="white" stroke="black" points="803.5,-380.5 803.5,-410.5 913.5,-410.5 913.5,-380.5 803.5,-380.5"/>
<text text-anchor="start" x="811.5" y="-398.5" font-family="Helvetica,sans-Serif" font-size="10.00">core/socket/stream</text>
<text text-anchor="middle" x="858.5" y="-387.5" font-family="Helvetica,sans-Serif" font-size="10.00">/SocketAcceptor.h</text>
</a>
</g>
</g>
<!-- Node5&#45;&gt;Node6 -->
<g id="edge5" class="edge">
<title>Node5&#45;&gt;Node6</title>
<path fill="none" stroke="midnightblue" d="M858.5,-447.4C858.5,-439.64 858.5,-429.81 858.5,-420.86"/>
<polygon fill="midnightblue" stroke="midnightblue" points="862,-420.58 858.5,-410.58 855,-420.58 862,-420.58"/>
</g>
<!-- Node22 -->
<g id="node22" class="node">
<title>Node22</title>
<g id="a_node22"><a xlink:href="stream_2tls_2_socket_connection_8h.html" target="_top" xlink:title=" ">
<polygon fill="white" stroke="black" points="440,-380.5 440,-410.5 571,-410.5 571,-380.5 440,-380.5"/>
<text text-anchor="start" x="448" y="-398.5" font-family="Helvetica,sans-Serif" font-size="10.00">core/socket/stream</text>
<text text-anchor="middle" x="505.5" y="-387.5" font-family="Helvetica,sans-Serif" font-size="10.00">/tls/SocketConnection.h</text>
</a>
</g>
</g>
<!-- Node5&#45;&gt;Node22 -->
<g id="edge22" class="edge">
<title>Node5&#45;&gt;Node22</title>
<path fill="none" stroke="midnightblue" d="M798.62,-450.47C738.68,-439.44 646.27,-422.42 581.27,-410.45"/>
<polygon fill="midnightblue" stroke="midnightblue" points="581.55,-406.94 571.08,-408.58 580.28,-413.83 581.55,-406.94"/>
</g>
<!-- Node7 -->
<g id="node7" class="node">
<title>Node7</title>
<g id="a_node7"><a xlink:href="_accept_event_receiver_8h.html" target="_top" xlink:title=" ">
<polygon fill="white" stroke="black" points="595.5,-179.5 595.5,-209.5 727.5,-209.5 727.5,-179.5 595.5,-179.5"/>
<text text-anchor="start" x="603.5" y="-197.5" font-family="Helvetica,sans-Serif" font-size="10.00">core/eventreceiver</text>
<text text-anchor="middle" x="661.5" y="-186.5" font-family="Helvetica,sans-Serif" font-size="10.00">/AcceptEventReceiver.h</text>
</a>
</g>
</g>
<!-- Node6&#45;&gt;Node7 -->
<g id="edge6" class="edge">
<title>Node6&#45;&gt;Node7</title>
<path fill="none" stroke="midnightblue" d="M803.99,-380.49C782.35,-372.68 758.6,-361 741.5,-344 707.77,-310.47 722.25,-287.21 698.5,-246 692.88,-236.25 685.76,-226.13 679.27,-217.54"/>
<polygon fill="midnightblue" stroke="midnightblue" points="681.95,-215.28 673.06,-209.51 676.41,-219.57 681.95,-215.28"/>
</g>
<!-- Node11 -->
<g id="node11" class="node">
<title>Node11</title>
<g id="a_node11"><a xlink:href="_init_accept_event_receiver_8h.html" target="_top" xlink:title=" ">
<polygon fill="white" stroke="black" points="649.5,-112.5 649.5,-142.5 797.5,-142.5 797.5,-112.5 649.5,-112.5"/>
<text text-anchor="start" x="657.5" y="-130.5" font-family="Helvetica,sans-Serif" font-size="10.00">core/eventreceiver</text>
<text text-anchor="middle" x="723.5" y="-119.5" font-family="Helvetica,sans-Serif" font-size="10.00">/InitAcceptEventReceiver.h</text>
</a>
</g>
</g>
<!-- Node6&#45;&gt;Node11 -->
<g id="edge10" class="edge">
<title>Node6&#45;&gt;Node11</title>
<path fill="none" stroke="midnightblue" d="M821.87,-380.46C805.06,-372.25 786.3,-360.25 774.5,-344 730.29,-283.1 754.33,-252.11 736.5,-179 734.39,-170.34 731.98,-160.88 729.81,-152.5"/>
<polygon fill="midnightblue" stroke="midnightblue" points="733.15,-151.42 727.24,-142.62 726.37,-153.18 733.15,-151.42"/>
</g>
<!-- Node12 -->
<g id="node12" class="node">
<title>Node12</title>
<g id="a_node12"><a xlink:href="_socket_connection_factory_8h.html" target="_top" xlink:title=" ">
<polygon fill="white" stroke="black" points="783.5,-313.5 783.5,-343.5 933.5,-343.5 933.5,-313.5 783.5,-313.5"/>
<text text-anchor="start" x="791.5" y="-331.5" font-family="Helvetica,sans-Serif" font-size="10.00">core/socket/stream</text>
<text text-anchor="middle" x="858.5" y="-320.5" font-family="Helvetica,sans-Serif" font-size="10.00">/SocketConnectionFactory.h</text>
</a>
</g>
</g>
<!-- Node6&#45;&gt;Node12 -->
<g id="edge12" class="edge">
<title>Node6&#45;&gt;Node12</title>
<path fill="none" stroke="midnightblue" d="M858.5,-380.4C858.5,-372.64 858.5,-362.81 858.5,-353.86"/>
<polygon fill="midnightblue" stroke="midnightblue" points="862,-353.58 858.5,-343.58 855,-353.58 862,-353.58"/>
</g>
<!-- Node13 -->
<g id="node13" class="node">
<title>Node13</title>
<g id="a_node13"><a xlink:href="_config_cluster_8h.html" target="_top" xlink:title=" ">
<polygon fill="white" stroke="black" points="952,-319 952,-338 1095,-338 1095,-319 952,-319"/>
<text text-anchor="middle" x="1023.5" y="-326" font-family="Helvetica,sans-Serif" font-size="10.00">net/config/ConfigCluster.h</text>
</a>
</g>
</g>
<!-- Node6&#45;&gt;Node13 -->
<g id="edge13" class="edge">
<title>Node6&#45;&gt;Node13</title>
<path fill="none" stroke="midnightblue" d="M894.3,-380.4C923.51,-368.89 964.36,-352.8 992.26,-341.81"/>
<polygon fill="midnightblue" stroke="midnightblue" points="993.88,-344.93 1001.91,-338.01 991.32,-338.42 993.88,-344.93"/>
</g>
<!-- Node15 -->
<g id="node15" class="node">
<title>Node15</title>
<g id="a_node15"><a xlink:href="net_2un_2dgram_2_socket_8h.html" target="_top" xlink:title=" ">
<polygon fill="white" stroke="black" points="1151.5,-319 1151.5,-338 1277.5,-338 1277.5,-319 1151.5,-319"/>
<text text-anchor="middle" x="1214.5" y="-326" font-family="Helvetica,sans-Serif" font-size="10.00">net/un/dgram/Socket.h</text>
</a>
</g>
</g>
<!-- Node6&#45;&gt;Node15 -->
<g id="edge15" class="edge">
<title>Node6&#45;&gt;Node15</title>
<path fill="none" stroke="midnightblue" d="M913.73,-384.42C980.15,-372.29 1091.01,-352.05 1157.98,-339.82"/>
<polygon fill="midnightblue" stroke="midnightblue" points="1158.73,-343.24 1167.94,-338 1157.47,-336.35 1158.73,-343.24"/>
</g>
<!-- Node8 -->
<g id="node8" class="node">
<title>Node8</title>
<g id="a_node8"><a xlink:href="_descriptor_event_receiver_8h.html" target="_top" xlink:title=" ">
<polygon fill="white" stroke="black" points="445.5,-118 445.5,-137 615.5,-137 615.5,-118 445.5,-118"/>
<text text-anchor="middle" x="530.5" y="-125" font-family="Helvetica,sans-Serif" font-size="10.00">core/DescriptorEventReceiver.h</text>
</a>
</g>
</g>
<!-- Node7&#45;&gt;Node8 -->
<g id="edge7" class="edge">
<title>Node7&#45;&gt;Node8</title>
<path fill="none" stroke="midnightblue" d="M633.07,-179.4C610.39,-168.14 578.87,-152.5 556.78,-141.54"/>
<polygon fill="midnightblue" stroke="midnightblue" points="558.16,-138.32 547.64,-137.01 555.05,-144.59 558.16,-138.32"/>
</g>
<!-- Node9 -->
<g id="node9" class="node">
<title>Node9</title>
<g id="a_node9"><a xlink:href="_event_receiver_8h.html" target="_top" xlink:title=" ">
<polygon fill="white" stroke="black" points="587.5,-56.5 587.5,-75.5 683.5,-75.5 683.5,-56.5 587.5,-56.5"/>
<text text-anchor="middle" x="635.5" y="-63.5" font-family="Helvetica,sans-Serif" font-size="10.00">EventReceiver.h</text>
</a>
</g>
</g>
<!-- Node8&#45;&gt;Node9 -->
<g id="edge8" class="edge">
<title>Node8&#45;&gt;Node9</title>
<path fill="none" stroke="midnightblue" d="M545.54,-117.98C562.78,-108.21 591.24,-92.08 611.53,-80.58"/>
<polygon fill="midnightblue" stroke="midnightblue" points="613.51,-83.48 620.48,-75.51 610.06,-77.39 613.51,-83.48"/>
</g>
<!-- Node10 -->
<g id="node10" class="node">
<title>Node10</title>
<g id="a_node10"><a xlink:href="_event_8h.html" target="_top" xlink:title=" ">
<polygon fill="white" stroke="black" points="597,-0.5 597,-19.5 674,-19.5 674,-0.5 597,-0.5"/>
<text text-anchor="middle" x="635.5" y="-7.5" font-family="Helvetica,sans-Serif" font-size="10.00">core/Event.h</text>
</a>
</g>
</g>
<!-- Node9&#45;&gt;Node10 -->
<g id="edge9" class="edge">
<title>Node9&#45;&gt;Node10</title>
<path fill="none" stroke="midnightblue" d="M635.5,-56.08C635.5,-49.01 635.5,-38.86 635.5,-29.99"/>
<polygon fill="midnightblue" stroke="midnightblue" points="639,-29.75 635.5,-19.75 632,-29.75 639,-29.75"/>
</g>
<!-- Node11&#45;&gt;Node9 -->
<g id="edge11" class="edge">
<title>Node11&#45;&gt;Node9</title>
<path fill="none" stroke="midnightblue" d="M702.65,-112.4C688.8,-103.04 670.69,-90.79 656.76,-81.38"/>
<polygon fill="midnightblue" stroke="midnightblue" points="658.55,-78.36 648.3,-75.66 654.63,-84.16 658.55,-78.36"/>
</g>
<!-- Node14 -->
<g id="node14" class="node">
<title>Node14</title>
<g id="a_node14"><a xlink:href="_config_base_8h.html" target="_top" xlink:title=" ">
<polygon fill="white" stroke="black" points="1239,-252 1239,-271 1372,-271 1372,-252 1239,-252"/>
<text text-anchor="middle" x="1305.5" y="-259" font-family="Helvetica,sans-Serif" font-size="10.00">net/config/ConfigBase.h</text>
</a>
</g>
</g>
<!-- Node13&#45;&gt;Node14 -->
<g id="edge14" class="edge">
<title>Node13&#45;&gt;Node14</title>
<path fill="none" stroke="midnightblue" d="M1060.66,-318.94C1111.48,-307.22 1202.71,-286.19 1258.31,-273.38"/>
<polygon fill="midnightblue" stroke="midnightblue" points="1259.3,-276.74 1268.26,-271.08 1257.73,-269.92 1259.3,-276.74"/>
</g>
<!-- Node16 -->
<g id="node16" class="node">
<title>Node16</title>
<g id="a_node16"><a xlink:href="net_2un_2_socket_8h.html" target="_top" xlink:title=" ">
<polygon fill="white" stroke="black" points="1450.5,-252 1450.5,-271 1542.5,-271 1542.5,-252 1450.5,-252"/>
<text text-anchor="middle" x="1496.5" y="-259" font-family="Helvetica,sans-Serif" font-size="10.00">net/un/Socket.h</text>
</a>
</g>
</g>
<!-- Node15&#45;&gt;Node16 -->
<g id="edge16" class="edge">
<title>Node15&#45;&gt;Node16</title>
<path fill="none" stroke="midnightblue" d="M1251.66,-318.94C1302.48,-307.22 1393.71,-286.19 1449.31,-273.38"/>
<polygon fill="midnightblue" stroke="midnightblue" points="1450.3,-276.74 1459.26,-271.08 1448.73,-269.92 1450.3,-276.74"/>
</g>
<!-- Node17 -->
<g id="node17" class="node">
<title>Node17</title>
<g id="a_node17"><a xlink:href="net_2_socket_8h.html" target="_top" xlink:title=" ">
<polygon fill="white" stroke="black" points="1458,-185 1458,-204 1535,-204 1535,-185 1458,-185"/>
<text text-anchor="middle" x="1496.5" y="-192" font-family="Helvetica,sans-Serif" font-size="10.00">net/Socket.h</text>
</a>
</g>
</g>
<!-- Node16&#45;&gt;Node17 -->
<g id="edge17" class="edge">
<title>Node16&#45;&gt;Node17</title>
<path fill="none" stroke="midnightblue" d="M1496.5,-251.73C1496.5,-242.18 1496.5,-226.62 1496.5,-214.28"/>
<polygon fill="midnightblue" stroke="midnightblue" points="1500,-214.13 1496.5,-204.13 1493,-214.13 1500,-214.13"/>
</g>
<!-- Node20 -->
<g id="node20" class="node">
<title>Node20</title>
<g id="a_node20"><a xlink:href="un_2_socket_address_8h.html" target="_top" xlink:title=" ">
<polygon fill="white" stroke="black" points="1571,-185 1571,-204 1702,-204 1702,-185 1571,-185"/>
<text text-anchor="middle" x="1636.5" y="-192" font-family="Helvetica,sans-Serif" font-size="10.00">net/un/SocketAddress.h</text>
</a>
</g>
</g>
<!-- Node16&#45;&gt;Node20 -->
<g id="edge20" class="edge">
<title>Node16&#45;&gt;Node20</title>
<path fill="none" stroke="midnightblue" d="M1515.09,-251.87C1539.04,-240.75 1580.89,-221.32 1608.65,-208.43"/>
<polygon fill="midnightblue" stroke="midnightblue" points="1610.24,-211.55 1617.83,-204.17 1607.29,-205.2 1610.24,-211.55"/>
</g>
<!-- Node18 -->
<g id="node18" class="node">
<title>Node18</title>
<g id="a_node18"><a xlink:href="core_2socket_2_socket_8h.html" target="_top" xlink:title=" ">
<polygon fill="white" stroke="black" points="1438.5,-118 1438.5,-137 1554.5,-137 1554.5,-118 1438.5,-118"/>
<text text-anchor="middle" x="1496.5" y="-125" font-family="Helvetica,sans-Serif" font-size="10.00">core/socket/Socket.h</text>
</a>
</g>
</g>
<!-- Node17&#45;&gt;Node18 -->
<g id="edge18" class="edge">
<title>Node17&#45;&gt;Node18</title>
<path fill="none" stroke="midnightblue" d="M1496.5,-184.73C1496.5,-175.18 1496.5,-159.62 1496.5,-147.28"/>
<polygon fill="midnightblue" stroke="midnightblue" points="1500,-147.13 1496.5,-137.13 1493,-147.13 1500,-147.13"/>
</g>
<!-- Node19 -->
<g id="node19" class="node">
<title>Node19</title>
<g id="a_node19"><a xlink:href="_descriptor_8h.html" target="_top" xlink:title=" ">
<polygon fill="white" stroke="black" points="1446.5,-56.5 1446.5,-75.5 1546.5,-75.5 1546.5,-56.5 1446.5,-56.5"/>
<text text-anchor="middle" x="1496.5" y="-63.5" font-family="Helvetica,sans-Serif" font-size="10.00">core/Descriptor.h</text>
</a>
</g>
</g>
<!-- Node18&#45;&gt;Node19 -->
<g id="edge19" class="edge">
<title>Node18&#45;&gt;Node19</title>
<path fill="none" stroke="midnightblue" d="M1496.5,-117.98C1496.5,-109.58 1496.5,-96.48 1496.5,-85.66"/>
<polygon fill="midnightblue" stroke="midnightblue" points="1500,-85.51 1496.5,-75.51 1493,-85.51 1500,-85.51"/>
</g>
<!-- Node21 -->
<g id="node21" class="node">
<title>Node21</title>
<g id="a_node21"><a xlink:href="_socket_address_8h.html" target="_top" xlink:title=" ">
<polygon fill="white" stroke="black" points="1578.5,-118 1578.5,-137 1694.5,-137 1694.5,-118 1578.5,-118"/>
<text text-anchor="middle" x="1636.5" y="-125" font-family="Helvetica,sans-Serif" font-size="10.00">net/SocketAddress.h</text>
</a>
</g>
</g>
<!-- Node20&#45;&gt;Node21 -->
<g id="edge21" class="edge">
<title>Node20&#45;&gt;Node21</title>
<path fill="none" stroke="midnightblue" d="M1636.5,-184.73C1636.5,-175.18 1636.5,-159.62 1636.5,-147.28"/>
<polygon fill="midnightblue" stroke="midnightblue" points="1640,-147.13 1636.5,-137.13 1633,-147.13 1640,-147.13"/>
</g>
<!-- Node23 -->
<g id="node23" class="node">
<title>Node23</title>
<g id="a_node23"><a xlink:href="stream_2_socket_connection_8h.html" target="_top" xlink:title=" ">
<polygon fill="white" stroke="black" points="107.5,-313.5 107.5,-343.5 223.5,-343.5 223.5,-313.5 107.5,-313.5"/>
<text text-anchor="start" x="115.5" y="-331.5" font-family="Helvetica,sans-Serif" font-size="10.00">core/socket/stream</text>
<text text-anchor="middle" x="165.5" y="-320.5" font-family="Helvetica,sans-Serif" font-size="10.00">/SocketConnection.h</text>
</a>
</g>
</g>
<!-- Node22&#45;&gt;Node23 -->
<g id="edge23" class="edge">
<title>Node22&#45;&gt;Node23</title>
<path fill="none" stroke="midnightblue" d="M439.94,-381.97C380.75,-370.65 293.97,-354.06 233.91,-342.58"/>
<polygon fill="midnightblue" stroke="midnightblue" points="234.25,-339.08 223.77,-340.64 232.93,-345.95 234.25,-339.08"/>
</g>
<!-- Node25 -->
<g id="node25" class="node">
<title>Node25</title>
<g id="a_node25"><a xlink:href="tls_2_socket_reader_8h.html" target="_top" xlink:title=" ">
<polygon fill="white" stroke="black" points="320.5,-313.5 320.5,-343.5 430.5,-343.5 430.5,-313.5 320.5,-313.5"/>
<text text-anchor="start" x="328.5" y="-331.5" font-family="Helvetica,sans-Serif" font-size="10.00">core/socket/stream</text>
<text text-anchor="middle" x="375.5" y="-320.5" font-family="Helvetica,sans-Serif" font-size="10.00">/tls/SocketReader.h</text>
</a>
</g>
</g>
<!-- Node22&#45;&gt;Node25 -->
<g id="edge25" class="edge">
<title>Node22&#45;&gt;Node25</title>
<path fill="none" stroke="midnightblue" d="M477.29,-380.4C458.38,-370.94 433.28,-358.39 412.73,-348.12"/>
<polygon fill="midnightblue" stroke="midnightblue" points="414.16,-344.92 403.65,-343.58 411.03,-351.18 414.16,-344.92"/>
</g>
<!-- Node30 -->
<g id="node30" class="node">
<title>Node30</title>
<g id="a_node30"><a xlink:href="tls_2_socket_writer_8h.html" target="_top" xlink:title=" ">
<polygon fill="white" stroke="black" points="450.5,-313.5 450.5,-343.5 560.5,-343.5 560.5,-313.5 450.5,-313.5"/>
<text text-anchor="start" x="458.5" y="-331.5" font-family="Helvetica,sans-Serif" font-size="10.00">core/socket/stream</text>
<text text-anchor="middle" x="505.5" y="-320.5" font-family="Helvetica,sans-Serif" font-size="10.00">/tls/SocketWriter.h</text>
</a>
</g>
</g>
<!-- Node22&#45;&gt;Node30 -->
<g id="edge33" class="edge">
<title>Node22&#45;&gt;Node30</title>
<path fill="none" stroke="midnightblue" d="M505.5,-380.4C505.5,-372.64 505.5,-362.81 505.5,-353.86"/>
<polygon fill="midnightblue" stroke="midnightblue" points="509,-353.58 505.5,-343.58 502,-353.58 509,-353.58"/>
</g>
<!-- Node32 -->
<g id="node32" class="node">
<title>Node32</title>
<g id="a_node32"><a xlink:href="_t_l_s_shutdown_8h.html" target="_top" xlink:title=" ">
<polygon fill="white" stroke="black" points="579.5,-246.5 579.5,-276.5 689.5,-276.5 689.5,-246.5 579.5,-246.5"/>
<text text-anchor="start" x="587.5" y="-264.5" font-family="Helvetica,sans-Serif" font-size="10.00">core/socket/stream</text>
<text text-anchor="middle" x="634.5" y="-253.5" font-family="Helvetica,sans-Serif" font-size="10.00">/tls/TLSShutdown.h</text>
</a>
</g>
</g>
<!-- Node22&#45;&gt;Node32 -->
<g id="edge37" class="edge">
<title>Node22&#45;&gt;Node32</title>
<path fill="none" stroke="midnightblue" d="M525.8,-380.35C538.9,-370.78 555.95,-357.48 569.5,-344 588.07,-325.52 606.43,-301.88 618.87,-284.82"/>
<polygon fill="midnightblue" stroke="midnightblue" points="621.81,-286.73 624.81,-276.57 616.13,-282.64 621.81,-286.73"/>
</g>
<!-- Node24 -->
<g id="node24" class="node">
<title>Node24</title>
<g id="a_node24"><a xlink:href="_socket_connection_8h.html" target="_top" xlink:title=" ">
<polygon fill="white" stroke="black" points="0,-252 0,-271 171,-271 171,-252 0,-252"/>
<text text-anchor="middle" x="85.5" y="-259" font-family="Helvetica,sans-Serif" font-size="10.00">core/socket/SocketConnection.h</text>
</a>
</g>
</g>
<!-- Node23&#45;&gt;Node24 -->
<g id="edge24" class="edge">
<title>Node23&#45;&gt;Node24</title>
<path fill="none" stroke="midnightblue" d="M148.14,-313.4C135.17,-302.86 117.47,-288.48 104.19,-277.69"/>
<polygon fill="midnightblue" stroke="midnightblue" points="106.17,-274.78 96.2,-271.19 101.76,-280.22 106.17,-274.78"/>
</g>
<!-- Node26 -->
<g id="node26" class="node">
<title>Node26</title>
<g id="a_node26"><a xlink:href="_socket_reader_8h.html" target="_top" xlink:title=" ">
<polygon fill="white" stroke="black" points="189.5,-246.5 189.5,-276.5 299.5,-276.5 299.5,-246.5 189.5,-246.5"/>
<text text-anchor="start" x="197.5" y="-264.5" font-family="Helvetica,sans-Serif" font-size="10.00">core/socket/stream</text>
<text text-anchor="middle" x="244.5" y="-253.5" font-family="Helvetica,sans-Serif" font-size="10.00">/SocketReader.h</text>
</a>
</g>
</g>
<!-- Node25&#45;&gt;Node26 -->
<g id="edge26" class="edge">
<title>Node25&#45;&gt;Node26</title>
<path fill="none" stroke="midnightblue" d="M347.07,-313.4C328.02,-303.94 302.72,-291.39 282.02,-281.12"/>
<polygon fill="midnightblue" stroke="midnightblue" points="283.38,-277.89 272.87,-276.58 280.27,-284.16 283.38,-277.89"/>
</g>
<!-- Node28 -->
<g id="node28" class="node">
<title>Node28</title>
<g id="a_node28"><a xlink:href="_t_l_s_handshake_8h.html" target="_top" xlink:title=" ">
<polygon fill="white" stroke="black" points="318,-246.5 318,-276.5 433,-276.5 433,-246.5 318,-246.5"/>
<text text-anchor="start" x="326" y="-264.5" font-family="Helvetica,sans-Serif" font-size="10.00">core/socket/stream</text>
<text text-anchor="middle" x="375.5" y="-253.5" font-family="Helvetica,sans-Serif" font-size="10.00">/tls/TLSHandshake.h</text>
</a>
</g>
</g>
<!-- Node25&#45;&gt;Node28 -->
<g id="edge29" class="edge">
<title>Node25&#45;&gt;Node28</title>
<path fill="none" stroke="midnightblue" d="M375.5,-313.4C375.5,-305.64 375.5,-295.81 375.5,-286.86"/>
<polygon fill="midnightblue" stroke="midnightblue" points="379,-286.58 375.5,-276.58 372,-286.58 379,-286.58"/>
</g>
<!-- Node27 -->
<g id="node27" class="node">
<title>Node27</title>
<g id="a_node27"><a xlink:href="_read_event_receiver_8h.html" target="_top" xlink:title=" ">
<polygon fill="white" stroke="black" points="309.5,-179.5 309.5,-209.5 433.5,-209.5 433.5,-179.5 309.5,-179.5"/>
<text text-anchor="start" x="317.5" y="-197.5" font-family="Helvetica,sans-Serif" font-size="10.00">core/eventreceiver</text>
<text text-anchor="middle" x="371.5" y="-186.5" font-family="Helvetica,sans-Serif" font-size="10.00">/ReadEventReceiver.h</text>
</a>
</g>
</g>
<!-- Node26&#45;&gt;Node27 -->
<g id="edge27" class="edge">
<title>Node26&#45;&gt;Node27</title>
<path fill="none" stroke="midnightblue" d="M272.06,-246.4C290.45,-236.98 314.83,-224.5 334.85,-214.26"/>
<polygon fill="midnightblue" stroke="midnightblue" points="336.69,-217.25 344,-209.58 333.5,-211.02 336.69,-217.25"/>
</g>
<!-- Node27&#45;&gt;Node8 -->
<g id="edge28" class="edge">
<title>Node27&#45;&gt;Node8</title>
<path fill="none" stroke="midnightblue" d="M406,-179.4C434.15,-167.89 473.51,-151.8 500.39,-140.81"/>
<polygon fill="midnightblue" stroke="midnightblue" points="501.76,-144.03 509.69,-137.01 499.11,-137.55 501.76,-144.03"/>
</g>
<!-- Node28&#45;&gt;Node27 -->
<g id="edge30" class="edge">
<title>Node28&#45;&gt;Node27</title>
<path fill="none" stroke="midnightblue" d="M374.63,-246.4C374.15,-238.56 373.54,-228.6 372.98,-219.57"/>
<polygon fill="midnightblue" stroke="midnightblue" points="376.47,-219.34 372.37,-209.58 369.49,-219.77 376.47,-219.34"/>
</g>
<!-- Node29 -->
<g id="node29" class="node">
<title>Node29</title>
<g id="a_node29"><a xlink:href="_write_event_receiver_8h.html" target="_top" xlink:title=" ">
<polygon fill="white" stroke="black" points="452,-179.5 452,-209.5 577,-209.5 577,-179.5 452,-179.5"/>
<text text-anchor="start" x="460" y="-197.5" font-family="Helvetica,sans-Serif" font-size="10.00">core/eventreceiver</text>
<text text-anchor="middle" x="514.5" y="-186.5" font-family="Helvetica,sans-Serif" font-size="10.00">/WriteEventReceiver.h</text>
</a>
</g>
</g>
<!-- Node28&#45;&gt;Node29 -->
<g id="edge31" class="edge">
<title>Node28&#45;&gt;Node29</title>
<path fill="none" stroke="midnightblue" d="M405.66,-246.4C426.06,-236.86 453.2,-224.16 475.28,-213.84"/>
<polygon fill="midnightblue" stroke="midnightblue" points="476.82,-216.98 484.4,-209.58 473.86,-210.64 476.82,-216.98"/>
</g>
<!-- Node29&#45;&gt;Node8 -->
<g id="edge32" class="edge">
<title>Node29&#45;&gt;Node8</title>
<path fill="none" stroke="midnightblue" d="M517.97,-179.4C520.29,-169.96 523.37,-157.45 525.9,-147.19"/>
<polygon fill="midnightblue" stroke="midnightblue" points="529.37,-147.74 528.36,-137.19 522.57,-146.07 529.37,-147.74"/>
</g>
<!-- Node30&#45;&gt;Node28 -->
<g id="edge36" class="edge">
<title>Node30&#45;&gt;Node28</title>
<path fill="none" stroke="midnightblue" d="M477.29,-313.4C458.38,-303.94 433.28,-291.39 412.73,-281.12"/>
<polygon fill="midnightblue" stroke="midnightblue" points="414.16,-277.92 403.65,-276.58 411.03,-284.18 414.16,-277.92"/>
</g>
<!-- Node31 -->
<g id="node31" class="node">
<title>Node31</title>
<g id="a_node31"><a xlink:href="_socket_writer_8h.html" target="_top" xlink:title=" ">
<polygon fill="white" stroke="black" points="451.5,-246.5 451.5,-276.5 561.5,-276.5 561.5,-246.5 451.5,-246.5"/>
<text text-anchor="start" x="459.5" y="-264.5" font-family="Helvetica,sans-Serif" font-size="10.00">core/socket/stream</text>
<text text-anchor="middle" x="506.5" y="-253.5" font-family="Helvetica,sans-Serif" font-size="10.00">/SocketWriter.h</text>
</a>
</g>
</g>
<!-- Node30&#45;&gt;Node31 -->
<g id="edge34" class="edge">
<title>Node30&#45;&gt;Node31</title>
<path fill="none" stroke="midnightblue" d="M505.72,-313.4C505.84,-305.64 505.99,-295.81 506.13,-286.86"/>
<polygon fill="midnightblue" stroke="midnightblue" points="509.63,-286.63 506.28,-276.58 502.63,-286.52 509.63,-286.63"/>
</g>
<!-- Node31&#45;&gt;Node29 -->
<g id="edge35" class="edge">
<title>Node31&#45;&gt;Node29</title>
<path fill="none" stroke="midnightblue" d="M508.24,-246.4C509.2,-238.56 510.43,-228.6 511.54,-219.57"/>
<polygon fill="midnightblue" stroke="midnightblue" points="515.02,-219.93 512.77,-209.58 508.07,-219.07 515.02,-219.93"/>
</g>
<!-- Node32&#45;&gt;Node27 -->
<g id="edge38" class="edge">
<title>Node32&#45;&gt;Node27</title>
<path fill="none" stroke="midnightblue" d="M579.37,-246.87C538.28,-236.72 481.98,-222.81 438.33,-212.02"/>
<polygon fill="midnightblue" stroke="midnightblue" points="438.92,-208.56 428.38,-209.56 437.25,-215.35 438.92,-208.56"/>
</g>
<!-- Node32&#45;&gt;Node29 -->
<g id="edge39" class="edge">
<title>Node32&#45;&gt;Node29</title>
<path fill="none" stroke="midnightblue" d="M608.46,-246.4C591.16,-237.03 568.25,-224.62 549.38,-214.39"/>
<polygon fill="midnightblue" stroke="midnightblue" points="550.95,-211.26 540.49,-209.58 547.61,-217.42 550.95,-211.26"/>
</g>
<!-- Node34 -->
<g id="node34" class="node">
<title>Node34</title>
<g id="a_node34"><a xlink:href="net_2stream_2_socket_server_8h.html" target="_top" xlink:title=" ">
<polygon fill="white" stroke="black" points="1828.5,-453 1828.5,-472 1974.5,-472 1974.5,-453 1828.5,-453"/>
<text text-anchor="middle" x="1901.5" y="-460" font-family="Helvetica,sans-Serif" font-size="10.00">net/stream/SocketServer.h</text>
</a>
</g>
</g>
<!-- Node33&#45;&gt;Node34 -->
<g id="edge41" class="edge">
<title>Node33&#45;&gt;Node34</title>
<path fill="none" stroke="midnightblue" d="M1749.74,-519.87C1780.29,-508.52 1834.13,-488.52 1868.78,-475.65"/>
<polygon fill="midnightblue" stroke="midnightblue" points="1870.29,-478.83 1878.44,-472.06 1867.85,-472.26 1870.29,-478.83"/>
</g>
<!-- Node36 -->
<g id="node36" class="node">
<title>Node36</title>
<g id="a_node36"><a xlink:href="un_2stream_2_server_socket_8h.html" target="_top" xlink:title=" ">
<polygon fill="white" stroke="black" points="1649,-453 1649,-472 1810,-472 1810,-453 1649,-453"/>
<text text-anchor="middle" x="1729.5" y="-460" font-family="Helvetica,sans-Serif" font-size="10.00">net/un/stream/ServerSocket.h</text>
</a>
</g>
</g>
<!-- Node33&#45;&gt;Node36 -->
<g id="edge43" class="edge">
<title>Node33&#45;&gt;Node36</title>
<path fill="none" stroke="midnightblue" d="M1726.9,-519.73C1727.35,-510.18 1728.06,-494.62 1728.63,-482.28"/>
<polygon fill="midnightblue" stroke="midnightblue" points="1732.14,-482.28 1729.1,-472.13 1725.14,-481.96 1732.14,-482.28"/>
</g>
<!-- Node35 -->
<g id="node35" class="node">
<title>Node35</title>
<g id="a_node35"><a xlink:href="_socket_config_8h.html" target="_top" xlink:title=" ">
<polygon fill="white" stroke="black" points="1993.5,-386 1993.5,-405 2101.5,-405 2101.5,-386 1993.5,-386"/>
<text text-anchor="middle" x="2047.5" y="-393" font-family="Helvetica,sans-Serif" font-size="10.00">net/SocketConfig.h</text>
</a>
</g>
</g>
<!-- Node34&#45;&gt;Node35 -->
<g id="edge42" class="edge">
<title>Node34&#45;&gt;Node35</title>
<path fill="none" stroke="midnightblue" d="M1920.89,-452.87C1945.98,-441.7 1989.89,-422.15 2018.84,-409.26"/>
<polygon fill="midnightblue" stroke="midnightblue" points="2020.32,-412.43 2028.03,-405.17 2017.47,-406.04 2020.32,-412.43"/>
</g>
<!-- Node37 -->
<g id="node37" class="node">
<title>Node37</title>
<g id="a_node37"><a xlink:href="stream_2_server_socket_8h.html" target="_top" xlink:title=" ">
<polygon fill="white" stroke="black" points="1818.5,-386 1818.5,-405 1964.5,-405 1964.5,-386 1818.5,-386"/>
<text text-anchor="middle" x="1891.5" y="-393" font-family="Helvetica,sans-Serif" font-size="10.00">net/stream/ServerSocket.h</text>
</a>
</g>
</g>
<!-- Node36&#45;&gt;Node37 -->
<g id="edge44" class="edge">
<title>Node36&#45;&gt;Node37</title>
<path fill="none" stroke="midnightblue" d="M1751.01,-452.87C1779.17,-441.57 1828.7,-421.7 1860.8,-408.82"/>
<polygon fill="midnightblue" stroke="midnightblue" points="1862.18,-412.04 1870.16,-405.06 1859.57,-405.54 1862.18,-412.04"/>
</g>
<!-- Node38 -->
<g id="node38" class="node">
<title>Node38</title>
<g id="a_node38"><a xlink:href="net_2un_2stream_2_socket_8h.html" target="_top" xlink:title=" ">
<polygon fill="white" stroke="black" points="1671,-386 1671,-405 1800,-405 1800,-386 1671,-386"/>
<text text-anchor="middle" x="1735.5" y="-393" font-family="Helvetica,sans-Serif" font-size="10.00">net/un/stream/Socket.h</text>
</a>
</g>
</g>
<!-- Node36&#45;&gt;Node38 -->
<g id="edge45" class="edge">
<title>Node36&#45;&gt;Node38</title>
<path fill="none" stroke="midnightblue" d="M1730.31,-452.73C1731.19,-443.18 1732.63,-427.62 1733.77,-415.28"/>
<polygon fill="midnightblue" stroke="midnightblue" points="1737.27,-415.41 1734.7,-405.13 1730.3,-414.76 1737.27,-415.41"/>
</g>
<!-- Node38&#45;&gt;Node16 -->
<g id="edge46" class="edge">
<title>Node38&#45;&gt;Node16</title>
<path fill="none" stroke="midnightblue" d="M1719.82,-385.84C1679.12,-363.36 1569.9,-303.04 1520.89,-275.97"/>
<polygon fill="midnightblue" stroke="midnightblue" points="1522.37,-272.79 1511.93,-271.02 1518.99,-278.92 1522.37,-272.79"/>
</g>
<!-- Node40 -->
<g id="node40" class="node">
<title>Node40</title>
<g id="a_node40"><a xlink:href="_config_tls_8h.html" target="_top" xlink:title=" ">
<polygon fill="white" stroke="black" points="1165,-453 1165,-472 1288,-472 1288,-453 1165,-453"/>
<text text-anchor="middle" x="1226.5" y="-460" font-family="Helvetica,sans-Serif" font-size="10.00">net/config/ConfigTls.h</text>
</a>
</g>
</g>
<!-- Node39&#45;&gt;Node40 -->
<g id="edge48" class="edge">
<title>Node39&#45;&gt;Node40</title>
<path fill="none" stroke="midnightblue" d="M1352.57,-514.4C1324.07,-502.89 1284.21,-486.8 1256.98,-475.81"/>
<polygon fill="midnightblue" stroke="midnightblue" points="1258.15,-472.51 1247.57,-472.01 1255.53,-479 1258.15,-472.51"/>
</g>
<!-- Node41 -->
<g id="node41" class="node">
<title>Node41</title>
<g id="a_node41"><a xlink:href="un_2stream_2config_2_config_socket_server_8h.html" target="_top" xlink:title=" ">
<polygon fill="white" stroke="black" points="1325.5,-447.5 1325.5,-477.5 1449.5,-477.5 1449.5,-447.5 1325.5,-447.5"/>
<text text-anchor="start" x="1333.5" y="-465.5" font-family="Helvetica,sans-Serif" font-size="10.00">net/un/stream/config</text>
<text text-anchor="middle" x="1387.5" y="-454.5" font-family="Helvetica,sans-Serif" font-size="10.00">/ConfigSocketServer.h</text>
</a>
</g>
</g>
<!-- Node39&#45;&gt;Node41 -->
<g id="edge50" class="edge">
<title>Node39&#45;&gt;Node41</title>
<path fill="none" stroke="midnightblue" d="M1387.5,-514.4C1387.5,-506.64 1387.5,-496.81 1387.5,-487.86"/>
<polygon fill="midnightblue" stroke="midnightblue" points="1391,-487.58 1387.5,-477.58 1384,-487.58 1391,-487.58"/>
</g>
<!-- Node40&#45;&gt;Node14 -->
<g id="edge49" class="edge">
<title>Node40&#45;&gt;Node14</title>
<path fill="none" stroke="midnightblue" d="M1189.18,-452.88C1167.1,-445.66 1140.9,-432.88 1127.5,-411 1113.99,-388.94 1135.59,-320.49 1142.5,-313 1164.71,-288.93 1198.13,-276.24 1228.94,-269.58"/>
<polygon fill="midnightblue" stroke="midnightblue" points="1229.7,-272.99 1238.83,-267.62 1228.34,-266.13 1229.7,-272.99"/>
</g>
<!-- Node41&#45;&gt;Node13 -->
<g id="edge54" class="edge">
<title>Node41&#45;&gt;Node13</title>
<path fill="none" stroke="midnightblue" d="M1325.21,-450.98C1254.1,-438.72 1145.28,-419.12 1127.5,-411 1091.89,-394.75 1057.55,-363.95 1038.61,-345.22"/>
<polygon fill="midnightblue" stroke="midnightblue" points="1040.99,-342.66 1031.47,-338.01 1036.02,-347.58 1040.99,-342.66"/>
</g>
<!-- Node42 -->
<g id="node42" class="node">
<title>Node42</title>
<g id="a_node42"><a xlink:href="_config_address_local_8h.html" target="_top" xlink:title=" ">
<polygon fill="white" stroke="black" points="1475,-380.5 1475,-410.5 1614,-410.5 1614,-380.5 1475,-380.5"/>
<text text-anchor="start" x="1483" y="-398.5" font-family="Helvetica,sans-Serif" font-size="10.00">net/config/ConfigAddress</text>
<text text-anchor="middle" x="1544.5" y="-387.5" font-family="Helvetica,sans-Serif" font-size="10.00">Local.h</text>
</a>
</g>
</g>
<!-- Node41&#45;&gt;Node42 -->
<g id="edge51" class="edge">
<title>Node41&#45;&gt;Node42</title>
<path fill="none" stroke="midnightblue" d="M1421.57,-447.4C1444.92,-437.73 1476.09,-424.82 1501.2,-414.43"/>
<polygon fill="midnightblue" stroke="midnightblue" points="1502.6,-417.64 1510.5,-410.58 1499.92,-411.17 1502.6,-417.64"/>
</g>
<!-- Node44 -->
<g id="node44" class="node">
<title>Node44</title>
<g id="a_node44"><a xlink:href="_config_connection_8h.html" target="_top" xlink:title=" ">
<polygon fill="white" stroke="black" points="1136.5,-386 1136.5,-405 1300.5,-405 1300.5,-386 1136.5,-386"/>
<text text-anchor="middle" x="1218.5" y="-393" font-family="Helvetica,sans-Serif" font-size="10.00">net/config/ConfigConnection.h</text>
</a>
</g>
</g>
<!-- Node41&#45;&gt;Node44 -->
<g id="edge55" class="edge">
<title>Node41&#45;&gt;Node44</title>
<path fill="none" stroke="midnightblue" d="M1350.83,-447.4C1320.78,-435.84 1278.71,-419.66 1250.12,-408.66"/>
<polygon fill="midnightblue" stroke="midnightblue" points="1251.21,-405.33 1240.62,-405.01 1248.7,-411.86 1251.21,-405.33"/>
</g>
<!-- Node45 -->
<g id="node45" class="node">
<title>Node45</title>
<g id="a_node45"><a xlink:href="_config_listen_8h.html" target="_top" xlink:title=" ">
<polygon fill="white" stroke="black" points="1318.5,-386 1318.5,-405 1456.5,-405 1456.5,-386 1318.5,-386"/>
<text text-anchor="middle" x="1387.5" y="-393" font-family="Helvetica,sans-Serif" font-size="10.00">net/config/ConfigListen.h</text>
</a>
</g>
</g>
<!-- Node41&#45;&gt;Node45 -->
<g id="edge57" class="edge">
<title>Node41&#45;&gt;Node45</title>
<path fill="none" stroke="midnightblue" d="M1387.5,-447.4C1387.5,-438.06 1387.5,-425.71 1387.5,-415.52"/>
<polygon fill="midnightblue" stroke="midnightblue" points="1391,-415.19 1387.5,-405.19 1384,-415.19 1391,-415.19"/>
</g>
<!-- Node46 -->
<g id="node46" class="node">
<title>Node46</title>
<g id="a_node46"><a xlink:href="un_2config_2_config_address_8h.html" target="_top" xlink:title=" ">
<polygon fill="white" stroke="black" points="1561,-252 1561,-271 1724,-271 1724,-252 1561,-252"/>
<text text-anchor="middle" x="1642.5" y="-259" font-family="Helvetica,sans-Serif" font-size="10.00">net/un/config/ConfigAddress.h</text>
</a>
</g>
</g>
<!-- Node41&#45;&gt;Node46 -->
<g id="edge59" class="edge">
<title>Node41&#45;&gt;Node46</title>
<path fill="none" stroke="midnightblue" d="M1449.72,-456.14C1511.27,-449.49 1599.51,-435.85 1622.5,-411 1655.54,-375.28 1650.98,-312.49 1646.12,-281.25"/>
<polygon fill="midnightblue" stroke="midnightblue" points="1649.55,-280.53 1644.39,-271.28 1642.65,-281.73 1649.55,-280.53"/>
</g>
<!-- Node43 -->
<g id="node43" class="node">
<title>Node43</title>
<g id="a_node43"><a xlink:href="config_2_config_address_8h.html" target="_top" xlink:title=" ">
<polygon fill="white" stroke="black" points="1419.5,-319 1419.5,-338 1567.5,-338 1567.5,-319 1419.5,-319"/>
<text text-anchor="middle" x="1493.5" y="-326" font-family="Helvetica,sans-Serif" font-size="10.00">net/config/ConfigAddress.h</text>
</a>
</g>
</g>
<!-- Node42&#45;&gt;Node43 -->
<g id="edge52" class="edge">
<title>Node42&#45;&gt;Node43</title>
<path fill="none" stroke="midnightblue" d="M1533.43,-380.4C1525.56,-370.36 1514.95,-356.84 1506.65,-346.25"/>
<polygon fill="midnightblue" stroke="midnightblue" points="1509.25,-343.9 1500.32,-338.19 1503.74,-348.22 1509.25,-343.9"/>
</g>
<!-- Node43&#45;&gt;Node14 -->
<g id="edge53" class="edge">
<title>Node43&#45;&gt;Node14</title>
<path fill="none" stroke="midnightblue" d="M1468.54,-318.87C1435.58,-307.47 1377.38,-287.35 1340.17,-274.49"/>
<polygon fill="midnightblue" stroke="midnightblue" points="1340.86,-271.02 1330.27,-271.06 1338.58,-277.64 1340.86,-271.02"/>
</g>
<!-- Node44&#45;&gt;Node14 -->
<g id="edge56" class="edge">
<title>Node44&#45;&gt;Node14</title>
<path fill="none" stroke="midnightblue" d="M1236.37,-385.86C1251.99,-377.36 1274.08,-362.94 1286.5,-344 1298.99,-324.97 1303.3,-298.7 1304.78,-281.19"/>
<polygon fill="midnightblue" stroke="midnightblue" points="1308.28,-281.3 1305.39,-271.11 1301.29,-280.88 1308.28,-281.3"/>
</g>
<!-- Node45&#45;&gt;Node14 -->
<g id="edge58" class="edge">
<title>Node45&#45;&gt;Node14</title>
<path fill="none" stroke="midnightblue" d="M1382.12,-385.84C1368.74,-364.3 1333.77,-308 1316.07,-279.52"/>
<polygon fill="midnightblue" stroke="midnightblue" points="1319.04,-277.67 1310.79,-271.02 1313.1,-281.36 1319.04,-277.67"/>
</g>
<!-- Node46&#45;&gt;Node20 -->
<g id="edge60" class="edge">
<title>Node46&#45;&gt;Node20</title>
<path fill="none" stroke="midnightblue" d="M1641.69,-251.73C1640.81,-242.18 1639.37,-226.62 1638.23,-214.28"/>
<polygon fill="midnightblue" stroke="midnightblue" points="1641.7,-213.76 1637.3,-204.13 1634.73,-214.41 1641.7,-213.76"/>
</g>
<!-- Node47&#45;&gt;Node33 -->
<g id="edge66" class="edge">
<title>Node47&#45;&gt;Node33</title>
<path fill="none" stroke="midnightblue" d="M1726.5,-586.73C1726.5,-577.18 1726.5,-561.62 1726.5,-549.28"/>
<polygon fill="midnightblue" stroke="midnightblue" points="1730,-549.13 1726.5,-539.13 1723,-549.13 1730,-549.13"/>
</g>
<!-- Node48 -->
<g id="node48" class="node">
<title>Node48</title>
<g id="a_node48"><a xlink:href="stream_2_socket_server_8hpp.html" target="_top" xlink:title=" ">
<polygon fill="white" stroke="black" points="1825.5,-520 1825.5,-539 1983.5,-539 1983.5,-520 1825.5,-520"/>
<text text-anchor="middle" x="1904.5" y="-527" font-family="Helvetica,sans-Serif" font-size="10.00">net/stream/SocketServer.hpp</text>
</a>
</g>
</g>
<!-- Node47&#45;&gt;Node48 -->
<g id="edge62" class="edge">
<title>Node47&#45;&gt;Node48</title>
<path fill="none" stroke="midnightblue" d="M1750.14,-586.87C1781.21,-575.52 1835.97,-555.52 1871.22,-542.65"/>
<polygon fill="midnightblue" stroke="midnightblue" points="1872.86,-545.78 1881.05,-539.06 1870.45,-539.21 1872.86,-545.78"/>
</g>
<!-- Node48&#45;&gt;Node34 -->
<g id="edge65" class="edge">
<title>Node48&#45;&gt;Node34</title>
<path fill="none" stroke="midnightblue" d="M1904.1,-519.73C1903.65,-510.18 1902.94,-494.62 1902.37,-482.28"/>
<polygon fill="midnightblue" stroke="midnightblue" points="1905.86,-481.96 1901.9,-472.13 1898.86,-482.28 1905.86,-481.96"/>
</g>
<!-- Node49 -->
<g id="node49" class="node">
<title>Node49</title>
<g id="a_node49"><a xlink:href="_socket_config_8hpp.html" target="_top" xlink:title=" ">
<polygon fill="white" stroke="black" points="1992.5,-453 1992.5,-472 2112.5,-472 2112.5,-453 1992.5,-453"/>
<text text-anchor="middle" x="2052.5" y="-460" font-family="Helvetica,sans-Serif" font-size="10.00">net/SocketConfig.hpp</text>
</a>
</g>
</g>
<!-- Node48&#45;&gt;Node49 -->
<g id="edge63" class="edge">
<title>Node48&#45;&gt;Node49</title>
<path fill="none" stroke="midnightblue" d="M1924.15,-519.87C1949.59,-508.7 1994.1,-489.15 2023.45,-476.26"/>
<polygon fill="midnightblue" stroke="midnightblue" points="2025.02,-479.39 2032.77,-472.17 2022.2,-472.98 2025.02,-479.39"/>
</g>
<!-- Node49&#45;&gt;Node35 -->
<g id="edge64" class="edge">
<title>Node49&#45;&gt;Node35</title>
<path fill="none" stroke="midnightblue" d="M2051.83,-452.73C2051.09,-443.18 2049.89,-427.62 2048.94,-415.28"/>
<polygon fill="midnightblue" stroke="midnightblue" points="2052.42,-414.83 2048.16,-405.13 2045.44,-415.37 2052.42,-414.83"/>
</g>
</g>
</svg>
