<?xml version="1.0" encoding="UTF-8" standalone="no"?>
<!DOCTYPE svg PUBLIC "-//W3C//DTD SVG 1.1//EN"
 "http://www.w3.org/Graphics/SVG/1.1/DTD/svg11.dtd">
<!-- Generated by graphviz version 2.43.0 (0)
 -->
<!-- Title: net/un/SocketAddress.h Pages: 1 -->
<svg width="1522pt" height="408pt"
 viewBox="0.00 0.00 1521.50 408.00" xmlns="http://www.w3.org/2000/svg" xmlns:xlink="http://www.w3.org/1999/xlink">
<g id="graph0" class="graph" transform="scale(1 1) rotate(0) translate(4 404)">
<title>net/un/SocketAddress.h</title>
<polygon fill="white" stroke="transparent" points="-4,4 -4,-404 1517.5,-404 1517.5,4 -4,4"/>
<!-- Node1 -->
<g id="node1" class="node">
<title>Node1</title>
<g id="a_node1"><a xlink:title=" ">
<polygon fill="#bfbfbf" stroke="black" points="789,-380.5 789,-399.5 920,-399.5 920,-380.5 789,-380.5"/>
<text text-anchor="middle" x="854.5" y="-387.5" font-family="Helvetica,sans-Serif" font-size="10.00">net/un/SocketAddress.h</text>
</a>
</g>
</g>
<!-- Node2 -->
<g id="node2" class="node">
<title>Node2</title>
<g id="a_node2"><a xlink:href="un_2config_2_config_address_8h.html" target="_top" xlink:title=" ">
<polygon fill="white" stroke="black" points="552,-324.5 552,-343.5 715,-343.5 715,-324.5 552,-324.5"/>
<text text-anchor="middle" x="633.5" y="-331.5" font-family="Helvetica,sans-Serif" font-size="10.00">net/un/config/ConfigAddress.h</text>
</a>
</g>
</g>
<!-- Node1&#45;&gt;Node2 -->
<g id="edge1" class="edge">
<title>Node1&#45;&gt;Node2</title>
<path fill="none" stroke="midnightblue" d="M809.58,-378.02C767.83,-367.82 706.52,-352.84 668.35,-343.52"/>
<polygon fill="midnightblue" stroke="midnightblue" points="808.94,-381.47 819.48,-380.44 810.6,-374.67 808.94,-381.47"/>
</g>
<!-- Node26 -->
<g id="node26" class="node">
<title>Node26</title>
<g id="a_node26"><a xlink:href="un_2_socket_address_8cpp.html" target="_top" xlink:title=" ">
<polygon fill="white" stroke="black" points="783.5,-324.5 783.5,-343.5 925.5,-343.5 925.5,-324.5 783.5,-324.5"/>
<text text-anchor="middle" x="854.5" y="-331.5" font-family="Helvetica,sans-Serif" font-size="10.00">net/un/SocketAddress.cpp</text>
</a>
</g>
</g>
<!-- Node1&#45;&gt;Node26 -->
<g id="edge25" class="edge">
<title>Node1&#45;&gt;Node26</title>
<path fill="none" stroke="midnightblue" d="M854.5,-369.8C854.5,-360.91 854.5,-350.78 854.5,-343.75"/>
<polygon fill="midnightblue" stroke="midnightblue" points="851,-370.08 854.5,-380.08 858,-370.08 851,-370.08"/>
</g>
<!-- Node27 -->
<g id="node27" class="node">
<title>Node27</title>
<g id="a_node27"><a xlink:href="net_2un_2stream_2socket_8h.html" target="_top" xlink:title=" ">
<polygon fill="white" stroke="black" points="969,-324.5 969,-343.5 1098,-343.5 1098,-324.5 969,-324.5"/>
<text text-anchor="middle" x="1033.5" y="-331.5" font-family="Helvetica,sans-Serif" font-size="10.00">net/un/stream/Socket.h</text>
</a>
</g>
</g>
<!-- Node1&#45;&gt;Node27 -->
<g id="edge26" class="edge">
<title>Node1&#45;&gt;Node27</title>
<path fill="none" stroke="midnightblue" d="M892.83,-377.44C926.58,-367.26 974.95,-352.66 1005.27,-343.52"/>
<polygon fill="midnightblue" stroke="midnightblue" points="891.43,-374.2 882.86,-380.44 893.45,-380.91 891.43,-374.2"/>
</g>
<!-- Node3 -->
<g id="node3" class="node">
<title>Node3</title>
<g id="a_node3"><a xlink:href="un_2config_2_config_address_8cpp.html" target="_top" xlink:title=" ">
<polygon fill="white" stroke="black" points="446.5,-263 446.5,-282 620.5,-282 620.5,-263 446.5,-263"/>
<text text-anchor="middle" x="533.5" y="-270" font-family="Helvetica,sans-Serif" font-size="10.00">net/un/config/ConfigAddress.cpp</text>
</a>
</g>
</g>
<!-- Node2&#45;&gt;Node3 -->
<g id="edge2" class="edge">
<title>Node2&#45;&gt;Node3</title>
<path fill="none" stroke="midnightblue" d="M610.38,-319.24C591.06,-307.75 564.13,-291.72 547.8,-282.01"/>
<polygon fill="midnightblue" stroke="midnightblue" points="608.79,-322.37 619.17,-324.48 612.37,-316.35 608.79,-322.37"/>
</g>
<!-- Node4 -->
<g id="node4" class="node">
<title>Node4</title>
<g id="a_node4"><a xlink:href="un_2stream_2config_2_config_client_socket_8h.html" target="_top" xlink:title=" ">
<polygon fill="white" stroke="black" points="830,-257.5 830,-287.5 951,-287.5 951,-257.5 830,-257.5"/>
<text text-anchor="start" x="838" y="-275.5" font-family="Helvetica,sans-Serif" font-size="10.00">net/un/stream/config</text>
<text text-anchor="middle" x="890.5" y="-264.5" font-family="Helvetica,sans-Serif" font-size="10.00">/ConfigClientSocket.h</text>
</a>
</g>
</g>
<!-- Node2&#45;&gt;Node4 -->
<g id="edge3" class="edge">
<title>Node2&#45;&gt;Node4</title>
<path fill="none" stroke="midnightblue" d="M680.28,-322.17C722.28,-312.45 784.17,-298.12 829.93,-287.52"/>
<polygon fill="midnightblue" stroke="midnightblue" points="679.27,-318.81 670.32,-324.48 680.85,-325.63 679.27,-318.81"/>
</g>
<!-- Node14 -->
<g id="node14" class="node">
<title>Node14</title>
<g id="a_node14"><a xlink:href="un_2stream_2config_2_config_server_socket_8h.html" target="_top" xlink:title=" ">
<polygon fill="white" stroke="black" points="237.5,-257.5 237.5,-287.5 361.5,-287.5 361.5,-257.5 237.5,-257.5"/>
<text text-anchor="start" x="245.5" y="-275.5" font-family="Helvetica,sans-Serif" font-size="10.00">net/un/stream/config</text>
<text text-anchor="middle" x="299.5" y="-264.5" font-family="Helvetica,sans-Serif" font-size="10.00">/ConfigServerSocket.h</text>
</a>
</g>
</g>
<!-- Node2&#45;&gt;Node14 -->
<g id="edge13" class="edge">
<title>Node2&#45;&gt;Node14</title>
<path fill="none" stroke="midnightblue" d="M575.63,-322.69C515.9,-312.05 423.06,-295.51 361.77,-284.59"/>
<polygon fill="midnightblue" stroke="midnightblue" points="575.19,-326.17 585.65,-324.48 576.41,-319.28 575.19,-326.17"/>
</g>
<!-- Node5 -->
<g id="node5" class="node">
<title>Node5</title>
<g id="a_node5"><a xlink:href="un_2stream_2config_2_config_client_socket_8cpp.html" target="_top" xlink:title=" ">
<polygon fill="white" stroke="black" points="747.5,-190.5 747.5,-220.5 879.5,-220.5 879.5,-190.5 747.5,-190.5"/>
<text text-anchor="start" x="755.5" y="-208.5" font-family="Helvetica,sans-Serif" font-size="10.00">net/un/stream/config</text>
<text text-anchor="middle" x="813.5" y="-197.5" font-family="Helvetica,sans-Serif" font-size="10.00">/ConfigClientSocket.cpp</text>
</a>
</g>
</g>
<!-- Node4&#45;&gt;Node5 -->
<g id="edge4" class="edge">
<title>Node4&#45;&gt;Node5</title>
<path fill="none" stroke="midnightblue" d="M866.08,-250.88C854.38,-241.01 840.66,-229.43 830.18,-220.58"/>
<polygon fill="midnightblue" stroke="midnightblue" points="863.89,-253.62 873.79,-257.4 868.41,-248.27 863.89,-253.62"/>
</g>
<!-- Node6 -->
<g id="node6" class="node">
<title>Node6</title>
<g id="a_node6"><a xlink:href="un_2stream_2legacy_2config_2_config_socket_client_8h.html" target="_top" xlink:title=" ">
<polygon fill="white" stroke="black" points="1275.5,-190.5 1275.5,-220.5 1429.5,-220.5 1429.5,-190.5 1275.5,-190.5"/>
<text text-anchor="start" x="1283.5" y="-208.5" font-family="Helvetica,sans-Serif" font-size="10.00">net/un/stream/legacy</text>
<text text-anchor="middle" x="1352.5" y="-197.5" font-family="Helvetica,sans-Serif" font-size="10.00">/config/ConfigSocketClient.h</text>
</a>
</g>
</g>
<!-- Node4&#45;&gt;Node6 -->
<g id="edge5" class="edge">
<title>Node4&#45;&gt;Node6</title>
<path fill="none" stroke="midnightblue" d="M961.04,-258.63C964.58,-258.06 968.08,-257.51 971.5,-257 1102.11,-237.36 1135.79,-239.98 1266.5,-221 1269.35,-220.59 1272.25,-220.15 1275.17,-219.71"/>
<polygon fill="midnightblue" stroke="midnightblue" points="960.33,-255.2 951.04,-260.28 961.47,-262.11 960.33,-255.2"/>
</g>
<!-- Node10 -->
<g id="node10" class="node">
<title>Node10</title>
<g id="a_node10"><a xlink:href="un_2stream_2tls_2config_2_config_socket_client_8h.html" target="_top" xlink:title=" ">
<polygon fill="white" stroke="black" points="898,-190.5 898,-220.5 1031,-220.5 1031,-190.5 898,-190.5"/>
<text text-anchor="start" x="906" y="-208.5" font-family="Helvetica,sans-Serif" font-size="10.00">net/un/stream/tls/config</text>
<text text-anchor="middle" x="964.5" y="-197.5" font-family="Helvetica,sans-Serif" font-size="10.00">/ConfigSocketClient.h</text>
</a>
</g>
</g>
<!-- Node4&#45;&gt;Node10 -->
<g id="edge9" class="edge">
<title>Node4&#45;&gt;Node10</title>
<path fill="none" stroke="midnightblue" d="M914.3,-250.6C925.47,-240.78 938.49,-229.34 948.47,-220.58"/>
<polygon fill="midnightblue" stroke="midnightblue" points="911.76,-248.17 906.56,-257.4 916.38,-253.43 911.76,-248.17"/>
</g>
<!-- Node7 -->
<g id="node7" class="node">
<title>Node7</title>
<g id="a_node7"><a xlink:href="un_2stream_2legacy_2_socket_client_8cpp.html" target="_top" xlink:title=" ">
<polygon fill="white" stroke="black" points="1248.5,-123.5 1248.5,-153.5 1368.5,-153.5 1368.5,-123.5 1248.5,-123.5"/>
<text text-anchor="start" x="1256.5" y="-141.5" font-family="Helvetica,sans-Serif" font-size="10.00">net/un/stream/legacy</text>
<text text-anchor="middle" x="1308.5" y="-130.5" font-family="Helvetica,sans-Serif" font-size="10.00">/SocketClient.cpp</text>
</a>
</g>
</g>
<!-- Node6&#45;&gt;Node7 -->
<g id="edge6" class="edge">
<title>Node6&#45;&gt;Node7</title>
<path fill="none" stroke="midnightblue" d="M1337.18,-181.87C1330.81,-172.46 1323.62,-161.83 1318.03,-153.58"/>
<polygon fill="midnightblue" stroke="midnightblue" points="1334.45,-184.08 1342.95,-190.4 1340.25,-180.15 1334.45,-184.08"/>
</g>
<!-- Node8 -->
<g id="node8" class="node">
<title>Node8</title>
<g id="a_node8"><a xlink:href="net_2un_2stream_2legacy_2_socket_client_8h.html" target="_top" xlink:title=" ">
<polygon fill="white" stroke="black" points="1393.5,-123.5 1393.5,-153.5 1513.5,-153.5 1513.5,-123.5 1393.5,-123.5"/>
<text text-anchor="start" x="1401.5" y="-141.5" font-family="Helvetica,sans-Serif" font-size="10.00">net/un/stream/legacy</text>
<text text-anchor="middle" x="1453.5" y="-130.5" font-family="Helvetica,sans-Serif" font-size="10.00">/SocketClient.h</text>
</a>
</g>
</g>
<!-- Node6&#45;&gt;Node8 -->
<g id="edge7" class="edge">
<title>Node6&#45;&gt;Node8</title>
<path fill="none" stroke="midnightblue" d="M1383.21,-184.73C1398.84,-174.68 1417.47,-162.68 1431.63,-153.58"/>
<polygon fill="midnightblue" stroke="midnightblue" points="1380.93,-182.04 1374.42,-190.4 1384.72,-187.93 1380.93,-182.04"/>
</g>
<!-- Node9 -->
<g id="node9" class="node">
<title>Node9</title>
<g id="a_node9"><a xlink:href="legacy_2un_2_client_8h.html" target="_top" xlink:title=" ">
<polygon fill="white" stroke="black" points="1398.5,-56.5 1398.5,-86.5 1508.5,-86.5 1508.5,-56.5 1398.5,-56.5"/>
<text text-anchor="start" x="1406.5" y="-74.5" font-family="Helvetica,sans-Serif" font-size="10.00">web/http/legacy/un</text>
<text text-anchor="middle" x="1453.5" y="-63.5" font-family="Helvetica,sans-Serif" font-size="10.00">/Client.h</text>
</a>
</g>
</g>
<!-- Node8&#45;&gt;Node9 -->
<g id="edge8" class="edge">
<title>Node8&#45;&gt;Node9</title>
<path fill="none" stroke="midnightblue" d="M1453.5,-113.11C1453.5,-104.15 1453.5,-94.32 1453.5,-86.58"/>
<polygon fill="midnightblue" stroke="midnightblue" points="1450,-113.4 1453.5,-123.4 1457,-113.4 1450,-113.4"/>
</g>
<!-- Node11 -->
<g id="node11" class="node">
<title>Node11</title>
<g id="a_node11"><a xlink:href="un_2stream_2tls_2_socket_client_8cpp.html" target="_top" xlink:title=" ">
<polygon fill="white" stroke="black" points="1081,-123.5 1081,-153.5 1216,-153.5 1216,-123.5 1081,-123.5"/>
<text text-anchor="start" x="1089" y="-141.5" font-family="Helvetica,sans-Serif" font-size="10.00">net/un/stream/tls/Socket</text>
<text text-anchor="middle" x="1148.5" y="-130.5" font-family="Helvetica,sans-Serif" font-size="10.00">Client.cpp</text>
</a>
</g>
</g>
<!-- Node10&#45;&gt;Node11 -->
<g id="edge10" class="edge">
<title>Node10&#45;&gt;Node11</title>
<path fill="none" stroke="midnightblue" d="M1014.17,-186.96C1043.8,-176.48 1080.94,-163.37 1108.65,-153.58"/>
<polygon fill="midnightblue" stroke="midnightblue" points="1012.69,-183.76 1004.43,-190.4 1015.02,-190.37 1012.69,-183.76"/>
</g>
<!-- Node12 -->
<g id="node12" class="node">
<title>Node12</title>
<g id="a_node12"><a xlink:href="net_2un_2stream_2tls_2_socket_client_8h.html" target="_top" xlink:title=" ">
<polygon fill="white" stroke="black" points="901,-123.5 901,-153.5 1036,-153.5 1036,-123.5 901,-123.5"/>
<text text-anchor="start" x="909" y="-141.5" font-family="Helvetica,sans-Serif" font-size="10.00">net/un/stream/tls/Socket</text>
<text text-anchor="middle" x="968.5" y="-130.5" font-family="Helvetica,sans-Serif" font-size="10.00">Client.h</text>
</a>
</g>
</g>
<!-- Node10&#45;&gt;Node12 -->
<g id="edge11" class="edge">
<title>Node10&#45;&gt;Node12</title>
<path fill="none" stroke="midnightblue" d="M965.98,-180.4C966.54,-171.37 967.15,-161.41 967.63,-153.58"/>
<polygon fill="midnightblue" stroke="midnightblue" points="962.49,-180.2 965.37,-190.4 969.48,-180.63 962.49,-180.2"/>
</g>
<!-- Node13 -->
<g id="node13" class="node">
<title>Node13</title>
<g id="a_node13"><a xlink:href="tls_2un_2_client_8h.html" target="_top" xlink:title=" ">
<polygon fill="white" stroke="black" points="903.5,-62 903.5,-81 1033.5,-81 1033.5,-62 903.5,-62"/>
<text text-anchor="middle" x="968.5" y="-69" font-family="Helvetica,sans-Serif" font-size="10.00">web/http/tls/un/Client.h</text>
</a>
</g>
</g>
<!-- Node12&#45;&gt;Node13 -->
<g id="edge12" class="edge">
<title>Node12&#45;&gt;Node13</title>
<path fill="none" stroke="midnightblue" d="M968.5,-113.25C968.5,-102.02 968.5,-89.38 968.5,-81.19"/>
<polygon fill="midnightblue" stroke="midnightblue" points="965,-113.4 968.5,-123.4 972,-113.4 965,-113.4"/>
</g>
<!-- Node15 -->
<g id="node15" class="node">
<title>Node15</title>
<g id="a_node15"><a xlink:href="un_2stream_2config_2_config_server_socket_8cpp.html" target="_top" xlink:title=" ">
<polygon fill="white" stroke="black" points="0,-190.5 0,-220.5 135,-220.5 135,-190.5 0,-190.5"/>
<text text-anchor="start" x="8" y="-208.5" font-family="Helvetica,sans-Serif" font-size="10.00">net/un/stream/config</text>
<text text-anchor="middle" x="67.5" y="-197.5" font-family="Helvetica,sans-Serif" font-size="10.00">/ConfigServerSocket.cpp</text>
</a>
</g>
</g>
<!-- Node14&#45;&gt;Node15 -->
<g id="edge14" class="edge">
<title>Node14&#45;&gt;Node15</title>
<path fill="none" stroke="midnightblue" d="M239.59,-254.71C201.84,-244.14 153.64,-230.63 117.87,-220.61"/>
<polygon fill="midnightblue" stroke="midnightblue" points="238.87,-258.15 249.45,-257.48 240.76,-251.41 238.87,-258.15"/>
</g>
<!-- Node16 -->
<g id="node16" class="node">
<title>Node16</title>
<g id="a_node16"><a xlink:href="un_2stream_2legacy_2config_2_config_socket_server_8h.html" target="_top" xlink:title=" ">
<polygon fill="white" stroke="black" points="153,-190.5 153,-220.5 310,-220.5 310,-190.5 153,-190.5"/>
<text text-anchor="start" x="161" y="-208.5" font-family="Helvetica,sans-Serif" font-size="10.00">net/un/stream/legacy</text>
<text text-anchor="middle" x="231.5" y="-197.5" font-family="Helvetica,sans-Serif" font-size="10.00">/config/ConfigSocketServer.h</text>
</a>
</g>
</g>
<!-- Node14&#45;&gt;Node16 -->
<g id="edge15" class="edge">
<title>Node14&#45;&gt;Node16</title>
<path fill="none" stroke="midnightblue" d="M277.33,-250.31C267.13,-240.56 255.31,-229.26 246.23,-220.58"/>
<polygon fill="midnightblue" stroke="midnightblue" points="275.1,-253.02 284.75,-257.4 279.93,-247.96 275.1,-253.02"/>
</g>
<!-- Node21 -->
<g id="node21" class="node">
<title>Node21</title>
<g id="a_node21"><a xlink:href="un_2stream_2tls_2config_2_config_socket_server_8h.html" target="_top" xlink:title=" ">
<polygon fill="white" stroke="black" points="558,-190.5 558,-220.5 691,-220.5 691,-190.5 558,-190.5"/>
<text text-anchor="start" x="566" y="-208.5" font-family="Helvetica,sans-Serif" font-size="10.00">net/un/stream/tls/config</text>
<text text-anchor="middle" x="624.5" y="-197.5" font-family="Helvetica,sans-Serif" font-size="10.00">/ConfigSocketServer.h</text>
</a>
</g>
</g>
<!-- Node14&#45;&gt;Node21 -->
<g id="edge20" class="edge">
<title>Node14&#45;&gt;Node21</title>
<path fill="none" stroke="midnightblue" d="M371.92,-257.02C427.57,-245.89 503.83,-230.63 557.96,-219.81"/>
<polygon fill="midnightblue" stroke="midnightblue" points="370.9,-253.65 361.78,-259.04 372.27,-260.52 370.9,-253.65"/>
</g>
<!-- Node17 -->
<g id="node17" class="node">
<title>Node17</title>
<g id="a_node17"><a xlink:href="un_2stream_2legacy_2_socket_server_8cpp.html" target="_top" xlink:title=" ">
<polygon fill="white" stroke="black" points="326.5,-123.5 326.5,-153.5 446.5,-153.5 446.5,-123.5 326.5,-123.5"/>
<text text-anchor="start" x="334.5" y="-141.5" font-family="Helvetica,sans-Serif" font-size="10.00">net/un/stream/legacy</text>
<text text-anchor="middle" x="386.5" y="-130.5" font-family="Helvetica,sans-Serif" font-size="10.00">/SocketServer.cpp</text>
</a>
</g>
</g>
<!-- Node16&#45;&gt;Node17 -->
<g id="edge16" class="edge">
<title>Node16&#45;&gt;Node17</title>
<path fill="none" stroke="midnightblue" d="M274.65,-186.41C299.39,-176.03 330,-163.2 352.93,-153.58"/>
<polygon fill="midnightblue" stroke="midnightblue" points="273,-183.3 265.13,-190.4 275.71,-189.76 273,-183.3"/>
</g>
<!-- Node18 -->
<g id="node18" class="node">
<title>Node18</title>
<g id="a_node18"><a xlink:href="net_2un_2stream_2legacy_2_socket_server_8h.html" target="_top" xlink:title=" ">
<polygon fill="white" stroke="black" points="175.5,-123.5 175.5,-153.5 295.5,-153.5 295.5,-123.5 175.5,-123.5"/>
<text text-anchor="start" x="183.5" y="-141.5" font-family="Helvetica,sans-Serif" font-size="10.00">net/un/stream/legacy</text>
<text text-anchor="middle" x="235.5" y="-130.5" font-family="Helvetica,sans-Serif" font-size="10.00">/SocketServer.h</text>
</a>
</g>
</g>
<!-- Node16&#45;&gt;Node18 -->
<g id="edge17" class="edge">
<title>Node16&#45;&gt;Node18</title>
<path fill="none" stroke="midnightblue" d="M232.98,-180.4C233.54,-171.37 234.15,-161.41 234.63,-153.58"/>
<polygon fill="midnightblue" stroke="midnightblue" points="229.49,-180.2 232.37,-190.4 236.48,-180.63 229.49,-180.2"/>
</g>
<!-- Node19 -->
<g id="node19" class="node">
<title>Node19</title>
<g id="a_node19"><a xlink:href="legacy_2un_2_server_8h.html" target="_top" xlink:title=" ">
<polygon fill="white" stroke="black" points="180.5,-56.5 180.5,-86.5 290.5,-86.5 290.5,-56.5 180.5,-56.5"/>
<text text-anchor="start" x="188.5" y="-74.5" font-family="Helvetica,sans-Serif" font-size="10.00">web/http/legacy/un</text>
<text text-anchor="middle" x="235.5" y="-63.5" font-family="Helvetica,sans-Serif" font-size="10.00">/Server.h</text>
</a>
</g>
</g>
<!-- Node18&#45;&gt;Node19 -->
<g id="edge18" class="edge">
<title>Node18&#45;&gt;Node19</title>
<path fill="none" stroke="midnightblue" d="M235.5,-113.11C235.5,-104.15 235.5,-94.32 235.5,-86.58"/>
<polygon fill="midnightblue" stroke="midnightblue" points="232,-113.4 235.5,-123.4 239,-113.4 232,-113.4"/>
</g>
<!-- Node20 -->
<g id="node20" class="node">
<title>Node20</title>
<g id="a_node20"><a xlink:href="legacy_2un_2_web_app_8h.html" target="_top" xlink:title=" ">
<polygon fill="white" stroke="black" points="156.5,-0.5 156.5,-19.5 314.5,-19.5 314.5,-0.5 156.5,-0.5"/>
<text text-anchor="middle" x="235.5" y="-7.5" font-family="Helvetica,sans-Serif" font-size="10.00">express/legacy/un/WebApp.h</text>
</a>
</g>
</g>
<!-- Node19&#45;&gt;Node20 -->
<g id="edge19" class="edge">
<title>Node19&#45;&gt;Node20</title>
<path fill="none" stroke="midnightblue" d="M235.5,-46.29C235.5,-36.86 235.5,-26.65 235.5,-19.66"/>
<polygon fill="midnightblue" stroke="midnightblue" points="232,-46.4 235.5,-56.4 239,-46.4 232,-46.4"/>
</g>
<!-- Node22 -->
<g id="node22" class="node">
<title>Node22</title>
<g id="a_node22"><a xlink:href="un_2stream_2tls_2_socket_server_8cpp.html" target="_top" xlink:title=" ">
<polygon fill="white" stroke="black" points="471,-123.5 471,-153.5 606,-153.5 606,-123.5 471,-123.5"/>
<text text-anchor="start" x="479" y="-141.5" font-family="Helvetica,sans-Serif" font-size="10.00">net/un/stream/tls/Socket</text>
<text text-anchor="middle" x="538.5" y="-130.5" font-family="Helvetica,sans-Serif" font-size="10.00">Server.cpp</text>
</a>
</g>
</g>
<!-- Node21&#45;&gt;Node22 -->
<g id="edge21" class="edge">
<title>Node21&#45;&gt;Node22</title>
<path fill="none" stroke="midnightblue" d="M597.6,-184.17C584.45,-174.23 568.95,-162.51 557.12,-153.58"/>
<polygon fill="midnightblue" stroke="midnightblue" points="595.75,-187.16 605.84,-190.4 599.97,-181.57 595.75,-187.16"/>
</g>
<!-- Node23 -->
<g id="node23" class="node">
<title>Node23</title>
<g id="a_node23"><a xlink:href="net_2un_2stream_2tls_2_socket_server_8h.html" target="_top" xlink:title=" ">
<polygon fill="white" stroke="black" points="627,-123.5 627,-153.5 762,-153.5 762,-123.5 627,-123.5"/>
<text text-anchor="start" x="635" y="-141.5" font-family="Helvetica,sans-Serif" font-size="10.00">net/un/stream/tls/Socket</text>
<text text-anchor="middle" x="694.5" y="-130.5" font-family="Helvetica,sans-Serif" font-size="10.00">Server.h</text>
</a>
</g>
</g>
<!-- Node21&#45;&gt;Node23 -->
<g id="edge22" class="edge">
<title>Node21&#45;&gt;Node23</title>
<path fill="none" stroke="midnightblue" d="M647.32,-183.31C657.82,-173.56 669.99,-162.26 679.34,-153.58"/>
<polygon fill="midnightblue" stroke="midnightblue" points="644.64,-181.03 639.69,-190.4 649.4,-186.16 644.64,-181.03"/>
</g>
<!-- Node24 -->
<g id="node24" class="node">
<title>Node24</title>
<g id="a_node24"><a xlink:href="tls_2un_2_server_8h.html" target="_top" xlink:title=" ">
<polygon fill="white" stroke="black" points="628,-62 628,-81 761,-81 761,-62 628,-62"/>
<text text-anchor="middle" x="694.5" y="-69" font-family="Helvetica,sans-Serif" font-size="10.00">web/http/tls/un/Server.h</text>
</a>
</g>
</g>
<!-- Node23&#45;&gt;Node24 -->
<g id="edge23" class="edge">
<title>Node23&#45;&gt;Node24</title>
<path fill="none" stroke="midnightblue" d="M694.5,-113.25C694.5,-102.02 694.5,-89.38 694.5,-81.19"/>
<polygon fill="midnightblue" stroke="midnightblue" points="691,-113.4 694.5,-123.4 698,-113.4 691,-113.4"/>
</g>
<!-- Node25 -->
<g id="node25" class="node">
<title>Node25</title>
<g id="a_node25"><a xlink:href="tls_2un_2_web_app_8h.html" target="_top" xlink:title=" ">
<polygon fill="white" stroke="black" points="626,-0.5 626,-19.5 763,-19.5 763,-0.5 626,-0.5"/>
<text text-anchor="middle" x="694.5" y="-7.5" font-family="Helvetica,sans-Serif" font-size="10.00">express/tls/un/WebApp.h</text>
</a>
</g>
</g>
<!-- Node24&#45;&gt;Node25 -->
<g id="edge24" class="edge">
<title>Node24&#45;&gt;Node25</title>
<path fill="none" stroke="midnightblue" d="M694.5,-51.82C694.5,-41 694.5,-27.9 694.5,-19.51"/>
<polygon fill="midnightblue" stroke="midnightblue" points="691,-51.98 694.5,-61.98 698,-51.98 691,-51.98"/>
</g>
<!-- Node28 -->
<g id="node28" class="node">
<title>Node28</title>
<g id="a_node28"><a xlink:href="un_2stream_2_client_socket_8h.html" target="_top" xlink:title=" ">
<polygon fill="white" stroke="black" points="980.5,-263 980.5,-282 1138.5,-282 1138.5,-263 980.5,-263"/>
<text text-anchor="middle" x="1059.5" y="-270" font-family="Helvetica,sans-Serif" font-size="10.00">net/un/stream/ClientSocket.h</text>
</a>
</g>
</g>
<!-- Node27&#45;&gt;Node28 -->
<g id="edge27" class="edge">
<title>Node27&#45;&gt;Node28</title>
<path fill="none" stroke="midnightblue" d="M1041.37,-315C1046.15,-304.05 1052.04,-290.57 1055.78,-282.01"/>
<polygon fill="midnightblue" stroke="midnightblue" points="1038.02,-313.91 1037.23,-324.48 1044.44,-316.71 1038.02,-313.91"/>
</g>
<!-- Node30 -->
<g id="node30" class="node">
<title>Node30</title>
<g id="a_node30"><a xlink:href="un_2stream_2_server_socket_8h.html" target="_top" xlink:title=" ">
<polygon fill="white" stroke="black" points="639,-263 639,-282 800,-282 800,-263 639,-263"/>
<text text-anchor="middle" x="719.5" y="-270" font-family="Helvetica,sans-Serif" font-size="10.00">net/un/stream/ServerSocket.h</text>
</a>
</g>
</g>
<!-- Node27&#45;&gt;Node30 -->
<g id="edge33" class="edge">
<title>Node27&#45;&gt;Node30</title>
<path fill="none" stroke="midnightblue" d="M978.33,-322.55C917.5,-311.02 820.79,-292.69 764.41,-282.01"/>
<polygon fill="midnightblue" stroke="midnightblue" points="978.03,-326.05 988.51,-324.48 979.34,-319.17 978.03,-326.05"/>
</g>
<!-- Node32 -->
<g id="node32" class="node">
<title>Node32</title>
<g id="a_node32"><a xlink:href="net_2un_2stream_2socket_8cpp.html" target="_top" xlink:title=" ">
<polygon fill="white" stroke="black" points="1156.5,-263 1156.5,-282 1296.5,-282 1296.5,-263 1156.5,-263"/>
<text text-anchor="middle" x="1226.5" y="-270" font-family="Helvetica,sans-Serif" font-size="10.00">net/un/stream/Socket.cpp</text>
</a>
</g>
</g>
<!-- Node27&#45;&gt;Node32 -->
<g id="edge39" class="edge">
<title>Node27&#45;&gt;Node32</title>
<path fill="none" stroke="midnightblue" d="M1070.71,-321.53C1108.22,-309.96 1165.24,-292.38 1198.9,-282.01"/>
<polygon fill="midnightblue" stroke="midnightblue" points="1069.68,-318.18 1061.15,-324.48 1071.74,-324.87 1069.68,-318.18"/>
</g>
<!-- Node28&#45;&gt;Node8 -->
<g id="edge31" class="edge">
<title>Node28&#45;&gt;Node8</title>
<path fill="none" stroke="midnightblue" d="M1119.34,-261.31C1128.75,-259.8 1138.38,-258.31 1147.5,-257 1211.99,-247.7 1391.09,-265.7 1438.5,-221 1456.82,-203.73 1457.1,-171.99 1455.45,-153.63"/>
<polygon fill="midnightblue" stroke="midnightblue" points="1118.55,-257.89 1109.24,-262.95 1119.67,-264.8 1118.55,-257.89"/>
</g>
<!-- Node28&#45;&gt;Node12 -->
<g id="edge32" class="edge">
<title>Node28&#45;&gt;Node12</title>
<path fill="none" stroke="midnightblue" d="M1058.89,-252.73C1057.5,-235.17 1053.24,-208.86 1040.5,-190 1029.99,-174.44 1012.96,-162.17 998.1,-153.63"/>
<polygon fill="midnightblue" stroke="midnightblue" points="1055.41,-253.06 1059.45,-262.85 1062.4,-252.68 1055.41,-253.06"/>
</g>
<!-- Node29 -->
<g id="node29" class="node">
<title>Node29</title>
<g id="a_node29"><a xlink:href="un_2stream_2_client_socket_8hpp.html" target="_top" xlink:title=" ">
<polygon fill="white" stroke="black" points="1087.5,-196 1087.5,-215 1257.5,-215 1257.5,-196 1087.5,-196"/>
<text text-anchor="middle" x="1172.5" y="-203" font-family="Helvetica,sans-Serif" font-size="10.00">net/un/stream/ClientSocket.hpp</text>
</a>
</g>
</g>
<!-- Node28&#45;&gt;Node29 -->
<g id="edge28" class="edge">
<title>Node28&#45;&gt;Node29</title>
<path fill="none" stroke="midnightblue" d="M1083.64,-257.62C1106.03,-244.74 1138.64,-225.98 1157.5,-215.13"/>
<polygon fill="midnightblue" stroke="midnightblue" points="1081.66,-254.71 1074.74,-262.73 1085.15,-260.78 1081.66,-254.71"/>
</g>
<!-- Node29&#45;&gt;Node7 -->
<g id="edge29" class="edge">
<title>Node29&#45;&gt;Node7</title>
<path fill="none" stroke="midnightblue" d="M1199.75,-191.47C1222.75,-180.49 1255.58,-164.79 1279.15,-153.53"/>
<polygon fill="midnightblue" stroke="midnightblue" points="1198.07,-188.4 1190.56,-195.87 1201.09,-194.71 1198.07,-188.4"/>
</g>
<!-- Node29&#45;&gt;Node11 -->
<g id="edge30" class="edge">
<title>Node29&#45;&gt;Node11</title>
<path fill="none" stroke="midnightblue" d="M1165.69,-186.06C1161.89,-175.75 1157.21,-163.1 1153.7,-153.59"/>
<polygon fill="midnightblue" stroke="midnightblue" points="1162.52,-187.57 1169.26,-195.73 1169.08,-185.14 1162.52,-187.57"/>
</g>
<!-- Node30&#45;&gt;Node18 -->
<g id="edge34" class="edge">
<title>Node30&#45;&gt;Node18</title>
<path fill="none" stroke="midnightblue" d="M658.23,-261.39C648.62,-259.88 638.8,-258.36 629.5,-257 508.85,-239.3 469.74,-268.67 357.5,-221 337.12,-212.34 336.66,-202.67 318.5,-190 299.55,-176.78 277.11,-163.25 260.34,-153.52"/>
<polygon fill="midnightblue" stroke="midnightblue" points="657.71,-264.85 668.14,-262.97 658.81,-257.94 657.71,-264.85"/>
</g>
<!-- Node30&#45;&gt;Node23 -->
<g id="edge38" class="edge">
<title>Node30&#45;&gt;Node23</title>
<path fill="none" stroke="midnightblue" d="M715.98,-252.89C710.93,-226.24 701.75,-177.8 697.21,-153.78"/>
<polygon fill="midnightblue" stroke="midnightblue" points="712.56,-253.67 717.86,-262.84 719.44,-252.36 712.56,-253.67"/>
</g>
<!-- Node31 -->
<g id="node31" class="node">
<title>Node31</title>
<g id="a_node31"><a xlink:href="un_2stream_2_server_socket_8hpp.html" target="_top" xlink:title=" ">
<polygon fill="white" stroke="black" points="367,-196 367,-215 540,-215 540,-196 367,-196"/>
<text text-anchor="middle" x="453.5" y="-203" font-family="Helvetica,sans-Serif" font-size="10.00">net/un/stream/ServerSocket.hpp</text>
</a>
</g>
</g>
<!-- Node30&#45;&gt;Node31 -->
<g id="edge35" class="edge">
<title>Node30&#45;&gt;Node31</title>
<path fill="none" stroke="midnightblue" d="M674.42,-260.48C621.95,-247.66 536.41,-226.76 488.63,-215.08"/>
<polygon fill="midnightblue" stroke="midnightblue" points="673.91,-263.96 684.45,-262.94 675.57,-257.16 673.91,-263.96"/>
</g>
<!-- Node31&#45;&gt;Node17 -->
<g id="edge36" class="edge">
<title>Node31&#45;&gt;Node17</title>
<path fill="none" stroke="midnightblue" d="M437.13,-188.62C426.09,-177.91 411.65,-163.9 401.02,-153.59"/>
<polygon fill="midnightblue" stroke="midnightblue" points="434.85,-191.28 444.46,-195.73 439.72,-186.26 434.85,-191.28"/>
</g>
<!-- Node31&#45;&gt;Node22 -->
<g id="edge37" class="edge">
<title>Node31&#45;&gt;Node22</title>
<path fill="none" stroke="midnightblue" d="M473.06,-189.54C487.21,-178.73 506.2,-164.2 520.08,-153.59"/>
<polygon fill="midnightblue" stroke="midnightblue" points="470.78,-186.88 464.96,-195.73 475.03,-192.44 470.78,-186.88"/>
</g>
</g>
</svg>
