<?xml version="1.0" encoding="UTF-8" standalone="no"?>
<!DOCTYPE svg PUBLIC "-//W3C//DTD SVG 1.1//EN"
 "http://www.w3.org/Graphics/SVG/1.1/DTD/svg11.dtd">
<!-- Generated by graphviz version 2.43.0 (0)
 -->
<!-- Title: net/un/stream/ServerConfig.h Pages: 1 -->
<svg width="491pt" height="285pt"
 viewBox="0.00 0.00 490.50 285.00" xmlns="http://www.w3.org/2000/svg" xmlns:xlink="http://www.w3.org/1999/xlink">
<g id="graph0" class="graph" transform="scale(1 1) rotate(0) translate(4 281)">
<title>net/un/stream/ServerConfig.h</title>
<polygon fill="white" stroke="transparent" points="-4,4 -4,-281 486.5,-281 486.5,4 -4,4"/>
<!-- Node1 -->
<g id="node1" class="node">
<title>Node1</title>
<g id="a_node1"><a xlink:title=" ">
<polygon fill="#bfbfbf" stroke="black" points="163,-257.5 163,-276.5 323,-276.5 323,-257.5 163,-257.5"/>
<text text-anchor="middle" x="243" y="-264.5" font-family="Helvetica,sans-Serif" font-size="10.00">net/un/stream/ServerConfig.h</text>
</a>
</g>
</g>
<!-- Node2 -->
<g id="node2" class="node">
<title>Node2</title>
<g id="a_node2"><a xlink:href="un_2stream_2legacy_2_server_config_8h.html" target="_top" xlink:title=" ">
<polygon fill="white" stroke="black" points="19,-190.5 19,-220.5 139,-220.5 139,-190.5 19,-190.5"/>
<text text-anchor="start" x="27" y="-208.5" font-family="Helvetica,sans-Serif" font-size="10.00">net/un/stream/legacy</text>
<text text-anchor="middle" x="79" y="-197.5" font-family="Helvetica,sans-Serif" font-size="10.00">/ServerConfig.h</text>
</a>
</g>
</g>
<!-- Node1&#45;&gt;Node2 -->
<g id="edge1" class="edge">
<title>Node1&#45;&gt;Node2</title>
<path fill="none" stroke="midnightblue" d="M209.86,-253.98C183.19,-244.3 145.68,-230.69 117.65,-220.52"/>
<polygon fill="midnightblue" stroke="midnightblue" points="208.91,-257.35 219.5,-257.48 211.3,-250.77 208.91,-257.35"/>
</g>
<!-- Node6 -->
<g id="node6" class="node">
<title>Node6</title>
<g id="a_node6"><a xlink:href="un_2stream_2_server_config_8cpp.html" target="_top" xlink:title=" ">
<polygon fill="white" stroke="black" points="157.5,-196 157.5,-215 328.5,-215 328.5,-196 157.5,-196"/>
<text text-anchor="middle" x="243" y="-203" font-family="Helvetica,sans-Serif" font-size="10.00">net/un/stream/ServerConfig.cpp</text>
</a>
</g>
</g>
<!-- Node1&#45;&gt;Node6 -->
<g id="edge5" class="edge">
<title>Node1&#45;&gt;Node6</title>
<path fill="none" stroke="midnightblue" d="M243,-247.32C243,-236.5 243,-223.4 243,-215.01"/>
<polygon fill="midnightblue" stroke="midnightblue" points="239.5,-247.48 243,-257.48 246.5,-247.48 239.5,-247.48"/>
</g>
<!-- Node7 -->
<g id="node7" class="node">
<title>Node7</title>
<g id="a_node7"><a xlink:href="un_2stream_2tls_2_server_config_8h.html" target="_top" xlink:title=" ">
<polygon fill="white" stroke="black" points="347,-190.5 347,-220.5 481,-220.5 481,-190.5 347,-190.5"/>
<text text-anchor="start" x="355" y="-208.5" font-family="Helvetica,sans-Serif" font-size="10.00">net/un/stream/tls/Server</text>
<text text-anchor="middle" x="414" y="-197.5" font-family="Helvetica,sans-Serif" font-size="10.00">Config.h</text>
</a>
</g>
</g>
<!-- Node1&#45;&gt;Node7 -->
<g id="edge6" class="edge">
<title>Node1&#45;&gt;Node7</title>
<path fill="none" stroke="midnightblue" d="M277.19,-254.1C305.02,-244.42 344.34,-230.74 373.7,-220.52"/>
<polygon fill="midnightblue" stroke="midnightblue" points="275.79,-250.88 267.5,-257.48 278.09,-257.49 275.79,-250.88"/>
</g>
<!-- Node3 -->
<g id="node3" class="node">
<title>Node3</title>
<g id="a_node3"><a xlink:href="net_2un_2stream_2legacy_2_socket_server_8h.html" target="_top" xlink:title=" ">
<polygon fill="white" stroke="black" points="19,-123.5 19,-153.5 139,-153.5 139,-123.5 19,-123.5"/>
<text text-anchor="start" x="27" y="-141.5" font-family="Helvetica,sans-Serif" font-size="10.00">net/un/stream/legacy</text>
<text text-anchor="middle" x="79" y="-130.5" font-family="Helvetica,sans-Serif" font-size="10.00">/SocketServer.h</text>
</a>
</g>
</g>
<!-- Node2&#45;&gt;Node3 -->
<g id="edge2" class="edge">
<title>Node2&#45;&gt;Node3</title>
<path fill="none" stroke="midnightblue" d="M79,-180.11C79,-171.15 79,-161.32 79,-153.58"/>
<polygon fill="midnightblue" stroke="midnightblue" points="75.5,-180.4 79,-190.4 82.5,-180.4 75.5,-180.4"/>
</g>
<!-- Node4 -->
<g id="node4" class="node">
<title>Node4</title>
<g id="a_node4"><a xlink:href="legacy_2un_2_server_8h.html" target="_top" xlink:title=" ">
<polygon fill="white" stroke="black" points="24,-56.5 24,-86.5 134,-86.5 134,-56.5 24,-56.5"/>
<text text-anchor="start" x="32" y="-74.5" font-family="Helvetica,sans-Serif" font-size="10.00">web/http/legacy/un</text>
<text text-anchor="middle" x="79" y="-63.5" font-family="Helvetica,sans-Serif" font-size="10.00">/Server.h</text>
</a>
</g>
</g>
<!-- Node3&#45;&gt;Node4 -->
<g id="edge3" class="edge">
<title>Node3&#45;&gt;Node4</title>
<path fill="none" stroke="midnightblue" d="M79,-113.11C79,-104.15 79,-94.32 79,-86.58"/>
<polygon fill="midnightblue" stroke="midnightblue" points="75.5,-113.4 79,-123.4 82.5,-113.4 75.5,-113.4"/>
</g>
<!-- Node5 -->
<g id="node5" class="node">
<title>Node5</title>
<g id="a_node5"><a xlink:href="legacy_2un_2_web_app_8h.html" target="_top" xlink:title=" ">
<polygon fill="white" stroke="black" points="0,-0.5 0,-19.5 158,-19.5 158,-0.5 0,-0.5"/>
<text text-anchor="middle" x="79" y="-7.5" font-family="Helvetica,sans-Serif" font-size="10.00">express/legacy/un/WebApp.h</text>
</a>
</g>
</g>
<!-- Node4&#45;&gt;Node5 -->
<g id="edge4" class="edge">
<title>Node4&#45;&gt;Node5</title>
<path fill="none" stroke="midnightblue" d="M79,-46.29C79,-36.86 79,-26.65 79,-19.66"/>
<polygon fill="midnightblue" stroke="midnightblue" points="75.5,-46.4 79,-56.4 82.5,-46.4 75.5,-46.4"/>
</g>
<!-- Node8 -->
<g id="node8" class="node">
<title>Node8</title>
<g id="a_node8"><a xlink:href="net_2un_2stream_2tls_2_socket_server_8h.html" target="_top" xlink:title=" ">
<polygon fill="white" stroke="black" points="346.5,-123.5 346.5,-153.5 481.5,-153.5 481.5,-123.5 346.5,-123.5"/>
<text text-anchor="start" x="354.5" y="-141.5" font-family="Helvetica,sans-Serif" font-size="10.00">net/un/stream/tls/Socket</text>
<text text-anchor="middle" x="414" y="-130.5" font-family="Helvetica,sans-Serif" font-size="10.00">Server.h</text>
</a>
</g>
</g>
<!-- Node7&#45;&gt;Node8 -->
<g id="edge7" class="edge">
<title>Node7&#45;&gt;Node8</title>
<path fill="none" stroke="midnightblue" d="M414,-180.11C414,-171.15 414,-161.32 414,-153.58"/>
<polygon fill="midnightblue" stroke="midnightblue" points="410.5,-180.4 414,-190.4 417.5,-180.4 410.5,-180.4"/>
</g>
<!-- Node9 -->
<g id="node9" class="node">
<title>Node9</title>
<g id="a_node9"><a xlink:href="tls_2un_2_server_8h.html" target="_top" xlink:title=" ">
<polygon fill="white" stroke="black" points="347.5,-62 347.5,-81 480.5,-81 480.5,-62 347.5,-62"/>
<text text-anchor="middle" x="414" y="-69" font-family="Helvetica,sans-Serif" font-size="10.00">web/http/tls/un/Server.h</text>
</a>
</g>
</g>
<!-- Node8&#45;&gt;Node9 -->
<g id="edge8" class="edge">
<title>Node8&#45;&gt;Node9</title>
<path fill="none" stroke="midnightblue" d="M414,-113.25C414,-102.02 414,-89.38 414,-81.19"/>
<polygon fill="midnightblue" stroke="midnightblue" points="410.5,-113.4 414,-123.4 417.5,-113.4 410.5,-113.4"/>
</g>
<!-- Node10 -->
<g id="node10" class="node">
<title>Node10</title>
<g id="a_node10"><a xlink:href="tls_2un_2_web_app_8h.html" target="_top" xlink:title=" ">
<polygon fill="white" stroke="black" points="345.5,-0.5 345.5,-19.5 482.5,-19.5 482.5,-0.5 345.5,-0.5"/>
<text text-anchor="middle" x="414" y="-7.5" font-family="Helvetica,sans-Serif" font-size="10.00">express/tls/un/WebApp.h</text>
</a>
</g>
</g>
<!-- Node9&#45;&gt;Node10 -->
<g id="edge9" class="edge">
<title>Node9&#45;&gt;Node10</title>
<path fill="none" stroke="midnightblue" d="M414,-51.82C414,-41 414,-27.9 414,-19.51"/>
<polygon fill="midnightblue" stroke="midnightblue" points="410.5,-51.98 414,-61.98 417.5,-51.98 410.5,-51.98"/>
</g>
</g>
</svg>
