<?xml version="1.0" encoding="UTF-8" standalone="no"?>
<!DOCTYPE svg PUBLIC "-//W3C//DTD SVG 1.1//EN"
 "http://www.w3.org/Graphics/SVG/1.1/DTD/svg11.dtd">
<!-- Generated by graphviz version 2.43.0 (0)
 -->
<!-- Title: net/un/stream/tls/SocketClient.cpp Pages: 1 -->
<svg width="1810pt" height="687pt"
 viewBox="0.00 0.00 1810.00 687.00" xmlns="http://www.w3.org/2000/svg" xmlns:xlink="http://www.w3.org/1999/xlink">
<g id="graph0" class="graph" transform="scale(1 1) rotate(0) translate(4 683)">
<title>net/un/stream/tls/SocketClient.cpp</title>
<polygon fill="white" stroke="transparent" points="-4,4 -4,-683 1806,-683 1806,4 -4,4"/>
<!-- Node1 -->
<g id="node1" class="node">
<title>Node1</title>
<g id="a_node1"><a xlink:title=" ">
<polygon fill="#bfbfbf" stroke="black" points="1215.5,-648.5 1215.5,-678.5 1350.5,-678.5 1350.5,-648.5 1215.5,-648.5"/>
<text text-anchor="start" x="1223.5" y="-666.5" font-family="Helvetica,sans-Serif" font-size="10.00">net/un/stream/tls/Socket</text>
<text text-anchor="middle" x="1283" y="-655.5" font-family="Helvetica,sans-Serif" font-size="10.00">Client.cpp</text>
</a>
</g>
</g>
<!-- Node2 -->
<g id="node2" class="node">
<title>Node2</title>
<g id="a_node2"><a xlink:href="net_2un_2stream_2tls_2_socket_client_8h.html" target="_top" xlink:title=" ">
<polygon fill="white" stroke="black" points="1130.5,-581.5 1130.5,-611.5 1265.5,-611.5 1265.5,-581.5 1130.5,-581.5"/>
<text text-anchor="start" x="1138.5" y="-599.5" font-family="Helvetica,sans-Serif" font-size="10.00">net/un/stream/tls/Socket</text>
<text text-anchor="middle" x="1198" y="-588.5" font-family="Helvetica,sans-Serif" font-size="10.00">Client.h</text>
</a>
</g>
</g>
<!-- Node1&#45;&gt;Node2 -->
<g id="edge1" class="edge">
<title>Node1&#45;&gt;Node2</title>
<path fill="none" stroke="midnightblue" d="M1264.56,-648.4C1252.86,-639.45 1237.54,-627.74 1224.55,-617.8"/>
<polygon fill="midnightblue" stroke="midnightblue" points="1226.48,-614.87 1216.41,-611.58 1222.23,-620.43 1226.48,-614.87"/>
</g>
<!-- Node44 -->
<g id="node44" class="node">
<title>Node44</title>
<g id="a_node44"><a xlink:href="un_2stream_2_socket_client_8hpp.html" target="_top" xlink:title=" ">
<polygon fill="white" stroke="black" points="1335,-587 1335,-606 1505,-606 1505,-587 1335,-587"/>
<text text-anchor="middle" x="1420" y="-594" font-family="Helvetica,sans-Serif" font-size="10.00">net/un/stream/SocketClient.hpp</text>
</a>
</g>
</g>
<!-- Node1&#45;&gt;Node44 -->
<g id="edge56" class="edge">
<title>Node1&#45;&gt;Node44</title>
<path fill="none" stroke="midnightblue" d="M1312.73,-648.4C1336.55,-637.09 1369.71,-621.36 1392.83,-610.39"/>
<polygon fill="midnightblue" stroke="midnightblue" points="1394.54,-613.46 1402.07,-606.01 1391.53,-607.13 1394.54,-613.46"/>
</g>
<!-- Node3 -->
<g id="node3" class="node">
<title>Node3</title>
<g id="a_node3"><a xlink:href="core_2socket_2stream_2tls_2_socket_client_8h.html" target="_top" xlink:title=" ">
<polygon fill="white" stroke="black" points="824,-514.5 824,-544.5 934,-544.5 934,-514.5 824,-514.5"/>
<text text-anchor="start" x="832" y="-532.5" font-family="Helvetica,sans-Serif" font-size="10.00">core/socket/stream</text>
<text text-anchor="middle" x="879" y="-521.5" font-family="Helvetica,sans-Serif" font-size="10.00">/tls/SocketClient.h</text>
</a>
</g>
</g>
<!-- Node2&#45;&gt;Node3 -->
<g id="edge2" class="edge">
<title>Node2&#45;&gt;Node3</title>
<path fill="none" stroke="midnightblue" d="M1130.35,-581.72C1075.34,-570.51 998.22,-554.79 943.95,-543.73"/>
<polygon fill="midnightblue" stroke="midnightblue" points="944.59,-540.29 934.09,-541.73 943.19,-547.15 944.59,-540.29"/>
</g>
<!-- Node26 -->
<g id="node26" class="node">
<title>Node26</title>
<g id="a_node26"><a xlink:href="net_2un_2stream_2_socket_client_8h.html" target="_top" xlink:title=" ">
<polygon fill="white" stroke="black" points="1341,-520 1341,-539 1499,-539 1499,-520 1341,-520"/>
<text text-anchor="middle" x="1420" y="-527" font-family="Helvetica,sans-Serif" font-size="10.00">net/un/stream/SocketClient.h</text>
</a>
</g>
</g>
<!-- Node2&#45;&gt;Node26 -->
<g id="edge33" class="edge">
<title>Node2&#45;&gt;Node26</title>
<path fill="none" stroke="midnightblue" d="M1245.9,-581.48C1286.21,-569.67 1343.15,-553 1380.8,-541.98"/>
<polygon fill="midnightblue" stroke="midnightblue" points="1382.26,-545.2 1390.87,-539.03 1380.29,-538.48 1382.26,-545.2"/>
</g>
<!-- Node35 -->
<g id="node35" class="node">
<title>Node35</title>
<g id="a_node35"><a xlink:href="un_2stream_2tls_2config_2_config_socket_client_8h.html" target="_top" xlink:title=" ">
<polygon fill="white" stroke="black" points="1106.5,-514.5 1106.5,-544.5 1239.5,-544.5 1239.5,-514.5 1106.5,-514.5"/>
<text text-anchor="start" x="1114.5" y="-532.5" font-family="Helvetica,sans-Serif" font-size="10.00">net/un/stream/tls/config</text>
<text text-anchor="middle" x="1173" y="-521.5" font-family="Helvetica,sans-Serif" font-size="10.00">/ConfigSocketClient.h</text>
</a>
</g>
</g>
<!-- Node2&#45;&gt;Node35 -->
<g id="edge43" class="edge">
<title>Node2&#45;&gt;Node35</title>
<path fill="none" stroke="midnightblue" d="M1192.58,-581.4C1189.5,-573.39 1185.56,-563.16 1182.03,-553.98"/>
<polygon fill="midnightblue" stroke="midnightblue" points="1185.27,-552.65 1178.41,-544.58 1178.74,-555.17 1185.27,-552.65"/>
</g>
<!-- Node4 -->
<g id="node4" class="node">
<title>Node4</title>
<g id="a_node4"><a xlink:href="core_2socket_2stream_2_socket_client_8h.html" target="_top" xlink:title=" ">
<polygon fill="white" stroke="black" points="824,-447.5 824,-477.5 934,-477.5 934,-447.5 824,-447.5"/>
<text text-anchor="start" x="832" y="-465.5" font-family="Helvetica,sans-Serif" font-size="10.00">core/socket/stream</text>
<text text-anchor="middle" x="879" y="-454.5" font-family="Helvetica,sans-Serif" font-size="10.00">/SocketClient.h</text>
</a>
</g>
</g>
<!-- Node3&#45;&gt;Node4 -->
<g id="edge3" class="edge">
<title>Node3&#45;&gt;Node4</title>
<path fill="none" stroke="midnightblue" d="M879,-514.4C879,-506.64 879,-496.81 879,-487.86"/>
<polygon fill="midnightblue" stroke="midnightblue" points="882.5,-487.58 879,-477.58 875.5,-487.58 882.5,-487.58"/>
</g>
<!-- Node5 -->
<g id="node5" class="node">
<title>Node5</title>
<g id="a_node5"><a xlink:href="tls_2_socket_connector_8h.html" target="_top" xlink:title=" ">
<polygon fill="white" stroke="black" points="655.5,-447.5 655.5,-477.5 780.5,-477.5 780.5,-447.5 655.5,-447.5"/>
<text text-anchor="start" x="663.5" y="-465.5" font-family="Helvetica,sans-Serif" font-size="10.00">core/socket/stream</text>
<text text-anchor="middle" x="718" y="-454.5" font-family="Helvetica,sans-Serif" font-size="10.00">/tls/SocketConnector.h</text>
</a>
</g>
</g>
<!-- Node3&#45;&gt;Node5 -->
<g id="edge4" class="edge">
<title>Node3&#45;&gt;Node5</title>
<path fill="none" stroke="midnightblue" d="M844.07,-514.4C820.12,-504.73 788.15,-491.82 762.4,-481.43"/>
<polygon fill="midnightblue" stroke="midnightblue" points="763.45,-478.07 752.87,-477.58 760.83,-484.57 763.45,-478.07"/>
</g>
<!-- Node6 -->
<g id="node6" class="node">
<title>Node6</title>
<g id="a_node6"><a xlink:href="_socket_connector_8h.html" target="_top" xlink:title=" ">
<polygon fill="white" stroke="black" points="663,-380.5 663,-410.5 773,-410.5 773,-380.5 663,-380.5"/>
<text text-anchor="start" x="671" y="-398.5" font-family="Helvetica,sans-Serif" font-size="10.00">core/socket/stream</text>
<text text-anchor="middle" x="718" y="-387.5" font-family="Helvetica,sans-Serif" font-size="10.00">/SocketConnector.h</text>
</a>
</g>
</g>
<!-- Node5&#45;&gt;Node6 -->
<g id="edge5" class="edge">
<title>Node5&#45;&gt;Node6</title>
<path fill="none" stroke="midnightblue" d="M718,-447.4C718,-439.64 718,-429.81 718,-420.86"/>
<polygon fill="midnightblue" stroke="midnightblue" points="721.5,-420.58 718,-410.58 714.5,-420.58 721.5,-420.58"/>
</g>
<!-- Node15 -->
<g id="node15" class="node">
<title>Node15</title>
<g id="a_node15"><a xlink:href="stream_2tls_2_socket_connection_8h.html" target="_top" xlink:title=" ">
<polygon fill="white" stroke="black" points="379.5,-380.5 379.5,-410.5 510.5,-410.5 510.5,-380.5 379.5,-380.5"/>
<text text-anchor="start" x="387.5" y="-398.5" font-family="Helvetica,sans-Serif" font-size="10.00">core/socket/stream</text>
<text text-anchor="middle" x="445" y="-387.5" font-family="Helvetica,sans-Serif" font-size="10.00">/tls/SocketConnection.h</text>
</a>
</g>
</g>
<!-- Node5&#45;&gt;Node15 -->
<g id="edge15" class="edge">
<title>Node5&#45;&gt;Node15</title>
<path fill="none" stroke="midnightblue" d="M659.1,-447.48C616.55,-437.34 558.93,-423.63 514.19,-412.97"/>
<polygon fill="midnightblue" stroke="midnightblue" points="514.8,-409.52 504.27,-410.61 513.18,-416.33 514.8,-409.52"/>
</g>
<!-- Node7 -->
<g id="node7" class="node">
<title>Node7</title>
<g id="a_node7"><a xlink:href="_connect_event_receiver_8h.html" target="_top" xlink:title=" ">
<polygon fill="white" stroke="black" points="528.5,-179.5 528.5,-209.5 667.5,-209.5 667.5,-179.5 528.5,-179.5"/>
<text text-anchor="start" x="536.5" y="-197.5" font-family="Helvetica,sans-Serif" font-size="10.00">core/eventreceiver</text>
<text text-anchor="middle" x="598" y="-186.5" font-family="Helvetica,sans-Serif" font-size="10.00">/ConnectEventReceiver.h</text>
</a>
</g>
</g>
<!-- Node6&#45;&gt;Node7 -->
<g id="edge6" class="edge">
<title>Node6&#45;&gt;Node7</title>
<path fill="none" stroke="midnightblue" d="M720.14,-380.26C723.62,-351.86 727.41,-287.33 698,-246 687.87,-231.76 672.52,-221.29 656.88,-213.71"/>
<polygon fill="midnightblue" stroke="midnightblue" points="658.23,-210.48 647.67,-209.57 655.36,-216.86 658.23,-210.48"/>
</g>
<!-- Node11 -->
<g id="node11" class="node">
<title>Node11</title>
<g id="a_node11"><a xlink:href="_init_connect_event_receiver_8h.html" target="_top" xlink:title=" ">
<polygon fill="white" stroke="black" points="587.5,-112.5 587.5,-142.5 742.5,-142.5 742.5,-112.5 587.5,-112.5"/>
<text text-anchor="start" x="595.5" y="-130.5" font-family="Helvetica,sans-Serif" font-size="10.00">core/eventreceiver</text>
<text text-anchor="middle" x="665" y="-119.5" font-family="Helvetica,sans-Serif" font-size="10.00">/InitConnectEventReceiver.h</text>
</a>
</g>
</g>
<!-- Node6&#45;&gt;Node11 -->
<g id="edge10" class="edge">
<title>Node6&#45;&gt;Node11</title>
<path fill="none" stroke="midnightblue" d="M724.55,-380.27C728.75,-370.34 733.81,-356.66 736,-344 738.35,-330.42 737.61,-326.68 736,-313 728.8,-251.88 696.86,-185.87 678.36,-151.8"/>
<polygon fill="midnightblue" stroke="midnightblue" points="681.22,-149.74 673.32,-142.68 675.1,-153.13 681.22,-149.74"/>
</g>
<!-- Node12 -->
<g id="node12" class="node">
<title>Node12</title>
<g id="a_node12"><a xlink:href="_socket_connection_factory_8h.html" target="_top" xlink:title=" ">
<polygon fill="white" stroke="black" points="829,-313.5 829,-343.5 979,-343.5 979,-313.5 829,-313.5"/>
<text text-anchor="start" x="837" y="-331.5" font-family="Helvetica,sans-Serif" font-size="10.00">core/socket/stream</text>
<text text-anchor="middle" x="904" y="-320.5" font-family="Helvetica,sans-Serif" font-size="10.00">/SocketConnectionFactory.h</text>
</a>
</g>
</g>
<!-- Node6&#45;&gt;Node12 -->
<g id="edge12" class="edge">
<title>Node6&#45;&gt;Node12</title>
<path fill="none" stroke="midnightblue" d="M758.36,-380.4C786.51,-370.56 824.26,-357.37 854.27,-346.88"/>
<polygon fill="midnightblue" stroke="midnightblue" points="855.43,-350.18 863.72,-343.58 853.12,-343.57 855.43,-350.18"/>
</g>
<!-- Node8 -->
<g id="node8" class="node">
<title>Node8</title>
<g id="a_node8"><a xlink:href="_descriptor_event_receiver_8h.html" target="_top" xlink:title=" ">
<polygon fill="white" stroke="black" points="367,-118 367,-137 537,-137 537,-118 367,-118"/>
<text text-anchor="middle" x="452" y="-125" font-family="Helvetica,sans-Serif" font-size="10.00">core/DescriptorEventReceiver.h</text>
</a>
</g>
</g>
<!-- Node7&#45;&gt;Node8 -->
<g id="edge7" class="edge">
<title>Node7&#45;&gt;Node8</title>
<path fill="none" stroke="midnightblue" d="M566.32,-179.4C540.7,-167.99 504.96,-152.08 480.3,-141.1"/>
<polygon fill="midnightblue" stroke="midnightblue" points="481.67,-137.88 471.11,-137.01 478.82,-144.27 481.67,-137.88"/>
</g>
<!-- Node9 -->
<g id="node9" class="node">
<title>Node9</title>
<g id="a_node9"><a xlink:href="_event_receiver_8h.html" target="_top" xlink:title=" ">
<polygon fill="white" stroke="black" points="494,-56.5 494,-75.5 590,-75.5 590,-56.5 494,-56.5"/>
<text text-anchor="middle" x="542" y="-63.5" font-family="Helvetica,sans-Serif" font-size="10.00">EventReceiver.h</text>
</a>
</g>
</g>
<!-- Node8&#45;&gt;Node9 -->
<g id="edge8" class="edge">
<title>Node8&#45;&gt;Node9</title>
<path fill="none" stroke="midnightblue" d="M464.89,-117.98C479.46,-108.34 503.4,-92.52 520.75,-81.05"/>
<polygon fill="midnightblue" stroke="midnightblue" points="522.72,-83.94 529.13,-75.51 518.86,-78.1 522.72,-83.94"/>
</g>
<!-- Node10 -->
<g id="node10" class="node">
<title>Node10</title>
<g id="a_node10"><a xlink:href="_event_8h.html" target="_top" xlink:title=" ">
<polygon fill="white" stroke="black" points="503.5,-0.5 503.5,-19.5 580.5,-19.5 580.5,-0.5 503.5,-0.5"/>
<text text-anchor="middle" x="542" y="-7.5" font-family="Helvetica,sans-Serif" font-size="10.00">core/Event.h</text>
</a>
</g>
</g>
<!-- Node9&#45;&gt;Node10 -->
<g id="edge9" class="edge">
<title>Node9&#45;&gt;Node10</title>
<path fill="none" stroke="midnightblue" d="M542,-56.08C542,-49.01 542,-38.86 542,-29.99"/>
<polygon fill="midnightblue" stroke="midnightblue" points="545.5,-29.75 542,-19.75 538.5,-29.75 545.5,-29.75"/>
</g>
<!-- Node11&#45;&gt;Node9 -->
<g id="edge11" class="edge">
<title>Node11&#45;&gt;Node9</title>
<path fill="none" stroke="midnightblue" d="M635.85,-112.4C615.58,-102.59 588.76,-89.62 568.98,-80.05"/>
<polygon fill="midnightblue" stroke="midnightblue" points="570.42,-76.86 559.9,-75.66 567.38,-83.16 570.42,-76.86"/>
</g>
<!-- Node13 -->
<g id="node13" class="node">
<title>Node13</title>
<g id="a_node13"><a xlink:href="net_2socket_8h.html" target="_top" xlink:title=" ">
<polygon fill="white" stroke="black" points="1181.5,-252 1181.5,-271 1258.5,-271 1258.5,-252 1181.5,-252"/>
<text text-anchor="middle" x="1220" y="-259" font-family="Helvetica,sans-Serif" font-size="10.00">net/Socket.h</text>
</a>
</g>
</g>
<!-- Node12&#45;&gt;Node13 -->
<g id="edge13" class="edge">
<title>Node12&#45;&gt;Node13</title>
<path fill="none" stroke="midnightblue" d="M972.18,-313.48C1032.18,-301.13 1118.05,-283.47 1171.35,-272.51"/>
<polygon fill="midnightblue" stroke="midnightblue" points="1172.14,-275.92 1181.23,-270.47 1170.73,-269.06 1172.14,-275.92"/>
</g>
<!-- Node14 -->
<g id="node14" class="node">
<title>Node14</title>
<g id="a_node14"><a xlink:href="_descriptor_8h.html" target="_top" xlink:title=" ">
<polygon fill="white" stroke="black" points="1170,-185 1170,-204 1270,-204 1270,-185 1170,-185"/>
<text text-anchor="middle" x="1220" y="-192" font-family="Helvetica,sans-Serif" font-size="10.00">core/Descriptor.h</text>
</a>
</g>
</g>
<!-- Node13&#45;&gt;Node14 -->
<g id="edge14" class="edge">
<title>Node13&#45;&gt;Node14</title>
<path fill="none" stroke="midnightblue" d="M1220,-251.73C1220,-242.18 1220,-226.62 1220,-214.28"/>
<polygon fill="midnightblue" stroke="midnightblue" points="1223.5,-214.13 1220,-204.13 1216.5,-214.13 1223.5,-214.13"/>
</g>
<!-- Node16 -->
<g id="node16" class="node">
<title>Node16</title>
<g id="a_node16"><a xlink:href="stream_2_socket_connection_8h.html" target="_top" xlink:title=" ">
<polygon fill="white" stroke="black" points="510,-313.5 510,-343.5 626,-343.5 626,-313.5 510,-313.5"/>
<text text-anchor="start" x="518" y="-331.5" font-family="Helvetica,sans-Serif" font-size="10.00">core/socket/stream</text>
<text text-anchor="middle" x="568" y="-320.5" font-family="Helvetica,sans-Serif" font-size="10.00">/SocketConnection.h</text>
</a>
</g>
</g>
<!-- Node15&#45;&gt;Node16 -->
<g id="edge16" class="edge">
<title>Node15&#45;&gt;Node16</title>
<path fill="none" stroke="midnightblue" d="M471.69,-380.4C489.5,-370.98 513.12,-358.5 532.51,-348.26"/>
<polygon fill="midnightblue" stroke="midnightblue" points="534.16,-351.34 541.36,-343.58 530.89,-345.15 534.16,-351.34"/>
</g>
<!-- Node18 -->
<g id="node18" class="node">
<title>Node18</title>
<g id="a_node18"><a xlink:href="tls_2_socket_reader_8h.html" target="_top" xlink:title=" ">
<polygon fill="white" stroke="black" points="131,-313.5 131,-343.5 241,-343.5 241,-313.5 131,-313.5"/>
<text text-anchor="start" x="139" y="-331.5" font-family="Helvetica,sans-Serif" font-size="10.00">core/socket/stream</text>
<text text-anchor="middle" x="186" y="-320.5" font-family="Helvetica,sans-Serif" font-size="10.00">/tls/SocketReader.h</text>
</a>
</g>
</g>
<!-- Node15&#45;&gt;Node18 -->
<g id="edge18" class="edge">
<title>Node15&#45;&gt;Node18</title>
<path fill="none" stroke="midnightblue" d="M389.12,-380.48C348.56,-370.3 293.57,-356.5 251.04,-345.82"/>
<polygon fill="midnightblue" stroke="midnightblue" points="251.89,-342.43 241.33,-343.39 250.18,-349.22 251.89,-342.43"/>
</g>
<!-- Node23 -->
<g id="node23" class="node">
<title>Node23</title>
<g id="a_node23"><a xlink:href="tls_2_socket_writer_8h.html" target="_top" xlink:title=" ">
<polygon fill="white" stroke="black" points="262,-313.5 262,-343.5 372,-343.5 372,-313.5 262,-313.5"/>
<text text-anchor="start" x="270" y="-331.5" font-family="Helvetica,sans-Serif" font-size="10.00">core/socket/stream</text>
<text text-anchor="middle" x="317" y="-320.5" font-family="Helvetica,sans-Serif" font-size="10.00">/tls/SocketWriter.h</text>
</a>
</g>
</g>
<!-- Node15&#45;&gt;Node23 -->
<g id="edge26" class="edge">
<title>Node15&#45;&gt;Node23</title>
<path fill="none" stroke="midnightblue" d="M417.23,-380.4C398.61,-370.94 373.89,-358.39 353.66,-348.12"/>
<polygon fill="midnightblue" stroke="midnightblue" points="355.22,-344.98 344.72,-343.58 352.05,-351.23 355.22,-344.98"/>
</g>
<!-- Node25 -->
<g id="node25" class="node">
<title>Node25</title>
<g id="a_node25"><a xlink:href="_t_l_s_shutdown_8h.html" target="_top" xlink:title=" ">
<polygon fill="white" stroke="black" points="390,-246.5 390,-276.5 500,-276.5 500,-246.5 390,-246.5"/>
<text text-anchor="start" x="398" y="-264.5" font-family="Helvetica,sans-Serif" font-size="10.00">core/socket/stream</text>
<text text-anchor="middle" x="445" y="-253.5" font-family="Helvetica,sans-Serif" font-size="10.00">/tls/TLSShutdown.h</text>
</a>
</g>
</g>
<!-- Node15&#45;&gt;Node25 -->
<g id="edge30" class="edge">
<title>Node15&#45;&gt;Node25</title>
<path fill="none" stroke="midnightblue" d="M445,-380.37C445,-358.04 445,-314.31 445,-286.85"/>
<polygon fill="midnightblue" stroke="midnightblue" points="448.5,-286.52 445,-276.52 441.5,-286.52 448.5,-286.52"/>
</g>
<!-- Node17 -->
<g id="node17" class="node">
<title>Node17</title>
<g id="a_node17"><a xlink:href="_socket_connection_8h.html" target="_top" xlink:title=" ">
<polygon fill="white" stroke="black" points="518.5,-252 518.5,-271 689.5,-271 689.5,-252 518.5,-252"/>
<text text-anchor="middle" x="604" y="-259" font-family="Helvetica,sans-Serif" font-size="10.00">core/socket/SocketConnection.h</text>
</a>
</g>
</g>
<!-- Node16&#45;&gt;Node17 -->
<g id="edge17" class="edge">
<title>Node16&#45;&gt;Node17</title>
<path fill="none" stroke="midnightblue" d="M575.81,-313.4C581.2,-303.66 588.41,-290.65 594.19,-280.21"/>
<polygon fill="midnightblue" stroke="midnightblue" points="597.4,-281.64 599.18,-271.19 591.28,-278.25 597.4,-281.64"/>
</g>
<!-- Node19 -->
<g id="node19" class="node">
<title>Node19</title>
<g id="a_node19"><a xlink:href="_socket_reader_8h.html" target="_top" xlink:title=" ">
<polygon fill="white" stroke="black" points="0,-246.5 0,-276.5 110,-276.5 110,-246.5 0,-246.5"/>
<text text-anchor="start" x="8" y="-264.5" font-family="Helvetica,sans-Serif" font-size="10.00">core/socket/stream</text>
<text text-anchor="middle" x="55" y="-253.5" font-family="Helvetica,sans-Serif" font-size="10.00">/SocketReader.h</text>
</a>
</g>
</g>
<!-- Node18&#45;&gt;Node19 -->
<g id="edge19" class="edge">
<title>Node18&#45;&gt;Node19</title>
<path fill="none" stroke="midnightblue" d="M157.57,-313.4C138.52,-303.94 113.22,-291.39 92.52,-281.12"/>
<polygon fill="midnightblue" stroke="midnightblue" points="93.88,-277.89 83.37,-276.58 90.77,-284.16 93.88,-277.89"/>
</g>
<!-- Node21 -->
<g id="node21" class="node">
<title>Node21</title>
<g id="a_node21"><a xlink:href="_t_l_s_handshake_8h.html" target="_top" xlink:title=" ">
<polygon fill="white" stroke="black" points="128.5,-246.5 128.5,-276.5 243.5,-276.5 243.5,-246.5 128.5,-246.5"/>
<text text-anchor="start" x="136.5" y="-264.5" font-family="Helvetica,sans-Serif" font-size="10.00">core/socket/stream</text>
<text text-anchor="middle" x="186" y="-253.5" font-family="Helvetica,sans-Serif" font-size="10.00">/tls/TLSHandshake.h</text>
</a>
</g>
</g>
<!-- Node18&#45;&gt;Node21 -->
<g id="edge22" class="edge">
<title>Node18&#45;&gt;Node21</title>
<path fill="none" stroke="midnightblue" d="M186,-313.4C186,-305.64 186,-295.81 186,-286.86"/>
<polygon fill="midnightblue" stroke="midnightblue" points="189.5,-286.58 186,-276.58 182.5,-286.58 189.5,-286.58"/>
</g>
<!-- Node20 -->
<g id="node20" class="node">
<title>Node20</title>
<g id="a_node20"><a xlink:href="_read_event_receiver_8h.html" target="_top" xlink:title=" ">
<polygon fill="white" stroke="black" points="153,-179.5 153,-209.5 277,-209.5 277,-179.5 153,-179.5"/>
<text text-anchor="start" x="161" y="-197.5" font-family="Helvetica,sans-Serif" font-size="10.00">core/eventreceiver</text>
<text text-anchor="middle" x="215" y="-186.5" font-family="Helvetica,sans-Serif" font-size="10.00">/ReadEventReceiver.h</text>
</a>
</g>
</g>
<!-- Node19&#45;&gt;Node20 -->
<g id="edge20" class="edge">
<title>Node19&#45;&gt;Node20</title>
<path fill="none" stroke="midnightblue" d="M89.72,-246.4C113.51,-236.73 145.28,-223.82 170.87,-213.43"/>
<polygon fill="midnightblue" stroke="midnightblue" points="172.4,-216.58 180.35,-209.58 169.77,-210.1 172.4,-216.58"/>
</g>
<!-- Node20&#45;&gt;Node8 -->
<g id="edge21" class="edge">
<title>Node20&#45;&gt;Node8</title>
<path fill="none" stroke="midnightblue" d="M266.13,-179.48C309.54,-167.57 371,-150.72 411.17,-139.7"/>
<polygon fill="midnightblue" stroke="midnightblue" points="412.19,-143.05 420.9,-137.03 410.33,-136.3 412.19,-143.05"/>
</g>
<!-- Node21&#45;&gt;Node20 -->
<g id="edge23" class="edge">
<title>Node21&#45;&gt;Node20</title>
<path fill="none" stroke="midnightblue" d="M192.29,-246.4C195.86,-238.39 200.43,-228.16 204.53,-218.98"/>
<polygon fill="midnightblue" stroke="midnightblue" points="207.84,-220.13 208.72,-209.58 201.45,-217.28 207.84,-220.13"/>
</g>
<!-- Node22 -->
<g id="node22" class="node">
<title>Node22</title>
<g id="a_node22"><a xlink:href="_write_event_receiver_8h.html" target="_top" xlink:title=" ">
<polygon fill="white" stroke="black" points="324.5,-179.5 324.5,-209.5 449.5,-209.5 449.5,-179.5 324.5,-179.5"/>
<text text-anchor="start" x="332.5" y="-197.5" font-family="Helvetica,sans-Serif" font-size="10.00">core/eventreceiver</text>
<text text-anchor="middle" x="387" y="-186.5" font-family="Helvetica,sans-Serif" font-size="10.00">/WriteEventReceiver.h</text>
</a>
</g>
</g>
<!-- Node21&#45;&gt;Node22 -->
<g id="edge24" class="edge">
<title>Node21&#45;&gt;Node22</title>
<path fill="none" stroke="midnightblue" d="M229.61,-246.4C260.17,-236.52 301.18,-223.25 333.68,-212.74"/>
<polygon fill="midnightblue" stroke="midnightblue" points="335.03,-215.98 343.47,-209.58 332.88,-209.32 335.03,-215.98"/>
</g>
<!-- Node22&#45;&gt;Node8 -->
<g id="edge25" class="edge">
<title>Node22&#45;&gt;Node8</title>
<path fill="none" stroke="midnightblue" d="M401.1,-179.4C411.44,-169.06 425.48,-155.02 436.19,-144.31"/>
<polygon fill="midnightblue" stroke="midnightblue" points="438.71,-146.74 443.31,-137.19 433.76,-141.79 438.71,-146.74"/>
</g>
<!-- Node23&#45;&gt;Node21 -->
<g id="edge29" class="edge">
<title>Node23&#45;&gt;Node21</title>
<path fill="none" stroke="midnightblue" d="M288.57,-313.4C269.52,-303.94 244.22,-291.39 223.52,-281.12"/>
<polygon fill="midnightblue" stroke="midnightblue" points="224.88,-277.89 214.37,-276.58 221.77,-284.16 224.88,-277.89"/>
</g>
<!-- Node24 -->
<g id="node24" class="node">
<title>Node24</title>
<g id="a_node24"><a xlink:href="_socket_writer_8h.html" target="_top" xlink:title=" ">
<polygon fill="white" stroke="black" points="262,-246.5 262,-276.5 372,-276.5 372,-246.5 262,-246.5"/>
<text text-anchor="start" x="270" y="-264.5" font-family="Helvetica,sans-Serif" font-size="10.00">core/socket/stream</text>
<text text-anchor="middle" x="317" y="-253.5" font-family="Helvetica,sans-Serif" font-size="10.00">/SocketWriter.h</text>
</a>
</g>
</g>
<!-- Node23&#45;&gt;Node24 -->
<g id="edge27" class="edge">
<title>Node23&#45;&gt;Node24</title>
<path fill="none" stroke="midnightblue" d="M317,-313.4C317,-305.64 317,-295.81 317,-286.86"/>
<polygon fill="midnightblue" stroke="midnightblue" points="320.5,-286.58 317,-276.58 313.5,-286.58 320.5,-286.58"/>
</g>
<!-- Node24&#45;&gt;Node22 -->
<g id="edge28" class="edge">
<title>Node24&#45;&gt;Node22</title>
<path fill="none" stroke="midnightblue" d="M332.19,-246.4C341.55,-237.71 353.72,-226.4 364.21,-216.66"/>
<polygon fill="midnightblue" stroke="midnightblue" points="366.89,-218.95 371.84,-209.58 362.13,-213.82 366.89,-218.95"/>
</g>
<!-- Node25&#45;&gt;Node20 -->
<g id="edge31" class="edge">
<title>Node25&#45;&gt;Node20</title>
<path fill="none" stroke="midnightblue" d="M395.38,-246.48C359.98,-236.47 312.21,-222.97 274.72,-212.38"/>
<polygon fill="midnightblue" stroke="midnightblue" points="275.51,-208.96 264.93,-209.61 273.6,-215.7 275.51,-208.96"/>
</g>
<!-- Node25&#45;&gt;Node22 -->
<g id="edge32" class="edge">
<title>Node25&#45;&gt;Node22</title>
<path fill="none" stroke="midnightblue" d="M432.41,-246.4C424.81,-237.88 414.97,-226.85 406.39,-217.23"/>
<polygon fill="midnightblue" stroke="midnightblue" points="408.83,-214.71 399.56,-209.58 403.61,-219.37 408.83,-214.71"/>
</g>
<!-- Node27 -->
<g id="node27" class="node">
<title>Node27</title>
<g id="a_node27"><a xlink:href="net_2stream_2_socket_client_8h.html" target="_top" xlink:title=" ">
<polygon fill="white" stroke="black" points="1520.5,-453 1520.5,-472 1663.5,-472 1663.5,-453 1520.5,-453"/>
<text text-anchor="middle" x="1592" y="-460" font-family="Helvetica,sans-Serif" font-size="10.00">net/stream/SocketClient.h</text>
</a>
</g>
</g>
<!-- Node26&#45;&gt;Node27 -->
<g id="edge34" class="edge">
<title>Node26&#45;&gt;Node27</title>
<path fill="none" stroke="midnightblue" d="M1442.84,-519.87C1472.87,-508.52 1525.78,-488.52 1559.84,-475.65"/>
<polygon fill="midnightblue" stroke="midnightblue" points="1561.22,-478.87 1569.34,-472.06 1558.75,-472.32 1561.22,-478.87"/>
</g>
<!-- Node29 -->
<g id="node29" class="node">
<title>Node29</title>
<g id="a_node29"><a xlink:href="un_2stream_2_client_socket_8h.html" target="_top" xlink:title=" ">
<polygon fill="white" stroke="black" points="1344,-453 1344,-472 1502,-472 1502,-453 1344,-453"/>
<text text-anchor="middle" x="1423" y="-460" font-family="Helvetica,sans-Serif" font-size="10.00">net/un/stream/ClientSocket.h</text>
</a>
</g>
</g>
<!-- Node26&#45;&gt;Node29 -->
<g id="edge36" class="edge">
<title>Node26&#45;&gt;Node29</title>
<path fill="none" stroke="midnightblue" d="M1420.4,-519.73C1420.85,-510.18 1421.56,-494.62 1422.13,-482.28"/>
<polygon fill="midnightblue" stroke="midnightblue" points="1425.64,-482.28 1422.6,-472.13 1418.64,-481.96 1425.64,-482.28"/>
</g>
<!-- Node28 -->
<g id="node28" class="node">
<title>Node28</title>
<g id="a_node28"><a xlink:href="_socket_config_8h.html" target="_top" xlink:title=" ">
<polygon fill="white" stroke="black" points="1683,-386 1683,-405 1791,-405 1791,-386 1683,-386"/>
<text text-anchor="middle" x="1737" y="-393" font-family="Helvetica,sans-Serif" font-size="10.00">net/SocketConfig.h</text>
</a>
</g>
</g>
<!-- Node27&#45;&gt;Node28 -->
<g id="edge35" class="edge">
<title>Node27&#45;&gt;Node28</title>
<path fill="none" stroke="midnightblue" d="M1611.25,-452.87C1636.17,-441.7 1679.79,-422.15 1708.53,-409.26"/>
<polygon fill="midnightblue" stroke="midnightblue" points="1709.97,-412.45 1717.67,-405.17 1707.11,-406.06 1709.97,-412.45"/>
</g>
<!-- Node30 -->
<g id="node30" class="node">
<title>Node30</title>
<g id="a_node30"><a xlink:href="stream_2_client_socket_8h.html" target="_top" xlink:title=" ">
<polygon fill="white" stroke="black" points="1511.5,-386 1511.5,-405 1654.5,-405 1654.5,-386 1511.5,-386"/>
<text text-anchor="middle" x="1583" y="-393" font-family="Helvetica,sans-Serif" font-size="10.00">net/stream/ClientSocket.h</text>
</a>
</g>
</g>
<!-- Node29&#45;&gt;Node30 -->
<g id="edge37" class="edge">
<title>Node29&#45;&gt;Node30</title>
<path fill="none" stroke="midnightblue" d="M1444.25,-452.87C1471.94,-441.62 1520.56,-421.87 1552.27,-408.99"/>
<polygon fill="midnightblue" stroke="midnightblue" points="1553.97,-412.07 1561.92,-405.06 1551.34,-405.58 1553.97,-412.07"/>
</g>
<!-- Node31 -->
<g id="node31" class="node">
<title>Node31</title>
<g id="a_node31"><a xlink:href="net_2un_2stream_2socket_8h.html" target="_top" xlink:title=" ">
<polygon fill="white" stroke="black" points="1364.5,-386 1364.5,-405 1493.5,-405 1493.5,-386 1364.5,-386"/>
<text text-anchor="middle" x="1429" y="-393" font-family="Helvetica,sans-Serif" font-size="10.00">net/un/stream/Socket.h</text>
</a>
</g>
</g>
<!-- Node29&#45;&gt;Node31 -->
<g id="edge38" class="edge">
<title>Node29&#45;&gt;Node31</title>
<path fill="none" stroke="midnightblue" d="M1423.81,-452.73C1424.69,-443.18 1426.13,-427.62 1427.27,-415.28"/>
<polygon fill="midnightblue" stroke="midnightblue" points="1430.77,-415.41 1428.2,-405.13 1423.8,-414.76 1430.77,-415.41"/>
</g>
<!-- Node32 -->
<g id="node32" class="node">
<title>Node32</title>
<g id="a_node32"><a xlink:href="net_2un_2socket_8h.html" target="_top" xlink:title=" ">
<polygon fill="white" stroke="black" points="1201,-319 1201,-338 1293,-338 1293,-319 1201,-319"/>
<text text-anchor="middle" x="1247" y="-326" font-family="Helvetica,sans-Serif" font-size="10.00">net/un/Socket.h</text>
</a>
</g>
</g>
<!-- Node31&#45;&gt;Node32 -->
<g id="edge39" class="edge">
<title>Node31&#45;&gt;Node32</title>
<path fill="none" stroke="midnightblue" d="M1404.83,-385.87C1372.92,-374.47 1316.59,-354.35 1280.56,-341.49"/>
<polygon fill="midnightblue" stroke="midnightblue" points="1281.57,-338.13 1270.98,-338.06 1279.22,-344.72 1281.57,-338.13"/>
</g>
<!-- Node32&#45;&gt;Node13 -->
<g id="edge40" class="edge">
<title>Node32&#45;&gt;Node13</title>
<path fill="none" stroke="midnightblue" d="M1243.36,-318.73C1239.31,-308.99 1232.66,-292.98 1227.49,-280.53"/>
<polygon fill="midnightblue" stroke="midnightblue" points="1230.65,-279.02 1223.58,-271.13 1224.19,-281.7 1230.65,-279.02"/>
</g>
<!-- Node33 -->
<g id="node33" class="node">
<title>Node33</title>
<g id="a_node33"><a xlink:href="un_2_socket_address_8h.html" target="_top" xlink:title=" ">
<polygon fill="white" stroke="black" points="1303.5,-252 1303.5,-271 1434.5,-271 1434.5,-252 1303.5,-252"/>
<text text-anchor="middle" x="1369" y="-259" font-family="Helvetica,sans-Serif" font-size="10.00">net/un/SocketAddress.h</text>
</a>
</g>
</g>
<!-- Node32&#45;&gt;Node33 -->
<g id="edge41" class="edge">
<title>Node32&#45;&gt;Node33</title>
<path fill="none" stroke="midnightblue" d="M1263.2,-318.87C1283.8,-307.89 1319.59,-288.82 1343.78,-275.94"/>
<polygon fill="midnightblue" stroke="midnightblue" points="1345.55,-278.96 1352.73,-271.17 1342.26,-272.78 1345.55,-278.96"/>
</g>
<!-- Node34 -->
<g id="node34" class="node">
<title>Node34</title>
<g id="a_node34"><a xlink:href="_socket_address_8h.html" target="_top" xlink:title=" ">
<polygon fill="white" stroke="black" points="1311,-185 1311,-204 1427,-204 1427,-185 1311,-185"/>
<text text-anchor="middle" x="1369" y="-192" font-family="Helvetica,sans-Serif" font-size="10.00">net/SocketAddress.h</text>
</a>
</g>
</g>
<!-- Node33&#45;&gt;Node34 -->
<g id="edge42" class="edge">
<title>Node33&#45;&gt;Node34</title>
<path fill="none" stroke="midnightblue" d="M1369,-251.73C1369,-242.18 1369,-226.62 1369,-214.28"/>
<polygon fill="midnightblue" stroke="midnightblue" points="1372.5,-214.13 1369,-204.13 1365.5,-214.13 1372.5,-214.13"/>
</g>
<!-- Node36 -->
<g id="node36" class="node">
<title>Node36</title>
<g id="a_node36"><a xlink:href="_config_tls_8h.html" target="_top" xlink:title=" ">
<polygon fill="white" stroke="black" points="965.5,-453 965.5,-472 1088.5,-472 1088.5,-453 965.5,-453"/>
<text text-anchor="middle" x="1027" y="-460" font-family="Helvetica,sans-Serif" font-size="10.00">net/config/ConfigTls.h</text>
</a>
</g>
</g>
<!-- Node35&#45;&gt;Node36 -->
<g id="edge44" class="edge">
<title>Node35&#45;&gt;Node36</title>
<path fill="none" stroke="midnightblue" d="M1141.32,-514.4C1115.7,-502.99 1079.96,-487.08 1055.3,-476.1"/>
<polygon fill="midnightblue" stroke="midnightblue" points="1056.67,-472.88 1046.11,-472.01 1053.82,-479.27 1056.67,-472.88"/>
</g>
<!-- Node38 -->
<g id="node38" class="node">
<title>Node38</title>
<g id="a_node38"><a xlink:href="un_2stream_2config_2_config_socket_client_8h.html" target="_top" xlink:title=" ">
<polygon fill="white" stroke="black" points="1112.5,-447.5 1112.5,-477.5 1233.5,-477.5 1233.5,-447.5 1112.5,-447.5"/>
<text text-anchor="start" x="1120.5" y="-465.5" font-family="Helvetica,sans-Serif" font-size="10.00">net/un/stream/config</text>
<text text-anchor="middle" x="1173" y="-454.5" font-family="Helvetica,sans-Serif" font-size="10.00">/ConfigSocketClient.h</text>
</a>
</g>
</g>
<!-- Node35&#45;&gt;Node38 -->
<g id="edge46" class="edge">
<title>Node35&#45;&gt;Node38</title>
<path fill="none" stroke="midnightblue" d="M1173,-514.4C1173,-506.64 1173,-496.81 1173,-487.86"/>
<polygon fill="midnightblue" stroke="midnightblue" points="1176.5,-487.58 1173,-477.58 1169.5,-487.58 1176.5,-487.58"/>
</g>
<!-- Node37 -->
<g id="node37" class="node">
<title>Node37</title>
<g id="a_node37"><a xlink:href="_config_base_8h.html" target="_top" xlink:title=" ">
<polygon fill="white" stroke="black" points="1004.5,-252 1004.5,-271 1137.5,-271 1137.5,-252 1004.5,-252"/>
<text text-anchor="middle" x="1071" y="-259" font-family="Helvetica,sans-Serif" font-size="10.00">net/config/ConfigBase.h</text>
</a>
</g>
</g>
<!-- Node36&#45;&gt;Node37 -->
<g id="edge45" class="edge">
<title>Node36&#45;&gt;Node37</title>
<path fill="none" stroke="midnightblue" d="M978.95,-452.98C920.94,-442.22 829.88,-423.58 820,-411 793.1,-376.75 792.41,-346.7 820,-313 841.75,-286.44 928.66,-273.54 994.16,-267.49"/>
<polygon fill="midnightblue" stroke="midnightblue" points="994.82,-270.95 1004.47,-266.58 994.2,-263.98 994.82,-270.95"/>
</g>
<!-- Node39 -->
<g id="node39" class="node">
<title>Node39</title>
<g id="a_node39"><a xlink:href="_config_address_local_8h.html" target="_top" xlink:title=" ">
<polygon fill="white" stroke="black" points="986.5,-380.5 986.5,-410.5 1125.5,-410.5 1125.5,-380.5 986.5,-380.5"/>
<text text-anchor="start" x="994.5" y="-398.5" font-family="Helvetica,sans-Serif" font-size="10.00">net/config/ConfigAddress</text>
<text text-anchor="middle" x="1056" y="-387.5" font-family="Helvetica,sans-Serif" font-size="10.00">Local.h</text>
</a>
</g>
</g>
<!-- Node38&#45;&gt;Node39 -->
<g id="edge47" class="edge">
<title>Node38&#45;&gt;Node39</title>
<path fill="none" stroke="midnightblue" d="M1147.61,-447.4C1130.82,-438.07 1108.61,-425.73 1090.26,-415.53"/>
<polygon fill="midnightblue" stroke="midnightblue" points="1091.78,-412.37 1081.34,-410.58 1088.38,-418.49 1091.78,-412.37"/>
</g>
<!-- Node41 -->
<g id="node41" class="node">
<title>Node41</title>
<g id="a_node41"><a xlink:href="_config_address_remote_8h.html" target="_top" xlink:title=" ">
<polygon fill="white" stroke="black" points="829.5,-380.5 829.5,-410.5 968.5,-410.5 968.5,-380.5 829.5,-380.5"/>
<text text-anchor="start" x="837.5" y="-398.5" font-family="Helvetica,sans-Serif" font-size="10.00">net/config/ConfigAddress</text>
<text text-anchor="middle" x="899" y="-387.5" font-family="Helvetica,sans-Serif" font-size="10.00">Remote.h</text>
</a>
</g>
</g>
<!-- Node38&#45;&gt;Node41 -->
<g id="edge50" class="edge">
<title>Node38&#45;&gt;Node41</title>
<path fill="none" stroke="midnightblue" d="M1113.88,-447.48C1071.18,-437.34 1013.35,-423.63 968.44,-412.97"/>
<polygon fill="midnightblue" stroke="midnightblue" points="969.02,-409.51 958.48,-410.61 967.41,-416.32 969.02,-409.51"/>
</g>
<!-- Node42 -->
<g id="node42" class="node">
<title>Node42</title>
<g id="a_node42"><a xlink:href="_config_connection_8h.html" target="_top" xlink:title=" ">
<polygon fill="white" stroke="black" points="1144,-386 1144,-405 1308,-405 1308,-386 1144,-386"/>
<text text-anchor="middle" x="1226" y="-393" font-family="Helvetica,sans-Serif" font-size="10.00">net/config/ConfigConnection.h</text>
</a>
</g>
</g>
<!-- Node38&#45;&gt;Node42 -->
<g id="edge52" class="edge">
<title>Node38&#45;&gt;Node42</title>
<path fill="none" stroke="midnightblue" d="M1184.5,-447.4C1192.68,-437.36 1203.71,-423.84 1212.34,-413.25"/>
<polygon fill="midnightblue" stroke="midnightblue" points="1215.3,-415.16 1218.91,-405.19 1209.88,-410.73 1215.3,-415.16"/>
</g>
<!-- Node43 -->
<g id="node43" class="node">
<title>Node43</title>
<g id="a_node43"><a xlink:href="un_2config_2_config_address_8h.html" target="_top" xlink:title=" ">
<polygon fill="white" stroke="black" points="1311.5,-319 1311.5,-338 1474.5,-338 1474.5,-319 1311.5,-319"/>
<text text-anchor="middle" x="1393" y="-326" font-family="Helvetica,sans-Serif" font-size="10.00">net/un/config/ConfigAddress.h</text>
</a>
</g>
</g>
<!-- Node38&#45;&gt;Node43 -->
<g id="edge54" class="edge">
<title>Node38&#45;&gt;Node43</title>
<path fill="none" stroke="midnightblue" d="M1233.07,-447.48C1260.12,-439.45 1291.61,-427.59 1317,-411 1343.6,-393.62 1367.35,-364.99 1380.96,-346.7"/>
<polygon fill="midnightblue" stroke="midnightblue" points="1383.93,-348.58 1386.96,-338.42 1378.26,-344.47 1383.93,-348.58"/>
</g>
<!-- Node40 -->
<g id="node40" class="node">
<title>Node40</title>
<g id="a_node40"><a xlink:href="config_2_config_address_8h.html" target="_top" xlink:title=" ">
<polygon fill="white" stroke="black" points="997,-319 997,-338 1145,-338 1145,-319 997,-319"/>
<text text-anchor="middle" x="1071" y="-326" font-family="Helvetica,sans-Serif" font-size="10.00">net/config/ConfigAddress.h</text>
</a>
</g>
</g>
<!-- Node39&#45;&gt;Node40 -->
<g id="edge48" class="edge">
<title>Node39&#45;&gt;Node40</title>
<path fill="none" stroke="midnightblue" d="M1059.25,-380.4C1061.43,-370.96 1064.32,-358.45 1066.69,-348.19"/>
<polygon fill="midnightblue" stroke="midnightblue" points="1070.16,-348.73 1068.99,-338.19 1063.33,-347.15 1070.16,-348.73"/>
</g>
<!-- Node40&#45;&gt;Node37 -->
<g id="edge49" class="edge">
<title>Node40&#45;&gt;Node37</title>
<path fill="none" stroke="midnightblue" d="M1071,-318.73C1071,-309.18 1071,-293.62 1071,-281.28"/>
<polygon fill="midnightblue" stroke="midnightblue" points="1074.5,-281.13 1071,-271.13 1067.5,-281.13 1074.5,-281.13"/>
</g>
<!-- Node41&#45;&gt;Node40 -->
<g id="edge51" class="edge">
<title>Node41&#45;&gt;Node40</title>
<path fill="none" stroke="midnightblue" d="M936.32,-380.4C966.9,-368.84 1009.73,-352.66 1038.82,-341.66"/>
<polygon fill="midnightblue" stroke="midnightblue" points="1040.37,-344.82 1048.49,-338.01 1037.9,-338.27 1040.37,-344.82"/>
</g>
<!-- Node42&#45;&gt;Node37 -->
<g id="edge53" class="edge">
<title>Node42&#45;&gt;Node37</title>
<path fill="none" stroke="midnightblue" d="M1219.78,-385.88C1208.12,-370.12 1181.65,-336.15 1154,-313 1136.43,-298.29 1114.14,-284.97 1097.08,-275.71"/>
<polygon fill="midnightblue" stroke="midnightblue" points="1098.68,-272.6 1088.2,-271 1095.39,-278.78 1098.68,-272.6"/>
</g>
<!-- Node43&#45;&gt;Node33 -->
<g id="edge55" class="edge">
<title>Node43&#45;&gt;Node33</title>
<path fill="none" stroke="midnightblue" d="M1389.76,-318.73C1386.16,-308.99 1380.25,-292.98 1375.66,-280.53"/>
<polygon fill="midnightblue" stroke="midnightblue" points="1378.93,-279.3 1372.19,-271.13 1372.37,-281.72 1378.93,-279.3"/>
</g>
<!-- Node44&#45;&gt;Node26 -->
<g id="edge61" class="edge">
<title>Node44&#45;&gt;Node26</title>
<path fill="none" stroke="midnightblue" d="M1420,-586.73C1420,-577.18 1420,-561.62 1420,-549.28"/>
<polygon fill="midnightblue" stroke="midnightblue" points="1423.5,-549.13 1420,-539.13 1416.5,-549.13 1423.5,-549.13"/>
</g>
<!-- Node45 -->
<g id="node45" class="node">
<title>Node45</title>
<g id="a_node45"><a xlink:href="stream_2_socket_client_8hpp.html" target="_top" xlink:title=" ">
<polygon fill="white" stroke="black" points="1517.5,-520 1517.5,-539 1672.5,-539 1672.5,-520 1517.5,-520"/>
<text text-anchor="middle" x="1595" y="-527" font-family="Helvetica,sans-Serif" font-size="10.00">net/stream/SocketClient.hpp</text>
</a>
</g>
</g>
<!-- Node44&#45;&gt;Node45 -->
<g id="edge57" class="edge">
<title>Node44&#45;&gt;Node45</title>
<path fill="none" stroke="midnightblue" d="M1443.24,-586.87C1473.79,-575.52 1527.63,-555.52 1562.28,-542.65"/>
<polygon fill="midnightblue" stroke="midnightblue" points="1563.79,-545.83 1571.94,-539.06 1561.35,-539.26 1563.79,-545.83"/>
</g>
<!-- Node45&#45;&gt;Node27 -->
<g id="edge60" class="edge">
<title>Node45&#45;&gt;Node27</title>
<path fill="none" stroke="midnightblue" d="M1594.6,-519.73C1594.15,-510.18 1593.44,-494.62 1592.87,-482.28"/>
<polygon fill="midnightblue" stroke="midnightblue" points="1596.36,-481.96 1592.4,-472.13 1589.36,-482.28 1596.36,-481.96"/>
</g>
<!-- Node46 -->
<g id="node46" class="node">
<title>Node46</title>
<g id="a_node46"><a xlink:href="_socket_config_8hpp.html" target="_top" xlink:title=" ">
<polygon fill="white" stroke="black" points="1682,-453 1682,-472 1802,-472 1802,-453 1682,-453"/>
<text text-anchor="middle" x="1742" y="-460" font-family="Helvetica,sans-Serif" font-size="10.00">net/SocketConfig.hpp</text>
</a>
</g>
</g>
<!-- Node45&#45;&gt;Node46 -->
<g id="edge58" class="edge">
<title>Node45&#45;&gt;Node46</title>
<path fill="none" stroke="midnightblue" d="M1614.52,-519.87C1639.78,-508.7 1684,-489.15 1713.14,-476.26"/>
<polygon fill="midnightblue" stroke="midnightblue" points="1714.67,-479.41 1722.4,-472.17 1711.84,-473.01 1714.67,-479.41"/>
</g>
<!-- Node46&#45;&gt;Node28 -->
<g id="edge59" class="edge">
<title>Node46&#45;&gt;Node28</title>
<path fill="none" stroke="midnightblue" d="M1741.33,-452.73C1740.59,-443.18 1739.39,-427.62 1738.44,-415.28"/>
<polygon fill="midnightblue" stroke="midnightblue" points="1741.92,-414.83 1737.66,-405.13 1734.94,-415.37 1741.92,-414.83"/>
</g>
</g>
</svg>
