<?xml version="1.0" encoding="UTF-8" standalone="no"?>
<!DOCTYPE svg PUBLIC "-//W3C//DTD SVG 1.1//EN"
 "http://www.w3.org/Graphics/SVG/1.1/DTD/svg11.dtd">
<!-- Generated by graphviz version 2.43.0 (0)
 -->
<!-- Title: net/un/SocketAddress.h Pages: 1 -->
<svg width="2051pt" height="531pt"
 viewBox="0.00 0.00 2050.50 531.00" xmlns="http://www.w3.org/2000/svg" xmlns:xlink="http://www.w3.org/1999/xlink">
<g id="graph0" class="graph" transform="scale(1 1) rotate(0) translate(4 527)">
<title>net/un/SocketAddress.h</title>
<polygon fill="white" stroke="transparent" points="-4,4 -4,-527 2046.5,-527 2046.5,4 -4,4"/>
<!-- Node1 -->
<g id="node1" class="node">
<title>Node1</title>
<g id="a_node1"><a xlink:title=" ">
<polygon fill="#bfbfbf" stroke="black" points="1430,-503.5 1430,-522.5 1561,-522.5 1561,-503.5 1430,-503.5"/>
<text text-anchor="middle" x="1495.5" y="-510.5" font-family="Helvetica,sans-Serif" font-size="10.00">net/un/SocketAddress.h</text>
</a>
</g>
</g>
<!-- Node2 -->
<g id="node2" class="node">
<title>Node2</title>
<g id="a_node2"><a xlink:href="un_2config_2_config_address_8h.html" target="_top" xlink:title=" ">
<polygon fill="white" stroke="black" points="469,-330 469,-349 632,-349 632,-330 469,-330"/>
<text text-anchor="middle" x="550.5" y="-337" font-family="Helvetica,sans-Serif" font-size="10.00">net/un/config/ConfigAddress.h</text>
</a>
</g>
</g>
<!-- Node1&#45;&gt;Node2 -->
<g id="edge1" class="edge">
<title>Node1&#45;&gt;Node2</title>
<path fill="none" stroke="midnightblue" d="M1438.79,-501.71C1267.12,-470.55 755.21,-377.65 597.37,-349.01"/>
<polygon fill="midnightblue" stroke="midnightblue" points="1438.17,-505.15 1448.64,-503.5 1439.42,-498.27 1438.17,-505.15"/>
</g>
<!-- Node28 -->
<g id="node28" class="node">
<title>Node28</title>
<g id="a_node28"><a xlink:href="net_2un_2socket_8h.html" target="_top" xlink:title=" ">
<polygon fill="white" stroke="black" points="1449.5,-447.5 1449.5,-466.5 1541.5,-466.5 1541.5,-447.5 1449.5,-447.5"/>
<text text-anchor="middle" x="1495.5" y="-454.5" font-family="Helvetica,sans-Serif" font-size="10.00">net/un/Socket.h</text>
</a>
</g>
</g>
<!-- Node1&#45;&gt;Node28 -->
<g id="edge27" class="edge">
<title>Node1&#45;&gt;Node28</title>
<path fill="none" stroke="midnightblue" d="M1495.5,-492.8C1495.5,-483.91 1495.5,-473.78 1495.5,-466.75"/>
<polygon fill="midnightblue" stroke="midnightblue" points="1492,-493.08 1495.5,-503.08 1499,-493.08 1492,-493.08"/>
</g>
<!-- Node77 -->
<g id="node50" class="node">
<title>Node77</title>
<g id="a_node50"><a xlink:href="un_2_socket_address_8cpp.html" target="_top" xlink:title=" ">
<polygon fill="white" stroke="black" points="1559.5,-447.5 1559.5,-466.5 1701.5,-466.5 1701.5,-447.5 1559.5,-447.5"/>
<text text-anchor="middle" x="1630.5" y="-454.5" font-family="Helvetica,sans-Serif" font-size="10.00">net/un/SocketAddress.cpp</text>
</a>
</g>
</g>
<!-- Node1&#45;&gt;Node77 -->
<g id="edge59" class="edge">
<title>Node1&#45;&gt;Node77</title>
<path fill="none" stroke="midnightblue" d="M1526.41,-499.64C1551.74,-489.5 1586.93,-475.43 1609.21,-466.52"/>
<polygon fill="midnightblue" stroke="midnightblue" points="1524.88,-496.48 1516.89,-503.44 1527.48,-502.98 1524.88,-496.48"/>
</g>
<!-- Node3 -->
<g id="node3" class="node">
<title>Node3</title>
<g id="a_node3"><a xlink:href="un_2config_2_config_address_8cpp.html" target="_top" xlink:title=" ">
<polygon fill="white" stroke="black" points="380.5,-263 380.5,-282 554.5,-282 554.5,-263 380.5,-263"/>
<text text-anchor="middle" x="467.5" y="-270" font-family="Helvetica,sans-Serif" font-size="10.00">net/un/config/ConfigAddress.cpp</text>
</a>
</g>
</g>
<!-- Node2&#45;&gt;Node3 -->
<g id="edge2" class="edge">
<title>Node2&#45;&gt;Node3</title>
<path fill="none" stroke="midnightblue" d="M531.43,-323.57C515.05,-310.74 492,-292.69 478.52,-282.13"/>
<polygon fill="midnightblue" stroke="midnightblue" points="529.28,-326.32 539.31,-329.73 533.59,-320.81 529.28,-326.32"/>
</g>
<!-- Node4 -->
<g id="node4" class="node">
<title>Node4</title>
<g id="a_node4"><a xlink:href="_config_client_socket_8h.html" target="_top" xlink:title=" ">
<polygon fill="white" stroke="black" points="573,-257.5 573,-287.5 694,-287.5 694,-257.5 573,-257.5"/>
<text text-anchor="start" x="581" y="-275.5" font-family="Helvetica,sans-Serif" font-size="10.00">net/un/dgram/config</text>
<text text-anchor="middle" x="633.5" y="-264.5" font-family="Helvetica,sans-Serif" font-size="10.00">/ConfigClientSocket.h</text>
</a>
</g>
</g>
<!-- Node2&#45;&gt;Node4 -->
<g id="edge3" class="edge">
<title>Node2&#45;&gt;Node4</title>
<path fill="none" stroke="midnightblue" d="M569.6,-323.54C583.41,-312.73 601.96,-298.2 615.51,-287.59"/>
<polygon fill="midnightblue" stroke="midnightblue" points="567.41,-320.81 561.69,-329.73 571.72,-326.32 567.41,-320.81"/>
</g>
<!-- Node5 -->
<g id="node5" class="node">
<title>Node5</title>
<g id="a_node5"><a xlink:href="_config_server_socket_8h.html" target="_top" xlink:title=" ">
<polygon fill="white" stroke="black" points="98.5,-257.5 98.5,-287.5 222.5,-287.5 222.5,-257.5 98.5,-257.5"/>
<text text-anchor="start" x="106.5" y="-275.5" font-family="Helvetica,sans-Serif" font-size="10.00">net/un/dgram/config</text>
<text text-anchor="middle" x="160.5" y="-264.5" font-family="Helvetica,sans-Serif" font-size="10.00">/ConfigServerSocket.h</text>
</a>
</g>
</g>
<!-- Node2&#45;&gt;Node5 -->
<g id="edge4" class="edge">
<title>Node2&#45;&gt;Node5</title>
<path fill="none" stroke="midnightblue" d="M481.49,-328.48C416.78,-318.87 317.39,-303.56 231.5,-288 228.65,-287.48 225.74,-286.94 222.81,-286.39"/>
<polygon fill="midnightblue" stroke="midnightblue" points="481.17,-331.97 491.57,-329.97 482.19,-325.05 481.17,-331.97"/>
</g>
<!-- Node6 -->
<g id="node6" class="node">
<title>Node6</title>
<g id="a_node6"><a xlink:href="un_2stream_2config_2_config_socket_client_8h.html" target="_top" xlink:title=" ">
<polygon fill="white" stroke="black" points="241,-257.5 241,-287.5 362,-287.5 362,-257.5 241,-257.5"/>
<text text-anchor="start" x="249" y="-275.5" font-family="Helvetica,sans-Serif" font-size="10.00">net/un/stream/config</text>
<text text-anchor="middle" x="301.5" y="-264.5" font-family="Helvetica,sans-Serif" font-size="10.00">/ConfigSocketClient.h</text>
</a>
</g>
</g>
<!-- Node2&#45;&gt;Node6 -->
<g id="edge5" class="edge">
<title>Node2&#45;&gt;Node6</title>
<path fill="none" stroke="midnightblue" d="M508.01,-327.41C465.85,-316.4 401.1,-299.5 355.36,-287.56"/>
<polygon fill="midnightblue" stroke="midnightblue" points="507.13,-330.8 517.69,-329.94 508.9,-324.02 507.13,-330.8"/>
</g>
<!-- Node16 -->
<g id="node16" class="node">
<title>Node16</title>
<g id="a_node16"><a xlink:href="un_2stream_2config_2_config_socket_server_8h.html" target="_top" xlink:title=" ">
<polygon fill="white" stroke="black" points="893.5,-257.5 893.5,-287.5 1017.5,-287.5 1017.5,-257.5 893.5,-257.5"/>
<text text-anchor="start" x="901.5" y="-275.5" font-family="Helvetica,sans-Serif" font-size="10.00">net/un/stream/config</text>
<text text-anchor="middle" x="955.5" y="-264.5" font-family="Helvetica,sans-Serif" font-size="10.00">/ConfigSocketServer.h</text>
</a>
</g>
</g>
<!-- Node2&#45;&gt;Node16 -->
<g id="edge15" class="edge">
<title>Node2&#45;&gt;Node16</title>
<path fill="none" stroke="midnightblue" d="M620.31,-328.53C686.99,-318.84 790.26,-303.36 879.5,-288 884,-287.23 888.65,-286.4 893.32,-285.55"/>
<polygon fill="midnightblue" stroke="midnightblue" points="619.73,-325.08 610.34,-329.98 620.74,-332.01 619.73,-325.08"/>
</g>
<!-- Node7 -->
<g id="node7" class="node">
<title>Node7</title>
<g id="a_node7"><a xlink:href="un_2stream_2config_2_config_socket_client_8cpp.html" target="_top" xlink:title=" ">
<polygon fill="white" stroke="black" points="151.5,-190.5 151.5,-220.5 283.5,-220.5 283.5,-190.5 151.5,-190.5"/>
<text text-anchor="start" x="159.5" y="-208.5" font-family="Helvetica,sans-Serif" font-size="10.00">net/un/stream/config</text>
<text text-anchor="middle" x="217.5" y="-197.5" font-family="Helvetica,sans-Serif" font-size="10.00">/ConfigSocketClient.cpp</text>
</a>
</g>
</g>
<!-- Node6&#45;&gt;Node7 -->
<g id="edge6" class="edge">
<title>Node6&#45;&gt;Node7</title>
<path fill="none" stroke="midnightblue" d="M275.22,-251.17C262.38,-241.23 247.24,-229.51 235.69,-220.58"/>
<polygon fill="midnightblue" stroke="midnightblue" points="273.22,-254.04 283.27,-257.4 277.51,-248.51 273.22,-254.04"/>
</g>
<!-- Node8 -->
<g id="node8" class="node">
<title>Node8</title>
<g id="a_node8"><a xlink:href="un_2stream_2legacy_2config_2_config_socket_client_8h.html" target="_top" xlink:title=" ">
<polygon fill="white" stroke="black" points="477.5,-190.5 477.5,-220.5 631.5,-220.5 631.5,-190.5 477.5,-190.5"/>
<text text-anchor="start" x="485.5" y="-208.5" font-family="Helvetica,sans-Serif" font-size="10.00">net/un/stream/legacy</text>
<text text-anchor="middle" x="554.5" y="-197.5" font-family="Helvetica,sans-Serif" font-size="10.00">/config/ConfigSocketClient.h</text>
</a>
</g>
</g>
<!-- Node6&#45;&gt;Node8 -->
<g id="edge7" class="edge">
<title>Node6&#45;&gt;Node8</title>
<path fill="none" stroke="midnightblue" d="M365.78,-254.98C407.11,-244.37 460.23,-230.72 499.58,-220.61"/>
<polygon fill="midnightblue" stroke="midnightblue" points="364.9,-251.6 356.09,-257.48 366.64,-258.38 364.9,-251.6"/>
</g>
<!-- Node12 -->
<g id="node12" class="node">
<title>Node12</title>
<g id="a_node12"><a xlink:href="un_2stream_2tls_2config_2_config_socket_client_8h.html" target="_top" xlink:title=" ">
<polygon fill="white" stroke="black" points="0,-190.5 0,-220.5 133,-220.5 133,-190.5 0,-190.5"/>
<text text-anchor="start" x="8" y="-208.5" font-family="Helvetica,sans-Serif" font-size="10.00">net/un/stream/tls/config</text>
<text text-anchor="middle" x="66.5" y="-197.5" font-family="Helvetica,sans-Serif" font-size="10.00">/ConfigSocketClient.h</text>
</a>
</g>
</g>
<!-- Node6&#45;&gt;Node12 -->
<g id="edge11" class="edge">
<title>Node6&#45;&gt;Node12</title>
<path fill="none" stroke="midnightblue" d="M240.82,-254.71C202.57,-244.14 153.76,-230.63 117.52,-220.61"/>
<polygon fill="midnightblue" stroke="midnightblue" points="240.23,-258.18 250.8,-257.48 242.09,-251.44 240.23,-258.18"/>
</g>
<!-- Node9 -->
<g id="node9" class="node">
<title>Node9</title>
<g id="a_node9"><a xlink:href="net_2un_2stream_2legacy_2_socket_client_8h.html" target="_top" xlink:title=" ">
<polygon fill="white" stroke="black" points="489.5,-123.5 489.5,-153.5 609.5,-153.5 609.5,-123.5 489.5,-123.5"/>
<text text-anchor="start" x="497.5" y="-141.5" font-family="Helvetica,sans-Serif" font-size="10.00">net/un/stream/legacy</text>
<text text-anchor="middle" x="549.5" y="-130.5" font-family="Helvetica,sans-Serif" font-size="10.00">/SocketClient.h</text>
</a>
</g>
</g>
<!-- Node8&#45;&gt;Node9 -->
<g id="edge8" class="edge">
<title>Node8&#45;&gt;Node9</title>
<path fill="none" stroke="midnightblue" d="M552.65,-180.4C551.95,-171.37 551.19,-161.41 550.58,-153.58"/>
<polygon fill="midnightblue" stroke="midnightblue" points="549.16,-180.69 553.42,-190.4 556.14,-180.16 549.16,-180.69"/>
</g>
<!-- Node10 -->
<g id="node10" class="node">
<title>Node10</title>
<g id="a_node10"><a xlink:href="un_2stream_2legacy_2_socket_client_8cpp.html" target="_top" xlink:title=" ">
<polygon fill="white" stroke="black" points="377.5,-56.5 377.5,-86.5 497.5,-86.5 497.5,-56.5 377.5,-56.5"/>
<text text-anchor="start" x="385.5" y="-74.5" font-family="Helvetica,sans-Serif" font-size="10.00">net/un/stream/legacy</text>
<text text-anchor="middle" x="437.5" y="-63.5" font-family="Helvetica,sans-Serif" font-size="10.00">/SocketClient.cpp</text>
</a>
</g>
</g>
<!-- Node9&#45;&gt;Node10 -->
<g id="edge9" class="edge">
<title>Node9&#45;&gt;Node10</title>
<path fill="none" stroke="midnightblue" d="M516.41,-118.3C498.88,-108.12 477.74,-95.85 461.75,-86.58"/>
<polygon fill="midnightblue" stroke="midnightblue" points="514.79,-121.4 525.2,-123.4 518.31,-115.35 514.79,-121.4"/>
</g>
<!-- Node11 -->
<g id="node11" class="node">
<title>Node11</title>
<g id="a_node11"><a xlink:href="legacy_2un_2_client_8h.html" target="_top" xlink:title=" ">
<polygon fill="white" stroke="black" points="515.5,-56.5 515.5,-86.5 625.5,-86.5 625.5,-56.5 515.5,-56.5"/>
<text text-anchor="start" x="523.5" y="-74.5" font-family="Helvetica,sans-Serif" font-size="10.00">web/http/legacy/un</text>
<text text-anchor="middle" x="570.5" y="-63.5" font-family="Helvetica,sans-Serif" font-size="10.00">/Client.h</text>
</a>
</g>
</g>
<!-- Node9&#45;&gt;Node11 -->
<g id="edge10" class="edge">
<title>Node9&#45;&gt;Node11</title>
<path fill="none" stroke="midnightblue" d="M557.19,-113.7C560.13,-104.59 563.39,-94.49 565.95,-86.58"/>
<polygon fill="midnightblue" stroke="midnightblue" points="553.8,-112.8 554.06,-123.4 560.46,-114.96 553.8,-112.8"/>
</g>
<!-- Node13 -->
<g id="node13" class="node">
<title>Node13</title>
<g id="a_node13"><a xlink:href="net_2un_2stream_2tls_2_socket_client_8h.html" target="_top" xlink:title=" ">
<polygon fill="white" stroke="black" points="115,-123.5 115,-153.5 250,-153.5 250,-123.5 115,-123.5"/>
<text text-anchor="start" x="123" y="-141.5" font-family="Helvetica,sans-Serif" font-size="10.00">net/un/stream/tls/Socket</text>
<text text-anchor="middle" x="182.5" y="-130.5" font-family="Helvetica,sans-Serif" font-size="10.00">Client.h</text>
</a>
</g>
</g>
<!-- Node12&#45;&gt;Node13 -->
<g id="edge12" class="edge">
<title>Node12&#45;&gt;Node13</title>
<path fill="none" stroke="midnightblue" d="M100.77,-185.3C118.92,-175.12 140.82,-162.85 157.38,-153.58"/>
<polygon fill="midnightblue" stroke="midnightblue" points="98.68,-182.45 91.67,-190.4 102.1,-188.56 98.68,-182.45"/>
</g>
<!-- Node14 -->
<g id="node14" class="node">
<title>Node14</title>
<g id="a_node14"><a xlink:href="un_2stream_2tls_2_socket_client_8cpp.html" target="_top" xlink:title=" ">
<polygon fill="white" stroke="black" points="224,-56.5 224,-86.5 359,-86.5 359,-56.5 224,-56.5"/>
<text text-anchor="start" x="232" y="-74.5" font-family="Helvetica,sans-Serif" font-size="10.00">net/un/stream/tls/Socket</text>
<text text-anchor="middle" x="291.5" y="-63.5" font-family="Helvetica,sans-Serif" font-size="10.00">Client.cpp</text>
</a>
</g>
</g>
<!-- Node13&#45;&gt;Node14 -->
<g id="edge13" class="edge">
<title>Node13&#45;&gt;Node14</title>
<path fill="none" stroke="midnightblue" d="M215.17,-118.02C232.14,-107.9 252.48,-95.77 267.89,-86.58"/>
<polygon fill="midnightblue" stroke="midnightblue" points="212.95,-115.27 206.15,-123.4 216.53,-121.28 212.95,-115.27"/>
</g>
<!-- Node15 -->
<g id="node15" class="node">
<title>Node15</title>
<g id="a_node15"><a xlink:href="tls_2un_2_client_8h.html" target="_top" xlink:title=" ">
<polygon fill="white" stroke="black" points="75.5,-62 75.5,-81 205.5,-81 205.5,-62 75.5,-62"/>
<text text-anchor="middle" x="140.5" y="-69" font-family="Helvetica,sans-Serif" font-size="10.00">web/http/tls/un/Client.h</text>
</a>
</g>
</g>
<!-- Node13&#45;&gt;Node15 -->
<g id="edge14" class="edge">
<title>Node13&#45;&gt;Node15</title>
<path fill="none" stroke="midnightblue" d="M167.95,-114.97C160.42,-103.33 151.68,-89.8 146.12,-81.19"/>
<polygon fill="midnightblue" stroke="midnightblue" points="165.02,-116.9 173.39,-123.4 170.9,-113.1 165.02,-116.9"/>
</g>
<!-- Node17 -->
<g id="node17" class="node">
<title>Node17</title>
<g id="a_node17"><a xlink:href="un_2stream_2config_2_config_socket_server_8cpp.html" target="_top" xlink:title=" ">
<polygon fill="white" stroke="black" points="837,-190.5 837,-220.5 972,-220.5 972,-190.5 837,-190.5"/>
<text text-anchor="start" x="845" y="-208.5" font-family="Helvetica,sans-Serif" font-size="10.00">net/un/stream/config</text>
<text text-anchor="middle" x="904.5" y="-197.5" font-family="Helvetica,sans-Serif" font-size="10.00">/ConfigSocketServer.cpp</text>
</a>
</g>
</g>
<!-- Node16&#45;&gt;Node17 -->
<g id="edge16" class="edge">
<title>Node16&#45;&gt;Node17</title>
<path fill="none" stroke="midnightblue" d="M938.2,-249.45C930.71,-239.9 922.16,-229 915.54,-220.58"/>
<polygon fill="midnightblue" stroke="midnightblue" points="935.51,-251.69 944.43,-257.4 941.01,-247.37 935.51,-251.69"/>
</g>
<!-- Node18 -->
<g id="node18" class="node">
<title>Node18</title>
<g id="a_node18"><a xlink:href="un_2stream_2legacy_2config_2_config_socket_server_8h.html" target="_top" xlink:title=" ">
<polygon fill="white" stroke="black" points="990,-190.5 990,-220.5 1147,-220.5 1147,-190.5 990,-190.5"/>
<text text-anchor="start" x="998" y="-208.5" font-family="Helvetica,sans-Serif" font-size="10.00">net/un/stream/legacy</text>
<text text-anchor="middle" x="1068.5" y="-197.5" font-family="Helvetica,sans-Serif" font-size="10.00">/config/ConfigSocketServer.h</text>
</a>
</g>
</g>
<!-- Node16&#45;&gt;Node18 -->
<g id="edge17" class="edge">
<title>Node16&#45;&gt;Node18</title>
<path fill="none" stroke="midnightblue" d="M988.89,-252.3C1006.57,-242.12 1027.9,-229.85 1044.03,-220.58"/>
<polygon fill="midnightblue" stroke="midnightblue" points="986.94,-249.38 980.02,-257.4 990.43,-255.44 986.94,-249.38"/>
</g>
<!-- Node23 -->
<g id="node23" class="node">
<title>Node23</title>
<g id="a_node23"><a xlink:href="un_2stream_2tls_2config_2_config_socket_server_8h.html" target="_top" xlink:title=" ">
<polygon fill="white" stroke="black" points="1344,-190.5 1344,-220.5 1477,-220.5 1477,-190.5 1344,-190.5"/>
<text text-anchor="start" x="1352" y="-208.5" font-family="Helvetica,sans-Serif" font-size="10.00">net/un/stream/tls/config</text>
<text text-anchor="middle" x="1410.5" y="-197.5" font-family="Helvetica,sans-Serif" font-size="10.00">/ConfigSocketServer.h</text>
</a>
</g>
</g>
<!-- Node16&#45;&gt;Node23 -->
<g id="edge22" class="edge">
<title>Node16&#45;&gt;Node23</title>
<path fill="none" stroke="midnightblue" d="M1027.72,-262.42C1120.91,-250.61 1277.91,-230.39 1335.5,-221 1338.25,-220.55 1341.05,-220.08 1343.88,-219.59"/>
<polygon fill="midnightblue" stroke="midnightblue" points="1027.27,-258.95 1017.79,-263.67 1028.15,-265.89 1027.27,-258.95"/>
</g>
<!-- Node19 -->
<g id="node19" class="node">
<title>Node19</title>
<g id="a_node19"><a xlink:href="net_2un_2stream_2legacy_2_socket_server_8h.html" target="_top" xlink:title=" ">
<polygon fill="white" stroke="black" points="1020.5,-123.5 1020.5,-153.5 1140.5,-153.5 1140.5,-123.5 1020.5,-123.5"/>
<text text-anchor="start" x="1028.5" y="-141.5" font-family="Helvetica,sans-Serif" font-size="10.00">net/un/stream/legacy</text>
<text text-anchor="middle" x="1080.5" y="-130.5" font-family="Helvetica,sans-Serif" font-size="10.00">/SocketServer.h</text>
</a>
</g>
</g>
<!-- Node18&#45;&gt;Node19 -->
<g id="edge18" class="edge">
<title>Node18&#45;&gt;Node19</title>
<path fill="none" stroke="midnightblue" d="M1072.95,-180.4C1074.62,-171.37 1076.46,-161.41 1077.9,-153.58"/>
<polygon fill="midnightblue" stroke="midnightblue" points="1069.48,-179.93 1071.1,-190.4 1076.36,-181.2 1069.48,-179.93"/>
</g>
<!-- Node20 -->
<g id="node20" class="node">
<title>Node20</title>
<g id="a_node20"><a xlink:href="un_2stream_2legacy_2_socket_server_8cpp.html" target="_top" xlink:title=" ">
<polygon fill="white" stroke="black" points="1106.5,-56.5 1106.5,-86.5 1226.5,-86.5 1226.5,-56.5 1106.5,-56.5"/>
<text text-anchor="start" x="1114.5" y="-74.5" font-family="Helvetica,sans-Serif" font-size="10.00">net/un/stream/legacy</text>
<text text-anchor="middle" x="1166.5" y="-63.5" font-family="Helvetica,sans-Serif" font-size="10.00">/SocketServer.cpp</text>
</a>
</g>
</g>
<!-- Node19&#45;&gt;Node20 -->
<g id="edge19" class="edge">
<title>Node19&#45;&gt;Node20</title>
<path fill="none" stroke="midnightblue" d="M1107.4,-117.17C1120.55,-107.23 1136.05,-95.51 1147.88,-86.58"/>
<polygon fill="midnightblue" stroke="midnightblue" points="1105.03,-114.57 1099.16,-123.4 1109.25,-120.16 1105.03,-114.57"/>
</g>
<!-- Node21 -->
<g id="node21" class="node">
<title>Node21</title>
<g id="a_node21"><a xlink:href="legacy_2un_2_server_8h.html" target="_top" xlink:title=" ">
<polygon fill="white" stroke="black" points="978.5,-56.5 978.5,-86.5 1088.5,-86.5 1088.5,-56.5 978.5,-56.5"/>
<text text-anchor="start" x="986.5" y="-74.5" font-family="Helvetica,sans-Serif" font-size="10.00">web/http/legacy/un</text>
<text text-anchor="middle" x="1033.5" y="-63.5" font-family="Helvetica,sans-Serif" font-size="10.00">/Server.h</text>
</a>
</g>
</g>
<!-- Node19&#45;&gt;Node21 -->
<g id="edge20" class="edge">
<title>Node19&#45;&gt;Node21</title>
<path fill="none" stroke="midnightblue" d="M1064.34,-115.16C1057.49,-105.68 1049.71,-94.92 1043.68,-86.58"/>
<polygon fill="midnightblue" stroke="midnightblue" points="1061.61,-117.34 1070.3,-123.4 1067.28,-113.24 1061.61,-117.34"/>
</g>
<!-- Node22 -->
<g id="node22" class="node">
<title>Node22</title>
<g id="a_node22"><a xlink:href="legacy_2un_2_web_app_8h.html" target="_top" xlink:title=" ">
<polygon fill="white" stroke="black" points="954.5,-0.5 954.5,-19.5 1112.5,-19.5 1112.5,-0.5 954.5,-0.5"/>
<text text-anchor="middle" x="1033.5" y="-7.5" font-family="Helvetica,sans-Serif" font-size="10.00">express/legacy/un/WebApp.h</text>
</a>
</g>
</g>
<!-- Node21&#45;&gt;Node22 -->
<g id="edge21" class="edge">
<title>Node21&#45;&gt;Node22</title>
<path fill="none" stroke="midnightblue" d="M1033.5,-46.29C1033.5,-36.86 1033.5,-26.65 1033.5,-19.66"/>
<polygon fill="midnightblue" stroke="midnightblue" points="1030,-46.4 1033.5,-56.4 1037,-46.4 1030,-46.4"/>
</g>
<!-- Node24 -->
<g id="node24" class="node">
<title>Node24</title>
<g id="a_node24"><a xlink:href="net_2un_2stream_2tls_2_socket_server_8h.html" target="_top" xlink:title=" ">
<polygon fill="white" stroke="black" points="1350,-123.5 1350,-153.5 1485,-153.5 1485,-123.5 1350,-123.5"/>
<text text-anchor="start" x="1358" y="-141.5" font-family="Helvetica,sans-Serif" font-size="10.00">net/un/stream/tls/Socket</text>
<text text-anchor="middle" x="1417.5" y="-130.5" font-family="Helvetica,sans-Serif" font-size="10.00">Server.h</text>
</a>
</g>
</g>
<!-- Node23&#45;&gt;Node24 -->
<g id="edge23" class="edge">
<title>Node23&#45;&gt;Node24</title>
<path fill="none" stroke="midnightblue" d="M1413.1,-180.4C1414.07,-171.37 1415.14,-161.41 1415.98,-153.58"/>
<polygon fill="midnightblue" stroke="midnightblue" points="1409.61,-180.08 1412.02,-190.4 1416.57,-180.83 1409.61,-180.08"/>
</g>
<!-- Node25 -->
<g id="node25" class="node">
<title>Node25</title>
<g id="a_node25"><a xlink:href="un_2stream_2tls_2_socket_server_8cpp.html" target="_top" xlink:title=" ">
<polygon fill="white" stroke="black" points="1245,-56.5 1245,-86.5 1380,-86.5 1380,-56.5 1245,-56.5"/>
<text text-anchor="start" x="1253" y="-74.5" font-family="Helvetica,sans-Serif" font-size="10.00">net/un/stream/tls/Socket</text>
<text text-anchor="middle" x="1312.5" y="-63.5" font-family="Helvetica,sans-Serif" font-size="10.00">Server.cpp</text>
</a>
</g>
</g>
<!-- Node24&#45;&gt;Node25 -->
<g id="edge24" class="edge">
<title>Node24&#45;&gt;Node25</title>
<path fill="none" stroke="midnightblue" d="M1386.02,-118.02C1369.68,-107.9 1350.09,-95.77 1335.24,-86.58"/>
<polygon fill="midnightblue" stroke="midnightblue" points="1384.37,-121.11 1394.72,-123.4 1388.06,-115.16 1384.37,-121.11"/>
</g>
<!-- Node26 -->
<g id="node26" class="node">
<title>Node26</title>
<g id="a_node26"><a xlink:href="tls_2un_2_server_8h.html" target="_top" xlink:title=" ">
<polygon fill="white" stroke="black" points="1398,-62 1398,-81 1531,-81 1531,-62 1398,-62"/>
<text text-anchor="middle" x="1464.5" y="-69" font-family="Helvetica,sans-Serif" font-size="10.00">web/http/tls/un/Server.h</text>
</a>
</g>
</g>
<!-- Node24&#45;&gt;Node26 -->
<g id="edge25" class="edge">
<title>Node24&#45;&gt;Node26</title>
<path fill="none" stroke="midnightblue" d="M1433.79,-114.97C1442.21,-103.33 1451.99,-89.8 1458.21,-81.19"/>
<polygon fill="midnightblue" stroke="midnightblue" points="1430.72,-113.24 1427.7,-123.4 1436.39,-117.34 1430.72,-113.24"/>
</g>
<!-- Node27 -->
<g id="node27" class="node">
<title>Node27</title>
<g id="a_node27"><a xlink:href="tls_2un_2_web_app_8h.html" target="_top" xlink:title=" ">
<polygon fill="white" stroke="black" points="1396,-0.5 1396,-19.5 1533,-19.5 1533,-0.5 1396,-0.5"/>
<text text-anchor="middle" x="1464.5" y="-7.5" font-family="Helvetica,sans-Serif" font-size="10.00">express/tls/un/WebApp.h</text>
</a>
</g>
</g>
<!-- Node26&#45;&gt;Node27 -->
<g id="edge26" class="edge">
<title>Node26&#45;&gt;Node27</title>
<path fill="none" stroke="midnightblue" d="M1464.5,-51.82C1464.5,-41 1464.5,-27.9 1464.5,-19.51"/>
<polygon fill="midnightblue" stroke="midnightblue" points="1461,-51.98 1464.5,-61.98 1468,-51.98 1461,-51.98"/>
</g>
<!-- Node29 -->
<g id="node29" class="node">
<title>Node29</title>
<g id="a_node29"><a xlink:href="net_2un_2dgram_2socket_8h.html" target="_top" xlink:title=" ">
<polygon fill="white" stroke="black" points="1594.5,-391.5 1594.5,-410.5 1720.5,-410.5 1720.5,-391.5 1594.5,-391.5"/>
<text text-anchor="middle" x="1657.5" y="-398.5" font-family="Helvetica,sans-Serif" font-size="10.00">net/un/dgram/Socket.h</text>
</a>
</g>
</g>
<!-- Node28&#45;&gt;Node29 -->
<g id="edge28" class="edge">
<title>Node28&#45;&gt;Node29</title>
<path fill="none" stroke="midnightblue" d="M1530.98,-444.17C1561.49,-434 1604.74,-419.59 1631.95,-410.52"/>
<polygon fill="midnightblue" stroke="midnightblue" points="1529.55,-440.96 1521.17,-447.44 1531.76,-447.6 1529.55,-440.96"/>
</g>
<!-- Node66 -->
<g id="node39" class="node">
<title>Node66</title>
<g id="a_node39"><a xlink:href="net_2un_2socket_8cpp.html" target="_top" xlink:title=" ">
<polygon fill="white" stroke="black" points="1739,-391.5 1739,-410.5 1842,-410.5 1842,-391.5 1739,-391.5"/>
<text text-anchor="middle" x="1790.5" y="-398.5" font-family="Helvetica,sans-Serif" font-size="10.00">net/un/Socket.cpp</text>
</a>
</g>
</g>
<!-- Node28&#45;&gt;Node66 -->
<g id="edge40" class="edge">
<title>Node28&#45;&gt;Node66</title>
<path fill="none" stroke="midnightblue" d="M1551.64,-445.72C1607.31,-435.53 1691.62,-420.1 1743.76,-410.56"/>
<polygon fill="midnightblue" stroke="midnightblue" points="1550.8,-442.32 1541.59,-447.56 1552.06,-449.2 1550.8,-442.32"/>
</g>
<!-- Node67 -->
<g id="node40" class="node">
<title>Node67</title>
<g id="a_node40"><a xlink:href="net_2un_2stream_2socket_8h.html" target="_top" xlink:title=" ">
<polygon fill="white" stroke="black" points="1177,-330 1177,-349 1306,-349 1306,-330 1177,-330"/>
<text text-anchor="middle" x="1241.5" y="-337" font-family="Helvetica,sans-Serif" font-size="10.00">net/un/stream/Socket.h</text>
</a>
</g>
</g>
<!-- Node28&#45;&gt;Node67 -->
<g id="edge41" class="edge">
<title>Node28&#45;&gt;Node67</title>
<path fill="none" stroke="midnightblue" d="M1467.05,-443.06C1414.76,-419.28 1304.67,-369.23 1260.47,-349.12"/>
<polygon fill="midnightblue" stroke="midnightblue" points="1465.86,-446.37 1476.41,-447.32 1468.75,-439.99 1465.86,-446.37"/>
</g>
<!-- Node30 -->
<g id="node30" class="node">
<title>Node30</title>
<g id="a_node30"><a xlink:href="_socket_acceptor_8h.html" target="_top" xlink:title=" ">
<polygon fill="white" stroke="black" points="1602.5,-324.5 1602.5,-354.5 1712.5,-354.5 1712.5,-324.5 1602.5,-324.5"/>
<text text-anchor="start" x="1610.5" y="-342.5" font-family="Helvetica,sans-Serif" font-size="10.00">core/socket/stream</text>
<text text-anchor="middle" x="1657.5" y="-331.5" font-family="Helvetica,sans-Serif" font-size="10.00">/SocketAcceptor.h</text>
</a>
</g>
</g>
<!-- Node29&#45;&gt;Node30 -->
<g id="edge29" class="edge">
<title>Node29&#45;&gt;Node30</title>
<path fill="none" stroke="midnightblue" d="M1657.5,-381.23C1657.5,-372.59 1657.5,-362.5 1657.5,-354.52"/>
<polygon fill="midnightblue" stroke="midnightblue" points="1654,-381.48 1657.5,-391.48 1661,-381.48 1654,-381.48"/>
</g>
<!-- Node63 -->
<g id="node36" class="node">
<title>Node63</title>
<g id="a_node36"><a xlink:href="un_2dgram_2_peer_socket_8h.html" target="_top" xlink:title=" ">
<polygon fill="white" stroke="black" points="1887.5,-330 1887.5,-349 2035.5,-349 2035.5,-330 1887.5,-330"/>
<text text-anchor="middle" x="1961.5" y="-337" font-family="Helvetica,sans-Serif" font-size="10.00">net/un/dgram/PeerSocket.h</text>
</a>
</g>
</g>
<!-- Node29&#45;&gt;Node63 -->
<g id="edge37" class="edge">
<title>Node29&#45;&gt;Node63</title>
<path fill="none" stroke="midnightblue" d="M1710.91,-389.55C1769.81,-378.02 1863.43,-359.69 1918.03,-349.01"/>
<polygon fill="midnightblue" stroke="midnightblue" points="1710.2,-386.12 1701.06,-391.48 1711.54,-392.99 1710.2,-386.12"/>
</g>
<!-- Node65 -->
<g id="node38" class="node">
<title>Node65</title>
<g id="a_node38"><a xlink:href="net_2un_2dgram_2socket_8cpp.html" target="_top" xlink:title=" ">
<polygon fill="white" stroke="black" points="1731,-330 1731,-349 1868,-349 1868,-330 1731,-330"/>
<text text-anchor="middle" x="1799.5" y="-337" font-family="Helvetica,sans-Serif" font-size="10.00">net/un/dgram/Socket.cpp</text>
</a>
</g>
</g>
<!-- Node29&#45;&gt;Node65 -->
<g id="edge39" class="edge">
<title>Node29&#45;&gt;Node65</title>
<path fill="none" stroke="midnightblue" d="M1687.38,-387.48C1714.96,-375.92 1755.17,-359.08 1779.19,-349.01"/>
<polygon fill="midnightblue" stroke="midnightblue" points="1685.72,-384.38 1677.85,-391.48 1688.42,-390.84 1685.72,-384.38"/>
</g>
<!-- Node31 -->
<g id="node31" class="node">
<title>Node31</title>
<g id="a_node31"><a xlink:href="legacy_2_socket_acceptor_8h.html" target="_top" xlink:title=" ">
<polygon fill="white" stroke="black" points="1588,-257.5 1588,-287.5 1727,-287.5 1727,-257.5 1588,-257.5"/>
<text text-anchor="start" x="1596" y="-275.5" font-family="Helvetica,sans-Serif" font-size="10.00">core/socket/stream</text>
<text text-anchor="middle" x="1657.5" y="-264.5" font-family="Helvetica,sans-Serif" font-size="10.00">/legacy/SocketAcceptor.h</text>
</a>
</g>
</g>
<!-- Node30&#45;&gt;Node31 -->
<g id="edge30" class="edge">
<title>Node30&#45;&gt;Node31</title>
<path fill="none" stroke="midnightblue" d="M1657.5,-314.11C1657.5,-305.15 1657.5,-295.32 1657.5,-287.58"/>
<polygon fill="midnightblue" stroke="midnightblue" points="1654,-314.4 1657.5,-324.4 1661,-314.4 1654,-314.4"/>
</g>
<!-- Node47 -->
<g id="node34" class="node">
<title>Node47</title>
<g id="a_node34"><a xlink:href="tls_2_socket_acceptor_8h.html" target="_top" xlink:title=" ">
<polygon fill="white" stroke="black" points="1745,-257.5 1745,-287.5 1864,-287.5 1864,-257.5 1745,-257.5"/>
<text text-anchor="start" x="1753" y="-275.5" font-family="Helvetica,sans-Serif" font-size="10.00">core/socket/stream</text>
<text text-anchor="middle" x="1804.5" y="-264.5" font-family="Helvetica,sans-Serif" font-size="10.00">/tls/SocketAcceptor.h</text>
</a>
</g>
</g>
<!-- Node30&#45;&gt;Node47 -->
<g id="edge34" class="edge">
<title>Node30&#45;&gt;Node47</title>
<path fill="none" stroke="midnightblue" d="M1698.73,-320.27C1722.14,-309.92 1751.01,-297.15 1772.67,-287.58"/>
<polygon fill="midnightblue" stroke="midnightblue" points="1697.13,-317.15 1689.4,-324.4 1699.96,-323.55 1697.13,-317.15"/>
</g>
<!-- Node32 -->
<g id="node32" class="node">
<title>Node32</title>
<g id="a_node32"><a xlink:href="core_2socket_2stream_2legacy_2_socket_server_8h.html" target="_top" xlink:title=" ">
<polygon fill="white" stroke="red" points="1685.5,-190.5 1685.5,-220.5 1813.5,-220.5 1813.5,-190.5 1685.5,-190.5"/>
<text text-anchor="start" x="1693.5" y="-208.5" font-family="Helvetica,sans-Serif" font-size="10.00">core/socket/stream</text>
<text text-anchor="middle" x="1749.5" y="-197.5" font-family="Helvetica,sans-Serif" font-size="10.00">/legacy/SocketServer.h</text>
</a>
</g>
</g>
<!-- Node31&#45;&gt;Node32 -->
<g id="edge31" class="edge">
<title>Node31&#45;&gt;Node32</title>
<path fill="none" stroke="midnightblue" d="M1685.88,-251.45C1700.03,-241.45 1716.81,-229.6 1729.58,-220.58"/>
<polygon fill="midnightblue" stroke="midnightblue" points="1683.61,-248.77 1677.46,-257.4 1687.65,-254.48 1683.61,-248.77"/>
</g>
<!-- Node32&#45;&gt;Node19 -->
<g id="edge33" class="edge">
<title>Node32&#45;&gt;Node19</title>
<path fill="none" stroke="midnightblue" d="M1675.34,-189.97C1442.44,-159.86 1379.36,-185.39 1150.5,-154 1147.3,-153.56 1144.03,-153.06 1140.74,-152.52"/>
<polygon fill="midnightblue" stroke="midnightblue" points="1675.11,-193.47 1685.48,-191.3 1676.02,-186.53 1675.11,-193.47"/>
</g>
<!-- Node33 -->
<g id="node33" class="node">
<title>Node33</title>
<g id="a_node33"><a xlink:href="net_2in_2stream_2legacy_2_socket_server_8h.html" target="_top" xlink:title=" ">
<polygon fill="white" stroke="red" points="1691,-123.5 1691,-153.5 1808,-153.5 1808,-123.5 1691,-123.5"/>
<text text-anchor="start" x="1699" y="-141.5" font-family="Helvetica,sans-Serif" font-size="10.00">net/in/stream/legacy</text>
<text text-anchor="middle" x="1749.5" y="-130.5" font-family="Helvetica,sans-Serif" font-size="10.00">/SocketServer.h</text>
</a>
</g>
</g>
<!-- Node32&#45;&gt;Node33 -->
<g id="edge32" class="edge">
<title>Node32&#45;&gt;Node33</title>
<path fill="none" stroke="midnightblue" d="M1749.5,-180.11C1749.5,-171.15 1749.5,-161.32 1749.5,-153.58"/>
<polygon fill="midnightblue" stroke="midnightblue" points="1746,-180.4 1749.5,-190.4 1753,-180.4 1746,-180.4"/>
</g>
<!-- Node48 -->
<g id="node35" class="node">
<title>Node48</title>
<g id="a_node35"><a xlink:href="core_2socket_2stream_2tls_2_socket_server_8h.html" target="_top" xlink:title=" ">
<polygon fill="white" stroke="red" points="1831.5,-190.5 1831.5,-220.5 1941.5,-220.5 1941.5,-190.5 1831.5,-190.5"/>
<text text-anchor="start" x="1839.5" y="-208.5" font-family="Helvetica,sans-Serif" font-size="10.00">core/socket/stream</text>
<text text-anchor="middle" x="1886.5" y="-197.5" font-family="Helvetica,sans-Serif" font-size="10.00">/tls/SocketServer.h</text>
</a>
</g>
</g>
<!-- Node47&#45;&gt;Node48 -->
<g id="edge35" class="edge">
<title>Node47&#45;&gt;Node48</title>
<path fill="none" stroke="midnightblue" d="M1830.15,-251.17C1842.69,-241.23 1857.47,-229.51 1868.74,-220.58"/>
<polygon fill="midnightblue" stroke="midnightblue" points="1827.96,-248.44 1822.29,-257.4 1832.3,-253.93 1827.96,-248.44"/>
</g>
<!-- Node48&#45;&gt;Node24 -->
<g id="edge36" class="edge">
<title>Node48&#45;&gt;Node24</title>
<path fill="none" stroke="midnightblue" d="M1821.35,-189.91C1697.27,-168.53 1563.7,-153.73 1485.16,-145.87"/>
<polygon fill="midnightblue" stroke="midnightblue" points="1820.96,-193.39 1831.41,-191.66 1822.16,-186.49 1820.96,-193.39"/>
</g>
<!-- Node64 -->
<g id="node37" class="node">
<title>Node64</title>
<g id="a_node37"><a xlink:href="un_2dgram_2_peer_socket_8hpp.html" target="_top" xlink:title=" ">
<polygon fill="white" stroke="black" points="1882.5,-263 1882.5,-282 2042.5,-282 2042.5,-263 1882.5,-263"/>
<text text-anchor="middle" x="1962.5" y="-270" font-family="Helvetica,sans-Serif" font-size="10.00">net/un/dgram/PeerSocket.hpp</text>
</a>
</g>
</g>
<!-- Node63&#45;&gt;Node64 -->
<g id="edge38" class="edge">
<title>Node63&#45;&gt;Node64</title>
<path fill="none" stroke="midnightblue" d="M1961.79,-319.54C1961.98,-307.17 1962.22,-291.62 1962.37,-282.13"/>
<polygon fill="midnightblue" stroke="midnightblue" points="1958.29,-319.68 1961.63,-329.73 1965.29,-319.79 1958.29,-319.68"/>
</g>
<!-- Node68 -->
<g id="node41" class="node">
<title>Node68</title>
<g id="a_node41"><a xlink:href="un_2stream_2_client_socket_8h.html" target="_top" xlink:title=" ">
<polygon fill="white" stroke="black" points="712.5,-263 712.5,-282 870.5,-282 870.5,-263 712.5,-263"/>
<text text-anchor="middle" x="791.5" y="-270" font-family="Helvetica,sans-Serif" font-size="10.00">net/un/stream/ClientSocket.h</text>
</a>
</g>
</g>
<!-- Node67&#45;&gt;Node68 -->
<g id="edge42" class="edge">
<title>Node67&#45;&gt;Node68</title>
<path fill="none" stroke="midnightblue" d="M1168.89,-328.54C1096.72,-318.56 982.9,-302.63 884.5,-288 871.89,-286.13 858.33,-284.05 845.57,-282.06"/>
<polygon fill="midnightblue" stroke="midnightblue" points="1168.84,-332.06 1179.23,-329.96 1169.8,-325.13 1168.84,-332.06"/>
</g>
<!-- Node72 -->
<g id="node45" class="node">
<title>Node72</title>
<g id="a_node45"><a xlink:href="un_2stream_2_server_socket_8h.html" target="_top" xlink:title=" ">
<polygon fill="white" stroke="black" points="1246,-263 1246,-282 1407,-282 1407,-263 1246,-263"/>
<text text-anchor="middle" x="1326.5" y="-270" font-family="Helvetica,sans-Serif" font-size="10.00">net/un/stream/ServerSocket.h</text>
</a>
</g>
</g>
<!-- Node67&#45;&gt;Node72 -->
<g id="edge50" class="edge">
<title>Node67&#45;&gt;Node72</title>
<path fill="none" stroke="midnightblue" d="M1261.03,-323.57C1277.8,-310.74 1301.41,-292.69 1315.22,-282.13"/>
<polygon fill="midnightblue" stroke="midnightblue" points="1258.78,-320.88 1252.96,-329.73 1263.03,-326.44 1258.78,-320.88"/>
</g>
<!-- Node76 -->
<g id="node49" class="node">
<title>Node76</title>
<g id="a_node49"><a xlink:href="net_2un_2stream_2socket_8cpp.html" target="_top" xlink:title=" ">
<polygon fill="white" stroke="black" points="1087.5,-263 1087.5,-282 1227.5,-282 1227.5,-263 1087.5,-263"/>
<text text-anchor="middle" x="1157.5" y="-270" font-family="Helvetica,sans-Serif" font-size="10.00">net/un/stream/Socket.cpp</text>
</a>
</g>
</g>
<!-- Node67&#45;&gt;Node76 -->
<g id="edge58" class="edge">
<title>Node67&#45;&gt;Node76</title>
<path fill="none" stroke="midnightblue" d="M1222.2,-323.57C1205.62,-310.74 1182.29,-292.69 1168.65,-282.13"/>
<polygon fill="midnightblue" stroke="midnightblue" points="1220.12,-326.38 1230.17,-329.73 1224.4,-320.85 1220.12,-326.38"/>
</g>
<!-- Node69 -->
<g id="node42" class="node">
<title>Node69</title>
<g id="a_node42"><a xlink:href="un_2stream_2_client_socket_8cpp.html" target="_top" xlink:title=" ">
<polygon fill="white" stroke="black" points="650,-196 650,-215 819,-215 819,-196 650,-196"/>
<text text-anchor="middle" x="734.5" y="-203" font-family="Helvetica,sans-Serif" font-size="10.00">net/un/stream/ClientSocket.cpp</text>
</a>
</g>
</g>
<!-- Node68&#45;&gt;Node69 -->
<g id="edge43" class="edge">
<title>Node68&#45;&gt;Node69</title>
<path fill="none" stroke="midnightblue" d="M777.15,-255.13C766,-242.42 750.98,-225.3 742.07,-215.13"/>
<polygon fill="midnightblue" stroke="midnightblue" points="774.59,-257.52 783.81,-262.73 779.85,-252.91 774.59,-257.52"/>
</g>
<!-- Node70 -->
<g id="node43" class="node">
<title>Node70</title>
<g id="a_node43"><a xlink:href="net_2un_2stream_2_socket_client_8h.html" target="_top" xlink:title=" ">
<polygon fill="white" stroke="black" points="301.5,-196 301.5,-215 459.5,-215 459.5,-196 301.5,-196"/>
<text text-anchor="middle" x="380.5" y="-203" font-family="Helvetica,sans-Serif" font-size="10.00">net/un/stream/SocketClient.h</text>
</a>
</g>
</g>
<!-- Node68&#45;&gt;Node70 -->
<g id="edge44" class="edge">
<title>Node68&#45;&gt;Node70</title>
<path fill="none" stroke="midnightblue" d="M730.29,-261.32C721.31,-259.86 712.17,-258.38 703.5,-257 599.15,-240.41 572.85,-237.59 468.5,-221 456.57,-219.1 443.74,-217.02 431.67,-215.03"/>
<polygon fill="midnightblue" stroke="midnightblue" points="729.9,-264.8 740.33,-262.97 731.03,-257.9 729.9,-264.8"/>
</g>
<!-- Node70&#45;&gt;Node9 -->
<g id="edge45" class="edge">
<title>Node70&#45;&gt;Node9</title>
<path fill="none" stroke="midnightblue" d="M412.47,-192.2C441.11,-181.19 483.09,-165.04 513.03,-153.53"/>
<polygon fill="midnightblue" stroke="midnightblue" points="411.02,-189.01 402.94,-195.87 413.53,-195.55 411.02,-189.01"/>
</g>
<!-- Node70&#45;&gt;Node13 -->
<g id="edge49" class="edge">
<title>Node70&#45;&gt;Node13</title>
<path fill="none" stroke="midnightblue" d="M344.35,-192.63C310.78,-181.61 260.77,-165.19 225.23,-153.53"/>
<polygon fill="midnightblue" stroke="midnightblue" points="343.61,-196.07 354.21,-195.87 345.8,-189.42 343.61,-196.07"/>
</g>
<!-- Node71 -->
<g id="node44" class="node">
<title>Node71</title>
<g id="a_node44"><a xlink:href="un_2stream_2_socket_client_8hpp.html" target="_top" xlink:title=" ">
<polygon fill="white" stroke="black" points="295.5,-129 295.5,-148 465.5,-148 465.5,-129 295.5,-129"/>
<text text-anchor="middle" x="380.5" y="-136" font-family="Helvetica,sans-Serif" font-size="10.00">net/un/stream/SocketClient.hpp</text>
</a>
</g>
</g>
<!-- Node70&#45;&gt;Node71 -->
<g id="edge46" class="edge">
<title>Node70&#45;&gt;Node71</title>
<path fill="none" stroke="midnightblue" d="M380.5,-185.54C380.5,-173.17 380.5,-157.62 380.5,-148.13"/>
<polygon fill="midnightblue" stroke="midnightblue" points="377,-185.73 380.5,-195.73 384,-185.73 377,-185.73"/>
</g>
<!-- Node71&#45;&gt;Node10 -->
<g id="edge47" class="edge">
<title>Node71&#45;&gt;Node10</title>
<path fill="none" stroke="midnightblue" d="M394.98,-120.99C404.3,-110.36 416.28,-96.7 425.15,-86.59"/>
<polygon fill="midnightblue" stroke="midnightblue" points="392.15,-118.91 388.19,-128.73 397.41,-123.52 392.15,-118.91"/>
</g>
<!-- Node71&#45;&gt;Node14 -->
<g id="edge48" class="edge">
<title>Node71&#45;&gt;Node14</title>
<path fill="none" stroke="midnightblue" d="M360.02,-122.54C345.21,-111.73 325.32,-97.2 310.79,-86.59"/>
<polygon fill="midnightblue" stroke="midnightblue" points="358.36,-125.66 368.5,-128.73 362.49,-120.01 358.36,-125.66"/>
</g>
<!-- Node73 -->
<g id="node46" class="node">
<title>Node73</title>
<g id="a_node46"><a xlink:href="un_2stream_2_server_socket_8cpp.html" target="_top" xlink:title=" ">
<polygon fill="white" stroke="black" points="1495.5,-196 1495.5,-215 1667.5,-215 1667.5,-196 1495.5,-196"/>
<text text-anchor="middle" x="1581.5" y="-203" font-family="Helvetica,sans-Serif" font-size="10.00">net/un/stream/ServerSocket.cpp</text>
</a>
</g>
</g>
<!-- Node72&#45;&gt;Node73 -->
<g id="edge51" class="edge">
<title>Node72&#45;&gt;Node73</title>
<path fill="none" stroke="midnightblue" d="M1370.03,-260.4C1420.36,-247.58 1502.11,-226.74 1547.83,-215.08"/>
<polygon fill="midnightblue" stroke="midnightblue" points="1368.92,-257.07 1360.1,-262.94 1370.65,-263.86 1368.92,-257.07"/>
</g>
<!-- Node74 -->
<g id="node47" class="node">
<title>Node74</title>
<g id="a_node47"><a xlink:href="net_2un_2stream_2_socket_server_8h.html" target="_top" xlink:title=" ">
<polygon fill="white" stroke="black" points="1165,-196 1165,-215 1326,-215 1326,-196 1165,-196"/>
<text text-anchor="middle" x="1245.5" y="-203" font-family="Helvetica,sans-Serif" font-size="10.00">net/un/stream/SocketServer.h</text>
</a>
</g>
</g>
<!-- Node72&#45;&gt;Node74 -->
<g id="edge52" class="edge">
<title>Node72&#45;&gt;Node74</title>
<path fill="none" stroke="midnightblue" d="M1307.45,-256.21C1291.49,-243.41 1269.29,-225.59 1256.25,-215.13"/>
<polygon fill="midnightblue" stroke="midnightblue" points="1305.59,-259.2 1315.58,-262.73 1309.97,-253.75 1305.59,-259.2"/>
</g>
<!-- Node74&#45;&gt;Node19 -->
<g id="edge53" class="edge">
<title>Node74&#45;&gt;Node19</title>
<path fill="none" stroke="midnightblue" d="M1214.28,-192.2C1186.32,-181.19 1145.34,-165.04 1116.11,-153.53"/>
<polygon fill="midnightblue" stroke="midnightblue" points="1213,-195.46 1223.59,-195.87 1215.57,-188.95 1213,-195.46"/>
</g>
<!-- Node74&#45;&gt;Node24 -->
<g id="edge57" class="edge">
<title>Node74&#45;&gt;Node24</title>
<path fill="none" stroke="midnightblue" d="M1278.04,-192.2C1307.19,-181.19 1349.91,-165.04 1380.38,-153.53"/>
<polygon fill="midnightblue" stroke="midnightblue" points="1276.46,-189.06 1268.34,-195.87 1278.93,-195.61 1276.46,-189.06"/>
</g>
<!-- Node75 -->
<g id="node48" class="node">
<title>Node75</title>
<g id="a_node48"><a xlink:href="un_2stream_2_socket_server_8hpp.html" target="_top" xlink:title=" ">
<polygon fill="white" stroke="black" points="1159,-129 1159,-148 1332,-148 1332,-129 1159,-129"/>
<text text-anchor="middle" x="1245.5" y="-136" font-family="Helvetica,sans-Serif" font-size="10.00">net/un/stream/SocketServer.hpp</text>
</a>
</g>
</g>
<!-- Node74&#45;&gt;Node75 -->
<g id="edge54" class="edge">
<title>Node74&#45;&gt;Node75</title>
<path fill="none" stroke="midnightblue" d="M1245.5,-185.54C1245.5,-173.17 1245.5,-157.62 1245.5,-148.13"/>
<polygon fill="midnightblue" stroke="midnightblue" points="1242,-185.73 1245.5,-195.73 1249,-185.73 1242,-185.73"/>
</g>
<!-- Node75&#45;&gt;Node20 -->
<g id="edge55" class="edge">
<title>Node75&#45;&gt;Node20</title>
<path fill="none" stroke="midnightblue" d="M1226.95,-122.24C1213.84,-111.45 1196.4,-97.1 1183.62,-86.59"/>
<polygon fill="midnightblue" stroke="midnightblue" points="1224.9,-125.08 1234.85,-128.73 1229.35,-119.68 1224.9,-125.08"/>
</g>
<!-- Node75&#45;&gt;Node25 -->
<g id="edge56" class="edge">
<title>Node75&#45;&gt;Node25</title>
<path fill="none" stroke="midnightblue" d="M1261.87,-121.62C1272.91,-110.91 1287.35,-96.9 1297.98,-86.59"/>
<polygon fill="midnightblue" stroke="midnightblue" points="1259.28,-119.26 1254.54,-128.73 1264.15,-124.28 1259.28,-119.26"/>
</g>
</g>
</svg>
