<?xml version="1.0" encoding="UTF-8" standalone="no"?>
<!DOCTYPE svg PUBLIC "-//W3C//DTD SVG 1.1//EN"
 "http://www.w3.org/Graphics/SVG/1.1/DTD/svg11.dtd">
<!-- Generated by graphviz version 2.43.0 (0)
 -->
<!-- Title: web/http/client/Request.cpp Pages: 1 -->
<svg width="658pt" height="296pt"
 viewBox="0.00 0.00 657.50 296.00" xmlns="http://www.w3.org/2000/svg" xmlns:xlink="http://www.w3.org/1999/xlink">
<g id="graph0" class="graph" transform="scale(1 1) rotate(0) translate(4 292)">
<title>web/http/client/Request.cpp</title>
<polygon fill="white" stroke="transparent" points="-4,4 -4,-292 653.5,-292 653.5,4 -4,4"/>
<!-- Node1 -->
<g id="node1" class="node">
<title>Node1</title>
<g id="a_node1"><a xlink:title=" ">
<polygon fill="#bfbfbf" stroke="black" points="300.5,-268.5 300.5,-287.5 439.5,-287.5 439.5,-268.5 300.5,-268.5"/>
<text text-anchor="middle" x="370" y="-275.5" font-family="Helvetica,sans-Serif" font-size="10.00">web/http/client/Request.cpp</text>
</a>
</g>
</g>
<!-- Node2 -->
<g id="node2" class="node">
<title>Node2</title>
<g id="a_node2"><a xlink:href="web_2http_2client_2_request_8h.html" target="_top" xlink:title=" ">
<polygon fill="white" stroke="black" points="79,-207 79,-226 207,-226 207,-207 79,-207"/>
<text text-anchor="middle" x="143" y="-214" font-family="Helvetica,sans-Serif" font-size="10.00">web/http/client/Request.h</text>
</a>
</g>
</g>
<!-- Node1&#45;&gt;Node2 -->
<g id="edge1" class="edge">
<title>Node1&#45;&gt;Node2</title>
<path fill="none" stroke="midnightblue" d="M337.48,-268.48C297.44,-257.98 229.36,-240.14 185.3,-228.59"/>
<polygon fill="midnightblue" stroke="midnightblue" points="186.02,-225.16 175.46,-226.01 184.25,-231.93 186.02,-225.16"/>
</g>
<!-- Node5 -->
<g id="node5" class="node">
<title>Node5</title>
<g id="a_node5"><a xlink:href="web_2http_2_socket_context_8h.html" target="_top" xlink:title=" ">
<polygon fill="white" stroke="black" points="225.5,-207 225.5,-226 356.5,-226 356.5,-207 225.5,-207"/>
<text text-anchor="middle" x="291" y="-214" font-family="Helvetica,sans-Serif" font-size="10.00">web/http/SocketContext.h</text>
</a>
</g>
</g>
<!-- Node1&#45;&gt;Node5 -->
<g id="edge4" class="edge">
<title>Node1&#45;&gt;Node5</title>
<path fill="none" stroke="midnightblue" d="M358.68,-268.48C346.13,-259.02 325.65,-243.6 310.5,-232.19"/>
<polygon fill="midnightblue" stroke="midnightblue" points="312.39,-229.23 302.3,-226.01 308.18,-234.82 312.39,-229.23"/>
</g>
<!-- Node7 -->
<g id="node7" class="node">
<title>Node7</title>
<g id="a_node7"><a xlink:href="client_2_socket_context_upgrade_factory_selector_8h.html" target="_top" xlink:title=" ">
<polygon fill="white" stroke="black" points="374.5,-201.5 374.5,-231.5 523.5,-231.5 523.5,-201.5 374.5,-201.5"/>
<text text-anchor="start" x="382.5" y="-219.5" font-family="Helvetica,sans-Serif" font-size="10.00">web/http/client/SocketContext</text>
<text text-anchor="middle" x="449" y="-208.5" font-family="Helvetica,sans-Serif" font-size="10.00">UpgradeFactorySelector.h</text>
</a>
</g>
</g>
<!-- Node1&#45;&gt;Node7 -->
<g id="edge6" class="edge">
<title>Node1&#45;&gt;Node7</title>
<path fill="none" stroke="midnightblue" d="M381.32,-268.48C391.92,-260.49 408.17,-248.25 422.09,-237.77"/>
<polygon fill="midnightblue" stroke="midnightblue" points="424.5,-240.33 430.38,-231.52 420.29,-234.74 424.5,-240.33"/>
</g>
<!-- Node12 -->
<g id="node12" class="node">
<title>Node12</title>
<g id="a_node12"><a xlink:href="http__utils_8h.html" target="_top" xlink:title=" ">
<polygon fill="white" stroke="black" points="541.5,-207 541.5,-226 646.5,-226 646.5,-207 541.5,-207"/>
<text text-anchor="middle" x="594" y="-214" font-family="Helvetica,sans-Serif" font-size="10.00">web/http/http_utils.h</text>
</a>
</g>
</g>
<!-- Node1&#45;&gt;Node12 -->
<g id="edge12" class="edge">
<title>Node1&#45;&gt;Node12</title>
<path fill="none" stroke="midnightblue" d="M402.09,-268.48C441.6,-257.98 508.78,-240.14 552.26,-228.59"/>
<polygon fill="midnightblue" stroke="midnightblue" points="553.2,-231.96 561.97,-226.01 551.4,-225.19 553.2,-231.96"/>
</g>
<!-- Node3 -->
<g id="node3" class="node">
<title>Node3</title>
<g id="a_node3"><a xlink:href="_sink_8h.html" target="_top" xlink:title=" ">
<polygon fill="white" stroke="black" points="0,-140 0,-159 82,-159 82,-140 0,-140"/>
<text text-anchor="middle" x="41" y="-147" font-family="Helvetica,sans-Serif" font-size="10.00">net/pipe/Sink.h</text>
</a>
</g>
</g>
<!-- Node2&#45;&gt;Node3 -->
<g id="edge2" class="edge">
<title>Node2&#45;&gt;Node3</title>
<path fill="none" stroke="midnightblue" d="M129.24,-206.73C112.27,-195.92 83.19,-177.38 63.07,-164.57"/>
<polygon fill="midnightblue" stroke="midnightblue" points="64.85,-161.55 54.54,-159.13 61.09,-167.45 64.85,-161.55"/>
</g>
<!-- Node4 -->
<g id="node4" class="node">
<title>Node4</title>
<g id="a_node4"><a xlink:href="_connection_state_8h.html" target="_top" xlink:title=" ">
<polygon fill="white" stroke="black" points="100,-140 100,-159 238,-159 238,-140 100,-140"/>
<text text-anchor="middle" x="169" y="-147" font-family="Helvetica,sans-Serif" font-size="10.00">web/http/ConnectionState.h</text>
</a>
</g>
</g>
<!-- Node2&#45;&gt;Node4 -->
<g id="edge3" class="edge">
<title>Node2&#45;&gt;Node4</title>
<path fill="none" stroke="midnightblue" d="M146.51,-206.73C150.4,-196.99 156.81,-180.98 161.79,-168.53"/>
<polygon fill="midnightblue" stroke="midnightblue" points="165.08,-169.71 165.55,-159.13 158.59,-167.11 165.08,-169.71"/>
</g>
<!-- Node6 -->
<g id="node6" class="node">
<title>Node6</title>
<g id="a_node6"><a xlink:href="net_2socket_2stream_2_socket_context_8h.html" target="_top" xlink:title=" ">
<polygon fill="white" stroke="black" points="285.5,-67.5 285.5,-97.5 414.5,-97.5 414.5,-67.5 285.5,-67.5"/>
<text text-anchor="start" x="293.5" y="-85.5" font-family="Helvetica,sans-Serif" font-size="10.00">net/socket/stream/Socket</text>
<text text-anchor="middle" x="350" y="-74.5" font-family="Helvetica,sans-Serif" font-size="10.00">Context.h</text>
</a>
</g>
</g>
<!-- Node5&#45;&gt;Node6 -->
<g id="edge5" class="edge">
<title>Node5&#45;&gt;Node6</title>
<path fill="none" stroke="midnightblue" d="M291.59,-206.99C292.91,-191.68 297.03,-158.79 309,-134 313.98,-123.67 321.47,-113.59 328.68,-105.19"/>
<polygon fill="midnightblue" stroke="midnightblue" points="331.34,-107.47 335.42,-97.69 326.13,-102.79 331.34,-107.47"/>
</g>
<!-- Node8 -->
<g id="node8" class="node">
<title>Node8</title>
<g id="a_node8"><a xlink:href="_socket_context_upgrade_factory_selector_8h.html" target="_top" xlink:title=" ">
<polygon fill="white" stroke="black" points="318.5,-134.5 318.5,-164.5 477.5,-164.5 477.5,-134.5 318.5,-134.5"/>
<text text-anchor="start" x="326.5" y="-152.5" font-family="Helvetica,sans-Serif" font-size="10.00">web/http/SocketContextUpgrade</text>
<text text-anchor="middle" x="398" y="-141.5" font-family="Helvetica,sans-Serif" font-size="10.00">FactorySelector.h</text>
</a>
</g>
</g>
<!-- Node7&#45;&gt;Node8 -->
<g id="edge7" class="edge">
<title>Node7&#45;&gt;Node8</title>
<path fill="none" stroke="midnightblue" d="M437.93,-201.4C431.32,-192.96 422.77,-182.07 415.28,-172.52"/>
<polygon fill="midnightblue" stroke="midnightblue" points="417.97,-170.28 409.04,-164.58 412.46,-174.6 417.97,-170.28"/>
</g>
<!-- Node9 -->
<g id="node9" class="node">
<title>Node9</title>
<g id="a_node9"><a xlink:href="http_2client_2_socket_context_upgrade_factory_8h.html" target="_top" xlink:title=" ">
<polygon fill="white" stroke="black" points="495.5,-134.5 495.5,-164.5 644.5,-164.5 644.5,-134.5 495.5,-134.5"/>
<text text-anchor="start" x="503.5" y="-152.5" font-family="Helvetica,sans-Serif" font-size="10.00">web/http/client/SocketContext</text>
<text text-anchor="middle" x="570" y="-141.5" font-family="Helvetica,sans-Serif" font-size="10.00">UpgradeFactory.h</text>
</a>
</g>
</g>
<!-- Node7&#45;&gt;Node9 -->
<g id="edge8" class="edge">
<title>Node7&#45;&gt;Node9</title>
<path fill="none" stroke="midnightblue" d="M475.26,-201.4C492.7,-192.03 515.8,-179.62 534.83,-169.39"/>
<polygon fill="midnightblue" stroke="midnightblue" points="536.64,-172.39 543.8,-164.58 533.33,-166.23 536.64,-172.39"/>
</g>
<!-- Node9&#45;&gt;Node6 -->
<g id="edge9" class="edge">
<title>Node9&#45;&gt;Node6</title>
<path fill="none" stroke="midnightblue" d="M522.53,-134.48C488.82,-124.51 443.37,-111.09 407.58,-100.51"/>
<polygon fill="midnightblue" stroke="midnightblue" points="408.34,-97.09 397.76,-97.61 406.36,-103.8 408.34,-97.09"/>
</g>
<!-- Node10 -->
<g id="node10" class="node">
<title>Node10</title>
<g id="a_node10"><a xlink:href="http_2_socket_context_upgrade_factory_8h.html" target="_top" xlink:title=" ">
<polygon fill="white" stroke="black" points="490.5,-67.5 490.5,-97.5 649.5,-97.5 649.5,-67.5 490.5,-67.5"/>
<text text-anchor="start" x="498.5" y="-85.5" font-family="Helvetica,sans-Serif" font-size="10.00">web/http/SocketContextUpgrade</text>
<text text-anchor="middle" x="570" y="-74.5" font-family="Helvetica,sans-Serif" font-size="10.00">Factory.h</text>
</a>
</g>
</g>
<!-- Node9&#45;&gt;Node10 -->
<g id="edge10" class="edge">
<title>Node9&#45;&gt;Node10</title>
<path fill="none" stroke="midnightblue" d="M570,-134.4C570,-126.64 570,-116.81 570,-107.86"/>
<polygon fill="midnightblue" stroke="midnightblue" points="573.5,-107.58 570,-97.58 566.5,-107.58 573.5,-107.58"/>
</g>
<!-- Node11 -->
<g id="node11" class="node">
<title>Node11</title>
<g id="a_node11"><a xlink:href="net_2socket_2stream_2_socket_context_factory_8h.html" target="_top" xlink:title=" ">
<polygon fill="white" stroke="black" points="505.5,-0.5 505.5,-30.5 634.5,-30.5 634.5,-0.5 505.5,-0.5"/>
<text text-anchor="start" x="513.5" y="-18.5" font-family="Helvetica,sans-Serif" font-size="10.00">net/socket/stream/Socket</text>
<text text-anchor="middle" x="570" y="-7.5" font-family="Helvetica,sans-Serif" font-size="10.00">ContextFactory.h</text>
</a>
</g>
</g>
<!-- Node10&#45;&gt;Node11 -->
<g id="edge11" class="edge">
<title>Node10&#45;&gt;Node11</title>
<path fill="none" stroke="midnightblue" d="M570,-67.4C570,-59.64 570,-49.81 570,-40.86"/>
<polygon fill="midnightblue" stroke="midnightblue" points="573.5,-40.58 570,-30.58 566.5,-40.58 573.5,-40.58"/>
</g>
</g>
</svg>
