<?xml version="1.0" encoding="UTF-8" standalone="no"?>
<!DOCTYPE svg PUBLIC "-//W3C//DTD SVG 1.1//EN"
 "http://www.w3.org/Graphics/SVG/1.1/DTD/svg11.dtd">
<!-- Generated by graphviz version 2.43.0 (0)
 -->
<!-- Title: web/websocket/client/SocketContextUpgradeFactory.cpp Pages: 1 -->
<svg width="714pt" height="374pt"
 viewBox="0.00 0.00 714.15 374.00" xmlns="http://www.w3.org/2000/svg" xmlns:xlink="http://www.w3.org/1999/xlink">
<g id="graph0" class="graph" transform="scale(1 1) rotate(0) translate(4 370)">
<title>web/websocket/client/SocketContextUpgradeFactory.cpp</title>
<polygon fill="white" stroke="transparent" points="-4,4 -4,-370 710.15,-370 710.15,4 -4,4"/>
<!-- Node1 -->
<g id="node1" class="node">
<title>Node1</title>
<g id="a_node1"><a xlink:title=" ">
<polygon fill="#bfbfbf" stroke="black" points="341.15,-335.5 341.15,-365.5 513.15,-365.5 513.15,-335.5 341.15,-335.5"/>
<text text-anchor="start" x="349.15" y="-353.5" font-family="Helvetica,sans-Serif" font-size="10.00">web/websocket/client</text>
<text text-anchor="middle" x="427.15" y="-342.5" font-family="Helvetica,sans-Serif" font-size="10.00">/SocketContextUpgradeFactory.cpp</text>
</a>
</g>
</g>
<!-- Node2 -->
<g id="node2" class="node">
<title>Node2</title>
<g id="a_node2"><a xlink:href="websocket_2client_2_socket_context_upgrade_factory_8h.html" target="_top" xlink:title=" ">
<polygon fill="white" stroke="black" points="149.65,-268.5 149.65,-298.5 310.65,-298.5 310.65,-268.5 149.65,-268.5"/>
<text text-anchor="start" x="157.65" y="-286.5" font-family="Helvetica,sans-Serif" font-size="10.00">web/websocket/client</text>
<text text-anchor="middle" x="230.15" y="-275.5" font-family="Helvetica,sans-Serif" font-size="10.00">/SocketContextUpgradeFactory.h</text>
</a>
</g>
</g>
<!-- Node1&#45;&gt;Node2 -->
<g id="edge1" class="edge">
<title>Node1&#45;&gt;Node2</title>
<path fill="none" stroke="midnightblue" d="M384.41,-335.4C354.46,-325.52 314.26,-312.25 282.41,-301.74"/>
<polygon fill="midnightblue" stroke="midnightblue" points="283.41,-298.39 272.82,-298.58 281.22,-305.03 283.41,-298.39"/>
</g>
<!-- Node12 -->
<g id="node12" class="node">
<title>Node12</title>
<g id="a_node12"><a xlink:href="base64_8h.html" target="_top" xlink:title=" ">
<polygon fill="white" stroke="black" points="328.65,-274 328.65,-293 405.65,-293 405.65,-274 328.65,-274"/>
<text text-anchor="middle" x="367.15" y="-281" font-family="Helvetica,sans-Serif" font-size="10.00">utils/base64.h</text>
</a>
</g>
</g>
<!-- Node1&#45;&gt;Node12 -->
<g id="edge12" class="edge">
<title>Node1&#45;&gt;Node12</title>
<path fill="none" stroke="midnightblue" d="M414.13,-335.4C404.69,-325.16 391.89,-311.3 382.04,-300.62"/>
<polygon fill="midnightblue" stroke="midnightblue" points="384.53,-298.17 375.18,-293.19 379.39,-302.92 384.53,-298.17"/>
</g>
<!-- Node13 -->
<g id="node13" class="node">
<title>Node13</title>
<g id="a_node13"><a xlink:href="web_2http_2client_2_request_8h.html" target="_top" xlink:title=" ">
<polygon fill="white" stroke="black" points="424.15,-274 424.15,-293 552.15,-293 552.15,-274 424.15,-274"/>
<text text-anchor="middle" x="488.15" y="-281" font-family="Helvetica,sans-Serif" font-size="10.00">web/http/client/Request.h</text>
</a>
</g>
</g>
<!-- Node1&#45;&gt;Node13 -->
<g id="edge13" class="edge">
<title>Node1&#45;&gt;Node13</title>
<path fill="none" stroke="midnightblue" d="M440.39,-335.4C449.99,-325.16 463.01,-311.3 473.02,-300.62"/>
<polygon fill="midnightblue" stroke="midnightblue" points="475.7,-302.88 479.99,-293.19 470.6,-298.09 475.7,-302.88"/>
</g>
<!-- Node16 -->
<g id="node16" class="node">
<title>Node16</title>
<g id="a_node16"><a xlink:href="web_2http_2client_2_response_8h.html" target="_top" xlink:title=" ">
<polygon fill="white" stroke="black" points="570.15,-274 570.15,-293 706.15,-293 706.15,-274 570.15,-274"/>
<text text-anchor="middle" x="638.15" y="-281" font-family="Helvetica,sans-Serif" font-size="10.00">web/http/client/Response.h</text>
</a>
</g>
</g>
<!-- Node1&#45;&gt;Node16 -->
<g id="edge16" class="edge">
<title>Node1&#45;&gt;Node16</title>
<path fill="none" stroke="midnightblue" d="M472.68,-335.48C510.99,-323.67 565.11,-307 600.89,-295.98"/>
<polygon fill="midnightblue" stroke="midnightblue" points="601.94,-299.32 610.47,-293.03 599.88,-292.63 601.94,-299.32"/>
</g>
<!-- Node3 -->
<g id="node3" class="node">
<title>Node3</title>
<g id="a_node3"><a xlink:href="http_2client_2_socket_context_upgrade_factory_8h.html" target="_top" xlink:title=" ">
<polygon fill="white" stroke="black" points="22.65,-201.5 22.65,-231.5 171.65,-231.5 171.65,-201.5 22.65,-201.5"/>
<text text-anchor="start" x="30.65" y="-219.5" font-family="Helvetica,sans-Serif" font-size="10.00">web/http/client/SocketContext</text>
<text text-anchor="middle" x="97.15" y="-208.5" font-family="Helvetica,sans-Serif" font-size="10.00">UpgradeFactory.h</text>
</a>
</g>
</g>
<!-- Node2&#45;&gt;Node3 -->
<g id="edge2" class="edge">
<title>Node2&#45;&gt;Node3</title>
<path fill="none" stroke="midnightblue" d="M201.29,-268.4C181.86,-258.9 156.03,-246.28 134.96,-235.98"/>
<polygon fill="midnightblue" stroke="midnightblue" points="136.48,-232.82 125.96,-231.58 133.4,-239.11 136.48,-232.82"/>
</g>
<!-- Node7 -->
<g id="node7" class="node">
<title>Node7</title>
<g id="a_node7"><a xlink:href="websocket_2client_2_socket_context_upgrade_8h.html" target="_top" xlink:title=" ">
<polygon fill="white" stroke="black" points="198.15,-201.5 198.15,-231.5 328.15,-231.5 328.15,-201.5 198.15,-201.5"/>
<text text-anchor="start" x="206.15" y="-219.5" font-family="Helvetica,sans-Serif" font-size="10.00">web/websocket/client</text>
<text text-anchor="middle" x="263.15" y="-208.5" font-family="Helvetica,sans-Serif" font-size="10.00">/SocketContextUpgrade.h</text>
</a>
</g>
</g>
<!-- Node2&#45;&gt;Node7 -->
<g id="edge6" class="edge">
<title>Node2&#45;&gt;Node7</title>
<path fill="none" stroke="midnightblue" d="M237.31,-268.4C241.42,-260.3 246.68,-249.94 251.38,-240.69"/>
<polygon fill="midnightblue" stroke="midnightblue" points="254.6,-242.08 256.01,-231.58 248.36,-238.91 254.6,-242.08"/>
</g>
<!-- Node4 -->
<g id="node4" class="node">
<title>Node4</title>
<g id="a_node4"><a xlink:href="core_2socket_2stream_2_socket_context_8h.html" target="_top" xlink:title=" ">
<polygon fill="white" stroke="black" points="66.65,-0.5 66.65,-30.5 167.65,-30.5 167.65,-0.5 66.65,-0.5"/>
<text text-anchor="start" x="74.65" y="-18.5" font-family="Helvetica,sans-Serif" font-size="10.00">core/socket/stream</text>
<text text-anchor="middle" x="117.15" y="-7.5" font-family="Helvetica,sans-Serif" font-size="10.00">/SocketContext.h</text>
</a>
</g>
</g>
<!-- Node3&#45;&gt;Node4 -->
<g id="edge3" class="edge">
<title>Node3&#45;&gt;Node4</title>
<path fill="none" stroke="midnightblue" d="M52.92,-201.44C35.8,-193.59 17.99,-181.89 8.15,-165 0.64,-152.1 -5.55,-89.72 9.15,-67 20.17,-49.98 38.56,-38.59 57.08,-31.01"/>
<polygon fill="midnightblue" stroke="midnightblue" points="58.31,-34.29 66.44,-27.49 55.85,-27.74 58.31,-34.29"/>
</g>
<!-- Node5 -->
<g id="node5" class="node">
<title>Node5</title>
<g id="a_node5"><a xlink:href="http_2_socket_context_upgrade_factory_8h.html" target="_top" xlink:title=" ">
<polygon fill="white" stroke="black" points="17.65,-134.5 17.65,-164.5 176.65,-164.5 176.65,-134.5 17.65,-134.5"/>
<text text-anchor="start" x="25.65" y="-152.5" font-family="Helvetica,sans-Serif" font-size="10.00">web/http/SocketContextUpgrade</text>
<text text-anchor="middle" x="97.15" y="-141.5" font-family="Helvetica,sans-Serif" font-size="10.00">Factory.h</text>
</a>
</g>
</g>
<!-- Node3&#45;&gt;Node5 -->
<g id="edge4" class="edge">
<title>Node3&#45;&gt;Node5</title>
<path fill="none" stroke="midnightblue" d="M97.15,-201.4C97.15,-193.64 97.15,-183.81 97.15,-174.86"/>
<polygon fill="midnightblue" stroke="midnightblue" points="100.65,-174.58 97.15,-164.58 93.65,-174.58 100.65,-174.58"/>
</g>
<!-- Node6 -->
<g id="node6" class="node">
<title>Node6</title>
<g id="a_node6"><a xlink:href="core_2socket_2stream_2_socket_context_factory_8h.html" target="_top" xlink:title=" ">
<polygon fill="white" stroke="black" points="18.65,-67.5 18.65,-97.5 143.65,-97.5 143.65,-67.5 18.65,-67.5"/>
<text text-anchor="start" x="26.65" y="-85.5" font-family="Helvetica,sans-Serif" font-size="10.00">core/socket/stream</text>
<text text-anchor="middle" x="81.15" y="-74.5" font-family="Helvetica,sans-Serif" font-size="10.00">/SocketContextFactory.h</text>
</a>
</g>
</g>
<!-- Node5&#45;&gt;Node6 -->
<g id="edge5" class="edge">
<title>Node5&#45;&gt;Node6</title>
<path fill="none" stroke="midnightblue" d="M93.68,-134.4C91.75,-126.56 89.3,-116.6 87.08,-107.57"/>
<polygon fill="midnightblue" stroke="midnightblue" points="90.41,-106.45 84.62,-97.58 83.61,-108.12 90.41,-106.45"/>
</g>
<!-- Node8 -->
<g id="node8" class="node">
<title>Node8</title>
<g id="a_node8"><a xlink:href="websocket_2_socket_context_upgrade_8h.html" target="_top" xlink:title=" ">
<polygon fill="white" stroke="black" points="265.65,-134.5 265.65,-164.5 418.65,-164.5 418.65,-134.5 265.65,-134.5"/>
<text text-anchor="start" x="273.65" y="-152.5" font-family="Helvetica,sans-Serif" font-size="10.00">web/websocket/SocketContext</text>
<text text-anchor="middle" x="342.15" y="-141.5" font-family="Helvetica,sans-Serif" font-size="10.00">Upgrade.h</text>
</a>
</g>
</g>
<!-- Node7&#45;&gt;Node8 -->
<g id="edge7" class="edge">
<title>Node7&#45;&gt;Node8</title>
<path fill="none" stroke="midnightblue" d="M280.3,-201.4C291.06,-192.54 305.13,-180.96 317.13,-171.09"/>
<polygon fill="midnightblue" stroke="midnightblue" points="319.55,-173.63 325.04,-164.58 315.1,-168.23 319.55,-173.63"/>
</g>
<!-- Node9 -->
<g id="node9" class="node">
<title>Node9</title>
<g id="a_node9"><a xlink:href="http_2_socket_context_upgrade_8h.html" target="_top" xlink:title=" ">
<polygon fill="white" stroke="black" points="161.65,-73 161.65,-92 328.65,-92 328.65,-73 161.65,-73"/>
<text text-anchor="middle" x="245.15" y="-80" font-family="Helvetica,sans-Serif" font-size="10.00">web/http/SocketContextUpgrade.h</text>
</a>
</g>
</g>
<!-- Node8&#45;&gt;Node9 -->
<g id="edge8" class="edge">
<title>Node8&#45;&gt;Node9</title>
<path fill="none" stroke="midnightblue" d="M321.11,-134.4C304.84,-123.5 282.43,-108.48 266.17,-97.58"/>
<polygon fill="midnightblue" stroke="midnightblue" points="268.1,-94.67 257.85,-92.01 264.21,-100.48 268.1,-94.67"/>
</g>
<!-- Node10 -->
<g id="node10" class="node">
<title>Node10</title>
<g id="a_node10"><a xlink:href="_receiver_8h.html" target="_top" xlink:title=" ">
<polygon fill="white" stroke="black" points="347.15,-73 347.15,-92 481.15,-92 481.15,-73 347.15,-73"/>
<text text-anchor="middle" x="414.15" y="-80" font-family="Helvetica,sans-Serif" font-size="10.00">web/websocket/Receiver.h</text>
</a>
</g>
</g>
<!-- Node8&#45;&gt;Node10 -->
<g id="edge10" class="edge">
<title>Node8&#45;&gt;Node10</title>
<path fill="none" stroke="midnightblue" d="M357.78,-134.4C369.34,-123.96 385.08,-109.75 396.99,-99"/>
<polygon fill="midnightblue" stroke="midnightblue" points="399.45,-101.49 404.52,-92.19 394.75,-96.3 399.45,-101.49"/>
</g>
<!-- Node11 -->
<g id="node11" class="node">
<title>Node11</title>
<g id="a_node11"><a xlink:href="_transmitter_8h.html" target="_top" xlink:title=" ">
<polygon fill="white" stroke="black" points="499.65,-73 499.65,-92 644.65,-92 644.65,-73 499.65,-73"/>
<text text-anchor="middle" x="572.15" y="-80" font-family="Helvetica,sans-Serif" font-size="10.00">web/websocket/Transmitter.h</text>
</a>
</g>
</g>
<!-- Node8&#45;&gt;Node11 -->
<g id="edge11" class="edge">
<title>Node8&#45;&gt;Node11</title>
<path fill="none" stroke="midnightblue" d="M391.78,-134.48C433.72,-122.62 493.04,-105.86 532.03,-94.84"/>
<polygon fill="midnightblue" stroke="midnightblue" points="533.3,-98.12 541.97,-92.03 531.4,-91.38 533.3,-98.12"/>
</g>
<!-- Node9&#45;&gt;Node4 -->
<g id="edge9" class="edge">
<title>Node9&#45;&gt;Node4</title>
<path fill="none" stroke="midnightblue" d="M228.16,-72.87C209.34,-63.31 178.45,-47.63 154.03,-35.22"/>
<polygon fill="midnightblue" stroke="midnightblue" points="155.52,-32.06 145.02,-30.65 152.35,-38.3 155.52,-32.06"/>
</g>
<!-- Node14 -->
<g id="node14" class="node">
<title>Node14</title>
<g id="a_node14"><a xlink:href="_sink_8h.html" target="_top" xlink:title=" ">
<polygon fill="white" stroke="black" points="411.65,-207 411.65,-226 498.65,-226 498.65,-207 411.65,-207"/>
<text text-anchor="middle" x="455.15" y="-214" font-family="Helvetica,sans-Serif" font-size="10.00">core/pipe/Sink.h</text>
</a>
</g>
</g>
<!-- Node13&#45;&gt;Node14 -->
<g id="edge14" class="edge">
<title>Node13&#45;&gt;Node14</title>
<path fill="none" stroke="midnightblue" d="M483.7,-273.73C478.71,-263.89 470.47,-247.66 464.12,-235.16"/>
<polygon fill="midnightblue" stroke="midnightblue" points="467.18,-233.46 459.53,-226.13 460.94,-236.63 467.18,-233.46"/>
</g>
<!-- Node15 -->
<g id="node15" class="node">
<title>Node15</title>
<g id="a_node15"><a xlink:href="_connection_state_8h.html" target="_top" xlink:title=" ">
<polygon fill="white" stroke="black" points="517.15,-207 517.15,-226 655.15,-226 655.15,-207 517.15,-207"/>
<text text-anchor="middle" x="586.15" y="-214" font-family="Helvetica,sans-Serif" font-size="10.00">web/http/ConnectionState.h</text>
</a>
</g>
</g>
<!-- Node13&#45;&gt;Node15 -->
<g id="edge15" class="edge">
<title>Node13&#45;&gt;Node15</title>
<path fill="none" stroke="midnightblue" d="M501.37,-273.73C517.61,-262.96 545.37,-244.55 564.68,-231.74"/>
<polygon fill="midnightblue" stroke="midnightblue" points="566.75,-234.57 573.15,-226.13 562.88,-228.74 566.75,-234.57"/>
</g>
</g>
</svg>
