<?xml version="1.0" encoding="UTF-8" standalone="no"?>
<!DOCTYPE svg PUBLIC "-//W3C//DTD SVG 1.1//EN"
 "http://www.w3.org/Graphics/SVG/1.1/DTD/svg11.dtd">
<!-- Generated by graphviz version 2.43.0 (0)
 -->
<!-- Title: web/websocket/server/SocketContextUpgradeFactory.cpp Pages: 1 -->
<svg width="1030pt" height="475pt"
 viewBox="0.00 0.00 1029.50 475.00" xmlns="http://www.w3.org/2000/svg" xmlns:xlink="http://www.w3.org/1999/xlink">
<g id="graph0" class="graph" transform="scale(1 1) rotate(0) translate(4 471)">
<title>web/websocket/server/SocketContextUpgradeFactory.cpp</title>
<polygon fill="white" stroke="transparent" points="-4,4 -4,-471 1025.5,-471 1025.5,4 -4,4"/>
<!-- Node1 -->
<g id="node1" class="node">
<title>Node1</title>
<g id="a_node1"><a xlink:title=" ">
<polygon fill="#bfbfbf" stroke="black" points="478,-436.5 478,-466.5 664,-466.5 664,-436.5 478,-436.5"/>
<text text-anchor="start" x="486" y="-454.5" font-family="Helvetica,sans-Serif" font-size="10.00">web/websocket/server</text>
<text text-anchor="middle" x="571" y="-443.5" font-family="Helvetica,sans-Serif" font-size="10.00">/SocketContextUpgradeFactory.cpp</text>
</a>
</g>
</g>
<!-- Node2 -->
<g id="node2" class="node">
<title>Node2</title>
<g id="a_node2"><a xlink:href="websocket_2server_2_socket_context_upgrade_factory_8h.html" target="_top" xlink:title=" ">
<polygon fill="white" stroke="black" points="245.5,-369.5 245.5,-399.5 420.5,-399.5 420.5,-369.5 245.5,-369.5"/>
<text text-anchor="start" x="253.5" y="-387.5" font-family="Helvetica,sans-Serif" font-size="10.00">web/websocket/server</text>
<text text-anchor="middle" x="333" y="-376.5" font-family="Helvetica,sans-Serif" font-size="10.00">/SocketContextUpgradeFactory.h</text>
</a>
</g>
</g>
<!-- Node1&#45;&gt;Node2 -->
<g id="edge1" class="edge">
<title>Node1&#45;&gt;Node2</title>
<path fill="none" stroke="midnightblue" d="M519.65,-436.48C483.02,-426.47 433.59,-412.97 394.8,-402.38"/>
<polygon fill="midnightblue" stroke="midnightblue" points="395.24,-398.87 384.67,-399.61 393.39,-405.62 395.24,-398.87"/>
</g>
<!-- Node14 -->
<g id="node14" class="node">
<title>Node14</title>
<g id="a_node14"><a xlink:href="http__utils_8h.html" target="_top" xlink:title=" ">
<polygon fill="white" stroke="black" points="438.5,-375 438.5,-394 555.5,-394 555.5,-375 438.5,-375"/>
<text text-anchor="middle" x="497" y="-382" font-family="Helvetica,sans-Serif" font-size="10.00">web/http/http_utils.h</text>
</a>
</g>
</g>
<!-- Node1&#45;&gt;Node14 -->
<g id="edge13" class="edge">
<title>Node1&#45;&gt;Node14</title>
<path fill="none" stroke="midnightblue" d="M554.94,-436.4C543.06,-425.96 526.89,-411.75 514.64,-401"/>
<polygon fill="midnightblue" stroke="midnightblue" points="516.72,-398.16 506.9,-394.19 512.1,-403.42 516.72,-398.16"/>
</g>
<!-- Node15 -->
<g id="node15" class="node">
<title>Node15</title>
<g id="a_node15"><a xlink:href="web_2http_2server_2_request_8h.html" target="_top" xlink:title=" ">
<polygon fill="white" stroke="black" points="573.5,-375 573.5,-394 718.5,-394 718.5,-375 573.5,-375"/>
<text text-anchor="middle" x="646" y="-382" font-family="Helvetica,sans-Serif" font-size="10.00">web/http/server/Request.h</text>
</a>
</g>
</g>
<!-- Node1&#45;&gt;Node15 -->
<g id="edge14" class="edge">
<title>Node1&#45;&gt;Node15</title>
<path fill="none" stroke="midnightblue" d="M587.27,-436.4C599.32,-425.96 615.71,-411.75 628.12,-401"/>
<polygon fill="midnightblue" stroke="midnightblue" points="630.7,-403.39 635.97,-394.19 626.12,-398.1 630.7,-403.39"/>
</g>
<!-- Node18 -->
<g id="node18" class="node">
<title>Node18</title>
<g id="a_node18"><a xlink:href="web_2http_2server_2_response_8h.html" target="_top" xlink:title=" ">
<polygon fill="white" stroke="black" points="737,-375 737,-394 889,-394 889,-375 737,-375"/>
<text text-anchor="middle" x="813" y="-382" font-family="Helvetica,sans-Serif" font-size="10.00">web/http/server/Response.h</text>
</a>
</g>
</g>
<!-- Node1&#45;&gt;Node18 -->
<g id="edge17" class="edge">
<title>Node1&#45;&gt;Node18</title>
<path fill="none" stroke="midnightblue" d="M623.21,-436.48C667.63,-424.55 730.56,-407.64 771.57,-396.63"/>
<polygon fill="midnightblue" stroke="midnightblue" points="772.5,-400 781.25,-394.03 770.68,-393.24 772.5,-400"/>
</g>
<!-- Node3 -->
<g id="node3" class="node">
<title>Node3</title>
<g id="a_node3"><a xlink:href="http_2server_2_socket_context_upgrade_factory_8h.html" target="_top" xlink:title=" ">
<polygon fill="white" stroke="black" points="86.5,-302.5 86.5,-332.5 253.5,-332.5 253.5,-302.5 86.5,-302.5"/>
<text text-anchor="start" x="94.5" y="-320.5" font-family="Helvetica,sans-Serif" font-size="10.00">web/http/server/SocketContext</text>
<text text-anchor="middle" x="170" y="-309.5" font-family="Helvetica,sans-Serif" font-size="10.00">UpgradeFactory.h</text>
</a>
</g>
</g>
<!-- Node2&#45;&gt;Node3 -->
<g id="edge2" class="edge">
<title>Node2&#45;&gt;Node3</title>
<path fill="none" stroke="midnightblue" d="M297.63,-369.4C273.28,-359.69 240.74,-346.71 214.61,-336.29"/>
<polygon fill="midnightblue" stroke="midnightblue" points="215.88,-333.03 205.3,-332.58 213.29,-339.53 215.88,-333.03"/>
</g>
<!-- Node6 -->
<g id="node6" class="node">
<title>Node6</title>
<g id="a_node6"><a xlink:href="websocket_2server_2_socket_context_upgrade_8h.html" target="_top" xlink:title=" ">
<polygon fill="white" stroke="black" points="276,-302.5 276,-332.5 416,-332.5 416,-302.5 276,-302.5"/>
<text text-anchor="start" x="284" y="-320.5" font-family="Helvetica,sans-Serif" font-size="10.00">web/websocket/server</text>
<text text-anchor="middle" x="346" y="-309.5" font-family="Helvetica,sans-Serif" font-size="10.00">/SocketContextUpgrade.h</text>
</a>
</g>
</g>
<!-- Node2&#45;&gt;Node6 -->
<g id="edge5" class="edge">
<title>Node2&#45;&gt;Node6</title>
<path fill="none" stroke="midnightblue" d="M335.82,-369.4C337.39,-361.56 339.38,-351.6 341.19,-342.57"/>
<polygon fill="midnightblue" stroke="midnightblue" points="344.66,-343.07 343.18,-332.58 337.79,-341.7 344.66,-343.07"/>
</g>
<!-- Node4 -->
<g id="node4" class="node">
<title>Node4</title>
<g id="a_node4"><a xlink:href="http_2_socket_context_upgrade_factory_8h.html" target="_top" xlink:title=" ">
<polygon fill="white" stroke="black" points="75,-235.5 75,-265.5 249,-265.5 249,-235.5 75,-235.5"/>
<text text-anchor="start" x="83" y="-253.5" font-family="Helvetica,sans-Serif" font-size="10.00">web/http/SocketContextUpgrade</text>
<text text-anchor="middle" x="162" y="-242.5" font-family="Helvetica,sans-Serif" font-size="10.00">Factory.h</text>
</a>
</g>
</g>
<!-- Node3&#45;&gt;Node4 -->
<g id="edge3" class="edge">
<title>Node3&#45;&gt;Node4</title>
<path fill="none" stroke="midnightblue" d="M168.26,-302.4C167.3,-294.56 166.07,-284.6 164.96,-275.57"/>
<polygon fill="midnightblue" stroke="midnightblue" points="168.43,-275.07 163.73,-265.58 161.48,-275.93 168.43,-275.07"/>
</g>
<!-- Node5 -->
<g id="node5" class="node">
<title>Node5</title>
<g id="a_node5"><a xlink:href="core_2socket_2_socket_context_factory_8h.html" target="_top" xlink:title=" ">
<polygon fill="white" stroke="black" points="0,-168.5 0,-198.5 146,-198.5 146,-168.5 0,-168.5"/>
<text text-anchor="start" x="8" y="-186.5" font-family="Helvetica,sans-Serif" font-size="10.00">core/socket/SocketContext</text>
<text text-anchor="middle" x="73" y="-175.5" font-family="Helvetica,sans-Serif" font-size="10.00">Factory.h</text>
</a>
</g>
</g>
<!-- Node4&#45;&gt;Node5 -->
<g id="edge4" class="edge">
<title>Node4&#45;&gt;Node5</title>
<path fill="none" stroke="midnightblue" d="M142.69,-235.4C130.33,-226.37 114.1,-214.51 100.41,-204.52"/>
<polygon fill="midnightblue" stroke="midnightblue" points="102.41,-201.65 92.27,-198.58 98.29,-207.3 102.41,-201.65"/>
</g>
<!-- Node7 -->
<g id="node7" class="node">
<title>Node7</title>
<g id="a_node7"><a xlink:href="websocket_2_socket_context_upgrade_8h.html" target="_top" xlink:title=" ">
<polygon fill="white" stroke="black" points="311.5,-235.5 311.5,-265.5 476.5,-265.5 476.5,-235.5 311.5,-235.5"/>
<text text-anchor="start" x="319.5" y="-253.5" font-family="Helvetica,sans-Serif" font-size="10.00">web/websocket/SocketContext</text>
<text text-anchor="middle" x="394" y="-242.5" font-family="Helvetica,sans-Serif" font-size="10.00">Upgrade.h</text>
</a>
</g>
</g>
<!-- Node6&#45;&gt;Node7 -->
<g id="edge6" class="edge">
<title>Node6&#45;&gt;Node7</title>
<path fill="none" stroke="midnightblue" d="M356.42,-302.4C362.58,-294.05 370.53,-283.29 377.52,-273.81"/>
<polygon fill="midnightblue" stroke="midnightblue" points="380.48,-275.7 383.61,-265.58 374.85,-271.54 380.48,-275.7"/>
</g>
<!-- Node8 -->
<g id="node8" class="node">
<title>Node8</title>
<g id="a_node8"><a xlink:href="http_2_socket_context_upgrade_8h.html" target="_top" xlink:title=" ">
<polygon fill="white" stroke="black" points="164.5,-174 164.5,-193 347.5,-193 347.5,-174 164.5,-174"/>
<text text-anchor="middle" x="256" y="-181" font-family="Helvetica,sans-Serif" font-size="10.00">web/http/SocketContextUpgrade.h</text>
</a>
</g>
</g>
<!-- Node7&#45;&gt;Node8 -->
<g id="edge7" class="edge">
<title>Node7&#45;&gt;Node8</title>
<path fill="none" stroke="midnightblue" d="M364.06,-235.4C340.06,-224.09 306.66,-208.36 283.37,-197.39"/>
<polygon fill="midnightblue" stroke="midnightblue" points="284.6,-194.1 274.06,-193.01 281.62,-200.43 284.6,-194.1"/>
</g>
<!-- Node12 -->
<g id="node12" class="node">
<title>Node12</title>
<g id="a_node12"><a xlink:href="_receiver_8h.html" target="_top" xlink:title=" ">
<polygon fill="white" stroke="black" points="366,-174 366,-193 512,-193 512,-174 366,-174"/>
<text text-anchor="middle" x="439" y="-181" font-family="Helvetica,sans-Serif" font-size="10.00">web/websocket/Receiver.h</text>
</a>
</g>
</g>
<!-- Node7&#45;&gt;Node12 -->
<g id="edge11" class="edge">
<title>Node7&#45;&gt;Node12</title>
<path fill="none" stroke="midnightblue" d="M403.76,-235.4C410.64,-225.46 419.89,-212.11 427.18,-201.57"/>
<polygon fill="midnightblue" stroke="midnightblue" points="430.17,-203.41 432.98,-193.19 424.41,-199.42 430.17,-203.41"/>
</g>
<!-- Node13 -->
<g id="node13" class="node">
<title>Node13</title>
<g id="a_node13"><a xlink:href="_transmitter_8h.html" target="_top" xlink:title=" ">
<polygon fill="white" stroke="black" points="530,-174 530,-193 690,-193 690,-174 530,-174"/>
<text text-anchor="middle" x="610" y="-181" font-family="Helvetica,sans-Serif" font-size="10.00">web/websocket/Transmitter.h</text>
</a>
</g>
</g>
<!-- Node7&#45;&gt;Node13 -->
<g id="edge12" class="edge">
<title>Node7&#45;&gt;Node13</title>
<path fill="none" stroke="midnightblue" d="M440.6,-235.48C479.83,-223.67 535.23,-207 571.85,-195.98"/>
<polygon fill="midnightblue" stroke="midnightblue" points="573.09,-199.26 581.66,-193.03 571.07,-192.56 573.09,-199.26"/>
</g>
<!-- Node9 -->
<g id="node9" class="node">
<title>Node9</title>
<g id="a_node9"><a xlink:href="core_2socket_2_socket_context_8h.html" target="_top" xlink:title=" ">
<polygon fill="white" stroke="black" points="178.5,-112.5 178.5,-131.5 333.5,-131.5 333.5,-112.5 178.5,-112.5"/>
<text text-anchor="middle" x="256" y="-119.5" font-family="Helvetica,sans-Serif" font-size="10.00">core/socket/SocketContext.h</text>
</a>
</g>
</g>
<!-- Node8&#45;&gt;Node9 -->
<g id="edge8" class="edge">
<title>Node8&#45;&gt;Node9</title>
<path fill="none" stroke="midnightblue" d="M256,-173.98C256,-165.58 256,-152.48 256,-141.66"/>
<polygon fill="midnightblue" stroke="midnightblue" points="259.5,-141.51 256,-131.51 252.5,-141.51 259.5,-141.51"/>
</g>
<!-- Node10 -->
<g id="node10" class="node">
<title>Node10</title>
<g id="a_node10"><a xlink:href="core_2socket_2_socket_8h.html" target="_top" xlink:title=" ">
<polygon fill="white" stroke="black" points="198,-56.5 198,-75.5 314,-75.5 314,-56.5 198,-56.5"/>
<text text-anchor="middle" x="256" y="-63.5" font-family="Helvetica,sans-Serif" font-size="10.00">core/socket/Socket.h</text>
</a>
</g>
</g>
<!-- Node9&#45;&gt;Node10 -->
<g id="edge9" class="edge">
<title>Node9&#45;&gt;Node10</title>
<path fill="none" stroke="midnightblue" d="M256,-112.08C256,-105.01 256,-94.86 256,-85.99"/>
<polygon fill="midnightblue" stroke="midnightblue" points="259.5,-85.75 256,-75.75 252.5,-85.75 259.5,-85.75"/>
</g>
<!-- Node11 -->
<g id="node11" class="node">
<title>Node11</title>
<g id="a_node11"><a xlink:href="_descriptor_8h.html" target="_top" xlink:title=" ">
<polygon fill="white" stroke="black" points="206,-0.5 206,-19.5 306,-19.5 306,-0.5 206,-0.5"/>
<text text-anchor="middle" x="256" y="-7.5" font-family="Helvetica,sans-Serif" font-size="10.00">core/Descriptor.h</text>
</a>
</g>
</g>
<!-- Node10&#45;&gt;Node11 -->
<g id="edge10" class="edge">
<title>Node10&#45;&gt;Node11</title>
<path fill="none" stroke="midnightblue" d="M256,-56.08C256,-49.01 256,-38.86 256,-29.99"/>
<polygon fill="midnightblue" stroke="midnightblue" points="259.5,-29.75 256,-19.75 252.5,-29.75 259.5,-29.75"/>
</g>
<!-- Node16 -->
<g id="node16" class="node">
<title>Node16</title>
<g id="a_node16"><a xlink:href="_attribute_injector_8h.html" target="_top" xlink:title=" ">
<polygon fill="white" stroke="black" points="447.5,-308 447.5,-327 576.5,-327 576.5,-308 447.5,-308"/>
<text text-anchor="middle" x="512" y="-315" font-family="Helvetica,sans-Serif" font-size="10.00">utils/AttributeInjector.h</text>
</a>
</g>
</g>
<!-- Node15&#45;&gt;Node16 -->
<g id="edge15" class="edge">
<title>Node15&#45;&gt;Node16</title>
<path fill="none" stroke="midnightblue" d="M628.21,-374.87C605.38,-363.8 565.57,-344.49 539,-331.6"/>
<polygon fill="midnightblue" stroke="midnightblue" points="540.39,-328.38 529.87,-327.17 537.34,-334.68 540.39,-328.38"/>
</g>
<!-- Node17 -->
<g id="node17" class="node">
<title>Node17</title>
<g id="a_node17"><a xlink:href="_connection_state_8h.html" target="_top" xlink:title=" ">
<polygon fill="white" stroke="black" points="595,-308 595,-327 747,-327 747,-308 595,-308"/>
<text text-anchor="middle" x="671" y="-315" font-family="Helvetica,sans-Serif" font-size="10.00">web/http/ConnectionState.h</text>
</a>
</g>
</g>
<!-- Node15&#45;&gt;Node17 -->
<g id="edge16" class="edge">
<title>Node15&#45;&gt;Node17</title>
<path fill="none" stroke="midnightblue" d="M649.37,-374.73C653.12,-364.99 659.28,-348.98 664.06,-336.53"/>
<polygon fill="midnightblue" stroke="midnightblue" points="667.36,-337.72 667.68,-327.13 660.83,-335.2 667.36,-337.72"/>
</g>
<!-- Node18&#45;&gt;Node17 -->
<g id="edge19" class="edge">
<title>Node18&#45;&gt;Node17</title>
<path fill="none" stroke="midnightblue" d="M794.14,-374.87C769.85,-363.75 727.4,-344.32 699.24,-331.43"/>
<polygon fill="midnightblue" stroke="midnightblue" points="700.48,-328.15 689.93,-327.17 697.57,-334.51 700.48,-328.15"/>
</g>
<!-- Node19 -->
<g id="node19" class="node">
<title>Node19</title>
<g id="a_node19"><a xlink:href="_sink_8h.html" target="_top" xlink:title=" ">
<polygon fill="white" stroke="black" points="765.5,-308 765.5,-327 860.5,-327 860.5,-308 765.5,-308"/>
<text text-anchor="middle" x="813" y="-315" font-family="Helvetica,sans-Serif" font-size="10.00">core/pipe/Sink.h</text>
</a>
</g>
</g>
<!-- Node18&#45;&gt;Node19 -->
<g id="edge18" class="edge">
<title>Node18&#45;&gt;Node19</title>
<path fill="none" stroke="midnightblue" d="M813,-374.73C813,-365.18 813,-349.62 813,-337.28"/>
<polygon fill="midnightblue" stroke="midnightblue" points="816.5,-337.13 813,-327.13 809.5,-337.13 816.5,-337.13"/>
</g>
<!-- Node20 -->
<g id="node20" class="node">
<title>Node20</title>
<g id="a_node20"><a xlink:href="_cookie_options_8h.html" target="_top" xlink:title=" ">
<polygon fill="white" stroke="black" points="878.5,-308 878.5,-327 1021.5,-327 1021.5,-308 878.5,-308"/>
<text text-anchor="middle" x="950" y="-315" font-family="Helvetica,sans-Serif" font-size="10.00">web/http/CookieOptions.h</text>
</a>
</g>
</g>
<!-- Node18&#45;&gt;Node20 -->
<g id="edge20" class="edge">
<title>Node18&#45;&gt;Node20</title>
<path fill="none" stroke="midnightblue" d="M831.19,-374.87C854.53,-363.8 895.23,-344.49 922.39,-331.6"/>
<polygon fill="midnightblue" stroke="midnightblue" points="924.2,-334.62 931.73,-327.17 921.2,-328.29 924.2,-334.62"/>
</g>
</g>
</svg>
