<?xml version="1.0" encoding="UTF-8" standalone="no"?>
<!DOCTYPE svg PUBLIC "-//W3C//DTD SVG 1.1//EN"
 "http://www.w3.org/Graphics/SVG/1.1/DTD/svg11.dtd">
<!-- Generated by graphviz version 2.43.0 (0)
 -->
<!-- Title: web/websocket/client/SocketContextUpgradeFactory.h Pages: 1 -->
<svg width="715pt" height="374pt"
 viewBox="0.00 0.00 714.50 374.00" xmlns="http://www.w3.org/2000/svg" xmlns:xlink="http://www.w3.org/1999/xlink">
<g id="graph0" class="graph" transform="scale(1 1) rotate(0) translate(4 370)">
<title>web/websocket/client/SocketContextUpgradeFactory.h</title>
<polygon fill="white" stroke="transparent" points="-4,4 -4,-370 710.5,-370 710.5,4 -4,4"/>
<!-- Node1 -->
<g id="node1" class="node">
<title>Node1</title>
<g id="a_node1"><a xlink:title=" ">
<polygon fill="#bfbfbf" stroke="black" points="174,-335.5 174,-365.5 349,-365.5 349,-335.5 174,-335.5"/>
<text text-anchor="start" x="182" y="-353.5" font-family="Helvetica,sans-Serif" font-size="10.00">web/websocket/client</text>
<text text-anchor="middle" x="261.5" y="-342.5" font-family="Helvetica,sans-Serif" font-size="10.00">/SocketContextUpgradeFactory.h</text>
</a>
</g>
</g>
<!-- Node2 -->
<g id="node2" class="node">
<title>Node2</title>
<g id="a_node2"><a xlink:href="http_2client_2_socket_context_upgrade_factory_8h.html" target="_top" xlink:title=" ">
<polygon fill="white" stroke="black" points="0,-134.5 0,-164.5 163,-164.5 163,-134.5 0,-134.5"/>
<text text-anchor="start" x="8" y="-152.5" font-family="Helvetica,sans-Serif" font-size="10.00">web/http/client/SocketContext</text>
<text text-anchor="middle" x="81.5" y="-141.5" font-family="Helvetica,sans-Serif" font-size="10.00">UpgradeFactory.h</text>
</a>
</g>
</g>
<!-- Node1&#45;&gt;Node2 -->
<g id="edge1" class="edge">
<title>Node1&#45;&gt;Node2</title>
<path fill="none" stroke="midnightblue" d="M248.55,-335.19C217.42,-300.77 138.19,-213.17 101.15,-172.22"/>
<polygon fill="midnightblue" stroke="midnightblue" points="103.63,-169.75 94.33,-164.68 98.44,-174.45 103.63,-169.75"/>
</g>
<!-- Node6 -->
<g id="node6" class="node">
<title>Node6</title>
<g id="a_node6"><a xlink:href="websocket_2client_2_socket_context_upgrade_8h.html" target="_top" xlink:title=" ">
<polygon fill="white" stroke="black" points="246.5,-268.5 246.5,-298.5 386.5,-298.5 386.5,-268.5 246.5,-268.5"/>
<text text-anchor="start" x="254.5" y="-286.5" font-family="Helvetica,sans-Serif" font-size="10.00">web/websocket/client</text>
<text text-anchor="middle" x="316.5" y="-275.5" font-family="Helvetica,sans-Serif" font-size="10.00">/SocketContextUpgrade.h</text>
</a>
</g>
</g>
<!-- Node1&#45;&gt;Node6 -->
<g id="edge5" class="edge">
<title>Node1&#45;&gt;Node6</title>
<path fill="none" stroke="midnightblue" d="M273.43,-335.4C280.64,-326.88 289.98,-315.85 298.11,-306.23"/>
<polygon fill="midnightblue" stroke="midnightblue" points="300.8,-308.47 304.59,-298.58 295.46,-303.95 300.8,-308.47"/>
</g>
<!-- Node3 -->
<g id="node3" class="node">
<title>Node3</title>
<g id="a_node3"><a xlink:href="core_2socket_2_socket_context_8h.html" target="_top" xlink:title=" ">
<polygon fill="white" stroke="black" points="8,-73 8,-92 163,-92 163,-73 8,-73"/>
<text text-anchor="middle" x="85.5" y="-80" font-family="Helvetica,sans-Serif" font-size="10.00">core/socket/SocketContext.h</text>
</a>
</g>
</g>
<!-- Node2&#45;&gt;Node3 -->
<g id="edge2" class="edge">
<title>Node2&#45;&gt;Node3</title>
<path fill="none" stroke="midnightblue" d="M82.37,-134.4C82.95,-124.96 83.72,-112.45 84.35,-102.19"/>
<polygon fill="midnightblue" stroke="midnightblue" points="87.84,-102.39 84.96,-92.19 80.86,-101.96 87.84,-102.39"/>
</g>
<!-- Node4 -->
<g id="node4" class="node">
<title>Node4</title>
<g id="a_node4"><a xlink:href="http_2_socket_context_upgrade_factory_8h.html" target="_top" xlink:title=" ">
<polygon fill="white" stroke="black" points="183.5,-67.5 183.5,-97.5 357.5,-97.5 357.5,-67.5 183.5,-67.5"/>
<text text-anchor="start" x="191.5" y="-85.5" font-family="Helvetica,sans-Serif" font-size="10.00">web/http/SocketContextUpgrade</text>
<text text-anchor="middle" x="270.5" y="-74.5" font-family="Helvetica,sans-Serif" font-size="10.00">Factory.h</text>
</a>
</g>
</g>
<!-- Node2&#45;&gt;Node4 -->
<g id="edge3" class="edge">
<title>Node2&#45;&gt;Node4</title>
<path fill="none" stroke="midnightblue" d="M122.51,-134.4C151.12,-124.56 189.47,-111.37 219.97,-100.88"/>
<polygon fill="midnightblue" stroke="midnightblue" points="221.25,-104.14 229.57,-97.58 218.98,-97.52 221.25,-104.14"/>
</g>
<!-- Node5 -->
<g id="node5" class="node">
<title>Node5</title>
<g id="a_node5"><a xlink:href="core_2socket_2_socket_context_factory_8h.html" target="_top" xlink:title=" ">
<polygon fill="white" stroke="black" points="197.5,-0.5 197.5,-30.5 343.5,-30.5 343.5,-0.5 197.5,-0.5"/>
<text text-anchor="start" x="205.5" y="-18.5" font-family="Helvetica,sans-Serif" font-size="10.00">core/socket/SocketContext</text>
<text text-anchor="middle" x="270.5" y="-7.5" font-family="Helvetica,sans-Serif" font-size="10.00">Factory.h</text>
</a>
</g>
</g>
<!-- Node4&#45;&gt;Node5 -->
<g id="edge4" class="edge">
<title>Node4&#45;&gt;Node5</title>
<path fill="none" stroke="midnightblue" d="M270.5,-67.4C270.5,-59.64 270.5,-49.81 270.5,-40.86"/>
<polygon fill="midnightblue" stroke="midnightblue" points="274,-40.58 270.5,-30.58 267,-40.58 274,-40.58"/>
</g>
<!-- Node7 -->
<g id="node7" class="node">
<title>Node7</title>
<g id="a_node7"><a xlink:href="websocket_2_socket_context_upgrade_8h.html" target="_top" xlink:title=" ">
<polygon fill="white" stroke="black" points="281,-201.5 281,-231.5 446,-231.5 446,-201.5 281,-201.5"/>
<text text-anchor="start" x="289" y="-219.5" font-family="Helvetica,sans-Serif" font-size="10.00">web/websocket/SocketContext</text>
<text text-anchor="middle" x="363.5" y="-208.5" font-family="Helvetica,sans-Serif" font-size="10.00">Upgrade.h</text>
</a>
</g>
</g>
<!-- Node6&#45;&gt;Node7 -->
<g id="edge6" class="edge">
<title>Node6&#45;&gt;Node7</title>
<path fill="none" stroke="midnightblue" d="M326.7,-268.4C332.73,-260.05 340.52,-249.29 347.37,-239.81"/>
<polygon fill="midnightblue" stroke="midnightblue" points="350.3,-241.73 353.32,-231.58 344.63,-237.63 350.3,-241.73"/>
</g>
<!-- Node8 -->
<g id="node8" class="node">
<title>Node8</title>
<g id="a_node8"><a xlink:href="http_2_socket_context_upgrade_8h.html" target="_top" xlink:title=" ">
<polygon fill="white" stroke="black" points="181,-140 181,-159 364,-159 364,-140 181,-140"/>
<text text-anchor="middle" x="272.5" y="-147" font-family="Helvetica,sans-Serif" font-size="10.00">web/http/SocketContextUpgrade.h</text>
</a>
</g>
</g>
<!-- Node7&#45;&gt;Node8 -->
<g id="edge7" class="edge">
<title>Node7&#45;&gt;Node8</title>
<path fill="none" stroke="midnightblue" d="M343.75,-201.4C328.64,-190.6 307.86,-175.76 292.64,-164.89"/>
<polygon fill="midnightblue" stroke="midnightblue" points="294.58,-161.97 284.41,-159.01 290.51,-167.67 294.58,-161.97"/>
</g>
<!-- Node9 -->
<g id="node9" class="node">
<title>Node9</title>
<g id="a_node9"><a xlink:href="_receiver_8h.html" target="_top" xlink:title=" ">
<polygon fill="white" stroke="black" points="382.5,-140 382.5,-159 528.5,-159 528.5,-140 382.5,-140"/>
<text text-anchor="middle" x="455.5" y="-147" font-family="Helvetica,sans-Serif" font-size="10.00">web/websocket/Receiver.h</text>
</a>
</g>
</g>
<!-- Node7&#45;&gt;Node9 -->
<g id="edge10" class="edge">
<title>Node7&#45;&gt;Node9</title>
<path fill="none" stroke="midnightblue" d="M383.46,-201.4C398.75,-190.6 419.75,-175.76 435.14,-164.89"/>
<polygon fill="midnightblue" stroke="midnightblue" points="437.31,-167.64 443.46,-159.01 433.27,-161.92 437.31,-167.64"/>
</g>
<!-- Node10 -->
<g id="node10" class="node">
<title>Node10</title>
<g id="a_node10"><a xlink:href="_transmitter_8h.html" target="_top" xlink:title=" ">
<polygon fill="white" stroke="black" points="546.5,-140 546.5,-159 706.5,-159 706.5,-140 546.5,-140"/>
<text text-anchor="middle" x="626.5" y="-147" font-family="Helvetica,sans-Serif" font-size="10.00">web/websocket/Transmitter.h</text>
</a>
</g>
</g>
<!-- Node7&#45;&gt;Node10 -->
<g id="edge11" class="edge">
<title>Node7&#45;&gt;Node10</title>
<path fill="none" stroke="midnightblue" d="M420.24,-201.48C468.72,-189.5 537.48,-172.5 582.04,-161.49"/>
<polygon fill="midnightblue" stroke="midnightblue" points="583.12,-164.83 591.99,-159.03 581.44,-158.03 583.12,-164.83"/>
</g>
<!-- Node8&#45;&gt;Node3 -->
<g id="edge8" class="edge">
<title>Node8&#45;&gt;Node3</title>
<path fill="none" stroke="midnightblue" d="M247.67,-139.87C214.88,-128.47 157,-108.35 119.99,-95.49"/>
<polygon fill="midnightblue" stroke="midnightblue" points="120.73,-92.04 110.14,-92.06 118.43,-98.65 120.73,-92.04"/>
</g>
<!-- Node8&#45;&gt;Node4 -->
<g id="edge9" class="edge">
<title>Node8&#45;&gt;Node4</title>
<path fill="none" stroke="midnightblue" d="M272.23,-139.73C271.98,-131.54 271.59,-118.92 271.25,-107.71"/>
<polygon fill="midnightblue" stroke="midnightblue" points="274.74,-107.48 270.93,-97.59 267.74,-107.69 274.74,-107.48"/>
</g>
</g>
</svg>
